<?xml version="1.0" encoding="UTF-8" standalone="no"?>
<svg
   xmlns:dc="http://purl.org/dc/elements/1.1/"
   xmlns:cc="http://creativecommons.org/ns#"
   xmlns:rdf="http://www.w3.org/1999/02/22-rdf-syntax-ns#"
   xmlns:svg="http://www.w3.org/2000/svg"
   xmlns="http://www.w3.org/2000/svg"
   id="svg78"
   height="379.42913385826773"
   width="165.0"
   version="1.1">
  <metadata
     id="metadata84">
    <rdf:RDF>
      <cc:Work
         rdf:about="">
        <dc:format>image/svg+xml</dc:format>
        <dc:type
           rdf:resource="http://purl.org/dc/dcmitype/StillImage" />
      </cc:Work>
    </rdf:RDF>
  </metadata>
  <defs
     id="defs82" />
  <g
     id="g76"
     transform="scale(2.9527559)">
    <path
       id="rect2"
       d="M 0,0 H 55.880001 V 128.5 H 0 Z"
       style="fill:#f7f2fc;stroke:#7f00ff;stroke-width:1" />
    <g
       id="text4"
       style="font-weight:bold;font-size:4.06400013px;font-family:'Proxima Nova';dominant-baseline:alphabetic;text-anchor:middle;fill:#7f00ff"
       aria-label="BLOOMER">
      <path
         id="path87"
         style="font-weight:bold;font-size:4.06400013px;font-family:'Proxima Nova';dominant-baseline:alphabetic;text-anchor:middle;fill:#7f00ff"
         d="m 18.512568,9 h 1.471168 c 0.516128,0 0.788416,-0.32512 0.788416,-0.73152 0,-0.341376 -0.231648,-0.621792 -0.520192,-0.666496 0.256032,-0.052832 0.46736,-0.2804161 0.46736,-0.6217921 0,-0.361696 -0.26416,-0.69088 -0.780288,-0.69088 h -1.426464 z m 0.577088,-1.6256001 v -0.58928 h 0.723392 c 0.195072,0 0.316992,0.125984 0.316992,0.296672 0,0.170688 -0.12192,0.292608 -0.316992,0.292608 z m 0,1.1257281 v -0.62992 h 0.743712 c 0.227584,0 0.349504,0.146304 0.349504,0.316992 0,0.195072 -0.130048,0.312928 -0.349504,0.312928 z" />
      <path
         id="path89"
         style="font-weight:bold;font-size:4.06400013px;font-family:'Proxima Nova';dominant-baseline:alphabetic;text-anchor:middle;fill:#7f00ff"
         d="m 21.203381,9 h 1.723136 V 8.492 H 21.780469 V 6.2893119 h -0.577088 z" />
      <path
         id="path91"
         style="font-weight:bold;font-size:4.06400013px;font-family:'Proxima Nova';dominant-baseline:alphabetic;text-anchor:middle;fill:#7f00ff"
         d="m 23.089458,7.646688 c 0,0.816864 0.597408,1.40208 1.414272,1.40208 0.820928,0 1.418336,-0.585216 1.418336,-1.40208 0,-0.8168641 -0.597408,-1.4020801 -1.418336,-1.4020801 -0.816864,0 -1.414272,0.585216 -1.414272,1.4020801 z m 2.239264,0 c 0,0.503936 -0.32512,0.890016 -0.824992,0.890016 -0.499872,0 -0.820928,-0.38608 -0.820928,-0.890016 0,-0.5080001 0.321056,-0.8900161 0.820928,-0.8900161 0.499872,0 0.824992,0.382016 0.824992,0.8900161 z" />
      <path
         id="path93"
         style="font-weight:bold;font-size:4.06400013px;font-family:'Proxima Nova';dominant-baseline:alphabetic;text-anchor:middle;fill:#7f00ff"
         d="m 26.200958,7.646688 c 0,0.816864 0.597408,1.40208 1.414272,1.40208 0.820928,0 1.418336,-0.585216 1.418336,-1.40208 0,-0.8168641 -0.597408,-1.4020801 -1.418336,-1.4020801 -0.816864,0 -1.414272,0.585216 -1.414272,1.4020801 z m 2.239264,0 c 0,0.503936 -0.32512,0.890016 -0.824992,0.890016 -0.499872,0 -0.820928,-0.38608 -0.820928,-0.890016 0,-0.5080001 0.321056,-0.8900161 0.820928,-0.8900161 0.499872,0 0.824992,0.382016 0.824992,0.8900161 z" />
      <path
         id="path95"
         style="font-weight:bold;font-size:4.06400013px;font-family:'Proxima Nova';dominant-baseline:alphabetic;text-anchor:middle;fill:#7f00ff"
         d="m 31.799625,9 h 0.581152 V 6.2893119 h -0.8128 L 30.909609,7.927104 30.251241,6.2893119 H 29.442505 V 9 h 0.577088 V 7.1021119 L 30.783625,9 h 0.251968 l 0.764032,-1.8978881 z" />
      <path
         id="path97"
         style="font-weight:bold;font-size:4.06400013px;font-family:'Proxima Nova';dominant-baseline:alphabetic;text-anchor:middle;fill:#7f00ff"
         d="m 32.919131,9 h 1.918208 V 8.492 h -1.34112 V 7.878336 h 1.312672 V 7.3703359 h -1.312672 v -0.573024 h 1.34112 v -0.508 h -1.918208 z" />
      <path
         id="path99"
         style="font-weight:bold;font-size:4.06400013px;font-family:'Proxima Nova';dominant-baseline:alphabetic;text-anchor:middle;fill:#7f00ff"
         d="m 36.824571,9 h 0.662432 l -0.6096,-1.032256 c 0.292608,-0.069088 0.593344,-0.32512 0.593344,-0.8046721 0,-0.503936 -0.34544,-0.87376 -0.910336,-0.87376 H 35.292443 V 9 h 0.577088 V 8.036832 h 0.422656 z m 0.0569,-1.8369281 c 0,0.227584 -0.174752,0.3657601 -0.4064,0.3657601 H 35.869531 V 6.7973119 h 0.605536 c 0.231648,0 0.4064,0.138176 0.4064,0.36576 z" />
    </g>
    <g
       id="text6"
       style="font-weight:bold;font-size:4.06400013px;font-family:'Proxima Nova';dominant-baseline:hanging;text-anchor:middle;fill:#7f00ff"
       aria-label="DHE">
      <path
         id="path102"
         style="font-weight:bold;font-size:4.06400013px;font-family:'Proxima Nova';dominant-baseline:hanging;text-anchor:middle;fill:#7f00ff"
         d="m 24.076756,122.06845 h 1.068832 c 0.849376,0 1.438656,-0.53645 1.438656,-1.35331 0,-0.81687 -0.58928,-1.35738 -1.438656,-1.35738 h -1.068832 z m 0.577088,-0.508 v -1.69469 h 0.491744 c 0.556768,0 0.849376,0.36982 0.849376,0.84938 0,0.45923 -0.312928,0.84531 -0.849376,0.84531 z" />
      <path
         id="path104"
         style="font-weight:bold;font-size:4.06400013px;font-family:'Proxima Nova';dominant-baseline:hanging;text-anchor:middle;fill:#7f00ff"
         d="m 28.855004,122.06845 h 0.581152 v -2.71069 h -0.581152 v 1.06477 h -1.28016 v -1.06477 h -0.577088 v 2.71069 h 0.577088 v -1.13792 h 1.28016 z" />
      <path
         id="path106"
         style="font-weight:bold;font-size:4.06400013px;font-family:'Proxima Nova';dominant-baseline:hanging;text-anchor:middle;fill:#7f00ff"
         d="m 29.966381,122.06845 h 1.918208 v -0.508 h -1.34112 v -0.61367 h 1.312672 v -0.508 h -1.312672 v -0.57302 h 1.34112 v -0.508 h -1.918208 z" />
    </g>
    <path
       id="line8"
       d="M 7.9828572,25 H 34.592381"
       style="stroke:#7f00ff;stroke-width:0.34999999" />
    <g
       id="text10"
       style="font-weight:bold;font-size:2.37066674px;font-family:'Proxima Nova';dominant-baseline:alphabetic;text-anchor:middle;fill:#7f00ff"
       aria-label="CV">
      <path
         id="path110"
         style="font-weight:bold;font-size:2.37066674px;font-family:'Proxima Nova';dominant-baseline:alphabetic;text-anchor:middle;fill:#7f00ff"
         d="m 7.2844736,19.828447 c 0.348488,0 0.547624,-0.192024 0.661416,-0.388789 L 7.6566683,19.299789 c -0.066379,0.130386 -0.2086187,0.229954 -0.3721947,0.229954 -0.2868507,0 -0.4954693,-0.220472 -0.4954693,-0.519176 0,-0.298704 0.2086186,-0.519176 0.4954693,-0.519176 0.163576,0 0.305816,0.101939 0.3721947,0.229955 l 0.2892213,-0.14224 c -0.1114213,-0.196765 -0.312928,-0.386419 -0.661416,-0.386419 -0.4741333,0 -0.8415867,0.331894 -0.8415867,0.81788 0,0.485987 0.3674534,0.81788 0.8415867,0.81788 z" />
      <path
         id="path112"
         style="font-weight:bold;font-size:2.37066674px;font-family:'Proxima Nova';dominant-baseline:alphabetic;text-anchor:middle;fill:#7f00ff"
         d="M 8.5826359,19.799999 H 9.0046145 L 9.6138759,18.218765 H 9.2298279 L 8.7936252,19.434917 8.3550519,18.218765 H 7.9710038 Z" />
    </g>
    <g
       id="text14"
       style="font-weight:bold;font-size:3.0480001px;font-family:'Proxima Nova';dominant-baseline:alphabetic;text-anchor:middle;fill:#7f00ff"
       aria-label="-  +">
      <path
         id="path115"
         style="font-size:larger"
         d="m 18.989903,19.812371 h 0.877824 V 19.41735 h -0.877824 z" />
      <path
         id="path117"
         style="font-size:larger"
         d="m 22.934625,19.410035 h 0.65471 v -0.28895 h -0.65471 v -0.713232 h -0.318211 v 0.713232 h -0.658368 v 0.28895 h 0.658368 v 0.742493 h 0.318211 z" />
    </g>
    <g
       id="text16"
       style="font-weight:bold;font-size:3.0480001px;font-family:'Proxima Nova';dominant-baseline:alphabetic;text-anchor:middle;fill:#7f00ff"
       aria-label="SPIN">
      <path
         id="path120"
         style="font-weight:bold;font-size:3.0480001px;font-family:'Proxima Nova';dominant-baseline:alphabetic;text-anchor:middle;fill:#7f00ff"
         d="m 31.266084,17.363488 c 0.188976,0.192024 0.469392,0.323088 0.859536,0.323088 0.54864,0 0.813816,-0.280416 0.813816,-0.652272 0,-0.460248 -0.42672,-0.560832 -0.762,-0.64008 -0.219456,-0.05182 -0.405384,-0.09449 -0.405384,-0.225552 0,-0.12192 0.103632,-0.204216 0.28956,-0.204216 0.207264,0 0.42672,0.0701 0.591312,0.222504 l 0.240792,-0.316992 c -0.201168,-0.185928 -0.469392,-0.283464 -0.79248,-0.283464 -0.478536,0 -0.771144,0.280416 -0.771144,0.618744 0,0.463296 0.42672,0.554736 0.758952,0.630936 0.222504,0.05486 0.41148,0.09754 0.41148,0.246888 0,0.115824 -0.115824,0.225552 -0.353568,0.225552 -0.280416,0 -0.50292,-0.124968 -0.646176,-0.27432 z" />
      <path
         id="path122"
         style="font-weight:bold;font-size:3.0480001px;font-family:'Proxima Nova';dominant-baseline:alphabetic;text-anchor:middle;fill:#7f00ff"
         d="m 33.230853,17.65 h 0.432816 v -0.722376 h 0.51816 c 0.438912,0 0.682752,-0.301752 0.682752,-0.65532 0,-0.356616 -0.240792,-0.65532 -0.682752,-0.65532 h -0.950976 z m 1.191768,-1.377696 c 0,0.16764 -0.128016,0.27432 -0.298704,0.27432 h -0.460248 v -0.54864 h 0.460248 c 0.170688,0 0.298704,0.103632 0.298704,0.27432 z" />
      <path
         id="path124"
         style="font-weight:bold;font-size:3.0480001px;font-family:'Proxima Nova';dominant-baseline:alphabetic;text-anchor:middle;fill:#7f00ff"
         d="m 35.1299,17.65 h 0.432816 V 15.616984 H 35.1299 Z" />
      <path
         id="path126"
         style="font-weight:bold;font-size:3.0480001px;font-family:'Proxima Nova';dominant-baseline:alphabetic;text-anchor:middle;fill:#7f00ff"
         d="m 37.365418,17.65 h 0.417576 v -2.033016 h -0.432816 v 1.277112 L 36.408346,15.616984 H 35.963338 V 17.65 h 0.432816 v -1.32588 z" />
    </g>
    <path
       id="line18"
       d="M 7.9828572,43.5 H 34.592381"
       style="stroke:#7f00ff;stroke-width:0.34999999" />
    <g
       id="text20"
       style="font-weight:bold;font-size:2.37066674px;font-family:'Proxima Nova';dominant-baseline:alphabetic;text-anchor:middle;fill:#7f00ff"
       aria-label="CV">
      <path
         id="path130"
         style="font-weight:bold;font-size:2.37066674px;font-family:'Proxima Nova';dominant-baseline:alphabetic;text-anchor:middle;fill:#7f00ff"
         d="m 7.2844736,38.328447 c 0.348488,0 0.547624,-0.192024 0.661416,-0.388789 L 7.6566683,37.799789 c -0.066379,0.130386 -0.2086187,0.229954 -0.3721947,0.229954 -0.2868507,0 -0.4954693,-0.220472 -0.4954693,-0.519176 0,-0.298704 0.2086186,-0.519176 0.4954693,-0.519176 0.163576,0 0.305816,0.101939 0.3721947,0.229955 l 0.2892213,-0.14224 c -0.1114213,-0.196765 -0.312928,-0.386419 -0.661416,-0.386419 -0.4741333,0 -0.8415867,0.331894 -0.8415867,0.81788 0,0.485987 0.3674534,0.81788 0.8415867,0.81788 z" />
      <path
         id="path132"
         style="font-weight:bold;font-size:2.37066674px;font-family:'Proxima Nova';dominant-baseline:alphabetic;text-anchor:middle;fill:#7f00ff"
         d="M 8.5826359,38.299999 H 9.0046145 L 9.6138759,36.718765 H 9.2298279 L 8.7936252,37.934917 8.3550519,36.718765 H 7.9710038 Z" />
    </g>
    <g
       id="text24"
       style="font-weight:bold;font-size:3.0480001px;font-family:'Proxima Nova';dominant-baseline:alphabetic;text-anchor:middle;fill:#7f00ff"
       aria-label="-  +">
      <path
         id="path135"
         style="font-size:larger"
         d="m 18.989903,38.312371 h 0.877824 V 37.91735 h -0.877824 z" />
      <path
         id="path137"
         style="font-size:larger"
         d="m 22.934625,37.910035 h 0.65471 v -0.28895 h -0.65471 v -0.713232 h -0.318211 v 0.713232 h -0.658368 v 0.28895 h 0.658368 v 0.742493 h 0.318211 z" />
    </g>
    <g
       id="text26"
       style="font-weight:bold;font-size:3.0480001px;font-family:'Proxima Nova';dominant-baseline:alphabetic;text-anchor:middle;fill:#7f00ff"
       aria-label="BOUNCE">
      <path
         id="path140"
         style="font-weight:bold;font-size:3.0480001px;font-family:'Proxima Nova';dominant-baseline:alphabetic;text-anchor:middle;fill:#7f00ff"
         d="m 28.45347,36.150002 h 1.103376 c 0.387096,0 0.591312,-0.24384 0.591312,-0.54864 0,-0.256032 -0.173736,-0.466345 -0.390144,-0.499873 0.192024,-0.03962 0.35052,-0.210312 0.35052,-0.466344 0,-0.271272 -0.19812,-0.51816 -0.585216,-0.51816 H 28.45347 Z m 0.432816,-1.219201 v -0.44196 h 0.542544 c 0.146304,0 0.237744,0.09449 0.237744,0.222504 0,0.128016 -0.09144,0.219456 -0.237744,0.219456 z m 0,0.844297 v -0.472441 h 0.557784 c 0.170688,0 0.262128,0.109729 0.262128,0.237745 0,0.146304 -0.09754,0.234696 -0.262128,0.234696 z" />
      <path
         id="path142"
         style="font-weight:bold;font-size:3.0480001px;font-family:'Proxima Nova';dominant-baseline:alphabetic;text-anchor:middle;fill:#7f00ff"
         d="m 30.374044,35.135017 c 0,0.612649 0.448056,1.051561 1.060704,1.051561 0.615696,0 1.063752,-0.438912 1.063752,-1.051561 0,-0.612648 -0.448056,-1.05156 -1.063752,-1.05156 -0.612648,0 -1.060704,0.438912 -1.060704,1.05156 z m 1.679448,0 c 0,0.377953 -0.24384,0.667513 -0.618744,0.667513 -0.374904,0 -0.615696,-0.28956 -0.615696,-0.667513 0,-0.381 0.240792,-0.667512 0.615696,-0.667512 0.374904,0 0.618744,0.286512 0.618744,0.667512 z" />
      <path
         id="path144"
         style="font-weight:bold;font-size:3.0480001px;font-family:'Proxima Nova';dominant-baseline:alphabetic;text-anchor:middle;fill:#7f00ff"
         d="m 32.805204,35.339234 c 0,0.499872 0.298704,0.847344 0.917448,0.847344 0.618744,0 0.917448,-0.344424 0.917448,-0.850393 v -1.2192 h -0.44196 v 1.207008 c 0,0.283465 -0.161544,0.478537 -0.475488,0.478537 -0.313944,0 -0.478536,-0.195072 -0.478536,-0.478537 v -1.207008 h -0.438912 z" />
      <path
         id="path146"
         style="font-weight:bold;font-size:3.0480001px;font-family:'Proxima Nova';dominant-baseline:alphabetic;text-anchor:middle;fill:#7f00ff"
         d="m 36.439706,36.150002 h 0.417576 v -2.033017 h -0.432816 v 1.277113 l -0.941832,-1.277113 h -0.445008 v 2.033017 h 0.432816 v -1.325881 z" />
      <path
         id="path148"
         style="font-weight:bold;font-size:3.0480001px;font-family:'Proxima Nova';dominant-baseline:alphabetic;text-anchor:middle;fill:#7f00ff"
         d="m 38.242646,36.186578 c 0.448056,0 0.704088,-0.246888 0.850393,-0.499872 l -0.371857,-0.179832 c -0.08534,0.16764 -0.268224,0.295656 -0.478536,0.295656 -0.368808,0 -0.637032,-0.283464 -0.637032,-0.667513 0,-0.384048 0.268224,-0.667512 0.637032,-0.667512 0.210312,0 0.393192,0.131064 0.478536,0.295656 l 0.371857,-0.18288 c -0.143257,-0.252984 -0.402337,-0.496824 -0.850393,-0.496824 -0.6096,0 -1.08204,0.42672 -1.08204,1.05156 0,0.624841 0.47244,1.051561 1.08204,1.051561 z" />
      <path
         id="path150"
         style="font-weight:bold;font-size:3.0480001px;font-family:'Proxima Nova';dominant-baseline:alphabetic;text-anchor:middle;fill:#7f00ff"
         d="m 39.353642,36.150002 h 1.438656 v -0.381 h -1.00584 v -0.460249 h 0.984504 v -0.381 h -0.984504 v -0.429768 h 1.00584 v -0.381 h -1.438656 z" />
    </g>
    <path
       id="line28"
       d="M 7.9828572,62 H 34.592381"
       style="stroke:#7f00ff;stroke-width:0.34999999" />
    <g
       id="text30"
       style="font-weight:bold;font-size:2.37066674px;font-family:'Proxima Nova';dominant-baseline:alphabetic;text-anchor:middle;fill:#7f00ff"
       aria-label="CV">
      <path
         id="path154"
         style="font-weight:bold;font-size:2.37066674px;font-family:'Proxima Nova';dominant-baseline:alphabetic;text-anchor:middle;fill:#7f00ff"
         d="m 7.2844736,56.828447 c 0.348488,0 0.547624,-0.192024 0.661416,-0.388789 L 7.6566683,56.299789 c -0.066379,0.130386 -0.2086187,0.229954 -0.3721947,0.229954 -0.2868507,0 -0.4954693,-0.220472 -0.4954693,-0.519176 0,-0.298704 0.2086186,-0.519176 0.4954693,-0.519176 0.163576,0 0.305816,0.101939 0.3721947,0.229955 l 0.2892213,-0.14224 c -0.1114213,-0.196765 -0.312928,-0.386419 -0.661416,-0.386419 -0.4741333,0 -0.8415867,0.331894 -0.8415867,0.81788 0,0.485987 0.3674534,0.81788 0.8415867,0.81788 z" />
      <path
         id="path156"
         style="font-weight:bold;font-size:2.37066674px;font-family:'Proxima Nova';dominant-baseline:alphabetic;text-anchor:middle;fill:#7f00ff"
         d="M 8.5826359,56.799999 H 9.0046145 L 9.6138759,55.218765 H 9.2298279 L 8.7936252,56.434917 8.3550519,55.218765 H 7.9710038 Z" />
    </g>
    <g
       id="text34"
       style="font-weight:bold;font-size:3.0480001px;font-family:'Proxima Nova';dominant-baseline:alphabetic;text-anchor:middle;fill:#7f00ff"
       aria-label="-  +">
      <path
         id="path159"
         style="font-size:larger"
         d="m 18.989903,56.812371 h 0.877824 V 56.41735 h -0.877824 z" />
      <path
         id="path161"
         style="font-size:larger"
         d="m 22.934625,56.410035 h 0.65471 v -0.28895 h -0.65471 v -0.713232 h -0.318211 v 0.713232 h -0.658368 v 0.28895 h 0.658368 v 0.742493 h 0.318211 z" />
    </g>
    <g
       id="text36"
       style="font-weight:bold;font-size:3.0480001px;font-family:'Proxima Nova';dominant-baseline:alphabetic;text-anchor:middle;fill:#7f00ff"
       aria-label="DEPTH">
      <path
         id="path164"
         style="font-weight:bold;font-size:3.0480001px;font-family:'Proxima Nova';dominant-baseline:alphabetic;text-anchor:middle;fill:#7f00ff"
         d="m 29.858408,54.650002 h 0.801624 c 0.637032,0 1.078992,-0.402336 1.078992,-1.014985 0,-0.612648 -0.44196,-1.018032 -1.078992,-1.018032 h -0.801624 z m 0.432816,-0.381 v -1.271017 h 0.368808 c 0.417576,0 0.637032,0.277368 0.637032,0.637032 0,0.344425 -0.234696,0.633985 -0.637032,0.633985 z" />
      <path
         id="path166"
         style="font-weight:bold;font-size:3.0480001px;font-family:'Proxima Nova';dominant-baseline:alphabetic;text-anchor:middle;fill:#7f00ff"
         d="m 32.049158,54.650002 h 1.438656 v -0.381 h -1.00584 v -0.460249 h 0.984504 v -0.381 h -0.984504 v -0.429768 h 1.00584 v -0.381 h -1.438656 z" />
      <path
         id="path168"
         style="font-weight:bold;font-size:3.0480001px;font-family:'Proxima Nova';dominant-baseline:alphabetic;text-anchor:middle;fill:#7f00ff"
         d="m 33.829142,54.650002 h 0.432816 v -0.722376 h 0.51816 c 0.438912,0 0.682752,-0.301753 0.682752,-0.655321 0,-0.356616 -0.240792,-0.65532 -0.682752,-0.65532 h -0.950976 z m 1.191768,-1.377697 c 0,0.16764 -0.128016,0.27432 -0.298704,0.27432 h -0.460248 v -0.54864 h 0.460248 c 0.170688,0 0.298704,0.103632 0.298704,0.27432 z" />
      <path
         id="path170"
         style="font-weight:bold;font-size:3.0480001px;font-family:'Proxima Nova';dominant-baseline:alphabetic;text-anchor:middle;fill:#7f00ff"
         d="m 36.197581,54.650002 h 0.435864 v -1.652017 h 0.591312 v -0.381 h -1.621536 v 0.381 h 0.59436 z" />
      <path
         id="path172"
         style="font-weight:bold;font-size:3.0480001px;font-family:'Proxima Nova';dominant-baseline:alphabetic;text-anchor:middle;fill:#7f00ff"
         d="m 38.895156,54.650002 h 0.435864 v -2.033017 h -0.435864 v 0.798576 h -0.96012 V 52.616985 H 37.50222 v 2.033017 h 0.432816 v -0.853441 h 0.96012 z" />
    </g>
    <path
       id="line38"
       d="M 7.9828572,80.5 H 34.592381"
       style="stroke:#7f00ff;stroke-width:0.34999999" />
    <g
       id="text40"
       style="font-weight:bold;font-size:2.37066674px;font-family:'Proxima Nova';dominant-baseline:alphabetic;text-anchor:middle;fill:#7f00ff"
       aria-label="CV">
      <path
         id="path176"
         style="font-weight:bold;font-size:2.37066674px;font-family:'Proxima Nova';dominant-baseline:alphabetic;text-anchor:middle;fill:#7f00ff"
         d="m 7.2844736,75.328451 c 0.348488,0 0.547624,-0.192024 0.661416,-0.388789 l -0.2892213,-0.13987 c -0.066379,0.130387 -0.2086187,0.229955 -0.3721947,0.229955 -0.2868507,0 -0.4954693,-0.220472 -0.4954693,-0.519176 0,-0.298704 0.2086186,-0.519176 0.4954693,-0.519176 0.163576,0 0.305816,0.101939 0.3721947,0.229955 l 0.2892213,-0.14224 c -0.1114213,-0.196766 -0.312928,-0.386419 -0.661416,-0.386419 -0.4741333,0 -0.8415867,0.331893 -0.8415867,0.81788 0,0.485987 0.3674534,0.81788 0.8415867,0.81788 z" />
      <path
         id="path178"
         style="font-weight:bold;font-size:2.37066674px;font-family:'Proxima Nova';dominant-baseline:alphabetic;text-anchor:middle;fill:#7f00ff"
         d="M 8.5826359,75.300003 H 9.0046145 L 9.6138759,73.718768 H 9.2298279 L 8.7936252,74.93492 8.3550519,73.718768 H 7.9710038 Z" />
    </g>
    <g
       id="text44"
       style="font-weight:bold;font-size:3.0480001px;font-family:'Proxima Nova';dominant-baseline:alphabetic;text-anchor:middle;fill:#7f00ff"
       aria-label="-  +">
      <path
         id="path181"
         style="font-size:larger"
         d="m 18.989903,75.312371 h 0.877824 V 74.91735 h -0.877824 z" />
      <path
         id="path183"
         style="font-size:larger"
         d="m 22.934625,74.910035 h 0.65471 v -0.28895 h -0.65471 v -0.713232 h -0.318211 v 0.713232 h -0.658368 v 0.28895 h 0.658368 v 0.742493 h 0.318211 z" />
    </g>
    <g
       id="text46"
       style="font-weight:bold;font-size:3.0480001px;font-family:'Proxima Nova';dominant-baseline:alphabetic;text-anchor:middle;fill:#7f00ff"
       aria-label="PHASE">
      <path
         id="path186"
         style="font-weight:bold;font-size:3.0480001px;font-family:'Proxima Nova';dominant-baseline:alphabetic;text-anchor:middle;fill:#7f00ff"
         d="m 29.897103,73.150002 h 0.432816 v -0.722376 h 0.51816 c 0.438912,0 0.682752,-0.301753 0.682752,-0.655321 0,-0.356616 -0.240792,-0.65532 -0.682752,-0.65532 h -0.950976 z m 1.191768,-1.377697 c 0,0.16764 -0.128016,0.27432 -0.298704,0.27432 h -0.460248 v -0.54864 h 0.460248 c 0.170688,0 0.298704,0.103632 0.298704,0.27432 z" />
      <path
         id="path188"
         style="font-weight:bold;font-size:3.0480001px;font-family:'Proxima Nova';dominant-baseline:alphabetic;text-anchor:middle;fill:#7f00ff"
         d="m 33.189086,73.150002 h 0.435864 v -2.033017 h -0.435864 v 0.798576 h -0.96012 V 71.116985 H 31.79615 v 2.033017 h 0.432816 v -0.853441 h 0.96012 z" />
      <path
         id="path190"
         style="font-weight:bold;font-size:3.0480001px;font-family:'Proxima Nova';dominant-baseline:alphabetic;text-anchor:middle;fill:#7f00ff"
         d="m 35.424699,73.150002 h 0.493776 l -0.783336,-2.033017 h -0.542544 l -0.786384,2.033017 h 0.493776 l 0.128016,-0.344424 h 0.871728 z m -0.560832,-1.600201 0.316992,0.874777 h -0.633984 z" />
      <path
         id="path192"
         style="font-weight:bold;font-size:3.0480001px;font-family:'Proxima Nova';dominant-baseline:alphabetic;text-anchor:middle;fill:#7f00ff"
         d="m 35.94524,72.86349 c 0.188976,0.192024 0.469392,0.323088 0.859536,0.323088 0.54864,0 0.813816,-0.280416 0.813816,-0.652272 0,-0.460249 -0.42672,-0.560833 -0.762,-0.640081 -0.219456,-0.05182 -0.405384,-0.09449 -0.405384,-0.225552 0,-0.12192 0.103632,-0.204216 0.28956,-0.204216 0.207264,0 0.42672,0.0701 0.591312,0.222504 l 0.240792,-0.316992 c -0.201168,-0.185928 -0.469392,-0.283464 -0.79248,-0.283464 -0.478536,0 -0.771144,0.280416 -0.771144,0.618744 0,0.463296 0.42672,0.554736 0.758952,0.630936 0.222504,0.05487 0.41148,0.09754 0.41148,0.246889 0,0.115824 -0.115824,0.225552 -0.353568,0.225552 -0.280416,0 -0.50292,-0.124968 -0.646176,-0.27432 z" />
      <path
         id="path194"
         style="font-weight:bold;font-size:3.0480001px;font-family:'Proxima Nova';dominant-baseline:alphabetic;text-anchor:middle;fill:#7f00ff"
         d="m 37.910009,73.150002 h 1.438656 v -0.381 h -1.00584 v -0.460249 h 0.984504 v -0.381 h -0.984504 v -0.429768 h 1.00584 v -0.381 h -1.438656 z" />
    </g>
    <path
       id="line48"
       d="M 7.9828572,97 H 47.897144"
       style="stroke:#7f00ff;stroke-width:0.34999999" />
    <g
       id="text50"
       style="font-weight:bold;font-size:2.37066674px;font-family:'Proxima Nova';dominant-baseline:alphabetic;text-anchor:middle;fill:#7f00ff"
       aria-label="CV">
      <path
         id="path198"
         style="font-weight:bold;font-size:2.37066674px;font-family:'Proxima Nova';dominant-baseline:alphabetic;text-anchor:middle;fill:#7f00ff"
         d="m 7.2844736,91.828451 c 0.348488,0 0.547624,-0.192024 0.661416,-0.388789 l -0.2892213,-0.13987 c -0.066379,0.130387 -0.2086187,0.229955 -0.3721947,0.229955 -0.2868507,0 -0.4954693,-0.220472 -0.4954693,-0.519176 0,-0.298704 0.2086186,-0.519176 0.4954693,-0.519176 0.163576,0 0.305816,0.101939 0.3721947,0.229955 l 0.2892213,-0.14224 c -0.1114213,-0.196766 -0.312928,-0.386419 -0.661416,-0.386419 -0.4741333,0 -0.8415867,0.331893 -0.8415867,0.81788 0,0.485987 0.3674534,0.81788 0.8415867,0.81788 z" />
      <path
         id="path200"
         style="font-weight:bold;font-size:2.37066674px;font-family:'Proxima Nova';dominant-baseline:alphabetic;text-anchor:middle;fill:#7f00ff"
         d="M 8.5826359,91.800003 H 9.0046145 L 9.6138759,90.218768 H 9.2298279 L 8.7936252,91.43492 8.3550519,90.218768 H 7.9710038 Z" />
    </g>
    <g
       id="text52"
       style="font-weight:bold;font-size:2.37066674px;font-family:'Proxima Nova';dominant-baseline:alphabetic;text-anchor:middle;fill:#7f00ff"
       aria-label="GAIN">
      <path
         id="path203"
         style="font-weight:bold;font-size:2.37066674px;font-family:'Proxima Nova';dominant-baseline:alphabetic;text-anchor:middle;fill:#7f00ff"
         d="m 18.525273,91.010571 c 0,0.49784 0.379307,0.820251 0.841587,0.820251 0.286851,0 0.512064,-0.118534 0.673269,-0.298704 v -0.606891 h -0.753872 v 0.293963 h 0.417238 v 0.189653 c -0.06401,0.05927 -0.196766,0.120904 -0.336635,0.120904 -0.286851,0 -0.495469,-0.220472 -0.495469,-0.519176 0,-0.298704 0.208618,-0.519176 0.495469,-0.519176 0.168317,0 0.303445,0.09483 0.374565,0.206248 l 0.279739,-0.151723 c -0.118533,-0.187282 -0.324781,-0.353229 -0.654304,-0.353229 -0.46228,0 -0.841587,0.317669 -0.841587,0.81788 z" />
      <path
         id="path205"
         style="font-weight:bold;font-size:2.37066674px;font-family:'Proxima Nova';dominant-baseline:alphabetic;text-anchor:middle;fill:#7f00ff"
         d="m 21.381667,91.800003 h 0.384048 l -0.609261,-1.581235 h -0.421979 l -0.611632,1.581235 h 0.384048 l 0.09957,-0.267885 h 0.678011 z m -0.436202,-1.2446 0.246549,0.680381 h -0.493099 z" />
      <path
         id="path207"
         style="font-weight:bold;font-size:2.37066674px;font-family:'Proxima Nova';dominant-baseline:alphabetic;text-anchor:middle;fill:#7f00ff"
         d="m 21.911733,91.800003 h 0.336635 v -1.581235 h -0.336635 z" />
      <path
         id="path209"
         style="font-weight:bold;font-size:2.37066674px;font-family:'Proxima Nova';dominant-baseline:alphabetic;text-anchor:middle;fill:#7f00ff"
         d="m 23.65047,91.800003 h 0.324781 v -1.581235 h -0.336635 v 0.99331 l -0.732536,-0.99331 h -0.346117 v 1.581235 h 0.336635 v -1.03124 z" />
    </g>
    <g
       id="text54"
       style="font-weight:bold;font-size:2.37066674px;font-family:'Proxima Nova';dominant-baseline:hanging;text-anchor:middle;fill:#7f00ff"
       aria-label="BI">
      <path
         id="path212"
         style="font-weight:bold;font-size:2.37066674px;font-family:'Proxima Nova';dominant-baseline:hanging;text-anchor:middle;fill:#7f00ff"
         d="m 33.63991,102.49826 h 0.858181 c 0.301075,0 0.459909,-0.18965 0.459909,-0.42672 0,-0.19913 -0.135128,-0.36271 -0.303445,-0.38879 0.149352,-0.0308 0.272627,-0.16357 0.272627,-0.36271 0,-0.21099 -0.154094,-0.40301 -0.455168,-0.40301 H 33.63991 Z m 0.336634,-0.94827 v -0.34374 h 0.421979 c 0.113792,0 0.184912,0.0735 0.184912,0.17306 0,0.0996 -0.07112,0.17068 -0.184912,0.17068 z m 0,0.65668 v -0.36745 h 0.433832 c 0.132758,0 0.203878,0.0853 0.203878,0.18491 0,0.11379 -0.07586,0.18254 -0.203878,0.18254 z" />
      <path
         id="path214"
         style="font-weight:bold;font-size:2.37066674px;font-family:'Proxima Nova';dominant-baseline:hanging;text-anchor:middle;fill:#7f00ff"
         d="m 35.20955,102.49826 h 0.336635 v -1.58123 H 35.20955 Z" />
    </g>
    <g
       id="text56"
       style="font-weight:bold;font-size:2.37066674px;font-family:'Proxima Nova';dominant-baseline:alphabetic;text-anchor:middle;fill:#7f00ff"
       aria-label="UNI">
      <path
         id="path217"
         style="font-weight:bold;font-size:2.37066674px;font-family:'Proxima Nova';dominant-baseline:alphabetic;text-anchor:middle;fill:#7f00ff"
         d="m 32.693032,92.369403 c 0,0.388789 0.232325,0.659045 0.713571,0.659045 0.481245,0 0.71357,-0.267885 0.71357,-0.661416 v -0.948267 h -0.343746 v 0.938784 c 0,0.220472 -0.125646,0.372195 -0.369824,0.372195 -0.244179,0 -0.372195,-0.151723 -0.372195,-0.372195 v -0.938784 h -0.341376 z" />
      <path
         id="path219"
         style="font-weight:bold;font-size:2.37066674px;font-family:'Proxima Nova';dominant-baseline:alphabetic;text-anchor:middle;fill:#7f00ff"
         d="m 35.519867,93 h 0.324781 v -1.581235 h -0.336635 v 0.99331 l -0.732536,-0.99331 H 34.42936 V 93 h 0.336635 v -1.03124 z" />
      <path
         id="path221"
         style="font-weight:bold;font-size:2.37066674px;font-family:'Proxima Nova';dominant-baseline:alphabetic;text-anchor:middle;fill:#7f00ff"
         d="m 36.156428,93 h 0.336634 v -1.581235 h -0.336634 z" />
    </g>
    <path
       id="rect58"
       d="m 43.522144,90.294556 h 8.75 c 0.554,0 1,0.446 1,1 V 102.625 c 0,0.554 -0.446,1 -1,1 h -8.75 c -0.554,0 -1,-0.446 -1,-1 V 91.294556 c 0,-0.554 0.446,-1 1,-1 z"
       style="fill:#7f00ff;stroke:#7f00ff;stroke-width:0.34999999" />
    <g
       id="text60"
       style="font-weight:bold;font-size:2.37066674px;font-family:'Proxima Nova';dominant-baseline:alphabetic;text-anchor:middle;fill:#f7f2fc"
       aria-label="X OUT">
      <path
         id="path225"
         style="font-weight:bold;font-size:2.37066674px;font-family:'Proxima Nova';dominant-baseline:alphabetic;text-anchor:middle;fill:#f7f2fc"
         d="m 45.524218,93.050003 h 0.403013 l -0.573701,-0.813139 0.538141,-0.768096 h -0.405384 l -0.35797,0.540512 -0.362712,-0.540512 h -0.400643 l 0.538141,0.770467 -0.573701,0.810768 h 0.400643 l 0.398272,-0.578443 z" />
      <path
         id="path227"
         style="font-weight:bold;font-size:2.37066674px;font-family:'Proxima Nova';dominant-baseline:alphabetic;text-anchor:middle;fill:#f7f2fc"
         d="m 46.607205,92.260571 c 0,0.476504 0.348488,0.81788 0.824992,0.81788 0.478875,0 0.827363,-0.341376 0.827363,-0.81788 0,-0.476504 -0.348488,-0.81788 -0.827363,-0.81788 -0.476504,0 -0.824992,0.341376 -0.824992,0.81788 z m 1.306238,0 c 0,0.293963 -0.189654,0.519176 -0.481246,0.519176 -0.291592,0 -0.478874,-0.225213 -0.478874,-0.519176 0,-0.296333 0.187282,-0.519176 0.478874,-0.519176 0.291592,0 0.481246,0.222843 0.481246,0.519176 z" />
      <path
         id="path229"
         style="font-weight:bold;font-size:2.37066674px;font-family:'Proxima Nova';dominant-baseline:alphabetic;text-anchor:middle;fill:#f7f2fc"
         d="m 48.498108,92.419406 c 0,0.388789 0.232326,0.659045 0.713571,0.659045 0.481245,0 0.713571,-0.267885 0.713571,-0.661416 v -0.948267 h -0.343747 v 0.938784 c 0,0.220472 -0.125645,0.372195 -0.369824,0.372195 -0.244179,0 -0.372195,-0.151723 -0.372195,-0.372195 v -0.938784 h -0.341376 z" />
      <path
         id="path231"
         style="font-weight:bold;font-size:2.37066674px;font-family:'Proxima Nova';dominant-baseline:alphabetic;text-anchor:middle;fill:#f7f2fc"
         d="m 50.599519,93.050003 h 0.339005 v -1.284901 h 0.45991 v -0.296334 h -1.261195 v 0.296334 h 0.46228 z" />
    </g>
    <path
       id="line62"
       d="M 7.9828572,112 H 47.897144"
       style="stroke:#7f00ff;stroke-width:0.34999999" />
    <g
       id="text64"
       style="font-weight:bold;font-size:2.37066674px;font-family:'Proxima Nova';dominant-baseline:alphabetic;text-anchor:middle;fill:#7f00ff"
       aria-label="CV">
      <path
         id="path235"
         style="font-weight:bold;font-size:2.37066674px;font-family:'Proxima Nova';dominant-baseline:alphabetic;text-anchor:middle;fill:#7f00ff"
         d="m 7.2844736,106.82845 c 0.348488,0 0.547624,-0.19202 0.661416,-0.38879 l -0.2892213,-0.13987 c -0.066379,0.13039 -0.2086187,0.22996 -0.3721947,0.22996 -0.2868507,0 -0.4954693,-0.22047 -0.4954693,-0.51918 0,-0.2987 0.2086186,-0.51917 0.4954693,-0.51917 0.163576,0 0.305816,0.10193 0.3721947,0.22995 l 0.2892213,-0.14224 c -0.1114213,-0.19677 -0.312928,-0.38642 -0.661416,-0.38642 -0.4741333,0 -0.8415867,0.33189 -0.8415867,0.81788 0,0.48599 0.3674534,0.81788 0.8415867,0.81788 z" />
      <path
         id="path237"
         style="font-weight:bold;font-size:2.37066674px;font-family:'Proxima Nova';dominant-baseline:alphabetic;text-anchor:middle;fill:#7f00ff"
         d="m 8.5826359,106.8 h 0.4219786 l 0.6092614,-1.58123 h -0.384048 l -0.4362027,1.21615 -0.4385733,-1.21615 H 7.9710038 Z" />
    </g>
    <g
       id="text66"
       style="font-weight:bold;font-size:2.37066674px;font-family:'Proxima Nova';dominant-baseline:alphabetic;text-anchor:middle;fill:#7f00ff"
       aria-label="GAIN">
      <path
         id="path240"
         style="font-weight:bold;font-size:2.37066674px;font-family:'Proxima Nova';dominant-baseline:alphabetic;text-anchor:middle;fill:#7f00ff"
         d="m 18.525273,106.01057 c 0,0.49784 0.379307,0.82025 0.841587,0.82025 0.286851,0 0.512064,-0.11853 0.673269,-0.2987 v -0.60689 h -0.753872 v 0.29396 h 0.417238 v 0.18965 c -0.06401,0.0593 -0.196766,0.12091 -0.336635,0.12091 -0.286851,0 -0.495469,-0.22047 -0.495469,-0.51918 0,-0.2987 0.208618,-0.51917 0.495469,-0.51917 0.168317,0 0.303445,0.0948 0.374565,0.20624 l 0.279739,-0.15172 c -0.118533,-0.18728 -0.324781,-0.35323 -0.654304,-0.35323 -0.46228,0 -0.841587,0.31767 -0.841587,0.81788 z" />
      <path
         id="path242"
         style="font-weight:bold;font-size:2.37066674px;font-family:'Proxima Nova';dominant-baseline:alphabetic;text-anchor:middle;fill:#7f00ff"
         d="m 21.381667,106.8 h 0.384048 l -0.609261,-1.58123 H 20.734475 L 20.122843,106.8 h 0.384048 l 0.09957,-0.26788 h 0.678011 z m -0.436202,-1.2446 0.246549,0.68038 h -0.493099 z" />
      <path
         id="path244"
         style="font-weight:bold;font-size:2.37066674px;font-family:'Proxima Nova';dominant-baseline:alphabetic;text-anchor:middle;fill:#7f00ff"
         d="m 21.911733,106.8 h 0.336635 v -1.58123 h -0.336635 z" />
      <path
         id="path246"
         style="font-weight:bold;font-size:2.37066674px;font-family:'Proxima Nova';dominant-baseline:alphabetic;text-anchor:middle;fill:#7f00ff"
         d="m 23.65047,106.8 h 0.324781 v -1.58123 h -0.336635 v 0.99331 L 22.90608,105.21877 H 22.559963 V 106.8 h 0.336635 v -1.03124 z" />
    </g>
    <g
       id="text68"
       style="font-weight:bold;font-size:2.37066674px;font-family:'Proxima Nova';dominant-baseline:hanging;text-anchor:middle;fill:#7f00ff"
       aria-label="BI">
      <path
         id="path249"
         style="font-weight:bold;font-size:2.37066674px;font-family:'Proxima Nova';dominant-baseline:hanging;text-anchor:middle;fill:#7f00ff"
         d="m 33.63991,117.49826 h 0.858181 c 0.301075,0 0.459909,-0.18965 0.459909,-0.42672 0,-0.19913 -0.135128,-0.36271 -0.303445,-0.38879 0.149352,-0.0308 0.272627,-0.16357 0.272627,-0.36271 0,-0.21099 -0.154094,-0.40301 -0.455168,-0.40301 H 33.63991 Z m 0.336634,-0.94827 v -0.34374 h 0.421979 c 0.113792,0 0.184912,0.0735 0.184912,0.17306 0,0.0996 -0.07112,0.17068 -0.184912,0.17068 z m 0,0.65668 v -0.36745 h 0.433832 c 0.132758,0 0.203878,0.0853 0.203878,0.18491 0,0.11379 -0.07586,0.18254 -0.203878,0.18254 z" />
      <path
         id="path251"
         style="font-weight:bold;font-size:2.37066674px;font-family:'Proxima Nova';dominant-baseline:hanging;text-anchor:middle;fill:#7f00ff"
         d="m 35.20955,117.49826 h 0.336635 v -1.58123 H 35.20955 Z" />
    </g>
    <g
       id="text70"
       style="font-weight:bold;font-size:2.37066674px;font-family:'Proxima Nova';dominant-baseline:alphabetic;text-anchor:middle;fill:#7f00ff"
       aria-label="UNI">
      <path
         id="path254"
         style="font-weight:bold;font-size:2.37066674px;font-family:'Proxima Nova';dominant-baseline:alphabetic;text-anchor:middle;fill:#7f00ff"
         d="m 32.693032,107.3694 c 0,0.38879 0.232325,0.65905 0.713571,0.65905 0.481245,0 0.71357,-0.26789 0.71357,-0.66142 v -0.94826 h -0.343746 v 0.93878 c 0,0.22047 -0.125646,0.37219 -0.369824,0.37219 -0.244179,0 -0.372195,-0.15172 -0.372195,-0.37219 v -0.93878 h -0.341376 z" />
      <path
         id="path256"
         style="font-weight:bold;font-size:2.37066674px;font-family:'Proxima Nova';dominant-baseline:alphabetic;text-anchor:middle;fill:#7f00ff"
         d="m 35.519867,108 h 0.324781 v -1.58123 h -0.336635 v 0.9933 l -0.732536,-0.9933 H 34.42936 V 108 h 0.336635 v -1.03124 z" />
      <path
         id="path258"
         style="font-weight:bold;font-size:2.37066674px;font-family:'Proxima Nova';dominant-baseline:alphabetic;text-anchor:middle;fill:#7f00ff"
         d="m 36.156428,108 h 0.336634 v -1.58123 h -0.336634 z" />
    </g>
    <path
       id="rect72"
       d="m 43.522144,105.29456 h 8.75 c 0.554,0 1,0.446 1,1 v 11.33045 c 0,0.554 -0.446,1 -1,1 h -8.75 c -0.554,0 -1,-0.446 -1,-1 v -11.33045 c 0,-0.554 0.446,-1 1,-1 z"
       style="fill:#7f00ff;stroke:#7f00ff;stroke-width:0.34999999" />
    <g
       id="text74"
       style="font-weight:bold;font-size:2.37066674px;font-family:'Proxima Nova';dominant-baseline:alphabetic;text-anchor:middle;fill:#f7f2fc"
       aria-label="Y OUT">
      <path
         id="path262"
         style="font-weight:bold;font-size:2.37066674px;font-family:'Proxima Nova';dominant-baseline:alphabetic;text-anchor:middle;fill:#f7f2fc"
         d="m 44.961703,108.05 h 0.336635 v -0.64719 l 0.60452,-0.93404 H 45.51881 l -0.388789,0.63534 -0.393531,-0.63534 h -0.384048 l 0.609261,0.93404 z" />
      <path
         id="path264"
         style="font-weight:bold;font-size:2.37066674px;font-family:'Proxima Nova';dominant-baseline:alphabetic;text-anchor:middle;fill:#f7f2fc"
         d="m 46.579424,107.26057 c 0,0.47651 0.348488,0.81788 0.824992,0.81788 0.478875,0 0.827363,-0.34137 0.827363,-0.81788 0,-0.4765 -0.348488,-0.81788 -0.827363,-0.81788 -0.476504,0 -0.824992,0.34138 -0.824992,0.81788 z m 1.306237,0 c 0,0.29396 -0.189653,0.51918 -0.481245,0.51918 -0.291592,0 -0.478875,-0.22522 -0.478875,-0.51918 0,-0.29633 0.187283,-0.51917 0.478875,-0.51917 0.291592,0 0.481245,0.22284 0.481245,0.51917 z" />
      <path
         id="path266"
         style="font-weight:bold;font-size:2.37066674px;font-family:'Proxima Nova';dominant-baseline:alphabetic;text-anchor:middle;fill:#f7f2fc"
         d="m 48.470327,107.41941 c 0,0.38879 0.232325,0.65904 0.713571,0.65904 0.481245,0 0.71357,-0.26788 0.71357,-0.66141 v -0.94827 h -0.343746 v 0.93878 c 0,0.22047 -0.125646,0.3722 -0.369824,0.3722 -0.244179,0 -0.372195,-0.15173 -0.372195,-0.3722 v -0.93878 h -0.341376 z" />
      <path
         id="path268"
         style="font-weight:bold;font-size:2.37066674px;font-family:'Proxima Nova';dominant-baseline:alphabetic;text-anchor:middle;fill:#f7f2fc"
         d="m 50.571738,108.05 h 0.339005 v -1.2849 h 0.45991 v -0.29633 h -1.261195 v 0.29633 h 0.46228 z" />
    </g>
  </g>
</svg>
