<?xml version="1.0" encoding="UTF-8" standalone="no"?>
<svg xmlns="http://www.w3.org/2000/svg" xmlns:svg="http://www.w3.org/2000/svg" version="1.1" viewBox="0 0 55.88 128.5" height="128.5mm" width="55.880001mm">
  <defs/>
  <g>
    <rect x="0.25" y="0.25" width="55.380001" height="128" fill="#f7f2fc" stroke="#8000ff" stroke-width="0.5"/>
    <g style="font-weight:bold;font-size:4.064px;font-family:'Proxima Nova';dominant-baseline:alphabetic;text-anchor:middle;fill:#8000ff">
      <path d="m 18.56813,9 h 1.471169 c 0.516128,0 0.788416,-0.32512 0.788416,-0.73152 0,-0.341376 -0.231648,-0.621792 -0.520192,-0.666496 0.256032,-0.052832 0.46736,-0.2804161 0.46736,-0.6217921 0,-0.361696 -0.26416,-0.69088 -0.780288,-0.69088 H 18.56813 Z m 0.577089,-1.6215361 v -0.597408 h 0.723392 c 0.195072,0 0.316992,0.130048 0.316992,0.296672 0,0.174752 -0.12192,0.300736 -0.316992,0.300736 z m 0,1.1297921 V 7.870208 h 0.743712 c 0.227584,0 0.349504,0.146304 0.349504,0.316992 0,0.195072 -0.130048,0.321056 -0.349504,0.321056 z" style="font-weight:bold;font-size:4.064px;font-family:'Proxima Nova';dominant-baseline:alphabetic;text-anchor:middle;fill:#8000ff"/>
      <path d="m 21.258943,9 h 1.723136 V 8.492 H 21.836031 V 6.2893119 h -0.577088 z" style="font-weight:bold;font-size:4.064px;font-family:'Proxima Nova';dominant-baseline:alphabetic;text-anchor:middle;fill:#8000ff"/>
      <path d="m 23.14502,7.646688 c 0,0.816864 0.597408,1.40208 1.414272,1.40208 0.820928,0 1.418336,-0.585216 1.418336,-1.40208 0,-0.8168641 -0.597408,-1.4020801 -1.418336,-1.4020801 -0.816864,0 -1.414272,0.585216 -1.414272,1.4020801 z m 2.239264,0 c 0,0.503936 -0.32512,0.890016 -0.824992,0.890016 -0.499872,0 -0.820928,-0.38608 -0.820928,-0.890016 0,-0.5080001 0.321056,-0.8900161 0.820928,-0.8900161 0.499872,0 0.824992,0.382016 0.824992,0.8900161 z" style="font-weight:bold;font-size:4.064px;font-family:'Proxima Nova';dominant-baseline:alphabetic;text-anchor:middle;fill:#8000ff"/>
      <path d="m 26.199624,8.617984 c 0.256032,0.256032 0.62992,0.430784 1.150112,0.430784 0.73152,0 1.085088,-0.373888 1.085088,-0.869696 0,-0.601472 -0.56896,-0.735584 -1.016,-0.8371841 -0.312928,-0.073152 -0.540512,-0.130048 -0.540512,-0.312928 0,-0.16256 0.138176,-0.276352 0.398272,-0.276352 0.26416,0 0.556768,0.093472 0.776224,0.296672 l 0.321056,-0.422656 c -0.268224,-0.247904 -0.625856,-0.377952 -1.05664,-0.377952 -0.638048,0 -1.028192,0.36576 -1.028192,0.816864 0,0.6055361 0.56896,0.7274561 1.011936,0.8290561 0.312928,0.073152 0.54864,0.14224 0.54864,0.34544 0,0.154432 -0.154432,0.3048 -0.471424,0.3048 -0.373888,0 -0.67056,-0.166624 -0.861568,-0.36576 z" style="font-weight:bold;font-size:4.064px;font-family:'Proxima Nova';dominant-baseline:alphabetic;text-anchor:middle;fill:#8000ff"/>
      <path d="m 28.636436,8.617984 c 0.256032,0.256032 0.62992,0.430784 1.150112,0.430784 0.731521,0 1.085089,-0.373888 1.085089,-0.869696 0,-0.601472 -0.56896,-0.735584 -1.016001,-0.8371841 -0.312928,-0.073152 -0.540512,-0.130048 -0.540512,-0.312928 0,-0.16256 0.138176,-0.276352 0.398272,-0.276352 0.26416,0 0.556769,0.093472 0.776225,0.296672 l 0.321056,-0.422656 c -0.268224,-0.247904 -0.625856,-0.377952 -1.056641,-0.377952 -0.638048,0 -1.028192,0.36576 -1.028192,0.816864 0,0.6055361 0.56896,0.7274561 1.011936,0.8290561 0.312929,0.073152 0.548641,0.14224 0.548641,0.34544 0,0.154432 -0.154432,0.3048 -0.471425,0.3048 -0.373888,0 -0.67056,-0.166624 -0.861568,-0.36576 z" style="font-weight:bold;font-size:4.064px;font-family:'Proxima Nova';dominant-baseline:alphabetic;text-anchor:middle;fill:#8000ff"/>
      <path d="m 31.130145,7.646688 c 0,0.816864 0.597408,1.40208 1.414272,1.40208 0.820928,0 1.418336,-0.585216 1.418336,-1.40208 0,-0.8168641 -0.597408,-1.4020801 -1.418336,-1.4020801 -0.816864,0 -1.414272,0.585216 -1.414272,1.4020801 z m 2.239264,0 c 0,0.503936 -0.32512,0.890016 -0.824992,0.890016 -0.499872,0 -0.820928,-0.38608 -0.820928,-0.890016 0,-0.5080001 0.321056,-0.8900161 0.820928,-0.8900161 0.499872,0 0.824992,0.382016 0.824992,0.8900161 z" style="font-weight:bold;font-size:4.064px;font-family:'Proxima Nova';dominant-baseline:alphabetic;text-anchor:middle;fill:#8000ff"/>
      <path d="m 36.728814,9 h 0.581152 V 6.2893119 h -0.8128 L 35.838798,7.979936 35.18043,6.2893119 H 34.371694 V 9 h 0.577088 V 7.0492799 L 35.712814,9 h 0.251968 l 0.764032,-1.9507201 z" style="font-weight:bold;font-size:4.064px;font-family:'Proxima Nova';dominant-baseline:alphabetic;text-anchor:middle;fill:#8000ff"/>
    </g>
    <g style="font-weight:bold;font-size:4.064px;font-family:'Proxima Nova';dominant-baseline:hanging;text-anchor:middle;fill:#8000ff">
      <path d="m 24.076756,122.2581 h 1.068832 c 0.849376,0 1.438656,-0.53645 1.438656,-1.35331 0,-0.81687 -0.58928,-1.35738 -1.438656,-1.35738 h -1.068832 z m 0.577088,-0.508 v -1.69469 h 0.491744 c 0.556768,0 0.849376,0.36983 0.849376,0.84938 0,0.45923 -0.312928,0.84531 -0.849376,0.84531 z" style="font-weight:bold;font-size:4.064px;font-family:'Proxima Nova';dominant-baseline:hanging;text-anchor:middle;fill:#8000ff"/>
      <path d="m 28.855004,122.2581 h 0.581152 v -2.71069 h -0.581152 v 1.06477 h -1.28016 v -1.06477 h -0.577088 v 2.71069 h 0.577088 v -1.13792 h 1.28016 z" style="font-weight:bold;font-size:4.064px;font-family:'Proxima Nova';dominant-baseline:hanging;text-anchor:middle;fill:#8000ff"/>
      <path d="m 29.966381,122.2581 h 1.918208 v -0.49987 h -1.34112 v -0.62992 h 1.312672 v -0.49581 h -1.312672 v -0.58928 h 1.34112 v -0.49581 h -1.918208 z" style="font-weight:bold;font-size:4.064px;font-family:'Proxima Nova';dominant-baseline:hanging;text-anchor:middle;fill:#8000ff"/>
    </g>
    <line x1="7.9828572" y1="25" x2="34.592381" y2="25" stroke="#8000ff" stroke-width="0.35"/>
    <g style="font-weight:bold;font-size:2.37067px;font-family:'Proxima Nova';dominant-baseline:alphabetic;text-anchor:middle;fill:#8000ff">
      <path d="m 7.2726203,19.828447 c 0.3603413,0 0.5594773,-0.192024 0.6732693,-0.388789 L 7.6566683,19.299789 c -0.066379,0.130386 -0.2086187,0.229954 -0.384048,0.229954 -0.2749974,0 -0.483616,-0.220472 -0.483616,-0.519176 0,-0.298704 0.2086186,-0.519176 0.483616,-0.519176 0.1754293,0 0.3176693,0.101939 0.384048,0.229955 l 0.2892213,-0.14224 c -0.1114213,-0.196765 -0.312928,-0.386419 -0.6732693,-0.386419 -0.46228,0 -0.8297334,0.331894 -0.8297334,0.81788 0,0.485987 0.3674534,0.81788 0.8297334,0.81788 z" style="font-weight:bold;font-size:2.37067px;font-family:'Proxima Nova';dominant-baseline:alphabetic;text-anchor:middle;fill:#8000ff"/>
      <path d="M 8.5826359,19.799999 H 9.0046145 L 9.6138759,18.218765 H 9.2298279 L 8.7936252,19.434917 8.3550519,18.218765 H 7.9710038 Z" style="font-weight:bold;font-size:2.37067px;font-family:'Proxima Nova';dominant-baseline:alphabetic;text-anchor:middle;fill:#8000ff"/>
    </g>
    <g style="font-weight:bold;font-size:3.048px;font-family:'Proxima Nova';dominant-baseline:alphabetic;text-anchor:middle;fill:#8000ff">
      <path d="m 19.390715,19.926976 h 0.73152 v -0.329184 h -0.73152 z" style="font-weight:bold;font-size:3.048px;font-family:'Proxima Nova';dominant-baseline:alphabetic;text-anchor:middle;fill:#8000ff"/>
      <path d="m 22.642264,19.591696 h 0.545592 v -0.240792 h -0.545592 v -0.59436 h -0.265176 v 0.59436 h -0.54864 v 0.240792 h 0.54864 v 0.618744 h 0.265176 z" style="font-weight:bold;font-size:3.048px;font-family:'Proxima Nova';dominant-baseline:alphabetic;text-anchor:middle;fill:#8000ff"/>
    </g>
    <g style="font-weight:bold;font-size:3.048px;font-family:'Proxima Nova';dominant-baseline:alphabetic;text-anchor:middle;fill:#8000ff">
      <path d="m 29.914653,17.363488 c 0.192024,0.192024 0.47244,0.323088 0.862584,0.323088 0.54864,0 0.813816,-0.280416 0.813816,-0.652272 0,-0.451104 -0.42672,-0.551688 -0.762,-0.627888 -0.234696,-0.05486 -0.405384,-0.09754 -0.405384,-0.234696 0,-0.12192 0.103632,-0.207264 0.298704,-0.207264 0.19812,0 0.417576,0.0701 0.582168,0.222504 l 0.240792,-0.316992 c -0.201168,-0.185928 -0.469392,-0.283464 -0.79248,-0.283464 -0.478536,0 -0.771144,0.27432 -0.771144,0.612648 0,0.454152 0.42672,0.545592 0.758952,0.621792 0.234696,0.05486 0.41148,0.10668 0.41148,0.25908 0,0.115824 -0.115824,0.2286 -0.353568,0.2286 -0.280416,0 -0.50292,-0.124968 -0.646176,-0.27432 z" style="font-weight:bold;font-size:3.048px;font-family:'Proxima Nova';dominant-baseline:alphabetic;text-anchor:middle;fill:#8000ff"/>
      <path d="m 31.88247,17.65 h 0.432816 v -0.728472 h 0.51816 c 0.438912,0 0.682752,-0.295656 0.682752,-0.649224 0,-0.356616 -0.240792,-0.65532 -0.682752,-0.65532 H 31.88247 Z m 1.191768,-1.380744 c 0,0.170688 -0.128016,0.280416 -0.298704,0.280416 H 32.315286 V 15.98884 h 0.460248 c 0.170688,0 0.298704,0.112776 0.298704,0.280416 z" style="font-weight:bold;font-size:3.048px;font-family:'Proxima Nova';dominant-baseline:alphabetic;text-anchor:middle;fill:#8000ff"/>
      <path d="m 33.781517,17.65 h 1.438656 v -0.374904 h -1.00584 v -0.47244 h 0.984504 V 16.4308 h -0.984504 v -0.44196 h 1.00584 v -0.371856 h -1.438656 z" style="font-weight:bold;font-size:3.048px;font-family:'Proxima Nova';dominant-baseline:alphabetic;text-anchor:middle;fill:#8000ff"/>
      <path d="m 35.561502,17.65 h 1.438656 v -0.374904 h -1.00584 v -0.47244 h 0.984504 V 16.4308 h -0.984504 v -0.44196 h 1.00584 v -0.371856 h -1.438656 z" style="font-weight:bold;font-size:3.048px;font-family:'Proxima Nova';dominant-baseline:alphabetic;text-anchor:middle;fill:#8000ff"/>
      <path d="m 37.341486,17.65 h 0.801624 c 0.637032,0 1.078992,-0.402336 1.078992,-1.014984 0,-0.612648 -0.44196,-1.018032 -1.078992,-1.018032 h -0.801624 z m 0.432816,-0.381 v -1.271016 h 0.368808 c 0.417576,0 0.637032,0.277368 0.637032,0.637032 0,0.344424 -0.234696,0.633984 -0.637032,0.633984 z" style="font-weight:bold;font-size:3.048px;font-family:'Proxima Nova';dominant-baseline:alphabetic;text-anchor:middle;fill:#8000ff"/>
    </g>
    <line x1="7.9828572" y1="43.5" x2="47.897144" y2="43.5" stroke="#8000ff" stroke-width="0.35"/>
    <g style="font-weight:bold;font-size:2.37067px;font-family:'Proxima Nova';dominant-baseline:alphabetic;text-anchor:middle;fill:#8000ff">
      <path d="m 7.2726203,38.328447 c 0.3603413,0 0.5594773,-0.192024 0.6732693,-0.388789 L 7.6566683,37.799789 c -0.066379,0.130386 -0.2086187,0.229954 -0.384048,0.229954 -0.2749974,0 -0.483616,-0.220472 -0.483616,-0.519176 0,-0.298704 0.2086186,-0.519176 0.483616,-0.519176 0.1754293,0 0.3176693,0.101939 0.384048,0.229955 l 0.2892213,-0.14224 c -0.1114213,-0.196765 -0.312928,-0.386419 -0.6732693,-0.386419 -0.46228,0 -0.8297334,0.331894 -0.8297334,0.81788 0,0.485987 0.3674534,0.81788 0.8297334,0.81788 z" style="font-weight:bold;font-size:2.37067px;font-family:'Proxima Nova';dominant-baseline:alphabetic;text-anchor:middle;fill:#8000ff"/>
      <path d="M 8.5826359,38.299999 H 9.0046145 L 9.6138759,36.718765 H 9.2298279 L 8.7936252,37.934917 8.3550519,36.718765 H 7.9710038 Z" style="font-weight:bold;font-size:2.37067px;font-family:'Proxima Nova';dominant-baseline:alphabetic;text-anchor:middle;fill:#8000ff"/>
    </g>
    <g style="font-weight:bold;font-size:3.048px;font-family:'Proxima Nova';dominant-baseline:alphabetic;text-anchor:middle;fill:#8000ff">
      <path d="m 19.390715,38.426976 h 0.73152 v -0.329184 h -0.73152 z" style="font-weight:bold;font-size:3.048px;font-family:'Proxima Nova';dominant-baseline:alphabetic;text-anchor:middle;fill:#8000ff"/>
      <path d="m 22.642264,38.091696 h 0.545592 v -0.240792 h -0.545592 v -0.59436 h -0.265176 v 0.59436 h -0.54864 v 0.240792 h 0.54864 v 0.618744 h 0.265176 z" style="font-weight:bold;font-size:3.048px;font-family:'Proxima Nova';dominant-baseline:alphabetic;text-anchor:middle;fill:#8000ff"/>
    </g>
    <g style="font-weight:bold;font-size:3.048px;font-family:'Proxima Nova';dominant-baseline:alphabetic;text-anchor:middle;fill:#8000ff">
      <path d="m 31.549238,36.150002 h 0.496824 l -0.4572,-0.774192 c 0.219456,-0.05182 0.445008,-0.243841 0.445008,-0.603505 0,-0.377952 -0.25908,-0.65532 -0.682752,-0.65532 h -0.950976 v 2.033017 h 0.432816 V 35.42153 h 0.316992 z m 0.04267,-1.380745 c 0,0.170688 -0.131064,0.280416 -0.3048,0.280416 h -0.454152 v -0.560832 h 0.454152 c 0.173736,0 0.3048,0.109728 0.3048,0.280416 z" style="font-weight:bold;font-size:3.048px;font-family:'Proxima Nova';dominant-baseline:alphabetic;text-anchor:middle;fill:#8000ff"/>
      <path d="m 33.782136,36.150002 h 0.47244 L 33.47124,34.116985 h -0.542544 l -0.786384,2.033017 H 32.6178 l 0.128016,-0.35052 h 0.908304 z m -0.582168,-1.658113 0.33528,0.932689 H 32.86164 Z" style="font-weight:bold;font-size:3.048px;font-family:'Proxima Nova';dominant-baseline:alphabetic;text-anchor:middle;fill:#8000ff"/>
      <path d="m 34.715253,36.150002 h 0.435864 v -1.652017 h 0.591312 v -0.381 h -1.621536 v 0.381 h 0.59436 z" style="font-weight:bold;font-size:3.048px;font-family:'Proxima Nova';dominant-baseline:alphabetic;text-anchor:middle;fill:#8000ff"/>
      <path d="m 36.019892,36.150002 h 0.432816 v -2.033017 h -0.432816 z" style="font-weight:bold;font-size:3.048px;font-family:'Proxima Nova';dominant-baseline:alphabetic;text-anchor:middle;fill:#8000ff"/>
      <path d="m 36.755794,35.135017 c 0,0.612649 0.448056,1.051561 1.060704,1.051561 0.615696,0 1.063752,-0.438912 1.063752,-1.051561 0,-0.612648 -0.448056,-1.05156 -1.063752,-1.05156 -0.612648,0 -1.060704,0.438912 -1.060704,1.05156 z m 1.679448,0 c 0,0.377953 -0.24384,0.667513 -0.618744,0.667513 -0.374904,0 -0.615696,-0.28956 -0.615696,-0.667513 0,-0.381 0.240792,-0.667512 0.615696,-0.667512 0.374904,0 0.618744,0.286512 0.618744,0.667512 z" style="font-weight:bold;font-size:3.048px;font-family:'Proxima Nova';dominant-baseline:alphabetic;text-anchor:middle;fill:#8000ff"/>
    </g>
    <g style="font-weight:bold;font-size:2.37067px;font-family:'Proxima Nova';dominant-baseline:hanging;text-anchor:middle;fill:#8000ff">
      <path d="m 44.98841,49.108891 h 1.005163 V 48.812558 H 45.325045 V 47.527657 H 44.98841 Z" style="font-weight:bold;font-size:2.37067px;font-family:'Proxima Nova';dominant-baseline:hanging;text-anchor:middle;fill:#8000ff"/>
      <path d="m 46.088622,48.319459 c 0,0.476504 0.348488,0.81788 0.824992,0.81788 0.478875,0 0.827363,-0.341376 0.827363,-0.81788 0,-0.476504 -0.348488,-0.81788 -0.827363,-0.81788 -0.476504,0 -0.824992,0.341376 -0.824992,0.81788 z m 1.306237,0 c 0,0.293963 -0.189653,0.519176 -0.481245,0.519176 -0.291592,0 -0.478875,-0.225213 -0.478875,-0.519176 0,-0.296333 0.187283,-0.519176 0.478875,-0.519176 0.291592,0 0.481245,0.222843 0.481245,0.519176 z" style="font-weight:bold;font-size:2.37067px;font-family:'Proxima Nova';dominant-baseline:hanging;text-anchor:middle;fill:#8000ff"/>
      <path d="m 48.733397,49.137339 c 0.360341,0 0.559477,-0.192024 0.673269,-0.388789 l -0.289221,-0.139869 c -0.06638,0.130386 -0.208619,0.229954 -0.384048,0.229954 -0.274997,0 -0.483616,-0.220472 -0.483616,-0.519176 0,-0.298704 0.208619,-0.519176 0.483616,-0.519176 0.175429,0 0.317669,0.101939 0.384048,0.229955 l 0.289221,-0.14224 c -0.111421,-0.196765 -0.312928,-0.386419 -0.673269,-0.386419 -0.46228,0 -0.829733,0.331894 -0.829733,0.81788 0,0.485987 0.367453,0.81788 0.829733,0.81788 z" style="font-weight:bold;font-size:2.37067px;font-family:'Proxima Nova';dominant-baseline:hanging;text-anchor:middle;fill:#8000ff"/>
      <path d="m 50.548142,49.108891 h 0.414867 L 50.29211,48.269675 50.920337,47.527657 H 50.50547 l -0.559477,0.706458 v -0.706458 h -0.336635 v 1.581234 h 0.336635 v -0.485986 l 0.123274,-0.146982 z" style="font-weight:bold;font-size:2.37067px;font-family:'Proxima Nova';dominant-baseline:hanging;text-anchor:middle;fill:#8000ff"/>
    </g>
    <g style="font-weight:bold;font-size:2.37067px;font-family:'Proxima Nova';dominant-baseline:alphabetic;text-anchor:middle;fill:#8000ff">
      <path d="m 45.231496,39.5 h 0.336635 v -0.659045 h 0.765725 v -0.289222 h -0.765725 v -0.343746 h 0.78232 v -0.289222 h -1.118955 z" style="font-weight:bold;font-size:2.37067px;font-family:'Proxima Nova';dominant-baseline:alphabetic;text-anchor:middle;fill:#8000ff"/>
      <path d="m 47.477258,39.5 h 0.386419 l -0.3556,-0.602149 c 0.170688,-0.0403 0.346117,-0.189654 0.346117,-0.469392 0,-0.293963 -0.201506,-0.509694 -0.531029,-0.509694 H 46.583517 V 39.5 h 0.336635 v -0.566589 h 0.246549 z m 0.03319,-1.073912 c 0,0.132757 -0.101939,0.218101 -0.237067,0.218101 h -0.353229 v -0.436202 h 0.353229 c 0.135128,0 0.237067,0.08534 0.237067,0.218101 z" style="font-weight:bold;font-size:2.37067px;font-family:'Proxima Nova';dominant-baseline:alphabetic;text-anchor:middle;fill:#8000ff"/>
      <path d="m 48.106856,39.5 h 1.118954 v -0.291592 h -0.78232 v -0.367453 h 0.765726 V 38.551733 H 48.44349 v -0.343746 h 0.78232 v -0.289222 h -1.118954 z" style="font-weight:bold;font-size:2.37067px;font-family:'Proxima Nova';dominant-baseline:alphabetic;text-anchor:middle;fill:#8000ff"/>
      <path d="m 49.491288,39.5 h 1.118955 v -0.291592 h -0.78232 v -0.367453 h 0.765725 v -0.289222 h -0.765725 v -0.343746 h 0.78232 v -0.289222 h -1.118955 z" style="font-weight:bold;font-size:2.37067px;font-family:'Proxima Nova';dominant-baseline:alphabetic;text-anchor:middle;fill:#8000ff"/>
    </g>
    <g style="font-weight:bold;font-size:2.37067px;font-family:'Proxima Nova';dominant-baseline:alphabetic;text-anchor:middle;fill:#8000ff">
      <path d="m 7.2726203,56.828447 c 0.3603413,0 0.5594773,-0.192024 0.6732693,-0.388789 L 7.6566683,56.299789 c -0.066379,0.130386 -0.2086187,0.229954 -0.384048,0.229954 -0.2749974,0 -0.483616,-0.220472 -0.483616,-0.519176 0,-0.298704 0.2086186,-0.519176 0.483616,-0.519176 0.1754293,0 0.3176693,0.101939 0.384048,0.229955 l 0.2892213,-0.14224 c -0.1114213,-0.196765 -0.312928,-0.386419 -0.6732693,-0.386419 -0.46228,0 -0.8297334,0.331894 -0.8297334,0.81788 0,0.485987 0.3674534,0.81788 0.8297334,0.81788 z" style="font-weight:bold;font-size:2.37067px;font-family:'Proxima Nova';dominant-baseline:alphabetic;text-anchor:middle;fill:#8000ff"/>
      <path d="M 8.5826359,56.799999 H 9.0046145 L 9.6138759,55.218765 H 9.2298279 L 8.7936252,56.434917 8.3550519,55.218765 H 7.9710038 Z" style="font-weight:bold;font-size:2.37067px;font-family:'Proxima Nova';dominant-baseline:alphabetic;text-anchor:middle;fill:#8000ff"/>
    </g>
    <g style="font-weight:bold;font-size:3.048px;font-family:'Proxima Nova';dominant-baseline:alphabetic;text-anchor:middle;fill:#8000ff">
      <path d="m 19.390715,56.926976 h 0.73152 v -0.329184 h -0.73152 z" style="font-weight:bold;font-size:3.048px;font-family:'Proxima Nova';dominant-baseline:alphabetic;text-anchor:middle;fill:#8000ff"/>
      <path d="m 22.642264,56.591696 h 0.545592 v -0.240792 h -0.545592 v -0.59436 h -0.265176 v 0.59436 h -0.54864 v 0.240792 h 0.54864 v 0.618744 h 0.265176 z" style="font-weight:bold;font-size:3.048px;font-family:'Proxima Nova';dominant-baseline:alphabetic;text-anchor:middle;fill:#8000ff"/>
    </g>
    <g style="font-weight:bold;font-size:3.048px;font-family:'Proxima Nova';dominant-baseline:alphabetic;text-anchor:middle;fill:#8000ff">
      <path d="m 29.858408,54.650002 h 0.801624 c 0.637032,0 1.078992,-0.402336 1.078992,-1.014985 0,-0.612648 -0.44196,-1.018032 -1.078992,-1.018032 h -0.801624 z m 0.432816,-0.381 v -1.271017 h 0.368808 c 0.417576,0 0.637032,0.277368 0.637032,0.637032 0,0.344425 -0.234696,0.633985 -0.637032,0.633985 z" style="font-weight:bold;font-size:3.048px;font-family:'Proxima Nova';dominant-baseline:alphabetic;text-anchor:middle;fill:#8000ff"/>
      <path d="m 32.049158,54.650002 h 1.438656 v -0.374904 h -1.00584 v -0.472441 h 0.984504 v -0.371856 h -0.984504 v -0.44196 h 1.00584 v -0.371856 h -1.438656 z" style="font-weight:bold;font-size:3.048px;font-family:'Proxima Nova';dominant-baseline:alphabetic;text-anchor:middle;fill:#8000ff"/>
      <path d="m 33.829142,54.650002 h 0.432816 V 53.92153 h 0.51816 c 0.438912,0 0.682752,-0.295657 0.682752,-0.649225 0,-0.356616 -0.240792,-0.65532 -0.682752,-0.65532 h -0.950976 z m 1.191768,-1.380745 c 0,0.170688 -0.128016,0.280416 -0.298704,0.280416 h -0.460248 v -0.560832 h 0.460248 c 0.170688,0 0.298704,0.112776 0.298704,0.280416 z" style="font-weight:bold;font-size:3.048px;font-family:'Proxima Nova';dominant-baseline:alphabetic;text-anchor:middle;fill:#8000ff"/>
      <path d="m 36.197581,54.650002 h 0.435864 v -1.652017 h 0.591312 v -0.381 h -1.621536 v 0.381 h 0.59436 z" style="font-weight:bold;font-size:3.048px;font-family:'Proxima Nova';dominant-baseline:alphabetic;text-anchor:middle;fill:#8000ff"/>
      <path d="m 38.895156,54.650002 h 0.435864 v -2.033017 h -0.435864 v 0.798576 h -0.96012 V 52.616985 H 37.50222 v 2.033017 h 0.432816 v -0.853441 h 0.96012 z" style="font-weight:bold;font-size:3.048px;font-family:'Proxima Nova';dominant-baseline:alphabetic;text-anchor:middle;fill:#8000ff"/>
    </g>
    <line x1="7.9828572" y1="62" x2="34.592381" y2="62" stroke="#8000ff" stroke-width="0.35"/>
    <line x1="7.9828572" y1="80.5" x2="34.592381" y2="80.5" stroke="#8000ff" stroke-width="0.35"/>
    <g style="font-weight:bold;font-size:2.37067px;font-family:'Proxima Nova';dominant-baseline:alphabetic;text-anchor:middle;fill:#8000ff">
      <path d="m 7.2726203,75.328451 c 0.3603413,0 0.5594773,-0.192024 0.6732693,-0.388789 l -0.2892213,-0.13987 c -0.066379,0.130387 -0.2086187,0.229955 -0.384048,0.229955 -0.2749974,0 -0.483616,-0.220472 -0.483616,-0.519176 0,-0.298704 0.2086186,-0.519176 0.483616,-0.519176 0.1754293,0 0.3176693,0.101939 0.384048,0.229955 l 0.2892213,-0.14224 c -0.1114213,-0.196766 -0.312928,-0.386419 -0.6732693,-0.386419 -0.46228,0 -0.8297334,0.331893 -0.8297334,0.81788 0,0.485987 0.3674534,0.81788 0.8297334,0.81788 z" style="font-weight:bold;font-size:2.37067px;font-family:'Proxima Nova';dominant-baseline:alphabetic;text-anchor:middle;fill:#8000ff"/>
      <path d="M 8.5826359,75.300003 H 9.0046145 L 9.6138759,73.718768 H 9.2298279 L 8.7936252,74.93492 8.3550519,73.718768 H 7.9710038 Z" style="font-weight:bold;font-size:2.37067px;font-family:'Proxima Nova';dominant-baseline:alphabetic;text-anchor:middle;fill:#8000ff"/>
    </g>
    <g style="font-weight:bold;font-size:3.048px;font-family:'Proxima Nova';dominant-baseline:alphabetic;text-anchor:middle;fill:#8000ff">
      <path d="m 19.390715,75.426976 h 0.73152 v -0.329184 h -0.73152 z" style="font-weight:bold;font-size:3.048px;font-family:'Proxima Nova';dominant-baseline:alphabetic;text-anchor:middle;fill:#8000ff"/>
      <path d="m 22.642264,75.091696 h 0.545592 v -0.240792 h -0.545592 v -0.59436 h -0.265176 v 0.59436 h -0.54864 v 0.240792 h 0.54864 v 0.618744 h 0.265176 z" style="font-weight:bold;font-size:3.048px;font-family:'Proxima Nova';dominant-baseline:alphabetic;text-anchor:middle;fill:#8000ff"/>
    </g>
    <g style="font-weight:bold;font-size:3.048px;font-family:'Proxima Nova';dominant-baseline:alphabetic;text-anchor:middle;fill:#8000ff">
      <path d="m 29.897103,73.150002 h 0.432816 V 72.42153 h 0.51816 c 0.438912,0 0.682752,-0.295657 0.682752,-0.649225 0,-0.356616 -0.240792,-0.65532 -0.682752,-0.65532 h -0.950976 z m 1.191768,-1.380745 c 0,0.170688 -0.128016,0.280416 -0.298704,0.280416 h -0.460248 v -0.560832 h 0.460248 c 0.170688,0 0.298704,0.112776 0.298704,0.280416 z" style="font-weight:bold;font-size:3.048px;font-family:'Proxima Nova';dominant-baseline:alphabetic;text-anchor:middle;fill:#8000ff"/>
      <path d="m 33.189086,73.150002 h 0.435864 v -2.033017 h -0.435864 v 0.798576 h -0.96012 V 71.116985 H 31.79615 v 2.033017 h 0.432816 v -0.853441 h 0.96012 z" style="font-weight:bold;font-size:3.048px;font-family:'Proxima Nova';dominant-baseline:alphabetic;text-anchor:middle;fill:#8000ff"/>
      <path d="m 35.446035,73.150002 h 0.47244 l -0.783336,-2.033017 h -0.542544 l -0.786384,2.033017 h 0.475488 l 0.128016,-0.35052 h 0.908304 z m -0.582168,-1.658113 0.33528,0.932689 h -0.673608 z" style="font-weight:bold;font-size:3.048px;font-family:'Proxima Nova';dominant-baseline:alphabetic;text-anchor:middle;fill:#8000ff"/>
      <path d="m 35.942192,72.86349 c 0.192024,0.192024 0.47244,0.323088 0.862584,0.323088 0.54864,0 0.813816,-0.280416 0.813816,-0.652272 0,-0.451105 -0.42672,-0.551689 -0.762,-0.627889 -0.234696,-0.05486 -0.405384,-0.09754 -0.405384,-0.234696 0,-0.12192 0.103632,-0.207264 0.298704,-0.207264 0.19812,0 0.417576,0.0701 0.582168,0.222504 l 0.240792,-0.316992 c -0.201168,-0.185928 -0.469392,-0.283464 -0.79248,-0.283464 -0.478536,0 -0.771144,0.27432 -0.771144,0.612648 0,0.454152 0.42672,0.545592 0.758952,0.621792 0.234696,0.05487 0.41148,0.106681 0.41148,0.259081 0,0.115824 -0.115824,0.2286 -0.353568,0.2286 -0.280416,0 -0.50292,-0.124968 -0.646176,-0.27432 z" style="font-weight:bold;font-size:3.048px;font-family:'Proxima Nova';dominant-baseline:alphabetic;text-anchor:middle;fill:#8000ff"/>
      <path d="m 37.910009,73.150002 h 1.438656 v -0.374904 h -1.00584 v -0.472441 h 0.984504 v -0.371856 h -0.984504 v -0.44196 h 1.00584 v -0.371856 h -1.438656 z" style="font-weight:bold;font-size:3.048px;font-family:'Proxima Nova';dominant-baseline:alphabetic;text-anchor:middle;fill:#8000ff"/>
    </g>
    <line x1="7.9828572" y1="97" x2="47.897144" y2="97" stroke="#8000ff" stroke-width="0.35"/>
    <g style="font-weight:bold;font-size:2.37067px;font-family:'Proxima Nova';dominant-baseline:alphabetic;text-anchor:middle;fill:#8000ff">
      <path d="m 7.2726203,91.828451 c 0.3603413,0 0.5594773,-0.192024 0.6732693,-0.388789 l -0.2892213,-0.13987 c -0.066379,0.130387 -0.2086187,0.229955 -0.384048,0.229955 -0.2749974,0 -0.483616,-0.220472 -0.483616,-0.519176 0,-0.298704 0.2086186,-0.519176 0.483616,-0.519176 0.1754293,0 0.3176693,0.101939 0.384048,0.229955 l 0.2892213,-0.14224 c -0.1114213,-0.196766 -0.312928,-0.386419 -0.6732693,-0.386419 -0.46228,0 -0.8297334,0.331893 -0.8297334,0.81788 0,0.485987 0.3674534,0.81788 0.8297334,0.81788 z" style="font-weight:bold;font-size:2.37067px;font-family:'Proxima Nova';dominant-baseline:alphabetic;text-anchor:middle;fill:#8000ff"/>
      <path d="M 8.5826359,91.800003 H 9.0046145 L 9.6138759,90.218768 H 9.2298279 L 8.7936252,91.43492 8.3550519,90.218768 H 7.9710038 Z" style="font-weight:bold;font-size:2.37067px;font-family:'Proxima Nova';dominant-baseline:alphabetic;text-anchor:middle;fill:#8000ff"/>
    </g>
    <g style="font-weight:bold;font-size:2.37067px;font-family:'Proxima Nova';dominant-baseline:alphabetic;text-anchor:middle;fill:#8000ff">
      <path d="m 18.525273,91.010571 c 0,0.49784 0.379307,0.820251 0.841587,0.820251 0.286851,0 0.512064,-0.118534 0.673269,-0.298704 v -0.60452 h -0.753872 v 0.289221 h 0.421979 v 0.192024 c -0.06875,0.06164 -0.196765,0.120904 -0.341376,0.120904 -0.286851,0 -0.495469,-0.220472 -0.495469,-0.519176 0,-0.298704 0.208618,-0.519176 0.495469,-0.519176 0.165947,0 0.301075,0.08772 0.374565,0.199136 l 0.279739,-0.151723 c -0.120904,-0.187282 -0.327152,-0.346117 -0.654304,-0.346117 -0.46228,0 -0.841587,0.317669 -0.841587,0.81788 z" style="font-weight:bold;font-size:2.37067px;font-family:'Proxima Nova';dominant-baseline:alphabetic;text-anchor:middle;fill:#8000ff"/>
      <path d="m 21.398262,91.800003 h 0.367453 l -0.609261,-1.581235 h -0.421979 l -0.611632,1.581235 h 0.369824 l 0.09957,-0.272627 h 0.706459 z m -0.452797,-1.289643 0.260773,0.725424 h -0.523917 z" style="font-weight:bold;font-size:2.37067px;font-family:'Proxima Nova';dominant-baseline:alphabetic;text-anchor:middle;fill:#8000ff"/>
      <path d="m 21.911733,91.800003 h 0.336635 v -1.581235 h -0.336635 z" style="font-weight:bold;font-size:2.37067px;font-family:'Proxima Nova';dominant-baseline:alphabetic;text-anchor:middle;fill:#8000ff"/>
      <path d="m 23.65047,91.800003 h 0.324781 v -1.581235 h -0.336635 v 1.024128 L 22.90608,90.218768 h -0.346117 v 1.581235 h 0.336635 v -1.062059 z" style="font-weight:bold;font-size:2.37067px;font-family:'Proxima Nova';dominant-baseline:alphabetic;text-anchor:middle;fill:#8000ff"/>
    </g>
    <g style="font-weight:bold;font-size:2.37067px;font-family:'Proxima Nova';dominant-baseline:hanging;text-anchor:middle;fill:#8000ff">
      <path d="m 33.63991,102.6089 h 0.858181 c 0.301075,0 0.459909,-0.18966 0.459909,-0.42672 0,-0.19914 -0.135128,-0.36272 -0.303445,-0.38879 0.149352,-0.0308 0.272627,-0.16358 0.272627,-0.36272 0,-0.21099 -0.154094,-0.40301 -0.455168,-0.40301 H 33.63991 Z m 0.336634,-0.9459 v -0.34849 h 0.421979 c 0.113792,0 0.184912,0.0759 0.184912,0.17306 0,0.10194 -0.07112,0.17543 -0.184912,0.17543 z m 0,0.65904 v -0.37219 h 0.433832 c 0.132758,0 0.203878,0.0853 0.203878,0.18491 0,0.11379 -0.07586,0.18728 -0.203878,0.18728 z" style="font-weight:bold;font-size:2.37067px;font-family:'Proxima Nova';dominant-baseline:hanging;text-anchor:middle;fill:#8000ff"/>
      <path d="m 35.20955,102.6089 h 0.336635 v -1.58124 H 35.20955 Z" style="font-weight:bold;font-size:2.37067px;font-family:'Proxima Nova';dominant-baseline:hanging;text-anchor:middle;fill:#8000ff"/>
    </g>
    <g style="font-weight:bold;font-size:2.37067px;font-family:'Proxima Nova';dominant-baseline:alphabetic;text-anchor:middle;fill:#8000ff">
      <path d="m 32.697662,92.369403 c 0,0.388789 0.225214,0.659045 0.70883,0.659045 0.478874,0 0.704088,-0.267885 0.704088,-0.661416 v -0.948267 h -0.341376 v 0.938784 c 0,0.220472 -0.120904,0.372195 -0.362712,0.372195 -0.24655,0 -0.367454,-0.151723 -0.367454,-0.372195 v -0.938784 h -0.341376 z" style="font-weight:bold;font-size:2.37067px;font-family:'Proxima Nova';dominant-baseline:alphabetic;text-anchor:middle;fill:#8000ff"/>
      <path d="m 35.515237,93 h 0.324781 v -1.581235 h -0.336635 v 1.024128 L 34.770847,91.418765 H 34.42473 V 93 h 0.336635 v -1.062059 z" style="font-weight:bold;font-size:2.37067px;font-family:'Proxima Nova';dominant-baseline:alphabetic;text-anchor:middle;fill:#8000ff"/>
      <path d="m 36.151798,93 h 0.336634 v -1.581235 h -0.336634 z" style="font-weight:bold;font-size:2.37067px;font-family:'Proxima Nova';dominant-baseline:alphabetic;text-anchor:middle;fill:#8000ff"/>
    </g>
    <rect x="42.697144" y="90.469559" width="10.4" height="12.980445" rx="1" ry="1" fill="#8000ff" stroke="#8000ff" stroke-width="0.35"/>
    <g style="font-weight:bold;font-size:2.37067px;font-family:'Proxima Nova';dominant-baseline:alphabetic;text-anchor:middle;fill:#f7f2fc">
      <path d="m 45.528848,93.050003 h 0.403014 l -0.573702,-0.813139 0.538142,-0.768096 h -0.405384 l -0.357971,0.540512 -0.362712,-0.540512 h -0.400643 l 0.538142,0.770467 -0.573702,0.810768 h 0.400643 l 0.398272,-0.578443 z" style="font-weight:bold;font-size:2.37067px;font-family:'Proxima Nova';dominant-baseline:alphabetic;text-anchor:middle;fill:#f7f2fc"/>
      <path d="m 46.611835,92.260571 c 0,0.476504 0.348488,0.81788 0.824992,0.81788 0.478875,0 0.827363,-0.341376 0.827363,-0.81788 0,-0.476504 -0.348488,-0.81788 -0.827363,-0.81788 -0.476504,0 -0.824992,0.341376 -0.824992,0.81788 z m 1.306238,0 c 0,0.293963 -0.189654,0.519176 -0.481246,0.519176 -0.291592,0 -0.478874,-0.225213 -0.478874,-0.519176 0,-0.296333 0.187282,-0.519176 0.478874,-0.519176 0.291592,0 0.481246,0.222843 0.481246,0.519176 z" style="font-weight:bold;font-size:2.37067px;font-family:'Proxima Nova';dominant-baseline:alphabetic;text-anchor:middle;fill:#f7f2fc"/>
      <path d="m 48.502739,92.419406 c 0,0.388789 0.225213,0.659045 0.708829,0.659045 0.478875,0 0.704088,-0.267885 0.704088,-0.661416 V 91.468768 H 49.57428 v 0.938784 c 0,0.220472 -0.120904,0.372195 -0.362712,0.372195 -0.246549,0 -0.367453,-0.151723 -0.367453,-0.372195 v -0.938784 h -0.341376 z" style="font-weight:bold;font-size:2.37067px;font-family:'Proxima Nova';dominant-baseline:alphabetic;text-anchor:middle;fill:#f7f2fc"/>
      <path d="m 50.594889,93.050003 h 0.339005 v -1.284901 h 0.45991 v -0.296334 h -1.261195 v 0.296334 h 0.46228 z" style="font-weight:bold;font-size:2.37067px;font-family:'Proxima Nova';dominant-baseline:alphabetic;text-anchor:middle;fill:#f7f2fc"/>
    </g>
    <line x1="7.9828572" y1="112" x2="47.897144" y2="112" stroke="#8000ff" stroke-width="0.35"/>
    <g style="font-weight:bold;font-size:2.37067px;font-family:'Proxima Nova';dominant-baseline:alphabetic;text-anchor:middle;fill:#8000ff">
      <path d="m 7.2726203,106.82845 c 0.3603413,0 0.5594773,-0.19202 0.6732693,-0.38879 l -0.2892213,-0.13987 c -0.066379,0.13039 -0.2086187,0.22996 -0.384048,0.22996 -0.2749974,0 -0.483616,-0.22047 -0.483616,-0.51918 0,-0.2987 0.2086186,-0.51917 0.483616,-0.51917 0.1754293,0 0.3176693,0.10193 0.384048,0.22995 l 0.2892213,-0.14224 c -0.1114213,-0.19677 -0.312928,-0.38642 -0.6732693,-0.38642 -0.46228,0 -0.8297334,0.33189 -0.8297334,0.81788 0,0.48599 0.3674534,0.81788 0.8297334,0.81788 z" style="font-weight:bold;font-size:2.37067px;font-family:'Proxima Nova';dominant-baseline:alphabetic;text-anchor:middle;fill:#8000ff"/>
      <path d="m 8.5826359,106.8 h 0.4219786 l 0.6092614,-1.58123 h -0.384048 l -0.4362027,1.21615 -0.4385733,-1.21615 H 7.9710038 Z" style="font-weight:bold;font-size:2.37067px;font-family:'Proxima Nova';dominant-baseline:alphabetic;text-anchor:middle;fill:#8000ff"/>
    </g>
    <g style="font-weight:bold;font-size:2.37067px;font-family:'Proxima Nova';dominant-baseline:alphabetic;text-anchor:middle;fill:#8000ff">
      <path d="m 18.525273,106.01057 c 0,0.49784 0.379307,0.82025 0.841587,0.82025 0.286851,0 0.512064,-0.11853 0.673269,-0.2987 v -0.60452 h -0.753872 v 0.28922 h 0.421979 v 0.19202 c -0.06875,0.0616 -0.196765,0.12091 -0.341376,0.12091 -0.286851,0 -0.495469,-0.22047 -0.495469,-0.51918 0,-0.2987 0.208618,-0.51917 0.495469,-0.51917 0.165947,0 0.301075,0.0877 0.374565,0.19913 l 0.279739,-0.15172 c -0.120904,-0.18728 -0.327152,-0.34612 -0.654304,-0.34612 -0.46228,0 -0.841587,0.31767 -0.841587,0.81788 z" style="font-weight:bold;font-size:2.37067px;font-family:'Proxima Nova';dominant-baseline:alphabetic;text-anchor:middle;fill:#8000ff"/>
      <path d="m 21.398262,106.8 h 0.367453 l -0.609261,-1.58123 H 20.734475 L 20.122843,106.8 h 0.369824 l 0.09957,-0.27262 h 0.706459 z m -0.452797,-1.28964 0.260773,0.72542 h -0.523917 z" style="font-weight:bold;font-size:2.37067px;font-family:'Proxima Nova';dominant-baseline:alphabetic;text-anchor:middle;fill:#8000ff"/>
      <path d="m 21.911733,106.8 h 0.336635 v -1.58123 h -0.336635 z" style="font-weight:bold;font-size:2.37067px;font-family:'Proxima Nova';dominant-baseline:alphabetic;text-anchor:middle;fill:#8000ff"/>
      <path d="m 23.65047,106.8 h 0.324781 v -1.58123 h -0.336635 v 1.02413 L 22.90608,105.21877 H 22.559963 V 106.8 h 0.336635 v -1.06206 z" style="font-weight:bold;font-size:2.37067px;font-family:'Proxima Nova';dominant-baseline:alphabetic;text-anchor:middle;fill:#8000ff"/>
    </g>
    <g style="font-weight:bold;font-size:2.37067px;font-family:'Proxima Nova';dominant-baseline:hanging;text-anchor:middle;fill:#8000ff">
      <path d="m 33.63991,117.6089 h 0.858181 c 0.301075,0 0.459909,-0.18966 0.459909,-0.42672 0,-0.19914 -0.135128,-0.36272 -0.303445,-0.38879 0.149352,-0.0308 0.272627,-0.16358 0.272627,-0.36272 0,-0.21099 -0.154094,-0.40301 -0.455168,-0.40301 H 33.63991 Z m 0.336634,-0.9459 v -0.34849 h 0.421979 c 0.113792,0 0.184912,0.0759 0.184912,0.17306 0,0.10194 -0.07112,0.17543 -0.184912,0.17543 z m 0,0.65904 v -0.37219 h 0.433832 c 0.132758,0 0.203878,0.0853 0.203878,0.18491 0,0.11379 -0.07586,0.18728 -0.203878,0.18728 z" style="font-weight:bold;font-size:2.37067px;font-family:'Proxima Nova';dominant-baseline:hanging;text-anchor:middle;fill:#8000ff"/>
      <path d="m 35.20955,117.6089 h 0.336635 v -1.58124 H 35.20955 Z" style="font-weight:bold;font-size:2.37067px;font-family:'Proxima Nova';dominant-baseline:hanging;text-anchor:middle;fill:#8000ff"/>
    </g>
    <g style="font-weight:bold;font-size:2.37067px;font-family:'Proxima Nova';dominant-baseline:alphabetic;text-anchor:middle;fill:#8000ff">
      <path d="m 32.697662,107.3694 c 0,0.38879 0.225214,0.65905 0.70883,0.65905 0.478874,0 0.704088,-0.26789 0.704088,-0.66142 v -0.94826 h -0.341376 v 0.93878 c 0,0.22047 -0.120904,0.37219 -0.362712,0.37219 -0.24655,0 -0.367454,-0.15172 -0.367454,-0.37219 v -0.93878 h -0.341376 z" style="font-weight:bold;font-size:2.37067px;font-family:'Proxima Nova';dominant-baseline:alphabetic;text-anchor:middle;fill:#8000ff"/>
      <path d="m 35.515237,108 h 0.324781 v -1.58123 h -0.336635 v 1.02412 l -0.732536,-1.02412 H 34.42473 V 108 h 0.336635 v -1.06206 z" style="font-weight:bold;font-size:2.37067px;font-family:'Proxima Nova';dominant-baseline:alphabetic;text-anchor:middle;fill:#8000ff"/>
      <path d="m 36.151798,108 h 0.336634 v -1.58123 h -0.336634 z" style="font-weight:bold;font-size:2.37067px;font-family:'Proxima Nova';dominant-baseline:alphabetic;text-anchor:middle;fill:#8000ff"/>
    </g>
    <rect x="42.697144" y="105.46956" width="10.4" height="12.980445" rx="1" ry="1" fill="#8000ff" stroke="#8000ff" stroke-width="0.35"/>
    <g style="font-weight:bold;font-size:2.37067px;font-family:'Proxima Nova';dominant-baseline:alphabetic;text-anchor:middle;fill:#f7f2fc">
      <path d="m 44.966333,108.05 h 0.336635 v -0.64719 l 0.60452,-0.93404 H 45.52344 l -0.388789,0.63534 -0.393531,-0.63534 h -0.384048 l 0.609261,0.93404 z" style="font-weight:bold;font-size:2.37067px;font-family:'Proxima Nova';dominant-baseline:alphabetic;text-anchor:middle;fill:#f7f2fc"/>
      <path d="m 46.584054,107.26057 c 0,0.47651 0.348488,0.81788 0.824992,0.81788 0.478875,0 0.827363,-0.34137 0.827363,-0.81788 0,-0.4765 -0.348488,-0.81788 -0.827363,-0.81788 -0.476504,0 -0.824992,0.34138 -0.824992,0.81788 z m 1.306238,0 c 0,0.29396 -0.189654,0.51918 -0.481246,0.51918 -0.291592,0 -0.478875,-0.22522 -0.478875,-0.51918 0,-0.29633 0.187283,-0.51917 0.478875,-0.51917 0.291592,0 0.481246,0.22284 0.481246,0.51917 z" style="font-weight:bold;font-size:2.37067px;font-family:'Proxima Nova';dominant-baseline:alphabetic;text-anchor:middle;fill:#f7f2fc"/>
      <path d="m 48.474957,107.41941 c 0,0.38879 0.225214,0.65904 0.70883,0.65904 0.478874,0 0.704088,-0.26788 0.704088,-0.66141 v -0.94827 h -0.341376 v 0.93878 c 0,0.22047 -0.120904,0.3722 -0.362712,0.3722 -0.24655,0 -0.367454,-0.15173 -0.367454,-0.3722 v -0.93878 h -0.341376 z" style="font-weight:bold;font-size:2.37067px;font-family:'Proxima Nova';dominant-baseline:alphabetic;text-anchor:middle;fill:#f7f2fc"/>
      <path d="m 50.567108,108.05 h 0.339005 v -1.2849 h 0.45991 v -0.29633 h -1.261195 v 0.29633 h 0.46228 z" style="font-weight:bold;font-size:2.37067px;font-family:'Proxima Nova';dominant-baseline:alphabetic;text-anchor:middle;fill:#f7f2fc"/>
    </g>
  </g>
</svg>
