<?xml version="1.0" encoding="UTF-8" standalone="no"?>
<svg xmlns="http://www.w3.org/2000/svg" xmlns:svg="http://www.w3.org/2000/svg" version="1.1" viewBox="0 0 25.4 128.5" height="128.5mm" width="25.4mm">
  <defs/>
  <g>
    <rect x="0.25" y="0.25" width="24.9" height="128" fill="#fffff0" stroke="#4d4d00" stroke-width="0.5"/>
    <g style="font-weight:bold;font-size:4.064px;font-family:'Proxima Nova';dominant-baseline:alphabetic;text-anchor:middle;fill:#4d4d00">
      <path d="m 3.5702235,9 h 1.4711681 c 0.516128,0 0.788416,-0.32512 0.788416,-0.73152 0,-0.341376 -0.231648,-0.621792 -0.520192,-0.666496 0.256032,-0.052832 0.46736,-0.2804161 0.46736,-0.6217921 0,-0.361696 -0.26416,-0.69088 -0.780288,-0.69088 H 3.5702235 Z m 0.577088,-1.6215361 v -0.597408 h 0.7233921 c 0.195072,0 0.316992,0.130048 0.316992,0.296672 0,0.174752 -0.12192,0.300736 -0.316992,0.300736 z m 0,1.1297921 V 7.870208 h 0.7437121 c 0.227584,0 0.349504,0.146304 0.349504,0.316992 0,0.195072 -0.130048,0.321056 -0.349504,0.321056 z" style="font-weight:bold;font-size:4.064px;font-family:'Proxima Nova';dominant-baseline:alphabetic;text-anchor:middle;fill:#4d4d00"/>
      <path d="m 6.2610361,7.918976 c 0,0.666496 0.38608,1.129792 1.215136,1.129792 0.8209281,0 1.2070081,-0.459232 1.2070081,-1.133856 V 6.2893119 H 8.0979642 V 7.898656 c 0,0.377952 -0.207264,0.638048 -0.6217921,0.638048 -0.422656,0 -0.62992,-0.260096 -0.62992,-0.638048 V 6.2893119 h -0.585216 z" style="font-weight:bold;font-size:4.064px;font-family:'Proxima Nova';dominant-baseline:alphabetic;text-anchor:middle;fill:#4d4d00"/>
      <path d="M 9.8475798,9 H 10.428732 V 6.7973119 h 0.788416 v -0.508 H 9.0550997 v 0.508 h 0.7924801 z" style="font-weight:bold;font-size:4.064px;font-family:'Proxima Nova';dominant-baseline:alphabetic;text-anchor:middle;fill:#4d4d00"/>
      <path d="m 12.212955,9 h 0.581152 V 6.7973119 h 0.788416 v -0.508 h -2.162048 v 0.508 h 0.79248 z" style="font-weight:bold;font-size:4.064px;font-family:'Proxima Nova';dominant-baseline:alphabetic;text-anchor:middle;fill:#4d4d00"/>
      <path d="m 13.727176,7.646688 c 0,0.816864 0.597408,1.40208 1.414272,1.40208 0.820928,0 1.418336,-0.585216 1.418336,-1.40208 0,-0.8168641 -0.597408,-1.4020801 -1.418336,-1.4020801 -0.816864,0 -1.414272,0.585216 -1.414272,1.4020801 z m 2.239264,0 c 0,0.503936 -0.32512,0.890016 -0.824992,0.890016 -0.499872,0 -0.820928,-0.38608 -0.820928,-0.890016 0,-0.5080001 0.321056,-0.8900161 0.820928,-0.8900161 0.499872,0 0.824992,0.382016 0.824992,0.8900161 z" style="font-weight:bold;font-size:4.064px;font-family:'Proxima Nova';dominant-baseline:alphabetic;text-anchor:middle;fill:#4d4d00"/>
      <path d="m 18.838164,9 h 0.556768 V 6.2893119 H 18.817844 V 8.04496 L 17.562068,6.2893119 H 16.968724 V 9 h 0.577088 V 7.1793279 Z" style="font-weight:bold;font-size:4.064px;font-family:'Proxima Nova';dominant-baseline:alphabetic;text-anchor:middle;fill:#4d4d00"/>
      <path d="m 19.742468,8.617984 c 0.256032,0.256032 0.62992,0.430784 1.150112,0.430784 0.73152,0 1.085088,-0.373888 1.085088,-0.869696 0,-0.601472 -0.56896,-0.735584 -1.016,-0.8371841 -0.312928,-0.073152 -0.540512,-0.130048 -0.540512,-0.312928 0,-0.16256 0.138176,-0.276352 0.398272,-0.276352 0.26416,0 0.556768,0.093472 0.776224,0.296672 l 0.321056,-0.422656 c -0.268224,-0.247904 -0.625856,-0.377952 -1.05664,-0.377952 -0.638048,0 -1.028192,0.36576 -1.028192,0.816864 0,0.6055361 0.56896,0.7274561 1.011936,0.8290561 0.312928,0.073152 0.54864,0.14224 0.54864,0.34544 0,0.154432 -0.154432,0.3048 -0.471424,0.3048 -0.373888,0 -0.67056,-0.166624 -0.861568,-0.36576 z" style="font-weight:bold;font-size:4.064px;font-family:'Proxima Nova';dominant-baseline:alphabetic;text-anchor:middle;fill:#4d4d00"/>
    </g>
    <g style="font-weight:bold;font-size:4.064px;font-family:'Proxima Nova';dominant-baseline:hanging;text-anchor:middle;fill:#4d4d00">
      <path d="M 8.8367549,122.2581 H 9.905587 c 0.849376,0 1.438656,-0.53645 1.438656,-1.35331 0,-0.81687 -0.58928,-1.35738 -1.438656,-1.35738 H 8.8367549 Z m 0.5770881,-0.508 v -1.69469 h 0.491744 c 0.556768,0 0.849376,0.36983 0.849376,0.84938 0,0.45923 -0.312928,0.84531 -0.849376,0.84531 z" style="font-weight:bold;font-size:4.064px;font-family:'Proxima Nova';dominant-baseline:hanging;text-anchor:middle;fill:#4d4d00"/>
      <path d="m 13.615003,122.2581 h 0.581152 v -2.71069 h -0.581152 v 1.06477 h -1.28016 v -1.06477 h -0.577088 v 2.71069 h 0.577088 v -1.13792 h 1.28016 z" style="font-weight:bold;font-size:4.064px;font-family:'Proxima Nova';dominant-baseline:hanging;text-anchor:middle;fill:#4d4d00"/>
      <path d="m 14.72638,122.2581 h 1.918208 v -0.49987 h -1.34112 v -0.62992 h 1.312672 v -0.49581 h -1.312672 v -0.58928 h 1.34112 v -0.49581 H 14.72638 Z" style="font-weight:bold;font-size:4.064px;font-family:'Proxima Nova';dominant-baseline:hanging;text-anchor:middle;fill:#4d4d00"/>
    </g>
    <g style="font-weight:bold;font-size:3.048px;font-family:'Proxima Nova';dominant-baseline:alphabetic;text-anchor:middle;fill:#4d4d00">
      <path d="M 5.5827871,17 H 6.0552272 L 5.2718911,14.966984 H 4.7293471 L 3.9429631,17 h 0.475488 l 0.128016,-0.35052 h 0.908304 z m -0.582168,-1.658112 0.33528,0.932688 h -0.673608 z" style="font-weight:bold;font-size:3.048px;font-family:'Proxima Nova';dominant-baseline:alphabetic;text-anchor:middle;fill:#4d4d00"/>
    </g>
    <g style="font-weight:bold;font-size:3.048px;font-family:'Proxima Nova';dominant-baseline:alphabetic;text-anchor:middle;fill:#4d4d00">
      <path d="m 12.161988,16.387352 v -0.813816 h -1.359409 v 0.24384 H 11.9151 v 0.569976 z" style="font-weight:bold;font-size:3.048px;font-family:'Proxima Nova';dominant-baseline:alphabetic;text-anchor:middle;fill:#4d4d00"/>
    </g>
    <g style="font-weight:bold;font-size:3.048px;font-family:'Proxima Nova';dominant-baseline:alphabetic;text-anchor:middle;fill:#4d4d00">
      <path d="m 4.1921133,29.700001 h 1.103376 c 0.387096,0 0.591312,-0.24384 0.591312,-0.54864 0,-0.256032 -0.173736,-0.466344 -0.390144,-0.499872 0.192024,-0.03962 0.35052,-0.210312 0.35052,-0.466344 0,-0.271272 -0.19812,-0.51816 -0.585216,-0.51816 h -1.069848 z m 0.432816,-1.216152 v -0.448056 h 0.542544 c 0.146304,0 0.237744,0.09754 0.237744,0.222504 0,0.131064 -0.09144,0.225552 -0.237744,0.225552 z m 0,0.847344 v -0.478536 h 0.557784 c 0.170688,0 0.262128,0.109728 0.262128,0.237744 0,0.146304 -0.097536,0.240792 -0.262128,0.240792 z" style="font-weight:bold;font-size:3.048px;font-family:'Proxima Nova';dominant-baseline:alphabetic;text-anchor:middle;fill:#4d4d00"/>
    </g>
    <g style="font-weight:bold;font-size:3.048px;font-family:'Proxima Nova';dominant-baseline:alphabetic;text-anchor:middle;fill:#4d4d00">
      <path d="m 12.161988,29.087353 v -0.813816 h -1.359409 v 0.24384 H 11.9151 v 0.569976 z" style="font-weight:bold;font-size:3.048px;font-family:'Proxima Nova';dominant-baseline:alphabetic;text-anchor:middle;fill:#4d4d00"/>
    </g>
    <g style="font-weight:bold;font-size:3.048px;font-family:'Proxima Nova';dominant-baseline:alphabetic;text-anchor:middle;fill:#4d4d00">
      <path d="m 5.122682,42.436578 c 0.463296,0 0.719328,-0.246888 0.865632,-0.499872 L 5.616458,41.756874 c -0.085344,0.16764 -0.268224,0.295656 -0.493776,0.295656 -0.353568,0 -0.621792,-0.283464 -0.621792,-0.667513 0,-0.384048 0.268224,-0.667512 0.621792,-0.667512 0.225552,0 0.408432,0.131064 0.493776,0.295656 l 0.371856,-0.18288 C 5.845058,40.577297 5.585978,40.333457 5.122682,40.333457 c -0.59436,0 -1.0668,0.42672 -1.0668,1.05156 0,0.624841 0.47244,1.051561 1.0668,1.051561 z" style="font-weight:bold;font-size:3.048px;font-family:'Proxima Nova';dominant-baseline:alphabetic;text-anchor:middle;fill:#4d4d00"/>
    </g>
    <g style="font-weight:bold;font-size:3.048px;font-family:'Proxima Nova';dominant-baseline:alphabetic;text-anchor:middle;fill:#4d4d00">
      <path d="m 12.161988,41.787354 v -0.813817 h -1.359409 v 0.24384 H 11.9151 v 0.569977 z" style="font-weight:bold;font-size:3.048px;font-family:'Proxima Nova';dominant-baseline:alphabetic;text-anchor:middle;fill:#4d4d00"/>
    </g>
    <g style="font-weight:bold;font-size:3.048px;font-family:'Proxima Nova';dominant-baseline:alphabetic;text-anchor:middle;fill:#4d4d00">
      <path d="m 4.105793,55.099998 h 0.801624 c 0.637032,0 1.078992,-0.402336 1.078992,-1.014984 0,-0.612648 -0.44196,-1.018032 -1.078992,-1.018032 H 4.105793 Z m 0.432816,-0.381 v -1.271016 h 0.368808 c 0.417576,0 0.637032,0.277368 0.637032,0.637032 0,0.344424 -0.234696,0.633984 -0.637032,0.633984 z" style="font-weight:bold;font-size:3.048px;font-family:'Proxima Nova';dominant-baseline:alphabetic;text-anchor:middle;fill:#4d4d00"/>
    </g>
    <g style="font-weight:bold;font-size:3.048px;font-family:'Proxima Nova';dominant-baseline:alphabetic;text-anchor:middle;fill:#4d4d00">
      <path d="m 12.161988,54.48735 v -0.813816 h -1.359409 v 0.24384 H 11.9151 v 0.569976 z" style="font-weight:bold;font-size:3.048px;font-family:'Proxima Nova';dominant-baseline:alphabetic;text-anchor:middle;fill:#4d4d00"/>
    </g>
    <g style="font-weight:bold;font-size:3.048px;font-family:'Proxima Nova';dominant-baseline:alphabetic;text-anchor:middle;fill:#4d4d00">
      <path d="m 4.3111758,67.800003 h 1.438656 v -0.374904 h -1.00584 v -0.47244 h 0.984504 v -0.371856 h -0.984504 v -0.44196 h 1.00584 v -0.371856 h -1.438656 z" style="font-weight:bold;font-size:3.048px;font-family:'Proxima Nova';dominant-baseline:alphabetic;text-anchor:middle;fill:#4d4d00"/>
    </g>
    <g style="font-weight:bold;font-size:3.048px;font-family:'Proxima Nova';dominant-baseline:alphabetic;text-anchor:middle;fill:#4d4d00">
      <path d="m 12.161988,67.187355 v -0.813816 h -1.359409 v 0.24384 H 11.9151 v 0.569976 z" style="font-weight:bold;font-size:3.048px;font-family:'Proxima Nova';dominant-baseline:alphabetic;text-anchor:middle;fill:#4d4d00"/>
    </g>
    <g style="font-weight:bold;font-size:3.048px;font-family:'Proxima Nova';dominant-baseline:alphabetic;text-anchor:middle;fill:#4d4d00">
      <path d="m 4.3320117,80.5 h 0.432816 V 79.652656 H 5.7493318 V 79.2808 H 4.7648277 V 78.83884 H 5.7706678 V 78.466984 H 4.3320117 Z" style="font-weight:bold;font-size:3.048px;font-family:'Proxima Nova';dominant-baseline:alphabetic;text-anchor:middle;fill:#4d4d00"/>
    </g>
    <g style="font-weight:bold;font-size:3.048px;font-family:'Proxima Nova';dominant-baseline:alphabetic;text-anchor:middle;fill:#4d4d00">
      <path d="m 12.161988,79.887352 v -0.813816 h -1.359409 v 0.24384 H 11.9151 v 0.569976 z" style="font-weight:bold;font-size:3.048px;font-family:'Proxima Nova';dominant-baseline:alphabetic;text-anchor:middle;fill:#4d4d00"/>
    </g>
    <g style="font-weight:bold;font-size:3.048px;font-family:'Proxima Nova';dominant-baseline:alphabetic;text-anchor:middle;fill:#4d4d00">
      <path d="m 4.0052804,92.185013 c 0,0.64008 0.48768,1.054608 1.08204,1.054608 0.3688081,0 0.6583681,-0.1524 0.8656321,-0.384048 v -0.77724 H 4.9836884 v 0.371856 h 0.5425441 v 0.246888 c -0.088392,0.07925 -0.2529841,0.155448 -0.4389121,0.155448 -0.368808,0 -0.637032,-0.283464 -0.637032,-0.667512 0,-0.384048 0.268224,-0.667512 0.637032,-0.667512 0.21336,0 0.3870961,0.112776 0.4815841,0.256032 l 0.359664,-0.195072 c -0.155448,-0.240792 -0.420624,-0.445008 -0.8412481,-0.445008 -0.59436,0 -1.08204,0.408432 -1.08204,1.05156 z" style="font-weight:bold;font-size:3.048px;font-family:'Proxima Nova';dominant-baseline:alphabetic;text-anchor:middle;fill:#4d4d00"/>
    </g>
    <g style="font-weight:bold;font-size:3.048px;font-family:'Proxima Nova';dominant-baseline:alphabetic;text-anchor:middle;fill:#4d4d00">
      <path d="m 12.161988,92.587349 v -0.813816 h -1.359409 v 0.24384 H 11.9151 v 0.569976 z" style="font-weight:bold;font-size:3.048px;font-family:'Proxima Nova';dominant-baseline:alphabetic;text-anchor:middle;fill:#4d4d00"/>
    </g>
    <g style="font-weight:bold;font-size:3.048px;font-family:'Proxima Nova';dominant-baseline:alphabetic;text-anchor:middle;fill:#4d4d00">
      <path d="m 5.4808696,105.9 h 0.4358641 v -2.03301 H 5.4808696 v 0.79857 h -0.96012 v -0.79857 H 4.0879336 V 105.9 h 0.432816 v -0.85344 h 0.96012 z" style="font-weight:bold;font-size:3.048px;font-family:'Proxima Nova';dominant-baseline:alphabetic;text-anchor:middle;fill:#4d4d00"/>
    </g>
    <g style="font-weight:bold;font-size:3.048px;font-family:'Proxima Nova';dominant-baseline:alphabetic;text-anchor:middle;fill:#4d4d00">
      <path d="m 12.161988,105.28735 v -0.81381 h -1.359409 v 0.24384 H 11.9151 v 0.56997 z" style="font-weight:bold;font-size:3.048px;font-family:'Proxima Nova';dominant-baseline:alphabetic;text-anchor:middle;fill:#4d4d00"/>
    </g>
  </g>
</svg>
