<?xml version="1.0" encoding="UTF-8" standalone="no"?>
<svg
   xmlns:dc="http://purl.org/dc/elements/1.1/"
   xmlns:cc="http://creativecommons.org/ns#"
   xmlns:rdf="http://www.w3.org/1999/02/22-rdf-syntax-ns#"
   xmlns:svg="http://www.w3.org/2000/svg"
   xmlns="http://www.w3.org/2000/svg"
   id="svg438"
   height="379.429"
   width="465.000"
   version="1.1">
  <metadata
     id="metadata444">
    <rdf:RDF>
      <cc:Work
         rdf:about="">
        <dc:format>image/svg+xml</dc:format>
        <dc:type
           rdf:resource="http://purl.org/dc/dcmitype/StillImage" />
      </cc:Work>
    </rdf:RDF>
  </metadata>
  <defs
     id="defs442" />
  <g
     id="g436"
     transform="scale(2.953)">
    <path
       id="rect2"
       d="M 0,0 H 157.48 V 128.5 H 0 Z"
       style="fill:#efedeb;stroke:#331a00;stroke-width:1" />
    <g
       id="g6"
       transform="translate(78.74,9)">
      <g
         id="text4"
         style="font-weight:bold;font-size:4.06400013px;font-family:'Proxima Nova';dominant-baseline:alphabetic;text-anchor:middle;fill:#331a00"
         aria-label="CURVE SEQUENCER 8">
        <path
           id="path447"
           style="font-weight:bold;font-size:4.06400013px;font-family:'Proxima Nova';dominant-baseline:alphabetic;text-anchor:middle;fill:#331a00"
           d="m -19.446018,0.048768 c 0.617728,0 0.959104,-0.32918401 1.154176,-0.66649602 l -0.495808,-0.23977601 c -0.113792,0.22352001 -0.357632,0.39420802 -0.658368,0.39420802 -0.471424,0 -0.829056,-0.37795202 -0.829056,-0.89001599 0,-0.5120641 0.357632,-0.8900161 0.829056,-0.8900161 0.300736,0 0.544576,0.174752 0.658368,0.394208 l 0.495808,-0.24384 c -0.191008,-0.337312 -0.536448,-0.662432 -1.154176,-0.662432 -0.79248,0 -1.4224,0.56896 -1.4224,1.4020801 0,0.83311998 0.62992,1.40208 1.4224,1.40208 z" />
        <path
           id="path449"
           style="font-weight:bold;font-size:4.06400013px;font-family:'Proxima Nova';dominant-baseline:alphabetic;text-anchor:middle;fill:#331a00"
           d="m -17.94437,-1.081024 c 0,0.66649599 0.38608,1.129792 1.215136,1.129792 0.820928,0 1.207008,-0.45923201 1.207008,-1.133856 v -1.6256001 h -0.585216 v 1.6093441 c 0,0.37795198 -0.207264,0.63804799 -0.621792,0.63804799 -0.422656,0 -0.62992,-0.26009601 -0.62992,-0.63804799 v -1.6093441 h -0.585216 z" />
        <path
           id="path451"
           style="font-weight:bold;font-size:4.06400013px;font-family:'Proxima Nova';dominant-baseline:alphabetic;text-anchor:middle;fill:#331a00"
           d="m -13.451555,0 h 0.662432 l -0.6096,-1.032256 c 0.292608,-0.069088 0.593344,-0.32512 0.593344,-0.8046721 0,-0.503936 -0.34544,-0.87376 -0.910336,-0.87376 h -1.267968 V 0 h 0.577088 v -0.97129603 h 0.422656 z m 0.0569,-1.8409921 c 0,0.227584 -0.174752,0.3738881 -0.4064,0.3738881 h -0.605536 v -0.7477761 h 0.605536 c 0.231648,0 0.4064,0.146304 0.4064,0.373888 z" />
        <path
           id="path453"
           style="font-weight:bold;font-size:4.06400013px;font-family:'Proxima Nova';dominant-baseline:alphabetic;text-anchor:middle;fill:#331a00"
           d="m -11.651964,0 h 0.723392 l 1.0444476,-2.7106881 h -0.6583676 l -0.747776,2.08483208 -0.75184,-2.08483208 h -0.658368 z" />
        <path
           id="path455"
           style="font-weight:bold;font-size:4.06400013px;font-family:'Proxima Nova';dominant-baseline:alphabetic;text-anchor:middle;fill:#331a00"
           d="m -9.6338077,0 h 1.9182081 v -0.49987202 h -1.34112 V -1.129792 h 1.312672 v -0.4958081 h -1.312672 v -0.58928 h 1.34112 v -0.495808 h -1.9182081 z" />
        <path
           id="path457"
           style="font-weight:bold;font-size:4.06400013px;font-family:'Proxima Nova';dominant-baseline:alphabetic;text-anchor:middle;fill:#331a00"
           d="m -6.4076266,-0.38201601 c 0.256032,0.25603201 0.62992,0.43078401 1.150112,0.43078401 0.73152,0 1.0850881,-0.37388801 1.0850881,-0.86969603 0,-0.60147197 -0.5689601,-0.73558397 -1.0160001,-0.83718407 -0.312928,-0.073152 -0.540512,-0.130048 -0.540512,-0.312928 0,-0.16256 0.138176,-0.276352 0.398272,-0.276352 0.26416,0 0.556768,0.093472 0.776224,0.296672 l 0.321056,-0.422656 c -0.268224,-0.247904 -0.625856,-0.377952 -1.05664,-0.377952 -0.638048,0 -1.028192,0.36576 -1.028192,0.816864 0,0.6055361 0.56896,0.7274561 1.011936,0.8290561 0.312928,0.073152 0.54864,0.14223997 0.54864,0.34543998 0,0.154432 -0.154432,0.30480001 -0.471424,0.30480001 -0.373888,0 -0.67056,-0.16662401 -0.861568,-0.36576002 z" />
        <path
           id="path459"
           style="font-weight:bold;font-size:4.06400013px;font-family:'Proxima Nova';dominant-baseline:alphabetic;text-anchor:middle;fill:#331a00"
           d="m -3.7838702,0 h 1.918208 v -0.49987202 h -1.34112 V -1.129792 h 1.312672 v -0.4958081 h -1.312672 v -0.58928 h 1.34112 v -0.495808 h -1.918208 z" />
        <path
           id="path461"
           style="font-weight:bold;font-size:4.06400013px;font-family:'Proxima Nova';dominant-baseline:alphabetic;text-anchor:middle;fill:#331a00"
           d="m 1.2920019,-1.353312 c 0,-0.8168641 -0.59740805,-1.4020801 -1.41833608,-1.4020801 -0.81686402,0 -1.41427202,0.585216 -1.41427202,1.4020801 0,0.81686398 0.597408,1.40208 1.41427202,1.40208 0.23571201,0 0.45516802,-0.048768 0.64617602,-0.138176 L 0.73523385,0.16662401 1.1375699,-0.16256001 0.93843386,-0.39420801 C 1.1619539,-0.63804802 1.2920019,-0.97129603 1.2920019,-1.353312 Z m -1.41833608,0.89001599 c -0.49987201,0 -0.82092802,-0.38608002 -0.82092802,-0.89001599 0,-0.5080001 0.32105601,-0.8900161 0.82092802,-0.8900161 0.49987202,0 0.82499203,0.382016 0.82499203,0.8900161 0,0.195072 -0.048768,0.37388797 -0.138176,0.51612797 L 0.25161784,-1.19888 l -0.40233602,0.32511997 0.30886401,0.36169601 c -0.085344,0.032512 -0.18288,0.048768 -0.28448001,0.048768 z" />
        <path
           id="path463"
           style="font-weight:bold;font-size:4.06400013px;font-family:'Proxima Nova';dominant-baseline:alphabetic;text-anchor:middle;fill:#331a00"
           d="m 1.7009435,-1.081024 c 0,0.66649599 0.38608,1.129792 1.215136,1.129792 0.820928,0 1.2070081,-0.45923201 1.2070081,-1.133856 V -2.7106881 H 3.5378715 v 1.6093441 c 0,0.37795198 -0.207264,0.63804799 -0.621792,0.63804799 -0.422656,0 -0.62992,-0.26009601 -0.62992,-0.63804799 v -1.6093441 h -0.585216 z" />
        <path
           id="path465"
           style="font-weight:bold;font-size:4.06400013px;font-family:'Proxima Nova';dominant-baseline:alphabetic;text-anchor:middle;fill:#331a00"
           d="M 4.6616311,0 H 6.5798392 V -0.49987202 H 5.2387191 V -1.129792 H 6.5513912 V -1.6256001 H 5.2387191 v -0.58928 h 1.3411201 v -0.495808 H 4.6616311 Z" />
        <path
           id="path467"
           style="font-weight:bold;font-size:4.06400013px;font-family:'Proxima Nova';dominant-baseline:alphabetic;text-anchor:middle;fill:#331a00"
           d="m 8.9043832,0 h 0.556768 v -2.7106881 h -0.577088 v 1.75564807 L 7.6282871,-2.7106881 H 7.0349431 V 0 h 0.577088 v -1.8206721 z" />
        <path
           id="path469"
           style="font-weight:bold;font-size:4.06400013px;font-family:'Proxima Nova';dominant-baseline:alphabetic;text-anchor:middle;fill:#331a00"
           d="m 11.287983,0.048768 c 0.617728,0 0.959104,-0.32918401 1.154176,-0.66649602 l -0.495808,-0.23977601 c -0.113792,0.22352001 -0.357632,0.39420802 -0.658368,0.39420802 -0.471424,0 -0.829056,-0.37795202 -0.829056,-0.89001599 0,-0.5120641 0.357632,-0.8900161 0.829056,-0.8900161 0.300736,0 0.544576,0.174752 0.658368,0.394208 l 0.495808,-0.24384 c -0.191008,-0.337312 -0.536448,-0.662432 -1.154176,-0.662432 -0.79248,0 -1.4224003,0.56896 -1.4224003,1.4020801 0,0.83311998 0.6299203,1.40208 1.4224003,1.40208 z" />
        <path
           id="path471"
           style="font-weight:bold;font-size:4.06400013px;font-family:'Proxima Nova';dominant-baseline:alphabetic;text-anchor:middle;fill:#331a00"
           d="m 12.789629,0 h 1.918209 V -0.49987202 H 13.366717 V -1.129792 h 1.312673 v -0.4958081 h -1.312673 v -0.58928 h 1.341121 v -0.495808 h -1.918209 z" />
        <path
           id="path473"
           style="font-weight:bold;font-size:4.06400013px;font-family:'Proxima Nova';dominant-baseline:alphabetic;text-anchor:middle;fill:#331a00"
           d="m 16.695071,0 h 0.662432 l -0.6096,-1.032256 c 0.292608,-0.069088 0.593344,-0.32512 0.593344,-0.8046721 0,-0.503936 -0.34544,-0.87376 -0.910336,-0.87376 H 15.162943 V 0 h 0.577088 v -0.97129603 h 0.422656 z m 0.0569,-1.8409921 c 0,0.227584 -0.174752,0.3738881 -0.4064,0.3738881 h -0.605536 v -0.7477761 h 0.605536 c 0.231648,0 0.4064,0.146304 0.4064,0.373888 z" />
        <path
           id="path475"
           style="font-weight:bold;font-size:4.06400013px;font-family:'Proxima Nova';dominant-baseline:alphabetic;text-anchor:middle;fill:#331a00"
           d="m 18.688208,-0.70307202 c 0,0.50800001 0.520192,0.75184002 1.089152,0.75184002 0.56896,0 1.089152,-0.24790401 1.089152,-0.75184002 0,-0.32918398 -0.260096,-0.58115198 -0.585216,-0.69494398 0.300736,-0.1016 0.540512,-0.3007361 0.540512,-0.6380481 0,-0.508 -0.544576,-0.715264 -1.044448,-0.715264 -0.503936,0 -1.044448,0.207264 -1.044448,0.715264 0,0.337312 0.235712,0.5364481 0.536448,0.6380481 -0.32512,0.113792 -0.581152,0.36576 -0.581152,0.69494398 z m 1.54432,-1.24358408 c 0,0.211328 -0.288544,0.3048 -0.455168,0.329184 -0.166624,-0.024384 -0.459232,-0.117856 -0.459232,-0.329184 0,-0.191008 0.191008,-0.308864 0.459232,-0.308864 0.26416,0 0.455168,0.117856 0.455168,0.308864 z m 0.04877,1.17449608 c 0,0.199136 -0.227584,0.32512001 -0.503936,0.32512001 -0.28448,0 -0.503936,-0.12598401 -0.503936,-0.32512001 0,-0.23571198 0.333248,-0.34950398 0.503936,-0.36982398 0.166624,0.02032 0.503936,0.134112 0.503936,0.36982398 z" />
      </g>
    </g>
    <g
       id="g10"
       transform="translate(78.74,119.5)">
      <g
         id="text8"
         style="font-weight:bold;font-size:4.06400013px;font-family:'Proxima Nova';dominant-baseline:hanging;text-anchor:middle;fill:#331a00"
         aria-label="DHE">
        <path
           id="path478"
           style="font-weight:bold;font-size:4.06400013px;font-family:'Proxima Nova';dominant-baseline:hanging;text-anchor:middle;fill:#331a00"
           d="m -3.8632449,2.5684481 h 1.0688321 c 0.849376,0 1.438656,-0.5364481 1.438656,-1.3533121 0,-0.816864 -0.58928,-1.35737602 -1.438656,-1.35737602 h -1.0688321 z m 0.577088,-0.508 V 0.36576 h 0.4917441 c 0.556768,0 0.849376,0.36982401 0.849376,0.849376 0,0.459232 -0.312928,0.8453121 -0.849376,0.8453121 z" />
        <path
           id="path480"
           style="font-weight:bold;font-size:4.06400013px;font-family:'Proxima Nova';dominant-baseline:hanging;text-anchor:middle;fill:#331a00"
           d="M 0.91500319,2.5684481 H 1.4961552 V -0.14224002 H 0.91500319 V 0.92252801 H -0.36515685 V -0.14224002 H -0.94224487 V 2.5684481 h 0.57708802 V 1.430528 h 1.28016004 z" />
        <path
           id="path482"
           style="font-weight:bold;font-size:4.06400013px;font-family:'Proxima Nova';dominant-baseline:hanging;text-anchor:middle;fill:#331a00"
           d="M 2.0263802,2.5684481 H 3.9445883 V 2.0685761 H 2.6034682 V 1.438656 H 3.9161403 V 0.94284801 H 2.6034682 V 0.353568 H 3.9445883 V -0.14224002 H 2.0263802 Z" />
      </g>
    </g>
    <path
       id="line12"
       d="M 10.16,27.32 H 20.32"
       style="stroke:#331a00;stroke-width:0.34999999" />
    <g
       id="g16"
       transform="translate(10.16,22.12)">
      <g
         id="text14"
         style="font-weight:bold;font-size:3.0480001px;font-family:'Proxima Nova';dominant-baseline:alphabetic;text-anchor:middle;fill:#331a00"
         aria-label="RUN">
        <path
           id="path486"
           style="font-weight:bold;font-size:3.0480001px;font-family:'Proxima Nova';dominant-baseline:alphabetic;text-anchor:middle;fill:#331a00"
           d="m -1.8495407,0 h 0.496824 l -0.4572,-0.77419202 c 0.219456,-0.051816 0.445008,-0.24383998 0.445008,-0.60350398 0,-0.3779521 -0.25908,-0.6553201 -0.6827521,-0.6553201 h -0.950976 V 0 h 0.432816 v -0.72847202 h 0.316992 z m 0.042672,-1.380744 c 0,0.170688 -0.131064,0.280416 -0.3048001,0.280416 h -0.454152 v -0.5608321 h 0.454152 c 0.1737361,0 0.3048001,0.1097281 0.3048001,0.2804161 z" />
        <path
           id="path488"
           style="font-weight:bold;font-size:3.0480001px;font-family:'Proxima Nova';dominant-baseline:alphabetic;text-anchor:middle;fill:#331a00"
           d="m -1.0400586,-0.81076803 c 0,0.49987202 0.28956005,0.84734403 0.91135207,0.84734403 0.61569602,0 0.90525603,-0.34442401 0.90525603,-0.85039203 V -2.0330161 H 0.33763749 v 1.20700807 c 0,0.28346401 -0.15544801,0.47853602 -0.46634402,0.47853602 -0.31699201,0 -0.47244001,-0.19507201 -0.47244001,-0.47853602 V -2.0330161 H -1.0400586 Z" />
        <path
           id="path490"
           style="font-weight:bold;font-size:3.0480001px;font-family:'Proxima Nova';dominant-baseline:alphabetic;text-anchor:middle;fill:#331a00"
           d="m 2.5825371,0 h 0.417576 v -2.0330161 h -0.432816 v 1.31673608 L 1.6254651,-2.0330161 H 1.1804571 V 0 h 0.432816 v -1.365504 z" />
      </g>
    </g>
    <g
       id="g20"
       transform="translate(20.32,23.32)">
      <g
         id="text18"
         style="font-weight:bold;font-size:2.37100005px;font-family:'Proxima Nova';dominant-baseline:alphabetic;text-anchor:middle;fill:#331a00" />
    </g>
    <path
       id="line22"
       d="M 10.16,78.512001 H 20.32"
       style="stroke:#331a00;stroke-width:0.34999999" />
    <g
       id="g26"
       transform="translate(10.16,73.312)">
      <g
         id="text24"
         style="font-weight:bold;font-size:3.0480001px;font-family:'Proxima Nova';dominant-baseline:alphabetic;text-anchor:middle;fill:#331a00"
         aria-label="LOOP">
        <path
           id="path495"
           style="font-weight:bold;font-size:3.0480001px;font-family:'Proxima Nova';dominant-baseline:alphabetic;text-anchor:middle;fill:#331a00"
           d="m -3.8380274,0 h 1.292352 v -0.38100001 h -0.859536 V -2.0330161 h -0.432816 z" />
        <path
           id="path497"
           style="font-weight:bold;font-size:3.0480001px;font-family:'Proxima Nova';dominant-baseline:alphabetic;text-anchor:middle;fill:#331a00"
           d="m -2.4234697,-1.014984 c 0,0.61264799 0.4480561,1.05156 1.0607041,1.05156 0.615696,0 1.06375201,-0.43891201 1.06375201,-1.05156 0,-0.6126481 -0.44805601,-1.0515601 -1.06375201,-1.0515601 -0.612648,0 -1.0607041,0.438912 -1.0607041,1.0515601 z m 1.6794481,0 c 0,0.37795198 -0.24384001,0.66751199 -0.618744,0.66751199 -0.374904,0 -0.615696,-0.28956001 -0.615696,-0.66751199 0,-0.381 0.240792,-0.6675121 0.615696,-0.6675121 0.37490399,0 0.618744,0.2865121 0.618744,0.6675121 z" />
        <path
           id="path499"
           style="font-weight:bold;font-size:3.0480001px;font-family:'Proxima Nova';dominant-baseline:alphabetic;text-anchor:middle;fill:#331a00"
           d="m -0.08984458,-1.014984 c 0,0.61264799 0.44805602,1.05156 1.06070404,1.05156 0.61569604,0 1.06375204,-0.43891201 1.06375204,-1.05156 0,-0.6126481 -0.448056,-1.0515601 -1.06375204,-1.0515601 -0.61264802,0 -1.06070404,0.438912 -1.06070404,1.0515601 z m 1.67944808,0 c 0,0.37795198 -0.24384,0.66751199 -0.61874404,0.66751199 -0.37490402,0 -0.61569602,-0.28956001 -0.61569602,-0.66751199 0,-0.381 0.240792,-0.6675121 0.61569602,-0.6675121 0.37490404,0 0.61874404,0.2865121 0.61874404,0.6675121 z" />
        <path
           id="path501"
           style="font-weight:bold;font-size:3.0480001px;font-family:'Proxima Nova';dominant-baseline:alphabetic;text-anchor:middle;fill:#331a00"
           d="m 2.3413167,0 h 0.4328161 v -0.72847202 h 0.51816 c 0.438912,0 0.682752,-0.29565598 0.682752,-0.64922398 0,-0.3566161 -0.240792,-0.6553201 -0.682752,-0.6553201 H 2.3413167 Z m 1.1917681,-1.380744 c 0,0.170688 -0.128016,0.280416 -0.298704,0.280416 h -0.460248 v -0.5608321 h 0.460248 c 0.170688,0 0.298704,0.1127761 0.298704,0.2804161 z" />
      </g>
    </g>
    <g
       id="g30"
       transform="translate(20.32,74.512)">
      <g
         id="text28"
         style="font-weight:bold;font-size:2.37100005px;font-family:'Proxima Nova';dominant-baseline:alphabetic;text-anchor:middle;fill:#331a00" />
    </g>
    <path
       id="line32"
       d="M 10.16,61.448002 H 20.32"
       style="stroke:#331a00;stroke-width:0.34999999" />
    <g
       id="g36"
       transform="translate(10.16,56.248)">
      <g
         id="text34"
         style="font-weight:bold;font-size:3.0480001px;font-family:'Proxima Nova';dominant-baseline:alphabetic;text-anchor:middle;fill:#331a00"
         aria-label="RESET">
        <path
           id="path506"
           style="font-weight:bold;font-size:3.0480001px;font-family:'Proxima Nova';dominant-baseline:alphabetic;text-anchor:middle;fill:#331a00"
           d="m -3.2098299,0 h 0.4968241 l -0.4572001,-0.77419202 c 0.2194561,-0.051816 0.4450081,-0.24383998 0.4450081,-0.60350398 0,-0.3779521 -0.25908,-0.6553201 -0.6827521,-0.6553201 h -0.950976 V 0 h 0.432816 v -0.72847202 h 0.316992 z m 0.042672,-1.380744 c 0,0.170688 -0.131064,0.280416 -0.3048,0.280416 h -0.454152 v -0.5608321 h 0.454152 c 0.173736,0 0.3048,0.1097281 0.3048,0.2804161 z" />
        <path
           id="path508"
           style="font-weight:bold;font-size:3.0480001px;font-family:'Proxima Nova';dominant-baseline:alphabetic;text-anchor:middle;fill:#331a00"
           d="m -2.4003477,0 h 1.43865609 V -0.37490401 H -1.9675316 v -0.47244002 h 0.98450399 V -1.2192 H -1.9675316 v -0.4419601 h 1.00583999 v -0.371856 H -2.4003477 Z" />
        <path
           id="path510"
           style="font-weight:bold;font-size:3.0480001px;font-family:'Proxima Nova';dominant-baseline:alphabetic;text-anchor:middle;fill:#331a00"
           d="M -0.76057131,-0.28651201 C -0.5685473,-0.094488 -0.28813129,0.036576 0.10201272,0.036576 c 0.54864002,0 0.81381602,-0.28041601 0.81381602,-0.65227202 0,-0.45110398 -0.42672001,-0.55168798 -0.76200002,-0.62788798 -0.23469601,-0.054864 -0.40538401,-0.097536 -0.40538401,-0.234696 0,-0.1219201 0.103632,-0.2072641 0.29870401,-0.2072641 0.19812,0 0.41757601,0.070104 0.58216801,0.2225041 l 0.24079201,-0.3169921 c -0.201168,-0.185928 -0.46939201,-0.283464 -0.79248002,-0.283464 -0.47853602,0 -0.77114403,0.27432 -0.77114403,0.6126481 0,0.45415197 0.42672002,0.54559197 0.75895203,0.62179197 0.234696,0.054864 0.41148001,0.10668001 0.41148001,0.25908001 0,0.11582401 -0.115824,0.22860001 -0.35356801,0.22860001 -0.28041601,0 -0.50292002,-0.124968 -0.64617602,-0.27432001 z" />
        <path
           id="path512"
           style="font-weight:bold;font-size:3.0480001px;font-family:'Proxima Nova';dominant-baseline:alphabetic;text-anchor:middle;fill:#331a00"
           d="M 1.2072462,0 H 2.6459023 V -0.37490401 H 1.6400622 V -0.84734403 H 2.6245663 V -1.2192 H 1.6400622 v -0.4419601 h 1.0058401 v -0.371856 H 1.2072462 Z" />
        <path
           id="path514"
           style="font-weight:bold;font-size:3.0480001px;font-family:'Proxima Nova';dominant-baseline:alphabetic;text-anchor:middle;fill:#331a00"
           d="m 3.4566227,0 h 0.435864 v -1.6520161 h 0.5913121 v -0.381 H 2.8622627 v 0.381 h 0.59436 z" />
      </g>
    </g>
    <g
       id="g40"
       transform="translate(20.32,57.448)">
      <g
         id="text38"
         style="font-weight:bold;font-size:2.37100005px;font-family:'Proxima Nova';dominant-baseline:alphabetic;text-anchor:middle;fill:#331a00" />
    </g>
    <path
       id="line42"
       d="M 10.16,44.383999 H 20.32"
       style="stroke:#331a00;stroke-width:0.34999999" />
    <g
       id="g46"
       transform="translate(10.16,39.184)">
      <g
         id="text44"
         style="font-weight:bold;font-size:3.0480001px;font-family:'Proxima Nova';dominant-baseline:alphabetic;text-anchor:middle;fill:#331a00"
         aria-label="GATE">
        <path
           id="path519"
           style="font-weight:bold;font-size:3.0480001px;font-family:'Proxima Nova';dominant-baseline:alphabetic;text-anchor:middle;fill:#331a00"
           d="m -3.7033916,-1.014984 c 0,0.64007999 0.4876801,1.054608 1.0820401,1.054608 0.368808,0 0.658368,-0.1524 0.865632,-0.38404801 V -1.121664 h -0.969264 v 0.37185598 h 0.542544 v 0.246888 c -0.088392,0.079248 -0.252984,0.15544801 -0.438912,0.15544801 -0.368808,0 -0.637032,-0.28346401 -0.637032,-0.66751199 0,-0.384048 0.268224,-0.6675121 0.637032,-0.6675121 0.21336,0 0.387096,0.112776 0.481584,0.2560321 l 0.359664,-0.1950721 c -0.155448,-0.240792 -0.420624,-0.445008 -0.841248,-0.445008 -0.59436,0 -1.0820401,0.408432 -1.0820401,1.0515601 z" />
        <path
           id="path521"
           style="font-weight:bold;font-size:3.0480001px;font-family:'Proxima Nova';dominant-baseline:alphabetic;text-anchor:middle;fill:#331a00"
           d="M -0.00954884,0 H 0.46289117 L -0.32044485,-2.0330161 H -0.86298887 L -1.6493729,0 h 0.475488 l 0.128016,-0.35052001 h 0.90830405 z m -0.58216802,-1.6581121 0.33528001,0.93268808 h -0.67360802 z" />
        <path
           id="path523"
           style="font-weight:bold;font-size:3.0480001px;font-family:'Proxima Nova';dominant-baseline:alphabetic;text-anchor:middle;fill:#331a00"
           d="M 0.92356788,0 H 1.3594319 v -1.6520161 h 0.591312 v -0.381 H 0.32920786 v 0.381 h 0.59436002 z" />
        <path
           id="path525"
           style="font-weight:bold;font-size:3.0480001px;font-family:'Proxima Nova';dominant-baseline:alphabetic;text-anchor:middle;fill:#331a00"
           d="M 2.228207,0 H 3.6668631 V -0.37490401 H 2.661023 V -0.84734403 H 3.6455271 V -1.2192 H 2.661023 v -0.4419601 h 1.0058401 v -0.371856 H 2.228207 Z" />
      </g>
    </g>
    <g
       id="g50"
       transform="translate(20.32,40.384)">
      <g
         id="text48"
         style="font-weight:bold;font-size:2.37100005px;font-family:'Proxima Nova';dominant-baseline:alphabetic;text-anchor:middle;fill:#331a00" />
    </g>
    <path
       id="line52"
       d="M 10.16,95.575996 H 20.32"
       style="stroke:#331a00;stroke-width:0.34999999" />
    <g
       id="g56"
       transform="translate(10.16,90.376)">
      <g
         id="text54"
         style="font-weight:bold;font-size:3.0480001px;font-family:'Proxima Nova';dominant-baseline:alphabetic;text-anchor:middle;fill:#331a00"
         aria-label="START">
        <path
           id="path530"
           style="font-weight:bold;font-size:3.0480001px;font-family:'Proxima Nova';dominant-baseline:alphabetic;text-anchor:middle;fill:#331a00"
           d="m -4.5229464,-0.28651201 c 0.192024,0.19202401 0.47244,0.32308801 0.862584,0.32308801 0.5486401,0 0.8138161,-0.28041601 0.8138161,-0.65227202 0,-0.45110398 -0.4267201,-0.55168798 -0.7620001,-0.62788798 -0.234696,-0.054864 -0.405384,-0.097536 -0.405384,-0.234696 0,-0.1219201 0.103632,-0.2072641 0.298704,-0.2072641 0.19812,0 0.417576,0.070104 0.5821681,0.2225041 l 0.240792,-0.3169921 c -0.201168,-0.185928 -0.4693921,-0.283464 -0.7924801,-0.283464 -0.478536,0 -0.771144,0.27432 -0.771144,0.6126481 0,0.45415197 0.42672,0.54559197 0.758952,0.62179197 0.234696,0.054864 0.41148,0.10668001 0.41148,0.25908001 0,0.11582401 -0.115824,0.22860001 -0.353568,0.22860001 -0.280416,0 -0.50292,-0.124968 -0.646176,-0.27432001 z" />
        <path
           id="path532"
           style="font-weight:bold;font-size:3.0480001px;font-family:'Proxima Nova';dominant-baseline:alphabetic;text-anchor:middle;fill:#331a00"
           d="m -2.1095495,0 h 0.435864 v -1.6520161 h 0.591312 v -0.381 h -1.621536 v 0.381 h 0.59436 z" />
        <path
           id="path534"
           style="font-weight:bold;font-size:3.0480001px;font-family:'Proxima Nova';dominant-baseline:alphabetic;text-anchor:middle;fill:#331a00"
           d="M 0.42205273,0 H 0.89449275 L 0.11115672,-2.0330161 H -0.4313873 L -1.2177713,0 h 0.47548799 l 0.12801601,-0.35052001 h 0.90830403 z m -0.58216802,-1.6581121 0.33528001,0.93268808 H -0.4984433 Z" />
        <path
           id="path536"
           style="font-weight:bold;font-size:3.0480001px;font-family:'Proxima Nova';dominant-baseline:alphabetic;text-anchor:middle;fill:#331a00"
           d="m 2.2313263,0 h 0.496824 l -0.4572,-0.77419202 c 0.219456,-0.051816 0.445008,-0.24383998 0.445008,-0.60350398 0,-0.3779521 -0.25908,-0.6553201 -0.682752,-0.6553201 H 1.0822303 V 0 h 0.432816 v -0.72847202 h 0.316992 z m 0.042672,-1.380744 c 0,0.170688 -0.131064,0.280416 -0.3048,0.280416 h -0.454152 v -0.5608321 h 0.454152 c 0.173736,0 0.3048,0.1097281 0.3048,0.2804161 z" />
        <path
           id="path538"
           style="font-weight:bold;font-size:3.0480001px;font-family:'Proxima Nova';dominant-baseline:alphabetic;text-anchor:middle;fill:#331a00"
           d="m 3.4804353,0 h 0.435864 v -1.6520161 h 0.591312 v -0.381 h -1.621536 v 0.381 h 0.59436 z" />
      </g>
    </g>
    <g
       id="g60"
       transform="translate(20.32,90.376)">
      <g
         id="text58"
         style="font-weight:bold;font-size:2.37100005px;font-family:'Proxima Nova';dominant-baseline:alphabetic;text-anchor:middle;fill:#331a00" />
    </g>
    <path
       id="line62"
       d="M 10.16,112.64 H 20.32"
       style="stroke:#331a00;stroke-width:0.34999999" />
    <g
       id="g66"
       transform="translate(10.16,107.44)">
      <g
         id="text64"
         style="font-weight:bold;font-size:3.0480001px;font-family:'Proxima Nova';dominant-baseline:alphabetic;text-anchor:middle;fill:#331a00"
         aria-label="STEPS">
        <path
           id="path543"
           style="font-weight:bold;font-size:3.0480001px;font-family:'Proxima Nova';dominant-baseline:alphabetic;text-anchor:middle;fill:#331a00"
           d="m -4.4812745,-0.28651201 c 0.192024,0.19202401 0.47244,0.32308801 0.862584,0.32308801 0.54864,0 0.813816,-0.28041601 0.813816,-0.65227202 0,-0.45110398 -0.42672,-0.55168798 -0.762,-0.62788798 -0.234696,-0.054864 -0.405384,-0.097536 -0.405384,-0.234696 0,-0.1219201 0.103632,-0.2072641 0.298704,-0.2072641 0.19812,0 0.417576,0.070104 0.582168,0.2225041 l 0.240792,-0.3169921 c -0.201168,-0.185928 -0.469392,-0.283464 -0.79248,-0.283464 -0.478536,0 -0.771144,0.27432 -0.771144,0.6126481 0,0.45415197 0.42672,0.54559197 0.758952,0.62179197 0.234696,0.054864 0.41148,0.10668001 0.41148,0.25908001 0,0.11582401 -0.115824,0.22860001 -0.353568,0.22860001 -0.280416,0 -0.50292,-0.124968 -0.646176,-0.27432001 z" />
        <path
           id="path545"
           style="font-weight:bold;font-size:3.0480001px;font-family:'Proxima Nova';dominant-baseline:alphabetic;text-anchor:middle;fill:#331a00"
           d="m -2.0678776,0 h 0.435864 v -1.6520161 h 0.591312 v -0.381 h -1.621536 v 0.381 h 0.59436 z" />
        <path
           id="path547"
           style="font-weight:bold;font-size:3.0480001px;font-family:'Proxima Nova';dominant-baseline:alphabetic;text-anchor:middle;fill:#331a00"
           d="M -0.76323834,0 H 0.6754177 V -0.37490401 H -0.33042233 V -0.84734403 H 0.6540817 V -1.2192 H -0.33042233 V -1.6611601 H 0.6754177 v -0.371856 h -1.43865604 z" />
        <path
           id="path549"
           style="font-weight:bold;font-size:3.0480001px;font-family:'Proxima Nova';dominant-baseline:alphabetic;text-anchor:middle;fill:#331a00"
           d="m 1.0167464,0 h 0.432816 v -0.72847202 h 0.51816 c 0.438912,0 0.682752,-0.29565598 0.682752,-0.64922398 0,-0.3566161 -0.240792,-0.6553201 -0.682752,-0.6553201 h -0.950976 z m 1.191768,-1.380744 c 0,0.170688 -0.128016,0.280416 -0.298704,0.280416 h -0.460248 v -0.5608321 h 0.460248 c 0.170688,0 0.298704,0.1127761 0.298704,0.2804161 z" />
        <path
           id="path551"
           style="font-weight:bold;font-size:3.0480001px;font-family:'Proxima Nova';dominant-baseline:alphabetic;text-anchor:middle;fill:#331a00"
           d="m 2.7755853,-0.28651201 c 0.192024,0.19202401 0.47244,0.32308801 0.862584,0.32308801 0.54864,0 0.813816,-0.28041601 0.813816,-0.65227202 0,-0.45110398 -0.42672,-0.55168798 -0.762,-0.62788798 -0.234696,-0.054864 -0.405384,-0.097536 -0.405384,-0.234696 0,-0.1219201 0.103632,-0.2072641 0.298704,-0.2072641 0.19812,0 0.417576,0.070104 0.582168,0.2225041 l 0.240792,-0.3169921 c -0.201168,-0.185928 -0.469392,-0.283464 -0.79248,-0.283464 -0.478536,0 -0.771144,0.27432 -0.771144,0.6126481 0,0.45415197 0.42672,0.54559197 0.758952,0.62179197 0.234696,0.054864 0.41148,0.10668001 0.41148,0.25908001 0,0.11582401 -0.115824,0.22860001 -0.353568,0.22860001 -0.280416,0 -0.50292,-0.124968 -0.646176,-0.27432001 z" />
      </g>
    </g>
    <g
       id="g70"
       transform="translate(20.32,107.44)">
      <g
         id="text68"
         style="font-weight:bold;font-size:2.37100005px;font-family:'Proxima Nova';dominant-baseline:alphabetic;text-anchor:middle;fill:#331a00" />
    </g>
    <g
       id="g74"
       transform="translate(43.942,21.408)">
      <g
         id="text72"
         style="font-weight:bold;font-size:3.0480001px;font-family:'Proxima Nova';dominant-baseline:middle;text-anchor:end;fill:#331a00"
         aria-label="ACTIVE">
        <path
           id="path555"
           style="font-weight:bold;font-size:3.0480001px;font-family:'Proxima Nova';dominant-baseline:middle;text-anchor:end;fill:#331a00"
           d="m -8.9243538,0.73609203 h 0.47244 L -9.2352498,-1.296924 h -0.542544 l -0.7863842,2.03301603 h 0.475488 l 0.1280162,-0.35052001 h 0.908304 z m -0.582168,-1.65811205 0.33528,0.93268803 h -0.673608 z" />
        <path
           id="path557"
           style="font-weight:bold;font-size:3.0480001px;font-family:'Proxima Nova';dominant-baseline:middle;text-anchor:end;fill:#331a00"
           d="m -7.3961152,0.77266803 c 0.4632961,0 0.7193281,-0.24688801 0.8656321,-0.49987201 l -0.371856,-0.17983201 c -0.085344,0.16764001 -0.268224,0.29565601 -0.4937761,0.29565601 -0.353568,0 -0.621792,-0.28346401 -0.621792,-0.66751202 0,-0.38404801 0.268224,-0.66751202 0.621792,-0.66751202 0.2255521,0 0.4084321,0.131064 0.4937761,0.29565601 l 0.371856,-0.18288001 C -6.6737391,-1.086612 -6.9328191,-1.330452 -7.3961152,-1.330452 c -0.59436,0 -1.0668,0.42671998 -1.0668,1.05156 0,0.62484002 0.47244,1.05156003 1.0668,1.05156003 z" />
        <path
           id="path559"
           style="font-weight:bold;font-size:3.0480001px;font-family:'Proxima Nova';dominant-baseline:middle;text-anchor:end;fill:#331a00"
           d="m -5.8004874,0.73609203 h 0.435864 v -1.65201605 h 0.591312 V -1.296924 h -1.621536 v 0.38099998 h 0.59436 z" />
        <path
           id="path561"
           style="font-weight:bold;font-size:3.0480001px;font-family:'Proxima Nova';dominant-baseline:middle;text-anchor:end;fill:#331a00"
           d="m -4.4958478,0.73609203 h 0.432816 V -1.296924 h -0.432816 z" />
        <path
           id="path563"
           style="font-weight:bold;font-size:3.0480001px;font-family:'Proxima Nova';dominant-baseline:middle;text-anchor:end;fill:#331a00"
           d="m -3.0924343,0.73609203 h 0.542544 l 0.783336,-2.03301603 h -0.493776 l -0.560832,1.56362402 -0.56388,-1.56362402 h -0.4937761 z" />
        <path
           id="path565"
           style="font-weight:bold;font-size:3.0480001px;font-family:'Proxima Nova';dominant-baseline:middle;text-anchor:end;fill:#331a00"
           d="m -1.5788165,0.73609203 h 1.43865604 V 0.36118802 H -1.1460005 V -0.111252 h 0.98450404 V -0.48310801 H -1.1460005 v -0.44196001 h 1.00584004 V -1.296924 H -1.5788165 Z" />
      </g>
    </g>
    <g
       id="g78"
       transform="translate(43.942,33.02)">
      <g
         id="text76"
         style="font-weight:bold;font-size:3.0480001px;font-family:'Proxima Nova';dominant-baseline:middle;text-anchor:end;fill:#331a00"
         aria-label="MODE">
        <path
           id="path568"
           style="font-weight:bold;font-size:3.0480001px;font-family:'Proxima Nova';dominant-baseline:middle;text-anchor:end;fill:#331a00"
           d="m -6.9428203,0.73609203 h 0.435864 V -1.296924 h -0.6096001 l -0.493776,1.26796801 -0.493776,-1.26796801 h -0.606552 v 2.03301603 h 0.432816 v -1.46304005 l 0.573024,1.46304005 h 0.188976 l 0.5730241,-1.46304005 z" />
        <path
           id="path570"
           style="font-weight:bold;font-size:3.0480001px;font-family:'Proxima Nova';dominant-baseline:middle;text-anchor:end;fill:#331a00"
           d="m -6.2007276,-0.278892 c 0,0.61264802 0.4480561,1.05156003 1.0607041,1.05156003 0.615696,0 1.063752,-0.43891201 1.063752,-1.05156003 0,-0.61264802 -0.448056,-1.05156 -1.063752,-1.05156 -0.612648,0 -1.0607041,0.43891198 -1.0607041,1.05156 z m 1.6794481,0 c 0,0.37795201 -0.24384,0.66751202 -0.618744,0.66751202 -0.374904,0 -0.615696,-0.28956001 -0.615696,-0.66751202 0,-0.38100001 0.240792,-0.66751202 0.615696,-0.66751202 0.374904,0 0.618744,0.28651201 0.618744,0.66751202 z" />
        <path
           id="path572"
           style="font-weight:bold;font-size:3.0480001px;font-family:'Proxima Nova';dominant-baseline:middle;text-anchor:end;fill:#331a00"
           d="m -3.7695665,0.73609203 h 0.801624 c 0.6370321,0 1.0789921,-0.40233601 1.0789921,-1.01498403 0,-0.61264802 -0.44196,-1.018032 -1.0789921,-1.018032 h -0.801624 z m 0.432816,-0.38100001 v -1.27101604 h 0.368808 c 0.4175761,0 0.6370321,0.27736801 0.6370321,0.63703202 0,0.34442401 -0.234696,0.63398402 -0.6370321,0.63398402 z" />
        <path
           id="path574"
           style="font-weight:bold;font-size:3.0480001px;font-family:'Proxima Nova';dominant-baseline:middle;text-anchor:end;fill:#331a00"
           d="m -1.5788164,0.73609203 h 1.43865609 V 0.36118802 H -1.1460003 V -0.111252 h 0.98450399 V -0.48310801 H -1.1460003 v -0.44196001 h 1.00583999 V -1.296924 H -1.5788164 Z" />
      </g>
    </g>
    <g
       id="g82"
       transform="translate(43.942,46.99)">
      <g
         id="text80"
         style="font-weight:bold;font-size:3.0480001px;font-family:'Proxima Nova';dominant-baseline:middle;text-anchor:end;fill:#331a00"
         aria-label="LEVEL">
        <path
           id="path577"
           style="font-weight:bold;font-size:3.0480001px;font-family:'Proxima Nova';dominant-baseline:middle;text-anchor:end;fill:#331a00"
           d="m -8.6332698,0.73609203 h 1.2923521 V 0.35509202 H -8.2004538 V -1.296924 h -0.432816 z" />
        <path
           id="path579"
           style="font-weight:bold;font-size:3.0480001px;font-family:'Proxima Nova';dominant-baseline:middle;text-anchor:end;fill:#331a00"
           d="m -7.0378322,0.73609203 h 1.438656 V 0.36118802 h -1.00584 V -0.111252 h 0.984504 v -0.37185601 h -0.984504 v -0.44196001 h 1.00584 V -1.296924 h -1.438656 z" />
        <path
           id="path581"
           style="font-weight:bold;font-size:3.0480001px;font-family:'Proxima Nova';dominant-baseline:middle;text-anchor:end;fill:#331a00"
           d="m -4.6878718,0.73609203 h 0.5425441 l 0.783336,-2.03301603 h -0.493776 L -4.4165997,0.26670002 -4.9804798,-1.296924 h -0.493776 z" />
        <path
           id="path583"
           style="font-weight:bold;font-size:3.0480001px;font-family:'Proxima Nova';dominant-baseline:middle;text-anchor:end;fill:#331a00"
           d="m -3.1742539,0.73609203 h 1.438656 V 0.36118802 h -1.00584 V -0.111252 h 0.984504 v -0.37185601 h -0.984504 v -0.44196001 h 1.00584 V -1.296924 h -1.438656 z" />
        <path
           id="path585"
           style="font-weight:bold;font-size:3.0480001px;font-family:'Proxima Nova';dominant-baseline:middle;text-anchor:end;fill:#331a00"
           d="m -1.3942695,0.73609203 h 1.29235209 V 0.35509202 H -0.96145344 V -1.296924 H -1.3942695 Z" />
      </g>
    </g>
    <g
       id="g86"
       transform="translate(43.942,63.5)">
      <g
         id="text84"
         style="font-weight:bold;font-size:3.0480001px;font-family:'Proxima Nova';dominant-baseline:middle;text-anchor:end;fill:#331a00"
         aria-label="SHAPE">
        <path
           id="path588"
           style="font-weight:bold;font-size:3.0480001px;font-family:'Proxima Nova';dominant-baseline:middle;text-anchor:end;fill:#331a00"
           d="m -9.7557434,0.44958002 c 0.192024,0.19202401 0.47244,0.32308801 0.862584,0.32308801 0.54864,0 0.813816,-0.28041601 0.813816,-0.65227202 0,-0.45110401 -0.42672,-0.55168802 -0.762,-0.62788802 -0.234696,-0.054864 -0.405384,-0.097536 -0.405384,-0.23469601 0,-0.12192 0.103632,-0.207264 0.298704,-0.207264 0.19812,0 0.417576,0.070104 0.582168,0.222504 L -8.1250634,-1.04394 c -0.201168,-0.185928 -0.469392,-0.283464 -0.79248,-0.283464 -0.478536,0 -0.771144,0.27432 -0.771144,0.61264798 0,0.45415202 0.42672,0.54559202 0.758952,0.62179202 0.234696,0.05486401 0.41148,0.10668001 0.41148,0.25908001 0,0.11582401 -0.115824,0.22860001 -0.353568,0.22860001 -0.280416,0 -0.50292,-0.124968 -0.646176,-0.27432001 z" />
        <path
           id="path590"
           style="font-weight:bold;font-size:3.0480001px;font-family:'Proxima Nova';dominant-baseline:middle;text-anchor:end;fill:#331a00"
           d="m -6.39499,0.73609203 h 0.435864 V -1.296924 H -6.39499 v 0.79857599 H -7.35511 V -1.296924 H -7.787926 V 0.73609203 H -7.35511 V -0.117348 h 0.96012 z" />
        <path
           id="path592"
           style="font-weight:bold;font-size:3.0480001px;font-family:'Proxima Nova';dominant-baseline:middle;text-anchor:end;fill:#331a00"
           d="m -4.1380413,0.73609203 h 0.47244 L -4.4489373,-1.296924 h -0.542544 l -0.786384,2.03301603 h 0.475488 l 0.128016,-0.35052001 h 0.908304 z m -0.582168,-1.65811205 0.33528,0.93268803 h -0.673608 z" />
        <path
           id="path594"
           style="font-weight:bold;font-size:3.0480001px;font-family:'Proxima Nova';dominant-baseline:middle;text-anchor:end;fill:#331a00"
           d="m -3.4778635,0.73609203 h 0.432816 V 0.00762001 h 0.51816 c 0.4389121,0 0.6827521,-0.29565601 0.6827521,-0.64922402 0,-0.35661601 -0.240792,-0.65531999 -0.6827521,-0.65531999 h -0.950976 z m 1.1917681,-1.38074404 c 0,0.170688 -0.1280161,0.28041601 -0.2987041,0.28041601 h -0.460248 v -0.56083202 h 0.460248 c 0.170688,0 0.2987041,0.112776 0.2987041,0.28041601 z" />
        <path
           id="path596"
           style="font-weight:bold;font-size:3.0480001px;font-family:'Proxima Nova';dominant-baseline:middle;text-anchor:end;fill:#331a00"
           d="m -1.5788161,0.73609203 h 1.43865604 V 0.36118802 H -1.1460001 V -0.111252 h 0.98450404 V -0.48310801 H -1.1460001 v -0.44196001 h 1.00584004 V -1.296924 H -1.5788161 Z" />
      </g>
    </g>
    <g
       id="g90"
       transform="translate(43.942,74.93)">
      <g
         id="text88"
         style="font-weight:bold;font-size:3.0480001px;font-family:'Proxima Nova';dominant-baseline:middle;text-anchor:end;fill:#331a00"
         aria-label="CURVE">
        <path
           id="path599"
           style="font-weight:bold;font-size:3.0480001px;font-family:'Proxima Nova';dominant-baseline:middle;text-anchor:end;fill:#331a00"
           d="m -8.9379745,0.77266803 c 0.463296,0 0.719328,-0.24688801 0.865632,-0.49987201 l -0.371856,-0.17983201 c -0.085344,0.16764001 -0.268224,0.29565601 -0.493776,0.29565601 -0.353568,0 -0.6217921,-0.28346401 -0.6217921,-0.66751202 0,-0.38404801 0.2682241,-0.66751202 0.6217921,-0.66751202 0.225552,0 0.408432,0.131064 0.493776,0.29565601 l 0.371856,-0.18288001 C -8.2155985,-1.086612 -8.4746785,-1.330452 -8.9379745,-1.330452 c -0.5943601,0 -1.0668005,0.42671998 -1.0668005,1.05156 0,0.62484002 0.4724404,1.05156003 1.0668005,1.05156003 z" />
        <path
           id="path601"
           style="font-weight:bold;font-size:3.0480001px;font-family:'Proxima Nova';dominant-baseline:middle;text-anchor:end;fill:#331a00"
           d="m -7.8117386,-0.07467599 c 0,0.49987201 0.28956,0.84734402 0.9113521,0.84734402 0.615696,0 0.905256,-0.34442401 0.905256,-0.85039202 V -1.296924 h -0.438912 v 1.207008 c 0,0.28346401 -0.155448,0.47853602 -0.466344,0.47853602 -0.3169921,0 -0.4724401,-0.19507201 -0.4724401,-0.47853602 v -1.207008 h -0.438912 z" />
        <path
           id="path603"
           style="font-weight:bold;font-size:3.0480001px;font-family:'Proxima Nova';dominant-baseline:middle;text-anchor:end;fill:#331a00"
           d="m -4.4421268,0.73609203 h 0.496824 l -0.4572,-0.77419202 c 0.219456,-0.05181601 0.445008,-0.24384001 0.445008,-0.60350402 0,-0.37795199 -0.25908,-0.65531999 -0.682752,-0.65531999 h -0.950976 v 2.03301603 h 0.432816 V 0.00762001 h 0.316992 z m 0.042672,-1.38074404 c 0,0.170688 -0.131064,0.28041601 -0.3048,0.28041601 h -0.454152 v -0.56083202 h 0.454152 c 0.173736,0 0.3048,0.109728 0.3048,0.28041601 z" />
        <path
           id="path605"
           style="font-weight:bold;font-size:3.0480001px;font-family:'Proxima Nova';dominant-baseline:middle;text-anchor:end;fill:#331a00"
           d="m -3.0924343,0.73609203 h 0.542544 l 0.783336,-2.03301603 h -0.493776 l -0.560832,1.56362402 -0.56388,-1.56362402 h -0.493776 z" />
        <path
           id="path607"
           style="font-weight:bold;font-size:3.0480001px;font-family:'Proxima Nova';dominant-baseline:middle;text-anchor:end;fill:#331a00"
           d="m -1.578816,0.73609203 h 1.43865603 V 0.36118802 H -1.146 V -0.111252 h 0.98450403 V -0.48310801 H -1.146 v -0.44196001 h 1.00584003 V -1.296924 H -1.578816 Z" />
      </g>
    </g>
    <g
       id="g94"
       transform="translate(43.942,90.17)">
      <g
         id="text92"
         style="font-weight:bold;font-size:3.0480001px;font-family:'Proxima Nova';dominant-baseline:middle;text-anchor:end;fill:#331a00"
         aria-label="DURATION">
        <path
           id="path610"
           style="font-weight:bold;font-size:3.0480001px;font-family:'Proxima Nova';dominant-baseline:middle;text-anchor:end;fill:#331a00"
           d="m -15.217426,0.73609203 h 0.801624 c 0.637032,0 1.078992,-0.40233601 1.078992,-1.01498403 0,-0.61264802 -0.44196,-1.018032 -1.078992,-1.018032 h -0.801624 z m 0.432816,-0.38100001 v -1.27101604 h 0.368808 c 0.417576,0 0.637032,0.27736801 0.637032,0.63703202 0,0.34442401 -0.234696,0.63398402 -0.637032,0.63398402 z" />
        <path
           id="path612"
           style="font-weight:bold;font-size:3.0480001px;font-family:'Proxima Nova';dominant-baseline:middle;text-anchor:end;fill:#331a00"
           d="m -13.026676,-0.07467599 c 0,0.49987201 0.28956,0.84734402 0.911352,0.84734402 0.615696,0 0.905256,-0.34442401 0.905256,-0.85039202 V -1.296924 h -0.438912 v 1.207008 c 0,0.28346401 -0.155448,0.47853602 -0.466344,0.47853602 -0.316992,0 -0.47244,-0.19507201 -0.47244,-0.47853602 v -1.207008 h -0.438912 z" />
        <path
           id="path614"
           style="font-weight:bold;font-size:3.0480001px;font-family:'Proxima Nova';dominant-baseline:middle;text-anchor:end;fill:#331a00"
           d="m -9.6570643,0.73609203 h 0.496824 l -0.4572,-0.77419202 c 0.219456,-0.05181601 0.445008,-0.24384001 0.445008,-0.60350402 0,-0.37795199 -0.25908,-0.65531999 -0.6827521,-0.65531999 H -10.80616 v 2.03301603 h 0.432816 V 0.00762001 h 0.316992 z m 0.042672,-1.38074404 c 0,0.170688 -0.1310641,0.28041601 -0.3048001,0.28041601 h -0.4541516 v -0.56083202 h 0.4541516 c 0.173736,0 0.3048001,0.109728 0.3048001,0.28041601 z" />
        <path
           id="path616"
           style="font-weight:bold;font-size:3.0480001px;font-family:'Proxima Nova';dominant-baseline:middle;text-anchor:end;fill:#331a00"
           d="m -7.4241662,0.73609203 h 0.47244 L -7.7350622,-1.296924 h -0.5425441 l -0.786384,2.03301603 h 0.475488 l 0.128016,-0.35052001 h 0.9083041 z m -0.582168,-1.65811205 0.33528,0.93268803 h -0.6736081 z" />
        <path
           id="path618"
           style="font-weight:bold;font-size:3.0480001px;font-family:'Proxima Nova';dominant-baseline:middle;text-anchor:end;fill:#331a00"
           d="m -6.4910495,0.73609203 h 0.435864 v -1.65201605 h 0.591312 V -1.296924 h -1.621536 v 0.38099998 h 0.59436 z" />
        <path
           id="path620"
           style="font-weight:bold;font-size:3.0480001px;font-family:'Proxima Nova';dominant-baseline:middle;text-anchor:end;fill:#331a00"
           d="m -5.1864099,0.73609203 h 0.432816 V -1.296924 h -0.432816 z" />
        <path
           id="path622"
           style="font-weight:bold;font-size:3.0480001px;font-family:'Proxima Nova';dominant-baseline:middle;text-anchor:end;fill:#331a00"
           d="m -4.4505089,-0.278892 c 0,0.61264802 0.448056,1.05156003 1.060704,1.05156003 0.615696,0 1.063752,-0.43891201 1.063752,-1.05156003 0,-0.61264802 -0.448056,-1.05156 -1.063752,-1.05156 -0.612648,0 -1.060704,0.43891198 -1.060704,1.05156 z m 1.679448,0 c 0,0.37795201 -0.24384,0.66751202 -0.618744,0.66751202 -0.374904,0 -0.615696,-0.28956001 -0.615696,-0.66751202 0,-0.38100001 0.240792,-0.66751202 0.615696,-0.66751202 0.374904,0 0.618744,0.28651201 0.618744,0.66751202 z" />
        <path
           id="path624"
           style="font-weight:bold;font-size:3.0480001px;font-family:'Proxima Nova';dominant-baseline:middle;text-anchor:end;fill:#331a00"
           d="m -0.61726804,0.73609203 h 0.41757602 V -1.296924 H -0.63250804 V 0.01981201 L -1.5743401,-1.296924 h -0.445008 v 2.03301603 h 0.432816 v -1.36550404 z" />
      </g>
    </g>
    <g
       id="g98"
       transform="translate(43.942,104.44)">
      <g
         id="text96"
         style="font-weight:bold;font-size:3.0480001px;font-family:'Proxima Nova';dominant-baseline:middle;text-anchor:end;fill:#331a00"
         aria-label="ENABLED">
        <path
           id="path627"
           style="font-weight:bold;font-size:3.0480001px;font-family:'Proxima Nova';dominant-baseline:middle;text-anchor:end;fill:#331a00"
           d="m -13.467207,0.73609203 h 1.438656 V 0.36118802 h -1.00584 V -0.111252 h 0.984504 v -0.37185601 h -0.984504 v -0.44196001 h 1.00584 V -1.296924 h -1.438656 z" />
        <path
           id="path629"
           style="font-weight:bold;font-size:3.0480001px;font-family:'Proxima Nova';dominant-baseline:middle;text-anchor:end;fill:#331a00"
           d="m -10.285143,0.73609203 h 0.4175761 V -1.296924 H -10.300383 V 0.01981201 L -11.242215,-1.296924 h -0.445008 v 2.03301603 h 0.432816 v -1.36550404 z" />
        <path
           id="path631"
           style="font-weight:bold;font-size:3.0480001px;font-family:'Proxima Nova';dominant-baseline:middle;text-anchor:end;fill:#331a00"
           d="m -8.0432912,0.73609203 h 0.47244 L -8.3541872,-1.296924 h -0.542544 l -0.786384,2.03301603 h 0.475488 l 0.128016,-0.35052001 h 0.908304 z m -0.582168,-1.65811205 0.33528,0.93268803 h -0.673608 z" />
        <path
           id="path633"
           style="font-weight:bold;font-size:3.0480001px;font-family:'Proxima Nova';dominant-baseline:middle;text-anchor:end;fill:#331a00"
           d="m -7.3831134,0.73609203 h 1.1033761 c 0.387096,0 0.591312,-0.24384001 0.591312,-0.54864002 0,-0.256032 -0.173736,-0.46634401 -0.390144,-0.49987201 0.192024,-0.039624 0.35052,-0.21031201 0.35052,-0.46634402 0,-0.27127198 -0.19812,-0.51815998 -0.585216,-0.51815998 h -1.0698481 z m 0.432816,-1.21615204 v -0.44805601 h 0.542544 c 0.1463041,0 0.2377441,0.097536 0.2377441,0.222504 0,0.13106401 -0.09144,0.22555201 -0.2377441,0.22555201 z m 0,0.84734403 V -0.111252 h 0.557784 c 0.1706881,0 0.2621281,0.10972801 0.2621281,0.23774401 0,0.14630401 -0.097536,0.24079201 -0.2621281,0.24079201 z" />
        <path
           id="path635"
           style="font-weight:bold;font-size:3.0480001px;font-family:'Proxima Nova';dominant-baseline:middle;text-anchor:end;fill:#331a00"
           d="M -5.3650041,0.73609203 H -4.072652 V 0.35509202 H -4.932188 V -1.296924 h -0.4328161 z" />
        <path
           id="path637"
           style="font-weight:bold;font-size:3.0480001px;font-family:'Proxima Nova';dominant-baseline:middle;text-anchor:end;fill:#331a00"
           d="M -3.7695661,0.73609203 H -2.33091 V 0.36118802 H -3.33675 V -0.111252 h 0.984504 V -0.48310801 H -3.33675 v -0.44196001 h 1.00584 V -1.296924 h -1.4386561 z" />
        <path
           id="path639"
           style="font-weight:bold;font-size:3.0480001px;font-family:'Proxima Nova';dominant-baseline:middle;text-anchor:end;fill:#331a00"
           d="m -1.9895825,0.73609203 h 0.801624 c 0.63703201,0 1.07899202,-0.40233601 1.07899202,-1.01498403 0,-0.61264802 -0.44196001,-1.018032 -1.07899202,-1.018032 h -0.801624 z m 0.432816,-0.38100001 v -1.27101604 h 0.368808 c 0.417576,0 0.63703201,0.27736801 0.63703201,0.63703202 0,0.34442401 -0.23469601,0.63398402 -0.63703201,0.63398402 z" />
      </g>
    </g>
    <path
       id="line100"
       d="m 45.084999,20.32 v 96.52"
       style="stroke:#331a00;stroke-width:0.34999999" />
    <g
       id="g104"
       transform="translate(50.8,17.78)">
      <g
         id="text102"
         style="font-weight:bold;font-size:3.0480001px;font-family:'Proxima Nova';dominant-baseline:alphabetic;text-anchor:middle;fill:#331a00"
         aria-label="1">
        <path
           id="path643"
           style="font-weight:bold;font-size:3.0480001px;font-family:'Proxima Nova';dominant-baseline:alphabetic;text-anchor:middle;fill:#331a00"
           d="M -0.00938213,0 H 0.42648189 V -2.0330161 H 0.04852988 l -0.64008002,0.6431281 0.246888,0.25908 0.33528001,-0.344424 z" />
      </g>
    </g>
    <g
       id="g108"
       transform="translate(50.8,100.44)">
      <g
         id="text106"
         style="font-weight:bold;font-size:2.37100005px;font-family:'Proxima Nova';dominant-baseline:alphabetic;text-anchor:middle;fill:#331a00" />
    </g>
    <g
       id="g112"
       transform="translate(50.8,107.44)">
      <g
         id="text110"
         style="font-weight:bold;font-size:3.0480001px;font-family:'Proxima Nova';dominant-baseline:alphabetic;text-anchor:middle;fill:#331a00" />
    </g>
    <g
       id="g116"
       transform="translate(50.8,67.5)">
      <g
         id="text114"
         style="font-weight:bold;font-size:2.37100005px;font-family:'Proxima Nova';dominant-baseline:hanging;text-anchor:middle;fill:#331a00"
         aria-label="J">
        <path
           id="path648"
           style="font-weight:bold;font-size:2.37100005px;font-family:'Proxima Nova';dominant-baseline:hanging;text-anchor:middle;fill:#331a00"
           d="m -0.562316,1.372809 c 0.113808,0.111437 0.263181,0.154115 0.424409,0.154115 0.32482701,0 0.55718502,-0.173083 0.55718502,-0.54770104 V -0.08298506 H 0.08259601 v 1.05746602 c 0,0.15411504 -0.097211,0.25369704 -0.24658401,0.25369704 -0.109066,0 -0.18968,-0.054533 -0.251326,-0.113808 z" />
      </g>
    </g>
    <g
       id="g120"
       transform="translate(50.8,59.5)">
      <g
         id="text118"
         style="font-weight:bold;font-size:2.37100005px;font-family:'Proxima Nova';dominant-baseline:alphabetic;text-anchor:middle;fill:#331a00"
         aria-label="S">
        <path
           id="path651"
           style="font-weight:bold;font-size:2.37100005px;font-family:'Proxima Nova';dominant-baseline:alphabetic;text-anchor:middle;fill:#331a00"
           d="m -0.66341693,-0.222874 c 0.149373,0.149373 0.36750501,0.251326 0.67099302,0.251326 0.42678001,0 0.63305701,-0.218132 0.63305701,-0.50739401 0,-0.35090801 -0.33194001,-0.42915101 -0.59275001,-0.48842601 -0.18256701,-0.042678 -0.31534301,-0.075872 -0.31534301,-0.18256698 0,-0.09484 0.080614,-0.161228 0.23235801,-0.161228 0.154115,0 0.324827,0.054533 0.45286101,0.173083 l 0.187309,-0.246584 c -0.156486,-0.144631 -0.36513401,-0.220503 -0.61646001,-0.220503 -0.37224701,0 -0.59986302,0.21339 -0.59986302,0.476571 0,0.35327898 0.33194001,0.42440898 0.59037902,0.48368399 0.182567,0.042678 0.320085,0.082985 0.320085,0.201535 0,0.090098 -0.090098,0.177825 -0.275036,0.177825 -0.21813201,0 -0.39121501,-0.097211 -0.50265201,-0.21339 z" />
      </g>
    </g>
    <g
       id="g124"
       transform="translate(50.8,69.73)">
      <g
         id="text122"
         style="font-weight:bold;font-size:2.37100005px;font-family:'Proxima Nova';dominant-baseline:alphabetic;text-anchor:middle;fill:#331a00" />
    </g>
    <g
       id="g128"
       transform="translate(50.8,41.79)">
      <g
         id="text126"
         style="font-weight:bold;font-size:2.37100005px;font-family:'Proxima Nova';dominant-baseline:alphabetic;text-anchor:middle;fill:#331a00" />
    </g>
    <g
       id="g132"
       transform="translate(50.8,84.97)">
      <g
         id="text130"
         style="font-weight:bold;font-size:2.37100005px;font-family:'Proxima Nova';dominant-baseline:alphabetic;text-anchor:middle;fill:#331a00" />
    </g>
    <g
       id="g136"
       transform="translate(50.8,21.408)">
      <path
         id="circle134"
         d="M 1.0880001,0 A 1.0880001,1.0880001 0 0 1 0,1.0880001 1.0880001,1.0880001 0 0 1 -1.0880001,0 1.0880001,1.0880001 0 0 1 0,-1.0880001 1.0880001,1.0880001 0 0 1 1.0880001,0 Z"
         style="fill:#331a00;stroke:#331a00;stroke-width:0" />
    </g>
    <path
       id="line138"
       d="m 56.514999,20.32 v 96.52"
       style="stroke:#331a00;stroke-width:0.34999999" />
    <g
       id="g142"
       transform="translate(62.23,17.78)">
      <g
         id="text140"
         style="font-weight:bold;font-size:3.0480001px;font-family:'Proxima Nova';dominant-baseline:alphabetic;text-anchor:middle;fill:#331a00"
         aria-label="2">
        <path
           id="path659"
           style="font-weight:bold;font-size:3.0480001px;font-family:'Proxima Nova';dominant-baseline:alphabetic;text-anchor:middle;fill:#331a00"
           d="M -0.77054871,0 H 0.75954734 V -0.38100001 H -0.08779669 C 0.45779533,-0.76504802 0.74430734,-1.0668 0.74430734,-1.414272 c 0,-0.4053841 -0.34442401,-0.6492241 -0.77724003,-0.6492241 -0.28346401,0 -0.58521602,0.103632 -0.78333602,0.332232 l 0.246888,0.2865121 c 0.13716001,-0.1432561 0.31394401,-0.2346961 0.54254402,-0.2346961 0.17068801,0 0.33223201,0.088392 0.33223201,0.2651761 0,0.249936 -0.24384001,0.46024797 -1.07594403,1.07289599 z" />
      </g>
    </g>
    <g
       id="g146"
       transform="translate(62.23,100.44)">
      <g
         id="text144"
         style="font-weight:bold;font-size:2.37100005px;font-family:'Proxima Nova';dominant-baseline:alphabetic;text-anchor:middle;fill:#331a00" />
    </g>
    <g
       id="g150"
       transform="translate(62.23,107.44)">
      <g
         id="text148"
         style="font-weight:bold;font-size:3.0480001px;font-family:'Proxima Nova';dominant-baseline:alphabetic;text-anchor:middle;fill:#331a00" />
    </g>
    <g
       id="g154"
       transform="translate(62.23,67.5)">
      <g
         id="text152"
         style="font-weight:bold;font-size:2.37100005px;font-family:'Proxima Nova';dominant-baseline:hanging;text-anchor:middle;fill:#331a00"
         aria-label="J">
        <path
           id="path664"
           style="font-weight:bold;font-size:2.37100005px;font-family:'Proxima Nova';dominant-baseline:hanging;text-anchor:middle;fill:#331a00"
           d="m -0.562316,1.372809 c 0.113808,0.111437 0.263181,0.154115 0.424409,0.154115 0.32482701,0 0.55718502,-0.173083 0.55718502,-0.54770104 V -0.08298506 H 0.08259601 v 1.05746602 c 0,0.15411504 -0.097211,0.25369704 -0.24658401,0.25369704 -0.109066,0 -0.18968,-0.054533 -0.251326,-0.113808 z" />
      </g>
    </g>
    <g
       id="g158"
       transform="translate(62.23,59.5)">
      <g
         id="text156"
         style="font-weight:bold;font-size:2.37100005px;font-family:'Proxima Nova';dominant-baseline:alphabetic;text-anchor:middle;fill:#331a00"
         aria-label="S">
        <path
           id="path667"
           style="font-weight:bold;font-size:2.37100005px;font-family:'Proxima Nova';dominant-baseline:alphabetic;text-anchor:middle;fill:#331a00"
           d="m -0.66341693,-0.222874 c 0.149373,0.149373 0.36750501,0.251326 0.67099302,0.251326 0.42678001,0 0.63305701,-0.218132 0.63305701,-0.50739401 0,-0.35090801 -0.33194001,-0.42915101 -0.59275001,-0.48842601 -0.18256701,-0.042678 -0.31534301,-0.075872 -0.31534301,-0.18256698 0,-0.09484 0.080614,-0.161228 0.23235801,-0.161228 0.154115,0 0.324827,0.054533 0.45286101,0.173083 l 0.187309,-0.246584 c -0.156486,-0.144631 -0.36513401,-0.220503 -0.61646001,-0.220503 -0.37224701,0 -0.59986302,0.21339 -0.59986302,0.476571 0,0.35327898 0.33194001,0.42440898 0.59037902,0.48368399 0.182567,0.042678 0.320085,0.082985 0.320085,0.201535 0,0.090098 -0.090098,0.177825 -0.275036,0.177825 -0.21813201,0 -0.39121501,-0.097211 -0.50265201,-0.21339 z" />
      </g>
    </g>
    <g
       id="g162"
       transform="translate(62.23,69.73)">
      <g
         id="text160"
         style="font-weight:bold;font-size:2.37100005px;font-family:'Proxima Nova';dominant-baseline:alphabetic;text-anchor:middle;fill:#331a00" />
    </g>
    <g
       id="g166"
       transform="translate(62.23,41.79)">
      <g
         id="text164"
         style="font-weight:bold;font-size:2.37100005px;font-family:'Proxima Nova';dominant-baseline:alphabetic;text-anchor:middle;fill:#331a00" />
    </g>
    <g
       id="g170"
       transform="translate(62.23,84.97)">
      <g
         id="text168"
         style="font-weight:bold;font-size:2.37100005px;font-family:'Proxima Nova';dominant-baseline:alphabetic;text-anchor:middle;fill:#331a00" />
    </g>
    <g
       id="g174"
       transform="translate(62.23,21.408)">
      <path
         id="circle172"
         d="M 1.0880001,0 A 1.0880001,1.0880001 0 0 1 0,1.0880001 1.0880001,1.0880001 0 0 1 -1.0880001,0 1.0880001,1.0880001 0 0 1 0,-1.0880001 1.0880001,1.0880001 0 0 1 1.0880001,0 Z"
         style="fill:#331a00;stroke:#331a00;stroke-width:0" />
    </g>
    <path
       id="line176"
       d="m 67.945,20.32 v 96.52"
       style="stroke:#331a00;stroke-width:0.34999999" />
    <g
       id="g180"
       transform="translate(73.66,17.78)">
      <g
         id="text178"
         style="font-weight:bold;font-size:3.0480001px;font-family:'Proxima Nova';dominant-baseline:alphabetic;text-anchor:middle;fill:#331a00"
         aria-label="3">
        <path
           id="path675"
           style="font-weight:bold;font-size:3.0480001px;font-family:'Proxima Nova';dominant-baseline:alphabetic;text-anchor:middle;fill:#331a00"
           d="M -0.83498534,-0.28956001 C -0.68563333,-0.10668 -0.40826533,0.036576 -0.03336131,0.036576 c 0.48768001,0 0.80162402,-0.24688801 0.80162402,-0.59740802 0,-0.30480001 -0.26822401,-0.46634398 -0.47548801,-0.48767998 0.225552,-0.039624 0.44500801,-0.207264 0.44500801,-0.463296 0,-0.3383281 -0.29260801,-0.5516881 -0.76809602,-0.5516881 -0.35661601,0 -0.61264802,0.13716 -0.77724003,0.323088 l 0.21336001,0.2682241 c 0.143256,-0.1371601 0.32004001,-0.2133601 0.51816002,-0.2133601 0.21336,0 0.37795201,0.082296 0.37795201,0.2438401 0,0.1524 -0.14935201,0.225552 -0.37490401,0.225552 -0.07924801,0 -0.21640801,0 -0.25298401,-0.00305 v 0.37795197 c 0.03048,-0.003048 0.16764,-0.003048 0.25298401,-0.003048 0.283464,0 0.40843201,0.0762 0.40843201,0.24079201 0,0.15544801 -0.13716001,0.26212801 -0.38404801,0.26212801 -0.19812001,0 -0.42062402,-0.085344 -0.56083202,-0.23164801 z" />
      </g>
    </g>
    <g
       id="g184"
       transform="translate(73.66,100.44)">
      <g
         id="text182"
         style="font-weight:bold;font-size:2.37100005px;font-family:'Proxima Nova';dominant-baseline:alphabetic;text-anchor:middle;fill:#331a00" />
    </g>
    <g
       id="g188"
       transform="translate(73.66,107.44)">
      <g
         id="text186"
         style="font-weight:bold;font-size:3.0480001px;font-family:'Proxima Nova';dominant-baseline:alphabetic;text-anchor:middle;fill:#331a00" />
    </g>
    <g
       id="g192"
       transform="translate(73.66,67.5)">
      <g
         id="text190"
         style="font-weight:bold;font-size:2.37100005px;font-family:'Proxima Nova';dominant-baseline:hanging;text-anchor:middle;fill:#331a00"
         aria-label="J">
        <path
           id="path680"
           style="font-weight:bold;font-size:2.37100005px;font-family:'Proxima Nova';dominant-baseline:hanging;text-anchor:middle;fill:#331a00"
           d="m -0.562316,1.372809 c 0.113808,0.111437 0.263181,0.154115 0.424409,0.154115 0.32482701,0 0.55718502,-0.173083 0.55718502,-0.54770104 V -0.08298506 H 0.08259601 v 1.05746602 c 0,0.15411504 -0.097211,0.25369704 -0.24658401,0.25369704 -0.109066,0 -0.18968,-0.054533 -0.251326,-0.113808 z" />
      </g>
    </g>
    <g
       id="g196"
       transform="translate(73.66,59.5)">
      <g
         id="text194"
         style="font-weight:bold;font-size:2.37100005px;font-family:'Proxima Nova';dominant-baseline:alphabetic;text-anchor:middle;fill:#331a00"
         aria-label="S">
        <path
           id="path683"
           style="font-weight:bold;font-size:2.37100005px;font-family:'Proxima Nova';dominant-baseline:alphabetic;text-anchor:middle;fill:#331a00"
           d="m -0.66341693,-0.222874 c 0.149373,0.149373 0.36750501,0.251326 0.67099302,0.251326 0.42678001,0 0.63305701,-0.218132 0.63305701,-0.50739401 0,-0.35090801 -0.33194001,-0.42915101 -0.59275001,-0.48842601 -0.18256701,-0.042678 -0.31534301,-0.075872 -0.31534301,-0.18256698 0,-0.09484 0.080614,-0.161228 0.23235801,-0.161228 0.154115,0 0.324827,0.054533 0.45286101,0.173083 l 0.187309,-0.246584 c -0.156486,-0.144631 -0.36513401,-0.220503 -0.61646001,-0.220503 -0.37224701,0 -0.59986302,0.21339 -0.59986302,0.476571 0,0.35327898 0.33194001,0.42440898 0.59037902,0.48368399 0.182567,0.042678 0.320085,0.082985 0.320085,0.201535 0,0.090098 -0.090098,0.177825 -0.275036,0.177825 -0.21813201,0 -0.39121501,-0.097211 -0.50265201,-0.21339 z" />
      </g>
    </g>
    <g
       id="g200"
       transform="translate(73.66,69.73)">
      <g
         id="text198"
         style="font-weight:bold;font-size:2.37100005px;font-family:'Proxima Nova';dominant-baseline:alphabetic;text-anchor:middle;fill:#331a00" />
    </g>
    <g
       id="g204"
       transform="translate(73.66,41.79)">
      <g
         id="text202"
         style="font-weight:bold;font-size:2.37100005px;font-family:'Proxima Nova';dominant-baseline:alphabetic;text-anchor:middle;fill:#331a00" />
    </g>
    <g
       id="g208"
       transform="translate(73.66,84.97)">
      <g
         id="text206"
         style="font-weight:bold;font-size:2.37100005px;font-family:'Proxima Nova';dominant-baseline:alphabetic;text-anchor:middle;fill:#331a00" />
    </g>
    <g
       id="g212"
       transform="translate(73.66,21.408)">
      <path
         id="circle210"
         d="M 1.0880001,0 A 1.0880001,1.0880001 0 0 1 0,1.0880001 1.0880001,1.0880001 0 0 1 -1.0880001,0 1.0880001,1.0880001 0 0 1 0,-1.0880001 1.0880001,1.0880001 0 0 1 1.0880001,0 Z"
         style="fill:#331a00;stroke:#331a00;stroke-width:0" />
    </g>
    <path
       id="line214"
       d="m 79.375,20.32 v 96.52"
       style="stroke:#331a00;stroke-width:0.34999999" />
    <g
       id="g218"
       transform="translate(85.09,17.78)">
      <g
         id="text216"
         style="font-weight:bold;font-size:3.0480001px;font-family:'Proxima Nova';dominant-baseline:alphabetic;text-anchor:middle;fill:#331a00"
         aria-label="4">
        <path
           id="path691"
           style="font-weight:bold;font-size:3.0480001px;font-family:'Proxima Nova';dominant-baseline:alphabetic;text-anchor:middle;fill:#331a00"
           d="M 0.13768388,0 H 0.57049989 V -0.42062401 H 0.8326279 V -0.80162403 H 0.57049989 V -2.0330161 h -0.59740802 l -0.80772002,1.27101608 v 0.34137601 h 0.97231203 z m 0,-1.6489681 v 0.84734407 h -0.54864002 z" />
      </g>
    </g>
    <g
       id="g222"
       transform="translate(85.09,100.44)">
      <g
         id="text220"
         style="font-weight:bold;font-size:2.37100005px;font-family:'Proxima Nova';dominant-baseline:alphabetic;text-anchor:middle;fill:#331a00" />
    </g>
    <g
       id="g226"
       transform="translate(85.09,107.44)">
      <g
         id="text224"
         style="font-weight:bold;font-size:3.0480001px;font-family:'Proxima Nova';dominant-baseline:alphabetic;text-anchor:middle;fill:#331a00" />
    </g>
    <g
       id="g230"
       transform="translate(85.09,67.5)">
      <g
         id="text228"
         style="font-weight:bold;font-size:2.37100005px;font-family:'Proxima Nova';dominant-baseline:hanging;text-anchor:middle;fill:#331a00"
         aria-label="J">
        <path
           id="path696"
           style="font-weight:bold;font-size:2.37100005px;font-family:'Proxima Nova';dominant-baseline:hanging;text-anchor:middle;fill:#331a00"
           d="m -0.562316,1.372809 c 0.113808,0.111437 0.263181,0.154115 0.424409,0.154115 0.32482701,0 0.55718502,-0.173083 0.55718502,-0.54770104 V -0.08298506 H 0.08259601 v 1.05746602 c 0,0.15411504 -0.097211,0.25369704 -0.24658401,0.25369704 -0.109066,0 -0.18968,-0.054533 -0.251326,-0.113808 z" />
      </g>
    </g>
    <g
       id="g234"
       transform="translate(85.09,59.5)">
      <g
         id="text232"
         style="font-weight:bold;font-size:2.37100005px;font-family:'Proxima Nova';dominant-baseline:alphabetic;text-anchor:middle;fill:#331a00"
         aria-label="S">
        <path
           id="path699"
           style="font-weight:bold;font-size:2.37100005px;font-family:'Proxima Nova';dominant-baseline:alphabetic;text-anchor:middle;fill:#331a00"
           d="m -0.66341693,-0.222874 c 0.149373,0.149373 0.36750501,0.251326 0.67099302,0.251326 0.42678001,0 0.63305701,-0.218132 0.63305701,-0.50739401 0,-0.35090801 -0.33194001,-0.42915101 -0.59275001,-0.48842601 -0.18256701,-0.042678 -0.31534301,-0.075872 -0.31534301,-0.18256698 0,-0.09484 0.080614,-0.161228 0.23235801,-0.161228 0.154115,0 0.324827,0.054533 0.45286101,0.173083 l 0.187309,-0.246584 c -0.156486,-0.144631 -0.36513401,-0.220503 -0.61646001,-0.220503 -0.37224701,0 -0.59986302,0.21339 -0.59986302,0.476571 0,0.35327898 0.33194001,0.42440898 0.59037902,0.48368399 0.182567,0.042678 0.320085,0.082985 0.320085,0.201535 0,0.090098 -0.090098,0.177825 -0.275036,0.177825 -0.21813201,0 -0.39121501,-0.097211 -0.50265201,-0.21339 z" />
      </g>
    </g>
    <g
       id="g238"
       transform="translate(85.09,69.73)">
      <g
         id="text236"
         style="font-weight:bold;font-size:2.37100005px;font-family:'Proxima Nova';dominant-baseline:alphabetic;text-anchor:middle;fill:#331a00" />
    </g>
    <g
       id="g242"
       transform="translate(85.09,41.79)">
      <g
         id="text240"
         style="font-weight:bold;font-size:2.37100005px;font-family:'Proxima Nova';dominant-baseline:alphabetic;text-anchor:middle;fill:#331a00" />
    </g>
    <g
       id="g246"
       transform="translate(85.09,84.97)">
      <g
         id="text244"
         style="font-weight:bold;font-size:2.37100005px;font-family:'Proxima Nova';dominant-baseline:alphabetic;text-anchor:middle;fill:#331a00" />
    </g>
    <g
       id="g250"
       transform="translate(85.09,21.408)">
      <path
         id="circle248"
         d="M 1.0880001,0 A 1.0880001,1.0880001 0 0 1 0,1.0880001 1.0880001,1.0880001 0 0 1 -1.0880001,0 1.0880001,1.0880001 0 0 1 0,-1.0880001 1.0880001,1.0880001 0 0 1 1.0880001,0 Z"
         style="fill:#331a00;stroke:#331a00;stroke-width:0" />
    </g>
    <path
       id="line252"
       d="m 90.805,20.32 v 96.52"
       style="stroke:#331a00;stroke-width:0.34999999" />
    <g
       id="g256"
       transform="translate(96.52,17.78)">
      <g
         id="text254"
         style="font-weight:bold;font-size:3.0480001px;font-family:'Proxima Nova';dominant-baseline:alphabetic;text-anchor:middle;fill:#331a00"
         aria-label="5">
        <path
           id="path707"
           style="font-weight:bold;font-size:3.0480001px;font-family:'Proxima Nova';dominant-baseline:alphabetic;text-anchor:middle;fill:#331a00"
           d="m -0.77635896,-0.26822401 c 0.173736,0.18897601 0.42976801,0.30480001 0.78333602,0.30480001 0.49072802,0 0.81381603,-0.27127201 0.81381603,-0.70104002 0,-0.41147998 -0.30784801,-0.65531998 -0.65227202,-0.65531998 -0.18592801,0 -0.35052001,0.073152 -0.45720002,0.16764 v -0.5090161 h 0.97231203 v -0.371856 h -1.39598404 v 1.16128807 l 0.30175201,0.082296 c 0.12192,-0.115824 0.25908001,-0.16764 0.42672001,-0.16764 0.23164801,0 0.36576001,0.124968 0.36576001,0.31089601 0,0.16764 -0.13716,0.30480001 -0.37795201,0.30480001 -0.21336,0 -0.40233601,-0.0762 -0.54254401,-0.21945601 z" />
      </g>
    </g>
    <g
       id="g260"
       transform="translate(96.52,100.44)">
      <g
         id="text258"
         style="font-weight:bold;font-size:2.37100005px;font-family:'Proxima Nova';dominant-baseline:alphabetic;text-anchor:middle;fill:#331a00" />
    </g>
    <g
       id="g264"
       transform="translate(96.52,107.44)">
      <g
         id="text262"
         style="font-weight:bold;font-size:3.0480001px;font-family:'Proxima Nova';dominant-baseline:alphabetic;text-anchor:middle;fill:#331a00" />
    </g>
    <g
       id="g268"
       transform="translate(96.52,67.5)">
      <g
         id="text266"
         style="font-weight:bold;font-size:2.37100005px;font-family:'Proxima Nova';dominant-baseline:hanging;text-anchor:middle;fill:#331a00"
         aria-label="J">
        <path
           id="path712"
           style="font-weight:bold;font-size:2.37100005px;font-family:'Proxima Nova';dominant-baseline:hanging;text-anchor:middle;fill:#331a00"
           d="m -0.562316,1.372809 c 0.113808,0.111437 0.263181,0.154115 0.424409,0.154115 0.32482701,0 0.55718502,-0.173083 0.55718502,-0.54770104 V -0.08298506 H 0.08259601 v 1.05746602 c 0,0.15411504 -0.097211,0.25369704 -0.24658401,0.25369704 -0.109066,0 -0.18968,-0.054533 -0.251326,-0.113808 z" />
      </g>
    </g>
    <g
       id="g272"
       transform="translate(96.52,59.5)">
      <g
         id="text270"
         style="font-weight:bold;font-size:2.37100005px;font-family:'Proxima Nova';dominant-baseline:alphabetic;text-anchor:middle;fill:#331a00"
         aria-label="S">
        <path
           id="path715"
           style="font-weight:bold;font-size:2.37100005px;font-family:'Proxima Nova';dominant-baseline:alphabetic;text-anchor:middle;fill:#331a00"
           d="m -0.66341693,-0.222874 c 0.149373,0.149373 0.36750501,0.251326 0.67099302,0.251326 0.42678001,0 0.63305701,-0.218132 0.63305701,-0.50739401 0,-0.35090801 -0.33194001,-0.42915101 -0.59275001,-0.48842601 -0.18256701,-0.042678 -0.31534301,-0.075872 -0.31534301,-0.18256698 0,-0.09484 0.080614,-0.161228 0.23235801,-0.161228 0.154115,0 0.324827,0.054533 0.45286101,0.173083 l 0.187309,-0.246584 c -0.156486,-0.144631 -0.36513401,-0.220503 -0.61646001,-0.220503 -0.37224701,0 -0.59986302,0.21339 -0.59986302,0.476571 0,0.35327898 0.33194001,0.42440898 0.59037902,0.48368399 0.182567,0.042678 0.320085,0.082985 0.320085,0.201535 0,0.090098 -0.090098,0.177825 -0.275036,0.177825 -0.21813201,0 -0.39121501,-0.097211 -0.50265201,-0.21339 z" />
      </g>
    </g>
    <g
       id="g276"
       transform="translate(96.52,69.73)">
      <g
         id="text274"
         style="font-weight:bold;font-size:2.37100005px;font-family:'Proxima Nova';dominant-baseline:alphabetic;text-anchor:middle;fill:#331a00" />
    </g>
    <g
       id="g280"
       transform="translate(96.52,41.79)">
      <g
         id="text278"
         style="font-weight:bold;font-size:2.37100005px;font-family:'Proxima Nova';dominant-baseline:alphabetic;text-anchor:middle;fill:#331a00" />
    </g>
    <g
       id="g284"
       transform="translate(96.52,84.97)">
      <g
         id="text282"
         style="font-weight:bold;font-size:2.37100005px;font-family:'Proxima Nova';dominant-baseline:alphabetic;text-anchor:middle;fill:#331a00" />
    </g>
    <g
       id="g288"
       transform="translate(96.52,21.408)">
      <path
         id="circle286"
         d="M 1.0880001,0 A 1.0880001,1.0880001 0 0 1 0,1.0880001 1.0880001,1.0880001 0 0 1 -1.0880001,0 1.0880001,1.0880001 0 0 1 0,-1.0880001 1.0880001,1.0880001 0 0 1 1.0880001,0 Z"
         style="fill:#331a00;stroke:#331a00;stroke-width:0" />
    </g>
    <path
       id="line290"
       d="m 102.235,20.32 v 96.52"
       style="stroke:#331a00;stroke-width:0.34999999" />
    <g
       id="g294"
       transform="translate(107.95,17.78)">
      <g
         id="text292"
         style="font-weight:bold;font-size:3.0480001px;font-family:'Proxima Nova';dominant-baseline:alphabetic;text-anchor:middle;fill:#331a00"
         aria-label="6">
        <path
           id="path723"
           style="font-weight:bold;font-size:3.0480001px;font-family:'Proxima Nova';dominant-baseline:alphabetic;text-anchor:middle;fill:#331a00"
           d="m -0.82207896,-1.011936 c 0,0.57302399 0.25908,1.048512 0.87782402,1.048512 0.46329602,0 0.77724003,-0.30175201 0.77724003,-0.69799202 0,-0.43281598 -0.32613601,-0.65531998 -0.69189602,-0.65531998 -0.22250401,0 -0.42672002,0.12192 -0.52120802,0.25908 -0.003048,-0.012192 -0.003048,-0.027432 -0.003048,-0.042672 0,-0.323088 0.20116801,-0.5882641 0.50901602,-0.5882641 0.179832,0 0.29565601,0.057912 0.40538401,0.1615441 l 0.19507201,-0.3261361 c -0.14630401,-0.124968 -0.35356802,-0.210312 -0.60045602,-0.210312 -0.60045602,0 -0.94792803,0.435864 -0.94792803,1.0515601 z m 1.21615204,0.36880798 c 0,0.143256 -0.12496801,0.30175201 -0.35966402,0.30175201 -0.28651201,0 -0.39624001,-0.22555201 -0.41452801,-0.42062401 0.097536,-0.11887201 0.24384001,-0.19507201 0.39624001,-0.19507201 0.19812001,0 0.37795202,0.094488 0.37795202,0.31394401 z" />
      </g>
    </g>
    <g
       id="g298"
       transform="translate(107.95,100.44)">
      <g
         id="text296"
         style="font-weight:bold;font-size:2.37100005px;font-family:'Proxima Nova';dominant-baseline:alphabetic;text-anchor:middle;fill:#331a00" />
    </g>
    <g
       id="g302"
       transform="translate(107.95,107.44)">
      <g
         id="text300"
         style="font-weight:bold;font-size:3.0480001px;font-family:'Proxima Nova';dominant-baseline:alphabetic;text-anchor:middle;fill:#331a00" />
    </g>
    <g
       id="g306"
       transform="translate(107.95,67.5)">
      <g
         id="text304"
         style="font-weight:bold;font-size:2.37100005px;font-family:'Proxima Nova';dominant-baseline:hanging;text-anchor:middle;fill:#331a00"
         aria-label="J">
        <path
           id="path728"
           style="font-weight:bold;font-size:2.37100005px;font-family:'Proxima Nova';dominant-baseline:hanging;text-anchor:middle;fill:#331a00"
           d="m -0.562316,1.372809 c 0.113808,0.111437 0.263181,0.154115 0.424409,0.154115 0.32482701,0 0.55718502,-0.173083 0.55718502,-0.54770104 V -0.08298506 H 0.08259601 v 1.05746602 c 0,0.15411504 -0.097211,0.25369704 -0.24658401,0.25369704 -0.109066,0 -0.18968,-0.054533 -0.251326,-0.113808 z" />
      </g>
    </g>
    <g
       id="g310"
       transform="translate(107.95,59.5)">
      <g
         id="text308"
         style="font-weight:bold;font-size:2.37100005px;font-family:'Proxima Nova';dominant-baseline:alphabetic;text-anchor:middle;fill:#331a00"
         aria-label="S">
        <path
           id="path731"
           style="font-weight:bold;font-size:2.37100005px;font-family:'Proxima Nova';dominant-baseline:alphabetic;text-anchor:middle;fill:#331a00"
           d="m -0.66341693,-0.222874 c 0.149373,0.149373 0.36750501,0.251326 0.67099302,0.251326 0.42678001,0 0.63305701,-0.218132 0.63305701,-0.50739401 0,-0.35090801 -0.33194001,-0.42915101 -0.59275001,-0.48842601 -0.18256701,-0.042678 -0.31534301,-0.075872 -0.31534301,-0.18256698 0,-0.09484 0.080614,-0.161228 0.23235801,-0.161228 0.154115,0 0.324827,0.054533 0.45286101,0.173083 l 0.187309,-0.246584 c -0.156486,-0.144631 -0.36513401,-0.220503 -0.61646001,-0.220503 -0.37224701,0 -0.59986302,0.21339 -0.59986302,0.476571 0,0.35327898 0.33194001,0.42440898 0.59037902,0.48368399 0.182567,0.042678 0.320085,0.082985 0.320085,0.201535 0,0.090098 -0.090098,0.177825 -0.275036,0.177825 -0.21813201,0 -0.39121501,-0.097211 -0.50265201,-0.21339 z" />
      </g>
    </g>
    <g
       id="g314"
       transform="translate(107.95,69.73)">
      <g
         id="text312"
         style="font-weight:bold;font-size:2.37100005px;font-family:'Proxima Nova';dominant-baseline:alphabetic;text-anchor:middle;fill:#331a00" />
    </g>
    <g
       id="g318"
       transform="translate(107.95,41.79)">
      <g
         id="text316"
         style="font-weight:bold;font-size:2.37100005px;font-family:'Proxima Nova';dominant-baseline:alphabetic;text-anchor:middle;fill:#331a00" />
    </g>
    <g
       id="g322"
       transform="translate(107.95,84.97)">
      <g
         id="text320"
         style="font-weight:bold;font-size:2.37100005px;font-family:'Proxima Nova';dominant-baseline:alphabetic;text-anchor:middle;fill:#331a00" />
    </g>
    <g
       id="g326"
       transform="translate(107.95,21.408)">
      <path
         id="circle324"
         d="M 1.0880001,0 A 1.0880001,1.0880001 0 0 1 0,1.0880001 1.0880001,1.0880001 0 0 1 -1.0880001,0 1.0880001,1.0880001 0 0 1 0,-1.0880001 1.0880001,1.0880001 0 0 1 1.0880001,0 Z"
         style="fill:#331a00;stroke:#331a00;stroke-width:0" />
    </g>
    <path
       id="line328"
       d="m 113.665,20.32 v 96.52"
       style="stroke:#331a00;stroke-width:0.34999999" />
    <g
       id="g332"
       transform="translate(119.38,17.78)">
      <g
         id="text330"
         style="font-weight:bold;font-size:3.0480001px;font-family:'Proxima Nova';dominant-baseline:alphabetic;text-anchor:middle;fill:#331a00"
         aria-label="7">
        <path
           id="path739"
           style="font-weight:bold;font-size:3.0480001px;font-family:'Proxima Nova';dominant-baseline:alphabetic;text-anchor:middle;fill:#331a00"
           d="m -0.46165295,0 h 0.47548801 l 0.75590403,-1.7312641 v -0.301752 h -1.52704805 v 0.381 h 1.02412803 z" />
      </g>
    </g>
    <g
       id="g336"
       transform="translate(119.38,100.44)">
      <g
         id="text334"
         style="font-weight:bold;font-size:2.37100005px;font-family:'Proxima Nova';dominant-baseline:alphabetic;text-anchor:middle;fill:#331a00" />
    </g>
    <g
       id="g340"
       transform="translate(119.38,107.44)">
      <g
         id="text338"
         style="font-weight:bold;font-size:3.0480001px;font-family:'Proxima Nova';dominant-baseline:alphabetic;text-anchor:middle;fill:#331a00" />
    </g>
    <g
       id="g344"
       transform="translate(119.38,67.5)">
      <g
         id="text342"
         style="font-weight:bold;font-size:2.37100005px;font-family:'Proxima Nova';dominant-baseline:hanging;text-anchor:middle;fill:#331a00"
         aria-label="J">
        <path
           id="path744"
           style="font-weight:bold;font-size:2.37100005px;font-family:'Proxima Nova';dominant-baseline:hanging;text-anchor:middle;fill:#331a00"
           d="m -0.562316,1.372809 c 0.113808,0.111437 0.263181,0.154115 0.424409,0.154115 0.32482701,0 0.55718502,-0.173083 0.55718502,-0.54770104 V -0.08298506 H 0.08259601 v 1.05746602 c 0,0.15411504 -0.097211,0.25369704 -0.24658401,0.25369704 -0.109066,0 -0.18968,-0.054533 -0.251326,-0.113808 z" />
      </g>
    </g>
    <g
       id="g348"
       transform="translate(119.38,59.5)">
      <g
         id="text346"
         style="font-weight:bold;font-size:2.37100005px;font-family:'Proxima Nova';dominant-baseline:alphabetic;text-anchor:middle;fill:#331a00"
         aria-label="S">
        <path
           id="path747"
           style="font-weight:bold;font-size:2.37100005px;font-family:'Proxima Nova';dominant-baseline:alphabetic;text-anchor:middle;fill:#331a00"
           d="m -0.66341693,-0.222874 c 0.149373,0.149373 0.36750501,0.251326 0.67099302,0.251326 0.42678001,0 0.63305701,-0.218132 0.63305701,-0.50739401 0,-0.35090801 -0.33194001,-0.42915101 -0.59275001,-0.48842601 -0.18256701,-0.042678 -0.31534301,-0.075872 -0.31534301,-0.18256698 0,-0.09484 0.080614,-0.161228 0.23235801,-0.161228 0.154115,0 0.324827,0.054533 0.45286101,0.173083 l 0.187309,-0.246584 c -0.156486,-0.144631 -0.36513401,-0.220503 -0.61646001,-0.220503 -0.37224701,0 -0.59986302,0.21339 -0.59986302,0.476571 0,0.35327898 0.33194001,0.42440898 0.59037902,0.48368399 0.182567,0.042678 0.320085,0.082985 0.320085,0.201535 0,0.090098 -0.090098,0.177825 -0.275036,0.177825 -0.21813201,0 -0.39121501,-0.097211 -0.50265201,-0.21339 z" />
      </g>
    </g>
    <g
       id="g352"
       transform="translate(119.38,69.73)">
      <g
         id="text350"
         style="font-weight:bold;font-size:2.37100005px;font-family:'Proxima Nova';dominant-baseline:alphabetic;text-anchor:middle;fill:#331a00" />
    </g>
    <g
       id="g356"
       transform="translate(119.38,41.79)">
      <g
         id="text354"
         style="font-weight:bold;font-size:2.37100005px;font-family:'Proxima Nova';dominant-baseline:alphabetic;text-anchor:middle;fill:#331a00" />
    </g>
    <g
       id="g360"
       transform="translate(119.38,84.97)">
      <g
         id="text358"
         style="font-weight:bold;font-size:2.37100005px;font-family:'Proxima Nova';dominant-baseline:alphabetic;text-anchor:middle;fill:#331a00" />
    </g>
    <g
       id="g364"
       transform="translate(119.38,21.408)">
      <path
         id="circle362"
         d="M 1.0880001,0 A 1.0880001,1.0880001 0 0 1 0,1.0880001 1.0880001,1.0880001 0 0 1 -1.0880001,0 1.0880001,1.0880001 0 0 1 0,-1.0880001 1.0880001,1.0880001 0 0 1 1.0880001,0 Z"
         style="fill:#331a00;stroke:#331a00;stroke-width:0" />
    </g>
    <path
       id="line366"
       d="m 125.095,20.32 v 96.52"
       style="stroke:#331a00;stroke-width:0.34999999" />
    <g
       id="g370"
       transform="translate(130.81,17.78)">
      <g
         id="text368"
         style="font-weight:bold;font-size:3.0480001px;font-family:'Proxima Nova';dominant-baseline:alphabetic;text-anchor:middle;fill:#331a00"
         aria-label="8">
        <path
           id="path755"
           style="font-weight:bold;font-size:3.0480001px;font-family:'Proxima Nova';dominant-baseline:alphabetic;text-anchor:middle;fill:#331a00"
           d="m -0.8160544,-0.52730402 c 0,0.38100002 0.39014401,0.56388002 0.81686402503,0.56388002 0.42672001497,0 0.81686402497,-0.185928 0.81686402497,-0.56388002 0,-0.246888 -0.19507201,-0.43586401 -0.43891201,-0.52120798 0.225552,-0.0762 0.40538401,-0.225552 0.40538401,-0.478536 0,-0.3810001 -0.40843201,-0.5364481 -0.78333602497,-0.5364481 -0.37795201503,0 -0.78333602503,0.155448 -0.78333602503,0.5364481 0,0.252984 0.17678401,0.402336 0.40233601,0.478536 -0.24384,0.085344 -0.43586401,0.27431998 -0.43586401,0.52120798 z M 0.34218564,-1.459992 c 0,0.158496 -0.21640801,0.2286 -0.34137601497,0.246888 C -0.12415838,-1.231392 -0.34361439,-1.301496 -0.34361439,-1.459992 c 0,-0.1432561 0.14325601,-0.2316481 0.34442401503,-0.2316481 0.19812000497,0 0.34137601497,0.088392 0.34137601497,0.2316481 z m 0.036576,0.88087198 c 0,0.14935201 -0.17068801,0.24384001 -0.37795201497,0.24384001 -0.21336000503,0 -0.37795201503,-0.094488 -0.37795201503,-0.24384001 0,-0.176784 0.24993601,-0.26212801 0.37795201503,-0.27736801 C 0.12577763,-0.84124803 0.37876164,-0.75590402 0.37876164,-0.57912002 Z" />
      </g>
    </g>
    <g
       id="g374"
       transform="translate(130.81,100.44)">
      <g
         id="text372"
         style="font-weight:bold;font-size:2.37100005px;font-family:'Proxima Nova';dominant-baseline:alphabetic;text-anchor:middle;fill:#331a00" />
    </g>
    <g
       id="g378"
       transform="translate(130.81,107.44)">
      <g
         id="text376"
         style="font-weight:bold;font-size:3.0480001px;font-family:'Proxima Nova';dominant-baseline:alphabetic;text-anchor:middle;fill:#331a00" />
    </g>
    <g
       id="g382"
       transform="translate(130.81,67.5)">
      <g
         id="text380"
         style="font-weight:bold;font-size:2.37100005px;font-family:'Proxima Nova';dominant-baseline:hanging;text-anchor:middle;fill:#331a00"
         aria-label="J">
        <path
           id="path760"
           style="font-weight:bold;font-size:2.37100005px;font-family:'Proxima Nova';dominant-baseline:hanging;text-anchor:middle;fill:#331a00"
           d="m -0.562316,1.372809 c 0.113808,0.111437 0.263181,0.154115 0.424409,0.154115 0.32482701,0 0.55718502,-0.173083 0.55718502,-0.54770104 V -0.08298506 H 0.08259601 v 1.05746602 c 0,0.15411504 -0.097211,0.25369704 -0.24658401,0.25369704 -0.109066,0 -0.18968,-0.054533 -0.251326,-0.113808 z" />
      </g>
    </g>
    <g
       id="g386"
       transform="translate(130.81,59.5)">
      <g
         id="text384"
         style="font-weight:bold;font-size:2.37100005px;font-family:'Proxima Nova';dominant-baseline:alphabetic;text-anchor:middle;fill:#331a00"
         aria-label="S">
        <path
           id="path763"
           style="font-weight:bold;font-size:2.37100005px;font-family:'Proxima Nova';dominant-baseline:alphabetic;text-anchor:middle;fill:#331a00"
           d="m -0.66341693,-0.222874 c 0.149373,0.149373 0.36750501,0.251326 0.67099302,0.251326 0.42678001,0 0.63305701,-0.218132 0.63305701,-0.50739401 0,-0.35090801 -0.33194001,-0.42915101 -0.59275001,-0.48842601 -0.18256701,-0.042678 -0.31534301,-0.075872 -0.31534301,-0.18256698 0,-0.09484 0.080614,-0.161228 0.23235801,-0.161228 0.154115,0 0.324827,0.054533 0.45286101,0.173083 l 0.187309,-0.246584 c -0.156486,-0.144631 -0.36513401,-0.220503 -0.61646001,-0.220503 -0.37224701,0 -0.59986302,0.21339 -0.59986302,0.476571 0,0.35327898 0.33194001,0.42440898 0.59037902,0.48368399 0.182567,0.042678 0.320085,0.082985 0.320085,0.201535 0,0.090098 -0.090098,0.177825 -0.275036,0.177825 -0.21813201,0 -0.39121501,-0.097211 -0.50265201,-0.21339 z" />
      </g>
    </g>
    <g
       id="g390"
       transform="translate(130.81,69.73)">
      <g
         id="text388"
         style="font-weight:bold;font-size:2.37100005px;font-family:'Proxima Nova';dominant-baseline:alphabetic;text-anchor:middle;fill:#331a00" />
    </g>
    <g
       id="g394"
       transform="translate(130.81,41.79)">
      <g
         id="text392"
         style="font-weight:bold;font-size:2.37100005px;font-family:'Proxima Nova';dominant-baseline:alphabetic;text-anchor:middle;fill:#331a00" />
    </g>
    <g
       id="g398"
       transform="translate(130.81,84.97)">
      <g
         id="text396"
         style="font-weight:bold;font-size:2.37100005px;font-family:'Proxima Nova';dominant-baseline:alphabetic;text-anchor:middle;fill:#331a00" />
    </g>
    <g
       id="g402"
       transform="translate(130.81,21.408)">
      <path
         id="circle400"
         d="M 1.0880001,0 A 1.0880001,1.0880001 0 0 1 0,1.0880001 1.0880001,1.0880001 0 0 1 -1.0880001,0 1.0880001,1.0880001 0 0 1 0,-1.0880001 1.0880001,1.0880001 0 0 1 1.0880001,0 Z"
         style="fill:#331a00;stroke:#331a00;stroke-width:0" />
    </g>
    <path
       id="line404"
       d="m 136.52499,20.32 v 96.52"
       style="stroke:#331a00;stroke-width:0.34999999" />
    <g
       id="g408"
       transform="translate(147.32,50.99)">
      <g
         id="text406"
         style="font-weight:bold;font-size:2.37100005px;font-family:'Proxima Nova';dominant-baseline:hanging;text-anchor:middle;fill:#331a00"
         aria-label="BI">
        <path
           id="path771"
           style="font-weight:bold;font-size:2.37100005px;font-family:'Proxima Nova';dominant-baseline:hanging;text-anchor:middle;fill:#331a00"
           d="m -0.95260484,1.498472 h 0.85830202 c 0.301117,0 0.45997401,-0.18968 0.45997401,-0.42678 0,-0.19916404 -0.13514701,-0.36276304 -0.30348801,-0.38884404 0.149373,-0.030823 0.27266501,-0.16359901 0.27266501,-0.36276301 0,-0.211019 -0.15411501,-0.40307001 -0.45523201,-0.40307001 h -0.83222102 z m 0.33668201,-0.94602905 v -0.348537 h 0.42203801 c 0.113808,0 0.184938,0.075872 0.184938,0.173083 0,0.101953 -0.07113,0.175454 -0.184938,0.175454 z m 0,0.65913805 V 0.83933396 h 0.43389301 c 0.132776,0 0.203906,0.085356 0.203906,0.18493804 0,0.113808 -0.075872,0.187309 -0.203906,0.187309 z" />
        <path
           id="path773"
           style="font-weight:bold;font-size:2.37100005px;font-family:'Proxima Nova';dominant-baseline:hanging;text-anchor:middle;fill:#331a00"
           d="M 0.61725657,1.498472 H 0.95393858 V -0.08298506 H 0.61725657 Z" />
      </g>
    </g>
    <g
       id="g412"
       transform="translate(147.32,42.99)">
      <g
         id="text410"
         style="font-weight:bold;font-size:2.37100005px;font-family:'Proxima Nova';dominant-baseline:alphabetic;text-anchor:middle;fill:#331a00"
         aria-label="UNI">
        <path
           id="path776"
           style="font-weight:bold;font-size:2.37100005px;font-family:'Proxima Nova';dominant-baseline:alphabetic;text-anchor:middle;fill:#331a00"
           d="m -1.8949847,-0.63068601 c 0,0.388844 0.225245,0.65913801 0.708929,0.65913801 0.47894198,0 0.70418699,-0.26792301 0.70418699,-0.66150901 V -1.581457 h -0.34142401 v 0.93891599 c 0,0.220503 -0.120921,0.372247 -0.36276298,0.372247 -0.246584,0 -0.367505,-0.151744 -0.367505,-0.372247 V -1.581457 h -0.341424 z" />
        <path
           id="path778"
           style="font-weight:bold;font-size:2.37100005px;font-family:'Proxima Nova';dominant-baseline:alphabetic;text-anchor:middle;fill:#331a00"
           d="M 0.92298582,0 H 1.2478128 V -1.581457 H 0.91113082 v 1.02427199 L 0.1784918,-1.581457 H -0.16767421 V 0 H 0.1690078 v -1.062208 z" />
        <path
           id="path780"
           style="font-weight:bold;font-size:2.37100005px;font-family:'Proxima Nova';dominant-baseline:alphabetic;text-anchor:middle;fill:#331a00"
           d="m 1.5596363,0 h 0.336682 v -1.581457 h -0.336682 z" />
      </g>
    </g>
    <g
       id="g416"
       transform="translate(147.32,95.67)">
      <g
         id="text414"
         style="font-weight:bold;font-size:2.37100005px;font-family:'Proxima Nova';dominant-baseline:hanging;text-anchor:middle;fill:#331a00"
         aria-label="1">
        <path
           id="path783"
           style="font-weight:bold;font-size:2.37100005px;font-family:'Proxima Nova';dominant-baseline:hanging;text-anchor:middle;fill:#331a00"
           d="m -0.00729823,1.498472 h 0.339053 v -1.58145706 h -0.294004 l -0.49791001,0.50028101 0.192051,0.20153501 0.26081001,-0.26792301 z" />
      </g>
    </g>
    <g
       id="g420"
       transform="translate(147.32,84.67)">
      <g
         id="text418"
         style="font-weight:bold;font-size:2.37100005px;font-family:'Proxima Nova';dominant-baseline:alphabetic;text-anchor:middle;fill:#331a00"
         aria-label="100">
        <path
           id="path786"
           style="font-weight:bold;font-size:2.37100005px;font-family:'Proxima Nova';dominant-baseline:alphabetic;text-anchor:middle;fill:#331a00"
           d="m -1.4752807,0 h 0.339053 v -1.581457 h -0.294004 l -0.49791,0.500281 0.192051,0.20153498 0.26081,-0.26792298 z" />
        <path
           id="path788"
           style="font-weight:bold;font-size:2.37100005px;font-family:'Proxima Nova';dominant-baseline:alphabetic;text-anchor:middle;fill:#331a00"
           d="m -0.90112822,-0.78954302 c 0,0.40781201 0.201535,0.81799502 0.65439601,0.81799502 0.45049001,0 0.65439602,-0.41018301 0.65439602,-0.81799502 0,-0.40781198 -0.20390601,-0.81562398 -0.65439602,-0.81562398 -0.45286101,0 -0.65439601,0.407812 -0.65439601,0.81562398 z m 0.96499702,0 c 0,0.29163301 -0.085356,0.51924901 -0.31060101,0.51924901 -0.227616,0 -0.312972,-0.227616 -0.312972,-0.51924901 0,-0.29163298 0.085356,-0.51687798 0.312972,-0.51687798 0.22524501,0 0.31060101,0.225245 0.31060101,0.51687798 z" />
        <path
           id="path790"
           style="font-weight:bold;font-size:2.37100005px;font-family:'Proxima Nova';dominant-baseline:alphabetic;text-anchor:middle;fill:#331a00"
           d="m 0.56685413,-0.78954302 c 0,0.40781201 0.20153501,0.81799502 0.65439597,0.81799502 0.4504901,0 0.6543961,-0.41018301 0.6543961,-0.81799502 0,-0.40781198 -0.203906,-0.81562398 -0.6543961,-0.81562398 -0.45286096,0 -0.65439597,0.407812 -0.65439597,0.81562398 z m 0.96499707,0 c 0,0.29163301 -0.085356,0.51924901 -0.3106011,0.51924901 -0.22761596,0 -0.31297196,-0.227616 -0.31297196,-0.51924901 0,-0.29163298 0.085356,-0.51687798 0.31297196,-0.51687798 0.225245,0 0.3106011,0.225245 0.3106011,0.51687798 z" />
      </g>
    </g>
    <g
       id="g424"
       transform="translate(149.82,90.17)">
      <g
         id="text422"
         style="font-weight:bold;font-size:2.37100005px;font-family:'Proxima Nova';dominant-baseline:middle;text-anchor:start;fill:#331a00"
         aria-label="10">
        <path
           id="path793"
           style="font-weight:bold;font-size:2.37100005px;font-family:'Proxima Nova';dominant-baseline:middle;text-anchor:start;fill:#331a00"
           d="M 0.47894201,0.57259649 H 0.81799502 V -1.0088605 H 0.52399101 l -0.49791001,0.50028097 0.192051,0.201535 0.26081001,-0.267923 z" />
        <path
           id="path795"
           style="font-weight:bold;font-size:2.37100005px;font-family:'Proxima Nova';dominant-baseline:middle;text-anchor:start;fill:#331a00"
           d="m 1.0530945,-0.21694653 c 0,0.40781201 0.201535,0.81799502 0.654396,0.81799502 0.45049,0 0.654396,-0.41018301 0.654396,-0.81799502 0,-0.40781201 -0.203906,-0.81562397 -0.654396,-0.81562397 -0.452861,0 -0.654396,0.40781196 -0.654396,0.81562397 z m 0.964997,0 c 0,0.29163301 -0.085356,0.51924901 -0.310601,0.51924901 -0.227616,0 -0.312972,-0.227616 -0.312972,-0.51924901 0,-0.291633 0.085356,-0.51687801 0.312972,-0.51687801 0.225245,0 0.310601,0.22524501 0.310601,0.51687801 z" />
      </g>
    </g>
    <path
       id="rect426"
       d="m 143.12,103.86 h 8.39999 c 0.554,0 1,0.446 1,1 v 10.98 c 0,0.554 -0.446,1 -1,1 H 143.12 c -0.554,0 -1,-0.446 -1,-1 v -10.98 c 0,-0.554 0.446,-1 1,-1 z"
       style="fill:#331a00;stroke:#331a00;stroke-width:0.34999999" />
    <g
       id="g430"
       transform="translate(147.32,106.44)">
      <g
         id="text428"
         style="font-weight:bold;font-size:2.37100005px;font-family:'Proxima Nova';dominant-baseline:alphabetic;text-anchor:middle;fill:#efedeb"
         aria-label="OUT">
        <path
           id="path799"
           style="font-weight:bold;font-size:2.37100005px;font-family:'Proxima Nova';dominant-baseline:alphabetic;text-anchor:middle;fill:#efedeb"
           d="m -2.3806878,-0.78954302 c 0,0.47657101 0.348537,0.81799502 0.825108,0.81799502 0.478942,0 0.82747903,-0.34142401 0.82747903,-0.81799502 0,-0.47657098 -0.34853703,-0.81799498 -0.82747903,-0.81799498 -0.476571,0 -0.825108,0.341424 -0.825108,0.81799498 z m 1.306421,0 c 0,0.29400401 -0.18968,0.51924901 -0.481313,0.51924901 -0.291633,0 -0.478942,-0.225245 -0.478942,-0.51924901 0,-0.29637498 0.187309,-0.51924898 0.478942,-0.51924898 0.291633,0 0.481313,0.222874 0.481313,0.51924898 z" />
        <path
           id="path801"
           style="font-weight:bold;font-size:2.37100005px;font-family:'Proxima Nova';dominant-baseline:alphabetic;text-anchor:middle;fill:#efedeb"
           d="m -0.48951892,-0.63068601 c 0,0.388844 0.22524501,0.65913801 0.70892902,0.65913801 0.47894201,0 0.70418701,-0.26792301 0.70418701,-0.66150901 V -1.581457 H 0.5821731 v 0.93891599 c 0,0.220503 -0.120921,0.372247 -0.362763,0.372247 -0.24658401,0 -0.36750501,-0.151744 -0.36750501,-0.372247 V -1.581457 h -0.34142401 z" />
        <path
           id="path803"
           style="font-weight:bold;font-size:2.37100005px;font-family:'Proxima Nova';dominant-baseline:alphabetic;text-anchor:middle;fill:#efedeb"
           d="m 1.6029255,0 h 0.339053 v -1.285082 h 0.459974 v -0.296375 h -1.261372 v 0.296375 h 0.462345 z" />
      </g>
    </g>
    <g
       id="g434"
       transform="translate(147.32,106.44)">
      <g
         id="text432"
         style="font-weight:bold;font-size:2.37100005px;font-family:'Proxima Nova';dominant-baseline:alphabetic;text-anchor:middle;fill:#efedeb"
         aria-label="OUT">
        <path
           id="path806"
           style="font-weight:bold;font-size:2.37100005px;font-family:'Proxima Nova';dominant-baseline:alphabetic;text-anchor:middle;fill:#efedeb"
           d="m -2.3806878,-0.78954302 c 0,0.47657101 0.348537,0.81799502 0.825108,0.81799502 0.478942,0 0.82747903,-0.34142401 0.82747903,-0.81799502 0,-0.47657098 -0.34853703,-0.81799498 -0.82747903,-0.81799498 -0.476571,0 -0.825108,0.341424 -0.825108,0.81799498 z m 1.306421,0 c 0,0.29400401 -0.18968,0.51924901 -0.481313,0.51924901 -0.291633,0 -0.478942,-0.225245 -0.478942,-0.51924901 0,-0.29637498 0.187309,-0.51924898 0.478942,-0.51924898 0.291633,0 0.481313,0.222874 0.481313,0.51924898 z" />
        <path
           id="path808"
           style="font-weight:bold;font-size:2.37100005px;font-family:'Proxima Nova';dominant-baseline:alphabetic;text-anchor:middle;fill:#efedeb"
           d="m -0.48951892,-0.63068601 c 0,0.388844 0.22524501,0.65913801 0.70892902,0.65913801 0.47894201,0 0.70418701,-0.26792301 0.70418701,-0.66150901 V -1.581457 H 0.5821731 v 0.93891599 c 0,0.220503 -0.120921,0.372247 -0.362763,0.372247 -0.24658401,0 -0.36750501,-0.151744 -0.36750501,-0.372247 V -1.581457 h -0.34142401 z" />
        <path
           id="path810"
           style="font-weight:bold;font-size:2.37100005px;font-family:'Proxima Nova';dominant-baseline:alphabetic;text-anchor:middle;fill:#efedeb"
           d="m 1.6029255,0 h 0.339053 v -1.285082 h 0.459974 v -0.296375 h -1.261372 v 0.296375 h 0.462345 z" />
      </g>
    </g>
  </g>
</svg>
