<?xml version="1.0" encoding="UTF-8" standalone="no"?>
<svg
   xmlns:dc="http://purl.org/dc/elements/1.1/"
   xmlns:cc="http://creativecommons.org/ns#"
   xmlns:rdf="http://www.w3.org/1999/02/22-rdf-syntax-ns#"
   xmlns:svg="http://www.w3.org/2000/svg"
   xmlns="http://www.w3.org/2000/svg"
   id="svg292"
   height="379.429"
   width="330.000"
   version="1.1">
  <metadata
     id="metadata298">
    <rdf:RDF>
      <cc:Work
         rdf:about="">
        <dc:format>image/svg+xml</dc:format>
        <dc:type
           rdf:resource="http://purl.org/dc/dcmitype/StillImage" />
      </cc:Work>
    </rdf:RDF>
  </metadata>
  <defs
     id="defs296" />
  <g
     id="g290"
     transform="scale(2.953)">
    <path
       id="rect2"
       d="M 0,0 H 111.76 V 128.5 H 0 Z"
       style="fill:#efedeb;stroke:#331a00;stroke-width:1" />
    <g
       id="g6"
       transform="translate(55.88,9)">
      <g
         id="text4"
         style="font-weight:bold;font-size:4.06400013px;font-family:'Proxima Nova';dominant-baseline:alphabetic;text-anchor:middle;fill:#331a00"
         aria-label="CURVE SEQUENCER 4">
        <path
           id="path301"
           style="font-weight:bold;font-size:4.06400013px;font-family:'Proxima Nova';dominant-baseline:alphabetic;text-anchor:middle;fill:#331a00"
           d="m -19.430143,0.048768 c 0.617728,0 0.959104,-0.32918401 1.154176,-0.66649602 l -0.495808,-0.23977601 c -0.113792,0.22352001 -0.357632,0.39420802 -0.658368,0.39420802 -0.471424,0 -0.829056,-0.37795202 -0.829056,-0.89001599 0,-0.5120641 0.357632,-0.8900161 0.829056,-0.8900161 0.300736,0 0.544576,0.174752 0.658368,0.394208 l 0.495808,-0.24384 c -0.191008,-0.337312 -0.536448,-0.662432 -1.154176,-0.662432 -0.79248,0 -1.4224,0.56896 -1.4224,1.4020801 0,0.83311998 0.62992,1.40208 1.4224,1.40208 z" />
        <path
           id="path303"
           style="font-weight:bold;font-size:4.06400013px;font-family:'Proxima Nova';dominant-baseline:alphabetic;text-anchor:middle;fill:#331a00"
           d="m -17.928495,-1.081024 c 0,0.66649599 0.38608,1.129792 1.215136,1.129792 0.820928,0 1.207008,-0.45923201 1.207008,-1.133856 v -1.6256001 h -0.585216 v 1.6093441 c 0,0.37795198 -0.207264,0.63804799 -0.621792,0.63804799 -0.422656,0 -0.62992,-0.26009601 -0.62992,-0.63804799 v -1.6093441 h -0.585216 z" />
        <path
           id="path305"
           style="font-weight:bold;font-size:4.06400013px;font-family:'Proxima Nova';dominant-baseline:alphabetic;text-anchor:middle;fill:#331a00"
           d="m -13.43568,0 h 0.662432 l -0.6096,-1.032256 c 0.292608,-0.069088 0.593344,-0.32512 0.593344,-0.8046721 0,-0.503936 -0.34544,-0.87376 -0.910336,-0.87376 h -1.267968 V 0 h 0.577088 v -0.97129603 h 0.422656 z m 0.0569,-1.8409921 c 0,0.227584 -0.174752,0.3738881 -0.4064,0.3738881 h -0.605536 v -0.7477761 h 0.605536 c 0.231648,0 0.4064,0.146304 0.4064,0.373888 z" />
        <path
           id="path307"
           style="font-weight:bold;font-size:4.06400013px;font-family:'Proxima Nova';dominant-baseline:alphabetic;text-anchor:middle;fill:#331a00"
           d="m -11.636089,0 h 0.723392 l 1.0444476,-2.7106881 h -0.6583676 l -0.747776,2.08483208 -0.75184,-2.08483208 h -0.658368 z" />
        <path
           id="path309"
           style="font-weight:bold;font-size:4.06400013px;font-family:'Proxima Nova';dominant-baseline:alphabetic;text-anchor:middle;fill:#331a00"
           d="m -9.6179327,0 h 1.9182081 v -0.49987202 h -1.34112 V -1.129792 h 1.312672 v -0.4958081 h -1.312672 v -0.58928 h 1.34112 v -0.495808 h -1.9182081 z" />
        <path
           id="path311"
           style="font-weight:bold;font-size:4.06400013px;font-family:'Proxima Nova';dominant-baseline:alphabetic;text-anchor:middle;fill:#331a00"
           d="m -6.3917516,-0.38201601 c 0.256032,0.25603201 0.62992,0.43078401 1.150112,0.43078401 0.73152,0 1.0850881,-0.37388801 1.0850881,-0.86969603 0,-0.60147197 -0.5689601,-0.73558397 -1.0160001,-0.83718407 -0.312928,-0.073152 -0.540512,-0.130048 -0.540512,-0.312928 0,-0.16256 0.138176,-0.276352 0.398272,-0.276352 0.26416,0 0.556768,0.093472 0.776224,0.296672 l 0.321056,-0.422656 c -0.268224,-0.247904 -0.625856,-0.377952 -1.05664,-0.377952 -0.638048,0 -1.028192,0.36576 -1.028192,0.816864 0,0.6055361 0.56896,0.7274561 1.011936,0.8290561 0.312928,0.073152 0.54864,0.14223997 0.54864,0.34543998 0,0.154432 -0.154432,0.30480001 -0.471424,0.30480001 -0.373888,0 -0.67056,-0.16662401 -0.861568,-0.36576002 z" />
        <path
           id="path313"
           style="font-weight:bold;font-size:4.06400013px;font-family:'Proxima Nova';dominant-baseline:alphabetic;text-anchor:middle;fill:#331a00"
           d="m -3.7679952,0 h 1.918208 v -0.49987202 h -1.34112 V -1.129792 h 1.312672 v -0.4958081 h -1.312672 v -0.58928 h 1.34112 v -0.495808 h -1.918208 z" />
        <path
           id="path315"
           style="font-weight:bold;font-size:4.06400013px;font-family:'Proxima Nova';dominant-baseline:alphabetic;text-anchor:middle;fill:#331a00"
           d="m 1.3078769,-1.353312 c 0,-0.8168641 -0.59740805,-1.4020801 -1.41833608,-1.4020801 -0.81686402,0 -1.41427202,0.585216 -1.41427202,1.4020801 0,0.81686398 0.597408,1.40208 1.41427202,1.40208 0.23571201,0 0.45516802,-0.048768 0.64617603,-0.138176 l 0.215392,0.25603201 0.40233605,-0.32918402 -0.19913604,-0.231648 C 1.1778289,-0.63804802 1.3078769,-0.97129603 1.3078769,-1.353312 Z m -1.41833608,0.89001599 c -0.49987201,0 -0.82092802,-0.38608002 -0.82092802,-0.89001599 0,-0.5080001 0.32105601,-0.8900161 0.82092802,-0.8900161 0.49987202,0 0.82499203,0.382016 0.82499203,0.8900161 0,0.195072 -0.048768,0.37388797 -0.138176,0.51612797 L 0.26749284,-1.19888 l -0.40233602,0.32511997 0.30886401,0.36169601 c -0.085344,0.032512 -0.18288,0.048768 -0.28448001,0.048768 z" />
        <path
           id="path317"
           style="font-weight:bold;font-size:4.06400013px;font-family:'Proxima Nova';dominant-baseline:alphabetic;text-anchor:middle;fill:#331a00"
           d="m 1.7168185,-1.081024 c 0,0.66649599 0.38608,1.129792 1.215136,1.129792 0.820928,0 1.2070081,-0.45923201 1.2070081,-1.133856 V -2.7106881 H 3.5537465 v 1.6093441 c 0,0.37795198 -0.207264,0.63804799 -0.621792,0.63804799 -0.422656,0 -0.62992,-0.26009601 -0.62992,-0.63804799 v -1.6093441 h -0.585216 z" />
        <path
           id="path319"
           style="font-weight:bold;font-size:4.06400013px;font-family:'Proxima Nova';dominant-baseline:alphabetic;text-anchor:middle;fill:#331a00"
           d="M 4.6775061,0 H 6.5957142 V -0.49987202 H 5.2545941 V -1.129792 H 6.5672662 V -1.6256001 H 5.2545941 v -0.58928 h 1.3411201 v -0.495808 H 4.6775061 Z" />
        <path
           id="path321"
           style="font-weight:bold;font-size:4.06400013px;font-family:'Proxima Nova';dominant-baseline:alphabetic;text-anchor:middle;fill:#331a00"
           d="m 8.9202582,0 h 0.556768 v -2.7106881 h -0.577088 v 1.75564807 L 7.6441621,-2.7106881 H 7.0508181 V 0 h 0.577088 v -1.8206721 z" />
        <path
           id="path323"
           style="font-weight:bold;font-size:4.06400013px;font-family:'Proxima Nova';dominant-baseline:alphabetic;text-anchor:middle;fill:#331a00"
           d="m 11.303858,0.048768 c 0.617728,0 0.959104,-0.32918401 1.154176,-0.66649602 l -0.495808,-0.23977601 c -0.113792,0.22352001 -0.357632,0.39420802 -0.658368,0.39420802 -0.471424,0 -0.829056,-0.37795202 -0.829056,-0.89001599 0,-0.5120641 0.357632,-0.8900161 0.829056,-0.8900161 0.300736,0 0.544576,0.174752 0.658368,0.394208 l 0.495808,-0.24384 c -0.191008,-0.337312 -0.536448,-0.662432 -1.154176,-0.662432 -0.79248,0 -1.4224003,0.56896 -1.4224003,1.4020801 0,0.83311998 0.6299203,1.40208 1.4224003,1.40208 z" />
        <path
           id="path325"
           style="font-weight:bold;font-size:4.06400013px;font-family:'Proxima Nova';dominant-baseline:alphabetic;text-anchor:middle;fill:#331a00"
           d="m 12.805504,0 h 1.918209 V -0.49987202 H 13.382592 V -1.129792 h 1.312673 v -0.4958081 h -1.312673 v -0.58928 h 1.341121 v -0.495808 h -1.918209 z" />
        <path
           id="path327"
           style="font-weight:bold;font-size:4.06400013px;font-family:'Proxima Nova';dominant-baseline:alphabetic;text-anchor:middle;fill:#331a00"
           d="m 16.710946,0 h 0.662432 l -0.6096,-1.032256 c 0.292608,-0.069088 0.593344,-0.32512 0.593344,-0.8046721 0,-0.503936 -0.34544,-0.87376 -0.910336,-0.87376 H 15.178818 V 0 h 0.577088 v -0.97129603 h 0.422656 z m 0.0569,-1.8409921 c 0,0.227584 -0.174752,0.3738881 -0.4064,0.3738881 h -0.605536 v -0.7477761 h 0.605536 c 0.231648,0 0.4064,0.146304 0.4064,0.373888 z" />
        <path
           id="path329"
           style="font-weight:bold;font-size:4.06400013px;font-family:'Proxima Nova';dominant-baseline:alphabetic;text-anchor:middle;fill:#331a00"
           d="m 19.959859,0 h 0.577088 v -0.56083202 h 0.349504 V -1.068832 H 20.536947 V -2.7106881 H 19.740403 L 18.663443,-1.016 v 0.45516798 h 1.296416 z m 0,-2.1986241 v 1.1297921 h -0.73152 z" />
      </g>
    </g>
    <g
       id="g10"
       transform="translate(55.88,119.5)">
      <g
         id="text8"
         style="font-weight:bold;font-size:4.06400013px;font-family:'Proxima Nova';dominant-baseline:hanging;text-anchor:middle;fill:#331a00"
         aria-label="DHE">
        <path
           id="path332"
           style="font-weight:bold;font-size:4.06400013px;font-family:'Proxima Nova';dominant-baseline:hanging;text-anchor:middle;fill:#331a00"
           d="m -3.8632449,2.5684481 h 1.0688321 c 0.849376,0 1.438656,-0.5364481 1.438656,-1.3533121 0,-0.816864 -0.58928,-1.35737602 -1.438656,-1.35737602 h -1.0688321 z m 0.577088,-0.508 V 0.36576 h 0.4917441 c 0.556768,0 0.849376,0.36982401 0.849376,0.849376 0,0.459232 -0.312928,0.8453121 -0.849376,0.8453121 z" />
        <path
           id="path334"
           style="font-weight:bold;font-size:4.06400013px;font-family:'Proxima Nova';dominant-baseline:hanging;text-anchor:middle;fill:#331a00"
           d="M 0.91500319,2.5684481 H 1.4961552 V -0.14224002 H 0.91500319 V 0.92252801 H -0.36515685 V -0.14224002 H -0.94224487 V 2.5684481 h 0.57708802 V 1.430528 h 1.28016004 z" />
        <path
           id="path336"
           style="font-weight:bold;font-size:4.06400013px;font-family:'Proxima Nova';dominant-baseline:hanging;text-anchor:middle;fill:#331a00"
           d="M 2.0263802,2.5684481 H 3.9445883 V 2.0685761 H 2.6034682 V 1.438656 H 3.9161403 V 0.94284801 H 2.6034682 V 0.353568 H 3.9445883 V -0.14224002 H 2.0263802 Z" />
      </g>
    </g>
    <path
       id="line12"
       d="M 10.16,27.32 H 20.32"
       style="stroke:#331a00;stroke-width:0.34999999" />
    <g
       id="g16"
       transform="translate(10.16,22.12)">
      <g
         id="text14"
         style="font-weight:bold;font-size:3.0480001px;font-family:'Proxima Nova';dominant-baseline:alphabetic;text-anchor:middle;fill:#331a00"
         aria-label="RUN">
        <path
           id="path340"
           style="font-weight:bold;font-size:3.0480001px;font-family:'Proxima Nova';dominant-baseline:alphabetic;text-anchor:middle;fill:#331a00"
           d="m -1.8495407,0 h 0.496824 l -0.4572,-0.77419202 c 0.219456,-0.051816 0.445008,-0.24383998 0.445008,-0.60350398 0,-0.3779521 -0.25908,-0.6553201 -0.6827521,-0.6553201 h -0.950976 V 0 h 0.432816 v -0.72847202 h 0.316992 z m 0.042672,-1.380744 c 0,0.170688 -0.131064,0.280416 -0.3048001,0.280416 h -0.454152 v -0.5608321 h 0.454152 c 0.1737361,0 0.3048001,0.1097281 0.3048001,0.2804161 z" />
        <path
           id="path342"
           style="font-weight:bold;font-size:3.0480001px;font-family:'Proxima Nova';dominant-baseline:alphabetic;text-anchor:middle;fill:#331a00"
           d="m -1.0400586,-0.81076803 c 0,0.49987202 0.28956005,0.84734403 0.91135207,0.84734403 0.61569602,0 0.90525603,-0.34442401 0.90525603,-0.85039203 V -2.0330161 H 0.33763749 v 1.20700807 c 0,0.28346401 -0.15544801,0.47853602 -0.46634402,0.47853602 -0.31699201,0 -0.47244001,-0.19507201 -0.47244001,-0.47853602 V -2.0330161 H -1.0400586 Z" />
        <path
           id="path344"
           style="font-weight:bold;font-size:3.0480001px;font-family:'Proxima Nova';dominant-baseline:alphabetic;text-anchor:middle;fill:#331a00"
           d="m 2.5825371,0 h 0.417576 v -2.0330161 h -0.432816 v 1.31673608 L 1.6254651,-2.0330161 H 1.1804571 V 0 h 0.432816 v -1.365504 z" />
      </g>
    </g>
    <g
       id="g20"
       transform="translate(20.32,23.32)">
      <g
         id="text18"
         style="font-weight:bold;font-size:2.37100005px;font-family:'Proxima Nova';dominant-baseline:alphabetic;text-anchor:middle;fill:#331a00" />
    </g>
    <path
       id="line22"
       d="M 10.16,69.980003 H 20.32"
       style="stroke:#331a00;stroke-width:0.34999999" />
    <g
       id="g26"
       transform="translate(10.16,64.78)">
      <g
         id="text24"
         style="font-weight:bold;font-size:3.0480001px;font-family:'Proxima Nova';dominant-baseline:alphabetic;text-anchor:middle;fill:#331a00"
         aria-label="RESET">
        <path
           id="path349"
           style="font-weight:bold;font-size:3.0480001px;font-family:'Proxima Nova';dominant-baseline:alphabetic;text-anchor:middle;fill:#331a00"
           d="m -3.2098299,0 h 0.4968241 l -0.4572001,-0.77419202 c 0.2194561,-0.051816 0.4450081,-0.24383998 0.4450081,-0.60350398 0,-0.3779521 -0.25908,-0.6553201 -0.6827521,-0.6553201 h -0.950976 V 0 h 0.432816 v -0.72847202 h 0.316992 z m 0.042672,-1.380744 c 0,0.170688 -0.131064,0.280416 -0.3048,0.280416 h -0.454152 v -0.5608321 h 0.454152 c 0.173736,0 0.3048,0.1097281 0.3048,0.2804161 z" />
        <path
           id="path351"
           style="font-weight:bold;font-size:3.0480001px;font-family:'Proxima Nova';dominant-baseline:alphabetic;text-anchor:middle;fill:#331a00"
           d="m -2.4003477,0 h 1.43865609 V -0.37490401 H -1.9675316 v -0.47244002 h 0.98450399 V -1.2192 H -1.9675316 v -0.4419601 h 1.00583999 v -0.371856 H -2.4003477 Z" />
        <path
           id="path353"
           style="font-weight:bold;font-size:3.0480001px;font-family:'Proxima Nova';dominant-baseline:alphabetic;text-anchor:middle;fill:#331a00"
           d="M -0.76057131,-0.28651201 C -0.5685473,-0.094488 -0.28813129,0.036576 0.10201272,0.036576 c 0.54864002,0 0.81381602,-0.28041601 0.81381602,-0.65227202 0,-0.45110398 -0.42672001,-0.55168798 -0.76200002,-0.62788798 -0.23469601,-0.054864 -0.40538401,-0.097536 -0.40538401,-0.234696 0,-0.1219201 0.103632,-0.2072641 0.29870401,-0.2072641 0.19812,0 0.41757601,0.070104 0.58216801,0.2225041 l 0.24079201,-0.3169921 c -0.201168,-0.185928 -0.46939201,-0.283464 -0.79248002,-0.283464 -0.47853602,0 -0.77114403,0.27432 -0.77114403,0.6126481 0,0.45415197 0.42672002,0.54559197 0.75895203,0.62179197 0.234696,0.054864 0.41148001,0.10668001 0.41148001,0.25908001 0,0.11582401 -0.115824,0.22860001 -0.35356801,0.22860001 -0.28041601,0 -0.50292002,-0.124968 -0.64617602,-0.27432001 z" />
        <path
           id="path355"
           style="font-weight:bold;font-size:3.0480001px;font-family:'Proxima Nova';dominant-baseline:alphabetic;text-anchor:middle;fill:#331a00"
           d="M 1.2072462,0 H 2.6459023 V -0.37490401 H 1.6400622 V -0.84734403 H 2.6245663 V -1.2192 H 1.6400622 v -0.4419601 h 1.0058401 v -0.371856 H 1.2072462 Z" />
        <path
           id="path357"
           style="font-weight:bold;font-size:3.0480001px;font-family:'Proxima Nova';dominant-baseline:alphabetic;text-anchor:middle;fill:#331a00"
           d="m 3.4566227,0 h 0.435864 v -1.6520161 h 0.5913121 v -0.381 H 2.8622627 v 0.381 h 0.59436 z" />
      </g>
    </g>
    <g
       id="g30"
       transform="translate(20.32,65.98)">
      <g
         id="text28"
         style="font-weight:bold;font-size:2.37100005px;font-family:'Proxima Nova';dominant-baseline:alphabetic;text-anchor:middle;fill:#331a00" />
    </g>
    <path
       id="line32"
       d="M 10.16,48.650002 H 20.32"
       style="stroke:#331a00;stroke-width:0.34999999" />
    <g
       id="g36"
       transform="translate(10.16,43.45)">
      <g
         id="text34"
         style="font-weight:bold;font-size:3.0480001px;font-family:'Proxima Nova';dominant-baseline:alphabetic;text-anchor:middle;fill:#331a00"
         aria-label="GATE">
        <path
           id="path362"
           style="font-weight:bold;font-size:3.0480001px;font-family:'Proxima Nova';dominant-baseline:alphabetic;text-anchor:middle;fill:#331a00"
           d="m -3.7033916,-1.014984 c 0,0.64007999 0.4876801,1.054608 1.0820401,1.054608 0.368808,0 0.658368,-0.1524 0.865632,-0.38404801 V -1.121664 h -0.969264 v 0.37185598 h 0.542544 v 0.246888 c -0.088392,0.079248 -0.252984,0.15544801 -0.438912,0.15544801 -0.368808,0 -0.637032,-0.28346401 -0.637032,-0.66751199 0,-0.384048 0.268224,-0.6675121 0.637032,-0.6675121 0.21336,0 0.387096,0.112776 0.481584,0.2560321 l 0.359664,-0.1950721 c -0.155448,-0.240792 -0.420624,-0.445008 -0.841248,-0.445008 -0.59436,0 -1.0820401,0.408432 -1.0820401,1.0515601 z" />
        <path
           id="path364"
           style="font-weight:bold;font-size:3.0480001px;font-family:'Proxima Nova';dominant-baseline:alphabetic;text-anchor:middle;fill:#331a00"
           d="M -0.00954884,0 H 0.46289117 L -0.32044485,-2.0330161 H -0.86298887 L -1.6493729,0 h 0.475488 l 0.128016,-0.35052001 h 0.90830405 z m -0.58216802,-1.6581121 0.33528001,0.93268808 h -0.67360802 z" />
        <path
           id="path366"
           style="font-weight:bold;font-size:3.0480001px;font-family:'Proxima Nova';dominant-baseline:alphabetic;text-anchor:middle;fill:#331a00"
           d="M 0.92356788,0 H 1.3594319 v -1.6520161 h 0.591312 v -0.381 H 0.32920786 v 0.381 h 0.59436002 z" />
        <path
           id="path368"
           style="font-weight:bold;font-size:3.0480001px;font-family:'Proxima Nova';dominant-baseline:alphabetic;text-anchor:middle;fill:#331a00"
           d="M 2.228207,0 H 3.6668631 V -0.37490401 H 2.661023 V -0.84734403 H 3.6455271 V -1.2192 H 2.661023 v -0.4419601 h 1.0058401 v -0.371856 H 2.228207 Z" />
      </g>
    </g>
    <g
       id="g40"
       transform="translate(20.32,44.65)">
      <g
         id="text38"
         style="font-weight:bold;font-size:2.37100005px;font-family:'Proxima Nova';dominant-baseline:alphabetic;text-anchor:middle;fill:#331a00" />
    </g>
    <path
       id="line42"
       d="M 10.16,91.309998 H 20.32"
       style="stroke:#331a00;stroke-width:0.34999999" />
    <g
       id="g46"
       transform="translate(10.16,86.11)">
      <g
         id="text44"
         style="font-weight:bold;font-size:3.0480001px;font-family:'Proxima Nova';dominant-baseline:alphabetic;text-anchor:middle;fill:#331a00"
         aria-label="START">
        <path
           id="path373"
           style="font-weight:bold;font-size:3.0480001px;font-family:'Proxima Nova';dominant-baseline:alphabetic;text-anchor:middle;fill:#331a00"
           d="m -4.5229464,-0.28651201 c 0.192024,0.19202401 0.47244,0.32308801 0.862584,0.32308801 0.5486401,0 0.8138161,-0.28041601 0.8138161,-0.65227202 0,-0.45110398 -0.4267201,-0.55168798 -0.7620001,-0.62788798 -0.234696,-0.054864 -0.405384,-0.097536 -0.405384,-0.234696 0,-0.1219201 0.103632,-0.2072641 0.298704,-0.2072641 0.19812,0 0.417576,0.070104 0.5821681,0.2225041 l 0.240792,-0.3169921 c -0.201168,-0.185928 -0.4693921,-0.283464 -0.7924801,-0.283464 -0.478536,0 -0.771144,0.27432 -0.771144,0.6126481 0,0.45415197 0.42672,0.54559197 0.758952,0.62179197 0.234696,0.054864 0.41148,0.10668001 0.41148,0.25908001 0,0.11582401 -0.115824,0.22860001 -0.353568,0.22860001 -0.280416,0 -0.50292,-0.124968 -0.646176,-0.27432001 z" />
        <path
           id="path375"
           style="font-weight:bold;font-size:3.0480001px;font-family:'Proxima Nova';dominant-baseline:alphabetic;text-anchor:middle;fill:#331a00"
           d="m -2.1095495,0 h 0.435864 v -1.6520161 h 0.591312 v -0.381 h -1.621536 v 0.381 h 0.59436 z" />
        <path
           id="path377"
           style="font-weight:bold;font-size:3.0480001px;font-family:'Proxima Nova';dominant-baseline:alphabetic;text-anchor:middle;fill:#331a00"
           d="M 0.42205273,0 H 0.89449275 L 0.11115672,-2.0330161 H -0.4313873 L -1.2177713,0 h 0.47548799 l 0.12801601,-0.35052001 h 0.90830403 z m -0.58216802,-1.6581121 0.33528001,0.93268808 H -0.4984433 Z" />
        <path
           id="path379"
           style="font-weight:bold;font-size:3.0480001px;font-family:'Proxima Nova';dominant-baseline:alphabetic;text-anchor:middle;fill:#331a00"
           d="m 2.2313263,0 h 0.496824 l -0.4572,-0.77419202 c 0.219456,-0.051816 0.445008,-0.24383998 0.445008,-0.60350398 0,-0.3779521 -0.25908,-0.6553201 -0.682752,-0.6553201 H 1.0822303 V 0 h 0.432816 v -0.72847202 h 0.316992 z m 0.042672,-1.380744 c 0,0.170688 -0.131064,0.280416 -0.3048,0.280416 h -0.454152 v -0.5608321 h 0.454152 c 0.173736,0 0.3048,0.1097281 0.3048,0.2804161 z" />
        <path
           id="path381"
           style="font-weight:bold;font-size:3.0480001px;font-family:'Proxima Nova';dominant-baseline:alphabetic;text-anchor:middle;fill:#331a00"
           d="m 3.4804353,0 h 0.435864 v -1.6520161 h 0.591312 v -0.381 h -1.621536 v 0.381 h 0.59436 z" />
      </g>
    </g>
    <g
       id="g50"
       transform="translate(20.32,86.11)">
      <g
         id="text48"
         style="font-weight:bold;font-size:2.37100005px;font-family:'Proxima Nova';dominant-baseline:alphabetic;text-anchor:middle;fill:#331a00" />
    </g>
    <path
       id="line52"
       d="M 10.16,112.64 H 20.32"
       style="stroke:#331a00;stroke-width:0.34999999" />
    <g
       id="g56"
       transform="translate(10.16,107.44)">
      <g
         id="text54"
         style="font-weight:bold;font-size:3.0480001px;font-family:'Proxima Nova';dominant-baseline:alphabetic;text-anchor:middle;fill:#331a00"
         aria-label="LENGTH">
        <path
           id="path386"
           style="font-weight:bold;font-size:3.0480001px;font-family:'Proxima Nova';dominant-baseline:alphabetic;text-anchor:middle;fill:#331a00"
           d="m -5.6834962,0 h 1.292352 v -0.38100001 h -0.859536 V -2.0330161 h -0.432816 z" />
        <path
           id="path388"
           style="font-weight:bold;font-size:3.0480001px;font-family:'Proxima Nova';dominant-baseline:alphabetic;text-anchor:middle;fill:#331a00"
           d="m -4.0880587,0 h 1.438656 v -0.37490401 h -1.00584 v -0.47244002 h 0.984504 V -1.2192 h -0.984504 v -0.4419601 h 1.00584 v -0.371856 h -1.438656 z" />
        <path
           id="path390"
           style="font-weight:bold;font-size:3.0480001px;font-family:'Proxima Nova';dominant-baseline:alphabetic;text-anchor:middle;fill:#331a00"
           d="m -0.9059942,0 h 0.41757602 V -2.0330161 H -0.9212342 v 1.31673608 l -0.941832,-1.31673608 h -0.445008 V 0 h 0.432816 v -1.365504 z" />
        <path
           id="path392"
           style="font-weight:bold;font-size:3.0480001px;font-family:'Proxima Nova';dominant-baseline:alphabetic;text-anchor:middle;fill:#331a00"
           d="m -0.18509452,-1.014984 c 0,0.64007999 0.48768002,1.054608 1.08204004,1.054608 0.36880798,0 0.65836798,-0.1524 0.86563198,-0.38404801 V -1.121664 H 0.79331351 v 0.37185598 H 1.3358575 v 0.246888 c -0.088392,0.079248 -0.252984,0.15544801 -0.43891198,0.15544801 -0.36880802,0 -0.63703202,-0.28346401 -0.63703202,-0.66751199 0,-0.384048 0.268224,-0.6675121 0.63703202,-0.6675121 0.21335998,0 0.38709598,0.112776 0.48158398,0.2560321 l 0.359664,-0.1950721 c -0.155448,-0.240792 -0.420624,-0.445008 -0.84124798,-0.445008 -0.59436002,0 -1.08204004,0.408432 -1.08204004,1.0515601 z" />
        <path
           id="path394"
           style="font-weight:bold;font-size:3.0480001px;font-family:'Proxima Nova';dominant-baseline:alphabetic;text-anchor:middle;fill:#331a00"
           d="m 2.5547242,0 h 0.435864 v -1.6520161 h 0.591312 v -0.381 H 1.9603641 v 0.381 h 0.5943601 z" />
        <path
           id="path396"
           style="font-weight:bold;font-size:3.0480001px;font-family:'Proxima Nova';dominant-baseline:alphabetic;text-anchor:middle;fill:#331a00"
           d="m 5.2522998,0 h 0.435864 V -2.0330161 H 5.2522998 V -1.23444 h -0.96012 V -2.0330161 H 3.8593638 V 0 h 0.432816 v -0.85344003 h 0.96012 z" />
      </g>
    </g>
    <g
       id="g60"
       transform="translate(20.32,107.44)">
      <g
         id="text58"
         style="font-weight:bold;font-size:2.37100005px;font-family:'Proxima Nova';dominant-baseline:alphabetic;text-anchor:middle;fill:#331a00" />
    </g>
    <g
       id="g64"
       transform="translate(43.942,31.75)">
      <g
         id="text62"
         style="font-weight:bold;font-size:3.0480001px;font-family:'Proxima Nova';dominant-baseline:middle;text-anchor:end;fill:#331a00"
         aria-label="GENERATE">
        <path
           id="path400"
           style="font-weight:bold;font-size:3.0480001px;font-family:'Proxima Nova';dominant-baseline:middle;text-anchor:end;fill:#331a00"
           d="m -15.27329,-0.278892 c 0,0.64008002 0.48768,1.05460803 1.08204,1.05460803 0.368808,0 0.658368,-0.1524 0.865632,-0.38404801 V -0.385572 h -0.969264 v 0.37185601 h 0.542544 v 0.246888 c -0.08839,0.079248 -0.252984,0.15544801 -0.438912,0.15544801 -0.368808,0 -0.637032,-0.28346401 -0.637032,-0.66751202 0,-0.38404801 0.268224,-0.66751202 0.637032,-0.66751202 0.21336,0 0.387096,0.112776 0.481584,0.25603201 l 0.359664,-0.19507201 C -13.50545,-1.126236 -13.770626,-1.330452 -14.19125,-1.330452 c -0.59436,0 -1.08204,0.40843198 -1.08204,1.05156 z" />
        <path
           id="path402"
           style="font-weight:bold;font-size:3.0480001px;font-family:'Proxima Nova';dominant-baseline:middle;text-anchor:end;fill:#331a00"
           d="m -12.979051,0.73609203 h 1.438656 V 0.36118802 h -1.00584 V -0.111252 h 0.984504 v -0.37185601 h -0.984504 v -0.44196001 h 1.00584 V -1.296924 h -1.438656 z" />
        <path
           id="path404"
           style="font-weight:bold;font-size:3.0480001px;font-family:'Proxima Nova';dominant-baseline:middle;text-anchor:end;fill:#331a00"
           d="m -9.7969866,0.73609203 h 0.417576 V -1.296924 h -0.432816 V 0.01981201 L -10.754059,-1.296924 h -0.445008 v 2.03301603 h 0.432816 v -1.36550404 z" />
        <path
           id="path406"
           style="font-weight:bold;font-size:3.0480001px;font-family:'Proxima Nova';dominant-baseline:middle;text-anchor:end;fill:#331a00"
           d="m -8.9785507,0.73609203 h 1.438656 V 0.36118802 h -1.00584 V -0.111252 h 0.984504 v -0.37185601 h -0.984504 v -0.44196001 h 1.00584 V -1.296924 h -1.438656 z" />
        <path
           id="path408"
           style="font-weight:bold;font-size:3.0480001px;font-family:'Proxima Nova';dominant-baseline:middle;text-anchor:end;fill:#331a00"
           d="m -6.0494702,0.73609203 h 0.496824 l -0.4572,-0.77419202 c 0.219456,-0.05181601 0.445008,-0.24384001 0.445008,-0.60350402 0,-0.37795199 -0.25908,-0.65531999 -0.682752,-0.65531999 h -0.950976 v 2.03301603 h 0.432816 V 0.00762001 h 0.316992 z m 0.042672,-1.38074404 c 0,0.170688 -0.131064,0.28041601 -0.3048,0.28041601 h -0.454152 v -0.56083202 h 0.454152 c 0.173736,0 0.3048,0.109728 0.3048,0.28041601 z" />
        <path
           id="path410"
           style="font-weight:bold;font-size:3.0480001px;font-family:'Proxima Nova';dominant-baseline:middle;text-anchor:end;fill:#331a00"
           d="m -3.8165721,0.73609203 h 0.47244 L -4.1274681,-1.296924 h -0.542544 l -0.786384,2.03301603 h 0.475488 l 0.128016,-0.35052001 h 0.908304 z m -0.582168,-1.65811205 0.33528,0.93268803 h -0.673608 z" />
        <path
           id="path412"
           style="font-weight:bold;font-size:3.0480001px;font-family:'Proxima Nova';dominant-baseline:middle;text-anchor:end;fill:#331a00"
           d="m -2.8834559,0.73609203 h 0.4358641 v -1.65201605 h 0.591312 V -1.296924 h -1.6215361 v 0.38099998 h 0.59436 z" />
        <path
           id="path414"
           style="font-weight:bold;font-size:3.0480001px;font-family:'Proxima Nova';dominant-baseline:middle;text-anchor:end;fill:#331a00"
           d="m -1.5788162,0.73609203 h 1.43865602 V 0.36118802 H -1.1460002 V -0.111252 h 0.98450402 V -0.48310801 H -1.1460002 v -0.44196001 h 1.00584002 V -1.296924 H -1.5788162 Z" />
      </g>
    </g>
    <g
       id="g68"
       transform="translate(43.942,43.18)">
      <g
         id="text66"
         style="font-weight:bold;font-size:3.0480001px;font-family:'Proxima Nova';dominant-baseline:middle;text-anchor:end;fill:#331a00"
         aria-label="SUSTAIN">
        <path
           id="path417"
           style="font-weight:bold;font-size:3.0480001px;font-family:'Proxima Nova';dominant-baseline:middle;text-anchor:end;fill:#331a00"
           d="m -12.506087,0.44958002 c 0.192024,0.19202401 0.47244,0.32308801 0.862584,0.32308801 0.54864,0 0.813816,-0.28041601 0.813816,-0.65227202 0,-0.45110401 -0.42672,-0.55168802 -0.762,-0.62788802 -0.234696,-0.054864 -0.405384,-0.097536 -0.405384,-0.23469601 0,-0.12192 0.103632,-0.207264 0.298704,-0.207264 0.19812,0 0.417576,0.070104 0.582168,0.222504 L -10.875407,-1.04394 c -0.201168,-0.185928 -0.469392,-0.283464 -0.79248,-0.283464 -0.478536,0 -0.771144,0.27432 -0.771144,0.61264798 0,0.45415202 0.42672,0.54559202 0.758952,0.62179202 0.234696,0.05486401 0.41148,0.10668001 0.41148,0.25908001 0,0.11582401 -0.115824,0.22860001 -0.353568,0.22860001 -0.280416,0 -0.50292,-0.124968 -0.646176,-0.27432001 z" />
        <path
           id="path419"
           style="font-weight:bold;font-size:3.0480001px;font-family:'Proxima Nova';dominant-baseline:middle;text-anchor:end;fill:#331a00"
           d="m -10.53827,-0.07467599 c 0,0.49987201 0.28956,0.84734402 0.9113522,0.84734402 0.615696,0 0.905256,-0.34442401 0.905256,-0.85039202 V -1.296924 h -0.438912 v 1.207008 c 0,0.28346401 -0.155448,0.47853602 -0.466344,0.47853602 -0.316992,0 -0.4724402,-0.19507201 -0.4724402,-0.47853602 v -1.207008 h -0.438912 z" />
        <path
           id="path421"
           style="font-weight:bold;font-size:3.0480001px;font-family:'Proxima Nova';dominant-baseline:middle;text-anchor:end;fill:#331a00"
           d="m -8.457962,0.44958002 c 0.192024,0.19202401 0.47244,0.32308801 0.862584,0.32308801 0.54864,0 0.813816,-0.28041601 0.813816,-0.65227202 0,-0.45110401 -0.42672,-0.55168802 -0.762,-0.62788802 -0.234696,-0.054864 -0.405384,-0.097536 -0.405384,-0.23469601 0,-0.12192 0.103632,-0.207264 0.298704,-0.207264 0.19812,0 0.417576,0.070104 0.582168,0.222504 L -6.827282,-1.04394 c -0.201168,-0.185928 -0.469392,-0.283464 -0.79248,-0.283464 -0.478536,0 -0.771144,0.27432 -0.771144,0.61264798 0,0.45415202 0.42672,0.54559202 0.758952,0.62179202 0.234696,0.05486401 0.41148,0.10668001 0.41148,0.25908001 0,0.11582401 -0.115824,0.22860001 -0.353568,0.22860001 -0.280416,0 -0.50292,-0.124968 -0.646176,-0.27432001 z" />
        <path
           id="path423"
           style="font-weight:bold;font-size:3.0480001px;font-family:'Proxima Nova';dominant-baseline:middle;text-anchor:end;fill:#331a00"
           d="m -6.0445652,0.73609203 h 0.435864 v -1.65201605 h 0.591312 V -1.296924 h -1.621536 v 0.38099998 h 0.59436 z" />
        <path
           id="path425"
           style="font-weight:bold;font-size:3.0480001px;font-family:'Proxima Nova';dominant-baseline:middle;text-anchor:end;fill:#331a00"
           d="m -3.5129631,0.73609203 h 0.47244 L -3.8238591,-1.296924 h -0.542544 l -0.7863841,2.03301603 h 0.475488 l 0.128016,-0.35052001 h 0.9083041 z m -0.582168,-1.65811205 0.33528,0.93268803 h -0.6736081 z" />
        <path
           id="path427"
           style="font-weight:bold;font-size:3.0480001px;font-family:'Proxima Nova';dominant-baseline:middle;text-anchor:end;fill:#331a00"
           d="m -2.8527853,0.73609203 h 0.432816 V -1.296924 h -0.432816 z" />
        <path
           id="path429"
           style="font-weight:bold;font-size:3.0480001px;font-family:'Proxima Nova';dominant-baseline:middle;text-anchor:end;fill:#331a00"
           d="m -0.61726736,0.73609203 h 0.41757602 V -1.296924 H -0.63250736 V 0.01981201 L -1.5743394,-1.296924 h -0.445008 v 2.03301603 h 0.432816 v -1.36550404 z" />
      </g>
    </g>
    <g
       id="g72"
       transform="translate(43.942,54.61)">
      <g
         id="text70"
         style="font-weight:bold;font-size:3.0480001px;font-family:'Proxima Nova';dominant-baseline:middle;text-anchor:end;fill:#331a00"
         aria-label="LEVEL">
        <path
           id="path432"
           style="font-weight:bold;font-size:3.0480001px;font-family:'Proxima Nova';dominant-baseline:middle;text-anchor:end;fill:#331a00"
           d="m -8.6332698,0.73609203 h 1.2923521 V 0.35509202 H -8.2004538 V -1.296924 h -0.432816 z" />
        <path
           id="path434"
           style="font-weight:bold;font-size:3.0480001px;font-family:'Proxima Nova';dominant-baseline:middle;text-anchor:end;fill:#331a00"
           d="m -7.0378322,0.73609203 h 1.438656 V 0.36118802 h -1.00584 V -0.111252 h 0.984504 v -0.37185601 h -0.984504 v -0.44196001 h 1.00584 V -1.296924 h -1.438656 z" />
        <path
           id="path436"
           style="font-weight:bold;font-size:3.0480001px;font-family:'Proxima Nova';dominant-baseline:middle;text-anchor:end;fill:#331a00"
           d="m -4.6878718,0.73609203 h 0.5425441 l 0.783336,-2.03301603 h -0.493776 L -4.4165997,0.26670002 -4.9804798,-1.296924 h -0.493776 z" />
        <path
           id="path438"
           style="font-weight:bold;font-size:3.0480001px;font-family:'Proxima Nova';dominant-baseline:middle;text-anchor:end;fill:#331a00"
           d="m -3.1742539,0.73609203 h 1.438656 V 0.36118802 h -1.00584 V -0.111252 h 0.984504 v -0.37185601 h -0.984504 v -0.44196001 h 1.00584 V -1.296924 h -1.438656 z" />
        <path
           id="path440"
           style="font-weight:bold;font-size:3.0480001px;font-family:'Proxima Nova';dominant-baseline:middle;text-anchor:end;fill:#331a00"
           d="m -1.3942695,0.73609203 h 1.29235209 V 0.35509202 H -0.96145344 V -1.296924 H -1.3942695 Z" />
      </g>
    </g>
    <g
       id="g76"
       transform="translate(43.942,67.31)">
      <g
         id="text74"
         style="font-weight:bold;font-size:3.0480001px;font-family:'Proxima Nova';dominant-baseline:middle;text-anchor:end;fill:#331a00"
         aria-label="SHAPE">
        <path
           id="path443"
           style="font-weight:bold;font-size:3.0480001px;font-family:'Proxima Nova';dominant-baseline:middle;text-anchor:end;fill:#331a00"
           d="m -9.7557434,0.44958002 c 0.192024,0.19202401 0.47244,0.32308801 0.862584,0.32308801 0.54864,0 0.813816,-0.28041601 0.813816,-0.65227202 0,-0.45110401 -0.42672,-0.55168802 -0.762,-0.62788802 -0.234696,-0.054864 -0.405384,-0.097536 -0.405384,-0.23469601 0,-0.12192 0.103632,-0.207264 0.298704,-0.207264 0.19812,0 0.417576,0.070104 0.582168,0.222504 L -8.1250634,-1.04394 c -0.201168,-0.185928 -0.469392,-0.283464 -0.79248,-0.283464 -0.478536,0 -0.771144,0.27432 -0.771144,0.61264798 0,0.45415202 0.42672,0.54559202 0.758952,0.62179202 0.234696,0.05486401 0.41148,0.10668001 0.41148,0.25908001 0,0.11582401 -0.115824,0.22860001 -0.353568,0.22860001 -0.280416,0 -0.50292,-0.124968 -0.646176,-0.27432001 z" />
        <path
           id="path445"
           style="font-weight:bold;font-size:3.0480001px;font-family:'Proxima Nova';dominant-baseline:middle;text-anchor:end;fill:#331a00"
           d="m -6.39499,0.73609203 h 0.435864 V -1.296924 H -6.39499 v 0.79857599 H -7.35511 V -1.296924 H -7.787926 V 0.73609203 H -7.35511 V -0.117348 h 0.96012 z" />
        <path
           id="path447"
           style="font-weight:bold;font-size:3.0480001px;font-family:'Proxima Nova';dominant-baseline:middle;text-anchor:end;fill:#331a00"
           d="m -4.1380413,0.73609203 h 0.47244 L -4.4489373,-1.296924 h -0.542544 l -0.786384,2.03301603 h 0.475488 l 0.128016,-0.35052001 h 0.908304 z m -0.582168,-1.65811205 0.33528,0.93268803 h -0.673608 z" />
        <path
           id="path449"
           style="font-weight:bold;font-size:3.0480001px;font-family:'Proxima Nova';dominant-baseline:middle;text-anchor:end;fill:#331a00"
           d="m -3.4778635,0.73609203 h 0.432816 V 0.00762001 h 0.51816 c 0.4389121,0 0.6827521,-0.29565601 0.6827521,-0.64922402 0,-0.35661601 -0.240792,-0.65531999 -0.6827521,-0.65531999 h -0.950976 z m 1.1917681,-1.38074404 c 0,0.170688 -0.1280161,0.28041601 -0.2987041,0.28041601 h -0.460248 v -0.56083202 h 0.460248 c 0.170688,0 0.2987041,0.112776 0.2987041,0.28041601 z" />
        <path
           id="path451"
           style="font-weight:bold;font-size:3.0480001px;font-family:'Proxima Nova';dominant-baseline:middle;text-anchor:end;fill:#331a00"
           d="m -1.5788161,0.73609203 h 1.43865604 V 0.36118802 H -1.1460001 V -0.111252 h 0.98450404 V -0.48310801 H -1.1460001 v -0.44196001 h 1.00584004 V -1.296924 H -1.5788161 Z" />
      </g>
    </g>
    <g
       id="g80"
       transform="translate(43.942,80.01)">
      <g
         id="text78"
         style="font-weight:bold;font-size:3.0480001px;font-family:'Proxima Nova';dominant-baseline:middle;text-anchor:end;fill:#331a00"
         aria-label="CURVE">
        <path
           id="path454"
           style="font-weight:bold;font-size:3.0480001px;font-family:'Proxima Nova';dominant-baseline:middle;text-anchor:end;fill:#331a00"
           d="m -8.9379745,0.77266803 c 0.463296,0 0.719328,-0.24688801 0.865632,-0.49987201 l -0.371856,-0.17983201 c -0.085344,0.16764001 -0.268224,0.29565601 -0.493776,0.29565601 -0.353568,0 -0.6217921,-0.28346401 -0.6217921,-0.66751202 0,-0.38404801 0.2682241,-0.66751202 0.6217921,-0.66751202 0.225552,0 0.408432,0.131064 0.493776,0.29565601 l 0.371856,-0.18288001 C -8.2155985,-1.086612 -8.4746785,-1.330452 -8.9379745,-1.330452 c -0.5943601,0 -1.0668005,0.42671998 -1.0668005,1.05156 0,0.62484002 0.4724404,1.05156003 1.0668005,1.05156003 z" />
        <path
           id="path456"
           style="font-weight:bold;font-size:3.0480001px;font-family:'Proxima Nova';dominant-baseline:middle;text-anchor:end;fill:#331a00"
           d="m -7.8117386,-0.07467599 c 0,0.49987201 0.28956,0.84734402 0.9113521,0.84734402 0.615696,0 0.905256,-0.34442401 0.905256,-0.85039202 V -1.296924 h -0.438912 v 1.207008 c 0,0.28346401 -0.155448,0.47853602 -0.466344,0.47853602 -0.3169921,0 -0.4724401,-0.19507201 -0.4724401,-0.47853602 v -1.207008 h -0.438912 z" />
        <path
           id="path458"
           style="font-weight:bold;font-size:3.0480001px;font-family:'Proxima Nova';dominant-baseline:middle;text-anchor:end;fill:#331a00"
           d="m -4.4421268,0.73609203 h 0.496824 l -0.4572,-0.77419202 c 0.219456,-0.05181601 0.445008,-0.24384001 0.445008,-0.60350402 0,-0.37795199 -0.25908,-0.65531999 -0.682752,-0.65531999 h -0.950976 v 2.03301603 h 0.432816 V 0.00762001 h 0.316992 z m 0.042672,-1.38074404 c 0,0.170688 -0.131064,0.28041601 -0.3048,0.28041601 h -0.454152 v -0.56083202 h 0.454152 c 0.173736,0 0.3048,0.109728 0.3048,0.28041601 z" />
        <path
           id="path460"
           style="font-weight:bold;font-size:3.0480001px;font-family:'Proxima Nova';dominant-baseline:middle;text-anchor:end;fill:#331a00"
           d="m -3.0924343,0.73609203 h 0.542544 l 0.783336,-2.03301603 h -0.493776 l -0.560832,1.56362402 -0.56388,-1.56362402 h -0.493776 z" />
        <path
           id="path462"
           style="font-weight:bold;font-size:3.0480001px;font-family:'Proxima Nova';dominant-baseline:middle;text-anchor:end;fill:#331a00"
           d="m -1.578816,0.73609203 h 1.43865603 V 0.36118802 H -1.146 V -0.111252 h 0.98450403 V -0.48310801 H -1.146 v -0.44196001 h 1.00584003 V -1.296924 H -1.578816 Z" />
      </g>
    </g>
    <g
       id="g84"
       transform="translate(43.942,92.71)">
      <g
         id="text82"
         style="font-weight:bold;font-size:3.0480001px;font-family:'Proxima Nova';dominant-baseline:middle;text-anchor:end;fill:#331a00"
         aria-label="DURATION">
        <path
           id="path465"
           style="font-weight:bold;font-size:3.0480001px;font-family:'Proxima Nova';dominant-baseline:middle;text-anchor:end;fill:#331a00"
           d="m -15.217426,0.73609203 h 0.801624 c 0.637032,0 1.078992,-0.40233601 1.078992,-1.01498403 0,-0.61264802 -0.44196,-1.018032 -1.078992,-1.018032 h -0.801624 z m 0.432816,-0.38100001 v -1.27101604 h 0.368808 c 0.417576,0 0.637032,0.27736801 0.637032,0.63703202 0,0.34442401 -0.234696,0.63398402 -0.637032,0.63398402 z" />
        <path
           id="path467"
           style="font-weight:bold;font-size:3.0480001px;font-family:'Proxima Nova';dominant-baseline:middle;text-anchor:end;fill:#331a00"
           d="m -13.026676,-0.07467599 c 0,0.49987201 0.28956,0.84734402 0.911352,0.84734402 0.615696,0 0.905256,-0.34442401 0.905256,-0.85039202 V -1.296924 h -0.438912 v 1.207008 c 0,0.28346401 -0.155448,0.47853602 -0.466344,0.47853602 -0.316992,0 -0.47244,-0.19507201 -0.47244,-0.47853602 v -1.207008 h -0.438912 z" />
        <path
           id="path469"
           style="font-weight:bold;font-size:3.0480001px;font-family:'Proxima Nova';dominant-baseline:middle;text-anchor:end;fill:#331a00"
           d="m -9.6570643,0.73609203 h 0.496824 l -0.4572,-0.77419202 c 0.219456,-0.05181601 0.445008,-0.24384001 0.445008,-0.60350402 0,-0.37795199 -0.25908,-0.65531999 -0.6827521,-0.65531999 H -10.80616 v 2.03301603 h 0.432816 V 0.00762001 h 0.316992 z m 0.042672,-1.38074404 c 0,0.170688 -0.1310641,0.28041601 -0.3048001,0.28041601 h -0.4541516 v -0.56083202 h 0.4541516 c 0.173736,0 0.3048001,0.109728 0.3048001,0.28041601 z" />
        <path
           id="path471"
           style="font-weight:bold;font-size:3.0480001px;font-family:'Proxima Nova';dominant-baseline:middle;text-anchor:end;fill:#331a00"
           d="m -7.4241662,0.73609203 h 0.47244 L -7.7350622,-1.296924 h -0.5425441 l -0.786384,2.03301603 h 0.475488 l 0.128016,-0.35052001 h 0.9083041 z m -0.582168,-1.65811205 0.33528,0.93268803 h -0.6736081 z" />
        <path
           id="path473"
           style="font-weight:bold;font-size:3.0480001px;font-family:'Proxima Nova';dominant-baseline:middle;text-anchor:end;fill:#331a00"
           d="m -6.4910495,0.73609203 h 0.435864 v -1.65201605 h 0.591312 V -1.296924 h -1.621536 v 0.38099998 h 0.59436 z" />
        <path
           id="path475"
           style="font-weight:bold;font-size:3.0480001px;font-family:'Proxima Nova';dominant-baseline:middle;text-anchor:end;fill:#331a00"
           d="m -5.1864099,0.73609203 h 0.432816 V -1.296924 h -0.432816 z" />
        <path
           id="path477"
           style="font-weight:bold;font-size:3.0480001px;font-family:'Proxima Nova';dominant-baseline:middle;text-anchor:end;fill:#331a00"
           d="m -4.4505089,-0.278892 c 0,0.61264802 0.448056,1.05156003 1.060704,1.05156003 0.615696,0 1.063752,-0.43891201 1.063752,-1.05156003 0,-0.61264802 -0.448056,-1.05156 -1.063752,-1.05156 -0.612648,0 -1.060704,0.43891198 -1.060704,1.05156 z m 1.679448,0 c 0,0.37795201 -0.24384,0.66751202 -0.618744,0.66751202 -0.374904,0 -0.615696,-0.28956001 -0.615696,-0.66751202 0,-0.38100001 0.240792,-0.66751202 0.615696,-0.66751202 0.374904,0 0.618744,0.28651201 0.618744,0.66751202 z" />
        <path
           id="path479"
           style="font-weight:bold;font-size:3.0480001px;font-family:'Proxima Nova';dominant-baseline:middle;text-anchor:end;fill:#331a00"
           d="m -0.61726804,0.73609203 h 0.41757602 V -1.296924 H -0.63250804 V 0.01981201 L -1.5743401,-1.296924 h -0.445008 v 2.03301603 h 0.432816 v -1.36550404 z" />
      </g>
    </g>
    <g
       id="g88"
       transform="translate(43.942,104.44)">
      <g
         id="text86"
         style="font-weight:bold;font-size:3.0480001px;font-family:'Proxima Nova';dominant-baseline:middle;text-anchor:end;fill:#331a00"
         aria-label="ENABLED">
        <path
           id="path482"
           style="font-weight:bold;font-size:3.0480001px;font-family:'Proxima Nova';dominant-baseline:middle;text-anchor:end;fill:#331a00"
           d="m -13.467207,0.73609203 h 1.438656 V 0.36118802 h -1.00584 V -0.111252 h 0.984504 v -0.37185601 h -0.984504 v -0.44196001 h 1.00584 V -1.296924 h -1.438656 z" />
        <path
           id="path484"
           style="font-weight:bold;font-size:3.0480001px;font-family:'Proxima Nova';dominant-baseline:middle;text-anchor:end;fill:#331a00"
           d="m -10.285143,0.73609203 h 0.4175761 V -1.296924 H -10.300383 V 0.01981201 L -11.242215,-1.296924 h -0.445008 v 2.03301603 h 0.432816 v -1.36550404 z" />
        <path
           id="path486"
           style="font-weight:bold;font-size:3.0480001px;font-family:'Proxima Nova';dominant-baseline:middle;text-anchor:end;fill:#331a00"
           d="m -8.0432912,0.73609203 h 0.47244 L -8.3541872,-1.296924 h -0.542544 l -0.786384,2.03301603 h 0.475488 l 0.128016,-0.35052001 h 0.908304 z m -0.582168,-1.65811205 0.33528,0.93268803 h -0.673608 z" />
        <path
           id="path488"
           style="font-weight:bold;font-size:3.0480001px;font-family:'Proxima Nova';dominant-baseline:middle;text-anchor:end;fill:#331a00"
           d="m -7.3831134,0.73609203 h 1.1033761 c 0.387096,0 0.591312,-0.24384001 0.591312,-0.54864002 0,-0.256032 -0.173736,-0.46634401 -0.390144,-0.49987201 0.192024,-0.039624 0.35052,-0.21031201 0.35052,-0.46634402 0,-0.27127198 -0.19812,-0.51815998 -0.585216,-0.51815998 h -1.0698481 z m 0.432816,-1.21615204 v -0.44805601 h 0.542544 c 0.1463041,0 0.2377441,0.097536 0.2377441,0.222504 0,0.13106401 -0.09144,0.22555201 -0.2377441,0.22555201 z m 0,0.84734403 V -0.111252 h 0.557784 c 0.1706881,0 0.2621281,0.10972801 0.2621281,0.23774401 0,0.14630401 -0.097536,0.24079201 -0.2621281,0.24079201 z" />
        <path
           id="path490"
           style="font-weight:bold;font-size:3.0480001px;font-family:'Proxima Nova';dominant-baseline:middle;text-anchor:end;fill:#331a00"
           d="M -5.3650041,0.73609203 H -4.072652 V 0.35509202 H -4.932188 V -1.296924 h -0.4328161 z" />
        <path
           id="path492"
           style="font-weight:bold;font-size:3.0480001px;font-family:'Proxima Nova';dominant-baseline:middle;text-anchor:end;fill:#331a00"
           d="M -3.7695661,0.73609203 H -2.33091 V 0.36118802 H -3.33675 V -0.111252 h 0.984504 V -0.48310801 H -3.33675 v -0.44196001 h 1.00584 V -1.296924 h -1.4386561 z" />
        <path
           id="path494"
           style="font-weight:bold;font-size:3.0480001px;font-family:'Proxima Nova';dominant-baseline:middle;text-anchor:end;fill:#331a00"
           d="m -1.9895825,0.73609203 h 0.801624 c 0.63703201,0 1.07899202,-0.40233601 1.07899202,-1.01498403 0,-0.61264802 -0.44196001,-1.018032 -1.07899202,-1.018032 h -0.801624 z m 0.432816,-0.38100001 v -1.27101604 h 0.368808 c 0.417576,0 0.63703201,0.27736801 0.63703201,0.63703202 0,0.34442401 -0.23469601,0.63398402 -0.63703201,0.63398402 z" />
      </g>
    </g>
    <path
       id="line90"
       d="m 45.084999,26.67 v 90.17"
       style="stroke:#331a00;stroke-width:0.34999999" />
    <g
       id="g94"
       transform="translate(48.624,21.408)">
      <path
         id="circle92"
         d="M 1.0880001,0 A 1.0880001,1.0880001 0 0 1 0,1.0880001 1.0880001,1.0880001 0 0 1 -1.0880001,0 1.0880001,1.0880001 0 0 1 0,-1.0880001 1.0880001,1.0880001 0 0 1 1.0880001,0 Z"
         style="fill:#331a00;stroke:#331a00;stroke-width:0" />
    </g>
    <g
       id="g98"
       transform="translate(52.976,21.408)">
      <path
         id="circle96"
         d="M 1.0880001,0 A 1.0880001,1.0880001 0 0 1 0,1.0880001 1.0880001,1.0880001 0 0 1 -1.0880001,0 1.0880001,1.0880001 0 0 1 0,-1.0880001 1.0880001,1.0880001 0 0 1 1.0880001,0 Z"
         style="fill:#331a00;stroke:#331a00;stroke-width:0" />
    </g>
    <g
       id="g102"
       transform="translate(50.8,17.78)">
      <g
         id="text100"
         style="font-weight:bold;font-size:3.0480001px;font-family:'Proxima Nova';dominant-baseline:alphabetic;text-anchor:middle;fill:#331a00"
         aria-label="1">
        <path
           id="path500"
           style="font-weight:bold;font-size:3.0480001px;font-family:'Proxima Nova';dominant-baseline:alphabetic;text-anchor:middle;fill:#331a00"
           d="M -0.00938213,0 H 0.42648189 V -2.0330161 H 0.04852988 l -0.64008002,0.6431281 0.246888,0.25908 0.33528001,-0.344424 z" />
      </g>
    </g>
    <g
       id="g106"
       transform="translate(50.8,71.31)">
      <g
         id="text104"
         style="font-weight:bold;font-size:2.37100005px;font-family:'Proxima Nova';dominant-baseline:hanging;text-anchor:middle;fill:#331a00"
         aria-label="J">
        <path
           id="path503"
           style="font-weight:bold;font-size:2.37100005px;font-family:'Proxima Nova';dominant-baseline:hanging;text-anchor:middle;fill:#331a00"
           d="m -0.562316,1.372809 c 0.113808,0.111437 0.263181,0.154115 0.424409,0.154115 0.32482701,0 0.55718502,-0.173083 0.55718502,-0.54770104 V -0.08298506 H 0.08259601 v 1.05746602 c 0,0.15411504 -0.097211,0.25369704 -0.24658401,0.25369704 -0.109066,0 -0.18968,-0.054533 -0.251326,-0.113808 z" />
      </g>
    </g>
    <g
       id="g110"
       transform="translate(50.8,63.31)">
      <g
         id="text108"
         style="font-weight:bold;font-size:2.37100005px;font-family:'Proxima Nova';dominant-baseline:alphabetic;text-anchor:middle;fill:#331a00"
         aria-label="S">
        <path
           id="path506"
           style="font-weight:bold;font-size:2.37100005px;font-family:'Proxima Nova';dominant-baseline:alphabetic;text-anchor:middle;fill:#331a00"
           d="m -0.66341693,-0.222874 c 0.149373,0.149373 0.36750501,0.251326 0.67099302,0.251326 0.42678001,0 0.63305701,-0.218132 0.63305701,-0.50739401 0,-0.35090801 -0.33194001,-0.42915101 -0.59275001,-0.48842601 -0.18256701,-0.042678 -0.31534301,-0.075872 -0.31534301,-0.18256698 0,-0.09484 0.080614,-0.161228 0.23235801,-0.161228 0.154115,0 0.324827,0.054533 0.45286101,0.173083 l 0.187309,-0.246584 c -0.156486,-0.144631 -0.36513401,-0.220503 -0.61646001,-0.220503 -0.37224701,0 -0.59986302,0.21339 -0.59986302,0.476571 0,0.35327898 0.33194001,0.42440898 0.59037902,0.48368399 0.182567,0.042678 0.320085,0.082985 0.320085,0.201535 0,0.090098 -0.090098,0.177825 -0.275036,0.177825 -0.21813201,0 -0.39121501,-0.097211 -0.50265201,-0.21339 z" />
      </g>
    </g>
    <g
       id="g114"
       transform="translate(50.8,74.81)">
      <g
         id="text112"
         style="font-weight:bold;font-size:2.37100005px;font-family:'Proxima Nova';dominant-baseline:alphabetic;text-anchor:middle;fill:#331a00" />
    </g>
    <g
       id="g118"
       transform="translate(50.8,49.41)">
      <g
         id="text116"
         style="font-weight:bold;font-size:2.37100005px;font-family:'Proxima Nova';dominant-baseline:alphabetic;text-anchor:middle;fill:#331a00" />
    </g>
    <g
       id="g122"
       transform="translate(50.8,87.51)">
      <g
         id="text120"
         style="font-weight:bold;font-size:2.37100005px;font-family:'Proxima Nova';dominant-baseline:alphabetic;text-anchor:middle;fill:#331a00" />
    </g>
    <g
       id="g126"
       transform="translate(50.8,100.44)">
      <g
         id="text124"
         style="font-weight:bold;font-size:2.37100005px;font-family:'Proxima Nova';dominant-baseline:alphabetic;text-anchor:middle;fill:#331a00" />
    </g>
    <g
       id="g130"
       transform="translate(50.8,107.44)">
      <g
         id="text128"
         style="font-weight:bold;font-size:3.0480001px;font-family:'Proxima Nova';dominant-baseline:alphabetic;text-anchor:middle;fill:#331a00" />
    </g>
    <path
       id="line132"
       d="m 56.514999,26.67 v 90.17"
       style="stroke:#331a00;stroke-width:0.34999999" />
    <g
       id="g136"
       transform="translate(60.054,21.408)">
      <path
         id="circle134"
         d="M 1.0880001,0 A 1.0880001,1.0880001 0 0 1 0,1.0880001 1.0880001,1.0880001 0 0 1 -1.0880001,0 1.0880001,1.0880001 0 0 1 0,-1.0880001 1.0880001,1.0880001 0 0 1 1.0880001,0 Z"
         style="fill:#331a00;stroke:#331a00;stroke-width:0" />
    </g>
    <g
       id="g140"
       transform="translate(64.406,21.408)">
      <path
         id="circle138"
         d="M 1.0880001,0 A 1.0880001,1.0880001 0 0 1 0,1.0880001 1.0880001,1.0880001 0 0 1 -1.0880001,0 1.0880001,1.0880001 0 0 1 0,-1.0880001 1.0880001,1.0880001 0 0 1 1.0880001,0 Z"
         style="fill:#331a00;stroke:#331a00;stroke-width:0" />
    </g>
    <g
       id="g144"
       transform="translate(62.23,17.78)">
      <g
         id="text142"
         style="font-weight:bold;font-size:3.0480001px;font-family:'Proxima Nova';dominant-baseline:alphabetic;text-anchor:middle;fill:#331a00"
         aria-label="2">
        <path
           id="path517"
           style="font-weight:bold;font-size:3.0480001px;font-family:'Proxima Nova';dominant-baseline:alphabetic;text-anchor:middle;fill:#331a00"
           d="M -0.77054871,0 H 0.75954734 V -0.38100001 H -0.08779669 C 0.45779533,-0.76504802 0.74430734,-1.0668 0.74430734,-1.414272 c 0,-0.4053841 -0.34442401,-0.6492241 -0.77724003,-0.6492241 -0.28346401,0 -0.58521602,0.103632 -0.78333602,0.332232 l 0.246888,0.2865121 c 0.13716001,-0.1432561 0.31394401,-0.2346961 0.54254402,-0.2346961 0.17068801,0 0.33223201,0.088392 0.33223201,0.2651761 0,0.249936 -0.24384001,0.46024797 -1.07594403,1.07289599 z" />
      </g>
    </g>
    <g
       id="g148"
       transform="translate(62.23,71.31)">
      <g
         id="text146"
         style="font-weight:bold;font-size:2.37100005px;font-family:'Proxima Nova';dominant-baseline:hanging;text-anchor:middle;fill:#331a00"
         aria-label="J">
        <path
           id="path520"
           style="font-weight:bold;font-size:2.37100005px;font-family:'Proxima Nova';dominant-baseline:hanging;text-anchor:middle;fill:#331a00"
           d="m -0.562316,1.372809 c 0.113808,0.111437 0.263181,0.154115 0.424409,0.154115 0.32482701,0 0.55718502,-0.173083 0.55718502,-0.54770104 V -0.08298506 H 0.08259601 v 1.05746602 c 0,0.15411504 -0.097211,0.25369704 -0.24658401,0.25369704 -0.109066,0 -0.18968,-0.054533 -0.251326,-0.113808 z" />
      </g>
    </g>
    <g
       id="g152"
       transform="translate(62.23,63.31)">
      <g
         id="text150"
         style="font-weight:bold;font-size:2.37100005px;font-family:'Proxima Nova';dominant-baseline:alphabetic;text-anchor:middle;fill:#331a00"
         aria-label="S">
        <path
           id="path523"
           style="font-weight:bold;font-size:2.37100005px;font-family:'Proxima Nova';dominant-baseline:alphabetic;text-anchor:middle;fill:#331a00"
           d="m -0.66341693,-0.222874 c 0.149373,0.149373 0.36750501,0.251326 0.67099302,0.251326 0.42678001,0 0.63305701,-0.218132 0.63305701,-0.50739401 0,-0.35090801 -0.33194001,-0.42915101 -0.59275001,-0.48842601 -0.18256701,-0.042678 -0.31534301,-0.075872 -0.31534301,-0.18256698 0,-0.09484 0.080614,-0.161228 0.23235801,-0.161228 0.154115,0 0.324827,0.054533 0.45286101,0.173083 l 0.187309,-0.246584 c -0.156486,-0.144631 -0.36513401,-0.220503 -0.61646001,-0.220503 -0.37224701,0 -0.59986302,0.21339 -0.59986302,0.476571 0,0.35327898 0.33194001,0.42440898 0.59037902,0.48368399 0.182567,0.042678 0.320085,0.082985 0.320085,0.201535 0,0.090098 -0.090098,0.177825 -0.275036,0.177825 -0.21813201,0 -0.39121501,-0.097211 -0.50265201,-0.21339 z" />
      </g>
    </g>
    <g
       id="g156"
       transform="translate(62.23,74.81)">
      <g
         id="text154"
         style="font-weight:bold;font-size:2.37100005px;font-family:'Proxima Nova';dominant-baseline:alphabetic;text-anchor:middle;fill:#331a00" />
    </g>
    <g
       id="g160"
       transform="translate(62.23,49.41)">
      <g
         id="text158"
         style="font-weight:bold;font-size:2.37100005px;font-family:'Proxima Nova';dominant-baseline:alphabetic;text-anchor:middle;fill:#331a00" />
    </g>
    <g
       id="g164"
       transform="translate(62.23,87.51)">
      <g
         id="text162"
         style="font-weight:bold;font-size:2.37100005px;font-family:'Proxima Nova';dominant-baseline:alphabetic;text-anchor:middle;fill:#331a00" />
    </g>
    <g
       id="g168"
       transform="translate(62.23,100.44)">
      <g
         id="text166"
         style="font-weight:bold;font-size:2.37100005px;font-family:'Proxima Nova';dominant-baseline:alphabetic;text-anchor:middle;fill:#331a00" />
    </g>
    <g
       id="g172"
       transform="translate(62.23,107.44)">
      <g
         id="text170"
         style="font-weight:bold;font-size:3.0480001px;font-family:'Proxima Nova';dominant-baseline:alphabetic;text-anchor:middle;fill:#331a00" />
    </g>
    <path
       id="line174"
       d="m 67.945,26.67 v 90.17"
       style="stroke:#331a00;stroke-width:0.34999999" />
    <g
       id="g178"
       transform="translate(71.484,21.408)">
      <path
         id="circle176"
         d="M 1.0880001,0 A 1.0880001,1.0880001 0 0 1 0,1.0880001 1.0880001,1.0880001 0 0 1 -1.0880001,0 1.0880001,1.0880001 0 0 1 0,-1.0880001 1.0880001,1.0880001 0 0 1 1.0880001,0 Z"
         style="fill:#331a00;stroke:#331a00;stroke-width:0" />
    </g>
    <g
       id="g182"
       transform="translate(75.836,21.408)">
      <path
         id="circle180"
         d="M 1.0880001,0 A 1.0880001,1.0880001 0 0 1 0,1.0880001 1.0880001,1.0880001 0 0 1 -1.0880001,0 1.0880001,1.0880001 0 0 1 0,-1.0880001 1.0880001,1.0880001 0 0 1 1.0880001,0 Z"
         style="fill:#331a00;stroke:#331a00;stroke-width:0" />
    </g>
    <g
       id="g186"
       transform="translate(73.66,17.78)">
      <g
         id="text184"
         style="font-weight:bold;font-size:3.0480001px;font-family:'Proxima Nova';dominant-baseline:alphabetic;text-anchor:middle;fill:#331a00"
         aria-label="3">
        <path
           id="path534"
           style="font-weight:bold;font-size:3.0480001px;font-family:'Proxima Nova';dominant-baseline:alphabetic;text-anchor:middle;fill:#331a00"
           d="M -0.83498534,-0.28956001 C -0.68563333,-0.10668 -0.40826533,0.036576 -0.03336131,0.036576 c 0.48768001,0 0.80162402,-0.24688801 0.80162402,-0.59740802 0,-0.30480001 -0.26822401,-0.46634398 -0.47548801,-0.48767998 0.225552,-0.039624 0.44500801,-0.207264 0.44500801,-0.463296 0,-0.3383281 -0.29260801,-0.5516881 -0.76809602,-0.5516881 -0.35661601,0 -0.61264802,0.13716 -0.77724003,0.323088 l 0.21336001,0.2682241 c 0.143256,-0.1371601 0.32004001,-0.2133601 0.51816002,-0.2133601 0.21336,0 0.37795201,0.082296 0.37795201,0.2438401 0,0.1524 -0.14935201,0.225552 -0.37490401,0.225552 -0.07924801,0 -0.21640801,0 -0.25298401,-0.00305 v 0.37795197 c 0.03048,-0.003048 0.16764,-0.003048 0.25298401,-0.003048 0.283464,0 0.40843201,0.0762 0.40843201,0.24079201 0,0.15544801 -0.13716001,0.26212801 -0.38404801,0.26212801 -0.19812001,0 -0.42062402,-0.085344 -0.56083202,-0.23164801 z" />
      </g>
    </g>
    <g
       id="g190"
       transform="translate(73.66,71.31)">
      <g
         id="text188"
         style="font-weight:bold;font-size:2.37100005px;font-family:'Proxima Nova';dominant-baseline:hanging;text-anchor:middle;fill:#331a00"
         aria-label="J">
        <path
           id="path537"
           style="font-weight:bold;font-size:2.37100005px;font-family:'Proxima Nova';dominant-baseline:hanging;text-anchor:middle;fill:#331a00"
           d="m -0.562316,1.372809 c 0.113808,0.111437 0.263181,0.154115 0.424409,0.154115 0.32482701,0 0.55718502,-0.173083 0.55718502,-0.54770104 V -0.08298506 H 0.08259601 v 1.05746602 c 0,0.15411504 -0.097211,0.25369704 -0.24658401,0.25369704 -0.109066,0 -0.18968,-0.054533 -0.251326,-0.113808 z" />
      </g>
    </g>
    <g
       id="g194"
       transform="translate(73.66,63.31)">
      <g
         id="text192"
         style="font-weight:bold;font-size:2.37100005px;font-family:'Proxima Nova';dominant-baseline:alphabetic;text-anchor:middle;fill:#331a00"
         aria-label="S">
        <path
           id="path540"
           style="font-weight:bold;font-size:2.37100005px;font-family:'Proxima Nova';dominant-baseline:alphabetic;text-anchor:middle;fill:#331a00"
           d="m -0.66341693,-0.222874 c 0.149373,0.149373 0.36750501,0.251326 0.67099302,0.251326 0.42678001,0 0.63305701,-0.218132 0.63305701,-0.50739401 0,-0.35090801 -0.33194001,-0.42915101 -0.59275001,-0.48842601 -0.18256701,-0.042678 -0.31534301,-0.075872 -0.31534301,-0.18256698 0,-0.09484 0.080614,-0.161228 0.23235801,-0.161228 0.154115,0 0.324827,0.054533 0.45286101,0.173083 l 0.187309,-0.246584 c -0.156486,-0.144631 -0.36513401,-0.220503 -0.61646001,-0.220503 -0.37224701,0 -0.59986302,0.21339 -0.59986302,0.476571 0,0.35327898 0.33194001,0.42440898 0.59037902,0.48368399 0.182567,0.042678 0.320085,0.082985 0.320085,0.201535 0,0.090098 -0.090098,0.177825 -0.275036,0.177825 -0.21813201,0 -0.39121501,-0.097211 -0.50265201,-0.21339 z" />
      </g>
    </g>
    <g
       id="g198"
       transform="translate(73.66,74.81)">
      <g
         id="text196"
         style="font-weight:bold;font-size:2.37100005px;font-family:'Proxima Nova';dominant-baseline:alphabetic;text-anchor:middle;fill:#331a00" />
    </g>
    <g
       id="g202"
       transform="translate(73.66,49.41)">
      <g
         id="text200"
         style="font-weight:bold;font-size:2.37100005px;font-family:'Proxima Nova';dominant-baseline:alphabetic;text-anchor:middle;fill:#331a00" />
    </g>
    <g
       id="g206"
       transform="translate(73.66,87.51)">
      <g
         id="text204"
         style="font-weight:bold;font-size:2.37100005px;font-family:'Proxima Nova';dominant-baseline:alphabetic;text-anchor:middle;fill:#331a00" />
    </g>
    <g
       id="g210"
       transform="translate(73.66,100.44)">
      <g
         id="text208"
         style="font-weight:bold;font-size:2.37100005px;font-family:'Proxima Nova';dominant-baseline:alphabetic;text-anchor:middle;fill:#331a00" />
    </g>
    <g
       id="g214"
       transform="translate(73.66,107.44)">
      <g
         id="text212"
         style="font-weight:bold;font-size:3.0480001px;font-family:'Proxima Nova';dominant-baseline:alphabetic;text-anchor:middle;fill:#331a00" />
    </g>
    <path
       id="line216"
       d="m 79.375,26.67 v 90.17"
       style="stroke:#331a00;stroke-width:0.34999999" />
    <g
       id="g220"
       transform="translate(82.914,21.408)">
      <path
         id="circle218"
         d="M 1.0880001,0 A 1.0880001,1.0880001 0 0 1 0,1.0880001 1.0880001,1.0880001 0 0 1 -1.0880001,0 1.0880001,1.0880001 0 0 1 0,-1.0880001 1.0880001,1.0880001 0 0 1 1.0880001,0 Z"
         style="fill:#331a00;stroke:#331a00;stroke-width:0" />
    </g>
    <g
       id="g224"
       transform="translate(87.266,21.408)">
      <path
         id="circle222"
         d="M 1.0880001,0 A 1.0880001,1.0880001 0 0 1 0,1.0880001 1.0880001,1.0880001 0 0 1 -1.0880001,0 1.0880001,1.0880001 0 0 1 0,-1.0880001 1.0880001,1.0880001 0 0 1 1.0880001,0 Z"
         style="fill:#331a00;stroke:#331a00;stroke-width:0" />
    </g>
    <g
       id="g228"
       transform="translate(85.09,17.78)">
      <g
         id="text226"
         style="font-weight:bold;font-size:3.0480001px;font-family:'Proxima Nova';dominant-baseline:alphabetic;text-anchor:middle;fill:#331a00"
         aria-label="4">
        <path
           id="path551"
           style="font-weight:bold;font-size:3.0480001px;font-family:'Proxima Nova';dominant-baseline:alphabetic;text-anchor:middle;fill:#331a00"
           d="M 0.13768388,0 H 0.57049989 V -0.42062401 H 0.8326279 V -0.80162403 H 0.57049989 V -2.0330161 h -0.59740802 l -0.80772002,1.27101608 v 0.34137601 h 0.97231203 z m 0,-1.6489681 v 0.84734407 h -0.54864002 z" />
      </g>
    </g>
    <g
       id="g232"
       transform="translate(85.09,71.31)">
      <g
         id="text230"
         style="font-weight:bold;font-size:2.37100005px;font-family:'Proxima Nova';dominant-baseline:hanging;text-anchor:middle;fill:#331a00"
         aria-label="J">
        <path
           id="path554"
           style="font-weight:bold;font-size:2.37100005px;font-family:'Proxima Nova';dominant-baseline:hanging;text-anchor:middle;fill:#331a00"
           d="m -0.562316,1.372809 c 0.113808,0.111437 0.263181,0.154115 0.424409,0.154115 0.32482701,0 0.55718502,-0.173083 0.55718502,-0.54770104 V -0.08298506 H 0.08259601 v 1.05746602 c 0,0.15411504 -0.097211,0.25369704 -0.24658401,0.25369704 -0.109066,0 -0.18968,-0.054533 -0.251326,-0.113808 z" />
      </g>
    </g>
    <g
       id="g236"
       transform="translate(85.09,63.31)">
      <g
         id="text234"
         style="font-weight:bold;font-size:2.37100005px;font-family:'Proxima Nova';dominant-baseline:alphabetic;text-anchor:middle;fill:#331a00"
         aria-label="S">
        <path
           id="path557"
           style="font-weight:bold;font-size:2.37100005px;font-family:'Proxima Nova';dominant-baseline:alphabetic;text-anchor:middle;fill:#331a00"
           d="m -0.66341693,-0.222874 c 0.149373,0.149373 0.36750501,0.251326 0.67099302,0.251326 0.42678001,0 0.63305701,-0.218132 0.63305701,-0.50739401 0,-0.35090801 -0.33194001,-0.42915101 -0.59275001,-0.48842601 -0.18256701,-0.042678 -0.31534301,-0.075872 -0.31534301,-0.18256698 0,-0.09484 0.080614,-0.161228 0.23235801,-0.161228 0.154115,0 0.324827,0.054533 0.45286101,0.173083 l 0.187309,-0.246584 c -0.156486,-0.144631 -0.36513401,-0.220503 -0.61646001,-0.220503 -0.37224701,0 -0.59986302,0.21339 -0.59986302,0.476571 0,0.35327898 0.33194001,0.42440898 0.59037902,0.48368399 0.182567,0.042678 0.320085,0.082985 0.320085,0.201535 0,0.090098 -0.090098,0.177825 -0.275036,0.177825 -0.21813201,0 -0.39121501,-0.097211 -0.50265201,-0.21339 z" />
      </g>
    </g>
    <g
       id="g240"
       transform="translate(85.09,74.81)">
      <g
         id="text238"
         style="font-weight:bold;font-size:2.37100005px;font-family:'Proxima Nova';dominant-baseline:alphabetic;text-anchor:middle;fill:#331a00" />
    </g>
    <g
       id="g244"
       transform="translate(85.09,49.41)">
      <g
         id="text242"
         style="font-weight:bold;font-size:2.37100005px;font-family:'Proxima Nova';dominant-baseline:alphabetic;text-anchor:middle;fill:#331a00" />
    </g>
    <g
       id="g248"
       transform="translate(85.09,87.51)">
      <g
         id="text246"
         style="font-weight:bold;font-size:2.37100005px;font-family:'Proxima Nova';dominant-baseline:alphabetic;text-anchor:middle;fill:#331a00" />
    </g>
    <g
       id="g252"
       transform="translate(85.09,100.44)">
      <g
         id="text250"
         style="font-weight:bold;font-size:2.37100005px;font-family:'Proxima Nova';dominant-baseline:alphabetic;text-anchor:middle;fill:#331a00" />
    </g>
    <g
       id="g256"
       transform="translate(85.09,107.44)">
      <g
         id="text254"
         style="font-weight:bold;font-size:3.0480001px;font-family:'Proxima Nova';dominant-baseline:alphabetic;text-anchor:middle;fill:#331a00" />
    </g>
    <path
       id="line258"
       d="m 90.805,26.67 v 90.17"
       style="stroke:#331a00;stroke-width:0.34999999" />
    <g
       id="g262"
       transform="translate(101.6,58.61)">
      <g
         id="text260"
         style="font-weight:bold;font-size:2.37100005px;font-family:'Proxima Nova';dominant-baseline:hanging;text-anchor:middle;fill:#331a00"
         aria-label="BI">
        <path
           id="path566"
           style="font-weight:bold;font-size:2.37100005px;font-family:'Proxima Nova';dominant-baseline:hanging;text-anchor:middle;fill:#331a00"
           d="m -0.95260484,1.498472 h 0.85830202 c 0.301117,0 0.45997401,-0.18968 0.45997401,-0.42678 0,-0.19916404 -0.13514701,-0.36276304 -0.30348801,-0.38884404 0.149373,-0.030823 0.27266501,-0.16359901 0.27266501,-0.36276301 0,-0.211019 -0.15411501,-0.40307001 -0.45523201,-0.40307001 h -0.83222102 z m 0.33668201,-0.94602905 v -0.348537 h 0.42203801 c 0.113808,0 0.184938,0.075872 0.184938,0.173083 0,0.101953 -0.07113,0.175454 -0.184938,0.175454 z m 0,0.65913805 V 0.83933396 h 0.43389301 c 0.132776,0 0.203906,0.085356 0.203906,0.18493804 0,0.113808 -0.075872,0.187309 -0.203906,0.187309 z" />
        <path
           id="path568"
           style="font-weight:bold;font-size:2.37100005px;font-family:'Proxima Nova';dominant-baseline:hanging;text-anchor:middle;fill:#331a00"
           d="M 0.61725657,1.498472 H 0.95393858 V -0.08298506 H 0.61725657 Z" />
      </g>
    </g>
    <g
       id="g266"
       transform="translate(101.6,50.61)">
      <g
         id="text264"
         style="font-weight:bold;font-size:2.37100005px;font-family:'Proxima Nova';dominant-baseline:alphabetic;text-anchor:middle;fill:#331a00"
         aria-label="UNI">
        <path
           id="path571"
           style="font-weight:bold;font-size:2.37100005px;font-family:'Proxima Nova';dominant-baseline:alphabetic;text-anchor:middle;fill:#331a00"
           d="m -1.8949847,-0.63068601 c 0,0.388844 0.225245,0.65913801 0.708929,0.65913801 0.47894198,0 0.70418699,-0.26792301 0.70418699,-0.66150901 V -1.581457 h -0.34142401 v 0.93891599 c 0,0.220503 -0.120921,0.372247 -0.36276298,0.372247 -0.246584,0 -0.367505,-0.151744 -0.367505,-0.372247 V -1.581457 h -0.341424 z" />
        <path
           id="path573"
           style="font-weight:bold;font-size:2.37100005px;font-family:'Proxima Nova';dominant-baseline:alphabetic;text-anchor:middle;fill:#331a00"
           d="M 0.92298582,0 H 1.2478128 V -1.581457 H 0.91113082 v 1.02427199 L 0.1784918,-1.581457 H -0.16767421 V 0 H 0.1690078 v -1.062208 z" />
        <path
           id="path575"
           style="font-weight:bold;font-size:2.37100005px;font-family:'Proxima Nova';dominant-baseline:alphabetic;text-anchor:middle;fill:#331a00"
           d="m 1.5596363,0 h 0.336682 v -1.581457 h -0.336682 z" />
      </g>
    </g>
    <g
       id="g270"
       transform="translate(101.6,98.21)">
      <g
         id="text268"
         style="font-weight:bold;font-size:2.37100005px;font-family:'Proxima Nova';dominant-baseline:hanging;text-anchor:middle;fill:#331a00"
         aria-label="1">
        <path
           id="path578"
           style="font-weight:bold;font-size:2.37100005px;font-family:'Proxima Nova';dominant-baseline:hanging;text-anchor:middle;fill:#331a00"
           d="m -0.00729823,1.498472 h 0.339053 v -1.58145706 h -0.294004 l -0.49791001,0.50028101 0.192051,0.20153501 0.26081001,-0.26792301 z" />
      </g>
    </g>
    <g
       id="g274"
       transform="translate(101.6,87.21)">
      <g
         id="text272"
         style="font-weight:bold;font-size:2.37100005px;font-family:'Proxima Nova';dominant-baseline:alphabetic;text-anchor:middle;fill:#331a00"
         aria-label="100">
        <path
           id="path581"
           style="font-weight:bold;font-size:2.37100005px;font-family:'Proxima Nova';dominant-baseline:alphabetic;text-anchor:middle;fill:#331a00"
           d="m -1.4752807,0 h 0.339053 v -1.581457 h -0.294004 l -0.49791,0.500281 0.192051,0.20153498 0.26081,-0.26792298 z" />
        <path
           id="path583"
           style="font-weight:bold;font-size:2.37100005px;font-family:'Proxima Nova';dominant-baseline:alphabetic;text-anchor:middle;fill:#331a00"
           d="m -0.90112822,-0.78954302 c 0,0.40781201 0.201535,0.81799502 0.65439601,0.81799502 0.45049001,0 0.65439602,-0.41018301 0.65439602,-0.81799502 0,-0.40781198 -0.20390601,-0.81562398 -0.65439602,-0.81562398 -0.45286101,0 -0.65439601,0.407812 -0.65439601,0.81562398 z m 0.96499702,0 c 0,0.29163301 -0.085356,0.51924901 -0.31060101,0.51924901 -0.227616,0 -0.312972,-0.227616 -0.312972,-0.51924901 0,-0.29163298 0.085356,-0.51687798 0.312972,-0.51687798 0.22524501,0 0.31060101,0.225245 0.31060101,0.51687798 z" />
        <path
           id="path585"
           style="font-weight:bold;font-size:2.37100005px;font-family:'Proxima Nova';dominant-baseline:alphabetic;text-anchor:middle;fill:#331a00"
           d="m 0.56685413,-0.78954302 c 0,0.40781201 0.20153501,0.81799502 0.65439597,0.81799502 0.4504901,0 0.6543961,-0.41018301 0.6543961,-0.81799502 0,-0.40781198 -0.203906,-0.81562398 -0.6543961,-0.81562398 -0.45286096,0 -0.65439597,0.407812 -0.65439597,0.81562398 z m 0.96499707,0 c 0,0.29163301 -0.085356,0.51924901 -0.3106011,0.51924901 -0.22761596,0 -0.31297196,-0.227616 -0.31297196,-0.51924901 0,-0.29163298 0.085356,-0.51687798 0.31297196,-0.51687798 0.225245,0 0.3106011,0.225245 0.3106011,0.51687798 z" />
      </g>
    </g>
    <g
       id="g278"
       transform="translate(104.1,92.71)">
      <g
         id="text276"
         style="font-weight:bold;font-size:2.37100005px;font-family:'Proxima Nova';dominant-baseline:middle;text-anchor:start;fill:#331a00"
         aria-label="10">
        <path
           id="path588"
           style="font-weight:bold;font-size:2.37100005px;font-family:'Proxima Nova';dominant-baseline:middle;text-anchor:start;fill:#331a00"
           d="M 0.47894201,0.57259649 H 0.81799502 V -1.0088605 H 0.52399101 l -0.49791001,0.50028097 0.192051,0.201535 0.26081001,-0.267923 z" />
        <path
           id="path590"
           style="font-weight:bold;font-size:2.37100005px;font-family:'Proxima Nova';dominant-baseline:middle;text-anchor:start;fill:#331a00"
           d="m 1.0530945,-0.21694653 c 0,0.40781201 0.201535,0.81799502 0.654396,0.81799502 0.45049,0 0.654396,-0.41018301 0.654396,-0.81799502 0,-0.40781201 -0.203906,-0.81562397 -0.654396,-0.81562397 -0.452861,0 -0.654396,0.40781196 -0.654396,0.81562397 z m 0.964997,0 c 0,0.29163301 -0.085356,0.51924901 -0.310601,0.51924901 -0.227616,0 -0.312972,-0.227616 -0.312972,-0.51924901 0,-0.291633 0.085356,-0.51687801 0.312972,-0.51687801 0.225245,0 0.310601,0.22524501 0.310601,0.51687801 z" />
      </g>
    </g>
    <path
       id="rect280"
       d="M 97.400002,103.86 H 105.8 c 0.554,0 1,0.446 1,1 v 10.98 c 0,0.554 -0.446,1 -1,1 h -8.399998 c -0.554,0 -1,-0.446 -1,-1 v -10.98 c 0,-0.554 0.446,-1 1,-1 z"
       style="fill:#331a00;stroke:#331a00;stroke-width:0.34999999" />
    <g
       id="g284"
       transform="translate(101.6,106.44)">
      <g
         id="text282"
         style="font-weight:bold;font-size:2.37100005px;font-family:'Proxima Nova';dominant-baseline:alphabetic;text-anchor:middle;fill:#efedeb"
         aria-label="OUT">
        <path
           id="path594"
           style="font-weight:bold;font-size:2.37100005px;font-family:'Proxima Nova';dominant-baseline:alphabetic;text-anchor:middle;fill:#efedeb"
           d="m -2.3806878,-0.78954302 c 0,0.47657101 0.348537,0.81799502 0.825108,0.81799502 0.478942,0 0.82747903,-0.34142401 0.82747903,-0.81799502 0,-0.47657098 -0.34853703,-0.81799498 -0.82747903,-0.81799498 -0.476571,0 -0.825108,0.341424 -0.825108,0.81799498 z m 1.306421,0 c 0,0.29400401 -0.18968,0.51924901 -0.481313,0.51924901 -0.291633,0 -0.478942,-0.225245 -0.478942,-0.51924901 0,-0.29637498 0.187309,-0.51924898 0.478942,-0.51924898 0.291633,0 0.481313,0.222874 0.481313,0.51924898 z" />
        <path
           id="path596"
           style="font-weight:bold;font-size:2.37100005px;font-family:'Proxima Nova';dominant-baseline:alphabetic;text-anchor:middle;fill:#efedeb"
           d="m -0.48951892,-0.63068601 c 0,0.388844 0.22524501,0.65913801 0.70892902,0.65913801 0.47894201,0 0.70418701,-0.26792301 0.70418701,-0.66150901 V -1.581457 H 0.5821731 v 0.93891599 c 0,0.220503 -0.120921,0.372247 -0.362763,0.372247 -0.24658401,0 -0.36750501,-0.151744 -0.36750501,-0.372247 V -1.581457 h -0.34142401 z" />
        <path
           id="path598"
           style="font-weight:bold;font-size:2.37100005px;font-family:'Proxima Nova';dominant-baseline:alphabetic;text-anchor:middle;fill:#efedeb"
           d="m 1.6029255,0 h 0.339053 v -1.285082 h 0.459974 v -0.296375 h -1.261372 v 0.296375 h 0.462345 z" />
      </g>
    </g>
    <g
       id="g288"
       transform="translate(101.6,106.44)">
      <g
         id="text286"
         style="font-weight:bold;font-size:2.37100005px;font-family:'Proxima Nova';dominant-baseline:alphabetic;text-anchor:middle;fill:#efedeb"
         aria-label="OUT">
        <path
           id="path601"
           style="font-weight:bold;font-size:2.37100005px;font-family:'Proxima Nova';dominant-baseline:alphabetic;text-anchor:middle;fill:#efedeb"
           d="m -2.3806878,-0.78954302 c 0,0.47657101 0.348537,0.81799502 0.825108,0.81799502 0.478942,0 0.82747903,-0.34142401 0.82747903,-0.81799502 0,-0.47657098 -0.34853703,-0.81799498 -0.82747903,-0.81799498 -0.476571,0 -0.825108,0.341424 -0.825108,0.81799498 z m 1.306421,0 c 0,0.29400401 -0.18968,0.51924901 -0.481313,0.51924901 -0.291633,0 -0.478942,-0.225245 -0.478942,-0.51924901 0,-0.29637498 0.187309,-0.51924898 0.478942,-0.51924898 0.291633,0 0.481313,0.222874 0.481313,0.51924898 z" />
        <path
           id="path603"
           style="font-weight:bold;font-size:2.37100005px;font-family:'Proxima Nova';dominant-baseline:alphabetic;text-anchor:middle;fill:#efedeb"
           d="m -0.48951892,-0.63068601 c 0,0.388844 0.22524501,0.65913801 0.70892902,0.65913801 0.47894201,0 0.70418701,-0.26792301 0.70418701,-0.66150901 V -1.581457 H 0.5821731 v 0.93891599 c 0,0.220503 -0.120921,0.372247 -0.362763,0.372247 -0.24658401,0 -0.36750501,-0.151744 -0.36750501,-0.372247 V -1.581457 h -0.34142401 z" />
        <path
           id="path605"
           style="font-weight:bold;font-size:2.37100005px;font-family:'Proxima Nova';dominant-baseline:alphabetic;text-anchor:middle;fill:#efedeb"
           d="m 1.6029255,0 h 0.339053 v -1.285082 h 0.459974 v -0.296375 h -1.261372 v 0.296375 h 0.462345 z" />
      </g>
    </g>
  </g>
</svg>
