<?xml version="1.0" encoding="UTF-8" standalone="no"?>
<svg
   xmlns:dc="http://purl.org/dc/elements/1.1/"
   xmlns:cc="http://creativecommons.org/ns#"
   xmlns:rdf="http://www.w3.org/1999/02/22-rdf-syntax-ns#"
   xmlns:svg="http://www.w3.org/2000/svg"
   xmlns="http://www.w3.org/2000/svg"
   id="svg206"
   height="379.429"
   width="135.000"
   version="1.1">
  <metadata
     id="metadata212">
    <rdf:RDF>
      <cc:Work
         rdf:about="">
        <dc:format>image/svg+xml</dc:format>
        <dc:type
           rdf:resource="http://purl.org/dc/dcmitype/StillImage" />
      </cc:Work>
    </rdf:RDF>
  </metadata>
  <defs
     id="defs210" />
  <g
     id="g204"
     transform="scale(2.953)">
    <path
       id="rect2"
       d="M 0,0 H 45.720001 V 128.5 H 0 Z"
       style="fill:#f0f0ff;stroke:#000099;stroke-width:1" />
    <g
       id="g6"
       transform="translate(22.86,9)">
      <g
         id="text4"
         style="font-weight:bold;font-size:4.06400013px;font-family:'Proxima Nova';dominant-baseline:alphabetic;text-anchor:middle;fill:#000099"
         aria-label="FLOGIC">
        <path
           id="path215"
           style="font-weight:bold;font-size:4.06400013px;font-family:'Proxima Nova';dominant-baseline:alphabetic;text-anchor:middle;fill:#000099"
           d="m -6.8715575,0 h 0.577088 v -1.121664 h 1.3126721 v -0.5080001 h -1.3126721 v -0.573024 h 1.3411201 v -0.508 h -1.9182081 z" />
        <path
           id="path217"
           style="font-weight:bold;font-size:4.06400013px;font-family:'Proxima Nova';dominant-baseline:alphabetic;text-anchor:middle;fill:#000099"
           d="m -4.5538075,0 h 1.7231361 V -0.50800002 H -3.9767195 V -2.7106881 h -0.577088 z" />
        <path
           id="path219"
           style="font-weight:bold;font-size:4.06400013px;font-family:'Proxima Nova';dominant-baseline:alphabetic;text-anchor:middle;fill:#000099"
           d="m -2.6677308,-1.353312 c 0,0.81686398 0.597408,1.40208 1.4142721,1.40208 0.820928,0 1.41833602,-0.58521602 1.41833602,-1.40208 0,-0.8168641 -0.59740802,-1.4020801 -1.41833602,-1.4020801 -0.8168641,0 -1.4142721,0.585216 -1.4142721,1.4020801 z m 2.2392641,0 c 0,0.50393597 -0.32512001,0.89001599 -0.824992,0.89001599 -0.499872,0 -0.8209281,-0.38608002 -0.8209281,-0.89001599 0,-0.5080001 0.3210561,-0.8900161 0.8209281,-0.8900161 0.49987199,0 0.824992,0.382016 0.824992,0.8900161 z" />
        <path
           id="path221"
           style="font-weight:bold;font-size:4.06400013px;font-family:'Proxima Nova';dominant-baseline:alphabetic;text-anchor:middle;fill:#000099"
           d="m 0.44376949,-1.353312 c 0,0.85343998 0.65024001,1.406144 1.44272001,1.406144 0.4917441,0 0.8778241,-0.2032 1.1541761,-0.51206401 V -1.499616 H 1.7483135 v 0.50393597 h 0.7152641 v 0.32512001 c -0.109728,0.1016 -0.3373121,0.20726401 -0.5770881,0.20726401 -0.491744,0 -0.849376,-0.37795202 -0.849376,-0.89001599 0,-0.5120641 0.357632,-0.8900161 0.849376,-0.8900161 0.288544,0 0.5201921,0.16256 0.6421121,0.353568 l 0.479552,-0.260096 c -0.2032,-0.321056 -0.556768,-0.605536 -1.1216641,-0.605536 -0.79248,0 -1.44272001,0.544576 -1.44272001,1.4020801 z" />
        <path
           id="path223"
           style="font-weight:bold;font-size:4.06400013px;font-family:'Proxima Nova';dominant-baseline:alphabetic;text-anchor:middle;fill:#000099"
           d="m 3.5027549,0 h 0.577088 v -2.7106881 h -0.577088 z" />
        <path
           id="path225"
           style="font-weight:bold;font-size:4.06400013px;font-family:'Proxima Nova';dominant-baseline:alphabetic;text-anchor:middle;fill:#000099"
           d="m 5.9266769,0.048768 c 0.597408,0 0.938784,-0.32918401 1.133856,-0.66649602 l -0.495808,-0.23977601 c -0.113792,0.22352001 -0.357632,0.39420802 -0.638048,0.39420802 -0.491744,0 -0.849376,-0.37795202 -0.849376,-0.89001599 0,-0.5120641 0.357632,-0.8900161 0.849376,-0.8900161 0.280416,0 0.524256,0.174752 0.638048,0.394208 l 0.495808,-0.24384 c -0.191008,-0.337312 -0.536448,-0.662432 -1.133856,-0.662432 -0.8128,0 -1.44272,0.56896 -1.44272,1.4020801 0,0.83311998 0.62992,1.40208 1.44272,1.40208 z" />
      </g>
    </g>
    <g
       id="g10"
       transform="translate(22.86,119.5)">
      <g
         id="text8"
         style="font-weight:bold;font-size:4.06400013px;font-family:'Proxima Nova';dominant-baseline:hanging;text-anchor:middle;fill:#000099"
         aria-label="DHE">
        <path
           id="path228"
           style="font-weight:bold;font-size:4.06400013px;font-family:'Proxima Nova';dominant-baseline:hanging;text-anchor:middle;fill:#000099"
           d="m -3.8632449,2.5684481 h 1.0688321 c 0.849376,0 1.438656,-0.5364481 1.438656,-1.3533121 0,-0.816864 -0.58928,-1.35737602 -1.438656,-1.35737602 h -1.0688321 z m 0.577088,-0.508 V 0.36576 h 0.4917441 c 0.556768,0 0.849376,0.36982401 0.849376,0.849376 0,0.459232 -0.312928,0.8453121 -0.849376,0.8453121 z" />
        <path
           id="path230"
           style="font-weight:bold;font-size:4.06400013px;font-family:'Proxima Nova';dominant-baseline:hanging;text-anchor:middle;fill:#000099"
           d="M 0.91500319,2.5684481 H 1.4961552 V -0.14224002 H 0.91500319 V 0.92252801 H -0.36515685 V -0.14224002 H -0.94224487 V 2.5684481 h 0.57708802 V 1.430528 h 1.28016004 z" />
        <path
           id="path232"
           style="font-weight:bold;font-size:4.06400013px;font-family:'Proxima Nova';dominant-baseline:hanging;text-anchor:middle;fill:#000099"
           d="m 2.0263802,2.5684481 h 1.9182081 v -0.508 H 2.6034682 V 1.446784 H 3.9161403 V 0.93878401 H 2.6034682 V 0.36576 H 3.9445883 V -0.14224002 H 2.0263802 Z" />
      </g>
    </g>
    <g
       id="g14"
       transform="translate(7.62,17.66)">
      <g
         id="text12"
         style="font-weight:bold;font-size:3.0480001px;font-family:'Proxima Nova';dominant-baseline:alphabetic;text-anchor:middle;fill:#000099"
         aria-label="A">
        <path
           id="path235"
           style="font-weight:bold;font-size:3.0480001px;font-family:'Proxima Nova';dominant-baseline:alphabetic;text-anchor:middle;fill:#000099"
           d="M 0.56145114,0 H 1.0552272 L 0.27189113,-2.0330161 H -0.27065288 L -1.0570369,0 h 0.49377601 l 0.128016,-0.34442401 H 0.43648314 Z M 6.1912502e-4,-1.6002001 0.31761114,-0.72542402 h -0.63398403 z" />
      </g>
    </g>
    <g
       id="g18"
       transform="translate(16.51,18.86)">
      <g
         id="text16"
         style="font-weight:bold;font-size:2.37100005px;font-family:'Proxima Nova';dominant-baseline:alphabetic;text-anchor:middle;fill:#000099"
         aria-label="¬">
        <path
           id="path238"
           style="font-weight:bold;font-size:2.37100005px;font-family:'Proxima Nova';dominant-baseline:alphabetic;text-anchor:middle;fill:#000099"
           d="M 0.51495157,-0.47657101 V -1.109628 h -1.05746602 v 0.18967998 h 0.86541502 v 0.44337701 z" />
      </g>
    </g>
    <g
       id="g22"
       transform="translate(29.21,18.86)">
      <g
         id="text20"
         style="font-weight:bold;font-size:2.37100005px;font-family:'Proxima Nova';dominant-baseline:alphabetic;text-anchor:middle;fill:#000099"
         aria-label="¬">
        <path
           id="path241"
           style="font-weight:bold;font-size:2.37100005px;font-family:'Proxima Nova';dominant-baseline:alphabetic;text-anchor:middle;fill:#000099"
           d="M 0.51495157,-0.47657101 V -1.109628 h -1.05746602 v 0.18967998 h 0.86541502 v 0.44337701 z" />
      </g>
    </g>
    <g
       id="g26"
       transform="translate(38.1,17.66)">
      <g
         id="text24"
         style="font-weight:bold;font-size:3.0480001px;font-family:'Proxima Nova';dominant-baseline:alphabetic;text-anchor:middle;fill:#000099"
         aria-label="B">
        <path
           id="path244"
           style="font-weight:bold;font-size:3.0480001px;font-family:'Proxima Nova';dominant-baseline:alphabetic;text-anchor:middle;fill:#000099"
           d="m -0.80788671,0 h 1.10337603 c 0.38709601,0 0.59131202,-0.24384001 0.59131202,-0.54864002 0,-0.25603201 -0.173736,-0.46634398 -0.39014401,-0.49987198 0.192024,-0.039624 0.35052001,-0.210312 0.35052001,-0.466344 0,-0.2712721 -0.19812001,-0.5181601 -0.58521602,-0.5181601 h -1.06984803 z m 0.43281601,-1.2192 v -0.4419601 h 0.54254402 c 0.146304,0 0.23774401,0.094488 0.23774401,0.2225041 0,0.128016 -0.09144,0.219456 -0.23774401,0.219456 z m 0,0.84429599 v -0.47244002 h 0.55778402 c 0.170688,0 0.26212801,0.10972801 0.26212801,0.23774401 0,0.14630401 -0.097536,0.23469601 -0.26212801,0.23469601 z" />
      </g>
    </g>
    <path
       id="rect28"
       d="M 3.4200001,30.32 H 11.82 c 0.554,0 1,0.446 1,1 v 10.979999 c 0,0.554 -0.446,1 -1,1 H 3.4200001 c -0.554,0 -1,-0.446 -1,-1 V 31.32 c 0,-0.554 0.446,-1 1,-1 z"
       style="fill:#000099;stroke:#000099;stroke-width:0.34999999" />
    <g
       id="g32"
       transform="translate(7.62,32.9)">
      <g
         id="text30"
         style="font-weight:bold;font-size:2.37100005px;font-family:'Proxima Nova';dominant-baseline:alphabetic;text-anchor:middle;fill:#f0f0ff"
         aria-label="MAX">
        <path
           id="path248"
           style="font-weight:bold;font-size:2.37100005px;font-family:'Proxima Nova';dominant-baseline:alphabetic;text-anchor:middle;fill:#f0f0ff"
           d="m -1.0847696,0 h 0.33905304 V -1.581457 H -1.2199166 l -0.384102,0.95551299 -0.384102,-0.95551299 h -0.471829 V 0 h 0.336682 V -1.107257 L -1.6775196,0 h 0.147002 l 0.445748,-1.107257 z" />
        <path
           id="path250"
           style="font-weight:bold;font-size:2.37100005px;font-family:'Proxima Nova';dominant-baseline:alphabetic;text-anchor:middle;fill:#f0f0ff"
           d="M 0.65902692,0 H 1.0431289 L 0.43378192,-1.581457 H 0.01174391 L -0.59997411,0 h 0.38410201 l 0.099582,-0.26792301 h 0.67810602 z m -0.43626401,-1.244775 0.24658401,0.68047699 h -0.49316801 z" />
        <path
           id="path252"
           style="font-weight:bold;font-size:2.37100005px;font-family:'Proxima Nova';dominant-baseline:alphabetic;text-anchor:middle;fill:#f0f0ff"
           d="m 2.2205529,0 h 0.40307 L 2.0498409,-0.81325302 2.5880579,-1.581457 h -0.405441 l -0.358021,0.540588 -0.362763,-0.540588 H 1.0611339 L 1.5993509,-0.81088202 1.0255689,0 h 0.400699 l 0.398328,-0.57852401 z" />
      </g>
    </g>
    <g
       id="g36"
       transform="translate(7.62,32.9)">
      <g
         id="text34"
         style="font-weight:bold;font-size:2.37100005px;font-family:'Proxima Nova';dominant-baseline:alphabetic;text-anchor:middle;fill:#f0f0ff"
         aria-label="MAX">
        <path
           id="path255"
           style="font-weight:bold;font-size:2.37100005px;font-family:'Proxima Nova';dominant-baseline:alphabetic;text-anchor:middle;fill:#f0f0ff"
           d="m -1.0847696,0 h 0.33905304 V -1.581457 H -1.2199166 l -0.384102,0.95551299 -0.384102,-0.95551299 h -0.471829 V 0 h 0.336682 V -1.107257 L -1.6775196,0 h 0.147002 l 0.445748,-1.107257 z" />
        <path
           id="path257"
           style="font-weight:bold;font-size:2.37100005px;font-family:'Proxima Nova';dominant-baseline:alphabetic;text-anchor:middle;fill:#f0f0ff"
           d="M 0.65902692,0 H 1.0431289 L 0.43378192,-1.581457 H 0.01174391 L -0.59997411,0 h 0.38410201 l 0.099582,-0.26792301 h 0.67810602 z m -0.43626401,-1.244775 0.24658401,0.68047699 h -0.49316801 z" />
        <path
           id="path259"
           style="font-weight:bold;font-size:2.37100005px;font-family:'Proxima Nova';dominant-baseline:alphabetic;text-anchor:middle;fill:#f0f0ff"
           d="m 2.2205529,0 h 0.40307 L 2.0498409,-0.81325302 2.5880579,-1.581457 h -0.405441 l -0.358021,0.540588 -0.362763,-0.540588 H 1.0611339 L 1.5993509,-0.81088202 1.0255689,0 h 0.400699 l 0.398328,-0.57852401 z" />
      </g>
    </g>
    <path
       id="rect38"
       d="m 12.31,30.32 h 8.4 c 0.554,0 1,0.446 1,1 v 10.979999 c 0,0.554 -0.446,1 -1,1 h -8.4 c -0.554,0 -1,-0.446 -1,-1 V 31.32 c 0,-0.554 0.446,-1 1,-1 z"
       style="fill:#000099;stroke:#000099;stroke-width:0.34999999" />
    <g
       id="g42"
       transform="translate(16.51,32.9)">
      <g
         id="text40"
         style="font-weight:bold;font-size:2.37100005px;font-family:'Proxima Nova';dominant-baseline:alphabetic;text-anchor:middle;fill:#f0f0ff"
         aria-label="¬">
        <path
           id="path263"
           style="font-weight:bold;font-size:2.37100005px;font-family:'Proxima Nova';dominant-baseline:alphabetic;text-anchor:middle;fill:#f0f0ff"
           d="M 0.51495157,-0.47657101 V -1.109628 h -1.05746602 v 0.18967998 h 0.86541502 v 0.44337701 z" />
      </g>
    </g>
    <g
       id="g46"
       transform="translate(16.51,32.9)">
      <g
         id="text44"
         style="font-weight:bold;font-size:2.37100005px;font-family:'Proxima Nova';dominant-baseline:alphabetic;text-anchor:middle;fill:#f0f0ff"
         aria-label="¬">
        <path
           id="path266"
           style="font-weight:bold;font-size:2.37100005px;font-family:'Proxima Nova';dominant-baseline:alphabetic;text-anchor:middle;fill:#f0f0ff"
           d="M 0.51495157,-0.47657101 V -1.109628 h -1.05746602 v 0.18967998 h 0.86541502 v 0.44337701 z" />
      </g>
    </g>
    <path
       id="rect48"
       d="m 25.01,30.32 h 8.4 c 0.554,0 1,0.446 1,1 v 10.979999 c 0,0.554 -0.446,1 -1,1 h -8.4 c -0.554,0 -1,-0.446 -1,-1 V 31.32 c 0,-0.554 0.446,-1 1,-1 z"
       style="fill:#000099;stroke:#000099;stroke-width:0.34999999" />
    <g
       id="g52"
       transform="translate(29.21,32.9)">
      <g
         id="text50"
         style="font-weight:bold;font-size:2.37100005px;font-family:'Proxima Nova';dominant-baseline:alphabetic;text-anchor:middle;fill:#f0f0ff"
         aria-label="¬">
        <path
           id="path270"
           style="font-weight:bold;font-size:2.37100005px;font-family:'Proxima Nova';dominant-baseline:alphabetic;text-anchor:middle;fill:#f0f0ff"
           d="M 0.51495157,-0.47657101 V -1.109628 h -1.05746602 v 0.18967998 h 0.86541502 v 0.44337701 z" />
      </g>
    </g>
    <g
       id="g56"
       transform="translate(29.21,32.9)">
      <g
         id="text54"
         style="font-weight:bold;font-size:2.37100005px;font-family:'Proxima Nova';dominant-baseline:alphabetic;text-anchor:middle;fill:#f0f0ff"
         aria-label="¬">
        <path
           id="path273"
           style="font-weight:bold;font-size:2.37100005px;font-family:'Proxima Nova';dominant-baseline:alphabetic;text-anchor:middle;fill:#f0f0ff"
           d="M 0.51495157,-0.47657101 V -1.109628 h -1.05746602 v 0.18967998 h 0.86541502 v 0.44337701 z" />
      </g>
    </g>
    <path
       id="rect58"
       d="m 33.900002,30.32 h 8.399999 c 0.554,0 1,0.446 1,1 v 10.979999 c 0,0.554 -0.446,1 -1,1 h -8.399999 c -0.554,0 -1,-0.446 -1,-1 V 31.32 c 0,-0.554 0.446,-1 1,-1 z"
       style="fill:#000099;stroke:#000099;stroke-width:0.34999999" />
    <g
       id="g62"
       transform="translate(38.1,32.9)">
      <g
         id="text60"
         style="font-weight:bold;font-size:2.37100005px;font-family:'Proxima Nova';dominant-baseline:alphabetic;text-anchor:middle;fill:#f0f0ff"
         aria-label="MIN">
        <path
           id="path277"
           style="font-weight:bold;font-size:2.37100005px;font-family:'Proxima Nova';dominant-baseline:alphabetic;text-anchor:middle;fill:#f0f0ff"
           d="m -0.67030765,0 h 0.33905301 V -1.581457 H -0.80545465 L -1.1895567,-0.62594401 -1.5736587,-1.581457 h -0.471829 V 0 h 0.336682 V -1.107257 L -1.2630577,0 h 0.147002 l 0.44574805,-1.107257 z" />
        <path
           id="path279"
           style="font-weight:bold;font-size:2.37100005px;font-family:'Proxima Nova';dominant-baseline:alphabetic;text-anchor:middle;fill:#f0f0ff"
           d="M -0.01717118,0 H 0.31951083 V -1.581457 H -0.01717118 Z" />
        <path
           id="path281"
           style="font-weight:bold;font-size:2.37100005px;font-family:'Proxima Nova';dominant-baseline:alphabetic;text-anchor:middle;fill:#f0f0ff"
           d="M 1.721809,0 H 2.046636 V -1.581457 H 1.709954 v 0.99344899 L 0.97731503,-1.581457 H 0.63114902 V 0 h 0.33668201 v -1.031385 z" />
      </g>
    </g>
    <g
       id="g66"
       transform="translate(38.1,32.9)">
      <g
         id="text64"
         style="font-weight:bold;font-size:2.37100005px;font-family:'Proxima Nova';dominant-baseline:alphabetic;text-anchor:middle;fill:#f0f0ff"
         aria-label="MIN">
        <path
           id="path284"
           style="font-weight:bold;font-size:2.37100005px;font-family:'Proxima Nova';dominant-baseline:alphabetic;text-anchor:middle;fill:#f0f0ff"
           d="m -0.67030765,0 h 0.33905301 V -1.581457 H -0.80545465 L -1.1895567,-0.62594401 -1.5736587,-1.581457 h -0.471829 V 0 h 0.336682 V -1.107257 L -1.2630577,0 h 0.147002 l 0.44574805,-1.107257 z" />
        <path
           id="path286"
           style="font-weight:bold;font-size:2.37100005px;font-family:'Proxima Nova';dominant-baseline:alphabetic;text-anchor:middle;fill:#f0f0ff"
           d="M -0.01717118,0 H 0.31951083 V -1.581457 H -0.01717118 Z" />
        <path
           id="path288"
           style="font-weight:bold;font-size:2.37100005px;font-family:'Proxima Nova';dominant-baseline:alphabetic;text-anchor:middle;fill:#f0f0ff"
           d="M 1.721809,0 H 2.046636 V -1.581457 H 1.709954 v 0.99344899 L 0.97731503,-1.581457 H 0.63114902 V 0 h 0.33668201 v -1.031385 z" />
      </g>
    </g>
    <path
       id="rect68"
       d="M 3.4200001,45.560001 H 11.82 c 0.554,0 1,0.446 1,1 v 10.98 c 0,0.554 -0.446,1 -1,1 H 3.4200001 c -0.554,0 -1,-0.446 -1,-1 v -10.98 c 0,-0.554 0.446,-1 1,-1 z"
       style="fill:#000099;stroke:#000099;stroke-width:0.34999999" />
    <g
       id="g72"
       transform="translate(7.62,48.14)">
      <g
         id="text70"
         style="font-weight:bold;font-size:2.37100005px;font-family:'Proxima Nova';dominant-baseline:alphabetic;text-anchor:middle;fill:#f0f0ff"
         aria-label="AND">
        <path
           id="path292"
           style="font-weight:bold;font-size:2.37100005px;font-family:'Proxima Nova';dominant-baseline:alphabetic;text-anchor:middle;fill:#f0f0ff"
           d="m -1.2789878,0 h 0.38410199 L -1.5042328,-1.581457 h -0.422038 L -2.5379888,0 h 0.384102 l 0.099582,-0.26792301 h 0.678106 z m -0.436264,-1.244775 0.246584,0.68047699 h -0.493168 z" />
        <path
           id="path294"
           style="font-weight:bold;font-size:2.37100005px;font-family:'Proxima Nova';dominant-baseline:alphabetic;text-anchor:middle;fill:#f0f0ff"
           d="m 0.34181304,0 h 0.324827 v -1.581457 h -0.336682 v 0.99344899 L -0.40268098,-1.581457 H -0.74884699 V 0 h 0.33668201 v -1.031385 z" />
        <path
           id="path296"
           style="font-weight:bold;font-size:2.37100005px;font-family:'Proxima Nova';dominant-baseline:alphabetic;text-anchor:middle;fill:#f0f0ff"
           d="M 0.97846355,0 H 1.6020366 c 0.495539,0 0.839334,-0.31297201 0.839334,-0.78954302 0,-0.47657098 -0.343795,-0.79191398 -0.839334,-0.79191398 H 0.97846355 Z M 1.3151456,-0.29637501 V -1.285082 h 0.286891 c 0.324827,0 0.495539,0.215761 0.495539,0.49553898 0,0.26792301 -0.182567,0.49316801 -0.495539,0.49316801 z" />
      </g>
    </g>
    <g
       id="g76"
       transform="translate(7.62,48.14)">
      <g
         id="text74"
         style="font-weight:bold;font-size:2.37100005px;font-family:'Proxima Nova';dominant-baseline:alphabetic;text-anchor:middle;fill:#f0f0ff"
         aria-label="AND">
        <path
           id="path299"
           style="font-weight:bold;font-size:2.37100005px;font-family:'Proxima Nova';dominant-baseline:alphabetic;text-anchor:middle;fill:#f0f0ff"
           d="m -1.2789878,0 h 0.38410199 L -1.5042328,-1.581457 h -0.422038 L -2.5379888,0 h 0.384102 l 0.099582,-0.26792301 h 0.678106 z m -0.436264,-1.244775 0.246584,0.68047699 h -0.493168 z" />
        <path
           id="path301"
           style="font-weight:bold;font-size:2.37100005px;font-family:'Proxima Nova';dominant-baseline:alphabetic;text-anchor:middle;fill:#f0f0ff"
           d="m 0.34181304,0 h 0.324827 v -1.581457 h -0.336682 v 0.99344899 L -0.40268098,-1.581457 H -0.74884699 V 0 h 0.33668201 v -1.031385 z" />
        <path
           id="path303"
           style="font-weight:bold;font-size:2.37100005px;font-family:'Proxima Nova';dominant-baseline:alphabetic;text-anchor:middle;fill:#f0f0ff"
           d="M 0.97846355,0 H 1.6020366 c 0.495539,0 0.839334,-0.31297201 0.839334,-0.78954302 0,-0.47657098 -0.343795,-0.79191398 -0.839334,-0.79191398 H 0.97846355 Z M 1.3151456,-0.29637501 V -1.285082 h 0.286891 c 0.324827,0 0.495539,0.215761 0.495539,0.49553898 0,0.26792301 -0.182567,0.49316801 -0.495539,0.49316801 z" />
      </g>
    </g>
    <path
       id="rect78"
       d="m 12.31,45.560001 h 8.4 c 0.554,0 1,0.446 1,1 v 10.98 c 0,0.554 -0.446,1 -1,1 h -8.4 c -0.554,0 -1,-0.446 -1,-1 v -10.98 c 0,-0.554 0.446,-1 1,-1 z"
       style="fill:#000099;stroke:#000099;stroke-width:0.34999999" />
    <g
       id="g82"
       transform="translate(16.51,48.14)">
      <g
         id="text80"
         style="font-weight:bold;font-size:2.37100005px;font-family:'Proxima Nova';dominant-baseline:alphabetic;text-anchor:middle;fill:#f0f0ff"
         aria-label="¬">
        <path
           id="path307"
           style="font-weight:bold;font-size:2.37100005px;font-family:'Proxima Nova';dominant-baseline:alphabetic;text-anchor:middle;fill:#f0f0ff"
           d="M 0.51495157,-0.47657101 V -1.109628 h -1.05746602 v 0.18967998 h 0.86541502 v 0.44337701 z" />
      </g>
    </g>
    <g
       id="g86"
       transform="translate(16.51,48.14)">
      <g
         id="text84"
         style="font-weight:bold;font-size:2.37100005px;font-family:'Proxima Nova';dominant-baseline:alphabetic;text-anchor:middle;fill:#f0f0ff"
         aria-label="¬">
        <path
           id="path310"
           style="font-weight:bold;font-size:2.37100005px;font-family:'Proxima Nova';dominant-baseline:alphabetic;text-anchor:middle;fill:#f0f0ff"
           d="M 0.51495157,-0.47657101 V -1.109628 h -1.05746602 v 0.18967998 h 0.86541502 v 0.44337701 z" />
      </g>
    </g>
    <path
       id="rect88"
       d="m 25.01,45.560001 h 8.4 c 0.554,0 1,0.446 1,1 v 10.98 c 0,0.554 -0.446,1 -1,1 h -8.4 c -0.554,0 -1,-0.446 -1,-1 v -10.98 c 0,-0.554 0.446,-1 1,-1 z"
       style="fill:#000099;stroke:#000099;stroke-width:0.34999999" />
    <g
       id="g92"
       transform="translate(29.21,48.14)">
      <g
         id="text90"
         style="font-weight:bold;font-size:2.37100005px;font-family:'Proxima Nova';dominant-baseline:alphabetic;text-anchor:middle;fill:#f0f0ff"
         aria-label="¬">
        <path
           id="path314"
           style="font-weight:bold;font-size:2.37100005px;font-family:'Proxima Nova';dominant-baseline:alphabetic;text-anchor:middle;fill:#f0f0ff"
           d="M 0.51495157,-0.47657101 V -1.109628 h -1.05746602 v 0.18967998 h 0.86541502 v 0.44337701 z" />
      </g>
    </g>
    <g
       id="g96"
       transform="translate(29.21,48.14)">
      <g
         id="text94"
         style="font-weight:bold;font-size:2.37100005px;font-family:'Proxima Nova';dominant-baseline:alphabetic;text-anchor:middle;fill:#f0f0ff"
         aria-label="¬">
        <path
           id="path317"
           style="font-weight:bold;font-size:2.37100005px;font-family:'Proxima Nova';dominant-baseline:alphabetic;text-anchor:middle;fill:#f0f0ff"
           d="M 0.51495157,-0.47657101 V -1.109628 h -1.05746602 v 0.18967998 h 0.86541502 v 0.44337701 z" />
      </g>
    </g>
    <path
       id="rect98"
       d="m 33.900002,45.560001 h 8.399999 c 0.554,0 1,0.446 1,1 v 10.98 c 0,0.554 -0.446,1 -1,1 h -8.399999 c -0.554,0 -1,-0.446 -1,-1 v -10.98 c 0,-0.554 0.446,-1 1,-1 z"
       style="fill:#000099;stroke:#000099;stroke-width:0.34999999" />
    <g
       id="g102"
       transform="translate(38.1,48.14)">
      <g
         id="text100"
         style="font-weight:bold;font-size:2.37100005px;font-family:'Proxima Nova';dominant-baseline:alphabetic;text-anchor:middle;fill:#f0f0ff"
         aria-label="OR">
        <path
           id="path321"
           style="font-weight:bold;font-size:2.37100005px;font-family:'Proxima Nova';dominant-baseline:alphabetic;text-anchor:middle;fill:#f0f0ff"
           d="m -1.5888108,-0.78954302 c 0,0.47657101 0.348537,0.81799502 0.82510798,0.81799502 0.47894201,0 0.82747902,-0.34142401 0.82747902,-0.81799502 0,-0.47657098 -0.34853701,-0.81799498 -0.82747902,-0.81799498 -0.47657098,0 -0.82510798,0.341424 -0.82510798,0.81799498 z m 1.30642099,0 c 0,0.29400401 -0.18968,0.51924901 -0.48131301,0.51924901 -0.29163298,0 -0.47894198,-0.225245 -0.47894198,-0.51924901 0,-0.29637498 0.187309,-0.51924898 0.47894198,-0.51924898 0.29163301,0 0.48131301,0.222874 0.48131301,0.51924898 z" />
        <path
           id="path323"
           style="font-weight:bold;font-size:2.37100005px;font-family:'Proxima Nova';dominant-baseline:alphabetic;text-anchor:middle;fill:#f0f0ff"
           d="m 1.1962251,0 h 0.386473 l -0.35565,-0.60223401 c 0.170712,-0.040307 0.346166,-0.18968001 0.346166,-0.46945799 0,-0.294004 -0.201535,-0.509765 -0.531104,-0.509765 H 0.30235805 V 0 h 0.33668201 v -0.56192701 h 0.246584 z m 0.033194,-1.071692 c 0,0.13277598 -0.101953,0.21338998 -0.23710003,0.21338998 H 0.63904006 V -1.285082 h 0.35327901 c 0.13514703,0 0.23710003,0.080614 0.23710003,0.21339 z" />
      </g>
    </g>
    <g
       id="g106"
       transform="translate(38.1,48.14)">
      <g
         id="text104"
         style="font-weight:bold;font-size:2.37100005px;font-family:'Proxima Nova';dominant-baseline:alphabetic;text-anchor:middle;fill:#f0f0ff"
         aria-label="OR">
        <path
           id="path326"
           style="font-weight:bold;font-size:2.37100005px;font-family:'Proxima Nova';dominant-baseline:alphabetic;text-anchor:middle;fill:#f0f0ff"
           d="m -1.5888108,-0.78954302 c 0,0.47657101 0.348537,0.81799502 0.82510798,0.81799502 0.47894201,0 0.82747902,-0.34142401 0.82747902,-0.81799502 0,-0.47657098 -0.34853701,-0.81799498 -0.82747902,-0.81799498 -0.47657098,0 -0.82510798,0.341424 -0.82510798,0.81799498 z m 1.30642099,0 c 0,0.29400401 -0.18968,0.51924901 -0.48131301,0.51924901 -0.29163298,0 -0.47894198,-0.225245 -0.47894198,-0.51924901 0,-0.29637498 0.187309,-0.51924898 0.47894198,-0.51924898 0.29163301,0 0.48131301,0.222874 0.48131301,0.51924898 z" />
        <path
           id="path328"
           style="font-weight:bold;font-size:2.37100005px;font-family:'Proxima Nova';dominant-baseline:alphabetic;text-anchor:middle;fill:#f0f0ff"
           d="m 1.1962251,0 h 0.386473 l -0.35565,-0.60223401 c 0.170712,-0.040307 0.346166,-0.18968001 0.346166,-0.46945799 0,-0.294004 -0.201535,-0.509765 -0.531104,-0.509765 H 0.30235805 V 0 h 0.33668201 v -0.56192701 h 0.246584 z m 0.033194,-1.071692 c 0,0.13277598 -0.101953,0.21338998 -0.23710003,0.21338998 H 0.63904006 V -1.285082 h 0.35327901 c 0.13514703,0 0.23710003,0.080614 0.23710003,0.21339 z" />
      </g>
    </g>
    <g
       id="g110"
       transform="translate(7.62,68.46)">
      <g
         id="text108"
         style="font-weight:bold;font-size:3.0480001px;font-family:'Proxima Nova';dominant-baseline:alphabetic;text-anchor:middle;fill:#000099"
         aria-label="A">
        <path
           id="path331"
           style="font-weight:bold;font-size:3.0480001px;font-family:'Proxima Nova';dominant-baseline:alphabetic;text-anchor:middle;fill:#000099"
           d="M 0.56145114,0 H 1.0552272 L 0.27189113,-2.0330161 H -0.27065288 L -1.0570369,0 h 0.49377601 l 0.128016,-0.34442401 H 0.43648314 Z M 6.1912502e-4,-1.6002001 0.31761114,-0.72542402 h -0.63398403 z" />
      </g>
    </g>
    <g
       id="g114"
       transform="translate(16.51,69.66)">
      <g
         id="text112"
         style="font-weight:bold;font-size:2.37100005px;font-family:'Proxima Nova';dominant-baseline:alphabetic;text-anchor:middle;fill:#000099"
         aria-label="¬">
        <path
           id="path334"
           style="font-weight:bold;font-size:2.37100005px;font-family:'Proxima Nova';dominant-baseline:alphabetic;text-anchor:middle;fill:#000099"
           d="M 0.51495157,-0.47657101 V -1.109628 h -1.05746602 v 0.18967998 h 0.86541502 v 0.44337701 z" />
      </g>
    </g>
    <g
       id="g118"
       transform="translate(29.21,69.66)">
      <g
         id="text116"
         style="font-weight:bold;font-size:2.37100005px;font-family:'Proxima Nova';dominant-baseline:alphabetic;text-anchor:middle;fill:#000099"
         aria-label="¬">
        <path
           id="path337"
           style="font-weight:bold;font-size:2.37100005px;font-family:'Proxima Nova';dominant-baseline:alphabetic;text-anchor:middle;fill:#000099"
           d="M 0.51495157,-0.47657101 V -1.109628 h -1.05746602 v 0.18967998 h 0.86541502 v 0.44337701 z" />
      </g>
    </g>
    <g
       id="g122"
       transform="translate(38.1,68.46)">
      <g
         id="text120"
         style="font-weight:bold;font-size:3.0480001px;font-family:'Proxima Nova';dominant-baseline:alphabetic;text-anchor:middle;fill:#000099"
         aria-label="B">
        <path
           id="path340"
           style="font-weight:bold;font-size:3.0480001px;font-family:'Proxima Nova';dominant-baseline:alphabetic;text-anchor:middle;fill:#000099"
           d="m -0.80788671,0 h 1.10337603 c 0.38709601,0 0.59131202,-0.24384001 0.59131202,-0.54864002 0,-0.25603201 -0.173736,-0.46634398 -0.39014401,-0.49987198 0.192024,-0.039624 0.35052001,-0.210312 0.35052001,-0.466344 0,-0.2712721 -0.19812001,-0.5181601 -0.58521602,-0.5181601 h -1.06984803 z m 0.43281601,-1.2192 v -0.4419601 h 0.54254402 c 0.146304,0 0.23774401,0.094488 0.23774401,0.2225041 0,0.128016 -0.09144,0.219456 -0.23774401,0.219456 z m 0,0.84429599 v -0.47244002 h 0.55778402 c 0.170688,0 0.26212801,0.10972801 0.26212801,0.23774401 0,0.14630401 -0.097536,0.23469601 -0.26212801,0.23469601 z" />
      </g>
    </g>
    <path
       id="rect124"
       d="M 3.4200001,81.120003 H 11.82 c 0.554,0 1,0.446 1,1 v 10.979999 c 0,0.554 -0.446,1 -1,1 H 3.4200001 c -0.554,0 -1,-0.446 -1,-1 V 82.120003 c 0,-0.554 0.446,-1 1,-1 z"
       style="fill:#000099;stroke:#000099;stroke-width:0.34999999" />
    <g
       id="g128"
       transform="translate(7.62,83.7)">
      <g
         id="text126"
         style="font-weight:bold;font-size:2.37100005px;font-family:'Proxima Nova';dominant-baseline:alphabetic;text-anchor:middle;fill:#f0f0ff"
         aria-label="MAX">
        <path
           id="path344"
           style="font-weight:bold;font-size:2.37100005px;font-family:'Proxima Nova';dominant-baseline:alphabetic;text-anchor:middle;fill:#f0f0ff"
           d="m -1.0847696,0 h 0.33905304 V -1.581457 H -1.2199166 l -0.384102,0.95551299 -0.384102,-0.95551299 h -0.471829 V 0 h 0.336682 V -1.107257 L -1.6775196,0 h 0.147002 l 0.445748,-1.107257 z" />
        <path
           id="path346"
           style="font-weight:bold;font-size:2.37100005px;font-family:'Proxima Nova';dominant-baseline:alphabetic;text-anchor:middle;fill:#f0f0ff"
           d="M 0.65902692,0 H 1.0431289 L 0.43378192,-1.581457 H 0.01174391 L -0.59997411,0 h 0.38410201 l 0.099582,-0.26792301 h 0.67810602 z m -0.43626401,-1.244775 0.24658401,0.68047699 h -0.49316801 z" />
        <path
           id="path348"
           style="font-weight:bold;font-size:2.37100005px;font-family:'Proxima Nova';dominant-baseline:alphabetic;text-anchor:middle;fill:#f0f0ff"
           d="m 2.2205529,0 h 0.40307 L 2.0498409,-0.81325302 2.5880579,-1.581457 h -0.405441 l -0.358021,0.540588 -0.362763,-0.540588 H 1.0611339 L 1.5993509,-0.81088202 1.0255689,0 h 0.400699 l 0.398328,-0.57852401 z" />
      </g>
    </g>
    <g
       id="g132"
       transform="translate(7.62,83.7)">
      <g
         id="text130"
         style="font-weight:bold;font-size:2.37100005px;font-family:'Proxima Nova';dominant-baseline:alphabetic;text-anchor:middle;fill:#f0f0ff"
         aria-label="MAX">
        <path
           id="path351"
           style="font-weight:bold;font-size:2.37100005px;font-family:'Proxima Nova';dominant-baseline:alphabetic;text-anchor:middle;fill:#f0f0ff"
           d="m -1.0847696,0 h 0.33905304 V -1.581457 H -1.2199166 l -0.384102,0.95551299 -0.384102,-0.95551299 h -0.471829 V 0 h 0.336682 V -1.107257 L -1.6775196,0 h 0.147002 l 0.445748,-1.107257 z" />
        <path
           id="path353"
           style="font-weight:bold;font-size:2.37100005px;font-family:'Proxima Nova';dominant-baseline:alphabetic;text-anchor:middle;fill:#f0f0ff"
           d="M 0.65902692,0 H 1.0431289 L 0.43378192,-1.581457 H 0.01174391 L -0.59997411,0 h 0.38410201 l 0.099582,-0.26792301 h 0.67810602 z m -0.43626401,-1.244775 0.24658401,0.68047699 h -0.49316801 z" />
        <path
           id="path355"
           style="font-weight:bold;font-size:2.37100005px;font-family:'Proxima Nova';dominant-baseline:alphabetic;text-anchor:middle;fill:#f0f0ff"
           d="m 2.2205529,0 h 0.40307 L 2.0498409,-0.81325302 2.5880579,-1.581457 h -0.405441 l -0.358021,0.540588 -0.362763,-0.540588 H 1.0611339 L 1.5993509,-0.81088202 1.0255689,0 h 0.400699 l 0.398328,-0.57852401 z" />
      </g>
    </g>
    <path
       id="rect134"
       d="m 12.31,81.120003 h 8.4 c 0.554,0 1,0.446 1,1 v 10.979999 c 0,0.554 -0.446,1 -1,1 h -8.4 c -0.554,0 -1,-0.446 -1,-1 V 82.120003 c 0,-0.554 0.446,-1 1,-1 z"
       style="fill:#000099;stroke:#000099;stroke-width:0.34999999" />
    <g
       id="g138"
       transform="translate(16.51,83.7)">
      <g
         id="text136"
         style="font-weight:bold;font-size:2.37100005px;font-family:'Proxima Nova';dominant-baseline:alphabetic;text-anchor:middle;fill:#f0f0ff"
         aria-label="¬">
        <path
           id="path359"
           style="font-weight:bold;font-size:2.37100005px;font-family:'Proxima Nova';dominant-baseline:alphabetic;text-anchor:middle;fill:#f0f0ff"
           d="M 0.51495157,-0.47657101 V -1.109628 h -1.05746602 v 0.18967998 h 0.86541502 v 0.44337701 z" />
      </g>
    </g>
    <g
       id="g142"
       transform="translate(16.51,83.7)">
      <g
         id="text140"
         style="font-weight:bold;font-size:2.37100005px;font-family:'Proxima Nova';dominant-baseline:alphabetic;text-anchor:middle;fill:#f0f0ff"
         aria-label="¬">
        <path
           id="path362"
           style="font-weight:bold;font-size:2.37100005px;font-family:'Proxima Nova';dominant-baseline:alphabetic;text-anchor:middle;fill:#f0f0ff"
           d="M 0.51495157,-0.47657101 V -1.109628 h -1.05746602 v 0.18967998 h 0.86541502 v 0.44337701 z" />
      </g>
    </g>
    <path
       id="rect144"
       d="m 25.01,81.120003 h 8.4 c 0.554,0 1,0.446 1,1 v 10.979999 c 0,0.554 -0.446,1 -1,1 h -8.4 c -0.554,0 -1,-0.446 -1,-1 V 82.120003 c 0,-0.554 0.446,-1 1,-1 z"
       style="fill:#000099;stroke:#000099;stroke-width:0.34999999" />
    <g
       id="g148"
       transform="translate(29.21,83.7)">
      <g
         id="text146"
         style="font-weight:bold;font-size:2.37100005px;font-family:'Proxima Nova';dominant-baseline:alphabetic;text-anchor:middle;fill:#f0f0ff"
         aria-label="¬">
        <path
           id="path366"
           style="font-weight:bold;font-size:2.37100005px;font-family:'Proxima Nova';dominant-baseline:alphabetic;text-anchor:middle;fill:#f0f0ff"
           d="M 0.51495157,-0.47657101 V -1.109628 h -1.05746602 v 0.18967998 h 0.86541502 v 0.44337701 z" />
      </g>
    </g>
    <g
       id="g152"
       transform="translate(29.21,83.7)">
      <g
         id="text150"
         style="font-weight:bold;font-size:2.37100005px;font-family:'Proxima Nova';dominant-baseline:alphabetic;text-anchor:middle;fill:#f0f0ff"
         aria-label="¬">
        <path
           id="path369"
           style="font-weight:bold;font-size:2.37100005px;font-family:'Proxima Nova';dominant-baseline:alphabetic;text-anchor:middle;fill:#f0f0ff"
           d="M 0.51495157,-0.47657101 V -1.109628 h -1.05746602 v 0.18967998 h 0.86541502 v 0.44337701 z" />
      </g>
    </g>
    <path
       id="rect154"
       d="m 33.900002,81.120003 h 8.399999 c 0.554,0 1,0.446 1,1 v 10.979999 c 0,0.554 -0.446,1 -1,1 h -8.399999 c -0.554,0 -1,-0.446 -1,-1 V 82.120003 c 0,-0.554 0.446,-1 1,-1 z"
       style="fill:#000099;stroke:#000099;stroke-width:0.34999999" />
    <g
       id="g158"
       transform="translate(38.1,83.7)">
      <g
         id="text156"
         style="font-weight:bold;font-size:2.37100005px;font-family:'Proxima Nova';dominant-baseline:alphabetic;text-anchor:middle;fill:#f0f0ff"
         aria-label="MIN">
        <path
           id="path373"
           style="font-weight:bold;font-size:2.37100005px;font-family:'Proxima Nova';dominant-baseline:alphabetic;text-anchor:middle;fill:#f0f0ff"
           d="m -0.67030765,0 h 0.33905301 V -1.581457 H -0.80545465 L -1.1895567,-0.62594401 -1.5736587,-1.581457 h -0.471829 V 0 h 0.336682 V -1.107257 L -1.2630577,0 h 0.147002 l 0.44574805,-1.107257 z" />
        <path
           id="path375"
           style="font-weight:bold;font-size:2.37100005px;font-family:'Proxima Nova';dominant-baseline:alphabetic;text-anchor:middle;fill:#f0f0ff"
           d="M -0.01717118,0 H 0.31951083 V -1.581457 H -0.01717118 Z" />
        <path
           id="path377"
           style="font-weight:bold;font-size:2.37100005px;font-family:'Proxima Nova';dominant-baseline:alphabetic;text-anchor:middle;fill:#f0f0ff"
           d="M 1.721809,0 H 2.046636 V -1.581457 H 1.709954 v 0.99344899 L 0.97731503,-1.581457 H 0.63114902 V 0 h 0.33668201 v -1.031385 z" />
      </g>
    </g>
    <g
       id="g162"
       transform="translate(38.1,83.7)">
      <g
         id="text160"
         style="font-weight:bold;font-size:2.37100005px;font-family:'Proxima Nova';dominant-baseline:alphabetic;text-anchor:middle;fill:#f0f0ff"
         aria-label="MIN">
        <path
           id="path380"
           style="font-weight:bold;font-size:2.37100005px;font-family:'Proxima Nova';dominant-baseline:alphabetic;text-anchor:middle;fill:#f0f0ff"
           d="m -0.67030765,0 h 0.33905301 V -1.581457 H -0.80545465 L -1.1895567,-0.62594401 -1.5736587,-1.581457 h -0.471829 V 0 h 0.336682 V -1.107257 L -1.2630577,0 h 0.147002 l 0.44574805,-1.107257 z" />
        <path
           id="path382"
           style="font-weight:bold;font-size:2.37100005px;font-family:'Proxima Nova';dominant-baseline:alphabetic;text-anchor:middle;fill:#f0f0ff"
           d="M -0.01717118,0 H 0.31951083 V -1.581457 H -0.01717118 Z" />
        <path
           id="path384"
           style="font-weight:bold;font-size:2.37100005px;font-family:'Proxima Nova';dominant-baseline:alphabetic;text-anchor:middle;fill:#f0f0ff"
           d="M 1.721809,0 H 2.046636 V -1.581457 H 1.709954 v 0.99344899 L 0.97731503,-1.581457 H 0.63114902 V 0 h 0.33668201 v -1.031385 z" />
      </g>
    </g>
    <path
       id="rect164"
       d="M 3.4200001,96.360001 H 11.82 c 0.554,0 1,0.446 1,1 V 108.34 c 0,0.554 -0.446,1 -1,1 H 3.4200001 c -0.554,0 -1,-0.446 -1,-1 V 97.360001 c 0,-0.554 0.446,-1 1,-1 z"
       style="fill:#000099;stroke:#000099;stroke-width:0.34999999" />
    <g
       id="g168"
       transform="translate(7.62,98.94)">
      <g
         id="text166"
         style="font-weight:bold;font-size:2.37100005px;font-family:'Proxima Nova';dominant-baseline:alphabetic;text-anchor:middle;fill:#f0f0ff"
         aria-label="AND">
        <path
           id="path388"
           style="font-weight:bold;font-size:2.37100005px;font-family:'Proxima Nova';dominant-baseline:alphabetic;text-anchor:middle;fill:#f0f0ff"
           d="m -1.2789878,0 h 0.38410199 L -1.5042328,-1.581457 h -0.422038 L -2.5379888,0 h 0.384102 l 0.099582,-0.26792301 h 0.678106 z m -0.436264,-1.244775 0.246584,0.68047699 h -0.493168 z" />
        <path
           id="path390"
           style="font-weight:bold;font-size:2.37100005px;font-family:'Proxima Nova';dominant-baseline:alphabetic;text-anchor:middle;fill:#f0f0ff"
           d="m 0.34181304,0 h 0.324827 v -1.581457 h -0.336682 v 0.99344899 L -0.40268098,-1.581457 H -0.74884699 V 0 h 0.33668201 v -1.031385 z" />
        <path
           id="path392"
           style="font-weight:bold;font-size:2.37100005px;font-family:'Proxima Nova';dominant-baseline:alphabetic;text-anchor:middle;fill:#f0f0ff"
           d="M 0.97846355,0 H 1.6020366 c 0.495539,0 0.839334,-0.31297201 0.839334,-0.78954302 0,-0.47657098 -0.343795,-0.79191398 -0.839334,-0.79191398 H 0.97846355 Z M 1.3151456,-0.29637501 V -1.285082 h 0.286891 c 0.324827,0 0.495539,0.215761 0.495539,0.49553898 0,0.26792301 -0.182567,0.49316801 -0.495539,0.49316801 z" />
      </g>
    </g>
    <g
       id="g172"
       transform="translate(7.62,98.94)">
      <g
         id="text170"
         style="font-weight:bold;font-size:2.37100005px;font-family:'Proxima Nova';dominant-baseline:alphabetic;text-anchor:middle;fill:#f0f0ff"
         aria-label="AND">
        <path
           id="path395"
           style="font-weight:bold;font-size:2.37100005px;font-family:'Proxima Nova';dominant-baseline:alphabetic;text-anchor:middle;fill:#f0f0ff"
           d="m -1.2789878,0 h 0.38410199 L -1.5042328,-1.581457 h -0.422038 L -2.5379888,0 h 0.384102 l 0.099582,-0.26792301 h 0.678106 z m -0.436264,-1.244775 0.246584,0.68047699 h -0.493168 z" />
        <path
           id="path397"
           style="font-weight:bold;font-size:2.37100005px;font-family:'Proxima Nova';dominant-baseline:alphabetic;text-anchor:middle;fill:#f0f0ff"
           d="m 0.34181304,0 h 0.324827 v -1.581457 h -0.336682 v 0.99344899 L -0.40268098,-1.581457 H -0.74884699 V 0 h 0.33668201 v -1.031385 z" />
        <path
           id="path399"
           style="font-weight:bold;font-size:2.37100005px;font-family:'Proxima Nova';dominant-baseline:alphabetic;text-anchor:middle;fill:#f0f0ff"
           d="M 0.97846355,0 H 1.6020366 c 0.495539,0 0.839334,-0.31297201 0.839334,-0.78954302 0,-0.47657098 -0.343795,-0.79191398 -0.839334,-0.79191398 H 0.97846355 Z M 1.3151456,-0.29637501 V -1.285082 h 0.286891 c 0.324827,0 0.495539,0.215761 0.495539,0.49553898 0,0.26792301 -0.182567,0.49316801 -0.495539,0.49316801 z" />
      </g>
    </g>
    <path
       id="rect174"
       d="m 12.31,96.360001 h 8.4 c 0.554,0 1,0.446 1,1 V 108.34 c 0,0.554 -0.446,1 -1,1 h -8.4 c -0.554,0 -1,-0.446 -1,-1 V 97.360001 c 0,-0.554 0.446,-1 1,-1 z"
       style="fill:#000099;stroke:#000099;stroke-width:0.34999999" />
    <g
       id="g178"
       transform="translate(16.51,98.94)">
      <g
         id="text176"
         style="font-weight:bold;font-size:2.37100005px;font-family:'Proxima Nova';dominant-baseline:alphabetic;text-anchor:middle;fill:#f0f0ff"
         aria-label="¬">
        <path
           id="path403"
           style="font-weight:bold;font-size:2.37100005px;font-family:'Proxima Nova';dominant-baseline:alphabetic;text-anchor:middle;fill:#f0f0ff"
           d="M 0.51495157,-0.47657101 V -1.109628 h -1.05746602 v 0.18967998 h 0.86541502 v 0.44337701 z" />
      </g>
    </g>
    <g
       id="g182"
       transform="translate(16.51,98.94)">
      <g
         id="text180"
         style="font-weight:bold;font-size:2.37100005px;font-family:'Proxima Nova';dominant-baseline:alphabetic;text-anchor:middle;fill:#f0f0ff"
         aria-label="¬">
        <path
           id="path406"
           style="font-weight:bold;font-size:2.37100005px;font-family:'Proxima Nova';dominant-baseline:alphabetic;text-anchor:middle;fill:#f0f0ff"
           d="M 0.51495157,-0.47657101 V -1.109628 h -1.05746602 v 0.18967998 h 0.86541502 v 0.44337701 z" />
      </g>
    </g>
    <path
       id="rect184"
       d="m 25.01,96.360001 h 8.4 c 0.554,0 1,0.446 1,1 V 108.34 c 0,0.554 -0.446,1 -1,1 h -8.4 c -0.554,0 -1,-0.446 -1,-1 V 97.360001 c 0,-0.554 0.446,-1 1,-1 z"
       style="fill:#000099;stroke:#000099;stroke-width:0.34999999" />
    <g
       id="g188"
       transform="translate(29.21,98.94)">
      <g
         id="text186"
         style="font-weight:bold;font-size:2.37100005px;font-family:'Proxima Nova';dominant-baseline:alphabetic;text-anchor:middle;fill:#f0f0ff"
         aria-label="¬">
        <path
           id="path410"
           style="font-weight:bold;font-size:2.37100005px;font-family:'Proxima Nova';dominant-baseline:alphabetic;text-anchor:middle;fill:#f0f0ff"
           d="M 0.51495157,-0.47657101 V -1.109628 h -1.05746602 v 0.18967998 h 0.86541502 v 0.44337701 z" />
      </g>
    </g>
    <g
       id="g192"
       transform="translate(29.21,98.94)">
      <g
         id="text190"
         style="font-weight:bold;font-size:2.37100005px;font-family:'Proxima Nova';dominant-baseline:alphabetic;text-anchor:middle;fill:#f0f0ff"
         aria-label="¬">
        <path
           id="path413"
           style="font-weight:bold;font-size:2.37100005px;font-family:'Proxima Nova';dominant-baseline:alphabetic;text-anchor:middle;fill:#f0f0ff"
           d="M 0.51495157,-0.47657101 V -1.109628 h -1.05746602 v 0.18967998 h 0.86541502 v 0.44337701 z" />
      </g>
    </g>
    <path
       id="rect194"
       d="m 33.900002,96.360001 h 8.399999 c 0.554,0 1,0.446 1,1 V 108.34 c 0,0.554 -0.446,1 -1,1 h -8.399999 c -0.554,0 -1,-0.446 -1,-1 V 97.360001 c 0,-0.554 0.446,-1 1,-1 z"
       style="fill:#000099;stroke:#000099;stroke-width:0.34999999" />
    <g
       id="g198"
       transform="translate(38.1,98.94)">
      <g
         id="text196"
         style="font-weight:bold;font-size:2.37100005px;font-family:'Proxima Nova';dominant-baseline:alphabetic;text-anchor:middle;fill:#f0f0ff"
         aria-label="OR">
        <path
           id="path417"
           style="font-weight:bold;font-size:2.37100005px;font-family:'Proxima Nova';dominant-baseline:alphabetic;text-anchor:middle;fill:#f0f0ff"
           d="m -1.5888108,-0.78954302 c 0,0.47657101 0.348537,0.81799502 0.82510798,0.81799502 0.47894201,0 0.82747902,-0.34142401 0.82747902,-0.81799502 0,-0.47657098 -0.34853701,-0.81799498 -0.82747902,-0.81799498 -0.47657098,0 -0.82510798,0.341424 -0.82510798,0.81799498 z m 1.30642099,0 c 0,0.29400401 -0.18968,0.51924901 -0.48131301,0.51924901 -0.29163298,0 -0.47894198,-0.225245 -0.47894198,-0.51924901 0,-0.29637498 0.187309,-0.51924898 0.47894198,-0.51924898 0.29163301,0 0.48131301,0.222874 0.48131301,0.51924898 z" />
        <path
           id="path419"
           style="font-weight:bold;font-size:2.37100005px;font-family:'Proxima Nova';dominant-baseline:alphabetic;text-anchor:middle;fill:#f0f0ff"
           d="m 1.1962251,0 h 0.386473 l -0.35565,-0.60223401 c 0.170712,-0.040307 0.346166,-0.18968001 0.346166,-0.46945799 0,-0.294004 -0.201535,-0.509765 -0.531104,-0.509765 H 0.30235805 V 0 h 0.33668201 v -0.56192701 h 0.246584 z m 0.033194,-1.071692 c 0,0.13277598 -0.101953,0.21338998 -0.23710003,0.21338998 H 0.63904006 V -1.285082 h 0.35327901 c 0.13514703,0 0.23710003,0.080614 0.23710003,0.21339 z" />
      </g>
    </g>
    <g
       id="g202"
       transform="translate(38.1,98.94)">
      <g
         id="text200"
         style="font-weight:bold;font-size:2.37100005px;font-family:'Proxima Nova';dominant-baseline:alphabetic;text-anchor:middle;fill:#f0f0ff"
         aria-label="OR">
        <path
           id="path422"
           style="font-weight:bold;font-size:2.37100005px;font-family:'Proxima Nova';dominant-baseline:alphabetic;text-anchor:middle;fill:#f0f0ff"
           d="m -1.5888108,-0.78954302 c 0,0.47657101 0.348537,0.81799502 0.82510798,0.81799502 0.47894201,0 0.82747902,-0.34142401 0.82747902,-0.81799502 0,-0.47657098 -0.34853701,-0.81799498 -0.82747902,-0.81799498 -0.47657098,0 -0.82510798,0.341424 -0.82510798,0.81799498 z m 1.30642099,0 c 0,0.29400401 -0.18968,0.51924901 -0.48131301,0.51924901 -0.29163298,0 -0.47894198,-0.225245 -0.47894198,-0.51924901 0,-0.29637498 0.187309,-0.51924898 0.47894198,-0.51924898 0.29163301,0 0.48131301,0.222874 0.48131301,0.51924898 z" />
        <path
           id="path424"
           style="font-weight:bold;font-size:2.37100005px;font-family:'Proxima Nova';dominant-baseline:alphabetic;text-anchor:middle;fill:#f0f0ff"
           d="m 1.1962251,0 h 0.386473 l -0.35565,-0.60223401 c 0.170712,-0.040307 0.346166,-0.18968001 0.346166,-0.46945799 0,-0.294004 -0.201535,-0.509765 -0.531104,-0.509765 H 0.30235805 V 0 h 0.33668201 v -0.56192701 h 0.246584 z m 0.033194,-1.071692 c 0,0.13277598 -0.101953,0.21338998 -0.23710003,0.21338998 H 0.63904006 V -1.285082 h 0.35327901 c 0.13514703,0 0.23710003,0.080614 0.23710003,0.21339 z" />
      </g>
    </g>
  </g>
</svg>
