<?xml version="1.0" encoding="UTF-8" standalone="no"?>
<svg
   xmlns:dc="http://purl.org/dc/elements/1.1/"
   xmlns:cc="http://creativecommons.org/ns#"
   xmlns:rdf="http://www.w3.org/1999/02/22-rdf-syntax-ns#"
   xmlns:svg="http://www.w3.org/2000/svg"
   xmlns="http://www.w3.org/2000/svg"
   id="svg194"
   height="379.429"
   width="180.000"
   version="1.1">
  <metadata
     id="metadata200">
    <rdf:RDF>
      <cc:Work
         rdf:about="">
        <dc:format>image/svg+xml</dc:format>
        <dc:type
           rdf:resource="http://purl.org/dc/dcmitype/StillImage" />
      </cc:Work>
    </rdf:RDF>
  </metadata>
  <defs
     id="defs198" />
  <g
     id="g192"
     transform="scale(2.953)">
    <path
       id="rect2"
       d="M 0,0 H 60.959999 V 128.5 H 0 Z"
       style="fill:#faf7f0;stroke:#0044cc;stroke-width:1" />
    <g
       id="g6"
       transform="translate(30.48,9)">
      <g
         id="text4"
         style="font-weight:bold;font-size:4.06400013px;font-family:'Proxima Nova';dominant-baseline:alphabetic;text-anchor:middle;fill:#0044cc"
         aria-label="FUNC 6">
        <path
           id="path203"
           style="font-weight:bold;font-size:4.06400013px;font-family:'Proxima Nova';dominant-baseline:alphabetic;text-anchor:middle;fill:#0044cc"
           d="m -7.0104637,0 h 0.577088 v -1.121664 h 1.312672 v -0.5080001 h -1.312672 v -0.573024 h 1.34112 v -0.508 h -1.918208 z" />
        <path
           id="path205"
           style="font-weight:bold;font-size:4.06400013px;font-family:'Proxima Nova';dominant-baseline:alphabetic;text-anchor:middle;fill:#0044cc"
           d="m -4.6927137,-1.081024 c 0,0.66649599 0.398272,1.129792 1.223264,1.129792 0.824992,0 1.223264,-0.45923201 1.223264,-1.133856 v -1.6256001 h -0.58928 v 1.6093441 c 0,0.37795198 -0.215392,0.63804799 -0.633984,0.63804799 -0.418592,0 -0.638048,-0.26009601 -0.638048,-0.63804799 v -1.6093441 h -0.585216 z" />
        <path
           id="path207"
           style="font-weight:bold;font-size:4.06400013px;font-family:'Proxima Nova';dominant-baseline:alphabetic;text-anchor:middle;fill:#0044cc"
           d="M 0.15328881,0 H 0.71005683 V -2.7106881 H 0.13296881 V -1.007872 L -1.1228072,-2.7106881 h -0.593344 V 0 h 0.577088 v -1.7678401 z" />
        <path
           id="path209"
           style="font-weight:bold;font-size:4.06400013px;font-family:'Proxima Nova';dominant-baseline:alphabetic;text-anchor:middle;fill:#0044cc"
           d="m 2.5572084,0.048768 c 0.5974081,0 0.9387841,-0.32918401 1.1338561,-0.66649602 l -0.495808,-0.23977601 c -0.1137921,0.22352001 -0.3576321,0.39420802 -0.6380481,0.39420802 -0.491744,0 -0.849376,-0.37795202 -0.849376,-0.89001599 0,-0.5120641 0.357632,-0.8900161 0.849376,-0.8900161 0.280416,0 0.524256,0.174752 0.6380481,0.394208 l 0.495808,-0.24384 c -0.191008,-0.337312 -0.536448,-0.662432 -1.1338561,-0.662432 -0.8128,0 -1.44272,0.56896 -1.44272,1.4020801 0,0.83311998 0.62992,1.40208 1.44272,1.40208 z" />
        <path
           id="path211"
           style="font-weight:bold;font-size:4.06400013px;font-family:'Proxima Nova';dominant-baseline:alphabetic;text-anchor:middle;fill:#0044cc"
           d="m 4.9483011,-1.349248 c 0,0.76403198 0.34544,1.398016 1.170432,1.398016 0.6177281,0 1.0363201,-0.40233601 1.0363201,-0.93065603 0,-0.57708797 -0.434848,-0.88188807 -0.9225281,-0.88188807 -0.296672,0 -0.56896,0.166624 -0.694944,0.3495041 -0.00406,-0.02032 -0.00406,-0.036576 -0.00406,-0.056896 0,-0.4307841 0.280416,-0.7680961 0.678688,-0.7680961 0.239776,0 0.3942081,0.073152 0.5405121,0.211328 l 0.260096,-0.442976 c -0.195072,-0.166624 -0.471424,-0.280416 -0.8006081,-0.280416 -0.800608,0 -1.263904,0.581152 -1.263904,1.4020801 z m 1.6215361,0.48767997 c 0,0.19100801 -0.1706881,0.39827202 -0.4836161,0.39827202 -0.377952,0 -0.524256,-0.28854401 -0.54864,-0.54863999 0.130048,-0.16256 0.32512,-0.256032 0.52832,-0.256032 0.260096,0 0.5039361,0.12192 0.5039361,0.40639997 z" />
      </g>
    </g>
    <g
       id="g10"
       transform="translate(30.48,119.5)">
      <g
         id="text8"
         style="font-weight:bold;font-size:4.06400013px;font-family:'Proxima Nova';dominant-baseline:hanging;text-anchor:middle;fill:#0044cc"
         aria-label="DHE">
        <path
           id="path214"
           style="font-weight:bold;font-size:4.06400013px;font-family:'Proxima Nova';dominant-baseline:hanging;text-anchor:middle;fill:#0044cc"
           d="m -3.8632449,2.5684481 h 1.0688321 c 0.849376,0 1.438656,-0.5364481 1.438656,-1.3533121 0,-0.816864 -0.58928,-1.35737602 -1.438656,-1.35737602 h -1.0688321 z m 0.577088,-0.508 V 0.36576 h 0.4917441 c 0.556768,0 0.849376,0.36982401 0.849376,0.849376 0,0.459232 -0.312928,0.8453121 -0.849376,0.8453121 z" />
        <path
           id="path216"
           style="font-weight:bold;font-size:4.06400013px;font-family:'Proxima Nova';dominant-baseline:hanging;text-anchor:middle;fill:#0044cc"
           d="M 0.91500319,2.5684481 H 1.4961552 V -0.14224002 H 0.91500319 V 0.92252801 H -0.36515685 V -0.14224002 H -0.94224487 V 2.5684481 h 0.57708802 V 1.430528 h 1.28016004 z" />
        <path
           id="path218"
           style="font-weight:bold;font-size:4.06400013px;font-family:'Proxima Nova';dominant-baseline:hanging;text-anchor:middle;fill:#0044cc"
           d="m 2.0263802,2.5684481 h 1.9182081 v -0.508 H 2.6034682 V 1.446784 H 3.9161403 V 0.93878401 H 2.6034682 V 0.36576 H 3.9445883 V -0.14224002 H 2.0263802 Z" />
      </g>
    </g>
    <path
       id="line12"
       d="M 8.7089996,23 H 52.250999"
       style="stroke-width:0.34999999" />
    <path
       id="rect14"
       d="M 4.5090001,16.469999 H 12.909 c 0.554,0 1,0.446 1,1 v 10.98 c 0,0.554 -0.446,1 -1,1 H 4.5090001 c -0.554,0 -1,-0.446 -1,-1 v -10.98 c 0,-0.554 0.446,-1 1,-1 z"
       style="fill:#faf7f0;stroke:#0044cc;stroke-width:0.34999999" />
    <g
       id="g18"
       transform="translate(8.709,19.05)">
      <g
         id="text16"
         style="font-weight:bold;font-size:2.37100005px;font-family:'Proxima Nova';dominant-baseline:alphabetic;text-anchor:middle;fill:#0044cc"
         aria-label="IN">
        <path
           id="path223"
           style="font-weight:bold;font-size:2.37100005px;font-family:'Proxima Nova';dominant-baseline:alphabetic;text-anchor:middle;fill:#0044cc"
           d="m -1.0313295,0 h 0.33668206 V -1.581457 H -1.0313295 Z" />
        <path
           id="path225"
           style="font-weight:bold;font-size:2.37100005px;font-family:'Proxima Nova';dominant-baseline:alphabetic;text-anchor:middle;fill:#0044cc"
           d="M 0.70765089,0 H 1.0324779 V -1.581457 H 0.69579589 v 0.99344899 L -0.03684313,-1.581457 h -0.346166 V 0 h 0.336682 v -1.031385 z" />
      </g>
    </g>
    <g
       id="g22"
       transform="translate(19.594,27)">
      <g
         id="text20"
         style="font-weight:bold;font-size:2.37100005px;font-family:'Proxima Nova';dominant-baseline:hanging;text-anchor:middle;fill:#0044cc"
         aria-label="ADD">
        <path
           id="path228"
           style="font-weight:bold;font-size:2.37100005px;font-family:'Proxima Nova';dominant-baseline:hanging;text-anchor:middle;fill:#0044cc"
           d="m -1.2674107,1.498472 h 0.38410204 L -1.4926557,-0.08298506 h -0.422038 L -2.5264117,1.498472 h 0.384102 l 0.099582,-0.267923 h 0.678106 z m -0.436264,-1.24477505 0.246584,0.68047701 h -0.493168 z" />
        <path
           id="path230"
           style="font-weight:bold;font-size:2.37100005px;font-family:'Proxima Nova';dominant-baseline:hanging;text-anchor:middle;fill:#0044cc"
           d="m -0.73726984,1.498472 h 0.62357301 c 0.49553902,0 0.83933402,-0.312972 0.83933402,-0.78954304 0,-0.47657101 -0.343795,-0.79191402 -0.83933402,-0.79191402 H -0.73726984 Z M -0.40058783,1.202097 V 0.21338995 h 0.286891 c 0.32482701,0 0.49553902,0.215761 0.49553902,0.49553901 0,0.267923 -0.18256701,0.49316804 -0.49553902,0.49316804 z" />
        <path
           id="path232"
           style="font-weight:bold;font-size:2.37100005px;font-family:'Proxima Nova';dominant-baseline:hanging;text-anchor:middle;fill:#0044cc"
           d="M 0.96688644,1.498472 H 1.5904595 c 0.495539,0 0.839334,-0.312972 0.839334,-0.78954304 0,-0.47657101 -0.343795,-0.79191402 -0.839334,-0.79191402 H 0.96688644 Z M 1.3035684,1.202097 V 0.21338995 h 0.2868911 c 0.324827,0 0.495539,0.215761 0.495539,0.49553901 0,0.267923 -0.182567,0.49316804 -0.495539,0.49316804 z" />
      </g>
    </g>
    <g
       id="g26"
       transform="translate(19.594,19)">
      <g
         id="text24"
         style="font-weight:bold;font-size:2.37100005px;font-family:'Proxima Nova';dominant-baseline:alphabetic;text-anchor:middle;fill:#0044cc"
         aria-label="MULT">
        <path
           id="path235"
           style="font-weight:bold;font-size:2.37100005px;font-family:'Proxima Nova';dominant-baseline:alphabetic;text-anchor:middle;fill:#0044cc"
           d="m -1.5432247,0 h 0.339053 v -1.581457 h -0.4742 l -0.384102,0.95551299 -0.384102,-0.95551299 h -0.471829 V 0 h 0.336682 V -1.107257 L -2.1359747,0 h 0.147002 l 0.445748,-1.107257 z" />
        <path
           id="path237"
           style="font-weight:bold;font-size:2.37100005px;font-family:'Proxima Nova';dominant-baseline:alphabetic;text-anchor:middle;fill:#0044cc"
           d="m -0.89008819,-0.63068601 c 0,0.388844 0.232358,0.65913801 0.71367101,0.65913801 0.48131302,0 0.71367102,-0.26792301 0.71367102,-0.66150901 V -1.581457 H 0.19345883 v 0.93891599 c 0,0.220503 -0.125663,0.372247 -0.36987601,0.372247 -0.244213,0 -0.372247,-0.151744 -0.372247,-0.372247 V -1.581457 h -0.34142401 z" />
        <path
           id="path239"
           style="font-weight:bold;font-size:2.37100005px;font-family:'Proxima Nova';dominant-baseline:alphabetic;text-anchor:middle;fill:#0044cc"
           d="M 0.84648408,0 H 1.8517881 V -0.29637501 H 1.1831661 V -1.581457 H 0.84648408 Z" />
        <path
           id="path241"
           style="font-weight:bold;font-size:2.37100005px;font-family:'Proxima Nova';dominant-baseline:alphabetic;text-anchor:middle;fill:#0044cc"
           d="m 2.2165147,0 h 0.339053 v -1.285082 h 0.459974 v -0.296375 h -1.261372 v 0.296375 h 0.462345 z" />
      </g>
    </g>
    <g
       id="g30"
       transform="translate(30.48,15.65)">
      <g
         id="text28"
         style="font-weight:bold;font-size:3.0480001px;font-family:'Proxima Nova';dominant-baseline:alphabetic;text-anchor:middle;fill:#0044cc" />
    </g>
    <path
       id="rect32"
       d="m 48.050999,16.469999 h 8.399999 c 0.554,0 1,0.446 1,1 v 10.98 c 0,0.554 -0.446,1 -1,1 h -8.399999 c -0.554,0 -1,-0.446 -1,-1 v -10.98 c 0,-0.554 0.446,-1 1,-1 z"
       style="fill:#0044cc;stroke:#0044cc;stroke-width:0.34999999" />
    <g
       id="g36"
       transform="translate(52.251,19.05)">
      <g
         id="text34"
         style="font-weight:bold;font-size:2.37100005px;font-family:'Proxima Nova';dominant-baseline:alphabetic;text-anchor:middle;fill:#faf7f0"
         aria-label="OUT">
        <path
           id="path246"
           style="font-weight:bold;font-size:2.37100005px;font-family:'Proxima Nova';dominant-baseline:alphabetic;text-anchor:middle;fill:#faf7f0"
           d="m -2.3853187,-0.78954302 c 0,0.47657101 0.348537,0.81799502 0.825108,0.81799502 0.4789421,0 0.82747907,-0.34142401 0.82747907,-0.81799502 0,-0.47657098 -0.34853697,-0.81799498 -0.82747907,-0.81799498 -0.476571,0 -0.825108,0.341424 -0.825108,0.81799498 z m 1.3064211,0 c 0,0.29400401 -0.18968,0.51924901 -0.4813131,0.51924901 -0.291633,0 -0.478942,-0.225245 -0.478942,-0.51924901 0,-0.29637498 0.187309,-0.51924898 0.478942,-0.51924898 0.2916331,0 0.4813131,0.222874 0.4813131,0.51924898 z" />
        <path
           id="path248"
           style="font-weight:bold;font-size:2.37100005px;font-family:'Proxima Nova';dominant-baseline:alphabetic;text-anchor:middle;fill:#faf7f0"
           d="m -0.49414978,-0.63068601 c 0,0.388844 0.23235801,0.65913801 0.71367102,0.65913801 0.48131301,0 0.71367101,-0.26792301 0.71367101,-0.66150901 V -1.581457 H 0.58939724 v 0.93891599 c 0,0.220503 -0.125663,0.372247 -0.369876,0.372247 -0.24421301,0 -0.37224701,-0.151744 -0.37224701,-0.372247 V -1.581457 h -0.34142401 z" />
        <path
           id="path250"
           style="font-weight:bold;font-size:2.37100005px;font-family:'Proxima Nova';dominant-baseline:alphabetic;text-anchor:middle;fill:#faf7f0"
           d="m 1.6075565,0 h 0.339053 v -1.285082 h 0.459974 v -0.296375 h -1.261372 v 0.296375 h 0.462345 z" />
      </g>
    </g>
    <g
       id="g40"
       transform="translate(52.251,19.05)">
      <g
         id="text38"
         style="font-weight:bold;font-size:2.37100005px;font-family:'Proxima Nova';dominant-baseline:alphabetic;text-anchor:middle;fill:#faf7f0"
         aria-label="OUT">
        <path
           id="path253"
           style="font-weight:bold;font-size:2.37100005px;font-family:'Proxima Nova';dominant-baseline:alphabetic;text-anchor:middle;fill:#faf7f0"
           d="m -2.3853187,-0.78954302 c 0,0.47657101 0.348537,0.81799502 0.825108,0.81799502 0.4789421,0 0.82747907,-0.34142401 0.82747907,-0.81799502 0,-0.47657098 -0.34853697,-0.81799498 -0.82747907,-0.81799498 -0.476571,0 -0.825108,0.341424 -0.825108,0.81799498 z m 1.3064211,0 c 0,0.29400401 -0.18968,0.51924901 -0.4813131,0.51924901 -0.291633,0 -0.478942,-0.225245 -0.478942,-0.51924901 0,-0.29637498 0.187309,-0.51924898 0.478942,-0.51924898 0.2916331,0 0.4813131,0.222874 0.4813131,0.51924898 z" />
        <path
           id="path255"
           style="font-weight:bold;font-size:2.37100005px;font-family:'Proxima Nova';dominant-baseline:alphabetic;text-anchor:middle;fill:#faf7f0"
           d="m -0.49414978,-0.63068601 c 0,0.388844 0.23235801,0.65913801 0.71367102,0.65913801 0.48131301,0 0.71367101,-0.26792301 0.71367101,-0.66150901 V -1.581457 H 0.58939724 v 0.93891599 c 0,0.220503 -0.125663,0.372247 -0.369876,0.372247 -0.24421301,0 -0.37224701,-0.151744 -0.37224701,-0.372247 V -1.581457 h -0.34142401 z" />
        <path
           id="path257"
           style="font-weight:bold;font-size:2.37100005px;font-family:'Proxima Nova';dominant-baseline:alphabetic;text-anchor:middle;fill:#faf7f0"
           d="m 1.6075565,0 h 0.339053 v -1.285082 h 0.459974 v -0.296375 h -1.261372 v 0.296375 h 0.462345 z" />
      </g>
    </g>
    <path
       id="line42"
       d="M 8.7089996,40 H 52.250999"
       style="stroke-width:0.34999999" />
    <path
       id="rect44"
       d="M 4.5090001,33.470001 H 12.909 c 0.554,0 1,0.446 1,1 v 10.98 c 0,0.554 -0.446,1 -1,1 H 4.5090001 c -0.554,0 -1,-0.446 -1,-1 v -10.98 c 0,-0.554 0.446,-1 1,-1 z"
       style="fill:#faf7f0;stroke:#0044cc;stroke-width:0.34999999" />
    <g
       id="g48"
       transform="translate(8.709,36.05)">
      <g
         id="text46"
         style="font-weight:bold;font-size:2.37100005px;font-family:'Proxima Nova';dominant-baseline:alphabetic;text-anchor:middle;fill:#0044cc"
         aria-label="IN">
        <path
           id="path262"
           style="font-weight:bold;font-size:2.37100005px;font-family:'Proxima Nova';dominant-baseline:alphabetic;text-anchor:middle;fill:#0044cc"
           d="m -1.0313295,0 h 0.33668206 V -1.581457 H -1.0313295 Z" />
        <path
           id="path264"
           style="font-weight:bold;font-size:2.37100005px;font-family:'Proxima Nova';dominant-baseline:alphabetic;text-anchor:middle;fill:#0044cc"
           d="M 0.70765089,0 H 1.0324779 V -1.581457 H 0.69579589 v 0.99344899 L -0.03684313,-1.581457 h -0.346166 V 0 h 0.336682 v -1.031385 z" />
      </g>
    </g>
    <g
       id="g52"
       transform="translate(19.594,44)">
      <g
         id="text50"
         style="font-weight:bold;font-size:2.37100005px;font-family:'Proxima Nova';dominant-baseline:hanging;text-anchor:middle;fill:#0044cc"
         aria-label="ADD">
        <path
           id="path267"
           style="font-weight:bold;font-size:2.37100005px;font-family:'Proxima Nova';dominant-baseline:hanging;text-anchor:middle;fill:#0044cc"
           d="m -1.2674107,1.498472 h 0.38410204 L -1.4926557,-0.08298506 h -0.422038 L -2.5264117,1.498472 h 0.384102 l 0.099582,-0.267923 h 0.678106 z m -0.436264,-1.24477505 0.246584,0.68047701 h -0.493168 z" />
        <path
           id="path269"
           style="font-weight:bold;font-size:2.37100005px;font-family:'Proxima Nova';dominant-baseline:hanging;text-anchor:middle;fill:#0044cc"
           d="m -0.73726984,1.498472 h 0.62357301 c 0.49553902,0 0.83933402,-0.312972 0.83933402,-0.78954304 0,-0.47657101 -0.343795,-0.79191402 -0.83933402,-0.79191402 H -0.73726984 Z M -0.40058783,1.202097 V 0.21338995 h 0.286891 c 0.32482701,0 0.49553902,0.215761 0.49553902,0.49553901 0,0.267923 -0.18256701,0.49316804 -0.49553902,0.49316804 z" />
        <path
           id="path271"
           style="font-weight:bold;font-size:2.37100005px;font-family:'Proxima Nova';dominant-baseline:hanging;text-anchor:middle;fill:#0044cc"
           d="M 0.96688644,1.498472 H 1.5904595 c 0.495539,0 0.839334,-0.312972 0.839334,-0.78954304 0,-0.47657101 -0.343795,-0.79191402 -0.839334,-0.79191402 H 0.96688644 Z M 1.3035684,1.202097 V 0.21338995 h 0.2868911 c 0.324827,0 0.495539,0.215761 0.495539,0.49553901 0,0.267923 -0.182567,0.49316804 -0.495539,0.49316804 z" />
      </g>
    </g>
    <g
       id="g56"
       transform="translate(19.594,36)">
      <g
         id="text54"
         style="font-weight:bold;font-size:2.37100005px;font-family:'Proxima Nova';dominant-baseline:alphabetic;text-anchor:middle;fill:#0044cc"
         aria-label="MULT">
        <path
           id="path274"
           style="font-weight:bold;font-size:2.37100005px;font-family:'Proxima Nova';dominant-baseline:alphabetic;text-anchor:middle;fill:#0044cc"
           d="m -1.5432247,0 h 0.339053 v -1.581457 h -0.4742 l -0.384102,0.95551299 -0.384102,-0.95551299 h -0.471829 V 0 h 0.336682 V -1.107257 L -2.1359747,0 h 0.147002 l 0.445748,-1.107257 z" />
        <path
           id="path276"
           style="font-weight:bold;font-size:2.37100005px;font-family:'Proxima Nova';dominant-baseline:alphabetic;text-anchor:middle;fill:#0044cc"
           d="m -0.89008819,-0.63068601 c 0,0.388844 0.232358,0.65913801 0.71367101,0.65913801 0.48131302,0 0.71367102,-0.26792301 0.71367102,-0.66150901 V -1.581457 H 0.19345883 v 0.93891599 c 0,0.220503 -0.125663,0.372247 -0.36987601,0.372247 -0.244213,0 -0.372247,-0.151744 -0.372247,-0.372247 V -1.581457 h -0.34142401 z" />
        <path
           id="path278"
           style="font-weight:bold;font-size:2.37100005px;font-family:'Proxima Nova';dominant-baseline:alphabetic;text-anchor:middle;fill:#0044cc"
           d="M 0.84648408,0 H 1.8517881 V -0.29637501 H 1.1831661 V -1.581457 H 0.84648408 Z" />
        <path
           id="path280"
           style="font-weight:bold;font-size:2.37100005px;font-family:'Proxima Nova';dominant-baseline:alphabetic;text-anchor:middle;fill:#0044cc"
           d="m 2.2165147,0 h 0.339053 v -1.285082 h 0.459974 v -0.296375 h -1.261372 v 0.296375 h 0.462345 z" />
      </g>
    </g>
    <g
       id="g60"
       transform="translate(30.48,32.65)">
      <g
         id="text58"
         style="font-weight:bold;font-size:3.0480001px;font-family:'Proxima Nova';dominant-baseline:alphabetic;text-anchor:middle;fill:#0044cc" />
    </g>
    <path
       id="rect62"
       d="m 48.050999,33.470001 h 8.399999 c 0.554,0 1,0.446 1,1 v 10.98 c 0,0.554 -0.446,1 -1,1 h -8.399999 c -0.554,0 -1,-0.446 -1,-1 v -10.98 c 0,-0.554 0.446,-1 1,-1 z"
       style="fill:#0044cc;stroke:#0044cc;stroke-width:0.34999999" />
    <g
       id="g66"
       transform="translate(52.251,36.05)">
      <g
         id="text64"
         style="font-weight:bold;font-size:2.37100005px;font-family:'Proxima Nova';dominant-baseline:alphabetic;text-anchor:middle;fill:#faf7f0"
         aria-label="OUT">
        <path
           id="path285"
           style="font-weight:bold;font-size:2.37100005px;font-family:'Proxima Nova';dominant-baseline:alphabetic;text-anchor:middle;fill:#faf7f0"
           d="m -2.3853187,-0.78954302 c 0,0.47657101 0.348537,0.81799502 0.825108,0.81799502 0.4789421,0 0.82747907,-0.34142401 0.82747907,-0.81799502 0,-0.47657098 -0.34853697,-0.81799498 -0.82747907,-0.81799498 -0.476571,0 -0.825108,0.341424 -0.825108,0.81799498 z m 1.3064211,0 c 0,0.29400401 -0.18968,0.51924901 -0.4813131,0.51924901 -0.291633,0 -0.478942,-0.225245 -0.478942,-0.51924901 0,-0.29637498 0.187309,-0.51924898 0.478942,-0.51924898 0.2916331,0 0.4813131,0.222874 0.4813131,0.51924898 z" />
        <path
           id="path287"
           style="font-weight:bold;font-size:2.37100005px;font-family:'Proxima Nova';dominant-baseline:alphabetic;text-anchor:middle;fill:#faf7f0"
           d="m -0.49414978,-0.63068601 c 0,0.388844 0.23235801,0.65913801 0.71367102,0.65913801 0.48131301,0 0.71367101,-0.26792301 0.71367101,-0.66150901 V -1.581457 H 0.58939724 v 0.93891599 c 0,0.220503 -0.125663,0.372247 -0.369876,0.372247 -0.24421301,0 -0.37224701,-0.151744 -0.37224701,-0.372247 V -1.581457 h -0.34142401 z" />
        <path
           id="path289"
           style="font-weight:bold;font-size:2.37100005px;font-family:'Proxima Nova';dominant-baseline:alphabetic;text-anchor:middle;fill:#faf7f0"
           d="m 1.6075565,0 h 0.339053 v -1.285082 h 0.459974 v -0.296375 h -1.261372 v 0.296375 h 0.462345 z" />
      </g>
    </g>
    <g
       id="g70"
       transform="translate(52.251,36.05)">
      <g
         id="text68"
         style="font-weight:bold;font-size:2.37100005px;font-family:'Proxima Nova';dominant-baseline:alphabetic;text-anchor:middle;fill:#faf7f0"
         aria-label="OUT">
        <path
           id="path292"
           style="font-weight:bold;font-size:2.37100005px;font-family:'Proxima Nova';dominant-baseline:alphabetic;text-anchor:middle;fill:#faf7f0"
           d="m -2.3853187,-0.78954302 c 0,0.47657101 0.348537,0.81799502 0.825108,0.81799502 0.4789421,0 0.82747907,-0.34142401 0.82747907,-0.81799502 0,-0.47657098 -0.34853697,-0.81799498 -0.82747907,-0.81799498 -0.476571,0 -0.825108,0.341424 -0.825108,0.81799498 z m 1.3064211,0 c 0,0.29400401 -0.18968,0.51924901 -0.4813131,0.51924901 -0.291633,0 -0.478942,-0.225245 -0.478942,-0.51924901 0,-0.29637498 0.187309,-0.51924898 0.478942,-0.51924898 0.2916331,0 0.4813131,0.222874 0.4813131,0.51924898 z" />
        <path
           id="path294"
           style="font-weight:bold;font-size:2.37100005px;font-family:'Proxima Nova';dominant-baseline:alphabetic;text-anchor:middle;fill:#faf7f0"
           d="m -0.49414978,-0.63068601 c 0,0.388844 0.23235801,0.65913801 0.71367102,0.65913801 0.48131301,0 0.71367101,-0.26792301 0.71367101,-0.66150901 V -1.581457 H 0.58939724 v 0.93891599 c 0,0.220503 -0.125663,0.372247 -0.369876,0.372247 -0.24421301,0 -0.37224701,-0.151744 -0.37224701,-0.372247 V -1.581457 h -0.34142401 z" />
        <path
           id="path296"
           style="font-weight:bold;font-size:2.37100005px;font-family:'Proxima Nova';dominant-baseline:alphabetic;text-anchor:middle;fill:#faf7f0"
           d="m 1.6075565,0 h 0.339053 v -1.285082 h 0.459974 v -0.296375 h -1.261372 v 0.296375 h 0.462345 z" />
      </g>
    </g>
    <path
       id="line72"
       d="M 8.7089996,57 H 52.250999"
       style="stroke-width:0.34999999" />
    <path
       id="rect74"
       d="M 4.5090001,50.470001 H 12.909 c 0.554,0 1,0.446 1,1 v 10.98 c 0,0.554 -0.446,1 -1,1 H 4.5090001 c -0.554,0 -1,-0.446 -1,-1 v -10.98 c 0,-0.554 0.446,-1 1,-1 z"
       style="fill:#faf7f0;stroke:#0044cc;stroke-width:0.34999999" />
    <g
       id="g78"
       transform="translate(8.709,53.05)">
      <g
         id="text76"
         style="font-weight:bold;font-size:2.37100005px;font-family:'Proxima Nova';dominant-baseline:alphabetic;text-anchor:middle;fill:#0044cc"
         aria-label="IN">
        <path
           id="path301"
           style="font-weight:bold;font-size:2.37100005px;font-family:'Proxima Nova';dominant-baseline:alphabetic;text-anchor:middle;fill:#0044cc"
           d="m -1.0313295,0 h 0.33668206 V -1.581457 H -1.0313295 Z" />
        <path
           id="path303"
           style="font-weight:bold;font-size:2.37100005px;font-family:'Proxima Nova';dominant-baseline:alphabetic;text-anchor:middle;fill:#0044cc"
           d="M 0.70765089,0 H 1.0324779 V -1.581457 H 0.69579589 v 0.99344899 L -0.03684313,-1.581457 h -0.346166 V 0 h 0.336682 v -1.031385 z" />
      </g>
    </g>
    <g
       id="g82"
       transform="translate(19.594,61)">
      <g
         id="text80"
         style="font-weight:bold;font-size:2.37100005px;font-family:'Proxima Nova';dominant-baseline:hanging;text-anchor:middle;fill:#0044cc"
         aria-label="ADD">
        <path
           id="path306"
           style="font-weight:bold;font-size:2.37100005px;font-family:'Proxima Nova';dominant-baseline:hanging;text-anchor:middle;fill:#0044cc"
           d="m -1.2674107,1.498472 h 0.38410204 L -1.4926557,-0.08298506 h -0.422038 L -2.5264117,1.498472 h 0.384102 l 0.099582,-0.267923 h 0.678106 z m -0.436264,-1.24477505 0.246584,0.68047701 h -0.493168 z" />
        <path
           id="path308"
           style="font-weight:bold;font-size:2.37100005px;font-family:'Proxima Nova';dominant-baseline:hanging;text-anchor:middle;fill:#0044cc"
           d="m -0.73726984,1.498472 h 0.62357301 c 0.49553902,0 0.83933402,-0.312972 0.83933402,-0.78954304 0,-0.47657101 -0.343795,-0.79191402 -0.83933402,-0.79191402 H -0.73726984 Z M -0.40058783,1.202097 V 0.21338995 h 0.286891 c 0.32482701,0 0.49553902,0.215761 0.49553902,0.49553901 0,0.267923 -0.18256701,0.49316804 -0.49553902,0.49316804 z" />
        <path
           id="path310"
           style="font-weight:bold;font-size:2.37100005px;font-family:'Proxima Nova';dominant-baseline:hanging;text-anchor:middle;fill:#0044cc"
           d="M 0.96688644,1.498472 H 1.5904595 c 0.495539,0 0.839334,-0.312972 0.839334,-0.78954304 0,-0.47657101 -0.343795,-0.79191402 -0.839334,-0.79191402 H 0.96688644 Z M 1.3035684,1.202097 V 0.21338995 h 0.2868911 c 0.324827,0 0.495539,0.215761 0.495539,0.49553901 0,0.267923 -0.182567,0.49316804 -0.495539,0.49316804 z" />
      </g>
    </g>
    <g
       id="g86"
       transform="translate(19.594,53)">
      <g
         id="text84"
         style="font-weight:bold;font-size:2.37100005px;font-family:'Proxima Nova';dominant-baseline:alphabetic;text-anchor:middle;fill:#0044cc"
         aria-label="MULT">
        <path
           id="path313"
           style="font-weight:bold;font-size:2.37100005px;font-family:'Proxima Nova';dominant-baseline:alphabetic;text-anchor:middle;fill:#0044cc"
           d="m -1.5432247,0 h 0.339053 v -1.581457 h -0.4742 l -0.384102,0.95551299 -0.384102,-0.95551299 h -0.471829 V 0 h 0.336682 V -1.107257 L -2.1359747,0 h 0.147002 l 0.445748,-1.107257 z" />
        <path
           id="path315"
           style="font-weight:bold;font-size:2.37100005px;font-family:'Proxima Nova';dominant-baseline:alphabetic;text-anchor:middle;fill:#0044cc"
           d="m -0.89008819,-0.63068601 c 0,0.388844 0.232358,0.65913801 0.71367101,0.65913801 0.48131302,0 0.71367102,-0.26792301 0.71367102,-0.66150901 V -1.581457 H 0.19345883 v 0.93891599 c 0,0.220503 -0.125663,0.372247 -0.36987601,0.372247 -0.244213,0 -0.372247,-0.151744 -0.372247,-0.372247 V -1.581457 h -0.34142401 z" />
        <path
           id="path317"
           style="font-weight:bold;font-size:2.37100005px;font-family:'Proxima Nova';dominant-baseline:alphabetic;text-anchor:middle;fill:#0044cc"
           d="M 0.84648408,0 H 1.8517881 V -0.29637501 H 1.1831661 V -1.581457 H 0.84648408 Z" />
        <path
           id="path319"
           style="font-weight:bold;font-size:2.37100005px;font-family:'Proxima Nova';dominant-baseline:alphabetic;text-anchor:middle;fill:#0044cc"
           d="m 2.2165147,0 h 0.339053 v -1.285082 h 0.459974 v -0.296375 h -1.261372 v 0.296375 h 0.462345 z" />
      </g>
    </g>
    <g
       id="g90"
       transform="translate(30.48,49.65)">
      <g
         id="text88"
         style="font-weight:bold;font-size:3.0480001px;font-family:'Proxima Nova';dominant-baseline:alphabetic;text-anchor:middle;fill:#0044cc" />
    </g>
    <path
       id="rect92"
       d="m 48.050999,50.470001 h 8.399999 c 0.554,0 1,0.446 1,1 v 10.98 c 0,0.554 -0.446,1 -1,1 h -8.399999 c -0.554,0 -1,-0.446 -1,-1 v -10.98 c 0,-0.554 0.446,-1 1,-1 z"
       style="fill:#0044cc;stroke:#0044cc;stroke-width:0.34999999" />
    <g
       id="g96"
       transform="translate(52.251,53.05)">
      <g
         id="text94"
         style="font-weight:bold;font-size:2.37100005px;font-family:'Proxima Nova';dominant-baseline:alphabetic;text-anchor:middle;fill:#faf7f0"
         aria-label="OUT">
        <path
           id="path324"
           style="font-weight:bold;font-size:2.37100005px;font-family:'Proxima Nova';dominant-baseline:alphabetic;text-anchor:middle;fill:#faf7f0"
           d="m -2.3853187,-0.78954302 c 0,0.47657101 0.348537,0.81799502 0.825108,0.81799502 0.4789421,0 0.82747907,-0.34142401 0.82747907,-0.81799502 0,-0.47657098 -0.34853697,-0.81799498 -0.82747907,-0.81799498 -0.476571,0 -0.825108,0.341424 -0.825108,0.81799498 z m 1.3064211,0 c 0,0.29400401 -0.18968,0.51924901 -0.4813131,0.51924901 -0.291633,0 -0.478942,-0.225245 -0.478942,-0.51924901 0,-0.29637498 0.187309,-0.51924898 0.478942,-0.51924898 0.2916331,0 0.4813131,0.222874 0.4813131,0.51924898 z" />
        <path
           id="path326"
           style="font-weight:bold;font-size:2.37100005px;font-family:'Proxima Nova';dominant-baseline:alphabetic;text-anchor:middle;fill:#faf7f0"
           d="m -0.49414978,-0.63068601 c 0,0.388844 0.23235801,0.65913801 0.71367102,0.65913801 0.48131301,0 0.71367101,-0.26792301 0.71367101,-0.66150901 V -1.581457 H 0.58939724 v 0.93891599 c 0,0.220503 -0.125663,0.372247 -0.369876,0.372247 -0.24421301,0 -0.37224701,-0.151744 -0.37224701,-0.372247 V -1.581457 h -0.34142401 z" />
        <path
           id="path328"
           style="font-weight:bold;font-size:2.37100005px;font-family:'Proxima Nova';dominant-baseline:alphabetic;text-anchor:middle;fill:#faf7f0"
           d="m 1.6075565,0 h 0.339053 v -1.285082 h 0.459974 v -0.296375 h -1.261372 v 0.296375 h 0.462345 z" />
      </g>
    </g>
    <g
       id="g100"
       transform="translate(52.251,53.05)">
      <g
         id="text98"
         style="font-weight:bold;font-size:2.37100005px;font-family:'Proxima Nova';dominant-baseline:alphabetic;text-anchor:middle;fill:#faf7f0"
         aria-label="OUT">
        <path
           id="path331"
           style="font-weight:bold;font-size:2.37100005px;font-family:'Proxima Nova';dominant-baseline:alphabetic;text-anchor:middle;fill:#faf7f0"
           d="m -2.3853187,-0.78954302 c 0,0.47657101 0.348537,0.81799502 0.825108,0.81799502 0.4789421,0 0.82747907,-0.34142401 0.82747907,-0.81799502 0,-0.47657098 -0.34853697,-0.81799498 -0.82747907,-0.81799498 -0.476571,0 -0.825108,0.341424 -0.825108,0.81799498 z m 1.3064211,0 c 0,0.29400401 -0.18968,0.51924901 -0.4813131,0.51924901 -0.291633,0 -0.478942,-0.225245 -0.478942,-0.51924901 0,-0.29637498 0.187309,-0.51924898 0.478942,-0.51924898 0.2916331,0 0.4813131,0.222874 0.4813131,0.51924898 z" />
        <path
           id="path333"
           style="font-weight:bold;font-size:2.37100005px;font-family:'Proxima Nova';dominant-baseline:alphabetic;text-anchor:middle;fill:#faf7f0"
           d="m -0.49414978,-0.63068601 c 0,0.388844 0.23235801,0.65913801 0.71367102,0.65913801 0.48131301,0 0.71367101,-0.26792301 0.71367101,-0.66150901 V -1.581457 H 0.58939724 v 0.93891599 c 0,0.220503 -0.125663,0.372247 -0.369876,0.372247 -0.24421301,0 -0.37224701,-0.151744 -0.37224701,-0.372247 V -1.581457 h -0.34142401 z" />
        <path
           id="path335"
           style="font-weight:bold;font-size:2.37100005px;font-family:'Proxima Nova';dominant-baseline:alphabetic;text-anchor:middle;fill:#faf7f0"
           d="m 1.6075565,0 h 0.339053 v -1.285082 h 0.459974 v -0.296375 h -1.261372 v 0.296375 h 0.462345 z" />
      </g>
    </g>
    <path
       id="line102"
       d="M 8.7089996,74 H 52.250999"
       style="stroke-width:0.34999999" />
    <path
       id="rect104"
       d="M 4.5090001,67.470001 H 12.909 c 0.554,0 1,0.446 1,1 v 10.98 c 0,0.554 -0.446,1 -1,1 H 4.5090001 c -0.554,0 -1,-0.446 -1,-1 v -10.98 c 0,-0.554 0.446,-1 1,-1 z"
       style="fill:#faf7f0;stroke:#0044cc;stroke-width:0.34999999" />
    <g
       id="g108"
       transform="translate(8.709,70.05)">
      <g
         id="text106"
         style="font-weight:bold;font-size:2.37100005px;font-family:'Proxima Nova';dominant-baseline:alphabetic;text-anchor:middle;fill:#0044cc"
         aria-label="IN">
        <path
           id="path340"
           style="font-weight:bold;font-size:2.37100005px;font-family:'Proxima Nova';dominant-baseline:alphabetic;text-anchor:middle;fill:#0044cc"
           d="m -1.0313295,0 h 0.33668206 V -1.581457 H -1.0313295 Z" />
        <path
           id="path342"
           style="font-weight:bold;font-size:2.37100005px;font-family:'Proxima Nova';dominant-baseline:alphabetic;text-anchor:middle;fill:#0044cc"
           d="M 0.70765089,0 H 1.0324779 V -1.581457 H 0.69579589 v 0.99344899 L -0.03684313,-1.581457 h -0.346166 V 0 h 0.336682 v -1.031385 z" />
      </g>
    </g>
    <g
       id="g112"
       transform="translate(19.594,78)">
      <g
         id="text110"
         style="font-weight:bold;font-size:2.37100005px;font-family:'Proxima Nova';dominant-baseline:hanging;text-anchor:middle;fill:#0044cc"
         aria-label="ADD">
        <path
           id="path345"
           style="font-weight:bold;font-size:2.37100005px;font-family:'Proxima Nova';dominant-baseline:hanging;text-anchor:middle;fill:#0044cc"
           d="m -1.2674107,1.498472 h 0.38410204 L -1.4926557,-0.08298506 h -0.422038 L -2.5264117,1.498472 h 0.384102 l 0.099582,-0.267923 h 0.678106 z m -0.436264,-1.24477505 0.246584,0.68047701 h -0.493168 z" />
        <path
           id="path347"
           style="font-weight:bold;font-size:2.37100005px;font-family:'Proxima Nova';dominant-baseline:hanging;text-anchor:middle;fill:#0044cc"
           d="m -0.73726984,1.498472 h 0.62357301 c 0.49553902,0 0.83933402,-0.312972 0.83933402,-0.78954304 0,-0.47657101 -0.343795,-0.79191402 -0.83933402,-0.79191402 H -0.73726984 Z M -0.40058783,1.202097 V 0.21338995 h 0.286891 c 0.32482701,0 0.49553902,0.215761 0.49553902,0.49553901 0,0.267923 -0.18256701,0.49316804 -0.49553902,0.49316804 z" />
        <path
           id="path349"
           style="font-weight:bold;font-size:2.37100005px;font-family:'Proxima Nova';dominant-baseline:hanging;text-anchor:middle;fill:#0044cc"
           d="M 0.96688644,1.498472 H 1.5904595 c 0.495539,0 0.839334,-0.312972 0.839334,-0.78954304 0,-0.47657101 -0.343795,-0.79191402 -0.839334,-0.79191402 H 0.96688644 Z M 1.3035684,1.202097 V 0.21338995 h 0.2868911 c 0.324827,0 0.495539,0.215761 0.495539,0.49553901 0,0.267923 -0.182567,0.49316804 -0.495539,0.49316804 z" />
      </g>
    </g>
    <g
       id="g116"
       transform="translate(19.594,70)">
      <g
         id="text114"
         style="font-weight:bold;font-size:2.37100005px;font-family:'Proxima Nova';dominant-baseline:alphabetic;text-anchor:middle;fill:#0044cc"
         aria-label="MULT">
        <path
           id="path352"
           style="font-weight:bold;font-size:2.37100005px;font-family:'Proxima Nova';dominant-baseline:alphabetic;text-anchor:middle;fill:#0044cc"
           d="m -1.5432247,0 h 0.339053 v -1.581457 h -0.4742 l -0.384102,0.95551299 -0.384102,-0.95551299 h -0.471829 V 0 h 0.336682 V -1.107257 L -2.1359747,0 h 0.147002 l 0.445748,-1.107257 z" />
        <path
           id="path354"
           style="font-weight:bold;font-size:2.37100005px;font-family:'Proxima Nova';dominant-baseline:alphabetic;text-anchor:middle;fill:#0044cc"
           d="m -0.89008819,-0.63068601 c 0,0.388844 0.232358,0.65913801 0.71367101,0.65913801 0.48131302,0 0.71367102,-0.26792301 0.71367102,-0.66150901 V -1.581457 H 0.19345883 v 0.93891599 c 0,0.220503 -0.125663,0.372247 -0.36987601,0.372247 -0.244213,0 -0.372247,-0.151744 -0.372247,-0.372247 V -1.581457 h -0.34142401 z" />
        <path
           id="path356"
           style="font-weight:bold;font-size:2.37100005px;font-family:'Proxima Nova';dominant-baseline:alphabetic;text-anchor:middle;fill:#0044cc"
           d="M 0.84648408,0 H 1.8517881 V -0.29637501 H 1.1831661 V -1.581457 H 0.84648408 Z" />
        <path
           id="path358"
           style="font-weight:bold;font-size:2.37100005px;font-family:'Proxima Nova';dominant-baseline:alphabetic;text-anchor:middle;fill:#0044cc"
           d="m 2.2165147,0 h 0.339053 v -1.285082 h 0.459974 v -0.296375 h -1.261372 v 0.296375 h 0.462345 z" />
      </g>
    </g>
    <g
       id="g120"
       transform="translate(30.48,66.65)">
      <g
         id="text118"
         style="font-weight:bold;font-size:3.0480001px;font-family:'Proxima Nova';dominant-baseline:alphabetic;text-anchor:middle;fill:#0044cc" />
    </g>
    <path
       id="rect122"
       d="m 48.050999,67.470001 h 8.399999 c 0.554,0 1,0.446 1,1 v 10.98 c 0,0.554 -0.446,1 -1,1 h -8.399999 c -0.554,0 -1,-0.446 -1,-1 v -10.98 c 0,-0.554 0.446,-1 1,-1 z"
       style="fill:#0044cc;stroke:#0044cc;stroke-width:0.34999999" />
    <g
       id="g126"
       transform="translate(52.251,70.05)">
      <g
         id="text124"
         style="font-weight:bold;font-size:2.37100005px;font-family:'Proxima Nova';dominant-baseline:alphabetic;text-anchor:middle;fill:#faf7f0"
         aria-label="OUT">
        <path
           id="path363"
           style="font-weight:bold;font-size:2.37100005px;font-family:'Proxima Nova';dominant-baseline:alphabetic;text-anchor:middle;fill:#faf7f0"
           d="m -2.3853187,-0.78954302 c 0,0.47657101 0.348537,0.81799502 0.825108,0.81799502 0.4789421,0 0.82747907,-0.34142401 0.82747907,-0.81799502 0,-0.47657098 -0.34853697,-0.81799498 -0.82747907,-0.81799498 -0.476571,0 -0.825108,0.341424 -0.825108,0.81799498 z m 1.3064211,0 c 0,0.29400401 -0.18968,0.51924901 -0.4813131,0.51924901 -0.291633,0 -0.478942,-0.225245 -0.478942,-0.51924901 0,-0.29637498 0.187309,-0.51924898 0.478942,-0.51924898 0.2916331,0 0.4813131,0.222874 0.4813131,0.51924898 z" />
        <path
           id="path365"
           style="font-weight:bold;font-size:2.37100005px;font-family:'Proxima Nova';dominant-baseline:alphabetic;text-anchor:middle;fill:#faf7f0"
           d="m -0.49414978,-0.63068601 c 0,0.388844 0.23235801,0.65913801 0.71367102,0.65913801 0.48131301,0 0.71367101,-0.26792301 0.71367101,-0.66150901 V -1.581457 H 0.58939724 v 0.93891599 c 0,0.220503 -0.125663,0.372247 -0.369876,0.372247 -0.24421301,0 -0.37224701,-0.151744 -0.37224701,-0.372247 V -1.581457 h -0.34142401 z" />
        <path
           id="path367"
           style="font-weight:bold;font-size:2.37100005px;font-family:'Proxima Nova';dominant-baseline:alphabetic;text-anchor:middle;fill:#faf7f0"
           d="m 1.6075565,0 h 0.339053 v -1.285082 h 0.459974 v -0.296375 h -1.261372 v 0.296375 h 0.462345 z" />
      </g>
    </g>
    <g
       id="g130"
       transform="translate(52.251,70.05)">
      <g
         id="text128"
         style="font-weight:bold;font-size:2.37100005px;font-family:'Proxima Nova';dominant-baseline:alphabetic;text-anchor:middle;fill:#faf7f0"
         aria-label="OUT">
        <path
           id="path370"
           style="font-weight:bold;font-size:2.37100005px;font-family:'Proxima Nova';dominant-baseline:alphabetic;text-anchor:middle;fill:#faf7f0"
           d="m -2.3853187,-0.78954302 c 0,0.47657101 0.348537,0.81799502 0.825108,0.81799502 0.4789421,0 0.82747907,-0.34142401 0.82747907,-0.81799502 0,-0.47657098 -0.34853697,-0.81799498 -0.82747907,-0.81799498 -0.476571,0 -0.825108,0.341424 -0.825108,0.81799498 z m 1.3064211,0 c 0,0.29400401 -0.18968,0.51924901 -0.4813131,0.51924901 -0.291633,0 -0.478942,-0.225245 -0.478942,-0.51924901 0,-0.29637498 0.187309,-0.51924898 0.478942,-0.51924898 0.2916331,0 0.4813131,0.222874 0.4813131,0.51924898 z" />
        <path
           id="path372"
           style="font-weight:bold;font-size:2.37100005px;font-family:'Proxima Nova';dominant-baseline:alphabetic;text-anchor:middle;fill:#faf7f0"
           d="m -0.49414978,-0.63068601 c 0,0.388844 0.23235801,0.65913801 0.71367102,0.65913801 0.48131301,0 0.71367101,-0.26792301 0.71367101,-0.66150901 V -1.581457 H 0.58939724 v 0.93891599 c 0,0.220503 -0.125663,0.372247 -0.369876,0.372247 -0.24421301,0 -0.37224701,-0.151744 -0.37224701,-0.372247 V -1.581457 h -0.34142401 z" />
        <path
           id="path374"
           style="font-weight:bold;font-size:2.37100005px;font-family:'Proxima Nova';dominant-baseline:alphabetic;text-anchor:middle;fill:#faf7f0"
           d="m 1.6075565,0 h 0.339053 v -1.285082 h 0.459974 v -0.296375 h -1.261372 v 0.296375 h 0.462345 z" />
      </g>
    </g>
    <path
       id="line132"
       d="M 8.7089996,91 H 52.250999"
       style="stroke-width:0.34999999" />
    <path
       id="rect134"
       d="M 4.5090001,84.470001 H 12.909 c 0.554,0 1,0.446 1,1 v 10.98 c 0,0.554 -0.446,1 -1,1 H 4.5090001 c -0.554,0 -1,-0.446 -1,-1 v -10.98 c 0,-0.554 0.446,-1 1,-1 z"
       style="fill:#faf7f0;stroke:#0044cc;stroke-width:0.34999999" />
    <g
       id="g138"
       transform="translate(8.709,87.05)">
      <g
         id="text136"
         style="font-weight:bold;font-size:2.37100005px;font-family:'Proxima Nova';dominant-baseline:alphabetic;text-anchor:middle;fill:#0044cc"
         aria-label="IN">
        <path
           id="path379"
           style="font-weight:bold;font-size:2.37100005px;font-family:'Proxima Nova';dominant-baseline:alphabetic;text-anchor:middle;fill:#0044cc"
           d="m -1.0313295,0 h 0.33668206 V -1.581457 H -1.0313295 Z" />
        <path
           id="path381"
           style="font-weight:bold;font-size:2.37100005px;font-family:'Proxima Nova';dominant-baseline:alphabetic;text-anchor:middle;fill:#0044cc"
           d="M 0.70765089,0 H 1.0324779 V -1.581457 H 0.69579589 v 0.99344899 L -0.03684313,-1.581457 h -0.346166 V 0 h 0.336682 v -1.031385 z" />
      </g>
    </g>
    <g
       id="g142"
       transform="translate(19.594,95)">
      <g
         id="text140"
         style="font-weight:bold;font-size:2.37100005px;font-family:'Proxima Nova';dominant-baseline:hanging;text-anchor:middle;fill:#0044cc"
         aria-label="ADD">
        <path
           id="path384"
           style="font-weight:bold;font-size:2.37100005px;font-family:'Proxima Nova';dominant-baseline:hanging;text-anchor:middle;fill:#0044cc"
           d="m -1.2674107,1.498472 h 0.38410204 L -1.4926557,-0.08298506 h -0.422038 L -2.5264117,1.498472 h 0.384102 l 0.099582,-0.267923 h 0.678106 z m -0.436264,-1.24477505 0.246584,0.68047701 h -0.493168 z" />
        <path
           id="path386"
           style="font-weight:bold;font-size:2.37100005px;font-family:'Proxima Nova';dominant-baseline:hanging;text-anchor:middle;fill:#0044cc"
           d="m -0.73726984,1.498472 h 0.62357301 c 0.49553902,0 0.83933402,-0.312972 0.83933402,-0.78954304 0,-0.47657101 -0.343795,-0.79191402 -0.83933402,-0.79191402 H -0.73726984 Z M -0.40058783,1.202097 V 0.21338995 h 0.286891 c 0.32482701,0 0.49553902,0.215761 0.49553902,0.49553901 0,0.267923 -0.18256701,0.49316804 -0.49553902,0.49316804 z" />
        <path
           id="path388"
           style="font-weight:bold;font-size:2.37100005px;font-family:'Proxima Nova';dominant-baseline:hanging;text-anchor:middle;fill:#0044cc"
           d="M 0.96688644,1.498472 H 1.5904595 c 0.495539,0 0.839334,-0.312972 0.839334,-0.78954304 0,-0.47657101 -0.343795,-0.79191402 -0.839334,-0.79191402 H 0.96688644 Z M 1.3035684,1.202097 V 0.21338995 h 0.2868911 c 0.324827,0 0.495539,0.215761 0.495539,0.49553901 0,0.267923 -0.182567,0.49316804 -0.495539,0.49316804 z" />
      </g>
    </g>
    <g
       id="g146"
       transform="translate(19.594,87)">
      <g
         id="text144"
         style="font-weight:bold;font-size:2.37100005px;font-family:'Proxima Nova';dominant-baseline:alphabetic;text-anchor:middle;fill:#0044cc"
         aria-label="MULT">
        <path
           id="path391"
           style="font-weight:bold;font-size:2.37100005px;font-family:'Proxima Nova';dominant-baseline:alphabetic;text-anchor:middle;fill:#0044cc"
           d="m -1.5432247,0 h 0.339053 v -1.581457 h -0.4742 l -0.384102,0.95551299 -0.384102,-0.95551299 h -0.471829 V 0 h 0.336682 V -1.107257 L -2.1359747,0 h 0.147002 l 0.445748,-1.107257 z" />
        <path
           id="path393"
           style="font-weight:bold;font-size:2.37100005px;font-family:'Proxima Nova';dominant-baseline:alphabetic;text-anchor:middle;fill:#0044cc"
           d="m -0.89008819,-0.63068601 c 0,0.388844 0.232358,0.65913801 0.71367101,0.65913801 0.48131302,0 0.71367102,-0.26792301 0.71367102,-0.66150901 V -1.581457 H 0.19345883 v 0.93891599 c 0,0.220503 -0.125663,0.372247 -0.36987601,0.372247 -0.244213,0 -0.372247,-0.151744 -0.372247,-0.372247 V -1.581457 h -0.34142401 z" />
        <path
           id="path395"
           style="font-weight:bold;font-size:2.37100005px;font-family:'Proxima Nova';dominant-baseline:alphabetic;text-anchor:middle;fill:#0044cc"
           d="M 0.84648408,0 H 1.8517881 V -0.29637501 H 1.1831661 V -1.581457 H 0.84648408 Z" />
        <path
           id="path397"
           style="font-weight:bold;font-size:2.37100005px;font-family:'Proxima Nova';dominant-baseline:alphabetic;text-anchor:middle;fill:#0044cc"
           d="m 2.2165147,0 h 0.339053 v -1.285082 h 0.459974 v -0.296375 h -1.261372 v 0.296375 h 0.462345 z" />
      </g>
    </g>
    <g
       id="g150"
       transform="translate(30.48,83.65)">
      <g
         id="text148"
         style="font-weight:bold;font-size:3.0480001px;font-family:'Proxima Nova';dominant-baseline:alphabetic;text-anchor:middle;fill:#0044cc" />
    </g>
    <path
       id="rect152"
       d="m 48.050999,84.470001 h 8.399999 c 0.554,0 1,0.446 1,1 v 10.98 c 0,0.554 -0.446,1 -1,1 h -8.399999 c -0.554,0 -1,-0.446 -1,-1 v -10.98 c 0,-0.554 0.446,-1 1,-1 z"
       style="fill:#0044cc;stroke:#0044cc;stroke-width:0.34999999" />
    <g
       id="g156"
       transform="translate(52.251,87.05)">
      <g
         id="text154"
         style="font-weight:bold;font-size:2.37100005px;font-family:'Proxima Nova';dominant-baseline:alphabetic;text-anchor:middle;fill:#faf7f0"
         aria-label="OUT">
        <path
           id="path402"
           style="font-weight:bold;font-size:2.37100005px;font-family:'Proxima Nova';dominant-baseline:alphabetic;text-anchor:middle;fill:#faf7f0"
           d="m -2.3853187,-0.78954302 c 0,0.47657101 0.348537,0.81799502 0.825108,0.81799502 0.4789421,0 0.82747907,-0.34142401 0.82747907,-0.81799502 0,-0.47657098 -0.34853697,-0.81799498 -0.82747907,-0.81799498 -0.476571,0 -0.825108,0.341424 -0.825108,0.81799498 z m 1.3064211,0 c 0,0.29400401 -0.18968,0.51924901 -0.4813131,0.51924901 -0.291633,0 -0.478942,-0.225245 -0.478942,-0.51924901 0,-0.29637498 0.187309,-0.51924898 0.478942,-0.51924898 0.2916331,0 0.4813131,0.222874 0.4813131,0.51924898 z" />
        <path
           id="path404"
           style="font-weight:bold;font-size:2.37100005px;font-family:'Proxima Nova';dominant-baseline:alphabetic;text-anchor:middle;fill:#faf7f0"
           d="m -0.49414978,-0.63068601 c 0,0.388844 0.23235801,0.65913801 0.71367102,0.65913801 0.48131301,0 0.71367101,-0.26792301 0.71367101,-0.66150901 V -1.581457 H 0.58939724 v 0.93891599 c 0,0.220503 -0.125663,0.372247 -0.369876,0.372247 -0.24421301,0 -0.37224701,-0.151744 -0.37224701,-0.372247 V -1.581457 h -0.34142401 z" />
        <path
           id="path406"
           style="font-weight:bold;font-size:2.37100005px;font-family:'Proxima Nova';dominant-baseline:alphabetic;text-anchor:middle;fill:#faf7f0"
           d="m 1.6075565,0 h 0.339053 v -1.285082 h 0.459974 v -0.296375 h -1.261372 v 0.296375 h 0.462345 z" />
      </g>
    </g>
    <g
       id="g160"
       transform="translate(52.251,87.05)">
      <g
         id="text158"
         style="font-weight:bold;font-size:2.37100005px;font-family:'Proxima Nova';dominant-baseline:alphabetic;text-anchor:middle;fill:#faf7f0"
         aria-label="OUT">
        <path
           id="path409"
           style="font-weight:bold;font-size:2.37100005px;font-family:'Proxima Nova';dominant-baseline:alphabetic;text-anchor:middle;fill:#faf7f0"
           d="m -2.3853187,-0.78954302 c 0,0.47657101 0.348537,0.81799502 0.825108,0.81799502 0.4789421,0 0.82747907,-0.34142401 0.82747907,-0.81799502 0,-0.47657098 -0.34853697,-0.81799498 -0.82747907,-0.81799498 -0.476571,0 -0.825108,0.341424 -0.825108,0.81799498 z m 1.3064211,0 c 0,0.29400401 -0.18968,0.51924901 -0.4813131,0.51924901 -0.291633,0 -0.478942,-0.225245 -0.478942,-0.51924901 0,-0.29637498 0.187309,-0.51924898 0.478942,-0.51924898 0.2916331,0 0.4813131,0.222874 0.4813131,0.51924898 z" />
        <path
           id="path411"
           style="font-weight:bold;font-size:2.37100005px;font-family:'Proxima Nova';dominant-baseline:alphabetic;text-anchor:middle;fill:#faf7f0"
           d="m -0.49414978,-0.63068601 c 0,0.388844 0.23235801,0.65913801 0.71367102,0.65913801 0.48131301,0 0.71367101,-0.26792301 0.71367101,-0.66150901 V -1.581457 H 0.58939724 v 0.93891599 c 0,0.220503 -0.125663,0.372247 -0.369876,0.372247 -0.24421301,0 -0.37224701,-0.151744 -0.37224701,-0.372247 V -1.581457 h -0.34142401 z" />
        <path
           id="path413"
           style="font-weight:bold;font-size:2.37100005px;font-family:'Proxima Nova';dominant-baseline:alphabetic;text-anchor:middle;fill:#faf7f0"
           d="m 1.6075565,0 h 0.339053 v -1.285082 h 0.459974 v -0.296375 h -1.261372 v 0.296375 h 0.462345 z" />
      </g>
    </g>
    <path
       id="line162"
       d="M 8.7089996,108 H 52.250999"
       style="stroke-width:0.34999999" />
    <path
       id="rect164"
       d="M 4.5090001,101.47 H 12.909 c 0.554,0 1,0.446 1,1 v 10.98 c 0,0.554 -0.446,1 -1,1 H 4.5090001 c -0.554,0 -1,-0.446 -1,-1 v -10.98 c 0,-0.554 0.446,-1 1,-1 z"
       style="fill:#faf7f0;stroke:#0044cc;stroke-width:0.34999999" />
    <g
       id="g168"
       transform="translate(8.709,104.05)">
      <g
         id="text166"
         style="font-weight:bold;font-size:2.37100005px;font-family:'Proxima Nova';dominant-baseline:alphabetic;text-anchor:middle;fill:#0044cc"
         aria-label="IN">
        <path
           id="path418"
           style="font-weight:bold;font-size:2.37100005px;font-family:'Proxima Nova';dominant-baseline:alphabetic;text-anchor:middle;fill:#0044cc"
           d="m -1.0313295,0 h 0.33668206 V -1.581457 H -1.0313295 Z" />
        <path
           id="path420"
           style="font-weight:bold;font-size:2.37100005px;font-family:'Proxima Nova';dominant-baseline:alphabetic;text-anchor:middle;fill:#0044cc"
           d="M 0.70765089,0 H 1.0324779 V -1.581457 H 0.69579589 v 0.99344899 L -0.03684313,-1.581457 h -0.346166 V 0 h 0.336682 v -1.031385 z" />
      </g>
    </g>
    <g
       id="g172"
       transform="translate(19.594,112)">
      <g
         id="text170"
         style="font-weight:bold;font-size:2.37100005px;font-family:'Proxima Nova';dominant-baseline:hanging;text-anchor:middle;fill:#0044cc"
         aria-label="ADD">
        <path
           id="path423"
           style="font-weight:bold;font-size:2.37100005px;font-family:'Proxima Nova';dominant-baseline:hanging;text-anchor:middle;fill:#0044cc"
           d="m -1.2674107,1.498472 h 0.38410204 L -1.4926557,-0.08298506 h -0.422038 L -2.5264117,1.498472 h 0.384102 l 0.099582,-0.267923 h 0.678106 z m -0.436264,-1.24477505 0.246584,0.68047701 h -0.493168 z" />
        <path
           id="path425"
           style="font-weight:bold;font-size:2.37100005px;font-family:'Proxima Nova';dominant-baseline:hanging;text-anchor:middle;fill:#0044cc"
           d="m -0.73726984,1.498472 h 0.62357301 c 0.49553902,0 0.83933402,-0.312972 0.83933402,-0.78954304 0,-0.47657101 -0.343795,-0.79191402 -0.83933402,-0.79191402 H -0.73726984 Z M -0.40058783,1.202097 V 0.21338995 h 0.286891 c 0.32482701,0 0.49553902,0.215761 0.49553902,0.49553901 0,0.267923 -0.18256701,0.49316804 -0.49553902,0.49316804 z" />
        <path
           id="path427"
           style="font-weight:bold;font-size:2.37100005px;font-family:'Proxima Nova';dominant-baseline:hanging;text-anchor:middle;fill:#0044cc"
           d="M 0.96688644,1.498472 H 1.5904595 c 0.495539,0 0.839334,-0.312972 0.839334,-0.78954304 0,-0.47657101 -0.343795,-0.79191402 -0.839334,-0.79191402 H 0.96688644 Z M 1.3035684,1.202097 V 0.21338995 h 0.2868911 c 0.324827,0 0.495539,0.215761 0.495539,0.49553901 0,0.267923 -0.182567,0.49316804 -0.495539,0.49316804 z" />
      </g>
    </g>
    <g
       id="g176"
       transform="translate(19.594,104)">
      <g
         id="text174"
         style="font-weight:bold;font-size:2.37100005px;font-family:'Proxima Nova';dominant-baseline:alphabetic;text-anchor:middle;fill:#0044cc"
         aria-label="MULT">
        <path
           id="path430"
           style="font-weight:bold;font-size:2.37100005px;font-family:'Proxima Nova';dominant-baseline:alphabetic;text-anchor:middle;fill:#0044cc"
           d="m -1.5432247,0 h 0.339053 v -1.581457 h -0.4742 l -0.384102,0.95551299 -0.384102,-0.95551299 h -0.471829 V 0 h 0.336682 V -1.107257 L -2.1359747,0 h 0.147002 l 0.445748,-1.107257 z" />
        <path
           id="path432"
           style="font-weight:bold;font-size:2.37100005px;font-family:'Proxima Nova';dominant-baseline:alphabetic;text-anchor:middle;fill:#0044cc"
           d="m -0.89008819,-0.63068601 c 0,0.388844 0.232358,0.65913801 0.71367101,0.65913801 0.48131302,0 0.71367102,-0.26792301 0.71367102,-0.66150901 V -1.581457 H 0.19345883 v 0.93891599 c 0,0.220503 -0.125663,0.372247 -0.36987601,0.372247 -0.244213,0 -0.372247,-0.151744 -0.372247,-0.372247 V -1.581457 h -0.34142401 z" />
        <path
           id="path434"
           style="font-weight:bold;font-size:2.37100005px;font-family:'Proxima Nova';dominant-baseline:alphabetic;text-anchor:middle;fill:#0044cc"
           d="M 0.84648408,0 H 1.8517881 V -0.29637501 H 1.1831661 V -1.581457 H 0.84648408 Z" />
        <path
           id="path436"
           style="font-weight:bold;font-size:2.37100005px;font-family:'Proxima Nova';dominant-baseline:alphabetic;text-anchor:middle;fill:#0044cc"
           d="m 2.2165147,0 h 0.339053 v -1.285082 h 0.459974 v -0.296375 h -1.261372 v 0.296375 h 0.462345 z" />
      </g>
    </g>
    <g
       id="g180"
       transform="translate(30.48,100.65)">
      <g
         id="text178"
         style="font-weight:bold;font-size:3.0480001px;font-family:'Proxima Nova';dominant-baseline:alphabetic;text-anchor:middle;fill:#0044cc" />
    </g>
    <path
       id="rect182"
       d="m 48.050999,101.47 h 8.399999 c 0.554,0 1,0.446 1,1 v 10.98 c 0,0.554 -0.446,1 -1,1 h -8.399999 c -0.554,0 -1,-0.446 -1,-1 v -10.98 c 0,-0.554 0.446,-1 1,-1 z"
       style="fill:#0044cc;stroke:#0044cc;stroke-width:0.34999999" />
    <g
       id="g186"
       transform="translate(52.251,104.05)">
      <g
         id="text184"
         style="font-weight:bold;font-size:2.37100005px;font-family:'Proxima Nova';dominant-baseline:alphabetic;text-anchor:middle;fill:#faf7f0"
         aria-label="OUT">
        <path
           id="path441"
           style="font-weight:bold;font-size:2.37100005px;font-family:'Proxima Nova';dominant-baseline:alphabetic;text-anchor:middle;fill:#faf7f0"
           d="m -2.3853187,-0.78954302 c 0,0.47657101 0.348537,0.81799502 0.825108,0.81799502 0.4789421,0 0.82747907,-0.34142401 0.82747907,-0.81799502 0,-0.47657098 -0.34853697,-0.81799498 -0.82747907,-0.81799498 -0.476571,0 -0.825108,0.341424 -0.825108,0.81799498 z m 1.3064211,0 c 0,0.29400401 -0.18968,0.51924901 -0.4813131,0.51924901 -0.291633,0 -0.478942,-0.225245 -0.478942,-0.51924901 0,-0.29637498 0.187309,-0.51924898 0.478942,-0.51924898 0.2916331,0 0.4813131,0.222874 0.4813131,0.51924898 z" />
        <path
           id="path443"
           style="font-weight:bold;font-size:2.37100005px;font-family:'Proxima Nova';dominant-baseline:alphabetic;text-anchor:middle;fill:#faf7f0"
           d="m -0.49414978,-0.63068601 c 0,0.388844 0.23235801,0.65913801 0.71367102,0.65913801 0.48131301,0 0.71367101,-0.26792301 0.71367101,-0.66150901 V -1.581457 H 0.58939724 v 0.93891599 c 0,0.220503 -0.125663,0.372247 -0.369876,0.372247 -0.24421301,0 -0.37224701,-0.151744 -0.37224701,-0.372247 V -1.581457 h -0.34142401 z" />
        <path
           id="path445"
           style="font-weight:bold;font-size:2.37100005px;font-family:'Proxima Nova';dominant-baseline:alphabetic;text-anchor:middle;fill:#faf7f0"
           d="m 1.6075565,0 h 0.339053 v -1.285082 h 0.459974 v -0.296375 h -1.261372 v 0.296375 h 0.462345 z" />
      </g>
    </g>
    <g
       id="g190"
       transform="translate(52.251,104.05)">
      <g
         id="text188"
         style="font-weight:bold;font-size:2.37100005px;font-family:'Proxima Nova';dominant-baseline:alphabetic;text-anchor:middle;fill:#faf7f0"
         aria-label="OUT">
        <path
           id="path448"
           style="font-weight:bold;font-size:2.37100005px;font-family:'Proxima Nova';dominant-baseline:alphabetic;text-anchor:middle;fill:#faf7f0"
           d="m -2.3853187,-0.78954302 c 0,0.47657101 0.348537,0.81799502 0.825108,0.81799502 0.4789421,0 0.82747907,-0.34142401 0.82747907,-0.81799502 0,-0.47657098 -0.34853697,-0.81799498 -0.82747907,-0.81799498 -0.476571,0 -0.825108,0.341424 -0.825108,0.81799498 z m 1.3064211,0 c 0,0.29400401 -0.18968,0.51924901 -0.4813131,0.51924901 -0.291633,0 -0.478942,-0.225245 -0.478942,-0.51924901 0,-0.29637498 0.187309,-0.51924898 0.478942,-0.51924898 0.2916331,0 0.4813131,0.222874 0.4813131,0.51924898 z" />
        <path
           id="path450"
           style="font-weight:bold;font-size:2.37100005px;font-family:'Proxima Nova';dominant-baseline:alphabetic;text-anchor:middle;fill:#faf7f0"
           d="m -0.49414978,-0.63068601 c 0,0.388844 0.23235801,0.65913801 0.71367102,0.65913801 0.48131301,0 0.71367101,-0.26792301 0.71367101,-0.66150901 V -1.581457 H 0.58939724 v 0.93891599 c 0,0.220503 -0.125663,0.372247 -0.369876,0.372247 -0.24421301,0 -0.37224701,-0.151744 -0.37224701,-0.372247 V -1.581457 h -0.34142401 z" />
        <path
           id="path452"
           style="font-weight:bold;font-size:2.37100005px;font-family:'Proxima Nova';dominant-baseline:alphabetic;text-anchor:middle;fill:#faf7f0"
           d="m 1.6075565,0 h 0.339053 v -1.285082 h 0.459974 v -0.296375 h -1.261372 v 0.296375 h 0.462345 z" />
      </g>
    </g>
  </g>
</svg>
