<?xml version="1.0" encoding="UTF-8" standalone="no"?>
<svg xmlns="http://www.w3.org/2000/svg" xmlns:svg="http://www.w3.org/2000/svg" version="1.1" viewBox="0 0 60.96 128.5" height="128.5mm" width="60.959999mm">
  <defs/>
  <g>
    <rect x="0.25" y="0.25" width="60.459999" height="128" fill="#f0f3fa" stroke="#0044cc" stroke-width="0.5"/>
    <g style="font-weight:bold;font-size:4.064px;font-family:'Proxima Nova';dominant-baseline:alphabetic;text-anchor:middle;fill:#0044cc">
      <path d="m 23.477473,9 h 0.577088 V 7.870208 h 1.312672 V 7.3743999 h -1.312672 v -0.58928 h 1.34112 v -0.495808 h -1.918208 z" style="font-weight:bold;font-size:4.064px;font-family:'Proxima Nova';dominant-baseline:alphabetic;text-anchor:middle;fill:#0044cc"/>
      <path d="m 25.795223,7.918976 c 0,0.666496 0.38608,1.129792 1.215136,1.129792 0.820928,0 1.207008,-0.459232 1.207008,-1.133856 V 6.2893119 H 27.632151 V 7.898656 c 0,0.377952 -0.207264,0.638048 -0.621792,0.638048 -0.422656,0 -0.62992,-0.260096 -0.62992,-0.638048 V 6.2893119 h -0.585216 z" style="font-weight:bold;font-size:4.064px;font-family:'Proxima Nova';dominant-baseline:alphabetic;text-anchor:middle;fill:#0044cc"/>
      <path d="m 30.625351,9 h 0.556768 V 6.2893119 H 30.605031 V 8.04496 L 29.349255,6.2893119 H 28.755911 V 9 h 0.577088 V 7.1793279 Z" style="font-weight:bold;font-size:4.064px;font-family:'Proxima Nova';dominant-baseline:alphabetic;text-anchor:middle;fill:#0044cc"/>
      <path d="m 33.008951,9.048768 c 0.617728,0 0.959104,-0.329184 1.154176,-0.666496 L 33.667319,8.142496 c -0.113792,0.22352 -0.357632,0.394208 -0.658368,0.394208 -0.471424,0 -0.829056,-0.377952 -0.829056,-0.890016 0,-0.5120641 0.357632,-0.8900161 0.829056,-0.8900161 0.300736,0 0.544576,0.174752 0.658368,0.394208 l 0.495808,-0.24384 c -0.191008,-0.337312 -0.536448,-0.662432 -1.154176,-0.662432 -0.79248,0 -1.4224,0.56896 -1.4224,1.4020801 0,0.83312 0.62992,1.40208 1.4224,1.40208 z" style="font-weight:bold;font-size:4.064px;font-family:'Proxima Nova';dominant-baseline:alphabetic;text-anchor:middle;fill:#0044cc"/>
      <path d="m 35.420363,7.650752 c 0,0.764032 0.34544,1.398016 1.170432,1.398016 0.617728,0 1.03632,-0.402336 1.03632,-0.930656 0,-0.577088 -0.434848,-0.8737601 -0.922528,-0.8737601 -0.296672,0 -0.56896,0.16256 -0.694944,0.3454401 -0.0041,-0.016256 -0.0041,-0.036576 -0.0041,-0.056896 0,-0.4307841 0.268224,-0.7843521 0.678688,-0.7843521 0.239776,0 0.394208,0.077216 0.540512,0.215392 l 0.260096,-0.434848 c -0.195072,-0.166624 -0.471424,-0.280416 -0.800608,-0.280416 -0.800608,0 -1.263904,0.581152 -1.263904,1.4020801 z m 1.621536,0.491744 c 0,0.191008 -0.166624,0.402336 -0.479552,0.402336 -0.382016,0 -0.52832,-0.300736 -0.552704,-0.560832 0.130048,-0.158496 0.32512,-0.260096 0.52832,-0.260096 0.26416,0 0.503936,0.125984 0.503936,0.418592 z" style="font-weight:bold;font-size:4.064px;font-family:'Proxima Nova';dominant-baseline:alphabetic;text-anchor:middle;fill:#0044cc"/>
    </g>
    <g style="font-weight:bold;font-size:4.064px;font-family:'Proxima Nova';dominant-baseline:hanging;text-anchor:middle;fill:#0044cc">
      <path d="m 26.616755,122.2581 h 1.068832 c 0.849376,0 1.438656,-0.53645 1.438656,-1.35331 0,-0.81687 -0.58928,-1.35738 -1.438656,-1.35738 h -1.068832 z m 0.577088,-0.508 v -1.69469 h 0.491744 c 0.556768,0 0.849376,0.36983 0.849376,0.84938 0,0.45923 -0.312928,0.84531 -0.849376,0.84531 z" style="font-weight:bold;font-size:4.064px;font-family:'Proxima Nova';dominant-baseline:hanging;text-anchor:middle;fill:#0044cc"/>
      <path d="m 31.395003,122.2581 h 0.581152 v -2.71069 h -0.581152 v 1.06477 h -1.28016 v -1.06477 h -0.577088 v 2.71069 h 0.577088 v -1.13792 h 1.28016 z" style="font-weight:bold;font-size:4.064px;font-family:'Proxima Nova';dominant-baseline:hanging;text-anchor:middle;fill:#0044cc"/>
      <path d="m 32.50638,122.2581 h 1.918208 v -0.49987 h -1.34112 v -0.62992 h 1.312672 v -0.49581 h -1.312672 v -0.58928 h 1.34112 v -0.49581 H 32.50638 Z" style="font-weight:bold;font-size:4.064px;font-family:'Proxima Nova';dominant-baseline:hanging;text-anchor:middle;fill:#0044cc"/>
    </g>
    <line x1="8.7085714" y1="23" x2="52.251427" y2="23" stroke="#0044cc" stroke-width="0.35"/>
    <rect x="3.5085714" y="16.469555" width="10.4" height="12.980445" rx="1" ry="1" fill="#f0f3fa" stroke="#0044cc" stroke-width="0.35"/>
    <g style="font-weight:bold;font-size:2.37067px;font-family:'Proxima Nova';dominant-baseline:alphabetic;text-anchor:middle;fill:#0044cc">
      <path d="M 7.677387,19.049999 H 8.0140216 V 17.468765 H 7.677387 Z" style="font-weight:bold;font-size:2.37067px;font-family:'Proxima Nova';dominant-baseline:alphabetic;text-anchor:middle;fill:#0044cc"/>
      <path d="M 9.4161228,19.049999 H 9.7409042 V 17.468765 H 9.4042695 v 1.024128 L 8.6717335,17.468765 H 8.3256161 v 1.581234 h 0.3366347 v -1.062058 z" style="font-weight:bold;font-size:2.37067px;font-family:'Proxima Nova';dominant-baseline:alphabetic;text-anchor:middle;fill:#0044cc"/>
    </g>
    <g style="font-weight:bold;font-size:2.37067px;font-family:'Proxima Nova';dominant-baseline:hanging;text-anchor:middle;fill:#0044cc">
      <path d="m 18.343648,28.608893 h 0.367453 L 18.10184,27.027659 h -0.421979 l -0.611632,1.581234 h 0.369824 l 0.09957,-0.272626 h 0.706459 z m -0.452797,-1.289642 0.260773,0.725424 h -0.523917 z" style="font-weight:bold;font-size:2.37067px;font-family:'Proxima Nova';dominant-baseline:hanging;text-anchor:middle;fill:#0044cc"/>
      <path d="m 18.85712,28.608893 h 0.623485 c 0.495469,0 0.839216,-0.312928 0.839216,-0.789432 0,-0.476504 -0.343747,-0.791802 -0.839216,-0.791802 H 18.85712 Z m 0.336634,-0.296333 v -0.988568 h 0.286851 c 0.324781,0 0.495469,0.215731 0.495469,0.495469 0,0.267886 -0.182541,0.493099 -0.495469,0.493099 z" style="font-weight:bold;font-size:2.37067px;font-family:'Proxima Nova';dominant-baseline:hanging;text-anchor:middle;fill:#0044cc"/>
      <path d="m 20.561036,28.608893 h 0.623486 c 0.495469,0 0.839216,-0.312928 0.839216,-0.789432 0,-0.476504 -0.343747,-0.791802 -0.839216,-0.791802 h -0.623486 z m 0.336635,-0.296333 v -0.988568 h 0.286851 c 0.324781,0 0.495469,0.215731 0.495469,0.495469 0,0.267886 -0.182541,0.493099 -0.495469,0.493099 z" style="font-weight:bold;font-size:2.37067px;font-family:'Proxima Nova';dominant-baseline:hanging;text-anchor:middle;fill:#0044cc"/>
    </g>
    <g style="font-weight:bold;font-size:2.37067px;font-family:'Proxima Nova';dominant-baseline:alphabetic;text-anchor:middle;fill:#0044cc">
      <path d="m 18.055908,19 h 0.339006 V 17.418765 H 17.92078 l -0.384048,0.986198 -0.384048,-0.986198 H 16.680922 V 19 h 0.336634 V 17.86208 L 17.463242,19 h 0.146981 l 0.445685,-1.13792 z" style="font-weight:bold;font-size:2.37067px;font-family:'Proxima Nova';dominant-baseline:alphabetic;text-anchor:middle;fill:#0044cc"/>
      <path d="m 18.708953,18.369403 c 0,0.388789 0.225213,0.659045 0.708829,0.659045 0.478875,0 0.704088,-0.267885 0.704088,-0.661416 v -0.948267 h -0.341376 v 0.938784 c 0,0.220472 -0.120904,0.372195 -0.362712,0.372195 -0.246549,0 -0.367453,-0.151723 -0.367453,-0.372195 v -0.938784 h -0.341376 z" style="font-weight:bold;font-size:2.37067px;font-family:'Proxima Nova';dominant-baseline:alphabetic;text-anchor:middle;fill:#0044cc"/>
      <path d="m 20.436021,19 h 1.005163 v -0.296333 h -0.668529 v -1.284902 h -0.336634 z" style="font-weight:bold;font-size:2.37067px;font-family:'Proxima Nova';dominant-baseline:alphabetic;text-anchor:middle;fill:#0044cc"/>
      <path d="m 21.805859,19 h 0.339005 v -1.284901 h 0.459909 v -0.296334 h -1.261194 v 0.296334 h 0.46228 z" style="font-weight:bold;font-size:2.37067px;font-family:'Proxima Nova';dominant-baseline:alphabetic;text-anchor:middle;fill:#0044cc"/>
    </g>
    <rect x="47.05143" y="16.469555" width="10.4" height="12.980445" rx="1" ry="1" fill="#0044cc" stroke="#0044cc" stroke-width="0.35"/>
    <g style="font-weight:bold;font-size:2.37067px;font-family:'Proxima Nova';dominant-baseline:alphabetic;text-anchor:middle;fill:#f0f3fa">
      <path d="m 49.871074,18.260567 c 0,0.476504 0.348488,0.81788 0.824992,0.81788 0.478874,0 0.827362,-0.341376 0.827362,-0.81788 0,-0.476504 -0.348488,-0.81788 -0.827362,-0.81788 -0.476504,0 -0.824992,0.341376 -0.824992,0.81788 z m 1.306237,0 c 0,0.293963 -0.189653,0.519176 -0.481245,0.519176 -0.291592,0 -0.478875,-0.225213 -0.478875,-0.519176 0,-0.296333 0.187283,-0.519176 0.478875,-0.519176 0.291592,0 0.481245,0.222843 0.481245,0.519176 z" style="font-weight:bold;font-size:2.37067px;font-family:'Proxima Nova';dominant-baseline:alphabetic;text-anchor:middle;fill:#f0f3fa"/>
      <path d="m 51.761977,18.419402 c 0,0.388789 0.225213,0.659045 0.708829,0.659045 0.478875,0 0.704088,-0.267885 0.704088,-0.661416 v -0.948266 h -0.341376 v 0.938784 c 0,0.220472 -0.120904,0.372194 -0.362712,0.372194 -0.246549,0 -0.367453,-0.151722 -0.367453,-0.372194 v -0.938784 h -0.341376 z" style="font-weight:bold;font-size:2.37067px;font-family:'Proxima Nova';dominant-baseline:alphabetic;text-anchor:middle;fill:#f0f3fa"/>
      <path d="m 53.854127,19.049999 h 0.339005 v -1.284901 h 0.45991 v -0.296333 h -1.261195 v 0.296333 h 0.46228 z" style="font-weight:bold;font-size:2.37067px;font-family:'Proxima Nova';dominant-baseline:alphabetic;text-anchor:middle;fill:#f0f3fa"/>
    </g>
    <line x1="8.7085714" y1="40" x2="52.251427" y2="40" stroke="#0044cc" stroke-width="0.35"/>
    <rect x="3.5085714" y="33.469555" width="10.4" height="12.980445" rx="1" ry="1" fill="#f0f3fa" stroke="#0044cc" stroke-width="0.35"/>
    <g style="font-weight:bold;font-size:2.37067px;font-family:'Proxima Nova';dominant-baseline:alphabetic;text-anchor:middle;fill:#0044cc">
      <path d="M 7.677387,36.049999 H 8.0140216 V 34.468765 H 7.677387 Z" style="font-weight:bold;font-size:2.37067px;font-family:'Proxima Nova';dominant-baseline:alphabetic;text-anchor:middle;fill:#0044cc"/>
      <path d="M 9.4161228,36.049999 H 9.7409042 V 34.468765 H 9.4042695 v 1.024128 L 8.6717335,34.468765 H 8.3256161 v 1.581234 h 0.3366347 v -1.062058 z" style="font-weight:bold;font-size:2.37067px;font-family:'Proxima Nova';dominant-baseline:alphabetic;text-anchor:middle;fill:#0044cc"/>
    </g>
    <g style="font-weight:bold;font-size:2.37067px;font-family:'Proxima Nova';dominant-baseline:hanging;text-anchor:middle;fill:#0044cc">
      <path d="m 18.343648,45.608891 h 0.367453 L 18.10184,44.027657 h -0.421979 l -0.611632,1.581234 h 0.369824 l 0.09957,-0.272626 h 0.706459 z m -0.452797,-1.289642 0.260773,0.725424 h -0.523917 z" style="font-weight:bold;font-size:2.37067px;font-family:'Proxima Nova';dominant-baseline:hanging;text-anchor:middle;fill:#0044cc"/>
      <path d="m 18.85712,45.608891 h 0.623485 c 0.495469,0 0.839216,-0.312928 0.839216,-0.789432 0,-0.476504 -0.343747,-0.791802 -0.839216,-0.791802 H 18.85712 Z m 0.336634,-0.296333 V 44.32399 h 0.286851 c 0.324781,0 0.495469,0.215731 0.495469,0.495469 0,0.267886 -0.182541,0.493099 -0.495469,0.493099 z" style="font-weight:bold;font-size:2.37067px;font-family:'Proxima Nova';dominant-baseline:hanging;text-anchor:middle;fill:#0044cc"/>
      <path d="m 20.561036,45.608891 h 0.623486 c 0.495469,0 0.839216,-0.312928 0.839216,-0.789432 0,-0.476504 -0.343747,-0.791802 -0.839216,-0.791802 h -0.623486 z m 0.336635,-0.296333 V 44.32399 h 0.286851 c 0.324781,0 0.495469,0.215731 0.495469,0.495469 0,0.267886 -0.182541,0.493099 -0.495469,0.493099 z" style="font-weight:bold;font-size:2.37067px;font-family:'Proxima Nova';dominant-baseline:hanging;text-anchor:middle;fill:#0044cc"/>
    </g>
    <g style="font-weight:bold;font-size:2.37067px;font-family:'Proxima Nova';dominant-baseline:alphabetic;text-anchor:middle;fill:#0044cc">
      <path d="m 18.055908,36 h 0.339006 V 34.418765 H 17.92078 l -0.384048,0.986198 -0.384048,-0.986198 H 16.680922 V 36 h 0.336634 V 34.86208 L 17.463242,36 h 0.146981 l 0.445685,-1.13792 z" style="font-weight:bold;font-size:2.37067px;font-family:'Proxima Nova';dominant-baseline:alphabetic;text-anchor:middle;fill:#0044cc"/>
      <path d="m 18.708953,35.369403 c 0,0.388789 0.225213,0.659045 0.708829,0.659045 0.478875,0 0.704088,-0.267885 0.704088,-0.661416 v -0.948267 h -0.341376 v 0.938784 c 0,0.220472 -0.120904,0.372195 -0.362712,0.372195 -0.246549,0 -0.367453,-0.151723 -0.367453,-0.372195 v -0.938784 h -0.341376 z" style="font-weight:bold;font-size:2.37067px;font-family:'Proxima Nova';dominant-baseline:alphabetic;text-anchor:middle;fill:#0044cc"/>
      <path d="m 20.436021,36 h 1.005163 v -0.296333 h -0.668529 v -1.284902 h -0.336634 z" style="font-weight:bold;font-size:2.37067px;font-family:'Proxima Nova';dominant-baseline:alphabetic;text-anchor:middle;fill:#0044cc"/>
      <path d="m 21.805859,36 h 0.339005 v -1.284901 h 0.459909 v -0.296334 h -1.261194 v 0.296334 h 0.46228 z" style="font-weight:bold;font-size:2.37067px;font-family:'Proxima Nova';dominant-baseline:alphabetic;text-anchor:middle;fill:#0044cc"/>
    </g>
    <rect x="47.05143" y="33.469555" width="10.4" height="12.980445" rx="1" ry="1" fill="#0044cc" stroke="#0044cc" stroke-width="0.35"/>
    <g style="font-weight:bold;font-size:2.37067px;font-family:'Proxima Nova';dominant-baseline:alphabetic;text-anchor:middle;fill:#f0f3fa">
      <path d="m 49.871074,35.260567 c 0,0.476504 0.348488,0.81788 0.824992,0.81788 0.478874,0 0.827362,-0.341376 0.827362,-0.81788 0,-0.476504 -0.348488,-0.81788 -0.827362,-0.81788 -0.476504,0 -0.824992,0.341376 -0.824992,0.81788 z m 1.306237,0 c 0,0.293963 -0.189653,0.519176 -0.481245,0.519176 -0.291592,0 -0.478875,-0.225213 -0.478875,-0.519176 0,-0.296333 0.187283,-0.519176 0.478875,-0.519176 0.291592,0 0.481245,0.222843 0.481245,0.519176 z" style="font-weight:bold;font-size:2.37067px;font-family:'Proxima Nova';dominant-baseline:alphabetic;text-anchor:middle;fill:#f0f3fa"/>
      <path d="m 51.761977,35.419402 c 0,0.388789 0.225213,0.659045 0.708829,0.659045 0.478875,0 0.704088,-0.267885 0.704088,-0.661416 v -0.948266 h -0.341376 v 0.938784 c 0,0.220472 -0.120904,0.372194 -0.362712,0.372194 -0.246549,0 -0.367453,-0.151722 -0.367453,-0.372194 v -0.938784 h -0.341376 z" style="font-weight:bold;font-size:2.37067px;font-family:'Proxima Nova';dominant-baseline:alphabetic;text-anchor:middle;fill:#f0f3fa"/>
      <path d="m 53.854127,36.049999 h 0.339005 v -1.284901 h 0.45991 v -0.296333 h -1.261195 v 0.296333 h 0.46228 z" style="font-weight:bold;font-size:2.37067px;font-family:'Proxima Nova';dominant-baseline:alphabetic;text-anchor:middle;fill:#f0f3fa"/>
    </g>
    <line x1="8.7085714" y1="57" x2="52.251427" y2="57" stroke="#0044cc" stroke-width="0.35"/>
    <rect x="3.5085714" y="50.469555" width="10.4" height="12.980445" rx="1" ry="1" fill="#f0f3fa" stroke="#0044cc" stroke-width="0.35"/>
    <g style="font-weight:bold;font-size:2.37067px;font-family:'Proxima Nova';dominant-baseline:alphabetic;text-anchor:middle;fill:#0044cc">
      <path d="M 7.677387,53.049999 H 8.0140216 V 51.468765 H 7.677387 Z" style="font-weight:bold;font-size:2.37067px;font-family:'Proxima Nova';dominant-baseline:alphabetic;text-anchor:middle;fill:#0044cc"/>
      <path d="M 9.4161228,53.049999 H 9.7409042 V 51.468765 H 9.4042695 v 1.024128 L 8.6717335,51.468765 H 8.3256161 v 1.581234 h 0.3366347 v -1.062058 z" style="font-weight:bold;font-size:2.37067px;font-family:'Proxima Nova';dominant-baseline:alphabetic;text-anchor:middle;fill:#0044cc"/>
    </g>
    <g style="font-weight:bold;font-size:2.37067px;font-family:'Proxima Nova';dominant-baseline:hanging;text-anchor:middle;fill:#0044cc">
      <path d="m 18.343648,62.608891 h 0.367453 L 18.10184,61.027657 h -0.421979 l -0.611632,1.581234 h 0.369824 l 0.09957,-0.272626 h 0.706459 z m -0.452797,-1.289642 0.260773,0.725424 h -0.523917 z" style="font-weight:bold;font-size:2.37067px;font-family:'Proxima Nova';dominant-baseline:hanging;text-anchor:middle;fill:#0044cc"/>
      <path d="m 18.85712,62.608891 h 0.623485 c 0.495469,0 0.839216,-0.312928 0.839216,-0.789432 0,-0.476504 -0.343747,-0.791802 -0.839216,-0.791802 H 18.85712 Z m 0.336634,-0.296333 V 61.32399 h 0.286851 c 0.324781,0 0.495469,0.215731 0.495469,0.495469 0,0.267886 -0.182541,0.493099 -0.495469,0.493099 z" style="font-weight:bold;font-size:2.37067px;font-family:'Proxima Nova';dominant-baseline:hanging;text-anchor:middle;fill:#0044cc"/>
      <path d="m 20.561036,62.608891 h 0.623486 c 0.495469,0 0.839216,-0.312928 0.839216,-0.789432 0,-0.476504 -0.343747,-0.791802 -0.839216,-0.791802 h -0.623486 z m 0.336635,-0.296333 V 61.32399 h 0.286851 c 0.324781,0 0.495469,0.215731 0.495469,0.495469 0,0.267886 -0.182541,0.493099 -0.495469,0.493099 z" style="font-weight:bold;font-size:2.37067px;font-family:'Proxima Nova';dominant-baseline:hanging;text-anchor:middle;fill:#0044cc"/>
    </g>
    <g style="font-weight:bold;font-size:2.37067px;font-family:'Proxima Nova';dominant-baseline:alphabetic;text-anchor:middle;fill:#0044cc">
      <path d="m 18.055908,53 h 0.339006 V 51.418765 H 17.92078 l -0.384048,0.986198 -0.384048,-0.986198 H 16.680922 V 53 h 0.336634 V 51.86208 L 17.463242,53 h 0.146981 l 0.445685,-1.13792 z" style="font-weight:bold;font-size:2.37067px;font-family:'Proxima Nova';dominant-baseline:alphabetic;text-anchor:middle;fill:#0044cc"/>
      <path d="m 18.708953,52.369403 c 0,0.388789 0.225213,0.659045 0.708829,0.659045 0.478875,0 0.704088,-0.267885 0.704088,-0.661416 v -0.948267 h -0.341376 v 0.938784 c 0,0.220472 -0.120904,0.372195 -0.362712,0.372195 -0.246549,0 -0.367453,-0.151723 -0.367453,-0.372195 v -0.938784 h -0.341376 z" style="font-weight:bold;font-size:2.37067px;font-family:'Proxima Nova';dominant-baseline:alphabetic;text-anchor:middle;fill:#0044cc"/>
      <path d="m 20.436021,53 h 1.005163 v -0.296333 h -0.668529 v -1.284902 h -0.336634 z" style="font-weight:bold;font-size:2.37067px;font-family:'Proxima Nova';dominant-baseline:alphabetic;text-anchor:middle;fill:#0044cc"/>
      <path d="m 21.805859,53 h 0.339005 v -1.284901 h 0.459909 v -0.296334 h -1.261194 v 0.296334 h 0.46228 z" style="font-weight:bold;font-size:2.37067px;font-family:'Proxima Nova';dominant-baseline:alphabetic;text-anchor:middle;fill:#0044cc"/>
    </g>
    <rect x="47.05143" y="50.469555" width="10.4" height="12.980445" rx="1" ry="1" fill="#0044cc" stroke="#0044cc" stroke-width="0.35"/>
    <g style="font-weight:bold;font-size:2.37067px;font-family:'Proxima Nova';dominant-baseline:alphabetic;text-anchor:middle;fill:#f0f3fa">
      <path d="m 49.871074,52.260567 c 0,0.476504 0.348488,0.81788 0.824992,0.81788 0.478874,0 0.827362,-0.341376 0.827362,-0.81788 0,-0.476504 -0.348488,-0.81788 -0.827362,-0.81788 -0.476504,0 -0.824992,0.341376 -0.824992,0.81788 z m 1.306237,0 c 0,0.293963 -0.189653,0.519176 -0.481245,0.519176 -0.291592,0 -0.478875,-0.225213 -0.478875,-0.519176 0,-0.296333 0.187283,-0.519176 0.478875,-0.519176 0.291592,0 0.481245,0.222843 0.481245,0.519176 z" style="font-weight:bold;font-size:2.37067px;font-family:'Proxima Nova';dominant-baseline:alphabetic;text-anchor:middle;fill:#f0f3fa"/>
      <path d="m 51.761977,52.419402 c 0,0.388789 0.225213,0.659045 0.708829,0.659045 0.478875,0 0.704088,-0.267885 0.704088,-0.661416 v -0.948266 h -0.341376 v 0.938784 c 0,0.220472 -0.120904,0.372194 -0.362712,0.372194 -0.246549,0 -0.367453,-0.151722 -0.367453,-0.372194 v -0.938784 h -0.341376 z" style="font-weight:bold;font-size:2.37067px;font-family:'Proxima Nova';dominant-baseline:alphabetic;text-anchor:middle;fill:#f0f3fa"/>
      <path d="m 53.854127,53.049999 h 0.339005 v -1.284901 h 0.45991 v -0.296333 h -1.261195 v 0.296333 h 0.46228 z" style="font-weight:bold;font-size:2.37067px;font-family:'Proxima Nova';dominant-baseline:alphabetic;text-anchor:middle;fill:#f0f3fa"/>
    </g>
    <line x1="8.7085714" y1="74" x2="52.251427" y2="74" stroke="#0044cc" stroke-width="0.35"/>
    <rect x="3.5085714" y="67.469559" width="10.4" height="12.980445" rx="1" ry="1" fill="#f0f3fa" stroke="#0044cc" stroke-width="0.35"/>
    <g style="font-weight:bold;font-size:2.37067px;font-family:'Proxima Nova';dominant-baseline:alphabetic;text-anchor:middle;fill:#0044cc">
      <path d="M 7.677387,70.050003 H 8.0140216 V 68.468768 H 7.677387 Z" style="font-weight:bold;font-size:2.37067px;font-family:'Proxima Nova';dominant-baseline:alphabetic;text-anchor:middle;fill:#0044cc"/>
      <path d="M 9.4161228,70.050003 H 9.7409042 V 68.468768 H 9.4042695 v 1.024128 L 8.6717335,68.468768 H 8.3256161 v 1.581235 h 0.3366347 v -1.062059 z" style="font-weight:bold;font-size:2.37067px;font-family:'Proxima Nova';dominant-baseline:alphabetic;text-anchor:middle;fill:#0044cc"/>
    </g>
    <g style="font-weight:bold;font-size:2.37067px;font-family:'Proxima Nova';dominant-baseline:hanging;text-anchor:middle;fill:#0044cc">
      <path d="m 18.343648,79.608895 h 0.367453 L 18.10184,78.02766 h -0.421979 l -0.611632,1.581235 h 0.369824 l 0.09957,-0.272626 h 0.706459 z m -0.452797,-1.289643 0.260773,0.725424 h -0.523917 z" style="font-weight:bold;font-size:2.37067px;font-family:'Proxima Nova';dominant-baseline:hanging;text-anchor:middle;fill:#0044cc"/>
      <path d="m 18.85712,79.608895 h 0.623485 c 0.495469,0 0.839216,-0.312928 0.839216,-0.789432 0,-0.476504 -0.343747,-0.791803 -0.839216,-0.791803 H 18.85712 Z m 0.336634,-0.296333 v -0.988568 h 0.286851 c 0.324781,0 0.495469,0.21573 0.495469,0.495469 0,0.267885 -0.182541,0.493099 -0.495469,0.493099 z" style="font-weight:bold;font-size:2.37067px;font-family:'Proxima Nova';dominant-baseline:hanging;text-anchor:middle;fill:#0044cc"/>
      <path d="m 20.561036,79.608895 h 0.623486 c 0.495469,0 0.839216,-0.312928 0.839216,-0.789432 0,-0.476504 -0.343747,-0.791803 -0.839216,-0.791803 h -0.623486 z m 0.336635,-0.296333 v -0.988568 h 0.286851 c 0.324781,0 0.495469,0.21573 0.495469,0.495469 0,0.267885 -0.182541,0.493099 -0.495469,0.493099 z" style="font-weight:bold;font-size:2.37067px;font-family:'Proxima Nova';dominant-baseline:hanging;text-anchor:middle;fill:#0044cc"/>
    </g>
    <g style="font-weight:bold;font-size:2.37067px;font-family:'Proxima Nova';dominant-baseline:alphabetic;text-anchor:middle;fill:#0044cc">
      <path d="m 18.055908,70 h 0.339006 V 68.418765 H 17.92078 l -0.384048,0.986198 -0.384048,-0.986198 H 16.680922 V 70 h 0.336634 V 68.86208 L 17.463242,70 h 0.146981 l 0.445685,-1.13792 z" style="font-weight:bold;font-size:2.37067px;font-family:'Proxima Nova';dominant-baseline:alphabetic;text-anchor:middle;fill:#0044cc"/>
      <path d="m 18.708953,69.369403 c 0,0.388789 0.225213,0.659045 0.708829,0.659045 0.478875,0 0.704088,-0.267885 0.704088,-0.661416 v -0.948267 h -0.341376 v 0.938784 c 0,0.220472 -0.120904,0.372195 -0.362712,0.372195 -0.246549,0 -0.367453,-0.151723 -0.367453,-0.372195 v -0.938784 h -0.341376 z" style="font-weight:bold;font-size:2.37067px;font-family:'Proxima Nova';dominant-baseline:alphabetic;text-anchor:middle;fill:#0044cc"/>
      <path d="m 20.436021,70 h 1.005163 v -0.296333 h -0.668529 v -1.284902 h -0.336634 z" style="font-weight:bold;font-size:2.37067px;font-family:'Proxima Nova';dominant-baseline:alphabetic;text-anchor:middle;fill:#0044cc"/>
      <path d="m 21.805859,70 h 0.339005 v -1.284901 h 0.459909 v -0.296334 h -1.261194 v 0.296334 h 0.46228 z" style="font-weight:bold;font-size:2.37067px;font-family:'Proxima Nova';dominant-baseline:alphabetic;text-anchor:middle;fill:#0044cc"/>
    </g>
    <rect x="47.05143" y="67.469559" width="10.4" height="12.980445" rx="1" ry="1" fill="#0044cc" stroke="#0044cc" stroke-width="0.35"/>
    <g style="font-weight:bold;font-size:2.37067px;font-family:'Proxima Nova';dominant-baseline:alphabetic;text-anchor:middle;fill:#f0f3fa">
      <path d="m 49.871074,69.260571 c 0,0.476504 0.348488,0.81788 0.824992,0.81788 0.478874,0 0.827362,-0.341376 0.827362,-0.81788 0,-0.476504 -0.348488,-0.81788 -0.827362,-0.81788 -0.476504,0 -0.824992,0.341376 -0.824992,0.81788 z m 1.306237,0 c 0,0.293963 -0.189653,0.519176 -0.481245,0.519176 -0.291592,0 -0.478875,-0.225213 -0.478875,-0.519176 0,-0.296333 0.187283,-0.519176 0.478875,-0.519176 0.291592,0 0.481245,0.222843 0.481245,0.519176 z" style="font-weight:bold;font-size:2.37067px;font-family:'Proxima Nova';dominant-baseline:alphabetic;text-anchor:middle;fill:#f0f3fa"/>
      <path d="m 51.761977,69.419406 c 0,0.388789 0.225213,0.659045 0.708829,0.659045 0.478875,0 0.704088,-0.267885 0.704088,-0.661416 v -0.948267 h -0.341376 v 0.938784 c 0,0.220472 -0.120904,0.372195 -0.362712,0.372195 -0.246549,0 -0.367453,-0.151723 -0.367453,-0.372195 v -0.938784 h -0.341376 z" style="font-weight:bold;font-size:2.37067px;font-family:'Proxima Nova';dominant-baseline:alphabetic;text-anchor:middle;fill:#f0f3fa"/>
      <path d="m 53.854127,70.050003 h 0.339005 v -1.284901 h 0.45991 v -0.296334 h -1.261195 v 0.296334 h 0.46228 z" style="font-weight:bold;font-size:2.37067px;font-family:'Proxima Nova';dominant-baseline:alphabetic;text-anchor:middle;fill:#f0f3fa"/>
    </g>
    <line x1="8.7085714" y1="91" x2="52.251427" y2="91" stroke="#0044cc" stroke-width="0.35"/>
    <rect x="3.5085714" y="84.469559" width="10.4" height="12.980445" rx="1" ry="1" fill="#f0f3fa" stroke="#0044cc" stroke-width="0.35"/>
    <g style="font-weight:bold;font-size:2.37067px;font-family:'Proxima Nova';dominant-baseline:alphabetic;text-anchor:middle;fill:#0044cc">
      <path d="M 7.677387,87.050003 H 8.0140216 V 85.468768 H 7.677387 Z" style="font-weight:bold;font-size:2.37067px;font-family:'Proxima Nova';dominant-baseline:alphabetic;text-anchor:middle;fill:#0044cc"/>
      <path d="M 9.4161228,87.050003 H 9.7409042 V 85.468768 H 9.4042695 v 1.024128 L 8.6717335,85.468768 H 8.3256161 v 1.581235 h 0.3366347 v -1.062059 z" style="font-weight:bold;font-size:2.37067px;font-family:'Proxima Nova';dominant-baseline:alphabetic;text-anchor:middle;fill:#0044cc"/>
    </g>
    <g style="font-weight:bold;font-size:2.37067px;font-family:'Proxima Nova';dominant-baseline:hanging;text-anchor:middle;fill:#0044cc">
      <path d="m 18.343648,96.608895 h 0.367453 L 18.10184,95.02766 h -0.421979 l -0.611632,1.581235 h 0.369824 l 0.09957,-0.272626 h 0.706459 z m -0.452797,-1.289643 0.260773,0.725424 h -0.523917 z" style="font-weight:bold;font-size:2.37067px;font-family:'Proxima Nova';dominant-baseline:hanging;text-anchor:middle;fill:#0044cc"/>
      <path d="m 18.85712,96.608895 h 0.623485 c 0.495469,0 0.839216,-0.312928 0.839216,-0.789432 0,-0.476504 -0.343747,-0.791803 -0.839216,-0.791803 H 18.85712 Z m 0.336634,-0.296333 v -0.988568 h 0.286851 c 0.324781,0 0.495469,0.21573 0.495469,0.495469 0,0.267885 -0.182541,0.493099 -0.495469,0.493099 z" style="font-weight:bold;font-size:2.37067px;font-family:'Proxima Nova';dominant-baseline:hanging;text-anchor:middle;fill:#0044cc"/>
      <path d="m 20.561036,96.608895 h 0.623486 c 0.495469,0 0.839216,-0.312928 0.839216,-0.789432 0,-0.476504 -0.343747,-0.791803 -0.839216,-0.791803 h -0.623486 z m 0.336635,-0.296333 v -0.988568 h 0.286851 c 0.324781,0 0.495469,0.21573 0.495469,0.495469 0,0.267885 -0.182541,0.493099 -0.495469,0.493099 z" style="font-weight:bold;font-size:2.37067px;font-family:'Proxima Nova';dominant-baseline:hanging;text-anchor:middle;fill:#0044cc"/>
    </g>
    <g style="font-weight:bold;font-size:2.37067px;font-family:'Proxima Nova';dominant-baseline:alphabetic;text-anchor:middle;fill:#0044cc">
      <path d="m 18.055908,87 h 0.339006 V 85.418765 H 17.92078 l -0.384048,0.986198 -0.384048,-0.986198 H 16.680922 V 87 h 0.336634 V 85.86208 L 17.463242,87 h 0.146981 l 0.445685,-1.13792 z" style="font-weight:bold;font-size:2.37067px;font-family:'Proxima Nova';dominant-baseline:alphabetic;text-anchor:middle;fill:#0044cc"/>
      <path d="m 18.708953,86.369403 c 0,0.388789 0.225213,0.659045 0.708829,0.659045 0.478875,0 0.704088,-0.267885 0.704088,-0.661416 v -0.948267 h -0.341376 v 0.938784 c 0,0.220472 -0.120904,0.372195 -0.362712,0.372195 -0.246549,0 -0.367453,-0.151723 -0.367453,-0.372195 v -0.938784 h -0.341376 z" style="font-weight:bold;font-size:2.37067px;font-family:'Proxima Nova';dominant-baseline:alphabetic;text-anchor:middle;fill:#0044cc"/>
      <path d="m 20.436021,87 h 1.005163 v -0.296333 h -0.668529 v -1.284902 h -0.336634 z" style="font-weight:bold;font-size:2.37067px;font-family:'Proxima Nova';dominant-baseline:alphabetic;text-anchor:middle;fill:#0044cc"/>
      <path d="m 21.805859,87 h 0.339005 v -1.284901 h 0.459909 v -0.296334 h -1.261194 v 0.296334 h 0.46228 z" style="font-weight:bold;font-size:2.37067px;font-family:'Proxima Nova';dominant-baseline:alphabetic;text-anchor:middle;fill:#0044cc"/>
    </g>
    <rect x="47.05143" y="84.469559" width="10.4" height="12.980445" rx="1" ry="1" fill="#0044cc" stroke="#0044cc" stroke-width="0.35"/>
    <g style="font-weight:bold;font-size:2.37067px;font-family:'Proxima Nova';dominant-baseline:alphabetic;text-anchor:middle;fill:#f0f3fa">
      <path d="m 49.871074,86.260571 c 0,0.476504 0.348488,0.81788 0.824992,0.81788 0.478874,0 0.827362,-0.341376 0.827362,-0.81788 0,-0.476504 -0.348488,-0.81788 -0.827362,-0.81788 -0.476504,0 -0.824992,0.341376 -0.824992,0.81788 z m 1.306237,0 c 0,0.293963 -0.189653,0.519176 -0.481245,0.519176 -0.291592,0 -0.478875,-0.225213 -0.478875,-0.519176 0,-0.296333 0.187283,-0.519176 0.478875,-0.519176 0.291592,0 0.481245,0.222843 0.481245,0.519176 z" style="font-weight:bold;font-size:2.37067px;font-family:'Proxima Nova';dominant-baseline:alphabetic;text-anchor:middle;fill:#f0f3fa"/>
      <path d="m 51.761977,86.419406 c 0,0.388789 0.225213,0.659045 0.708829,0.659045 0.478875,0 0.704088,-0.267885 0.704088,-0.661416 v -0.948267 h -0.341376 v 0.938784 c 0,0.220472 -0.120904,0.372195 -0.362712,0.372195 -0.246549,0 -0.367453,-0.151723 -0.367453,-0.372195 v -0.938784 h -0.341376 z" style="font-weight:bold;font-size:2.37067px;font-family:'Proxima Nova';dominant-baseline:alphabetic;text-anchor:middle;fill:#f0f3fa"/>
      <path d="m 53.854127,87.050003 h 0.339005 v -1.284901 h 0.45991 v -0.296334 h -1.261195 v 0.296334 h 0.46228 z" style="font-weight:bold;font-size:2.37067px;font-family:'Proxima Nova';dominant-baseline:alphabetic;text-anchor:middle;fill:#f0f3fa"/>
    </g>
    <line x1="8.7085714" y1="108" x2="52.251427" y2="108" stroke="#0044cc" stroke-width="0.35"/>
    <rect x="3.5085714" y="101.46956" width="10.4" height="12.980445" rx="1" ry="1" fill="#f0f3fa" stroke="#0044cc" stroke-width="0.35"/>
    <g style="font-weight:bold;font-size:2.37067px;font-family:'Proxima Nova';dominant-baseline:alphabetic;text-anchor:middle;fill:#0044cc">
      <path d="m 7.677387,104.05 h 0.3366346 v -1.58123 H 7.677387 Z" style="font-weight:bold;font-size:2.37067px;font-family:'Proxima Nova';dominant-baseline:alphabetic;text-anchor:middle;fill:#0044cc"/>
      <path d="m 9.4161228,104.05 h 0.3247814 v -1.58123 H 9.4042695 v 1.02413 l -0.732536,-1.02413 H 8.3256161 V 104.05 h 0.3366347 v -1.06206 z" style="font-weight:bold;font-size:2.37067px;font-family:'Proxima Nova';dominant-baseline:alphabetic;text-anchor:middle;fill:#0044cc"/>
    </g>
    <g style="font-weight:bold;font-size:2.37067px;font-family:'Proxima Nova';dominant-baseline:hanging;text-anchor:middle;fill:#0044cc">
      <path d="m 18.343648,113.6089 h 0.367453 l -0.609261,-1.58124 h -0.421979 l -0.611632,1.58124 h 0.369824 l 0.09957,-0.27263 h 0.706459 z m -0.452797,-1.28965 0.260773,0.72543 h -0.523917 z" style="font-weight:bold;font-size:2.37067px;font-family:'Proxima Nova';dominant-baseline:hanging;text-anchor:middle;fill:#0044cc"/>
      <path d="m 18.85712,113.6089 h 0.623485 c 0.495469,0 0.839216,-0.31293 0.839216,-0.78944 0,-0.4765 -0.343747,-0.7918 -0.839216,-0.7918 H 18.85712 Z m 0.336634,-0.29634 v -0.98857 h 0.286851 c 0.324781,0 0.495469,0.21573 0.495469,0.49547 0,0.26789 -0.182541,0.4931 -0.495469,0.4931 z" style="font-weight:bold;font-size:2.37067px;font-family:'Proxima Nova';dominant-baseline:hanging;text-anchor:middle;fill:#0044cc"/>
      <path d="m 20.561036,113.6089 h 0.623486 c 0.495469,0 0.839216,-0.31293 0.839216,-0.78944 0,-0.4765 -0.343747,-0.7918 -0.839216,-0.7918 h -0.623486 z m 0.336635,-0.29634 v -0.98857 h 0.286851 c 0.324781,0 0.495469,0.21573 0.495469,0.49547 0,0.26789 -0.182541,0.4931 -0.495469,0.4931 z" style="font-weight:bold;font-size:2.37067px;font-family:'Proxima Nova';dominant-baseline:hanging;text-anchor:middle;fill:#0044cc"/>
    </g>
    <g style="font-weight:bold;font-size:2.37067px;font-family:'Proxima Nova';dominant-baseline:alphabetic;text-anchor:middle;fill:#0044cc">
      <path d="m 18.055908,104 h 0.339006 v -1.58123 H 17.92078 l -0.384048,0.98619 -0.384048,-0.98619 H 16.680922 V 104 h 0.336634 v -1.13792 L 17.463242,104 h 0.146981 l 0.445685,-1.13792 z" style="font-weight:bold;font-size:2.37067px;font-family:'Proxima Nova';dominant-baseline:alphabetic;text-anchor:middle;fill:#0044cc"/>
      <path d="m 18.708953,103.3694 c 0,0.38879 0.225213,0.65905 0.708829,0.65905 0.478875,0 0.704088,-0.26789 0.704088,-0.66142 v -0.94826 h -0.341376 v 0.93878 c 0,0.22047 -0.120904,0.37219 -0.362712,0.37219 -0.246549,0 -0.367453,-0.15172 -0.367453,-0.37219 v -0.93878 h -0.341376 z" style="font-weight:bold;font-size:2.37067px;font-family:'Proxima Nova';dominant-baseline:alphabetic;text-anchor:middle;fill:#0044cc"/>
      <path d="m 20.436021,104 h 1.005163 v -0.29633 h -0.668529 v -1.2849 h -0.336634 z" style="font-weight:bold;font-size:2.37067px;font-family:'Proxima Nova';dominant-baseline:alphabetic;text-anchor:middle;fill:#0044cc"/>
      <path d="m 21.805859,104 h 0.339005 v -1.2849 h 0.459909 v -0.29633 h -1.261194 v 0.29633 h 0.46228 z" style="font-weight:bold;font-size:2.37067px;font-family:'Proxima Nova';dominant-baseline:alphabetic;text-anchor:middle;fill:#0044cc"/>
    </g>
    <rect x="47.05143" y="101.46956" width="10.4" height="12.980445" rx="1" ry="1" fill="#0044cc" stroke="#0044cc" stroke-width="0.35"/>
    <g style="font-weight:bold;font-size:2.37067px;font-family:'Proxima Nova';dominant-baseline:alphabetic;text-anchor:middle;fill:#f0f3fa">
      <path d="m 49.871074,103.26057 c 0,0.47651 0.348488,0.81788 0.824992,0.81788 0.478874,0 0.827362,-0.34137 0.827362,-0.81788 0,-0.4765 -0.348488,-0.81788 -0.827362,-0.81788 -0.476504,0 -0.824992,0.34138 -0.824992,0.81788 z m 1.306237,0 c 0,0.29396 -0.189653,0.51918 -0.481245,0.51918 -0.291592,0 -0.478875,-0.22522 -0.478875,-0.51918 0,-0.29633 0.187283,-0.51917 0.478875,-0.51917 0.291592,0 0.481245,0.22284 0.481245,0.51917 z" style="font-weight:bold;font-size:2.37067px;font-family:'Proxima Nova';dominant-baseline:alphabetic;text-anchor:middle;fill:#f0f3fa"/>
      <path d="m 51.761977,103.41941 c 0,0.38879 0.225213,0.65904 0.708829,0.65904 0.478875,0 0.704088,-0.26788 0.704088,-0.66141 v -0.94827 h -0.341376 v 0.93878 c 0,0.22047 -0.120904,0.3722 -0.362712,0.3722 -0.246549,0 -0.367453,-0.15173 -0.367453,-0.3722 v -0.93878 h -0.341376 z" style="font-weight:bold;font-size:2.37067px;font-family:'Proxima Nova';dominant-baseline:alphabetic;text-anchor:middle;fill:#f0f3fa"/>
      <path d="m 53.854127,104.05 h 0.339005 v -1.2849 h 0.45991 v -0.29633 h -1.261195 v 0.29633 h 0.46228 z" style="font-weight:bold;font-size:2.37067px;font-family:'Proxima Nova';dominant-baseline:alphabetic;text-anchor:middle;fill:#f0f3fa"/>
    </g>
  </g>
</svg>
