<?xml version="1.0" encoding="UTF-8" standalone="no"?>
<svg xmlns="http://www.w3.org/2000/svg" xmlns:svg="http://www.w3.org/2000/svg" version="1.1" viewBox="0 0 45.72 128.5" height="128.5mm" width="45.720001mm">
  <defs/>
  <g>
    <rect x="0.25" y="0.25" width="45.220001" height="128" fill="#f0f5ff" stroke="#003399" stroke-width="0.5"/>
    <g style="font-weight:bold;font-size:4.064px;font-family:'Proxima Nova';dominant-baseline:alphabetic;text-anchor:middle;fill:#003399">
      <path d="m 16.294958,7.646688 c 0,0.85344 0.65024,1.406144 1.44272,1.406144 0.491744,0 0.877824,-0.2032 1.154176,-0.512064 v -1.03632 h -1.292352 v 0.495808 h 0.723392 V 8.32944 c -0.117856,0.105664 -0.337312,0.207264 -0.585216,0.207264 -0.491744,0 -0.849376,-0.377952 -0.849376,-0.890016 0,-0.5120641 0.357632,-0.8900161 0.849376,-0.8900161 0.28448,0 0.516128,0.150368 0.642112,0.341376 l 0.479552,-0.260096 c -0.207264,-0.321056 -0.560832,-0.593344 -1.121664,-0.593344 -0.79248,0 -1.44272,0.544576 -1.44272,1.4020801 z" style="font-weight:bold;font-size:4.064px;font-family:'Proxima Nova';dominant-baseline:alphabetic;text-anchor:middle;fill:#003399"/>
      <path d="m 21.220081,9 h 0.62992 L 20.805553,6.2893119 H 20.082161 L 19.033649,9 h 0.633984 l 0.170688,-0.46736 h 1.211072 z m -0.776224,-2.2108161 0.44704,1.2435841 h -0.898144 z" style="font-weight:bold;font-size:4.064px;font-family:'Proxima Nova';dominant-baseline:alphabetic;text-anchor:middle;fill:#003399"/>
      <path d="m 22.464237,9 h 0.581152 V 6.7973119 h 0.788416 v -0.508 h -2.162048 v 0.508 h 0.79248 z" style="font-weight:bold;font-size:4.064px;font-family:'Proxima Nova';dominant-baseline:alphabetic;text-anchor:middle;fill:#003399"/>
      <path d="m 23.978458,7.646688 c 0,0.816864 0.597408,1.40208 1.414272,1.40208 0.820928,0 1.418336,-0.585216 1.418336,-1.40208 0,-0.8168641 -0.597408,-1.4020801 -1.418336,-1.4020801 -0.816864,0 -1.414272,0.585216 -1.414272,1.4020801 z m 2.239264,0 c 0,0.503936 -0.32512,0.890016 -0.824992,0.890016 -0.499872,0 -0.820928,-0.38608 -0.820928,-0.890016 0,-0.5080001 0.321056,-0.8900161 0.820928,-0.8900161 0.499872,0 0.824992,0.382016 0.824992,0.8900161 z" style="font-weight:bold;font-size:4.064px;font-family:'Proxima Nova';dominant-baseline:alphabetic;text-anchor:middle;fill:#003399"/>
      <path d="m 28.752134,9 h 0.662432 l -0.6096,-1.032256 c 0.292608,-0.069088 0.593344,-0.32512 0.593344,-0.8046721 0,-0.503936 -0.34544,-0.87376 -0.910336,-0.87376 H 27.220006 V 9 h 0.577088 V 8.028704 h 0.422656 z m 0.0569,-1.8409921 c 0,0.227584 -0.174752,0.3738881 -0.4064,0.3738881 h -0.60554 V 6.7851199 h 0.605536 c 0.231648,0 0.4064,0.146304 0.4064,0.373888 z" style="font-weight:bold;font-size:4.064px;font-family:'Proxima Nova';dominant-baseline:alphabetic;text-anchor:middle;fill:#003399"/>
    </g>
    <g style="font-weight:bold;font-size:4.064px;font-family:'Proxima Nova';dominant-baseline:hanging;text-anchor:middle;fill:#003399">
      <path d="m 18.996756,122.2581 h 1.068832 c 0.849376,0 1.438656,-0.53645 1.438656,-1.35331 0,-0.81687 -0.58928,-1.35738 -1.438656,-1.35738 h -1.068832 z m 0.577088,-0.508 v -1.69469 h 0.491744 c 0.556768,0 0.849376,0.36983 0.849376,0.84938 0,0.45923 -0.312928,0.84531 -0.849376,0.84531 z" style="font-weight:bold;font-size:4.064px;font-family:'Proxima Nova';dominant-baseline:hanging;text-anchor:middle;fill:#003399"/>
      <path d="m 23.775004,122.2581 h 0.581152 v -2.71069 h -0.581152 v 1.06477 h -1.28016 v -1.06477 h -0.577088 v 2.71069 h 0.577088 v -1.13792 h 1.28016 z" style="font-weight:bold;font-size:4.064px;font-family:'Proxima Nova';dominant-baseline:hanging;text-anchor:middle;fill:#003399"/>
      <path d="m 24.886381,122.2581 h 1.918208 v -0.49987 h -1.34112 v -0.62992 h 1.312672 v -0.49581 h -1.312672 v -0.58928 h 1.34112 v -0.49581 h -1.918208 z" style="font-weight:bold;font-size:4.064px;font-family:'Proxima Nova';dominant-baseline:hanging;text-anchor:middle;fill:#003399"/>
    </g>
    <rect x="2.4200001" y="87.787056" width="10.4" height="12.980445" rx="1" ry="1" fill="#003399" stroke="#003399" stroke-width="0.35"/>
    <g style="font-weight:bold;font-size:2.37067px;font-family:'Proxima Nova';dominant-baseline:alphabetic;text-anchor:middle;fill:#f0f5ff">
      <path d="M 6.3577865,90.3675 H 6.7252399 L 6.1159785,88.786266 H 5.6939998 L 5.0823678,90.3675 h 0.369824 l 0.099568,-0.272626 H 6.2582185 Z M 5.9049892,89.077858 6.1657625,89.803282 H 5.6418452 Z" style="font-weight:bold;font-size:2.37067px;font-family:'Proxima Nova';dominant-baseline:alphabetic;text-anchor:middle;fill:#f0f5ff"/>
      <path d="M 7.9617648,90.3675 H 8.2865461 V 88.786266 H 7.9499115 v 1.024128 L 7.2173754,88.786266 H 6.8712581 V 90.3675 h 0.3366347 v -1.062058 z" style="font-weight:bold;font-size:2.37067px;font-family:'Proxima Nova';dominant-baseline:alphabetic;text-anchor:middle;fill:#f0f5ff"/>
      <path d="M 8.5983257,90.3675 H 9.221811 c 0.4954694,0 0.839216,-0.312928 0.839216,-0.789432 0,-0.476504 -0.3437466,-0.791802 -0.839216,-0.791802 H 8.5983257 Z M 8.9349604,90.071167 V 89.082599 H 9.221811 c 0.3247814,0 0.4954694,0.215731 0.4954694,0.495469 0,0.267886 -0.1825414,0.493099 -0.4954694,0.493099 z" style="font-weight:bold;font-size:2.37067px;font-family:'Proxima Nova';dominant-baseline:alphabetic;text-anchor:middle;fill:#f0f5ff"/>
    </g>
    <rect x="11.31" y="87.787056" width="10.4" height="12.980445" rx="1" ry="1" fill="#003399" stroke="#003399" stroke-width="0.35"/>
    <g style="font-weight:bold;font-size:2.37067px;font-family:'Proxima Nova';dominant-baseline:alphabetic;text-anchor:middle;fill:#f0f5ff">
      <path d="m 14.367658,90.3675 h 0.324782 v -1.581234 h -0.336635 v 1.024128 L 13.623269,88.786266 H 13.277152 V 90.3675 h 0.336634 v -1.062058 z" style="font-weight:bold;font-size:2.37067px;font-family:'Proxima Nova';dominant-baseline:alphabetic;text-anchor:middle;fill:#f0f5ff"/>
      <path d="m 16.111321,90.3675 h 0.367453 L 15.869513,88.786266 H 15.447534 L 14.835902,90.3675 h 0.369824 l 0.09957,-0.272626 h 0.706459 z m -0.452798,-1.289642 0.260774,0.725424 h -0.523918 z" style="font-weight:bold;font-size:2.37067px;font-family:'Proxima Nova';dominant-baseline:alphabetic;text-anchor:middle;fill:#f0f5ff"/>
      <path d="m 17.715299,90.3675 h 0.324781 v -1.581234 h -0.336634 v 1.024128 L 16.970909,88.786266 H 16.624792 V 90.3675 h 0.336635 v -1.062058 z" style="font-weight:bold;font-size:2.37067px;font-family:'Proxima Nova';dominant-baseline:alphabetic;text-anchor:middle;fill:#f0f5ff"/>
      <path d="m 18.35186,90.3675 h 0.623485 c 0.49547,0 0.839216,-0.312928 0.839216,-0.789432 0,-0.476504 -0.343746,-0.791802 -0.839216,-0.791802 H 18.35186 Z m 0.336635,-0.296333 v -0.988568 h 0.28685 c 0.324782,0 0.49547,0.215731 0.49547,0.495469 0,0.267886 -0.182542,0.493099 -0.49547,0.493099 z" style="font-weight:bold;font-size:2.37067px;font-family:'Proxima Nova';dominant-baseline:alphabetic;text-anchor:middle;fill:#f0f5ff"/>
    </g>
    <rect x="24.01" y="87.787056" width="10.4" height="12.980445" rx="1" ry="1" fill="#003399" stroke="#003399" stroke-width="0.35"/>
    <g style="font-weight:bold;font-size:2.37067px;font-family:'Proxima Nova';dominant-baseline:alphabetic;text-anchor:middle;fill:#f0f5ff">
      <path d="m 27.621412,89.578068 c 0,0.476504 0.348488,0.81788 0.824992,0.81788 0.478874,0 0.827362,-0.341376 0.827362,-0.81788 0,-0.476504 -0.348488,-0.81788 -0.827362,-0.81788 -0.476504,0 -0.824992,0.341376 -0.824992,0.81788 z m 1.306237,0 c 0,0.293963 -0.189653,0.519176 -0.481245,0.519176 -0.291592,0 -0.478875,-0.225213 -0.478875,-0.519176 0,-0.296333 0.187283,-0.519176 0.478875,-0.519176 0.291592,0 0.481245,0.222843 0.481245,0.519176 z" style="font-weight:bold;font-size:2.37067px;font-family:'Proxima Nova';dominant-baseline:alphabetic;text-anchor:middle;fill:#f0f5ff"/>
      <path d="m 30.406056,90.3675 h 0.386419 l -0.3556,-0.602149 c 0.170688,-0.0403 0.346117,-0.189653 0.346117,-0.469392 0,-0.293963 -0.201507,-0.509693 -0.531029,-0.509693 H 29.512315 V 90.3675 h 0.336634 v -0.566589 h 0.24655 z m 0.03319,-1.073912 c 0,0.132758 -0.101938,0.218102 -0.237066,0.218102 h -0.35323 v -0.436203 h 0.35323 c 0.135128,0 0.237066,0.08534 0.237066,0.218101 z" style="font-weight:bold;font-size:2.37067px;font-family:'Proxima Nova';dominant-baseline:alphabetic;text-anchor:middle;fill:#f0f5ff"/>
    </g>
    <rect x="32.900002" y="87.787056" width="10.4" height="12.980445" rx="1" ry="1" fill="#003399" stroke="#003399" stroke-width="0.35"/>
    <g style="font-weight:bold;font-size:2.37067px;font-family:'Proxima Nova';dominant-baseline:alphabetic;text-anchor:middle;fill:#f0f5ff">
      <path d="m 36.814245,90.3675 h 0.324781 v -1.581234 h -0.336634 v 1.024128 L 36.069856,88.786266 H 35.723738 V 90.3675 h 0.336635 v -1.062058 z" style="font-weight:bold;font-size:2.37067px;font-family:'Proxima Nova';dominant-baseline:alphabetic;text-anchor:middle;fill:#f0f5ff"/>
      <path d="m 37.374945,89.578068 c 0,0.476504 0.348488,0.81788 0.824992,0.81788 0.478875,0 0.827363,-0.341376 0.827363,-0.81788 0,-0.476504 -0.348488,-0.81788 -0.827363,-0.81788 -0.476504,0 -0.824992,0.341376 -0.824992,0.81788 z m 1.306237,0 c 0,0.293963 -0.189653,0.519176 -0.481245,0.519176 -0.291592,0 -0.478875,-0.225213 -0.478875,-0.519176 0,-0.296333 0.187283,-0.519176 0.478875,-0.519176 0.291592,0 0.481245,0.222843 0.481245,0.519176 z" style="font-weight:bold;font-size:2.37067px;font-family:'Proxima Nova';dominant-baseline:alphabetic;text-anchor:middle;fill:#f0f5ff"/>
      <path d="m 40.159589,90.3675 h 0.386419 l -0.3556,-0.602149 c 0.170688,-0.0403 0.346117,-0.189653 0.346117,-0.469392 0,-0.293963 -0.201506,-0.509693 -0.531029,-0.509693 H 39.265848 V 90.3675 h 0.336635 v -0.566589 h 0.246549 z m 0.03319,-1.073912 c 0,0.132758 -0.101939,0.218102 -0.237067,0.218102 h -0.353229 v -0.436203 h 0.353229 c 0.135128,0 0.237067,0.08534 0.237067,0.218101 z" style="font-weight:bold;font-size:2.37067px;font-family:'Proxima Nova';dominant-baseline:alphabetic;text-anchor:middle;fill:#f0f5ff"/>
    </g>
    <rect x="2.4200001" y="101.75706" width="10.4" height="12.980445" rx="1" ry="1" fill="#003399" stroke="#003399" stroke-width="0.35"/>
    <g style="font-weight:bold;font-size:2.37067px;font-family:'Proxima Nova';dominant-baseline:alphabetic;text-anchor:middle;fill:#f0f5ff">
      <path d="m 4.7182112,104.3375 h 1.1189547 v -0.29159 h -0.78232 v -0.36745 h 0.7657253 v -0.28923 H 5.0548459 v -0.34374 h 0.78232 v -0.28922 H 4.7182112 Z" style="font-weight:bold;font-size:2.37067px;font-family:'Proxima Nova';dominant-baseline:alphabetic;text-anchor:middle;fill:#f0f5ff"/>
      <path d="m 6.5459582,104.3375 h 0.4219787 l 0.6092613,-1.58123 h -0.384048 l -0.4362027,1.21615 -0.4385733,-1.21615 h -0.384048 z" style="font-weight:bold;font-size:2.37067px;font-family:'Proxima Nova';dominant-baseline:alphabetic;text-anchor:middle;fill:#f0f5ff"/>
      <path d="m 7.7232165,104.3375 h 1.1189548 v -0.29159 H 8.0598512 v -0.36745 h 0.7657254 v -0.28923 H 8.0598512 v -0.34374 h 0.7823201 v -0.28922 H 7.7232165 Z" style="font-weight:bold;font-size:2.37067px;font-family:'Proxima Nova';dominant-baseline:alphabetic;text-anchor:middle;fill:#f0f5ff"/>
      <path d="m 10.198156,104.3375 h 0.324781 v -1.58123 h -0.336635 v 1.02412 L 9.4537662,102.75627 H 9.1076489 v 1.58123 h 0.3366346 v -1.06206 z" style="font-weight:bold;font-size:2.37067px;font-family:'Proxima Nova';dominant-baseline:alphabetic;text-anchor:middle;fill:#f0f5ff"/>
    </g>
    <rect x="11.31" y="101.75706" width="10.4" height="12.980445" rx="1" ry="1" fill="#003399" stroke="#003399" stroke-width="0.35"/>
    <g style="font-weight:bold;font-size:2.37067px;font-family:'Proxima Nova';dominant-baseline:alphabetic;text-anchor:middle;fill:#f0f5ff">
      <path d="m 13.979165,103.54807 c 0,0.4765 0.348488,0.81788 0.824992,0.81788 0.478875,0 0.827363,-0.34138 0.827363,-0.81788 0,-0.4765 -0.348488,-0.81788 -0.827363,-0.81788 -0.476504,0 -0.824992,0.34138 -0.824992,0.81788 z m 1.306238,0 c 0,0.29396 -0.189654,0.51918 -0.481246,0.51918 -0.291592,0 -0.478874,-0.22522 -0.478874,-0.51918 0,-0.29633 0.187282,-0.51918 0.478874,-0.51918 0.291592,0 0.481246,0.22285 0.481246,0.51918 z" style="font-weight:bold;font-size:2.37067px;font-family:'Proxima Nova';dominant-baseline:alphabetic;text-anchor:middle;fill:#f0f5ff"/>
      <path d="m 15.870068,104.3375 h 0.623486 c 0.495469,0 0.839216,-0.31293 0.839216,-0.78943 0,-0.4765 -0.343747,-0.7918 -0.839216,-0.7918 h -0.623486 z m 0.336635,-0.29633 v -0.98857 h 0.286851 c 0.324781,0 0.495469,0.21573 0.495469,0.49547 0,0.26788 -0.182541,0.4931 -0.495469,0.4931 z" style="font-weight:bold;font-size:2.37067px;font-family:'Proxima Nova';dominant-baseline:alphabetic;text-anchor:middle;fill:#f0f5ff"/>
      <path d="m 17.573985,104.3375 h 0.623486 c 0.495469,0 0.839216,-0.31293 0.839216,-0.78943 0,-0.4765 -0.343747,-0.7918 -0.839216,-0.7918 h -0.623486 z m 0.336635,-0.29633 v -0.98857 h 0.286851 c 0.324781,0 0.495469,0.21573 0.495469,0.49547 0,0.26788 -0.182541,0.4931 -0.495469,0.4931 z" style="font-weight:bold;font-size:2.37067px;font-family:'Proxima Nova';dominant-baseline:alphabetic;text-anchor:middle;fill:#f0f5ff"/>
    </g>
    <rect x="24.01" y="101.75706" width="10.4" height="12.980445" rx="1" ry="1" fill="#003399" stroke="#003399" stroke-width="0.35"/>
    <g style="font-weight:bold;font-size:2.37067px;font-family:'Proxima Nova';dominant-baseline:alphabetic;text-anchor:middle;fill:#f0f5ff">
      <path d="m 27.971474,104.3375 h 0.403013 l -0.573701,-0.81314 0.538141,-0.76809 h -0.405384 l -0.35797,0.54051 -0.362712,-0.54051 h -0.400643 l 0.538141,0.77046 -0.573701,0.81077 h 0.400643 l 0.398272,-0.57844 z" style="font-weight:bold;font-size:2.37067px;font-family:'Proxima Nova';dominant-baseline:alphabetic;text-anchor:middle;fill:#f0f5ff"/>
      <path d="m 28.378451,103.54807 c 0,0.4765 0.348488,0.81788 0.824992,0.81788 0.478874,0 0.827362,-0.34138 0.827362,-0.81788 0,-0.4765 -0.348488,-0.81788 -0.827362,-0.81788 -0.476504,0 -0.824992,0.34138 -0.824992,0.81788 z m 1.306237,0 c 0,0.29396 -0.189653,0.51918 -0.481245,0.51918 -0.291592,0 -0.478875,-0.22522 -0.478875,-0.51918 0,-0.29633 0.187283,-0.51918 0.478875,-0.51918 0.291592,0 0.481245,0.22285 0.481245,0.51918 z" style="font-weight:bold;font-size:2.37067px;font-family:'Proxima Nova';dominant-baseline:alphabetic;text-anchor:middle;fill:#f0f5ff"/>
      <path d="m 31.163095,104.3375 h 0.386419 l -0.3556,-0.60215 c 0.170688,-0.0403 0.346117,-0.18965 0.346117,-0.46939 0,-0.29396 -0.201507,-0.50969 -0.531029,-0.50969 h -0.739648 v 1.58123 h 0.336634 v -0.56659 h 0.24655 z m 0.03319,-1.07391 c 0,0.13276 -0.101938,0.2181 -0.237066,0.2181 h -0.35323 v -0.4362 h 0.35323 c 0.135128,0 0.237066,0.0853 0.237066,0.2181 z" style="font-weight:bold;font-size:2.37067px;font-family:'Proxima Nova';dominant-baseline:alphabetic;text-anchor:middle;fill:#f0f5ff"/>
    </g>
    <rect x="32.900002" y="101.75706" width="10.4" height="12.980445" rx="1" ry="1" fill="#003399" stroke="#003399" stroke-width="0.35"/>
    <g style="font-weight:bold;font-size:2.37067px;font-family:'Proxima Nova';dominant-baseline:alphabetic;text-anchor:middle;fill:#f0f5ff">
      <path d="m 35.963213,104.3375 h 0.403013 l -0.573701,-0.81314 0.538141,-0.76809 h -0.405384 l -0.357971,0.54051 -0.362712,-0.54051 h -0.400642 l 0.538141,0.77046 -0.573701,0.81077 h 0.400642 l 0.398272,-0.57844 z" style="font-weight:bold;font-size:2.37067px;font-family:'Proxima Nova';dominant-baseline:alphabetic;text-anchor:middle;fill:#f0f5ff"/>
      <path d="m 37.606011,104.3375 h 0.324781 v -1.58123 h -0.336635 v 1.02412 l -0.732536,-1.02412 h -0.346117 v 1.58123 h 0.336635 v -1.06206 z" style="font-weight:bold;font-size:2.37067px;font-family:'Proxima Nova';dominant-baseline:alphabetic;text-anchor:middle;fill:#f0f5ff"/>
      <path d="m 38.16671,103.54807 c 0,0.4765 0.348488,0.81788 0.824992,0.81788 0.478875,0 0.827363,-0.34138 0.827363,-0.81788 0,-0.4765 -0.348488,-0.81788 -0.827363,-0.81788 -0.476504,0 -0.824992,0.34138 -0.824992,0.81788 z m 1.306238,0 c 0,0.29396 -0.189654,0.51918 -0.481246,0.51918 -0.291592,0 -0.478874,-0.22522 -0.478874,-0.51918 0,-0.29633 0.187282,-0.51918 0.478874,-0.51918 0.291592,0 0.481246,0.22285 0.481246,0.51918 z" style="font-weight:bold;font-size:2.37067px;font-family:'Proxima Nova';dominant-baseline:alphabetic;text-anchor:middle;fill:#f0f5ff"/>
      <path d="m 40.951355,104.3375 h 0.386419 l -0.3556,-0.60215 c 0.170688,-0.0403 0.346117,-0.18965 0.346117,-0.46939 0,-0.29396 -0.201507,-0.50969 -0.531029,-0.50969 h -0.739648 v 1.58123 h 0.336634 v -0.56659 h 0.24655 z m 0.03319,-1.07391 c 0,0.13276 -0.101938,0.2181 -0.237066,0.2181 h -0.35323 v -0.4362 h 0.35323 c 0.135128,0 0.237066,0.0853 0.237066,0.2181 z" style="font-weight:bold;font-size:2.37067px;font-family:'Proxima Nova';dominant-baseline:alphabetic;text-anchor:middle;fill:#f0f5ff"/>
    </g>
  </g>
</svg>
