<?xml version="1.0" encoding="UTF-8" standalone="no"?>
<svg xmlns="http://www.w3.org/2000/svg" xmlns:svg="http://www.w3.org/2000/svg" version="1.1" viewBox="0 0 25.4 128.5" height="128.5mm" width="25.4mm">
  <defs/>
  <g>
    <rect x="0.25" y="0.25" width="24.9" height="128" fill="#fff0ff" stroke="#990099" stroke-width="0.5"/>
    <g style="font-weight:bold;font-size:4.064px;font-family:'Proxima Nova';dominant-baseline:alphabetic;text-anchor:middle;fill:#990099">
      <path d="m 5.5584403,9 h 0.581152 V 6.2893119 h -0.581152 v 1.064768 h -1.28016 V 6.2893119 H 3.7011923 V 9 h 0.577088 V 7.86208 h 1.28016 z" style="font-weight:bold;font-size:4.064px;font-family:'Proxima Nova';dominant-baseline:alphabetic;text-anchor:middle;fill:#990099"/>
      <path d="m 6.5397693,7.646688 c 0,0.816864 0.5974081,1.40208 1.4142721,1.40208 0.820928,0 1.418336,-0.585216 1.418336,-1.40208 0,-0.8168641 -0.597408,-1.4020801 -1.418336,-1.4020801 -0.816864,0 -1.4142721,0.585216 -1.4142721,1.4020801 z m 2.2392641,0 c 0,0.503936 -0.32512,0.890016 -0.824992,0.890016 -0.499872,0 -0.820928,-0.38608 -0.820928,-0.890016 0,-0.5080001 0.321056,-0.8900161 0.820928,-0.8900161 0.499872,0 0.824992,0.382016 0.824992,0.8900161 z" style="font-weight:bold;font-size:4.064px;font-family:'Proxima Nova';dominant-baseline:alphabetic;text-anchor:middle;fill:#990099"/>
      <path d="m 9.5943731,8.617984 c 0.256032,0.256032 0.6299199,0.430784 1.1501119,0.430784 0.73152,0 1.085088,-0.373888 1.085088,-0.869696 0,-0.601472 -0.56896,-0.735584 -1.016,-0.8371841 -0.312928,-0.073152 -0.540512,-0.130048 -0.540512,-0.312928 0,-0.16256 0.138176,-0.276352 0.398272,-0.276352 0.26416,0 0.556768,0.093472 0.776224,0.296672 l 0.321056,-0.422656 c -0.268224,-0.247904 -0.625856,-0.377952 -1.05664,-0.377952 -0.638048,0 -1.0281919,0.36576 -1.0281919,0.816864 0,0.6055361 0.5689599,0.7274561 1.0119359,0.8290561 0.312928,0.073152 0.54864,0.14224 0.54864,0.34544 0,0.154432 -0.154432,0.3048 -0.471424,0.3048 -0.373888,0 -0.67056,-0.166624 -0.8615679,-0.36576 z" style="font-weight:bold;font-size:4.064px;font-family:'Proxima Nova';dominant-baseline:alphabetic;text-anchor:middle;fill:#990099"/>
      <path d="m 12.812236,9 h 0.581152 V 6.7973119 h 0.788416 v -0.508 h -2.162048 v 0.508 h 0.79248 z" style="font-weight:bold;font-size:4.064px;font-family:'Proxima Nova';dominant-baseline:alphabetic;text-anchor:middle;fill:#990099"/>
      <path d="m 16.187705,9 h 0.62992 L 15.773177,6.2893119 H 15.049785 L 14.001273,9 h 0.633984 l 0.170688,-0.46736 h 1.211072 z m -0.776224,-2.2108161 0.44704,1.2435841 h -0.898144 z" style="font-weight:bold;font-size:4.064px;font-family:'Proxima Nova';dominant-baseline:alphabetic;text-anchor:middle;fill:#990099"/>
      <path d="m 16.802958,7.646688 c 0,0.85344 0.65024,1.406144 1.44272,1.406144 0.491744,0 0.877824,-0.2032 1.154176,-0.512064 v -1.03632 h -1.292352 v 0.495808 h 0.723392 V 8.32944 c -0.117856,0.105664 -0.337312,0.207264 -0.585216,0.207264 -0.491744,0 -0.849376,-0.377952 -0.849376,-0.890016 0,-0.5120641 0.357632,-0.8900161 0.849376,-0.8900161 0.28448,0 0.516128,0.150368 0.642112,0.341376 l 0.479552,-0.260096 c -0.207264,-0.321056 -0.560832,-0.593344 -1.121664,-0.593344 -0.79248,0 -1.44272,0.544576 -1.44272,1.4020801 z" style="font-weight:bold;font-size:4.064px;font-family:'Proxima Nova';dominant-baseline:alphabetic;text-anchor:middle;fill:#990099"/>
      <path d="m 19.861944,9 h 1.918208 V 8.500128 h -1.34112 v -0.62992 h 1.312672 V 7.3743999 h -1.312672 v -0.58928 h 1.34112 v -0.495808 h -1.918208 z" style="font-weight:bold;font-size:4.064px;font-family:'Proxima Nova';dominant-baseline:alphabetic;text-anchor:middle;fill:#990099"/>
    </g>
    <g style="font-weight:bold;font-size:4.064px;font-family:'Proxima Nova';dominant-baseline:hanging;text-anchor:middle;fill:#990099">
      <path d="M 8.8367549,122.2581 H 9.905587 c 0.849376,0 1.438656,-0.53645 1.438656,-1.35331 0,-0.81687 -0.58928,-1.35738 -1.438656,-1.35738 H 8.8367549 Z m 0.5770881,-0.508 v -1.69469 h 0.491744 c 0.556768,0 0.849376,0.36983 0.849376,0.84938 0,0.45923 -0.312928,0.84531 -0.849376,0.84531 z" style="font-weight:bold;font-size:4.064px;font-family:'Proxima Nova';dominant-baseline:hanging;text-anchor:middle;fill:#990099"/>
      <path d="m 13.615003,122.2581 h 0.581152 v -2.71069 h -0.581152 v 1.06477 h -1.28016 v -1.06477 h -0.577088 v 2.71069 h 0.577088 v -1.13792 h 1.28016 z" style="font-weight:bold;font-size:4.064px;font-family:'Proxima Nova';dominant-baseline:hanging;text-anchor:middle;fill:#990099"/>
      <path d="m 14.72638,122.2581 h 1.918208 v -0.49987 h -1.34112 v -0.62992 h 1.312672 v -0.49581 h -1.312672 v -0.58928 h 1.34112 v -0.49581 H 14.72638 Z" style="font-weight:bold;font-size:4.064px;font-family:'Proxima Nova';dominant-baseline:hanging;text-anchor:middle;fill:#990099"/>
    </g>
    <g style="font-weight:bold;font-size:2.37067px;font-family:'Proxima Nova';dominant-baseline:hanging;text-anchor:middle;fill:#990099">
      <path d="m 10.694082,30.608893 h 0.339006 v -1.581234 h -0.339006 v 0.621114 H 9.9473223 V 29.027659 H 9.6106877 v 1.581234 h 0.3366346 v -0.663786 h 0.7467597 z" style="font-weight:bold;font-size:2.37067px;font-family:'Proxima Nova';dominant-baseline:hanging;text-anchor:middle;fill:#990099"/>
      <path d="m 11.266524,29.819461 c 0,0.476504 0.348488,0.81788 0.824992,0.81788 0.478875,0 0.827363,-0.341376 0.827363,-0.81788 0,-0.476504 -0.348488,-0.81788 -0.827363,-0.81788 -0.476504,0 -0.824992,0.341376 -0.824992,0.81788 z m 1.306238,0 c 0,0.293963 -0.189654,0.519176 -0.481246,0.519176 -0.291592,0 -0.478874,-0.225213 -0.478874,-0.519176 0,-0.296333 0.187282,-0.519176 0.478874,-0.519176 0.291592,0 0.481246,0.222843 0.481246,0.519176 z" style="font-weight:bold;font-size:2.37067px;font-family:'Proxima Nova';dominant-baseline:hanging;text-anchor:middle;fill:#990099"/>
      <path d="M 13.157427,30.608893 H 14.16259 V 30.31256 h -0.668528 v -1.284901 h -0.336635 z" style="font-weight:bold;font-size:2.37067px;font-family:'Proxima Nova';dominant-baseline:hanging;text-anchor:middle;fill:#990099"/>
      <path d="m 14.398323,30.608893 h 0.623486 c 0.495469,0 0.839216,-0.312928 0.839216,-0.789432 0,-0.476504 -0.343747,-0.791802 -0.839216,-0.791802 h -0.623486 z m 0.336635,-0.296333 v -0.988568 h 0.286851 c 0.324781,0 0.495469,0.215731 0.495469,0.495469 0,0.267886 -0.182541,0.493099 -0.495469,0.493099 z" style="font-weight:bold;font-size:2.37067px;font-family:'Proxima Nova';dominant-baseline:hanging;text-anchor:middle;fill:#990099"/>
    </g>
    <g style="font-weight:bold;font-size:2.37067px;font-family:'Proxima Nova';dominant-baseline:alphabetic;text-anchor:middle;fill:#990099">
      <path d="m 7.8602281,20.777157 c 0.149352,0.149352 0.3674533,0.251291 0.6708987,0.251291 0.42672,0 0.632968,-0.218101 0.632968,-0.507323 0,-0.350858 -0.3318933,-0.42909 -0.5926667,-0.488357 -0.1825413,-0.04267 -0.3152987,-0.07586 -0.3152987,-0.182541 0,-0.09483 0.080603,-0.161206 0.2323254,-0.161206 0.1540933,0 0.3247813,0.05453 0.4527973,0.173059 L 9.1285348,19.615531 C 8.9720708,19.47092 8.7634521,19.395059 8.5121614,19.395059 c -0.3721946,0 -0.5997786,0.21336 -0.5997786,0.476504 0,0.353229 0.3318933,0.424349 0.590296,0.483616 0.1825413,0.04267 0.32004,0.08297 0.32004,0.201506 0,0.09009 -0.090085,0.1778 -0.2749974,0.1778 -0.2181013,0 -0.39116,-0.0972 -0.5025813,-0.21336 z" style="font-weight:bold;font-size:2.37067px;font-family:'Proxima Nova';dominant-baseline:alphabetic;text-anchor:middle;fill:#990099"/>
      <path d="m 9.3907527,20.369403 c 0,0.388789 0.2252134,0.659045 0.7088293,0.659045 0.478875,0 0.704088,-0.267885 0.704088,-0.661416 v -0.948267 h -0.341376 v 0.938784 c 0,0.220472 -0.120904,0.372195 -0.362712,0.372195 -0.2465492,0 -0.3674532,-0.151723 -0.3674532,-0.372195 V 19.418765 H 9.3907527 Z" style="font-weight:bold;font-size:2.37067px;font-family:'Proxima Nova';dominant-baseline:alphabetic;text-anchor:middle;fill:#990099"/>
      <path d="m 11.00877,20.777157 c 0.149352,0.149352 0.367453,0.251291 0.670898,0.251291 0.42672,0 0.632968,-0.218101 0.632968,-0.507323 0,-0.350858 -0.331893,-0.42909 -0.592666,-0.488357 -0.182542,-0.04267 -0.315299,-0.07586 -0.315299,-0.182541 0,-0.09483 0.0806,-0.161206 0.232325,-0.161206 0.154094,0 0.324782,0.05453 0.452798,0.173059 l 0.187282,-0.246549 c -0.156464,-0.144611 -0.365082,-0.220472 -0.616373,-0.220472 -0.372195,0 -0.599779,0.21336 -0.599779,0.476504 0,0.353229 0.331894,0.424349 0.590296,0.483616 0.182542,0.04267 0.32004,0.08297 0.32004,0.201506 0,0.09009 -0.09008,0.1778 -0.274997,0.1778 -0.218101,0 -0.39116,-0.0972 -0.502581,-0.21336 z" style="font-weight:bold;font-size:2.37067px;font-family:'Proxima Nova';dominant-baseline:alphabetic;text-anchor:middle;fill:#990099"/>
      <path d="m 12.885856,21 h 0.339005 v -1.284901 h 0.45991 v -0.296334 h -1.261195 v 0.296334 h 0.46228 z" style="font-weight:bold;font-size:2.37067px;font-family:'Proxima Nova';dominant-baseline:alphabetic;text-anchor:middle;fill:#990099"/>
      <path d="m 14.85488,21 h 0.367454 L 14.613072,19.418765 H 14.191094 L 13.579462,21 h 0.369824 l 0.09957,-0.272627 h 0.706458 z m -0.452797,-1.289643 0.260773,0.725424 h -0.523917 z" style="font-weight:bold;font-size:2.37067px;font-family:'Proxima Nova';dominant-baseline:alphabetic;text-anchor:middle;fill:#990099"/>
      <path d="m 15.368352,21 h 0.336635 v -1.581235 h -0.336635 z" style="font-weight:bold;font-size:2.37067px;font-family:'Proxima Nova';dominant-baseline:alphabetic;text-anchor:middle;fill:#990099"/>
      <path d="m 17.107088,21 h 0.324781 v -1.581235 h -0.336635 v 1.024128 L 16.362698,19.418765 H 16.016581 V 21 h 0.336635 v -1.062059 z" style="font-weight:bold;font-size:2.37067px;font-family:'Proxima Nova';dominant-baseline:alphabetic;text-anchor:middle;fill:#990099"/>
    </g>
    <g style="font-weight:bold;font-size:2.37067px;font-family:'Proxima Nova';dominant-baseline:alphabetic;text-anchor:middle;fill:#990099">
      <path d="m 5.9730965,38.328447 c 0.3603413,0 0.5594773,-0.192024 0.6732693,-0.388789 L 6.3571445,37.799789 c -0.066379,0.130386 -0.2086187,0.229954 -0.384048,0.229954 -0.2749974,0 -0.4836161,-0.220472 -0.4836161,-0.519176 0,-0.298704 0.2086187,-0.519176 0.4836161,-0.519176 0.1754293,0 0.3176693,0.101939 0.384048,0.229955 l 0.2892213,-0.14224 c -0.1114213,-0.196765 -0.312928,-0.386419 -0.6732693,-0.386419 -0.4622801,0 -0.8297334,0.331894 -0.8297334,0.81788 0,0.485987 0.3674533,0.81788 0.8297334,0.81788 z" style="font-weight:bold;font-size:2.37067px;font-family:'Proxima Nova';dominant-baseline:alphabetic;text-anchor:middle;fill:#990099"/>
      <path d="M 7.283112,38.299999 H 7.7050907 L 8.3143521,36.718765 H 7.9303041 L 7.4941014,37.934917 7.055528,36.718765 H 6.67148 Z" style="font-weight:bold;font-size:2.37067px;font-family:'Proxima Nova';dominant-baseline:alphabetic;text-anchor:middle;fill:#990099"/>
    </g>
    <g style="font-weight:bold;font-size:2.37067px;font-family:'Proxima Nova';dominant-baseline:hanging;text-anchor:middle;fill:#990099">
      <path d="m 18.70937,50.608891 h 0.339005 v -1.581234 h -0.293962 l -0.49784,0.50021 0.192024,0.201507 0.260773,-0.267885 z" style="font-weight:bold;font-size:2.37067px;font-family:'Proxima Nova';dominant-baseline:hanging;text-anchor:middle;fill:#990099"/>
    </g>
    <g style="font-weight:bold;font-size:2.37067px;font-family:'Proxima Nova';dominant-baseline:alphabetic;text-anchor:middle;fill:#990099">
      <path d="m 17.241594,38 h 0.339005 v -1.581235 h -0.293962 l -0.49784,0.500211 0.192024,0.201507 0.260773,-0.267886 z" style="font-weight:bold;font-size:2.37067px;font-family:'Proxima Nova';dominant-baseline:alphabetic;text-anchor:middle;fill:#990099"/>
      <path d="m 17.815666,37.210568 c 0,0.407755 0.201506,0.81788 0.654304,0.81788 0.450426,0 0.654304,-0.410125 0.654304,-0.81788 0,-0.407755 -0.203878,-0.815509 -0.654304,-0.815509 -0.452798,0 -0.654304,0.407754 -0.654304,0.815509 z m 0.964861,0 c 0,0.291592 -0.08534,0.519176 -0.310557,0.519176 -0.227584,0 -0.312928,-0.227584 -0.312928,-0.519176 0,-0.291592 0.08534,-0.516805 0.312928,-0.516805 0.225213,0 0.310557,0.225213 0.310557,0.516805 z" style="font-weight:bold;font-size:2.37067px;font-family:'Proxima Nova';dominant-baseline:alphabetic;text-anchor:middle;fill:#990099"/>
      <path d="m 19.283442,37.210568 c 0,0.407755 0.201506,0.81788 0.654304,0.81788 0.450426,0 0.654304,-0.410125 0.654304,-0.81788 0,-0.407755 -0.203878,-0.815509 -0.654304,-0.815509 -0.452798,0 -0.654304,0.407754 -0.654304,0.815509 z m 0.964861,0 c 0,0.291592 -0.08534,0.519176 -0.310557,0.519176 -0.227584,0 -0.312928,-0.227584 -0.312928,-0.519176 0,-0.291592 0.08534,-0.516805 0.312928,-0.516805 0.225213,0 0.310557,0.225213 0.310557,0.516805 z" style="font-weight:bold;font-size:2.37067px;font-family:'Proxima Nova';dominant-baseline:alphabetic;text-anchor:middle;fill:#990099"/>
    </g>
    <g style="font-weight:bold;font-size:2.37067px;font-family:'Proxima Nova';dominant-baseline:middle;fill:#990099">
      <path d="m 21.695542,44.356997 h 0.339005 v -1.581235 h -0.293962 l -0.49784,0.500211 0.192024,0.201507 0.260773,-0.267886 z" style="font-weight:bold;font-size:2.37067px;font-family:'Proxima Nova';dominant-baseline:middle;fill:#990099"/>
      <path d="m 22.269614,43.567565 c 0,0.407755 0.201506,0.81788 0.654304,0.81788 0.450426,0 0.654304,-0.410125 0.654304,-0.81788 0,-0.407755 -0.203878,-0.815509 -0.654304,-0.815509 -0.452798,0 -0.654304,0.407754 -0.654304,0.815509 z m 0.964861,0 c 0,0.291592 -0.08534,0.519176 -0.310557,0.519176 -0.227584,0 -0.312928,-0.227584 -0.312928,-0.519176 0,-0.291592 0.08534,-0.516805 0.312928,-0.516805 0.225213,0 0.310557,0.225213 0.310557,0.516805 z" style="font-weight:bold;font-size:2.37067px;font-family:'Proxima Nova';dominant-baseline:middle;fill:#990099"/>
    </g>
    <g style="font-weight:bold;font-size:3.048px;font-family:'Proxima Nova';dominant-baseline:alphabetic;text-anchor:middle;fill:#990099">
      <path d="m 5.1918707,54.650002 h 0.801624 c 0.637032,0 1.0789921,-0.402336 1.0789921,-1.014985 0,-0.612648 -0.4419601,-1.018032 -1.0789921,-1.018032 h -0.801624 z m 0.432816,-0.381 v -1.271017 h 0.368808 c 0.417576,0 0.637032,0.277368 0.637032,0.637032 0,0.344425 -0.234696,0.633985 -0.637032,0.633985 z" style="font-weight:bold;font-size:3.048px;font-family:'Proxima Nova';dominant-baseline:alphabetic;text-anchor:middle;fill:#990099"/>
      <path d="m 7.3826208,53.839234 c 0,0.499872 0.28956,0.847344 0.911352,0.847344 0.6156961,0 0.9052561,-0.344424 0.9052561,-0.850393 v -1.2192 h -0.438912 v 1.207008 c 0,0.283465 -0.155448,0.478537 -0.4663441,0.478537 -0.316992,0 -0.47244,-0.195072 -0.47244,-0.478537 v -1.207008 h -0.438912 z" style="font-weight:bold;font-size:3.048px;font-family:'Proxima Nova';dominant-baseline:alphabetic;text-anchor:middle;fill:#990099"/>
      <path d="m 10.752233,54.650002 h 0.496824 l -0.4572,-0.774192 c 0.219456,-0.05182 0.445008,-0.243841 0.445008,-0.603505 0,-0.377952 -0.25908,-0.65532 -0.682752,-0.65532 H 9.6031365 v 2.033017 H 10.035953 V 53.92153 h 0.316992 z m 0.04267,-1.380745 c 0,0.170688 -0.131064,0.280416 -0.3048,0.280416 h -0.454152 v -0.560832 h 0.454152 c 0.173736,0 0.3048,0.109728 0.3048,0.280416 z" style="font-weight:bold;font-size:3.048px;font-family:'Proxima Nova';dominant-baseline:alphabetic;text-anchor:middle;fill:#990099"/>
      <path d="m 12.985131,54.650002 h 0.47244 l -0.783336,-2.033017 h -0.542544 l -0.786384,2.033017 h 0.475488 l 0.128016,-0.35052 h 0.908304 z m -0.582168,-1.658113 0.33528,0.932689 h -0.673608 z" style="font-weight:bold;font-size:3.048px;font-family:'Proxima Nova';dominant-baseline:alphabetic;text-anchor:middle;fill:#990099"/>
      <path d="m 13.918247,54.650002 h 0.435864 v -1.652017 h 0.591312 v -0.381 h -1.621536 v 0.381 h 0.59436 z" style="font-weight:bold;font-size:3.048px;font-family:'Proxima Nova';dominant-baseline:alphabetic;text-anchor:middle;fill:#990099"/>
      <path d="m 15.222887,54.650002 h 0.432816 v -2.033017 h -0.432816 z" style="font-weight:bold;font-size:3.048px;font-family:'Proxima Nova';dominant-baseline:alphabetic;text-anchor:middle;fill:#990099"/>
      <path d="m 15.958788,53.635017 c 0,0.612649 0.448056,1.051561 1.060704,1.051561 0.615696,0 1.063752,-0.438912 1.063752,-1.051561 0,-0.612648 -0.448056,-1.05156 -1.063752,-1.05156 -0.612648,0 -1.060704,0.438912 -1.060704,1.05156 z m 1.679448,0 c 0,0.377953 -0.24384,0.667513 -0.618744,0.667513 -0.374904,0 -0.615696,-0.28956 -0.615696,-0.667513 0,-0.381 0.240792,-0.667512 0.615696,-0.667512 0.374904,0 0.618744,0.286512 0.618744,0.667512 z" style="font-weight:bold;font-size:3.048px;font-family:'Proxima Nova';dominant-baseline:alphabetic;text-anchor:middle;fill:#990099"/>
      <path d="m 19.792029,54.650002 h 0.417576 v -2.033017 h -0.432816 v 1.316737 l -0.941832,-1.316737 h -0.445008 v 2.033017 h 0.432816 v -1.365505 z" style="font-weight:bold;font-size:3.048px;font-family:'Proxima Nova';dominant-baseline:alphabetic;text-anchor:middle;fill:#990099"/>
    </g>
    <rect x="1.4833333" y="74.219559" width="10.4" height="12.980445" rx="1" ry="1" fill="#fff0ff" stroke="#990099" stroke-width="0.35"/>
    <g style="font-weight:bold;font-size:2.37067px;font-family:'Proxima Nova';dominant-baseline:alphabetic;text-anchor:middle;fill:#990099">
      <path d="m 3.165727,76.800003 h 0.6234853 c 0.4954694,0 0.8392161,-0.312928 0.8392161,-0.789432 0,-0.476504 -0.3437467,-0.791803 -0.8392161,-0.791803 H 3.165727 Z M 3.5023616,76.50367 v -0.988568 h 0.2868507 c 0.3247814,0 0.4954694,0.21573 0.4954694,0.495469 0,0.267885 -0.1825414,0.493099 -0.4954694,0.493099 z" style="font-weight:bold;font-size:2.37067px;font-family:'Proxima Nova';dominant-baseline:alphabetic;text-anchor:middle;fill:#990099"/>
      <path d="m 4.8696436,76.800003 h 1.1189547 v -0.291592 h -0.78232 V 76.140958 H 5.9720037 V 75.851736 H 5.2062783 V 75.50799 h 0.78232 V 75.218768 H 4.8696436 Z" style="font-weight:bold;font-size:2.37067px;font-family:'Proxima Nova';dominant-baseline:alphabetic;text-anchor:middle;fill:#990099"/>
      <path d="M 6.2540758,76.800003 H 6.5907105 V 76.140958 H 7.3564359 V 75.851736 H 6.5907105 V 75.50799 h 0.78232 V 75.218768 H 6.2540758 Z" style="font-weight:bold;font-size:2.37067px;font-family:'Proxima Nova';dominant-baseline:alphabetic;text-anchor:middle;fill:#990099"/>
      <path d="m 7.6060966,76.800003 h 1.1189547 v -0.291592 h -0.78232 V 76.140958 H 8.7084566 V 75.851736 H 7.9427313 V 75.50799 h 0.78232 V 75.218768 H 7.6060966 Z" style="font-weight:bold;font-size:2.37067px;font-family:'Proxima Nova';dominant-baseline:alphabetic;text-anchor:middle;fill:#990099"/>
      <path d="M 9.8842707,76.800003 H 10.270689 L 9.9150894,76.197854 c 0.1706876,-0.0403 0.3461176,-0.189654 0.3461176,-0.469392 0,-0.293963 -0.201507,-0.509694 -0.5310296,-0.509694 h -0.739648 v 1.581235 H 9.327164 v -0.566589 h 0.2465494 z m 0.033189,-1.073912 c 0,0.132757 -0.1019387,0.218101 -0.2370667,0.218101 H 9.327164 V 75.50799 h 0.3532294 c 0.135128,0 0.2370667,0.08534 0.2370663,0.218101 z" style="font-weight:bold;font-size:2.37067px;font-family:'Proxima Nova';dominant-baseline:alphabetic;text-anchor:middle;fill:#990099"/>
    </g>
    <rect x="13.516666" y="74.219559" width="10.4" height="12.980445" rx="1" ry="1" fill="#990099" stroke="#990099" stroke-width="0.35"/>
    <g style="font-weight:bold;font-size:2.37067px;font-family:'Proxima Nova';dominant-baseline:alphabetic;text-anchor:middle;fill:#fff0ff">
      <path d="m 15.877868,76.800003 h 0.367453 L 15.63606,75.218768 h -0.421979 l -0.611632,1.581235 h 0.369824 l 0.09957,-0.272627 H 15.7783 Z m -0.452798,-1.289643 0.260774,0.725424 h -0.523918 z" style="font-weight:bold;font-size:2.37067px;font-family:'Proxima Nova';dominant-baseline:alphabetic;text-anchor:middle;fill:#fff0ff"/>
      <path d="m 17.066498,76.828451 c 0.360341,0 0.559477,-0.192024 0.673269,-0.388789 l -0.289221,-0.13987 c -0.06638,0.130387 -0.208619,0.229955 -0.384048,0.229955 -0.274997,0 -0.483616,-0.220472 -0.483616,-0.519176 0,-0.298704 0.208619,-0.519176 0.483616,-0.519176 0.175429,0 0.317669,0.101939 0.384048,0.229955 l 0.289221,-0.14224 c -0.111421,-0.196766 -0.312928,-0.386419 -0.673269,-0.386419 -0.46228,0 -0.829733,0.331893 -0.829733,0.81788 0,0.485987 0.367453,0.81788 0.829733,0.81788 z" style="font-weight:bold;font-size:2.37067px;font-family:'Proxima Nova';dominant-baseline:alphabetic;text-anchor:middle;fill:#fff0ff"/>
      <path d="m 18.307542,76.800003 h 0.339005 v -1.284901 h 0.45991 v -0.296334 h -1.261195 v 0.296334 h 0.46228 z" style="font-weight:bold;font-size:2.37067px;font-family:'Proxima Nova';dominant-baseline:alphabetic;text-anchor:middle;fill:#fff0ff"/>
      <path d="m 19.322261,76.800003 h 0.336635 v -1.581235 h -0.336635 z" style="font-weight:bold;font-size:2.37067px;font-family:'Proxima Nova';dominant-baseline:alphabetic;text-anchor:middle;fill:#fff0ff"/>
      <path d="m 20.413805,76.800003 h 0.421979 l 0.609261,-1.581235 h -0.384048 l -0.436202,1.216152 -0.438574,-1.216152 h -0.384048 z" style="font-weight:bold;font-size:2.37067px;font-family:'Proxima Nova';dominant-baseline:alphabetic;text-anchor:middle;fill:#fff0ff"/>
      <path d="m 21.591063,76.800003 h 1.118955 v -0.291592 h -0.78232 v -0.367453 h 0.765725 V 75.851736 H 21.927698 V 75.50799 h 0.78232 v -0.289222 h -1.118955 z" style="font-weight:bold;font-size:2.37067px;font-family:'Proxima Nova';dominant-baseline:alphabetic;text-anchor:middle;fill:#fff0ff"/>
    </g>
    <rect x="1.4833333" y="89.219559" width="10.4" height="12.980445" rx="1" ry="1" fill="#fff0ff" stroke="#990099" stroke-width="0.35"/>
    <g style="font-weight:bold;font-size:2.37067px;font-family:'Proxima Nova';dominant-baseline:alphabetic;text-anchor:middle;fill:#990099">
      <path d="m 3.8029177,91.010571 c 0,0.49784 0.3793067,0.820251 0.8415867,0.820251 0.2868507,0 0.5120641,-0.118534 0.6732694,-0.298704 v -0.60452 h -0.753872 v 0.289221 h 0.4219786 v 0.192024 c -0.068749,0.06164 -0.1967653,0.120904 -0.341376,0.120904 -0.2868506,0 -0.4954693,-0.220472 -0.4954693,-0.519176 0,-0.298704 0.2086187,-0.519176 0.4954693,-0.519176 0.1659467,0 0.3010747,0.08772 0.3745654,0.199136 l 0.2797387,-0.151723 c -0.120904,-0.187282 -0.3271521,-0.346117 -0.6543041,-0.346117 -0.46228,0 -0.8415867,0.317669 -0.8415867,0.81788 z" style="font-weight:bold;font-size:2.37067px;font-family:'Proxima Nova';dominant-baseline:alphabetic;text-anchor:middle;fill:#990099"/>
      <path d="M 6.6759065,91.800003 H 7.0433598 L 6.4340985,90.218768 H 6.0121198 l -0.611632,1.581235 h 0.369824 l 0.099568,-0.272627 H 6.5763385 Z M 6.2231091,90.51036 6.4838825,91.235784 H 5.9599651 Z" style="font-weight:bold;font-size:2.37067px;font-family:'Proxima Nova';dominant-baseline:alphabetic;text-anchor:middle;fill:#990099"/>
      <path d="M 7.4016639,91.800003 H 7.7406692 V 90.515102 H 8.2005786 V 90.218768 H 6.9393838 v 0.296334 h 0.4622801 z" style="font-weight:bold;font-size:2.37067px;font-family:'Proxima Nova';dominant-baseline:alphabetic;text-anchor:middle;fill:#990099"/>
      <path d="m 8.4163834,91.800003 h 1.1189547 v -0.291592 h -0.78232 V 91.140958 H 9.5187434 V 90.851736 H 8.7530181 V 90.50799 h 0.78232 V 90.218768 H 8.4163834 Z" style="font-weight:bold;font-size:2.37067px;font-family:'Proxima Nova';dominant-baseline:alphabetic;text-anchor:middle;fill:#990099"/>
    </g>
    <rect x="13.516666" y="89.219559" width="10.4" height="12.980445" rx="1" ry="1" fill="#990099" stroke="#990099" stroke-width="0.35"/>
    <g style="font-weight:bold;font-size:2.37067px;font-family:'Proxima Nova';dominant-baseline:alphabetic;text-anchor:middle;fill:#fff0ff">
      <path d="m 16.458477,91.800003 h 1.118955 v -0.291592 h -0.78232 v -0.367453 h 0.765725 V 90.851736 H 16.795112 V 90.50799 h 0.78232 v -0.289222 h -1.118955 z" style="font-weight:bold;font-size:2.37067px;font-family:'Proxima Nova';dominant-baseline:alphabetic;text-anchor:middle;fill:#fff0ff"/>
      <path d="m 17.767048,91.010571 c 0,0.476504 0.348488,0.81788 0.824992,0.81788 0.478875,0 0.827363,-0.341376 0.827363,-0.81788 0,-0.476504 -0.348488,-0.81788 -0.827363,-0.81788 -0.476504,0 -0.824992,0.341376 -0.824992,0.81788 z m 1.306238,0 c 0,0.293963 -0.189654,0.519176 -0.481246,0.519176 -0.291592,0 -0.478874,-0.225213 -0.478874,-0.519176 0,-0.296333 0.187282,-0.519176 0.478874,-0.519176 0.291592,0 0.481246,0.222843 0.481246,0.519176 z" style="font-weight:bold;font-size:2.37067px;font-family:'Proxima Nova';dominant-baseline:alphabetic;text-anchor:middle;fill:#fff0ff"/>
      <path d="m 20.411824,91.828451 c 0.360341,0 0.559477,-0.192024 0.673269,-0.388789 l -0.289221,-0.13987 c -0.06638,0.130387 -0.208619,0.229955 -0.384048,0.229955 -0.274998,0 -0.483616,-0.220472 -0.483616,-0.519176 0,-0.298704 0.208618,-0.519176 0.483616,-0.519176 0.175429,0 0.317669,0.101939 0.384048,0.229955 l 0.289221,-0.14224 c -0.111421,-0.196766 -0.312928,-0.386419 -0.673269,-0.386419 -0.46228,0 -0.829734,0.331893 -0.829734,0.81788 0,0.485987 0.367454,0.81788 0.829734,0.81788 z" style="font-weight:bold;font-size:2.37067px;font-family:'Proxima Nova';dominant-baseline:alphabetic;text-anchor:middle;fill:#fff0ff"/>
    </g>
    <rect x="1.4833333" y="104.21956" width="10.4" height="12.980445" rx="1" ry="1" fill="#fff0ff" stroke="#990099" stroke-width="0.35"/>
    <g style="font-weight:bold;font-size:2.37067px;font-family:'Proxima Nova';dominant-baseline:alphabetic;text-anchor:middle;fill:#990099">
      <path d="m 5.6521489,106.8 h 0.3366347 v -1.58123 H 5.6521489 Z" style="font-weight:bold;font-size:2.37067px;font-family:'Proxima Nova';dominant-baseline:alphabetic;text-anchor:middle;fill:#990099"/>
      <path d="m 7.3908848,106.8 h 0.3247814 v -1.58123 H 7.3790315 v 1.02413 l -0.732536,-1.02413 H 6.3003781 V 106.8 h 0.3366347 v -1.06206 z" style="font-weight:bold;font-size:2.37067px;font-family:'Proxima Nova';dominant-baseline:alphabetic;text-anchor:middle;fill:#990099"/>
    </g>
    <rect x="13.516666" y="104.21956" width="10.4" height="12.980445" rx="1" ry="1" fill="#990099" stroke="#990099" stroke-width="0.35"/>
    <g style="font-weight:bold;font-size:2.37067px;font-family:'Proxima Nova';dominant-baseline:alphabetic;text-anchor:middle;fill:#fff0ff">
      <path d="m 16.336314,106.01057 c 0,0.47651 0.348488,0.81788 0.824992,0.81788 0.478875,0 0.827363,-0.34137 0.827363,-0.81788 0,-0.4765 -0.348488,-0.81788 -0.827363,-0.81788 -0.476504,0 -0.824992,0.34138 -0.824992,0.81788 z m 1.306237,0 c 0,0.29396 -0.189653,0.51918 -0.481245,0.51918 -0.291592,0 -0.478875,-0.22522 -0.478875,-0.51918 0,-0.29633 0.187283,-0.51917 0.478875,-0.51917 0.291592,0 0.481245,0.22284 0.481245,0.51917 z" style="font-weight:bold;font-size:2.37067px;font-family:'Proxima Nova';dominant-baseline:alphabetic;text-anchor:middle;fill:#fff0ff"/>
      <path d="m 18.227217,106.16941 c 0,0.38879 0.225213,0.65904 0.70883,0.65904 0.478874,0 0.704088,-0.26788 0.704088,-0.66141 v -0.94827 h -0.341376 v 0.93878 c 0,0.22047 -0.120904,0.3722 -0.362712,0.3722 -0.24655,0 -0.367454,-0.15173 -0.367454,-0.3722 v -0.93878 h -0.341376 z" style="font-weight:bold;font-size:2.37067px;font-family:'Proxima Nova';dominant-baseline:alphabetic;text-anchor:middle;fill:#fff0ff"/>
      <path d="m 20.319368,106.8 h 0.339005 v -1.2849 h 0.459909 v -0.29633 h -1.261194 v 0.29633 h 0.46228 z" style="font-weight:bold;font-size:2.37067px;font-family:'Proxima Nova';dominant-baseline:alphabetic;text-anchor:middle;fill:#fff0ff"/>
    </g>
  </g>
</svg>
