<?xml version="1.0" encoding="UTF-8" standalone="no"?>
<svg
   xmlns:dc="http://purl.org/dc/elements/1.1/"
   xmlns:cc="http://creativecommons.org/ns#"
   xmlns:rdf="http://www.w3.org/1999/02/22-rdf-syntax-ns#"
   xmlns:svg="http://www.w3.org/2000/svg"
   xmlns="http://www.w3.org/2000/svg"
   version="1.1"
   width="300.000"
   height="379.429"
   id="svg254">
  <metadata
     id="metadata260">
    <rdf:RDF>
      <cc:Work
         rdf:about="">
        <dc:format>image/svg+xml</dc:format>
        <dc:type
           rdf:resource="http://purl.org/dc/dcmitype/StillImage" />
      </cc:Work>
    </rdf:RDF>
  </metadata>
  <defs
     id="defs258" />
  <g
     transform="scale(2.953)"
     id="g252">
    <path
       id="rect2"
       style="fill:#efedeb;stroke:#331a00;stroke-width:1"
       d="m 1,0 h 99.6 c 0.554,0 1,0.446 1,1 v 126.5 c 0,0.554 -0.446,1 -1,1 H 1 c -0.554,0 -1,-0.446 -1,-1 V 1 C 0,0.446 0.446,0 1,0 Z" />
    <g
       transform="translate(50.8,9)"
       id="g6">
      <g
         aria-label="PHASE SEQUENCER 4"
         id="text4"
         style="font-weight:bold;font-size:4.064px;font-family:'Proxima Nova';dominant-baseline:alphabetic;text-anchor:middle;fill:#331a00">
        <path
           d="m -20.512152,0 h 0.577088 v -0.97129603 h 0.69088 c 0.585216,0 0.910336,-0.39420797 0.910336,-0.86563207 0,-0.475488 -0.321056,-0.87376 -0.910336,-0.87376 h -1.267968 z m 1.589024,-1.8409921 c 0,0.227584 -0.170688,0.3738881 -0.398272,0.3738881 h -0.613664 v -0.7477761 h 0.613664 c 0.227584,0 0.398272,0.150368 0.398272,0.373888 z"
           style="font-weight:bold;font-size:4.064px;font-family:'Proxima Nova';dominant-baseline:alphabetic;text-anchor:middle;fill:#331a00"
           id="path263" />
        <path
           d="m -16.122841,0 h 0.581152 v -2.7106881 h -0.581152 v 1.064768 h -1.28016 v -1.064768 h -0.577088 V 0 h 0.577088 v -1.13792 h 1.28016 z"
           style="font-weight:bold;font-size:4.064px;font-family:'Proxima Nova';dominant-baseline:alphabetic;text-anchor:middle;fill:#331a00"
           id="path265" />
        <path
           d="m -13.113576,0 h 0.62992 l -1.044448,-2.7106881 h -0.723392 L -15.300008,0 h 0.633984 l 0.170688,-0.46736001 h 1.211072 z m -0.776224,-2.2108161 0.44704,1.24358407 h -0.898144 z"
           style="font-weight:bold;font-size:4.064px;font-family:'Proxima Nova';dominant-baseline:alphabetic;text-anchor:middle;fill:#331a00"
           id="path267" />
        <path
           d="m -12.452033,-0.38201601 c 0.256032,0.25603201 0.62992,0.43078401 1.150112,0.43078401 0.73152,0 1.085088,-0.37388801 1.085088,-0.86969603 0,-0.60147197 -0.56896,-0.73558397 -1.016,-0.83718407 -0.312928,-0.073152 -0.540512,-0.130048 -0.540512,-0.312928 0,-0.16256 0.138176,-0.276352 0.398272,-0.276352 0.26416,0 0.556768,0.093472 0.776224,0.296672 l 0.321056,-0.422656 c -0.268224,-0.247904 -0.625856,-0.377952 -1.05664,-0.377952 -0.638048,0 -1.028192,0.36576 -1.028192,0.816864 0,0.6055361 0.56896,0.7274561 1.011936,0.8290561 0.312928,0.073152 0.54864,0.14223997 0.54864,0.34543998 0,0.154432 -0.154432,0.30480001 -0.471424,0.30480001 -0.373888,0 -0.67056,-0.16662401 -0.861568,-0.36576002 z"
           style="font-weight:bold;font-size:4.064px;font-family:'Proxima Nova';dominant-baseline:alphabetic;text-anchor:middle;fill:#331a00"
           id="path269" />
        <path
           d="m -9.8282766,0 h 1.9182081 V -0.49987202 H -9.2511886 V -1.129792 h 1.3126721 v -0.4958081 h -1.3126721 v -0.58928 h 1.3411201 v -0.495808 h -1.9182081 z"
           style="font-weight:bold;font-size:4.064px;font-family:'Proxima Nova';dominant-baseline:alphabetic;text-anchor:middle;fill:#331a00"
           id="path271" />
        <path
           d="m -6.6020955,-0.38201601 c 0.256032,0.25603201 0.62992,0.43078401 1.150112,0.43078401 0.73152,0 1.085088,-0.37388801 1.085088,-0.86969603 0,-0.60147197 -0.56896,-0.73558397 -1.016,-0.83718407 -0.312928,-0.073152 -0.540512,-0.130048 -0.540512,-0.312928 0,-0.16256 0.138176,-0.276352 0.398272,-0.276352 0.26416,0 0.556768,0.093472 0.776224,0.296672 l 0.321056,-0.422656 c -0.268224,-0.247904 -0.625856,-0.377952 -1.05664,-0.377952 -0.638048,0 -1.028192,0.36576 -1.028192,0.816864 0,0.6055361 0.56896,0.7274561 1.011936,0.8290561 0.312928,0.073152 0.54864,0.14223997 0.54864,0.34543998 0,0.154432 -0.154432,0.30480001 -0.471424,0.30480001 -0.373888,0 -0.67056,-0.16662401 -0.861568,-0.36576002 z"
           style="font-weight:bold;font-size:4.064px;font-family:'Proxima Nova';dominant-baseline:alphabetic;text-anchor:middle;fill:#331a00"
           id="path273" />
        <path
           d="m -3.9783382,0 h 1.9182081 V -0.49987202 H -3.4012502 V -1.129792 h 1.3126721 v -0.4958081 h -1.3126721 v -0.58928 h 1.3411201 v -0.495808 h -1.9182081 z"
           style="font-weight:bold;font-size:4.064px;font-family:'Proxima Nova';dominant-baseline:alphabetic;text-anchor:middle;fill:#331a00"
           id="path275" />
        <path
           d="m 1.0975339,-1.353312 c 0,-0.8168641 -0.59740801,-1.4020801 -1.41833604,-1.4020801 -0.81686406,0 -1.41427206,0.585216 -1.41427206,1.4020801 0,0.81686398 0.597408,1.40208 1.41427206,1.40208 0.23571201,0 0.45516801,-0.048768 0.64617602,-0.138176 L 0.54076589,0.16662401 0.9431019,-0.16256001 0.74396589,-0.39420801 C 0.9674859,-0.63804802 1.0975339,-0.97129603 1.0975339,-1.353312 Z m -1.41833604,0.89001599 c -0.49987202,0 -0.82092806,-0.38608002 -0.82092806,-0.89001599 0,-0.5080001 0.32105604,-0.8900161 0.82092806,-0.8900161 0.49987202,0 0.82499203,0.382016 0.82499203,0.8900161 0,0.195072 -0.048768,0.37388797 -0.13817601,0.51612797 L 0.05714987,-1.19888 l -0.40233601,0.32511997 0.30886401,0.36169601 c -0.085344,0.032512 -0.18288001,0.048768 -0.28448001,0.048768 z"
           style="font-weight:bold;font-size:4.064px;font-family:'Proxima Nova';dominant-baseline:alphabetic;text-anchor:middle;fill:#331a00"
           id="path277" />
        <path
           d="m 1.5064736,-1.081024 c 0,0.66649599 0.38608,1.129792 1.215136,1.129792 0.8209281,0 1.2070081,-0.45923201 1.2070081,-1.133856 v -1.6256001 h -0.585216 v 1.6093441 c 0,0.37795198 -0.207264,0.63804799 -0.6217921,0.63804799 -0.422656,0 -0.62992,-0.26009601 -0.62992,-0.63804799 v -1.6093441 h -0.585216 z"
           style="font-weight:bold;font-size:4.064px;font-family:'Proxima Nova';dominant-baseline:alphabetic;text-anchor:middle;fill:#331a00"
           id="path279" />
        <path
           d="m 4.4671612,0 h 1.9182081 v -0.49987202 h -1.34112 V -1.129792 h 1.312672 v -0.4958081 h -1.312672 v -0.58928 h 1.34112 v -0.495808 H 4.4671612 Z"
           style="font-weight:bold;font-size:4.064px;font-family:'Proxima Nova';dominant-baseline:alphabetic;text-anchor:middle;fill:#331a00"
           id="path281" />
        <path
           d="m 8.7099133,0 h 0.556768 v -2.7106881 h -0.577088 v 1.75564807 L 7.4338173,-2.7106881 H 6.8404732 V 0 h 0.5770881 v -1.8206721 z"
           style="font-weight:bold;font-size:4.064px;font-family:'Proxima Nova';dominant-baseline:alphabetic;text-anchor:middle;fill:#331a00"
           id="path283" />
        <path
           d="m 11.093513,0.048768 c 0.617728,0 0.959104,-0.32918401 1.154176,-0.66649602 l -0.495808,-0.23977601 c -0.113792,0.22352001 -0.357632,0.39420802 -0.658368,0.39420802 -0.471424,0 -0.829056,-0.37795202 -0.829056,-0.89001599 0,-0.5120641 0.357632,-0.8900161 0.829056,-0.8900161 0.300736,0 0.544576,0.174752 0.658368,0.394208 l 0.495808,-0.24384 c -0.191008,-0.337312 -0.536448,-0.662432 -1.154176,-0.662432 -0.79248,0 -1.4224001,0.56896 -1.4224001,1.4020801 0,0.83311998 0.6299201,1.40208 1.4224001,1.40208 z"
           style="font-weight:bold;font-size:4.064px;font-family:'Proxima Nova';dominant-baseline:alphabetic;text-anchor:middle;fill:#331a00"
           id="path285" />
        <path
           d="m 12.595163,0 h 1.918208 v -0.49987202 h -1.34112 V -1.129792 h 1.312672 v -0.4958081 h -1.312672 v -0.58928 h 1.34112 v -0.495808 h -1.918208 z"
           style="font-weight:bold;font-size:4.064px;font-family:'Proxima Nova';dominant-baseline:alphabetic;text-anchor:middle;fill:#331a00"
           id="path287" />
        <path
           d="m 16.500602,0 h 0.662432 l -0.6096,-1.032256 c 0.292608,-0.069088 0.593344,-0.32512 0.593344,-0.8046721 0,-0.503936 -0.34544,-0.87376 -0.910336,-0.87376 H 14.968473 V 0 h 0.577089 v -0.97129603 h 0.422656 z m 0.0569,-1.8409921 c 0,0.227584 -0.174752,0.3738881 -0.4064,0.3738881 h -0.605536 v -0.7477761 h 0.605536 c 0.231648,0 0.4064,0.146304 0.4064,0.373888 z"
           style="font-weight:bold;font-size:4.064px;font-family:'Proxima Nova';dominant-baseline:alphabetic;text-anchor:middle;fill:#331a00"
           id="path289" />
        <path
           d="m 19.749514,0 h 0.577088 v -0.56083202 h 0.349504 V -1.068832 H 20.326602 V -2.7106881 H 19.530058 L 18.453098,-1.016 v 0.45516798 h 1.296416 z m 0,-2.1986241 v 1.1297921 h -0.73152 z"
           style="font-weight:bold;font-size:4.064px;font-family:'Proxima Nova';dominant-baseline:alphabetic;text-anchor:middle;fill:#331a00"
           id="path291" />
      </g>
    </g>
    <g
       transform="translate(50.8,119.5)"
       id="g10">
      <g
         aria-label="DHE"
         id="text8"
         style="font-weight:bold;font-size:4.064px;font-family:'Proxima Nova';dominant-baseline:hanging;text-anchor:middle;fill:#331a00">
        <path
           d="m -3.8632449,2.7584481 h 1.0688321 c 0.849376,0 1.438656,-0.5364481 1.438656,-1.3533121 0,-0.816864 -0.58928,-1.35737602 -1.438656,-1.35737602 H -3.8632449 Z M -3.2861569,2.250448 V 0.55575999 h 0.4917441 c 0.556768,0 0.849376,0.36982402 0.849376,0.84937601 0,0.459232 -0.312928,0.845312 -0.849376,0.845312 z"
           style="font-weight:bold;font-size:4.064px;font-family:'Proxima Nova';dominant-baseline:hanging;text-anchor:middle;fill:#331a00"
           id="path294" />
        <path
           d="M 0.91500319,2.7584481 H 1.4961552 V 0.04775998 H 0.91500319 V 1.112528 H -0.36515685 V 0.04775998 H -0.94224487 V 2.7584481 h 0.57708802 V 1.620528 h 1.28016004 z"
           style="font-weight:bold;font-size:4.064px;font-family:'Proxima Nova';dominant-baseline:hanging;text-anchor:middle;fill:#331a00"
           id="path296" />
        <path
           d="M 2.0263802,2.7584481 H 3.9445883 V 2.258576 H 2.6034682 V 1.628656 H 3.9161403 V 1.132848 H 2.6034682 V 0.54356799 H 3.9445883 V 0.04775998 H 2.0263802 Z"
           style="font-weight:bold;font-size:4.064px;font-family:'Proxima Nova';dominant-baseline:hanging;text-anchor:middle;fill:#331a00"
           id="path298" />
      </g>
    </g>
    <g
       transform="translate(11.22,25.591)"
       id="g14">
      <g
         aria-label="LENGTH"
         id="text12"
         style="font-weight:bold;font-size:2.371px;font-family:'Proxima Nova';dominant-baseline:alphabetic;text-anchor:middle;fill:#331a00">
        <path
           d="m -4.4211186,0 h 1.005304 v -0.29637501 h -0.668622 V -1.581457 h -0.336682 z"
           style="font-weight:bold;font-size:2.371px;font-family:'Proxima Nova';dominant-baseline:alphabetic;text-anchor:middle;fill:#331a00"
           id="path301" />
        <path
           d="m -3.1800482,0 h 1.119112 v -0.29163301 h -0.78243 v -0.367505 h 0.765833 v -0.28926201 h -0.765833 V -1.292195 h 0.78243 v -0.289262 h -1.119112 z"
           style="font-weight:bold;font-size:2.371px;font-family:'Proxima Nova';dominant-baseline:alphabetic;text-anchor:middle;fill:#331a00"
           id="path303" />
        <path
           d="m -0.70476119,0 h 0.32482701 v -1.581457 h -0.33668201 v 1.02427199 L -1.4492552,-1.581457 h -0.346166 V 0 h 0.336682 v -1.062208 z"
           style="font-weight:bold;font-size:2.371px;font-family:'Proxima Nova';dominant-baseline:alphabetic;text-anchor:middle;fill:#331a00"
           id="path305" />
        <path
           d="m -0.1439828,-0.78954302 c 0,0.49791001 0.37936001,0.82036602 0.84170502,0.82036602 0.28689101,0 0.51213598,-0.11855 0.67336398,-0.29874601 V -0.87252802 H 0.61710822 v 0.28926201 H 1.0391462 v 0.192051 c -0.068759,0.061646 -0.19679298,0.120921 -0.34142398,0.120921 -0.286891,0 -0.49553901,-0.220503 -0.49553901,-0.51924901 0,-0.29874598 0.20864801,-0.51924898 0.49553901,-0.51924898 0.16597001,0 0.30111701,0.087727 0.37461798,0.199164 l 0.279778,-0.151744 c -0.120921,-0.187309 -0.327198,-0.346166 -0.65439598,-0.346166 -0.46234501,0 -0.84170502,0.317714 -0.84170502,0.81799498 z"
           style="font-weight:bold;font-size:2.371px;font-family:'Proxima Nova';dominant-baseline:alphabetic;text-anchor:middle;fill:#331a00"
           id="path307" />
        <path
           d="M 1.987287,0 H 2.32634 V -1.285082 H 2.786314 V -1.581457 H 1.524942 v 0.296375 h 0.462345 z"
           style="font-weight:bold;font-size:2.371px;font-family:'Proxima Nova';dominant-baseline:alphabetic;text-anchor:middle;fill:#331a00"
           id="path309" />
        <path
           d="m 4.0856963,0 h 0.339053 v -1.581457 h -0.339053 v 0.62120198 H 3.3388313 V -1.581457 H 3.0021493 V 0 h 0.336682 v -0.66388001 h 0.746865 z"
           style="font-weight:bold;font-size:2.371px;font-family:'Proxima Nova';dominant-baseline:alphabetic;text-anchor:middle;fill:#331a00"
           id="path311" />
      </g>
    </g>
    <path
       id="rect16"
       style="fill:#efedeb;stroke:#331a00;stroke-width:0.35"
       d="m 7.02,43.263 h 8.4 c 0.554,0 1,0.446 1,1 v 10.98 c 0,0.554 -0.446,1 -1,1 h -8.4 c -0.554,0 -1,-0.446 -1,-1 v -10.98 c 0,-0.554 0.446,-1 1,-1 z" />
    <g
       transform="translate(11.22,45.843)"
       id="g20">
      <g
         aria-label="A"
         id="text18"
         style="font-weight:bold;font-size:2.371px;font-family:'Proxima Nova';dominant-baseline:alphabetic;text-anchor:middle;fill:#331a00">
        <path
           d="M 0.45334262,0 H 0.82084763 L 0.21150061,-1.581457 H -0.2105374 L -0.82225541,0 h 0.36987601 l 0.099582,-0.27266501 H 0.35376062 Z M 4.8160939e-4,-1.289824 0.26129162,-0.56429801 H -0.2626994 Z"
           style="font-weight:bold;font-size:2.371px;font-family:'Proxima Nova';dominant-baseline:alphabetic;text-anchor:middle;fill:#331a00"
           id="path315" />
      </g>
    </g>
    <path
       id="rect22"
       style="fill:#efedeb;stroke:#331a00;stroke-width:0.35"
       d="m 7.02,63.514999 h 8.4 c 0.554,0 1,0.446 1,1 v 10.98 c 0,0.554 -0.446,1 -1,1 h -8.4 c -0.554,0 -1,-0.446 -1,-1 v -10.98 c 0,-0.554 0.446,-1 1,-1 z" />
    <g
       transform="translate(11.22,66.095)"
       id="g26">
      <g
         aria-label="B"
         id="text24"
         style="font-weight:bold;font-size:2.371px;font-family:'Proxima Nova';dominant-baseline:alphabetic;text-anchor:middle;fill:#331a00">
        <path
           d="m -0.62844468,0 h 0.85830202 c 0.30111701,0 0.45997401,-0.18968 0.45997401,-0.42678001 0,-0.199164 -0.135147,-0.36276301 -0.30348801,-0.38884401 0.14937301,-0.030823 0.27266501,-0.163599 0.27266501,-0.36276298 0,-0.211019 -0.154115,-0.40307 -0.45523201,-0.40307 h -0.83222102 z m 0.33668201,-0.94602902 V -1.294566 h 0.42203801 c 0.113808,0 0.184938,0.075872 0.184938,0.173083 0,0.101953 -0.07113,0.17545398 -0.184938,0.17545398 z m 0,0.65913801 v -0.372247 h 0.43389301 c 0.132776,0 0.203906,0.085356 0.203906,0.184938 0,0.113808 -0.075872,0.187309 -0.203906,0.187309 z"
           style="font-weight:bold;font-size:2.371px;font-family:'Proxima Nova';dominant-baseline:alphabetic;text-anchor:middle;fill:#331a00"
           id="path319" />
      </g>
    </g>
    <path
       id="rect28"
       style="fill:#efedeb;stroke:#331a00;stroke-width:0.35"
       d="m 7.02,83.766998 h 8.4 c 0.554,0 1,0.446 1,1 v 10.98 c 0,0.554 -0.446,1 -1,1 h -8.4 c -0.554,0 -1,-0.446 -1,-1 v -10.98 c 0,-0.554 0.446,-1 1,-1 z" />
    <g
       transform="translate(11.22,86.348)"
       id="g32">
      <g
         aria-label="C"
         id="text30"
         style="font-weight:bold;font-size:2.371px;font-family:'Proxima Nova';dominant-baseline:alphabetic;text-anchor:middle;fill:#331a00">
        <path
           d="m 0.09543275,0.028452 c 0.36039201,0 0.55955601,-0.192051 0.67336402,-0.38884401 l -0.28926201,-0.139889 c -0.066388,0.130405 -0.208648,0.229987 -0.38410201,0.229987 -0.275036,0 -0.48368401,-0.220503 -0.48368401,-0.51924901 0,-0.29874598 0.20864801,-0.51924898 0.48368401,-0.51924898 0.17545401,0 0.31771401,0.101953 0.38410201,0.229987 l 0.28926201,-0.14226 C 0.65735976,-1.417858 0.45582476,-1.607538 0.09543275,-1.607538 c -0.46234501,0 -0.82985002,0.33194 -0.82985002,0.81799498 0,0.48605501 0.36750501,0.81799502 0.82985002,0.81799502 z"
           style="font-weight:bold;font-size:2.371px;font-family:'Proxima Nova';dominant-baseline:alphabetic;text-anchor:middle;fill:#331a00"
           id="path323" />
      </g>
    </g>
    <path
       id="rect34"
       style="fill:#efedeb;stroke:#331a00;stroke-width:0.35"
       d="m 7.02,104.02 h 8.4 c 0.554,0 1,0.446 1,1 V 116 c 0,0.554 -0.446,1 -1,1 h -8.4 c -0.554,0 -1,-0.446 -1,-1 v -10.98 c 0,-0.554 0.446,-1 1,-1 z" />
    <g
       transform="translate(11.22,106.6)"
       id="g38">
      <g
         aria-label="PHASE"
         id="text36"
         style="font-weight:bold;font-size:2.371px;font-family:'Proxima Nova';dominant-baseline:alphabetic;text-anchor:middle;fill:#331a00">
        <path
           d="m -3.6523959,0 h 0.336682 v -0.56666901 h 0.40307 c 0.341424,0 0.531104,-0.22998701 0.531104,-0.50502299 0,-0.277407 -0.187309,-0.509765 -0.531104,-0.509765 h -0.739752 z m 0.927061,-1.074063 c 0,0.13277598 -0.099582,0.21813198 -0.232358,0.21813198 h -0.358021 V -1.292195 h 0.358021 c 0.132776,0 0.232358,0.087727 0.232358,0.218132 z"
           style="font-weight:bold;font-size:2.371px;font-family:'Proxima Nova';dominant-baseline:alphabetic;text-anchor:middle;fill:#331a00"
           id="path327" />
        <path
           d="m -1.0916048,0 h 0.33905305 V -1.581457 H -1.0916048 v 0.62120198 h -0.746865 V -1.581457 h -0.336682 V 0 h 0.336682 v -0.66388001 h 0.746865 z"
           style="font-weight:bold;font-size:2.371px;font-family:'Proxima Nova';dominant-baseline:alphabetic;text-anchor:middle;fill:#331a00"
           id="path329" />
        <path
           d="M 0.66404671,0 H 1.0315517 L 0.4222047,-1.581457 H 1.6669464e-4 L -0.61155132,0 h 0.36987601 l 0.099582,-0.27266501 h 0.70655802 z m -0.45286101,-1.289824 0.26081,0.72552599 h -0.52399101 z"
           style="font-weight:bold;font-size:2.371px;font-family:'Proxima Nova';dominant-baseline:alphabetic;text-anchor:middle;fill:#331a00"
           id="path331" />
        <path
           d="m 1.050001,-0.222874 c 0.149373,0.149373 0.367505,0.251326 0.670993,0.251326 0.42678,0 0.633057,-0.218132 0.633057,-0.50739401 0,-0.35090801 -0.33194,-0.42915101 -0.59275,-0.48842601 C 1.578734,-1.010046 1.445958,-1.04324 1.445958,-1.149935 c 0,-0.09484 0.080614,-0.161228 0.232358,-0.161228 0.154115,0 0.324827,0.054533 0.452861,0.173083 L 2.318486,-1.384664 C 2.162,-1.529295 1.953352,-1.605167 1.702026,-1.605167 c -0.372247,0 -0.599863,0.21339 -0.599863,0.476571 0,0.35327898 0.33194,0.42440898 0.590379,0.48368399 0.182567,0.042678 0.320085,0.082985 0.320085,0.201535 0,0.090098 -0.090098,0.177825 -0.275036,0.177825 -0.218132,0 -0.391215,-0.097211 -0.502652,-0.21339 z"
           style="font-weight:bold;font-size:2.371px;font-family:'Proxima Nova';dominant-baseline:alphabetic;text-anchor:middle;fill:#331a00"
           id="path333" />
        <path
           d="m 2.5807412,0 h 1.119112 v -0.29163301 h -0.78243 v -0.367505 h 0.765833 V -0.94840002 H 2.9174232 V -1.292195 h 0.78243 v -0.289262 h -1.119112 z"
           style="font-weight:bold;font-size:2.371px;font-family:'Proxima Nova';dominant-baseline:alphabetic;text-anchor:middle;fill:#331a00"
           id="path335" />
      </g>
    </g>
    <g
       transform="translate(32.44,36.474)"
       id="g42">
      <g
         aria-label="START"
         id="text40"
         style="font-weight:bold;font-size:3.048px;font-family:'Proxima Nova';dominant-baseline:middle;text-anchor:end;fill:#331a00">
        <path
           d="m -9.1068528,0.81558002 c 0.192024,0.19202398 0.47244,0.32308798 0.862584,0.32308798 0.5486401,0 0.8138161,-0.28041598 0.8138161,-0.65227199 0,-0.45110402 -0.4267201,-0.55168802 -0.7620001,-0.62788802 -0.234696,-0.054864 -0.405384,-0.097536 -0.405384,-0.23469601 0,-0.12192 0.103632,-0.20726401 0.298704,-0.20726401 0.19812,0 0.417576,0.070104 0.5821681,0.22250401 l 0.240792,-0.31699201 c -0.201168,-0.18592801 -0.4693921,-0.28346401 -0.7924801,-0.28346401 -0.478536,0 -0.771144,0.27432001 -0.771144,0.61264802 0,0.45415202 0.42672,0.54559202 0.758952,0.62179202 0.234696,0.054864 0.41148,0.10668 0.41148,0.25908001 0,0.115824 -0.115824,0.22860001 -0.353568,0.22860001 -0.280416,0 -0.50292,-0.12496801 -0.646176,-0.27432001 z"
           style="font-weight:bold;font-size:3.048px;font-family:'Proxima Nova';dominant-baseline:middle;text-anchor:end;fill:#331a00"
           id="path338" />
        <path
           d="m -6.6934559,1.102092 h 0.435864 v -1.65201603 h 0.591312 v -0.38100001 h -1.621536 v 0.38100001 h 0.59436 z"
           style="font-weight:bold;font-size:3.048px;font-family:'Proxima Nova';dominant-baseline:middle;text-anchor:end;fill:#331a00"
           id="path340" />
        <path
           d="m -4.1618537,1.102092 h 0.47244 l -0.783336,-2.03301604 h -0.542544 L -5.8016777,1.102092 h 0.475488 l 0.128016,-0.35051998 h 0.908304 z m -0.582168,-1.65811203 0.33528,0.93268803 h -0.673608 z"
           style="font-weight:bold;font-size:3.048px;font-family:'Proxima Nova';dominant-baseline:middle;text-anchor:end;fill:#331a00"
           id="path342" />
        <path
           d="m -2.3525801,1.102092 h 0.496824 l -0.4572,-0.774192 c 0.219456,-0.051816 0.445008,-0.24384 0.445008,-0.60350402 0,-0.37795201 -0.25908,-0.65532002 -0.682752,-0.65532002 h -0.950976 V 1.102092 h 0.432816 V 0.37362 h 0.316992 z m 0.042672,-1.38074402 c 0,0.17068801 -0.131064,0.28041601 -0.3048,0.28041601 h -0.454152 v -0.56083202 h 0.454152 c 0.173736,0 0.3048,0.10972801 0.3048,0.28041601 z"
           style="font-weight:bold;font-size:3.048px;font-family:'Proxima Nova';dominant-baseline:middle;text-anchor:end;fill:#331a00"
           id="path344" />
        <path
           d="m -1.1034711,1.102092 h 0.435864 v -1.65201603 h 0.59131202 V -0.93092404 H -1.6978311 v 0.38100001 h 0.59436 z"
           style="font-weight:bold;font-size:3.048px;font-family:'Proxima Nova';dominant-baseline:middle;text-anchor:end;fill:#331a00"
           id="path346" />
      </g>
    </g>
    <g
       transform="translate(32.44,63.615)"
       id="g46">
      <g
         aria-label="END"
         id="text44"
         style="font-weight:bold;font-size:3.048px;font-family:'Proxima Nova';dominant-baseline:middle;text-anchor:end;fill:#331a00">
        <path
           d="m -5.9900822,1.102092 h 1.4386561 V 0.72718802 H -5.5572662 V 0.254748 h 0.9845041 v -0.37185601 h -0.9845041 v -0.44196002 h 1.0058401 v -0.37185601 h -1.4386561 z"
           style="font-weight:bold;font-size:3.048px;font-family:'Proxima Nova';dominant-baseline:middle;text-anchor:end;fill:#331a00"
           id="path349" />
        <path
           d="m -2.8080177,1.102092 h 0.417576 v -2.03301604 h -0.432816 V 0.385812 l -0.941832,-1.31673604 h -0.445008 V 1.102092 h 0.432816 v -1.36550402 z"
           style="font-weight:bold;font-size:3.048px;font-family:'Proxima Nova';dominant-baseline:middle;text-anchor:end;fill:#331a00"
           id="path351" />
        <path
           d="m -1.989582,1.102092 h 0.801624 c 0.63703206,0 1.07899207,-0.40233599 1.07899207,-1.014984 0,-0.61264802 -0.44196001,-1.01803204 -1.07899207,-1.01803204 h -0.801624 z m 0.432816,-0.38099998 v -1.27101605 h 0.368808 c 0.41757605,0 0.63703206,0.27736801 0.63703206,0.63703203 0,0.34442401 -0.23469601,0.63398402 -0.63703206,0.63398402 z"
           style="font-weight:bold;font-size:3.048px;font-family:'Proxima Nova';dominant-baseline:middle;text-anchor:end;fill:#331a00"
           id="path353" />
      </g>
    </g>
    <g
       transform="translate(32.44,85.783)"
       id="g50">
      <g
         aria-label="ϕ DUR"
         id="text48"
         style="font-weight:bold;font-size:3.048px;font-family:'Proxima Nova';dominant-baseline:middle;text-anchor:end;fill:#331a00">
        <path
           d="m -7.3387151,0.34367577 q 0,0.55066408 -0.4018359,0.75009373 -0.1964532,0.098227 -0.4092774,0.098227 V 1.757543 h -0.418207 V 1.1919961 q -0.2098477,0 -0.4077891,-0.098227 -0.4033242,-0.20091793 -0.4033242,-0.75009373 0,-0.21580079 0.1026914,-0.40481251 0.1071562,-0.19496485 0.2931914,-0.29616798 0.1860352,-0.10269141 0.4152305,-0.10269141 V -1.025543 h 0.418207 v 0.56554687 q 0.497086,0 0.7084219,0.40034767 0.1026914,0.19496485 0.1026914,0.40332423 z m -0.428625,0.0223242 q 0,-0.19942969 -0.089297,-0.33188673 -0.1041797,-0.15329297 -0.2931914,-0.15329297 v 0.9703594 q 0.1890117,0 0.2931914,-0.15329297 0.089297,-0.13245704 0.089297,-0.33188673 z m -0.8006953,0.4851797 v -0.9703594 q -0.1890118,0 -0.2931914,0.15329297 -0.089297,0.13245704 -0.089297,0.33188673 0,0.19942969 0.089297,0.33188673 0.1041796,0.15329297 0.2931914,0.15329297 z"
           style="font-weight:bold;font-size:3.048px;font-family:'Proxima Nova';dominant-baseline:middle;text-anchor:end;fill:#331a00"
           id="path356" />
        <path
           d="m -6.168676,1.102092 h 0.8016241 c 0.637032,0 1.078992,-0.40233599 1.078992,-1.014984 0,-0.61264802 -0.44196,-1.01803204 -1.078992,-1.01803204 H -6.168676 Z m 0.4328161,-0.38099998 v -1.27101605 h 0.368808 c 0.417576,0 0.637032,0.27736801 0.637032,0.63703203 0,0.34442401 -0.234696,0.63398402 -0.637032,0.63398402 z"
           style="font-weight:bold;font-size:3.048px;font-family:'Proxima Nova';dominant-baseline:middle;text-anchor:end;fill:#331a00"
           id="path358" />
        <path
           d="m -3.9779258,0.291324 c 0,0.49987202 0.28956,0.847344 0.911352,0.847344 0.615696,0 0.905256,-0.34442398 0.905256,-0.850392 v -1.21920004 h -0.438912 V 0.276084 c 0,0.28346401 -0.155448,0.47853602 -0.466344,0.47853602 -0.316992,0 -0.47244,-0.19507201 -0.47244,-0.47853602 v -1.20700804 h -0.438912 z"
           style="font-weight:bold;font-size:3.048px;font-family:'Proxima Nova';dominant-baseline:middle;text-anchor:end;fill:#331a00"
           id="path360" />
        <path
           d="m -0.60831407,1.102092 h 0.49682402 L -0.56869007,0.3279 c 0.21945601,-0.051816 0.44500802,-0.24384 0.44500802,-0.60350402 0,-0.37795201 -0.25908001,-0.65532002 -0.68275202,-0.65532002 H -1.7574101 V 1.102092 h 0.432816 V 0.37362 h 0.316992 z m 0.042672,-1.38074402 c 0,0.17068801 -0.131064,0.28041601 -0.30480001,0.28041601 H -1.3245941 v -0.56083202 h 0.45415202 c 0.17373601,0 0.30480001,0.10972801 0.30480001,0.28041601 z"
           style="font-weight:bold;font-size:3.048px;font-family:'Proxima Nova';dominant-baseline:middle;text-anchor:end;fill:#331a00"
           id="path362" />
      </g>
    </g>
    <g
       transform="translate(32.44,104.416)"
       id="g54">
      <g
         aria-label="SHAPE"
         id="text52"
         style="font-weight:bold;font-size:3.048px;font-family:'Proxima Nova';dominant-baseline:middle;text-anchor:end;fill:#331a00">
        <path
           d="m -9.7557434,0.81558002 c 0.192024,0.19202398 0.47244,0.32308798 0.862584,0.32308798 0.54864,0 0.813816,-0.28041598 0.813816,-0.65227199 0,-0.45110402 -0.42672,-0.55168802 -0.762,-0.62788802 -0.234696,-0.054864 -0.405384,-0.097536 -0.405384,-0.23469601 0,-0.12192 0.103632,-0.20726401 0.298704,-0.20726401 0.19812,0 0.417576,0.070104 0.582168,0.22250401 l 0.240792,-0.31699201 c -0.201168,-0.18592801 -0.469392,-0.28346401 -0.79248,-0.28346401 -0.478536,0 -0.771144,0.27432001 -0.771144,0.61264802 0,0.45415202 0.42672,0.54559202 0.758952,0.62179202 0.234696,0.054864 0.41148,0.10668 0.41148,0.25908001 0,0.115824 -0.115824,0.22860001 -0.353568,0.22860001 -0.280416,0 -0.50292,-0.12496801 -0.646176,-0.27432001 z"
           style="font-weight:bold;font-size:3.048px;font-family:'Proxima Nova';dominant-baseline:middle;text-anchor:end;fill:#331a00"
           id="path365" />
        <path
           d="m -6.39499,1.102092 h 0.435864 V -0.93092404 H -6.39499 v 0.79857603 H -7.35511 V -0.93092404 H -7.787926 V 1.102092 h 0.432816 v -0.85344 h 0.96012 z"
           style="font-weight:bold;font-size:3.048px;font-family:'Proxima Nova';dominant-baseline:middle;text-anchor:end;fill:#331a00"
           id="path367" />
        <path
           d="m -4.1380413,1.102092 h 0.47244 l -0.783336,-2.03301604 h -0.542544 L -5.7778653,1.102092 h 0.475488 l 0.128016,-0.35051998 h 0.908304 z m -0.582168,-1.65811203 0.33528,0.93268803 h -0.673608 z"
           style="font-weight:bold;font-size:3.048px;font-family:'Proxima Nova';dominant-baseline:middle;text-anchor:end;fill:#331a00"
           id="path369" />
        <path
           d="m -3.4778635,1.102092 h 0.432816 V 0.37362 h 0.51816 c 0.4389121,0 0.6827521,-0.29565601 0.6827521,-0.64922402 0,-0.35661601 -0.240792,-0.65532002 -0.6827521,-0.65532002 h -0.950976 z m 1.1917681,-1.38074402 c 0,0.17068801 -0.1280161,0.28041601 -0.2987041,0.28041601 h -0.460248 v -0.56083202 h 0.460248 c 0.170688,0 0.2987041,0.11277601 0.2987041,0.28041601 z"
           style="font-weight:bold;font-size:3.048px;font-family:'Proxima Nova';dominant-baseline:middle;text-anchor:end;fill:#331a00"
           id="path371" />
        <path
           d="m -1.5788161,1.102092 h 1.43865604 V 0.72718802 H -1.1460001 V 0.254748 h 0.98450404 V -0.11710801 H -1.1460001 v -0.44196002 h 1.00584004 V -0.93092404 H -1.5788161 Z"
           style="font-weight:bold;font-size:3.048px;font-family:'Proxima Nova';dominant-baseline:middle;text-anchor:end;fill:#331a00"
           id="path373" />
      </g>
    </g>
    <path
       id="line56"
       style="stroke:#331a00;stroke-width:0.35"
       d="m 33.439999,23 v 94" />
    <path
       id="line58"
       style="stroke:#331a00;stroke-width:0.35"
       d="m 44.869999,23 v 94" />
    <g
       transform="translate(39.155,19.736)"
       id="g62">
      <path
         id="circle60"
         style="fill:#331a00;stroke:none;stroke-width:0"
         d="M 1.0880001,0 A 1.0880001,1.0880001 0 0 1 0,1.0880001 1.0880001,1.0880001 0 0 1 -1.0880001,0 1.0880001,1.0880001 0 0 1 0,-1.0880001 1.0880001,1.0880001 0 0 1 1.0880001,0 Z" />
    </g>
    <g
       transform="translate(39.155,16.472)"
       id="g66">
      <g
         aria-label="1"
         id="text64"
         style="font-weight:bold;font-size:3.048px;font-family:'Proxima Nova';dominant-baseline:alphabetic;text-anchor:middle;fill:#331a00">
        <path
           d="M -0.00938213,0 H 0.42648189 V -2.0330161 H 0.04852988 l -0.64008002,0.6431281 0.246888,0.25908 0.33528001,-0.344424 z"
           style="font-weight:bold;font-size:3.048px;font-family:'Proxima Nova';dominant-baseline:alphabetic;text-anchor:middle;fill:#331a00"
           id="path379" />
      </g>
    </g>
    <g
       transform="translate(39.155,30.141)"
       id="g70">
      <g
         id="text68"
         style="font-weight:bold;font-size:2.371px;font-family:'Proxima Nova';dominant-baseline:alphabetic;text-anchor:middle;fill:#331a00" />
    </g>
    <g
       transform="translate(39.155,38.741)"
       id="g74">
      <g
         id="text72"
         style="font-weight:bold;font-size:2.371px;font-family:'Proxima Nova';dominant-baseline:alphabetic;text-anchor:middle;fill:#331a00" />
    </g>
    <g
       transform="translate(39.155,57.283)"
       id="g78">
      <g
         id="text76"
         style="font-weight:bold;font-size:2.371px;font-family:'Proxima Nova';dominant-baseline:alphabetic;text-anchor:middle;fill:#331a00" />
    </g>
    <g
       transform="translate(39.155,65.883)"
       id="g82">
      <g
         id="text80"
         style="font-weight:bold;font-size:2.371px;font-family:'Proxima Nova';dominant-baseline:alphabetic;text-anchor:middle;fill:#331a00" />
    </g>
    <g
       transform="translate(39.155,76.283)"
       id="g86">
      <g
         id="text84"
         style="font-weight:bold;font-size:2.371px;font-family:'Proxima Nova';dominant-baseline:alphabetic;text-anchor:middle;fill:#331a00" />
    </g>
    <g
       transform="translate(39.155,84.883)"
       id="g90">
      <g
         id="text88"
         style="font-weight:bold;font-size:2.371px;font-family:'Proxima Nova';dominant-baseline:alphabetic;text-anchor:middle;fill:#331a00" />
    </g>
    <g
       transform="translate(39.155,99.353)"
       id="g94">
      <g
         id="text92"
         style="font-weight:bold;font-size:2.371px;font-family:'Proxima Nova';dominant-baseline:alphabetic;text-anchor:middle;fill:#331a00" />
    </g>
    <g
       transform="translate(39.155,107.953)"
       id="g98">
      <g
         id="text96"
         style="font-weight:bold;font-size:2.371px;font-family:'Proxima Nova';dominant-baseline:alphabetic;text-anchor:middle;fill:#331a00" />
    </g>
    <path
       id="line100"
       style="stroke:#331a00;stroke-width:0.35"
       d="m 56.299999,23 v 94" />
    <g
       transform="translate(50.585,19.736)"
       id="g104">
      <path
         id="circle102"
         style="fill:#331a00;stroke:none;stroke-width:0"
         d="M 1.0880001,0 A 1.0880001,1.0880001 0 0 1 0,1.0880001 1.0880001,1.0880001 0 0 1 -1.0880001,0 1.0880001,1.0880001 0 0 1 0,-1.0880001 1.0880001,1.0880001 0 0 1 1.0880001,0 Z" />
    </g>
    <g
       transform="translate(50.585,16.472)"
       id="g108">
      <g
         aria-label="2"
         id="text106"
         style="font-weight:bold;font-size:3.048px;font-family:'Proxima Nova';dominant-baseline:alphabetic;text-anchor:middle;fill:#331a00">
        <path
           d="M -0.77054871,0 H 0.75954734 V -0.38100001 H -0.08779669 C 0.45779533,-0.76504802 0.74430734,-1.0668 0.74430734,-1.414272 c 0,-0.4053841 -0.34442401,-0.6492241 -0.77724003,-0.6492241 -0.28346401,0 -0.58521602,0.103632 -0.78333602,0.332232 l 0.246888,0.2865121 c 0.13716001,-0.1432561 0.31394401,-0.2346961 0.54254402,-0.2346961 0.17068801,0 0.33223201,0.088392 0.33223201,0.2651761 0,0.249936 -0.24384001,0.46024797 -1.07594403,1.07289599 z"
           style="font-weight:bold;font-size:3.048px;font-family:'Proxima Nova';dominant-baseline:alphabetic;text-anchor:middle;fill:#331a00"
           id="path392" />
      </g>
    </g>
    <g
       transform="translate(50.585,30.141)"
       id="g112">
      <g
         id="text110"
         style="font-weight:bold;font-size:2.371px;font-family:'Proxima Nova';dominant-baseline:alphabetic;text-anchor:middle;fill:#331a00" />
    </g>
    <g
       transform="translate(50.585,38.741)"
       id="g116">
      <g
         id="text114"
         style="font-weight:bold;font-size:2.371px;font-family:'Proxima Nova';dominant-baseline:alphabetic;text-anchor:middle;fill:#331a00" />
    </g>
    <g
       transform="translate(50.585,57.283)"
       id="g120">
      <g
         id="text118"
         style="font-weight:bold;font-size:2.371px;font-family:'Proxima Nova';dominant-baseline:alphabetic;text-anchor:middle;fill:#331a00" />
    </g>
    <g
       transform="translate(50.585,65.883)"
       id="g124">
      <g
         id="text122"
         style="font-weight:bold;font-size:2.371px;font-family:'Proxima Nova';dominant-baseline:alphabetic;text-anchor:middle;fill:#331a00" />
    </g>
    <g
       transform="translate(50.585,76.283)"
       id="g128">
      <g
         id="text126"
         style="font-weight:bold;font-size:2.371px;font-family:'Proxima Nova';dominant-baseline:alphabetic;text-anchor:middle;fill:#331a00" />
    </g>
    <g
       transform="translate(50.585,84.883)"
       id="g132">
      <g
         id="text130"
         style="font-weight:bold;font-size:2.371px;font-family:'Proxima Nova';dominant-baseline:alphabetic;text-anchor:middle;fill:#331a00" />
    </g>
    <g
       transform="translate(50.585,99.353)"
       id="g136">
      <g
         id="text134"
         style="font-weight:bold;font-size:2.371px;font-family:'Proxima Nova';dominant-baseline:alphabetic;text-anchor:middle;fill:#331a00" />
    </g>
    <g
       transform="translate(50.585,107.953)"
       id="g140">
      <g
         id="text138"
         style="font-weight:bold;font-size:2.371px;font-family:'Proxima Nova';dominant-baseline:alphabetic;text-anchor:middle;fill:#331a00" />
    </g>
    <path
       id="line142"
       style="stroke:#331a00;stroke-width:0.35"
       d="m 67.730003,23 v 94" />
    <g
       transform="translate(62.015,19.736)"
       id="g146">
      <path
         id="circle144"
         style="fill:#331a00;stroke:none;stroke-width:0"
         d="M 1.0880001,0 A 1.0880001,1.0880001 0 0 1 0,1.0880001 1.0880001,1.0880001 0 0 1 -1.0880001,0 1.0880001,1.0880001 0 0 1 0,-1.0880001 1.0880001,1.0880001 0 0 1 1.0880001,0 Z" />
    </g>
    <g
       transform="translate(62.015,16.472)"
       id="g150">
      <g
         aria-label="3"
         id="text148"
         style="font-weight:bold;font-size:3.048px;font-family:'Proxima Nova';dominant-baseline:alphabetic;text-anchor:middle;fill:#331a00">
        <path
           d="M -0.83498534,-0.28956001 C -0.68563333,-0.10668 -0.40826533,0.036576 -0.03336131,0.036576 c 0.48768001,0 0.80162402,-0.24688801 0.80162402,-0.59740802 0,-0.30480001 -0.26822401,-0.46634398 -0.47548801,-0.48767998 0.225552,-0.039624 0.44500801,-0.207264 0.44500801,-0.463296 0,-0.3383281 -0.29260801,-0.5516881 -0.76809602,-0.5516881 -0.35661601,0 -0.61264802,0.13716 -0.77724003,0.323088 l 0.21336001,0.2682241 c 0.143256,-0.1371601 0.32004001,-0.2133601 0.51816002,-0.2133601 0.21336,0 0.37795201,0.082296 0.37795201,0.2438401 0,0.1524 -0.14935201,0.225552 -0.37490401,0.225552 -0.07924801,0 -0.21640801,0 -0.25298401,-0.00305 v 0.37795197 c 0.03048,-0.003048 0.16764,-0.003048 0.25298401,-0.003048 0.283464,0 0.40843201,0.0762 0.40843201,0.24079201 0,0.15544801 -0.13716001,0.26212801 -0.38404801,0.26212801 -0.19812001,0 -0.42062402,-0.085344 -0.56083202,-0.23164801 z"
           style="font-weight:bold;font-size:3.048px;font-family:'Proxima Nova';dominant-baseline:alphabetic;text-anchor:middle;fill:#331a00"
           id="path405" />
      </g>
    </g>
    <g
       transform="translate(62.015,30.141)"
       id="g154">
      <g
         id="text152"
         style="font-weight:bold;font-size:2.371px;font-family:'Proxima Nova';dominant-baseline:alphabetic;text-anchor:middle;fill:#331a00" />
    </g>
    <g
       transform="translate(62.015,38.741)"
       id="g158">
      <g
         id="text156"
         style="font-weight:bold;font-size:2.371px;font-family:'Proxima Nova';dominant-baseline:alphabetic;text-anchor:middle;fill:#331a00" />
    </g>
    <g
       transform="translate(62.015,57.283)"
       id="g162">
      <g
         id="text160"
         style="font-weight:bold;font-size:2.371px;font-family:'Proxima Nova';dominant-baseline:alphabetic;text-anchor:middle;fill:#331a00" />
    </g>
    <g
       transform="translate(62.015,65.883)"
       id="g166">
      <g
         id="text164"
         style="font-weight:bold;font-size:2.371px;font-family:'Proxima Nova';dominant-baseline:alphabetic;text-anchor:middle;fill:#331a00" />
    </g>
    <g
       transform="translate(62.015,76.283)"
       id="g170">
      <g
         id="text168"
         style="font-weight:bold;font-size:2.371px;font-family:'Proxima Nova';dominant-baseline:alphabetic;text-anchor:middle;fill:#331a00" />
    </g>
    <g
       transform="translate(62.015,84.883)"
       id="g174">
      <g
         id="text172"
         style="font-weight:bold;font-size:2.371px;font-family:'Proxima Nova';dominant-baseline:alphabetic;text-anchor:middle;fill:#331a00" />
    </g>
    <g
       transform="translate(62.015,99.353)"
       id="g178">
      <g
         id="text176"
         style="font-weight:bold;font-size:2.371px;font-family:'Proxima Nova';dominant-baseline:alphabetic;text-anchor:middle;fill:#331a00" />
    </g>
    <g
       transform="translate(62.015,107.953)"
       id="g182">
      <g
         id="text180"
         style="font-weight:bold;font-size:2.371px;font-family:'Proxima Nova';dominant-baseline:alphabetic;text-anchor:middle;fill:#331a00" />
    </g>
    <path
       id="line184"
       style="stroke:#331a00;stroke-width:0.35"
       d="m 79.160004,23 v 94" />
    <g
       transform="translate(73.445,19.736)"
       id="g188">
      <path
         id="circle186"
         style="fill:#331a00;stroke:none;stroke-width:0"
         d="M 1.0880001,0 A 1.0880001,1.0880001 0 0 1 0,1.0880001 1.0880001,1.0880001 0 0 1 -1.0880001,0 1.0880001,1.0880001 0 0 1 0,-1.0880001 1.0880001,1.0880001 0 0 1 1.0880001,0 Z" />
    </g>
    <g
       transform="translate(73.445,16.472)"
       id="g192">
      <g
         aria-label="4"
         id="text190"
         style="font-weight:bold;font-size:3.048px;font-family:'Proxima Nova';dominant-baseline:alphabetic;text-anchor:middle;fill:#331a00">
        <path
           d="M 0.13768388,0 H 0.57049989 V -0.42062401 H 0.8326279 V -0.80162403 H 0.57049989 V -2.0330161 h -0.59740802 l -0.80772002,1.27101608 v 0.34137601 h 0.97231203 z m 0,-1.6489681 v 0.84734407 h -0.54864002 z"
           style="font-weight:bold;font-size:3.048px;font-family:'Proxima Nova';dominant-baseline:alphabetic;text-anchor:middle;fill:#331a00"
           id="path418" />
      </g>
    </g>
    <g
       transform="translate(73.445,30.141)"
       id="g196">
      <g
         id="text194"
         style="font-weight:bold;font-size:2.371px;font-family:'Proxima Nova';dominant-baseline:alphabetic;text-anchor:middle;fill:#331a00" />
    </g>
    <g
       transform="translate(73.445,38.741)"
       id="g200">
      <g
         id="text198"
         style="font-weight:bold;font-size:2.371px;font-family:'Proxima Nova';dominant-baseline:alphabetic;text-anchor:middle;fill:#331a00" />
    </g>
    <g
       transform="translate(73.445,57.283)"
       id="g204">
      <g
         id="text202"
         style="font-weight:bold;font-size:2.371px;font-family:'Proxima Nova';dominant-baseline:alphabetic;text-anchor:middle;fill:#331a00" />
    </g>
    <g
       transform="translate(73.445,65.883)"
       id="g208">
      <g
         id="text206"
         style="font-weight:bold;font-size:2.371px;font-family:'Proxima Nova';dominant-baseline:alphabetic;text-anchor:middle;fill:#331a00" />
    </g>
    <g
       transform="translate(73.445,76.283)"
       id="g212">
      <g
         id="text210"
         style="font-weight:bold;font-size:2.371px;font-family:'Proxima Nova';dominant-baseline:alphabetic;text-anchor:middle;fill:#331a00" />
    </g>
    <g
       transform="translate(73.445,84.883)"
       id="g216">
      <g
         id="text214"
         style="font-weight:bold;font-size:2.371px;font-family:'Proxima Nova';dominant-baseline:alphabetic;text-anchor:middle;fill:#331a00" />
    </g>
    <g
       transform="translate(73.445,99.353)"
       id="g220">
      <g
         id="text218"
         style="font-weight:bold;font-size:2.371px;font-family:'Proxima Nova';dominant-baseline:alphabetic;text-anchor:middle;fill:#331a00" />
    </g>
    <g
       transform="translate(73.445,107.953)"
       id="g224">
      <g
         id="text222"
         style="font-weight:bold;font-size:2.371px;font-family:'Proxima Nova';dominant-baseline:alphabetic;text-anchor:middle;fill:#331a00" />
    </g>
    <g
       transform="translate(90.38,34.791)"
       id="g228">
      <g
         aria-label="BI"
         id="text226"
         style="font-weight:bold;font-size:2.371px;font-family:'Proxima Nova';dominant-baseline:hanging;text-anchor:middle;fill:#331a00">
        <path
           d="m -0.95260484,1.609472 h 0.85830202 c 0.301117,0 0.45997401,-0.18968 0.45997401,-0.42678 0,-0.19916404 -0.13514701,-0.36276304 -0.30348801,-0.38884404 0.149373,-0.030823 0.27266501,-0.163599 0.27266501,-0.36276301 0,-0.211019 -0.15411501,-0.40307001 -0.45523201,-0.40307001 H -0.95260484 Z M -0.61592283,0.66344296 V 0.31490595 h 0.42203801 c 0.113808,0 0.184938,0.075872 0.184938,0.173083 0,0.101953 -0.07113,0.17545401 -0.184938,0.17545401 z m 0,0.65913804 V 0.95033396 h 0.43389301 c 0.132776,0 0.203906,0.085356 0.203906,0.18493804 0,0.113808 -0.075872,0.187309 -0.203906,0.187309 z"
           style="font-weight:bold;font-size:2.371px;font-family:'Proxima Nova';dominant-baseline:hanging;text-anchor:middle;fill:#331a00"
           id="path429" />
        <path
           d="M 0.61725657,1.609472 H 0.95393858 V 0.02801494 H 0.61725657 Z"
           style="font-weight:bold;font-size:2.371px;font-family:'Proxima Nova';dominant-baseline:hanging;text-anchor:middle;fill:#331a00"
           id="path431" />
      </g>
    </g>
    <g
       transform="translate(90.38,26.791)"
       id="g232">
      <g
         aria-label="UNI"
         id="text230"
         style="font-weight:bold;font-size:2.371px;font-family:'Proxima Nova';dominant-baseline:alphabetic;text-anchor:middle;fill:#331a00">
        <path
           d="m -1.8949847,-0.63068601 c 0,0.388844 0.225245,0.65913801 0.708929,0.65913801 0.47894198,0 0.70418699,-0.26792301 0.70418699,-0.66150901 V -1.581457 h -0.34142401 v 0.93891599 c 0,0.220503 -0.120921,0.372247 -0.36276298,0.372247 -0.246584,0 -0.367505,-0.151744 -0.367505,-0.372247 V -1.581457 h -0.341424 z"
           style="font-weight:bold;font-size:2.371px;font-family:'Proxima Nova';dominant-baseline:alphabetic;text-anchor:middle;fill:#331a00"
           id="path434" />
        <path
           d="M 0.92298582,0 H 1.2478128 V -1.581457 H 0.91113082 v 1.02427199 L 0.1784918,-1.581457 H -0.16767421 V 0 H 0.1690078 v -1.062208 z"
           style="font-weight:bold;font-size:2.371px;font-family:'Proxima Nova';dominant-baseline:alphabetic;text-anchor:middle;fill:#331a00"
           id="path436" />
        <path
           d="m 1.5596363,0 h 0.336682 v -1.581457 h -0.336682 z"
           style="font-weight:bold;font-size:2.371px;font-family:'Proxima Nova';dominant-baseline:alphabetic;text-anchor:middle;fill:#331a00"
           id="path438" />
      </g>
    </g>
    <path
       id="rect234"
       style="fill:#331a00;stroke:#331a00;stroke-width:0.35"
       d="m 86.18,63.514999 h 8.4 c 0.554,0 1,0.446 1,1 v 10.98 c 0,0.554 -0.446,1 -1,1 h -8.4 c -0.554,0 -1,-0.446 -1,-1 v -10.98 c 0,-0.554 0.446,-1 1,-1 z" />
    <g
       transform="translate(90.38,66.095)"
       id="g238">
      <g
         aria-label="STEP"
         id="text236"
         style="font-weight:bold;font-size:2.371px;font-family:'Proxima Nova';dominant-baseline:alphabetic;text-anchor:middle;fill:#efedeb">
        <path
           d="m -2.7750888,-0.222874 c 0.149373,0.149373 0.367505,0.251326 0.670993,0.251326 0.42678,0 0.633057,-0.218132 0.633057,-0.50739401 0,-0.35090801 -0.33194,-0.42915101 -0.59275,-0.48842601 -0.182567,-0.042678 -0.315343,-0.075872 -0.315343,-0.18256698 0,-0.09484 0.080614,-0.161228 0.232358,-0.161228 0.154115,0 0.324827,0.054533 0.452861,0.173083 l 0.187309,-0.246584 c -0.156486,-0.144631 -0.365134,-0.220503 -0.61646,-0.220503 -0.372247,0 -0.599863,0.21339 -0.599863,0.476571 0,0.35327898 0.33194,0.42440898 0.590379,0.48368399 0.182567,0.042678 0.320085,0.082985 0.320085,0.201535 0,0.090098 -0.090098,0.177825 -0.275036,0.177825 -0.218132,0 -0.391215,-0.097211 -0.502652,-0.21339 z"
           style="font-weight:bold;font-size:2.371px;font-family:'Proxima Nova';dominant-baseline:alphabetic;text-anchor:middle;fill:#efedeb"
           id="path442" />
        <path
           d="m -0.8977384,0 h 0.33905301 v -1.285082 h 0.45997401 V -1.581457 H -1.3600834 v 0.296375 h 0.462345 z"
           style="font-weight:bold;font-size:2.371px;font-family:'Proxima Nova';dominant-baseline:alphabetic;text-anchor:middle;fill:#efedeb"
           id="path444" />
        <path
           d="M 0.11712377,0 H 1.2362358 V -0.29163301 H 0.45380578 v -0.367505 H 1.2196388 V -0.94840002 H 0.45380578 V -1.292195 H 1.2362358 V -1.581457 H 0.11712377 Z"
           style="font-weight:bold;font-size:2.371px;font-family:'Proxima Nova';dominant-baseline:alphabetic;text-anchor:middle;fill:#efedeb"
           id="path446" />
        <path
           d="m 1.5017509,0 h 0.336682 v -0.56666901 h 0.40307 c 0.341424,0 0.531104,-0.22998701 0.531104,-0.50502299 0,-0.277407 -0.187309,-0.509765 -0.531104,-0.509765 h -0.739752 z m 0.927061,-1.074063 c 0,0.13277598 -0.099582,0.21813198 -0.232358,0.21813198 H 1.8384329 V -1.292195 h 0.358021 c 0.132776,0 0.232358,0.087727 0.232358,0.218132 z"
           style="font-weight:bold;font-size:2.371px;font-family:'Proxima Nova';dominant-baseline:alphabetic;text-anchor:middle;fill:#efedeb"
           id="path448" />
      </g>
    </g>
    <path
       id="rect240"
       style="fill:#331a00;stroke:#331a00;stroke-width:0.35"
       d="m 86.18,83.766998 h 8.4 c 0.554,0 1,0.446 1,1 v 10.98 c 0,0.554 -0.446,1 -1,1 h -8.4 c -0.554,0 -1,-0.446 -1,-1 v -10.98 c 0,-0.554 0.446,-1 1,-1 z" />
    <g
       transform="translate(90.38,86.348)"
       id="g244">
      <g
         aria-label="STEP ϕ"
         id="text242"
         style="font-weight:bold;font-size:2.371px;font-family:'Proxima Nova';dominant-baseline:alphabetic;text-anchor:middle;fill:#efedeb">
        <path
           d="m -3.9675352,-0.222874 c 0.149373,0.149373 0.367505,0.251326 0.6709931,0.251326 0.42678,0 0.633057,-0.218132 0.633057,-0.50739401 0,-0.35090801 -0.33194,-0.42915101 -0.59275,-0.48842601 -0.1825671,-0.042678 -0.3153431,-0.075872 -0.3153431,-0.18256698 0,-0.09484 0.080614,-0.161228 0.232358,-0.161228 0.1541151,0 0.3248271,0.054533 0.4528611,0.173083 l 0.187309,-0.246584 c -0.156486,-0.144631 -0.365134,-0.220503 -0.6164601,-0.220503 -0.372247,0 -0.599863,0.21339 -0.599863,0.476571 0,0.35327898 0.33194,0.42440898 0.590379,0.48368399 0.1825671,0.042678 0.3200851,0.082985 0.3200851,0.201535 0,0.090098 -0.090098,0.177825 -0.275036,0.177825 -0.2181321,0 -0.3912151,-0.097211 -0.5026521,-0.21339 z"
           style="font-weight:bold;font-size:2.371px;font-family:'Proxima Nova';dominant-baseline:alphabetic;text-anchor:middle;fill:#efedeb"
           id="path452" />
        <path
           d="m -2.0901847,0 h 0.339053 v -1.285082 h 0.459974 v -0.296375 h -1.261372 v 0.296375 h 0.462345 z"
           style="font-weight:bold;font-size:2.371px;font-family:'Proxima Nova';dominant-baseline:alphabetic;text-anchor:middle;fill:#efedeb"
           id="path454" />
        <path
           d="m -1.0753225,0 h 1.11911198 v -0.29163301 h -0.78243001 v -0.367505 H 0.02719248 V -0.94840002 H -0.73864053 V -1.292195 H 0.04378948 V -1.581457 H -1.0753225 Z"
           style="font-weight:bold;font-size:2.371px;font-family:'Proxima Nova';dominant-baseline:alphabetic;text-anchor:middle;fill:#efedeb"
           id="path456" />
        <path
           d="M 0.30930456,0 H 0.64598657 V -0.56666901 H 1.0490566 c 0.341424,0 0.531104,-0.22998701 0.531104,-0.50502299 0,-0.277407 -0.187309,-0.509765 -0.531104,-0.509765 H 0.30930456 Z M 1.2363656,-1.074063 c 0,0.13277598 -0.099582,0.21813198 -0.232358,0.21813198 H 0.64598657 V -1.292195 H 1.0040076 c 0.132776,0 0.232358,0.087727 0.232358,0.218132 z"
           style="font-weight:bold;font-size:2.371px;font-family:'Proxima Nova';dominant-baseline:alphabetic;text-anchor:middle;fill:#efedeb"
           id="path458" />
        <path
           d="m 3.9188649,-0.63211232 q 0,0.4283545 -0.312583,0.5834883 Q 3.4534635,0.02778516 3.2879103,0.02778516 V 0.46771681 H 2.9625924 V 0.02778516 q -0.1632378,0 -0.3172139,-0.07640918 -0.3137407,-0.15629151 -0.3137407,-0.5834883 0,-0.16786865 0.079882,-0.31489844 Q 2.4948756,-1.0986714 2.63959,-1.177396 2.7843043,-1.2572783 2.9625924,-1.2572783 V -1.69721 h 0.3253179 v 0.4399317 q 0.3866767,0 0.5510723,0.31142525 0.079882,0.15166065 0.079882,0.31374073 z M 3.585443,-0.6147466 q 0,-0.15513379 -0.069463,-0.25817041 -0.08104,-0.11924463 -0.2280698,-0.11924463 v 0.75483009 q 0.1470298,0 0.2280698,-0.11924463 0.069463,-0.10303662 0.069463,-0.25817042 z m -0.6228506,0.37741505 v -0.75483009 q -0.1470298,0 -0.2280698,0.11924463 -0.069463,0.10303662 -0.069463,0.25817041 0,0.1551338 0.069463,0.25817042 0.08104,0.11924463 0.2280698,0.11924463 z"
           style="font-weight:bold;font-size:2.371px;font-family:'Proxima Nova';dominant-baseline:alphabetic;text-anchor:middle;fill:#efedeb"
           id="path460" />
      </g>
    </g>
    <path
       id="rect246"
       style="fill:#331a00;stroke:#331a00;stroke-width:0.35"
       d="m 86.18,104.02 h 8.4 c 0.554,0 1,0.446 1,1 V 116 c 0,0.554 -0.446,1 -1,1 h -8.4 c -0.554,0 -1,-0.446 -1,-1 v -10.98 c 0,-0.554 0.446,-1 1,-1 z" />
    <g
       transform="translate(90.38,106.6)"
       id="g250">
      <g
         aria-label="OUT"
         id="text248"
         style="font-weight:bold;font-size:2.371px;font-family:'Proxima Nova';dominant-baseline:alphabetic;text-anchor:middle;fill:#efedeb">
        <path
           d="m -2.3806878,-0.78954302 c 0,0.47657101 0.348537,0.81799502 0.825108,0.81799502 0.478942,0 0.82747903,-0.34142401 0.82747903,-0.81799502 0,-0.47657098 -0.34853703,-0.81799498 -0.82747903,-0.81799498 -0.476571,0 -0.825108,0.341424 -0.825108,0.81799498 z m 1.306421,0 c 0,0.29400401 -0.18968,0.51924901 -0.481313,0.51924901 -0.291633,0 -0.478942,-0.225245 -0.478942,-0.51924901 0,-0.29637498 0.187309,-0.51924898 0.478942,-0.51924898 0.291633,0 0.481313,0.222874 0.481313,0.51924898 z"
           style="font-weight:bold;font-size:2.371px;font-family:'Proxima Nova';dominant-baseline:alphabetic;text-anchor:middle;fill:#efedeb"
           id="path464" />
        <path
           d="m -0.48951892,-0.63068601 c 0,0.388844 0.22524501,0.65913801 0.70892902,0.65913801 0.47894201,0 0.70418701,-0.26792301 0.70418701,-0.66150901 V -1.581457 H 0.5821731 v 0.93891599 c 0,0.220503 -0.120921,0.372247 -0.362763,0.372247 -0.24658401,0 -0.36750501,-0.151744 -0.36750501,-0.372247 V -1.581457 h -0.34142401 z"
           style="font-weight:bold;font-size:2.371px;font-family:'Proxima Nova';dominant-baseline:alphabetic;text-anchor:middle;fill:#efedeb"
           id="path466" />
        <path
           d="m 1.6029255,0 h 0.339053 v -1.285082 h 0.459974 v -0.296375 h -1.261372 v 0.296375 h 0.462345 z"
           style="font-weight:bold;font-size:2.371px;font-family:'Proxima Nova';dominant-baseline:alphabetic;text-anchor:middle;fill:#efedeb"
           id="path468" />
      </g>
    </g>
  </g>
</svg>
