<?xml version="1.0" encoding="UTF-8" standalone="no"?>
<svg xmlns="http://www.w3.org/2000/svg" xmlns:svg="http://www.w3.org/2000/svg" version="1.1" viewBox="0 0 238.76 128.5" height="128.5mm" width="238.75999mm">
  <defs/>
  <g>
    <rect x="0.25" y="0.25" width="238.25999" height="128" fill="#efedeb" stroke="#18191c" stroke-width="0.5"/>
    <g style="font-weight:bold;font-size:4.064px;font-family:'Proxima Nova';dominant-baseline:alphabetic;text-anchor:middle;fill:#18191c">
      <path d="m 105.57065,8.617984 c 0.25603,0.256032 0.62992,0.430784 1.15011,0.430784 0.73152,0 1.08509,-0.373888 1.08509,-0.869696 0,-0.601472 -0.56896,-0.735584 -1.016,-0.8371841 -0.31293,-0.073152 -0.54051,-0.130048 -0.54051,-0.312928 0,-0.16256 0.13818,-0.276352 0.39827,-0.276352 0.26416,0 0.55677,0.093472 0.77623,0.296672 l 0.32105,-0.422656 c -0.26822,-0.247904 -0.62585,-0.377952 -1.05664,-0.377952 -0.63805,0 -1.02819,0.36576 -1.02819,0.816864 0,0.6055361 0.56896,0.7274561 1.01194,0.8290561 0.31292,0.073152 0.54864,0.14224 0.54864,0.34544 0,0.154432 -0.15444,0.3048 -0.47143,0.3048 -0.37389,0 -0.67056,-0.166624 -0.86157,-0.36576 z" style="font-weight:bold;font-size:4.064px;font-family:'Proxima Nova';dominant-baseline:alphabetic;text-anchor:middle;fill:#18191c"/>
      <path d="m 109.48676,9.048768 c 0.61773,0 0.9591,-0.329184 1.15418,-0.666496 l -0.49581,-0.239776 c -0.11379,0.22352 -0.35763,0.394208 -0.65837,0.394208 -0.47142,0 -0.82906,-0.377952 -0.82906,-0.890016 0,-0.5120641 0.35764,-0.8900161 0.82906,-0.8900161 0.30074,0 0.54458,0.174752 0.65837,0.394208 l 0.49581,-0.24384 c -0.19101,-0.337312 -0.53645,-0.662432 -1.15418,-0.662432 -0.79248,0 -1.4224,0.56896 -1.4224,1.4020801 0,0.83312 0.62992,1.40208 1.4224,1.40208 z" style="font-weight:bold;font-size:4.064px;font-family:'Proxima Nova';dominant-baseline:alphabetic;text-anchor:middle;fill:#18191c"/>
      <path d="m 112.85455,9 h 0.62992 l -1.04445,-2.7106881 h -0.72339 L 110.66811,9 h 0.63399 l 0.17069,-0.46736 h 1.21107 z m -0.77623,-2.2108161 0.44704,1.2435841 h -0.89814 z" style="font-weight:bold;font-size:4.064px;font-family:'Proxima Nova';dominant-baseline:alphabetic;text-anchor:middle;fill:#18191c"/>
      <path d="m 115.60422,9 h 0.55677 V 6.2893119 H 115.5839 V 8.04496 l -1.25577,-1.7556481 h -0.59335 V 9 h 0.57709 V 7.1793279 Z" style="font-weight:bold;font-size:4.064px;font-family:'Proxima Nova';dominant-baseline:alphabetic;text-anchor:middle;fill:#18191c"/>
      <path d="m 118.56491,9 h 0.55677 V 6.2893119 h -0.57709 V 8.04496 l -1.25577,-1.7556481 h -0.59335 V 9 h 0.57709 V 7.1793279 Z" style="font-weight:bold;font-size:4.064px;font-family:'Proxima Nova';dominant-baseline:alphabetic;text-anchor:middle;fill:#18191c"/>
      <path d="m 119.65616,9 h 0.57709 V 6.2893119 h -0.57709 z" style="font-weight:bold;font-size:4.064px;font-family:'Proxima Nova';dominant-baseline:alphabetic;text-anchor:middle;fill:#18191c"/>
      <path d="m 120.76741,9 h 1.47117 c 0.51613,0 0.78841,-0.32512 0.78841,-0.73152 0,-0.341376 -0.23164,-0.621792 -0.52019,-0.666496 0.25603,-0.052832 0.46736,-0.2804161 0.46736,-0.6217921 0,-0.361696 -0.26416,-0.69088 -0.78029,-0.69088 h -1.42646 z m 0.57709,-1.6215361 v -0.597408 h 0.72339 c 0.19507,0 0.31699,0.130048 0.31699,0.296672 0,0.174752 -0.12192,0.300736 -0.31699,0.300736 z m 0,1.1297921 V 7.870208 h 0.74371 c 0.22758,0 0.3495,0.146304 0.3495,0.316992 0,0.195072 -0.13004,0.321056 -0.3495,0.321056 z" style="font-weight:bold;font-size:4.064px;font-family:'Proxima Nova';dominant-baseline:alphabetic;text-anchor:middle;fill:#18191c"/>
      <path d="m 125.35611,9 h 0.62992 l -1.04445,-2.7106881 h -0.72339 L 123.16968,9 h 0.63398 l 0.17069,-0.46736 h 1.21107 z m -0.77622,-2.2108161 0.44704,1.2435841 h -0.89815 z" style="font-weight:bold;font-size:4.064px;font-family:'Proxima Nova';dominant-baseline:alphabetic;text-anchor:middle;fill:#18191c"/>
      <path d="m 126.23635,9 h 1.72313 V 8.492 h -1.14605 V 6.2893119 h -0.57708 z" style="font-weight:bold;font-size:4.064px;font-family:'Proxima Nova';dominant-baseline:alphabetic;text-anchor:middle;fill:#18191c"/>
      <path d="m 129.95611,9 h 0.58115 V 6.2893119 h -0.50393 l -0.85344,0.857504 0.32918,0.3454401 0.44704,-0.4592321 z" style="font-weight:bold;font-size:4.064px;font-family:'Proxima Nova';dominant-baseline:alphabetic;text-anchor:middle;fill:#18191c"/>
      <path d="m 130.94024,7.650752 c 0,0.764032 0.34544,1.398016 1.17043,1.398016 0.61773,0 1.03632,-0.402336 1.03632,-0.930656 0,-0.577088 -0.43485,-0.8737601 -0.92253,-0.8737601 -0.29667,0 -0.56896,0.16256 -0.69494,0.3454401 -0.004,-0.016256 -0.004,-0.036576 -0.004,-0.056896 0,-0.4307841 0.26823,-0.7843521 0.67869,-0.7843521 0.23978,0 0.39421,0.077216 0.54051,0.215392 l 0.2601,-0.434848 c -0.19507,-0.166624 -0.47143,-0.280416 -0.80061,-0.280416 -0.80061,0 -1.2639,0.581152 -1.2639,1.4020801 z m 1.62153,0.491744 c 0,0.191008 -0.16662,0.402336 -0.47955,0.402336 -0.38202,0 -0.52832,-0.300736 -0.5527,-0.560832 0.13004,-0.158496 0.32512,-0.260096 0.52832,-0.260096 0.26416,0 0.50393,0.125984 0.50393,0.418592 z" style="font-weight:bold;font-size:4.064px;font-family:'Proxima Nova';dominant-baseline:alphabetic;text-anchor:middle;fill:#18191c"/>
    </g>
    <g style="font-weight:bold;font-size:4.064px;font-family:'Proxima Nova';dominant-baseline:hanging;text-anchor:middle;fill:#18191c">
      <path d="m 115.51675,122.2581 h 1.06883 c 0.84938,0 1.43866,-0.53645 1.43866,-1.35331 0,-0.81687 -0.58928,-1.35738 -1.43866,-1.35738 h -1.06883 z m 0.57709,-0.508 v -1.69469 h 0.49174 c 0.55677,0 0.84938,0.36983 0.84938,0.84938 0,0.45923 -0.31293,0.84531 -0.84938,0.84531 z" style="font-weight:bold;font-size:4.064px;font-family:'Proxima Nova';dominant-baseline:hanging;text-anchor:middle;fill:#18191c"/>
      <path d="m 120.295,122.2581 h 0.58115 v -2.71069 H 120.295 v 1.06477 h -1.28016 v -1.06477 h -0.57709 v 2.71069 h 0.57709 v -1.13792 h 1.28016 z" style="font-weight:bold;font-size:4.064px;font-family:'Proxima Nova';dominant-baseline:hanging;text-anchor:middle;fill:#18191c"/>
      <path d="m 121.40638,122.2581 h 1.91821 v -0.49987 h -1.34112 v -0.62992 h 1.31267 v -0.49581 h -1.31267 v -0.58928 h 1.34112 v -0.49581 h -1.91821 z" style="font-weight:bold;font-size:4.064px;font-family:'Proxima Nova';dominant-baseline:hanging;text-anchor:middle;fill:#18191c"/>
    </g>
    <g style="font-weight:bold;font-size:2.37067px;font-family:'Proxima Nova';dominant-baseline:alphabetic;text-anchor:middle;fill:#18191c">
      <path d="m 7.7345645,24.357602 c 0.149352,0.149352 0.3674534,0.25129 0.6708987,0.25129 0.42672,0 0.632968,-0.218101 0.632968,-0.507322 0,-0.350859 -0.3318933,-0.429091 -0.5926666,-0.488358 -0.1825414,-0.04267 -0.3152987,-0.07586 -0.3152987,-0.182541 0,-0.09483 0.080603,-0.161205 0.2323253,-0.161205 0.1540934,0 0.3247814,0.05452 0.4527974,0.173058 l 0.1872826,-0.246549 c -0.156464,-0.144611 -0.3650826,-0.220472 -0.6163733,-0.220472 -0.3721947,0 -0.5997787,0.21336 -0.5997787,0.476504 0,0.353229 0.3318933,0.424349 0.590296,0.483616 0.1825414,0.04267 0.32004,0.08297 0.32004,0.201507 0,0.09009 -0.090085,0.1778 -0.2749973,0.1778 -0.2181014,0 -0.39116,-0.0972 -0.5025814,-0.21336 z" style="font-weight:bold;font-size:2.37067px;font-family:'Proxima Nova';dominant-baseline:alphabetic;text-anchor:middle;fill:#18191c"/>
      <path d="M 9.611651,24.580444 H 9.9506564 V 23.295543 H 10.410566 V 22.99921 H 9.149371 v 0.296333 h 0.46228 z" style="font-weight:bold;font-size:2.37067px;font-family:'Proxima Nova';dominant-baseline:alphabetic;text-anchor:middle;fill:#18191c"/>
      <path d="m 10.626371,24.580444 h 1.118954 v -0.291592 h -0.78232 v -0.367453 h 0.765726 v -0.289221 h -0.765726 v -0.343747 h 0.78232 V 22.99921 h -1.118954 z" style="font-weight:bold;font-size:2.37067px;font-family:'Proxima Nova';dominant-baseline:alphabetic;text-anchor:middle;fill:#18191c"/>
      <path d="m 12.010803,24.580444 h 0.336635 v -0.566589 h 0.403013 c 0.341376,0 0.531029,-0.229955 0.531029,-0.504952 0,-0.277368 -0.187282,-0.509693 -0.531029,-0.509693 h -0.739648 z m 0.926931,-1.073912 c 0,0.132758 -0.09957,0.218102 -0.232326,0.218102 h -0.35797 v -0.436203 h 0.35797 c 0.132758,0 0.232326,0.08771 0.232326,0.218101 z" style="font-weight:bold;font-size:2.37067px;font-family:'Proxima Nova';dominant-baseline:alphabetic;text-anchor:middle;fill:#18191c"/>
      <path d="m 13.378789,24.357602 c 0.149352,0.149352 0.367453,0.25129 0.670898,0.25129 0.42672,0 0.632968,-0.218101 0.632968,-0.507322 0,-0.350859 -0.331893,-0.429091 -0.592666,-0.488358 -0.182542,-0.04267 -0.315299,-0.07586 -0.315299,-0.182541 0,-0.09483 0.0806,-0.161205 0.232325,-0.161205 0.154094,0 0.324782,0.05452 0.452798,0.173058 l 0.187282,-0.246549 c -0.156464,-0.144611 -0.365082,-0.220472 -0.616373,-0.220472 -0.372195,0 -0.599779,0.21336 -0.599779,0.476504 0,0.353229 0.331894,0.424349 0.590296,0.483616 0.182542,0.04267 0.32004,0.08297 0.32004,0.201507 0,0.09009 -0.09009,0.1778 -0.274997,0.1778 -0.218101,0 -0.39116,-0.0972 -0.502581,-0.21336 z" style="font-weight:bold;font-size:2.37067px;font-family:'Proxima Nova';dominant-baseline:alphabetic;text-anchor:middle;fill:#18191c"/>
    </g>
    <rect x="6.02" y="42.50489" width="10.4" height="12.980445" rx="1" ry="1" fill="#efedeb" stroke="#18191c" stroke-width="0.35"/>
    <g style="font-weight:bold;font-size:2.37067px;font-family:'Proxima Nova';dominant-baseline:alphabetic;text-anchor:middle;fill:#18191c">
      <path d="m 11.673279,45.085335 h 0.367454 L 11.431471,43.5041 h -0.421979 l -0.611632,1.581235 h 0.369824 l 0.09957,-0.272627 h 0.706459 z m -0.452797,-1.289643 0.260773,0.725424 h -0.523917 z" style="font-weight:bold;font-size:2.37067px;font-family:'Proxima Nova';dominant-baseline:alphabetic;text-anchor:middle;fill:#18191c"/>
    </g>
    <rect x="6.02" y="63.009777" width="10.4" height="12.980445" rx="1" ry="1" fill="#efedeb" stroke="#18191c" stroke-width="0.35"/>
    <g style="font-weight:bold;font-size:2.37067px;font-family:'Proxima Nova';dominant-baseline:alphabetic;text-anchor:middle;fill:#18191c">
      <path d="m 10.591644,65.590225 h 0.858181 c 0.301075,0 0.45991,-0.189653 0.45991,-0.42672 0,-0.199136 -0.135128,-0.362712 -0.303446,-0.388789 0.149352,-0.03082 0.272627,-0.163576 0.272627,-0.362712 0,-0.210989 -0.154093,-0.403013 -0.455168,-0.403013 h -0.832104 z m 0.336635,-0.945896 v -0.348488 h 0.421978 c 0.113792,0 0.184912,0.07586 0.184912,0.173059 0,0.101939 -0.07112,0.175429 -0.184912,0.175429 z m 0,0.659046 V 64.93118 h 0.433832 c 0.132757,0 0.203877,0.08534 0.203877,0.184912 0,0.113792 -0.07586,0.187283 -0.203877,0.187283 z" style="font-weight:bold;font-size:2.37067px;font-family:'Proxima Nova';dominant-baseline:alphabetic;text-anchor:middle;fill:#18191c"/>
    </g>
    <rect x="6.02" y="83.514664" width="10.4" height="12.980445" rx="1" ry="1" fill="#efedeb" stroke="#18191c" stroke-width="0.35"/>
    <g style="font-weight:bold;font-size:2.37067px;font-family:'Proxima Nova';dominant-baseline:alphabetic;text-anchor:middle;fill:#18191c">
      <path d="m 11.31542,86.123556 c 0.360341,0 0.559477,-0.192024 0.673269,-0.388789 l -0.289221,-0.13987 c -0.06638,0.130387 -0.208619,0.229955 -0.384048,0.229955 -0.274998,0 -0.483616,-0.220472 -0.483616,-0.519176 0,-0.298704 0.208618,-0.519176 0.483616,-0.519176 0.175429,0 0.317669,0.101939 0.384048,0.229955 l 0.289221,-0.14224 c -0.111421,-0.196766 -0.312928,-0.386419 -0.673269,-0.386419 -0.46228,0 -0.829734,0.331893 -0.829734,0.81788 0,0.485987 0.367454,0.81788 0.829734,0.81788 z" style="font-weight:bold;font-size:2.37067px;font-family:'Proxima Nova';dominant-baseline:alphabetic;text-anchor:middle;fill:#18191c"/>
    </g>
    <rect x="6.02" y="104.01955" width="10.4" height="12.980445" rx="1" ry="1" fill="#efedeb" stroke="#18191c" stroke-width="0.35"/>
    <g style="font-weight:bold;font-size:2.37067px;font-family:'Proxima Nova';dominant-baseline:alphabetic;text-anchor:middle;fill:#18191c">
      <path d="m 12.012923,105.96798 q 0,0.42829 -0.312539,0.5834 -0.152796,0.0764 -0.318326,0.0764 v 0.43987 h -0.325273 v -0.43987 q -0.163214,0 -0.317169,-0.0764 -0.313696,-0.15627 -0.313696,-0.5834 0,-0.16785 0.07987,-0.31486 0.08334,-0.15164 0.228037,-0.23035 0.144694,-0.0799 0.322957,-0.0799 V 104.903 h 0.325273 v 0.43987 q 0.386622,0 0.550994,0.31138 0.07987,0.15164 0.07987,0.3137 z m -0.333375,0.0174 q 0,-0.15511 -0.06945,-0.25814 -0.08103,-0.11922 -0.228037,-0.11922 v 0.75472 q 0.147009,0 0.228037,-0.11923 0.06945,-0.10302 0.06945,-0.25813 z m -0.622763,0.37736 v -0.75472 q -0.147009,0 -0.228037,0.11922 -0.06945,0.10303 -0.06945,0.25814 0,0.15511 0.06945,0.25813 0.08103,0.11923 0.228037,0.11923 z" style="font-weight:bold;font-size:2.37067px;font-family:'Proxima Nova';dominant-baseline:alphabetic;text-anchor:middle;fill:#18191c"/>
    </g>
    <g style="font-weight:bold;font-size:3.048px;font-family:'Proxima Nova';dominant-baseline:middle;text-anchor:end;fill:#18191c">
      <path d="m 27.38133,36.646713 q 0,0.550664 -0.401835,0.750093 -0.196454,0.09823 -0.409278,0.09823 V 38.06058 H 26.15201 v -0.565547 q -0.209848,0 -0.407789,-0.09823 -0.403324,-0.200918 -0.403324,-0.750093 0,-0.215801 0.102691,-0.404813 0.107157,-0.194965 0.293192,-0.296168 0.186035,-0.102691 0.41523,-0.102691 v -0.565547 h 0.418207 v 0.565547 q 0.497086,0 0.708422,0.400347 0.102691,0.194965 0.102691,0.403325 z m -0.428625,0.02232 q 0,-0.19943 -0.0893,-0.331887 -0.10418,-0.153293 -0.293192,-0.153293 v 0.97036 q 0.189012,0 0.293192,-0.153293 0.0893,-0.132457 0.0893,-0.331887 z m -0.800695,0.48518 v -0.97036 q -0.189012,0 -0.293191,0.153293 -0.0893,0.132457 -0.0893,0.331887 0,0.19943 0.0893,0.331887 0.104179,0.153293 0.293191,0.153293 z" style="font-weight:bold;font-size:3.048px;font-family:'Proxima Nova';dominant-baseline:middle;text-anchor:end;fill:#18191c"/>
      <path d="M 29.750674,36.175672 H 28.307041 V 35.92564 h 1.443633 z m 0,0.663773 h -1.443633 v -0.250031 h 1.443633 z" style="font-weight:bold;font-size:3.048px;font-family:'Proxima Nova';dominant-baseline:middle;text-anchor:end;fill:#18191c"/>
      <path d="m 30.65649,36.390145 c 0,0.524256 0.25908,1.05156 0.841248,1.05156 0.57912,0 0.841248,-0.527304 0.841248,-1.05156 0,-0.524256 -0.262128,-1.048512 -0.841248,-1.048512 -0.582168,0 -0.841248,0.524256 -0.841248,1.048512 z m 1.240536,0 c 0,0.374904 -0.109728,0.667512 -0.399288,0.667512 -0.292608,0 -0.402336,-0.292608 -0.402336,-0.667512 0,-0.374904 0.109728,-0.664464 0.402336,-0.664464 0.28956,0 0.399288,0.28956 0.399288,0.664464 z" style="font-weight:bold;font-size:3.048px;font-family:'Proxima Nova';dominant-baseline:middle;text-anchor:end;fill:#18191c"/>
    </g>
    <g style="font-weight:bold;font-size:3.048px;font-family:'Proxima Nova';dominant-baseline:middle;text-anchor:end;fill:#18191c">
      <path d="m 28.018315,63.557601 q 0,0.550664 -0.401836,0.750094 -0.196453,0.09823 -0.409277,0.09823 v 0.565547 h -0.418207 v -0.565547 q -0.209848,0 -0.40779,-0.09823 -0.403324,-0.200918 -0.403324,-0.750094 0,-0.2158 0.102692,-0.404812 0.107156,-0.194965 0.293191,-0.296168 0.186035,-0.102692 0.415231,-0.102692 v -0.565546 h 0.418207 v 0.565546 q 0.497086,0 0.708421,0.400348 0.102692,0.194965 0.102692,0.403324 z m -0.428625,0.02233 q 0,-0.19943 -0.0893,-0.331887 -0.10418,-0.153293 -0.293191,-0.153293 v 0.970359 q 0.189011,0 0.293191,-0.153293 0.0893,-0.132457 0.0893,-0.331886 z m -0.800695,0.485179 v -0.970359 q -0.189012,0 -0.293192,0.153293 -0.0893,0.132457 -0.0893,0.331887 0,0.199429 0.0893,0.331886 0.10418,0.153293 0.293192,0.153293 z" style="font-weight:bold;font-size:3.048px;font-family:'Proxima Nova';dominant-baseline:middle;text-anchor:end;fill:#18191c"/>
      <path d="m 30.387659,63.08656 h -1.443633 v -0.250031 h 1.443633 z m 0,0.663774 h -1.443633 v -0.250031 h 1.443633 z" style="font-weight:bold;font-size:3.048px;font-family:'Proxima Nova';dominant-baseline:middle;text-anchor:end;fill:#18191c"/>
      <path d="m 31.805538,64.316018 h 0.435864 V 62.283002 H 31.86345 l -0.64008,0.643128 0.246888,0.25908 0.33528,-0.344424 z" style="font-weight:bold;font-size:3.048px;font-family:'Proxima Nova';dominant-baseline:middle;text-anchor:end;fill:#18191c"/>
    </g>
    <g style="font-weight:bold;font-size:3.048px;font-family:'Proxima Nova';dominant-baseline:middle;text-anchor:end;fill:#18191c">
      <path d="m 22.684255,86.959948 c 0.192024,0.192024 0.47244,0.323088 0.862584,0.323088 0.54864,0 0.813816,-0.280416 0.813816,-0.652272 0,-0.451104 -0.42672,-0.551688 -0.762,-0.627888 -0.234696,-0.05486 -0.405384,-0.09754 -0.405384,-0.234696 0,-0.12192 0.103632,-0.207264 0.298704,-0.207264 0.19812,0 0.417576,0.0701 0.582168,0.222504 l 0.240792,-0.316992 c -0.201168,-0.185928 -0.469392,-0.283464 -0.79248,-0.283464 -0.478536,0 -0.771144,0.27432 -0.771144,0.612648 0,0.454152 0.42672,0.545592 0.758952,0.621792 0.234696,0.05486 0.41148,0.10668 0.41148,0.25908 0,0.115824 -0.115824,0.2286 -0.353568,0.2286 -0.280416,0 -0.50292,-0.124968 -0.646176,-0.27432 z" style="font-weight:bold;font-size:3.048px;font-family:'Proxima Nova';dominant-baseline:middle;text-anchor:end;fill:#18191c"/>
      <path d="m 26.045009,87.24646 h 0.435864 v -2.033016 h -0.435864 v 0.798576 h -0.96012 v -0.798576 h -0.432816 v 2.033016 h 0.432816 v -0.85344 h 0.96012 z" style="font-weight:bold;font-size:3.048px;font-family:'Proxima Nova';dominant-baseline:middle;text-anchor:end;fill:#18191c"/>
      <path d="m 28.301957,87.24646 h 0.47244 l -0.783336,-2.033016 h -0.542544 l -0.786384,2.033016 h 0.475488 l 0.128016,-0.35052 h 0.908304 z m -0.582168,-1.658112 0.33528,0.932688 h -0.673608 z" style="font-weight:bold;font-size:3.048px;font-family:'Proxima Nova';dominant-baseline:middle;text-anchor:end;fill:#18191c"/>
      <path d="m 28.962135,87.24646 h 0.432816 v -0.728472 h 0.51816 c 0.438912,0 0.682752,-0.295656 0.682752,-0.649224 0,-0.356616 -0.240792,-0.65532 -0.682752,-0.65532 h -0.950976 z m 1.191768,-1.380744 c 0,0.170688 -0.128016,0.280416 -0.298704,0.280416 H 29.394951 V 85.5853 h 0.460248 c 0.170688,0 0.298704,0.112776 0.298704,0.280416 z" style="font-weight:bold;font-size:3.048px;font-family:'Proxima Nova';dominant-baseline:middle;text-anchor:end;fill:#18191c"/>
      <path d="m 30.861183,87.24646 h 1.438656 v -0.374904 h -1.00584 v -0.47244 h 0.984504 V 86.02726 H 31.293999 V 85.5853 h 1.00584 v -0.371856 h -1.438656 z" style="font-weight:bold;font-size:3.048px;font-family:'Proxima Nova';dominant-baseline:middle;text-anchor:end;fill:#18191c"/>
    </g>
    <g style="font-weight:bold;font-size:3.048px;font-family:'Proxima Nova';dominant-baseline:middle;text-anchor:end;fill:#18191c">
      <path d="m 27.576676,109.90819 h 0.658368 v -0.25908 h -0.381 v -2.1275 h 0.381 v -0.25908 h -0.658368 z" style="font-weight:bold;font-size:3.048px;font-family:'Proxima Nova';dominant-baseline:middle;text-anchor:end;fill:#18191c"/>
      <path d="m 30.959159,108.57066 q 0,0.55066 -0.401836,0.75009 -0.196453,0.0982 -0.409277,0.0982 v 0.56554 h -0.418208 v -0.56554 q -0.209847,0 -0.407789,-0.0982 -0.403324,-0.20092 -0.403324,-0.75009 0,-0.21581 0.102692,-0.40482 0.107156,-0.19496 0.293191,-0.29617 0.186035,-0.10269 0.41523,-0.10269 v -0.56554 h 0.418208 v 0.56554 q 0.497085,0 0.708421,0.40035 0.102692,0.19497 0.102692,0.40333 z m -0.428625,0.0223 q 0,-0.19943 -0.0893,-0.33189 -0.10418,-0.15329 -0.293191,-0.15329 v 0.97036 q 0.189011,0 0.293191,-0.15329 0.0893,-0.13246 0.0893,-0.33189 z m -0.800696,0.48518 v -0.97036 q -0.189011,0 -0.293191,0.15329 -0.0893,0.13246 -0.0893,0.33189 0,0.19943 0.0893,0.33189 0.10418,0.15329 0.293191,0.15329 z" style="font-weight:bold;font-size:3.048px;font-family:'Proxima Nova';dominant-baseline:middle;text-anchor:end;fill:#18191c"/>
      <path d="M 31.082686,109.38326 Z" style="font-weight:bold;font-size:3.048px;font-family:'Proxima Nova';dominant-baseline:middle;text-anchor:end;fill:#18191c"/>
      <path d="m 31.640518,109.90819 h 0.658368 v -2.64566 h -0.658368 v 0.25908 h 0.381 v 2.1275 h -0.381 z" style="font-weight:bold;font-size:3.048px;font-family:'Proxima Nova';dominant-baseline:middle;text-anchor:end;fill:#18191c"/>
    </g>
    <line x1="33.439999" y1="23" x2="33.439999" y2="117" stroke="#18191c" stroke-width="0.35"/>
    <line x1="44.869999" y1="23" x2="44.869999" y2="117" stroke="#18191c" stroke-width="0.35"/>
    <circle cx="39.154999" cy="19.736" r="1.0880001" fill="#18191c" stroke="#18191c" stroke-width="0.35"/>
    <g style="font-weight:bold;font-size:3.048px;font-family:'Proxima Nova';dominant-baseline:alphabetic;text-anchor:middle;fill:#18191c">
      <path d="m 39.145617,16.472 h 0.435864 v -2.033016 h -0.377952 l -0.64008,0.643128 0.246888,0.25908 0.33528,-0.344424 z" style="font-weight:bold;font-size:3.048px;font-family:'Proxima Nova';dominant-baseline:alphabetic;text-anchor:middle;fill:#18191c"/>
    </g>
    <line x1="56.299999" y1="23" x2="56.299999" y2="117" stroke="#18191c" stroke-width="0.35"/>
    <circle cx="50.584999" cy="19.736" r="1.0880001" fill="#18191c" stroke="#18191c" stroke-width="0.35"/>
    <g style="font-weight:bold;font-size:3.048px;font-family:'Proxima Nova';dominant-baseline:alphabetic;text-anchor:middle;fill:#18191c">
      <path d="m 49.81445,16.472 h 1.530096 v -0.381 h -0.847344 c 0.545592,-0.384048 0.832104,-0.6858 0.832104,-1.033272 0,-0.405384 -0.344424,-0.649224 -0.77724,-0.649224 -0.283464,0 -0.585216,0.103632 -0.783336,0.332232 l 0.246888,0.286512 c 0.13716,-0.143256 0.313944,-0.234696 0.542544,-0.234696 0.170688,0 0.332232,0.08839 0.332232,0.265176 0,0.249936 -0.24384,0.460248 -1.075944,1.072896 z" style="font-weight:bold;font-size:3.048px;font-family:'Proxima Nova';dominant-baseline:alphabetic;text-anchor:middle;fill:#18191c"/>
    </g>
    <line x1="67.730003" y1="23" x2="67.730003" y2="117" stroke="#18191c" stroke-width="0.35"/>
    <circle cx="62.014999" cy="19.736" r="1.0880001" fill="#18191c" stroke="#18191c" stroke-width="0.35"/>
    <g style="font-weight:bold;font-size:3.048px;font-family:'Proxima Nova';dominant-baseline:alphabetic;text-anchor:middle;fill:#18191c">
      <path d="m 61.180014,16.18244 c 0.149352,0.18288 0.42672,0.326136 0.801624,0.326136 0.48768,0 0.801624,-0.246888 0.801624,-0.597408 0,-0.3048 -0.268224,-0.466344 -0.475488,-0.48768 0.225552,-0.03962 0.445008,-0.207264 0.445008,-0.463296 0,-0.338328 -0.292608,-0.551688 -0.768096,-0.551688 -0.356616,0 -0.612648,0.13716 -0.77724,0.323088 l 0.21336,0.268224 c 0.143256,-0.13716 0.32004,-0.21336 0.51816,-0.21336 0.21336,0 0.377952,0.0823 0.377952,0.24384 0,0.1524 -0.149352,0.225552 -0.374904,0.225552 -0.07925,0 -0.216408,0 -0.252984,-0.003 V 15.6308 c 0.03048,-0.003 0.16764,-0.003 0.252984,-0.003 0.283464,0 0.408432,0.0762 0.408432,0.240792 0,0.155448 -0.13716,0.262128 -0.384048,0.262128 -0.19812,0 -0.420624,-0.08534 -0.560832,-0.231648 z" style="font-weight:bold;font-size:3.048px;font-family:'Proxima Nova';dominant-baseline:alphabetic;text-anchor:middle;fill:#18191c"/>
    </g>
    <line x1="79.160004" y1="23" x2="79.160004" y2="117" stroke="#18191c" stroke-width="0.35"/>
    <circle cx="73.445" cy="19.736" r="1.0880001" fill="#18191c" stroke="#18191c" stroke-width="0.35"/>
    <g style="font-weight:bold;font-size:3.048px;font-family:'Proxima Nova';dominant-baseline:alphabetic;text-anchor:middle;fill:#18191c">
      <path d="M 73.582684,16.472 H 74.0155 v -0.420624 h 0.262128 v -0.381 H 74.0155 V 14.438984 H 73.418092 L 72.610372,15.71 v 0.341376 h 0.972312 z m 0,-1.648968 v 0.847344 h -0.54864 z" style="font-weight:bold;font-size:3.048px;font-family:'Proxima Nova';dominant-baseline:alphabetic;text-anchor:middle;fill:#18191c"/>
    </g>
    <line x1="90.589996" y1="23" x2="90.589996" y2="117" stroke="#18191c" stroke-width="0.35"/>
    <circle cx="84.875" cy="19.736" r="1.0880001" fill="#18191c" stroke="#18191c" stroke-width="0.35"/>
    <g style="font-weight:bold;font-size:3.048px;font-family:'Proxima Nova';dominant-baseline:alphabetic;text-anchor:middle;fill:#18191c">
      <path d="m 84.098641,16.203776 c 0.173736,0.188976 0.429768,0.3048 0.783336,0.3048 0.490728,0 0.813816,-0.271272 0.813816,-0.70104 0,-0.41148 -0.307848,-0.65532 -0.652272,-0.65532 -0.185928,0 -0.35052,0.07315 -0.4572,0.16764 V 14.81084 h 0.972312 v -0.371856 h -1.395984 v 1.161288 l 0.301752,0.0823 c 0.12192,-0.115824 0.25908,-0.16764 0.42672,-0.16764 0.231648,0 0.36576,0.124968 0.36576,0.310896 0,0.16764 -0.13716,0.3048 -0.377952,0.3048 -0.21336,0 -0.402336,-0.0762 -0.542544,-0.219456 z" style="font-weight:bold;font-size:3.048px;font-family:'Proxima Nova';dominant-baseline:alphabetic;text-anchor:middle;fill:#18191c"/>
    </g>
    <line x1="102.02" y1="23" x2="102.02" y2="117" stroke="#18191c" stroke-width="0.35"/>
    <circle cx="96.305" cy="19.736" r="1.0880001" fill="#18191c" stroke="#18191c" stroke-width="0.35"/>
    <g style="font-weight:bold;font-size:3.048px;font-family:'Proxima Nova';dominant-baseline:alphabetic;text-anchor:middle;fill:#18191c">
      <path d="m 95.482921,15.460064 c 0,0.573024 0.25908,1.048512 0.877824,1.048512 0.463296,0 0.77724,-0.301752 0.77724,-0.697992 0,-0.432816 -0.326136,-0.65532 -0.691896,-0.65532 -0.222504,0 -0.42672,0.12192 -0.521208,0.25908 -0.003,-0.01219 -0.003,-0.02743 -0.003,-0.04267 0,-0.323088 0.201168,-0.588264 0.509016,-0.588264 0.179832,0 0.295656,0.05791 0.405384,0.161544 l 0.195072,-0.326136 c -0.146304,-0.124968 -0.353568,-0.210312 -0.600456,-0.210312 -0.600456,0 -0.947928,0.435864 -0.947928,1.05156 z m 1.216152,0.368808 c 0,0.143256 -0.124968,0.301752 -0.359664,0.301752 -0.286512,0 -0.39624,-0.225552 -0.414528,-0.420624 0.09754,-0.118872 0.24384,-0.195072 0.39624,-0.195072 0.19812,0 0.377952,0.09449 0.377952,0.313944 z" style="font-weight:bold;font-size:3.048px;font-family:'Proxima Nova';dominant-baseline:alphabetic;text-anchor:middle;fill:#18191c"/>
    </g>
    <line x1="113.45" y1="23" x2="113.45" y2="117" stroke="#18191c" stroke-width="0.35"/>
    <circle cx="107.735" cy="19.736" r="1.0880001" fill="#18191c" stroke="#18191c" stroke-width="0.35"/>
    <g style="font-weight:bold;font-size:3.048px;font-family:'Proxima Nova';dominant-baseline:alphabetic;text-anchor:middle;fill:#18191c">
      <path d="m 107.27335,16.472 h 0.47549 l 0.7559,-1.731264 v -0.301752 h -1.52705 v 0.381 h 1.02413 z" style="font-weight:bold;font-size:3.048px;font-family:'Proxima Nova';dominant-baseline:alphabetic;text-anchor:middle;fill:#18191c"/>
    </g>
    <line x1="124.88" y1="23" x2="124.88" y2="117" stroke="#18191c" stroke-width="0.35"/>
    <circle cx="119.165" cy="19.736" r="1.0880001" fill="#18191c" stroke="#18191c" stroke-width="0.35"/>
    <g style="font-weight:bold;font-size:3.048px;font-family:'Proxima Nova';dominant-baseline:alphabetic;text-anchor:middle;fill:#18191c">
      <path d="m 118.34895,15.944696 c 0,0.381 0.39014,0.56388 0.81686,0.56388 0.42672,0 0.81686,-0.185928 0.81686,-0.56388 0,-0.246888 -0.19507,-0.435864 -0.43891,-0.521208 0.22555,-0.0762 0.40539,-0.225552 0.40539,-0.478536 0,-0.381 -0.40844,-0.536448 -0.78334,-0.536448 -0.37795,0 -0.78334,0.155448 -0.78334,0.536448 0,0.252984 0.17679,0.402336 0.40234,0.478536 -0.24384,0.08534 -0.43586,0.27432 -0.43586,0.521208 z m 1.15824,-0.932688 c 0,0.158496 -0.21641,0.2286 -0.34138,0.246888 -0.12497,-0.01829 -0.34442,-0.08839 -0.34442,-0.246888 0,-0.143256 0.14325,-0.231648 0.34442,-0.231648 0.19812,0 0.34138,0.08839 0.34138,0.231648 z m 0.0366,0.880872 c 0,0.149352 -0.17069,0.24384 -0.37795,0.24384 -0.21336,0 -0.37795,-0.09449 -0.37795,-0.24384 0,-0.176784 0.24993,-0.262128 0.37795,-0.277368 0.12497,0.01524 0.37795,0.100584 0.37795,0.277368 z" style="font-weight:bold;font-size:3.048px;font-family:'Proxima Nova';dominant-baseline:alphabetic;text-anchor:middle;fill:#18191c"/>
    </g>
    <line x1="136.31" y1="23" x2="136.31" y2="117" stroke="#18191c" stroke-width="0.35"/>
    <circle cx="130.595" cy="19.736" r="1.0880001" fill="#18191c" stroke="#18191c" stroke-width="0.35"/>
    <g style="font-weight:bold;font-size:3.048px;font-family:'Proxima Nova';dominant-baseline:alphabetic;text-anchor:middle;fill:#18191c">
      <path d="m 129.87351,16.295216 c 0.14325,0.128016 0.35052,0.210312 0.5974,0.210312 0.60046,0 0.94488,-0.435864 0.94488,-1.048512 0,-0.576072 -0.25908,-1.05156 -0.87477,-1.05156 -0.4633,0 -0.78029,0.301752 -0.78029,0.697992 0,0.432816 0.32918,0.658368 0.69494,0.658368 0.22251,0 0.42672,-0.124968 0.52426,-0.262128 v 0.04267 c 0,0.307848 -0.18288,0.585216 -0.50902,0.585216 -0.17983,0 -0.29565,-0.05486 -0.40538,-0.155448 z m 1.10032,-1.088136 c -0.0945,0.118872 -0.24384,0.188976 -0.39624,0.188976 -0.19507,0 -0.3749,-0.09449 -0.3749,-0.310896 0,-0.143256 0.12497,-0.3048 0.35662,-0.3048 0.28956,0 0.39928,0.231648 0.41452,0.42672 z" style="font-weight:bold;font-size:3.048px;font-family:'Proxima Nova';dominant-baseline:alphabetic;text-anchor:middle;fill:#18191c"/>
    </g>
    <line x1="147.74001" y1="23" x2="147.74001" y2="117" stroke="#18191c" stroke-width="0.35"/>
    <circle cx="142.02499" cy="19.736" r="1.0880001" fill="#18191c" stroke="#18191c" stroke-width="0.35"/>
    <g style="font-weight:bold;font-size:3.048px;font-family:'Proxima Nova';dominant-baseline:alphabetic;text-anchor:middle;fill:#18191c">
      <path d="m 141.07204,16.472 h 0.43587 v -2.033016 h -0.37796 l -0.64008,0.643128 0.24689,0.25908 0.33528,-0.344424 z" style="font-weight:bold;font-size:3.048px;font-family:'Proxima Nova';dominant-baseline:alphabetic;text-anchor:middle;fill:#18191c"/>
      <path d="m 141.81013,15.457016 c 0,0.524256 0.25908,1.05156 0.84125,1.05156 0.57912,0 0.84125,-0.527304 0.84125,-1.05156 0,-0.524256 -0.26213,-1.048512 -0.84125,-1.048512 -0.58217,0 -0.84125,0.524256 -0.84125,1.048512 z m 1.24054,0 c 0,0.374904 -0.10973,0.667512 -0.39929,0.667512 -0.29261,0 -0.40233,-0.292608 -0.40233,-0.667512 0,-0.374904 0.10972,-0.664464 0.40233,-0.664464 0.28956,0 0.39929,0.28956 0.39929,0.664464 z" style="font-weight:bold;font-size:3.048px;font-family:'Proxima Nova';dominant-baseline:alphabetic;text-anchor:middle;fill:#18191c"/>
    </g>
    <line x1="159.17" y1="23" x2="159.17" y2="117" stroke="#18191c" stroke-width="0.35"/>
    <circle cx="153.455" cy="19.736" r="1.0880001" fill="#18191c" stroke="#18191c" stroke-width="0.35"/>
    <g style="font-weight:bold;font-size:3.048px;font-family:'Proxima Nova';dominant-baseline:alphabetic;text-anchor:middle;fill:#18191c">
      <path d="m 152.82054,16.472 h 0.43587 v -2.033016 h -0.37796 l -0.64008,0.643128 0.24689,0.25908 0.33528,-0.344424 z" style="font-weight:bold;font-size:3.048px;font-family:'Proxima Nova';dominant-baseline:alphabetic;text-anchor:middle;fill:#18191c"/>
      <path d="m 154.0707,16.472 h 0.43586 v -2.033016 h -0.37795 l -0.64008,0.643128 0.24689,0.25908 0.33528,-0.344424 z" style="font-weight:bold;font-size:3.048px;font-family:'Proxima Nova';dominant-baseline:alphabetic;text-anchor:middle;fill:#18191c"/>
    </g>
    <line x1="170.60001" y1="23" x2="170.60001" y2="117" stroke="#18191c" stroke-width="0.35"/>
    <circle cx="164.88499" cy="19.736" r="1.0880001" fill="#18191c" stroke="#18191c" stroke-width="0.35"/>
    <g style="font-weight:bold;font-size:3.048px;font-family:'Proxima Nova';dominant-baseline:alphabetic;text-anchor:middle;fill:#18191c">
      <path d="m 163.96181,16.472 h 0.43586 v -2.033016 h -0.37795 l -0.64008,0.643128 0.24689,0.25908 0.33528,-0.344424 z" style="font-weight:bold;font-size:3.048px;font-family:'Proxima Nova';dominant-baseline:alphabetic;text-anchor:middle;fill:#18191c"/>
      <path d="m 164.73952,16.472 h 1.5301 v -0.381 h -0.84734 c 0.54559,-0.384048 0.8321,-0.6858 0.8321,-1.033272 0,-0.405384 -0.34442,-0.649224 -0.77724,-0.649224 -0.28346,0 -0.58522,0.103632 -0.78334,0.332232 l 0.24689,0.286512 c 0.13716,-0.143256 0.31395,-0.234696 0.54255,-0.234696 0.17068,0 0.33223,0.08839 0.33223,0.265176 0,0.249936 -0.24384,0.460248 -1.07595,1.072896 z" style="font-weight:bold;font-size:3.048px;font-family:'Proxima Nova';dominant-baseline:alphabetic;text-anchor:middle;fill:#18191c"/>
    </g>
    <line x1="182.03" y1="23" x2="182.03" y2="117" stroke="#18191c" stroke-width="0.35"/>
    <circle cx="176.315" cy="19.736" r="1.0880001" fill="#18191c" stroke="#18191c" stroke-width="0.35"/>
    <g style="font-weight:bold;font-size:3.048px;font-family:'Proxima Nova';dominant-baseline:alphabetic;text-anchor:middle;fill:#18191c">
      <path d="m 175.40967,16.472 h 0.43587 v -2.033016 h -0.37795 l -0.64008,0.643128 0.24688,0.25908 0.33528,-0.344424 z" style="font-weight:bold;font-size:3.048px;font-family:'Proxima Nova';dominant-baseline:alphabetic;text-anchor:middle;fill:#18191c"/>
      <path d="m 176.1051,16.18244 c 0.14935,0.18288 0.42672,0.326136 0.80162,0.326136 0.48768,0 0.80162,-0.246888 0.80162,-0.597408 0,-0.3048 -0.26822,-0.466344 -0.47548,-0.48768 0.22555,-0.03962 0.445,-0.207264 0.445,-0.463296 0,-0.338328 -0.2926,-0.551688 -0.76809,-0.551688 -0.35662,0 -0.61265,0.13716 -0.77724,0.323088 l 0.21336,0.268224 c 0.14325,-0.13716 0.32004,-0.21336 0.51816,-0.21336 0.21336,0 0.37795,0.0823 0.37795,0.24384 0,0.1524 -0.14935,0.225552 -0.3749,0.225552 -0.0793,0 -0.21641,0 -0.25299,-0.003 V 15.6308 c 0.0305,-0.003 0.16764,-0.003 0.25299,-0.003 0.28346,0 0.40843,0.0762 0.40843,0.240792 0,0.155448 -0.13716,0.262128 -0.38405,0.262128 -0.19812,0 -0.42062,-0.08534 -0.56083,-0.231648 z" style="font-weight:bold;font-size:3.048px;font-family:'Proxima Nova';dominant-baseline:alphabetic;text-anchor:middle;fill:#18191c"/>
    </g>
    <line x1="193.46001" y1="23" x2="193.46001" y2="117" stroke="#18191c" stroke-width="0.35"/>
    <circle cx="187.745" cy="19.736" r="1.0880001" fill="#18191c" stroke="#18191c" stroke-width="0.35"/>
    <g style="font-weight:bold;font-size:3.048px;font-family:'Proxima Nova';dominant-baseline:alphabetic;text-anchor:middle;fill:#18191c">
      <path d="m 186.82478,16.472 h 0.43587 v -2.033016 h -0.37795 l -0.64008,0.643128 0.24688,0.25908 0.33528,-0.344424 z" style="font-weight:bold;font-size:3.048px;font-family:'Proxima Nova';dominant-baseline:alphabetic;text-anchor:middle;fill:#18191c"/>
      <path d="m 188.50776,16.472 h 0.43281 v -0.420624 h 0.26213 v -0.381 h -0.26213 v -1.231392 h -0.5974 L 187.53545,15.71 v 0.341376 h 0.97231 z m 0,-1.648968 v 0.847344 h -0.54864 z" style="font-weight:bold;font-size:3.048px;font-family:'Proxima Nova';dominant-baseline:alphabetic;text-anchor:middle;fill:#18191c"/>
    </g>
    <line x1="204.89" y1="23" x2="204.89" y2="117" stroke="#18191c" stroke-width="0.35"/>
    <circle cx="199.175" cy="19.736" r="1.0880001" fill="#18191c" stroke="#18191c" stroke-width="0.35"/>
    <g style="font-weight:bold;font-size:3.048px;font-family:'Proxima Nova';dominant-baseline:alphabetic;text-anchor:middle;fill:#18191c">
      <path d="m 198.23991,16.472 h 0.43586 v -2.033016 h -0.37795 l -0.64008,0.643128 0.24689,0.25908 0.33528,-0.344424 z" style="font-weight:bold;font-size:3.048px;font-family:'Proxima Nova';dominant-baseline:alphabetic;text-anchor:middle;fill:#18191c"/>
      <path d="m 199.02372,16.203776 c 0.17374,0.188976 0.42977,0.3048 0.78334,0.3048 0.49073,0 0.81381,-0.271272 0.81381,-0.70104 0,-0.41148 -0.30784,-0.65532 -0.65227,-0.65532 -0.18593,0 -0.35052,0.07315 -0.4572,0.16764 V 14.81084 h 0.97231 v -0.371856 h -1.39598 v 1.161288 l 0.30175,0.0823 c 0.12192,-0.115824 0.25908,-0.16764 0.42672,-0.16764 0.23165,0 0.36576,0.124968 0.36576,0.310896 0,0.16764 -0.13716,0.3048 -0.37795,0.3048 -0.21336,0 -0.40234,-0.0762 -0.54254,-0.219456 z" style="font-weight:bold;font-size:3.048px;font-family:'Proxima Nova';dominant-baseline:alphabetic;text-anchor:middle;fill:#18191c"/>
    </g>
    <line x1="216.32001" y1="23" x2="216.32001" y2="117" stroke="#18191c" stroke-width="0.35"/>
    <circle cx="210.605" cy="19.736" r="1.0880001" fill="#18191c" stroke="#18191c" stroke-width="0.35"/>
    <g style="font-weight:bold;font-size:3.048px;font-family:'Proxima Nova';dominant-baseline:alphabetic;text-anchor:middle;fill:#18191c">
      <path d="m 209.6699,16.472 h 0.43587 v -2.033016 h -0.37796 l -0.64008,0.643128 0.24689,0.25908 0.33528,-0.344424 z" style="font-weight:bold;font-size:3.048px;font-family:'Proxima Nova';dominant-baseline:alphabetic;text-anchor:middle;fill:#18191c"/>
      <path d="m 210.40799,15.460064 c 0,0.573024 0.25908,1.048512 0.87783,1.048512 0.46329,0 0.77724,-0.301752 0.77724,-0.697992 0,-0.432816 -0.32614,-0.65532 -0.6919,-0.65532 -0.2225,0 -0.42672,0.12192 -0.52121,0.25908 -0.003,-0.01219 -0.003,-0.02743 -0.003,-0.04267 0,-0.323088 0.20116,-0.588264 0.50901,-0.588264 0.17983,0 0.29566,0.05791 0.40539,0.161544 l 0.19507,-0.326136 c -0.14631,-0.124968 -0.35357,-0.210312 -0.60046,-0.210312 -0.60045,0 -0.94793,0.435864 -0.94793,1.05156 z m 1.21616,0.368808 c 0,0.143256 -0.12497,0.301752 -0.35967,0.301752 -0.28651,0 -0.39624,-0.225552 -0.41453,-0.420624 0.0975,-0.118872 0.24384,-0.195072 0.39624,-0.195072 0.19812,0 0.37796,0.09449 0.37796,0.313944 z" style="font-weight:bold;font-size:3.048px;font-family:'Proxima Nova';dominant-baseline:alphabetic;text-anchor:middle;fill:#18191c"/>
    </g>
    <g style="font-weight:bold;font-size:2.37067px;font-family:'Proxima Nova';dominant-baseline:hanging;text-anchor:middle;fill:#18191c">
      <path d="m 226.58752,35.389336 h 0.85818 c 0.30108,0 0.45991,-0.189653 0.45991,-0.42672 0,-0.199136 -0.13512,-0.362712 -0.30344,-0.388789 0.14935,-0.03082 0.27262,-0.163576 0.27262,-0.362712 0,-0.210989 -0.15409,-0.403013 -0.45516,-0.403013 h -0.83211 z m 0.33664,-0.945896 v -0.348488 h 0.42198 c 0.11379,0 0.18491,0.07586 0.18491,0.173059 0,0.101939 -0.0711,0.175429 -0.18491,0.175429 z m 0,0.659046 v -0.372195 h 0.43383 c 0.13276,0 0.20388,0.08534 0.20388,0.184912 0,0.113792 -0.0759,0.187283 -0.20388,0.187283 z" style="font-weight:bold;font-size:2.37067px;font-family:'Proxima Nova';dominant-baseline:hanging;text-anchor:middle;fill:#18191c"/>
      <path d="m 228.15716,35.389336 h 0.33664 v -1.581234 h -0.33664 z" style="font-weight:bold;font-size:2.37067px;font-family:'Proxima Nova';dominant-baseline:hanging;text-anchor:middle;fill:#18191c"/>
    </g>
    <g style="font-weight:bold;font-size:2.37067px;font-family:'Proxima Nova';dominant-baseline:alphabetic;text-anchor:middle;fill:#18191c">
      <path d="m 225.64527,25.149848 c 0,0.388789 0.22522,0.659045 0.70883,0.659045 0.47888,0 0.70409,-0.267885 0.70409,-0.661416 V 24.19921 h -0.34137 v 0.938784 c 0,0.220472 -0.12091,0.372195 -0.36272,0.372195 -0.24655,0 -0.36745,-0.151723 -0.36745,-0.372195 V 24.19921 h -0.34138 z" style="font-weight:bold;font-size:2.37067px;font-family:'Proxima Nova';dominant-baseline:alphabetic;text-anchor:middle;fill:#18191c"/>
      <path d="m 228.46285,25.780445 h 0.32478 V 24.19921 H 228.451 v 1.024128 l -0.73254,-1.024128 h -0.34612 v 1.581235 h 0.33664 v -1.062059 z" style="font-weight:bold;font-size:2.37067px;font-family:'Proxima Nova';dominant-baseline:alphabetic;text-anchor:middle;fill:#18191c"/>
      <path d="m 229.09941,25.780445 h 0.33664 V 24.19921 h -0.33664 z" style="font-weight:bold;font-size:2.37067px;font-family:'Proxima Nova';dominant-baseline:alphabetic;text-anchor:middle;fill:#18191c"/>
    </g>
    <rect x="222.34" y="63.009777" width="10.4" height="12.980445" rx="1" ry="1" fill="#18191c" stroke="#18191c" stroke-width="0.35"/>
    <g style="font-weight:bold;font-size:2.37067px;font-family:'Proxima Nova';dominant-baseline:alphabetic;text-anchor:middle;fill:#efedeb">
      <path d="m 223.73044,65.367383 c 0.14935,0.149352 0.36746,0.25129 0.6709,0.25129 0.42672,0 0.63297,-0.218101 0.63297,-0.507322 0,-0.350859 -0.33189,-0.429091 -0.59267,-0.488358 -0.18254,-0.04267 -0.3153,-0.07586 -0.3153,-0.182541 0,-0.09483 0.0806,-0.161205 0.23233,-0.161205 0.15409,0 0.32478,0.05452 0.4528,0.173058 l 0.18728,-0.246549 c -0.15646,-0.144611 -0.36508,-0.220472 -0.61637,-0.220472 -0.3722,0 -0.59978,0.21336 -0.59978,0.476504 0,0.353229 0.33189,0.424349 0.59029,0.483616 0.18254,0.04267 0.32004,0.08297 0.32004,0.201507 0,0.09009 -0.0901,0.1778 -0.27499,0.1778 -0.21811,0 -0.39116,-0.0972 -0.50259,-0.21336 z" style="font-weight:bold;font-size:2.37067px;font-family:'Proxima Nova';dominant-baseline:alphabetic;text-anchor:middle;fill:#efedeb"/>
      <path d="m 225.60753,65.590225 h 0.339 v -1.284901 h 0.45991 v -0.296333 h -1.26119 v 0.296333 h 0.46228 z" style="font-weight:bold;font-size:2.37067px;font-family:'Proxima Nova';dominant-baseline:alphabetic;text-anchor:middle;fill:#efedeb"/>
      <path d="m 226.62225,65.590225 h 1.11895 v -0.291592 h -0.78232 V 64.93118 h 0.76573 v -0.289221 h -0.76573 v -0.343747 h 0.78232 v -0.289221 h -1.11895 z" style="font-weight:bold;font-size:2.37067px;font-family:'Proxima Nova';dominant-baseline:alphabetic;text-anchor:middle;fill:#efedeb"/>
      <path d="m 228.00668,65.590225 h 0.33664 v -0.566589 h 0.40301 c 0.34138,0 0.53103,-0.229955 0.53103,-0.504952 0,-0.277368 -0.18728,-0.509693 -0.53103,-0.509693 h -0.73965 z m 0.92693,-1.073912 c 0,0.132758 -0.0996,0.218102 -0.23232,0.218102 h -0.35797 v -0.436203 h 0.35797 c 0.13275,0 0.23232,0.08771 0.23232,0.218101 z" style="font-weight:bold;font-size:2.37067px;font-family:'Proxima Nova';dominant-baseline:alphabetic;text-anchor:middle;fill:#efedeb"/>
      <path d="m 230.51225,65.590225 h 0.22522 l 0.13275,-0.400642 h 0.24418 l 0.0593,-0.192024 h -0.23944 l 0.13039,-0.393531 h 0.23707 l 0.0569,-0.189653 h -0.22995 l 0.1375,-0.405384 h -0.22522 l -0.13275,0.405384 h -0.22285 l 0.13276,-0.405384 h -0.22284 l -0.13276,0.405384 h -0.23944 l -0.0593,0.189653 h 0.23232 l -0.12801,0.393531 h -0.23233 l -0.0616,0.192024 h 0.22759 l -0.13513,0.400642 h 0.22284 l 0.13513,-0.400642 h 0.22521 z m 0.32953,-0.986197 -0.13039,0.393531 h -0.22047 l 0.12801,-0.393531 z" style="font-weight:bold;font-size:2.37067px;font-family:'Proxima Nova';dominant-baseline:alphabetic;text-anchor:middle;fill:#efedeb"/>
    </g>
    <rect x="222.34" y="83.514664" width="10.4" height="12.980445" rx="1" ry="1" fill="#18191c" stroke="#18191c" stroke-width="0.35"/>
    <g style="font-weight:bold;font-size:2.37067px;font-family:'Proxima Nova';dominant-baseline:alphabetic;text-anchor:middle;fill:#efedeb">
      <path d="m 223.57302,85.872265 c 0.14935,0.149352 0.36745,0.251291 0.67089,0.251291 0.42672,0 0.63297,-0.218101 0.63297,-0.507323 0,-0.350858 -0.33189,-0.42909 -0.59266,-0.488357 -0.18255,-0.04267 -0.3153,-0.07586 -0.3153,-0.182541 0,-0.09483 0.0806,-0.161206 0.23232,-0.161206 0.1541,0 0.32478,0.05453 0.4528,0.173059 l 0.18728,-0.246549 c -0.15646,-0.144611 -0.36508,-0.220472 -0.61637,-0.220472 -0.3722,0 -0.59978,0.21336 -0.59978,0.476504 0,0.353229 0.33189,0.424349 0.5903,0.483616 0.18254,0.04267 0.32004,0.08297 0.32004,0.201506 0,0.09009 -0.0901,0.1778 -0.275,0.1778 -0.2181,0 -0.39116,-0.0972 -0.50258,-0.21336 z" style="font-weight:bold;font-size:2.37067px;font-family:'Proxima Nova';dominant-baseline:alphabetic;text-anchor:middle;fill:#efedeb"/>
      <path d="m 225.4501,86.095108 h 0.33901 v -1.284901 h 0.45991 v -0.296334 h -1.2612 v 0.296334 h 0.46228 z" style="font-weight:bold;font-size:2.37067px;font-family:'Proxima Nova';dominant-baseline:alphabetic;text-anchor:middle;fill:#efedeb"/>
      <path d="m 226.46482,86.095108 h 1.11896 v -0.291592 h -0.78232 v -0.367453 h 0.76572 v -0.289222 h -0.76572 v -0.343746 h 0.78232 v -0.289222 h -1.11896 z" style="font-weight:bold;font-size:2.37067px;font-family:'Proxima Nova';dominant-baseline:alphabetic;text-anchor:middle;fill:#efedeb"/>
      <path d="m 227.84925,86.095108 h 0.33664 v -0.566589 h 0.40301 c 0.34138,0 0.53103,-0.229955 0.53103,-0.504952 0,-0.277368 -0.18728,-0.509694 -0.53103,-0.509694 h -0.73965 z m 0.92693,-1.073912 c 0,0.132757 -0.0996,0.218101 -0.23232,0.218101 h -0.35797 v -0.436202 h 0.35797 c 0.13276,0 0.23232,0.08771 0.23232,0.218101 z" style="font-weight:bold;font-size:2.37067px;font-family:'Proxima Nova';dominant-baseline:alphabetic;text-anchor:middle;fill:#efedeb"/>
      <path d="m 231.45831,85.463085 q 0,0.428294 -0.31254,0.583406 -0.1528,0.0764 -0.31833,0.0764 v 0.43987 h -0.32527 v -0.43987 q -0.16322,0 -0.31717,-0.0764 -0.3137,-0.15627 -0.3137,-0.583406 0,-0.167845 0.0799,-0.314855 0.0833,-0.151639 0.22804,-0.230352 0.1447,-0.07987 0.32296,-0.07987 v -0.439869 h 0.32527 v 0.439869 q 0.38662,0 0.551,0.311382 0.0799,0.151639 0.0799,0.313697 z m -0.33338,0.01736 q 0,-0.155112 -0.0695,-0.258134 -0.081,-0.119228 -0.22804,-0.119228 v 0.754724 q 0.14701,0 0.22804,-0.119228 0.0695,-0.103022 0.0695,-0.258134 z m -0.62276,0.377362 v -0.754724 q -0.14701,0 -0.22804,0.119228 -0.0695,0.103022 -0.0695,0.258134 0,0.155112 0.0695,0.258134 0.081,0.119228 0.22804,0.119228 z" style="font-weight:bold;font-size:2.37067px;font-family:'Proxima Nova';dominant-baseline:alphabetic;text-anchor:middle;fill:#efedeb"/>
    </g>
    <rect x="222.34" y="104.01955" width="10.4" height="12.980445" rx="1" ry="1" fill="#18191c" stroke="#18191c" stroke-width="0.35"/>
    <g style="font-weight:bold;font-size:2.37067px;font-family:'Proxima Nova';dominant-baseline:alphabetic;text-anchor:middle;fill:#efedeb">
      <path d="m 225.15964,105.81057 c 0,0.4765 0.34849,0.81788 0.82499,0.81788 0.47888,0 0.82736,-0.34138 0.82736,-0.81788 0,-0.47651 -0.34848,-0.81788 -0.82736,-0.81788 -0.4765,0 -0.82499,0.34137 -0.82499,0.81788 z m 1.30624,0 c 0,0.29396 -0.18966,0.51917 -0.48125,0.51917 -0.29159,0 -0.47887,-0.22521 -0.47887,-0.51917 0,-0.29634 0.18728,-0.51918 0.47887,-0.51918 0.29159,0 0.48125,0.22284 0.48125,0.51918 z" style="font-weight:bold;font-size:2.37067px;font-family:'Proxima Nova';dominant-baseline:alphabetic;text-anchor:middle;fill:#efedeb"/>
      <path d="m 227.05054,105.9694 c 0,0.38879 0.22522,0.65905 0.70883,0.65905 0.47888,0 0.70409,-0.26789 0.70409,-0.66142 v -0.94827 h -0.34138 v 0.93879 c 0,0.22047 -0.1209,0.37219 -0.36271,0.37219 -0.24655,0 -0.36745,-0.15172 -0.36745,-0.37219 v -0.93879 h -0.34138 z" style="font-weight:bold;font-size:2.37067px;font-family:'Proxima Nova';dominant-baseline:alphabetic;text-anchor:middle;fill:#efedeb"/>
      <path d="m 229.14269,106.6 h 0.33901 v -1.2849 h 0.45991 v -0.29634 h -1.2612 v 0.29634 h 0.46228 z" style="font-weight:bold;font-size:2.37067px;font-family:'Proxima Nova';dominant-baseline:alphabetic;text-anchor:middle;fill:#efedeb"/>
    </g>
  </g>
</svg>
