<?xml version="1.0" encoding="UTF-8" standalone="no"?>
<svg xmlns:dc="http://purl.org/dc/elements/1.1/" xmlns:cc="http://creativecommons.org/ns#" xmlns:rdf="http://www.w3.org/1999/02/22-rdf-syntax-ns#" xmlns:svg="http://www.w3.org/2000/svg" xmlns="http://www.w3.org/2000/svg" version="1.1" width="238.75999mm" height="128.5mm" viewBox="0 0 238.76 128.5" id="svg2226">
  <metadata id="metadata2232">
    <rdf:RDF>
      <cc:Work rdf:about="">
        <dc:format>image/svg+xml</dc:format>
        <dc:type rdf:resource="http://purl.org/dc/dcmitype/StillImage"/>
      </cc:Work>
    </rdf:RDF>
  </metadata>
  <defs id="defs2230"/>
  <g id="faceplate">
    <rect x="0.25" y="0.25" width="238.25999" height="128" fill="#efedeb" stroke="#331a00" stroke-width="0.5" rx="0.000" ry="0.000" id="rect2"/>
    <g transform="translate(119.38,9)" id="g6">
      <g aria-label="SCANNIBAL 16" id="text4" style="font-weight:bold;font-size:4.064px;font-family:'Proxima Nova';dominant-baseline:alphabetic;text-anchor:middle;fill:#331a00">
        <path d="m -13.809345,-0.38201601 c 0.256032,0.25603201 0.62992,0.43078401 1.150112,0.43078401 0.73152,0 1.085088,-0.37388801 1.085088,-0.86969603 0,-0.60147197 -0.56896,-0.73558397 -1.016,-0.83718407 -0.312928,-0.073152 -0.540512,-0.130048 -0.540512,-0.312928 0,-0.16256 0.138176,-0.276352 0.398272,-0.276352 0.26416,0 0.556768,0.093472 0.776224,0.296672 l 0.321056,-0.422656 c -0.268224,-0.247904 -0.625856,-0.377952 -1.05664,-0.377952 -0.638048,0 -1.028192,0.36576 -1.028192,0.816864 0,0.6055361 0.56896,0.7274561 1.011936,0.8290561 0.312928,0.073152 0.54864,0.14223997 0.54864,0.34543998 0,0.154432 -0.154432,0.30480001 -0.471424,0.30480001 -0.373888,0 -0.67056,-0.16662401 -0.861568,-0.36576002 z" style="font-weight:bold;font-size:4.064px;font-family:'Proxima Nova';dominant-baseline:alphabetic;text-anchor:middle;fill:#331a00" id="path2234"/>
        <path d="m -9.8932368,0.048768 c 0.6177281,0 0.9591041,-0.32918401 1.1541761,-0.66649602 l -0.495808,-0.23977601 c -0.113792,0.22352001 -0.357632,0.39420802 -0.6583681,0.39420802 -0.4714242,0 -0.8290562,-0.37795202 -0.8290562,-0.89001599 0,-0.5120641 0.357632,-0.8900161 0.8290562,-0.8900161 0.3007361,0 0.5445761,0.174752 0.6583681,0.394208 l 0.495808,-0.24384 c -0.191008,-0.337312 -0.536448,-0.662432 -1.1541761,-0.662432 -0.7924802,0 -1.4224002,0.56896 -1.4224002,1.4020801 0,0.83311998 0.62992,1.40208 1.4224002,1.40208 z" style="font-weight:bold;font-size:4.064px;font-family:'Proxima Nova';dominant-baseline:alphabetic;text-anchor:middle;fill:#331a00" id="path2236"/>
        <path d="m -6.5254505,0 h 0.62992 l -1.0444481,-2.7106881 h -0.723392 L -8.7118826,0 h 0.633984 l 0.170688,-0.46736001 h 1.211072 z m -0.7762241,-2.2108161 0.44704,1.24358407 h -0.898144 z" style="font-weight:bold;font-size:4.064px;font-family:'Proxima Nova';dominant-baseline:alphabetic;text-anchor:middle;fill:#331a00" id="path2238"/>
        <path d="m -3.7757733,0 h 0.5567681 v -2.7106881 h -0.5770881 v 1.75564807 l -1.255776,-1.75564807 h -0.593344 V 0 h 0.577088 v -1.8206721 z" style="font-weight:bold;font-size:4.064px;font-family:'Proxima Nova';dominant-baseline:alphabetic;text-anchor:middle;fill:#331a00" id="path2240"/>
        <path d="m -0.81508563,0 h 0.55676802 v -2.7106881 h -0.57708802 v 1.75564807 L -2.0911817,-2.7106881 h -0.593344 V 0 h 0.577088 v -1.8206721 z" style="font-weight:bold;font-size:4.064px;font-family:'Proxima Nova';dominant-baseline:alphabetic;text-anchor:middle;fill:#331a00" id="path2242"/>
        <path d="M 0.27616195,0 H 0.85324997 V -2.7106881 H 0.27616195 Z" style="font-weight:bold;font-size:4.064px;font-family:'Proxima Nova';dominant-baseline:alphabetic;text-anchor:middle;fill:#331a00" id="path2244"/>
        <path d="m 1.3874119,0 h 1.471168 c 0.516128,0 0.788416,-0.32512001 0.788416,-0.73152002 0,-0.34137598 -0.231648,-0.62179198 -0.520192,-0.66649598 0.256032,-0.052832 0.46736,-0.2804161 0.46736,-0.6217921 0,-0.361696 -0.26416,-0.69088 -0.780288,-0.69088 h -1.426464 z m 0.577088,-1.6215361 v -0.597408 h 0.723392 c 0.195072,0 0.316992,0.130048 0.316992,0.296672 0,0.174752 -0.12192,0.300736 -0.316992,0.300736 z m 0,1.12979208 V -1.129792 h 0.743712 c 0.227584,0 0.349504,0.14630397 0.349504,0.31699197 0,0.19507201 -0.130048,0.32105601 -0.349504,0.32105601 z" style="font-weight:bold;font-size:4.064px;font-family:'Proxima Nova';dominant-baseline:alphabetic;text-anchor:middle;fill:#331a00" id="path2246"/>
        <path d="m 5.976113,0 h 0.62992 L 5.561585,-2.7106881 H 4.838193 L 3.7896809,0 h 0.633984 L 4.594353,-0.46736001 h 1.211072 z m -0.776224,-2.2108161 0.44704,1.24358407 H 4.748785 Z" style="font-weight:bold;font-size:4.064px;font-family:'Proxima Nova';dominant-baseline:alphabetic;text-anchor:middle;fill:#331a00" id="path2248"/>
        <path d="m 6.8563488,0 h 1.723136 V -0.50800002 H 7.4334368 V -2.7106881 h -0.577088 z" style="font-weight:bold;font-size:4.064px;font-family:'Proxima Nova';dominant-baseline:alphabetic;text-anchor:middle;fill:#331a00" id="path2250"/>
        <path d="m 10.576116,0 h 0.581152 v -2.7106881 h -0.503936 l -0.8534405,0.857504 0.3291845,0.3454401 0.44704,-0.4592321 z" style="font-weight:bold;font-size:4.064px;font-family:'Proxima Nova';dominant-baseline:alphabetic;text-anchor:middle;fill:#331a00" id="path2252"/>
        <path d="m 11.560239,-1.349248 c 0,0.76403198 0.34544,1.398016 1.170432,1.398016 0.617728,0 1.03632,-0.40233601 1.03632,-0.93065603 0,-0.57708797 -0.434848,-0.87376007 -0.922528,-0.87376007 -0.296672,0 -0.56896,0.16256 -0.694944,0.3454401 -0.0041,-0.016256 -0.0041,-0.036576 -0.0041,-0.056896 0,-0.4307841 0.268224,-0.7843521 0.678688,-0.7843521 0.239776,0 0.394208,0.077216 0.540512,0.215392 l 0.260096,-0.434848 c -0.195072,-0.166624 -0.471424,-0.280416 -0.800608,-0.280416 -0.800608,0 -1.263904,0.581152 -1.263904,1.4020801 z m 1.621536,0.49174397 c 0,0.19100801 -0.166624,0.40233602 -0.479552,0.40233602 -0.382016,0 -0.52832,-0.30073601 -0.552704,-0.56083199 0.130048,-0.158496 0.32512,-0.260096 0.52832,-0.260096 0.26416,0 0.503936,0.125984 0.503936,0.41859197 z" style="font-weight:bold;font-size:4.064px;font-family:'Proxima Nova';dominant-baseline:alphabetic;text-anchor:middle;fill:#331a00" id="path2254"/>
      </g>
    </g>
    <g transform="translate(119.38,119.5)" id="g10">
      <g aria-label="DHE" id="text8" style="font-weight:bold;font-size:4.064px;font-family:'Proxima Nova';dominant-baseline:hanging;text-anchor:middle;fill:#331a00">
        <path d="m -3.8632449,2.7584481 h 1.0688321 c 0.849376,0 1.438656,-0.5364481 1.438656,-1.3533121 0,-0.816864 -0.58928,-1.35737602 -1.438656,-1.35737602 H -3.8632449 Z M -3.2861569,2.250448 V 0.55575999 h 0.4917441 c 0.556768,0 0.849376,0.36982402 0.849376,0.84937601 0,0.459232 -0.312928,0.845312 -0.849376,0.845312 z" style="font-weight:bold;font-size:4.064px;font-family:'Proxima Nova';dominant-baseline:hanging;text-anchor:middle;fill:#331a00" id="path2257"/>
        <path d="M 0.91500319,2.7584481 H 1.4961552 V 0.04775998 H 0.91500319 V 1.112528 H -0.36515685 V 0.04775998 H -0.94224487 V 2.7584481 h 0.57708802 V 1.620528 h 1.28016004 z" style="font-weight:bold;font-size:4.064px;font-family:'Proxima Nova';dominant-baseline:hanging;text-anchor:middle;fill:#331a00" id="path2259"/>
        <path d="M 2.0263802,2.7584481 H 3.9445883 V 2.258576 H 2.6034682 V 1.628656 H 3.9161403 V 1.132848 H 2.6034682 V 0.54356799 H 3.9445883 V 0.04775998 H 2.0263802 Z" style="font-weight:bold;font-size:4.064px;font-family:'Proxima Nova';dominant-baseline:hanging;text-anchor:middle;fill:#331a00" id="path2261"/>
      </g>
    </g>
    <g transform="translate(11.22,25.591)" id="g14">
      <g aria-label="STEPS" id="text12" style="font-weight:bold;font-size:2.371px;font-family:'Proxima Nova';dominant-baseline:alphabetic;text-anchor:middle;fill:#331a00">
        <path d="m -3.4859258,-0.222874 c 0.149373,0.149373 0.367505,0.251326 0.670993,0.251326 0.42678,0 0.633057,-0.218132 0.633057,-0.50739401 0,-0.35090801 -0.33194,-0.42915101 -0.59275,-0.48842601 -0.182567,-0.042678 -0.315343,-0.075872 -0.315343,-0.18256698 0,-0.09484 0.080614,-0.161228 0.232358,-0.161228 0.154115,0 0.324827,0.054533 0.452861,0.173083 l 0.187309,-0.246584 c -0.156486,-0.144631 -0.365134,-0.220503 -0.61646,-0.220503 -0.372247,0 -0.599863,0.21339 -0.599863,0.476571 0,0.35327898 0.33194,0.42440898 0.590379,0.48368399 0.182567,0.042678 0.320085,0.082985 0.320085,0.201535 0,0.090098 -0.090098,0.177825 -0.275036,0.177825 -0.218132,0 -0.391215,-0.097211 -0.502652,-0.21339 z" style="font-weight:bold;font-size:2.371px;font-family:'Proxima Nova';dominant-baseline:alphabetic;text-anchor:middle;fill:#331a00" id="path2264"/>
        <path d="m -1.6085753,0 h 0.339053 v -1.285082 h 0.45997399 V -1.581457 H -2.0709203 v 0.296375 h 0.462345 z" style="font-weight:bold;font-size:2.371px;font-family:'Proxima Nova';dominant-baseline:alphabetic;text-anchor:middle;fill:#331a00" id="path2266"/>
        <path d="m -0.59371316,0 h 1.11911203 v -0.29163301 h -0.78243002 v -0.367505 H 0.50880187 V -0.94840002 H -0.25703115 V -1.292195 h 0.78243002 v -0.289262 h -1.11911203 z" style="font-weight:bold;font-size:2.371px;font-family:'Proxima Nova';dominant-baseline:alphabetic;text-anchor:middle;fill:#331a00" id="path2268"/>
        <path d="M 0.79091395,0 H 1.127596 v -0.56666901 h 0.40307 c 0.341424,0 0.531104,-0.22998701 0.531104,-0.50502299 0,-0.277407 -0.187309,-0.509765 -0.531104,-0.509765 H 0.79091395 Z M 1.717975,-1.074063 c 0,0.13277598 -0.099582,0.21813198 -0.232358,0.21813198 H 1.127596 V -1.292195 h 0.358021 c 0.132776,0 0.232358,0.087727 0.232358,0.218132 z" style="font-weight:bold;font-size:2.371px;font-family:'Proxima Nova';dominant-baseline:alphabetic;text-anchor:middle;fill:#331a00" id="path2270"/>
        <path d="m 2.1590918,-0.222874 c 0.149373,0.149373 0.3675051,0.251326 0.6709931,0.251326 0.42678,0 0.633057,-0.218132 0.633057,-0.50739401 0,-0.35090801 -0.33194,-0.42915101 -0.59275,-0.48842601 -0.182567,-0.042678 -0.315343,-0.075872 -0.315343,-0.18256698 0,-0.09484 0.080614,-0.161228 0.232358,-0.161228 0.154115,0 0.324827,0.054533 0.452861,0.173083 l 0.187309,-0.246584 c -0.156486,-0.144631 -0.365134,-0.220503 -0.61646,-0.220503 -0.372247,0 -0.5998631,0.21339 -0.5998631,0.476571 0,0.35327898 0.3319401,0.42440898 0.5903791,0.48368399 0.182567,0.042678 0.320085,0.082985 0.320085,0.201535 0,0.090098 -0.090098,0.177825 -0.275036,0.177825 -0.218132,0 -0.391215,-0.097211 -0.5026521,-0.21339 z" style="font-weight:bold;font-size:2.371px;font-family:'Proxima Nova';dominant-baseline:alphabetic;text-anchor:middle;fill:#331a00" id="path2272"/>
      </g>
    </g>
    <rect x="6.02" y="43.263" width="10.4" height="12.98" fill="#efedeb" stroke="#331a00" stroke-width="0.35" rx="1" ry="1" id="rect16"/>
    <g transform="translate(11.22,45.843)" id="g20">
      <g aria-label="A" id="text18" style="font-weight:bold;font-size:2.371px;font-family:'Proxima Nova';dominant-baseline:alphabetic;text-anchor:middle;fill:#331a00">
        <path d="M 0.45334262,0 H 0.82084763 L 0.21150061,-1.581457 H -0.2105374 L -0.82225541,0 h 0.36987601 l 0.099582,-0.27266501 H 0.35376062 Z M 4.8160939e-4,-1.289824 0.26129162,-0.56429801 H -0.2626994 Z" style="font-weight:bold;font-size:2.371px;font-family:'Proxima Nova';dominant-baseline:alphabetic;text-anchor:middle;fill:#331a00" id="path2275"/>
      </g>
    </g>
    <rect x="6.02" y="63.514999" width="10.4" height="12.98" fill="#efedeb" stroke="#331a00" stroke-width="0.35" rx="1" ry="1" id="rect22"/>
    <g transform="translate(11.22,66.095)" id="g26">
      <g aria-label="B" id="text24" style="font-weight:bold;font-size:2.371px;font-family:'Proxima Nova';dominant-baseline:alphabetic;text-anchor:middle;fill:#331a00">
        <path d="m -0.62844468,0 h 0.85830202 c 0.30111701,0 0.45997401,-0.18968 0.45997401,-0.42678001 0,-0.199164 -0.135147,-0.36276301 -0.30348801,-0.38884401 0.14937301,-0.030823 0.27266501,-0.163599 0.27266501,-0.36276298 0,-0.211019 -0.154115,-0.40307 -0.45523201,-0.40307 h -0.83222102 z m 0.33668201,-0.94602902 V -1.294566 h 0.42203801 c 0.113808,0 0.184938,0.075872 0.184938,0.173083 0,0.101953 -0.07113,0.17545398 -0.184938,0.17545398 z m 0,0.65913801 v -0.372247 h 0.43389301 c 0.132776,0 0.203906,0.085356 0.203906,0.184938 0,0.113808 -0.075872,0.187309 -0.203906,0.187309 z" style="font-weight:bold;font-size:2.371px;font-family:'Proxima Nova';dominant-baseline:alphabetic;text-anchor:middle;fill:#331a00" id="path2278"/>
      </g>
    </g>
    <rect x="6.02" y="83.766998" width="10.4" height="12.98" fill="#efedeb" stroke="#331a00" stroke-width="0.35" rx="1" ry="1" id="rect28"/>
    <g transform="translate(11.22,86.348)" id="g32">
      <g aria-label="C" id="text30" style="font-weight:bold;font-size:2.371px;font-family:'Proxima Nova';dominant-baseline:alphabetic;text-anchor:middle;fill:#331a00">
        <path d="m 0.09543275,0.028452 c 0.36039201,0 0.55955601,-0.192051 0.67336402,-0.38884401 l -0.28926201,-0.139889 c -0.066388,0.130405 -0.208648,0.229987 -0.38410201,0.229987 -0.275036,0 -0.48368401,-0.220503 -0.48368401,-0.51924901 0,-0.29874598 0.20864801,-0.51924898 0.48368401,-0.51924898 0.17545401,0 0.31771401,0.101953 0.38410201,0.229987 l 0.28926201,-0.14226 C 0.65735976,-1.417858 0.45582476,-1.607538 0.09543275,-1.607538 c -0.46234501,0 -0.82985002,0.33194 -0.82985002,0.81799498 0,0.48605501 0.36750501,0.81799502 0.82985002,0.81799502 z" style="font-weight:bold;font-size:2.371px;font-family:'Proxima Nova';dominant-baseline:alphabetic;text-anchor:middle;fill:#331a00" id="path2281"/>
      </g>
    </g>
    <rect x="6.02" y="104.02" width="10.4" height="12.98" fill="#efedeb" stroke="#331a00" stroke-width="0.35" rx="1" ry="1" id="rect34"/>
    <g transform="translate(11.22,106.6)" id="g38">
      <g aria-label="ϕ" id="text36" style="font-weight:bold;font-size:2.371px;font-family:'Proxima Nova';dominant-baseline:alphabetic;text-anchor:middle;fill:#331a00">
        <path d="m 0.79303469,-0.63211232 q 0,0.4283545 -0.31258302,0.5834883 Q 0.32763331,0.02778516 0.16208008,0.02778516 V 0.46771681 H -0.1632378 V 0.02778516 q -0.16323779,0 -0.31721387,-0.07640918 -0.31374073,-0.15629151 -0.31374073,-0.5834883 0,-0.16786865 0.0798823,-0.31489844 0.0833555,-0.15166064 0.22806983,-0.23038524 0.14471435,-0.079882 0.32300244,-0.079882 V -1.69721 h 0.32531788 v 0.4399317 q 0.38667677,0 0.55107228,0.31142525 0.0798823,0.15166065 0.0798824,0.31374073 z M 0.4596128,-0.6147466 q 0,-0.15513379 -0.0694629,-0.25817041 -0.08104,-0.11924463 -0.22806983,-0.11924463 v 0.75483009 q 0.14702979,0 0.22806983,-0.11924463 0.0694629,-0.10303662 0.0694629,-0.25817042 z m -0.6228506,0.37741505 v -0.75483009 q -0.14702978,0 -0.22806983,0.11924463 -0.0694629,0.10303662 -0.0694629,0.25817041 0,0.1551338 0.0694629,0.25817042 0.0810401,0.11924463 0.22806983,0.11924463 z" style="font-weight:bold;font-size:2.371px;font-family:'Proxima Nova';dominant-baseline:alphabetic;text-anchor:middle;fill:#331a00" id="path2284"/>
      </g>
    </g>
    <g transform="translate(32.44,36.374)" id="g42">
      <g aria-label="ϕ＝0" id="text40" style="font-weight:bold;font-size:3.048px;font-family:'Proxima Nova';dominant-baseline:middle;text-anchor:end;fill:#331a00">
        <path d="m -5.0586681,0.34367577 q 0,0.55066408 -0.401836,0.75009373 -0.1964531,0.098227 -0.4092773,0.098227 V 1.757543 H -6.2879885 V 1.1919961 q -0.2098476,0 -0.4077891,-0.098227 -0.4033242,-0.20091793 -0.4033242,-0.75009373 0,-0.21580079 0.1026914,-0.40481251 0.1071563,-0.19496485 0.2931914,-0.29616798 0.1860352,-0.10269141 0.4152305,-0.10269141 V -1.025543 h 0.4182071 v 0.56554687 q 0.4970859,0 0.7084219,0.40034767 0.1026914,0.19496485 0.1026914,0.40332423 z m -0.428625,0.0223242 q 0,-0.19942969 -0.089297,-0.33188673 -0.1041797,-0.15329297 -0.2931914,-0.15329297 v 0.9703594 q 0.1890117,0 0.2931914,-0.15329297 0.089297,-0.13245704 0.089297,-0.33188673 z m -0.8006954,0.4851797 v -0.9703594 q -0.1890117,0 -0.2931914,0.15329297 -0.089297,0.13245704 -0.089297,0.33188673 0,0.19942969 0.089297,0.33188673 0.1041797,0.15329297 0.2931914,0.15329297 z" style="font-weight:bold;font-size:3.048px;font-family:'Proxima Nova';dominant-baseline:middle;text-anchor:end;fill:#331a00" id="path2287"/>
        <path d="m -2.6893244,-0.12736522 h -1.4436328 v -0.25003126 h 1.4436328 z m 0,0.66377345 H -4.1329572 V 0.28637698 h 1.4436328 z" style="font-weight:bold;font-size:3.048px;font-family:'Proxima Nova';dominant-baseline:middle;text-anchor:end;fill:#331a00" id="path2289"/>
        <path d="m -1.7835087,0.087108 c 0,0.52425601 0.25908,1.05156 0.84124799,1.05156 0.57912001,0 0.84124802,-0.52730399 0.84124802,-1.05156 0,-0.52425602 -0.26212801,-1.04851204 -0.84124802,-1.04851204 -0.58216799,0 -0.84124799,0.52425602 -0.84124799,1.04851204 z m 1.240536,0 c 0,0.37490401 -0.10972801,0.66751202 -0.39928801,0.66751202 -0.29260799,0 -0.40233599,-0.29260801 -0.40233599,-0.66751202 0,-0.37490402 0.109728,-0.66446403 0.40233599,-0.66446403 0.28956,0 0.39928801,0.28956001 0.39928801,0.66446403 z" style="font-weight:bold;font-size:3.048px;font-family:'Proxima Nova';dominant-baseline:middle;text-anchor:end;fill:#331a00" id="path2291"/>
      </g>
    </g>
    <g transform="translate(32.44,63.365)" id="g46">
      <g aria-label="ϕ＝1" id="text44" style="font-weight:bold;font-size:3.048px;font-family:'Proxima Nova';dominant-baseline:middle;text-anchor:end;fill:#331a00">
        <path d="m -4.4216837,0.34367577 q 0,0.55066408 -0.401836,0.75009373 -0.1964531,0.098227 -0.4092773,0.098227 V 1.757543 H -5.6510041 V 1.1919961 q -0.2098476,0 -0.4077891,-0.098227 -0.4033242,-0.20091793 -0.4033242,-0.75009373 0,-0.21580079 0.1026914,-0.40481251 0.1071563,-0.19496485 0.2931914,-0.29616798 0.1860352,-0.10269141 0.4152305,-0.10269141 V -1.025543 h 0.4182071 v 0.56554687 q 0.4970859,0 0.7084219,0.40034767 0.1026914,0.19496485 0.1026914,0.40332423 z m -0.428625,0.0223242 q 0,-0.19942969 -0.089297,-0.33188673 -0.1041797,-0.15329297 -0.2931914,-0.15329297 v 0.9703594 q 0.1890117,0 0.2931914,-0.15329297 0.089297,-0.13245704 0.089297,-0.33188673 z m -0.8006954,0.4851797 v -0.9703594 q -0.1890117,0 -0.2931914,0.15329297 -0.089297,0.13245704 -0.089297,0.33188673 0,0.19942969 0.089297,0.33188673 0.1041797,0.15329297 0.2931914,0.15329297 z" style="font-weight:bold;font-size:3.048px;font-family:'Proxima Nova';dominant-baseline:middle;text-anchor:end;fill:#331a00" id="path2294"/>
        <path d="M -2.05234,-0.12736522 H -3.4959728 V -0.37739648 H -2.05234 Z m 0,0.66377345 H -3.4959728 V 0.28637698 H -2.05234 Z" style="font-weight:bold;font-size:3.048px;font-family:'Proxima Nova';dominant-baseline:middle;text-anchor:end;fill:#331a00" id="path2296"/>
        <path d="m -0.63446033,1.102092 h 0.43586401 v -2.03301604 h -0.37795201 l -0.64007997,0.64312802 0.24688796,0.25908001 0.33528001,-0.34442401 z" style="font-weight:bold;font-size:3.048px;font-family:'Proxima Nova';dominant-baseline:middle;text-anchor:end;fill:#331a00" id="path2298"/>
      </g>
    </g>
    <g transform="translate(32.44,85.066)" id="g50">
      <g aria-label="SHAPE" id="text48" style="font-weight:bold;font-size:3.048px;font-family:'Proxima Nova';dominant-baseline:middle;text-anchor:end;fill:#331a00">
        <path d="m -9.7557434,0.81558002 c 0.192024,0.19202398 0.47244,0.32308798 0.862584,0.32308798 0.54864,0 0.813816,-0.28041598 0.813816,-0.65227199 0,-0.45110402 -0.42672,-0.55168802 -0.762,-0.62788802 -0.234696,-0.054864 -0.405384,-0.097536 -0.405384,-0.23469601 0,-0.12192 0.103632,-0.20726401 0.298704,-0.20726401 0.19812,0 0.417576,0.070104 0.582168,0.22250401 l 0.240792,-0.31699201 c -0.201168,-0.18592801 -0.469392,-0.28346401 -0.79248,-0.28346401 -0.478536,0 -0.771144,0.27432001 -0.771144,0.61264802 0,0.45415202 0.42672,0.54559202 0.758952,0.62179202 0.234696,0.054864 0.41148,0.10668 0.41148,0.25908001 0,0.115824 -0.115824,0.22860001 -0.353568,0.22860001 -0.280416,0 -0.50292,-0.12496801 -0.646176,-0.27432001 z" style="font-weight:bold;font-size:3.048px;font-family:'Proxima Nova';dominant-baseline:middle;text-anchor:end;fill:#331a00" id="path2301"/>
        <path d="m -6.39499,1.102092 h 0.435864 V -0.93092404 H -6.39499 v 0.79857603 H -7.35511 V -0.93092404 H -7.787926 V 1.102092 h 0.432816 v -0.85344 h 0.96012 z" style="font-weight:bold;font-size:3.048px;font-family:'Proxima Nova';dominant-baseline:middle;text-anchor:end;fill:#331a00" id="path2303"/>
        <path d="m -4.1380413,1.102092 h 0.47244 l -0.783336,-2.03301604 h -0.542544 L -5.7778653,1.102092 h 0.475488 l 0.128016,-0.35051998 h 0.908304 z m -0.582168,-1.65811203 0.33528,0.93268803 h -0.673608 z" style="font-weight:bold;font-size:3.048px;font-family:'Proxima Nova';dominant-baseline:middle;text-anchor:end;fill:#331a00" id="path2305"/>
        <path d="m -3.4778635,1.102092 h 0.432816 V 0.37362 h 0.51816 c 0.4389121,0 0.6827521,-0.29565601 0.6827521,-0.64922402 0,-0.35661601 -0.240792,-0.65532002 -0.6827521,-0.65532002 h -0.950976 z m 1.1917681,-1.38074402 c 0,0.17068801 -0.1280161,0.28041601 -0.2987041,0.28041601 h -0.460248 v -0.56083202 h 0.460248 c 0.170688,0 0.2987041,0.11277601 0.2987041,0.28041601 z" style="font-weight:bold;font-size:3.048px;font-family:'Proxima Nova';dominant-baseline:middle;text-anchor:end;fill:#331a00" id="path2307"/>
        <path d="m -1.5788161,1.102092 h 1.43865604 V 0.72718802 H -1.1460001 V 0.254748 h 0.98450404 V -0.11710801 H -1.1460001 v -0.44196002 h 1.00584004 V -0.93092404 H -1.5788161 Z" style="font-weight:bold;font-size:3.048px;font-family:'Proxima Nova';dominant-baseline:middle;text-anchor:end;fill:#331a00" id="path2309"/>
      </g>
    </g>
    <g transform="translate(32.44,108.428)" id="g54">
      <g aria-label="DUR" id="text52" style="font-weight:bold;font-size:3.048px;font-family:'Proxima Nova';dominant-baseline:middle;text-anchor:end;fill:#331a00">
        <path d="m -6.1686759,1.102092 h 0.801624 c 0.637032,0 1.078992,-0.40233599 1.078992,-1.014984 0,-0.61264802 -0.44196,-1.01803204 -1.078992,-1.01803204 h -0.801624 z m 0.432816,-0.38099998 v -1.27101605 h 0.368808 c 0.417576,0 0.637032,0.27736801 0.637032,0.63703203 0,0.34442401 -0.234696,0.63398402 -0.637032,0.63398402 z" style="font-weight:bold;font-size:3.048px;font-family:'Proxima Nova';dominant-baseline:middle;text-anchor:end;fill:#331a00" id="path2312"/>
        <path d="m -3.9779258,0.291324 c 0,0.49987202 0.28956,0.847344 0.911352,0.847344 0.615696,0 0.905256,-0.34442398 0.905256,-0.850392 v -1.21920004 h -0.438912 V 0.276084 c 0,0.28346401 -0.155448,0.47853602 -0.466344,0.47853602 -0.316992,0 -0.47244,-0.19507201 -0.47244,-0.47853602 v -1.20700804 h -0.438912 z" style="font-weight:bold;font-size:3.048px;font-family:'Proxima Nova';dominant-baseline:middle;text-anchor:end;fill:#331a00" id="path2314"/>
        <path d="m -0.60831406,1.102092 h 0.49682402 L -0.56869006,0.3279 c 0.21945601,-0.051816 0.44500802,-0.24384 0.44500802,-0.60350402 0,-0.37795201 -0.25908001,-0.65532002 -0.68275203,-0.65532002 H -1.7574101 V 1.102092 h 0.432816 V 0.37362 h 0.316992 z m 0.042672,-1.38074402 c 0,0.17068801 -0.131064,0.28041601 -0.30480001,0.28041601 H -1.3245941 v -0.56083202 h 0.45415203 c 0.17373601,0 0.30480001,0.10972801 0.30480001,0.28041601 z" style="font-weight:bold;font-size:3.048px;font-family:'Proxima Nova';dominant-baseline:middle;text-anchor:end;fill:#331a00" id="path2316"/>
      </g>
    </g>
    <line x1="33.439999" y1="23" x2="33.439999" y2="117" stroke="#331a00" stroke-width="0.35" id="line56"/>
    <line x1="44.869999" y1="23" x2="44.869999" y2="117" stroke="#331a00" stroke-width="0.35" id="line58"/>
    <g transform="translate(39.155,19.736)" id="g62">
      <circle cx="0" cy="0" r="1.0880001" fill="#331a00" stroke="none" stroke-width="0" id="circle60"/>
    </g>
    <g transform="translate(39.155,16.472)" id="g66">
      <g aria-label="1" id="text64" style="font-weight:bold;font-size:3.048px;font-family:'Proxima Nova';dominant-baseline:alphabetic;text-anchor:middle;fill:#331a00">
        <path d="M -0.00938213,0 H 0.42648189 V -2.0330161 H 0.04852988 l -0.64008002,0.6431281 0.246888,0.25908 0.33528001,-0.344424 z" style="font-weight:bold;font-size:3.048px;font-family:'Proxima Nova';dominant-baseline:alphabetic;text-anchor:middle;fill:#331a00" id="path2319"/>
      </g>
    </g>
    <g transform="translate(39.155,30.041)" id="g70">
      <g id="text68" style="font-weight:bold;font-size:2.371px;font-family:'Proxima Nova';dominant-baseline:alphabetic;text-anchor:middle;fill:#331a00"/>
    </g>
    <g transform="translate(39.155,38.591)" id="g74">
      <g id="text72" style="font-weight:bold;font-size:2.371px;font-family:'Proxima Nova';dominant-baseline:alphabetic;text-anchor:middle;fill:#331a00"/>
    </g>
    <g transform="translate(39.155,57.033)" id="g78">
      <g id="text76" style="font-weight:bold;font-size:2.371px;font-family:'Proxima Nova';dominant-baseline:alphabetic;text-anchor:middle;fill:#331a00"/>
    </g>
    <g transform="translate(39.155,65.583)" id="g82">
      <g id="text80" style="font-weight:bold;font-size:2.371px;font-family:'Proxima Nova';dominant-baseline:alphabetic;text-anchor:middle;fill:#331a00"/>
    </g>
    <g transform="translate(39.155,80.003)" id="g86">
      <g id="text84" style="font-weight:bold;font-size:2.371px;font-family:'Proxima Nova';dominant-baseline:alphabetic;text-anchor:middle;fill:#331a00"/>
    </g>
    <g transform="translate(39.155,88.553)" id="g90">
      <g id="text88" style="font-weight:bold;font-size:2.371px;font-family:'Proxima Nova';dominant-baseline:alphabetic;text-anchor:middle;fill:#331a00"/>
    </g>
    <g transform="translate(39.155,98.953)" id="g94">
      <g id="text92" style="font-weight:bold;font-size:2.371px;font-family:'Proxima Nova';dominant-baseline:alphabetic;text-anchor:middle;fill:#331a00"/>
    </g>
    <g transform="translate(39.155,107.503)" id="g98">
      <g id="text96" style="font-weight:bold;font-size:2.371px;font-family:'Proxima Nova';dominant-baseline:alphabetic;text-anchor:middle;fill:#331a00"/>
    </g>
    <line x1="56.299999" y1="23" x2="56.299999" y2="117" stroke="#331a00" stroke-width="0.35" id="line100"/>
    <g transform="translate(50.585,19.736)" id="g104">
      <circle cx="0" cy="0" r="1.0880001" fill="#331a00" stroke="none" stroke-width="0" id="circle102"/>
    </g>
    <g transform="translate(50.585,16.472)" id="g108">
      <g aria-label="2" id="text106" style="font-weight:bold;font-size:3.048px;font-family:'Proxima Nova';dominant-baseline:alphabetic;text-anchor:middle;fill:#331a00">
        <path d="M -0.77054871,0 H 0.75954734 V -0.38100001 H -0.08779669 C 0.45779533,-0.76504802 0.74430734,-1.0668 0.74430734,-1.414272 c 0,-0.4053841 -0.34442401,-0.6492241 -0.77724003,-0.6492241 -0.28346401,0 -0.58521602,0.103632 -0.78333602,0.332232 l 0.246888,0.2865121 c 0.13716001,-0.1432561 0.31394401,-0.2346961 0.54254402,-0.2346961 0.17068801,0 0.33223201,0.088392 0.33223201,0.2651761 0,0.249936 -0.24384001,0.46024797 -1.07594403,1.07289599 z" style="font-weight:bold;font-size:3.048px;font-family:'Proxima Nova';dominant-baseline:alphabetic;text-anchor:middle;fill:#331a00" id="path2330"/>
      </g>
    </g>
    <g transform="translate(50.585,30.041)" id="g112">
      <g id="text110" style="font-weight:bold;font-size:2.371px;font-family:'Proxima Nova';dominant-baseline:alphabetic;text-anchor:middle;fill:#331a00"/>
    </g>
    <g transform="translate(50.585,38.591)" id="g116">
      <g id="text114" style="font-weight:bold;font-size:2.371px;font-family:'Proxima Nova';dominant-baseline:alphabetic;text-anchor:middle;fill:#331a00"/>
    </g>
    <g transform="translate(50.585,57.033)" id="g120">
      <g id="text118" style="font-weight:bold;font-size:2.371px;font-family:'Proxima Nova';dominant-baseline:alphabetic;text-anchor:middle;fill:#331a00"/>
    </g>
    <g transform="translate(50.585,65.583)" id="g124">
      <g id="text122" style="font-weight:bold;font-size:2.371px;font-family:'Proxima Nova';dominant-baseline:alphabetic;text-anchor:middle;fill:#331a00"/>
    </g>
    <g transform="translate(50.585,80.003)" id="g128">
      <g id="text126" style="font-weight:bold;font-size:2.371px;font-family:'Proxima Nova';dominant-baseline:alphabetic;text-anchor:middle;fill:#331a00"/>
    </g>
    <g transform="translate(50.585,88.553)" id="g132">
      <g id="text130" style="font-weight:bold;font-size:2.371px;font-family:'Proxima Nova';dominant-baseline:alphabetic;text-anchor:middle;fill:#331a00"/>
    </g>
    <g transform="translate(50.585,98.953)" id="g136">
      <g id="text134" style="font-weight:bold;font-size:2.371px;font-family:'Proxima Nova';dominant-baseline:alphabetic;text-anchor:middle;fill:#331a00"/>
    </g>
    <g transform="translate(50.585,107.503)" id="g140">
      <g id="text138" style="font-weight:bold;font-size:2.371px;font-family:'Proxima Nova';dominant-baseline:alphabetic;text-anchor:middle;fill:#331a00"/>
    </g>
    <line x1="67.730003" y1="23" x2="67.730003" y2="117" stroke="#331a00" stroke-width="0.35" id="line142"/>
    <g transform="translate(62.015,19.736)" id="g146">
      <circle cx="0" cy="0" r="1.0880001" fill="#331a00" stroke="none" stroke-width="0" id="circle144"/>
    </g>
    <g transform="translate(62.015,16.472)" id="g150">
      <g aria-label="3" id="text148" style="font-weight:bold;font-size:3.048px;font-family:'Proxima Nova';dominant-baseline:alphabetic;text-anchor:middle;fill:#331a00">
        <path d="M -0.83498534,-0.28956001 C -0.68563333,-0.10668 -0.40826533,0.036576 -0.03336131,0.036576 c 0.48768001,0 0.80162402,-0.24688801 0.80162402,-0.59740802 0,-0.30480001 -0.26822401,-0.46634398 -0.47548801,-0.48767998 0.225552,-0.039624 0.44500801,-0.207264 0.44500801,-0.463296 0,-0.3383281 -0.29260801,-0.5516881 -0.76809602,-0.5516881 -0.35661601,0 -0.61264802,0.13716 -0.77724003,0.323088 l 0.21336001,0.2682241 c 0.143256,-0.1371601 0.32004001,-0.2133601 0.51816002,-0.2133601 0.21336,0 0.37795201,0.082296 0.37795201,0.2438401 0,0.1524 -0.14935201,0.225552 -0.37490401,0.225552 -0.07924801,0 -0.21640801,0 -0.25298401,-0.00305 v 0.37795197 c 0.03048,-0.003048 0.16764,-0.003048 0.25298401,-0.003048 0.283464,0 0.40843201,0.0762 0.40843201,0.24079201 0,0.15544801 -0.13716001,0.26212801 -0.38404801,0.26212801 -0.19812001,0 -0.42062402,-0.085344 -0.56083202,-0.23164801 z" style="font-weight:bold;font-size:3.048px;font-family:'Proxima Nova';dominant-baseline:alphabetic;text-anchor:middle;fill:#331a00" id="path2341"/>
      </g>
    </g>
    <g transform="translate(62.015,30.041)" id="g154">
      <g id="text152" style="font-weight:bold;font-size:2.371px;font-family:'Proxima Nova';dominant-baseline:alphabetic;text-anchor:middle;fill:#331a00"/>
    </g>
    <g transform="translate(62.015,38.591)" id="g158">
      <g id="text156" style="font-weight:bold;font-size:2.371px;font-family:'Proxima Nova';dominant-baseline:alphabetic;text-anchor:middle;fill:#331a00"/>
    </g>
    <g transform="translate(62.015,57.033)" id="g162">
      <g id="text160" style="font-weight:bold;font-size:2.371px;font-family:'Proxima Nova';dominant-baseline:alphabetic;text-anchor:middle;fill:#331a00"/>
    </g>
    <g transform="translate(62.015,65.583)" id="g166">
      <g id="text164" style="font-weight:bold;font-size:2.371px;font-family:'Proxima Nova';dominant-baseline:alphabetic;text-anchor:middle;fill:#331a00"/>
    </g>
    <g transform="translate(62.015,80.003)" id="g170">
      <g id="text168" style="font-weight:bold;font-size:2.371px;font-family:'Proxima Nova';dominant-baseline:alphabetic;text-anchor:middle;fill:#331a00"/>
    </g>
    <g transform="translate(62.015,88.553)" id="g174">
      <g id="text172" style="font-weight:bold;font-size:2.371px;font-family:'Proxima Nova';dominant-baseline:alphabetic;text-anchor:middle;fill:#331a00"/>
    </g>
    <g transform="translate(62.015,98.953)" id="g178">
      <g id="text176" style="font-weight:bold;font-size:2.371px;font-family:'Proxima Nova';dominant-baseline:alphabetic;text-anchor:middle;fill:#331a00"/>
    </g>
    <g transform="translate(62.015,107.503)" id="g182">
      <g id="text180" style="font-weight:bold;font-size:2.371px;font-family:'Proxima Nova';dominant-baseline:alphabetic;text-anchor:middle;fill:#331a00"/>
    </g>
    <line x1="79.160004" y1="23" x2="79.160004" y2="117" stroke="#331a00" stroke-width="0.35" id="line184"/>
    <g transform="translate(73.445,19.736)" id="g188">
      <circle cx="0" cy="0" r="1.0880001" fill="#331a00" stroke="none" stroke-width="0" id="circle186"/>
    </g>
    <g transform="translate(73.445,16.472)" id="g192">
      <g aria-label="4" id="text190" style="font-weight:bold;font-size:3.048px;font-family:'Proxima Nova';dominant-baseline:alphabetic;text-anchor:middle;fill:#331a00">
        <path d="M 0.13768388,0 H 0.57049989 V -0.42062401 H 0.8326279 V -0.80162403 H 0.57049989 V -2.0330161 h -0.59740802 l -0.80772002,1.27101608 v 0.34137601 h 0.97231203 z m 0,-1.6489681 v 0.84734407 h -0.54864002 z" style="font-weight:bold;font-size:3.048px;font-family:'Proxima Nova';dominant-baseline:alphabetic;text-anchor:middle;fill:#331a00" id="path2352"/>
      </g>
    </g>
    <g transform="translate(73.445,30.041)" id="g196">
      <g id="text194" style="font-weight:bold;font-size:2.371px;font-family:'Proxima Nova';dominant-baseline:alphabetic;text-anchor:middle;fill:#331a00"/>
    </g>
    <g transform="translate(73.445,38.591)" id="g200">
      <g id="text198" style="font-weight:bold;font-size:2.371px;font-family:'Proxima Nova';dominant-baseline:alphabetic;text-anchor:middle;fill:#331a00"/>
    </g>
    <g transform="translate(73.445,57.033)" id="g204">
      <g id="text202" style="font-weight:bold;font-size:2.371px;font-family:'Proxima Nova';dominant-baseline:alphabetic;text-anchor:middle;fill:#331a00"/>
    </g>
    <g transform="translate(73.445,65.583)" id="g208">
      <g id="text206" style="font-weight:bold;font-size:2.371px;font-family:'Proxima Nova';dominant-baseline:alphabetic;text-anchor:middle;fill:#331a00"/>
    </g>
    <g transform="translate(73.445,80.003)" id="g212">
      <g id="text210" style="font-weight:bold;font-size:2.371px;font-family:'Proxima Nova';dominant-baseline:alphabetic;text-anchor:middle;fill:#331a00"/>
    </g>
    <g transform="translate(73.445,88.553)" id="g216">
      <g id="text214" style="font-weight:bold;font-size:2.371px;font-family:'Proxima Nova';dominant-baseline:alphabetic;text-anchor:middle;fill:#331a00"/>
    </g>
    <g transform="translate(73.445,98.953)" id="g220">
      <g id="text218" style="font-weight:bold;font-size:2.371px;font-family:'Proxima Nova';dominant-baseline:alphabetic;text-anchor:middle;fill:#331a00"/>
    </g>
    <g transform="translate(73.445,107.503)" id="g224">
      <g id="text222" style="font-weight:bold;font-size:2.371px;font-family:'Proxima Nova';dominant-baseline:alphabetic;text-anchor:middle;fill:#331a00"/>
    </g>
    <line x1="90.589996" y1="23" x2="90.589996" y2="117" stroke="#331a00" stroke-width="0.35" id="line226"/>
    <g transform="translate(84.875,19.736)" id="g230">
      <circle cx="0" cy="0" r="1.0880001" fill="#331a00" stroke="none" stroke-width="0" id="circle228"/>
    </g>
    <g transform="translate(84.875,16.472)" id="g234">
      <g aria-label="5" id="text232" style="font-weight:bold;font-size:3.048px;font-family:'Proxima Nova';dominant-baseline:alphabetic;text-anchor:middle;fill:#331a00">
        <path d="m -0.77635896,-0.26822401 c 0.173736,0.18897601 0.42976801,0.30480001 0.78333602,0.30480001 0.49072802,0 0.81381603,-0.27127201 0.81381603,-0.70104002 0,-0.41147998 -0.30784801,-0.65531998 -0.65227202,-0.65531998 -0.18592801,0 -0.35052001,0.073152 -0.45720002,0.16764 v -0.5090161 h 0.97231203 v -0.371856 h -1.39598404 v 1.16128807 l 0.30175201,0.082296 c 0.12192,-0.115824 0.25908001,-0.16764 0.42672001,-0.16764 0.23164801,0 0.36576001,0.124968 0.36576001,0.31089601 0,0.16764 -0.13716,0.30480001 -0.37795201,0.30480001 -0.21336,0 -0.40233601,-0.0762 -0.54254401,-0.21945601 z" style="font-weight:bold;font-size:3.048px;font-family:'Proxima Nova';dominant-baseline:alphabetic;text-anchor:middle;fill:#331a00" id="path2363"/>
      </g>
    </g>
    <g transform="translate(84.875,30.041)" id="g238">
      <g id="text236" style="font-weight:bold;font-size:2.371px;font-family:'Proxima Nova';dominant-baseline:alphabetic;text-anchor:middle;fill:#331a00"/>
    </g>
    <g transform="translate(84.875,38.591)" id="g242">
      <g id="text240" style="font-weight:bold;font-size:2.371px;font-family:'Proxima Nova';dominant-baseline:alphabetic;text-anchor:middle;fill:#331a00"/>
    </g>
    <g transform="translate(84.875,57.033)" id="g246">
      <g id="text244" style="font-weight:bold;font-size:2.371px;font-family:'Proxima Nova';dominant-baseline:alphabetic;text-anchor:middle;fill:#331a00"/>
    </g>
    <g transform="translate(84.875,65.583)" id="g250">
      <g id="text248" style="font-weight:bold;font-size:2.371px;font-family:'Proxima Nova';dominant-baseline:alphabetic;text-anchor:middle;fill:#331a00"/>
    </g>
    <g transform="translate(84.875,80.003)" id="g254">
      <g id="text252" style="font-weight:bold;font-size:2.371px;font-family:'Proxima Nova';dominant-baseline:alphabetic;text-anchor:middle;fill:#331a00"/>
    </g>
    <g transform="translate(84.875,88.553)" id="g258">
      <g id="text256" style="font-weight:bold;font-size:2.371px;font-family:'Proxima Nova';dominant-baseline:alphabetic;text-anchor:middle;fill:#331a00"/>
    </g>
    <g transform="translate(84.875,98.953)" id="g262">
      <g id="text260" style="font-weight:bold;font-size:2.371px;font-family:'Proxima Nova';dominant-baseline:alphabetic;text-anchor:middle;fill:#331a00"/>
    </g>
    <g transform="translate(84.875,107.503)" id="g266">
      <g id="text264" style="font-weight:bold;font-size:2.371px;font-family:'Proxima Nova';dominant-baseline:alphabetic;text-anchor:middle;fill:#331a00"/>
    </g>
    <line x1="102.02" y1="23" x2="102.02" y2="117" stroke="#331a00" stroke-width="0.35" id="line268"/>
    <g transform="translate(96.305,19.736)" id="g272">
      <circle cx="0" cy="0" r="1.0880001" fill="#331a00" stroke="none" stroke-width="0" id="circle270"/>
    </g>
    <g transform="translate(96.305,16.472)" id="g276">
      <g aria-label="6" id="text274" style="font-weight:bold;font-size:3.048px;font-family:'Proxima Nova';dominant-baseline:alphabetic;text-anchor:middle;fill:#331a00">
        <path d="m -0.82207896,-1.011936 c 0,0.57302399 0.25908,1.048512 0.87782402,1.048512 0.46329602,0 0.77724003,-0.30175201 0.77724003,-0.69799202 0,-0.43281598 -0.32613601,-0.65531998 -0.69189602,-0.65531998 -0.22250401,0 -0.42672002,0.12192 -0.52120802,0.25908 -0.003048,-0.012192 -0.003048,-0.027432 -0.003048,-0.042672 0,-0.323088 0.20116801,-0.5882641 0.50901602,-0.5882641 0.179832,0 0.29565601,0.057912 0.40538401,0.1615441 l 0.19507201,-0.3261361 c -0.14630401,-0.124968 -0.35356802,-0.210312 -0.60045602,-0.210312 -0.60045602,0 -0.94792803,0.435864 -0.94792803,1.0515601 z m 1.21615204,0.36880798 c 0,0.143256 -0.12496801,0.30175201 -0.35966402,0.30175201 -0.28651201,0 -0.39624001,-0.22555201 -0.41452801,-0.42062401 0.097536,-0.11887201 0.24384001,-0.19507201 0.39624001,-0.19507201 0.19812001,0 0.37795202,0.094488 0.37795202,0.31394401 z" style="font-weight:bold;font-size:3.048px;font-family:'Proxima Nova';dominant-baseline:alphabetic;text-anchor:middle;fill:#331a00" id="path2374"/>
      </g>
    </g>
    <g transform="translate(96.305,30.041)" id="g280">
      <g id="text278" style="font-weight:bold;font-size:2.371px;font-family:'Proxima Nova';dominant-baseline:alphabetic;text-anchor:middle;fill:#331a00"/>
    </g>
    <g transform="translate(96.305,38.591)" id="g284">
      <g id="text282" style="font-weight:bold;font-size:2.371px;font-family:'Proxima Nova';dominant-baseline:alphabetic;text-anchor:middle;fill:#331a00"/>
    </g>
    <g transform="translate(96.305,57.033)" id="g288">
      <g id="text286" style="font-weight:bold;font-size:2.371px;font-family:'Proxima Nova';dominant-baseline:alphabetic;text-anchor:middle;fill:#331a00"/>
    </g>
    <g transform="translate(96.305,65.583)" id="g292">
      <g id="text290" style="font-weight:bold;font-size:2.371px;font-family:'Proxima Nova';dominant-baseline:alphabetic;text-anchor:middle;fill:#331a00"/>
    </g>
    <g transform="translate(96.305,80.003)" id="g296">
      <g id="text294" style="font-weight:bold;font-size:2.371px;font-family:'Proxima Nova';dominant-baseline:alphabetic;text-anchor:middle;fill:#331a00"/>
    </g>
    <g transform="translate(96.305,88.553)" id="g300">
      <g id="text298" style="font-weight:bold;font-size:2.371px;font-family:'Proxima Nova';dominant-baseline:alphabetic;text-anchor:middle;fill:#331a00"/>
    </g>
    <g transform="translate(96.305,98.953)" id="g304">
      <g id="text302" style="font-weight:bold;font-size:2.371px;font-family:'Proxima Nova';dominant-baseline:alphabetic;text-anchor:middle;fill:#331a00"/>
    </g>
    <g transform="translate(96.305,107.503)" id="g308">
      <g id="text306" style="font-weight:bold;font-size:2.371px;font-family:'Proxima Nova';dominant-baseline:alphabetic;text-anchor:middle;fill:#331a00"/>
    </g>
    <line x1="113.45" y1="23" x2="113.45" y2="117" stroke="#331a00" stroke-width="0.35" id="line310"/>
    <g transform="translate(107.735,19.736)" id="g314">
      <circle cx="0" cy="0" r="1.0880001" fill="#331a00" stroke="none" stroke-width="0" id="circle312"/>
    </g>
    <g transform="translate(107.735,16.472)" id="g318">
      <g aria-label="7" id="text316" style="font-weight:bold;font-size:3.048px;font-family:'Proxima Nova';dominant-baseline:alphabetic;text-anchor:middle;fill:#331a00">
        <path d="m -0.46165295,0 h 0.47548801 l 0.75590403,-1.7312641 v -0.301752 h -1.52704805 v 0.381 h 1.02412803 z" style="font-weight:bold;font-size:3.048px;font-family:'Proxima Nova';dominant-baseline:alphabetic;text-anchor:middle;fill:#331a00" id="path2385"/>
      </g>
    </g>
    <g transform="translate(107.735,30.041)" id="g322">
      <g id="text320" style="font-weight:bold;font-size:2.371px;font-family:'Proxima Nova';dominant-baseline:alphabetic;text-anchor:middle;fill:#331a00"/>
    </g>
    <g transform="translate(107.735,38.591)" id="g326">
      <g id="text324" style="font-weight:bold;font-size:2.371px;font-family:'Proxima Nova';dominant-baseline:alphabetic;text-anchor:middle;fill:#331a00"/>
    </g>
    <g transform="translate(107.735,57.033)" id="g330">
      <g id="text328" style="font-weight:bold;font-size:2.371px;font-family:'Proxima Nova';dominant-baseline:alphabetic;text-anchor:middle;fill:#331a00"/>
    </g>
    <g transform="translate(107.735,65.583)" id="g334">
      <g id="text332" style="font-weight:bold;font-size:2.371px;font-family:'Proxima Nova';dominant-baseline:alphabetic;text-anchor:middle;fill:#331a00"/>
    </g>
    <g transform="translate(107.735,80.003)" id="g338">
      <g id="text336" style="font-weight:bold;font-size:2.371px;font-family:'Proxima Nova';dominant-baseline:alphabetic;text-anchor:middle;fill:#331a00"/>
    </g>
    <g transform="translate(107.735,88.553)" id="g342">
      <g id="text340" style="font-weight:bold;font-size:2.371px;font-family:'Proxima Nova';dominant-baseline:alphabetic;text-anchor:middle;fill:#331a00"/>
    </g>
    <g transform="translate(107.735,98.953)" id="g346">
      <g id="text344" style="font-weight:bold;font-size:2.371px;font-family:'Proxima Nova';dominant-baseline:alphabetic;text-anchor:middle;fill:#331a00"/>
    </g>
    <g transform="translate(107.735,107.503)" id="g350">
      <g id="text348" style="font-weight:bold;font-size:2.371px;font-family:'Proxima Nova';dominant-baseline:alphabetic;text-anchor:middle;fill:#331a00"/>
    </g>
    <line x1="124.88" y1="23" x2="124.88" y2="117" stroke="#331a00" stroke-width="0.35" id="line352"/>
    <g transform="translate(119.165,19.736)" id="g356">
      <circle cx="0" cy="0" r="1.0880001" fill="#331a00" stroke="none" stroke-width="0" id="circle354"/>
    </g>
    <g transform="translate(119.165,16.472)" id="g360">
      <g aria-label="8" id="text358" style="font-weight:bold;font-size:3.048px;font-family:'Proxima Nova';dominant-baseline:alphabetic;text-anchor:middle;fill:#331a00">
        <path d="m -0.8160544,-0.52730402 c 0,0.38100002 0.39014401,0.56388002 0.81686402503,0.56388002 0.42672001497,0 0.81686402497,-0.185928 0.81686402497,-0.56388002 0,-0.246888 -0.19507201,-0.43586401 -0.43891201,-0.52120798 0.225552,-0.0762 0.40538401,-0.225552 0.40538401,-0.478536 0,-0.3810001 -0.40843201,-0.5364481 -0.78333602497,-0.5364481 -0.37795201503,0 -0.78333602503,0.155448 -0.78333602503,0.5364481 0,0.252984 0.17678401,0.402336 0.40233601,0.478536 -0.24384,0.085344 -0.43586401,0.27431998 -0.43586401,0.52120798 z M 0.34218564,-1.459992 c 0,0.158496 -0.21640801,0.2286 -0.34137601497,0.246888 C -0.12415838,-1.231392 -0.34361439,-1.301496 -0.34361439,-1.459992 c 0,-0.1432561 0.14325601,-0.2316481 0.34442401503,-0.2316481 0.19812000497,0 0.34137601497,0.088392 0.34137601497,0.2316481 z m 0.036576,0.88087198 c 0,0.14935201 -0.17068801,0.24384001 -0.37795201497,0.24384001 -0.21336000503,0 -0.37795201503,-0.094488 -0.37795201503,-0.24384001 0,-0.176784 0.24993601,-0.26212801 0.37795201503,-0.27736801 C 0.12577763,-0.84124803 0.37876164,-0.75590402 0.37876164,-0.57912002 Z" style="font-weight:bold;font-size:3.048px;font-family:'Proxima Nova';dominant-baseline:alphabetic;text-anchor:middle;fill:#331a00" id="path2396"/>
      </g>
    </g>
    <g transform="translate(119.165,30.041)" id="g364">
      <g id="text362" style="font-weight:bold;font-size:2.371px;font-family:'Proxima Nova';dominant-baseline:alphabetic;text-anchor:middle;fill:#331a00"/>
    </g>
    <g transform="translate(119.165,38.591)" id="g368">
      <g id="text366" style="font-weight:bold;font-size:2.371px;font-family:'Proxima Nova';dominant-baseline:alphabetic;text-anchor:middle;fill:#331a00"/>
    </g>
    <g transform="translate(119.165,57.033)" id="g372">
      <g id="text370" style="font-weight:bold;font-size:2.371px;font-family:'Proxima Nova';dominant-baseline:alphabetic;text-anchor:middle;fill:#331a00"/>
    </g>
    <g transform="translate(119.165,65.583)" id="g376">
      <g id="text374" style="font-weight:bold;font-size:2.371px;font-family:'Proxima Nova';dominant-baseline:alphabetic;text-anchor:middle;fill:#331a00"/>
    </g>
    <g transform="translate(119.165,80.003)" id="g380">
      <g id="text378" style="font-weight:bold;font-size:2.371px;font-family:'Proxima Nova';dominant-baseline:alphabetic;text-anchor:middle;fill:#331a00"/>
    </g>
    <g transform="translate(119.165,88.553)" id="g384">
      <g id="text382" style="font-weight:bold;font-size:2.371px;font-family:'Proxima Nova';dominant-baseline:alphabetic;text-anchor:middle;fill:#331a00"/>
    </g>
    <g transform="translate(119.165,98.953)" id="g388">
      <g id="text386" style="font-weight:bold;font-size:2.371px;font-family:'Proxima Nova';dominant-baseline:alphabetic;text-anchor:middle;fill:#331a00"/>
    </g>
    <g transform="translate(119.165,107.503)" id="g392">
      <g id="text390" style="font-weight:bold;font-size:2.371px;font-family:'Proxima Nova';dominant-baseline:alphabetic;text-anchor:middle;fill:#331a00"/>
    </g>
    <line x1="136.31" y1="23" x2="136.31" y2="117" stroke="#331a00" stroke-width="0.35" id="line394"/>
    <g transform="translate(130.595,19.736)" id="g398">
      <circle cx="0" cy="0" r="1.0880001" fill="#331a00" stroke="none" stroke-width="0" id="circle396"/>
    </g>
    <g transform="translate(130.595,16.472)" id="g402">
      <g aria-label="9" id="text400" style="font-weight:bold;font-size:3.048px;font-family:'Proxima Nova';dominant-baseline:alphabetic;text-anchor:middle;fill:#331a00">
        <path d="m -0.72149496,-0.17678401 c 0.143256,0.12801601 0.35052001,0.21031201 0.59740802,0.21031201 0.60045602,0 0.94488003,-0.43586401 0.94488003,-1.048512 0,-0.5760721 -0.25908001,-1.0515601 -0.87477603,-1.0515601 -0.46329601,0 -0.78028802,0.301752 -0.78028802,0.6979921 0,0.43281597 0.32918401,0.65836798 0.69494402,0.65836798 0.22250401,0 0.42672001,-0.12496801 0.52425601,-0.26212801 v 0.042672 c 0,0.30784801 -0.18288,0.58521602 -0.50901601,0.58521602 -0.17983201,0 -0.29565601,-0.054864 -0.40538401,-0.15544801 z M 0.37883307,-1.26492 c -0.094488,0.118872 -0.24384,0.188976 -0.39624001,0.188976 -0.195072,0 -0.37490401,-0.094488 -0.37490401,-0.310896 0,-0.143256 0.124968,-0.3048001 0.35661601,-0.3048001 0.28956001,0 0.39928801,0.2316481 0.41452801,0.4267201 z" style="font-weight:bold;font-size:3.048px;font-family:'Proxima Nova';dominant-baseline:alphabetic;text-anchor:middle;fill:#331a00" id="path2407"/>
      </g>
    </g>
    <g transform="translate(130.595,30.041)" id="g406">
      <g id="text404" style="font-weight:bold;font-size:2.371px;font-family:'Proxima Nova';dominant-baseline:alphabetic;text-anchor:middle;fill:#331a00"/>
    </g>
    <g transform="translate(130.595,38.591)" id="g410">
      <g id="text408" style="font-weight:bold;font-size:2.371px;font-family:'Proxima Nova';dominant-baseline:alphabetic;text-anchor:middle;fill:#331a00"/>
    </g>
    <g transform="translate(130.595,57.033)" id="g414">
      <g id="text412" style="font-weight:bold;font-size:2.371px;font-family:'Proxima Nova';dominant-baseline:alphabetic;text-anchor:middle;fill:#331a00"/>
    </g>
    <g transform="translate(130.595,65.583)" id="g418">
      <g id="text416" style="font-weight:bold;font-size:2.371px;font-family:'Proxima Nova';dominant-baseline:alphabetic;text-anchor:middle;fill:#331a00"/>
    </g>
    <g transform="translate(130.595,80.003)" id="g422">
      <g id="text420" style="font-weight:bold;font-size:2.371px;font-family:'Proxima Nova';dominant-baseline:alphabetic;text-anchor:middle;fill:#331a00"/>
    </g>
    <g transform="translate(130.595,88.553)" id="g426">
      <g id="text424" style="font-weight:bold;font-size:2.371px;font-family:'Proxima Nova';dominant-baseline:alphabetic;text-anchor:middle;fill:#331a00"/>
    </g>
    <g transform="translate(130.595,98.953)" id="g430">
      <g id="text428" style="font-weight:bold;font-size:2.371px;font-family:'Proxima Nova';dominant-baseline:alphabetic;text-anchor:middle;fill:#331a00"/>
    </g>
    <g transform="translate(130.595,107.503)" id="g434">
      <g id="text432" style="font-weight:bold;font-size:2.371px;font-family:'Proxima Nova';dominant-baseline:alphabetic;text-anchor:middle;fill:#331a00"/>
    </g>
    <line x1="147.74001" y1="23" x2="147.74001" y2="117" stroke="#331a00" stroke-width="0.35" id="line436"/>
    <g transform="translate(142.025,19.736)" id="g440">
      <circle cx="0" cy="0" r="1.0880001" fill="#331a00" stroke="none" stroke-width="0" id="circle438"/>
    </g>
    <g transform="translate(142.025,16.472)" id="g444">
      <g aria-label="10" id="text442" style="font-weight:bold;font-size:3.048px;font-family:'Proxima Nova';dominant-baseline:alphabetic;text-anchor:middle;fill:#331a00">
        <path d="m -0.95295247,0 h 0.43586402 v -2.0330161 h -0.37795202 l -0.64008003,0.6431281 0.246888,0.25908 0.33528003,-0.344424 z" style="font-weight:bold;font-size:3.048px;font-family:'Proxima Nova';dominant-baseline:alphabetic;text-anchor:middle;fill:#331a00" id="path2418"/>
        <path d="m -0.2148602,-1.014984 c 0,0.52425598 0.25908001,1.05156 0.84124803,1.05156 0.57911997,0 0.84124807,-0.52730402 0.84124807,-1.05156 0,-0.524256 -0.2621281,-1.0485121 -0.84124807,-1.0485121 -0.58216802,0 -0.84124803,0.5242561 -0.84124803,1.0485121 z m 1.240536,0 c 0,0.37490398 -0.10972796,0.66751199 -0.39928797,0.66751199 -0.29260801,0 -0.40233602,-0.29260801 -0.40233602,-0.66751199 0,-0.374904 0.10972801,-0.6644641 0.40233602,-0.6644641 0.28956001,0 0.39928797,0.2895601 0.39928797,0.6644641 z" style="font-weight:bold;font-size:3.048px;font-family:'Proxima Nova';dominant-baseline:alphabetic;text-anchor:middle;fill:#331a00" id="path2420"/>
      </g>
    </g>
    <g transform="translate(142.025,30.041)" id="g448">
      <g id="text446" style="font-weight:bold;font-size:2.371px;font-family:'Proxima Nova';dominant-baseline:alphabetic;text-anchor:middle;fill:#331a00"/>
    </g>
    <g transform="translate(142.025,38.591)" id="g452">
      <g id="text450" style="font-weight:bold;font-size:2.371px;font-family:'Proxima Nova';dominant-baseline:alphabetic;text-anchor:middle;fill:#331a00"/>
    </g>
    <g transform="translate(142.025,57.033)" id="g456">
      <g id="text454" style="font-weight:bold;font-size:2.371px;font-family:'Proxima Nova';dominant-baseline:alphabetic;text-anchor:middle;fill:#331a00"/>
    </g>
    <g transform="translate(142.025,65.583)" id="g460">
      <g id="text458" style="font-weight:bold;font-size:2.371px;font-family:'Proxima Nova';dominant-baseline:alphabetic;text-anchor:middle;fill:#331a00"/>
    </g>
    <g transform="translate(142.025,80.003)" id="g464">
      <g id="text462" style="font-weight:bold;font-size:2.371px;font-family:'Proxima Nova';dominant-baseline:alphabetic;text-anchor:middle;fill:#331a00"/>
    </g>
    <g transform="translate(142.025,88.553)" id="g468">
      <g id="text466" style="font-weight:bold;font-size:2.371px;font-family:'Proxima Nova';dominant-baseline:alphabetic;text-anchor:middle;fill:#331a00"/>
    </g>
    <g transform="translate(142.025,98.953)" id="g472">
      <g id="text470" style="font-weight:bold;font-size:2.371px;font-family:'Proxima Nova';dominant-baseline:alphabetic;text-anchor:middle;fill:#331a00"/>
    </g>
    <g transform="translate(142.025,107.503)" id="g476">
      <g id="text474" style="font-weight:bold;font-size:2.371px;font-family:'Proxima Nova';dominant-baseline:alphabetic;text-anchor:middle;fill:#331a00"/>
    </g>
    <line x1="159.17" y1="23" x2="159.17" y2="117" stroke="#331a00" stroke-width="0.35" id="line478"/>
    <g transform="translate(153.455,19.736)" id="g482">
      <circle cx="0" cy="0" r="1.0880001" fill="#331a00" stroke="none" stroke-width="0" id="circle480"/>
    </g>
    <g transform="translate(153.455,16.472)" id="g486">
      <g aria-label="11" id="text484" style="font-weight:bold;font-size:3.048px;font-family:'Proxima Nova';dominant-baseline:alphabetic;text-anchor:middle;fill:#331a00">
        <path d="m -0.63446027,0 h 0.43586401 v -2.0330161 h -0.37795201 l -0.64008003,0.6431281 0.24688802,0.25908 0.33528001,-0.344424 z" style="font-weight:bold;font-size:3.048px;font-family:'Proxima Nova';dominant-baseline:alphabetic;text-anchor:middle;fill:#331a00" id="path2431"/>
        <path d="M 0.61569601,0 H 1.05156 V -2.0330161 H 0.67360801 L 0.03352799,-1.389888 0.280416,-1.130808 0.61569601,-1.475232 Z" style="font-weight:bold;font-size:3.048px;font-family:'Proxima Nova';dominant-baseline:alphabetic;text-anchor:middle;fill:#331a00" id="path2433"/>
      </g>
    </g>
    <g transform="translate(153.455,30.041)" id="g490">
      <g id="text488" style="font-weight:bold;font-size:2.371px;font-family:'Proxima Nova';dominant-baseline:alphabetic;text-anchor:middle;fill:#331a00"/>
    </g>
    <g transform="translate(153.455,38.591)" id="g494">
      <g id="text492" style="font-weight:bold;font-size:2.371px;font-family:'Proxima Nova';dominant-baseline:alphabetic;text-anchor:middle;fill:#331a00"/>
    </g>
    <g transform="translate(153.455,57.033)" id="g498">
      <g id="text496" style="font-weight:bold;font-size:2.371px;font-family:'Proxima Nova';dominant-baseline:alphabetic;text-anchor:middle;fill:#331a00"/>
    </g>
    <g transform="translate(153.455,65.583)" id="g502">
      <g id="text500" style="font-weight:bold;font-size:2.371px;font-family:'Proxima Nova';dominant-baseline:alphabetic;text-anchor:middle;fill:#331a00"/>
    </g>
    <g transform="translate(153.455,80.003)" id="g506">
      <g id="text504" style="font-weight:bold;font-size:2.371px;font-family:'Proxima Nova';dominant-baseline:alphabetic;text-anchor:middle;fill:#331a00"/>
    </g>
    <g transform="translate(153.455,88.553)" id="g510">
      <g id="text508" style="font-weight:bold;font-size:2.371px;font-family:'Proxima Nova';dominant-baseline:alphabetic;text-anchor:middle;fill:#331a00"/>
    </g>
    <g transform="translate(153.455,98.953)" id="g514">
      <g id="text512" style="font-weight:bold;font-size:2.371px;font-family:'Proxima Nova';dominant-baseline:alphabetic;text-anchor:middle;fill:#331a00"/>
    </g>
    <g transform="translate(153.455,107.503)" id="g518">
      <g id="text516" style="font-weight:bold;font-size:2.371px;font-family:'Proxima Nova';dominant-baseline:alphabetic;text-anchor:middle;fill:#331a00"/>
    </g>
    <line x1="170.60001" y1="23" x2="170.60001" y2="117" stroke="#331a00" stroke-width="0.35" id="line520"/>
    <g transform="translate(164.885,19.736)" id="g524">
      <circle cx="0" cy="0" r="1.0880001" fill="#331a00" stroke="none" stroke-width="0" id="circle522"/>
    </g>
    <g transform="translate(164.885,16.472)" id="g528">
      <g aria-label="12" id="text526" style="font-weight:bold;font-size:3.048px;font-family:'Proxima Nova';dominant-baseline:alphabetic;text-anchor:middle;fill:#331a00">
        <path d="m -0.92318684,0 h 0.43586401 v -2.0330161 h -0.37795201 l -0.64008006,0.6431281 0.246888,0.25908 0.33528006,-0.344424 z" style="font-weight:bold;font-size:3.048px;font-family:'Proxima Nova';dominant-baseline:alphabetic;text-anchor:middle;fill:#331a00" id="path2444"/>
        <path d="M -0.14547057,0 H 1.3846255 V -0.38100001 H 0.53728145 C 1.0828735,-0.76504802 1.3693855,-1.0668 1.3693855,-1.414272 c 0,-0.4053841 -0.344424,-0.6492241 -0.77724005,-0.6492241 -0.28346401,0 -0.58521602,0.103632 -0.78333603,0.332232 l 0.24688801,0.2865121 c 0.13716001,-0.1432561 0.31394401,-0.2346961 0.54254402,-0.2346961 0.17068801,0 0.33223201,0.088392 0.33223201,0.2651761 0,0.249936 -0.24384001,0.46024797 -1.07594403,1.07289599 z" style="font-weight:bold;font-size:3.048px;font-family:'Proxima Nova';dominant-baseline:alphabetic;text-anchor:middle;fill:#331a00" id="path2446"/>
      </g>
    </g>
    <g transform="translate(164.885,30.041)" id="g532">
      <g id="text530" style="font-weight:bold;font-size:2.371px;font-family:'Proxima Nova';dominant-baseline:alphabetic;text-anchor:middle;fill:#331a00"/>
    </g>
    <g transform="translate(164.885,38.591)" id="g536">
      <g id="text534" style="font-weight:bold;font-size:2.371px;font-family:'Proxima Nova';dominant-baseline:alphabetic;text-anchor:middle;fill:#331a00"/>
    </g>
    <g transform="translate(164.885,57.033)" id="g540">
      <g id="text538" style="font-weight:bold;font-size:2.371px;font-family:'Proxima Nova';dominant-baseline:alphabetic;text-anchor:middle;fill:#331a00"/>
    </g>
    <g transform="translate(164.885,65.583)" id="g544">
      <g id="text542" style="font-weight:bold;font-size:2.371px;font-family:'Proxima Nova';dominant-baseline:alphabetic;text-anchor:middle;fill:#331a00"/>
    </g>
    <g transform="translate(164.885,80.003)" id="g548">
      <g id="text546" style="font-weight:bold;font-size:2.371px;font-family:'Proxima Nova';dominant-baseline:alphabetic;text-anchor:middle;fill:#331a00"/>
    </g>
    <g transform="translate(164.885,88.553)" id="g552">
      <g id="text550" style="font-weight:bold;font-size:2.371px;font-family:'Proxima Nova';dominant-baseline:alphabetic;text-anchor:middle;fill:#331a00"/>
    </g>
    <g transform="translate(164.885,98.953)" id="g556">
      <g id="text554" style="font-weight:bold;font-size:2.371px;font-family:'Proxima Nova';dominant-baseline:alphabetic;text-anchor:middle;fill:#331a00"/>
    </g>
    <g transform="translate(164.885,107.503)" id="g560">
      <g id="text558" style="font-weight:bold;font-size:2.371px;font-family:'Proxima Nova';dominant-baseline:alphabetic;text-anchor:middle;fill:#331a00"/>
    </g>
    <line x1="182.03" y1="23" x2="182.03" y2="117" stroke="#331a00" stroke-width="0.35" id="line562"/>
    <g transform="translate(176.315,19.736)" id="g566">
      <circle cx="0" cy="0" r="1.0880001" fill="#331a00" stroke="none" stroke-width="0" id="circle564"/>
    </g>
    <g transform="translate(176.315,16.472)" id="g570">
      <g aria-label="13" id="text568" style="font-weight:bold;font-size:3.048px;font-family:'Proxima Nova';dominant-baseline:alphabetic;text-anchor:middle;fill:#331a00">
        <path d="m -0.90532747,0 h 0.43586402 v -2.0330161 h -0.37795201 l -0.64008004,0.6431281 0.246888,0.25908 0.33528003,-0.344424 z" style="font-weight:bold;font-size:3.048px;font-family:'Proxima Nova';dominant-baseline:alphabetic;text-anchor:middle;fill:#331a00" id="path2457"/>
        <path d="M -0.2099072,-0.28956001 C -0.0605552,-0.10668 0.21681281,0.036576 0.59171682,0.036576 c 0.48767998,0 0.80162408,-0.24688801 0.80162408,-0.59740802 0,-0.30480001 -0.2682241,-0.46634398 -0.47548806,-0.48767998 0.22555196,-0.039624 0.44500796,-0.207264 0.44500796,-0.463296 0,-0.3383281 -0.292608,-0.5516881 -0.76809598,-0.5516881 -0.35661601,0 -0.61264801,0.13716 -0.77724002,0.323088 l 0.21336001,0.2682241 c 0.143256,-0.1371601 0.32004001,-0.2133601 0.51816001,-0.2133601 0.21336001,0 0.37795202,0.082296 0.37795202,0.2438401 0,0.1524 -0.14935201,0.225552 -0.37490402,0.225552 -0.079248,0 -0.216408,0 -0.252984,-0.00305 v 0.37795197 c 0.03048,-0.003048 0.16764,-0.003048 0.252984,-0.003048 0.28346401,0 0.40843202,0.0762 0.40843202,0.24079201 0,0.15544801 -0.13716001,0.26212801 -0.38404802,0.26212801 -0.19812,0 -0.42062401,-0.085344 -0.56083201,-0.23164801 z" style="font-weight:bold;font-size:3.048px;font-family:'Proxima Nova';dominant-baseline:alphabetic;text-anchor:middle;fill:#331a00" id="path2459"/>
      </g>
    </g>
    <g transform="translate(176.315,30.041)" id="g574">
      <g id="text572" style="font-weight:bold;font-size:2.371px;font-family:'Proxima Nova';dominant-baseline:alphabetic;text-anchor:middle;fill:#331a00"/>
    </g>
    <g transform="translate(176.315,38.591)" id="g578">
      <g id="text576" style="font-weight:bold;font-size:2.371px;font-family:'Proxima Nova';dominant-baseline:alphabetic;text-anchor:middle;fill:#331a00"/>
    </g>
    <g transform="translate(176.315,57.033)" id="g582">
      <g id="text580" style="font-weight:bold;font-size:2.371px;font-family:'Proxima Nova';dominant-baseline:alphabetic;text-anchor:middle;fill:#331a00"/>
    </g>
    <g transform="translate(176.315,65.583)" id="g586">
      <g id="text584" style="font-weight:bold;font-size:2.371px;font-family:'Proxima Nova';dominant-baseline:alphabetic;text-anchor:middle;fill:#331a00"/>
    </g>
    <g transform="translate(176.315,80.003)" id="g590">
      <g id="text588" style="font-weight:bold;font-size:2.371px;font-family:'Proxima Nova';dominant-baseline:alphabetic;text-anchor:middle;fill:#331a00"/>
    </g>
    <g transform="translate(176.315,88.553)" id="g594">
      <g id="text592" style="font-weight:bold;font-size:2.371px;font-family:'Proxima Nova';dominant-baseline:alphabetic;text-anchor:middle;fill:#331a00"/>
    </g>
    <g transform="translate(176.315,98.953)" id="g598">
      <g id="text596" style="font-weight:bold;font-size:2.371px;font-family:'Proxima Nova';dominant-baseline:alphabetic;text-anchor:middle;fill:#331a00"/>
    </g>
    <g transform="translate(176.315,107.503)" id="g602">
      <g id="text600" style="font-weight:bold;font-size:2.371px;font-family:'Proxima Nova';dominant-baseline:alphabetic;text-anchor:middle;fill:#331a00"/>
    </g>
    <line x1="193.46001" y1="23" x2="193.46001" y2="117" stroke="#331a00" stroke-width="0.35" id="line604"/>
    <g transform="translate(187.745,19.736)" id="g608">
      <circle cx="0" cy="0" r="1.0880001" fill="#331a00" stroke="none" stroke-width="0" id="circle606"/>
    </g>
    <g transform="translate(187.745,16.472)" id="g612">
      <g aria-label="14" id="text610" style="font-weight:bold;font-size:3.048px;font-family:'Proxima Nova';dominant-baseline:alphabetic;text-anchor:middle;fill:#331a00">
        <path d="m -0.92021028,0 h 0.43586401 v -2.0330161 h -0.37795201 l -0.64008002,0.6431281 0.246888,0.25908 0.33528002,-0.344424 z" style="font-weight:bold;font-size:3.048px;font-family:'Proxima Nova';dominant-baseline:alphabetic;text-anchor:middle;fill:#331a00" id="path2470"/>
        <path d="M 0.76276202,0 H 1.195578 V -0.42062401 H 1.457706 V -0.80162403 H 1.195578 V -2.0330161 H 0.59817001 l -0.80772002,1.27101608 v 0.34137601 h 0.97231203 z m 0,-1.6489681 v 0.84734407 H 0.214122 Z" style="font-weight:bold;font-size:3.048px;font-family:'Proxima Nova';dominant-baseline:alphabetic;text-anchor:middle;fill:#331a00" id="path2472"/>
      </g>
    </g>
    <g transform="translate(187.745,30.041)" id="g616">
      <g id="text614" style="font-weight:bold;font-size:2.371px;font-family:'Proxima Nova';dominant-baseline:alphabetic;text-anchor:middle;fill:#331a00"/>
    </g>
    <g transform="translate(187.745,38.591)" id="g620">
      <g id="text618" style="font-weight:bold;font-size:2.371px;font-family:'Proxima Nova';dominant-baseline:alphabetic;text-anchor:middle;fill:#331a00"/>
    </g>
    <g transform="translate(187.745,57.033)" id="g624">
      <g id="text622" style="font-weight:bold;font-size:2.371px;font-family:'Proxima Nova';dominant-baseline:alphabetic;text-anchor:middle;fill:#331a00"/>
    </g>
    <g transform="translate(187.745,65.583)" id="g628">
      <g id="text626" style="font-weight:bold;font-size:2.371px;font-family:'Proxima Nova';dominant-baseline:alphabetic;text-anchor:middle;fill:#331a00"/>
    </g>
    <g transform="translate(187.745,80.003)" id="g632">
      <g id="text630" style="font-weight:bold;font-size:2.371px;font-family:'Proxima Nova';dominant-baseline:alphabetic;text-anchor:middle;fill:#331a00"/>
    </g>
    <g transform="translate(187.745,88.553)" id="g636">
      <g id="text634" style="font-weight:bold;font-size:2.371px;font-family:'Proxima Nova';dominant-baseline:alphabetic;text-anchor:middle;fill:#331a00"/>
    </g>
    <g transform="translate(187.745,98.953)" id="g640">
      <g id="text638" style="font-weight:bold;font-size:2.371px;font-family:'Proxima Nova';dominant-baseline:alphabetic;text-anchor:middle;fill:#331a00"/>
    </g>
    <g transform="translate(187.745,107.503)" id="g644">
      <g id="text642" style="font-weight:bold;font-size:2.371px;font-family:'Proxima Nova';dominant-baseline:alphabetic;text-anchor:middle;fill:#331a00"/>
    </g>
    <line x1="204.89" y1="23" x2="204.89" y2="117" stroke="#331a00" stroke-width="0.35" id="line646"/>
    <g transform="translate(199.175,19.736)" id="g650">
      <circle cx="0" cy="0" r="1.0880001" fill="#331a00" stroke="none" stroke-width="0" id="circle648"/>
    </g>
    <g transform="translate(199.175,16.472)" id="g654">
      <g aria-label="15" id="text652" style="font-weight:bold;font-size:3.048px;font-family:'Proxima Nova';dominant-baseline:alphabetic;text-anchor:middle;fill:#331a00">
        <path d="m -0.93509309,0 h 0.43586401 v -2.0330161 h -0.37795201 l -0.64008001,0.6431281 0.246888,0.25908 0.33528001,-0.344424 z" style="font-weight:bold;font-size:3.048px;font-family:'Proxima Nova';dominant-baseline:alphabetic;text-anchor:middle;fill:#331a00" id="path2483"/>
        <path d="M -0.15128082,-0.26822401 C 0.02245518,-0.079248 0.27848719,0.036576 0.6320552,0.036576 c 0.490728,0 0.813816,-0.27127201 0.813816,-0.70104002 0,-0.41147998 -0.307848,-0.65531998 -0.65227199,-0.65531998 -0.18592801,0 -0.35052001,0.073152 -0.45720002,0.16764 V -1.6611601 H 1.3087112 v -0.371856 h -1.39598402 v 1.16128807 l 0.30175201,0.082296 c 0.12192,-0.115824 0.25908001,-0.16764 0.42672001,-0.16764 0.23164801,0 0.36576,0.124968 0.36576,0.31089601 0,0.16764 -0.13715999,0.30480001 -0.377952,0.30480001 -0.21336001,0 -0.40233601,-0.0762 -0.54254402,-0.21945601 z" style="font-weight:bold;font-size:3.048px;font-family:'Proxima Nova';dominant-baseline:alphabetic;text-anchor:middle;fill:#331a00" id="path2485"/>
      </g>
    </g>
    <g transform="translate(199.175,30.041)" id="g658">
      <g id="text656" style="font-weight:bold;font-size:2.371px;font-family:'Proxima Nova';dominant-baseline:alphabetic;text-anchor:middle;fill:#331a00"/>
    </g>
    <g transform="translate(199.175,38.591)" id="g662">
      <g id="text660" style="font-weight:bold;font-size:2.371px;font-family:'Proxima Nova';dominant-baseline:alphabetic;text-anchor:middle;fill:#331a00"/>
    </g>
    <g transform="translate(199.175,57.033)" id="g666">
      <g id="text664" style="font-weight:bold;font-size:2.371px;font-family:'Proxima Nova';dominant-baseline:alphabetic;text-anchor:middle;fill:#331a00"/>
    </g>
    <g transform="translate(199.175,65.583)" id="g670">
      <g id="text668" style="font-weight:bold;font-size:2.371px;font-family:'Proxima Nova';dominant-baseline:alphabetic;text-anchor:middle;fill:#331a00"/>
    </g>
    <g transform="translate(199.175,80.003)" id="g674">
      <g id="text672" style="font-weight:bold;font-size:2.371px;font-family:'Proxima Nova';dominant-baseline:alphabetic;text-anchor:middle;fill:#331a00"/>
    </g>
    <g transform="translate(199.175,88.553)" id="g678">
      <g id="text676" style="font-weight:bold;font-size:2.371px;font-family:'Proxima Nova';dominant-baseline:alphabetic;text-anchor:middle;fill:#331a00"/>
    </g>
    <g transform="translate(199.175,98.953)" id="g682">
      <g id="text680" style="font-weight:bold;font-size:2.371px;font-family:'Proxima Nova';dominant-baseline:alphabetic;text-anchor:middle;fill:#331a00"/>
    </g>
    <g transform="translate(199.175,107.503)" id="g686">
      <g id="text684" style="font-weight:bold;font-size:2.371px;font-family:'Proxima Nova';dominant-baseline:alphabetic;text-anchor:middle;fill:#331a00"/>
    </g>
    <line x1="216.32001" y1="23" x2="216.32001" y2="117" stroke="#331a00" stroke-width="0.35" id="line688"/>
    <g transform="translate(210.605,19.736)" id="g692">
      <circle cx="0" cy="0" r="1.0880001" fill="#331a00" stroke="none" stroke-width="0" id="circle690"/>
    </g>
    <g transform="translate(210.605,16.472)" id="g696">
      <g aria-label="16" id="text694" style="font-weight:bold;font-size:3.048px;font-family:'Proxima Nova';dominant-baseline:alphabetic;text-anchor:middle;fill:#331a00">
        <path d="m -0.93509309,0 h 0.43586401 v -2.0330161 h -0.37795201 l -0.64008001,0.6431281 0.246888,0.25908 0.33528001,-0.344424 z" style="font-weight:bold;font-size:3.048px;font-family:'Proxima Nova';dominant-baseline:alphabetic;text-anchor:middle;fill:#331a00" id="path2496"/>
        <path d="m -0.19700083,-1.011936 c 0,0.57302399 0.25908001,1.048512 0.87782403,1.048512 0.463296,0 0.77724,-0.30175201 0.77724,-0.69799202 0,-0.43281598 -0.326136,-0.65531998 -0.69189599,-0.65531998 -0.22250401,0 -0.42672002,0.12192 -0.52120802,0.25908 -0.003048,-0.012192 -0.003048,-0.027432 -0.003048,-0.042672 0,-0.323088 0.20116801,-0.5882641 0.50901601,-0.5882641 0.17983201,0 0.295656,0.057912 0.405384,0.1615441 l 0.195072,-0.3261361 c -0.146304,-0.124968 -0.35356799,-0.210312 -0.600456,-0.210312 -0.60045601,0 -0.94792803,0.435864 -0.94792803,1.0515601 z m 1.21615203,0.36880798 c 0,0.143256 -0.12496799,0.30175201 -0.359664,0.30175201 -0.28651201,0 -0.39624001,-0.22555201 -0.41452801,-0.42062401 0.097536,-0.11887201 0.24384001,-0.19507201 0.39624001,-0.19507201 0.19812001,0 0.377952,0.094488 0.377952,0.31394401 z" style="font-weight:bold;font-size:3.048px;font-family:'Proxima Nova';dominant-baseline:alphabetic;text-anchor:middle;fill:#331a00" id="path2498"/>
      </g>
    </g>
    <g transform="translate(210.605,30.041)" id="g700">
      <g id="text698" style="font-weight:bold;font-size:2.371px;font-family:'Proxima Nova';dominant-baseline:alphabetic;text-anchor:middle;fill:#331a00"/>
    </g>
    <g transform="translate(210.605,38.591)" id="g704">
      <g id="text702" style="font-weight:bold;font-size:2.371px;font-family:'Proxima Nova';dominant-baseline:alphabetic;text-anchor:middle;fill:#331a00"/>
    </g>
    <g transform="translate(210.605,57.033)" id="g708">
      <g id="text706" style="font-weight:bold;font-size:2.371px;font-family:'Proxima Nova';dominant-baseline:alphabetic;text-anchor:middle;fill:#331a00"/>
    </g>
    <g transform="translate(210.605,65.583)" id="g712">
      <g id="text710" style="font-weight:bold;font-size:2.371px;font-family:'Proxima Nova';dominant-baseline:alphabetic;text-anchor:middle;fill:#331a00"/>
    </g>
    <g transform="translate(210.605,80.003)" id="g716">
      <g id="text714" style="font-weight:bold;font-size:2.371px;font-family:'Proxima Nova';dominant-baseline:alphabetic;text-anchor:middle;fill:#331a00"/>
    </g>
    <g transform="translate(210.605,88.553)" id="g720">
      <g id="text718" style="font-weight:bold;font-size:2.371px;font-family:'Proxima Nova';dominant-baseline:alphabetic;text-anchor:middle;fill:#331a00"/>
    </g>
    <g transform="translate(210.605,98.953)" id="g724">
      <g id="text722" style="font-weight:bold;font-size:2.371px;font-family:'Proxima Nova';dominant-baseline:alphabetic;text-anchor:middle;fill:#331a00"/>
    </g>
    <g transform="translate(210.605,107.503)" id="g728">
      <g id="text726" style="font-weight:bold;font-size:2.371px;font-family:'Proxima Nova';dominant-baseline:alphabetic;text-anchor:middle;fill:#331a00"/>
    </g>
    <g transform="translate(227.54,34.791)" id="g732">
      <g aria-label="BI" id="text730" style="font-weight:bold;font-size:2.371px;font-family:'Proxima Nova';dominant-baseline:hanging;text-anchor:middle;fill:#331a00">
        <path d="m -0.95260484,1.609472 h 0.85830202 c 0.301117,0 0.45997401,-0.18968 0.45997401,-0.42678 0,-0.19916404 -0.13514701,-0.36276304 -0.30348801,-0.38884404 0.149373,-0.030823 0.27266501,-0.163599 0.27266501,-0.36276301 0,-0.211019 -0.15411501,-0.40307001 -0.45523201,-0.40307001 H -0.95260484 Z M -0.61592283,0.66344296 V 0.31490595 h 0.42203801 c 0.113808,0 0.184938,0.075872 0.184938,0.173083 0,0.101953 -0.07113,0.17545401 -0.184938,0.17545401 z m 0,0.65913804 V 0.95033396 h 0.43389301 c 0.132776,0 0.203906,0.085356 0.203906,0.18493804 0,0.113808 -0.075872,0.187309 -0.203906,0.187309 z" style="font-weight:bold;font-size:2.371px;font-family:'Proxima Nova';dominant-baseline:hanging;text-anchor:middle;fill:#331a00" id="path2509"/>
        <path d="M 0.61725657,1.609472 H 0.95393858 V 0.02801494 H 0.61725657 Z" style="font-weight:bold;font-size:2.371px;font-family:'Proxima Nova';dominant-baseline:hanging;text-anchor:middle;fill:#331a00" id="path2511"/>
      </g>
    </g>
    <g transform="translate(227.54,26.791)" id="g736">
      <g aria-label="UNI" id="text734" style="font-weight:bold;font-size:2.371px;font-family:'Proxima Nova';dominant-baseline:alphabetic;text-anchor:middle;fill:#331a00">
        <path d="m -1.8949847,-0.63068601 c 0,0.388844 0.225245,0.65913801 0.708929,0.65913801 0.47894198,0 0.70418699,-0.26792301 0.70418699,-0.66150901 V -1.581457 h -0.34142401 v 0.93891599 c 0,0.220503 -0.120921,0.372247 -0.36276298,0.372247 -0.246584,0 -0.367505,-0.151744 -0.367505,-0.372247 V -1.581457 h -0.341424 z" style="font-weight:bold;font-size:2.371px;font-family:'Proxima Nova';dominant-baseline:alphabetic;text-anchor:middle;fill:#331a00" id="path2514"/>
        <path d="M 0.92298582,0 H 1.2478128 V -1.581457 H 0.91113082 v 1.02427199 L 0.1784918,-1.581457 H -0.16767421 V 0 H 0.1690078 v -1.062208 z" style="font-weight:bold;font-size:2.371px;font-family:'Proxima Nova';dominant-baseline:alphabetic;text-anchor:middle;fill:#331a00" id="path2516"/>
        <path d="m 1.5596363,0 h 0.336682 v -1.581457 h -0.336682 z" style="font-weight:bold;font-size:2.371px;font-family:'Proxima Nova';dominant-baseline:alphabetic;text-anchor:middle;fill:#331a00" id="path2518"/>
      </g>
    </g>
    <rect x="222.34" y="63.514999" width="10.4" height="12.98" fill="#331a00" stroke="#331a00" stroke-width="0.35" rx="1" ry="1" id="rect738"/>
    <g transform="translate(227.54,66.095)" id="g742">
      <g aria-label="STEP #" id="text740" style="font-weight:bold;font-size:2.371px;font-family:'Proxima Nova';dominant-baseline:alphabetic;text-anchor:middle;fill:#efedeb">
        <path d="m -3.8100859,-0.222874 c 0.149373,0.149373 0.367505,0.251326 0.670993,0.251326 0.42678,0 0.633057,-0.218132 0.633057,-0.50739401 0,-0.35090801 -0.33194,-0.42915101 -0.59275,-0.48842601 -0.182567,-0.042678 -0.315343,-0.075872 -0.315343,-0.18256698 0,-0.09484 0.080614,-0.161228 0.232358,-0.161228 0.154115,0 0.324827,0.054533 0.452861,0.173083 l 0.187309,-0.246584 c -0.156486,-0.144631 -0.365134,-0.220503 -0.61646,-0.220503 -0.372247,0 -0.599863,0.21339 -0.599863,0.476571 0,0.35327898 0.33194,0.42440898 0.590379,0.48368399 0.182567,0.042678 0.320085,0.082985 0.320085,0.201535 0,0.090098 -0.090098,0.177825 -0.275036,0.177825 -0.218132,0 -0.391215,-0.097211 -0.502652,-0.21339 z" style="font-weight:bold;font-size:2.371px;font-family:'Proxima Nova';dominant-baseline:alphabetic;text-anchor:middle;fill:#efedeb" id="path2521"/>
        <path d="m -1.9327355,0 h 0.339053 v -1.285082 h 0.459974 v -0.296375 h -1.261372 v 0.296375 h 0.462345 z" style="font-weight:bold;font-size:2.371px;font-family:'Proxima Nova';dominant-baseline:alphabetic;text-anchor:middle;fill:#efedeb" id="path2523"/>
        <path d="M -0.91787332,0 H 0.2012387 v -0.29163301 h -0.78243001 v -0.367505 H 0.1846417 V -0.94840002 H -0.58119131 V -1.292195 H 0.2012387 v -0.289262 h -1.11911202 z" style="font-weight:bold;font-size:2.371px;font-family:'Proxima Nova';dominant-baseline:alphabetic;text-anchor:middle;fill:#efedeb" id="path2525"/>
        <path d="M 0.46675378,0 H 0.80343579 V -0.56666901 H 1.2065058 c 0.341424,0 0.531104,-0.22998701 0.531104,-0.50502299 0,-0.277407 -0.187309,-0.509765 -0.531104,-0.509765 H 0.46675378 Z M 1.3938148,-1.074063 c 0,0.13277598 -0.099582,0.21813198 -0.232358,0.21813198 H 0.80343579 V -1.292195 H 1.1614568 c 0.132776,0 0.232358,0.087727 0.232358,0.218132 z" style="font-weight:bold;font-size:2.371px;font-family:'Proxima Nova';dominant-baseline:alphabetic;text-anchor:middle;fill:#efedeb" id="path2527"/>
        <path d="m 2.9726784,0 h 0.225245 l 0.132776,-0.40069901 h 0.244213 l 0.059275,-0.192051 h -0.239471 l 0.130405,-0.39358601 h 0.2371 L 3.8191254,-1.176016 h -0.229987 l 0.137518,-0.405441 h -0.225245 l -0.132776,0.405441 h -0.222874 l 0.132776,-0.405441 h -0.222874 l -0.132776,0.405441 h -0.239471 l -0.059275,0.18967998 h 0.232358 l -0.128034,0.39358601 h -0.232358 l -0.061646,0.192051 h 0.227616 L 2.5269304,0 h 0.222874 l 0.135147,-0.40069901 h 0.225245 z m 0.329569,-0.98633602 -0.130405,0.39358601 h -0.220503 l 0.128034,-0.39358601 z" style="font-weight:bold;font-size:2.371px;font-family:'Proxima Nova';dominant-baseline:alphabetic;text-anchor:middle;fill:#efedeb" id="path2529"/>
      </g>
    </g>
    <rect x="222.34" y="83.766998" width="10.4" height="12.98" fill="#331a00" stroke="#331a00" stroke-width="0.35" rx="1" ry="1" id="rect744"/>
    <g transform="translate(227.54,86.348)" id="g748">
      <g aria-label="STEP ϕ" id="text746" style="font-weight:bold;font-size:2.371px;font-family:'Proxima Nova';dominant-baseline:alphabetic;text-anchor:middle;fill:#efedeb">
        <path d="m -3.9675352,-0.222874 c 0.149373,0.149373 0.367505,0.251326 0.6709931,0.251326 0.42678,0 0.633057,-0.218132 0.633057,-0.50739401 0,-0.35090801 -0.33194,-0.42915101 -0.59275,-0.48842601 -0.1825671,-0.042678 -0.3153431,-0.075872 -0.3153431,-0.18256698 0,-0.09484 0.080614,-0.161228 0.232358,-0.161228 0.1541151,0 0.3248271,0.054533 0.4528611,0.173083 l 0.187309,-0.246584 c -0.156486,-0.144631 -0.365134,-0.220503 -0.6164601,-0.220503 -0.372247,0 -0.599863,0.21339 -0.599863,0.476571 0,0.35327898 0.33194,0.42440898 0.590379,0.48368399 0.1825671,0.042678 0.3200851,0.082985 0.3200851,0.201535 0,0.090098 -0.090098,0.177825 -0.275036,0.177825 -0.2181321,0 -0.3912151,-0.097211 -0.5026521,-0.21339 z" style="font-weight:bold;font-size:2.371px;font-family:'Proxima Nova';dominant-baseline:alphabetic;text-anchor:middle;fill:#efedeb" id="path2532"/>
        <path d="m -2.0901847,0 h 0.339053 v -1.285082 h 0.459974 v -0.296375 h -1.261372 v 0.296375 h 0.462345 z" style="font-weight:bold;font-size:2.371px;font-family:'Proxima Nova';dominant-baseline:alphabetic;text-anchor:middle;fill:#efedeb" id="path2534"/>
        <path d="m -1.0753225,0 h 1.11911198 v -0.29163301 h -0.78243001 v -0.367505 H 0.02719248 V -0.94840002 H -0.73864053 V -1.292195 H 0.04378948 V -1.581457 H -1.0753225 Z" style="font-weight:bold;font-size:2.371px;font-family:'Proxima Nova';dominant-baseline:alphabetic;text-anchor:middle;fill:#efedeb" id="path2536"/>
        <path d="M 0.30930456,0 H 0.64598657 V -0.56666901 H 1.0490566 c 0.341424,0 0.531104,-0.22998701 0.531104,-0.50502299 0,-0.277407 -0.187309,-0.509765 -0.531104,-0.509765 H 0.30930456 Z M 1.2363656,-1.074063 c 0,0.13277598 -0.099582,0.21813198 -0.232358,0.21813198 H 0.64598657 V -1.292195 H 1.0040076 c 0.132776,0 0.232358,0.087727 0.232358,0.218132 z" style="font-weight:bold;font-size:2.371px;font-family:'Proxima Nova';dominant-baseline:alphabetic;text-anchor:middle;fill:#efedeb" id="path2538"/>
        <path d="m 3.9188649,-0.63211232 q 0,0.4283545 -0.312583,0.5834883 Q 3.4534635,0.02778516 3.2879103,0.02778516 V 0.46771681 H 2.9625924 V 0.02778516 q -0.1632378,0 -0.3172139,-0.07640918 -0.3137407,-0.15629151 -0.3137407,-0.5834883 0,-0.16786865 0.079882,-0.31489844 Q 2.4948756,-1.0986714 2.63959,-1.177396 2.7843043,-1.2572783 2.9625924,-1.2572783 V -1.69721 h 0.3253179 v 0.4399317 q 0.3866767,0 0.5510723,0.31142525 0.079882,0.15166065 0.079882,0.31374073 z M 3.585443,-0.6147466 q 0,-0.15513379 -0.069463,-0.25817041 -0.08104,-0.11924463 -0.2280698,-0.11924463 v 0.75483009 q 0.1470298,0 0.2280698,-0.11924463 0.069463,-0.10303662 0.069463,-0.25817042 z m -0.6228506,0.37741505 v -0.75483009 q -0.1470298,0 -0.2280698,0.11924463 -0.069463,0.10303662 -0.069463,0.25817041 0,0.1551338 0.069463,0.25817042 0.08104,0.11924463 0.2280698,0.11924463 z" style="font-weight:bold;font-size:2.371px;font-family:'Proxima Nova';dominant-baseline:alphabetic;text-anchor:middle;fill:#efedeb" id="path2540"/>
      </g>
    </g>
    <rect x="222.34" y="104.02" width="10.4" height="12.98" fill="#331a00" stroke="#331a00" stroke-width="0.35" rx="1" ry="1" id="rect750"/>
    <g transform="translate(227.54,106.6)" id="g754">
      <g aria-label="OUT" id="text752" style="font-weight:bold;font-size:2.371px;font-family:'Proxima Nova';dominant-baseline:alphabetic;text-anchor:middle;fill:#efedeb">
        <path d="m -2.3806878,-0.78954302 c 0,0.47657101 0.348537,0.81799502 0.825108,0.81799502 0.478942,0 0.82747903,-0.34142401 0.82747903,-0.81799502 0,-0.47657098 -0.34853703,-0.81799498 -0.82747903,-0.81799498 -0.476571,0 -0.825108,0.341424 -0.825108,0.81799498 z m 1.306421,0 c 0,0.29400401 -0.18968,0.51924901 -0.481313,0.51924901 -0.291633,0 -0.478942,-0.225245 -0.478942,-0.51924901 0,-0.29637498 0.187309,-0.51924898 0.478942,-0.51924898 0.291633,0 0.481313,0.222874 0.481313,0.51924898 z" style="font-weight:bold;font-size:2.371px;font-family:'Proxima Nova';dominant-baseline:alphabetic;text-anchor:middle;fill:#efedeb" id="path2543"/>
        <path d="m -0.48951892,-0.63068601 c 0,0.388844 0.22524501,0.65913801 0.70892902,0.65913801 0.47894201,0 0.70418701,-0.26792301 0.70418701,-0.66150901 V -1.581457 H 0.5821731 v 0.93891599 c 0,0.220503 -0.120921,0.372247 -0.362763,0.372247 -0.24658401,0 -0.36750501,-0.151744 -0.36750501,-0.372247 V -1.581457 h -0.34142401 z" style="font-weight:bold;font-size:2.371px;font-family:'Proxima Nova';dominant-baseline:alphabetic;text-anchor:middle;fill:#efedeb" id="path2545"/>
        <path d="m 1.6029255,0 h 0.339053 v -1.285082 h 0.459974 v -0.296375 h -1.261372 v 0.296375 h 0.462345 z" style="font-weight:bold;font-size:2.371px;font-family:'Proxima Nova';dominant-baseline:alphabetic;text-anchor:middle;fill:#efedeb" id="path2547"/>
      </g>
    </g>
  </g>
</svg>
