<?xml version="1.0" encoding="UTF-8" standalone="no"?>
<svg xmlns="http://www.w3.org/2000/svg" xmlns:svg="http://www.w3.org/2000/svg" version="1.1" viewBox="0 0 259.08 128.5" height="128.5mm" width="259.07999mm">
  <defs/>
  <g>
    <rect x="0.25" y="0.25" width="258.57999" height="128" fill="#efedeb" stroke="#18191c" stroke-width="0.5"/>
    <g style="font-weight:bold;font-size:4.064px;font-family:'Proxima Nova';dominant-baseline:alphabetic;text-anchor:middle;fill:#18191c">
      <path d="m 113.27796,8.617984 c 0.25603,0.256032 0.62992,0.430784 1.15011,0.430784 0.73152,0 1.08509,-0.373888 1.08509,-0.869696 0,-0.601472 -0.56896,-0.735584 -1.016,-0.8371841 -0.31293,-0.073152 -0.54051,-0.130048 -0.54051,-0.312928 0,-0.16256 0.13817,-0.276352 0.39827,-0.276352 0.26416,0 0.55677,0.093472 0.77622,0.296672 l 0.32106,-0.422656 c -0.26822,-0.247904 -0.62586,-0.377952 -1.05664,-0.377952 -0.63805,0 -1.02819,0.36576 -1.02819,0.816864 0,0.6055361 0.56896,0.7274561 1.01193,0.8290561 0.31293,0.073152 0.54864,0.14224 0.54864,0.34544 0,0.154432 -0.15443,0.3048 -0.47142,0.3048 -0.37389,0 -0.67056,-0.166624 -0.86157,-0.36576 z" style="font-weight:bold;font-size:4.064px;font-family:'Proxima Nova';dominant-baseline:alphabetic;text-anchor:middle;fill:#18191c"/>
      <path d="m 115.90172,9 h 1.9182 V 8.500128 h -1.34112 v -0.62992 h 1.31268 V 7.3743999 h -1.31268 v -0.58928 h 1.34112 v -0.495808 h -1.9182 z" style="font-weight:bold;font-size:4.064px;font-family:'Proxima Nova';dominant-baseline:alphabetic;text-anchor:middle;fill:#18191c"/>
      <path d="m 120.97759,7.646688 c 0,-0.8168641 -0.59741,-1.4020801 -1.41834,-1.4020801 -0.81686,0 -1.41427,0.585216 -1.41427,1.4020801 0,0.816864 0.59741,1.40208 1.41427,1.40208 0.23572,0 0.45517,-0.048768 0.64618,-0.138176 l 0.21539,0.256032 0.40234,-0.329184 -0.19914,-0.231648 c 0.22352,-0.24384 0.35357,-0.577088 0.35357,-0.959104 z m -1.41834,0.890016 c -0.49987,0 -0.82092,-0.38608 -0.82092,-0.890016 0,-0.5080001 0.32105,-0.8900161 0.82092,-0.8900161 0.49988,0 0.825,0.382016 0.825,0.8900161 0,0.195072 -0.0488,0.373888 -0.13818,0.516128 l -0.30886,-0.361696 -0.40234,0.32512 0.30886,0.361696 c -0.0853,0.032512 -0.18288,0.048768 -0.28448,0.048768 z" style="font-weight:bold;font-size:4.064px;font-family:'Proxima Nova';dominant-baseline:alphabetic;text-anchor:middle;fill:#18191c"/>
      <path d="m 121.38653,7.918976 c 0,0.666496 0.38608,1.129792 1.21514,1.129792 0.82092,0 1.207,-0.459232 1.207,-1.133856 V 6.2893119 h -0.58521 V 7.898656 c 0,0.377952 -0.20727,0.638048 -0.62179,0.638048 -0.42266,0 -0.62992,-0.260096 -0.62992,-0.638048 V 6.2893119 h -0.58522 z" style="font-weight:bold;font-size:4.064px;font-family:'Proxima Nova';dominant-baseline:alphabetic;text-anchor:middle;fill:#18191c"/>
      <path d="m 124.34722,9 h 1.91821 V 8.500128 h -1.34112 v -0.62992 h 1.31267 V 7.3743999 h -1.31267 v -0.58928 h 1.34112 v -0.495808 h -1.91821 z" style="font-weight:bold;font-size:4.064px;font-family:'Proxima Nova';dominant-baseline:alphabetic;text-anchor:middle;fill:#18191c"/>
      <path d="m 128.58997,9 h 0.55677 V 6.2893119 h -0.57709 V 8.04496 l -1.25578,-1.7556481 h -0.59334 V 9 h 0.57709 V 7.1793279 Z" style="font-weight:bold;font-size:4.064px;font-family:'Proxima Nova';dominant-baseline:alphabetic;text-anchor:middle;fill:#18191c"/>
      <path d="m 130.97357,9.048768 c 0.61773,0 0.9591,-0.329184 1.15417,-0.666496 l -0.4958,-0.239776 c -0.1138,0.22352 -0.35764,0.394208 -0.65837,0.394208 -0.47143,0 -0.82906,-0.377952 -0.82906,-0.890016 0,-0.5120641 0.35763,-0.8900161 0.82906,-0.8900161 0.30073,0 0.54457,0.174752 0.65837,0.394208 l 0.4958,-0.24384 c -0.191,-0.337312 -0.53644,-0.662432 -1.15417,-0.662432 -0.79248,0 -1.4224,0.56896 -1.4224,1.4020801 0,0.83312 0.62992,1.40208 1.4224,1.40208 z" style="font-weight:bold;font-size:4.064px;font-family:'Proxima Nova';dominant-baseline:alphabetic;text-anchor:middle;fill:#18191c"/>
      <path d="m 132.47522,9 h 0.57709 V 6.2893119 h -0.57709 z" style="font-weight:bold;font-size:4.064px;font-family:'Proxima Nova';dominant-baseline:alphabetic;text-anchor:middle;fill:#18191c"/>
      <path d="m 133.48893,9 h 2.06451 V 8.492 h -1.3086 L 135.525,6.7526079 v -0.463296 h -2.03607 v 0.508 h 1.28016 L 133.48893,8.53264 Z" style="font-weight:bold;font-size:4.064px;font-family:'Proxima Nova';dominant-baseline:alphabetic;text-anchor:middle;fill:#18191c"/>
      <path d="m 135.99153,9 h 1.91821 V 8.500128 h -1.34112 v -0.62992 h 1.31267 V 7.3743999 h -1.31267 v -0.58928 h 1.34112 v -0.495808 h -1.91821 z" style="font-weight:bold;font-size:4.064px;font-family:'Proxima Nova';dominant-baseline:alphabetic;text-anchor:middle;fill:#18191c"/>
      <path d="m 139.89697,9 h 0.66243 l -0.6096,-1.032256 c 0.29261,-0.069088 0.59335,-0.32512 0.59335,-0.8046721 0,-0.503936 -0.34544,-0.87376 -0.91034,-0.87376 h -1.26797 V 9 h 0.57709 V 8.028704 h 0.42266 z m 0.0569,-1.8409921 c 0,0.227584 -0.17476,0.3738881 -0.4064,0.3738881 h -0.60554 V 6.7851199 h 0.60554 c 0.23164,0 0.4064,0.146304 0.4064,0.373888 z" style="font-weight:bold;font-size:4.064px;font-family:'Proxima Nova';dominant-baseline:alphabetic;text-anchor:middle;fill:#18191c"/>
      <path d="m 142.5688,9 h 0.58115 V 6.2893119 h -0.50394 l -0.85344,0.857504 0.32919,0.3454401 0.44704,-0.4592321 z" style="font-weight:bold;font-size:4.064px;font-family:'Proxima Nova';dominant-baseline:alphabetic;text-anchor:middle;fill:#18191c"/>
      <path d="m 143.55292,7.650752 c 0,0.764032 0.34544,1.398016 1.17043,1.398016 0.61773,0 1.03632,-0.402336 1.03632,-0.930656 0,-0.577088 -0.43485,-0.8737601 -0.92253,-0.8737601 -0.29667,0 -0.56896,0.16256 -0.69494,0.3454401 -0.004,-0.016256 -0.004,-0.036576 -0.004,-0.056896 0,-0.4307841 0.26822,-0.7843521 0.67868,-0.7843521 0.23978,0 0.39421,0.077216 0.54052,0.215392 l 0.26009,-0.434848 c -0.19507,-0.166624 -0.47142,-0.280416 -0.80061,-0.280416 -0.8006,0 -1.2639,0.581152 -1.2639,1.4020801 z m 1.62154,0.491744 c 0,0.191008 -0.16663,0.402336 -0.47956,0.402336 -0.38201,0 -0.52832,-0.300736 -0.5527,-0.560832 0.13005,-0.158496 0.32512,-0.260096 0.52832,-0.260096 0.26416,0 0.50394,0.125984 0.50394,0.418592 z" style="font-weight:bold;font-size:4.064px;font-family:'Proxima Nova';dominant-baseline:alphabetic;text-anchor:middle;fill:#18191c"/>
    </g>
    <g style="font-weight:bold;font-size:4.064px;font-family:'Proxima Nova';dominant-baseline:hanging;text-anchor:middle;fill:#18191c">
      <path d="m 125.67675,122.2581 h 1.06883 c 0.84938,0 1.43866,-0.53645 1.43866,-1.35331 0,-0.81687 -0.58928,-1.35738 -1.43866,-1.35738 h -1.06883 z m 0.57709,-0.508 v -1.69469 h 0.49174 c 0.55677,0 0.84938,0.36983 0.84938,0.84938 0,0.45923 -0.31293,0.84531 -0.84938,0.84531 z" style="font-weight:bold;font-size:4.064px;font-family:'Proxima Nova';dominant-baseline:hanging;text-anchor:middle;fill:#18191c"/>
      <path d="m 130.455,122.2581 h 0.58115 v -2.71069 H 130.455 v 1.06477 h -1.28016 v -1.06477 h -0.57709 v 2.71069 h 0.57709 v -1.13792 h 1.28016 z" style="font-weight:bold;font-size:4.064px;font-family:'Proxima Nova';dominant-baseline:hanging;text-anchor:middle;fill:#18191c"/>
      <path d="m 131.56637,122.2581 h 1.91821 v -0.49987 h -1.34112 v -0.62992 h 1.31267 v -0.49581 h -1.31267 v -0.58928 h 1.34112 v -0.49581 h -1.91821 z" style="font-weight:bold;font-size:4.064px;font-family:'Proxima Nova';dominant-baseline:hanging;text-anchor:middle;fill:#18191c"/>
    </g>
    <rect x="3.6500001" y="23.790222" width="17.4" height="12.980445" rx="1" ry="1" fill="#efedeb" stroke="#18191c" stroke-width="0.35"/>
    <g style="font-weight:bold;font-size:2.37067px;font-family:'Proxima Nova';dominant-baseline:alphabetic;text-anchor:middle;fill:#18191c">
      <path d="m 7.4114687,26.370667 h 0.3864187 l -0.3556,-0.60215 c 0.170688,-0.0403 0.3461173,-0.189653 0.3461173,-0.469392 0,-0.293963 -0.2015067,-0.509693 -0.5310293,-0.509693 H 6.5177273 v 1.581235 H 6.854362 v -0.56659 h 0.2465493 z m 0.033189,-1.073913 c 0,0.132758 -0.1019386,0.218102 -0.2370667,0.218102 H 6.854362 v -0.436203 h 0.3532293 c 0.1351281,0 0.2370667,0.08534 0.2370664,0.218101 z" style="font-weight:bold;font-size:2.37067px;font-family:'Proxima Nova';dominant-baseline:alphabetic;text-anchor:middle;fill:#18191c"/>
      <path d="m 8.0410659,25.740069 c 0,0.388789 0.2252133,0.659046 0.7088293,0.659046 0.4788747,0 0.7040881,-0.267886 0.7040881,-0.661417 v -0.948266 h -0.341376 v 0.938784 c 0,0.220472 -0.1209041,0.372194 -0.3627121,0.372194 -0.2465493,0 -0.3674533,-0.151722 -0.3674533,-0.372194 v -0.938784 h -0.341376 z" style="font-weight:bold;font-size:2.37067px;font-family:'Proxima Nova';dominant-baseline:alphabetic;text-anchor:middle;fill:#18191c"/>
      <path d="m 10.85864,26.370667 h 0.324782 V 24.789432 H 10.846787 V 25.81356 L 10.114251,24.789432 H 9.7681336 v 1.581235 h 0.3366344 v -1.062059 z" style="font-weight:bold;font-size:2.37067px;font-family:'Proxima Nova';dominant-baseline:alphabetic;text-anchor:middle;fill:#18191c"/>
    </g>
    <rect x="3.6500001" y="43.847557" width="17.4" height="12.980445" rx="1" ry="1" fill="#efedeb" stroke="#18191c" stroke-width="0.35"/>
    <g style="font-weight:bold;font-size:2.37067px;font-family:'Proxima Nova';dominant-baseline:alphabetic;text-anchor:middle;fill:#18191c">
      <path d="M 5.8648679,46.428001 H 6.8700306 V 46.131668 H 6.2015026 V 44.846767 H 5.8648679 Z" style="font-weight:bold;font-size:2.37067px;font-family:'Proxima Nova';dominant-baseline:alphabetic;text-anchor:middle;fill:#18191c"/>
      <path d="m 6.9650796,45.638569 c 0,0.476504 0.348488,0.81788 0.824992,0.81788 0.4788747,0 0.8273627,-0.341376 0.8273627,-0.81788 0,-0.476504 -0.348488,-0.81788 -0.8273627,-0.81788 -0.476504,0 -0.824992,0.341376 -0.824992,0.81788 z m 1.3062373,0 c 0,0.293963 -0.1896533,0.519176 -0.4812453,0.519176 -0.291592,0 -0.4788747,-0.225213 -0.4788747,-0.519176 0,-0.296333 0.1872827,-0.519176 0.4788747,-0.519176 0.291592,0 0.4812453,0.222843 0.4812453,0.519176 z" style="font-weight:bold;font-size:2.37067px;font-family:'Proxima Nova';dominant-baseline:alphabetic;text-anchor:middle;fill:#18191c"/>
      <path d="m 8.7801212,45.638569 c 0,0.476504 0.348488,0.81788 0.824992,0.81788 0.4788748,0 0.8273628,-0.341376 0.8273628,-0.81788 0,-0.476504 -0.348488,-0.81788 -0.8273628,-0.81788 -0.476504,0 -0.824992,0.341376 -0.824992,0.81788 z m 1.3062378,0 c 0,0.293963 -0.1896538,0.519176 -0.4812458,0.519176 -0.291592,0 -0.4788746,-0.225213 -0.4788746,-0.519176 0,-0.296333 0.1872826,-0.519176 0.4788746,-0.519176 0.291592,0 0.4812458,0.222843 0.4812458,0.519176 z" style="font-weight:bold;font-size:2.37067px;font-family:'Proxima Nova';dominant-baseline:alphabetic;text-anchor:middle;fill:#18191c"/>
      <path d="m 10.671025,46.428001 h 0.336634 v -0.566589 h 0.403014 c 0.341376,0 0.531029,-0.229955 0.531029,-0.504952 0,-0.277368 -0.187283,-0.509693 -0.531029,-0.509693 h -0.739648 z m 0.92693,-1.073912 c 0,0.132758 -0.09957,0.218102 -0.232325,0.218102 h -0.357971 v -0.436203 h 0.357971 c 0.132757,0 0.232325,0.08772 0.232325,0.218101 z" style="font-weight:bold;font-size:2.37067px;font-family:'Proxima Nova';dominant-baseline:alphabetic;text-anchor:middle;fill:#18191c"/>
    </g>
    <line x1="7.8499999" y1="71.685333" x2="16.85" y2="71.685333" stroke="#18191c" stroke-width="0.35"/>
    <g style="font-weight:bold;font-size:2.37067px;font-family:'Proxima Nova';dominant-baseline:alphabetic;text-anchor:middle;fill:#18191c">
      <path d="m 4.3321527,66.262494 c 0.149352,0.149352 0.3674534,0.25129 0.6708987,0.25129 0.42672,0 0.632968,-0.218101 0.632968,-0.507322 0,-0.350859 -0.3318933,-0.429091 -0.5926667,-0.488358 -0.1825413,-0.04267 -0.3152986,-0.07586 -0.3152986,-0.182541 0,-0.09483 0.080603,-0.161205 0.2323253,-0.161205 0.1540933,0 0.3247813,0.05452 0.4527973,0.173058 l 0.1872827,-0.246549 c -0.156464,-0.144611 -0.3650827,-0.220472 -0.6163733,-0.220472 -0.3721947,0 -0.5997787,0.21336 -0.5997787,0.476504 0,0.353229 0.3318933,0.424349 0.590296,0.483616 0.1825413,0.04267 0.32004,0.08297 0.32004,0.201507 0,0.09009 -0.090085,0.1778 -0.2749973,0.1778 -0.2181014,0 -0.39116,-0.0972 -0.5025814,-0.21336 z" style="font-weight:bold;font-size:2.37067px;font-family:'Proxima Nova';dominant-baseline:alphabetic;text-anchor:middle;fill:#18191c"/>
      <path d="M 6.2092392,66.485336 H 6.5482445 V 65.200435 H 7.0081539 V 64.904102 H 5.7469592 v 0.296333 h 0.46228 z" style="font-weight:bold;font-size:2.37067px;font-family:'Proxima Nova';dominant-baseline:alphabetic;text-anchor:middle;fill:#18191c"/>
      <path d="M 8.1782631,66.485336 H 8.5457165 L 7.9364551,64.904102 H 7.5144765 l -0.6116321,1.581234 h 0.369824 L 7.3722364,66.21271 H 8.0786951 Z M 7.7254658,65.195694 7.9862391,65.921118 H 7.4623218 Z" style="font-weight:bold;font-size:2.37067px;font-family:'Proxima Nova';dominant-baseline:alphabetic;text-anchor:middle;fill:#18191c"/>
      <path d="m 9.5854759,66.485336 h 0.3864187 l -0.3556,-0.602149 c 0.170688,-0.0403 0.3461173,-0.189653 0.3461173,-0.469392 0,-0.293963 -0.2015066,-0.509693 -0.5310293,-0.509693 h -0.739648 v 1.581234 h 0.3366347 v -0.566589 h 0.2465493 z m 0.033189,-1.073912 c 0,0.132758 -0.1019387,0.218102 -0.2370667,0.218102 H 9.0283693 v -0.436203 h 0.3532293 c 0.135128,0 0.2370667,0.08534 0.2370663,0.218101 z" style="font-weight:bold;font-size:2.37067px;font-family:'Proxima Nova';dominant-baseline:alphabetic;text-anchor:middle;fill:#18191c"/>
      <path d="m 10.557005,66.485336 h 0.339005 v -1.284901 h 0.45991 v -0.296333 h -1.261195 v 0.296333 h 0.46228 z" style="font-weight:bold;font-size:2.37067px;font-family:'Proxima Nova';dominant-baseline:alphabetic;text-anchor:middle;fill:#18191c"/>
    </g>
    <g style="font-weight:bold;font-size:2.37067px;font-family:'Proxima Nova';dominant-baseline:alphabetic;text-anchor:middle;fill:#18191c">
      <path d="m 14.830266,66.485336 h 1.005163 v -0.296333 h -0.668528 v -1.284901 h -0.336635 z" style="font-weight:bold;font-size:2.37067px;font-family:'Proxima Nova';dominant-baseline:alphabetic;text-anchor:middle;fill:#18191c"/>
      <path d="m 16.071162,66.485336 h 1.118955 v -0.291592 h -0.78232 v -0.367453 h 0.765725 V 65.53707 h -0.765725 v -0.343747 h 0.78232 v -0.289221 h -1.118955 z" style="font-weight:bold;font-size:2.37067px;font-family:'Proxima Nova';dominant-baseline:alphabetic;text-anchor:middle;fill:#18191c"/>
      <path d="m 18.546101,66.485336 h 0.324782 v -1.581234 h -0.336635 v 1.024128 l -0.732536,-1.024128 h -0.346118 v 1.581234 h 0.336635 v -1.062058 z" style="font-weight:bold;font-size:2.37067px;font-family:'Proxima Nova';dominant-baseline:alphabetic;text-anchor:middle;fill:#18191c"/>
    </g>
    <rect x="3.6500001" y="83.962219" width="17.4" height="12.980445" rx="1" ry="1" fill="#efedeb" stroke="#18191c" stroke-width="0.35"/>
    <g style="font-weight:bold;font-size:2.37067px;font-family:'Proxima Nova';dominant-baseline:alphabetic;text-anchor:middle;fill:#18191c">
      <path d="m 5.9695847,85.753232 c 0,0.49784 0.3793067,0.82025 0.8415867,0.82025 0.2868507,0 0.512064,-0.118533 0.6732694,-0.298704 v -0.60452 h -0.753872 v 0.289222 h 0.4219786 v 0.192024 c -0.068749,0.06164 -0.1967653,0.120904 -0.341376,0.120904 -0.2868507,0 -0.4954693,-0.220472 -0.4954693,-0.519176 0,-0.298704 0.2086186,-0.519176 0.4954693,-0.519176 0.1659467,0 0.3010747,0.08771 0.3745654,0.199136 l 0.2797386,-0.151723 c -0.120904,-0.187283 -0.327152,-0.346117 -0.654304,-0.346117 -0.46228,0 -0.8415867,0.317669 -0.8415867,0.81788 z" style="font-weight:bold;font-size:2.37067px;font-family:'Proxima Nova';dominant-baseline:alphabetic;text-anchor:middle;fill:#18191c"/>
      <path d="M 8.8425735,86.542664 H 9.2100268 L 8.6007655,84.961429 H 8.1787868 l -0.611632,1.581235 h 0.369824 l 0.099568,-0.272627 H 8.7430055 Z M 8.3897761,85.253021 8.6505495,85.978445 H 8.1266321 Z" style="font-weight:bold;font-size:2.37067px;font-family:'Proxima Nova';dominant-baseline:alphabetic;text-anchor:middle;fill:#18191c"/>
      <path d="M 9.5683308,86.542664 H 9.9073362 V 85.257762 H 10.367246 V 84.961429 H 9.1060508 v 0.296333 h 0.46228 z" style="font-weight:bold;font-size:2.37067px;font-family:'Proxima Nova';dominant-baseline:alphabetic;text-anchor:middle;fill:#18191c"/>
      <path d="m 10.58305,86.542664 h 1.118955 v -0.291592 h -0.78232 V 85.883618 H 11.68541 V 85.594397 H 10.919685 V 85.25065 h 0.78232 V 84.961429 H 10.58305 Z" style="font-weight:bold;font-size:2.37067px;font-family:'Proxima Nova';dominant-baseline:alphabetic;text-anchor:middle;fill:#18191c"/>
    </g>
    <rect x="3.6500001" y="104.01955" width="17.4" height="12.980445" rx="1" ry="1" fill="#efedeb" stroke="#18191c" stroke-width="0.35"/>
    <g style="font-weight:bold;font-size:2.37067px;font-family:'Proxima Nova';dominant-baseline:alphabetic;text-anchor:middle;fill:#18191c">
      <path d="m 6.3534661,106.6 h 0.3864186 l -0.3556,-0.60215 c 0.170688,-0.0403 0.3461174,-0.18965 0.3461174,-0.46939 0,-0.29397 -0.2015067,-0.5097 -0.5310294,-0.5097 H 5.4597247 V 106.6 h 0.3366347 v -0.56659 h 0.2465493 z m 0.033189,-1.07391 c 0,0.13275 -0.1019387,0.2181 -0.2370667,0.2181 h -0.353229 v -0.4362 h 0.3532293 c 0.135128,0 0.2370667,0.0853 0.2370664,0.2181 z" style="font-weight:bold;font-size:2.37067px;font-family:'Proxima Nova';dominant-baseline:alphabetic;text-anchor:middle;fill:#18191c"/>
      <path d="m 6.9830632,106.6 h 1.1189547 v -0.29159 h -0.78232 v -0.36746 h 0.7657254 v -0.28922 H 7.3196979 v -0.34374 h 0.78232 v -0.28923 H 6.9830632 Z" style="font-weight:bold;font-size:2.37067px;font-family:'Proxima Nova';dominant-baseline:alphabetic;text-anchor:middle;fill:#18191c"/>
      <path d="m 8.2584449,106.37716 c 0.149352,0.14935 0.3674533,0.25129 0.6708987,0.25129 0.42672,0 0.632968,-0.2181 0.632968,-0.50733 0,-0.35085 -0.3318933,-0.42909 -0.5926667,-0.48835 -0.1825413,-0.0427 -0.3152987,-0.0759 -0.3152987,-0.18254 0,-0.0948 0.080603,-0.16121 0.2323254,-0.16121 0.1540933,0 0.3247813,0.0545 0.4527973,0.17306 l 0.1872827,-0.24655 c -0.156464,-0.14461 -0.3650827,-0.22047 -0.6163734,-0.22047 -0.3721946,0 -0.5997786,0.21336 -0.5997786,0.4765 0,0.35323 0.3318933,0.42435 0.590296,0.48362 0.1825413,0.0427 0.32004,0.083 0.32004,0.2015 0,0.0901 -0.090085,0.1778 -0.2749974,0.1778 -0.2181013,0 -0.39116,-0.0972 -0.5025813,-0.21336 z" style="font-weight:bold;font-size:2.37067px;font-family:'Proxima Nova';dominant-baseline:alphabetic;text-anchor:middle;fill:#18191c"/>
      <path d="m 9.7889693,106.6 h 1.1189547 v -0.29159 h -0.78232 v -0.36746 h 0.765725 v -0.28922 h -0.765725 v -0.34374 h 0.78232 v -0.28923 H 9.7889693 Z" style="font-weight:bold;font-size:2.37067px;font-family:'Proxima Nova';dominant-baseline:alphabetic;text-anchor:middle;fill:#18191c"/>
      <path d="m 11.538485,106.6 h 0.339005 v -1.2849 h 0.459909 v -0.29634 h -1.261194 v 0.29634 h 0.46228 z" style="font-weight:bold;font-size:2.37067px;font-family:'Proxima Nova';dominant-baseline:alphabetic;text-anchor:middle;fill:#18191c"/>
    </g>
    <line x1="29.9" y1="31.570667" x2="52.700001" y2="31.570667" stroke="#18191c" stroke-width="0.35"/>
    <g style="font-weight:bold;font-size:2.37067px;font-family:'Proxima Nova';dominant-baseline:alphabetic;text-anchor:middle;fill:#18191c">
      <path d="m 29.189763,26.399115 c 0.360341,0 0.559477,-0.192025 0.673269,-0.38879 l -0.289221,-0.139869 c -0.06638,0.130386 -0.208619,0.229954 -0.384048,0.229954 -0.274998,0 -0.483616,-0.220472 -0.483616,-0.519176 0,-0.298704 0.208618,-0.519176 0.483616,-0.519176 0.175429,0 0.317669,0.101939 0.384048,0.229955 l 0.289221,-0.14224 c -0.111421,-0.196765 -0.312928,-0.386419 -0.673269,-0.386419 -0.46228,0 -0.829734,0.331894 -0.829734,0.81788 0,0.485987 0.367454,0.817881 0.829734,0.817881 z" style="font-weight:bold;font-size:2.37067px;font-family:'Proxima Nova';dominant-baseline:alphabetic;text-anchor:middle;fill:#18191c"/>
      <path d="m 30.499778,26.370667 h 0.421979 l 0.609261,-1.581235 H 31.14697 l -0.436202,1.216152 -0.438574,-1.216152 h -0.384048 z" style="font-weight:bold;font-size:2.37067px;font-family:'Proxima Nova';dominant-baseline:alphabetic;text-anchor:middle;fill:#18191c"/>
    </g>
    <g style="font-weight:bold;font-size:2.37067px;font-family:'Proxima Nova';dominant-baseline:alphabetic;text-anchor:middle;fill:#18191c">
      <path d="m 38.020849,26.370667 h 1.005162 v -0.296334 h -0.668528 v -1.284901 h -0.336634 z" style="font-weight:bold;font-size:2.37067px;font-family:'Proxima Nova';dominant-baseline:alphabetic;text-anchor:middle;fill:#18191c"/>
      <path d="m 39.261744,26.370667 h 1.118955 v -0.291593 h -0.78232 v -0.367453 h 0.765725 V 25.4224 h -0.765725 v -0.343747 h 0.78232 v -0.289221 h -1.118955 z" style="font-weight:bold;font-size:2.37067px;font-family:'Proxima Nova';dominant-baseline:alphabetic;text-anchor:middle;fill:#18191c"/>
      <path d="m 41.089491,26.370667 h 0.421979 l 0.609261,-1.581235 h -0.384048 l -0.436202,1.216152 -0.438574,-1.216152 h -0.384048 z" style="font-weight:bold;font-size:2.37067px;font-family:'Proxima Nova';dominant-baseline:alphabetic;text-anchor:middle;fill:#18191c"/>
      <path d="m 42.26675,26.370667 h 1.118954 v -0.291593 h -0.78232 V 25.711621 H 43.36911 V 25.4224 h -0.765726 v -0.343747 h 0.78232 V 24.789432 H 42.26675 Z" style="font-weight:bold;font-size:2.37067px;font-family:'Proxima Nova';dominant-baseline:alphabetic;text-anchor:middle;fill:#18191c"/>
      <path d="m 43.651182,26.370667 h 1.005163 v -0.296334 h -0.668528 v -1.284901 h -0.336635 z" style="font-weight:bold;font-size:2.37067px;font-family:'Proxima Nova';dominant-baseline:alphabetic;text-anchor:middle;fill:#18191c"/>
    </g>
    <g style="font-weight:bold;font-size:2.37067px;font-family:'Proxima Nova';dominant-baseline:hanging;text-anchor:middle;fill:#18191c">
      <path d="m 51.74753,37.179559 h 0.858181 c 0.301075,0 0.45991,-0.189654 0.45991,-0.42672 0,-0.199136 -0.135128,-0.362712 -0.303446,-0.38879 0.149352,-0.03082 0.272627,-0.163576 0.272627,-0.362712 0,-0.210989 -0.154093,-0.403013 -0.455168,-0.403013 H 51.74753 Z m 0.336635,-0.945896 v -0.348488 h 0.421978 c 0.113792,0 0.184912,0.07586 0.184912,0.173058 0,0.101939 -0.07112,0.17543 -0.184912,0.17543 z m 0,0.659045 v -0.372195 h 0.433832 c 0.132757,0 0.203877,0.08534 0.203877,0.184912 0,0.113792 -0.07586,0.187283 -0.203877,0.187283 z" style="font-weight:bold;font-size:2.37067px;font-family:'Proxima Nova';dominant-baseline:hanging;text-anchor:middle;fill:#18191c"/>
      <path d="m 53.31717,37.179559 h 0.336635 V 35.598324 H 53.31717 Z" style="font-weight:bold;font-size:2.37067px;font-family:'Proxima Nova';dominant-baseline:hanging;text-anchor:middle;fill:#18191c"/>
    </g>
    <g style="font-weight:bold;font-size:2.37067px;font-family:'Proxima Nova';dominant-baseline:alphabetic;text-anchor:middle;fill:#18191c">
      <path d="m 50.805282,26.94007 c 0,0.388789 0.225214,0.659045 0.70883,0.659045 0.478874,0 0.704088,-0.267885 0.704088,-0.661416 v -0.948266 h -0.341376 v 0.938784 c 0,0.220472 -0.120904,0.372194 -0.362712,0.372194 -0.24655,0 -0.367454,-0.151722 -0.367454,-0.372194 v -0.938784 h -0.341376 z" style="font-weight:bold;font-size:2.37067px;font-family:'Proxima Nova';dominant-baseline:alphabetic;text-anchor:middle;fill:#18191c"/>
      <path d="m 53.622857,27.570667 h 0.324781 v -1.581234 h -0.336635 v 1.024128 L 52.878467,25.989433 H 52.53235 v 1.581234 h 0.336635 v -1.062058 z" style="font-weight:bold;font-size:2.37067px;font-family:'Proxima Nova';dominant-baseline:alphabetic;text-anchor:middle;fill:#18191c"/>
      <path d="m 54.259418,27.570667 h 0.336635 v -1.581234 h -0.336635 z" style="font-weight:bold;font-size:2.37067px;font-family:'Proxima Nova';dominant-baseline:alphabetic;text-anchor:middle;fill:#18191c"/>
    </g>
    <line x1="29.9" y1="51.627998" x2="52.700001" y2="51.627998" stroke="#18191c" stroke-width="0.35"/>
    <g style="font-weight:bold;font-size:2.37067px;font-family:'Proxima Nova';dominant-baseline:alphabetic;text-anchor:middle;fill:#18191c">
      <path d="m 29.189763,46.456449 c 0.360341,0 0.559477,-0.192024 0.673269,-0.388789 l -0.289221,-0.139869 c -0.06638,0.130386 -0.208619,0.229954 -0.384048,0.229954 -0.274998,0 -0.483616,-0.220472 -0.483616,-0.519176 0,-0.298704 0.208618,-0.519176 0.483616,-0.519176 0.175429,0 0.317669,0.101939 0.384048,0.229955 l 0.289221,-0.14224 c -0.111421,-0.196765 -0.312928,-0.386419 -0.673269,-0.386419 -0.46228,0 -0.829734,0.331894 -0.829734,0.81788 0,0.485987 0.367454,0.81788 0.829734,0.81788 z" style="font-weight:bold;font-size:2.37067px;font-family:'Proxima Nova';dominant-baseline:alphabetic;text-anchor:middle;fill:#18191c"/>
      <path d="m 30.499778,46.428001 h 0.421979 l 0.609261,-1.581234 H 31.14697 l -0.436202,1.216152 -0.438574,-1.216152 h -0.384048 z" style="font-weight:bold;font-size:2.37067px;font-family:'Proxima Nova';dominant-baseline:alphabetic;text-anchor:middle;fill:#18191c"/>
    </g>
    <g style="font-weight:bold;font-size:2.37067px;font-family:'Proxima Nova';dominant-baseline:alphabetic;text-anchor:middle;fill:#18191c">
      <path d="m 38.979302,46.428001 h 0.623485 c 0.495469,0 0.839216,-0.312928 0.839216,-0.789432 0,-0.476504 -0.343747,-0.791802 -0.839216,-0.791802 h -0.623485 z m 0.336634,-0.296333 V 45.1431 h 0.286851 c 0.324781,0 0.495469,0.215731 0.495469,0.495469 0,0.267886 -0.182541,0.493099 -0.495469,0.493099 z" style="font-weight:bold;font-size:2.37067px;font-family:'Proxima Nova';dominant-baseline:alphabetic;text-anchor:middle;fill:#18191c"/>
      <path d="m 40.683218,45.797404 c 0,0.388789 0.225214,0.659045 0.70883,0.659045 0.478874,0 0.704088,-0.267885 0.704088,-0.661416 V 44.846767 H 41.75476 v 0.938784 c 0,0.220472 -0.120904,0.372194 -0.362712,0.372194 -0.24655,0 -0.367454,-0.151722 -0.367454,-0.372194 v -0.938784 h -0.341376 z" style="font-weight:bold;font-size:2.37067px;font-family:'Proxima Nova';dominant-baseline:alphabetic;text-anchor:middle;fill:#18191c"/>
      <path d="m 43.304028,46.428001 h 0.386418 l -0.3556,-0.602149 c 0.170688,-0.0403 0.346118,-0.189653 0.346118,-0.469392 0,-0.293963 -0.201507,-0.509693 -0.53103,-0.509693 h -0.739648 v 1.581234 h 0.336635 v -0.566589 h 0.246549 z m 0.03319,-1.073912 c 0,0.132758 -0.101939,0.218102 -0.237067,0.218102 h -0.353229 v -0.436203 h 0.353229 c 0.135128,0 0.237067,0.08534 0.237067,0.218101 z" style="font-weight:bold;font-size:2.37067px;font-family:'Proxima Nova';dominant-baseline:alphabetic;text-anchor:middle;fill:#18191c"/>
    </g>
    <g style="font-weight:bold;font-size:2.37067px;font-family:'Proxima Nova';dominant-baseline:hanging;text-anchor:middle;fill:#18191c">
      <path d="m 52.692704,58.736894 h 0.339005 v -1.581235 h -0.293963 l -0.49784,0.500211 0.192024,0.201506 0.260774,-0.267885 z" style="font-weight:bold;font-size:2.37067px;font-family:'Proxima Nova';dominant-baseline:hanging;text-anchor:middle;fill:#18191c"/>
    </g>
    <g style="font-weight:bold;font-size:2.37067px;font-family:'Proxima Nova';dominant-baseline:alphabetic;text-anchor:middle;fill:#18191c">
      <path d="m 51.224927,46.127998 h 0.339006 V 44.546764 H 51.26997 l -0.49784,0.50021 0.192024,0.201507 0.260773,-0.267885 z" style="font-weight:bold;font-size:2.37067px;font-family:'Proxima Nova';dominant-baseline:alphabetic;text-anchor:middle;fill:#18191c"/>
      <path d="m 51.798999,45.338566 c 0,0.407755 0.201507,0.81788 0.654304,0.81788 0.450427,0 0.654304,-0.410125 0.654304,-0.81788 0,-0.407754 -0.203877,-0.815509 -0.654304,-0.815509 -0.452797,0 -0.654304,0.407755 -0.654304,0.815509 z m 0.964862,0 c 0,0.291592 -0.08534,0.519176 -0.310558,0.519176 -0.227584,0 -0.312928,-0.227584 -0.312928,-0.519176 0,-0.291592 0.08534,-0.516805 0.312928,-0.516805 0.225214,0 0.310558,0.225213 0.310558,0.516805 z" style="font-weight:bold;font-size:2.37067px;font-family:'Proxima Nova';dominant-baseline:alphabetic;text-anchor:middle;fill:#18191c"/>
      <path d="m 53.266775,45.338566 c 0,0.407755 0.201507,0.81788 0.654304,0.81788 0.450427,0 0.654304,-0.410125 0.654304,-0.81788 0,-0.407754 -0.203877,-0.815509 -0.654304,-0.815509 -0.452797,0 -0.654304,0.407755 -0.654304,0.815509 z m 0.964862,0 c 0,0.291592 -0.08534,0.519176 -0.310558,0.519176 -0.227584,0 -0.312928,-0.227584 -0.312928,-0.519176 0,-0.291592 0.08534,-0.516805 0.312928,-0.516805 0.225214,0 0.310558,0.225213 0.310558,0.516805 z" style="font-weight:bold;font-size:2.37067px;font-family:'Proxima Nova';dominant-baseline:alphabetic;text-anchor:middle;fill:#18191c"/>
    </g>
    <g style="font-weight:bold;font-size:2.37067px;font-family:'Proxima Nova';dominant-baseline:middle;fill:#18191c">
      <path d="m 55.678875,52.484995 h 0.339006 v -1.581234 h -0.293963 l -0.49784,0.50021 0.192024,0.201507 0.260773,-0.267885 z" style="font-weight:bold;font-size:2.37067px;font-family:'Proxima Nova';dominant-baseline:middle;fill:#18191c"/>
      <path d="m 56.252947,51.695563 c 0,0.407755 0.201507,0.81788 0.654304,0.81788 0.450427,0 0.654304,-0.410125 0.654304,-0.81788 0,-0.407754 -0.203877,-0.815509 -0.654304,-0.815509 -0.452797,0 -0.654304,0.407755 -0.654304,0.815509 z m 0.964862,0 c 0,0.291592 -0.08534,0.519176 -0.310558,0.519176 -0.227584,0 -0.312928,-0.227584 -0.312928,-0.519176 0,-0.291592 0.08534,-0.516805 0.312928,-0.516805 0.225214,0 0.310558,0.225213 0.310558,0.516805 z" style="font-weight:bold;font-size:2.37067px;font-family:'Proxima Nova';dominant-baseline:middle;fill:#18191c"/>
    </g>
    <rect x="24.700001" y="63.904888" width="10.4" height="12.980445" rx="1" ry="1" fill="#efedeb" stroke="#18191c" stroke-width="0.35"/>
    <g style="font-weight:bold;font-size:2.37067px;font-family:'Proxima Nova';dominant-baseline:alphabetic;text-anchor:middle;fill:#18191c">
      <path d="m 30.353279,66.485336 h 0.367453 l -0.609261,-1.581234 h -0.421979 l -0.611632,1.581234 h 0.369824 l 0.09957,-0.272626 h 0.706459 z m -0.452798,-1.289642 0.260774,0.725424 h -0.523918 z" style="font-weight:bold;font-size:2.37067px;font-family:'Proxima Nova';dominant-baseline:alphabetic;text-anchor:middle;fill:#18191c"/>
    </g>
    <rect x="36.099998" y="63.904888" width="10.4" height="12.980445" rx="1" ry="1" fill="#efedeb" stroke="#18191c" stroke-width="0.35"/>
    <g style="font-weight:bold;font-size:2.37067px;font-family:'Proxima Nova';dominant-baseline:alphabetic;text-anchor:middle;fill:#18191c">
      <path d="m 40.671643,66.485336 h 0.858181 c 0.301075,0 0.45991,-0.189653 0.45991,-0.42672 0,-0.199136 -0.135128,-0.362712 -0.303446,-0.388789 0.149352,-0.03082 0.272627,-0.163576 0.272627,-0.362712 0,-0.210989 -0.154093,-0.403013 -0.455168,-0.403013 h -0.832104 z m 0.336635,-0.945896 v -0.348488 h 0.421978 c 0.113792,0 0.184912,0.07586 0.184912,0.173059 0,0.101939 -0.07112,0.175429 -0.184912,0.175429 z m 0,0.659046 v -0.372195 h 0.433832 c 0.132757,0 0.203877,0.08534 0.203877,0.184912 0,0.113792 -0.07586,0.187283 -0.203877,0.187283 z" style="font-weight:bold;font-size:2.37067px;font-family:'Proxima Nova';dominant-baseline:alphabetic;text-anchor:middle;fill:#18191c"/>
    </g>
    <rect x="47.5" y="63.904888" width="10.4" height="12.980445" rx="1" ry="1" fill="#efedeb" stroke="#18191c" stroke-width="0.35"/>
    <g style="font-weight:bold;font-size:2.37067px;font-family:'Proxima Nova';dominant-baseline:alphabetic;text-anchor:middle;fill:#18191c">
      <path d="m 52.79542,66.513784 c 0.360341,0 0.559477,-0.192024 0.673269,-0.388789 l -0.289221,-0.139869 c -0.06638,0.130386 -0.208619,0.229954 -0.384048,0.229954 -0.274997,0 -0.483616,-0.220472 -0.483616,-0.519176 0,-0.298704 0.208619,-0.519176 0.483616,-0.519176 0.175429,0 0.317669,0.101939 0.384048,0.229955 l 0.289221,-0.14224 c -0.111421,-0.196765 -0.312928,-0.386419 -0.673269,-0.386419 -0.46228,0 -0.829733,0.331894 -0.829733,0.81788 0,0.485987 0.367453,0.81788 0.829733,0.81788 z" style="font-weight:bold;font-size:2.37067px;font-family:'Proxima Nova';dominant-baseline:alphabetic;text-anchor:middle;fill:#18191c"/>
    </g>
    <rect x="24.700001" y="83.962219" width="10.4" height="12.980445" rx="1" ry="1" fill="#18191c" stroke="#18191c" stroke-width="0.35"/>
    <g style="font-weight:bold;font-size:2.37067px;font-family:'Proxima Nova';dominant-baseline:alphabetic;text-anchor:middle;fill:#efedeb">
      <path d="m 26.090449,86.319821 c 0.149352,0.149352 0.367454,0.251291 0.670899,0.251291 0.42672,0 0.632968,-0.218102 0.632968,-0.507323 0,-0.350859 -0.331893,-0.429091 -0.592667,-0.488357 -0.182541,-0.04267 -0.315298,-0.07586 -0.315298,-0.182542 0,-0.09483 0.0806,-0.161205 0.232325,-0.161205 0.154093,0 0.324781,0.05452 0.452797,0.173059 l 0.187283,-0.24655 c -0.156464,-0.14461 -0.365083,-0.220472 -0.616373,-0.220472 -0.372195,0 -0.599779,0.21336 -0.599779,0.476504 0,0.35323 0.331893,0.42435 0.590296,0.483616 0.182541,0.04267 0.32004,0.08297 0.32004,0.201507 0,0.09009 -0.09008,0.1778 -0.274997,0.1778 -0.218102,0 -0.39116,-0.0972 -0.502582,-0.21336 z" style="font-weight:bold;font-size:2.37067px;font-family:'Proxima Nova';dominant-baseline:alphabetic;text-anchor:middle;fill:#efedeb"/>
      <path d="m 27.967536,86.542664 h 0.339005 v -1.284902 h 0.459909 v -0.296333 h -1.261194 v 0.296333 h 0.46228 z" style="font-weight:bold;font-size:2.37067px;font-family:'Proxima Nova';dominant-baseline:alphabetic;text-anchor:middle;fill:#efedeb"/>
      <path d="m 28.982255,86.542664 h 1.118955 v -0.291592 h -0.78232 v -0.367454 h 0.765725 V 85.594397 H 29.31889 V 85.25065 h 0.78232 v -0.289221 h -1.118955 z" style="font-weight:bold;font-size:2.37067px;font-family:'Proxima Nova';dominant-baseline:alphabetic;text-anchor:middle;fill:#efedeb"/>
      <path d="m 30.366688,86.542664 h 0.336634 v -0.56659 h 0.403014 c 0.341376,0 0.531029,-0.229954 0.531029,-0.504952 0,-0.277368 -0.187283,-0.509693 -0.531029,-0.509693 h -0.739648 z m 0.92693,-1.073912 c 0,0.132757 -0.09957,0.218101 -0.232325,0.218101 H 30.703322 V 85.25065 h 0.357971 c 0.132757,0 0.232325,0.08772 0.232325,0.218102 z" style="font-weight:bold;font-size:2.37067px;font-family:'Proxima Nova';dominant-baseline:alphabetic;text-anchor:middle;fill:#efedeb"/>
      <path d="m 32.87226,86.542664 h 0.225214 l 0.132757,-0.400643 h 0.244179 l 0.05927,-0.192024 h -0.239437 l 0.130387,-0.393531 h 0.237066 l 0.0569,-0.189653 h -0.229954 l 0.137498,-0.405384 h -0.225213 l -0.132757,0.405384 h -0.222843 l 0.132757,-0.405384 h -0.222842 l -0.132758,0.405384 h -0.239437 l -0.05927,0.189653 h 0.232326 l -0.128016,0.393531 h -0.232326 l -0.06164,0.192024 h 0.227584 l -0.135128,0.400643 h 0.222843 l 0.135128,-0.400643 h 0.225213 z m 0.329523,-0.986198 -0.130387,0.393531 h -0.220472 l 0.128016,-0.393531 z" style="font-weight:bold;font-size:2.37067px;font-family:'Proxima Nova';dominant-baseline:alphabetic;text-anchor:middle;fill:#efedeb"/>
    </g>
    <rect x="36.099998" y="83.962219" width="10.4" height="12.980445" rx="1" ry="1" fill="#18191c" stroke="#18191c" stroke-width="0.35"/>
    <g style="font-weight:bold;font-size:2.37067px;font-family:'Proxima Nova';dominant-baseline:alphabetic;text-anchor:middle;fill:#efedeb">
      <path d="m 38.279288,86.571112 c 0.360342,0 0.559478,-0.192024 0.67327,-0.38879 l -0.289222,-0.139869 c -0.06638,0.130387 -0.208618,0.229955 -0.384048,0.229955 -0.274997,0 -0.483616,-0.220472 -0.483616,-0.519176 0,-0.298704 0.208619,-0.519176 0.483616,-0.519176 0.17543,0 0.31767,0.101938 0.384048,0.229954 l 0.289222,-0.14224 c -0.111422,-0.196765 -0.312928,-0.386418 -0.67327,-0.386418 -0.46228,0 -0.829733,0.331893 -0.829733,0.81788 0,0.485986 0.367453,0.81788 0.829733,0.81788 z" style="font-weight:bold;font-size:2.37067px;font-family:'Proxima Nova';dominant-baseline:alphabetic;text-anchor:middle;fill:#efedeb"/>
      <path d="m 39.15525,85.912066 c 0,0.38879 0.225213,0.659046 0.708829,0.659046 0.478875,0 0.704088,-0.267886 0.704088,-0.661416 v -0.948267 h -0.341376 v 0.938784 c 0,0.220472 -0.120904,0.372195 -0.362712,0.372195 -0.246549,0 -0.367453,-0.151723 -0.367453,-0.372195 V 84.961429 H 39.15525 Z" style="font-weight:bold;font-size:2.37067px;font-family:'Proxima Nova';dominant-baseline:alphabetic;text-anchor:middle;fill:#efedeb"/>
      <path d="m 41.776059,86.542664 h 0.386418 l -0.3556,-0.60215 c 0.170688,-0.0403 0.346118,-0.189653 0.346118,-0.469392 0,-0.293962 -0.201507,-0.509693 -0.53103,-0.509693 h -0.739648 v 1.581235 h 0.336635 v -0.56659 h 0.246549 z m 0.03319,-1.073912 c 0,0.132757 -0.101939,0.218101 -0.237067,0.218101 h -0.35323 V 85.25065 h 0.353229 c 0.135128,0 0.237067,0.08534 0.237068,0.218102 z" style="font-weight:bold;font-size:2.37067px;font-family:'Proxima Nova';dominant-baseline:alphabetic;text-anchor:middle;fill:#efedeb"/>
      <path d="m 42.825819,86.542664 h 0.421979 l 0.609262,-1.581235 h -0.384048 l -0.436203,1.216152 -0.438574,-1.216152 h -0.384048 z" style="font-weight:bold;font-size:2.37067px;font-family:'Proxima Nova';dominant-baseline:alphabetic;text-anchor:middle;fill:#efedeb"/>
      <path d="m 44.003078,86.542664 h 1.118955 v -0.291592 h -0.78232 v -0.367454 h 0.765725 V 85.594397 H 44.339713 V 85.25065 h 0.78232 v -0.289221 h -1.118955 z" style="font-weight:bold;font-size:2.37067px;font-family:'Proxima Nova';dominant-baseline:alphabetic;text-anchor:middle;fill:#efedeb"/>
    </g>
    <rect x="47.5" y="83.962219" width="10.4" height="12.980445" rx="1" ry="1" fill="#18191c" stroke="#18191c" stroke-width="0.35"/>
    <g style="font-weight:bold;font-size:2.37067px;font-family:'Proxima Nova';dominant-baseline:alphabetic;text-anchor:middle;fill:#efedeb">
      <path d="m 49.781766,86.319821 c 0.149352,0.149352 0.367453,0.251291 0.670898,0.251291 0.42672,0 0.632968,-0.218102 0.632968,-0.507323 0,-0.350859 -0.331893,-0.429091 -0.592666,-0.488357 -0.182542,-0.04267 -0.315299,-0.07586 -0.315299,-0.182542 0,-0.09483 0.0806,-0.161205 0.232325,-0.161205 0.154094,0 0.324782,0.05452 0.452798,0.173059 l 0.187282,-0.24655 c -0.156464,-0.14461 -0.365082,-0.220472 -0.616373,-0.220472 -0.372195,0 -0.599779,0.21336 -0.599779,0.476504 0,0.35323 0.331894,0.42435 0.590296,0.483616 0.182542,0.04267 0.32004,0.08297 0.32004,0.201507 0,0.09009 -0.09009,0.1778 -0.274997,0.1778 -0.218101,0 -0.39116,-0.0972 -0.502581,-0.21336 z" style="font-weight:bold;font-size:2.37067px;font-family:'Proxima Nova';dominant-baseline:alphabetic;text-anchor:middle;fill:#efedeb"/>
      <path d="m 51.31229,85.912066 c 0,0.38879 0.225214,0.659046 0.70883,0.659046 0.478874,0 0.704088,-0.267886 0.704088,-0.661416 v -0.948267 h -0.341376 v 0.938784 c 0,0.220472 -0.120904,0.372195 -0.362712,0.372195 -0.24655,0 -0.367454,-0.151723 -0.367454,-0.372195 V 84.961429 H 51.31229 Z" style="font-weight:bold;font-size:2.37067px;font-family:'Proxima Nova';dominant-baseline:alphabetic;text-anchor:middle;fill:#efedeb"/>
      <path d="m 52.930307,86.319821 c 0.149352,0.149352 0.367454,0.251291 0.670899,0.251291 0.42672,0 0.632968,-0.218102 0.632968,-0.507323 0,-0.350859 -0.331893,-0.429091 -0.592667,-0.488357 -0.182541,-0.04267 -0.315298,-0.07586 -0.315298,-0.182542 0,-0.09483 0.0806,-0.161205 0.232325,-0.161205 0.154093,0 0.324781,0.05452 0.452797,0.173059 l 0.187283,-0.24655 c -0.156464,-0.14461 -0.365083,-0.220472 -0.616373,-0.220472 -0.372195,0 -0.599779,0.21336 -0.599779,0.476504 0,0.35323 0.331893,0.42435 0.590296,0.483616 0.182541,0.04267 0.32004,0.08297 0.32004,0.201507 0,0.09009 -0.09009,0.1778 -0.274997,0.1778 -0.218102,0 -0.39116,-0.0972 -0.502582,-0.21336 z" style="font-weight:bold;font-size:2.37067px;font-family:'Proxima Nova';dominant-baseline:alphabetic;text-anchor:middle;fill:#efedeb"/>
      <path d="m 54.807394,86.542664 h 0.339005 v -1.284902 h 0.459909 v -0.296333 h -1.261195 v 0.296333 h 0.462281 z" style="font-weight:bold;font-size:2.37067px;font-family:'Proxima Nova';dominant-baseline:alphabetic;text-anchor:middle;fill:#efedeb"/>
    </g>
    <rect x="24.700001" y="104.01955" width="10.4" height="12.980445" rx="1" ry="1" fill="#18191c" stroke="#18191c" stroke-width="0.35"/>
    <g style="font-weight:bold;font-size:2.37067px;font-family:'Proxima Nova';dominant-baseline:alphabetic;text-anchor:middle;fill:#efedeb">
      <path d="m 26.011736,106.37716 c 0.149352,0.14935 0.367453,0.25129 0.670898,0.25129 0.42672,0 0.632968,-0.2181 0.632968,-0.50733 0,-0.35085 -0.331893,-0.42909 -0.592666,-0.48835 -0.182542,-0.0427 -0.315299,-0.0759 -0.315299,-0.18254 0,-0.0948 0.0806,-0.16121 0.232325,-0.16121 0.154094,0 0.324782,0.0545 0.452798,0.17306 l 0.187282,-0.24655 c -0.156464,-0.14461 -0.365082,-0.22047 -0.616373,-0.22047 -0.372195,0 -0.599779,0.21336 -0.599779,0.4765 0,0.35323 0.331894,0.42435 0.590296,0.48362 0.182542,0.0427 0.32004,0.083 0.32004,0.2015 0,0.0901 -0.09009,0.1778 -0.274997,0.1778 -0.218101,0 -0.39116,-0.0972 -0.502581,-0.21336 z" style="font-weight:bold;font-size:2.37067px;font-family:'Proxima Nova';dominant-baseline:alphabetic;text-anchor:middle;fill:#efedeb"/>
      <path d="m 27.888822,106.6 h 0.339006 v -1.2849 h 0.459909 v -0.29634 h -1.261195 v 0.29634 h 0.46228 z" style="font-weight:bold;font-size:2.37067px;font-family:'Proxima Nova';dominant-baseline:alphabetic;text-anchor:middle;fill:#efedeb"/>
      <path d="m 28.903542,106.6 h 1.118954 v -0.29159 h -0.78232 v -0.36746 h 0.765726 v -0.28922 h -0.765726 v -0.34374 h 0.78232 v -0.28923 h -1.118954 z" style="font-weight:bold;font-size:2.37067px;font-family:'Proxima Nova';dominant-baseline:alphabetic;text-anchor:middle;fill:#efedeb"/>
      <path d="m 30.287974,106.6 h 0.336635 v -0.56659 h 0.403013 c 0.341376,0 0.531029,-0.22996 0.531029,-0.50495 0,-0.27737 -0.187282,-0.5097 -0.531029,-0.5097 h -0.739648 z m 0.926931,-1.07391 c 0,0.13275 -0.09957,0.2181 -0.232326,0.2181 h -0.35797 v -0.4362 h 0.35797 c 0.132758,0 0.232326,0.0877 0.232326,0.2181 z" style="font-weight:bold;font-size:2.37067px;font-family:'Proxima Nova';dominant-baseline:alphabetic;text-anchor:middle;fill:#efedeb"/>
      <path d="m 32.203251,106.6 h 1.642872 l -0.609262,-1.58124 h -0.421978 z m 0.822621,-1.2446 0.346117,0.94827 h -0.692234 z" style="font-weight:bold;font-size:2.37067px;font-family:'Proxima Nova';dominant-baseline:alphabetic;text-anchor:middle;fill:#efedeb"/>
    </g>
    <rect x="36.099998" y="104.01955" width="10.4" height="12.980445" rx="1" ry="1" fill="#18191c" stroke="#18191c" stroke-width="0.35"/>
    <g style="font-weight:bold;font-size:2.37067px;font-family:'Proxima Nova';dominant-baseline:alphabetic;text-anchor:middle;fill:#efedeb">
      <path d="m 37.923373,106.37716 c 0.149352,0.14935 0.367454,0.25129 0.670899,0.25129 0.42672,0 0.632968,-0.2181 0.632968,-0.50733 0,-0.35085 -0.331893,-0.42909 -0.592667,-0.48835 -0.182541,-0.0427 -0.315298,-0.0759 -0.315298,-0.18254 0,-0.0948 0.0806,-0.16121 0.232325,-0.16121 0.154093,0 0.324781,0.0545 0.452797,0.17306 l 0.187283,-0.24655 c -0.156464,-0.14461 -0.365083,-0.22047 -0.616373,-0.22047 -0.372195,0 -0.599779,0.21336 -0.599779,0.4765 0,0.35323 0.331893,0.42435 0.590296,0.48362 0.182541,0.0427 0.32004,0.083 0.32004,0.2015 0,0.0901 -0.09008,0.1778 -0.274997,0.1778 -0.218102,0 -0.39116,-0.0972 -0.502582,-0.21336 z" style="font-weight:bold;font-size:2.37067px;font-family:'Proxima Nova';dominant-baseline:alphabetic;text-anchor:middle;fill:#efedeb"/>
      <path d="m 39.453898,106.6 h 1.118955 v -0.29159 h -0.78232 v -0.36746 h 0.765725 v -0.28922 h -0.765725 v -0.34374 h 0.78232 v -0.28923 h -1.118955 z" style="font-weight:bold;font-size:2.37067px;font-family:'Proxima Nova';dominant-baseline:alphabetic;text-anchor:middle;fill:#efedeb"/>
      <path d="m 42.414824,105.81057 c 0,-0.47651 -0.348488,-0.81788 -0.827363,-0.81788 -0.476504,0 -0.824992,0.34137 -0.824992,0.81788 0,0.4765 0.348488,0.81788 0.824992,0.81788 0.137499,0 0.265515,-0.0285 0.376936,-0.0806 l 0.125645,0.14936 0.234696,-0.19203 -0.116162,-0.13513 c 0.130386,-0.14224 0.206248,-0.33663 0.206248,-0.55947 z m -0.827363,0.51917 c -0.291592,0 -0.478875,-0.22521 -0.478875,-0.51917 0,-0.29634 0.187283,-0.51918 0.478875,-0.51918 0.291592,0 0.481245,0.22284 0.481245,0.51918 0,0.11379 -0.02845,0.2181 -0.0806,0.30107 l -0.180171,-0.21099 -0.234696,0.18966 0.180171,0.21098 c -0.04978,0.019 -0.10668,0.0285 -0.165947,0.0285 z" style="font-weight:bold;font-size:2.37067px;font-family:'Proxima Nova';dominant-baseline:alphabetic;text-anchor:middle;fill:#efedeb"/>
      <path d="m 43.091612,106.6 h 1.642872 l -0.609261,-1.58124 h -0.421979 z m 0.822621,-1.2446 0.346118,0.94827 h -0.692235 z" style="font-weight:bold;font-size:2.37067px;font-family:'Proxima Nova';dominant-baseline:alphabetic;text-anchor:middle;fill:#efedeb"/>
    </g>
    <rect x="47.5" y="104.01955" width="10.4" height="12.980445" rx="1" ry="1" fill="#18191c" stroke="#18191c" stroke-width="0.35"/>
    <g style="font-weight:bold;font-size:2.37067px;font-family:'Proxima Nova';dominant-baseline:alphabetic;text-anchor:middle;fill:#efedeb">
      <path d="m 50.319648,105.81057 c 0,0.4765 0.348488,0.81788 0.824992,0.81788 0.478874,0 0.827362,-0.34138 0.827362,-0.81788 0,-0.47651 -0.348488,-0.81788 -0.827362,-0.81788 -0.476504,0 -0.824992,0.34137 -0.824992,0.81788 z m 1.306237,0 c 0,0.29396 -0.189653,0.51917 -0.481245,0.51917 -0.291592,0 -0.478875,-0.22521 -0.478875,-0.51917 0,-0.29634 0.187283,-0.51918 0.478875,-0.51918 0.291592,0 0.481245,0.22284 0.481245,0.51918 z" style="font-weight:bold;font-size:2.37067px;font-family:'Proxima Nova';dominant-baseline:alphabetic;text-anchor:middle;fill:#efedeb"/>
      <path d="m 52.210551,105.9694 c 0,0.38879 0.225213,0.65905 0.708829,0.65905 0.478875,0 0.704088,-0.26789 0.704088,-0.66142 v -0.94827 h -0.341376 v 0.93879 c 0,0.22047 -0.120904,0.37219 -0.362712,0.37219 -0.246549,0 -0.367453,-0.15172 -0.367453,-0.37219 v -0.93879 h -0.341376 z" style="font-weight:bold;font-size:2.37067px;font-family:'Proxima Nova';dominant-baseline:alphabetic;text-anchor:middle;fill:#efedeb"/>
      <path d="m 54.302701,106.6 h 0.339005 v -1.2849 h 0.45991 v -0.29634 h -1.261195 v 0.29634 h 0.46228 z" style="font-weight:bold;font-size:2.37067px;font-family:'Proxima Nova';dominant-baseline:alphabetic;text-anchor:middle;fill:#efedeb"/>
    </g>
    <g style="font-weight:bold;font-size:3.048px;font-family:'Proxima Nova';dominant-baseline:middle;text-anchor:end;fill:#18191c">
      <path d="m 65.457813,26.017075 h 0.435864 v -1.652016 h 0.591312 v -0.381 h -1.621536 v 0.381 h 0.59436 z" style="font-weight:bold;font-size:3.048px;font-family:'Proxima Nova';dominant-baseline:middle;text-anchor:end;fill:#18191c"/>
      <path d="m 67.911548,26.017075 h 0.496824 l -0.4572,-0.774192 c 0.219456,-0.05182 0.445008,-0.24384 0.445008,-0.603504 0,-0.377952 -0.25908,-0.65532 -0.682752,-0.65532 h -0.950976 v 2.033016 h 0.432816 v -0.728472 h 0.316992 z m 0.04267,-1.380744 c 0,0.170688 -0.131064,0.280416 -0.3048,0.280416 h -0.454152 v -0.560832 h 0.454152 c 0.173736,0 0.3048,0.109728 0.3048,0.280416 z" style="font-weight:bold;font-size:3.048px;font-family:'Proxima Nova';dominant-baseline:middle;text-anchor:end;fill:#18191c"/>
      <path d="m 68.72103,26.017075 h 0.432816 V 23.984059 H 68.72103 Z" style="font-weight:bold;font-size:3.048px;font-family:'Proxima Nova';dominant-baseline:middle;text-anchor:end;fill:#18191c"/>
      <path d="m 69.456932,25.002091 c 0,0.64008 0.48768,1.054608 1.08204,1.054608 0.368808,0 0.658368,-0.1524 0.865632,-0.384048 v -0.77724 H 70.43534 v 0.371856 h 0.542544 v 0.246888 c -0.08839,0.07925 -0.252984,0.155448 -0.438912,0.155448 -0.368808,0 -0.637032,-0.283464 -0.637032,-0.667512 0,-0.384048 0.268224,-0.667512 0.637032,-0.667512 0.21336,0 0.387096,0.112776 0.481584,0.256032 l 0.359664,-0.195072 c -0.155448,-0.240792 -0.420624,-0.445008 -0.841248,-0.445008 -0.59436,0 -1.08204,0.408432 -1.08204,1.05156 z" style="font-weight:bold;font-size:3.048px;font-family:'Proxima Nova';dominant-baseline:middle;text-anchor:end;fill:#18191c"/>
    </g>
    <g style="font-weight:bold;font-size:3.048px;font-family:'Proxima Nova';dominant-baseline:middle;text-anchor:end;fill:#18191c">
      <path d="m 66.923187,30.347519 h 0.432816 v -2.033016 h -0.432816 z" style="font-weight:bold;font-size:3.048px;font-family:'Proxima Nova';dominant-baseline:middle;text-anchor:end;fill:#18191c"/>
      <path d="m 69.158704,30.347519 h 0.417576 v -2.033016 h -0.432816 v 1.316736 l -0.941832,-1.316736 h -0.445008 v 2.033016 h 0.432816 v -1.365504 z" style="font-weight:bold;font-size:3.048px;font-family:'Proxima Nova';dominant-baseline:middle;text-anchor:end;fill:#18191c"/>
      <path d="m 70.446532,30.347519 h 0.435864 v -1.652016 h 0.591312 v -0.381 h -1.621536 v 0.381 h 0.59436 z" style="font-weight:bold;font-size:3.048px;font-family:'Proxima Nova';dominant-baseline:middle;text-anchor:end;fill:#18191c"/>
    </g>
    <g style="font-weight:bold;font-size:3.048px;font-family:'Proxima Nova';dominant-baseline:middle;text-anchor:end;fill:#18191c">
      <path d="m 63.98501,34.391452 c 0.192024,0.192024 0.47244,0.323088 0.862584,0.323088 0.54864,0 0.813816,-0.280416 0.813816,-0.652272 0,-0.451104 -0.42672,-0.551688 -0.762,-0.627888 -0.234696,-0.05486 -0.405384,-0.09754 -0.405384,-0.234696 0,-0.12192 0.103632,-0.207264 0.298704,-0.207264 0.19812,0 0.417576,0.0701 0.582168,0.222504 l 0.240792,-0.316992 c -0.201168,-0.185928 -0.469392,-0.283464 -0.79248,-0.283464 -0.478536,0 -0.771144,0.27432 -0.771144,0.612648 0,0.454152 0.42672,0.545592 0.758952,0.621792 0.234696,0.05486 0.41148,0.10668 0.41148,0.25908 0,0.115824 -0.115824,0.2286 -0.353568,0.2286 -0.280416,0 -0.50292,-0.124968 -0.646176,-0.27432 z" style="font-weight:bold;font-size:3.048px;font-family:'Proxima Nova';dominant-baseline:middle;text-anchor:end;fill:#18191c"/>
      <path d="m 65.952827,33.867196 c 0,0.499872 0.28956,0.847344 0.911352,0.847344 0.615696,0 0.905256,-0.344424 0.905256,-0.850392 v -1.2192 h -0.438912 v 1.207008 c 0,0.283464 -0.155448,0.478536 -0.466344,0.478536 -0.316992,0 -0.47244,-0.195072 -0.47244,-0.478536 v -1.207008 h -0.438912 z" style="font-weight:bold;font-size:3.048px;font-family:'Proxima Nova';dominant-baseline:middle;text-anchor:end;fill:#18191c"/>
      <path d="m 68.033135,34.391452 c 0.192024,0.192024 0.47244,0.323088 0.862584,0.323088 0.54864,0 0.813816,-0.280416 0.813816,-0.652272 0,-0.451104 -0.42672,-0.551688 -0.762,-0.627888 -0.234696,-0.05486 -0.405384,-0.09754 -0.405384,-0.234696 0,-0.12192 0.103632,-0.207264 0.298704,-0.207264 0.19812,0 0.417576,0.0701 0.582168,0.222504 l 0.240792,-0.316992 c -0.201168,-0.185928 -0.469392,-0.283464 -0.79248,-0.283464 -0.478536,0 -0.771144,0.27432 -0.771144,0.612648 0,0.454152 0.42672,0.545592 0.758952,0.621792 0.234696,0.05486 0.41148,0.10668 0.41148,0.25908 0,0.115824 -0.115824,0.2286 -0.353568,0.2286 -0.280416,0 -0.50292,-0.124968 -0.646176,-0.27432 z" style="font-weight:bold;font-size:3.048px;font-family:'Proxima Nova';dominant-baseline:middle;text-anchor:end;fill:#18191c"/>
      <path d="m 70.446532,34.677964 h 0.435864 v -1.652016 h 0.591312 v -0.381 h -1.621536 v 0.381 h 0.59436 z" style="font-weight:bold;font-size:3.048px;font-family:'Proxima Nova';dominant-baseline:middle;text-anchor:end;fill:#18191c"/>
    </g>
    <g style="font-weight:bold;font-size:3.048px;font-family:'Proxima Nova';dominant-baseline:middle;text-anchor:end;fill:#18191c">
      <path d="m 62.44315,47.694728 c 0.192024,0.192024 0.47244,0.323088 0.862584,0.323088 0.54864,0 0.813816,-0.280416 0.813816,-0.652272 0,-0.451104 -0.42672,-0.551688 -0.762,-0.627888 -0.234696,-0.05486 -0.405384,-0.09754 -0.405384,-0.234696 0,-0.12192 0.103632,-0.207264 0.298704,-0.207264 0.19812,0 0.417576,0.0701 0.582168,0.222504 l 0.240792,-0.316992 c -0.201168,-0.185928 -0.469392,-0.283464 -0.79248,-0.283464 -0.478536,0 -0.771144,0.27432 -0.771144,0.612648 0,0.454152 0.42672,0.545592 0.758952,0.621792 0.234696,0.05486 0.41148,0.10668 0.41148,0.25908 0,0.115824 -0.115824,0.2286 -0.353568,0.2286 -0.280416,0 -0.50292,-0.124968 -0.646176,-0.27432 z" style="font-weight:bold;font-size:3.048px;font-family:'Proxima Nova';dominant-baseline:middle;text-anchor:end;fill:#18191c"/>
      <path d="m 64.856547,47.98124 h 0.435864 v -1.652016 h 0.591312 v -0.381 h -1.621536 v 0.381 h 0.59436 z" style="font-weight:bold;font-size:3.048px;font-family:'Proxima Nova';dominant-baseline:middle;text-anchor:end;fill:#18191c"/>
      <path d="m 67.388149,47.98124 h 0.47244 l -0.783336,-2.033016 h -0.542544 l -0.786384,2.033016 h 0.475488 l 0.128016,-0.35052 h 0.908304 z m -0.582168,-1.658112 0.33528,0.932688 h -0.673608 z" style="font-weight:bold;font-size:3.048px;font-family:'Proxima Nova';dominant-baseline:middle;text-anchor:end;fill:#18191c"/>
      <path d="m 69.197423,47.98124 h 0.496824 l -0.4572,-0.774192 c 0.219456,-0.05182 0.445008,-0.24384 0.445008,-0.603504 0,-0.377952 -0.25908,-0.65532 -0.682752,-0.65532 h -0.950976 v 2.033016 h 0.432816 v -0.728472 h 0.316992 z m 0.04267,-1.380744 c 0,0.170688 -0.131064,0.280416 -0.3048,0.280416 h -0.45415 V 46.32008 h 0.454152 c 0.173736,0 0.3048,0.109728 0.3048,0.280416 z" style="font-weight:bold;font-size:3.048px;font-family:'Proxima Nova';dominant-baseline:middle;text-anchor:end;fill:#18191c"/>
      <path d="m 70.446532,47.98124 h 0.435864 v -1.652016 h 0.591312 v -0.381 h -1.621536 v 0.381 h 0.59436 z" style="font-weight:bold;font-size:3.048px;font-family:'Proxima Nova';dominant-baseline:middle;text-anchor:end;fill:#18191c"/>
    </g>
    <g style="font-weight:bold;font-size:3.048px;font-family:'Proxima Nova';dominant-baseline:middle;text-anchor:end;fill:#18191c">
      <path d="m 65.559921,69.04213 h 1.438656 v -0.374904 h -1.00584 v -0.47244 h 0.984504 V 67.82293 h -0.984504 v -0.44196 h 1.00584 v -0.371856 h -1.438656 z" style="font-weight:bold;font-size:3.048px;font-family:'Proxima Nova';dominant-baseline:middle;text-anchor:end;fill:#18191c"/>
      <path d="m 68.741985,69.04213 h 0.417576 v -2.033016 h -0.432816 v 1.316736 l -0.941832,-1.316736 h -0.445008 v 2.033016 h 0.432816 v -1.365504 z" style="font-weight:bold;font-size:3.048px;font-family:'Proxima Nova';dominant-baseline:middle;text-anchor:end;fill:#18191c"/>
      <path d="m 69.560421,69.04213 h 0.801624 c 0.637032,0 1.078992,-0.402336 1.078992,-1.014984 0,-0.612648 -0.44196,-1.018032 -1.078992,-1.018032 h -0.801624 z m 0.432816,-0.381 v -1.271016 h 0.368808 c 0.417576,0 0.637032,0.277368 0.637032,0.637032 0,0.344424 -0.234696,0.633984 -0.637032,0.633984 z" style="font-weight:bold;font-size:3.048px;font-family:'Proxima Nova';dominant-baseline:middle;text-anchor:end;fill:#18191c"/>
    </g>
    <g style="font-weight:bold;font-size:3.048px;font-family:'Proxima Nova';dominant-baseline:middle;text-anchor:end;fill:#18191c">
      <path d="m 65.381327,103.64541 h 0.801624 c 0.637032,0 1.078992,-0.40234 1.078992,-1.01498 0,-0.61265 -0.44196,-1.01804 -1.078992,-1.01804 h -0.801624 z m 0.432816,-0.381 v -1.27102 h 0.368808 c 0.417576,0 0.637032,0.27737 0.637032,0.63704 0,0.34442 -0.234696,0.63398 -0.637032,0.63398 z" style="font-weight:bold;font-size:3.048px;font-family:'Proxima Nova';dominant-baseline:middle;text-anchor:end;fill:#18191c"/>
      <path d="m 67.572077,102.83464 c 0,0.49987 0.28956,0.84735 0.911352,0.84735 0.615696,0 0.905256,-0.34443 0.905256,-0.8504 v -1.2192 h -0.438912 v 1.20701 c 0,0.28347 -0.155448,0.47854 -0.466344,0.47854 -0.316992,0 -0.47244,-0.19507 -0.47244,-0.47854 v -1.20701 h -0.438912 z" style="font-weight:bold;font-size:3.048px;font-family:'Proxima Nova';dominant-baseline:middle;text-anchor:end;fill:#18191c"/>
      <path d="m 70.941689,103.64541 h 0.496824 l -0.4572,-0.77419 c 0.219456,-0.0518 0.445008,-0.24384 0.445008,-0.60351 0,-0.37795 -0.25908,-0.65532 -0.682752,-0.65532 h -0.950976 v 2.03302 h 0.432816 v -0.72847 h 0.316992 z m 0.04267,-1.38074 c 0,0.17068 -0.131064,0.28041 -0.3048,0.28041 h -0.454152 v -0.56083 h 0.454152 c 0.173736,0 0.3048,0.10973 0.3048,0.28042 z" style="font-weight:bold;font-size:3.048px;font-family:'Proxima Nova';dominant-baseline:middle;text-anchor:end;fill:#18191c"/>
    </g>
    <g style="font-weight:bold;font-size:3.048px;font-family:'Proxima Nova';dominant-baseline:middle;text-anchor:end;fill:#18191c">
      <path d="m 61.79426,87.651286 c 0.192024,0.192024 0.47244,0.323088 0.862584,0.323088 0.54864,0 0.813816,-0.280416 0.813816,-0.652272 0,-0.451104 -0.42672,-0.551688 -0.762,-0.627888 -0.234696,-0.05486 -0.405384,-0.09754 -0.405384,-0.234696 0,-0.12192 0.103632,-0.207264 0.298704,-0.207264 0.19812,0 0.417576,0.0701 0.582168,0.222504 l 0.240792,-0.316992 c -0.201168,-0.185928 -0.469392,-0.283464 -0.79248,-0.283464 -0.478536,0 -0.771144,0.27432 -0.771144,0.612648 0,0.454152 0.42672,0.545592 0.758952,0.621792 0.234696,0.05486 0.41148,0.10668 0.41148,0.25908 0,0.115824 -0.115824,0.2286 -0.353568,0.2286 -0.280416,0 -0.50292,-0.124968 -0.646176,-0.27432 z" style="font-weight:bold;font-size:3.048px;font-family:'Proxima Nova';dominant-baseline:middle;text-anchor:end;fill:#18191c"/>
      <path d="m 65.155013,87.937798 h 0.435864 v -2.033016 h -0.435864 v 0.798576 h -0.96012 v -0.798576 h -0.432816 v 2.033016 h 0.432816 v -0.85344 h 0.96012 z" style="font-weight:bold;font-size:3.048px;font-family:'Proxima Nova';dominant-baseline:middle;text-anchor:end;fill:#18191c"/>
      <path d="m 67.411962,87.937798 h 0.47244 l -0.783336,-2.033016 h -0.542544 l -0.786384,2.033016 h 0.475488 l 0.128016,-0.35052 h 0.908304 z m -0.582168,-1.658112 0.33528,0.932688 h -0.673608 z" style="font-weight:bold;font-size:3.048px;font-family:'Proxima Nova';dominant-baseline:middle;text-anchor:end;fill:#18191c"/>
      <path d="m 68.07214,87.937798 h 0.432816 v -0.728472 h 0.51816 c 0.438912,0 0.682752,-0.295656 0.682752,-0.649224 0,-0.356616 -0.240792,-0.65532 -0.682752,-0.65532 H 68.07214 Z m 1.191768,-1.380744 c 0,0.170688 -0.128016,0.280416 -0.298704,0.280416 h -0.460248 v -0.560832 h 0.460248 c 0.170688,0 0.298704,0.112776 0.298704,0.280416 z" style="font-weight:bold;font-size:3.048px;font-family:'Proxima Nova';dominant-baseline:middle;text-anchor:end;fill:#18191c"/>
      <path d="m 69.971187,87.937798 h 1.438656 v -0.374904 h -1.00584 v -0.47244 h 0.984504 v -0.371856 h -0.984504 v -0.44196 h 1.00584 v -0.371856 h -1.438656 z" style="font-weight:bold;font-size:3.048px;font-family:'Proxima Nova';dominant-baseline:middle;text-anchor:end;fill:#18191c"/>
    </g>
    <g style="font-weight:bold;font-size:3.048px;font-family:'Proxima Nova';dominant-baseline:middle;text-anchor:end;fill:#18191c">
      <path d="m 67.099494,113.83042 c 0,0.61265 0.448056,1.05156 1.060704,1.05156 0.615696,0 1.063752,-0.43891 1.063752,-1.05156 0,-0.61265 -0.448056,-1.05156 -1.063752,-1.05156 -0.612648,0 -1.060704,0.43891 -1.060704,1.05156 z m 1.679448,0 c 0,0.37795 -0.24384,0.66751 -0.618744,0.66751 -0.374904,0 -0.615696,-0.28956 -0.615696,-0.66751 0,-0.381 0.240792,-0.66751 0.615696,-0.66751 0.374904,0 0.618744,0.28651 0.618744,0.66751 z" style="font-weight:bold;font-size:3.048px;font-family:'Proxima Nova';dominant-baseline:middle;text-anchor:end;fill:#18191c"/>
      <path d="m 70.932735,114.84541 h 0.417576 v -2.03302 h -0.432816 v 1.31674 l -0.941832,-1.31674 h -0.445008 v 2.03302 h 0.432816 v -1.36551 z" style="font-weight:bold;font-size:3.048px;font-family:'Proxima Nova';dominant-baseline:middle;text-anchor:end;fill:#18191c"/>
    </g>
    <line x1="72.550003" y1="23" x2="72.550003" y2="117" stroke="#18191c" stroke-width="0.35"/>
    <line x1="83.980003" y1="23" x2="83.980003" y2="117" stroke="#18191c" stroke-width="0.35"/>
    <circle cx="78.264999" cy="19.736" r="1.0880001" fill="#18191c" stroke="#18191c" stroke-width="0.35"/>
    <g style="font-weight:bold;font-size:3.048px;font-family:'Proxima Nova';dominant-baseline:alphabetic;text-anchor:middle;fill:#18191c">
      <path d="m 78.255617,16.472 h 0.435864 v -2.033016 h -0.377952 l -0.64008,0.643128 0.246888,0.25908 0.33528,-0.344424 z" style="font-weight:bold;font-size:3.048px;font-family:'Proxima Nova';dominant-baseline:alphabetic;text-anchor:middle;fill:#18191c"/>
    </g>
    <line x1="95.410004" y1="23" x2="95.410004" y2="117" stroke="#18191c" stroke-width="0.35"/>
    <circle cx="89.695" cy="19.736" r="1.0880001" fill="#18191c" stroke="#18191c" stroke-width="0.35"/>
    <g style="font-weight:bold;font-size:3.048px;font-family:'Proxima Nova';dominant-baseline:alphabetic;text-anchor:middle;fill:#18191c">
      <path d="m 88.924451,16.472 h 1.530096 v -0.381 h -0.847344 c 0.545592,-0.384048 0.832104,-0.6858 0.832104,-1.033272 0,-0.405384 -0.344424,-0.649224 -0.77724,-0.649224 -0.283464,0 -0.585216,0.103632 -0.783336,0.332232 l 0.246888,0.286512 c 0.13716,-0.143256 0.313944,-0.234696 0.542544,-0.234696 0.170688,0 0.332232,0.08839 0.332232,0.265176 0,0.249936 -0.24384,0.460248 -1.075944,1.072896 z" style="font-weight:bold;font-size:3.048px;font-family:'Proxima Nova';dominant-baseline:alphabetic;text-anchor:middle;fill:#18191c"/>
    </g>
    <line x1="106.84" y1="23" x2="106.84" y2="117" stroke="#18191c" stroke-width="0.35"/>
    <circle cx="101.125" cy="19.736" r="1.0880001" fill="#18191c" stroke="#18191c" stroke-width="0.35"/>
    <g style="font-weight:bold;font-size:3.048px;font-family:'Proxima Nova';dominant-baseline:alphabetic;text-anchor:middle;fill:#18191c">
      <path d="m 100.29001,16.18244 c 0.14936,0.18288 0.42672,0.326136 0.80163,0.326136 0.48768,0 0.80162,-0.246888 0.80162,-0.597408 0,-0.3048 -0.26822,-0.466344 -0.47549,-0.48768 0.22556,-0.03962 0.44501,-0.207264 0.44501,-0.463296 0,-0.338328 -0.29261,-0.551688 -0.76809,-0.551688 -0.35662,0 -0.61265,0.13716 -0.77724,0.323088 l 0.21336,0.268224 c 0.14325,-0.13716 0.32004,-0.21336 0.51816,-0.21336 0.21336,0 0.37795,0.0823 0.37795,0.24384 0,0.1524 -0.14935,0.225552 -0.37491,0.225552 -0.0792,0 -0.2164,0 -0.25298,-0.003 V 15.6308 c 0.0305,-0.003 0.16764,-0.003 0.25298,-0.003 0.28347,0 0.40844,0.0762 0.40844,0.240792 0,0.155448 -0.13716,0.262128 -0.38405,0.262128 -0.19812,0 -0.42063,-0.08534 -0.56083,-0.231648 z" style="font-weight:bold;font-size:3.048px;font-family:'Proxima Nova';dominant-baseline:alphabetic;text-anchor:middle;fill:#18191c"/>
    </g>
    <line x1="118.27" y1="23" x2="118.27" y2="117" stroke="#18191c" stroke-width="0.35"/>
    <circle cx="112.555" cy="19.736" r="1.0880001" fill="#18191c" stroke="#18191c" stroke-width="0.35"/>
    <g style="font-weight:bold;font-size:3.048px;font-family:'Proxima Nova';dominant-baseline:alphabetic;text-anchor:middle;fill:#18191c">
      <path d="m 112.69268,16.472 h 0.43282 v -0.420624 h 0.26213 v -0.381 h -0.26213 v -1.231392 h -0.59741 L 111.72037,15.71 v 0.341376 h 0.97231 z m 0,-1.648968 v 0.847344 h -0.54864 z" style="font-weight:bold;font-size:3.048px;font-family:'Proxima Nova';dominant-baseline:alphabetic;text-anchor:middle;fill:#18191c"/>
    </g>
    <line x1="129.7" y1="23" x2="129.7" y2="117" stroke="#18191c" stroke-width="0.35"/>
    <circle cx="123.985" cy="19.736" r="1.0880001" fill="#18191c" stroke="#18191c" stroke-width="0.35"/>
    <g style="font-weight:bold;font-size:3.048px;font-family:'Proxima Nova';dominant-baseline:alphabetic;text-anchor:middle;fill:#18191c">
      <path d="m 123.20864,16.203776 c 0.17374,0.188976 0.42977,0.3048 0.78334,0.3048 0.49073,0 0.81381,-0.271272 0.81381,-0.70104 0,-0.41148 -0.30784,-0.65532 -0.65227,-0.65532 -0.18593,0 -0.35052,0.07315 -0.4572,0.16764 V 14.81084 h 0.97231 v -0.371856 h -1.39598 v 1.161288 l 0.30175,0.0823 c 0.12192,-0.115824 0.25908,-0.16764 0.42672,-0.16764 0.23165,0 0.36576,0.124968 0.36576,0.310896 0,0.16764 -0.13716,0.3048 -0.37795,0.3048 -0.21336,0 -0.40234,-0.0762 -0.54254,-0.219456 z" style="font-weight:bold;font-size:3.048px;font-family:'Proxima Nova';dominant-baseline:alphabetic;text-anchor:middle;fill:#18191c"/>
    </g>
    <line x1="141.13" y1="23" x2="141.13" y2="117" stroke="#18191c" stroke-width="0.35"/>
    <circle cx="135.41499" cy="19.736" r="1.0880001" fill="#18191c" stroke="#18191c" stroke-width="0.35"/>
    <g style="font-weight:bold;font-size:3.048px;font-family:'Proxima Nova';dominant-baseline:alphabetic;text-anchor:middle;fill:#18191c">
      <path d="m 134.59291,15.460064 c 0,0.573024 0.25908,1.048512 0.87783,1.048512 0.46329,0 0.77724,-0.301752 0.77724,-0.697992 0,-0.432816 -0.32614,-0.65532 -0.6919,-0.65532 -0.2225,0 -0.42672,0.12192 -0.52121,0.25908 -0.003,-0.01219 -0.003,-0.02743 -0.003,-0.04267 0,-0.323088 0.20116,-0.588264 0.50901,-0.588264 0.17983,0 0.29566,0.05791 0.40539,0.161544 l 0.19507,-0.326136 c -0.14631,-0.124968 -0.35357,-0.210312 -0.60046,-0.210312 -0.60045,0 -0.94793,0.435864 -0.94793,1.05156 z m 1.21616,0.368808 c 0,0.143256 -0.12497,0.301752 -0.35967,0.301752 -0.28651,0 -0.39624,-0.225552 -0.41453,-0.420624 0.0975,-0.118872 0.24384,-0.195072 0.39624,-0.195072 0.19812,0 0.37796,0.09449 0.37796,0.313944 z" style="font-weight:bold;font-size:3.048px;font-family:'Proxima Nova';dominant-baseline:alphabetic;text-anchor:middle;fill:#18191c"/>
    </g>
    <line x1="152.56" y1="23" x2="152.56" y2="117" stroke="#18191c" stroke-width="0.35"/>
    <circle cx="146.845" cy="19.736" r="1.0880001" fill="#18191c" stroke="#18191c" stroke-width="0.35"/>
    <g style="font-weight:bold;font-size:3.048px;font-family:'Proxima Nova';dominant-baseline:alphabetic;text-anchor:middle;fill:#18191c">
      <path d="m 146.38335,16.472 h 0.47549 l 0.7559,-1.731264 v -0.301752 h -1.52705 v 0.381 h 1.02413 z" style="font-weight:bold;font-size:3.048px;font-family:'Proxima Nova';dominant-baseline:alphabetic;text-anchor:middle;fill:#18191c"/>
    </g>
    <line x1="163.99001" y1="23" x2="163.99001" y2="117" stroke="#18191c" stroke-width="0.35"/>
    <circle cx="158.27499" cy="19.736" r="1.0880001" fill="#18191c" stroke="#18191c" stroke-width="0.35"/>
    <g style="font-weight:bold;font-size:3.048px;font-family:'Proxima Nova';dominant-baseline:alphabetic;text-anchor:middle;fill:#18191c">
      <path d="m 157.45894,15.944696 c 0,0.381 0.39014,0.56388 0.81686,0.56388 0.42672,0 0.81687,-0.185928 0.81687,-0.56388 0,-0.246888 -0.19507,-0.435864 -0.43891,-0.521208 0.22555,-0.0762 0.40538,-0.225552 0.40538,-0.478536 0,-0.381 -0.40843,-0.536448 -0.78334,-0.536448 -0.37795,0 -0.78333,0.155448 -0.78333,0.536448 0,0.252984 0.17678,0.402336 0.40233,0.478536 -0.24384,0.08534 -0.43586,0.27432 -0.43586,0.521208 z m 1.15824,-0.932688 c 0,0.158496 -0.21641,0.2286 -0.34138,0.246888 -0.12496,-0.01829 -0.34442,-0.08839 -0.34442,-0.246888 0,-0.143256 0.14326,-0.231648 0.34442,-0.231648 0.19812,0 0.34138,0.08839 0.34138,0.231648 z m 0.0366,0.880872 c 0,0.149352 -0.17069,0.24384 -0.37796,0.24384 -0.21336,0 -0.37795,-0.09449 -0.37795,-0.24384 0,-0.176784 0.24994,-0.262128 0.37795,-0.277368 0.12497,0.01524 0.37796,0.100584 0.37796,0.277368 z" style="font-weight:bold;font-size:3.048px;font-family:'Proxima Nova';dominant-baseline:alphabetic;text-anchor:middle;fill:#18191c"/>
    </g>
    <line x1="175.42" y1="23" x2="175.42" y2="117" stroke="#18191c" stroke-width="0.35"/>
    <circle cx="169.705" cy="19.736" r="1.0880001" fill="#18191c" stroke="#18191c" stroke-width="0.35"/>
    <g style="font-weight:bold;font-size:3.048px;font-family:'Proxima Nova';dominant-baseline:alphabetic;text-anchor:middle;fill:#18191c">
      <path d="m 168.98351,16.295216 c 0.14325,0.128016 0.35052,0.210312 0.5974,0.210312 0.60046,0 0.94488,-0.435864 0.94488,-1.048512 0,-0.576072 -0.25908,-1.05156 -0.87477,-1.05156 -0.4633,0 -0.78029,0.301752 -0.78029,0.697992 0,0.432816 0.32918,0.658368 0.69494,0.658368 0.22251,0 0.42672,-0.124968 0.52426,-0.262128 v 0.04267 c 0,0.307848 -0.18288,0.585216 -0.50902,0.585216 -0.17983,0 -0.29565,-0.05486 -0.40538,-0.155448 z m 1.10032,-1.088136 c -0.0945,0.118872 -0.24384,0.188976 -0.39624,0.188976 -0.19507,0 -0.3749,-0.09449 -0.3749,-0.310896 0,-0.143256 0.12497,-0.3048 0.35662,-0.3048 0.28956,0 0.39928,0.231648 0.41452,0.42672 z" style="font-weight:bold;font-size:3.048px;font-family:'Proxima Nova';dominant-baseline:alphabetic;text-anchor:middle;fill:#18191c"/>
    </g>
    <line x1="186.85001" y1="23" x2="186.85001" y2="117" stroke="#18191c" stroke-width="0.35"/>
    <circle cx="181.13499" cy="19.736" r="1.0880001" fill="#18191c" stroke="#18191c" stroke-width="0.35"/>
    <g style="font-weight:bold;font-size:3.048px;font-family:'Proxima Nova';dominant-baseline:alphabetic;text-anchor:middle;fill:#18191c">
      <path d="m 180.18204,16.472 h 0.43587 v -2.033016 h -0.37796 l -0.64008,0.643128 0.24689,0.25908 0.33528,-0.344424 z" style="font-weight:bold;font-size:3.048px;font-family:'Proxima Nova';dominant-baseline:alphabetic;text-anchor:middle;fill:#18191c"/>
      <path d="m 180.92013,15.457016 c 0,0.524256 0.25908,1.05156 0.84125,1.05156 0.57912,0 0.84125,-0.527304 0.84125,-1.05156 0,-0.524256 -0.26213,-1.048512 -0.84125,-1.048512 -0.58217,0 -0.84125,0.524256 -0.84125,1.048512 z m 1.24054,0 c 0,0.374904 -0.10973,0.667512 -0.39929,0.667512 -0.29261,0 -0.40233,-0.292608 -0.40233,-0.667512 0,-0.374904 0.10972,-0.664464 0.40233,-0.664464 0.28956,0 0.39929,0.28956 0.39929,0.664464 z" style="font-weight:bold;font-size:3.048px;font-family:'Proxima Nova';dominant-baseline:alphabetic;text-anchor:middle;fill:#18191c"/>
    </g>
    <line x1="198.28" y1="23" x2="198.28" y2="117" stroke="#18191c" stroke-width="0.35"/>
    <circle cx="192.565" cy="19.736" r="1.0880001" fill="#18191c" stroke="#18191c" stroke-width="0.35"/>
    <g style="font-weight:bold;font-size:3.048px;font-family:'Proxima Nova';dominant-baseline:alphabetic;text-anchor:middle;fill:#18191c">
      <path d="m 191.93054,16.472 h 0.43587 v -2.033016 h -0.37796 l -0.64008,0.643128 0.24689,0.25908 0.33528,-0.344424 z" style="font-weight:bold;font-size:3.048px;font-family:'Proxima Nova';dominant-baseline:alphabetic;text-anchor:middle;fill:#18191c"/>
      <path d="m 193.1807,16.472 h 0.43586 v -2.033016 h -0.37795 l -0.64008,0.643128 0.24689,0.25908 0.33528,-0.344424 z" style="font-weight:bold;font-size:3.048px;font-family:'Proxima Nova';dominant-baseline:alphabetic;text-anchor:middle;fill:#18191c"/>
    </g>
    <line x1="209.71001" y1="23" x2="209.71001" y2="117" stroke="#18191c" stroke-width="0.35"/>
    <circle cx="203.995" cy="19.736" r="1.0880001" fill="#18191c" stroke="#18191c" stroke-width="0.35"/>
    <g style="font-weight:bold;font-size:3.048px;font-family:'Proxima Nova';dominant-baseline:alphabetic;text-anchor:middle;fill:#18191c">
      <path d="m 203.07181,16.472 h 0.43586 v -2.033016 h -0.37795 l -0.64008,0.643128 0.24689,0.25908 0.33528,-0.344424 z" style="font-weight:bold;font-size:3.048px;font-family:'Proxima Nova';dominant-baseline:alphabetic;text-anchor:middle;fill:#18191c"/>
      <path d="m 203.84952,16.472 h 1.5301 v -0.381 h -0.84734 c 0.54559,-0.384048 0.8321,-0.6858 0.8321,-1.033272 0,-0.405384 -0.34442,-0.649224 -0.77724,-0.649224 -0.28346,0 -0.58522,0.103632 -0.78334,0.332232 l 0.24689,0.286512 c 0.13716,-0.143256 0.31395,-0.234696 0.54255,-0.234696 0.17068,0 0.33223,0.08839 0.33223,0.265176 0,0.249936 -0.24384,0.460248 -1.07595,1.072896 z" style="font-weight:bold;font-size:3.048px;font-family:'Proxima Nova';dominant-baseline:alphabetic;text-anchor:middle;fill:#18191c"/>
    </g>
    <line x1="221.14" y1="23" x2="221.14" y2="117" stroke="#18191c" stroke-width="0.35"/>
    <circle cx="215.425" cy="19.736" r="1.0880001" fill="#18191c" stroke="#18191c" stroke-width="0.35"/>
    <g style="font-weight:bold;font-size:3.048px;font-family:'Proxima Nova';dominant-baseline:alphabetic;text-anchor:middle;fill:#18191c">
      <path d="m 214.51968,16.472 h 0.43586 v -2.033016 h -0.37795 l -0.64008,0.643128 0.24689,0.25908 0.33528,-0.344424 z" style="font-weight:bold;font-size:3.048px;font-family:'Proxima Nova';dominant-baseline:alphabetic;text-anchor:middle;fill:#18191c"/>
      <path d="m 215.2151,16.18244 c 0.14935,0.18288 0.42672,0.326136 0.80162,0.326136 0.48768,0 0.80162,-0.246888 0.80162,-0.597408 0,-0.3048 -0.26822,-0.466344 -0.47548,-0.48768 0.22555,-0.03962 0.445,-0.207264 0.445,-0.463296 0,-0.338328 -0.2926,-0.551688 -0.76809,-0.551688 -0.35662,0 -0.61265,0.13716 -0.77724,0.323088 l 0.21336,0.268224 c 0.14325,-0.13716 0.32004,-0.21336 0.51816,-0.21336 0.21336,0 0.37795,0.0823 0.37795,0.24384 0,0.1524 -0.14935,0.225552 -0.3749,0.225552 -0.0793,0 -0.21641,0 -0.25299,-0.003 V 15.6308 c 0.0305,-0.003 0.16764,-0.003 0.25299,-0.003 0.28346,0 0.40843,0.0762 0.40843,0.240792 0,0.155448 -0.13716,0.262128 -0.38405,0.262128 -0.19812,0 -0.42062,-0.08534 -0.56083,-0.231648 z" style="font-weight:bold;font-size:3.048px;font-family:'Proxima Nova';dominant-baseline:alphabetic;text-anchor:middle;fill:#18191c"/>
    </g>
    <line x1="232.57001" y1="23" x2="232.57001" y2="117" stroke="#18191c" stroke-width="0.35"/>
    <circle cx="226.855" cy="19.736" r="1.0880001" fill="#18191c" stroke="#18191c" stroke-width="0.35"/>
    <g style="font-weight:bold;font-size:3.048px;font-family:'Proxima Nova';dominant-baseline:alphabetic;text-anchor:middle;fill:#18191c">
      <path d="m 225.93479,16.472 h 0.43586 v -2.033016 h -0.37795 l -0.64008,0.643128 0.24689,0.25908 0.33528,-0.344424 z" style="font-weight:bold;font-size:3.048px;font-family:'Proxima Nova';dominant-baseline:alphabetic;text-anchor:middle;fill:#18191c"/>
      <path d="m 227.61776,16.472 h 0.43281 v -0.420624 h 0.26213 v -0.381 h -0.26213 v -1.231392 h -0.5974 L 226.64545,15.71 v 0.341376 h 0.97231 z m 0,-1.648968 v 0.847344 h -0.54864 z" style="font-weight:bold;font-size:3.048px;font-family:'Proxima Nova';dominant-baseline:alphabetic;text-anchor:middle;fill:#18191c"/>
    </g>
    <line x1="244" y1="23" x2="244" y2="117" stroke="#18191c" stroke-width="0.35"/>
    <circle cx="238.285" cy="19.736" r="1.0880001" fill="#18191c" stroke="#18191c" stroke-width="0.35"/>
    <g style="font-weight:bold;font-size:3.048px;font-family:'Proxima Nova';dominant-baseline:alphabetic;text-anchor:middle;fill:#18191c">
      <path d="m 237.34991,16.472 h 0.43586 v -2.033016 h -0.37795 l -0.64008,0.643128 0.24689,0.25908 0.33528,-0.344424 z" style="font-weight:bold;font-size:3.048px;font-family:'Proxima Nova';dominant-baseline:alphabetic;text-anchor:middle;fill:#18191c"/>
      <path d="m 238.13372,16.203776 c 0.17374,0.188976 0.42977,0.3048 0.78334,0.3048 0.49073,0 0.81381,-0.271272 0.81381,-0.70104 0,-0.41148 -0.30784,-0.65532 -0.65227,-0.65532 -0.18593,0 -0.35052,0.07315 -0.4572,0.16764 V 14.81084 h 0.97231 v -0.371856 h -1.39598 v 1.161288 l 0.30175,0.0823 c 0.12192,-0.115824 0.25908,-0.16764 0.42672,-0.16764 0.23165,0 0.36576,0.124968 0.36576,0.310896 0,0.16764 -0.13716,0.3048 -0.37795,0.3048 -0.21336,0 -0.40234,-0.0762 -0.54254,-0.219456 z" style="font-weight:bold;font-size:3.048px;font-family:'Proxima Nova';dominant-baseline:alphabetic;text-anchor:middle;fill:#18191c"/>
    </g>
    <line x1="255.42999" y1="23" x2="255.42999" y2="117" stroke="#18191c" stroke-width="0.35"/>
    <circle cx="249.715" cy="19.736" r="1.0880001" fill="#18191c" stroke="#18191c" stroke-width="0.35"/>
    <g style="font-weight:bold;font-size:3.048px;font-family:'Proxima Nova';dominant-baseline:alphabetic;text-anchor:middle;fill:#18191c">
      <path d="m 248.7799,16.472 h 0.43587 v -2.033016 h -0.37795 l -0.64008,0.643128 0.24688,0.25908 0.33528,-0.344424 z" style="font-weight:bold;font-size:3.048px;font-family:'Proxima Nova';dominant-baseline:alphabetic;text-anchor:middle;fill:#18191c"/>
      <path d="m 249.518,15.460064 c 0,0.573024 0.25908,1.048512 0.87782,1.048512 0.4633,0 0.77724,-0.301752 0.77724,-0.697992 0,-0.432816 -0.32614,-0.65532 -0.6919,-0.65532 -0.2225,0 -0.42672,0.12192 -0.5212,0.25908 -0.003,-0.01219 -0.003,-0.02743 -0.003,-0.04267 0,-0.323088 0.20117,-0.588264 0.50901,-0.588264 0.17984,0 0.29566,0.05791 0.40539,0.161544 l 0.19507,-0.326136 c -0.1463,-0.124968 -0.35357,-0.210312 -0.60046,-0.210312 -0.60045,0 -0.94792,0.435864 -0.94792,1.05156 z m 1.21615,0.368808 c 0,0.143256 -0.12497,0.301752 -0.35967,0.301752 -0.28651,0 -0.39624,-0.225552 -0.41452,-0.420624 0.0975,-0.118872 0.24384,-0.195072 0.39624,-0.195072 0.19812,0 0.37795,0.09449 0.37795,0.313944 z" style="font-weight:bold;font-size:3.048px;font-family:'Proxima Nova';dominant-baseline:alphabetic;text-anchor:middle;fill:#18191c"/>
    </g>
  </g>
</svg>
