<?xml version="1.0" encoding="UTF-8" standalone="no"?>
<svg
   xmlns:dc="http://purl.org/dc/elements/1.1/"
   xmlns:cc="http://creativecommons.org/ns#"
   xmlns:rdf="http://www.w3.org/1999/02/22-rdf-syntax-ns#"
   xmlns:svg="http://www.w3.org/2000/svg"
   xmlns="http://www.w3.org/2000/svg"
   version="1.1"
   width="121.920mm"
   height="128.500mm"
   viewBox="0 0 121.920 128.500"
   id="svg294">
  <metadata
     id="metadata300">
    <rdf:RDF>
      <cc:Work
         rdf:about="">
        <dc:format>image/svg+xml</dc:format>
        <dc:type
           rdf:resource="http://purl.org/dc/dcmitype/StillImage" />
      </cc:Work>
    </rdf:RDF>
  </metadata>
  <defs
     id="defs298" />
  <rect
     x="0"
     y="0"
     width="121.920"
     height="128.500"
     fill="#efedeb"
     stroke="#331a00"
     stroke-width="1"
     rx="1.000"
     ry="1.000"
     id="rect2" />
  <g
     transform="translate(60.96,9)"
     id="g6">
    <g
       aria-label="SEQUENCIZER 4"
       id="text4"
       style="font-weight:bold;font-size:4.064px;font-family:'Proxima Nova';dominant-baseline:alphabetic;text-anchor:middle;fill:#331a00">
      <path
         d="m -15.408752,-0.38201601 c 0.256032,0.25603201 0.62992,0.43078401 1.150112,0.43078401 0.73152,0 1.085088,-0.37388801 1.085088,-0.86969603 0,-0.60147197 -0.56896,-0.73558397 -1.016,-0.83718407 -0.312928,-0.073152 -0.540512,-0.130048 -0.540512,-0.312928 0,-0.16256 0.138176,-0.276352 0.398272,-0.276352 0.26416,0 0.556768,0.093472 0.776224,0.296672 l 0.321056,-0.422656 c -0.268224,-0.247904 -0.625856,-0.377952 -1.05664,-0.377952 -0.638048,0 -1.028192,0.36576 -1.028192,0.816864 0,0.6055361 0.56896,0.7274561 1.011936,0.8290561 0.312928,0.073152 0.54864,0.14223997 0.54864,0.34543998 0,0.154432 -0.154432,0.30480001 -0.471424,0.30480001 -0.373888,0 -0.67056,-0.16662401 -0.861568,-0.36576002 z"
         style="font-weight:bold;font-size:4.064px;font-family:'Proxima Nova';dominant-baseline:alphabetic;text-anchor:middle;fill:#331a00"
         id="path302" />
      <path
         d="m -12.784995,0 h 1.918208 v -0.49987202 h -1.34112 V -1.129792 h 1.312672 v -0.4958081 h -1.312672 v -0.58928 h 1.34112 v -0.495808 h -1.918208 z"
         style="font-weight:bold;font-size:4.064px;font-family:'Proxima Nova';dominant-baseline:alphabetic;text-anchor:middle;fill:#331a00"
         id="path304" />
      <path
         d="m -7.7091223,-1.353312 c 0,-0.8168641 -0.597408,-1.4020801 -1.418336,-1.4020801 -0.8168641,0 -1.4142717,0.585216 -1.4142717,1.4020801 0,0.81686398 0.5974076,1.40208 1.4142717,1.40208 0.235712,0 0.455168,-0.048768 0.646176,-0.138176 l 0.215392,0.25603201 0.402336,-0.32918402 -0.199136,-0.231648 c 0.22352,-0.24384001 0.353568,-0.57708802 0.353568,-0.95910399 z m -1.418336,0.89001599 c -0.4998721,0 -0.8209281,-0.38608002 -0.8209281,-0.89001599 0,-0.5080001 0.321056,-0.8900161 0.8209281,-0.8900161 0.499872,0 0.824992,0.382016 0.824992,0.8900161 0,0.195072 -0.048768,0.37388797 -0.138176,0.51612797 l -0.308864,-0.36169597 -0.402336,0.32511997 0.308864,0.36169601 c -0.085344,0.032512 -0.18288,0.048768 -0.28448,0.048768 z"
         style="font-weight:bold;font-size:4.064px;font-family:'Proxima Nova';dominant-baseline:alphabetic;text-anchor:middle;fill:#331a00"
         id="path306" />
      <path
         d="m -7.3001826,-1.081024 c 0,0.66649599 0.38608,1.129792 1.215136,1.129792 0.8209281,0 1.2070081,-0.45923201 1.2070081,-1.133856 v -1.6256001 h -0.585216 v 1.6093441 c 0,0.37795198 -0.207264,0.63804799 -0.6217921,0.63804799 -0.422656,0 -0.62992,-0.26009601 -0.62992,-0.63804799 v -1.6093441 h -0.585216 z"
         style="font-weight:bold;font-size:4.064px;font-family:'Proxima Nova';dominant-baseline:alphabetic;text-anchor:middle;fill:#331a00"
         id="path308" />
      <path
         d="m -4.339495,0 h 1.9182081 v -0.49987202 h -1.34112 V -1.129792 h 1.312672 v -0.4958081 h -1.312672 v -0.58928 h 1.34112 v -0.495808 H -4.339495 Z"
         style="font-weight:bold;font-size:4.064px;font-family:'Proxima Nova';dominant-baseline:alphabetic;text-anchor:middle;fill:#331a00"
         id="path310" />
      <path
         d="m -0.09674291,0 h 0.55676802 v -2.7106881 h -0.57708802 v 1.75564807 L -1.3728389,-2.7106881 H -1.966183 V 0 h 0.5770881 v -1.8206721 z"
         style="font-weight:bold;font-size:4.064px;font-family:'Proxima Nova';dominant-baseline:alphabetic;text-anchor:middle;fill:#331a00"
         id="path312" />
      <path
         d="m 2.2868567,0.048768 c 0.617728,0 0.959104,-0.32918401 1.1541761,-0.66649602 L 2.9452247,-0.85750403 c -0.113792,0.22352001 -0.357632,0.39420802 -0.658368,0.39420802 -0.471424,0 -0.829056,-0.37795202 -0.829056,-0.89001599 0,-0.5120641 0.357632,-0.8900161 0.829056,-0.8900161 0.300736,0 0.544576,0.174752 0.658368,0.394208 l 0.4958081,-0.24384 c -0.1910081,-0.337312 -0.5364481,-0.662432 -1.1541761,-0.662432 -0.79248,0 -1.42240003,0.56896 -1.42240003,1.4020801 0,0.83311998 0.62992003,1.40208 1.42240003,1.40208 z"
         style="font-weight:bold;font-size:4.064px;font-family:'Proxima Nova';dominant-baseline:alphabetic;text-anchor:middle;fill:#331a00"
         id="path314" />
      <path
         d="m 3.7885053,0 h 0.577088 v -2.7106881 h -0.577088 z"
         style="font-weight:bold;font-size:4.064px;font-family:'Proxima Nova';dominant-baseline:alphabetic;text-anchor:middle;fill:#331a00"
         id="path316" />
      <path
         d="M 4.8022192,0 H 6.8667313 V -0.50800002 H 5.5581232 L 6.8382833,-2.2473921 v -0.463296 H 4.8022192 v 0.508 h 1.2801601 l -1.2801601,1.73532809 z"
         style="font-weight:bold;font-size:4.064px;font-family:'Proxima Nova';dominant-baseline:alphabetic;text-anchor:middle;fill:#331a00"
         id="path318" />
      <path
         d="m 7.3048189,0 h 1.918208 v -0.49987202 h -1.34112 V -1.129792 h 1.312672 v -0.4958081 h -1.312672 v -0.58928 h 1.34112 v -0.495808 h -1.918208 z"
         style="font-weight:bold;font-size:4.064px;font-family:'Proxima Nova';dominant-baseline:alphabetic;text-anchor:middle;fill:#331a00"
         id="path320" />
      <path
         d="m 11.210259,0 h 0.662432 l -0.6096,-1.032256 c 0.292608,-0.069088 0.593344,-0.32512 0.593344,-0.8046721 0,-0.503936 -0.34544,-0.87376 -0.910336,-0.87376 H 9.6781308 V 0 h 0.5770882 v -0.97129603 h 0.422656 z m 0.0569,-1.8409921 c 0,0.227584 -0.174752,0.3738881 -0.4064,0.3738881 h -0.605536 v -0.7477761 h 0.605536 c 0.231648,0 0.4064,0.146304 0.4064,0.373888 z"
         style="font-weight:bold;font-size:4.064px;font-family:'Proxima Nova';dominant-baseline:alphabetic;text-anchor:middle;fill:#331a00"
         id="path322" />
      <path
         d="m 14.459172,0 h 0.577088 v -0.56083202 h 0.349504 V -1.068832 H 15.03626 V -2.7106881 H 14.239716 L 13.162756,-1.016 v 0.45516798 h 1.296416 z m 0,-2.1986241 v 1.1297921 h -0.73152 z"
         style="font-weight:bold;font-size:4.064px;font-family:'Proxima Nova';dominant-baseline:alphabetic;text-anchor:middle;fill:#331a00"
         id="path324" />
    </g>
  </g>
  <g
     transform="translate(60.96,119.5)"
     id="g10">
    <g
       aria-label="DHE"
       id="text8"
       style="font-weight:bold;font-size:4.064px;font-family:'Proxima Nova';dominant-baseline:hanging;text-anchor:middle;fill:#331a00">
      <path
         d="m -3.8632449,2.7584481 h 1.0688321 c 0.849376,0 1.438656,-0.5364481 1.438656,-1.3533121 0,-0.816864 -0.58928,-1.35737602 -1.438656,-1.35737602 H -3.8632449 Z M -3.2861569,2.250448 V 0.55575999 h 0.4917441 c 0.556768,0 0.849376,0.36982402 0.849376,0.84937601 0,0.459232 -0.312928,0.845312 -0.849376,0.845312 z"
         style="font-weight:bold;font-size:4.064px;font-family:'Proxima Nova';dominant-baseline:hanging;text-anchor:middle;fill:#331a00"
         id="path327" />
      <path
         d="M 0.91500319,2.7584481 H 1.4961552 V 0.04775998 H 0.91500319 V 1.112528 H -0.36515685 V 0.04775998 H -0.94224487 V 2.7584481 h 0.57708802 V 1.620528 h 1.28016004 z"
         style="font-weight:bold;font-size:4.064px;font-family:'Proxima Nova';dominant-baseline:hanging;text-anchor:middle;fill:#331a00"
         id="path329" />
      <path
         d="M 2.0263802,2.7584481 H 3.9445883 V 2.258576 H 2.6034682 V 1.628656 H 3.9161403 V 1.132848 H 2.6034682 V 0.54356799 H 3.9445883 V 0.04775998 H 2.0263802 Z"
         style="font-weight:bold;font-size:4.064px;font-family:'Proxima Nova';dominant-baseline:hanging;text-anchor:middle;fill:#331a00"
         id="path331" />
    </g>
  </g>
  <rect
     x="3.650"
     y="23.010"
     width="17.400"
     height="12.980"
     fill="#efedeb"
     stroke="#331a00"
     stroke-width="0.350"
     rx="1.000"
     ry="1.000"
     id="rect12" />
  <g
     transform="translate(8.85,25.591)"
     id="g16">
    <g
       aria-label="RUN"
       id="text14"
       style="font-weight:bold;font-size:2.371px;font-family:'Proxima Nova';dominant-baseline:alphabetic;text-anchor:middle;fill:#331a00">
      <path
         d="m -1.4387339,0 h 0.386473 l -0.35565,-0.60223401 c 0.170712,-0.040307 0.346166,-0.18968001 0.346166,-0.46945799 0,-0.294004 -0.201535,-0.509765 -0.531104,-0.509765 H -2.332601 V 0 h 0.336682 v -0.56666901 h 0.246584 z m 0.033194,-1.074063 c 0,0.13277598 -0.101953,0.21813198 -0.2371,0.21813198 H -1.995919 V -1.292195 h 0.3532791 c 0.135147,0 0.2371,0.085356 0.2371,0.218132 z"
         style="font-weight:bold;font-size:2.371px;font-family:'Proxima Nova';dominant-baseline:alphabetic;text-anchor:middle;fill:#331a00"
         id="path334" />
      <path
         d="m -0.80904819,-0.63068601 c 0,0.388844 0.22524501,0.65913801 0.70892902,0.65913801 0.47894201,0 0.70418701,-0.26792301 0.70418701,-0.66150901 V -1.581457 H 0.26264383 v 0.93891599 c 0,0.220503 -0.120921,0.372247 -0.362763,0.372247 -0.24658401,0 -0.36750501,-0.151744 -0.36750501,-0.372247 V -1.581457 h -0.34142401 z"
         style="font-weight:bold;font-size:2.371px;font-family:'Proxima Nova';dominant-baseline:alphabetic;text-anchor:middle;fill:#331a00"
         id="path336" />
      <path
         d="m 2.0089224,0 h 0.324827 v -1.581457 h -0.336682 v 1.02427199 L 1.2644284,-1.581457 H 0.91826235 V 0 H 1.2549444 v -1.062208 z"
         style="font-weight:bold;font-size:2.371px;font-family:'Proxima Nova';dominant-baseline:alphabetic;text-anchor:middle;fill:#331a00"
         id="path338" />
    </g>
  </g>
  <rect
     x="3.650"
     y="83.767"
     width="17.400"
     height="12.980"
     fill="#efedeb"
     stroke="#331a00"
     stroke-width="0.350"
     rx="1.000"
     ry="1.000"
     id="rect18" />
  <g
     transform="translate(8.85,86.348)"
     id="g22">
    <g
       aria-label="GATE"
       id="text20"
       style="font-weight:bold;font-size:2.371px;font-family:'Proxima Nova';dominant-baseline:alphabetic;text-anchor:middle;fill:#331a00">
      <path
         d="m -2.8808206,-0.78954302 c 0,0.49791001 0.37936,0.82036602 0.841705,0.82036602 0.286891,0 0.512136,-0.11855 0.673364,-0.29874601 v -0.60460501 h -0.753978 v 0.28926201 h 0.422038 v 0.192051 c -0.068759,0.061646 -0.196793,0.120921 -0.341424,0.120921 -0.286891,0 -0.495539,-0.220503 -0.495539,-0.51924901 0,-0.29874598 0.208648,-0.51924898 0.495539,-0.51924898 0.16597,0 0.301117,0.087727 0.374618,0.199164 l 0.279778,-0.151744 c -0.120921,-0.187309 -0.327198,-0.346166 -0.654396,-0.346166 -0.462345,0 -0.841705,0.317714 -0.841705,0.81799498 z"
         style="font-weight:bold;font-size:2.371px;font-family:'Proxima Nova';dominant-baseline:alphabetic;text-anchor:middle;fill:#331a00"
         id="path341" />
      <path
         d="M -0.00742786,0 H 0.36007715 L -0.24926986,-1.581457 H -0.67130787 L -1.2830259,0 h 0.36987602 l 0.099582,-0.27266501 h 0.70655802 z m -0.45286101,-1.289824 0.26081001,0.72552599 h -0.52399101 z"
         style="font-weight:bold;font-size:2.371px;font-family:'Proxima Nova';dominant-baseline:alphabetic;text-anchor:middle;fill:#331a00"
         id="path343" />
      <path
         d="M 0.71843142,0 H 1.0574844 v -1.285082 h 0.459974 V -1.581457 H 0.25608641 v 0.296375 h 0.46234501 z"
         style="font-weight:bold;font-size:2.371px;font-family:'Proxima Nova';dominant-baseline:alphabetic;text-anchor:middle;fill:#331a00"
         id="path345" />
      <path
         d="m 1.7332937,0 h 1.119112 v -0.29163301 h -0.78243 v -0.367505 h 0.765833 V -0.94840002 H 2.0699757 V -1.292195 h 0.78243 v -0.289262 h -1.119112 z"
         style="font-weight:bold;font-size:2.371px;font-family:'Proxima Nova';dominant-baseline:alphabetic;text-anchor:middle;fill:#331a00"
         id="path347" />
    </g>
  </g>
  <line
     x1="8.850"
     y1="71.295"
     x2="17.130"
     y2="71.295"
     stroke="#331a00"
     stroke-width="0.350"
     id="line24" />
  <g
     transform="translate(7.834,66.095)"
     id="g28">
    <g
       aria-label="START"
       id="text26"
       style="font-weight:bold;font-size:2.371px;font-family:'Proxima Nova';dominant-baseline:alphabetic;text-anchor:middle;fill:#331a00">
      <path
         d="m -3.5183418,-0.222874 c 0.149373,0.149373 0.367505,0.251326 0.670993,0.251326 0.42678,0 0.633057,-0.218132 0.633057,-0.50739401 0,-0.35090801 -0.33194,-0.42915101 -0.59275,-0.48842601 -0.182567,-0.042678 -0.315343,-0.075872 -0.315343,-0.18256698 0,-0.09484 0.080614,-0.161228 0.232358,-0.161228 0.154115,0 0.324827,0.054533 0.452861,0.173083 l 0.187309,-0.246584 c -0.156486,-0.144631 -0.365134,-0.220503 -0.61646,-0.220503 -0.372247,0 -0.599863,0.21339 -0.599863,0.476571 0,0.35327898 0.33194,0.42440898 0.590379,0.48368399 0.182567,0.042678 0.320085,0.082985 0.320085,0.201535 0,0.090098 -0.090098,0.177825 -0.275036,0.177825 -0.218132,0 -0.391215,-0.097211 -0.502652,-0.21339 z"
         style="font-weight:bold;font-size:2.371px;font-family:'Proxima Nova';dominant-baseline:alphabetic;text-anchor:middle;fill:#331a00"
         id="path350" />
      <path
         d="m -1.6409913,0 h 0.339053 v -1.285082 h 0.45997397 V -1.581457 H -2.1033364 v 0.296375 h 0.4623451 z"
         style="font-weight:bold;font-size:2.371px;font-family:'Proxima Nova';dominant-baseline:alphabetic;text-anchor:middle;fill:#331a00"
         id="path352" />
      <path
         d="M 0.32830941,0 H 0.69581442 L 0.0864674,-1.581457 h -0.422038 L -0.94728862,0 h 0.36987601 l 0.099582,-0.27266501 h 0.70655802 z m -0.45286101,-1.289824 0.26081001,0.72552599 h -0.52399102 z"
         style="font-weight:bold;font-size:2.371px;font-family:'Proxima Nova';dominant-baseline:alphabetic;text-anchor:middle;fill:#331a00"
         id="path354" />
      <path
         d="m 1.7357204,0 h 0.386473 l -0.35565,-0.60223401 c 0.170712,-0.040307 0.346166,-0.18968001 0.346166,-0.46945799 0,-0.294004 -0.201535,-0.509765 -0.531104,-0.509765 H 0.84185336 V 0 H 1.1785354 v -0.56666901 h 0.246584 z m 0.033194,-1.074063 c 0,0.13277598 -0.101953,0.21813198 -0.2371,0.21813198 H 1.1785354 V -1.292195 h 0.353279 c 0.135147,0 0.2371,0.085356 0.2371,0.218132 z"
         style="font-weight:bold;font-size:2.371px;font-family:'Proxima Nova';dominant-baseline:alphabetic;text-anchor:middle;fill:#331a00"
         id="path356" />
      <path
         d="M 2.707386,0 H 3.046439 V -1.285082 H 3.506413 V -1.581457 H 2.245041 v 0.296375 h 0.462345 z"
         style="font-weight:bold;font-size:2.371px;font-family:'Proxima Nova';dominant-baseline:alphabetic;text-anchor:middle;fill:#331a00"
         id="path358" />
    </g>
  </g>
  <g
     transform="translate(17.13,66.095)"
     id="g32">
    <g
       aria-label="LEN"
       id="text30"
       style="font-weight:bold;font-size:2.371px;font-family:'Proxima Nova';dominant-baseline:alphabetic;text-anchor:middle;fill:#331a00">
      <path
         d="m -2.020018,0 h 1.0053041 v -0.29637501 h -0.668622 V -1.581457 H -2.020018 Z"
         style="font-weight:bold;font-size:2.371px;font-family:'Proxima Nova';dominant-baseline:alphabetic;text-anchor:middle;fill:#331a00"
         id="path361" />
      <path
         d="m -0.77894756,0 h 1.11911202 v -0.29163301 h -0.78243001 v -0.367505 H 0.32356746 V -0.94840002 H -0.44226555 V -1.292195 h 0.78243001 v -0.289262 h -1.11911202 z"
         style="font-weight:bold;font-size:2.371px;font-family:'Proxima Nova';dominant-baseline:alphabetic;text-anchor:middle;fill:#331a00"
         id="path363" />
      <path
         d="M 1.6963394,0 H 2.0211665 V -1.581457 H 1.6844844 v 1.02427199 L 0.95184543,-1.581457 H 0.60567942 V 0 h 0.33668201 v -1.062208 z"
         style="font-weight:bold;font-size:2.371px;font-family:'Proxima Nova';dominant-baseline:alphabetic;text-anchor:middle;fill:#331a00"
         id="path365" />
    </g>
  </g>
  <rect
     x="3.650"
     y="43.263"
     width="17.400"
     height="12.980"
     fill="#efedeb"
     stroke="#331a00"
     stroke-width="0.350"
     rx="1.000"
     ry="1.000"
     id="rect34" />
  <g
     transform="translate(8.85,45.843)"
     id="g38">
    <g
       aria-label="LOOP"
       id="text36"
       style="font-weight:bold;font-size:2.371px;font-family:'Proxima Nova';dominant-baseline:alphabetic;text-anchor:middle;fill:#331a00">
      <path
         d="m -2.9855522,0 h 1.0053041 v -0.29637501 h -0.668622 V -1.581457 h -0.3366821 z"
         style="font-weight:bold;font-size:2.371px;font-family:'Proxima Nova';dominant-baseline:alphabetic;text-anchor:middle;fill:#331a00"
         id="path368" />
      <path
         d="m -1.8851859,-0.78954302 c 0,0.47657101 0.3485371,0.81799502 0.8251081,0.81799502 0.47894197,0 0.82747898,-0.34142401 0.82747898,-0.81799502 0,-0.47657098 -0.34853701,-0.81799498 -0.82747898,-0.81799498 -0.476571,0 -0.8251081,0.341424 -0.8251081,0.81799498 z m 1.30642107,0 c 0,0.29400401 -0.18968,0.51924901 -0.48131297,0.51924901 -0.291633,0 -0.478942,-0.225245 -0.478942,-0.51924901 0,-0.29637498 0.187309,-0.51924898 0.478942,-0.51924898 0.29163297,0 0.48131297,0.222874 0.48131297,0.51924898 z"
         style="font-weight:bold;font-size:2.371px;font-family:'Proxima Nova';dominant-baseline:alphabetic;text-anchor:middle;fill:#331a00"
         id="path370" />
      <path
         d="m -0.06988897,-0.78954302 c 0,0.47657101 0.34853701,0.81799502 0.82510802,0.81799502 0.47894205,0 0.82747905,-0.34142401 0.82747905,-0.81799502 0,-0.47657098 -0.348537,-0.81799498 -0.82747905,-0.81799498 -0.47657101,0 -0.82510802,0.341424 -0.82510802,0.81799498 z m 1.30642107,0 c 0,0.29400401 -0.18968,0.51924901 -0.48131305,0.51924901 -0.291633,0 -0.47894201,-0.225245 -0.47894201,-0.51924901 0,-0.29637498 0.18730901,-0.51924898 0.47894201,-0.51924898 0.29163305,0 0.48131305,0.222874 0.48131305,0.51924898 z"
         style="font-weight:bold;font-size:2.371px;font-family:'Proxima Nova';dominant-baseline:alphabetic;text-anchor:middle;fill:#331a00"
         id="path372" />
      <path
         d="m 1.8212802,0 h 0.336682 v -0.56666901 h 0.40307 c 0.341424,0 0.531104,-0.22998701 0.531104,-0.50502299 0,-0.277407 -0.187309,-0.509765 -0.531104,-0.509765 h -0.739752 z m 0.927061,-1.074063 c 0,0.13277598 -0.099582,0.21813198 -0.232358,0.21813198 H 2.1579622 V -1.292195 h 0.358021 c 0.132776,0 0.232358,0.087727 0.232358,0.218132 z"
         style="font-weight:bold;font-size:2.371px;font-family:'Proxima Nova';dominant-baseline:alphabetic;text-anchor:middle;fill:#331a00"
         id="path374" />
    </g>
  </g>
  <rect
     x="3.650"
     y="104.020"
     width="17.400"
     height="12.980"
     fill="#efedeb"
     stroke="#331a00"
     stroke-width="0.350"
     rx="1.000"
     ry="1.000"
     id="rect40" />
  <g
     transform="translate(8.85,106.6)"
     id="g44">
    <g
       aria-label="RESET"
       id="text42"
       style="font-weight:bold;font-size:2.371px;font-family:'Proxima Nova';dominant-baseline:alphabetic;text-anchor:middle;fill:#331a00">
      <path
         d="m -2.4968853,0 h 0.386473 l -0.35565,-0.60223401 c 0.170712,-0.040307 0.346166,-0.18968001 0.346166,-0.46945799 0,-0.294004 -0.201535,-0.509765 -0.531104,-0.509765 H -3.3907524 V 0 h 0.3366821 v -0.56666901 h 0.246584 z m 0.033194,-1.074063 c 0,0.13277598 -0.101953,0.21813198 -0.2371,0.21813198 h -0.353279 V -1.292195 h 0.353279 c 0.135147,0 0.2371,0.085356 0.2371,0.218132 z"
         style="font-weight:bold;font-size:2.371px;font-family:'Proxima Nova';dominant-baseline:alphabetic;text-anchor:middle;fill:#331a00"
         id="path377" />
      <path
         d="m -1.8671996,0 h 1.11911204 V -0.29163301 H -1.5305176 v -0.367505 h 0.76583304 V -0.94840002 H -1.5305176 V -1.292195 h 0.78243004 V -1.581457 H -1.8671996 Z"
         style="font-weight:bold;font-size:2.371px;font-family:'Proxima Nova';dominant-baseline:alphabetic;text-anchor:middle;fill:#331a00"
         id="path379" />
      <path
         d="m -0.5916386,-0.222874 c 0.14937301,0.149373 0.36750501,0.251326 0.67099302,0.251326 0.42678001,0 0.63305701,-0.218132 0.63305701,-0.50739401 0,-0.35090801 -0.33194001,-0.42915101 -0.59275001,-0.48842601 -0.18256701,-0.042678 -0.31534301,-0.075872 -0.31534301,-0.18256698 0,-0.09484 0.080614,-0.161228 0.23235801,-0.161228 0.154115,0 0.324827,0.054533 0.45286101,0.173083 l 0.187309,-0.246584 c -0.156486,-0.144631 -0.36513401,-0.220503 -0.61646001,-0.220503 -0.37224701,0 -0.59986302,0.21339 -0.59986302,0.476571 0,0.35327898 0.33194001,0.42440898 0.59037902,0.48368399 0.182567,0.042678 0.320085,0.082985 0.320085,0.201535 0,0.090098 -0.090098,0.177825 -0.275036,0.177825 -0.21813201,0 -0.39121501,-0.097211 -0.50265201,-0.21339 z"
         style="font-weight:bold;font-size:2.371px;font-family:'Proxima Nova';dominant-baseline:alphabetic;text-anchor:middle;fill:#331a00"
         id="path381" />
      <path
         d="M 0.93910118,0 H 2.0582132 v -0.29163301 h -0.78243 v -0.367505 h 0.765833 V -0.94840002 H 1.2757832 V -1.292195 h 0.78243 V -1.581457 H 0.93910118 Z"
         style="font-weight:bold;font-size:2.371px;font-family:'Proxima Nova';dominant-baseline:alphabetic;text-anchor:middle;fill:#331a00"
         id="path383" />
      <path
         d="m 2.6888621,0 h 0.339053 v -1.285082 h 0.459974 V -1.581457 H 2.226517 v 0.296375 h 0.4623451 z"
         style="font-weight:bold;font-size:2.371px;font-family:'Proxima Nova';dominant-baseline:alphabetic;text-anchor:middle;fill:#331a00"
         id="path385" />
    </g>
  </g>
  <g
     transform="translate(29.9,25.591)"
     id="g48">
    <g
       aria-label="CV"
       id="text46"
       style="font-weight:bold;font-size:2.371px;font-family:'Proxima Nova';dominant-baseline:alphabetic;text-anchor:middle;fill:#331a00">
      <path
         d="m -0.7103368,0.028452 c 0.36039201,0 0.55955602,-0.192051 0.67336402,-0.38884401 l -0.28926201,-0.139889 c -0.066388,0.130405 -0.208648,0.229987 -0.38410201,0.229987 -0.275036,0 -0.483684,-0.220503 -0.483684,-0.51924901 0,-0.29874598 0.208648,-0.51924898 0.483684,-0.51924898 0.17545401,0 0.31771401,0.101953 0.38410201,0.229987 l 0.28926201,-0.14226 c -0.111437,-0.196793 -0.31297201,-0.386473 -0.67336402,-0.386473 -0.462345,0 -0.82985,0.33194 -0.82985,0.81799498 0,0.48605501 0.367505,0.81799502 0.82985,0.81799502 z"
         style="font-weight:bold;font-size:2.371px;font-family:'Proxima Nova';dominant-baseline:alphabetic;text-anchor:middle;fill:#331a00"
         id="path388" />
      <path
         d="M 0.59986305,0 H 1.0219011 l 0.609347,-1.581457 H 1.2471461 L 0.81088205,-0.36513401 0.37224704,-1.581457 h -0.384102 z"
         style="font-weight:bold;font-size:2.371px;font-family:'Proxima Nova';dominant-baseline:alphabetic;text-anchor:middle;fill:#331a00"
         id="path390" />
    </g>
  </g>
  <g
     transform="translate(41.3,25.591)"
     id="g52">
    <g
       aria-label="LEVEL"
       id="text50"
       style="font-weight:bold;font-size:2.371px;font-family:'Proxima Nova';dominant-baseline:alphabetic;text-anchor:middle;fill:#331a00">
      <path
         d="m -3.2796117,0 h 1.005304 v -0.29637501 h -0.668622 V -1.581457 h -0.336682 z"
         style="font-weight:bold;font-size:2.371px;font-family:'Proxima Nova';dominant-baseline:alphabetic;text-anchor:middle;fill:#331a00"
         id="path393" />
      <path
         d="m -2.0385413,0 h 1.11911199 V -0.29163301 H -1.7018593 v -0.367505 h 0.76583299 V -0.94840002 H -1.7018593 V -1.292195 h 0.78242999 V -1.581457 H -2.0385413 Z"
         style="font-weight:bold;font-size:2.371px;font-family:'Proxima Nova';dominant-baseline:alphabetic;text-anchor:middle;fill:#331a00"
         id="path395" />
      <path
         d="M -0.21053734,0 H 0.21150067 L 0.82084768,-1.581457 H 0.43674567 L 4.8166107e-4,-0.36513401 -0.43815335,-1.581457 h -0.38410201 z"
         style="font-weight:bold;font-size:2.371px;font-family:'Proxima Nova';dominant-baseline:alphabetic;text-anchor:middle;fill:#331a00"
         id="path397" />
      <path
         d="M 0.96688638,0 H 2.0859984 v -0.29163301 h -0.78243 v -0.367505 h 0.765833 V -0.94840002 H 1.3035684 V -1.292195 h 0.78243 V -1.581457 H 0.96688638 Z"
         style="font-weight:bold;font-size:2.371px;font-family:'Proxima Nova';dominant-baseline:alphabetic;text-anchor:middle;fill:#331a00"
         id="path399" />
      <path
         d="m 2.3515137,0 h 1.005304 V -0.29637501 H 2.6881957 V -1.581457 h -0.336682 z"
         style="font-weight:bold;font-size:2.371px;font-family:'Proxima Nova';dominant-baseline:alphabetic;text-anchor:middle;fill:#331a00"
         id="path401" />
    </g>
  </g>
  <g
     transform="translate(52.7,34.791)"
     id="g56">
    <g
       aria-label="BI"
       id="text54"
       style="font-weight:bold;font-size:2.371px;font-family:'Proxima Nova';dominant-baseline:hanging;text-anchor:middle;fill:#331a00">
      <path
         d="m -0.95260484,1.609472 h 0.85830202 c 0.301117,0 0.45997401,-0.18968 0.45997401,-0.42678 0,-0.19916404 -0.13514701,-0.36276304 -0.30348801,-0.38884404 0.149373,-0.030823 0.27266501,-0.163599 0.27266501,-0.36276301 0,-0.211019 -0.15411501,-0.40307001 -0.45523201,-0.40307001 H -0.95260484 Z M -0.61592283,0.66344296 V 0.31490595 h 0.42203801 c 0.113808,0 0.184938,0.075872 0.184938,0.173083 0,0.101953 -0.07113,0.17545401 -0.184938,0.17545401 z m 0,0.65913804 V 0.95033396 h 0.43389301 c 0.132776,0 0.203906,0.085356 0.203906,0.18493804 0,0.113808 -0.075872,0.187309 -0.203906,0.187309 z"
         style="font-weight:bold;font-size:2.371px;font-family:'Proxima Nova';dominant-baseline:hanging;text-anchor:middle;fill:#331a00"
         id="path404" />
      <path
         d="M 0.61725657,1.609472 H 0.95393858 V 0.02801494 H 0.61725657 Z"
         style="font-weight:bold;font-size:2.371px;font-family:'Proxima Nova';dominant-baseline:hanging;text-anchor:middle;fill:#331a00"
         id="path406" />
    </g>
  </g>
  <g
     transform="translate(52.7,26.791)"
     id="g60">
    <g
       aria-label="UNI"
       id="text58"
       style="font-weight:bold;font-size:2.371px;font-family:'Proxima Nova';dominant-baseline:alphabetic;text-anchor:middle;fill:#331a00">
      <path
         d="m -1.8949847,-0.63068601 c 0,0.388844 0.225245,0.65913801 0.708929,0.65913801 0.47894198,0 0.70418699,-0.26792301 0.70418699,-0.66150901 V -1.581457 h -0.34142401 v 0.93891599 c 0,0.220503 -0.120921,0.372247 -0.36276298,0.372247 -0.246584,0 -0.367505,-0.151744 -0.367505,-0.372247 V -1.581457 h -0.341424 z"
         style="font-weight:bold;font-size:2.371px;font-family:'Proxima Nova';dominant-baseline:alphabetic;text-anchor:middle;fill:#331a00"
         id="path409" />
      <path
         d="M 0.92298582,0 H 1.2478128 V -1.581457 H 0.91113082 v 1.02427199 L 0.1784918,-1.581457 H -0.16767421 V 0 H 0.1690078 v -1.062208 z"
         style="font-weight:bold;font-size:2.371px;font-family:'Proxima Nova';dominant-baseline:alphabetic;text-anchor:middle;fill:#331a00"
         id="path411" />
      <path
         d="m 1.5596363,0 h 0.336682 v -1.581457 h -0.336682 z"
         style="font-weight:bold;font-size:2.371px;font-family:'Proxima Nova';dominant-baseline:alphabetic;text-anchor:middle;fill:#331a00"
         id="path413" />
    </g>
  </g>
  <line
     x1="29.900"
     y1="30.791"
     x2="52.700"
     y2="30.791"
     stroke="#331a00"
     stroke-width="0.350"
     id="line62" />
  <g
     transform="translate(29.9,45.843)"
     id="g66">
    <g
       aria-label="CV"
       id="text64"
       style="font-weight:bold;font-size:2.371px;font-family:'Proxima Nova';dominant-baseline:alphabetic;text-anchor:middle;fill:#331a00">
      <path
         d="m -0.7103368,0.028452 c 0.36039201,0 0.55955602,-0.192051 0.67336402,-0.38884401 l -0.28926201,-0.139889 c -0.066388,0.130405 -0.208648,0.229987 -0.38410201,0.229987 -0.275036,0 -0.483684,-0.220503 -0.483684,-0.51924901 0,-0.29874598 0.208648,-0.51924898 0.483684,-0.51924898 0.17545401,0 0.31771401,0.101953 0.38410201,0.229987 l 0.28926201,-0.14226 c -0.111437,-0.196793 -0.31297201,-0.386473 -0.67336402,-0.386473 -0.462345,0 -0.82985,0.33194 -0.82985,0.81799498 0,0.48605501 0.367505,0.81799502 0.82985,0.81799502 z"
         style="font-weight:bold;font-size:2.371px;font-family:'Proxima Nova';dominant-baseline:alphabetic;text-anchor:middle;fill:#331a00"
         id="path416" />
      <path
         d="M 0.59986305,0 H 1.0219011 l 0.609347,-1.581457 H 1.2471461 L 0.81088205,-0.36513401 0.37224704,-1.581457 h -0.384102 z"
         style="font-weight:bold;font-size:2.371px;font-family:'Proxima Nova';dominant-baseline:alphabetic;text-anchor:middle;fill:#331a00"
         id="path418" />
    </g>
  </g>
  <g
     transform="translate(41.3,45.843)"
     id="g70">
    <g
       aria-label="DUR"
       id="text68"
       style="font-weight:bold;font-size:2.371px;font-family:'Proxima Nova';dominant-baseline:alphabetic;text-anchor:middle;fill:#331a00">
      <path
         d="m -2.3210238,0 h 0.623573 c 0.495539,0 0.83933402,-0.31297201 0.83933402,-0.78954302 0,-0.47657098 -0.34379502,-0.79191398 -0.83933402,-0.79191398 h -0.623573 z m 0.336682,-0.29637501 V -1.285082 h 0.286891 c 0.324827,0 0.495539,0.215761 0.495539,0.49553898 0,0.26792301 -0.182567,0.49316801 -0.495539,0.49316801 z"
         style="font-weight:bold;font-size:2.371px;font-family:'Proxima Nova';dominant-baseline:alphabetic;text-anchor:middle;fill:#331a00"
         id="path421" />
      <path
         d="m -0.61686754,-0.63068601 c 0,0.388844 0.22524501,0.65913801 0.70892902,0.65913801 0.47894201,0 0.70418701,-0.26792301 0.70418701,-0.66150901 V -1.581457 h -0.341424 v 0.93891599 c 0,0.220503 -0.12092101,0.372247 -0.36276301,0.372247 -0.24658401,0 -0.36750501,-0.151744 -0.36750501,-0.372247 V -1.581457 h -0.34142401 z"
         style="font-weight:bold;font-size:2.371px;font-family:'Proxima Nova';dominant-baseline:alphabetic;text-anchor:middle;fill:#331a00"
         id="path423" />
      <path
         d="m 2.00431,0 h 0.386473 l -0.35565,-0.60223401 c 0.170712,-0.040307 0.346166,-0.18968001 0.346166,-0.46945799 0,-0.294004 -0.201535,-0.509765 -0.531104,-0.509765 H 1.110443 V 0 h 0.336682 v -0.56666901 h 0.246584 z m 0.033194,-1.074063 c 0,0.13277598 -0.101953,0.21813198 -0.2371,0.21813198 H 1.447125 V -1.292195 h 0.353279 c 0.135147,0 0.2371,0.085356 0.2371,0.218132 z"
         style="font-weight:bold;font-size:2.371px;font-family:'Proxima Nova';dominant-baseline:alphabetic;text-anchor:middle;fill:#331a00"
         id="path425" />
    </g>
  </g>
  <g
     transform="translate(52.7,56.543)"
     id="g74">
    <g
       aria-label="1"
       id="text72"
       style="font-weight:bold;font-size:2.371px;font-family:'Proxima Nova';dominant-baseline:hanging;text-anchor:middle;fill:#331a00">
      <path
         d="m -0.00729823,1.609472 h 0.339053 V 0.02801494 h -0.294004 l -0.49791001,0.50028101 0.192051,0.20153501 0.26081001,-0.26792301 z"
         style="font-weight:bold;font-size:2.371px;font-family:'Proxima Nova';dominant-baseline:hanging;text-anchor:middle;fill:#331a00"
         id="path428" />
    </g>
  </g>
  <g
     transform="translate(52.7,45.543)"
     id="g78">
    <g
       aria-label="100"
       id="text76"
       style="font-weight:bold;font-size:2.371px;font-family:'Proxima Nova';dominant-baseline:alphabetic;text-anchor:middle;fill:#331a00">
      <path
         d="m -1.4752807,0 h 0.339053 v -1.581457 h -0.294004 l -0.49791,0.500281 0.192051,0.20153498 0.26081,-0.26792298 z"
         style="font-weight:bold;font-size:2.371px;font-family:'Proxima Nova';dominant-baseline:alphabetic;text-anchor:middle;fill:#331a00"
         id="path431" />
      <path
         d="m -0.90112822,-0.78954302 c 0,0.40781201 0.201535,0.81799502 0.65439601,0.81799502 0.45049001,0 0.65439602,-0.41018301 0.65439602,-0.81799502 0,-0.40781198 -0.20390601,-0.81562398 -0.65439602,-0.81562398 -0.45286101,0 -0.65439601,0.407812 -0.65439601,0.81562398 z m 0.96499702,0 c 0,0.29163301 -0.085356,0.51924901 -0.31060101,0.51924901 -0.227616,0 -0.312972,-0.227616 -0.312972,-0.51924901 0,-0.29163298 0.085356,-0.51687798 0.312972,-0.51687798 0.22524501,0 0.31060101,0.225245 0.31060101,0.51687798 z"
         style="font-weight:bold;font-size:2.371px;font-family:'Proxima Nova';dominant-baseline:alphabetic;text-anchor:middle;fill:#331a00"
         id="path433" />
      <path
         d="m 0.56685413,-0.78954302 c 0,0.40781201 0.20153501,0.81799502 0.65439597,0.81799502 0.4504901,0 0.6543961,-0.41018301 0.6543961,-0.81799502 0,-0.40781198 -0.203906,-0.81562398 -0.6543961,-0.81562398 -0.45286096,0 -0.65439597,0.407812 -0.65439597,0.81562398 z m 0.96499707,0 c 0,0.29163301 -0.085356,0.51924901 -0.3106011,0.51924901 -0.22761596,0 -0.31297196,-0.227616 -0.31297196,-0.51924901 0,-0.29163298 0.085356,-0.51687798 0.31297196,-0.51687798 0.225245,0 0.3106011,0.225245 0.3106011,0.51687798 z"
         style="font-weight:bold;font-size:2.371px;font-family:'Proxima Nova';dominant-baseline:alphabetic;text-anchor:middle;fill:#331a00"
         id="path435" />
    </g>
  </g>
  <g
     transform="translate(55.2,51.043)"
     id="g82">
    <g
       aria-label="10"
       id="text80"
       style="font-weight:bold;font-size:2.371px;font-family:'Proxima Nova';dominant-baseline:middle;text-anchor:start;fill:#331a00">
      <path
         d="M 0.47894201,0.8565965 H 0.81799502 V -0.72486053 H 0.52399101 l -0.49791001,0.50028101 0.192051,0.201535 0.26081001,-0.26792301 z"
         style="font-weight:bold;font-size:2.371px;font-family:'Proxima Nova';dominant-baseline:middle;text-anchor:start;fill:#331a00"
         id="path438" />
      <path
         d="m 1.0530945,0.06705348 c 0,0.40781201 0.201535,0.81799502 0.654396,0.81799502 0.45049,0 0.654396,-0.41018301 0.654396,-0.81799502 0,-0.40781201 -0.203906,-0.81562402 -0.654396,-0.81562402 -0.452861,0 -0.654396,0.40781201 -0.654396,0.81562402 z m 0.964997,0 c 0,0.29163301 -0.085356,0.51924901 -0.310601,0.51924901 -0.227616,0 -0.312972,-0.227616 -0.312972,-0.51924901 0,-0.291633 0.085356,-0.51687801 0.312972,-0.51687801 0.225245,0 0.310601,0.22524501 0.310601,0.51687801 z"
         style="font-weight:bold;font-size:2.371px;font-family:'Proxima Nova';dominant-baseline:middle;text-anchor:start;fill:#331a00"
         id="path440" />
    </g>
  </g>
  <line
     x1="29.900"
     y1="51.043"
     x2="52.700"
     y2="51.043"
     stroke="#331a00"
     stroke-width="0.350"
     id="line84" />
  <rect
     x="24.700"
     y="63.515"
     width="10.400"
     height="12.980"
     fill="#efedeb"
     stroke="#331a00"
     stroke-width="0.350"
     rx="1.000"
     ry="1.000"
     id="rect86" />
  <g
     transform="translate(29.9,66.095)"
     id="g90">
    <g
       aria-label="A"
       id="text88"
       style="font-weight:bold;font-size:2.371px;font-family:'Proxima Nova';dominant-baseline:alphabetic;text-anchor:middle;fill:#331a00">
      <path
         d="M 0.45334262,0 H 0.82084763 L 0.21150061,-1.581457 H -0.2105374 L -0.82225541,0 h 0.36987601 l 0.099582,-0.27266501 H 0.35376062 Z M 4.8160939e-4,-1.289824 0.26129162,-0.56429801 H -0.2626994 Z"
         style="font-weight:bold;font-size:2.371px;font-family:'Proxima Nova';dominant-baseline:alphabetic;text-anchor:middle;fill:#331a00"
         id="path443" />
    </g>
  </g>
  <rect
     x="36.100"
     y="63.515"
     width="10.400"
     height="12.980"
     fill="#efedeb"
     stroke="#331a00"
     stroke-width="0.350"
     rx="1.000"
     ry="1.000"
     id="rect92" />
  <g
     transform="translate(41.3,66.095)"
     id="g96">
    <g
       aria-label="B"
       id="text94"
       style="font-weight:bold;font-size:2.371px;font-family:'Proxima Nova';dominant-baseline:alphabetic;text-anchor:middle;fill:#331a00">
      <path
         d="m -0.62844468,0 h 0.85830202 c 0.30111701,0 0.45997401,-0.18968 0.45997401,-0.42678001 0,-0.199164 -0.135147,-0.36276301 -0.30348801,-0.38884401 0.14937301,-0.030823 0.27266501,-0.163599 0.27266501,-0.36276298 0,-0.211019 -0.154115,-0.40307 -0.45523201,-0.40307 h -0.83222102 z m 0.33668201,-0.94602902 V -1.294566 h 0.42203801 c 0.113808,0 0.184938,0.075872 0.184938,0.173083 0,0.101953 -0.07113,0.17545398 -0.184938,0.17545398 z m 0,0.65913801 v -0.372247 h 0.43389301 c 0.132776,0 0.203906,0.085356 0.203906,0.184938 0,0.113808 -0.075872,0.187309 -0.203906,0.187309 z"
         style="font-weight:bold;font-size:2.371px;font-family:'Proxima Nova';dominant-baseline:alphabetic;text-anchor:middle;fill:#331a00"
         id="path446" />
    </g>
  </g>
  <rect
     x="47.500"
     y="63.515"
     width="10.400"
     height="12.980"
     fill="#efedeb"
     stroke="#331a00"
     stroke-width="0.350"
     rx="1.000"
     ry="1.000"
     id="rect98" />
  <g
     transform="translate(52.7,66.095)"
     id="g102">
    <g
       aria-label="C"
       id="text100"
       style="font-weight:bold;font-size:2.371px;font-family:'Proxima Nova';dominant-baseline:alphabetic;text-anchor:middle;fill:#331a00">
      <path
         d="m 0.09543275,0.028452 c 0.36039201,0 0.55955601,-0.192051 0.67336402,-0.38884401 l -0.28926201,-0.139889 c -0.066388,0.130405 -0.208648,0.229987 -0.38410201,0.229987 -0.275036,0 -0.48368401,-0.220503 -0.48368401,-0.51924901 0,-0.29874598 0.20864801,-0.51924898 0.48368401,-0.51924898 0.17545401,0 0.31771401,0.101953 0.38410201,0.229987 l 0.28926201,-0.14226 C 0.65735976,-1.417858 0.45582476,-1.607538 0.09543275,-1.607538 c -0.46234501,0 -0.82985002,0.33194 -0.82985002,0.81799498 0,0.48605501 0.36750501,0.81799502 0.82985002,0.81799502 z"
         style="font-weight:bold;font-size:2.371px;font-family:'Proxima Nova';dominant-baseline:alphabetic;text-anchor:middle;fill:#331a00"
         id="path449" />
    </g>
  </g>
  <rect
     x="24.700"
     y="83.767"
     width="10.400"
     height="12.980"
     fill="#331a00"
     stroke="#331a00"
     stroke-width="0.350"
     rx="1.000"
     ry="1.000"
     id="rect104" />
  <g
     transform="translate(29.9,86.348)"
     id="g108">
    <g
       aria-label="STEP #"
       id="text106"
       style="font-weight:bold;font-size:2.371px;font-family:'Proxima Nova';dominant-baseline:alphabetic;text-anchor:middle;fill:#efedeb">
      <path
         d="m -3.8100859,-0.222874 c 0.149373,0.149373 0.367505,0.251326 0.670993,0.251326 0.42678,0 0.633057,-0.218132 0.633057,-0.50739401 0,-0.35090801 -0.33194,-0.42915101 -0.59275,-0.48842601 -0.182567,-0.042678 -0.315343,-0.075872 -0.315343,-0.18256698 0,-0.09484 0.080614,-0.161228 0.232358,-0.161228 0.154115,0 0.324827,0.054533 0.452861,0.173083 l 0.187309,-0.246584 c -0.156486,-0.144631 -0.365134,-0.220503 -0.61646,-0.220503 -0.372247,0 -0.599863,0.21339 -0.599863,0.476571 0,0.35327898 0.33194,0.42440898 0.590379,0.48368399 0.182567,0.042678 0.320085,0.082985 0.320085,0.201535 0,0.090098 -0.090098,0.177825 -0.275036,0.177825 -0.218132,0 -0.391215,-0.097211 -0.502652,-0.21339 z"
         style="font-weight:bold;font-size:2.371px;font-family:'Proxima Nova';dominant-baseline:alphabetic;text-anchor:middle;fill:#efedeb"
         id="path452" />
      <path
         d="m -1.9327355,0 h 0.339053 v -1.285082 h 0.459974 v -0.296375 h -1.261372 v 0.296375 h 0.462345 z"
         style="font-weight:bold;font-size:2.371px;font-family:'Proxima Nova';dominant-baseline:alphabetic;text-anchor:middle;fill:#efedeb"
         id="path454" />
      <path
         d="M -0.91787332,0 H 0.2012387 v -0.29163301 h -0.78243001 v -0.367505 H 0.1846417 V -0.94840002 H -0.58119131 V -1.292195 H 0.2012387 v -0.289262 h -1.11911202 z"
         style="font-weight:bold;font-size:2.371px;font-family:'Proxima Nova';dominant-baseline:alphabetic;text-anchor:middle;fill:#efedeb"
         id="path456" />
      <path
         d="M 0.46675378,0 H 0.80343579 V -0.56666901 H 1.2065058 c 0.341424,0 0.531104,-0.22998701 0.531104,-0.50502299 0,-0.277407 -0.187309,-0.509765 -0.531104,-0.509765 H 0.46675378 Z M 1.3938148,-1.074063 c 0,0.13277598 -0.099582,0.21813198 -0.232358,0.21813198 H 0.80343579 V -1.292195 H 1.1614568 c 0.132776,0 0.232358,0.087727 0.232358,0.218132 z"
         style="font-weight:bold;font-size:2.371px;font-family:'Proxima Nova';dominant-baseline:alphabetic;text-anchor:middle;fill:#efedeb"
         id="path458" />
      <path
         d="m 2.9726784,0 h 0.225245 l 0.132776,-0.40069901 h 0.244213 l 0.059275,-0.192051 h -0.239471 l 0.130405,-0.39358601 h 0.2371 L 3.8191254,-1.176016 h -0.229987 l 0.137518,-0.405441 h -0.225245 l -0.132776,0.405441 h -0.222874 l 0.132776,-0.405441 h -0.222874 l -0.132776,0.405441 h -0.239471 l -0.059275,0.18967998 h 0.232358 l -0.128034,0.39358601 h -0.232358 l -0.061646,0.192051 h 0.227616 L 2.5269304,0 h 0.222874 l 0.135147,-0.40069901 h 0.225245 z m 0.329569,-0.98633602 -0.130405,0.39358601 h -0.220503 l 0.128034,-0.39358601 z"
         style="font-weight:bold;font-size:2.371px;font-family:'Proxima Nova';dominant-baseline:alphabetic;text-anchor:middle;fill:#efedeb"
         id="path460" />
    </g>
  </g>
  <rect
     x="36.100"
     y="83.767"
     width="10.400"
     height="12.980"
     fill="#331a00"
     stroke="#331a00"
     stroke-width="0.350"
     rx="1.000"
     ry="1.000"
     id="rect110" />
  <g
     transform="translate(41.3,86.348)"
     id="g114">
    <g
       aria-label="CURVE"
       id="text112"
       style="font-weight:bold;font-size:2.371px;font-family:'Proxima Nova';dominant-baseline:alphabetic;text-anchor:middle;fill:#efedeb">
      <path
         d="m -3.0211357,0.028452 c 0.360392,0 0.559556,-0.192051 0.673364,-0.38884401 l -0.289262,-0.139889 c -0.066388,0.130405 -0.208648,0.229987 -0.384102,0.229987 -0.275036,0 -0.483684,-0.220503 -0.483684,-0.51924901 0,-0.29874598 0.208648,-0.51924898 0.483684,-0.51924898 0.175454,0 0.317714,0.101953 0.384102,0.229987 l 0.289262,-0.14226 c -0.111437,-0.196793 -0.312972,-0.386473 -0.673364,-0.386473 -0.462345,0 -0.82985,0.33194 -0.82985,0.81799498 0,0.48605501 0.367505,0.81799502 0.82985,0.81799502 z"
         style="font-weight:bold;font-size:2.371px;font-family:'Proxima Nova';dominant-baseline:alphabetic;text-anchor:middle;fill:#efedeb"
         id="path463" />
      <path
         d="m -2.1450511,-0.63068601 c 0,0.388844 0.225245,0.65913801 0.708929,0.65913801 0.47894201,0 0.70418702,-0.26792301 0.70418702,-0.66150901 V -1.581457 H -1.0733591 v 0.93891599 c 0,0.220503 -0.120921,0.372247 -0.362763,0.372247 -0.246584,0 -0.367505,-0.151744 -0.367505,-0.372247 V -1.581457 h -0.341424 z"
         style="font-weight:bold;font-size:2.371px;font-family:'Proxima Nova';dominant-baseline:alphabetic;text-anchor:middle;fill:#efedeb"
         id="path465" />
      <path
         d="m 0.47612657,0 h 0.386473 l -0.35565,-0.60223401 c 0.170712,-0.040307 0.346166,-0.18968001 0.346166,-0.46945799 0,-0.294004 -0.201535,-0.509765 -0.53110401,-0.509765 H -0.41774045 V 0 h 0.336682 v -0.56666901 h 0.24658401 z m 0.033194,-1.074063 c 0,0.13277598 -0.10195301,0.21813198 -0.23710001,0.21813198 H -0.08105845 V -1.292195 h 0.35327901 c 0.135147,0 0.23710001,0.085356 0.23710001,0.218132 z"
         style="font-weight:bold;font-size:2.371px;font-family:'Proxima Nova';dominant-baseline:alphabetic;text-anchor:middle;fill:#efedeb"
         id="path467" />
      <path
         d="m 1.5260352,0 h 0.422038 l 0.609347,-1.581457 H 2.1733182 L 1.7370542,-0.36513401 1.2984192,-1.581457 H 0.91431718 Z"
         style="font-weight:bold;font-size:2.371px;font-family:'Proxima Nova';dominant-baseline:alphabetic;text-anchor:middle;fill:#efedeb"
         id="path469" />
      <path
         d="m 2.7034587,0 h 1.119112 v -0.29163301 h -0.78243 v -0.367505 h 0.765833 V -0.94840002 H 3.0401407 V -1.292195 h 0.78243 v -0.289262 h -1.119112 z"
         style="font-weight:bold;font-size:2.371px;font-family:'Proxima Nova';dominant-baseline:alphabetic;text-anchor:middle;fill:#efedeb"
         id="path471" />
    </g>
  </g>
  <rect
     x="47.500"
     y="83.767"
     width="10.400"
     height="12.980"
     fill="#331a00"
     stroke="#331a00"
     stroke-width="0.350"
     rx="1.000"
     ry="1.000"
     id="rect116" />
  <g
     transform="translate(52.7,86.348)"
     id="g120">
    <g
       aria-label="SUST"
       id="text118"
       style="font-weight:bold;font-size:2.371px;font-family:'Proxima Nova';dominant-baseline:alphabetic;text-anchor:middle;fill:#efedeb">
      <path
         d="m -2.9186455,-0.222874 c 0.149373,0.149373 0.367505,0.251326 0.670993,0.251326 0.42678,0 0.633057,-0.218132 0.633057,-0.50739401 0,-0.35090801 -0.33194,-0.42915101 -0.59275,-0.48842601 -0.182567,-0.042678 -0.315343,-0.075872 -0.315343,-0.18256698 0,-0.09484 0.080614,-0.161228 0.232358,-0.161228 0.154115,0 0.324827,0.054533 0.452861,0.173083 l 0.187309,-0.246584 c -0.156486,-0.144631 -0.365134,-0.220503 -0.61646,-0.220503 -0.372247,0 -0.599863,0.21339 -0.599863,0.476571 0,0.35327898 0.33194,0.42440898 0.590379,0.48368399 0.182567,0.042678 0.320085,0.082985 0.320085,0.201535 0,0.090098 -0.090098,0.177825 -0.275036,0.177825 -0.218132,0 -0.391215,-0.097211 -0.502652,-0.21339 z"
         style="font-weight:bold;font-size:2.371px;font-family:'Proxima Nova';dominant-baseline:alphabetic;text-anchor:middle;fill:#efedeb"
         id="path474" />
      <path
         d="m -1.3879056,-0.63068601 c 0,0.388844 0.225245,0.65913801 0.70892902,0.65913801 0.47894201,0 0.70418701,-0.26792301 0.70418701,-0.66150901 V -1.581457 h -0.341424 v 0.93891599 c 0,0.220503 -0.12092101,0.372247 -0.36276301,0.372247 -0.24658401,0 -0.36750502,-0.151744 -0.36750502,-0.372247 V -1.581457 h -0.341424 z"
         style="font-weight:bold;font-size:2.371px;font-family:'Proxima Nova';dominant-baseline:alphabetic;text-anchor:middle;fill:#efedeb"
         id="path476" />
      <path
         d="m 0.23033894,-0.222874 c 0.149373,0.149373 0.36750501,0.251326 0.67099301,0.251326 0.42678005,0 0.63305705,-0.218132 0.63305705,-0.50739401 0,-0.35090801 -0.33194,-0.42915101 -0.59275005,-0.48842601 -0.182567,-0.042678 -0.315343,-0.075872 -0.315343,-0.18256698 0,-0.09484 0.080614,-0.161228 0.232358,-0.161228 0.15411505,0 0.32482705,0.054533 0.45286105,0.173083 L 1.498824,-1.384664 C 1.342338,-1.529295 1.13369,-1.605167 0.88236395,-1.605167 c -0.372247,0 -0.59986301,0.21339 -0.59986301,0.476571 0,0.35327898 0.33194001,0.42440898 0.59037901,0.48368399 0.18256705,0.042678 0.32008505,0.082985 0.32008505,0.201535 0,0.090098 -0.090098,0.177825 -0.27503605,0.177825 -0.218132,0 -0.391215,-0.097211 -0.50265201,-0.21339 z"
         style="font-weight:bold;font-size:2.371px;font-family:'Proxima Nova';dominant-baseline:alphabetic;text-anchor:middle;fill:#efedeb"
         id="path478" />
      <path
         d="m 2.1076895,0 h 0.339053 v -1.285082 h 0.459974 v -0.296375 h -1.261372 v 0.296375 h 0.462345 z"
         style="font-weight:bold;font-size:2.371px;font-family:'Proxima Nova';dominant-baseline:alphabetic;text-anchor:middle;fill:#efedeb"
         id="path480" />
    </g>
  </g>
  <rect
     x="24.700"
     y="104.020"
     width="10.400"
     height="12.980"
     fill="#331a00"
     stroke="#331a00"
     stroke-width="0.350"
     rx="1.000"
     ry="1.000"
     id="rect122" />
  <g
     transform="translate(29.9,106.6)"
     id="g126">
    <g
       aria-label="STEP Δ"
       id="text124"
       style="font-weight:bold;font-size:2.371px;font-family:'Proxima Nova';dominant-baseline:alphabetic;text-anchor:middle;fill:#efedeb">
      <path
         d="m -3.8888106,-0.222874 c 0.1493731,0.149373 0.3675051,0.251326 0.6709931,0.251326 0.42678,0 0.633057,-0.218132 0.633057,-0.50739401 0,-0.35090801 -0.33194,-0.42915101 -0.59275,-0.48842601 -0.182567,-0.042678 -0.315343,-0.075872 -0.315343,-0.18256698 0,-0.09484 0.080614,-0.161228 0.232358,-0.161228 0.154115,0 0.324827,0.054533 0.452861,0.173083 l 0.187309,-0.246584 c -0.156486,-0.144631 -0.365134,-0.220503 -0.61646,-0.220503 -0.372247,0 -0.5998631,0.21339 -0.5998631,0.476571 0,0.35327898 0.3319401,0.42440898 0.5903791,0.48368399 0.182567,0.042678 0.320085,0.082985 0.320085,0.201535 0,0.090098 -0.090098,0.177825 -0.275036,0.177825 -0.218132,0 -0.391215,-0.097211 -0.502652,-0.21339 z"
         style="font-weight:bold;font-size:2.371px;font-family:'Proxima Nova';dominant-baseline:alphabetic;text-anchor:middle;fill:#efedeb"
         id="path483" />
      <path
         d="m -2.0114601,0 h 0.339053 v -1.285082 h 0.459974 v -0.296375 h -1.261372 v 0.296375 h 0.462345 z"
         style="font-weight:bold;font-size:2.371px;font-family:'Proxima Nova';dominant-baseline:alphabetic;text-anchor:middle;fill:#efedeb"
         id="path485" />
      <path
         d="m -0.99659793,0 h 1.11911202 v -0.29163301 h -0.78243001 v -0.367505 H 0.10591709 V -0.94840002 H -0.65991592 V -1.292195 h 0.78243001 v -0.289262 h -1.11911202 z"
         style="font-weight:bold;font-size:2.371px;font-family:'Proxima Nova';dominant-baseline:alphabetic;text-anchor:middle;fill:#efedeb"
         id="path487" />
      <path
         d="M 0.38802917,0 H 0.72471118 V -0.56666901 H 1.1277812 c 0.341424,0 0.531104,-0.22998701 0.531104,-0.50502299 0,-0.277407 -0.187309,-0.509765 -0.531104,-0.509765 H 0.38802917 Z M 1.3150902,-1.074063 c 0,0.13277598 -0.099582,0.21813198 -0.232358,0.21813198 H 0.72471118 V -1.292195 H 1.0827322 c 0.132776,0 0.232358,0.087727 0.232358,0.218132 z"
         style="font-weight:bold;font-size:2.371px;font-family:'Proxima Nova';dominant-baseline:alphabetic;text-anchor:middle;fill:#efedeb"
         id="path489" />
      <path
         d="m 2.3035748,0 h 1.643103 l -0.609347,-1.581457 h -0.422038 z m 0.822737,-1.244775 0.346166,0.94839999 h -0.692332 z"
         style="font-weight:bold;font-size:2.371px;font-family:'Proxima Nova';dominant-baseline:alphabetic;text-anchor:middle;fill:#efedeb"
         id="path491" />
    </g>
  </g>
  <rect
     x="36.100"
     y="104.020"
     width="10.400"
     height="12.980"
     fill="#331a00"
     stroke="#331a00"
     stroke-width="0.350"
     rx="1.000"
     ry="1.000"
     id="rect128" />
  <g
     transform="translate(41.3,106.6)"
     id="g132">
    <g
       aria-label="SEQ Δ"
       id="text130"
       style="font-weight:bold;font-size:2.371px;font-family:'Proxima Nova';dominant-baseline:alphabetic;text-anchor:middle;fill:#efedeb">
      <path
         d="m -3.3771006,-0.222874 c 0.149373,0.149373 0.367505,0.251326 0.670993,0.251326 0.42678,0 0.633057,-0.218132 0.633057,-0.50739401 0,-0.35090801 -0.33194,-0.42915101 -0.59275,-0.48842601 -0.182567,-0.042678 -0.315343,-0.075872 -0.315343,-0.18256698 0,-0.09484 0.080614,-0.161228 0.232358,-0.161228 0.154115,0 0.324827,0.054533 0.452861,0.173083 l 0.187309,-0.246584 c -0.156486,-0.144631 -0.365134,-0.220503 -0.61646,-0.220503 -0.372247,0 -0.599863,0.21339 -0.599863,0.476571 0,0.35327898 0.33194,0.42440898 0.590379,0.48368399 0.182567,0.042678 0.320085,0.082985 0.320085,0.201535 0,0.090098 -0.090098,0.177825 -0.275036,0.177825 -0.218132,0 -0.391215,-0.097211 -0.502652,-0.21339 z"
         style="font-weight:bold;font-size:2.371px;font-family:'Proxima Nova';dominant-baseline:alphabetic;text-anchor:middle;fill:#efedeb"
         id="path494" />
      <path
         d="m -1.8463607,0 h 1.11911204 V -0.29163301 H -1.5096787 v -0.367505 h 0.76583304 V -0.94840002 H -1.5096787 V -1.292195 h 0.78243004 V -1.581457 H -1.8463607 Z"
         style="font-weight:bold;font-size:2.371px;font-family:'Proxima Nova';dominant-baseline:alphabetic;text-anchor:middle;fill:#efedeb"
         id="path496" />
      <path
         d="m 1.1149813,-0.78954302 c 0,-0.47657098 -0.34853697,-0.81799498 -0.82747898,-0.81799498 -0.47657101,0 -0.82510802,0.341424 -0.82510802,0.81799498 0,0.47657101 0.34853701,0.81799502 0.82510802,0.81799502 0.137518,0 0.265552,-0.028452 0.376989,-0.080614 L 0.79015433,0.097211 1.0248833,-0.09484 0.90870433,-0.229987 C 1.0391093,-0.37224701 1.1149813,-0.56666901 1.1149813,-0.78954302 Z m -0.82747898,0.51924901 c -0.29163301,0 -0.47894201,-0.225245 -0.47894201,-0.51924901 0,-0.29637498 0.187309,-0.51924898 0.47894201,-0.51924898 0.291633,0 0.48131301,0.222874 0.48131301,0.51924898 0,0.11380801 -0.028452,0.21813201 -0.080614,0.30111701 l -0.180196,-0.21101901 -0.234729,0.18968001 0.180196,0.211019 c -0.049791,0.018968 -0.106695,0.028452 -0.16597,0.028452 z"
         style="font-weight:bold;font-size:2.371px;font-family:'Proxima Nova';dominant-baseline:alphabetic;text-anchor:middle;fill:#efedeb"
         id="path498" />
      <path
         d="m 1.7918649,0 h 1.643103 l -0.609347,-1.581457 h -0.422038 z m 0.822737,-1.244775 0.346166,0.94839999 h -0.692332 z"
         style="font-weight:bold;font-size:2.371px;font-family:'Proxima Nova';dominant-baseline:alphabetic;text-anchor:middle;fill:#efedeb"
         id="path500" />
    </g>
  </g>
  <rect
     x="47.500"
     y="104.020"
     width="10.400"
     height="12.980"
     fill="#331a00"
     stroke="#331a00"
     stroke-width="0.350"
     rx="1.000"
     ry="1.000"
     id="rect134" />
  <g
     transform="translate(52.7,106.6)"
     id="g138">
    <g
       aria-label="OUT"
       id="text136"
       style="font-weight:bold;font-size:2.371px;font-family:'Proxima Nova';dominant-baseline:alphabetic;text-anchor:middle;fill:#efedeb">
      <path
         d="m -2.3806878,-0.78954302 c 0,0.47657101 0.348537,0.81799502 0.825108,0.81799502 0.478942,0 0.82747903,-0.34142401 0.82747903,-0.81799502 0,-0.47657098 -0.34853703,-0.81799498 -0.82747903,-0.81799498 -0.476571,0 -0.825108,0.341424 -0.825108,0.81799498 z m 1.306421,0 c 0,0.29400401 -0.18968,0.51924901 -0.481313,0.51924901 -0.291633,0 -0.478942,-0.225245 -0.478942,-0.51924901 0,-0.29637498 0.187309,-0.51924898 0.478942,-0.51924898 0.291633,0 0.481313,0.222874 0.481313,0.51924898 z"
         style="font-weight:bold;font-size:2.371px;font-family:'Proxima Nova';dominant-baseline:alphabetic;text-anchor:middle;fill:#efedeb"
         id="path503" />
      <path
         d="m -0.48951892,-0.63068601 c 0,0.388844 0.22524501,0.65913801 0.70892902,0.65913801 0.47894201,0 0.70418701,-0.26792301 0.70418701,-0.66150901 V -1.581457 H 0.5821731 v 0.93891599 c 0,0.220503 -0.120921,0.372247 -0.362763,0.372247 -0.24658401,0 -0.36750501,-0.151744 -0.36750501,-0.372247 V -1.581457 h -0.34142401 z"
         style="font-weight:bold;font-size:2.371px;font-family:'Proxima Nova';dominant-baseline:alphabetic;text-anchor:middle;fill:#efedeb"
         id="path505" />
      <path
         d="m 1.6029255,0 h 0.339053 v -1.285082 h 0.459974 v -0.296375 h -1.261372 v 0.296375 h 0.462345 z"
         style="font-weight:bold;font-size:2.371px;font-family:'Proxima Nova';dominant-baseline:alphabetic;text-anchor:middle;fill:#efedeb"
         id="path507" />
    </g>
  </g>
  <g
     transform="translate(71.55,24.935)"
     id="g142">
    <g
       aria-label="TRIG"
       id="text140"
       style="font-weight:bold;font-size:3.048px;font-family:'Proxima Nova';dominant-baseline:middle;text-anchor:end;fill:#331a00">
      <path
         d="m -6.0921902,1.102092 h 0.435864 v -1.65201603 h 0.591312 v -0.38100001 h -1.621536 v 0.38100001 h 0.59436 z"
         style="font-weight:bold;font-size:3.048px;font-family:'Proxima Nova';dominant-baseline:middle;text-anchor:end;fill:#331a00"
         id="path510" />
      <path
         d="m -3.6384549,1.102092 h 0.496824 l -0.4572,-0.774192 c 0.219456,-0.051816 0.445008,-0.24384 0.445008,-0.60350402 0,-0.37795201 -0.25908,-0.65532002 -0.682752,-0.65532002 h -0.950976 V 1.102092 h 0.432816 V 0.37362 h 0.316992 z m 0.042672,-1.38074402 c 0,0.17068801 -0.131064,0.28041601 -0.3048,0.28041601 h -0.454152 v -0.56083202 h 0.454152 c 0.173736,0 0.3048,0.10972801 0.3048,0.28041601 z"
         style="font-weight:bold;font-size:3.048px;font-family:'Proxima Nova';dominant-baseline:middle;text-anchor:end;fill:#331a00"
         id="path512" />
      <path
         d="m -2.8289727,1.102092 h 0.432816 v -2.03301604 h -0.432816 z"
         style="font-weight:bold;font-size:3.048px;font-family:'Proxima Nova';dominant-baseline:middle;text-anchor:end;fill:#331a00"
         id="path514" />
      <path
         d="m -2.093071,0.087108 c 0,0.64008002 0.48768,1.054608 1.08204,1.054608 0.36880803,0 0.65836803,-0.15239998 0.86563204,-0.38404798 V -0.01957201 H -1.114663 V 0.352284 h 0.54254403 v 0.24688801 c -0.088392,0.079248 -0.25298401,0.15544801 -0.43891203,0.15544801 -0.368808,0 -0.637032,-0.28346401 -0.637032,-0.66751202 0,-0.38404802 0.268224,-0.66751203 0.637032,-0.66751203 0.21336002,0 0.38709603,0.11277601 0.48158403,0.25603201 l 0.35966401,-0.195072 c -0.155448,-0.24079201 -0.42062401,-0.44500802 -0.84124804,-0.44500802 -0.59436,0 -1.08204,0.40843201 -1.08204,1.05156004 z"
         style="font-weight:bold;font-size:3.048px;font-family:'Proxima Nova';dominant-baseline:middle;text-anchor:end;fill:#331a00"
         id="path516" />
    </g>
  </g>
  <g
     transform="translate(71.55,29.306)"
     id="g146">
    <g
       aria-label="INT"
       id="text144"
       style="font-weight:bold;font-size:3.048px;font-family:'Proxima Nova';dominant-baseline:middle;text-anchor:end;fill:#331a00">
      <path
         d="m -4.6268165,1.102092 h 0.432816 v -2.03301604 h -0.432816 z"
         style="font-weight:bold;font-size:3.048px;font-family:'Proxima Nova';dominant-baseline:middle;text-anchor:end;fill:#331a00"
         id="path519" />
      <path
         d="m -2.391299,1.102092 h 0.417576 V -0.93092404 H -2.406539 V 0.385812 L -3.348371,-0.93092404 H -3.793379 V 1.102092 h 0.432816 v -1.36550402 z"
         style="font-weight:bold;font-size:3.048px;font-family:'Proxima Nova';dominant-baseline:middle;text-anchor:end;fill:#331a00"
         id="path521" />
      <path
         d="m -1.1034713,1.102092 h 0.43586398 v -1.65201603 h 0.59131202 v -0.38100001 h -1.6215361 v 0.38100001 h 0.5943601 z"
         style="font-weight:bold;font-size:3.048px;font-family:'Proxima Nova';dominant-baseline:middle;text-anchor:end;fill:#331a00"
         id="path523" />
    </g>
  </g>
  <g
     transform="translate(71.55,33.677)"
     id="g150">
    <g
       aria-label="SUST"
       id="text148"
       style="font-weight:bold;font-size:3.048px;font-family:'Proxima Nova';dominant-baseline:middle;text-anchor:end;fill:#331a00">
      <path
         d="m -7.5649934,0.81558002 c 0.192024,0.19202398 0.47244,0.32308798 0.8625841,0.32308798 0.54864,0 0.813816,-0.28041598 0.813816,-0.65227199 0,-0.45110402 -0.42672,-0.55168802 -0.762,-0.62788802 -0.234696,-0.054864 -0.4053841,-0.097536 -0.4053841,-0.23469601 0,-0.12192 0.1036321,-0.20726401 0.2987041,-0.20726401 0.19812,0 0.417576,0.070104 0.582168,0.22250401 l 0.240792,-0.31699201 c -0.201168,-0.18592801 -0.469392,-0.28346401 -0.79248,-0.28346401 -0.4785361,0 -0.7711441,0.27432001 -0.7711441,0.61264802 0,0.45415202 0.42672,0.54559202 0.7589521,0.62179202 0.234696,0.054864 0.41148,0.10668 0.41148,0.25908001 0,0.115824 -0.115824,0.22860001 -0.353568,0.22860001 -0.280416,0 -0.5029201,-0.12496801 -0.6461761,-0.27432001 z"
         style="font-weight:bold;font-size:3.048px;font-family:'Proxima Nova';dominant-baseline:middle;text-anchor:end;fill:#331a00"
         id="path526" />
      <path
         d="m -5.5971759,0.291324 c 0,0.49987202 0.28956,0.847344 0.911352,0.847344 0.615696,0 0.905256,-0.34442398 0.905256,-0.850392 v -1.21920004 h -0.438912 V 0.276084 c 0,0.28346401 -0.155448,0.47853602 -0.466344,0.47853602 -0.316992,0 -0.47244,-0.19507201 -0.47244,-0.47853602 v -1.20700804 h -0.438912 z"
         style="font-weight:bold;font-size:3.048px;font-family:'Proxima Nova';dominant-baseline:middle;text-anchor:end;fill:#331a00"
         id="path528" />
      <path
         d="m -3.5168681,0.81558002 c 0.192024,0.19202398 0.47244,0.32308798 0.862584,0.32308798 0.54864,0 0.8138161,-0.28041598 0.8138161,-0.65227199 0,-0.45110402 -0.4267201,-0.55168802 -0.7620001,-0.62788802 -0.234696,-0.054864 -0.405384,-0.097536 -0.405384,-0.23469601 0,-0.12192 0.103632,-0.20726401 0.298704,-0.20726401 0.19812,0 0.417576,0.070104 0.582168,0.22250401 l 0.2407921,-0.31699201 c -0.2011681,-0.18592801 -0.4693921,-0.28346401 -0.7924801,-0.28346401 -0.478536,0 -0.771144,0.27432001 -0.771144,0.61264802 0,0.45415202 0.42672,0.54559202 0.758952,0.62179202 0.234696,0.054864 0.41148,0.10668 0.41148,0.25908001 0,0.115824 -0.115824,0.22860001 -0.353568,0.22860001 -0.280416,0 -0.50292,-0.12496801 -0.646176,-0.27432001 z"
         style="font-weight:bold;font-size:3.048px;font-family:'Proxima Nova';dominant-baseline:middle;text-anchor:end;fill:#331a00"
         id="path530" />
      <path
         d="m -1.1034713,1.102092 h 0.435864 v -1.65201603 h 0.59131202 V -0.93092404 H -1.6978313 v 0.38100001 h 0.59436 z"
         style="font-weight:bold;font-size:3.048px;font-family:'Proxima Nova';dominant-baseline:middle;text-anchor:end;fill:#331a00"
         id="path532" />
    </g>
  </g>
  <g
     transform="translate(71.55,48.183)"
     id="g154">
    <g
       aria-label="START"
       id="text152"
       style="font-weight:bold;font-size:3.048px;font-family:'Proxima Nova';dominant-baseline:middle;text-anchor:end;fill:#331a00">
      <path
         d="m -9.1068528,0.81558002 c 0.192024,0.19202398 0.47244,0.32308798 0.862584,0.32308798 0.5486401,0 0.8138161,-0.28041598 0.8138161,-0.65227199 0,-0.45110402 -0.4267201,-0.55168802 -0.7620001,-0.62788802 -0.234696,-0.054864 -0.405384,-0.097536 -0.405384,-0.23469601 0,-0.12192 0.103632,-0.20726401 0.298704,-0.20726401 0.19812,0 0.417576,0.070104 0.5821681,0.22250401 l 0.240792,-0.31699201 c -0.201168,-0.18592801 -0.4693921,-0.28346401 -0.7924801,-0.28346401 -0.478536,0 -0.771144,0.27432001 -0.771144,0.61264802 0,0.45415202 0.42672,0.54559202 0.758952,0.62179202 0.234696,0.054864 0.41148,0.10668 0.41148,0.25908001 0,0.115824 -0.115824,0.22860001 -0.353568,0.22860001 -0.280416,0 -0.50292,-0.12496801 -0.646176,-0.27432001 z"
         style="font-weight:bold;font-size:3.048px;font-family:'Proxima Nova';dominant-baseline:middle;text-anchor:end;fill:#331a00"
         id="path535" />
      <path
         d="m -6.6934559,1.102092 h 0.435864 v -1.65201603 h 0.591312 v -0.38100001 h -1.621536 v 0.38100001 h 0.59436 z"
         style="font-weight:bold;font-size:3.048px;font-family:'Proxima Nova';dominant-baseline:middle;text-anchor:end;fill:#331a00"
         id="path537" />
      <path
         d="m -4.1618537,1.102092 h 0.47244 l -0.783336,-2.03301604 h -0.542544 L -5.8016777,1.102092 h 0.475488 l 0.128016,-0.35051998 h 0.908304 z m -0.582168,-1.65811203 0.33528,0.93268803 h -0.673608 z"
         style="font-weight:bold;font-size:3.048px;font-family:'Proxima Nova';dominant-baseline:middle;text-anchor:end;fill:#331a00"
         id="path539" />
      <path
         d="m -2.3525801,1.102092 h 0.496824 l -0.4572,-0.774192 c 0.219456,-0.051816 0.445008,-0.24384 0.445008,-0.60350402 0,-0.37795201 -0.25908,-0.65532002 -0.682752,-0.65532002 h -0.950976 V 1.102092 h 0.432816 V 0.37362 h 0.316992 z m 0.042672,-1.38074402 c 0,0.17068801 -0.131064,0.28041601 -0.3048,0.28041601 h -0.454152 v -0.56083202 h 0.454152 c 0.173736,0 0.3048,0.10972801 0.3048,0.28041601 z"
         style="font-weight:bold;font-size:3.048px;font-family:'Proxima Nova';dominant-baseline:middle;text-anchor:end;fill:#331a00"
         id="path541" />
      <path
         d="m -1.1034711,1.102092 h 0.435864 v -1.65201603 h 0.59131202 V -0.93092404 H -1.6978311 v 0.38100001 h 0.59436 z"
         style="font-weight:bold;font-size:3.048px;font-family:'Proxima Nova';dominant-baseline:middle;text-anchor:end;fill:#331a00"
         id="path543" />
    </g>
  </g>
  <g
     transform="translate(71.55,69.324)"
     id="g158">
    <g
       aria-label="END"
       id="text156"
       style="font-weight:bold;font-size:3.048px;font-family:'Proxima Nova';dominant-baseline:middle;text-anchor:end;fill:#331a00">
      <path
         d="m -5.9900822,1.102092 h 1.4386561 V 0.72718802 H -5.5572662 V 0.254748 h 0.9845041 v -0.37185601 h -0.9845041 v -0.44196002 h 1.0058401 v -0.37185601 h -1.4386561 z"
         style="font-weight:bold;font-size:3.048px;font-family:'Proxima Nova';dominant-baseline:middle;text-anchor:end;fill:#331a00"
         id="path546" />
      <path
         d="m -2.8080177,1.102092 h 0.417576 v -2.03301604 h -0.432816 V 0.385812 l -0.941832,-1.31673604 h -0.445008 V 1.102092 h 0.432816 v -1.36550402 z"
         style="font-weight:bold;font-size:3.048px;font-family:'Proxima Nova';dominant-baseline:middle;text-anchor:end;fill:#331a00"
         id="path548" />
      <path
         d="m -1.989582,1.102092 h 0.801624 c 0.63703206,0 1.07899207,-0.40233599 1.07899207,-1.014984 0,-0.61264802 -0.44196001,-1.01803204 -1.07899207,-1.01803204 h -0.801624 z m 0.432816,-0.38099998 v -1.27101605 h 0.368808 c 0.41757605,0 0.63703206,0.27736801 0.63703206,0.63703203 0,0.34442401 -0.23469601,0.63398402 -0.63703206,0.63398402 z"
         style="font-weight:bold;font-size:3.048px;font-family:'Proxima Nova';dominant-baseline:middle;text-anchor:end;fill:#331a00"
         id="path550" />
    </g>
  </g>
  <g
     transform="translate(71.55,86.095)"
     id="g162">
    <g
       aria-label="DUR"
       id="text160"
       style="font-weight:bold;font-size:3.048px;font-family:'Proxima Nova';dominant-baseline:middle;text-anchor:end;fill:#331a00">
      <path
         d="m -6.1686759,1.102092 h 0.801624 c 0.637032,0 1.078992,-0.40233599 1.078992,-1.014984 0,-0.61264802 -0.44196,-1.01803204 -1.078992,-1.01803204 h -0.801624 z m 0.432816,-0.38099998 v -1.27101605 h 0.368808 c 0.417576,0 0.637032,0.27736801 0.637032,0.63703203 0,0.34442401 -0.234696,0.63398402 -0.637032,0.63398402 z"
         style="font-weight:bold;font-size:3.048px;font-family:'Proxima Nova';dominant-baseline:middle;text-anchor:end;fill:#331a00"
         id="path553" />
      <path
         d="m -3.9779258,0.291324 c 0,0.49987202 0.28956,0.847344 0.911352,0.847344 0.615696,0 0.905256,-0.34442398 0.905256,-0.850392 v -1.21920004 h -0.438912 V 0.276084 c 0,0.28346401 -0.155448,0.47853602 -0.466344,0.47853602 -0.316992,0 -0.47244,-0.19507201 -0.47244,-0.47853602 v -1.20700804 h -0.438912 z"
         style="font-weight:bold;font-size:3.048px;font-family:'Proxima Nova';dominant-baseline:middle;text-anchor:end;fill:#331a00"
         id="path555" />
      <path
         d="m -0.60831406,1.102092 h 0.49682402 L -0.56869006,0.3279 c 0.21945601,-0.051816 0.44500802,-0.24384 0.44500802,-0.60350402 0,-0.37795201 -0.25908001,-0.65532002 -0.68275203,-0.65532002 H -1.7574101 V 1.102092 h 0.432816 V 0.37362 h 0.316992 z m 0.042672,-1.38074402 c 0,0.17068801 -0.131064,0.28041601 -0.30480001,0.28041601 H -1.3245941 v -0.56083202 h 0.45415203 c 0.17373601,0 0.30480001,0.10972801 0.30480001,0.28041601 z"
         style="font-weight:bold;font-size:3.048px;font-family:'Proxima Nova';dominant-baseline:middle;text-anchor:end;fill:#331a00"
         id="path557" />
    </g>
  </g>
  <g
     transform="translate(71.55,98.278)"
     id="g166">
    <g
       aria-label="SHAPE"
       id="text164"
       style="font-weight:bold;font-size:3.048px;font-family:'Proxima Nova';dominant-baseline:middle;text-anchor:end;fill:#331a00">
      <path
         d="m -9.7557434,0.81558002 c 0.192024,0.19202398 0.47244,0.32308798 0.862584,0.32308798 0.54864,0 0.813816,-0.28041598 0.813816,-0.65227199 0,-0.45110402 -0.42672,-0.55168802 -0.762,-0.62788802 -0.234696,-0.054864 -0.405384,-0.097536 -0.405384,-0.23469601 0,-0.12192 0.103632,-0.20726401 0.298704,-0.20726401 0.19812,0 0.417576,0.070104 0.582168,0.22250401 l 0.240792,-0.31699201 c -0.201168,-0.18592801 -0.469392,-0.28346401 -0.79248,-0.28346401 -0.478536,0 -0.771144,0.27432001 -0.771144,0.61264802 0,0.45415202 0.42672,0.54559202 0.758952,0.62179202 0.234696,0.054864 0.41148,0.10668 0.41148,0.25908001 0,0.115824 -0.115824,0.22860001 -0.353568,0.22860001 -0.280416,0 -0.50292,-0.12496801 -0.646176,-0.27432001 z"
         style="font-weight:bold;font-size:3.048px;font-family:'Proxima Nova';dominant-baseline:middle;text-anchor:end;fill:#331a00"
         id="path560" />
      <path
         d="m -6.39499,1.102092 h 0.435864 V -0.93092404 H -6.39499 v 0.79857603 H -7.35511 V -0.93092404 H -7.787926 V 1.102092 h 0.432816 v -0.85344 h 0.96012 z"
         style="font-weight:bold;font-size:3.048px;font-family:'Proxima Nova';dominant-baseline:middle;text-anchor:end;fill:#331a00"
         id="path562" />
      <path
         d="m -4.1380413,1.102092 h 0.47244 l -0.783336,-2.03301604 h -0.542544 L -5.7778653,1.102092 h 0.475488 l 0.128016,-0.35051998 h 0.908304 z m -0.582168,-1.65811203 0.33528,0.93268803 h -0.673608 z"
         style="font-weight:bold;font-size:3.048px;font-family:'Proxima Nova';dominant-baseline:middle;text-anchor:end;fill:#331a00"
         id="path564" />
      <path
         d="m -3.4778635,1.102092 h 0.432816 V 0.37362 h 0.51816 c 0.4389121,0 0.6827521,-0.29565601 0.6827521,-0.64922402 0,-0.35661601 -0.240792,-0.65532002 -0.6827521,-0.65532002 h -0.950976 z m 1.1917681,-1.38074402 c 0,0.17068801 -0.1280161,0.28041601 -0.2987041,0.28041601 h -0.460248 v -0.56083202 h 0.460248 c 0.170688,0 0.2987041,0.11277601 0.2987041,0.28041601 z"
         style="font-weight:bold;font-size:3.048px;font-family:'Proxima Nova';dominant-baseline:middle;text-anchor:end;fill:#331a00"
         id="path566" />
      <path
         d="m -1.5788161,1.102092 h 1.43865604 V 0.72718802 H -1.1460001 V 0.254748 h 0.98450404 V -0.11710801 H -1.1460001 v -0.44196002 h 1.00584004 V -0.93092404 H -1.5788161 Z"
         style="font-weight:bold;font-size:3.048px;font-family:'Proxima Nova';dominant-baseline:middle;text-anchor:end;fill:#331a00"
         id="path568" />
    </g>
  </g>
  <g
     transform="translate(71.55,114)"
     id="g170">
    <g
       aria-label="ON"
       id="text168"
       style="font-weight:bold;font-size:3.048px;font-family:'Proxima Nova';dominant-baseline:middle;text-anchor:end;fill:#331a00">
      <path
         d="m -4.4505088,0.087108 c 0,0.61264801 0.448056,1.05156 1.0607041,1.05156 0.615696,0 1.063752,-0.43891199 1.063752,-1.05156 0,-0.61264802 -0.448056,-1.05156004 -1.063752,-1.05156004 -0.6126481,0 -1.0607041,0.43891202 -1.0607041,1.05156004 z m 1.6794481,0 c 0,0.37795201 -0.24384,0.66751202 -0.618744,0.66751202 -0.374904,0 -0.6156961,-0.28956001 -0.6156961,-0.66751202 0,-0.38100002 0.2407921,-0.66751203 0.6156961,-0.66751203 0.374904,0 0.618744,0.28651201 0.618744,0.66751203 z"
         style="font-weight:bold;font-size:3.048px;font-family:'Proxima Nova';dominant-baseline:middle;text-anchor:end;fill:#331a00"
         id="path571" />
      <path
         d="m -0.61726764,1.102092 h 0.41757601 V -0.93092404 H -0.63250764 V 0.385812 L -1.5743397,-0.93092404 h -0.445008 V 1.102092 h 0.432816 v -1.36550402 z"
         style="font-weight:bold;font-size:3.048px;font-family:'Proxima Nova';dominant-baseline:middle;text-anchor:end;fill:#331a00"
         id="path573" />
    </g>
  </g>
  <line
     x1="72.550"
     y1="23"
     x2="72.550"
     y2="117.000"
     stroke="#331a00"
     stroke-width="0.350"
     id="line172" />
  <line
     x1="83.980"
     y1="23"
     x2="83.980"
     y2="117.000"
     stroke="#331a00"
     stroke-width="0.350"
     id="line174" />
  <g
     transform="translate(78.265,18.648)"
     id="g178">
    <path
       id="circle176"
       style="fill:#331a00;stroke:none;stroke-width:0"
       d="M 1.0880001,0 A 1.0880001,1.0880001 0 0 1 0,1.0880001 1.0880001,1.0880001 0 0 1 -1.0880001,0 1.0880001,1.0880001 0 0 1 0,-1.0880001 1.0880001,1.0880001 0 0 1 1.0880001,0 Z" />
  </g>
  <g
     transform="translate(78.265,15.384)"
     id="g182">
    <g
       aria-label="1"
       id="text180"
       style="font-weight:bold;font-size:3.048px;font-family:'Proxima Nova';dominant-baseline:alphabetic;text-anchor:middle;fill:#331a00">
      <path
         d="M -0.00938213,0 H 0.42648189 V -2.0330161 H 0.04852988 l -0.64008002,0.6431281 0.246888,0.25908 0.33528001,-0.344424 z"
         style="font-weight:bold;font-size:3.048px;font-family:'Proxima Nova';dominant-baseline:alphabetic;text-anchor:middle;fill:#331a00"
         id="path577" />
    </g>
  </g>
  <g
     transform="translate(78.265,42.983)"
     id="g186">
    <g
       id="text184"
       style="font-weight:bold;font-size:2.371px;font-family:'Proxima Nova';dominant-baseline:alphabetic;text-anchor:middle;fill:#331a00" />
  </g>
  <g
     transform="translate(78.265,64.124)"
     id="g190">
    <g
       id="text188"
       style="font-weight:bold;font-size:2.371px;font-family:'Proxima Nova';dominant-baseline:alphabetic;text-anchor:middle;fill:#331a00" />
  </g>
  <g
     transform="translate(78.265,97.665)"
     id="g194">
    <g
       id="text192"
       style="font-weight:bold;font-size:2.371px;font-family:'Proxima Nova';dominant-baseline:alphabetic;text-anchor:middle;fill:#331a00" />
  </g>
  <g
     transform="translate(78.265,80.895)"
     id="g198">
    <g
       id="text196"
       style="font-weight:bold;font-size:2.371px;font-family:'Proxima Nova';dominant-baseline:alphabetic;text-anchor:middle;fill:#331a00" />
  </g>
  <g
     transform="translate(78.265,110)"
     id="g202">
    <g
       id="text200"
       style="font-weight:bold;font-size:2.371px;font-family:'Proxima Nova';dominant-baseline:alphabetic;text-anchor:middle;fill:#331a00" />
  </g>
  <line
     x1="95.410"
     y1="23"
     x2="95.410"
     y2="117.000"
     stroke="#331a00"
     stroke-width="0.350"
     id="line204" />
  <g
     transform="translate(89.695,18.648)"
     id="g208">
    <path
       id="circle206"
       style="fill:#331a00;stroke:none;stroke-width:0"
       d="M 1.0880001,0 A 1.0880001,1.0880001 0 0 1 0,1.0880001 1.0880001,1.0880001 0 0 1 -1.0880001,0 1.0880001,1.0880001 0 0 1 0,-1.0880001 1.0880001,1.0880001 0 0 1 1.0880001,0 Z" />
  </g>
  <g
     transform="translate(89.695,15.384)"
     id="g212">
    <g
       aria-label="2"
       id="text210"
       style="font-weight:bold;font-size:3.048px;font-family:'Proxima Nova';dominant-baseline:alphabetic;text-anchor:middle;fill:#331a00">
      <path
         d="M -0.77054871,0 H 0.75954734 V -0.38100001 H -0.08779669 C 0.45779533,-0.76504802 0.74430734,-1.0668 0.74430734,-1.414272 c 0,-0.4053841 -0.34442401,-0.6492241 -0.77724003,-0.6492241 -0.28346401,0 -0.58521602,0.103632 -0.78333602,0.332232 l 0.246888,0.2865121 c 0.13716001,-0.1432561 0.31394401,-0.2346961 0.54254402,-0.2346961 0.17068801,0 0.33223201,0.088392 0.33223201,0.2651761 0,0.249936 -0.24384001,0.46024797 -1.07594403,1.07289599 z"
         style="font-weight:bold;font-size:3.048px;font-family:'Proxima Nova';dominant-baseline:alphabetic;text-anchor:middle;fill:#331a00"
         id="path586" />
    </g>
  </g>
  <g
     transform="translate(89.695,42.983)"
     id="g216">
    <g
       id="text214"
       style="font-weight:bold;font-size:2.371px;font-family:'Proxima Nova';dominant-baseline:alphabetic;text-anchor:middle;fill:#331a00" />
  </g>
  <g
     transform="translate(89.695,64.124)"
     id="g220">
    <g
       id="text218"
       style="font-weight:bold;font-size:2.371px;font-family:'Proxima Nova';dominant-baseline:alphabetic;text-anchor:middle;fill:#331a00" />
  </g>
  <g
     transform="translate(89.695,97.665)"
     id="g224">
    <g
       id="text222"
       style="font-weight:bold;font-size:2.371px;font-family:'Proxima Nova';dominant-baseline:alphabetic;text-anchor:middle;fill:#331a00" />
  </g>
  <g
     transform="translate(89.695,80.895)"
     id="g228">
    <g
       id="text226"
       style="font-weight:bold;font-size:2.371px;font-family:'Proxima Nova';dominant-baseline:alphabetic;text-anchor:middle;fill:#331a00" />
  </g>
  <g
     transform="translate(89.695,110)"
     id="g232">
    <g
       id="text230"
       style="font-weight:bold;font-size:2.371px;font-family:'Proxima Nova';dominant-baseline:alphabetic;text-anchor:middle;fill:#331a00" />
  </g>
  <line
     x1="106.840"
     y1="23"
     x2="106.840"
     y2="117.000"
     stroke="#331a00"
     stroke-width="0.350"
     id="line234" />
  <g
     transform="translate(101.125,18.648)"
     id="g238">
    <path
       id="circle236"
       style="fill:#331a00;stroke:none;stroke-width:0"
       d="M 1.0880001,0 A 1.0880001,1.0880001 0 0 1 0,1.0880001 1.0880001,1.0880001 0 0 1 -1.0880001,0 1.0880001,1.0880001 0 0 1 0,-1.0880001 1.0880001,1.0880001 0 0 1 1.0880001,0 Z" />
  </g>
  <g
     transform="translate(101.125,15.384)"
     id="g242">
    <g
       aria-label="3"
       id="text240"
       style="font-weight:bold;font-size:3.048px;font-family:'Proxima Nova';dominant-baseline:alphabetic;text-anchor:middle;fill:#331a00">
      <path
         d="M -0.83498534,-0.28956001 C -0.68563333,-0.10668 -0.40826533,0.036576 -0.03336131,0.036576 c 0.48768001,0 0.80162402,-0.24688801 0.80162402,-0.59740802 0,-0.30480001 -0.26822401,-0.46634398 -0.47548801,-0.48767998 0.225552,-0.039624 0.44500801,-0.207264 0.44500801,-0.463296 0,-0.3383281 -0.29260801,-0.5516881 -0.76809602,-0.5516881 -0.35661601,0 -0.61264802,0.13716 -0.77724003,0.323088 l 0.21336001,0.2682241 c 0.143256,-0.1371601 0.32004001,-0.2133601 0.51816002,-0.2133601 0.21336,0 0.37795201,0.082296 0.37795201,0.2438401 0,0.1524 -0.14935201,0.225552 -0.37490401,0.225552 -0.07924801,0 -0.21640801,0 -0.25298401,-0.00305 v 0.37795197 c 0.03048,-0.003048 0.16764,-0.003048 0.25298401,-0.003048 0.283464,0 0.40843201,0.0762 0.40843201,0.24079201 0,0.15544801 -0.13716001,0.26212801 -0.38404801,0.26212801 -0.19812001,0 -0.42062402,-0.085344 -0.56083202,-0.23164801 z"
         style="font-weight:bold;font-size:3.048px;font-family:'Proxima Nova';dominant-baseline:alphabetic;text-anchor:middle;fill:#331a00"
         id="path595" />
    </g>
  </g>
  <g
     transform="translate(101.125,42.983)"
     id="g246">
    <g
       id="text244"
       style="font-weight:bold;font-size:2.371px;font-family:'Proxima Nova';dominant-baseline:alphabetic;text-anchor:middle;fill:#331a00" />
  </g>
  <g
     transform="translate(101.125,64.124)"
     id="g250">
    <g
       id="text248"
       style="font-weight:bold;font-size:2.371px;font-family:'Proxima Nova';dominant-baseline:alphabetic;text-anchor:middle;fill:#331a00" />
  </g>
  <g
     transform="translate(101.125,97.665)"
     id="g254">
    <g
       id="text252"
       style="font-weight:bold;font-size:2.371px;font-family:'Proxima Nova';dominant-baseline:alphabetic;text-anchor:middle;fill:#331a00" />
  </g>
  <g
     transform="translate(101.125,80.895)"
     id="g258">
    <g
       id="text256"
       style="font-weight:bold;font-size:2.371px;font-family:'Proxima Nova';dominant-baseline:alphabetic;text-anchor:middle;fill:#331a00" />
  </g>
  <g
     transform="translate(101.125,110)"
     id="g262">
    <g
       id="text260"
       style="font-weight:bold;font-size:2.371px;font-family:'Proxima Nova';dominant-baseline:alphabetic;text-anchor:middle;fill:#331a00" />
  </g>
  <line
     x1="118.270"
     y1="23"
     x2="118.270"
     y2="117.000"
     stroke="#331a00"
     stroke-width="0.350"
     id="line264" />
  <g
     transform="translate(112.555,18.648)"
     id="g268">
    <path
       id="circle266"
       style="fill:#331a00;stroke:none;stroke-width:0"
       d="M 1.0880001,0 A 1.0880001,1.0880001 0 0 1 0,1.0880001 1.0880001,1.0880001 0 0 1 -1.0880001,0 1.0880001,1.0880001 0 0 1 0,-1.0880001 1.0880001,1.0880001 0 0 1 1.0880001,0 Z" />
  </g>
  <g
     transform="translate(112.555,15.384)"
     id="g272">
    <g
       aria-label="4"
       id="text270"
       style="font-weight:bold;font-size:3.048px;font-family:'Proxima Nova';dominant-baseline:alphabetic;text-anchor:middle;fill:#331a00">
      <path
         d="M 0.13768388,0 H 0.57049989 V -0.42062401 H 0.8326279 V -0.80162403 H 0.57049989 V -2.0330161 h -0.59740802 l -0.80772002,1.27101608 v 0.34137601 h 0.97231203 z m 0,-1.6489681 v 0.84734407 h -0.54864002 z"
         style="font-weight:bold;font-size:3.048px;font-family:'Proxima Nova';dominant-baseline:alphabetic;text-anchor:middle;fill:#331a00"
         id="path604" />
    </g>
  </g>
  <g
     transform="translate(112.555,42.983)"
     id="g276">
    <g
       id="text274"
       style="font-weight:bold;font-size:2.371px;font-family:'Proxima Nova';dominant-baseline:alphabetic;text-anchor:middle;fill:#331a00" />
  </g>
  <g
     transform="translate(112.555,64.124)"
     id="g280">
    <g
       id="text278"
       style="font-weight:bold;font-size:2.371px;font-family:'Proxima Nova';dominant-baseline:alphabetic;text-anchor:middle;fill:#331a00" />
  </g>
  <g
     transform="translate(112.555,97.665)"
     id="g284">
    <g
       id="text282"
       style="font-weight:bold;font-size:2.371px;font-family:'Proxima Nova';dominant-baseline:alphabetic;text-anchor:middle;fill:#331a00" />
  </g>
  <g
     transform="translate(112.555,80.895)"
     id="g288">
    <g
       id="text286"
       style="font-weight:bold;font-size:2.371px;font-family:'Proxima Nova';dominant-baseline:alphabetic;text-anchor:middle;fill:#331a00" />
  </g>
  <g
     transform="translate(112.555,110)"
     id="g292">
    <g
       id="text290"
       style="font-weight:bold;font-size:2.371px;font-family:'Proxima Nova';dominant-baseline:alphabetic;text-anchor:middle;fill:#331a00" />
  </g>
</svg>
