<?xml version="1.0" encoding="UTF-8" standalone="no"?>
<svg
   xmlns:dc="http://purl.org/dc/elements/1.1/"
   xmlns:cc="http://creativecommons.org/ns#"
   xmlns:rdf="http://www.w3.org/1999/02/22-rdf-syntax-ns#"
   xmlns:svg="http://www.w3.org/2000/svg"
   xmlns="http://www.w3.org/2000/svg"
   id="svg74"
   height="379.429"
   width="75.000"
   version="1.1">
  <metadata
     id="metadata80">
    <rdf:RDF>
      <cc:Work
         rdf:about="">
        <dc:format>image/svg+xml</dc:format>
        <dc:type
           rdf:resource="http://purl.org/dc/dcmitype/StillImage" />
      </cc:Work>
    </rdf:RDF>
  </metadata>
  <defs
     id="defs78" />
  <g
     id="g72"
     transform="scale(2.953)">
    <path
       id="rect2"
       d="M 0,0 H 25.4 V 128.5 H 0 Z"
       style="fill:#f0fff0;stroke:#009900;stroke-width:1" />
    <g
       id="g6"
       transform="translate(12.7,9)">
      <g
         id="text4"
         style="font-weight:bold;font-size:4.06400013px;font-family:'Proxima Nova';dominant-baseline:alphabetic;text-anchor:middle;fill:#009900"
         aria-label="STAGE">
        <path
           id="path83"
           style="font-weight:bold;font-size:4.06400013px;font-family:'Proxima Nova';dominant-baseline:alphabetic;text-anchor:middle;fill:#009900"
           d="m -6.1416249,-0.38201601 c 0.251968,0.25603201 0.625856,0.43078401 1.146048,0.43078401 0.73152,0 1.085088,-0.37388801 1.085088,-0.86969603 0,-0.61366397 -0.56896,-0.74777607 -1.016,-0.85344007 -0.292608,-0.069088 -0.540512,-0.125984 -0.540512,-0.300736 0,-0.16256 0.138176,-0.272288 0.38608,-0.272288 0.276352,0 0.56896,0.093472 0.788416,0.296672 l 0.321056,-0.422656 c -0.268224,-0.247904 -0.625856,-0.377952 -1.05664,-0.377952 -0.638048,0 -1.028192,0.373888 -1.028192,0.824992 0,0.6177281 0.56896,0.7396481 1.011936,0.8412481 0.296672,0.073152 0.54864,0.13004797 0.54864,0.32918398 0,0.154432 -0.154432,0.30073601 -0.471424,0.30073601 -0.373888,0 -0.67056,-0.16662401 -0.861568,-0.36576002 z" />
        <path
           id="path85"
           style="font-weight:bold;font-size:4.06400013px;font-family:'Proxima Nova';dominant-baseline:alphabetic;text-anchor:middle;fill:#009900"
           d="m -2.9278262,0 h 0.581152 v -2.2026881 h 0.788416 v -0.508 h -2.1620481 v 0.508 h 0.7924801 z" />
        <path
           id="path87"
           style="font-weight:bold;font-size:4.06400013px;font-family:'Proxima Nova';dominant-baseline:alphabetic;text-anchor:middle;fill:#009900"
           d="M 0.41919522,0 H 1.0775632 L 0.03311521,-2.7106881 H -0.69027682 L -1.7387889,0 h 0.6583681 l 0.17068798,-0.45923201 h 1.16230403 z m -0.74777603,-2.1336001 0.42265602,1.16636807 h -0.84531203 z" />
        <path
           id="path89"
           style="font-weight:bold;font-size:4.06400013px;font-family:'Proxima Nova';dominant-baseline:alphabetic;text-anchor:middle;fill:#009900"
           d="m 1.0628947,-1.353312 c 0,0.85343998 0.65024,1.406144 1.44272,1.406144 0.491744,0 0.8778241,-0.2032 1.1541761,-0.51206401 V -1.499616 H 2.3674387 v 0.50393597 h 0.715264 v 0.32512001 c -0.109728,0.1016 -0.337312,0.20726401 -0.577088,0.20726401 -0.491744,0 -0.849376,-0.37795202 -0.849376,-0.89001599 0,-0.5120641 0.357632,-0.8900161 0.849376,-0.8900161 0.288544,0 0.520192,0.16256 0.642112,0.353568 l 0.4795521,-0.260096 c -0.2032,-0.321056 -0.5567681,-0.605536 -1.1216641,-0.605536 -0.79248,0 -1.44272,0.544576 -1.44272,1.4020801 z" />
        <path
           id="path91"
           style="font-weight:bold;font-size:4.06400013px;font-family:'Proxima Nova';dominant-baseline:alphabetic;text-anchor:middle;fill:#009900"
           d="M 4.1218806,0 H 6.0400887 V -0.50800002 H 4.6989686 V -1.121664 H 6.0116407 V -1.6296641 H 4.6989686 v -0.573024 h 1.3411201 v -0.508 H 4.1218806 Z" />
      </g>
    </g>
    <g
       id="g10"
       transform="translate(12.7,119.5)">
      <g
         id="text8"
         style="font-weight:bold;font-size:4.06400013px;font-family:'Proxima Nova';dominant-baseline:hanging;text-anchor:middle;fill:#009900"
         aria-label="DHE">
        <path
           id="path94"
           style="font-weight:bold;font-size:4.06400013px;font-family:'Proxima Nova';dominant-baseline:hanging;text-anchor:middle;fill:#009900"
           d="m -3.8632449,2.5684481 h 1.0688321 c 0.849376,0 1.438656,-0.5364481 1.438656,-1.3533121 0,-0.816864 -0.58928,-1.35737602 -1.438656,-1.35737602 h -1.0688321 z m 0.577088,-0.508 V 0.36576 h 0.4917441 c 0.556768,0 0.849376,0.36982401 0.849376,0.849376 0,0.459232 -0.312928,0.8453121 -0.849376,0.8453121 z" />
        <path
           id="path96"
           style="font-weight:bold;font-size:4.06400013px;font-family:'Proxima Nova';dominant-baseline:hanging;text-anchor:middle;fill:#009900"
           d="M 0.91500319,2.5684481 H 1.4961552 V -0.14224002 H 0.91500319 V 0.92252801 H -0.36515685 V -0.14224002 H -0.94224487 V 2.5684481 h 0.57708802 V 1.430528 h 1.28016004 z" />
        <path
           id="path98"
           style="font-weight:bold;font-size:4.06400013px;font-family:'Proxima Nova';dominant-baseline:hanging;text-anchor:middle;fill:#009900"
           d="m 2.0263802,2.5684481 h 1.9182081 v -0.508 H 2.6034682 V 1.446784 H 3.9161403 V 0.93878401 H 2.6034682 V 0.36576 H 3.9445883 V -0.14224002 H 2.0263802 Z" />
      </g>
    </g>
    <g
       id="g14"
       transform="translate(12.7,17.65)">
      <g
         id="text12"
         style="font-weight:bold;font-size:3.0480001px;font-family:'Proxima Nova';dominant-baseline:alphabetic;text-anchor:middle;fill:#009900"
         aria-label="LEVEL">
        <path
           id="path101"
           style="font-weight:bold;font-size:3.0480001px;font-family:'Proxima Nova';dominant-baseline:alphabetic;text-anchor:middle;fill:#009900"
           d="m -4.2160509,0 h 1.2923521 V -0.38100001 H -3.7832349 V -2.0330161 h -0.432816 z" />
        <path
           id="path103"
           style="font-weight:bold;font-size:3.0480001px;font-family:'Proxima Nova';dominant-baseline:alphabetic;text-anchor:middle;fill:#009900"
           d="m -2.6206134,0 h 1.4386561 v -0.38100001 h -1.00584 v -0.46024802 h 0.984504 V -1.222248 h -0.984504 v -0.4297681 h 1.00584 v -0.381 h -1.4386561 z" />
        <path
           id="path105"
           style="font-weight:bold;font-size:3.0480001px;font-family:'Proxima Nova';dominant-baseline:alphabetic;text-anchor:middle;fill:#009900"
           d="M -0.27065287,0 H 0.27189115 L 1.0552272,-2.0330161 H 0.56145116 L 6.1914318e-4,-0.46939201 -0.56326087,-2.0330161 H -1.0570369 Z" />
        <path
           id="path107"
           style="font-weight:bold;font-size:3.0480001px;font-family:'Proxima Nova';dominant-baseline:alphabetic;text-anchor:middle;fill:#009900"
           d="M 1.242965,0 H 2.681621 V -0.38100001 H 1.675781 V -0.84124803 H 2.660285 V -1.222248 H 1.675781 v -0.4297681 h 1.00584 v -0.381 H 1.242965 Z" />
        <path
           id="path109"
           style="font-weight:bold;font-size:3.0480001px;font-family:'Proxima Nova';dominant-baseline:alphabetic;text-anchor:middle;fill:#009900"
           d="M 3.0229494,0 H 4.3153015 V -0.38100001 H 3.4557654 V -2.0330161 h -0.432816 z" />
      </g>
    </g>
    <g
       id="g18"
       transform="translate(12.7,36.15)">
      <g
         id="text16"
         style="font-weight:bold;font-size:3.0480001px;font-family:'Proxima Nova';dominant-baseline:alphabetic;text-anchor:middle;fill:#009900"
         aria-label="CURVE">
        <path
           id="path112"
           style="font-weight:bold;font-size:3.0480001px;font-family:'Proxima Nova';dominant-baseline:alphabetic;text-anchor:middle;fill:#009900"
           d="m -3.8744844,0.036576 c 0.448056,0 0.704088,-0.24688801 0.8503921,-0.49987201 l -0.3718561,-0.17983201 c -0.085344,0.16764 -0.268224,0.29565601 -0.478536,0.29565601 -0.368808,0 -0.637032,-0.28346401 -0.637032,-0.66751199 0,-0.384048 0.268224,-0.6675121 0.637032,-0.6675121 0.210312,0 0.393192,0.1310641 0.478536,0.2956561 l 0.3718561,-0.1828801 c -0.1432561,-0.252984 -0.4023361,-0.496824 -0.8503921,-0.496824 -0.6096,0 -1.08204,0.42672 -1.08204,1.0515601 0,0.62483999 0.47244,1.05156 1.08204,1.05156 z" />
        <path
           id="path114"
           style="font-weight:bold;font-size:3.0480001px;font-family:'Proxima Nova';dominant-baseline:alphabetic;text-anchor:middle;fill:#009900"
           d="m -2.7634884,-0.81076803 c 0,0.49987202 0.298704,0.84734403 0.917448,0.84734403 0.618744,0 0.91744805,-0.34442401 0.91744805,-0.85039203 V -2.0330161 H -1.3705524 v 1.20700807 c 0,0.28346401 -0.161544,0.47853602 -0.475488,0.47853602 -0.313944,0 -0.478536,-0.19507201 -0.478536,-0.47853602 V -2.0330161 h -0.438912 z" />
        <path
           id="path116"
           style="font-weight:bold;font-size:3.0480001px;font-family:'Proxima Nova';dominant-baseline:alphabetic;text-anchor:middle;fill:#009900"
           d="m 0.6180295,0 h 0.496824 l -0.4572,-0.77419202 c 0.21945601,-0.051816 0.445008,-0.24383998 0.445008,-0.60350398 0,-0.3779521 -0.25907999,-0.6553201 -0.68275201,-0.6553201 H -0.53106654 V 0 h 0.43281602 v -0.72237602 h 0.31699201 z m 0.042672,-1.377696 c 0,0.170688 -0.131064,0.27432 -0.30480001,0.27432 h -0.45415201 v -0.5486401 h 0.45415201 c 0.17373601,0 0.30480001,0.1036321 0.30480001,0.2743201 z" />
        <path
           id="path118"
           style="font-weight:bold;font-size:3.0480001px;font-family:'Proxima Nova';dominant-baseline:alphabetic;text-anchor:middle;fill:#009900"
           d="M 1.967722,0 H 2.510266 L 3.293602,-2.0330161 H 2.799826 L 2.238994,-0.46939201 1.675114,-2.0330161 H 1.181338 Z" />
        <path
           id="path120"
           style="font-weight:bold;font-size:3.0480001px;font-family:'Proxima Nova';dominant-baseline:alphabetic;text-anchor:middle;fill:#009900"
           d="M 3.4813398,0 H 4.9199959 V -0.38100001 H 3.9141558 V -0.84124803 H 4.8986599 V -1.222248 H 3.9141558 v -0.4297681 h 1.0058401 v -0.381 H 3.4813398 Z" />
      </g>
    </g>
    <g
       id="g22"
       transform="translate(12.7,54.65)">
      <g
         id="text20"
         style="font-weight:bold;font-size:3.0480001px;font-family:'Proxima Nova';dominant-baseline:alphabetic;text-anchor:middle;fill:#009900"
         aria-label="DURATION">
        <path
           id="path123"
           style="font-weight:bold;font-size:3.0480001px;font-family:'Proxima Nova';dominant-baseline:alphabetic;text-anchor:middle;fill:#009900"
           d="m -7.5140822,0 h 0.801624 c 0.637032,0 1.078992,-0.40233601 1.078992,-1.014984 0,-0.6126481 -0.44196,-1.0180321 -1.078992,-1.0180321 h -0.801624 z m 0.432816,-0.38100001 V -1.6520161 h 0.368808 c 0.417576,0 0.637032,0.2773681 0.637032,0.6370321 0,0.34442398 -0.234696,0.63398399 -0.637032,0.63398399 z" />
        <path
           id="path125"
           style="font-weight:bold;font-size:3.0480001px;font-family:'Proxima Nova';dominant-baseline:alphabetic;text-anchor:middle;fill:#009900"
           d="m -5.3233321,-0.81076803 c 0,0.49987202 0.298704,0.84734403 0.917448,0.84734403 0.618744,0 0.917448,-0.34442401 0.917448,-0.85039203 V -2.0330161 h -0.44196 v 1.20700807 c 0,0.28346401 -0.161544,0.47853602 -0.475488,0.47853602 -0.313944,0 -0.478536,-0.19507201 -0.478536,-0.47853602 V -2.0330161 h -0.438912 z" />
        <path
           id="path127"
           style="font-weight:bold;font-size:3.0480001px;font-family:'Proxima Nova';dominant-baseline:alphabetic;text-anchor:middle;fill:#009900"
           d="m -1.9418142,0 h 0.496824 l -0.4572,-0.77419202 c 0.219456,-0.051816 0.445008,-0.24383998 0.445008,-0.60350398 0,-0.3779521 -0.25908,-0.6553201 -0.682752,-0.6553201 h -0.950976 V 0 h 0.432816 v -0.72237602 h 0.316992 z m 0.042672,-1.377696 c 0,0.170688 -0.131064,0.27432 -0.3048,0.27432 h -0.454152 v -0.5486401 h 0.454152 c 0.173736,0 0.3048,0.1036321 0.3048,0.2743201 z" />
        <path
           id="path129"
           style="font-weight:bold;font-size:3.0480001px;font-family:'Proxima Nova';dominant-baseline:alphabetic;text-anchor:middle;fill:#009900"
           d="M 0.26974791,0 H 0.76352393 L -0.0198121,-2.0330161 H -0.56235611 L -1.3487401,0 h 0.49377598 l 0.128016,-0.34442401 h 0.87172803 z m -0.56083202,-1.6002001 0.31699201,0.87477608 h -0.63398402 z" />
        <path
           id="path131"
           style="font-weight:bold;font-size:3.0480001px;font-family:'Proxima Nova';dominant-baseline:alphabetic;text-anchor:middle;fill:#009900"
           d="m 1.2242002,0 h 0.435864 v -1.6520161 h 0.591312 v -0.381 H 0.62984014 v 0.381 H 1.2242002 Z" />
        <path
           id="path133"
           style="font-weight:bold;font-size:3.0480001px;font-family:'Proxima Nova';dominant-baseline:alphabetic;text-anchor:middle;fill:#009900"
           d="m 2.5288398,0 h 0.432816 v -2.0330161 h -0.432816 z" />
        <path
           id="path135"
           style="font-weight:bold;font-size:3.0480001px;font-family:'Proxima Nova';dominant-baseline:alphabetic;text-anchor:middle;fill:#009900"
           d="m 3.2647417,-1.014984 c 0,0.61264799 0.448056,1.05156 1.060704,1.05156 0.6156961,0 1.0637521,-0.43891201 1.0637521,-1.05156 0,-0.6126481 -0.448056,-1.0515601 -1.0637521,-1.0515601 -0.612648,0 -1.060704,0.438912 -1.060704,1.0515601 z m 1.6794481,0 c 0,0.37795198 -0.2438401,0.66751199 -0.6187441,0.66751199 -0.374904,0 -0.615696,-0.28956001 -0.615696,-0.66751199 0,-0.381 0.240792,-0.6675121 0.615696,-0.6675121 0.374904,0 0.6187441,0.2865121 0.6187441,0.6675121 z" />
        <path
           id="path137"
           style="font-weight:bold;font-size:3.0480001px;font-family:'Proxima Nova';dominant-baseline:alphabetic;text-anchor:middle;fill:#009900"
           d="m 7.0979826,0 h 0.417576 v -2.0330161 h -0.432816 v 1.27711208 L 6.1409106,-2.0330161 H 5.6959025 V 0 h 0.4328161 v -1.32588 z" />
      </g>
    </g>
    <path
       id="rect24"
       d="m 2.483,74.220001 h 8.4 c 0.554,0 1,0.446 1,1 v 10.98 c 0,0.554 -0.446,1 -1,1 h -8.4 c -0.554,0 -1,-0.446 -1,-1 v -10.98 c 0,-0.554 0.446,-1 1,-1 z"
       style="fill:#f0fff0;stroke:#009900;stroke-width:0.34999999" />
    <g
       id="g28"
       transform="translate(6.683,76.8)">
      <g
         id="text26"
         style="font-weight:bold;font-size:2.37100005px;font-family:'Proxima Nova';dominant-baseline:alphabetic;text-anchor:middle;fill:#009900"
         aria-label="DEFER">
        <path
           id="path141"
           style="font-weight:bold;font-size:2.37100005px;font-family:'Proxima Nova';dominant-baseline:alphabetic;text-anchor:middle;fill:#009900"
           d="m -3.518101,0 h 0.623573 c 0.495539,0 0.839334,-0.31297201 0.839334,-0.78954302 0,-0.47657098 -0.343795,-0.79191398 -0.839334,-0.79191398 h -0.623573 z m 0.336682,-0.29637501 V -1.285082 h 0.286891 c 0.324827,0 0.495539,0.215761 0.495539,0.49553898 0,0.26792301 -0.182567,0.49316801 -0.495539,0.49316801 z" />
        <path
           id="path143"
           style="font-weight:bold;font-size:2.37100005px;font-family:'Proxima Nova';dominant-baseline:alphabetic;text-anchor:middle;fill:#009900"
           d="m -1.8139447,0 h 1.11911201 V -0.29637501 H -1.4772627 v -0.358021 h 0.76583301 V -0.95077102 H -1.4772627 V -1.285082 h 0.78243001 V -1.581457 H -1.8139447 Z" />
        <path
           id="path145"
           style="font-weight:bold;font-size:2.37100005px;font-family:'Proxima Nova';dominant-baseline:alphabetic;text-anchor:middle;fill:#009900"
           d="m -0.42931773,0 h 0.33668201 V -0.65439601 H 0.6731973 V -0.95077102 H -0.09263572 V -1.285082 H 0.6897943 v -0.296375 h -1.11911203 z" />
        <path
           id="path147"
           style="font-weight:bold;font-size:2.37100005px;font-family:'Proxima Nova';dominant-baseline:alphabetic;text-anchor:middle;fill:#009900"
           d="M 0.92289327,0 H 2.0420053 v -0.29637501 h -0.78243 v -0.358021 h 0.765833 V -0.95077102 H 1.2595753 V -1.285082 h 0.78243 V -1.581457 H 0.92289327 Z" />
        <path
           id="path149"
           style="font-weight:bold;font-size:2.37100005px;font-family:'Proxima Nova';dominant-baseline:alphabetic;text-anchor:middle;fill:#009900"
           d="m 3.2013872,0 h 0.386473 l -0.35565,-0.60223401 c 0.170712,-0.040307 0.346166,-0.18968001 0.346166,-0.46945799 0,-0.294004 -0.201535,-0.509765 -0.531104,-0.509765 H 2.3075201 V 0 h 0.336682 v -0.56192701 h 0.2465841 z m 0.033194,-1.071692 c 0,0.13277598 -0.101953,0.21338998 -0.2371,0.21338998 H 2.6442021 V -1.285082 h 0.3532791 c 0.135147,0 0.2371,0.080614 0.2371,0.21339 z" />
      </g>
    </g>
    <path
       id="rect30"
       d="m 14.517,74.220001 h 8.4 c 0.554,0 1,0.446 1,1 v 10.98 c 0,0.554 -0.446,1 -1,1 h -8.4 c -0.554,0 -1,-0.446 -1,-1 v -10.98 c 0,-0.554 0.446,-1 1,-1 z"
       style="fill:#009900;stroke:#009900;stroke-width:0.34999999" />
    <g
       id="g34"
       transform="translate(18.717,76.8)">
      <g
         id="text32"
         style="font-weight:bold;font-size:2.37100005px;font-family:'Proxima Nova';dominant-baseline:alphabetic;text-anchor:middle;fill:#f0fff0"
         aria-label="ACTIVE">
        <path
           id="path153"
           style="font-weight:bold;font-size:2.37100005px;font-family:'Proxima Nova';dominant-baseline:alphabetic;text-anchor:middle;fill:#f0fff0"
           d="m -2.8557955,0 h 0.384102 l -0.609347,-1.581457 h -0.422038 L -4.1147965,0 h 0.384102 l 0.099582,-0.26792301 h 0.678106 z m -0.436264,-1.244775 0.246584,0.68047699 h -0.493168 z" />
        <path
           id="path155"
           style="font-weight:bold;font-size:2.37100005px;font-family:'Proxima Nova';dominant-baseline:alphabetic;text-anchor:middle;fill:#f0fff0"
           d="m -1.6385462,0.028452 c 0.348537,0 0.547701,-0.192051 0.66150897,-0.38884401 l -0.28926197,-0.139889 c -0.066388,0.130405 -0.208648,0.229987 -0.372247,0.229987 -0.2868911,0 -0.4955391,-0.220503 -0.4955391,-0.51924901 0,-0.29874598 0.208648,-0.51924898 0.4955391,-0.51924898 0.163599,0 0.305859,0.101953 0.372247,0.229987 l 0.28926197,-0.14226 C -1.0884742,-1.417858 -1.2900092,-1.607538 -1.6385462,-1.607538 c -0.4742001,0 -0.8417051,0.33194 -0.8417051,0.81799498 0,0.48605501 0.367505,0.81799502 0.8417051,0.81799502 z" />
        <path
           id="path157"
           style="font-weight:bold;font-size:2.37100005px;font-family:'Proxima Nova';dominant-baseline:alphabetic;text-anchor:middle;fill:#f0fff0"
           d="m -0.40918279,0 h 0.339053 V -1.285082 H 0.38984422 V -1.581457 H -0.8715278 v 0.296375 h 0.46234501 z" />
        <path
           id="path159"
           style="font-weight:bold;font-size:2.37100005px;font-family:'Proxima Nova';dominant-baseline:alphabetic;text-anchor:middle;fill:#f0fff0"
           d="M 0.6056795,0 H 0.94236151 V -1.581457 H 0.6056795 Z" />
        <path
           id="path161"
           style="font-weight:bold;font-size:2.37100005px;font-family:'Proxima Nova';dominant-baseline:alphabetic;text-anchor:middle;fill:#f0fff0"
           d="m 1.6973767,0 h 0.422038 l 0.609347,-1.581457 H 2.3446597 L 1.9083957,-0.36513401 1.4697607,-1.581457 h -0.384102 z" />
        <path
           id="path163"
           style="font-weight:bold;font-size:2.37100005px;font-family:'Proxima Nova';dominant-baseline:alphabetic;text-anchor:middle;fill:#f0fff0"
           d="m 2.8748007,0 h 1.119112 v -0.29637501 h -0.78243 v -0.358021 h 0.765833 V -0.95077102 H 3.2114827 V -1.285082 h 0.78243 v -0.296375 h -1.119112 z" />
      </g>
    </g>
    <g
       id="g38"
       transform="translate(18.717,76.8)">
      <g
         id="text36"
         style="font-weight:bold;font-size:2.37100005px;font-family:'Proxima Nova';dominant-baseline:alphabetic;text-anchor:middle;fill:#f0fff0"
         aria-label="ACTIVE">
        <path
           id="path166"
           style="font-weight:bold;font-size:2.37100005px;font-family:'Proxima Nova';dominant-baseline:alphabetic;text-anchor:middle;fill:#f0fff0"
           d="m -2.8557955,0 h 0.384102 l -0.609347,-1.581457 h -0.422038 L -4.1147965,0 h 0.384102 l 0.099582,-0.26792301 h 0.678106 z m -0.436264,-1.244775 0.246584,0.68047699 h -0.493168 z" />
        <path
           id="path168"
           style="font-weight:bold;font-size:2.37100005px;font-family:'Proxima Nova';dominant-baseline:alphabetic;text-anchor:middle;fill:#f0fff0"
           d="m -1.6385462,0.028452 c 0.348537,0 0.547701,-0.192051 0.66150897,-0.38884401 l -0.28926197,-0.139889 c -0.066388,0.130405 -0.208648,0.229987 -0.372247,0.229987 -0.2868911,0 -0.4955391,-0.220503 -0.4955391,-0.51924901 0,-0.29874598 0.208648,-0.51924898 0.4955391,-0.51924898 0.163599,0 0.305859,0.101953 0.372247,0.229987 l 0.28926197,-0.14226 C -1.0884742,-1.417858 -1.2900092,-1.607538 -1.6385462,-1.607538 c -0.4742001,0 -0.8417051,0.33194 -0.8417051,0.81799498 0,0.48605501 0.367505,0.81799502 0.8417051,0.81799502 z" />
        <path
           id="path170"
           style="font-weight:bold;font-size:2.37100005px;font-family:'Proxima Nova';dominant-baseline:alphabetic;text-anchor:middle;fill:#f0fff0"
           d="m -0.40918279,0 h 0.339053 V -1.285082 H 0.38984422 V -1.581457 H -0.8715278 v 0.296375 h 0.46234501 z" />
        <path
           id="path172"
           style="font-weight:bold;font-size:2.37100005px;font-family:'Proxima Nova';dominant-baseline:alphabetic;text-anchor:middle;fill:#f0fff0"
           d="M 0.6056795,0 H 0.94236151 V -1.581457 H 0.6056795 Z" />
        <path
           id="path174"
           style="font-weight:bold;font-size:2.37100005px;font-family:'Proxima Nova';dominant-baseline:alphabetic;text-anchor:middle;fill:#f0fff0"
           d="m 1.6973767,0 h 0.422038 l 0.609347,-1.581457 H 2.3446597 L 1.9083957,-0.36513401 1.4697607,-1.581457 h -0.384102 z" />
        <path
           id="path176"
           style="font-weight:bold;font-size:2.37100005px;font-family:'Proxima Nova';dominant-baseline:alphabetic;text-anchor:middle;fill:#f0fff0"
           d="m 2.8748007,0 h 1.119112 v -0.29637501 h -0.78243 v -0.358021 h 0.765833 V -0.95077102 H 3.2114827 V -1.285082 h 0.78243 v -0.296375 h -1.119112 z" />
      </g>
    </g>
    <path
       id="rect40"
       d="m 2.483,89.220001 h 8.4 c 0.554,0 1,0.446 1,1 V 101.2 c 0,0.554 -0.446,1 -1,1 h -8.4 c -0.554,0 -1,-0.446 -1,-1 V 90.220001 c 0,-0.554 0.446,-1 1,-1 z"
       style="fill:#f0fff0;stroke:#009900;stroke-width:0.34999999" />
    <g
       id="g44"
       transform="translate(6.683,91.8)">
      <g
         id="text42"
         style="font-weight:bold;font-size:2.37100005px;font-family:'Proxima Nova';dominant-baseline:alphabetic;text-anchor:middle;fill:#009900"
         aria-label="TRIG">
        <path
           id="path180"
           style="font-weight:bold;font-size:2.37100005px;font-family:'Proxima Nova';dominant-baseline:alphabetic;text-anchor:middle;fill:#009900"
           d="m -2.1087082,0 h 0.339053 v -1.285082 h 0.459974 v -0.296375 h -1.261372 v 0.296375 h 0.462345 z" />
        <path
           id="path182"
           style="font-weight:bold;font-size:2.37100005px;font-family:'Proxima Nova';dominant-baseline:alphabetic;text-anchor:middle;fill:#009900"
           d="m -0.19997898,0 h 0.38647301 l -0.35565001,-0.60223401 c 0.17071201,-0.040307 0.34616601,-0.18968001 0.34616601,-0.46945799 0,-0.294004 -0.201535,-0.509765 -0.53110401,-0.509765 H -1.093846 V 0 h 0.33668201 v -0.56192701 h 0.246584 z m 0.033194,-1.071692 c 0,0.13277598 -0.101953,0.21338998 -0.2371,0.21338998 H -0.75716399 V -1.285082 h 0.35327901 c 0.135147,0 0.2371,0.080614 0.2371,0.21339 z" />
        <path
           id="path184"
           style="font-weight:bold;font-size:2.37100005px;font-family:'Proxima Nova';dominant-baseline:alphabetic;text-anchor:middle;fill:#009900"
           d="m 0.42970678,0 h 0.336682 v -1.581457 h -0.336682 z" />
        <path
           id="path186"
           style="font-weight:bold;font-size:2.37100005px;font-family:'Proxima Nova';dominant-baseline:alphabetic;text-anchor:middle;fill:#009900"
           d="m 1.0021552,-0.78954302 c 0,0.49791001 0.37936,0.82036602 0.841705,0.82036602 0.286891,0 0.512136,-0.11855 0.673364,-0.29874601 v -0.60697601 h -0.753978 v 0.29400401 h 0.417296 v 0.18968 c -0.064017,0.059275 -0.196793,0.120921 -0.336682,0.120921 -0.286891,0 -0.495539,-0.220503 -0.495539,-0.51924901 0,-0.29874598 0.208648,-0.51924898 0.495539,-0.51924898 0.168341,0 0.303488,0.09484 0.374618,0.206277 l 0.279778,-0.151744 c -0.11855,-0.187309 -0.324827,-0.353279 -0.654396,-0.353279 -0.462345,0 -0.841705,0.317714 -0.841705,0.81799498 z" />
      </g>
    </g>
    <path
       id="rect46"
       d="m 14.517,89.220001 h 8.4 c 0.554,0 1,0.446 1,1 V 101.2 c 0,0.554 -0.446,1 -1,1 h -8.4 c -0.554,0 -1,-0.446 -1,-1 V 90.220001 c 0,-0.554 0.446,-1 1,-1 z"
       style="fill:#009900;stroke:#009900;stroke-width:0.34999999" />
    <g
       id="g50"
       transform="translate(18.717,91.8)">
      <g
         id="text48"
         style="font-weight:bold;font-size:2.37100005px;font-family:'Proxima Nova';dominant-baseline:alphabetic;text-anchor:middle;fill:#f0fff0"
         aria-label="EOC">
        <path
           id="path190"
           style="font-weight:bold;font-size:2.37100005px;font-family:'Proxima Nova';dominant-baseline:alphabetic;text-anchor:middle;fill:#f0fff0"
           d="m -2.2585072,0 h 1.119112 v -0.29637501 h -0.78243 v -0.358021 h 0.765833 v -0.29637501 h -0.765833 V -1.285082 h 0.78243 v -0.296375 h -1.119112 z" />
        <path
           id="path192"
           style="font-weight:bold;font-size:2.37100005px;font-family:'Proxima Nova';dominant-baseline:alphabetic;text-anchor:middle;fill:#f0fff0"
           d="m -0.94975223,-0.78954302 c 0,0.47657101 0.34853701,0.81799502 0.82510802,0.81799502 0.47894201,0 0.82747902,-0.34142401 0.82747902,-0.81799502 0,-0.47657098 -0.34853701,-0.81799498 -0.82747902,-0.81799498 -0.47657101,0 -0.82510802,0.341424 -0.82510802,0.81799498 z m 1.30642103,0 c 0,0.29400401 -0.18968001,0.51924901 -0.48131301,0.51924901 -0.29163301,0 -0.47894201,-0.225245 -0.47894201,-0.51924901 0,-0.29637498 0.187309,-0.51924898 0.47894201,-0.51924898 0.291633,0 0.48131301,0.222874 0.48131301,0.51924898 z" />
        <path
           id="path194"
           style="font-weight:bold;font-size:2.37100005px;font-family:'Proxima Nova';dominant-baseline:alphabetic;text-anchor:middle;fill:#f0fff0"
           d="m 1.7072498,0.028452 c 0.348537,0 0.547701,-0.192051 0.661509,-0.38884401 l -0.289262,-0.139889 c -0.066388,0.130405 -0.208648,0.229987 -0.372247,0.229987 -0.286891,0 -0.495539,-0.220503 -0.495539,-0.51924901 0,-0.29874598 0.208648,-0.51924898 0.495539,-0.51924898 0.163599,0 0.305859,0.101953 0.372247,0.229987 l 0.289262,-0.14226 c -0.111437,-0.196793 -0.312972,-0.386473 -0.661509,-0.386473 -0.4742,0 -0.84170502,0.33194 -0.84170502,0.81799498 0,0.48605501 0.36750502,0.81799502 0.84170502,0.81799502 z" />
      </g>
    </g>
    <g
       id="g54"
       transform="translate(18.717,91.8)">
      <g
         id="text52"
         style="font-weight:bold;font-size:2.37100005px;font-family:'Proxima Nova';dominant-baseline:alphabetic;text-anchor:middle;fill:#f0fff0"
         aria-label="EOC">
        <path
           id="path197"
           style="font-weight:bold;font-size:2.37100005px;font-family:'Proxima Nova';dominant-baseline:alphabetic;text-anchor:middle;fill:#f0fff0"
           d="m -2.2585072,0 h 1.119112 v -0.29637501 h -0.78243 v -0.358021 h 0.765833 v -0.29637501 h -0.765833 V -1.285082 h 0.78243 v -0.296375 h -1.119112 z" />
        <path
           id="path199"
           style="font-weight:bold;font-size:2.37100005px;font-family:'Proxima Nova';dominant-baseline:alphabetic;text-anchor:middle;fill:#f0fff0"
           d="m -0.94975223,-0.78954302 c 0,0.47657101 0.34853701,0.81799502 0.82510802,0.81799502 0.47894201,0 0.82747902,-0.34142401 0.82747902,-0.81799502 0,-0.47657098 -0.34853701,-0.81799498 -0.82747902,-0.81799498 -0.47657101,0 -0.82510802,0.341424 -0.82510802,0.81799498 z m 1.30642103,0 c 0,0.29400401 -0.18968001,0.51924901 -0.48131301,0.51924901 -0.29163301,0 -0.47894201,-0.225245 -0.47894201,-0.51924901 0,-0.29637498 0.187309,-0.51924898 0.47894201,-0.51924898 0.291633,0 0.48131301,0.222874 0.48131301,0.51924898 z" />
        <path
           id="path201"
           style="font-weight:bold;font-size:2.37100005px;font-family:'Proxima Nova';dominant-baseline:alphabetic;text-anchor:middle;fill:#f0fff0"
           d="m 1.7072498,0.028452 c 0.348537,0 0.547701,-0.192051 0.661509,-0.38884401 l -0.289262,-0.139889 c -0.066388,0.130405 -0.208648,0.229987 -0.372247,0.229987 -0.286891,0 -0.495539,-0.220503 -0.495539,-0.51924901 0,-0.29874598 0.208648,-0.51924898 0.495539,-0.51924898 0.163599,0 0.305859,0.101953 0.372247,0.229987 l 0.289262,-0.14226 c -0.111437,-0.196793 -0.312972,-0.386473 -0.661509,-0.386473 -0.4742,0 -0.84170502,0.33194 -0.84170502,0.81799498 0,0.48605501 0.36750502,0.81799502 0.84170502,0.81799502 z" />
      </g>
    </g>
    <path
       id="rect56"
       d="m 2.483,104.22 h 8.4 c 0.554,0 1,0.446 1,1 v 10.98 c 0,0.554 -0.446,1 -1,1 h -8.4 c -0.554,0 -1,-0.446 -1,-1 v -10.98 c 0,-0.554 0.446,-1 1,-1 z"
       style="fill:#f0fff0;stroke:#009900;stroke-width:0.34999999" />
    <g
       id="g60"
       transform="translate(6.683,106.8)">
      <g
         id="text58"
         style="font-weight:bold;font-size:2.37100005px;font-family:'Proxima Nova';dominant-baseline:alphabetic;text-anchor:middle;fill:#009900"
         aria-label="IN">
        <path
           id="path205"
           style="font-weight:bold;font-size:2.37100005px;font-family:'Proxima Nova';dominant-baseline:alphabetic;text-anchor:middle;fill:#009900"
           d="m -1.0313295,0 h 0.33668206 V -1.581457 H -1.0313295 Z" />
        <path
           id="path207"
           style="font-weight:bold;font-size:2.37100005px;font-family:'Proxima Nova';dominant-baseline:alphabetic;text-anchor:middle;fill:#009900"
           d="M 0.70765089,0 H 1.0324779 V -1.581457 H 0.69579589 v 0.99344899 L -0.03684313,-1.581457 h -0.346166 V 0 h 0.336682 v -1.031385 z" />
      </g>
    </g>
    <path
       id="rect62"
       d="m 14.517,104.22 h 8.4 c 0.554,0 1,0.446 1,1 v 10.98 c 0,0.554 -0.446,1 -1,1 h -8.4 c -0.554,0 -1,-0.446 -1,-1 v -10.98 c 0,-0.554 0.446,-1 1,-1 z"
       style="fill:#009900;stroke:#009900;stroke-width:0.34999999" />
    <g
       id="g66"
       transform="translate(18.717,106.8)">
      <g
         id="text64"
         style="font-weight:bold;font-size:2.37100005px;font-family:'Proxima Nova';dominant-baseline:alphabetic;text-anchor:middle;fill:#f0fff0"
         aria-label="OUT">
        <path
           id="path211"
           style="font-weight:bold;font-size:2.37100005px;font-family:'Proxima Nova';dominant-baseline:alphabetic;text-anchor:middle;fill:#f0fff0"
           d="m -2.3853187,-0.78954302 c 0,0.47657101 0.348537,0.81799502 0.825108,0.81799502 0.4789421,0 0.82747907,-0.34142401 0.82747907,-0.81799502 0,-0.47657098 -0.34853697,-0.81799498 -0.82747907,-0.81799498 -0.476571,0 -0.825108,0.341424 -0.825108,0.81799498 z m 1.3064211,0 c 0,0.29400401 -0.18968,0.51924901 -0.4813131,0.51924901 -0.291633,0 -0.478942,-0.225245 -0.478942,-0.51924901 0,-0.29637498 0.187309,-0.51924898 0.478942,-0.51924898 0.2916331,0 0.4813131,0.222874 0.4813131,0.51924898 z" />
        <path
           id="path213"
           style="font-weight:bold;font-size:2.37100005px;font-family:'Proxima Nova';dominant-baseline:alphabetic;text-anchor:middle;fill:#f0fff0"
           d="m -0.49414978,-0.63068601 c 0,0.388844 0.23235801,0.65913801 0.71367102,0.65913801 0.48131301,0 0.71367101,-0.26792301 0.71367101,-0.66150901 V -1.581457 H 0.58939724 v 0.93891599 c 0,0.220503 -0.125663,0.372247 -0.369876,0.372247 -0.24421301,0 -0.37224701,-0.151744 -0.37224701,-0.372247 V -1.581457 h -0.34142401 z" />
        <path
           id="path215"
           style="font-weight:bold;font-size:2.37100005px;font-family:'Proxima Nova';dominant-baseline:alphabetic;text-anchor:middle;fill:#f0fff0"
           d="m 1.6075565,0 h 0.339053 v -1.285082 h 0.459974 v -0.296375 h -1.261372 v 0.296375 h 0.462345 z" />
      </g>
    </g>
    <g
       id="g70"
       transform="translate(18.717,106.8)">
      <g
         id="text68"
         style="font-weight:bold;font-size:2.37100005px;font-family:'Proxima Nova';dominant-baseline:alphabetic;text-anchor:middle;fill:#f0fff0"
         aria-label="OUT">
        <path
           id="path218"
           style="font-weight:bold;font-size:2.37100005px;font-family:'Proxima Nova';dominant-baseline:alphabetic;text-anchor:middle;fill:#f0fff0"
           d="m -2.3853187,-0.78954302 c 0,0.47657101 0.348537,0.81799502 0.825108,0.81799502 0.4789421,0 0.82747907,-0.34142401 0.82747907,-0.81799502 0,-0.47657098 -0.34853697,-0.81799498 -0.82747907,-0.81799498 -0.476571,0 -0.825108,0.341424 -0.825108,0.81799498 z m 1.3064211,0 c 0,0.29400401 -0.18968,0.51924901 -0.4813131,0.51924901 -0.291633,0 -0.478942,-0.225245 -0.478942,-0.51924901 0,-0.29637498 0.187309,-0.51924898 0.478942,-0.51924898 0.2916331,0 0.4813131,0.222874 0.4813131,0.51924898 z" />
        <path
           id="path220"
           style="font-weight:bold;font-size:2.37100005px;font-family:'Proxima Nova';dominant-baseline:alphabetic;text-anchor:middle;fill:#f0fff0"
           d="m -0.49414978,-0.63068601 c 0,0.388844 0.23235801,0.65913801 0.71367102,0.65913801 0.48131301,0 0.71367101,-0.26792301 0.71367101,-0.66150901 V -1.581457 H 0.58939724 v 0.93891599 c 0,0.220503 -0.125663,0.372247 -0.369876,0.372247 -0.24421301,0 -0.37224701,-0.151744 -0.37224701,-0.372247 V -1.581457 h -0.34142401 z" />
        <path
           id="path222"
           style="font-weight:bold;font-size:2.37100005px;font-family:'Proxima Nova';dominant-baseline:alphabetic;text-anchor:middle;fill:#f0fff0"
           d="m 1.6075565,0 h 0.339053 v -1.285082 h 0.459974 v -0.296375 h -1.261372 v 0.296375 h 0.462345 z" />
      </g>
    </g>
  </g>
</svg>
