<?xml version="1.0" encoding="UTF-8" standalone="no"?>
<svg
   xmlns:dc="http://purl.org/dc/elements/1.1/"
   xmlns:cc="http://creativecommons.org/ns#"
   xmlns:rdf="http://www.w3.org/1999/02/22-rdf-syntax-ns#"
   xmlns:svg="http://www.w3.org/2000/svg"
   xmlns="http://www.w3.org/2000/svg"
   id="svg50"
   height="379.429"
   width="60.000"
   version="1.1">
  <metadata
     id="metadata56">
    <rdf:RDF>
      <cc:Work
         rdf:about="">
        <dc:format>image/svg+xml</dc:format>
        <dc:type
           rdf:resource="http://purl.org/dc/dcmitype/StillImage" />
      </cc:Work>
    </rdf:RDF>
  </metadata>
  <defs
     id="defs54" />
  <g
     id="g48"
     transform="scale(2.953)">
    <path
       id="rect2"
       d="M 0,0 H 20.32 V 128.5 H 0 Z"
       style="fill:#fff4f0;stroke:#ff4400;stroke-width:1" />
    <g
       id="g6"
       transform="translate(10.16,9)">
      <g
         id="text4"
         style="font-weight:bold;font-size:4.06400013px;font-family:'Proxima Nova';dominant-baseline:alphabetic;text-anchor:middle;fill:#ff4400"
         aria-label="SWAVE">
        <path
           id="path59"
           style="font-weight:bold;font-size:4.06400013px;font-family:'Proxima Nova';dominant-baseline:alphabetic;text-anchor:middle;fill:#ff4400"
           d="m -6.776625,-0.38201601 c 0.251968,0.25603201 0.6258561,0.43078401 1.1460481,0.43078401 0.73152,0 1.085088,-0.37388801 1.085088,-0.86969603 0,-0.61366397 -0.56896,-0.74777607 -1.016,-0.85344007 -0.292608,-0.069088 -0.540512,-0.125984 -0.540512,-0.300736 0,-0.16256 0.138176,-0.272288 0.38608,-0.272288 0.276352,0 0.56896,0.093472 0.788416,0.296672 l 0.321056,-0.422656 c -0.268224,-0.247904 -0.625856,-0.377952 -1.05664,-0.377952 -0.6380481,0 -1.0281921,0.373888 -1.0281921,0.824992 0,0.6177281 0.5689601,0.7396481 1.0119361,0.8412481 0.296672,0.073152 0.54864,0.13004797 0.54864,0.32918398 0,0.154432 -0.154432,0.30073601 -0.471424,0.30073601 -0.373888,0 -0.6705601,-0.16662401 -0.8615681,-0.36576002 z" />
        <path
           id="path61"
           style="font-weight:bold;font-size:4.06400013px;font-family:'Proxima Nova';dominant-baseline:alphabetic;text-anchor:middle;fill:#ff4400"
           d="m -2.0842923,0 h 0.6136641 l 0.77215999,-2.7106881 H -1.3487082 l -0.471424,1.95884808 -0.5120641,-1.95884808 h -0.451104 l -0.516128,1.95884808 -0.475488,-1.95884808 h -0.646176 L -3.6448683,0 h 0.613664 l 0.471424,-1.8613121 z" />
        <path
           id="path63"
           style="font-weight:bold;font-size:4.06400013px;font-family:'Proxima Nova';dominant-baseline:alphabetic;text-anchor:middle;fill:#ff4400"
           d="m 1.2605703,0 h 0.658368 L 0.87449029,-2.7106881 H 0.15109827 L -0.89741377,0 h 0.65836802 l 0.17068801,-0.45923201 H 1.0939463 Z M 0.51279428,-2.1336001 0.93545029,-0.96723203 H 0.09013826 Z" />
        <path
           id="path65"
           style="font-weight:bold;font-size:4.06400013px;font-family:'Proxima Nova';dominant-baseline:alphabetic;text-anchor:middle;fill:#ff4400"
           d="m 2.7387233,0 h 0.723392 l 1.044448,-2.7106881 h -0.658368 l -0.747776,2.08483208 -0.75184,-2.08483208 h -0.658368 z" />
        <path
           id="path67"
           style="font-weight:bold;font-size:4.06400013px;font-family:'Proxima Nova';dominant-baseline:alphabetic;text-anchor:middle;fill:#ff4400"
           d="m 4.7568801,0 h 1.918208 v -0.50800002 h -1.34112 V -1.121664 h 1.312672 v -0.5080001 h -1.312672 v -0.573024 h 1.34112 v -0.508 h -1.918208 z" />
      </g>
    </g>
    <g
       id="g10"
       transform="translate(10.16,119.5)">
      <g
         id="text8"
         style="font-weight:bold;font-size:4.06400013px;font-family:'Proxima Nova';dominant-baseline:hanging;text-anchor:middle;fill:#ff4400"
         aria-label="DHE">
        <path
           id="path70"
           style="font-weight:bold;font-size:4.06400013px;font-family:'Proxima Nova';dominant-baseline:hanging;text-anchor:middle;fill:#ff4400"
           d="m -3.8632449,2.5684481 h 1.0688321 c 0.849376,0 1.438656,-0.5364481 1.438656,-1.3533121 0,-0.816864 -0.58928,-1.35737602 -1.438656,-1.35737602 h -1.0688321 z m 0.577088,-0.508 V 0.36576 h 0.4917441 c 0.556768,0 0.849376,0.36982401 0.849376,0.849376 0,0.459232 -0.312928,0.8453121 -0.849376,0.8453121 z" />
        <path
           id="path72"
           style="font-weight:bold;font-size:4.06400013px;font-family:'Proxima Nova';dominant-baseline:hanging;text-anchor:middle;fill:#ff4400"
           d="M 0.91500319,2.5684481 H 1.4961552 V -0.14224002 H 0.91500319 V 0.92252801 H -0.36515685 V -0.14224002 H -0.94224487 V 2.5684481 h 0.57708802 V 1.430528 h 1.28016004 z" />
        <path
           id="path74"
           style="font-weight:bold;font-size:4.06400013px;font-family:'Proxima Nova';dominant-baseline:hanging;text-anchor:middle;fill:#ff4400"
           d="m 2.0263802,2.5684481 h 1.9182081 v -0.508 H 2.6034682 V 1.446784 H 3.9161403 V 0.93878401 H 2.6034682 V 0.36576 H 3.9445883 V -0.14224002 H 2.0263802 Z" />
      </g>
    </g>
    <g
       id="g14"
       transform="translate(10.16,29)">
      <g
         id="text12"
         style="font-weight:bold;font-size:2.37100005px;font-family:'Proxima Nova';dominant-baseline:hanging;text-anchor:middle;fill:#ff4400"
         aria-label="J">
        <path
           id="path77"
           style="font-weight:bold;font-size:2.37100005px;font-family:'Proxima Nova';dominant-baseline:hanging;text-anchor:middle;fill:#ff4400"
           d="m -0.562316,1.372809 c 0.113808,0.111437 0.265552,0.154115 0.424409,0.154115 0.32482701,0 0.55718502,-0.173083 0.55718502,-0.54770104 V -0.08298506 H 0.08259601 v 1.05746602 c 0,0.15411504 -0.097211,0.25369704 -0.24658401,0.25369704 -0.109066,0 -0.18968,-0.054533 -0.251326,-0.113808 z" />
      </g>
    </g>
    <g
       id="g18"
       transform="translate(10.16,21)">
      <g
         id="text16"
         style="font-weight:bold;font-size:2.37100005px;font-family:'Proxima Nova';dominant-baseline:alphabetic;text-anchor:middle;fill:#ff4400"
         aria-label="S">
        <path
           id="path80"
           style="font-weight:bold;font-size:2.37100005px;font-family:'Proxima Nova';dominant-baseline:alphabetic;text-anchor:middle;fill:#ff4400"
           d="m -0.66104593,-0.222874 c 0.147002,0.149373 0.36513401,0.251326 0.66862202,0.251326 0.42678001,0 0.63305701,-0.218132 0.63305701,-0.50739401 0,-0.35802101 -0.33194001,-0.43626401 -0.59275001,-0.49791001 -0.17071201,-0.040307 -0.31534301,-0.073501 -0.31534301,-0.17545398 0,-0.09484 0.080614,-0.158857 0.22524501,-0.158857 0.161228,0 0.33194,0.054533 0.45997401,0.173083 l 0.187309,-0.246584 c -0.156486,-0.144631 -0.36513401,-0.220503 -0.61646001,-0.220503 -0.37224701,0 -0.59986302,0.218132 -0.59986302,0.481313 0,0.36039198 0.33194001,0.43152198 0.59037902,0.49079699 0.173083,0.042678 0.320085,0.075872 0.320085,0.192051 0,0.090098 -0.090098,0.175454 -0.275036,0.175454 -0.21813201,0 -0.39121501,-0.097211 -0.50265201,-0.21339 z" />
      </g>
    </g>
    <g
       id="g22"
       transform="translate(10.16,36.15)">
      <g
         id="text20"
         style="font-weight:bold;font-size:3.0480001px;font-family:'Proxima Nova';dominant-baseline:alphabetic;text-anchor:middle;fill:#ff4400"
         aria-label="CURVE">
        <path
           id="path83"
           style="font-weight:bold;font-size:3.0480001px;font-family:'Proxima Nova';dominant-baseline:alphabetic;text-anchor:middle;fill:#ff4400"
           d="m -3.8744844,0.036576 c 0.448056,0 0.704088,-0.24688801 0.8503921,-0.49987201 l -0.3718561,-0.17983201 c -0.085344,0.16764 -0.268224,0.29565601 -0.478536,0.29565601 -0.368808,0 -0.637032,-0.28346401 -0.637032,-0.66751199 0,-0.384048 0.268224,-0.6675121 0.637032,-0.6675121 0.210312,0 0.393192,0.1310641 0.478536,0.2956561 l 0.3718561,-0.1828801 c -0.1432561,-0.252984 -0.4023361,-0.496824 -0.8503921,-0.496824 -0.6096,0 -1.08204,0.42672 -1.08204,1.0515601 0,0.62483999 0.47244,1.05156 1.08204,1.05156 z" />
        <path
           id="path85"
           style="font-weight:bold;font-size:3.0480001px;font-family:'Proxima Nova';dominant-baseline:alphabetic;text-anchor:middle;fill:#ff4400"
           d="m -2.7634884,-0.81076803 c 0,0.49987202 0.298704,0.84734403 0.917448,0.84734403 0.618744,0 0.91744805,-0.34442401 0.91744805,-0.85039203 V -2.0330161 H -1.3705524 v 1.20700807 c 0,0.28346401 -0.161544,0.47853602 -0.475488,0.47853602 -0.313944,0 -0.478536,-0.19507201 -0.478536,-0.47853602 V -2.0330161 h -0.438912 z" />
        <path
           id="path87"
           style="font-weight:bold;font-size:3.0480001px;font-family:'Proxima Nova';dominant-baseline:alphabetic;text-anchor:middle;fill:#ff4400"
           d="m 0.6180295,0 h 0.496824 l -0.4572,-0.77419202 c 0.21945601,-0.051816 0.445008,-0.24383998 0.445008,-0.60350398 0,-0.3779521 -0.25907999,-0.6553201 -0.68275201,-0.6553201 H -0.53106654 V 0 h 0.43281602 v -0.72237602 h 0.31699201 z m 0.042672,-1.377696 c 0,0.170688 -0.131064,0.27432 -0.30480001,0.27432 h -0.45415201 v -0.5486401 h 0.45415201 c 0.17373601,0 0.30480001,0.1036321 0.30480001,0.2743201 z" />
        <path
           id="path89"
           style="font-weight:bold;font-size:3.0480001px;font-family:'Proxima Nova';dominant-baseline:alphabetic;text-anchor:middle;fill:#ff4400"
           d="M 1.967722,0 H 2.510266 L 3.293602,-2.0330161 H 2.799826 L 2.238994,-0.46939201 1.675114,-2.0330161 H 1.181338 Z" />
        <path
           id="path91"
           style="font-weight:bold;font-size:3.0480001px;font-family:'Proxima Nova';dominant-baseline:alphabetic;text-anchor:middle;fill:#ff4400"
           d="M 3.4813398,0 H 4.9199959 V -0.38100001 H 3.9141558 V -0.84124803 H 4.8986599 V -1.222248 H 3.9141558 v -0.4297681 h 1.0058401 v -0.381 H 3.4813398 Z" />
      </g>
    </g>
    <g
       id="g26"
       transform="translate(10.16,57.5)">
      <g
         id="text24"
         style="font-weight:bold;font-size:3.0480001px;font-family:'Proxima Nova';dominant-baseline:alphabetic;text-anchor:middle;fill:#ff4400"
         aria-label="- +">
        <path
           id="path94"
           style="font-weight:bold;font-size:3.0480001px;font-family:'Proxima Nova';dominant-baseline:alphabetic;text-anchor:middle;fill:#ff4400"
           d="m -1.8969038,-0.57302402 h 0.73152 v -0.32918401 h -0.73152 z" />
        <path
           id="path96"
           style="font-weight:bold;font-size:3.0480001px;font-family:'Proxima Nova';dominant-baseline:alphabetic;text-anchor:middle;fill:#ff4400"
           d="m 1.3546456,-0.90830403 h 0.545592 V -1.149096 H 1.3546456 V -1.7434561 H 1.0894696 V -1.149096 H 0.54082954 v 0.24079197 H 1.0894696 v 0.61874402 h 0.265176 z" />
      </g>
    </g>
    <g
       id="g30"
       transform="translate(10.16,75.3)">
      <g
         id="text28"
         style="font-weight:bold;font-size:3.0480001px;font-family:'Proxima Nova';dominant-baseline:alphabetic;text-anchor:middle;fill:#ff4400"
         aria-label="cv">
        <path
           id="path99"
           style="font-weight:bold;font-size:3.0480001px;font-family:'Proxima Nova';dominant-baseline:alphabetic;text-anchor:middle;fill:#ff4400"
           d="m -1.4443234,-0.73761602 c 0,0.45415201 0.326136,0.77419202 0.780288,0.77419202 0.30175201,0 0.48463202,-0.131064 0.58216802,-0.26822401 l -0.25298401,-0.234696 c -0.070104,0.097536 -0.176784,0.158496 -0.31089601,0.158496 -0.234696,0 -0.399288,-0.17373601 -0.399288,-0.42976801 0,-0.25603201 0.164592,-0.42671998 0.399288,-0.42671998 0.13411201,0 0.24079201,0.054864 0.31089601,0.158496 l 0.25298401,-0.237744 c -0.097536,-0.134112 -0.28041601,-0.265176 -0.58216802,-0.265176 -0.454152,0 -0.780288,0.32004 -0.780288,0.77114398 z" />
        <path
           id="path101"
           style="font-weight:bold;font-size:3.0480001px;font-family:'Proxima Nova';dominant-baseline:alphabetic;text-anchor:middle;fill:#ff4400"
           d="M 0.54921157,0 H 0.96678758 L 1.5580996,-1.472184 H 1.1405236 L 0.75647558,-0.44805601 0.37242756,-1.472184 h -0.41452801 z" />
      </g>
    </g>
    <path
       id="rect32"
       d="m 5.96,89.220001 h 8.4 c 0.554,0 1,0.446 1,1 V 101.2 c 0,0.554 -0.446,1 -1,1 h -8.4 c -0.554,0 -1,-0.446 -1,-1 V 90.220001 c 0,-0.554 0.446,-1 1,-1 z"
       style="fill:#fff4f0;stroke:#ff4400;stroke-width:0.34999999" />
    <g
       id="g36"
       transform="translate(10.16,91.8)">
      <g
         id="text34"
         style="font-weight:bold;font-size:2.37100005px;font-family:'Proxima Nova';dominant-baseline:alphabetic;text-anchor:middle;fill:#ff4400"
         aria-label="IN">
        <path
           id="path105"
           style="font-weight:bold;font-size:2.37100005px;font-family:'Proxima Nova';dominant-baseline:alphabetic;text-anchor:middle;fill:#ff4400"
           d="m -1.0313295,0 h 0.33668206 V -1.581457 H -1.0313295 Z" />
        <path
           id="path107"
           style="font-weight:bold;font-size:2.37100005px;font-family:'Proxima Nova';dominant-baseline:alphabetic;text-anchor:middle;fill:#ff4400"
           d="M 0.70765089,0 H 1.0324779 V -1.581457 H 0.69579589 v 0.99344899 L -0.03684313,-1.581457 h -0.346166 V 0 h 0.336682 v -1.031385 z" />
      </g>
    </g>
    <path
       id="rect38"
       d="m 5.96,104.22 h 8.4 c 0.554,0 1,0.446 1,1 v 10.98 c 0,0.554 -0.446,1 -1,1 h -8.4 c -0.554,0 -1,-0.446 -1,-1 v -10.98 c 0,-0.554 0.446,-1 1,-1 z"
       style="fill:#ff4400;stroke:#ff4400;stroke-width:0.34999999" />
    <g
       id="g42"
       transform="translate(10.16,106.8)">
      <g
         id="text40"
         style="font-weight:bold;font-size:2.37100005px;font-family:'Proxima Nova';dominant-baseline:alphabetic;text-anchor:middle;fill:#fff4f0"
         aria-label="OUT">
        <path
           id="path111"
           style="font-weight:bold;font-size:2.37100005px;font-family:'Proxima Nova';dominant-baseline:alphabetic;text-anchor:middle;fill:#fff4f0"
           d="m -2.3853187,-0.78954302 c 0,0.47657101 0.348537,0.81799502 0.825108,0.81799502 0.4789421,0 0.82747907,-0.34142401 0.82747907,-0.81799502 0,-0.47657098 -0.34853697,-0.81799498 -0.82747907,-0.81799498 -0.476571,0 -0.825108,0.341424 -0.825108,0.81799498 z m 1.3064211,0 c 0,0.29400401 -0.18968,0.51924901 -0.4813131,0.51924901 -0.291633,0 -0.478942,-0.225245 -0.478942,-0.51924901 0,-0.29637498 0.187309,-0.51924898 0.478942,-0.51924898 0.2916331,0 0.4813131,0.222874 0.4813131,0.51924898 z" />
        <path
           id="path113"
           style="font-weight:bold;font-size:2.37100005px;font-family:'Proxima Nova';dominant-baseline:alphabetic;text-anchor:middle;fill:#fff4f0"
           d="m -0.49414978,-0.63068601 c 0,0.388844 0.23235801,0.65913801 0.71367102,0.65913801 0.48131301,0 0.71367101,-0.26792301 0.71367101,-0.66150901 V -1.581457 H 0.58939724 v 0.93891599 c 0,0.220503 -0.125663,0.372247 -0.369876,0.372247 -0.24421301,0 -0.37224701,-0.151744 -0.37224701,-0.372247 V -1.581457 h -0.34142401 z" />
        <path
           id="path115"
           style="font-weight:bold;font-size:2.37100005px;font-family:'Proxima Nova';dominant-baseline:alphabetic;text-anchor:middle;fill:#fff4f0"
           d="m 1.6075565,0 h 0.339053 v -1.285082 h 0.459974 v -0.296375 h -1.261372 v 0.296375 h 0.462345 z" />
      </g>
    </g>
    <g
       id="g46"
       transform="translate(10.16,106.8)">
      <g
         id="text44"
         style="font-weight:bold;font-size:2.37100005px;font-family:'Proxima Nova';dominant-baseline:alphabetic;text-anchor:middle;fill:#fff4f0"
         aria-label="OUT">
        <path
           id="path118"
           style="font-weight:bold;font-size:2.37100005px;font-family:'Proxima Nova';dominant-baseline:alphabetic;text-anchor:middle;fill:#fff4f0"
           d="m -2.3853187,-0.78954302 c 0,0.47657101 0.348537,0.81799502 0.825108,0.81799502 0.4789421,0 0.82747907,-0.34142401 0.82747907,-0.81799502 0,-0.47657098 -0.34853697,-0.81799498 -0.82747907,-0.81799498 -0.476571,0 -0.825108,0.341424 -0.825108,0.81799498 z m 1.3064211,0 c 0,0.29400401 -0.18968,0.51924901 -0.4813131,0.51924901 -0.291633,0 -0.478942,-0.225245 -0.478942,-0.51924901 0,-0.29637498 0.187309,-0.51924898 0.478942,-0.51924898 0.2916331,0 0.4813131,0.222874 0.4813131,0.51924898 z" />
        <path
           id="path120"
           style="font-weight:bold;font-size:2.37100005px;font-family:'Proxima Nova';dominant-baseline:alphabetic;text-anchor:middle;fill:#fff4f0"
           d="m -0.49414978,-0.63068601 c 0,0.388844 0.23235801,0.65913801 0.71367102,0.65913801 0.48131301,0 0.71367101,-0.26792301 0.71367101,-0.66150901 V -1.581457 H 0.58939724 v 0.93891599 c 0,0.220503 -0.125663,0.372247 -0.369876,0.372247 -0.24421301,0 -0.37224701,-0.151744 -0.37224701,-0.372247 V -1.581457 h -0.34142401 z" />
        <path
           id="path122"
           style="font-weight:bold;font-size:2.37100005px;font-family:'Proxima Nova';dominant-baseline:alphabetic;text-anchor:middle;fill:#fff4f0"
           d="m 1.6075565,0 h 0.339053 v -1.285082 h 0.459974 v -0.296375 h -1.261372 v 0.296375 h 0.462345 z" />
      </g>
    </g>
  </g>
</svg>
