<?xml version="1.0" encoding="UTF-8" standalone="no"?>
<svg xmlns="http://www.w3.org/2000/svg" xmlns:svg="http://www.w3.org/2000/svg" version="1.1" viewBox="0 0 20.32 128.5" height="128.5mm" width="20.32mm">
  <defs/>
  <g>
    <rect x="0.25" y="0.25" width="19.82" height="128" fill="#fff4f0" stroke="#ff4400" stroke-width="0.5"/>
    <g style="font-weight:bold;font-size:4.064px;font-family:'Proxima Nova';dominant-baseline:alphabetic;text-anchor:middle;fill:#ff4400">
      <path d="m 3.3793109,8.617984 c 0.256032,0.256032 0.62992,0.430784 1.150112,0.430784 0.73152,0 1.0850881,-0.373888 1.0850881,-0.869696 0,-0.601472 -0.5689601,-0.735584 -1.0160001,-0.8371841 -0.312928,-0.073152 -0.540512,-0.130048 -0.540512,-0.312928 0,-0.16256 0.138176,-0.276352 0.398272,-0.276352 0.26416,0 0.556768,0.093472 0.776224,0.296672 L 5.553551,6.6266239 C 5.2853269,6.3787199 4.9276949,6.2486719 4.4969109,6.2486719 c -0.638048,0 -1.028192,0.36576 -1.028192,0.816864 0,0.6055361 0.56896,0.7274561 1.011936,0.8290561 0.312928,0.073152 0.54864,0.14224 0.54864,0.34544 0,0.154432 -0.154432,0.3048 -0.471424,0.3048 -0.373888,0 -0.67056,-0.166624 -0.861568,-0.36576 z" style="font-weight:bold;font-size:4.064px;font-family:'Proxima Nova';dominant-baseline:alphabetic;text-anchor:middle;fill:#ff4400"/>
      <path d="m 8.0757076,9 h 0.613664 l 0.77216,-2.7106881 h -0.65024 L 8.3398676,8.24816 7.8278036,6.2893119 H 7.3766996 L 6.8605716,8.24816 6.3850835,6.2893119 H 5.7389075 L 6.5151315,9 h 0.6136641 l 0.471424,-1.8613121 z" style="font-weight:bold;font-size:4.064px;font-family:'Proxima Nova';dominant-baseline:alphabetic;text-anchor:middle;fill:#ff4400"/>
      <path d="m 11.449018,9 h 0.62992 L 11.03449,6.2893119 H 10.311098 L 9.2625861,9 h 0.633984 L 10.067258,8.53264 H 11.27833 Z M 10.672794,6.7891839 11.119834,8.032768 H 10.22169 Z" style="font-weight:bold;font-size:4.064px;font-family:'Proxima Nova';dominant-baseline:alphabetic;text-anchor:middle;fill:#ff4400"/>
      <path d="m 12.898723,9 h 0.723392 L 14.666563,6.2893119 H 14.008195 L 13.260419,8.374144 12.508579,6.2893119 h -0.658368 z" style="font-weight:bold;font-size:4.064px;font-family:'Proxima Nova';dominant-baseline:alphabetic;text-anchor:middle;fill:#ff4400"/>
      <path d="m 14.91688,9 h 1.918208 V 8.500128 h -1.34112 V 7.870208 H 16.80664 V 7.3743999 h -1.312672 v -0.58928 h 1.34112 V 6.2893119 H 14.91688 Z" style="font-weight:bold;font-size:4.064px;font-family:'Proxima Nova';dominant-baseline:alphabetic;text-anchor:middle;fill:#ff4400"/>
    </g>
    <g style="font-weight:bold;font-size:4.064px;font-family:'Proxima Nova';dominant-baseline:hanging;text-anchor:middle;fill:#ff4400">
      <path d="m 6.296755,122.2581 h 1.068832 c 0.849376,0 1.4386561,-0.53645 1.4386561,-1.35331 0,-0.81687 -0.5892801,-1.35738 -1.4386561,-1.35738 H 6.296755 Z m 0.577088,-0.508 v -1.69469 h 0.491744 c 0.556768,0 0.849376,0.36983 0.849376,0.84938 0,0.45923 -0.312928,0.84531 -0.849376,0.84531 z" style="font-weight:bold;font-size:4.064px;font-family:'Proxima Nova';dominant-baseline:hanging;text-anchor:middle;fill:#ff4400"/>
      <path d="m 11.075003,122.2581 h 0.581152 v -2.71069 h -0.581152 v 1.06477 h -1.28016 v -1.06477 H 9.217755 v 2.71069 h 0.577088 v -1.13792 h 1.28016 z" style="font-weight:bold;font-size:4.064px;font-family:'Proxima Nova';dominant-baseline:hanging;text-anchor:middle;fill:#ff4400"/>
      <path d="m 12.18638,122.2581 h 1.918208 v -0.49987 h -1.34112 v -0.62992 h 1.312672 v -0.49581 h -1.312672 v -0.58928 h 1.34112 v -0.49581 H 12.18638 Z" style="font-weight:bold;font-size:4.064px;font-family:'Proxima Nova';dominant-baseline:hanging;text-anchor:middle;fill:#ff4400"/>
    </g>
    <g style="font-weight:bold;font-size:2.37067px;font-family:'Proxima Nova';dominant-baseline:hanging;text-anchor:middle;fill:#ff4400">
      <path d="m 4.517763,30.483248 c 0.113792,0.111421 0.263144,0.154093 0.4243493,0.154093 0.3247814,0 0.5571067,-0.173058 0.5571067,-0.547624 V 29.027659 H 5.1625843 v 1.057317 c 0,0.154093 -0.097197,0.253661 -0.2465493,0.253661 -0.1090507,0 -0.1896534,-0.05452 -0.2512907,-0.113792 z" style="font-weight:bold;font-size:2.37067px;font-family:'Proxima Nova';dominant-baseline:hanging;text-anchor:middle;fill:#ff4400"/>
    </g>
    <g style="font-weight:bold;font-size:2.37067px;font-family:'Proxima Nova';dominant-baseline:alphabetic;text-anchor:middle;fill:#ff4400">
      <path d="m 4.4166763,20.777157 c 0.149352,0.149352 0.3674533,0.251291 0.6708986,0.251291 0.4267201,0 0.6329681,-0.218101 0.6329681,-0.507323 0,-0.350858 -0.3318934,-0.42909 -0.5926667,-0.488357 -0.1825414,-0.04267 -0.3152987,-0.07586 -0.3152987,-0.182541 0,-0.09483 0.080603,-0.161206 0.2323253,-0.161206 0.1540934,0 0.3247814,0.05453 0.4527974,0.173059 L 5.684983,19.615531 C 5.528519,19.47092 5.3199003,19.395059 5.0686096,19.395059 c -0.3721947,0 -0.5997787,0.21336 -0.5997787,0.476504 0,0.353229 0.3318934,0.424349 0.590296,0.483616 0.1825414,0.04267 0.3200401,0.08297 0.3200401,0.201506 0,0.09009 -0.090085,0.1778 -0.2749974,0.1778 -0.2181013,0 -0.39116,-0.0972 -0.5025813,-0.21336 z" style="font-weight:bold;font-size:2.37067px;font-family:'Proxima Nova';dominant-baseline:alphabetic;text-anchor:middle;fill:#ff4400"/>
    </g>
    <g style="font-weight:bold;font-size:2.37067px;font-family:'Proxima Nova';dominant-baseline:hanging;text-anchor:middle;fill:#ff4400">
      <path d="m 14.287529,30.608893 h 0.858181 c 0.301075,0 0.45991,-0.189653 0.45991,-0.42672 0,-0.199136 -0.135128,-0.362712 -0.303446,-0.388789 0.149352,-0.03082 0.272627,-0.163576 0.272627,-0.362712 0,-0.210989 -0.154093,-0.403013 -0.455168,-0.403013 h -0.832104 z m 0.336635,-0.945896 v -0.348488 h 0.421978 c 0.113792,0 0.184912,0.07586 0.184912,0.173059 0,0.101939 -0.07112,0.175429 -0.184912,0.175429 z m 0,0.659046 v -0.372195 h 0.433832 c 0.132757,0 0.203877,0.08534 0.203877,0.184912 0,0.113792 -0.07586,0.187283 -0.203877,0.187283 z" style="font-weight:bold;font-size:2.37067px;font-family:'Proxima Nova';dominant-baseline:hanging;text-anchor:middle;fill:#ff4400"/>
      <path d="m 15.857169,30.608893 h 0.336635 v -1.581234 h -0.336635 z" style="font-weight:bold;font-size:2.37067px;font-family:'Proxima Nova';dominant-baseline:hanging;text-anchor:middle;fill:#ff4400"/>
    </g>
    <g style="font-weight:bold;font-size:2.37067px;font-family:'Proxima Nova';dominant-baseline:alphabetic;text-anchor:middle;fill:#ff4400">
      <path d="m 13.345281,20.369403 c 0,0.388789 0.225214,0.659045 0.70883,0.659045 0.478874,0 0.704088,-0.267885 0.704088,-0.661416 v -0.948267 h -0.341376 v 0.938784 c 0,0.220472 -0.120904,0.372195 -0.362712,0.372195 -0.24655,0 -0.367454,-0.151723 -0.367454,-0.372195 v -0.938784 h -0.341376 z" style="font-weight:bold;font-size:2.37067px;font-family:'Proxima Nova';dominant-baseline:alphabetic;text-anchor:middle;fill:#ff4400"/>
      <path d="m 16.162856,21 h 0.324781 v -1.581235 h -0.336635 v 1.024128 L 15.418466,19.418765 H 15.072349 V 21 h 0.336635 v -1.062059 z" style="font-weight:bold;font-size:2.37067px;font-family:'Proxima Nova';dominant-baseline:alphabetic;text-anchor:middle;fill:#ff4400"/>
      <path d="m 16.799417,21 h 0.336635 v -1.581235 h -0.336635 z" style="font-weight:bold;font-size:2.37067px;font-family:'Proxima Nova';dominant-baseline:alphabetic;text-anchor:middle;fill:#ff4400"/>
    </g>
    <g style="font-weight:bold;font-size:3.048px;font-family:'Proxima Nova';dominant-baseline:alphabetic;text-anchor:middle;fill:#ff4400">
      <path d="m 6.2762286,36.186578 c 0.463296,0 0.719328,-0.246888 0.865632,-0.499872 l -0.371856,-0.179832 c -0.085344,0.16764 -0.268224,0.295656 -0.493776,0.295656 -0.353568,0 -0.621792,-0.283464 -0.621792,-0.667513 0,-0.384048 0.268224,-0.667512 0.621792,-0.667512 0.225552,0 0.408432,0.131064 0.493776,0.295656 l 0.371856,-0.18288 c -0.143256,-0.252984 -0.402336,-0.496824 -0.865632,-0.496824 -0.59436,0 -1.0668,0.42672 -1.0668,1.05156 0,0.624841 0.47244,1.051561 1.0668,1.051561 z" style="font-weight:bold;font-size:3.048px;font-family:'Proxima Nova';dominant-baseline:alphabetic;text-anchor:middle;fill:#ff4400"/>
      <path d="m 7.4024646,35.339234 c 0,0.499872 0.28956,0.847344 0.911352,0.847344 0.615696,0 0.905256,-0.344424 0.905256,-0.850393 v -1.2192 h -0.438912 v 1.207008 c 0,0.283465 -0.155448,0.478537 -0.466344,0.478537 -0.316992,0 -0.47244,-0.195072 -0.47244,-0.478537 v -1.207008 h -0.438912 z" style="font-weight:bold;font-size:3.048px;font-family:'Proxima Nova';dominant-baseline:alphabetic;text-anchor:middle;fill:#ff4400"/>
      <path d="M 10.772076,36.150002 H 11.2689 L 10.8117,35.37581 c 0.219456,-0.05182 0.445008,-0.243841 0.445008,-0.603505 0,-0.377952 -0.25908,-0.65532 -0.682752,-0.65532 H 9.6229803 v 2.033017 H 10.055796 V 35.42153 h 0.316992 z m 0.04267,-1.380745 c 0,0.170688 -0.131064,0.280416 -0.3048,0.280416 h -0.454152 v -0.560832 h 0.454152 c 0.173736,0 0.3048,0.109728 0.3048,0.280416 z" style="font-weight:bold;font-size:3.048px;font-family:'Proxima Nova';dominant-baseline:alphabetic;text-anchor:middle;fill:#ff4400"/>
      <path d="m 12.121769,36.150002 h 0.542544 l 0.783336,-2.033017 h -0.493776 l -0.560832,1.563625 -0.56388,-1.563625 h -0.493776 z" style="font-weight:bold;font-size:3.048px;font-family:'Proxima Nova';dominant-baseline:alphabetic;text-anchor:middle;fill:#ff4400"/>
      <path d="m 13.635387,36.150002 h 1.438656 v -0.374904 h -1.00584 v -0.472441 h 0.984504 v -0.371856 h -0.984504 v -0.44196 h 1.00584 v -0.371856 h -1.438656 z" style="font-weight:bold;font-size:3.048px;font-family:'Proxima Nova';dominant-baseline:alphabetic;text-anchor:middle;fill:#ff4400"/>
    </g>
    <g style="font-weight:bold;font-size:2.37067px;font-family:'Proxima Nova';dominant-baseline:alphabetic;text-anchor:middle;fill:#ff4400">
      <path d="m 5.1297632,56.828447 c 0.3603414,0 0.5594774,-0.192024 0.6732694,-0.388789 L 5.5138112,56.299789 c -0.066379,0.130386 -0.2086186,0.229954 -0.384048,0.229954 -0.2749973,0 -0.483616,-0.220472 -0.483616,-0.519176 0,-0.298704 0.2086187,-0.519176 0.483616,-0.519176 0.1754294,0 0.3176694,0.101939 0.384048,0.229955 l 0.2892214,-0.14224 c -0.1114214,-0.196765 -0.312928,-0.386419 -0.6732694,-0.386419 -0.46228,0 -0.8297333,0.331894 -0.8297333,0.81788 0,0.485987 0.3674533,0.81788 0.8297333,0.81788 z" style="font-weight:bold;font-size:2.37067px;font-family:'Proxima Nova';dominant-baseline:alphabetic;text-anchor:middle;fill:#ff4400"/>
      <path d="M 6.4397788,56.799999 H 6.8617575 L 7.4710188,55.218765 H 7.0869708 L 6.6507681,56.434917 6.2121948,55.218765 h -0.384048 z" style="font-weight:bold;font-size:2.37067px;font-family:'Proxima Nova';dominant-baseline:alphabetic;text-anchor:middle;fill:#ff4400"/>
    </g>
    <g style="font-weight:bold;font-size:3.048px;font-family:'Proxima Nova';dominant-baseline:alphabetic;text-anchor:middle;fill:#ff4400">
      <path d="m 13.283096,56.926976 h 0.731521 v -0.329184 h -0.731521 z" style="font-weight:bold;font-size:3.048px;font-family:'Proxima Nova';dominant-baseline:alphabetic;text-anchor:middle;fill:#ff4400"/>
      <path d="m 16.534646,56.591696 h 0.545592 v -0.240792 h -0.545592 v -0.59436 H 16.26947 v 0.59436 h -0.54864 v 0.240792 h 0.54864 v 0.618744 h 0.265176 z" style="font-weight:bold;font-size:3.048px;font-family:'Proxima Nova';dominant-baseline:alphabetic;text-anchor:middle;fill:#ff4400"/>
    </g>
    <rect x="4.96" y="82.219559" width="10.4" height="12.980445" rx="1" ry="1" fill="#fff4f0" stroke="#ff4400" stroke-width="0.35"/>
    <g style="font-weight:bold;font-size:2.37067px;font-family:'Proxima Nova';dominant-baseline:alphabetic;text-anchor:middle;fill:#ff4400">
      <path d="M 9.1288154,84.800003 H 9.4654501 V 83.218768 H 9.1288154 Z" style="font-weight:bold;font-size:2.37067px;font-family:'Proxima Nova';dominant-baseline:alphabetic;text-anchor:middle;fill:#ff4400"/>
      <path d="m 10.867551,84.800003 h 0.324782 v -1.581235 h -0.336635 v 1.024128 L 10.123162,83.218768 H 9.7770446 v 1.581235 h 0.3366344 v -1.062059 z" style="font-weight:bold;font-size:2.37067px;font-family:'Proxima Nova';dominant-baseline:alphabetic;text-anchor:middle;fill:#ff4400"/>
    </g>
    <rect x="4.96" y="97.219559" width="10.4" height="12.980445" rx="1" ry="1" fill="#ff4400" stroke="#ff4400" stroke-width="0.35"/>
    <g style="font-weight:bold;font-size:2.37067px;font-family:'Proxima Nova';dominant-baseline:alphabetic;text-anchor:middle;fill:#fff4f0">
      <path d="m 7.7796467,99.010571 c 0,0.476504 0.348488,0.81788 0.824992,0.81788 0.4788747,0 0.8273627,-0.341376 0.8273627,-0.81788 0,-0.476504 -0.348488,-0.81788 -0.8273627,-0.81788 -0.476504,0 -0.824992,0.341376 -0.824992,0.81788 z m 1.3062374,0 c 0,0.293963 -0.1896534,0.519176 -0.4812454,0.519176 -0.291592,0 -0.4788746,-0.225213 -0.4788746,-0.519176 0,-0.296333 0.1872826,-0.519176 0.4788746,-0.519176 0.291592,0 0.4812454,0.222843 0.4812454,0.519176 z" style="font-weight:bold;font-size:2.37067px;font-family:'Proxima Nova';dominant-baseline:alphabetic;text-anchor:middle;fill:#fff4f0"/>
      <path d="m 9.6705498,99.169406 c 0,0.388789 0.2252134,0.659045 0.7088292,0.659045 0.478875,0 0.704088,-0.267885 0.704088,-0.661416 v -0.948267 h -0.341376 v 0.938784 c 0,0.220472 -0.120904,0.372195 -0.362712,0.372195 -0.246549,0 -0.367453,-0.151723 -0.367453,-0.372195 V 98.218768 H 9.6705498 Z" style="font-weight:bold;font-size:2.37067px;font-family:'Proxima Nova';dominant-baseline:alphabetic;text-anchor:middle;fill:#fff4f0"/>
      <path d="m 11.7627,99.800003 h 0.339006 v -1.284901 h 0.459909 V 98.218768 H 11.30042 v 0.296334 h 0.46228 z" style="font-weight:bold;font-size:2.37067px;font-family:'Proxima Nova';dominant-baseline:alphabetic;text-anchor:middle;fill:#fff4f0"/>
    </g>
  </g>
</svg>
