<?xml version="1.0" encoding="UTF-8" standalone="no"?>
<svg xmlns="http://www.w3.org/2000/svg" xmlns:svg="http://www.w3.org/2000/svg" version="1.1" viewBox="0 0 81.28 128.5" height="128.5mm" width="81.279999mm">
  <defs/>
  <g>
    <rect x="0.25" y="0.25" width="80.779999" height="128" fill="#f0f0ff" stroke="#000099" stroke-width="0.5"/>
    <g style="font-weight:bold;font-size:4.064px;font-family:'Proxima Nova';dominant-baseline:alphabetic;text-anchor:middle;fill:#000099">
      <path d="m 33.163985,9 h 0.581152 V 6.7973119 h 0.788416 v -0.508 h -2.162048 v 0.508 h 0.79248 z" style="font-weight:bold;font-size:4.064px;font-family:'Proxima Nova';dominant-baseline:alphabetic;text-anchor:middle;fill:#000099"/>
      <path d="m 36.435632,9 h 0.662432 l -0.6096,-1.032256 c 0.292608,-0.069088 0.593344,-0.32512 0.593344,-0.8046721 0,-0.503936 -0.34544,-0.87376 -0.910336,-0.87376 H 34.903504 V 9 h 0.577088 V 8.028704 h 0.422656 z m 0.0569,-1.8409921 c 0,0.227584 -0.174752,0.3738881 -0.4064,0.3738881 h -0.60554 V 6.7851199 h 0.605536 c 0.231648,0 0.4064,0.146304 0.4064,0.373888 z" style="font-weight:bold;font-size:4.064px;font-family:'Proxima Nova';dominant-baseline:alphabetic;text-anchor:middle;fill:#000099"/>
      <path d="m 37.514942,7.918976 c 0,0.666496 0.38608,1.129792 1.215136,1.129792 0.820928,0 1.207008,-0.459232 1.207008,-1.133856 V 6.2893119 H 39.35187 V 7.898656 c 0,0.377952 -0.207264,0.638048 -0.621792,0.638048 -0.422656,0 -0.62992,-0.260096 -0.62992,-0.638048 V 6.2893119 h -0.585216 z" style="font-weight:bold;font-size:4.064px;font-family:'Proxima Nova';dominant-baseline:alphabetic;text-anchor:middle;fill:#000099"/>
      <path d="m 41.101485,9 h 0.581152 V 6.7973119 h 0.788416 v -0.508 h -2.162048 v 0.508 h 0.79248 z" style="font-weight:bold;font-size:4.064px;font-family:'Proxima Nova';dominant-baseline:alphabetic;text-anchor:middle;fill:#000099"/>
      <path d="m 44.698253,9 h 0.581152 V 6.2893119 h -0.581152 v 1.064768 h -1.28016 V 6.2893119 H 42.841005 V 9 h 0.577088 V 7.86208 h 1.28016 z" style="font-weight:bold;font-size:4.064px;font-family:'Proxima Nova';dominant-baseline:alphabetic;text-anchor:middle;fill:#000099"/>
      <path d="m 47.979234,9 h 0.577088 V 8.439168 h 0.349504 v -0.508 H 48.556322 V 6.2893119 H 47.759778 L 46.682818,7.984 v 0.455168 h 1.296416 z m 0,-2.1986241 V 7.931168 h -0.73152 z" style="font-weight:bold;font-size:4.064px;font-family:'Proxima Nova';dominant-baseline:alphabetic;text-anchor:middle;fill:#000099"/>
    </g>
    <g style="font-weight:bold;font-size:4.064px;font-family:'Proxima Nova';dominant-baseline:hanging;text-anchor:middle;fill:#000099">
      <path d="m 36.776755,122.2581 h 1.068832 c 0.849376,0 1.438656,-0.53645 1.438656,-1.35331 0,-0.81687 -0.58928,-1.35738 -1.438656,-1.35738 h -1.068832 z m 0.577088,-0.508 v -1.69469 h 0.491744 c 0.556768,0 0.849376,0.36983 0.849376,0.84938 0,0.45923 -0.312928,0.84531 -0.849376,0.84531 z" style="font-weight:bold;font-size:4.064px;font-family:'Proxima Nova';dominant-baseline:hanging;text-anchor:middle;fill:#000099"/>
      <path d="m 41.555003,122.2581 h 0.581152 v -2.71069 h -0.581152 v 1.06477 h -1.28016 v -1.06477 h -0.577088 v 2.71069 h 0.577088 v -1.13792 h 1.28016 z" style="font-weight:bold;font-size:4.064px;font-family:'Proxima Nova';dominant-baseline:hanging;text-anchor:middle;fill:#000099"/>
      <path d="m 42.66638,122.2581 h 1.918208 v -0.49987 h -1.34112 v -0.62992 h 1.312672 v -0.49581 h -1.312672 v -0.58928 h 1.34112 v -0.49581 H 42.66638 Z" style="font-weight:bold;font-size:4.064px;font-family:'Proxima Nova';dominant-baseline:hanging;text-anchor:middle;fill:#000099"/>
    </g>
    <rect x="4.96" y="21.128" width="17.4" height="13.432" rx="1" ry="1" fill="#f0f0ff" stroke="#000099" stroke-width="0.35"/>
    <g style="font-weight:bold;font-size:3.048px;font-family:'Proxima Nova';dominant-baseline:alphabetic;text-anchor:middle;fill:#000099">
      <path d="m 10.742787,24.16 h 0.47244 L 10.431891,22.126984 H 9.889347 L 9.1029629,24.16 H 9.578451 l 0.128016,-0.35052 h 0.908304 z m -0.582168,-1.658112 0.33528,0.932688 H 9.822291 Z" style="font-weight:bold;font-size:3.048px;font-family:'Proxima Nova';dominant-baseline:alphabetic;text-anchor:middle;fill:#000099"/>
    </g>
    <rect x="4.96" y="35.713001" width="17.4" height="13.432" rx="1" ry="1" fill="#f0f0ff" stroke="#000099" stroke-width="0.35"/>
    <g style="font-weight:bold;font-size:3.048px;font-family:'Proxima Nova';dominant-baseline:alphabetic;text-anchor:middle;fill:#000099">
      <path d="m 9.3521131,38.744999 h 1.1033759 c 0.387096,0 0.591312,-0.24384 0.591312,-0.54864 0,-0.256032 -0.173736,-0.466344 -0.390144,-0.499872 0.192024,-0.03962 0.35052,-0.210312 0.35052,-0.466344 0,-0.271272 -0.19812,-0.51816 -0.585216,-0.51816 H 9.3521131 Z m 0.432816,-1.216152 v -0.448056 h 0.5425439 c 0.146304,0 0.237744,0.09754 0.237744,0.222504 0,0.131064 -0.09144,0.225552 -0.237744,0.225552 z m 0,0.847344 v -0.478536 h 0.5577839 c 0.170688,0 0.262128,0.109728 0.262128,0.237744 0,0.146304 -0.09754,0.240792 -0.262128,0.240792 z" style="font-weight:bold;font-size:3.048px;font-family:'Proxima Nova';dominant-baseline:alphabetic;text-anchor:middle;fill:#000099"/>
    </g>
    <rect x="4.96" y="50.298" width="17.4" height="13.432" rx="1" ry="1" fill="#f0f0ff" stroke="#000099" stroke-width="0.35"/>
    <g style="font-weight:bold;font-size:3.048px;font-family:'Proxima Nova';dominant-baseline:alphabetic;text-anchor:middle;fill:#000099">
      <path d="m 10.282682,53.366578 c 0.463296,0 0.719328,-0.246888 0.865632,-0.499872 l -0.371856,-0.179832 c -0.08534,0.16764 -0.268224,0.295656 -0.493776,0.295656 -0.3535682,0 -0.6217922,-0.283464 -0.6217922,-0.667512 0,-0.384048 0.268224,-0.667512 0.6217922,-0.667512 0.225552,0 0.408432,0.131064 0.493776,0.295656 l 0.371856,-0.18288 c -0.143256,-0.252984 -0.402336,-0.496824 -0.865632,-0.496824 -0.5943602,0 -1.0668002,0.42672 -1.0668002,1.05156 0,0.62484 0.47244,1.05156 1.0668002,1.05156 z" style="font-weight:bold;font-size:3.048px;font-family:'Proxima Nova';dominant-baseline:alphabetic;text-anchor:middle;fill:#000099"/>
    </g>
    <rect x="4.96" y="64.883003" width="17.4" height="13.432" rx="1" ry="1" fill="#f0f0ff" stroke="#000099" stroke-width="0.35"/>
    <g style="font-weight:bold;font-size:3.048px;font-family:'Proxima Nova';dominant-baseline:alphabetic;text-anchor:middle;fill:#000099">
      <path d="m 6.5184256,67.915001 h 0.8016241 c 0.637032,0 1.078992,-0.402336 1.078992,-1.014984 0,-0.612648 -0.44196,-1.018032 -1.078992,-1.018032 H 6.5184256 Z m 0.4328161,-0.381 v -1.271016 h 0.368808 c 0.417576,0 0.637032,0.277368 0.637032,0.637032 0,0.344424 -0.234696,0.633984 -0.637032,0.633984 z" style="font-weight:bold;font-size:3.048px;font-family:'Proxima Nova';dominant-baseline:alphabetic;text-anchor:middle;fill:#000099"/>
      <path d="m 8.5080078,67.975961 h 0.280416 l 0.722376,-2.154936 h -0.280416 z" style="font-weight:bold;font-size:3.048px;font-family:'Proxima Nova';dominant-baseline:alphabetic;text-anchor:middle;fill:#000099"/>
      <path d="m 9.6117647,66.900017 c 0,0.64008 0.4876803,1.054608 1.0820403,1.054608 0.368808,0 0.658368,-0.1524 0.865632,-0.384048 v -0.77724 h -0.969264 v 0.371856 h 0.542544 v 0.246888 c -0.08839,0.07925 -0.252984,0.155448 -0.438912,0.155448 -0.368808,0 -0.637032,-0.283464 -0.637032,-0.667512 0,-0.384048 0.268224,-0.667512 0.637032,-0.667512 0.21336,0 0.387096,0.112776 0.481584,0.256032 l 0.359664,-0.195072 c -0.155448,-0.240792 -0.420624,-0.445008 -0.841248,-0.445008 -0.59436,0 -1.0820403,0.408432 -1.0820403,1.05156 z" style="font-weight:bold;font-size:3.048px;font-family:'Proxima Nova';dominant-baseline:alphabetic;text-anchor:middle;fill:#000099"/>
      <path d="m 13.305608,67.915001 h 0.47244 l -0.783336,-2.033016 h -0.542544 l -0.786384,2.033016 h 0.475488 l 0.128016,-0.35052 h 0.908304 z m -0.582168,-1.658112 0.33528,0.932688 h -0.673608 z" style="font-weight:bold;font-size:3.048px;font-family:'Proxima Nova';dominant-baseline:alphabetic;text-anchor:middle;fill:#000099"/>
      <path d="m 14.238724,67.915001 h 0.435864 V 66.262985 H 15.2659 v -0.381 h -1.621536 v 0.381 h 0.59436 z" style="font-weight:bold;font-size:3.048px;font-family:'Proxima Nova';dominant-baseline:alphabetic;text-anchor:middle;fill:#000099"/>
      <path d="m 15.543364,67.915001 h 1.438656 v -0.374904 h -1.00584 v -0.47244 h 0.984504 V 66.695801 H 15.97618 v -0.44196 h 1.00584 v -0.371856 h -1.438656 z" style="font-weight:bold;font-size:3.048px;font-family:'Proxima Nova';dominant-baseline:alphabetic;text-anchor:middle;fill:#000099"/>
    </g>
    <rect x="25.389999" y="26.200001" width="40.639999" height="81.279999" fill="#f0f0ff" stroke="#000099" stroke-width="0.35"/>
    <line x1="35.549999" y1="26.200001" x2="35.549999" y2="107.48" stroke="#000099" stroke-width="0.35"/>
    <line x1="45.709999" y1="26.200001" x2="45.709999" y2="107.48" stroke="#000099" stroke-width="0.35"/>
    <line x1="55.869999" y1="26.200001" x2="55.869999" y2="107.48" stroke="#000099" stroke-width="0.35"/>
    <line x1="25.389999" y1="31.280001" x2="66.029999" y2="31.280001" stroke="#000099" stroke-width="0.35"/>
    <line x1="25.389999" y1="36.360001" x2="66.029999" y2="36.360001" stroke="#000099" stroke-width="0.35"/>
    <line x1="25.389999" y1="41.439999" x2="66.029999" y2="41.439999" stroke="#000099" stroke-width="0.35"/>
    <line x1="25.389999" y1="46.52" x2="66.029999" y2="46.52" stroke="#000099" stroke-width="0.35"/>
    <line x1="25.389999" y1="51.599998" x2="66.029999" y2="51.599998" stroke="#000099" stroke-width="0.35"/>
    <line x1="25.389999" y1="56.68" x2="66.029999" y2="56.68" stroke="#000099" stroke-width="0.35"/>
    <line x1="25.389999" y1="61.759998" x2="66.029999" y2="61.759998" stroke="#000099" stroke-width="0.35"/>
    <line x1="25.389999" y1="66.839996" x2="66.029999" y2="66.839996" stroke="#000099" stroke-width="0.35"/>
    <line x1="25.389999" y1="71.919998" x2="66.029999" y2="71.919998" stroke="#000099" stroke-width="0.35"/>
    <line x1="25.389999" y1="77" x2="66.029999" y2="77" stroke="#000099" stroke-width="0.35"/>
    <line x1="25.389999" y1="82.080002" x2="66.029999" y2="82.080002" stroke="#000099" stroke-width="0.35"/>
    <line x1="25.389999" y1="87.160004" x2="66.029999" y2="87.160004" stroke="#000099" stroke-width="0.35"/>
    <line x1="25.389999" y1="92.239998" x2="66.029999" y2="92.239998" stroke="#000099" stroke-width="0.35"/>
    <line x1="25.389999" y1="97.32" x2="66.029999" y2="97.32" stroke="#000099" stroke-width="0.35"/>
    <line x1="25.389999" y1="102.4" x2="66.029999" y2="102.4" stroke="#000099" stroke-width="0.35"/>
    <rect x="25.389999" y="21.120001" width="50.799999" height="5.0799999" fill="#000099" stroke="#000099" stroke-width="0.35"/>
    <g style="font-weight:bold;font-size:3.048px;font-family:'Proxima Nova';dominant-baseline:middle;text-anchor:middle;fill:#f0f0ff">
      <path d="m 31.052786,24.761853 h 0.47244 L 30.74189,22.728837 h -0.542544 l -0.786384,2.033016 h 0.475488 l 0.128016,-0.35052 h 0.908304 z m -0.582168,-1.658112 0.33528,0.932688 H 30.13229 Z" style="font-weight:bold;font-size:3.048px;font-family:'Proxima Nova';dominant-baseline:middle;text-anchor:middle;fill:#f0f0ff"/>
    </g>
    <g style="font-weight:bold;font-size:3.048px;font-family:'Proxima Nova';dominant-baseline:middle;text-anchor:middle;fill:#f0f0ff">
      <path d="m 39.822114,24.761853 h 1.103376 c 0.387096,0 0.591312,-0.24384 0.591312,-0.54864 0,-0.256032 -0.173736,-0.466344 -0.390144,-0.499872 0.192024,-0.03962 0.35052,-0.210312 0.35052,-0.466344 0,-0.271272 -0.19812,-0.51816 -0.585216,-0.51816 h -1.069848 z m 0.432816,-1.216152 v -0.448056 h 0.542544 c 0.146304,0 0.237744,0.09754 0.237744,0.222504 0,0.131064 -0.09144,0.225552 -0.237744,0.225552 z m 0,0.847344 v -0.478536 h 0.557784 c 0.170688,0 0.262128,0.109728 0.262128,0.237744 0,0.146304 -0.09754,0.240792 -0.262128,0.240792 z" style="font-weight:bold;font-size:3.048px;font-family:'Proxima Nova';dominant-baseline:middle;text-anchor:middle;fill:#f0f0ff"/>
    </g>
    <g style="font-weight:bold;font-size:3.048px;font-family:'Proxima Nova';dominant-baseline:middle;text-anchor:middle;fill:#f0f0ff">
      <path d="m 50.912683,24.798429 c 0.463296,0 0.719328,-0.246888 0.865632,-0.499872 l -0.371856,-0.179832 c -0.08534,0.16764 -0.268224,0.295656 -0.493776,0.295656 -0.353568,0 -0.621792,-0.283464 -0.621792,-0.667512 0,-0.384048 0.268224,-0.667512 0.621792,-0.667512 0.225552,0 0.408432,0.131064 0.493776,0.295656 l 0.371856,-0.18288 c -0.143256,-0.252984 -0.402336,-0.496824 -0.865632,-0.496824 -0.59436,0 -1.0668,0.42672 -1.0668,1.05156 0,0.62484 0.47244,1.05156 1.0668,1.05156 z" style="font-weight:bold;font-size:3.048px;font-family:'Proxima Nova';dominant-baseline:middle;text-anchor:middle;fill:#f0f0ff"/>
    </g>
    <g style="font-weight:bold;font-size:3.048px;font-family:'Proxima Nova';dominant-baseline:middle;text-anchor:middle;fill:#f0f0ff">
      <path d="m 72.171276,23.746869 c 0,-0.612648 -0.448056,-1.05156 -1.063752,-1.05156 -0.612648,0 -1.060704,0.438912 -1.060704,1.05156 0,0.612648 0.448056,1.05156 1.060704,1.05156 0.176784,0 0.341376,-0.03658 0.484632,-0.103632 L 71.7537,24.886821 72.055452,24.639933 71.9061,24.466197 c 0.16764,-0.18288 0.265176,-0.432816 0.265176,-0.719328 z m -1.063752,0.667512 c -0.374904,0 -0.615696,-0.28956 -0.615696,-0.667512 0,-0.381 0.240792,-0.667512 0.615696,-0.667512 0.374904,0 0.618744,0.286512 0.618744,0.667512 0,0.146304 -0.03658,0.280416 -0.103632,0.387096 l -0.231648,-0.271272 -0.301752,0.24384 0.231648,0.271272 c -0.06401,0.02438 -0.13716,0.03658 -0.21336,0.03658 z" style="font-weight:bold;font-size:3.048px;font-family:'Proxima Nova';dominant-baseline:middle;text-anchor:middle;fill:#f0f0ff"/>
    </g>
    <rect x="66.029999" y="26.200001" width="10.16" height="81.279999" fill="#000099" stroke="#000099" stroke-width="0.35"/>
    <g style="font-weight:bold;font-size:3.048px;font-family:'Proxima Nova';dominant-baseline:middle;text-anchor:middle;fill:#000099">
      <path d="m 60.282012,29.841853 h 0.432817 v -0.847344 h 0.984504 v -0.371856 h -0.984504 v -0.44196 h 1.00584 v -0.371856 h -1.438657 z" style="font-weight:bold;font-size:3.048px;font-family:'Proxima Nova';dominant-baseline:middle;text-anchor:middle;fill:#000099"/>
    </g>
    <g style="font-weight:bold;font-size:3.048px;font-family:'Proxima Nova';dominant-baseline:middle;text-anchor:middle;fill:#000099">
      <path d="m 50.122013,29.841853 h 0.432816 v -0.847344 h 0.984504 v -0.371856 h -0.984504 v -0.44196 h 1.00584 v -0.371856 h -1.438656 z" style="font-weight:bold;font-size:3.048px;font-family:'Proxima Nova';dominant-baseline:middle;text-anchor:middle;fill:#000099"/>
    </g>
    <g style="font-weight:bold;font-size:3.048px;font-family:'Proxima Nova';dominant-baseline:middle;text-anchor:middle;fill:#000099">
      <path d="m 39.962013,29.841853 h 0.432816 v -0.847344 h 0.984504 v -0.371856 h -0.984504 v -0.44196 h 1.00584 v -0.371856 h -1.438656 z" style="font-weight:bold;font-size:3.048px;font-family:'Proxima Nova';dominant-baseline:middle;text-anchor:middle;fill:#000099"/>
    </g>
    <g style="font-weight:bold;font-size:3.048px;font-family:'Proxima Nova';dominant-baseline:middle;text-anchor:middle;fill:#000099">
      <path d="m 29.802011,29.841853 h 0.432816 v -0.847344 h 0.984504 v -0.371856 h -0.984504 v -0.44196 h 1.00584 v -0.371856 h -1.438656 z" style="font-weight:bold;font-size:3.048px;font-family:'Proxima Nova';dominant-baseline:middle;text-anchor:middle;fill:#000099"/>
    </g>
    <g style="font-weight:bold;font-size:3.048px;font-family:'Proxima Nova';dominant-baseline:middle;text-anchor:middle;fill:#000099">
      <path d="m 60.733545,34.921853 h 0.435864 v -1.652017 h 0.591312 v -0.381 h -1.621536 v 0.381 h 0.59436 z" style="font-weight:bold;font-size:3.048px;font-family:'Proxima Nova';dominant-baseline:middle;text-anchor:middle;fill:#000099"/>
    </g>
    <g style="font-weight:bold;font-size:3.048px;font-family:'Proxima Nova';dominant-baseline:middle;text-anchor:middle;fill:#000099">
      <path d="m 50.122013,34.921853 h 0.432816 v -0.847344 h 0.984504 v -0.371857 h -0.984504 v -0.44196 h 1.00584 v -0.371856 h -1.438656 z" style="font-weight:bold;font-size:3.048px;font-family:'Proxima Nova';dominant-baseline:middle;text-anchor:middle;fill:#000099"/>
    </g>
    <g style="font-weight:bold;font-size:3.048px;font-family:'Proxima Nova';dominant-baseline:middle;text-anchor:middle;fill:#000099">
      <path d="m 39.962013,34.921853 h 0.432816 v -0.847344 h 0.984504 v -0.371857 h -0.984504 v -0.44196 h 1.00584 v -0.371856 h -1.438656 z" style="font-weight:bold;font-size:3.048px;font-family:'Proxima Nova';dominant-baseline:middle;text-anchor:middle;fill:#000099"/>
    </g>
    <g style="font-weight:bold;font-size:3.048px;font-family:'Proxima Nova';dominant-baseline:middle;text-anchor:middle;fill:#000099">
      <path d="m 29.802011,34.921853 h 0.432816 v -0.847344 h 0.984504 v -0.371857 h -0.984504 v -0.44196 h 1.00584 v -0.371856 h -1.438656 z" style="font-weight:bold;font-size:3.048px;font-family:'Proxima Nova';dominant-baseline:middle;text-anchor:middle;fill:#000099"/>
    </g>
    <g style="font-weight:bold;font-size:3.048px;font-family:'Proxima Nova';dominant-baseline:middle;text-anchor:middle;fill:#000099">
      <path d="m 60.282012,40.001851 h 0.432817 v -0.847344 h 0.984504 V 38.782651 H 60.714829 V 38.34069 h 1.00584 v -0.371856 h -1.438657 z" style="font-weight:bold;font-size:3.048px;font-family:'Proxima Nova';dominant-baseline:middle;text-anchor:middle;fill:#000099"/>
    </g>
    <g style="font-weight:bold;font-size:3.048px;font-family:'Proxima Nova';dominant-baseline:middle;text-anchor:middle;fill:#000099">
      <path d="m 50.573545,40.001851 h 0.435864 v -1.652017 h 0.591312 v -0.381 h -1.621536 v 0.381 h 0.59436 z" style="font-weight:bold;font-size:3.048px;font-family:'Proxima Nova';dominant-baseline:middle;text-anchor:middle;fill:#000099"/>
    </g>
    <g style="font-weight:bold;font-size:3.048px;font-family:'Proxima Nova';dominant-baseline:middle;text-anchor:middle;fill:#000099">
      <path d="m 39.962013,40.001851 h 0.432816 v -0.847344 h 0.984504 V 38.782651 H 40.394829 V 38.34069 h 1.00584 v -0.371856 h -1.438656 z" style="font-weight:bold;font-size:3.048px;font-family:'Proxima Nova';dominant-baseline:middle;text-anchor:middle;fill:#000099"/>
    </g>
    <g style="font-weight:bold;font-size:3.048px;font-family:'Proxima Nova';dominant-baseline:middle;text-anchor:middle;fill:#000099">
      <path d="m 29.802011,40.001851 h 0.432816 v -0.847344 h 0.984504 V 38.782651 H 30.234827 V 38.34069 h 1.00584 v -0.371856 h -1.438656 z" style="font-weight:bold;font-size:3.048px;font-family:'Proxima Nova';dominant-baseline:middle;text-anchor:middle;fill:#000099"/>
    </g>
    <g style="font-weight:bold;font-size:3.048px;font-family:'Proxima Nova';dominant-baseline:middle;text-anchor:middle;fill:#000099">
      <path d="m 60.733545,45.081852 h 0.435864 v -1.652016 h 0.591312 v -0.381 h -1.621536 v 0.381 h 0.59436 z" style="font-weight:bold;font-size:3.048px;font-family:'Proxima Nova';dominant-baseline:middle;text-anchor:middle;fill:#000099"/>
    </g>
    <g style="font-weight:bold;font-size:3.048px;font-family:'Proxima Nova';dominant-baseline:middle;text-anchor:middle;fill:#000099">
      <path d="m 50.573545,45.081852 h 0.435864 v -1.652016 h 0.591312 v -0.381 h -1.621536 v 0.381 h 0.59436 z" style="font-weight:bold;font-size:3.048px;font-family:'Proxima Nova';dominant-baseline:middle;text-anchor:middle;fill:#000099"/>
    </g>
    <g style="font-weight:bold;font-size:3.048px;font-family:'Proxima Nova';dominant-baseline:middle;text-anchor:middle;fill:#000099">
      <path d="m 39.962013,45.081852 h 0.432816 v -0.847344 h 0.984504 v -0.371856 h -0.984504 v -0.44196 h 1.00584 v -0.371856 h -1.438656 z" style="font-weight:bold;font-size:3.048px;font-family:'Proxima Nova';dominant-baseline:middle;text-anchor:middle;fill:#000099"/>
    </g>
    <g style="font-weight:bold;font-size:3.048px;font-family:'Proxima Nova';dominant-baseline:middle;text-anchor:middle;fill:#000099">
      <path d="m 29.802011,45.081852 h 0.432816 v -0.847344 h 0.984504 v -0.371856 h -0.984504 v -0.44196 h 1.00584 v -0.371856 h -1.438656 z" style="font-weight:bold;font-size:3.048px;font-family:'Proxima Nova';dominant-baseline:middle;text-anchor:middle;fill:#000099"/>
    </g>
    <g style="font-weight:bold;font-size:3.048px;font-family:'Proxima Nova';dominant-baseline:middle;text-anchor:middle;fill:#000099">
      <path d="m 60.282012,50.16185 h 0.432817 v -0.847344 h 0.984504 V 48.94265 h -0.984504 v -0.44196 h 1.00584 v -0.371856 h -1.438657 z" style="font-weight:bold;font-size:3.048px;font-family:'Proxima Nova';dominant-baseline:middle;text-anchor:middle;fill:#000099"/>
    </g>
    <g style="font-weight:bold;font-size:3.048px;font-family:'Proxima Nova';dominant-baseline:middle;text-anchor:middle;fill:#000099">
      <path d="m 50.122013,50.16185 h 0.432816 v -0.847344 h 0.984504 V 48.94265 h -0.984504 v -0.44196 h 1.00584 v -0.371856 h -1.438656 z" style="font-weight:bold;font-size:3.048px;font-family:'Proxima Nova';dominant-baseline:middle;text-anchor:middle;fill:#000099"/>
    </g>
    <g style="font-weight:bold;font-size:3.048px;font-family:'Proxima Nova';dominant-baseline:middle;text-anchor:middle;fill:#000099">
      <path d="m 40.413545,50.16185 h 0.435864 v -1.652016 h 0.591312 v -0.381 h -1.621536 v 0.381 h 0.59436 z" style="font-weight:bold;font-size:3.048px;font-family:'Proxima Nova';dominant-baseline:middle;text-anchor:middle;fill:#000099"/>
    </g>
    <g style="font-weight:bold;font-size:3.048px;font-family:'Proxima Nova';dominant-baseline:middle;text-anchor:middle;fill:#000099">
      <path d="m 29.802011,50.16185 h 0.432816 v -0.847344 h 0.984504 V 48.94265 h -0.984504 v -0.44196 h 1.00584 v -0.371856 h -1.438656 z" style="font-weight:bold;font-size:3.048px;font-family:'Proxima Nova';dominant-baseline:middle;text-anchor:middle;fill:#000099"/>
    </g>
    <g style="font-weight:bold;font-size:3.048px;font-family:'Proxima Nova';dominant-baseline:middle;text-anchor:middle;fill:#000099">
      <path d="m 60.733545,55.241852 h 0.435864 v -1.652016 h 0.591312 v -0.381 h -1.621536 v 0.381 h 0.59436 z" style="font-weight:bold;font-size:3.048px;font-family:'Proxima Nova';dominant-baseline:middle;text-anchor:middle;fill:#000099"/>
    </g>
    <g style="font-weight:bold;font-size:3.048px;font-family:'Proxima Nova';dominant-baseline:middle;text-anchor:middle;fill:#000099">
      <path d="m 50.122013,55.241852 h 0.432816 v -0.847344 h 0.984504 v -0.371856 h -0.984504 v -0.44196 h 1.00584 v -0.371856 h -1.438656 z" style="font-weight:bold;font-size:3.048px;font-family:'Proxima Nova';dominant-baseline:middle;text-anchor:middle;fill:#000099"/>
    </g>
    <g style="font-weight:bold;font-size:3.048px;font-family:'Proxima Nova';dominant-baseline:middle;text-anchor:middle;fill:#000099">
      <path d="m 40.413545,55.241852 h 0.435864 v -1.652016 h 0.591312 v -0.381 h -1.621536 v 0.381 h 0.59436 z" style="font-weight:bold;font-size:3.048px;font-family:'Proxima Nova';dominant-baseline:middle;text-anchor:middle;fill:#000099"/>
    </g>
    <g style="font-weight:bold;font-size:3.048px;font-family:'Proxima Nova';dominant-baseline:middle;text-anchor:middle;fill:#000099">
      <path d="m 29.802011,55.241852 h 0.432816 v -0.847344 h 0.984504 v -0.371856 h -0.984504 v -0.44196 h 1.00584 v -0.371856 h -1.438656 z" style="font-weight:bold;font-size:3.048px;font-family:'Proxima Nova';dominant-baseline:middle;text-anchor:middle;fill:#000099"/>
    </g>
    <g style="font-weight:bold;font-size:3.048px;font-family:'Proxima Nova';dominant-baseline:middle;text-anchor:middle;fill:#000099">
      <path d="m 60.282012,60.32185 h 0.432817 v -0.847344 h 0.984504 V 59.10265 h -0.984504 v -0.44196 h 1.00584 v -0.371856 h -1.438657 z" style="font-weight:bold;font-size:3.048px;font-family:'Proxima Nova';dominant-baseline:middle;text-anchor:middle;fill:#000099"/>
    </g>
    <g style="font-weight:bold;font-size:3.048px;font-family:'Proxima Nova';dominant-baseline:middle;text-anchor:middle;fill:#000099">
      <path d="m 50.573545,60.32185 h 0.435864 v -1.652016 h 0.591312 v -0.381 h -1.621536 v 0.381 h 0.59436 z" style="font-weight:bold;font-size:3.048px;font-family:'Proxima Nova';dominant-baseline:middle;text-anchor:middle;fill:#000099"/>
    </g>
    <g style="font-weight:bold;font-size:3.048px;font-family:'Proxima Nova';dominant-baseline:middle;text-anchor:middle;fill:#000099">
      <path d="m 40.413545,60.32185 h 0.435864 v -1.652016 h 0.591312 v -0.381 h -1.621536 v 0.381 h 0.59436 z" style="font-weight:bold;font-size:3.048px;font-family:'Proxima Nova';dominant-baseline:middle;text-anchor:middle;fill:#000099"/>
    </g>
    <g style="font-weight:bold;font-size:3.048px;font-family:'Proxima Nova';dominant-baseline:middle;text-anchor:middle;fill:#000099">
      <path d="m 29.802011,60.32185 h 0.432816 v -0.847344 h 0.984504 V 59.10265 h -0.984504 v -0.44196 h 1.00584 v -0.371856 h -1.438656 z" style="font-weight:bold;font-size:3.048px;font-family:'Proxima Nova';dominant-baseline:middle;text-anchor:middle;fill:#000099"/>
    </g>
    <g style="font-weight:bold;font-size:3.048px;font-family:'Proxima Nova';dominant-baseline:middle;text-anchor:middle;fill:#000099">
      <path d="m 60.733545,65.401848 h 0.435864 v -1.652016 h 0.591312 v -0.381 h -1.621536 v 0.381 h 0.59436 z" style="font-weight:bold;font-size:3.048px;font-family:'Proxima Nova';dominant-baseline:middle;text-anchor:middle;fill:#000099"/>
    </g>
    <g style="font-weight:bold;font-size:3.048px;font-family:'Proxima Nova';dominant-baseline:middle;text-anchor:middle;fill:#000099">
      <path d="m 50.573545,65.401848 h 0.435864 v -1.652016 h 0.591312 v -0.381 h -1.621536 v 0.381 h 0.59436 z" style="font-weight:bold;font-size:3.048px;font-family:'Proxima Nova';dominant-baseline:middle;text-anchor:middle;fill:#000099"/>
    </g>
    <g style="font-weight:bold;font-size:3.048px;font-family:'Proxima Nova';dominant-baseline:middle;text-anchor:middle;fill:#000099">
      <path d="m 40.413545,65.401848 h 0.435864 v -1.652016 h 0.591312 v -0.381 h -1.621536 v 0.381 h 0.59436 z" style="font-weight:bold;font-size:3.048px;font-family:'Proxima Nova';dominant-baseline:middle;text-anchor:middle;fill:#000099"/>
    </g>
    <g style="font-weight:bold;font-size:3.048px;font-family:'Proxima Nova';dominant-baseline:middle;text-anchor:middle;fill:#000099">
      <path d="m 29.802011,65.401848 h 0.432816 v -0.847344 h 0.984504 v -0.371856 h -0.984504 v -0.44196 h 1.00584 v -0.371856 h -1.438656 z" style="font-weight:bold;font-size:3.048px;font-family:'Proxima Nova';dominant-baseline:middle;text-anchor:middle;fill:#000099"/>
    </g>
    <g style="font-weight:bold;font-size:3.048px;font-family:'Proxima Nova';dominant-baseline:middle;text-anchor:middle;fill:#000099">
      <path d="m 60.282012,70.48185 h 0.432817 v -0.847344 h 0.984504 V 69.26265 h -0.984504 v -0.44196 h 1.00584 v -0.371856 h -1.438657 z" style="font-weight:bold;font-size:3.048px;font-family:'Proxima Nova';dominant-baseline:middle;text-anchor:middle;fill:#000099"/>
    </g>
    <g style="font-weight:bold;font-size:3.048px;font-family:'Proxima Nova';dominant-baseline:middle;text-anchor:middle;fill:#000099">
      <path d="m 50.122013,70.48185 h 0.432816 v -0.847344 h 0.984504 V 69.26265 h -0.984504 v -0.44196 h 1.00584 v -0.371856 h -1.438656 z" style="font-weight:bold;font-size:3.048px;font-family:'Proxima Nova';dominant-baseline:middle;text-anchor:middle;fill:#000099"/>
    </g>
    <g style="font-weight:bold;font-size:3.048px;font-family:'Proxima Nova';dominant-baseline:middle;text-anchor:middle;fill:#000099">
      <path d="m 39.962013,70.48185 h 0.432816 v -0.847344 h 0.984504 V 69.26265 h -0.984504 v -0.44196 h 1.00584 v -0.371856 h -1.438656 z" style="font-weight:bold;font-size:3.048px;font-family:'Proxima Nova';dominant-baseline:middle;text-anchor:middle;fill:#000099"/>
    </g>
    <g style="font-weight:bold;font-size:3.048px;font-family:'Proxima Nova';dominant-baseline:middle;text-anchor:middle;fill:#000099">
      <path d="m 30.253544,70.48185 h 0.435864 v -1.652016 h 0.591312 v -0.381 h -1.621536 v 0.381 h 0.59436 z" style="font-weight:bold;font-size:3.048px;font-family:'Proxima Nova';dominant-baseline:middle;text-anchor:middle;fill:#000099"/>
    </g>
    <g style="font-weight:bold;font-size:3.048px;font-family:'Proxima Nova';dominant-baseline:middle;text-anchor:middle;fill:#000099">
      <path d="m 60.733545,75.561852 h 0.435864 v -1.652016 h 0.591312 v -0.381 h -1.621536 v 0.381 h 0.59436 z" style="font-weight:bold;font-size:3.048px;font-family:'Proxima Nova';dominant-baseline:middle;text-anchor:middle;fill:#000099"/>
    </g>
    <g style="font-weight:bold;font-size:3.048px;font-family:'Proxima Nova';dominant-baseline:middle;text-anchor:middle;fill:#000099">
      <path d="m 50.122013,75.561852 h 0.432816 v -0.847344 h 0.984504 v -0.371856 h -0.984504 v -0.44196 h 1.00584 v -0.371856 h -1.438656 z" style="font-weight:bold;font-size:3.048px;font-family:'Proxima Nova';dominant-baseline:middle;text-anchor:middle;fill:#000099"/>
    </g>
    <g style="font-weight:bold;font-size:3.048px;font-family:'Proxima Nova';dominant-baseline:middle;text-anchor:middle;fill:#000099">
      <path d="m 39.962013,75.561852 h 0.432816 v -0.847344 h 0.984504 v -0.371856 h -0.984504 v -0.44196 h 1.00584 v -0.371856 h -1.438656 z" style="font-weight:bold;font-size:3.048px;font-family:'Proxima Nova';dominant-baseline:middle;text-anchor:middle;fill:#000099"/>
    </g>
    <g style="font-weight:bold;font-size:3.048px;font-family:'Proxima Nova';dominant-baseline:middle;text-anchor:middle;fill:#000099">
      <path d="m 30.253544,75.561852 h 0.435864 v -1.652016 h 0.591312 v -0.381 h -1.621536 v 0.381 h 0.59436 z" style="font-weight:bold;font-size:3.048px;font-family:'Proxima Nova';dominant-baseline:middle;text-anchor:middle;fill:#000099"/>
    </g>
    <g style="font-weight:bold;font-size:3.048px;font-family:'Proxima Nova';dominant-baseline:middle;text-anchor:middle;fill:#000099">
      <path d="m 60.282012,80.641854 h 0.432817 V 79.79451 h 0.984504 v -0.371856 h -0.984504 v -0.44196 h 1.00584 v -0.371856 h -1.438657 z" style="font-weight:bold;font-size:3.048px;font-family:'Proxima Nova';dominant-baseline:middle;text-anchor:middle;fill:#000099"/>
    </g>
    <g style="font-weight:bold;font-size:3.048px;font-family:'Proxima Nova';dominant-baseline:middle;text-anchor:middle;fill:#000099">
      <path d="m 50.573545,80.641854 h 0.435864 v -1.652016 h 0.591312 v -0.381 h -1.621536 v 0.381 h 0.59436 z" style="font-weight:bold;font-size:3.048px;font-family:'Proxima Nova';dominant-baseline:middle;text-anchor:middle;fill:#000099"/>
    </g>
    <g style="font-weight:bold;font-size:3.048px;font-family:'Proxima Nova';dominant-baseline:middle;text-anchor:middle;fill:#000099">
      <path d="m 39.962013,80.641854 h 0.432816 V 79.79451 h 0.984504 v -0.371856 h -0.984504 v -0.44196 h 1.00584 v -0.371856 h -1.438656 z" style="font-weight:bold;font-size:3.048px;font-family:'Proxima Nova';dominant-baseline:middle;text-anchor:middle;fill:#000099"/>
    </g>
    <g style="font-weight:bold;font-size:3.048px;font-family:'Proxima Nova';dominant-baseline:middle;text-anchor:middle;fill:#000099">
      <path d="m 30.253544,80.641854 h 0.435864 v -1.652016 h 0.591312 v -0.381 h -1.621536 v 0.381 h 0.59436 z" style="font-weight:bold;font-size:3.048px;font-family:'Proxima Nova';dominant-baseline:middle;text-anchor:middle;fill:#000099"/>
    </g>
    <g style="font-weight:bold;font-size:3.048px;font-family:'Proxima Nova';dominant-baseline:middle;text-anchor:middle;fill:#000099">
      <path d="m 60.733545,85.721856 h 0.435864 V 84.06984 h 0.591312 v -0.381 h -1.621536 v 0.381 h 0.59436 z" style="font-weight:bold;font-size:3.048px;font-family:'Proxima Nova';dominant-baseline:middle;text-anchor:middle;fill:#000099"/>
    </g>
    <g style="font-weight:bold;font-size:3.048px;font-family:'Proxima Nova';dominant-baseline:middle;text-anchor:middle;fill:#000099">
      <path d="m 50.573545,85.721856 h 0.435864 V 84.06984 h 0.591312 v -0.381 h -1.621536 v 0.381 h 0.59436 z" style="font-weight:bold;font-size:3.048px;font-family:'Proxima Nova';dominant-baseline:middle;text-anchor:middle;fill:#000099"/>
    </g>
    <g style="font-weight:bold;font-size:3.048px;font-family:'Proxima Nova';dominant-baseline:middle;text-anchor:middle;fill:#000099">
      <path d="m 39.962013,85.721856 h 0.432816 v -0.847344 h 0.984504 v -0.371856 h -0.984504 v -0.44196 h 1.00584 V 83.68884 h -1.438656 z" style="font-weight:bold;font-size:3.048px;font-family:'Proxima Nova';dominant-baseline:middle;text-anchor:middle;fill:#000099"/>
    </g>
    <g style="font-weight:bold;font-size:3.048px;font-family:'Proxima Nova';dominant-baseline:middle;text-anchor:middle;fill:#000099">
      <path d="m 30.253544,85.721856 h 0.435864 V 84.06984 h 0.591312 v -0.381 h -1.621536 v 0.381 h 0.59436 z" style="font-weight:bold;font-size:3.048px;font-family:'Proxima Nova';dominant-baseline:middle;text-anchor:middle;fill:#000099"/>
    </g>
    <g style="font-weight:bold;font-size:3.048px;font-family:'Proxima Nova';dominant-baseline:middle;text-anchor:middle;fill:#000099">
      <path d="m 60.282012,90.80185 h 0.432817 v -0.847344 h 0.984504 V 89.58265 h -0.984504 v -0.44196 h 1.00584 v -0.371856 h -1.438657 z" style="font-weight:bold;font-size:3.048px;font-family:'Proxima Nova';dominant-baseline:middle;text-anchor:middle;fill:#000099"/>
    </g>
    <g style="font-weight:bold;font-size:3.048px;font-family:'Proxima Nova';dominant-baseline:middle;text-anchor:middle;fill:#000099">
      <path d="m 50.122013,90.80185 h 0.432816 v -0.847344 h 0.984504 V 89.58265 h -0.984504 v -0.44196 h 1.00584 v -0.371856 h -1.438656 z" style="font-weight:bold;font-size:3.048px;font-family:'Proxima Nova';dominant-baseline:middle;text-anchor:middle;fill:#000099"/>
    </g>
    <g style="font-weight:bold;font-size:3.048px;font-family:'Proxima Nova';dominant-baseline:middle;text-anchor:middle;fill:#000099">
      <path d="m 40.413545,90.80185 h 0.435864 v -1.652016 h 0.591312 v -0.381 h -1.621536 v 0.381 h 0.59436 z" style="font-weight:bold;font-size:3.048px;font-family:'Proxima Nova';dominant-baseline:middle;text-anchor:middle;fill:#000099"/>
    </g>
    <g style="font-weight:bold;font-size:3.048px;font-family:'Proxima Nova';dominant-baseline:middle;text-anchor:middle;fill:#000099">
      <path d="m 30.253544,90.80185 h 0.435864 v -1.652016 h 0.591312 v -0.381 h -1.621536 v 0.381 h 0.59436 z" style="font-weight:bold;font-size:3.048px;font-family:'Proxima Nova';dominant-baseline:middle;text-anchor:middle;fill:#000099"/>
    </g>
    <g style="font-weight:bold;font-size:3.048px;font-family:'Proxima Nova';dominant-baseline:middle;text-anchor:middle;fill:#000099">
      <path d="m 60.733545,95.881852 h 0.435864 v -1.652016 h 0.591312 v -0.381 h -1.621536 v 0.381 h 0.59436 z" style="font-weight:bold;font-size:3.048px;font-family:'Proxima Nova';dominant-baseline:middle;text-anchor:middle;fill:#000099"/>
    </g>
    <g style="font-weight:bold;font-size:3.048px;font-family:'Proxima Nova';dominant-baseline:middle;text-anchor:middle;fill:#000099">
      <path d="m 50.122013,95.881852 h 0.432816 v -0.847344 h 0.984504 v -0.371856 h -0.984504 v -0.44196 h 1.00584 v -0.371856 h -1.438656 z" style="font-weight:bold;font-size:3.048px;font-family:'Proxima Nova';dominant-baseline:middle;text-anchor:middle;fill:#000099"/>
    </g>
    <g style="font-weight:bold;font-size:3.048px;font-family:'Proxima Nova';dominant-baseline:middle;text-anchor:middle;fill:#000099">
      <path d="m 40.413545,95.881852 h 0.435864 v -1.652016 h 0.591312 v -0.381 h -1.621536 v 0.381 h 0.59436 z" style="font-weight:bold;font-size:3.048px;font-family:'Proxima Nova';dominant-baseline:middle;text-anchor:middle;fill:#000099"/>
    </g>
    <g style="font-weight:bold;font-size:3.048px;font-family:'Proxima Nova';dominant-baseline:middle;text-anchor:middle;fill:#000099">
      <path d="m 30.253544,95.881852 h 0.435864 v -1.652016 h 0.591312 v -0.381 h -1.621536 v 0.381 h 0.59436 z" style="font-weight:bold;font-size:3.048px;font-family:'Proxima Nova';dominant-baseline:middle;text-anchor:middle;fill:#000099"/>
    </g>
    <g style="font-weight:bold;font-size:3.048px;font-family:'Proxima Nova';dominant-baseline:middle;text-anchor:middle;fill:#000099">
      <path d="m 60.282012,100.96185 h 0.432817 v -0.84734 h 0.984504 v -0.371857 h -0.984504 v -0.44196 h 1.00584 v -0.371856 h -1.438657 z" style="font-weight:bold;font-size:3.048px;font-family:'Proxima Nova';dominant-baseline:middle;text-anchor:middle;fill:#000099"/>
    </g>
    <g style="font-weight:bold;font-size:3.048px;font-family:'Proxima Nova';dominant-baseline:middle;text-anchor:middle;fill:#000099">
      <path d="m 50.573545,100.96185 h 0.435864 v -1.652013 h 0.591312 v -0.381 h -1.621536 v 0.381 h 0.59436 z" style="font-weight:bold;font-size:3.048px;font-family:'Proxima Nova';dominant-baseline:middle;text-anchor:middle;fill:#000099"/>
    </g>
    <g style="font-weight:bold;font-size:3.048px;font-family:'Proxima Nova';dominant-baseline:middle;text-anchor:middle;fill:#000099">
      <path d="m 40.413545,100.96185 h 0.435864 v -1.652013 h 0.591312 v -0.381 h -1.621536 v 0.381 h 0.59436 z" style="font-weight:bold;font-size:3.048px;font-family:'Proxima Nova';dominant-baseline:middle;text-anchor:middle;fill:#000099"/>
    </g>
    <g style="font-weight:bold;font-size:3.048px;font-family:'Proxima Nova';dominant-baseline:middle;text-anchor:middle;fill:#000099">
      <path d="m 30.253544,100.96185 h 0.435864 v -1.652013 h 0.591312 v -0.381 h -1.621536 v 0.381 h 0.59436 z" style="font-weight:bold;font-size:3.048px;font-family:'Proxima Nova';dominant-baseline:middle;text-anchor:middle;fill:#000099"/>
    </g>
    <g style="font-weight:bold;font-size:3.048px;font-family:'Proxima Nova';dominant-baseline:middle;text-anchor:middle;fill:#000099">
      <path d="m 60.733545,106.04186 h 0.435864 v -1.65202 h 0.591312 v -0.381 h -1.621536 v 0.381 h 0.59436 z" style="font-weight:bold;font-size:3.048px;font-family:'Proxima Nova';dominant-baseline:middle;text-anchor:middle;fill:#000099"/>
    </g>
    <g style="font-weight:bold;font-size:3.048px;font-family:'Proxima Nova';dominant-baseline:middle;text-anchor:middle;fill:#000099">
      <path d="m 50.573545,106.04186 h 0.435864 v -1.65202 h 0.591312 v -0.381 h -1.621536 v 0.381 h 0.59436 z" style="font-weight:bold;font-size:3.048px;font-family:'Proxima Nova';dominant-baseline:middle;text-anchor:middle;fill:#000099"/>
    </g>
    <g style="font-weight:bold;font-size:3.048px;font-family:'Proxima Nova';dominant-baseline:middle;text-anchor:middle;fill:#000099">
      <path d="m 40.413545,106.04186 h 0.435864 v -1.65202 h 0.591312 v -0.381 h -1.621536 v 0.381 h 0.59436 z" style="font-weight:bold;font-size:3.048px;font-family:'Proxima Nova';dominant-baseline:middle;text-anchor:middle;fill:#000099"/>
    </g>
    <g style="font-weight:bold;font-size:3.048px;font-family:'Proxima Nova';dominant-baseline:middle;text-anchor:middle;fill:#000099">
      <path d="m 30.253544,106.04186 h 0.435864 v -1.65202 h 0.591312 v -0.381 h -1.621536 v 0.381 h 0.59436 z" style="font-weight:bold;font-size:3.048px;font-family:'Proxima Nova';dominant-baseline:middle;text-anchor:middle;fill:#000099"/>
    </g>
    <rect x="4.96" y="79.468002" width="17.4" height="13.432" rx="1" ry="1" fill="#000099" stroke="#000099" stroke-width="0.35"/>
    <g style="font-weight:bold;font-size:3.048px;font-family:'Proxima Nova';dominant-baseline:alphabetic;text-anchor:middle;fill:#f0f0ff">
      <path d="m 18.221275,81.485016 c 0,-0.612648 -0.448056,-1.05156 -1.063752,-1.05156 -0.612648,0 -1.060704,0.438912 -1.060704,1.05156 0,0.612648 0.448056,1.05156 1.060704,1.05156 0.176784,0 0.341376,-0.03658 0.484632,-0.103632 l 0.161544,0.192024 0.301752,-0.246888 -0.149352,-0.173736 c 0.16764,-0.18288 0.265176,-0.432816 0.265176,-0.719328 z m -1.063752,0.667512 c -0.374904,0 -0.615696,-0.28956 -0.615696,-0.667512 0,-0.381 0.240792,-0.667512 0.615696,-0.667512 0.374904,0 0.618744,0.286512 0.618744,0.667512 0,0.146304 -0.03658,0.280416 -0.103632,0.387096 l -0.231648,-0.271272 -0.301752,0.24384 0.231648,0.271272 c -0.06401,0.02438 -0.13716,0.03658 -0.21336,0.03658 z" style="font-weight:bold;font-size:3.048px;font-family:'Proxima Nova';dominant-baseline:alphabetic;text-anchor:middle;fill:#f0f0ff"/>
    </g>
    <rect x="4.96" y="94.053001" width="17.4" height="13.432" rx="1" ry="1" fill="#000099" stroke="#000099" stroke-width="0.35"/>
    <g style="font-weight:bold;font-size:3.048px;font-family:'Proxima Nova';dominant-baseline:alphabetic;text-anchor:middle;fill:#f0f0ff">
      <path d="m 16.265245,96.472351 v -0.813816 h -1.359408 v 0.24384 h 1.11252 v 0.569976 z" style="font-weight:bold;font-size:3.048px;font-family:'Proxima Nova';dominant-baseline:alphabetic;text-anchor:middle;fill:#f0f0ff"/>
      <path d="m 19.397017,96.070015 c 0,-0.612648 -0.448056,-1.05156 -1.063752,-1.05156 -0.612648,0 -1.060704,0.438912 -1.060704,1.05156 0,0.612648 0.448056,1.05156 1.060704,1.05156 0.176784,0 0.341376,-0.03658 0.484632,-0.103632 l 0.161544,0.192024 0.301752,-0.246888 -0.149352,-0.173736 c 0.16764,-0.18288 0.265176,-0.432816 0.265176,-0.719328 z m -1.063752,0.667512 c -0.374904,0 -0.615696,-0.28956 -0.615696,-0.667512 0,-0.381 0.240792,-0.667512 0.615696,-0.667512 0.374904,0 0.618744,0.286512 0.618744,0.667512 0,0.146304 -0.03658,0.280416 -0.103632,0.387096 l -0.231648,-0.271272 -0.301752,0.24384 0.231648,0.271272 c -0.06401,0.02438 -0.13716,0.03658 -0.21336,0.03658 z" style="font-weight:bold;font-size:3.048px;font-family:'Proxima Nova';dominant-baseline:alphabetic;text-anchor:middle;fill:#f0f0ff"/>
    </g>
  </g>
</svg>
