<?xml version="1.0" encoding="UTF-8" standalone="no"?>
<svg xmlns="http://www.w3.org/2000/svg" xmlns:svg="http://www.w3.org/2000/svg" version="1.1" viewBox="0 0 40.64 128.5" height="128.5mm" width="40.639999mm">
  <defs/>
  <g>
    <rect x="0.25" y="0.25" width="40.139999" height="128" fill="#f0f0ff" stroke="#000099" stroke-width="0.5"/>
    <g style="font-weight:bold;font-size:4.064px;font-family:'Proxima Nova';dominant-baseline:alphabetic;text-anchor:middle;fill:#000099">
      <path d="m 12.840017,9 h 0.581152 V 6.7973119 h 0.788416 v -0.508 h -2.162048 v 0.508 h 0.79248 z" style="font-weight:bold;font-size:4.064px;font-family:'Proxima Nova';dominant-baseline:alphabetic;text-anchor:middle;fill:#000099"/>
      <path d="m 16.111664,9 h 0.662432 l -0.6096,-1.032256 c 0.292608,-0.069088 0.593344,-0.32512 0.593344,-0.8046721 0,-0.503936 -0.34544,-0.87376 -0.910336,-0.87376 H 14.579536 V 9 h 0.577088 V 8.028704 h 0.422656 z m 0.0569,-1.8409921 c 0,0.227584 -0.174752,0.3738881 -0.4064,0.3738881 h -0.60554 V 6.7851199 h 0.605536 c 0.231648,0 0.4064,0.146304 0.4064,0.373888 z" style="font-weight:bold;font-size:4.064px;font-family:'Proxima Nova';dominant-baseline:alphabetic;text-anchor:middle;fill:#000099"/>
      <path d="m 17.190973,7.918976 c 0,0.666496 0.38608,1.129792 1.215136,1.129792 0.820928,0 1.207008,-0.459232 1.207008,-1.133856 V 6.2893119 H 19.027901 V 7.898656 c 0,0.377952 -0.207264,0.638048 -0.621792,0.638048 -0.422656,0 -0.62992,-0.260096 -0.62992,-0.638048 V 6.2893119 h -0.585216 z" style="font-weight:bold;font-size:4.064px;font-family:'Proxima Nova';dominant-baseline:alphabetic;text-anchor:middle;fill:#000099"/>
      <path d="m 20.777517,9 h 0.581152 V 6.7973119 h 0.788416 v -0.508 h -2.162048 v 0.508 h 0.79248 z" style="font-weight:bold;font-size:4.064px;font-family:'Proxima Nova';dominant-baseline:alphabetic;text-anchor:middle;fill:#000099"/>
      <path d="m 24.374285,9 h 0.581152 V 6.2893119 h -0.581152 v 1.064768 H 23.094124 V 6.2893119 H 22.517036 V 9 h 0.577088 V 7.86208 h 1.280161 z" style="font-weight:bold;font-size:4.064px;font-family:'Proxima Nova';dominant-baseline:alphabetic;text-anchor:middle;fill:#000099"/>
      <path d="m 26.448258,9 h 2.040128 V 8.492 h -1.129792 c 0.727456,-0.512064 1.109472,-0.9144 1.109472,-1.3776961 0,-0.540512 -0.459232,-0.865632 -1.03632,-0.865632 -0.377952,0 -0.780288,0.138176 -1.044448,0.442976 l 0.329184,0.382016 c 0.18288,-0.191008 0.418592,-0.312928 0.723392,-0.312928 0.227584,0 0.442976,0.117856 0.442976,0.353568 0,0.3332481 -0.32512,0.6136641 -1.434592,1.4305281 z" style="font-weight:bold;font-size:4.064px;font-family:'Proxima Nova';dominant-baseline:alphabetic;text-anchor:middle;fill:#000099"/>
    </g>
    <g style="font-weight:bold;font-size:4.064px;font-family:'Proxima Nova';dominant-baseline:hanging;text-anchor:middle;fill:#000099">
      <path d="m 16.456755,122.2581 h 1.068832 c 0.849376,0 1.438656,-0.53645 1.438656,-1.35331 0,-0.81687 -0.58928,-1.35738 -1.438656,-1.35738 h -1.068832 z m 0.577088,-0.508 v -1.69469 h 0.491744 c 0.556768,0 0.849376,0.36983 0.849376,0.84938 0,0.45923 -0.312928,0.84531 -0.849376,0.84531 z" style="font-weight:bold;font-size:4.064px;font-family:'Proxima Nova';dominant-baseline:hanging;text-anchor:middle;fill:#000099"/>
      <path d="m 21.235003,122.2581 h 0.581152 v -2.71069 h -0.581152 v 1.06477 h -1.28016 v -1.06477 h -0.577088 v 2.71069 h 0.577088 v -1.13792 h 1.28016 z" style="font-weight:bold;font-size:4.064px;font-family:'Proxima Nova';dominant-baseline:hanging;text-anchor:middle;fill:#000099"/>
      <path d="m 22.34638,122.2581 h 1.918208 v -0.49987 h -1.34112 v -0.62992 h 1.312672 v -0.49581 h -1.312672 v -0.58928 h 1.34112 v -0.49581 H 22.34638 Z" style="font-weight:bold;font-size:4.064px;font-family:'Proxima Nova';dominant-baseline:hanging;text-anchor:middle;fill:#000099"/>
    </g>
    <rect x="11.62" y="49.768002" width="17.4" height="13.432" rx="1" ry="1" fill="#f0f0ff" stroke="#000099" stroke-width="0.35"/>
    <g style="font-weight:bold;font-size:3.048px;font-family:'Proxima Nova';dominant-baseline:alphabetic;text-anchor:middle;fill:#000099">
      <path d="m 17.402787,52.799999 h 0.47244 l -0.783336,-2.033016 h -0.542544 l -0.786384,2.033016 h 0.475488 l 0.128016,-0.35052 h 0.908304 z m -0.582168,-1.658112 0.33528,0.932688 h -0.673608 z" style="font-weight:bold;font-size:3.048px;font-family:'Proxima Nova';dominant-baseline:alphabetic;text-anchor:middle;fill:#000099"/>
    </g>
    <rect x="11.62" y="65.267998" width="17.4" height="13.432" rx="1" ry="1" fill="#f0f0ff" stroke="#000099" stroke-width="0.35"/>
    <g style="font-weight:bold;font-size:3.048px;font-family:'Proxima Nova';dominant-baseline:alphabetic;text-anchor:middle;fill:#000099">
      <path d="m 13.264746,68.300003 h 1.103376 c 0.387096,0 0.591312,-0.24384 0.591312,-0.54864 0,-0.256032 -0.173736,-0.466344 -0.390144,-0.499872 0.192024,-0.03962 0.35052,-0.210312 0.35052,-0.466344 0,-0.271272 -0.19812,-0.51816 -0.585216,-0.51816 h -1.069848 z m 0.432816,-1.216152 v -0.448056 h 0.542544 c 0.146304,0 0.237744,0.09754 0.237744,0.222504 0,0.131064 -0.09144,0.225552 -0.237744,0.225552 z m 0,0.847344 v -0.478536 h 0.557784 c 0.170688,0 0.262128,0.109728 0.262128,0.237744 0,0.146304 -0.09754,0.240792 -0.262128,0.240792 z" style="font-weight:bold;font-size:3.048px;font-family:'Proxima Nova';dominant-baseline:alphabetic;text-anchor:middle;fill:#000099"/>
      <path d="m 15.081687,68.360963 h 0.280416 l 0.722376,-2.154936 h -0.280416 z" style="font-weight:bold;font-size:3.048px;font-family:'Proxima Nova';dominant-baseline:alphabetic;text-anchor:middle;fill:#000099"/>
      <path d="m 16.185444,67.285019 c 0,0.64008 0.48768,1.054608 1.08204,1.054608 0.368808,0 0.658368,-0.1524 0.865632,-0.384048 v -0.77724 h -0.969264 v 0.371856 h 0.542544 v 0.246888 c -0.08839,0.07925 -0.252984,0.155448 -0.438912,0.155448 -0.368808,0 -0.637032,-0.283464 -0.637032,-0.667512 0,-0.384048 0.268224,-0.667512 0.637032,-0.667512 0.21336,0 0.387096,0.112776 0.481584,0.256032 l 0.359664,-0.195072 c -0.155448,-0.240792 -0.420624,-0.445008 -0.841248,-0.445008 -0.59436,0 -1.08204,0.408432 -1.08204,1.05156 z" style="font-weight:bold;font-size:3.048px;font-family:'Proxima Nova';dominant-baseline:alphabetic;text-anchor:middle;fill:#000099"/>
      <path d="m 19.879287,68.300003 h 0.47244 l -0.783336,-2.033016 h -0.542544 l -0.786384,2.033016 h 0.475488 l 0.128016,-0.35052 h 0.908304 z m -0.582168,-1.658112 0.33528,0.932688 h -0.673608 z" style="font-weight:bold;font-size:3.048px;font-family:'Proxima Nova';dominant-baseline:alphabetic;text-anchor:middle;fill:#000099"/>
      <path d="m 20.812403,68.300003 h 0.435864 v -1.652016 h 0.591313 v -0.381 h -1.621537 v 0.381 h 0.59436 z" style="font-weight:bold;font-size:3.048px;font-family:'Proxima Nova';dominant-baseline:alphabetic;text-anchor:middle;fill:#000099"/>
      <path d="m 22.117043,68.300003 h 1.438656 v -0.374904 h -1.00584 v -0.47244 h 0.984504 v -0.371856 h -0.984504 v -0.44196 h 1.00584 v -0.371856 h -1.438656 z" style="font-weight:bold;font-size:3.048px;font-family:'Proxima Nova';dominant-baseline:alphabetic;text-anchor:middle;fill:#000099"/>
    </g>
    <rect x="5.0799999" y="23.540001" width="20.32" height="20.32" fill="#f0f0ff" stroke="#000099" stroke-width="0.35"/>
    <line x1="15.24" y1="23.540001" x2="15.24" y2="43.860001" stroke="#000099" stroke-width="0.35"/>
    <line x1="5.0799999" y1="28.620001" x2="25.4" y2="28.620001" stroke="#000099" stroke-width="0.35"/>
    <line x1="5.0799999" y1="33.700001" x2="25.4" y2="33.700001" stroke="#000099" stroke-width="0.35"/>
    <line x1="5.0799999" y1="38.779999" x2="25.4" y2="38.779999" stroke="#000099" stroke-width="0.35"/>
    <rect x="5.0799999" y="18.459999" width="30.48" height="5.0799999" fill="#000099" stroke="#000099" stroke-width="0.35"/>
    <g style="font-weight:bold;font-size:3.048px;font-family:'Proxima Nova';dominant-baseline:middle;text-anchor:middle;fill:#f0f0ff">
      <path d="m 10.742787,22.101853 h 0.47244 L 10.431891,20.068837 H 9.889347 L 9.1029629,22.101853 H 9.578451 l 0.128016,-0.35052 h 0.908304 z m -0.582168,-1.658112 0.33528,0.932688 H 9.822291 Z" style="font-weight:bold;font-size:3.048px;font-family:'Proxima Nova';dominant-baseline:middle;text-anchor:middle;fill:#f0f0ff"/>
    </g>
    <g style="font-weight:bold;font-size:3.048px;font-family:'Proxima Nova';dominant-baseline:middle;text-anchor:middle;fill:#f0f0ff">
      <path d="m 31.541275,21.086869 c 0,-0.612648 -0.448056,-1.05156 -1.063752,-1.05156 -0.612648,0 -1.060704,0.438912 -1.060704,1.05156 0,0.612648 0.448056,1.05156 1.060704,1.05156 0.176784,0 0.341376,-0.03658 0.484632,-0.103632 l 0.161544,0.192024 0.301752,-0.246888 -0.149352,-0.173736 c 0.16764,-0.18288 0.265176,-0.432816 0.265176,-0.719328 z m -1.063752,0.667512 c -0.374904,0 -0.615696,-0.28956 -0.615696,-0.667512 0,-0.381 0.240792,-0.667512 0.615696,-0.667512 0.374904,0 0.618744,0.286512 0.618744,0.667512 0,0.146304 -0.03658,0.280416 -0.103632,0.387096 l -0.231648,-0.271272 -0.301752,0.24384 0.231648,0.271272 c -0.06401,0.02438 -0.13716,0.03658 -0.21336,0.03658 z" style="font-weight:bold;font-size:3.048px;font-family:'Proxima Nova';dominant-baseline:middle;text-anchor:middle;fill:#f0f0ff"/>
    </g>
    <rect x="25.4" y="23.540001" width="10.16" height="20.32" fill="#000099" stroke="#000099" stroke-width="0.35"/>
    <g style="font-weight:bold;font-size:3.048px;font-family:'Proxima Nova';dominant-baseline:middle;text-anchor:middle;fill:#000099">
      <path d="m 19.652011,27.181853 h 0.432816 v -0.847344 h 0.984504 v -0.371856 h -0.984504 v -0.44196 h 1.00584 v -0.371856 h -1.438656 z" style="font-weight:bold;font-size:3.048px;font-family:'Proxima Nova';dominant-baseline:middle;text-anchor:middle;fill:#000099"/>
    </g>
    <g style="font-weight:bold;font-size:3.048px;font-family:'Proxima Nova';dominant-baseline:middle;text-anchor:middle;fill:#000099">
      <path d="m 9.4920116,27.181853 h 0.432816 V 26.334509 H 10.909332 V 25.962653 H 9.9248276 v -0.44196 H 10.930668 V 25.148837 H 9.4920116 Z" style="font-weight:bold;font-size:3.048px;font-family:'Proxima Nova';dominant-baseline:middle;text-anchor:middle;fill:#000099"/>
    </g>
    <g style="font-weight:bold;font-size:3.048px;font-family:'Proxima Nova';dominant-baseline:middle;text-anchor:middle;fill:#000099">
      <path d="m 20.103544,32.261853 h 0.435864 v -1.652016 h 0.591312 v -0.381 h -1.621536 v 0.381 h 0.59436 z" style="font-weight:bold;font-size:3.048px;font-family:'Proxima Nova';dominant-baseline:middle;text-anchor:middle;fill:#000099"/>
    </g>
    <g style="font-weight:bold;font-size:3.048px;font-family:'Proxima Nova';dominant-baseline:middle;text-anchor:middle;fill:#000099">
      <path d="m 9.4920116,32.261853 h 0.432816 V 31.414509 H 10.909332 V 31.042653 H 9.9248276 v -0.44196 H 10.930668 V 30.228837 H 9.4920116 Z" style="font-weight:bold;font-size:3.048px;font-family:'Proxima Nova';dominant-baseline:middle;text-anchor:middle;fill:#000099"/>
    </g>
    <g style="font-weight:bold;font-size:3.048px;font-family:'Proxima Nova';dominant-baseline:middle;text-anchor:middle;fill:#000099">
      <path d="m 19.652011,37.341851 h 0.432816 v -0.847344 h 0.984504 v -0.371856 h -0.984504 v -0.44196 h 1.00584 v -0.371856 h -1.438656 z" style="font-weight:bold;font-size:3.048px;font-family:'Proxima Nova';dominant-baseline:middle;text-anchor:middle;fill:#000099"/>
    </g>
    <g style="font-weight:bold;font-size:3.048px;font-family:'Proxima Nova';dominant-baseline:middle;text-anchor:middle;fill:#000099">
      <path d="m 9.9435442,37.341851 h 0.4358638 v -1.652016 h 0.591312 v -0.381 H 9.3491842 v 0.381 h 0.59436 z" style="font-weight:bold;font-size:3.048px;font-family:'Proxima Nova';dominant-baseline:middle;text-anchor:middle;fill:#000099"/>
    </g>
    <g style="font-weight:bold;font-size:3.048px;font-family:'Proxima Nova';dominant-baseline:middle;text-anchor:middle;fill:#000099">
      <path d="m 20.103544,42.421853 h 0.435864 v -1.652017 h 0.591312 v -0.381 h -1.621536 v 0.381 h 0.59436 z" style="font-weight:bold;font-size:3.048px;font-family:'Proxima Nova';dominant-baseline:middle;text-anchor:middle;fill:#000099"/>
    </g>
    <g style="font-weight:bold;font-size:3.048px;font-family:'Proxima Nova';dominant-baseline:middle;text-anchor:middle;fill:#000099">
      <path d="m 9.9435442,42.421853 h 0.4358638 v -1.652017 h 0.591312 v -0.381 H 9.3491842 v 0.381 h 0.59436 z" style="font-weight:bold;font-size:3.048px;font-family:'Proxima Nova';dominant-baseline:middle;text-anchor:middle;fill:#000099"/>
    </g>
    <rect x="11.62" y="80.767998" width="17.4" height="13.432" rx="1" ry="1" fill="#000099" stroke="#000099" stroke-width="0.35"/>
    <g style="font-weight:bold;font-size:3.048px;font-family:'Proxima Nova';dominant-baseline:alphabetic;text-anchor:middle;fill:#f0f0ff">
      <path d="m 24.881275,82.785019 c 0,-0.612648 -0.448056,-1.05156 -1.063752,-1.05156 -0.612648,0 -1.060704,0.438912 -1.060704,1.05156 0,0.612648 0.448056,1.05156 1.060704,1.05156 0.176784,0 0.341376,-0.03658 0.484632,-0.103632 l 0.161544,0.192024 0.301752,-0.246888 -0.149352,-0.173736 c 0.16764,-0.18288 0.265176,-0.432816 0.265176,-0.719328 z m -1.063752,0.667512 c -0.374904,0 -0.615696,-0.28956 -0.615696,-0.667512 0,-0.381 0.240792,-0.667512 0.615696,-0.667512 0.374904,0 0.618744,0.286512 0.618744,0.667512 0,0.146304 -0.03658,0.280416 -0.103632,0.387096 l -0.231648,-0.271272 -0.301752,0.24384 0.231648,0.271272 c -0.06401,0.02438 -0.13716,0.03658 -0.21336,0.03658 z" style="font-weight:bold;font-size:3.048px;font-family:'Proxima Nova';dominant-baseline:alphabetic;text-anchor:middle;fill:#f0f0ff"/>
    </g>
    <rect x="11.62" y="96.267998" width="17.4" height="13.432" rx="1" ry="1" fill="#000099" stroke="#000099" stroke-width="0.35"/>
    <g style="font-weight:bold;font-size:3.048px;font-family:'Proxima Nova';dominant-baseline:alphabetic;text-anchor:middle;fill:#f0f0ff">
      <path d="m 22.925245,98.687355 v -0.813816 h -1.359408 v 0.24384 h 1.11252 v 0.569976 z" style="font-weight:bold;font-size:3.048px;font-family:'Proxima Nova';dominant-baseline:alphabetic;text-anchor:middle;fill:#f0f0ff"/>
      <path d="m 26.057017,98.285019 c 0,-0.612648 -0.448056,-1.05156 -1.063752,-1.05156 -0.612648,0 -1.060704,0.438912 -1.060704,1.05156 0,0.612648 0.448056,1.05156 1.060704,1.05156 0.176784,0 0.341376,-0.03658 0.484632,-0.103632 l 0.161544,0.192024 0.301752,-0.246888 -0.149352,-0.173736 c 0.16764,-0.18288 0.265176,-0.432816 0.265176,-0.719328 z m -1.063752,0.667512 c -0.374904,0 -0.615696,-0.28956 -0.615696,-0.667512 0,-0.381 0.240792,-0.667512 0.615696,-0.667512 0.374904,0 0.618744,0.286512 0.618744,0.667512 0,0.146304 -0.03658,0.280416 -0.103632,0.387096 l -0.231648,-0.271272 -0.301752,0.24384 0.231648,0.271272 c -0.06401,0.02438 -0.13716,0.03658 -0.21336,0.03658 z" style="font-weight:bold;font-size:3.048px;font-family:'Proxima Nova';dominant-baseline:alphabetic;text-anchor:middle;fill:#f0f0ff"/>
    </g>
  </g>
</svg>
