<?xml version="1.0" encoding="UTF-8" standalone="no"?>
<svg
   xmlns:dc="http://purl.org/dc/elements/1.1/"
   xmlns:cc="http://creativecommons.org/ns#"
   xmlns:rdf="http://www.w3.org/1999/02/22-rdf-syntax-ns#"
   xmlns:svg="http://www.w3.org/2000/svg"
   xmlns="http://www.w3.org/2000/svg"
   id="svg70"
   height="379.429"
   width="75.000"
   version="1.1">
  <metadata
     id="metadata76">
    <rdf:RDF>
      <cc:Work
         rdf:about="">
        <dc:format>image/svg+xml</dc:format>
        <dc:type
           rdf:resource="http://purl.org/dc/dcmitype/StillImage" />
      </cc:Work>
    </rdf:RDF>
  </metadata>
  <defs
     id="defs74" />
  <g
     id="g68"
     transform="scale(2.953)">
    <path
       id="rect2"
       d="M 0,0 H 25.4 V 128.5 H 0 Z"
       style="fill:#f0f7ff;stroke:#004c99;stroke-width:1" />
    <g
       id="g6"
       transform="translate(12.7,9)">
      <g
         id="text4"
         style="font-weight:bold;font-size:4.06400013px;font-family:'Proxima Nova';dominant-baseline:alphabetic;text-anchor:middle;fill:#004c99"
         aria-label="UPSTAGE">
        <path
           id="path79"
           style="font-weight:bold;font-size:4.06400013px;font-family:'Proxima Nova';dominant-baseline:alphabetic;text-anchor:middle;fill:#004c99"
           d="m -8.7130575,-1.081024 c 0,0.66649599 0.398272,1.129792 1.223264,1.129792 0.824992,0 1.2232641,-0.45923201 1.2232641,-1.133856 v -1.6256001 h -0.5892801 v 1.6093441 c 0,0.37795198 -0.215392,0.63804799 -0.633984,0.63804799 -0.418592,0 -0.638048,-0.26009601 -0.638048,-0.63804799 v -1.6093441 h -0.585216 z" />
        <path
           id="path81"
           style="font-weight:bold;font-size:4.06400013px;font-family:'Proxima Nova';dominant-baseline:alphabetic;text-anchor:middle;fill:#004c99"
           d="m -5.736495,0 h 0.577088 v -0.96316803 h 0.69088 c 0.585216,0 0.910336,-0.40233597 0.910336,-0.87376007 0,-0.475488 -0.321056,-0.87376 -0.910336,-0.87376 h -1.267968 z m 1.589024,-1.8369281 c 0,0.22352 -0.170688,0.3657601 -0.398272,0.3657601 h -0.613664 v -0.7315201 h 0.613664 c 0.227584,0 0.398272,0.138176 0.398272,0.36576 z" />
        <path
           id="path83"
           style="font-weight:bold;font-size:4.06400013px;font-family:'Proxima Nova';dominant-baseline:alphabetic;text-anchor:middle;fill:#004c99"
           d="m -3.3873125,-0.38201601 c 0.251968,0.25603201 0.625856,0.43078401 1.146048,0.43078401 0.7315201,0 1.0850881,-0.37388801 1.0850881,-0.86969603 0,-0.61366397 -0.5689601,-0.74777607 -1.0160001,-0.85344007 -0.292608,-0.069088 -0.540512,-0.125984 -0.540512,-0.300736 0,-0.16256 0.138176,-0.272288 0.38608,-0.272288 0.276352,0 0.56896,0.093472 0.7884161,0.296672 l 0.321056,-0.422656 c -0.268224,-0.247904 -0.6258561,-0.377952 -1.0566401,-0.377952 -0.638048,0 -1.028192,0.373888 -1.028192,0.824992 0,0.6177281 0.56896,0.7396481 1.011936,0.8412481 0.296672,0.073152 0.54864,0.13004797 0.54864,0.32918398 0,0.154432 -0.154432,0.30073601 -0.471424,0.30073601 -0.373888,0 -0.67056,-0.16662401 -0.861568,-0.36576002 z" />
        <path
           id="path85"
           style="font-weight:bold;font-size:4.06400013px;font-family:'Proxima Nova';dominant-baseline:alphabetic;text-anchor:middle;fill:#004c99"
           d="M -0.1735138,0 H 0.40763822 V -2.2026881 H 1.1960542 v -0.508 h -2.16204803 v 0.508 h 0.79248003 z" />
        <path
           id="path87"
           style="font-weight:bold;font-size:4.06400013px;font-family:'Proxima Nova';dominant-baseline:alphabetic;text-anchor:middle;fill:#004c99"
           d="m 3.1735077,0 h 0.658368 L 2.7874276,-2.7106881 H 2.0640356 L 1.0155236,0 h 0.658368 l 0.170688,-0.45923201 H 3.0068837 Z M 2.4257316,-2.1336001 2.8483877,-0.96723203 H 2.0030756 Z" />
        <path
           id="path89"
           style="font-weight:bold;font-size:4.06400013px;font-family:'Proxima Nova';dominant-baseline:alphabetic;text-anchor:middle;fill:#004c99"
           d="m 3.8172071,-1.353312 c 0,0.85343998 0.65024,1.406144 1.4427201,1.406144 0.491744,0 0.877824,-0.2032 1.154176,-0.51206401 V -1.499616 h -1.292352 v 0.50393597 h 0.715264 v 0.32512001 c -0.109728,0.1016 -0.337312,0.20726401 -0.577088,0.20726401 -0.491744,0 -0.8493761,-0.37795202 -0.8493761,-0.89001599 0,-0.5120641 0.3576321,-0.8900161 0.8493761,-0.8900161 0.288544,0 0.520192,0.16256 0.642112,0.353568 l 0.479552,-0.260096 c -0.2032,-0.321056 -0.556768,-0.605536 -1.121664,-0.605536 -0.7924801,0 -1.4427201,0.544576 -1.4427201,1.4020801 z" />
        <path
           id="path91"
           style="font-weight:bold;font-size:4.06400013px;font-family:'Proxima Nova';dominant-baseline:alphabetic;text-anchor:middle;fill:#004c99"
           d="m 6.876193,0 h 1.9182081 v -0.50800002 h -1.34112 V -1.121664 h 1.312672 v -0.5080001 h -1.312672 v -0.573024 h 1.34112 v -0.508 H 6.876193 Z" />
      </g>
    </g>
    <g
       id="g10"
       transform="translate(12.7,119.5)">
      <g
         id="text8"
         style="font-weight:bold;font-size:4.06400013px;font-family:'Proxima Nova';dominant-baseline:hanging;text-anchor:middle;fill:#004c99"
         aria-label="DHE">
        <path
           id="path94"
           style="font-weight:bold;font-size:4.06400013px;font-family:'Proxima Nova';dominant-baseline:hanging;text-anchor:middle;fill:#004c99"
           d="m -3.8632449,2.5684481 h 1.0688321 c 0.849376,0 1.438656,-0.5364481 1.438656,-1.3533121 0,-0.816864 -0.58928,-1.35737602 -1.438656,-1.35737602 h -1.0688321 z m 0.577088,-0.508 V 0.36576 h 0.4917441 c 0.556768,0 0.849376,0.36982401 0.849376,0.849376 0,0.459232 -0.312928,0.8453121 -0.849376,0.8453121 z" />
        <path
           id="path96"
           style="font-weight:bold;font-size:4.06400013px;font-family:'Proxima Nova';dominant-baseline:hanging;text-anchor:middle;fill:#004c99"
           d="M 0.91500319,2.5684481 H 1.4961552 V -0.14224002 H 0.91500319 V 0.92252801 H -0.36515685 V -0.14224002 H -0.94224487 V 2.5684481 h 0.57708802 V 1.430528 h 1.28016004 z" />
        <path
           id="path98"
           style="font-weight:bold;font-size:4.06400013px;font-family:'Proxima Nova';dominant-baseline:hanging;text-anchor:middle;fill:#004c99"
           d="m 2.0263802,2.5684481 h 1.9182081 v -0.508 H 2.6034682 V 1.446784 H 3.9161403 V 0.93878401 H 2.6034682 V 0.36576 H 3.9445883 V -0.14224002 H 2.0263802 Z" />
      </g>
    </g>
    <g
       id="g14"
       transform="translate(12.7,17.65)">
      <g
         id="text12"
         style="font-weight:bold;font-size:3.0480001px;font-family:'Proxima Nova';dominant-baseline:alphabetic;text-anchor:middle;fill:#004c99"
         aria-label="LEVEL">
        <path
           id="path101"
           style="font-weight:bold;font-size:3.0480001px;font-family:'Proxima Nova';dominant-baseline:alphabetic;text-anchor:middle;fill:#004c99"
           d="m -4.2160509,0 h 1.2923521 V -0.38100001 H -3.7832349 V -2.0330161 h -0.432816 z" />
        <path
           id="path103"
           style="font-weight:bold;font-size:3.0480001px;font-family:'Proxima Nova';dominant-baseline:alphabetic;text-anchor:middle;fill:#004c99"
           d="m -2.6206134,0 h 1.4386561 v -0.38100001 h -1.00584 v -0.46024802 h 0.984504 V -1.222248 h -0.984504 v -0.4297681 h 1.00584 v -0.381 h -1.4386561 z" />
        <path
           id="path105"
           style="font-weight:bold;font-size:3.0480001px;font-family:'Proxima Nova';dominant-baseline:alphabetic;text-anchor:middle;fill:#004c99"
           d="M -0.27065287,0 H 0.27189115 L 1.0552272,-2.0330161 H 0.56145116 L 6.1914318e-4,-0.46939201 -0.56326087,-2.0330161 H -1.0570369 Z" />
        <path
           id="path107"
           style="font-weight:bold;font-size:3.0480001px;font-family:'Proxima Nova';dominant-baseline:alphabetic;text-anchor:middle;fill:#004c99"
           d="M 1.242965,0 H 2.681621 V -0.38100001 H 1.675781 V -0.84124803 H 2.660285 V -1.222248 H 1.675781 v -0.4297681 h 1.00584 v -0.381 H 1.242965 Z" />
        <path
           id="path109"
           style="font-weight:bold;font-size:3.0480001px;font-family:'Proxima Nova';dominant-baseline:alphabetic;text-anchor:middle;fill:#004c99"
           d="M 3.0229494,0 H 4.3153015 V -0.38100001 H 3.4557654 V -2.0330161 h -0.432816 z" />
      </g>
    </g>
    <g
       id="g18"
       transform="translate(6.683,38.3)">
      <g
         id="text16"
         style="font-weight:bold;font-size:3.0480001px;font-family:'Proxima Nova';dominant-baseline:alphabetic;text-anchor:middle;fill:#004c99"
         aria-label="cv">
        <path
           id="path112"
           style="font-weight:bold;font-size:3.0480001px;font-family:'Proxima Nova';dominant-baseline:alphabetic;text-anchor:middle;fill:#004c99"
           d="m -1.4443234,-0.73761602 c 0,0.45415201 0.326136,0.77419202 0.780288,0.77419202 0.30175201,0 0.48463202,-0.131064 0.58216802,-0.26822401 l -0.25298401,-0.234696 c -0.070104,0.097536 -0.176784,0.158496 -0.31089601,0.158496 -0.234696,0 -0.399288,-0.17373601 -0.399288,-0.42976801 0,-0.25603201 0.164592,-0.42671998 0.399288,-0.42671998 0.13411201,0 0.24079201,0.054864 0.31089601,0.158496 l 0.25298401,-0.237744 c -0.097536,-0.134112 -0.28041601,-0.265176 -0.58216802,-0.265176 -0.454152,0 -0.780288,0.32004 -0.780288,0.77114398 z" />
        <path
           id="path114"
           style="font-weight:bold;font-size:3.0480001px;font-family:'Proxima Nova';dominant-baseline:alphabetic;text-anchor:middle;fill:#004c99"
           d="M 0.54921157,0 H 0.96678758 L 1.5580996,-1.472184 H 1.1405236 L 0.75647558,-0.44805601 0.37242756,-1.472184 h -0.41452801 z" />
      </g>
    </g>
    <g
       id="g22"
       transform="translate(18.717,47.5)">
      <g
         id="text20"
         style="font-weight:bold;font-size:2.37100005px;font-family:'Proxima Nova';dominant-baseline:hanging;text-anchor:middle;fill:#004c99"
         aria-label="BI">
        <path
           id="path117"
           style="font-weight:bold;font-size:2.37100005px;font-family:'Proxima Nova';dominant-baseline:hanging;text-anchor:middle;fill:#004c99"
           d="m -0.95260484,1.498472 h 0.85830202 c 0.301117,0 0.45997401,-0.18968 0.45997401,-0.42678 0,-0.19916404 -0.13514701,-0.36276304 -0.30348801,-0.38884404 0.149373,-0.030823 0.27266501,-0.16359901 0.27266501,-0.36276301 0,-0.211019 -0.15411501,-0.40307001 -0.45523201,-0.40307001 h -0.83222102 z m 0.33668201,-0.94840005 v -0.343795 h 0.42203801 c 0.113808,0 0.184938,0.073501 0.184938,0.173083 0,0.099582 -0.07113,0.170712 -0.184938,0.170712 z m 0,0.65676705 V 0.83933396 h 0.43389301 c 0.132776,0 0.203906,0.085356 0.203906,0.18493804 0,0.113808 -0.075872,0.182567 -0.203906,0.182567 z" />
        <path
           id="path119"
           style="font-weight:bold;font-size:2.37100005px;font-family:'Proxima Nova';dominant-baseline:hanging;text-anchor:middle;fill:#004c99"
           d="M 0.61725657,1.498472 H 0.95393858 V -0.08298506 H 0.61725657 Z" />
      </g>
    </g>
    <g
       id="g26"
       transform="translate(18.717,39.5)">
      <g
         id="text24"
         style="font-weight:bold;font-size:2.37100005px;font-family:'Proxima Nova';dominant-baseline:alphabetic;text-anchor:middle;fill:#004c99"
         aria-label="UNI">
        <path
           id="path122"
           style="font-weight:bold;font-size:2.37100005px;font-family:'Proxima Nova';dominant-baseline:alphabetic;text-anchor:middle;fill:#004c99"
           d="m -1.8996156,-0.63068601 c 0,0.388844 0.232358,0.65913801 0.713671,0.65913801 0.48131302,0 0.71367103,-0.26792301 0.71367103,-0.66150901 V -1.581457 h -0.34379501 v 0.93891599 c 0,0.220503 -0.125663,0.372247 -0.36987602,0.372247 -0.244213,0 -0.372247,-0.151744 -0.372247,-0.372247 V -1.581457 h -0.341424 z" />
        <path
           id="path124"
           style="font-weight:bold;font-size:2.37100005px;font-family:'Proxima Nova';dominant-baseline:alphabetic;text-anchor:middle;fill:#004c99"
           d="M 0.92761669,0 H 1.2524437 V -1.581457 H 0.91576169 v 0.99344899 L 0.18312267,-1.581457 H -0.16304334 V 0 h 0.33668201 v -1.031385 z" />
        <path
           id="path126"
           style="font-weight:bold;font-size:2.37100005px;font-family:'Proxima Nova';dominant-baseline:alphabetic;text-anchor:middle;fill:#004c99"
           d="m 1.5642673,0 h 0.336682 v -1.581457 h -0.336682 z" />
      </g>
    </g>
    <g
       id="g30"
       transform="translate(6.683,58)">
      <g
         id="text28"
         style="font-weight:bold;font-size:2.37100005px;font-family:'Proxima Nova';dominant-baseline:alphabetic;text-anchor:middle;fill:#f0f7ff"
         aria-label="WAIT">
        <path
           id="path129"
           style="font-weight:bold;font-size:2.37100005px;font-family:'Proxima Nova';dominant-baseline:alphabetic;text-anchor:middle;fill:#f0f7ff"
           d="m -1.4938597,0 h 0.358021 l 0.45049002,-1.581457 H -1.0647087 l -0.275036,1.14282199 -0.298746,-1.14282199 h -0.263181 l -0.301117,1.14282199 -0.277407,-1.14282199 h -0.376989 L -2.4043237,0 h 0.358021 l 0.275036,-1.085918 z" />
        <path
           id="path131"
           style="font-weight:bold;font-size:2.37100005px;font-family:'Proxima Nova';dominant-baseline:alphabetic;text-anchor:middle;fill:#f0f7ff"
           d="M 0.45758451,0 H 0.84168652 L 0.23233951,-1.581457 H -0.1896985 L -0.80141652,0 h 0.38410201 l 0.099582,-0.26792301 H 0.36037351 Z M 0.0213205,-1.244775 0.26790451,-0.56429801 H -0.2252635 Z" />
        <path
           id="path133"
           style="font-weight:bold;font-size:2.37100005px;font-family:'Proxima Nova';dominant-baseline:alphabetic;text-anchor:middle;fill:#f0f7ff"
           d="M 0.98772522,0 H 1.3244072 V -1.581457 H 0.98772522 Z" />
        <path
           id="path135"
           style="font-weight:bold;font-size:2.37100005px;font-family:'Proxima Nova';dominant-baseline:alphabetic;text-anchor:middle;fill:#f0f7ff"
           d="m 2.0011794,0 h 0.339053 v -1.285082 h 0.459974 v -0.296375 h -1.261372 v 0.296375 h 0.462345 z" />
      </g>
    </g>
    <g
       id="g34"
       transform="translate(18.717,58)">
      <g
         id="text32"
         style="font-weight:bold;font-size:2.37100005px;font-family:'Proxima Nova';dominant-baseline:alphabetic;text-anchor:middle;fill:#f0f7ff"
         aria-label="TRIG">
        <path
           id="path138"
           style="font-weight:bold;font-size:2.37100005px;font-family:'Proxima Nova';dominant-baseline:alphabetic;text-anchor:middle;fill:#f0f7ff"
           d="m -2.1087082,0 h 0.339053 v -1.285082 h 0.459974 v -0.296375 h -1.261372 v 0.296375 h 0.462345 z" />
        <path
           id="path140"
           style="font-weight:bold;font-size:2.37100005px;font-family:'Proxima Nova';dominant-baseline:alphabetic;text-anchor:middle;fill:#f0f7ff"
           d="m -0.19997898,0 h 0.38647301 l -0.35565001,-0.60223401 c 0.17071201,-0.040307 0.34616601,-0.18968001 0.34616601,-0.46945799 0,-0.294004 -0.201535,-0.509765 -0.53110401,-0.509765 H -1.093846 V 0 h 0.33668201 v -0.56192701 h 0.246584 z m 0.033194,-1.071692 c 0,0.13277598 -0.101953,0.21338998 -0.2371,0.21338998 H -0.75716399 V -1.285082 h 0.35327901 c 0.135147,0 0.2371,0.080614 0.2371,0.21339 z" />
        <path
           id="path142"
           style="font-weight:bold;font-size:2.37100005px;font-family:'Proxima Nova';dominant-baseline:alphabetic;text-anchor:middle;fill:#f0f7ff"
           d="m 0.42970678,0 h 0.336682 v -1.581457 h -0.336682 z" />
        <path
           id="path144"
           style="font-weight:bold;font-size:2.37100005px;font-family:'Proxima Nova';dominant-baseline:alphabetic;text-anchor:middle;fill:#f0f7ff"
           d="m 1.0021552,-0.78954302 c 0,0.49791001 0.37936,0.82036602 0.841705,0.82036602 0.286891,0 0.512136,-0.11855 0.673364,-0.29874601 v -0.60697601 h -0.753978 v 0.29400401 h 0.417296 v 0.18968 c -0.064017,0.059275 -0.196793,0.120921 -0.336682,0.120921 -0.286891,0 -0.495539,-0.220503 -0.495539,-0.51924901 0,-0.29874598 0.208648,-0.51924898 0.495539,-0.51924898 0.168341,0 0.303488,0.09484 0.374618,0.206277 l 0.279778,-0.151744 c -0.11855,-0.187309 -0.324827,-0.353279 -0.654396,-0.353279 -0.462345,0 -0.841705,0.317714 -0.841705,0.81799498 z" />
      </g>
    </g>
    <path
       id="rect36"
       d="m 2.483,74.220001 h 8.4 c 0.554,0 1,0.446 1,1 v 10.98 c 0,0.554 -0.446,1 -1,1 h -8.4 c -0.554,0 -1,-0.446 -1,-1 v -10.98 c 0,-0.554 0.446,-1 1,-1 z"
       style="fill:#f0f7ff;stroke:#004c99;stroke-width:0.34999999" />
    <g
       id="g40"
       transform="translate(6.683,76.8)">
      <g
         id="text38"
         style="font-weight:bold;font-size:2.37100005px;font-family:'Proxima Nova';dominant-baseline:alphabetic;text-anchor:middle;fill:#004c99"
         aria-label="WAIT">
        <path
           id="path148"
           style="font-weight:bold;font-size:2.37100005px;font-family:'Proxima Nova';dominant-baseline:alphabetic;text-anchor:middle;fill:#004c99"
           d="m -1.4938597,0 h 0.358021 l 0.45049002,-1.581457 H -1.0647087 l -0.275036,1.14282199 -0.298746,-1.14282199 h -0.263181 l -0.301117,1.14282199 -0.277407,-1.14282199 h -0.376989 L -2.4043237,0 h 0.358021 l 0.275036,-1.085918 z" />
        <path
           id="path150"
           style="font-weight:bold;font-size:2.37100005px;font-family:'Proxima Nova';dominant-baseline:alphabetic;text-anchor:middle;fill:#004c99"
           d="M 0.45758451,0 H 0.84168652 L 0.23233951,-1.581457 H -0.1896985 L -0.80141652,0 h 0.38410201 l 0.099582,-0.26792301 H 0.36037351 Z M 0.0213205,-1.244775 0.26790451,-0.56429801 H -0.2252635 Z" />
        <path
           id="path152"
           style="font-weight:bold;font-size:2.37100005px;font-family:'Proxima Nova';dominant-baseline:alphabetic;text-anchor:middle;fill:#004c99"
           d="M 0.98772522,0 H 1.3244072 V -1.581457 H 0.98772522 Z" />
        <path
           id="path154"
           style="font-weight:bold;font-size:2.37100005px;font-family:'Proxima Nova';dominant-baseline:alphabetic;text-anchor:middle;fill:#004c99"
           d="m 2.0011794,0 h 0.339053 v -1.285082 h 0.459974 v -0.296375 h -1.261372 v 0.296375 h 0.462345 z" />
      </g>
    </g>
    <path
       id="rect42"
       d="m 2.483,89.220001 h 8.4 c 0.554,0 1,0.446 1,1 V 101.2 c 0,0.554 -0.446,1 -1,1 h -8.4 c -0.554,0 -1,-0.446 -1,-1 V 90.220001 c 0,-0.554 0.446,-1 1,-1 z"
       style="fill:#f0f7ff;stroke:#004c99;stroke-width:0.34999999" />
    <g
       id="g46"
       transform="translate(6.683,91.8)">
      <g
         id="text44"
         style="font-weight:bold;font-size:2.37100005px;font-family:'Proxima Nova';dominant-baseline:alphabetic;text-anchor:middle;fill:#004c99"
         aria-label="TRIG">
        <path
           id="path158"
           style="font-weight:bold;font-size:2.37100005px;font-family:'Proxima Nova';dominant-baseline:alphabetic;text-anchor:middle;fill:#004c99"
           d="m -2.1087082,0 h 0.339053 v -1.285082 h 0.459974 v -0.296375 h -1.261372 v 0.296375 h 0.462345 z" />
        <path
           id="path160"
           style="font-weight:bold;font-size:2.37100005px;font-family:'Proxima Nova';dominant-baseline:alphabetic;text-anchor:middle;fill:#004c99"
           d="m -0.19997898,0 h 0.38647301 l -0.35565001,-0.60223401 c 0.17071201,-0.040307 0.34616601,-0.18968001 0.34616601,-0.46945799 0,-0.294004 -0.201535,-0.509765 -0.53110401,-0.509765 H -1.093846 V 0 h 0.33668201 v -0.56192701 h 0.246584 z m 0.033194,-1.071692 c 0,0.13277598 -0.101953,0.21338998 -0.2371,0.21338998 H -0.75716399 V -1.285082 h 0.35327901 c 0.135147,0 0.2371,0.080614 0.2371,0.21339 z" />
        <path
           id="path162"
           style="font-weight:bold;font-size:2.37100005px;font-family:'Proxima Nova';dominant-baseline:alphabetic;text-anchor:middle;fill:#004c99"
           d="m 0.42970678,0 h 0.336682 v -1.581457 h -0.336682 z" />
        <path
           id="path164"
           style="font-weight:bold;font-size:2.37100005px;font-family:'Proxima Nova';dominant-baseline:alphabetic;text-anchor:middle;fill:#004c99"
           d="m 1.0021552,-0.78954302 c 0,0.49791001 0.37936,0.82036602 0.841705,0.82036602 0.286891,0 0.512136,-0.11855 0.673364,-0.29874601 v -0.60697601 h -0.753978 v 0.29400401 h 0.417296 v 0.18968 c -0.064017,0.059275 -0.196793,0.120921 -0.336682,0.120921 -0.286891,0 -0.495539,-0.220503 -0.495539,-0.51924901 0,-0.29874598 0.208648,-0.51924898 0.495539,-0.51924898 0.168341,0 0.303488,0.09484 0.374618,0.206277 l 0.279778,-0.151744 c -0.11855,-0.187309 -0.324827,-0.353279 -0.654396,-0.353279 -0.462345,0 -0.841705,0.317714 -0.841705,0.81799498 z" />
      </g>
    </g>
    <path
       id="rect48"
       d="m 14.517,89.220001 h 8.4 c 0.554,0 1,0.446 1,1 V 101.2 c 0,0.554 -0.446,1 -1,1 h -8.4 c -0.554,0 -1,-0.446 -1,-1 V 90.220001 c 0,-0.554 0.446,-1 1,-1 z"
       style="fill:#004c99;stroke:#004c99;stroke-width:0.34999999" />
    <g
       id="g52"
       transform="translate(18.717,91.8)">
      <g
         id="text50"
         style="font-weight:bold;font-size:2.37100005px;font-family:'Proxima Nova';dominant-baseline:alphabetic;text-anchor:middle;fill:#f0f7ff"
         aria-label="TRIG">
        <path
           id="path168"
           style="font-weight:bold;font-size:2.37100005px;font-family:'Proxima Nova';dominant-baseline:alphabetic;text-anchor:middle;fill:#f0f7ff"
           d="m -2.1087082,0 h 0.339053 v -1.285082 h 0.459974 v -0.296375 h -1.261372 v 0.296375 h 0.462345 z" />
        <path
           id="path170"
           style="font-weight:bold;font-size:2.37100005px;font-family:'Proxima Nova';dominant-baseline:alphabetic;text-anchor:middle;fill:#f0f7ff"
           d="m -0.19997898,0 h 0.38647301 l -0.35565001,-0.60223401 c 0.17071201,-0.040307 0.34616601,-0.18968001 0.34616601,-0.46945799 0,-0.294004 -0.201535,-0.509765 -0.53110401,-0.509765 H -1.093846 V 0 h 0.33668201 v -0.56192701 h 0.246584 z m 0.033194,-1.071692 c 0,0.13277598 -0.101953,0.21338998 -0.2371,0.21338998 H -0.75716399 V -1.285082 h 0.35327901 c 0.135147,0 0.2371,0.080614 0.2371,0.21339 z" />
        <path
           id="path172"
           style="font-weight:bold;font-size:2.37100005px;font-family:'Proxima Nova';dominant-baseline:alphabetic;text-anchor:middle;fill:#f0f7ff"
           d="m 0.42970678,0 h 0.336682 v -1.581457 h -0.336682 z" />
        <path
           id="path174"
           style="font-weight:bold;font-size:2.37100005px;font-family:'Proxima Nova';dominant-baseline:alphabetic;text-anchor:middle;fill:#f0f7ff"
           d="m 1.0021552,-0.78954302 c 0,0.49791001 0.37936,0.82036602 0.841705,0.82036602 0.286891,0 0.512136,-0.11855 0.673364,-0.29874601 v -0.60697601 h -0.753978 v 0.29400401 h 0.417296 v 0.18968 c -0.064017,0.059275 -0.196793,0.120921 -0.336682,0.120921 -0.286891,0 -0.495539,-0.220503 -0.495539,-0.51924901 0,-0.29874598 0.208648,-0.51924898 0.495539,-0.51924898 0.168341,0 0.303488,0.09484 0.374618,0.206277 l 0.279778,-0.151744 c -0.11855,-0.187309 -0.324827,-0.353279 -0.654396,-0.353279 -0.462345,0 -0.841705,0.317714 -0.841705,0.81799498 z" />
      </g>
    </g>
    <g
       id="g56"
       transform="translate(18.717,91.8)">
      <g
         id="text54"
         style="font-weight:bold;font-size:2.37100005px;font-family:'Proxima Nova';dominant-baseline:alphabetic;text-anchor:middle;fill:#f0f7ff"
         aria-label="TRIG">
        <path
           id="path177"
           style="font-weight:bold;font-size:2.37100005px;font-family:'Proxima Nova';dominant-baseline:alphabetic;text-anchor:middle;fill:#f0f7ff"
           d="m -2.1087082,0 h 0.339053 v -1.285082 h 0.459974 v -0.296375 h -1.261372 v 0.296375 h 0.462345 z" />
        <path
           id="path179"
           style="font-weight:bold;font-size:2.37100005px;font-family:'Proxima Nova';dominant-baseline:alphabetic;text-anchor:middle;fill:#f0f7ff"
           d="m -0.19997898,0 h 0.38647301 l -0.35565001,-0.60223401 c 0.17071201,-0.040307 0.34616601,-0.18968001 0.34616601,-0.46945799 0,-0.294004 -0.201535,-0.509765 -0.53110401,-0.509765 H -1.093846 V 0 h 0.33668201 v -0.56192701 h 0.246584 z m 0.033194,-1.071692 c 0,0.13277598 -0.101953,0.21338998 -0.2371,0.21338998 H -0.75716399 V -1.285082 h 0.35327901 c 0.135147,0 0.2371,0.080614 0.2371,0.21339 z" />
        <path
           id="path181"
           style="font-weight:bold;font-size:2.37100005px;font-family:'Proxima Nova';dominant-baseline:alphabetic;text-anchor:middle;fill:#f0f7ff"
           d="m 0.42970678,0 h 0.336682 v -1.581457 h -0.336682 z" />
        <path
           id="path183"
           style="font-weight:bold;font-size:2.37100005px;font-family:'Proxima Nova';dominant-baseline:alphabetic;text-anchor:middle;fill:#f0f7ff"
           d="m 1.0021552,-0.78954302 c 0,0.49791001 0.37936,0.82036602 0.841705,0.82036602 0.286891,0 0.512136,-0.11855 0.673364,-0.29874601 v -0.60697601 h -0.753978 v 0.29400401 h 0.417296 v 0.18968 c -0.064017,0.059275 -0.196793,0.120921 -0.336682,0.120921 -0.286891,0 -0.495539,-0.220503 -0.495539,-0.51924901 0,-0.29874598 0.208648,-0.51924898 0.495539,-0.51924898 0.168341,0 0.303488,0.09484 0.374618,0.206277 l 0.279778,-0.151744 c -0.11855,-0.187309 -0.324827,-0.353279 -0.654396,-0.353279 -0.462345,0 -0.841705,0.317714 -0.841705,0.81799498 z" />
      </g>
    </g>
    <path
       id="rect58"
       d="m 14.517,104.22 h 8.4 c 0.554,0 1,0.446 1,1 v 10.98 c 0,0.554 -0.446,1 -1,1 h -8.4 c -0.554,0 -1,-0.446 -1,-1 v -10.98 c 0,-0.554 0.446,-1 1,-1 z"
       style="fill:#004c99;stroke:#004c99;stroke-width:0.34999999" />
    <g
       id="g62"
       transform="translate(18.717,106.8)">
      <g
         id="text60"
         style="font-weight:bold;font-size:2.37100005px;font-family:'Proxima Nova';dominant-baseline:alphabetic;text-anchor:middle;fill:#f0f7ff"
         aria-label="OUT">
        <path
           id="path187"
           style="font-weight:bold;font-size:2.37100005px;font-family:'Proxima Nova';dominant-baseline:alphabetic;text-anchor:middle;fill:#f0f7ff"
           d="m -2.3853187,-0.78954302 c 0,0.47657101 0.348537,0.81799502 0.825108,0.81799502 0.4789421,0 0.82747907,-0.34142401 0.82747907,-0.81799502 0,-0.47657098 -0.34853697,-0.81799498 -0.82747907,-0.81799498 -0.476571,0 -0.825108,0.341424 -0.825108,0.81799498 z m 1.3064211,0 c 0,0.29400401 -0.18968,0.51924901 -0.4813131,0.51924901 -0.291633,0 -0.478942,-0.225245 -0.478942,-0.51924901 0,-0.29637498 0.187309,-0.51924898 0.478942,-0.51924898 0.2916331,0 0.4813131,0.222874 0.4813131,0.51924898 z" />
        <path
           id="path189"
           style="font-weight:bold;font-size:2.37100005px;font-family:'Proxima Nova';dominant-baseline:alphabetic;text-anchor:middle;fill:#f0f7ff"
           d="m -0.49414978,-0.63068601 c 0,0.388844 0.23235801,0.65913801 0.71367102,0.65913801 0.48131301,0 0.71367101,-0.26792301 0.71367101,-0.66150901 V -1.581457 H 0.58939724 v 0.93891599 c 0,0.220503 -0.125663,0.372247 -0.369876,0.372247 -0.24421301,0 -0.37224701,-0.151744 -0.37224701,-0.372247 V -1.581457 h -0.34142401 z" />
        <path
           id="path191"
           style="font-weight:bold;font-size:2.37100005px;font-family:'Proxima Nova';dominant-baseline:alphabetic;text-anchor:middle;fill:#f0f7ff"
           d="m 1.6075565,0 h 0.339053 v -1.285082 h 0.459974 v -0.296375 h -1.261372 v 0.296375 h 0.462345 z" />
      </g>
    </g>
    <g
       id="g66"
       transform="translate(18.717,106.8)">
      <g
         id="text64"
         style="font-weight:bold;font-size:2.37100005px;font-family:'Proxima Nova';dominant-baseline:alphabetic;text-anchor:middle;fill:#f0f7ff"
         aria-label="OUT">
        <path
           id="path194"
           style="font-weight:bold;font-size:2.37100005px;font-family:'Proxima Nova';dominant-baseline:alphabetic;text-anchor:middle;fill:#f0f7ff"
           d="m -2.3853187,-0.78954302 c 0,0.47657101 0.348537,0.81799502 0.825108,0.81799502 0.4789421,0 0.82747907,-0.34142401 0.82747907,-0.81799502 0,-0.47657098 -0.34853697,-0.81799498 -0.82747907,-0.81799498 -0.476571,0 -0.825108,0.341424 -0.825108,0.81799498 z m 1.3064211,0 c 0,0.29400401 -0.18968,0.51924901 -0.4813131,0.51924901 -0.291633,0 -0.478942,-0.225245 -0.478942,-0.51924901 0,-0.29637498 0.187309,-0.51924898 0.478942,-0.51924898 0.2916331,0 0.4813131,0.222874 0.4813131,0.51924898 z" />
        <path
           id="path196"
           style="font-weight:bold;font-size:2.37100005px;font-family:'Proxima Nova';dominant-baseline:alphabetic;text-anchor:middle;fill:#f0f7ff"
           d="m -0.49414978,-0.63068601 c 0,0.388844 0.23235801,0.65913801 0.71367102,0.65913801 0.48131301,0 0.71367101,-0.26792301 0.71367101,-0.66150901 V -1.581457 H 0.58939724 v 0.93891599 c 0,0.220503 -0.125663,0.372247 -0.369876,0.372247 -0.24421301,0 -0.37224701,-0.151744 -0.37224701,-0.372247 V -1.581457 h -0.34142401 z" />
        <path
           id="path198"
           style="font-weight:bold;font-size:2.37100005px;font-family:'Proxima Nova';dominant-baseline:alphabetic;text-anchor:middle;fill:#f0f7ff"
           d="m 1.6075565,0 h 0.339053 v -1.285082 h 0.459974 v -0.296375 h -1.261372 v 0.296375 h 0.462345 z" />
      </g>
    </g>
  </g>
</svg>
