<?xml version="1.0" encoding="UTF-8" standalone="no"?>
<svg xmlns="http://www.w3.org/2000/svg" xmlns:svg="http://www.w3.org/2000/svg" version="1.1" width="55.880001mm" height="128.5mm" viewBox="0 0 55.88 128.5">
  <defs/>
  <g>
    <rect x="0.25" y="0.25" width="55.380001" height="128" fill="#f7f2fc" stroke="#7f00ff" stroke-width="0.5" rx="0.000" ry="0.000"/>
    <g transform="translate(27.94,9)">
      <g style="font-weight:bold;font-size:4.064px;font-family:'Proxima Nova';dominant-baseline:alphabetic;text-anchor:middle;fill:#7f00ff">
        <path d="m -6.5284987,0 h 0.69088 l -0.983488,-1.393952 0.922528,-1.3167361 h -0.694944 l -0.613664,0.926592 -0.621792,-0.926592 H -8.5157948 L -7.5932667,-1.389888 -8.5767548,0 h 0.686816 l 0.6827521,-0.99161603 z" style="font-weight:bold;font-size:4.064px;font-family:'Proxima Nova';dominant-baseline:alphabetic;text-anchor:middle;fill:#7f00ff"/>
        <path d="m -4.8258096,0 h 0.577088 v -1.109472 l 1.03632,-1.6012161 h -0.658368 l -0.666496,1.089152 -0.674624,-1.089152 h -0.6583681 l 1.0444481,1.6012161 z" style="font-weight:bold;font-size:4.064px;font-family:'Proxima Nova';dominant-baseline:alphabetic;text-anchor:middle;fill:#7f00ff"/>
        <path d="m -1.8287367,0.048768 c 0.617728,0 0.95910406,-0.32918401 1.15417607,-0.66649602 L -1.1703686,-0.85750403 c -0.1137921,0.22352001 -0.3576321,0.39420802 -0.6583681,0.39420802 -0.471424,0 -0.829056,-0.37795202 -0.829056,-0.89001599 0,-0.5120641 0.357632,-0.8900161 0.829056,-0.8900161 0.300736,0 0.544576,0.174752 0.6583681,0.394208 l 0.49580797,-0.24384 c -0.19100801,-0.337312 -0.53644807,-0.662432 -1.15417607,-0.662432 -0.79248,0 -1.4224,0.56896 -1.4224,1.4020801 0,0.83311998 0.62992,1.40208 1.4224,1.40208 z" style="font-weight:bold;font-size:4.064px;font-family:'Proxima Nova';dominant-baseline:alphabetic;text-anchor:middle;fill:#7f00ff"/>
        <path d="M -0.32708809,0 H 1.396048 V -0.50800002 H 0.24999993 V -2.7106881 h -0.57708802 z" style="font-weight:bold;font-size:4.064px;font-family:'Proxima Nova';dominant-baseline:alphabetic;text-anchor:middle;fill:#7f00ff"/>
        <path d="m 1.5589886,-1.353312 c 0,0.81686398 0.5974081,1.40208 1.4142721,1.40208 0.820928,0 1.418336,-0.58521602 1.418336,-1.40208 0,-0.8168641 -0.597408,-1.4020801 -1.418336,-1.4020801 -0.816864,0 -1.4142721,0.585216 -1.4142721,1.4020801 z m 2.2392641,0 c 0,0.50393597 -0.32512,0.89001599 -0.824992,0.89001599 -0.499872,0 -0.820928,-0.38608002 -0.820928,-0.89001599 0,-0.5080001 0.321056,-0.8900161 0.820928,-0.8900161 0.499872,0 0.824992,0.382016 0.824992,0.8900161 z" style="font-weight:bold;font-size:4.064px;font-family:'Proxima Nova';dominant-baseline:alphabetic;text-anchor:middle;fill:#7f00ff"/>
        <path d="m 4.8005364,0 h 0.577088 v -2.7106881 h -0.577088 z" style="font-weight:bold;font-size:4.064px;font-family:'Proxima Nova';dominant-baseline:alphabetic;text-anchor:middle;fill:#7f00ff"/>
        <path d="m 5.9117863,0 h 1.0688321 c 0.849376,0 1.438656,-0.53644802 1.438656,-1.353312 0,-0.8168641 -0.58928,-1.3573761 -1.438656,-1.3573761 H 5.9117863 Z M 6.4888744,-0.50800002 V -2.2026881 h 0.491744 c 0.556768,0 0.849376,0.369824 0.849376,0.8493761 0,0.45923197 -0.312928,0.84531198 -0.849376,0.84531198 z" style="font-weight:bold;font-size:4.064px;font-family:'Proxima Nova';dominant-baseline:alphabetic;text-anchor:middle;fill:#7f00ff"/>
      </g>
    </g>
    <g transform="translate(27.94,119.5)">
      <g style="font-weight:bold;font-size:4.064px;font-family:'Proxima Nova';dominant-baseline:hanging;text-anchor:middle;fill:#7f00ff">
        <path d="m -3.8632449,2.7584481 h 1.0688321 c 0.849376,0 1.438656,-0.5364481 1.438656,-1.3533121 0,-0.816864 -0.58928,-1.35737602 -1.438656,-1.35737602 H -3.8632449 Z M -3.2861569,2.250448 V 0.55575999 h 0.4917441 c 0.556768,0 0.849376,0.36982402 0.849376,0.84937601 0,0.459232 -0.312928,0.845312 -0.849376,0.845312 z" style="font-weight:bold;font-size:4.064px;font-family:'Proxima Nova';dominant-baseline:hanging;text-anchor:middle;fill:#7f00ff"/>
        <path d="M 0.91500319,2.7584481 H 1.4961552 V 0.04775998 H 0.91500319 V 1.112528 H -0.36515685 V 0.04775998 H -0.94224487 V 2.7584481 h 0.57708802 V 1.620528 h 1.28016004 z" style="font-weight:bold;font-size:4.064px;font-family:'Proxima Nova';dominant-baseline:hanging;text-anchor:middle;fill:#7f00ff"/>
        <path d="M 2.0263802,2.7584481 H 3.9445883 V 2.258576 H 2.6034682 V 1.628656 H 3.9161403 V 1.132848 H 2.6034682 V 0.54356799 H 3.9445883 V 0.04775998 H 2.0263802 Z" style="font-weight:bold;font-size:4.064px;font-family:'Proxima Nova';dominant-baseline:hanging;text-anchor:middle;fill:#7f00ff"/>
      </g>
    </g>
    <line x1="7.9829998" y1="25" x2="34.591999" y2="25" stroke="#7f00ff" stroke-width="0.35"/>
    <g transform="translate(7.983,19.8)">
      <g style="font-weight:bold;font-size:2.371px;font-family:'Proxima Nova';dominant-baseline:alphabetic;text-anchor:middle;fill:#7f00ff">
        <path d="m -0.7103368,0.028452 c 0.36039201,0 0.55955602,-0.192051 0.67336402,-0.38884401 l -0.28926201,-0.139889 c -0.066388,0.130405 -0.208648,0.229987 -0.38410201,0.229987 -0.275036,0 -0.483684,-0.220503 -0.483684,-0.51924901 0,-0.29874598 0.208648,-0.51924898 0.483684,-0.51924898 0.17545401,0 0.31771401,0.101953 0.38410201,0.229987 l 0.28926201,-0.14226 c -0.111437,-0.196793 -0.31297201,-0.386473 -0.67336402,-0.386473 -0.462345,0 -0.82985,0.33194 -0.82985,0.81799498 0,0.48605501 0.367505,0.81799502 0.82985,0.81799502 z" style="font-weight:bold;font-size:2.371px;font-family:'Proxima Nova';dominant-baseline:alphabetic;text-anchor:middle;fill:#7f00ff"/>
        <path d="M 0.59986305,0 H 1.0219011 l 0.609347,-1.581457 H 1.2471461 L 0.81088205,-0.36513401 0.37224704,-1.581457 h -0.384102 z" style="font-weight:bold;font-size:2.371px;font-family:'Proxima Nova';dominant-baseline:alphabetic;text-anchor:middle;fill:#7f00ff"/>
      </g>
    </g>
    <g transform="translate(21.288,20.5)">
      <g style="font-weight:bold;font-size:3.048px;font-family:'Proxima Nova';dominant-baseline:alphabetic;text-anchor:middle;fill:#7f00ff">
        <path d="m -1.8969038,-0.57302402 h 0.73152 v -0.32918401 h -0.73152 z" style="font-weight:bold;font-size:3.048px;font-family:'Proxima Nova';dominant-baseline:alphabetic;text-anchor:middle;fill:#7f00ff"/>
        <path d="m 1.3546456,-0.90830403 h 0.545592 V -1.149096 H 1.3546456 V -1.7434561 H 1.0894696 V -1.149096 H 0.54082954 v 0.24079197 H 1.0894696 v 0.61874402 h 0.265176 z" style="font-weight:bold;font-size:3.048px;font-family:'Proxima Nova';dominant-baseline:alphabetic;text-anchor:middle;fill:#7f00ff"/>
      </g>
    </g>
    <g transform="translate(34.592,17.65)">
      <g style="font-weight:bold;font-size:3.048px;font-family:'Proxima Nova';dominant-baseline:alphabetic;text-anchor:middle;fill:#7f00ff">
        <path d="m -4.6777276,-0.28651201 c 0.192024,0.19202401 0.47244,0.32308801 0.862584,0.32308801 0.54864,0 0.813816,-0.28041601 0.813816,-0.65227202 0,-0.45110398 -0.42672,-0.55168798 -0.762,-0.62788798 -0.234696,-0.054864 -0.405384,-0.097536 -0.405384,-0.234696 0,-0.1219201 0.103632,-0.2072641 0.298704,-0.2072641 0.19812,0 0.417576,0.070104 0.582168,0.2225041 l 0.240792,-0.3169921 c -0.201168,-0.185928 -0.469392,-0.283464 -0.79248,-0.283464 -0.478536,0 -0.771144,0.27432 -0.771144,0.6126481 0,0.45415197 0.42672,0.54559197 0.758952,0.62179197 0.234696,0.054864 0.41148,0.10668001 0.41148,0.25908001 0,0.11582401 -0.115824,0.22860001 -0.353568,0.22860001 -0.280416,0 -0.50292,-0.124968 -0.646176,-0.27432001 z" style="font-weight:bold;font-size:3.048px;font-family:'Proxima Nova';dominant-baseline:alphabetic;text-anchor:middle;fill:#7f00ff"/>
        <path d="m -2.7099102,0 h 0.432816 v -0.72847202 h 0.51816 c 0.438912,0 0.682752,-0.29565598 0.682752,-0.64922398 0,-0.3566161 -0.240792,-0.6553201 -0.682752,-0.6553201 h -0.950976 z m 1.191768,-1.380744 c 0,0.170688 -0.128016,0.280416 -0.298704,0.280416 h -0.460248 v -0.5608321 h 0.460248 c 0.170688,0 0.298704,0.1127761 0.298704,0.2804161 z" style="font-weight:bold;font-size:3.048px;font-family:'Proxima Nova';dominant-baseline:alphabetic;text-anchor:middle;fill:#7f00ff"/>
        <path d="M -0.81086321,0 H 0.62779284 V -0.37490401 H -0.37804719 V -0.84734403 H 0.60645684 V -1.2192 h -0.98450403 v -0.4419601 h 1.00584003 v -0.371856 h -1.43865605 z" style="font-weight:bold;font-size:3.048px;font-family:'Proxima Nova';dominant-baseline:alphabetic;text-anchor:middle;fill:#7f00ff"/>
        <path d="M 0.96912127,0 H 2.4077773 v -0.37490401 h -1.00584 v -0.47244002 h 0.984504 V -1.2192 h -0.984504 v -0.4419601 h 1.00584 v -0.371856 H 0.96912127 Z" style="font-weight:bold;font-size:3.048px;font-family:'Proxima Nova';dominant-baseline:alphabetic;text-anchor:middle;fill:#7f00ff"/>
        <path d="m 2.7491057,0 h 0.8016241 c 0.637032,0 1.078992,-0.40233601 1.078992,-1.014984 0,-0.6126481 -0.44196,-1.0180321 -1.078992,-1.0180321 H 2.7491057 Z M 3.1819218,-0.38100001 V -1.6520161 h 0.368808 c 0.417576,0 0.637032,0.2773681 0.637032,0.6370321 0,0.34442398 -0.234696,0.63398399 -0.637032,0.63398399 z" style="font-weight:bold;font-size:3.048px;font-family:'Proxima Nova';dominant-baseline:alphabetic;text-anchor:middle;fill:#7f00ff"/>
      </g>
    </g>
    <line x1="7.9829998" y1="43.5" x2="47.896999" y2="43.5" stroke="#7f00ff" stroke-width="0.35"/>
    <g transform="translate(7.983,38.3)">
      <g style="font-weight:bold;font-size:2.371px;font-family:'Proxima Nova';dominant-baseline:alphabetic;text-anchor:middle;fill:#7f00ff">
        <path d="m -0.7103368,0.028452 c 0.36039201,0 0.55955602,-0.192051 0.67336402,-0.38884401 l -0.28926201,-0.139889 c -0.066388,0.130405 -0.208648,0.229987 -0.38410201,0.229987 -0.275036,0 -0.483684,-0.220503 -0.483684,-0.51924901 0,-0.29874598 0.208648,-0.51924898 0.483684,-0.51924898 0.17545401,0 0.31771401,0.101953 0.38410201,0.229987 l 0.28926201,-0.14226 c -0.111437,-0.196793 -0.31297201,-0.386473 -0.67336402,-0.386473 -0.462345,0 -0.82985,0.33194 -0.82985,0.81799498 0,0.48605501 0.367505,0.81799502 0.82985,0.81799502 z" style="font-weight:bold;font-size:2.371px;font-family:'Proxima Nova';dominant-baseline:alphabetic;text-anchor:middle;fill:#7f00ff"/>
        <path d="M 0.59986305,0 H 1.0219011 l 0.609347,-1.581457 H 1.2471461 L 0.81088205,-0.36513401 0.37224704,-1.581457 h -0.384102 z" style="font-weight:bold;font-size:2.371px;font-family:'Proxima Nova';dominant-baseline:alphabetic;text-anchor:middle;fill:#7f00ff"/>
      </g>
    </g>
    <g transform="translate(21.288,39)">
      <g style="font-weight:bold;font-size:3.048px;font-family:'Proxima Nova';dominant-baseline:alphabetic;text-anchor:middle;fill:#7f00ff">
        <path d="m -1.8969038,-0.57302402 h 0.73152 v -0.32918401 h -0.73152 z" style="font-weight:bold;font-size:3.048px;font-family:'Proxima Nova';dominant-baseline:alphabetic;text-anchor:middle;fill:#7f00ff"/>
        <path d="m 1.3546456,-0.90830403 h 0.545592 V -1.149096 H 1.3546456 V -1.7434561 H 1.0894696 V -1.149096 H 0.54082954 v 0.24079197 H 1.0894696 v 0.61874402 h 0.265176 z" style="font-weight:bold;font-size:3.048px;font-family:'Proxima Nova';dominant-baseline:alphabetic;text-anchor:middle;fill:#7f00ff"/>
      </g>
    </g>
    <g transform="translate(34.592,36.15)">
      <g style="font-weight:bold;font-size:3.048px;font-family:'Proxima Nova';dominant-baseline:alphabetic;text-anchor:middle;fill:#7f00ff">
        <path d="m -3.0431423,0 h 0.496824 l -0.4572,-0.77419202 c 0.219456,-0.051816 0.445008,-0.24383998 0.445008,-0.60350398 0,-0.3779521 -0.25908,-0.6553201 -0.6827521,-0.6553201 h -0.950976 V 0 h 0.432816 v -0.72847202 h 0.316992 z m 0.042672,-1.380744 c 0,0.170688 -0.131064,0.280416 -0.3048001,0.280416 h -0.454152 v -0.5608321 h 0.454152 c 0.1737361,0 0.3048001,0.1097281 0.3048001,0.2804161 z" style="font-weight:bold;font-size:3.048px;font-family:'Proxima Nova';dominant-baseline:alphabetic;text-anchor:middle;fill:#7f00ff"/>
        <path d="m -0.81024411,0 h 0.47244002 L -1.1211401,-2.0330161 h -0.542544 L -2.4500682,0 h 0.4754881 l 0.128016,-0.35052001 h 0.90830399 z m -0.58216799,-1.6581121 0.33528,0.93268808 h -0.673608 z" style="font-weight:bold;font-size:3.048px;font-family:'Proxima Nova';dominant-baseline:alphabetic;text-anchor:middle;fill:#7f00ff"/>
        <path d="M 0.12287249,0 H 0.55873651 V -1.6520161 H 1.1500485 v -0.381 h -1.62153603 v 0.381 h 0.59436002 z" style="font-weight:bold;font-size:3.048px;font-family:'Proxima Nova';dominant-baseline:alphabetic;text-anchor:middle;fill:#7f00ff"/>
        <path d="M 1.4275116,0 H 1.8603277 V -2.0330161 H 1.4275116 Z" style="font-weight:bold;font-size:3.048px;font-family:'Proxima Nova';dominant-baseline:alphabetic;text-anchor:middle;fill:#7f00ff"/>
        <path d="m 2.1634131,-1.014984 c 0,0.61264799 0.448056,1.05156 1.060704,1.05156 0.615696,0 1.063752,-0.43891201 1.063752,-1.05156 0,-0.6126481 -0.448056,-1.0515601 -1.063752,-1.0515601 -0.612648,0 -1.060704,0.438912 -1.060704,1.0515601 z m 1.679448,0 c 0,0.37795198 -0.24384,0.66751199 -0.618744,0.66751199 -0.374904,0 -0.615696,-0.28956001 -0.615696,-0.66751199 0,-0.381 0.240792,-0.6675121 0.615696,-0.6675121 0.374904,0 0.618744,0.2865121 0.618744,0.6675121 z" style="font-weight:bold;font-size:3.048px;font-family:'Proxima Nova';dominant-baseline:alphabetic;text-anchor:middle;fill:#7f00ff"/>
      </g>
    </g>
    <g transform="translate(47.897,47.5)">
      <g style="font-weight:bold;font-size:2.371px;font-family:'Proxima Nova';dominant-baseline:hanging;text-anchor:middle;fill:#7f00ff">
        <path d="m -2.909143,1.609472 h 1.0053041 V 1.313097 H -2.572461 V 0.02801494 h -0.336682 z" style="font-weight:bold;font-size:2.371px;font-family:'Proxima Nova';dominant-baseline:hanging;text-anchor:middle;fill:#7f00ff"/>
        <path d="m -1.8087767,0.81992896 c 0,0.47657104 0.348537,0.81799504 0.82510805,0.81799504 0.47894201,0 0.82747901,-0.341424 0.82747901,-0.81799504 0,-0.47657101 -0.348537,-0.81799502 -0.82747901,-0.81799502 -0.47657105,0 -0.82510805,0.34142401 -0.82510805,0.81799502 z m 1.30642106,0 c 0,0.29400404 -0.18968001,0.51924904 -0.48131301,0.51924904 -0.29163305,0 -0.47894205,-0.225245 -0.47894205,-0.51924904 0,-0.29637501 0.187309,-0.51924901 0.47894205,-0.51924901 0.291633,0 0.48131301,0.222874 0.48131301,0.51924901 z" style="font-weight:bold;font-size:2.371px;font-family:'Proxima Nova';dominant-baseline:hanging;text-anchor:middle;fill:#7f00ff"/>
        <path d="m 0.83637023,1.637924 c 0.36039197,0 0.55955597,-0.192051 0.67336397,-0.388844 L 1.2204722,1.109191 c -0.066388,0.130405 -0.208648,0.229987 -0.38410197,0.229987 -0.275036,0 -0.48368401,-0.220503 -0.48368401,-0.51924904 0,-0.29874601 0.20864801,-0.51924901 0.48368401,-0.51924901 0.17545397,0 0.31771397,0.101953 0.38410197,0.229987 l 0.289262,-0.14226 c -0.111437,-0.196793 -0.312972,-0.38647301 -0.67336397,-0.38647301 -0.46234501,0 -0.82985001,0.33194001 -0.82985001,0.81799502 0,0.48605504 0.367505,0.81799504 0.82985001,0.81799504 z" style="font-weight:bold;font-size:2.371px;font-family:'Proxima Nova';dominant-baseline:hanging;text-anchor:middle;fill:#7f00ff"/>
        <path d="m 2.6513708,1.609472 h 0.414925 L 2.3953028,0.77013796 3.0236178,0.02801494 H 2.6086928 L 2.0491368,0.73457296 V 0.02801494 H 1.7124548 V 1.609472 h 0.336682 V 1.123417 l 0.123292,-0.14700204 z" style="font-weight:bold;font-size:2.371px;font-family:'Proxima Nova';dominant-baseline:hanging;text-anchor:middle;fill:#7f00ff"/>
      </g>
    </g>
    <g transform="translate(47.897,39.5)">
      <g style="font-weight:bold;font-size:2.371px;font-family:'Proxima Nova';dominant-baseline:alphabetic;text-anchor:middle;fill:#7f00ff">
        <path d="m -2.6660228,0 h 0.336682 v -0.65913801 h 0.765833 v -0.28926201 h -0.765833 V -1.292195 h 0.78243 v -0.289262 h -1.119112 z" style="font-weight:bold;font-size:2.371px;font-family:'Proxima Nova';dominant-baseline:alphabetic;text-anchor:middle;fill:#7f00ff"/>
        <path d="m -0.41994483,0 h 0.38647301 l -0.35565001,-0.60223401 c 0.17071201,-0.040307 0.34616601,-0.18968001 0.34616601,-0.46945799 0,-0.294004 -0.20153501,-0.509765 -0.53110401,-0.509765 H -1.3138118 V 0 h 0.33668196 v -0.56666901 h 0.246584 z m 0.033194,-1.074063 c 0,0.13277598 -0.101953,0.21813198 -0.2371,0.21813198 H -0.97712984 V -1.292195 h 0.35327901 c 0.135147,0 0.2371,0.085356 0.2371,0.218132 z" style="font-weight:bold;font-size:2.371px;font-family:'Proxima Nova';dominant-baseline:alphabetic;text-anchor:middle;fill:#7f00ff"/>
        <path d="M 0.20974105,0 H 1.3288531 V -0.29163301 H 0.54642305 v -0.367505 H 1.3122561 V -0.94840002 H 0.54642305 V -1.292195 H 1.3288531 V -1.581457 H 0.20974105 Z" style="font-weight:bold;font-size:2.371px;font-family:'Proxima Nova';dominant-baseline:alphabetic;text-anchor:middle;fill:#7f00ff"/>
        <path d="m 1.5943679,0 h 1.119112 v -0.29163301 h -0.78243 v -0.367505 h 0.765833 V -0.94840002 H 1.9310499 V -1.292195 h 0.78243 v -0.289262 h -1.119112 z" style="font-weight:bold;font-size:2.371px;font-family:'Proxima Nova';dominant-baseline:alphabetic;text-anchor:middle;fill:#7f00ff"/>
      </g>
    </g>
    <line x1="7.9829998" y1="62" x2="47.896999" y2="62" stroke="#7f00ff" stroke-width="0.35"/>
    <g transform="translate(7.983,56.8)">
      <g style="font-weight:bold;font-size:2.371px;font-family:'Proxima Nova';dominant-baseline:alphabetic;text-anchor:middle;fill:#7f00ff">
        <path d="m -0.7103368,0.028452 c 0.36039201,0 0.55955602,-0.192051 0.67336402,-0.38884401 l -0.28926201,-0.139889 c -0.066388,0.130405 -0.208648,0.229987 -0.38410201,0.229987 -0.275036,0 -0.483684,-0.220503 -0.483684,-0.51924901 0,-0.29874598 0.208648,-0.51924898 0.483684,-0.51924898 0.17545401,0 0.31771401,0.101953 0.38410201,0.229987 l 0.28926201,-0.14226 c -0.111437,-0.196793 -0.31297201,-0.386473 -0.67336402,-0.386473 -0.462345,0 -0.82985,0.33194 -0.82985,0.81799498 0,0.48605501 0.367505,0.81799502 0.82985,0.81799502 z" style="font-weight:bold;font-size:2.371px;font-family:'Proxima Nova';dominant-baseline:alphabetic;text-anchor:middle;fill:#7f00ff"/>
        <path d="M 0.59986305,0 H 1.0219011 l 0.609347,-1.581457 H 1.2471461 L 0.81088205,-0.36513401 0.37224704,-1.581457 h -0.384102 z" style="font-weight:bold;font-size:2.371px;font-family:'Proxima Nova';dominant-baseline:alphabetic;text-anchor:middle;fill:#7f00ff"/>
      </g>
    </g>
    <g transform="translate(21.288,57.5)">
      <g style="font-weight:bold;font-size:3.048px;font-family:'Proxima Nova';dominant-baseline:alphabetic;text-anchor:middle;fill:#7f00ff">
        <path d="m -1.8969038,-0.57302402 h 0.73152 v -0.32918401 h -0.73152 z" style="font-weight:bold;font-size:3.048px;font-family:'Proxima Nova';dominant-baseline:alphabetic;text-anchor:middle;fill:#7f00ff"/>
        <path d="m 1.3546456,-0.90830403 h 0.545592 V -1.149096 H 1.3546456 V -1.7434561 H 1.0894696 V -1.149096 H 0.54082954 v 0.24079197 H 1.0894696 v 0.61874402 h 0.265176 z" style="font-weight:bold;font-size:3.048px;font-family:'Proxima Nova';dominant-baseline:alphabetic;text-anchor:middle;fill:#7f00ff"/>
      </g>
    </g>
    <g transform="translate(34.592,54.65)">
      <g style="font-weight:bold;font-size:3.048px;font-family:'Proxima Nova';dominant-baseline:alphabetic;text-anchor:middle;fill:#7f00ff">
        <path d="m -4.7339728,0 h 0.801624 c 0.6370321,0 1.0789921,-0.40233601 1.0789921,-1.014984 0,-0.6126481 -0.44196,-1.0180321 -1.0789921,-1.0180321 h -0.801624 z m 0.432816,-0.38100001 V -1.6520161 h 0.368808 c 0.4175761,0 0.6370321,0.2773681 0.6370321,0.6370321 0,0.34442398 -0.234696,0.63398399 -0.6370321,0.63398399 z" style="font-weight:bold;font-size:3.048px;font-family:'Proxima Nova';dominant-baseline:alphabetic;text-anchor:middle;fill:#7f00ff"/>
        <path d="m -2.5432227,0 h 1.4386561 v -0.37490401 h -1.00584 v -0.47244002 h 0.984504 V -1.2192 h -0.984504 v -0.4419601 h 1.00584 v -0.371856 h -1.4386561 z" style="font-weight:bold;font-size:3.048px;font-family:'Proxima Nova';dominant-baseline:alphabetic;text-anchor:middle;fill:#7f00ff"/>
        <path d="m -0.76323818,0 h 0.43281601 v -0.72847202 h 0.51816002 c 0.43891201,0 0.68275202,-0.29565598 0.68275202,-0.64922398 0,-0.3566161 -0.24079201,-0.6553201 -0.68275202,-0.6553201 h -0.95097603 z m 1.19176804,-1.380744 c 0,0.170688 -0.12801601,0.280416 -0.29870401,0.280416 h -0.46024802 v -0.5608321 h 0.46024802 c 0.170688,0 0.29870401,0.1127761 0.29870401,0.2804161 z" style="font-weight:bold;font-size:3.048px;font-family:'Proxima Nova';dominant-baseline:alphabetic;text-anchor:middle;fill:#7f00ff"/>
        <path d="m 1.6052007,0 h 0.435864 v -1.6520161 h 0.5913121 v -0.381 H 1.0108407 v 0.381 h 0.59436 z" style="font-weight:bold;font-size:3.048px;font-family:'Proxima Nova';dominant-baseline:alphabetic;text-anchor:middle;fill:#7f00ff"/>
        <path d="m 4.3027759,0 h 0.435864 V -2.0330161 H 4.3027759 V -1.23444 h -0.96012 V -2.0330161 H 2.9098399 V 0 h 0.432816 v -0.85344003 h 0.96012 z" style="font-weight:bold;font-size:3.048px;font-family:'Proxima Nova';dominant-baseline:alphabetic;text-anchor:middle;fill:#7f00ff"/>
      </g>
    </g>
    <g transform="translate(47.897,67.5)">
      <g style="font-weight:bold;font-size:2.371px;font-family:'Proxima Nova';dominant-baseline:hanging;text-anchor:middle;fill:#7f00ff">
        <path d="m -1.0313295,1.609472 h 0.33668206 V 0.02801494 H -1.0313295 Z" style="font-weight:bold;font-size:2.371px;font-family:'Proxima Nova';dominant-baseline:hanging;text-anchor:middle;fill:#7f00ff"/>
        <path d="M 0.70765089,1.609472 H 1.0324779 V 0.02801494 H 0.69579589 V 1.052287 L -0.03684313,0.02801494 h -0.346166 V 1.609472 h 0.336682 V 0.54726395 Z" style="font-weight:bold;font-size:2.371px;font-family:'Proxima Nova';dominant-baseline:hanging;text-anchor:middle;fill:#7f00ff"/>
      </g>
    </g>
    <g transform="translate(47.897,56.5)">
      <g style="font-weight:bold;font-size:2.371px;font-family:'Proxima Nova';dominant-baseline:alphabetic;text-anchor:middle;fill:#7f00ff">
        <path d="m -2.3806878,-0.78954302 c 0,0.47657101 0.348537,0.81799502 0.825108,0.81799502 0.478942,0 0.82747903,-0.34142401 0.82747903,-0.81799502 0,-0.47657098 -0.34853703,-0.81799498 -0.82747903,-0.81799498 -0.476571,0 -0.825108,0.341424 -0.825108,0.81799498 z m 1.306421,0 c 0,0.29400401 -0.18968,0.51924901 -0.481313,0.51924901 -0.291633,0 -0.478942,-0.225245 -0.478942,-0.51924901 0,-0.29637498 0.187309,-0.51924898 0.478942,-0.51924898 0.291633,0 0.481313,0.222874 0.481313,0.51924898 z" style="font-weight:bold;font-size:2.371px;font-family:'Proxima Nova';dominant-baseline:alphabetic;text-anchor:middle;fill:#7f00ff"/>
        <path d="m -0.48951892,-0.63068601 c 0,0.388844 0.22524501,0.65913801 0.70892902,0.65913801 0.47894201,0 0.70418701,-0.26792301 0.70418701,-0.66150901 V -1.581457 H 0.5821731 v 0.93891599 c 0,0.220503 -0.120921,0.372247 -0.362763,0.372247 -0.24658401,0 -0.36750501,-0.151744 -0.36750501,-0.372247 V -1.581457 h -0.34142401 z" style="font-weight:bold;font-size:2.371px;font-family:'Proxima Nova';dominant-baseline:alphabetic;text-anchor:middle;fill:#7f00ff"/>
        <path d="m 1.6029255,0 h 0.339053 v -1.285082 h 0.459974 v -0.296375 h -1.261372 v 0.296375 h 0.462345 z" style="font-weight:bold;font-size:2.371px;font-family:'Proxima Nova';dominant-baseline:alphabetic;text-anchor:middle;fill:#7f00ff"/>
      </g>
    </g>
    <g transform="translate(50.397,62)">
      <g style="font-weight:bold;font-size:2.371px;font-family:'Proxima Nova';dominant-baseline:middle;fill:#7f00ff"/>
    </g>
    <line x1="7.9829998" y1="80.5" x2="34.591999" y2="80.5" stroke="#7f00ff" stroke-width="0.35"/>
    <g transform="translate(7.983,75.3)">
      <g style="font-weight:bold;font-size:2.371px;font-family:'Proxima Nova';dominant-baseline:alphabetic;text-anchor:middle;fill:#7f00ff">
        <path d="m -0.7103368,0.028452 c 0.36039201,0 0.55955602,-0.192051 0.67336402,-0.38884401 l -0.28926201,-0.139889 c -0.066388,0.130405 -0.208648,0.229987 -0.38410201,0.229987 -0.275036,0 -0.483684,-0.220503 -0.483684,-0.51924901 0,-0.29874598 0.208648,-0.51924898 0.483684,-0.51924898 0.17545401,0 0.31771401,0.101953 0.38410201,0.229987 l 0.28926201,-0.14226 c -0.111437,-0.196793 -0.31297201,-0.386473 -0.67336402,-0.386473 -0.462345,0 -0.82985,0.33194 -0.82985,0.81799498 0,0.48605501 0.367505,0.81799502 0.82985,0.81799502 z" style="font-weight:bold;font-size:2.371px;font-family:'Proxima Nova';dominant-baseline:alphabetic;text-anchor:middle;fill:#7f00ff"/>
        <path d="M 0.59986305,0 H 1.0219011 l 0.609347,-1.581457 H 1.2471461 L 0.81088205,-0.36513401 0.37224704,-1.581457 h -0.384102 z" style="font-weight:bold;font-size:2.371px;font-family:'Proxima Nova';dominant-baseline:alphabetic;text-anchor:middle;fill:#7f00ff"/>
      </g>
    </g>
    <g transform="translate(21.288,76)">
      <g style="font-weight:bold;font-size:3.048px;font-family:'Proxima Nova';dominant-baseline:alphabetic;text-anchor:middle;fill:#7f00ff">
        <path d="m -1.8969038,-0.57302402 h 0.73152 v -0.32918401 h -0.73152 z" style="font-weight:bold;font-size:3.048px;font-family:'Proxima Nova';dominant-baseline:alphabetic;text-anchor:middle;fill:#7f00ff"/>
        <path d="m 1.3546456,-0.90830403 h 0.545592 V -1.149096 H 1.3546456 V -1.7434561 H 1.0894696 V -1.149096 H 0.54082954 v 0.24079197 H 1.0894696 v 0.61874402 h 0.265176 z" style="font-weight:bold;font-size:3.048px;font-family:'Proxima Nova';dominant-baseline:alphabetic;text-anchor:middle;fill:#7f00ff"/>
      </g>
    </g>
    <g transform="translate(34.592,73.15)">
      <g style="font-weight:bold;font-size:3.048px;font-family:'Proxima Nova';dominant-baseline:alphabetic;text-anchor:middle;fill:#7f00ff">
        <path d="m -4.6952775,0 h 0.4328161 v -0.72847202 h 0.51816 c 0.438912,0 0.682752,-0.29565598 0.682752,-0.64922398 0,-0.3566161 -0.240792,-0.6553201 -0.682752,-0.6553201 h -0.9509761 z m 1.1917681,-1.380744 c 0,0.170688 -0.128016,0.280416 -0.298704,0.280416 h -0.460248 v -0.5608321 h 0.460248 c 0.170688,0 0.298704,0.1127761 0.298704,0.2804161 z" style="font-weight:bold;font-size:3.048px;font-family:'Proxima Nova';dominant-baseline:alphabetic;text-anchor:middle;fill:#7f00ff"/>
        <path d="m -1.4032945,0 h 0.43586399 V -2.0330161 H -1.4032945 V -1.23444 h -0.9601201 v -0.7985761 h -0.432816 V 0 h 0.432816 v -0.85344003 h 0.9601201 z" style="font-weight:bold;font-size:3.048px;font-family:'Proxima Nova';dominant-baseline:alphabetic;text-anchor:middle;fill:#7f00ff"/>
        <path d="M 0.85365452,0 H 1.3260945 L 0.54275851,-2.0330161 H 2.1449365e-4 L -0.78616953,0 h 0.47548801 l 0.12801601,-0.35052001 H 0.72563852 Z M 0.2714865,-1.6581121 0.60676651,-0.72542402 h -0.67360802 z" style="font-weight:bold;font-size:3.048px;font-family:'Proxima Nova';dominant-baseline:alphabetic;text-anchor:middle;fill:#7f00ff"/>
        <path d="M 1.3498115,-0.28651201 C 1.5418356,-0.094488 1.8222516,0.036576 2.2123956,0.036576 c 0.54864,0 0.813816,-0.28041601 0.813816,-0.65227202 0,-0.45110398 -0.42672,-0.55168798 -0.762,-0.62788798 -0.234696,-0.054864 -0.405384,-0.097536 -0.405384,-0.234696 0,-0.1219201 0.103632,-0.2072641 0.298704,-0.2072641 0.19812,0 0.417576,0.070104 0.582168,0.2225041 l 0.240792,-0.3169921 c -0.201168,-0.185928 -0.469392,-0.283464 -0.79248,-0.283464 -0.478536,0 -0.7711441,0.27432 -0.7711441,0.6126481 0,0.45415197 0.4267201,0.54559197 0.7589521,0.62179197 0.234696,0.054864 0.41148,0.10668001 0.41148,0.25908001 0,0.11582401 -0.115824,0.22860001 -0.353568,0.22860001 -0.280416,0 -0.50292,-0.124968 -0.646176,-0.27432001 z" style="font-weight:bold;font-size:3.048px;font-family:'Proxima Nova';dominant-baseline:alphabetic;text-anchor:middle;fill:#7f00ff"/>
        <path d="M 3.3176286,0 H 4.7562847 V -0.37490401 H 3.7504446 V -0.84734403 H 4.7349487 V -1.2192 H 3.7504446 v -0.4419601 h 1.0058401 v -0.371856 H 3.3176286 Z" style="font-weight:bold;font-size:3.048px;font-family:'Proxima Nova';dominant-baseline:alphabetic;text-anchor:middle;fill:#7f00ff"/>
      </g>
    </g>
    <line x1="7.9829998" y1="97" x2="47.896999" y2="97" stroke="#7f00ff" stroke-width="0.35"/>
    <g transform="translate(7.983,91.8)">
      <g style="font-weight:bold;font-size:2.371px;font-family:'Proxima Nova';dominant-baseline:alphabetic;text-anchor:middle;fill:#7f00ff">
        <path d="m -0.7103368,0.028452 c 0.36039201,0 0.55955602,-0.192051 0.67336402,-0.38884401 l -0.28926201,-0.139889 c -0.066388,0.130405 -0.208648,0.229987 -0.38410201,0.229987 -0.275036,0 -0.483684,-0.220503 -0.483684,-0.51924901 0,-0.29874598 0.208648,-0.51924898 0.483684,-0.51924898 0.17545401,0 0.31771401,0.101953 0.38410201,0.229987 l 0.28926201,-0.14226 c -0.111437,-0.196793 -0.31297201,-0.386473 -0.67336402,-0.386473 -0.462345,0 -0.82985,0.33194 -0.82985,0.81799498 0,0.48605501 0.367505,0.81799502 0.82985,0.81799502 z" style="font-weight:bold;font-size:2.371px;font-family:'Proxima Nova';dominant-baseline:alphabetic;text-anchor:middle;fill:#7f00ff"/>
        <path d="M 0.59986305,0 H 1.0219011 l 0.609347,-1.581457 H 1.2471461 L 0.81088205,-0.36513401 0.37224704,-1.581457 h -0.384102 z" style="font-weight:bold;font-size:2.371px;font-family:'Proxima Nova';dominant-baseline:alphabetic;text-anchor:middle;fill:#7f00ff"/>
      </g>
    </g>
    <g transform="translate(21.288,91.8)">
      <g style="font-weight:bold;font-size:2.371px;font-family:'Proxima Nova';dominant-baseline:alphabetic;text-anchor:middle;fill:#7f00ff">
        <path d="m -2.7627337,-0.78954302 c 0,0.49791001 0.37936,0.82036602 0.841705,0.82036602 0.286891,0 0.512136,-0.11855 0.673364,-0.29874601 v -0.60460501 h -0.753978 v 0.28926201 h 0.422038 v 0.192051 c -0.068759,0.061646 -0.196793,0.120921 -0.341424,0.120921 -0.286891,0 -0.495539,-0.220503 -0.495539,-0.51924901 0,-0.29874598 0.208648,-0.51924898 0.495539,-0.51924898 0.16597,0 0.301117,0.087727 0.374618,0.199164 l 0.279778,-0.151744 c -0.120921,-0.187309 -0.327198,-0.346166 -0.654396,-0.346166 -0.462345,0 -0.841705,0.317714 -0.841705,0.81799498 z" style="font-weight:bold;font-size:2.371px;font-family:'Proxima Nova';dominant-baseline:alphabetic;text-anchor:middle;fill:#7f00ff"/>
        <path d="M 0.11065906,0 H 0.47816407 L -0.13118295,-1.581457 H -0.55322096 L -1.164939,0 h 0.36987604 l 0.099582,-0.27266501 h 0.70655802 z m -0.45286101,-1.289824 0.26081,0.72552599 h -0.52399101 z" style="font-weight:bold;font-size:2.371px;font-family:'Proxima Nova';dominant-baseline:alphabetic;text-anchor:middle;fill:#7f00ff"/>
        <path d="m 0.62420301,0 h 0.336682 v -1.581457 h -0.336682 z" style="font-weight:bold;font-size:2.371px;font-family:'Proxima Nova';dominant-baseline:alphabetic;text-anchor:middle;fill:#7f00ff"/>
        <path d="m 2.3631832,0 h 0.324827 v -1.581457 h -0.336682 v 1.02427199 L 1.6186892,-1.581457 H 1.2725232 V 0 h 0.336682 v -1.062208 z" style="font-weight:bold;font-size:2.371px;font-family:'Proxima Nova';dominant-baseline:alphabetic;text-anchor:middle;fill:#7f00ff"/>
      </g>
    </g>
    <g transform="translate(34.592,101)">
      <g style="font-weight:bold;font-size:2.371px;font-family:'Proxima Nova';dominant-baseline:hanging;text-anchor:middle;fill:#7f00ff">
        <path d="m -0.95260484,1.609472 h 0.85830202 c 0.301117,0 0.45997401,-0.18968 0.45997401,-0.42678 0,-0.19916404 -0.13514701,-0.36276304 -0.30348801,-0.38884404 0.149373,-0.030823 0.27266501,-0.163599 0.27266501,-0.36276301 0,-0.211019 -0.15411501,-0.40307001 -0.45523201,-0.40307001 H -0.95260484 Z M -0.61592283,0.66344296 V 0.31490595 h 0.42203801 c 0.113808,0 0.184938,0.075872 0.184938,0.173083 0,0.101953 -0.07113,0.17545401 -0.184938,0.17545401 z m 0,0.65913804 V 0.95033396 h 0.43389301 c 0.132776,0 0.203906,0.085356 0.203906,0.18493804 0,0.113808 -0.075872,0.187309 -0.203906,0.187309 z" style="font-weight:bold;font-size:2.371px;font-family:'Proxima Nova';dominant-baseline:hanging;text-anchor:middle;fill:#7f00ff"/>
        <path d="M 0.61725657,1.609472 H 0.95393858 V 0.02801494 H 0.61725657 Z" style="font-weight:bold;font-size:2.371px;font-family:'Proxima Nova';dominant-baseline:hanging;text-anchor:middle;fill:#7f00ff"/>
      </g>
    </g>
    <g transform="translate(34.592,93)">
      <g style="font-weight:bold;font-size:2.371px;font-family:'Proxima Nova';dominant-baseline:alphabetic;text-anchor:middle;fill:#7f00ff">
        <path d="m -1.8949847,-0.63068601 c 0,0.388844 0.225245,0.65913801 0.708929,0.65913801 0.47894198,0 0.70418699,-0.26792301 0.70418699,-0.66150901 V -1.581457 h -0.34142401 v 0.93891599 c 0,0.220503 -0.120921,0.372247 -0.36276298,0.372247 -0.246584,0 -0.367505,-0.151744 -0.367505,-0.372247 V -1.581457 h -0.341424 z" style="font-weight:bold;font-size:2.371px;font-family:'Proxima Nova';dominant-baseline:alphabetic;text-anchor:middle;fill:#7f00ff"/>
        <path d="M 0.92298582,0 H 1.2478128 V -1.581457 H 0.91113082 v 1.02427199 L 0.1784918,-1.581457 H -0.16767421 V 0 H 0.1690078 v -1.062208 z" style="font-weight:bold;font-size:2.371px;font-family:'Proxima Nova';dominant-baseline:alphabetic;text-anchor:middle;fill:#7f00ff"/>
        <path d="m 1.5596363,0 h 0.336682 v -1.581457 h -0.336682 z" style="font-weight:bold;font-size:2.371px;font-family:'Proxima Nova';dominant-baseline:alphabetic;text-anchor:middle;fill:#7f00ff"/>
      </g>
    </g>
    <rect x="42.696999" y="90.470001" width="10.4" height="12.98" fill="#7f00ff" stroke="#7f00ff" stroke-width="0.35" rx="1" ry="1"/>
    <g transform="translate(47.897,93.05)">
      <g style="font-weight:bold;font-size:2.371px;font-family:'Proxima Nova';dominant-baseline:alphabetic;text-anchor:middle;fill:#f7f2fc">
        <path d="M -2.3686291,0 H -1.965559 L -2.5393411,-0.81325302 -2.001124,-1.581457 h -0.4054411 l -0.358021,0.540588 -0.362763,-0.540588 h -0.400699 l 0.538217,0.77057498 L -3.5636131,0 h 0.400699 l 0.398328,-0.57852401 z" style="font-weight:bold;font-size:2.371px;font-family:'Proxima Nova';dominant-baseline:alphabetic;text-anchor:middle;fill:#f7f2fc"/>
        <path d="m -1.2854895,-0.78954302 c 0,0.47657101 0.34853698,0.81799502 0.82510799,0.81799502 0.47894201,0 0.82747902,-0.34142401 0.82747902,-0.81799502 0,-0.47657098 -0.34853701,-0.81799498 -0.82747902,-0.81799498 -0.47657101,0 -0.82510799,0.341424 -0.82510799,0.81799498 z m 1.306421,0 c 0,0.29400401 -0.18968,0.51924901 -0.48131301,0.51924901 -0.29163301,0 -0.47894201,-0.225245 -0.47894201,-0.51924901 0,-0.29637498 0.187309,-0.51924898 0.47894201,-0.51924898 0.29163301,0 0.48131301,0.222874 0.48131301,0.51924898 z" style="font-weight:bold;font-size:2.371px;font-family:'Proxima Nova';dominant-baseline:alphabetic;text-anchor:middle;fill:#f7f2fc"/>
        <path d="m 0.60567936,-0.63068601 c 0,0.388844 0.22524501,0.65913801 0.70892904,0.65913801 0.478942,0 0.704187,-0.26792301 0.704187,-0.66150901 V -1.581457 h -0.341424 v 0.93891599 c 0,0.220503 -0.120921,0.372247 -0.362763,0.372247 -0.246584,0 -0.36750503,-0.151744 -0.36750503,-0.372247 V -1.581457 H 0.60567936 Z" style="font-weight:bold;font-size:2.371px;font-family:'Proxima Nova';dominant-baseline:alphabetic;text-anchor:middle;fill:#f7f2fc"/>
        <path d="M 2.698124,0 H 3.037177 V -1.285082 H 3.497151 V -1.581457 H 2.235779 v 0.296375 h 0.462345 z" style="font-weight:bold;font-size:2.371px;font-family:'Proxima Nova';dominant-baseline:alphabetic;text-anchor:middle;fill:#f7f2fc"/>
      </g>
    </g>
    <line x1="7.9829998" y1="112" x2="47.896999" y2="112" stroke="#7f00ff" stroke-width="0.35"/>
    <g transform="translate(7.983,106.8)">
      <g style="font-weight:bold;font-size:2.371px;font-family:'Proxima Nova';dominant-baseline:alphabetic;text-anchor:middle;fill:#7f00ff">
        <path d="m -0.7103368,0.028452 c 0.36039201,0 0.55955602,-0.192051 0.67336402,-0.38884401 l -0.28926201,-0.139889 c -0.066388,0.130405 -0.208648,0.229987 -0.38410201,0.229987 -0.275036,0 -0.483684,-0.220503 -0.483684,-0.51924901 0,-0.29874598 0.208648,-0.51924898 0.483684,-0.51924898 0.17545401,0 0.31771401,0.101953 0.38410201,0.229987 l 0.28926201,-0.14226 c -0.111437,-0.196793 -0.31297201,-0.386473 -0.67336402,-0.386473 -0.462345,0 -0.82985,0.33194 -0.82985,0.81799498 0,0.48605501 0.367505,0.81799502 0.82985,0.81799502 z" style="font-weight:bold;font-size:2.371px;font-family:'Proxima Nova';dominant-baseline:alphabetic;text-anchor:middle;fill:#7f00ff"/>
        <path d="M 0.59986305,0 H 1.0219011 l 0.609347,-1.581457 H 1.2471461 L 0.81088205,-0.36513401 0.37224704,-1.581457 h -0.384102 z" style="font-weight:bold;font-size:2.371px;font-family:'Proxima Nova';dominant-baseline:alphabetic;text-anchor:middle;fill:#7f00ff"/>
      </g>
    </g>
    <g transform="translate(21.288,106.8)">
      <g style="font-weight:bold;font-size:2.371px;font-family:'Proxima Nova';dominant-baseline:alphabetic;text-anchor:middle;fill:#7f00ff">
        <path d="m -2.7627337,-0.78954302 c 0,0.49791001 0.37936,0.82036602 0.841705,0.82036602 0.286891,0 0.512136,-0.11855 0.673364,-0.29874601 v -0.60460501 h -0.753978 v 0.28926201 h 0.422038 v 0.192051 c -0.068759,0.061646 -0.196793,0.120921 -0.341424,0.120921 -0.286891,0 -0.495539,-0.220503 -0.495539,-0.51924901 0,-0.29874598 0.208648,-0.51924898 0.495539,-0.51924898 0.16597,0 0.301117,0.087727 0.374618,0.199164 l 0.279778,-0.151744 c -0.120921,-0.187309 -0.327198,-0.346166 -0.654396,-0.346166 -0.462345,0 -0.841705,0.317714 -0.841705,0.81799498 z" style="font-weight:bold;font-size:2.371px;font-family:'Proxima Nova';dominant-baseline:alphabetic;text-anchor:middle;fill:#7f00ff"/>
        <path d="M 0.11065906,0 H 0.47816407 L -0.13118295,-1.581457 H -0.55322096 L -1.164939,0 h 0.36987604 l 0.099582,-0.27266501 h 0.70655802 z m -0.45286101,-1.289824 0.26081,0.72552599 h -0.52399101 z" style="font-weight:bold;font-size:2.371px;font-family:'Proxima Nova';dominant-baseline:alphabetic;text-anchor:middle;fill:#7f00ff"/>
        <path d="m 0.62420301,0 h 0.336682 v -1.581457 h -0.336682 z" style="font-weight:bold;font-size:2.371px;font-family:'Proxima Nova';dominant-baseline:alphabetic;text-anchor:middle;fill:#7f00ff"/>
        <path d="m 2.3631832,0 h 0.324827 v -1.581457 h -0.336682 v 1.02427199 L 1.6186892,-1.581457 H 1.2725232 V 0 h 0.336682 v -1.062208 z" style="font-weight:bold;font-size:2.371px;font-family:'Proxima Nova';dominant-baseline:alphabetic;text-anchor:middle;fill:#7f00ff"/>
      </g>
    </g>
    <g transform="translate(34.592,116)">
      <g style="font-weight:bold;font-size:2.371px;font-family:'Proxima Nova';dominant-baseline:hanging;text-anchor:middle;fill:#7f00ff">
        <path d="m -0.95260484,1.609472 h 0.85830202 c 0.301117,0 0.45997401,-0.18968 0.45997401,-0.42678 0,-0.19916404 -0.13514701,-0.36276304 -0.30348801,-0.38884404 0.149373,-0.030823 0.27266501,-0.163599 0.27266501,-0.36276301 0,-0.211019 -0.15411501,-0.40307001 -0.45523201,-0.40307001 H -0.95260484 Z M -0.61592283,0.66344296 V 0.31490595 h 0.42203801 c 0.113808,0 0.184938,0.075872 0.184938,0.173083 0,0.101953 -0.07113,0.17545401 -0.184938,0.17545401 z m 0,0.65913804 V 0.95033396 h 0.43389301 c 0.132776,0 0.203906,0.085356 0.203906,0.18493804 0,0.113808 -0.075872,0.187309 -0.203906,0.187309 z" style="font-weight:bold;font-size:2.371px;font-family:'Proxima Nova';dominant-baseline:hanging;text-anchor:middle;fill:#7f00ff"/>
        <path d="M 0.61725657,1.609472 H 0.95393858 V 0.02801494 H 0.61725657 Z" style="font-weight:bold;font-size:2.371px;font-family:'Proxima Nova';dominant-baseline:hanging;text-anchor:middle;fill:#7f00ff"/>
      </g>
    </g>
    <g transform="translate(34.592,108)">
      <g style="font-weight:bold;font-size:2.371px;font-family:'Proxima Nova';dominant-baseline:alphabetic;text-anchor:middle;fill:#7f00ff">
        <path d="m -1.8949847,-0.63068601 c 0,0.388844 0.225245,0.65913801 0.708929,0.65913801 0.47894198,0 0.70418699,-0.26792301 0.70418699,-0.66150901 V -1.581457 h -0.34142401 v 0.93891599 c 0,0.220503 -0.120921,0.372247 -0.36276298,0.372247 -0.246584,0 -0.367505,-0.151744 -0.367505,-0.372247 V -1.581457 h -0.341424 z" style="font-weight:bold;font-size:2.371px;font-family:'Proxima Nova';dominant-baseline:alphabetic;text-anchor:middle;fill:#7f00ff"/>
        <path d="M 0.92298582,0 H 1.2478128 V -1.581457 H 0.91113082 v 1.02427199 L 0.1784918,-1.581457 H -0.16767421 V 0 H 0.1690078 v -1.062208 z" style="font-weight:bold;font-size:2.371px;font-family:'Proxima Nova';dominant-baseline:alphabetic;text-anchor:middle;fill:#7f00ff"/>
        <path d="m 1.5596363,0 h 0.336682 v -1.581457 h -0.336682 z" style="font-weight:bold;font-size:2.371px;font-family:'Proxima Nova';dominant-baseline:alphabetic;text-anchor:middle;fill:#7f00ff"/>
      </g>
    </g>
    <rect x="42.696999" y="105.47" width="10.4" height="12.98" fill="#7f00ff" stroke="#7f00ff" stroke-width="0.35" rx="1" ry="1"/>
    <g transform="translate(47.897,108.05)">
      <g style="font-weight:bold;font-size:2.371px;font-family:'Proxima Nova';dominant-baseline:alphabetic;text-anchor:middle;fill:#f7f2fc">
        <path d="m -2.9312229,0 h 0.336682 v -0.64728301 l 0.604605,-0.93417399 h -0.384102 l -0.388844,0.63542798 -0.393586,-0.63542798 h -0.384102 l 0.609347,0.93417399 z" style="font-weight:bold;font-size:2.371px;font-family:'Proxima Nova';dominant-baseline:alphabetic;text-anchor:middle;fill:#f7f2fc"/>
        <path d="m -1.3132747,-0.78954302 c 0,0.47657101 0.34853697,0.81799502 0.82510798,0.81799502 0.47894201,0 0.82747902,-0.34142401 0.82747902,-0.81799502 0,-0.47657098 -0.34853701,-0.81799498 -0.82747902,-0.81799498 -0.47657101,0 -0.82510798,0.341424 -0.82510798,0.81799498 z m 1.30642099,0 c 0,0.29400401 -0.18968,0.51924901 -0.48131301,0.51924901 -0.291633,0 -0.47894201,-0.225245 -0.47894201,-0.51924901 0,-0.29637498 0.18730901,-0.51924898 0.47894201,-0.51924898 0.29163301,0 0.48131301,0.222874 0.48131301,0.51924898 z" style="font-weight:bold;font-size:2.371px;font-family:'Proxima Nova';dominant-baseline:alphabetic;text-anchor:middle;fill:#f7f2fc"/>
        <path d="m 0.57789415,-0.63068601 c 0,0.388844 0.22524501,0.65913801 0.70892905,0.65913801 0.478942,0 0.704187,-0.26792301 0.704187,-0.66150901 V -1.581457 h -0.341424 v 0.93891599 c 0,0.220503 -0.120921,0.372247 -0.362763,0.372247 -0.246584,0 -0.36750504,-0.151744 -0.36750504,-0.372247 V -1.581457 H 0.57789415 Z" style="font-weight:bold;font-size:2.371px;font-family:'Proxima Nova';dominant-baseline:alphabetic;text-anchor:middle;fill:#f7f2fc"/>
        <path d="m 2.6703386,0 h 0.339053 v -1.285082 h 0.459974 v -0.296375 h -1.261372 v 0.296375 h 0.462345 z" style="font-weight:bold;font-size:2.371px;font-family:'Proxima Nova';dominant-baseline:alphabetic;text-anchor:middle;fill:#f7f2fc"/>
      </g>
    </g>
  </g>
</svg>
