<?xml version="1.0" encoding="UTF-8" standalone="no"?>
<!DOCTYPE svg PUBLIC "-//W3C//DTD SVG 1.1//EN" "http://www.w3.org/Graphics/SVG/1.1/DTD/svg11.dtd">
<svg width="18px" height="18px" version="1.1" xmlns="http://www.w3.org/2000/svg" xmlns:xlink="http://www.w3.org/1999/xlink" xml:space="preserve" xmlns:serif="http://www.serif.com/" style="fill-rule:evenodd;clip-rule:evenodd;stroke-linejoin:round;stroke-miterlimit:1.41421;">
    <g transform="matrix(0.0295276,0,0,0.0295276,-345.443,-49.4882)">
        <g transform="matrix(1.09916,0,0,1.67861,-961.987,-55.2037)">
            <g id="Btn.D.On" transform="matrix(0.909786,0,0,0.595731,-3476.49,200.386)">
                <g>
                    <g transform="matrix(51.9862,0,0,50.7466,15173.5,-705.739)">
                        <ellipse cx="30.951" cy="47.32" rx="5.771" ry="5.912" style="fill:rgb(255,240,240);"/>
                        <path d="M30.961,41.408L31.007,41.408L31.054,41.409L31.1,41.41L31.147,41.411L31.193,41.413L31.239,41.415L31.285,41.418L31.331,41.421L31.377,41.424L31.423,41.427L31.468,41.431L31.514,41.436L31.559,41.44L31.596,41.444L31.632,41.449L31.668,41.453L31.704,41.458L31.74,41.463L31.776,41.468L31.812,41.473L31.848,41.479L31.883,41.485L31.919,41.491L31.955,41.497L31.99,41.504L32.026,41.51L32.061,41.517L32.096,41.524L32.131,41.532L32.167,41.539L32.202,41.547L32.237,41.555L32.271,41.564L32.306,41.572L32.341,41.581L32.376,41.59L32.41,41.599L32.445,41.608L32.479,41.618L32.513,41.627L32.548,41.637L32.582,41.648L32.616,41.658L32.65,41.669L32.684,41.679L32.717,41.69L32.751,41.702L32.785,41.713L32.818,41.725L32.852,41.736L32.885,41.748L32.918,41.761L32.951,41.773L32.984,41.786L33.017,41.799L33.05,41.812L33.083,41.825L33.116,41.838L33.148,41.852L33.181,41.866L33.213,41.88L33.245,41.894L33.277,41.908L33.309,41.923L33.341,41.938L33.373,41.953L33.405,41.968L33.437,41.983L33.468,41.999L33.5,42.015L33.531,42.031L33.562,42.047L33.593,42.063L33.624,42.08L33.655,42.096L33.686,42.113L33.717,42.13L33.747,42.148L33.777,42.165L33.808,42.183L33.838,42.201L33.868,42.219L33.898,42.237L33.928,42.255L33.958,42.274L33.987,42.292L34.017,42.311L34.046,42.33L34.076,42.349L34.105,42.369L34.134,42.388L34.163,42.408L34.191,42.428L34.22,42.448L34.249,42.468L34.277,42.489L34.305,42.51L34.333,42.53L34.361,42.551L34.389,42.572L34.417,42.594L34.445,42.615L34.472,42.637L34.5,42.659L34.527,42.68L34.554,42.703L34.581,42.725L34.608,42.747L34.635,42.77L34.661,42.793L34.688,42.816L34.714,42.839L34.74,42.862L34.766,42.885L34.792,42.909L34.818,42.933L34.844,42.956L34.869,42.98L34.894,43.005L34.92,43.029L34.945,43.053L34.97,43.078L34.994,43.103L35.019,43.128L35.043,43.153L35.068,43.178L35.092,43.203L35.116,43.229L35.14,43.255L35.164,43.28L35.187,43.306L35.211,43.332L35.234,43.359L35.257,43.385L35.28,43.412L35.303,43.438L35.326,43.465L35.348,43.492L35.37,43.519L35.393,43.546L35.415,43.574L35.437,43.601L35.458,43.629L35.48,43.657L35.501,43.685L35.523,43.713L35.544,43.741L35.565,43.769L35.586,43.798L35.606,43.826L35.627,43.855L35.647,43.884L35.667,43.913L35.687,43.942L35.707,43.971L35.726,44.001L35.746,44.03L35.765,44.06L35.784,44.089L35.803,44.119L35.822,44.149L35.841,44.179L35.859,44.21L35.877,44.24L35.895,44.27L35.913,44.301L35.931,44.332L35.948,44.363L35.966,44.393L35.983,44.425L36,44.456L36.017,44.487L36.034,44.518L36.05,44.55L36.066,44.582L36.082,44.613L36.098,44.645L36.114,44.677L36.13,44.709L36.145,44.741L36.16,44.774L36.175,44.806L36.19,44.839L36.205,44.871L36.219,44.904L36.234,44.937L36.248,44.97L36.262,45.003L36.275,45.036L36.289,45.069L36.302,45.103L36.315,45.136L36.328,45.17L36.341,45.203L36.353,45.237L36.366,45.271L36.378,45.305L36.39,45.339L36.402,45.373L36.413,45.407L36.424,45.442L36.436,45.476L36.447,45.511L36.457,45.545L36.468,45.58L36.478,45.615L36.488,45.65L36.498,45.684L36.508,45.72L36.517,45.755L36.527,45.79L36.536,45.825L36.545,45.861L36.554,45.896L36.562,45.932L36.57,45.967L36.578,46.003L36.586,46.039L36.594,46.075L36.601,46.111L36.608,46.147L36.615,46.183L36.622,46.219L36.629,46.256L36.635,46.292L36.641,46.328L36.647,46.365L36.653,46.402L36.658,46.438L36.664,46.475L36.669,46.512L36.673,46.549L36.678,46.586L36.682,46.623L36.687,46.66L36.691,46.706L36.696,46.753L36.7,46.8L36.704,46.846L36.707,46.893L36.71,46.94L36.713,46.987L36.716,47.035L36.718,47.082L36.719,47.129L36.721,47.177L36.721,47.224L36.722,47.272L36.722,47.32L36.722,47.329L36.722,47.339L36.722,47.348L36.722,47.358L36.722,47.367L36.722,47.377L36.722,47.386L36.722,47.396L36.722,47.406L36.721,47.415L36.721,47.425L36.721,47.434L36.721,47.444L36.721,47.453L36.721,47.463L36.72,47.472L36.72,47.482L36.72,47.491L36.72,47.501L36.719,47.51L36.719,47.52L36.719,47.529L36.718,47.539L36.718,47.548L36.718,47.557L36.717,47.567L36.717,47.576L36.716,47.586L36.716,47.595L36.716,47.605L36.715,47.614L36.715,47.624L36.714,47.633L36.714,47.643L36.713,47.652L36.713,47.661L36.712,47.671L36.712,47.68L36.711,47.69L36.71,47.699L36.71,47.708L36.709,47.718L36.709,47.727L36.708,47.737L36.707,47.746L36.707,47.755L36.706,47.765L36.705,47.774L36.705,47.784L36.704,47.793L36.703,47.802L36.702,47.812L36.702,47.821L36.701,47.83L36.7,47.84L36.699,47.849L36.699,47.858L36.698,47.868L36.697,47.877L36.696,47.886L36.695,47.896L36.694,47.905L36.693,47.914L36.692,47.924L36.691,47.933L36.691,47.942L36.689,47.961L36.687,47.98L36.685,47.998L36.682,48.017L36.68,48.035L36.678,48.054L36.676,48.072L36.673,48.091L36.671,48.109L36.669,48.128L36.666,48.146L36.664,48.164L36.661,48.183L36.658,48.201L36.656,48.219L36.653,48.238L36.65,48.256L36.647,48.274L36.644,48.293L36.641,48.311L36.638,48.329L36.635,48.347L36.632,48.366L36.629,48.384L36.626,48.402L36.622,48.42L36.619,48.438L36.615,48.456L36.612,48.474L36.608,48.492L36.605,48.51L36.601,48.528L36.598,48.546L36.594,48.564L36.59,48.582L36.586,48.6L36.582,48.618L36.578,48.636L36.574,48.654L36.57,48.672L36.566,48.69L36.562,48.708L36.558,48.725L36.554,48.743L36.549,48.761L36.545,48.779L36.54,48.796L36.536,48.814L36.531,48.832L36.527,48.849L36.522,48.867L36.517,48.885L36.513,48.902L36.508,48.92L36.503,48.937L36.498,48.955L36.493,48.972L36.488,48.99L36.483,49.007L36.478,49.025L36.473,49.042L36.468,49.059L36.463,49.077L36.457,49.094L36.452,49.111L36.447,49.129L36.441,49.146L36.436,49.163L36.43,49.18L36.424,49.198L36.419,49.215L36.413,49.232L36.407,49.249L36.402,49.266L36.396,49.283L36.39,49.3L36.384,49.317L36.378,49.334L36.372,49.351L36.366,49.368L36.36,49.385L36.353,49.402L36.347,49.419L36.341,49.436L36.334,49.453L36.328,49.47L36.322,49.486L36.315,49.503L36.309,49.52L36.302,49.537L36.295,49.553L36.289,49.57L36.282,49.587L36.275,49.603L36.268,49.62L36.262,49.636L36.255,49.653L36.248,49.669L36.241,49.686L36.234,49.702L36.226,49.719L36.219,49.735L36.212,49.752L36.205,49.768L36.198,49.784L36.19,49.801L36.183,49.817L36.175,49.833L36.168,49.849L36.16,49.865L36.153,49.882L36.145,49.898L36.137,49.914L36.13,49.93L36.122,49.946L36.114,49.962L36.106,49.978L36.098,49.994L36.09,50.01L36.082,50.026L36.074,50.042L36.066,50.058L36.058,50.074L36.05,50.089L36.042,50.105L36.034,50.121L36.025,50.137L36.017,50.152L36.009,50.168L36,50.184L35.992,50.199L35.983,50.215L35.974,50.23L35.966,50.246L35.957,50.261L35.948,50.277L35.94,50.292L35.931,50.308L35.922,50.323L35.913,50.338L35.904,50.354L35.895,50.369L35.886,50.384L35.877,50.399L35.868,50.415L35.859,50.43L35.85,50.445L35.841,50.46L35.831,50.475L35.822,50.49L35.813,50.505L35.803,50.52L35.794,50.535L35.784,50.55L35.775,50.565L35.765,50.58L35.755,50.594L35.746,50.609L35.736,50.624L35.726,50.639L35.717,50.653L35.707,50.668L35.697,50.683L35.687,50.697L35.677,50.712L35.667,50.726L35.657,50.741L35.647,50.755L35.637,50.77L35.627,50.784L35.616,50.799L35.606,50.813L35.596,50.827L35.586,50.842L35.575,50.856L35.565,50.87L35.554,50.884L35.544,50.898L35.533,50.912L35.523,50.927L35.512,50.941L35.501,50.955L35.491,50.969L35.48,50.982L35.469,50.996L35.458,51.01L35.448,51.024L35.437,51.038L35.426,51.052L35.415,51.065L35.404,51.079L35.393,51.093L35.382,51.106L35.37,51.12L35.359,51.134L35.348,51.147L35.337,51.161L35.326,51.174L35.314,51.188L35.303,51.201L35.292,51.214L35.28,51.228L35.269,51.241L35.257,51.254L35.246,51.267L35.234,51.281L35.222,51.294L35.211,51.307L35.199,51.32L35.187,51.333L35.175,51.346L35.164,51.359L35.152,51.372L35.14,51.385L35.128,51.398L35.116,51.41L35.104,51.423L35.092,51.436L35.08,51.449L35.068,51.461L35.056,51.474L35.043,51.486L35.031,51.499L35.019,51.512L35.007,51.524L34.994,51.536L34.982,51.549L34.97,51.561L34.957,51.574L34.945,51.586L34.932,51.598L34.92,51.61L34.907,51.623L34.894,51.635L34.882,51.647L34.869,51.659L34.856,51.671L34.844,51.683L34.831,51.695L34.818,51.707L34.805,51.719L34.792,51.73L34.779,51.742L34.766,51.754L34.753,51.766L34.74,51.777L34.727,51.789L34.714,51.801L34.701,51.812L34.688,51.824L34.674,51.835L34.661,51.847L34.648,51.858L34.635,51.869L34.621,51.881L34.608,51.892L34.595,51.903L34.581,51.914L34.568,51.926L34.554,51.937L34.541,51.948L34.527,51.959L34.513,51.97L34.5,51.981L34.486,51.992L34.472,52.003L34.459,52.013L34.445,52.024L34.431,52.035L34.417,52.046L34.403,52.056L34.389,52.067L34.375,52.077L34.361,52.088L34.347,52.099L34.333,52.109L34.319,52.119L34.305,52.13L34.291,52.14L34.277,52.15L34.263,52.161L34.249,52.171L34.234,52.181L34.22,52.191L34.206,52.201L34.191,52.211L34.177,52.221L34.163,52.231L34.148,52.241L34.134,52.251L34.119,52.261L34.105,52.27L34.09,52.28L34.076,52.29L34.061,52.299L34.046,52.309L34.032,52.319L34.017,52.328L34.002,52.338L33.987,52.347L33.973,52.356L33.958,52.366L33.943,52.375L33.928,52.384L33.913,52.393L33.898,52.403L33.883,52.412L33.868,52.421L33.853,52.43L33.838,52.439L33.823,52.448L33.808,52.457L33.793,52.465L33.777,52.474L33.762,52.483L33.747,52.492L33.732,52.5L33.717,52.509L33.701,52.517L33.686,52.526L33.67,52.534L33.655,52.543L33.64,52.551L33.624,52.56L33.609,52.568L33.593,52.576L33.578,52.584L33.562,52.592L33.546,52.6L33.531,52.609L33.515,52.617L33.5,52.624L33.484,52.632L33.468,52.64L33.452,52.648L33.437,52.656L33.421,52.664L33.405,52.671L33.389,52.679L33.373,52.686L33.357,52.694L33.341,52.701L33.325,52.709L33.309,52.716L33.293,52.724L33.277,52.731L33.261,52.738L33.245,52.745L33.229,52.752L33.213,52.759L33.197,52.766L33.181,52.773L33.164,52.78L33.148,52.787L33.132,52.794L33.116,52.801L33.099,52.808L33.083,52.814L33.067,52.821L33.05,52.828L33.034,52.834L33.017,52.841L33.001,52.847L32.984,52.854L32.968,52.86L32.951,52.866L32.935,52.872L32.918,52.879L32.902,52.885L32.885,52.891L32.868,52.897L32.852,52.903L32.835,52.909L32.818,52.915L32.801,52.921L32.785,52.926L32.768,52.932L32.751,52.938L32.734,52.943L32.717,52.949L32.701,52.954L32.684,52.96L32.667,52.965L32.65,52.971L32.633,52.976L32.616,52.981L32.599,52.987L32.582,52.992L32.565,52.997L32.548,53.002L32.531,53.007L32.513,53.012L32.496,53.017L32.479,53.022L32.462,53.026L32.445,53.031L32.427,53.036L32.41,53.041L32.393,53.045L32.376,53.05L32.358,53.054L32.341,53.059L32.324,53.063L32.306,53.067L32.289,53.072L32.271,53.076L32.254,53.08L32.237,53.084L32.219,53.088L32.202,53.092L32.184,53.096L32.167,53.1L32.149,53.104L32.131,53.107L32.114,53.111L32.096,53.115L32.079,53.118L32.061,53.122L32.043,53.126L32.026,53.129L32.008,53.132L31.99,53.136L31.972,53.139L31.955,53.142L31.937,53.145L31.919,53.148L31.901,53.152L31.883,53.155L31.866,53.157L31.848,53.16L31.83,53.163L31.812,53.166L31.794,53.169L31.776,53.171L31.758,53.174L31.74,53.177L31.722,53.179L31.704,53.181L31.686,53.184L31.668,53.186L31.65,53.188L31.632,53.191L31.614,53.193L31.596,53.195L31.577,53.197L31.559,53.199L31.55,53.2L31.541,53.201L31.532,53.202L31.523,53.203L31.514,53.204L31.505,53.204L31.496,53.205L31.487,53.206L31.477,53.207L31.468,53.208L31.459,53.209L31.45,53.21L31.441,53.21L31.432,53.211L31.423,53.212L31.413,53.213L31.404,53.213L31.395,53.214L31.386,53.215L31.377,53.216L31.368,53.216L31.359,53.217L31.349,53.218L31.34,53.218L31.331,53.219L31.322,53.219L31.313,53.22L31.303,53.221L31.294,53.221L31.285,53.222L31.276,53.222L31.267,53.223L31.257,53.223L31.248,53.224L31.239,53.224L31.23,53.225L31.221,53.225L31.211,53.225L31.202,53.226L31.193,53.226L31.184,53.227L31.174,53.227L31.165,53.227L31.156,53.228L31.147,53.228L31.137,53.228L31.128,53.229L31.119,53.229L31.11,53.229L31.1,53.229L31.091,53.23L31.082,53.23L31.072,53.23L31.063,53.23L31.054,53.23L31.045,53.231L31.035,53.231L31.026,53.231L31.017,53.231L31.007,53.231L30.998,53.231L30.989,53.231L30.979,53.231L30.97,53.231L30.961,53.231L30.951,53.231L30.942,53.231L30.933,53.231L30.923,53.231L30.914,53.231L30.905,53.231L30.896,53.231L30.886,53.231L30.877,53.231L30.868,53.231L30.858,53.231L30.849,53.23L30.84,53.23L30.83,53.23L30.821,53.23L30.812,53.23L30.803,53.229L30.793,53.229L30.784,53.229L30.775,53.229L30.766,53.228L30.756,53.228L30.747,53.228L30.738,53.227L30.729,53.227L30.719,53.227L30.71,53.226L30.701,53.226L30.692,53.225L30.682,53.225L30.673,53.225L30.664,53.224L30.655,53.224L30.645,53.223L30.636,53.223L30.627,53.222L30.618,53.222L30.609,53.221L30.599,53.221L30.59,53.22L30.581,53.219L30.572,53.219L30.563,53.218L30.554,53.218L30.544,53.217L30.535,53.216L30.526,53.216L30.517,53.215L30.508,53.214L30.499,53.213L30.489,53.213L30.48,53.212L30.471,53.211L30.462,53.21L30.453,53.21L30.444,53.209L30.435,53.208L30.425,53.207L30.416,53.206L30.407,53.205L30.398,53.204L30.389,53.204L30.38,53.203L30.371,53.202L30.362,53.201L30.353,53.2L30.344,53.199L30.325,53.197L30.307,53.195L30.289,53.193L30.271,53.191L30.253,53.188L30.235,53.186L30.217,53.184L30.199,53.181L30.181,53.179L30.163,53.177L30.145,53.174L30.127,53.171L30.109,53.169L30.091,53.166L30.073,53.163L30.055,53.16L30.037,53.157L30.019,53.155L30.002,53.152L29.984,53.148L29.966,53.145L29.948,53.142L29.93,53.139L29.913,53.136L29.895,53.132L29.877,53.129L29.86,53.126L29.842,53.122L29.824,53.118L29.807,53.115L29.789,53.111L29.771,53.107L29.754,53.104L29.736,53.1L29.719,53.096L29.701,53.092L29.684,53.088L29.666,53.084L29.649,53.08L29.631,53.076L29.614,53.072L29.597,53.067L29.579,53.063L29.562,53.059L29.545,53.054L29.527,53.05L29.51,53.045L29.493,53.041L29.475,53.036L29.458,53.031L29.441,53.026L29.424,53.022L29.407,53.017L29.39,53.012L29.372,53.007L29.355,53.002L29.338,52.997L29.321,52.992L29.304,52.987L29.287,52.981L29.27,52.976L29.253,52.971L29.236,52.965L29.219,52.96L29.202,52.954L29.185,52.949L29.169,52.943L29.152,52.938L29.135,52.932L29.118,52.926L29.101,52.921L29.085,52.915L29.068,52.909L29.051,52.903L29.035,52.897L29.018,52.891L29.001,52.885L28.985,52.879L28.968,52.872L28.952,52.866L28.935,52.86L28.919,52.854L28.902,52.847L28.886,52.841L28.869,52.834L28.853,52.828L28.836,52.821L28.82,52.814L28.804,52.808L28.787,52.801L28.771,52.794L28.755,52.787L28.739,52.78L28.722,52.773L28.706,52.766L28.69,52.759L28.674,52.752L28.658,52.745L28.642,52.738L28.626,52.731L28.609,52.724L28.593,52.716L28.577,52.709L28.562,52.701L28.546,52.694L28.53,52.686L28.514,52.679L28.498,52.671L28.482,52.664L28.466,52.656L28.451,52.648L28.435,52.64L28.419,52.632L28.403,52.624L28.388,52.617L28.372,52.609L28.356,52.6L28.341,52.592L28.325,52.584L28.31,52.576L28.294,52.568L28.279,52.56L28.263,52.551L28.248,52.543L28.232,52.534L28.217,52.526L28.202,52.517L28.186,52.509L28.171,52.5L28.156,52.492L28.141,52.483L28.125,52.474L28.11,52.465L28.095,52.457L28.08,52.448L28.065,52.439L28.05,52.43L28.035,52.421L28.02,52.412L28.005,52.403L27.99,52.393L27.975,52.384L27.96,52.375L27.945,52.366L27.93,52.356L27.916,52.347L27.901,52.338L27.886,52.328L27.871,52.319L27.857,52.309L27.842,52.299L27.827,52.29L27.813,52.28L27.798,52.27L27.784,52.261L27.769,52.251L27.755,52.241L27.74,52.231L27.726,52.221L27.712,52.211L27.697,52.201L27.683,52.191L27.669,52.181L27.654,52.171L27.64,52.161L27.626,52.15L27.612,52.14L27.598,52.13L27.584,52.119L27.569,52.109L27.555,52.099L27.541,52.088L27.527,52.077L27.514,52.067L27.5,52.056L27.486,52.046L27.472,52.035L27.458,52.024L27.444,52.013L27.431,52.003L27.417,51.992L27.403,51.981L27.39,51.97L27.376,51.959L27.362,51.948L27.349,51.937L27.335,51.926L27.322,51.914L27.308,51.903L27.295,51.892L27.282,51.881L27.268,51.869L27.255,51.858L27.242,51.847L27.228,51.835L27.215,51.824L27.202,51.812L27.189,51.801L27.176,51.789L27.163,51.777L27.15,51.766L27.137,51.754L27.124,51.742L27.111,51.73L27.098,51.719L27.085,51.707L27.072,51.695L27.059,51.683L27.047,51.671L27.034,51.659L27.021,51.647L27.009,51.635L26.996,51.623L26.983,51.61L26.971,51.598L26.958,51.586L26.946,51.574L26.933,51.561L26.921,51.549L26.909,51.536L26.896,51.524L26.884,51.512L26.872,51.499L26.859,51.486L26.847,51.474L26.835,51.461L26.823,51.449L26.811,51.436L26.799,51.423L26.787,51.41L26.775,51.398L26.763,51.385L26.751,51.372L26.739,51.359L26.727,51.346L26.716,51.333L26.704,51.32L26.692,51.307L26.681,51.294L26.669,51.281L26.657,51.267L26.646,51.254L26.634,51.241L26.623,51.228L26.611,51.214L26.6,51.201L26.589,51.188L26.577,51.174L26.566,51.161L26.555,51.147L26.544,51.134L26.532,51.12L26.521,51.106L26.51,51.093L26.499,51.079L26.488,51.065L26.477,51.052L26.466,51.038L26.455,51.024L26.444,51.01L26.434,50.996L26.423,50.982L26.412,50.969L26.401,50.955L26.391,50.941L26.38,50.927L26.37,50.912L26.359,50.898L26.349,50.884L26.338,50.87L26.328,50.856L26.317,50.842L26.307,50.827L26.297,50.813L26.287,50.799L26.276,50.784L26.266,50.77L26.256,50.755L26.246,50.741L26.236,50.726L26.226,50.712L26.216,50.697L26.206,50.683L26.196,50.668L26.186,50.653L26.177,50.639L26.167,50.624L26.157,50.609L26.147,50.594L26.138,50.58L26.128,50.565L26.119,50.55L26.109,50.535L26.1,50.52L26.09,50.505L26.081,50.49L26.072,50.475L26.062,50.46L26.053,50.445L26.044,50.43L26.035,50.415L26.026,50.399L26.017,50.384L26.008,50.369L25.999,50.354L25.99,50.338L25.981,50.323L25.972,50.308L25.963,50.292L25.954,50.277L25.946,50.261L25.937,50.246L25.928,50.23L25.92,50.215L25.911,50.199L25.903,50.184L25.894,50.168L25.886,50.152L25.878,50.137L25.869,50.121L25.861,50.105L25.853,50.089L25.845,50.074L25.837,50.058L25.828,50.042L25.82,50.026L25.812,50.01L25.804,49.994L25.797,49.978L25.789,49.962L25.781,49.946L25.773,49.93L25.765,49.914L25.758,49.898L25.75,49.882L25.743,49.865L25.735,49.849L25.728,49.833L25.72,49.817L25.713,49.801L25.705,49.784L25.698,49.768L25.691,49.752L25.684,49.735L25.676,49.719L25.669,49.702L25.662,49.686L25.655,49.669L25.648,49.653L25.641,49.636L25.634,49.62L25.628,49.603L25.621,49.587L25.614,49.57L25.607,49.553L25.601,49.537L25.594,49.52L25.588,49.503L25.581,49.486L25.575,49.47L25.568,49.453L25.562,49.436L25.556,49.419L25.55,49.402L25.543,49.385L25.537,49.368L25.531,49.351L25.525,49.334L25.519,49.317L25.513,49.3L25.507,49.283L25.501,49.266L25.496,49.249L25.49,49.232L25.484,49.215L25.478,49.198L25.473,49.18L25.467,49.163L25.462,49.146L25.456,49.129L25.451,49.111L25.446,49.094L25.44,49.077L25.435,49.059L25.43,49.042L25.425,49.025L25.42,49.007L25.415,48.99L25.41,48.972L25.405,48.955L25.4,48.937L25.395,48.92L25.39,48.902L25.385,48.885L25.381,48.867L25.376,48.849L25.371,48.832L25.367,48.814L25.362,48.796L25.358,48.779L25.354,48.761L25.349,48.743L25.345,48.725L25.341,48.708L25.337,48.69L25.333,48.672L25.329,48.654L25.325,48.636L25.321,48.618L25.317,48.6L25.313,48.582L25.309,48.564L25.305,48.546L25.302,48.528L25.298,48.51L25.294,48.492L25.291,48.474L25.287,48.456L25.284,48.438L25.281,48.42L25.277,48.402L25.274,48.384L25.271,48.366L25.268,48.347L25.265,48.329L25.262,48.311L25.259,48.293L25.256,48.274L25.253,48.256L25.25,48.238L25.247,48.219L25.245,48.201L25.242,48.183L25.239,48.164L25.237,48.146L25.234,48.128L25.232,48.109L25.229,48.091L25.227,48.072L25.225,48.054L25.223,48.035L25.22,48.017L25.218,47.998L25.216,47.98L25.214,47.961L25.212,47.942L25.211,47.933L25.21,47.924L25.21,47.914L25.209,47.905L25.208,47.896L25.207,47.886L25.206,47.877L25.205,47.868L25.204,47.858L25.204,47.849L25.203,47.84L25.202,47.83L25.201,47.821L25.2,47.812L25.2,47.802L25.199,47.793L25.198,47.784L25.198,47.774L25.197,47.765L25.196,47.755L25.195,47.746L25.195,47.737L25.194,47.727L25.194,47.718L25.193,47.708L25.192,47.699L25.192,47.69L25.191,47.68L25.191,47.671L25.19,47.661L25.19,47.652L25.189,47.643L25.189,47.633L25.188,47.624L25.188,47.614L25.187,47.605L25.187,47.595L25.186,47.586L25.186,47.576L25.186,47.567L25.185,47.557L25.185,47.548L25.185,47.539L25.184,47.529L25.184,47.52L25.184,47.51L25.183,47.501L25.183,47.491L25.183,47.482L25.183,47.472L25.182,47.463L25.182,47.453L25.182,47.444L25.182,47.434L25.182,47.425L25.181,47.415L25.181,47.406L25.181,47.396L25.181,47.386L25.181,47.377L25.181,47.367L25.181,47.358L25.181,47.348L25.181,47.339L25.181,47.329L25.181,47.32L25.181,47.31L25.181,47.301L25.181,47.291L25.181,47.281L25.181,47.272L25.181,47.262L25.181,47.253L25.181,47.243L25.181,47.234L25.181,47.224L25.182,47.215L25.182,47.205L25.182,47.196L25.182,47.186L25.182,47.177L25.183,47.167L25.183,47.158L25.183,47.148L25.183,47.139L25.184,47.129L25.184,47.12L25.184,47.11L25.185,47.101L25.185,47.091L25.185,47.082L25.186,47.072L25.186,47.063L25.186,47.053L25.187,47.044L25.187,47.035L25.188,47.025L25.188,47.016L25.189,47.006L25.189,46.997L25.19,46.987L25.19,46.978L25.191,46.968L25.191,46.959L25.192,46.95L25.192,46.94L25.193,46.931L25.194,46.921L25.194,46.912L25.195,46.903L25.195,46.893L25.196,46.884L25.197,46.874L25.198,46.865L25.198,46.856L25.199,46.846L25.2,46.837L25.2,46.828L25.201,46.818L25.202,46.809L25.203,46.8L25.204,46.79L25.204,46.781L25.205,46.772L25.206,46.762L25.207,46.753L25.208,46.744L25.209,46.734L25.21,46.725L25.21,46.716L25.211,46.706L25.212,46.697L25.214,46.678L25.216,46.66L25.218,46.641L25.22,46.623L25.223,46.604L25.225,46.586L25.227,46.567L25.229,46.549L25.232,46.53L25.234,46.512L25.237,46.493L25.239,46.475L25.242,46.457L25.245,46.438L25.247,46.42L25.25,46.402L25.253,46.383L25.256,46.365L25.259,46.347L25.262,46.328L25.265,46.31L25.268,46.292L25.271,46.274L25.274,46.256L25.277,46.237L25.281,46.219L25.284,46.201L25.287,46.183L25.291,46.165L25.294,46.147L25.298,46.129L25.302,46.111L25.305,46.093L25.309,46.075L25.313,46.057L25.317,46.039L25.321,46.021L25.325,46.003L25.329,45.985L25.333,45.967L25.337,45.95L25.341,45.932L25.345,45.914L25.349,45.896L25.354,45.878L25.358,45.861L25.362,45.843L25.367,45.825L25.371,45.808L25.376,45.79L25.381,45.772L25.385,45.755L25.39,45.737L25.395,45.72L25.4,45.702L25.405,45.684L25.41,45.667L25.415,45.65L25.42,45.632L25.425,45.615L25.43,45.597L25.435,45.58L25.44,45.562L25.446,45.545L25.451,45.528L25.456,45.511L25.462,45.493L25.467,45.476L25.473,45.459L25.478,45.442L25.484,45.424L25.49,45.407L25.496,45.39L25.501,45.373L25.507,45.356L25.513,45.339L25.519,45.322L25.525,45.305L25.531,45.288L25.537,45.271L25.543,45.254L25.55,45.237L25.556,45.22L25.562,45.203L25.568,45.186L25.575,45.17L25.581,45.153L25.588,45.136L25.594,45.119L25.601,45.103L25.607,45.086L25.614,45.069L25.621,45.053L25.628,45.036L25.634,45.019L25.641,45.003L25.648,44.986L25.655,44.97L25.662,44.953L25.669,44.937L25.676,44.92L25.684,44.904L25.691,44.888L25.698,44.871L25.705,44.855L25.713,44.839L25.72,44.822L25.728,44.806L25.735,44.79L25.743,44.774L25.75,44.758L25.758,44.741L25.765,44.725L25.773,44.709L25.781,44.693L25.789,44.677L25.797,44.661L25.804,44.645L25.812,44.629L25.82,44.613L25.828,44.597L25.837,44.582L25.845,44.566L25.853,44.55L25.861,44.534L25.869,44.518L25.878,44.503L25.886,44.487L25.894,44.471L25.903,44.456L25.911,44.44L25.92,44.425L25.928,44.409L25.937,44.393L25.946,44.378L25.954,44.363L25.963,44.347L25.972,44.332L25.981,44.316L25.99,44.301L25.999,44.286L26.008,44.27L26.017,44.255L26.026,44.24L26.035,44.225L26.044,44.21L26.053,44.194L26.062,44.179L26.072,44.164L26.081,44.149L26.09,44.134L26.1,44.119L26.109,44.104L26.119,44.089L26.128,44.075L26.138,44.06L26.147,44.045L26.157,44.03L26.167,44.015L26.177,44.001L26.186,43.986L26.196,43.971L26.206,43.957L26.216,43.942L26.226,43.927L26.236,43.913L26.246,43.898L26.256,43.884L26.266,43.869L26.276,43.855L26.287,43.841L26.297,43.826L26.307,43.812L26.317,43.798L26.328,43.784L26.338,43.769L26.349,43.755L26.359,43.741L26.37,43.727L26.38,43.713L26.391,43.699L26.401,43.685L26.412,43.671L26.423,43.657L26.434,43.643L26.444,43.629L26.455,43.615L26.466,43.601L26.477,43.588L26.488,43.574L26.499,43.56L26.51,43.546L26.521,43.533L26.532,43.519L26.544,43.506L26.555,43.492L26.566,43.479L26.577,43.465L26.589,43.452L26.6,43.438L26.611,43.425L26.623,43.412L26.634,43.398L26.646,43.385L26.657,43.372L26.669,43.359L26.681,43.346L26.692,43.332L26.704,43.319L26.716,43.306L26.727,43.293L26.739,43.28L26.751,43.267L26.763,43.255L26.775,43.242L26.787,43.229L26.799,43.216L26.811,43.203L26.823,43.191L26.835,43.178L26.847,43.165L26.859,43.153L26.872,43.14L26.884,43.128L26.896,43.115L26.909,43.103L26.921,43.09L26.933,43.078L26.946,43.066L26.958,43.053L26.971,43.041L26.983,43.029L26.996,43.017L27.009,43.005L27.021,42.992L27.034,42.98L27.047,42.968L27.059,42.956L27.072,42.944L27.085,42.933L27.098,42.921L27.111,42.909L27.124,42.897L27.137,42.885L27.15,42.874L27.163,42.862L27.176,42.85L27.189,42.839L27.202,42.827L27.215,42.816L27.228,42.804L27.242,42.793L27.255,42.781L27.268,42.77L27.282,42.759L27.295,42.747L27.308,42.736L27.322,42.725L27.335,42.714L27.349,42.703L27.362,42.692L27.376,42.68L27.39,42.669L27.403,42.659L27.417,42.648L27.431,42.637L27.444,42.626L27.458,42.615L27.472,42.604L27.486,42.594L27.5,42.583L27.514,42.572L27.527,42.562L27.541,42.551L27.555,42.541L27.569,42.53L27.584,42.52L27.598,42.51L27.612,42.499L27.626,42.489L27.64,42.479L27.654,42.468L27.669,42.458L27.683,42.448L27.697,42.438L27.712,42.428L27.726,42.418L27.74,42.408L27.755,42.398L27.769,42.388L27.784,42.379L27.798,42.369L27.813,42.359L27.827,42.349L27.842,42.34L27.857,42.33L27.871,42.321L27.886,42.311L27.901,42.302L27.916,42.292L27.93,42.283L27.945,42.274L27.96,42.264L27.975,42.255L27.99,42.246L28.005,42.237L28.02,42.228L28.035,42.219L28.05,42.21L28.065,42.201L28.08,42.192L28.095,42.183L28.11,42.174L28.125,42.165L28.141,42.156L28.156,42.148L28.171,42.139L28.186,42.13L28.202,42.122L28.217,42.113L28.232,42.105L28.248,42.096L28.263,42.088L28.279,42.08L28.294,42.071L28.31,42.063L28.325,42.055L28.341,42.047L28.356,42.039L28.372,42.031L28.388,42.023L28.403,42.015L28.419,42.007L28.435,41.999L28.451,41.991L28.466,41.983L28.482,41.976L28.498,41.968L28.514,41.96L28.53,41.953L28.546,41.945L28.562,41.938L28.577,41.93L28.593,41.923L28.609,41.916L28.626,41.908L28.642,41.901L28.658,41.894L28.674,41.887L28.69,41.88L28.706,41.873L28.722,41.866L28.739,41.859L28.755,41.852L28.771,41.845L28.787,41.838L28.804,41.832L28.82,41.825L28.836,41.818L28.853,41.812L28.869,41.805L28.886,41.799L28.902,41.792L28.919,41.786L28.935,41.779L28.952,41.773L28.968,41.767L28.985,41.761L29.001,41.755L29.018,41.748L29.035,41.742L29.051,41.736L29.068,41.73L29.085,41.725L29.101,41.719L29.118,41.713L29.135,41.707L29.152,41.702L29.169,41.696L29.185,41.69L29.202,41.685L29.219,41.679L29.236,41.674L29.253,41.669L29.27,41.663L29.287,41.658L29.304,41.653L29.321,41.648L29.338,41.642L29.355,41.637L29.372,41.632L29.39,41.627L29.407,41.622L29.424,41.618L29.441,41.613L29.458,41.608L29.475,41.603L29.493,41.599L29.51,41.594L29.527,41.59L29.545,41.585L29.562,41.581L29.579,41.576L29.597,41.572L29.614,41.568L29.631,41.564L29.649,41.559L29.666,41.555L29.684,41.551L29.701,41.547L29.719,41.543L29.736,41.539L29.754,41.536L29.771,41.532L29.789,41.528L29.807,41.524L29.824,41.521L29.842,41.517L29.86,41.514L29.877,41.51L29.895,41.507L29.913,41.504L29.93,41.5L29.948,41.497L29.966,41.494L29.984,41.491L30.002,41.488L30.019,41.485L30.037,41.482L30.055,41.479L30.073,41.476L30.091,41.473L30.109,41.471L30.127,41.468L30.145,41.465L30.163,41.463L30.181,41.46L30.199,41.458L30.217,41.455L30.235,41.453L30.253,41.451L30.271,41.449L30.289,41.446L30.307,41.444L30.325,41.442L30.344,41.44L30.353,41.439L30.362,41.438L30.371,41.438L30.38,41.437L30.389,41.436L30.398,41.435L30.407,41.434L30.416,41.433L30.425,41.432L30.435,41.431L30.444,41.431L30.453,41.43L30.462,41.429L30.471,41.428L30.48,41.427L30.489,41.427L30.499,41.426L30.508,41.425L30.517,41.424L30.526,41.424L30.535,41.423L30.544,41.422L30.554,41.422L30.563,41.421L30.572,41.421L30.581,41.42L30.59,41.419L30.599,41.419L30.609,41.418L30.618,41.418L30.627,41.417L30.636,41.417L30.645,41.416L30.655,41.416L30.664,41.415L30.673,41.415L30.682,41.414L30.692,41.414L30.701,41.413L30.71,41.413L30.719,41.413L30.729,41.412L30.738,41.412L30.747,41.412L30.756,41.411L30.766,41.411L30.775,41.411L30.784,41.41L30.793,41.41L30.803,41.41L30.812,41.41L30.821,41.409L30.83,41.409L30.84,41.409L30.849,41.409L30.858,41.409L30.868,41.409L30.877,41.408L30.886,41.408L30.896,41.408L30.905,41.408L30.914,41.408L30.923,41.408L30.933,41.408L30.942,41.408L30.951,41.408L30.961,41.408ZM30.945,43.378L30.939,43.379L30.933,43.379L30.926,43.379L30.92,43.379L30.914,43.379L30.908,43.379L30.901,43.379L30.895,43.379L30.889,43.379L30.883,43.379L30.876,43.379L30.87,43.379L30.864,43.379L30.858,43.38L30.851,43.38L30.845,43.38L30.839,43.38L30.833,43.38L30.826,43.381L30.82,43.381L30.814,43.381L30.808,43.381L30.801,43.381L30.796,43.382L30.789,43.382L30.783,43.382L30.777,43.382L30.771,43.383L30.765,43.383L30.758,43.383L30.752,43.384L30.746,43.384L30.74,43.384L30.734,43.385L30.728,43.385L30.721,43.385L30.715,43.386L30.709,43.386L30.703,43.387L30.697,43.387L30.691,43.387L30.684,43.388L30.679,43.388L30.672,43.389L30.666,43.389L30.66,43.39L30.654,43.39L30.648,43.391L30.642,43.391L30.635,43.392L30.629,43.392L30.623,43.393L30.617,43.393L30.611,43.394L30.605,43.394L30.599,43.395L30.593,43.395L30.587,43.396L30.581,43.396L30.575,43.397L30.568,43.398L30.562,43.398L30.556,43.399L30.55,43.4L30.545,43.4L30.532,43.402L30.52,43.403L30.508,43.404L30.496,43.406L30.484,43.407L30.472,43.409L30.46,43.41L30.448,43.412L30.436,43.413L30.424,43.415L30.412,43.417L30.4,43.419L30.388,43.42L30.376,43.422L30.364,43.424L30.352,43.426L30.34,43.428L30.328,43.43L30.316,43.432L30.305,43.434L30.293,43.436L30.281,43.438L30.269,43.44L30.257,43.442L30.246,43.445L30.234,43.447L30.222,43.449L30.21,43.451L30.198,43.454L30.187,43.456L30.175,43.459L30.163,43.461L30.152,43.464L30.14,43.466L30.129,43.469L30.117,43.471L30.105,43.474L30.094,43.477L30.082,43.479L30.07,43.482L30.059,43.485L30.047,43.488L30.036,43.491L30.024,43.494L30.013,43.496L30.001,43.499L29.99,43.502L29.978,43.506L29.967,43.509L29.955,43.512L29.944,43.515L29.932,43.518L29.921,43.521L29.91,43.524L29.898,43.528L29.887,43.531L29.876,43.534L29.864,43.538L29.853,43.541L29.842,43.545L29.831,43.548L29.819,43.552L29.808,43.555L29.797,43.559L29.786,43.563L29.774,43.566L29.763,43.57L29.752,43.574L29.741,43.578L29.73,43.581L29.719,43.585L29.707,43.589L29.696,43.593L29.685,43.597L29.674,43.601L29.663,43.605L29.652,43.609L29.641,43.613L29.63,43.617L29.619,43.621L29.608,43.625L29.597,43.63L29.586,43.634L29.575,43.638L29.564,43.643L29.553,43.647L29.543,43.651L29.531,43.656L29.52,43.66L29.51,43.665L29.499,43.669L29.488,43.674L29.477,43.678L29.467,43.683L29.456,43.687L29.445,43.692L29.434,43.697L29.424,43.702L29.413,43.706L29.402,43.711L29.392,43.716L29.381,43.721L29.37,43.726L29.359,43.731L29.349,43.736L29.339,43.741L29.328,43.746L29.317,43.751L29.307,43.756L29.296,43.761L29.286,43.766L29.276,43.771L29.265,43.777L29.254,43.782L29.244,43.787L29.234,43.793L29.223,43.798L29.213,43.803L29.202,43.809L29.193,43.814L29.182,43.82L29.172,43.825L29.161,43.831L29.151,43.836L29.141,43.842L29.13,43.848L29.12,43.853L29.11,43.859L29.1,43.865L29.09,43.87L29.079,43.876L29.069,43.882L29.059,43.888L29.049,43.894L29.039,43.9L29.029,43.906L29.019,43.912L29.009,43.918L28.999,43.924L28.989,43.93L28.979,43.936L28.969,43.942L28.959,43.948L28.949,43.955L28.939,43.961L28.93,43.967L28.92,43.973L28.91,43.979L28.9,43.986L28.89,43.992L28.881,43.998L28.871,44.005L28.861,44.011L28.852,44.018L28.842,44.024L28.832,44.031L28.822,44.038L28.812,44.044L28.803,44.051L28.793,44.057L28.784,44.064L28.774,44.071L28.765,44.078L28.755,44.085L28.746,44.091L28.736,44.098L28.727,44.105L28.718,44.112L28.708,44.119L28.698,44.126L28.689,44.133L28.68,44.14L28.67,44.147L28.661,44.154L28.652,44.161L28.643,44.168L28.634,44.175L28.624,44.183L28.615,44.19L28.606,44.197L28.597,44.204L28.587,44.212L28.578,44.219L28.569,44.226L28.56,44.233L28.551,44.241L28.542,44.248L28.533,44.256L28.524,44.263L28.515,44.271L28.506,44.278L28.497,44.286L28.488,44.294L28.479,44.301L28.471,44.309L28.462,44.316L28.453,44.324L28.444,44.332L28.435,44.34L28.427,44.347L28.418,44.355L28.41,44.363L28.4,44.371L28.391,44.379L28.383,44.387L28.375,44.395L28.366,44.403L28.358,44.41L28.349,44.418L28.34,44.427L28.331,44.435L28.324,44.443L28.315,44.451L28.307,44.459L28.298,44.467L28.29,44.475L28.281,44.484L28.273,44.492L28.265,44.5L28.257,44.509L28.248,44.517L28.24,44.525L28.232,44.534L28.224,44.542L28.216,44.55L28.207,44.559L28.199,44.568L28.191,44.576L28.183,44.584L28.176,44.592L28.168,44.601L28.159,44.61L28.151,44.619L28.143,44.627L28.135,44.636L28.127,44.645L28.119,44.654L28.112,44.662L28.105,44.67L28.096,44.68L28.088,44.689L28.081,44.698L28.073,44.707L28.065,44.715L28.058,44.724L28.05,44.733L28.043,44.742L28.035,44.752L28.027,44.76L28.02,44.769L28.012,44.778L28.005,44.787L27.997,44.797L27.99,44.805L27.983,44.814L27.975,44.824L27.968,44.833L27.96,44.842L27.954,44.851L27.946,44.86L27.939,44.87L27.932,44.879L27.924,44.889L27.917,44.898L27.91,44.907L27.903,44.917L27.896,44.926L27.889,44.935L27.882,44.945L27.875,44.954L27.868,44.964L27.861,44.974L27.854,44.983L27.847,44.992L27.841,45.002L27.834,45.011L27.827,45.021L27.82,45.031L27.813,45.041L27.807,45.051L27.8,45.061L27.794,45.069L27.787,45.079L27.78,45.089L27.774,45.099L27.767,45.109L27.76,45.119L27.754,45.128L27.747,45.139L27.741,45.148L27.735,45.158L27.728,45.168L27.722,45.179L27.716,45.188L27.71,45.198L27.703,45.208L27.697,45.218L27.691,45.228L27.685,45.238L27.679,45.248L27.672,45.259L27.666,45.268L27.66,45.279L27.654,45.289L27.648,45.299L27.642,45.31L27.636,45.32L27.631,45.33L27.625,45.34L27.619,45.35L27.613,45.361L27.607,45.371L27.602,45.381L27.596,45.392L27.59,45.403L27.585,45.412L27.579,45.422L27.573,45.433L27.568,45.444L27.562,45.454L27.556,45.465L27.551,45.475L27.546,45.486L27.54,45.496L27.535,45.507L27.529,45.518L27.524,45.528L27.519,45.538L27.514,45.549L27.508,45.56L27.503,45.571L27.498,45.581L27.493,45.592L27.488,45.603L27.483,45.613L27.478,45.624L27.473,45.635L27.468,45.646L27.463,45.656L27.458,45.667L27.453,45.679L27.448,45.69L27.444,45.7L27.439,45.71L27.434,45.722L27.429,45.732L27.425,45.743L27.419,45.755L27.415,45.765L27.411,45.776L27.406,45.787L27.401,45.799L27.397,45.81L27.392,45.821L27.388,45.832L27.384,45.842L27.379,45.854L27.375,45.866L27.371,45.876L27.367,45.887L27.362,45.899L27.358,45.91L27.354,45.921L27.35,45.932L27.345,45.943L27.341,45.955L27.337,45.966L27.333,45.977L27.329,45.989L27.325,46L27.321,46.011L27.318,46.022L27.314,46.034L27.31,46.045L27.306,46.056L27.302,46.068L27.299,46.079L27.295,46.091L27.291,46.102L27.287,46.114L27.284,46.125L27.281,46.136L27.277,46.149L27.273,46.16L27.27,46.171L27.267,46.183L27.263,46.195L27.26,46.207L27.256,46.218L27.253,46.229L27.25,46.241L27.247,46.253L27.244,46.264L27.241,46.275L27.237,46.288L27.234,46.299L27.232,46.31L27.228,46.323L27.225,46.335L27.222,46.346L27.219,46.358L27.217,46.37L27.214,46.382L27.211,46.393L27.208,46.405L27.205,46.417L27.203,46.429L27.2,46.441L27.197,46.453L27.195,46.464L27.192,46.477L27.19,46.488L27.187,46.5L27.185,46.512L27.182,46.524L27.18,46.537L27.178,46.548L27.176,46.56L27.173,46.572L27.171,46.585L27.169,46.597L27.167,46.609L27.164,46.621L27.162,46.632L27.16,46.645L27.158,46.656L27.156,46.668L27.154,46.682L27.152,46.694L27.151,46.705L27.149,46.717L27.147,46.73L27.145,46.742L27.143,46.755L27.142,46.767L27.14,46.779L27.138,46.791L27.137,46.803L27.135,46.816L27.134,46.829L27.132,46.841L27.131,46.852L27.13,46.865L27.128,46.878L27.127,46.89L27.125,46.903L27.125,46.909L27.124,46.916L27.124,46.921L27.123,46.927L27.122,46.934L27.122,46.941L27.121,46.946L27.121,46.951L27.12,46.959L27.12,46.964L27.119,46.969L27.118,46.979L27.118,46.984L27.118,46.989L27.117,46.996L27.117,47.002L27.116,47.009L27.115,47.016L27.115,47.022L27.115,47.027L27.114,47.032L27.114,47.04L27.113,47.047L27.113,47.052L27.113,47.058L27.112,47.065L27.112,47.072L27.111,47.078L27.111,47.083L27.111,47.09L27.11,47.098L27.11,47.103L27.11,47.109L27.109,47.116L27.109,47.121L27.109,47.127L27.108,47.136L27.108,47.142L27.108,47.147L27.108,47.154L27.107,47.16L27.107,47.165L27.107,47.173L27.107,47.18L27.106,47.186L27.106,47.191L27.106,47.197L27.106,47.204L27.106,47.212L27.106,47.217L27.105,47.223L27.105,47.23L27.105,47.238L27.105,47.243L27.105,47.249L27.105,47.254L27.105,47.262L27.105,47.269L27.105,47.275L27.104,47.28L27.104,47.288L27.104,47.295L27.104,47.301L27.104,47.306L27.104,47.312L27.105,47.365L27.106,47.422L27.107,47.479L27.11,47.536L27.113,47.592L27.117,47.643L27.121,47.693L27.125,47.737L27.13,47.775L27.134,47.811L27.138,47.848L27.143,47.885L27.149,47.922L27.154,47.957L27.16,47.994L27.167,48.031L27.173,48.067L27.18,48.102L27.187,48.139L27.195,48.175L27.203,48.211L27.211,48.246L27.219,48.281L27.228,48.316L27.237,48.352L27.247,48.386L27.256,48.421L27.267,48.457L27.277,48.49L27.287,48.525L27.299,48.56L27.31,48.595L27.322,48.629L27.333,48.662L27.345,48.696L27.358,48.729L27.371,48.763L27.384,48.797L27.397,48.83L27.411,48.863L27.425,48.896L27.439,48.929L27.453,48.961L27.468,48.993L27.483,49.026L27.498,49.058L27.514,49.09L27.529,49.121L27.546,49.153L27.562,49.185L27.579,49.217L27.596,49.248L27.613,49.278L27.631,49.31L27.648,49.34L27.666,49.371L27.685,49.401L27.703,49.431L27.722,49.461L27.741,49.491L27.76,49.52L27.78,49.55L27.8,49.579L27.82,49.608L27.841,49.638L27.861,49.666L27.882,49.694L27.903,49.722L27.924,49.75L27.946,49.779L27.968,49.806L27.99,49.834L28.012,49.861L28.035,49.888L28.057,49.915L28.081,49.942L28.104,49.969L28.127,49.994L28.151,50.02L28.176,50.047L28.199,50.072L28.224,50.097L28.248,50.122L28.273,50.147L28.298,50.172L28.324,50.197L28.349,50.221L28.374,50.244L28.4,50.268L28.427,50.292L28.453,50.315L28.479,50.338L28.506,50.361L28.533,50.383L28.56,50.406L28.587,50.428L28.615,50.45L28.643,50.471L28.67,50.492L28.698,50.513L28.727,50.534L28.755,50.555L28.784,50.575L28.812,50.595L28.842,50.615L28.871,50.634L28.9,50.653L28.93,50.673L28.959,50.691L28.989,50.71L29.019,50.728L29.049,50.746L29.079,50.763L29.11,50.78L29.141,50.797L29.172,50.814L29.203,50.831L29.234,50.847L29.265,50.863L29.296,50.878L29.328,50.894L29.359,50.908L29.392,50.923L29.423,50.938L29.456,50.952L29.488,50.966L29.521,50.979L29.553,50.992L29.586,51.005L29.619,51.018L29.652,51.03L29.685,51.042L29.718,51.054L29.752,51.066L29.786,51.077L29.819,51.087L29.853,51.098L29.887,51.108L29.921,51.118L29.955,51.128L29.99,51.137L30.024,51.146L30.059,51.154L30.094,51.163L30.129,51.171L30.163,51.178L30.198,51.185L30.234,51.193L30.269,51.199L30.305,51.205L30.34,51.211L30.376,51.217L30.412,51.222L30.448,51.227L30.484,51.232L30.52,51.236L30.569,51.242L30.617,51.246L30.666,51.25L30.715,51.254L30.765,51.256L30.814,51.258L30.863,51.26L30.913,51.261L30.951,51.261L30.957,51.261L30.964,51.261L30.971,51.261L30.976,51.261L30.983,51.261L30.989,51.261L30.995,51.261L31.001,51.26L31.008,51.26L31.014,51.26L31.02,51.26L31.026,51.26L31.033,51.26L31.039,51.26L31.045,51.26L31.051,51.26L31.058,51.259L31.064,51.259L31.07,51.259L31.076,51.259L31.083,51.259L31.089,51.258L31.095,51.258L31.101,51.258L31.107,51.258L31.114,51.257L31.119,51.257L31.126,51.257L31.133,51.257L31.138,51.256L31.145,51.256L31.15,51.256L31.157,51.255L31.163,51.255L31.17,51.255L31.175,51.254L31.181,51.254L31.188,51.254L31.194,51.253L31.2,51.253L31.206,51.252L31.212,51.252L31.219,51.251L31.225,51.251L31.23,51.251L31.237,51.25L31.243,51.25L31.249,51.249L31.255,51.249L31.261,51.248L31.268,51.248L31.273,51.247L31.279,51.247L31.286,51.246L31.292,51.246L31.298,51.245L31.304,51.245L31.31,51.244L31.316,51.243L31.322,51.243L31.328,51.242L31.334,51.242L31.341,51.241L31.346,51.24L31.353,51.24L31.358,51.239L31.371,51.238L31.383,51.236L31.395,51.235L31.407,51.234L31.419,51.232L31.431,51.231L31.443,51.229L31.455,51.227L31.467,51.226L31.479,51.224L31.491,51.222L31.503,51.221L31.515,51.219L31.527,51.217L31.539,51.215L31.551,51.213L31.563,51.211L31.575,51.21L31.587,51.207L31.598,51.205L31.61,51.203L31.622,51.201L31.634,51.199L31.646,51.197L31.658,51.195L31.669,51.193L31.681,51.19L31.693,51.188L31.704,51.186L31.716,51.183L31.728,51.181L31.74,51.178L31.751,51.176L31.763,51.173L31.774,51.171L31.786,51.168L31.798,51.165L31.81,51.163L31.821,51.16L31.833,51.157L31.844,51.154L31.855,51.152L31.867,51.149L31.879,51.146L31.89,51.143L31.902,51.14L31.913,51.137L31.925,51.134L31.936,51.131L31.948,51.128L31.959,51.124L31.97,51.121L31.982,51.118L31.993,51.115L32.005,51.111L32.016,51.108L32.027,51.105L32.039,51.101L32.05,51.098L32.061,51.095L32.072,51.091L32.083,51.088L32.095,51.084L32.106,51.08L32.118,51.077L32.129,51.073L32.14,51.069L32.151,51.066L32.162,51.062L32.173,51.058L32.185,51.054L32.195,51.05L32.206,51.046L32.218,51.042L32.229,51.038L32.24,51.034L32.251,51.03L32.262,51.026L32.273,51.022L32.284,51.018L32.295,51.014L32.306,51.01L32.317,51.005L32.328,51.001L32.339,50.997L32.35,50.992L32.361,50.988L32.371,50.984L32.382,50.979L32.393,50.975L32.404,50.97L32.415,50.966L32.426,50.961L32.436,50.956L32.447,50.952L32.458,50.947L32.468,50.942L32.479,50.938L32.49,50.933L32.5,50.928L32.511,50.923L32.522,50.918L32.533,50.913L32.543,50.908L32.554,50.904L32.564,50.898L32.575,50.893L32.585,50.888L32.596,50.883L32.606,50.878L32.617,50.873L32.628,50.868L32.638,50.863L32.648,50.857L32.659,50.852L32.669,50.847L32.679,50.841L32.69,50.836L32.7,50.831L32.711,50.825L32.721,50.82L32.731,50.814L32.742,50.808L32.752,50.803L32.762,50.797L32.772,50.792L32.783,50.786L32.793,50.78L32.803,50.775L32.813,50.769L32.823,50.763L32.833,50.757L32.843,50.751L32.853,50.746L32.864,50.739L32.874,50.734L32.884,50.728L32.894,50.722L32.903,50.716L32.914,50.71L32.924,50.703L32.934,50.697L32.944,50.691L32.953,50.685L32.963,50.679L32.973,50.673L32.983,50.666L32.993,50.66L33.003,50.654L33.012,50.647L33.022,50.641L33.032,50.634L33.042,50.628L33.052,50.621L33.062,50.615L33.071,50.608L33.08,50.602L33.09,50.595L33.1,50.588L33.11,50.582L33.119,50.575L33.129,50.568L33.138,50.562L33.147,50.555L33.157,50.548L33.167,50.541L33.176,50.534L33.185,50.528L33.195,50.52L33.205,50.513L33.214,50.507L33.223,50.5L33.232,50.493L33.242,50.485L33.251,50.478L33.26,50.471L33.27,50.464L33.279,50.457L33.288,50.45L33.297,50.442L33.306,50.435L33.315,50.428L33.325,50.421L33.333,50.413L33.342,50.406L33.352,50.398L33.361,50.391L33.37,50.384L33.379,50.376L33.388,50.369L33.397,50.361L33.406,50.353L33.414,50.346L33.424,50.338L33.432,50.331L33.441,50.323L33.45,50.315L33.459,50.308L33.468,50.299L33.476,50.292L33.485,50.284L33.494,50.276L33.502,50.268L33.511,50.261L33.52,50.252L33.528,50.244L33.537,50.237L33.545,50.229L33.554,50.22L33.563,50.213L33.571,50.205L33.58,50.196L33.588,50.188L33.596,50.18L33.605,50.172L33.613,50.164L33.621,50.156L33.629,50.148L33.638,50.139L33.646,50.131L33.655,50.122L33.663,50.114L33.671,50.106L33.68,50.097L33.688,50.089L33.695,50.081L33.703,50.072L33.712,50.063L33.72,50.055L33.728,50.046L33.736,50.038L33.744,50.029L33.752,50.02L33.76,50.012L33.767,50.003L33.775,49.994L33.783,49.986L33.791,49.977L33.799,49.968L33.807,49.959L33.814,49.951L33.822,49.942L33.83,49.933L33.837,49.924L33.845,49.915L33.853,49.906L33.861,49.897L33.868,49.888L33.875,49.879L33.883,49.87L33.891,49.861L33.898,49.852L33.905,49.843L33.913,49.833L33.921,49.824L33.928,49.816L33.935,49.807L33.942,49.798L33.95,49.788L33.957,49.779L33.964,49.769L33.971,49.76L33.978,49.751L33.985,49.742L33.993,49.732L34,49.722L34.007,49.713L34.014,49.704L34.021,49.695L34.028,49.685L34.035,49.675L34.041,49.666L34.049,49.657L34.055,49.647L34.062,49.637L34.07,49.627L34.076,49.618L34.082,49.609L34.089,49.599L34.096,49.589L34.103,49.579L34.11,49.57L34.116,49.56L34.123,49.55L34.13,49.54L34.136,49.53L34.143,49.52L34.149,49.511L34.155,49.501L34.162,49.491L34.168,49.481L34.174,49.471L34.181,49.461L34.187,49.451L34.193,49.441L34.2,49.431L34.206,49.421L34.212,49.412L34.218,49.401L34.225,49.39L34.23,49.381L34.236,49.371L34.243,49.36L34.249,49.35L34.254,49.34L34.26,49.33L34.266,49.32L34.273,49.309L34.278,49.299L34.284,49.289L34.29,49.279L34.295,49.269L34.301,49.258L34.307,49.248L34.313,49.237L34.319,49.226L34.324,49.216L34.329,49.207L34.335,49.196L34.341,49.185L34.346,49.175L34.352,49.164L34.357,49.153L34.363,49.143L34.368,49.132L34.373,49.122L34.378,49.112L34.384,49.1L34.389,49.09L34.394,49.079L34.4,49.069L34.405,49.058L34.41,49.047L34.415,49.037L34.42,49.025L34.425,49.014L34.43,49.005L34.435,48.994L34.44,48.983L34.445,48.972L34.45,48.961L34.455,48.95L34.46,48.939L34.465,48.928L34.469,48.918L34.474,48.907L34.478,48.896L34.483,48.885L34.488,48.873L34.492,48.863L34.497,48.852L34.502,48.841L34.506,48.83L34.511,48.818L34.515,48.808L34.519,48.796L34.524,48.785L34.528,48.774L34.532,48.763L34.537,48.752L34.541,48.741L34.545,48.73L34.549,48.718L34.554,48.706L34.558,48.696L34.561,48.685L34.566,48.674L34.57,48.662L34.574,48.651L34.578,48.639L34.581,48.629L34.585,48.617L34.589,48.605L34.593,48.594L34.597,48.583L34.6,48.572L34.604,48.559L34.608,48.548L34.612,48.537L34.615,48.526L34.619,48.514L34.622,48.502L34.626,48.491L34.629,48.479L34.633,48.468L34.636,48.457L34.639,48.446L34.643,48.434L34.646,48.421L34.65,48.409L34.653,48.398L34.656,48.387L34.659,48.375L34.662,48.364L34.665,48.352L34.669,48.339L34.672,48.328L34.675,48.317L34.678,48.305L34.681,48.292L34.684,48.281L34.686,48.27L34.689,48.258L34.692,48.246L34.695,48.234L34.697,48.223L34.7,48.21L34.703,48.198L34.705,48.187L34.708,48.175L34.71,48.163L34.713,48.151L34.715,48.139L34.718,48.127L34.72,48.115L34.723,48.103L34.725,48.09L34.727,48.079L34.73,48.067L34.732,48.055L34.734,48.042L34.736,48.031L34.738,48.019L34.741,48.007L34.743,47.995L34.745,47.982L34.747,47.97L34.749,47.958L34.75,47.946L34.752,47.934L34.754,47.921L34.756,47.909L34.758,47.897L34.76,47.885L34.761,47.873L34.763,47.86L34.764,47.848L34.766,47.835L34.768,47.824L34.769,47.812L34.771,47.798L34.772,47.786L34.773,47.774L34.775,47.761L34.776,47.749L34.777,47.737L34.778,47.732L34.779,47.725L34.779,47.718L34.78,47.711L34.781,47.706L34.781,47.7L34.782,47.693L34.782,47.688L34.783,47.681L34.783,47.673L34.784,47.668L34.784,47.663L34.785,47.655L34.785,47.65L34.786,47.645L34.786,47.636L34.787,47.63L34.787,47.625L34.788,47.618L34.788,47.612L34.789,47.605L34.789,47.6L34.789,47.594L34.79,47.585L34.79,47.58L34.791,47.574L34.791,47.569L34.792,47.562L34.792,47.554L34.792,47.549L34.793,47.544L34.793,47.538L34.793,47.529L34.794,47.523L34.794,47.518L34.794,47.511L34.794,47.505L34.795,47.498L34.795,47.492L34.795,47.487L34.796,47.479L34.796,47.472L34.796,47.467L34.796,47.461L34.796,47.454L34.797,47.448L34.797,47.441L34.797,47.435L34.797,47.43L34.797,47.422L34.798,47.415L34.798,47.409L34.798,47.404L34.798,47.396L34.798,47.391L34.798,47.383L34.798,47.376L34.798,47.372L34.798,47.365L34.798,47.357L34.798,47.353L34.799,47.346L34.799,47.338L34.799,47.333L34.799,47.325L34.799,47.32L34.799,47.314L34.799,47.306L34.799,47.301L34.799,47.293L34.798,47.286L34.798,47.282L34.798,47.275L34.798,47.267L34.798,47.264L34.798,47.256L34.798,47.249L34.798,47.243L34.798,47.236L34.798,47.23L34.798,47.225L34.797,47.217L34.797,47.21L34.797,47.204L34.797,47.199L34.797,47.191L34.796,47.186L34.796,47.178L34.796,47.173L34.796,47.167L34.796,47.16L34.795,47.152L34.795,47.147L34.795,47.142L34.794,47.134L34.794,47.129L34.794,47.121L34.794,47.116L34.793,47.111L34.793,47.101L34.793,47.096L34.792,47.09L34.792,47.085L34.792,47.078L34.791,47.07L34.791,47.065L34.79,47.06L34.79,47.054L34.789,47.045L34.789,47.04L34.789,47.034L34.788,47.027L34.788,47.022L34.787,47.014L34.787,47.009L34.786,47.004L34.786,46.994L34.785,46.989L34.785,46.984L34.784,46.977L34.784,46.971L34.783,46.966L34.783,46.959L34.782,46.951L34.782,46.946L34.781,46.939L34.781,46.934L34.78,46.929L34.779,46.921L34.779,46.914L34.778,46.907L34.777,46.903L34.776,46.89L34.775,46.878L34.773,46.866L34.772,46.853L34.771,46.841L34.769,46.828L34.768,46.815L34.766,46.804L34.764,46.791L34.763,46.779L34.761,46.767L34.76,46.755L34.758,46.742L34.756,46.73L34.754,46.718L34.752,46.705L34.75,46.693L34.749,46.681L34.747,46.669L34.745,46.657L34.743,46.644L34.741,46.632L34.738,46.621L34.736,46.609L34.734,46.597L34.732,46.584L34.73,46.572L34.727,46.561L34.725,46.549L34.723,46.536L34.72,46.524L34.718,46.513L34.715,46.5L34.713,46.488L34.71,46.476L34.708,46.464L34.705,46.453L34.703,46.441L34.7,46.43L34.697,46.416L34.695,46.405L34.692,46.393L34.689,46.381L34.686,46.37L34.684,46.358L34.681,46.347L34.678,46.335L34.675,46.322L34.672,46.311L34.669,46.3L34.666,46.288L34.662,46.275L34.659,46.264L34.656,46.252L34.653,46.241L34.65,46.23L34.646,46.218L34.643,46.206L34.639,46.194L34.636,46.183L34.633,46.172L34.629,46.16L34.626,46.148L34.622,46.137L34.619,46.125L34.615,46.113L34.612,46.102L34.608,46.092L34.604,46.08L34.6,46.067L34.597,46.056L34.593,46.046L34.589,46.034L34.585,46.022L34.581,46.011L34.578,46L34.574,45.989L34.57,45.977L34.566,45.965L34.561,45.954L34.558,45.943L34.554,45.933L34.549,45.922L34.545,45.909L34.541,45.898L34.537,45.887L34.532,45.876L34.528,45.865L34.524,45.855L34.519,45.843L34.515,45.831L34.511,45.821L34.506,45.81L34.502,45.799L34.497,45.787L34.492,45.776L34.488,45.766L34.483,45.754L34.478,45.743L34.474,45.732L34.469,45.721L34.465,45.711L34.46,45.7L34.455,45.69L34.45,45.679L34.445,45.667L34.44,45.656L34.435,45.645L34.43,45.635L34.425,45.625L34.42,45.614L34.415,45.602L34.41,45.592L34.405,45.581L34.4,45.571L34.394,45.56L34.389,45.549L34.384,45.539L34.378,45.528L34.373,45.517L34.368,45.507L34.363,45.496L34.357,45.486L34.352,45.475L34.346,45.464L34.341,45.455L34.335,45.444L34.329,45.433L34.324,45.423L34.319,45.413L34.313,45.402L34.307,45.392L34.301,45.382L34.295,45.371L34.29,45.36L34.284,45.35L34.278,45.34L34.273,45.33L34.266,45.32L34.26,45.309L34.254,45.299L34.249,45.289L34.243,45.279L34.236,45.268L34.23,45.258L34.225,45.249L34.218,45.238L34.212,45.228L34.206,45.219L34.2,45.208L34.193,45.198L34.187,45.188L34.181,45.178L34.174,45.168L34.168,45.159L34.162,45.148L34.155,45.138L34.149,45.128L34.143,45.119L34.136,45.109L34.13,45.099L34.123,45.089L34.116,45.079L34.11,45.07L34.103,45.06L34.096,45.051L34.089,45.041L34.082,45.031L34.076,45.021L34.07,45.012L34.063,45.002L34.055,44.992L34.048,44.983L34.041,44.973L34.035,44.965L34.028,44.955L34.021,44.944L34.014,44.935L34.007,44.926L34,44.917L33.993,44.907L33.985,44.898L33.978,44.888L33.971,44.879L33.964,44.87L33.957,44.86L33.95,44.852L33.942,44.842L33.935,44.832L33.928,44.824L33.921,44.815L33.913,44.806L33.905,44.796L33.898,44.787L33.891,44.778L33.883,44.769L33.875,44.76L33.868,44.751L33.861,44.742L33.853,44.733L33.845,44.724L33.837,44.715L33.83,44.707L33.822,44.698L33.815,44.689L33.807,44.68L33.799,44.671L33.791,44.662L33.783,44.654L33.775,44.645L33.768,44.636L33.76,44.627L33.752,44.619L33.744,44.61L33.736,44.602L33.728,44.593L33.72,44.584L33.712,44.576L33.703,44.567L33.695,44.559L33.688,44.551L33.68,44.542L33.671,44.533L33.663,44.525L33.655,44.517L33.646,44.509L33.638,44.5L33.629,44.492L33.621,44.484L33.613,44.475L33.605,44.467L33.596,44.459L33.588,44.451L33.58,44.443L33.571,44.435L33.563,44.427L33.554,44.419L33.545,44.41L33.537,44.403L33.528,44.395L33.52,44.387L33.511,44.379L33.502,44.371L33.494,44.363L33.485,44.355L33.476,44.347L33.468,44.34L33.459,44.332L33.45,44.324L33.441,44.317L33.432,44.309L33.424,44.301L33.414,44.293L33.406,44.286L33.397,44.278L33.388,44.271L33.379,44.263L33.37,44.256L33.361,44.248L33.352,44.241L33.342,44.233L33.333,44.226L33.325,44.219L33.315,44.211L33.306,44.204L33.298,44.197L33.288,44.19L33.279,44.182L33.27,44.175L33.26,44.168L33.251,44.161L33.242,44.154L33.232,44.147L33.223,44.14L33.214,44.133L33.205,44.126L33.195,44.119L33.185,44.112L33.176,44.105L33.167,44.098L33.157,44.091L33.147,44.084L33.138,44.078L33.129,44.071L33.119,44.064L33.11,44.057L33.1,44.051L33.09,44.044L33.08,44.037L33.071,44.031L33.062,44.025L33.052,44.018L33.042,44.011L33.032,44.005L33.022,43.998L33.012,43.992L33.003,43.986L32.993,43.98L32.983,43.973L32.973,43.967L32.963,43.961L32.953,43.954L32.944,43.948L32.934,43.942L32.924,43.936L32.914,43.93L32.903,43.923L32.894,43.918L32.884,43.912L32.874,43.906L32.864,43.9L32.853,43.894L32.844,43.888L32.833,43.882L32.823,43.876L32.813,43.871L32.803,43.865L32.793,43.859L32.783,43.853L32.772,43.848L32.762,43.842L32.752,43.836L32.742,43.831L32.731,43.825L32.721,43.82L32.711,43.814L32.7,43.809L32.69,43.803L32.679,43.798L32.669,43.793L32.659,43.787L32.648,43.782L32.638,43.777L32.628,43.772L32.617,43.766L32.606,43.761L32.596,43.756L32.585,43.751L32.575,43.746L32.564,43.741L32.553,43.736L32.543,43.731L32.533,43.726L32.522,43.721L32.511,43.716L32.501,43.711L32.49,43.706L32.479,43.702L32.468,43.697L32.458,43.692L32.447,43.688L32.436,43.683L32.425,43.678L32.415,43.674L32.404,43.669L32.393,43.665L32.382,43.66L32.371,43.656L32.361,43.651L32.349,43.647L32.339,43.643L32.328,43.638L32.317,43.634L32.306,43.63L32.295,43.625L32.284,43.621L32.273,43.617L32.262,43.613L32.251,43.609L32.24,43.605L32.229,43.601L32.218,43.597L32.207,43.593L32.195,43.589L32.184,43.585L32.174,43.581L32.162,43.578L32.151,43.574L32.14,43.57L32.129,43.566L32.118,43.563L32.106,43.559L32.095,43.555L32.084,43.552L32.072,43.548L32.061,43.545L32.05,43.541L32.039,43.538L32.027,43.534L32.016,43.531L32.005,43.528L31.993,43.524L31.982,43.521L31.97,43.518L31.959,43.515L31.948,43.512L31.936,43.509L31.925,43.506L31.913,43.502L31.902,43.499L31.89,43.496L31.879,43.494L31.867,43.491L31.855,43.488L31.844,43.485L31.833,43.482L31.821,43.479L31.809,43.477L31.798,43.474L31.786,43.471L31.775,43.469L31.763,43.466L31.751,43.464L31.74,43.461L31.728,43.459L31.716,43.456L31.704,43.454L31.693,43.451L31.681,43.449L31.669,43.447L31.657,43.445L31.646,43.442L31.634,43.44L31.622,43.438L31.61,43.436L31.598,43.434L31.586,43.432L31.575,43.43L31.563,43.428L31.551,43.426L31.539,43.424L31.527,43.422L31.515,43.42L31.503,43.419L31.491,43.417L31.479,43.415L31.467,43.413L31.455,43.412L31.443,43.41L31.431,43.409L31.419,43.407L31.407,43.406L31.395,43.404L31.383,43.403L31.371,43.402L31.358,43.4L31.353,43.4L31.347,43.399L31.34,43.398L31.334,43.398L31.328,43.397L31.322,43.396L31.316,43.396L31.31,43.395L31.304,43.395L31.298,43.394L31.292,43.394L31.286,43.393L31.279,43.393L31.274,43.392L31.268,43.392L31.261,43.391L31.255,43.391L31.249,43.39L31.243,43.39L31.237,43.389L31.23,43.389L31.224,43.388L31.218,43.388L31.212,43.387L31.206,43.387L31.2,43.387L31.194,43.386L31.188,43.386L31.181,43.385L31.175,43.385L31.169,43.385L31.163,43.384L31.157,43.384L31.151,43.384L31.145,43.383L31.138,43.383L31.132,43.383L31.126,43.382L31.12,43.382L31.114,43.382L31.107,43.382L31.101,43.381L31.095,43.381L31.089,43.381L31.083,43.381L31.076,43.381L31.07,43.38L31.064,43.38L31.058,43.38L31.052,43.38L31.045,43.38L31.039,43.379L31.033,43.379L31.027,43.379L31.02,43.379L31.014,43.379L31.008,43.379L31.002,43.379L30.995,43.379L30.989,43.379L30.983,43.379L30.977,43.379L30.97,43.379L30.964,43.379L30.958,43.378L30.951,43.378L30.945,43.378Z" style="fill:rgb(153,0,0);"/>
                    </g>
                </g>
            </g>
        </g>
    </g>
</svg>
