<?xml version="1.0" encoding="UTF-8" standalone="no"?>
<!DOCTYPE svg PUBLIC "-//W3C//DTD SVG 1.1//EN" "http://www.w3.org/Graphics/SVG/1.1/DTD/svg11.dtd">
<svg width="11px" height="20px" version="1.1" xmlns="http://www.w3.org/2000/svg" xmlns:xlink="http://www.w3.org/1999/xlink" xml:space="preserve" xmlns:serif="http://www.serif.com/" style="fill-rule:evenodd;clip-rule:evenodd;stroke-linejoin:round;stroke-miterlimit:1.41421;">
    <g transform="matrix(0.0295276,0,0,0.0295276,-295.571,-8.26772)">
        <g transform="matrix(1.09916,0,0,1.67861,-961.987,-55.2037)">
            <g id="Switch-2-Low" serif:id="Switch 2 Low">
                <g id="Switch.2" transform="matrix(0.909786,0,0,0.595731,-2977.09,-67.8805)">
                    <g>
                        <g transform="matrix(0.823978,0,0,0.553855,13738.5,-1488.37)">
                            <path d="M1039.31,3562.89C1039.31,3528.01 1020.27,3499.69 996.828,3499.69L657.013,3499.69C633.569,3499.69 614.536,3528.01 614.536,3562.89L614.536,4610.09C614.536,4644.97 633.569,4673.28 657.013,4673.28L996.828,4673.28C1020.27,4673.28 1039.31,4644.97 1039.31,4610.09L1039.31,3562.89Z" style="fill:rgb(255,240,240);"/>
                            <path d="M997.102,3499.69L997.376,3499.7L997.65,3499.7L997.923,3499.71L998.196,3499.72L998.469,3499.74L998.741,3499.76L999.012,3499.78L999.283,3499.8L999.554,3499.82L999.824,3499.85L1000.09,3499.88L1000.36,3499.91L1000.63,3499.94L1000.9,3499.98L1001.17,3500.02L1001.44,3500.06L1001.7,3500.11L1001.97,3500.15L1002.24,3500.2L1002.5,3500.25L1002.76,3500.31L1003.03,3500.36L1003.29,3500.42L1003.56,3500.48L1003.82,3500.55L1004.08,3500.61L1004.34,3500.68L1004.6,3500.75L1004.86,3500.82L1005.12,3500.9L1005.38,3500.98L1005.64,3501.06L1005.9,3501.14L1006.16,3501.22L1006.42,3501.31L1006.67,3501.4L1006.93,3501.49L1007.18,3501.59L1007.44,3501.68L1007.69,3501.78L1007.95,3501.88L1008.2,3501.99L1008.45,3502.09L1008.7,3502.2L1008.95,3502.31L1009.2,3502.42L1009.45,3502.54L1009.7,3502.65L1009.95,3502.77L1010.2,3502.89L1010.45,3503.01L1010.69,3503.14L1010.94,3503.27L1011.18,3503.4L1011.43,3503.53L1011.67,3503.66L1011.91,3503.8L1012.15,3503.94L1012.4,3504.08L1012.64,3504.22L1012.88,3504.37L1013.12,3504.51L1013.36,3504.66L1013.59,3504.81L1013.83,3504.97L1014.07,3505.12L1014.3,3505.28L1014.54,3505.44L1014.77,3505.6L1015,3505.76L1015.24,3505.93L1015.47,3506.1L1015.7,3506.26L1015.93,3506.44L1016.16,3506.61L1016.39,3506.79L1016.62,3506.96L1016.84,3507.14L1017.07,3507.33L1017.29,3507.51L1017.52,3507.69L1017.74,3507.88L1017.96,3508.07L1018.19,3508.26L1018.41,3508.45L1018.63,3508.65L1018.85,3508.85L1019.07,3509.05L1019.28,3509.25L1019.5,3509.45L1019.72,3509.65L1019.93,3509.86L1020.14,3510.07L1020.36,3510.28L1020.57,3510.49L1020.78,3510.7L1020.99,3510.92L1021.2,3511.14L1021.41,3511.36L1021.62,3511.58L1021.83,3511.8L1022.03,3512.03L1022.24,3512.25L1022.44,3512.48L1022.64,3512.71L1022.85,3512.95L1023.05,3513.18L1023.25,3513.41L1023.45,3513.65L1023.64,3513.89L1023.84,3514.13L1024.04,3514.37L1024.23,3514.62L1024.43,3514.86L1024.62,3515.11L1024.81,3515.36L1025,3515.61L1025.19,3515.86L1025.38,3516.12L1025.57,3516.37L1025.76,3516.63L1025.94,3516.89L1026.13,3517.15L1026.31,3517.41L1026.5,3517.68L1026.68,3517.94L1026.86,3518.21L1027.04,3518.48L1027.22,3518.75L1027.39,3519.02L1027.57,3519.3L1027.75,3519.57L1027.92,3519.85L1028.09,3520.13L1028.26,3520.41L1028.43,3520.69L1028.61,3520.97L1028.77,3521.25L1028.94,3521.54L1029.11,3521.83L1029.27,3522.12L1029.44,3522.41L1029.6,3522.7L1029.76,3522.99L1029.92,3523.29L1030.08,3523.58L1030.24,3523.88L1030.4,3524.18L1030.55,3524.48L1030.71,3524.78L1030.86,3525.09L1031.01,3525.39L1031.16,3525.7L1031.32,3526.01L1031.46,3526.32L1031.61,3526.62L1031.76,3526.94L1031.9,3527.25L1032.05,3527.56L1032.19,3527.88L1032.33,3528.2L1032.47,3528.52L1032.61,3528.84L1032.75,3529.16L1032.88,3529.48L1033.02,3529.8L1033.15,3530.13L1033.28,3530.45L1033.41,3530.78L1033.55,3531.11L1033.67,3531.44L1033.8,3531.77L1033.93,3532.11L1034.05,3532.44L1034.17,3532.78L1034.3,3533.11L1034.42,3533.45L1034.54,3533.79L1034.65,3534.13L1034.77,3534.47L1034.89,3534.81L1035,3535.16L1035.11,3535.5L1035.22,3535.85L1035.33,3536.19L1035.44,3536.54L1035.55,3536.89L1035.66,3537.24L1035.76,3537.59L1035.86,3537.95L1035.96,3538.3L1036.07,3538.65L1036.16,3539.01L1036.26,3539.37L1036.36,3539.72L1036.45,3540.08L1036.54,3540.44L1036.63,3540.81L1036.72,3541.17L1036.81,3541.53L1036.9,3541.89L1036.99,3542.26L1037.07,3542.63L1037.15,3542.99L1037.24,3543.36L1037.32,3543.73L1037.39,3544.1L1037.47,3544.47L1037.55,3544.85L1037.62,3545.22L1037.69,3545.6L1037.76,3545.97L1037.83,3546.35L1037.9,3546.72L1037.97,3547.1L1038.03,3547.48L1038.09,3547.86L1038.16,3548.24L1038.22,3548.62L1038.28,3549.01L1038.33,3549.39L1038.39,3549.77L1038.44,3550.16L1038.49,3550.54L1038.54,3550.93L1038.59,3551.32L1038.64,3551.71L1038.69,3552.1L1038.73,3552.49L1038.77,3552.88L1038.82,3553.27L1038.85,3553.66L1038.89,3554.05L1038.93,3554.45L1038.96,3554.84L1039,3555.24L1039.03,3555.63L1039.06,3556.03L1039.09,3556.43L1039.11,3556.83L1039.14,3557.23L1039.16,3557.63L1039.18,3558.03L1039.2,3558.43L1039.22,3558.83L1039.24,3559.23L1039.25,3559.64L1039.26,3560.04L1039.27,3560.45L1039.28,3560.85L1039.29,3561.26L1039.3,3561.66L1039.3,3562.07L1039.3,3562.48L1039.31,3562.89L1039.31,4610.09L1039.3,4610.5L1039.3,4610.91L1039.3,4611.32L1039.29,4611.72L1039.28,4612.13L1039.27,4612.53L1039.26,4612.94L1039.25,4613.34L1039.24,4613.74L1039.22,4614.15L1039.2,4614.55L1039.18,4614.95L1039.16,4615.35L1039.14,4615.75L1039.11,4616.15L1039.09,4616.55L1039.06,4616.95L1039.03,4617.34L1039,4617.74L1038.96,4618.14L1038.93,4618.53L1038.89,4618.92L1038.85,4619.32L1038.82,4619.71L1038.77,4620.1L1038.73,4620.49L1038.69,4620.88L1038.64,4621.27L1038.59,4621.66L1038.54,4622.05L1038.49,4622.44L1038.44,4622.82L1038.39,4623.21L1038.33,4623.59L1038.28,4623.97L1038.22,4624.36L1038.16,4624.74L1038.09,4625.12L1038.03,4625.5L1037.97,4625.88L1037.9,4626.26L1037.83,4626.63L1037.76,4627.01L1037.69,4627.38L1037.62,4627.76L1037.55,4628.13L1037.47,4628.5L1037.39,4628.88L1037.32,4629.24L1037.24,4629.61L1037.15,4629.98L1037.07,4630.35L1036.99,4630.72L1036.9,4631.08L1036.81,4631.45L1036.72,4631.81L1036.63,4632.17L1036.54,4632.53L1036.45,4632.89L1036.36,4633.25L1036.26,4633.61L1036.16,4633.97L1036.07,4634.32L1035.96,4634.68L1035.86,4635.03L1035.76,4635.39L1035.66,4635.74L1035.55,4636.09L1035.44,4636.44L1035.33,4636.79L1035.22,4637.13L1035.11,4637.48L1035,4637.82L1034.89,4638.17L1034.77,4638.51L1034.65,4638.85L1034.54,4639.19L1034.42,4639.53L1034.3,4639.87L1034.17,4640.2L1034.05,4640.54L1033.93,4640.87L1033.8,4641.2L1033.67,4641.54L1033.55,4641.87L1033.41,4642.19L1033.28,4642.52L1033.15,4642.85L1033.02,4643.17L1032.88,4643.5L1032.75,4643.82L1032.61,4644.14L1032.47,4644.46L1032.33,4644.78L1032.19,4645.1L1032.05,4645.41L1031.9,4645.73L1031.76,4646.04L1031.61,4646.35L1031.46,4646.66L1031.32,4646.97L1031.16,4647.28L1031.01,4647.59L1030.86,4647.89L1030.71,4648.19L1030.55,4648.5L1030.4,4648.8L1030.24,4649.1L1030.08,4649.39L1029.92,4649.69L1029.76,4649.98L1029.6,4650.28L1029.44,4650.57L1029.27,4650.86L1029.11,4651.15L1028.94,4651.44L1028.77,4651.72L1028.61,4652.01L1028.43,4652.29L1028.26,4652.57L1028.09,4652.85L1027.92,4653.13L1027.75,4653.41L1027.57,4653.68L1027.39,4653.96L1027.22,4654.23L1027.04,4654.5L1026.86,4654.77L1026.68,4655.03L1026.5,4655.3L1026.31,4655.56L1026.13,4655.83L1025.94,4656.09L1025.76,4656.35L1025.57,4656.61L1025.38,4656.86L1025.19,4657.11L1025,4657.37L1024.81,4657.62L1024.62,4657.87L1024.43,4658.11L1024.23,4658.36L1024.04,4658.61L1023.84,4658.85L1023.64,4659.09L1023.45,4659.33L1023.25,4659.56L1023.05,4659.8L1022.85,4660.03L1022.64,4660.27L1022.44,4660.5L1022.24,4660.72L1022.03,4660.95L1021.83,4661.18L1021.62,4661.4L1021.41,4661.62L1021.2,4661.84L1020.99,4662.06L1020.78,4662.27L1020.57,4662.49L1020.36,4662.7L1020.14,4662.91L1019.93,4663.12L1019.72,4663.32L1019.5,4663.53L1019.28,4663.73L1019.07,4663.93L1018.85,4664.13L1018.63,4664.33L1018.41,4664.52L1018.19,4664.72L1017.96,4664.91L1017.74,4665.1L1017.52,4665.28L1017.29,4665.47L1017.07,4665.65L1016.84,4665.84L1016.62,4666.01L1016.39,4666.19L1016.16,4666.37L1015.93,4666.54L1015.7,4666.71L1015.47,4666.88L1015.24,4667.05L1015,4667.22L1014.77,4667.38L1014.54,4667.54L1014.3,4667.7L1014.07,4667.86L1013.83,4668.01L1013.59,4668.16L1013.36,4668.32L1013.12,4668.47L1012.88,4668.61L1012.64,4668.76L1012.4,4668.9L1012.15,4669.04L1011.91,4669.18L1011.67,4669.31L1011.43,4669.45L1011.18,4669.58L1010.94,4669.71L1010.69,4669.84L1010.45,4669.96L1010.2,4670.09L1009.95,4670.21L1009.7,4670.32L1009.45,4670.44L1009.2,4670.56L1008.95,4670.67L1008.7,4670.78L1008.45,4670.89L1008.2,4670.99L1007.95,4671.1L1007.69,4671.2L1007.44,4671.29L1007.18,4671.39L1006.93,4671.48L1006.67,4671.58L1006.42,4671.67L1006.16,4671.75L1005.9,4671.84L1005.64,4671.92L1005.38,4672L1005.12,4672.08L1004.86,4672.15L1004.6,4672.23L1004.34,4672.3L1004.08,4672.37L1003.82,4672.43L1003.56,4672.49L1003.29,4672.56L1003.03,4672.61L1002.76,4672.67L1002.5,4672.73L1002.24,4672.78L1001.97,4672.83L1001.7,4672.87L1001.44,4672.92L1001.17,4672.96L1000.9,4673L1000.63,4673.03L1000.36,4673.07L1000.09,4673.1L999.824,4673.13L999.554,4673.16L999.283,4673.18L999.012,4673.2L998.741,4673.22L998.469,4673.24L998.196,4673.25L997.923,4673.26L997.65,4673.27L997.376,4673.28L997.102,4673.28L996.828,4673.28L657.013,4673.28L656.738,4673.28L656.464,4673.28L656.191,4673.27L655.917,4673.26L655.644,4673.25L655.372,4673.24L655.1,4673.22L654.828,4673.2L654.557,4673.18L654.287,4673.16L654.016,4673.13L653.747,4673.1L653.477,4673.07L653.209,4673.03L652.94,4673L652.672,4672.96L652.405,4672.92L652.138,4672.87L651.872,4672.83L651.606,4672.78L651.341,4672.73L651.076,4672.67L650.812,4672.61L650.548,4672.56L650.284,4672.49L650.022,4672.43L649.76,4672.37L649.498,4672.3L649.237,4672.23L648.976,4672.15L648.716,4672.08L648.457,4672L648.198,4671.92L647.94,4671.84L647.682,4671.75L647.425,4671.67L647.168,4671.58L646.913,4671.48L646.657,4671.39L646.403,4671.29L646.148,4671.2L645.895,4671.1L645.642,4670.99L645.39,4670.89L645.138,4670.78L644.887,4670.67L644.637,4670.56L644.387,4670.44L644.138,4670.32L643.89,4670.21L643.642,4670.09L643.395,4669.96L643.149,4669.84L642.903,4669.71L642.658,4669.58L642.414,4669.45L642.171,4669.31L641.928,4669.18L641.686,4669.04L641.444,4668.9L641.203,4668.76L640.963,4668.61L640.724,4668.47L640.486,4668.32L640.248,4668.16L640.011,4668.01L639.774,4667.86L639.539,4667.7L639.304,4667.54L639.07,4667.38L638.837,4667.22L638.604,4667.05L638.373,4666.88L638.142,4666.71L637.912,4666.54L637.682,4666.37L637.454,4666.19L637.226,4666.01L636.999,4665.84L636.773,4665.65L636.548,4665.47L636.323,4665.28L636.1,4665.1L635.877,4664.91L635.655,4664.72L635.434,4664.52L635.213,4664.33L634.994,4664.13L634.776,4663.93L634.558,4663.73L634.341,4663.53L634.125,4663.32L633.91,4663.12L633.696,4662.91L633.483,4662.7L633.271,4662.49L633.059,4662.27L632.849,4662.06L632.639,4661.84L632.43,4661.62L632.223,4661.4L632.016,4661.18L631.81,4660.95L631.605,4660.72L631.401,4660.5L631.198,4660.27L630.996,4660.03L630.795,4659.8L630.595,4659.56L630.396,4659.33L630.197,4659.09L630,4658.85L629.804,4658.61L629.609,4658.36L629.415,4658.11L629.221,4657.87L629.029,4657.62L628.838,4657.37L628.648,4657.11L628.459,4656.86L628.271,4656.61L628.083,4656.35L627.897,4656.09L627.712,4655.83L627.529,4655.56L627.346,4655.3L627.164,4655.03L626.983,4654.77L626.803,4654.5L626.625,4654.23L626.447,4653.96L626.271,4653.68L626.096,4653.41L625.921,4653.13L625.748,4652.85L625.576,4652.57L625.405,4652.29L625.236,4652.01L625.067,4651.72L624.899,4651.44L624.733,4651.15L624.568,4650.86L624.404,4650.57L624.241,4650.28L624.079,4649.98L623.918,4649.69L623.759,4649.39L623.601,4649.1L623.444,4648.8L623.288,4648.5L623.133,4648.19L622.979,4647.89L622.827,4647.59L622.676,4647.28L622.526,4646.97L622.377,4646.66L622.23,4646.35L622.083,4646.04L621.938,4645.73L621.795,4645.41L621.652,4645.1L621.511,4644.78L621.371,4644.46L621.232,4644.14L621.094,4643.82L620.958,4643.5L620.823,4643.17L620.689,4642.85L620.557,4642.52L620.426,4642.19L620.296,4641.87L620.167,4641.54L620.04,4641.2L619.914,4640.87L619.789,4640.54L619.666,4640.2L619.544,4639.87L619.423,4639.53L619.304,4639.19L619.186,4638.85L619.069,4638.51L618.954,4638.17L618.84,4637.82L618.727,4637.48L618.616,4637.13L618.506,4636.79L618.398,4636.44L618.291,4636.09L618.185,4635.74L618.081,4635.39L617.978,4635.03L617.876,4634.68L617.776,4634.32L617.677,4633.97L617.58,4633.61L617.484,4633.25L617.39,4632.89L617.297,4632.53L617.205,4632.17L617.115,4631.81L617.027,4631.45L616.939,4631.08L616.854,4630.72L616.769,4630.35L616.687,4629.98L616.605,4629.61L616.525,4629.24L616.447,4628.88L616.37,4628.5L616.295,4628.13L616.221,4627.76L616.149,4627.38L616.078,4627.01L616.008,4626.63L615.941,4626.26L615.874,4625.88L615.81,4625.5L615.746,4625.12L615.685,4624.74L615.625,4624.36L615.566,4623.97L615.509,4623.59L615.454,4623.21L615.4,4622.82L615.347,4622.44L615.297,4622.05L615.248,4621.66L615.2,4621.27L615.154,4620.88L615.11,4620.49L615.067,4620.1L615.026,4619.71L614.986,4619.32L614.948,4618.92L614.912,4618.53L614.878,4618.14L614.845,4617.74L614.813,4617.34L614.784,4616.95L614.756,4616.55L614.729,4616.15L614.704,4615.75L614.681,4615.35L614.66,4614.95L614.64,4614.55L614.622,4614.15L614.606,4613.74L614.591,4613.34L614.578,4612.94L614.567,4612.53L614.558,4612.13L614.55,4611.72L614.544,4611.32L614.54,4610.91L614.537,4610.5L614.536,4610.09L614.536,3562.89L614.537,3562.48L614.54,3562.07L614.544,3561.66L614.55,3561.26L614.558,3560.85L614.567,3560.45L614.578,3560.04L614.591,3559.64L614.606,3559.23L614.622,3558.83L614.64,3558.43L614.66,3558.03L614.681,3557.63L614.704,3557.23L614.729,3556.83L614.756,3556.43L614.784,3556.03L614.813,3555.63L614.845,3555.24L614.878,3554.84L614.912,3554.45L614.948,3554.05L614.986,3553.66L615.026,3553.27L615.067,3552.88L615.11,3552.49L615.154,3552.1L615.2,3551.71L615.248,3551.32L615.297,3550.93L615.347,3550.54L615.4,3550.16L615.454,3549.77L615.509,3549.39L615.566,3549.01L615.625,3548.62L615.685,3548.24L615.746,3547.86L615.81,3547.48L615.874,3547.1L615.941,3546.72L616.008,3546.35L616.078,3545.97L616.149,3545.6L616.221,3545.22L616.295,3544.85L616.37,3544.47L616.447,3544.1L616.525,3543.73L616.605,3543.36L616.687,3542.99L616.769,3542.63L616.854,3542.26L616.939,3541.89L617.027,3541.53L617.115,3541.17L617.205,3540.81L617.297,3540.44L617.39,3540.08L617.484,3539.72L617.58,3539.37L617.677,3539.01L617.776,3538.65L617.876,3538.3L617.978,3537.95L618.081,3537.59L618.185,3537.24L618.291,3536.89L618.398,3536.54L618.506,3536.19L618.616,3535.85L618.727,3535.5L618.84,3535.16L618.954,3534.81L619.069,3534.47L619.186,3534.13L619.304,3533.79L619.423,3533.45L619.544,3533.11L619.666,3532.78L619.789,3532.44L619.914,3532.11L620.04,3531.77L620.167,3531.44L620.296,3531.11L620.426,3530.78L620.557,3530.45L620.689,3530.13L620.823,3529.8L620.958,3529.48L621.094,3529.16L621.232,3528.84L621.371,3528.52L621.511,3528.2L621.652,3527.88L621.795,3527.56L621.938,3527.25L622.083,3526.94L622.23,3526.62L622.377,3526.32L622.526,3526.01L622.676,3525.7L622.827,3525.39L622.979,3525.09L623.133,3524.78L623.288,3524.48L623.444,3524.18L623.601,3523.88L623.759,3523.58L623.918,3523.29L624.079,3522.99L624.241,3522.7L624.404,3522.41L624.568,3522.12L624.733,3521.83L624.899,3521.54L625.067,3521.25L625.236,3520.97L625.405,3520.69L625.576,3520.41L625.748,3520.13L625.921,3519.85L626.096,3519.57L626.271,3519.3L626.447,3519.02L626.625,3518.75L626.803,3518.48L626.983,3518.21L627.164,3517.94L627.346,3517.68L627.529,3517.41L627.712,3517.15L627.897,3516.89L628.083,3516.63L628.271,3516.37L628.459,3516.12L628.648,3515.86L628.838,3515.61L629.029,3515.36L629.221,3515.11L629.415,3514.86L629.609,3514.62L629.804,3514.37L630,3514.13L630.197,3513.89L630.396,3513.65L630.595,3513.41L630.795,3513.18L630.996,3512.95L631.198,3512.71L631.401,3512.48L631.605,3512.25L631.81,3512.03L632.016,3511.8L632.223,3511.58L632.43,3511.36L632.639,3511.14L632.849,3510.92L633.059,3510.7L633.271,3510.49L633.483,3510.28L633.696,3510.07L633.91,3509.86L634.125,3509.65L634.341,3509.45L634.558,3509.25L634.776,3509.05L634.994,3508.85L635.213,3508.65L635.434,3508.45L635.655,3508.26L635.877,3508.07L636.1,3507.88L636.323,3507.69L636.548,3507.51L636.773,3507.33L636.999,3507.14L637.226,3506.96L637.454,3506.79L637.682,3506.61L637.912,3506.44L638.142,3506.26L638.373,3506.1L638.604,3505.93L638.837,3505.76L639.07,3505.6L639.304,3505.44L639.539,3505.28L639.774,3505.12L640.011,3504.97L640.248,3504.81L640.486,3504.66L640.724,3504.51L640.963,3504.37L641.203,3504.22L641.444,3504.08L641.686,3503.94L641.928,3503.8L642.171,3503.66L642.414,3503.53L642.658,3503.4L642.903,3503.27L643.149,3503.14L643.395,3503.01L643.642,3502.89L643.89,3502.77L644.138,3502.65L644.387,3502.54L644.637,3502.42L644.887,3502.31L645.138,3502.2L645.39,3502.09L645.642,3501.99L645.895,3501.88L646.148,3501.78L646.403,3501.68L646.657,3501.59L646.913,3501.49L647.168,3501.4L647.425,3501.31L647.682,3501.22L647.94,3501.14L648.198,3501.06L648.457,3500.98L648.716,3500.9L648.976,3500.82L649.237,3500.75L649.498,3500.68L649.76,3500.61L650.022,3500.55L650.284,3500.48L650.548,3500.42L650.812,3500.36L651.076,3500.31L651.341,3500.25L651.606,3500.2L651.872,3500.15L652.138,3500.11L652.405,3500.06L652.672,3500.02L652.94,3499.98L653.209,3499.94L653.477,3499.91L653.747,3499.88L654.016,3499.85L654.287,3499.82L654.557,3499.8L654.828,3499.78L655.1,3499.76L655.372,3499.74L655.644,3499.72L655.917,3499.71L656.191,3499.7L656.464,3499.7L656.738,3499.69L657.013,3499.69L996.828,3499.69L997.102,3499.69ZM675.217,3589.97L675.217,4583.01L978.623,4583.01L978.623,3589.97L675.217,3589.97Z" style="fill:rgb(153,0,0);"/>
                        </g>
                    </g>
                </g>
                <g id="Sw.Lever" transform="matrix(0.909786,0,0,0.595731,-2977.09,-266.665)">
                    <g>
                        <g>
                            <g>
                                <g transform="matrix(1.13568,0,0,1.30499,-1959.2,-493.08)">
                                    <path d="M14521.4,1409.42C14521.4,1404.14 14516.5,1399.85 14510.4,1399.85L14334.3,1399.85C14328.2,1399.85 14323.3,1404.14 14323.3,1409.42C14323.3,1414.71 14328.2,1419 14334.3,1419L14510.4,1419C14516.5,1419 14521.4,1414.71 14521.4,1409.42Z" style="fill:rgb(153,0,0);"/>
                                    <path d="M14510.5,1399.85L14510.7,1399.85L14510.8,1399.85L14510.9,1399.86L14511.1,1399.87L14511.2,1399.88L14511.4,1399.88L14511.5,1399.9L14511.6,1399.91L14511.8,1399.92L14511.9,1399.94L14512.1,1399.96L14512.2,1399.98L14512.3,1400L14512.5,1400.02L14512.6,1400.04L14512.7,1400.07L14512.9,1400.09L14513,1400.12L14513.1,1400.15L14513.3,1400.18L14513.4,1400.21L14513.5,1400.24L14513.6,1400.28L14513.8,1400.31L14513.9,1400.35L14514,1400.39L14514.2,1400.43L14514.3,1400.47L14514.4,1400.51L14514.5,1400.56L14514.7,1400.6L14514.8,1400.65L14514.9,1400.69L14515,1400.74L14515.1,1400.79L14515.3,1400.84L14515.4,1400.89L14515.5,1400.95L14515.6,1401L14515.7,1401.06L14515.9,1401.12L14516,1401.17L14516.1,1401.23L14516.2,1401.3L14516.3,1401.36L14516.4,1401.42L14516.5,1401.48L14516.6,1401.55L14516.7,1401.62L14516.9,1401.68L14517,1401.75L14517.1,1401.82L14517.2,1401.89L14517.3,1401.96L14517.4,1402.04L14517.5,1402.11L14517.6,1402.18L14517.7,1402.26L14517.8,1402.34L14517.9,1402.41L14518,1402.49L14518.1,1402.57L14518.2,1402.65L14518.2,1402.74L14518.3,1402.82L14518.4,1402.9L14518.5,1402.99L14518.6,1403.07L14518.7,1403.16L14518.8,1403.25L14518.9,1403.33L14519,1403.42L14519,1403.51L14519.1,1403.6L14519.2,1403.7L14519.3,1403.79L14519.4,1403.88L14519.4,1403.98L14519.5,1404.07L14519.6,1404.17L14519.6,1404.26L14519.7,1404.36L14519.8,1404.46L14519.9,1404.56L14519.9,1404.66L14520,1404.76L14520.1,1404.86L14520.1,1404.96L14520.2,1405.07L14520.2,1405.17L14520.3,1405.27L14520.4,1405.38L14520.4,1405.49L14520.5,1405.59L14520.5,1405.7L14520.6,1405.81L14520.6,1405.91L14520.7,1406.02L14520.7,1406.13L14520.8,1406.24L14520.8,1406.36L14520.8,1406.47L14520.9,1406.58L14520.9,1406.69L14521,1406.8L14521,1406.92L14521,1407.03L14521.1,1407.15L14521.1,1407.26L14521.1,1407.38L14521.2,1407.5L14521.2,1407.61L14521.2,1407.73L14521.2,1407.85L14521.3,1407.97L14521.3,1408.09L14521.3,1408.21L14521.3,1408.33L14521.3,1408.45L14521.3,1408.57L14521.3,1408.69L14521.4,1408.81L14521.4,1408.93L14521.4,1409.06L14521.4,1409.18L14521.4,1409.3L14521.4,1409.42L14521.4,1409.55L14521.4,1409.67L14521.4,1409.8L14521.4,1409.92L14521.4,1410.04L14521.3,1410.16L14521.3,1410.28L14521.3,1410.4L14521.3,1410.53L14521.3,1410.64L14521.3,1410.76L14521.3,1410.88L14521.2,1411L14521.2,1411.12L14521.2,1411.24L14521.2,1411.36L14521.1,1411.47L14521.1,1411.59L14521.1,1411.7L14521,1411.82L14521,1411.93L14521,1412.05L14520.9,1412.16L14520.9,1412.27L14520.8,1412.38L14520.8,1412.5L14520.8,1412.61L14520.7,1412.72L14520.7,1412.83L14520.6,1412.94L14520.6,1413.05L14520.5,1413.15L14520.5,1413.26L14520.4,1413.37L14520.4,1413.47L14520.3,1413.58L14520.2,1413.68L14520.2,1413.78L14520.1,1413.89L14520.1,1413.99L14520,1414.09L14519.9,1414.19L14519.9,1414.29L14519.8,1414.39L14519.7,1414.49L14519.6,1414.59L14519.6,1414.68L14519.5,1414.78L14519.4,1414.87L14519.4,1414.97L14519.3,1415.06L14519.2,1415.15L14519.1,1415.25L14519,1415.34L14519,1415.43L14518.9,1415.52L14518.8,1415.61L14518.7,1415.69L14518.6,1415.78L14518.5,1415.86L14518.4,1415.95L14518.3,1416.03L14518.2,1416.12L14518.2,1416.2L14518.1,1416.28L14518,1416.36L14517.9,1416.44L14517.8,1416.51L14517.7,1416.59L14517.6,1416.67L14517.5,1416.74L14517.4,1416.82L14517.3,1416.89L14517.2,1416.96L14517.1,1417.03L14517,1417.1L14516.9,1417.17L14516.7,1417.24L14516.6,1417.3L14516.5,1417.37L14516.4,1417.43L14516.3,1417.49L14516.2,1417.56L14516.1,1417.62L14516,1417.68L14515.9,1417.73L14515.7,1417.79L14515.6,1417.85L14515.5,1417.9L14515.4,1417.95L14515.3,1418.01L14515.1,1418.06L14515,1418.11L14514.9,1418.16L14514.8,1418.2L14514.7,1418.25L14514.5,1418.3L14514.4,1418.34L14514.3,1418.38L14514.2,1418.42L14514,1418.46L14513.9,1418.5L14513.8,1418.54L14513.6,1418.57L14513.5,1418.61L14513.4,1418.64L14513.3,1418.67L14513.1,1418.7L14513,1418.73L14512.9,1418.76L14512.7,1418.79L14512.6,1418.81L14512.5,1418.83L14512.3,1418.85L14512.2,1418.88L14512.1,1418.89L14511.9,1418.91L14511.8,1418.93L14511.6,1418.94L14511.5,1418.95L14511.4,1418.97L14511.2,1418.98L14511.1,1418.98L14510.9,1418.99L14510.8,1419L14510.7,1419L14510.5,1419L14510.4,1419L14334.3,1419L14334.1,1419L14334,1419L14333.8,1419L14333.7,1418.99L14333.6,1418.98L14333.4,1418.98L14333.3,1418.97L14333.1,1418.95L14333,1418.94L14332.9,1418.93L14332.7,1418.91L14332.6,1418.89L14332.5,1418.88L14332.3,1418.85L14332.2,1418.83L14332.1,1418.81L14331.9,1418.79L14331.8,1418.76L14331.7,1418.73L14331.5,1418.7L14331.4,1418.67L14331.3,1418.64L14331.1,1418.61L14331,1418.57L14330.9,1418.54L14330.7,1418.5L14330.6,1418.46L14330.5,1418.42L14330.4,1418.38L14330.2,1418.34L14330.1,1418.3L14330,1418.25L14329.9,1418.2L14329.7,1418.16L14329.6,1418.11L14329.5,1418.06L14329.4,1418.01L14329.3,1417.95L14329.1,1417.9L14329,1417.85L14328.9,1417.79L14328.8,1417.73L14328.7,1417.68L14328.6,1417.62L14328.5,1417.56L14328.3,1417.49L14328.2,1417.43L14328.1,1417.37L14328,1417.3L14327.9,1417.24L14327.8,1417.17L14327.7,1417.1L14327.6,1417.03L14327.5,1416.96L14327.4,1416.89L14327.3,1416.82L14327.2,1416.74L14327.1,1416.67L14327,1416.59L14326.9,1416.51L14326.8,1416.44L14326.7,1416.36L14326.6,1416.28L14326.5,1416.2L14326.4,1416.12L14326.3,1416.03L14326.2,1415.95L14326.1,1415.86L14326,1415.78L14325.9,1415.69L14325.9,1415.61L14325.8,1415.52L14325.7,1415.43L14325.6,1415.34L14325.5,1415.25L14325.5,1415.15L14325.4,1415.06L14325.3,1414.97L14325.2,1414.87L14325.1,1414.78L14325.1,1414.68L14325,1414.59L14324.9,1414.49L14324.9,1414.39L14324.8,1414.29L14324.7,1414.19L14324.7,1414.09L14324.6,1413.99L14324.5,1413.89L14324.5,1413.78L14324.4,1413.68L14324.3,1413.58L14324.3,1413.47L14324.2,1413.37L14324.2,1413.26L14324.1,1413.15L14324.1,1413.05L14324,1412.94L14324,1412.83L14323.9,1412.72L14323.9,1412.61L14323.8,1412.5L14323.8,1412.38L14323.8,1412.27L14323.7,1412.16L14323.7,1412.05L14323.6,1411.93L14323.6,1411.82L14323.6,1411.7L14323.5,1411.59L14323.5,1411.47L14323.5,1411.36L14323.5,1411.24L14323.4,1411.12L14323.4,1411L14323.4,1410.88L14323.4,1410.76L14323.4,1410.64L14323.3,1410.53L14323.3,1410.4L14323.3,1410.28L14323.3,1410.16L14323.3,1410.04L14323.3,1409.92L14323.3,1409.8L14323.3,1409.67L14323.3,1409.55L14323.3,1409.42L14323.3,1409.3L14323.3,1409.18L14323.3,1409.06L14323.3,1408.93L14323.3,1408.81L14323.3,1408.69L14323.3,1408.57L14323.3,1408.45L14323.3,1408.33L14323.4,1408.21L14323.4,1408.09L14323.4,1407.97L14323.4,1407.85L14323.4,1407.73L14323.5,1407.61L14323.5,1407.5L14323.5,1407.38L14323.5,1407.26L14323.6,1407.15L14323.6,1407.03L14323.6,1406.92L14323.7,1406.8L14323.7,1406.69L14323.8,1406.58L14323.8,1406.47L14323.8,1406.36L14323.9,1406.24L14323.9,1406.13L14324,1406.02L14324,1405.91L14324.1,1405.81L14324.1,1405.7L14324.2,1405.59L14324.2,1405.49L14324.3,1405.38L14324.3,1405.27L14324.4,1405.17L14324.5,1405.07L14324.5,1404.96L14324.6,1404.86L14324.7,1404.76L14324.7,1404.66L14324.8,1404.56L14324.9,1404.46L14324.9,1404.36L14325,1404.26L14325.1,1404.17L14325.1,1404.07L14325.2,1403.98L14325.3,1403.88L14325.4,1403.79L14325.5,1403.7L14325.5,1403.6L14325.6,1403.51L14325.7,1403.42L14325.8,1403.33L14325.9,1403.25L14325.9,1403.16L14326,1403.07L14326.1,1402.99L14326.2,1402.9L14326.3,1402.82L14326.4,1402.74L14326.5,1402.65L14326.6,1402.57L14326.7,1402.49L14326.8,1402.41L14326.9,1402.34L14327,1402.26L14327.1,1402.18L14327.2,1402.11L14327.3,1402.04L14327.4,1401.96L14327.5,1401.89L14327.6,1401.82L14327.7,1401.75L14327.8,1401.68L14327.9,1401.62L14328,1401.55L14328.1,1401.48L14328.2,1401.42L14328.3,1401.36L14328.5,1401.3L14328.6,1401.23L14328.7,1401.17L14328.8,1401.12L14328.9,1401.06L14329,1401L14329.1,1400.95L14329.3,1400.89L14329.4,1400.84L14329.5,1400.79L14329.6,1400.74L14329.7,1400.69L14329.9,1400.65L14330,1400.6L14330.1,1400.56L14330.2,1400.51L14330.4,1400.47L14330.5,1400.43L14330.6,1400.39L14330.7,1400.35L14330.9,1400.31L14331,1400.28L14331.1,1400.24L14331.3,1400.21L14331.4,1400.18L14331.5,1400.15L14331.7,1400.12L14331.8,1400.09L14331.9,1400.07L14332.1,1400.04L14332.2,1400.02L14332.3,1400L14332.5,1399.98L14332.6,1399.96L14332.7,1399.94L14332.9,1399.92L14333,1399.91L14333.1,1399.9L14333.3,1399.88L14333.4,1399.88L14333.6,1399.87L14333.7,1399.86L14333.8,1399.85L14334,1399.85L14334.1,1399.85L14334.3,1399.85L14510.4,1399.85L14510.5,1399.85ZM14334.3,1409.42L14334.3,1409.42L14334.3,1409.42L14510.3,1409.42L14510.3,1409.42L14510.3,1409.42L14334.3,1409.42Z" style="fill:rgb(153,0,0);"/>
                                </g>
                                <g transform="matrix(1.13568,0,0,1.30499,-1959.2,-543.08)">
                                    <path d="M14521.4,1409.42C14521.4,1404.14 14516.5,1399.85 14510.4,1399.85L14334.3,1399.85C14328.2,1399.85 14323.3,1404.14 14323.3,1409.42C14323.3,1414.71 14328.2,1419 14334.3,1419L14510.4,1419C14516.5,1419 14521.4,1414.71 14521.4,1409.42Z" style="fill:rgb(153,0,0);"/>
                                    <path d="M14510.5,1399.85L14510.7,1399.85L14510.8,1399.85L14510.9,1399.86L14511.1,1399.87L14511.2,1399.88L14511.4,1399.88L14511.5,1399.9L14511.6,1399.91L14511.8,1399.92L14511.9,1399.94L14512.1,1399.96L14512.2,1399.98L14512.3,1400L14512.5,1400.02L14512.6,1400.04L14512.7,1400.07L14512.9,1400.09L14513,1400.12L14513.1,1400.15L14513.3,1400.18L14513.4,1400.21L14513.5,1400.24L14513.6,1400.28L14513.8,1400.31L14513.9,1400.35L14514,1400.39L14514.2,1400.43L14514.3,1400.47L14514.4,1400.51L14514.5,1400.56L14514.7,1400.6L14514.8,1400.65L14514.9,1400.69L14515,1400.74L14515.1,1400.79L14515.3,1400.84L14515.4,1400.89L14515.5,1400.95L14515.6,1401L14515.7,1401.06L14515.9,1401.12L14516,1401.17L14516.1,1401.23L14516.2,1401.3L14516.3,1401.36L14516.4,1401.42L14516.5,1401.48L14516.6,1401.55L14516.7,1401.62L14516.9,1401.68L14517,1401.75L14517.1,1401.82L14517.2,1401.89L14517.3,1401.96L14517.4,1402.04L14517.5,1402.11L14517.6,1402.18L14517.7,1402.26L14517.8,1402.34L14517.9,1402.41L14518,1402.49L14518.1,1402.57L14518.2,1402.65L14518.2,1402.74L14518.3,1402.82L14518.4,1402.9L14518.5,1402.99L14518.6,1403.07L14518.7,1403.16L14518.8,1403.25L14518.9,1403.33L14519,1403.42L14519,1403.51L14519.1,1403.6L14519.2,1403.7L14519.3,1403.79L14519.4,1403.88L14519.4,1403.98L14519.5,1404.07L14519.6,1404.17L14519.6,1404.26L14519.7,1404.36L14519.8,1404.46L14519.9,1404.56L14519.9,1404.66L14520,1404.76L14520.1,1404.86L14520.1,1404.96L14520.2,1405.07L14520.2,1405.17L14520.3,1405.27L14520.4,1405.38L14520.4,1405.49L14520.5,1405.59L14520.5,1405.7L14520.6,1405.81L14520.6,1405.91L14520.7,1406.02L14520.7,1406.13L14520.8,1406.24L14520.8,1406.36L14520.8,1406.47L14520.9,1406.58L14520.9,1406.69L14521,1406.8L14521,1406.92L14521,1407.03L14521.1,1407.15L14521.1,1407.26L14521.1,1407.38L14521.2,1407.5L14521.2,1407.61L14521.2,1407.73L14521.2,1407.85L14521.3,1407.97L14521.3,1408.09L14521.3,1408.21L14521.3,1408.33L14521.3,1408.45L14521.3,1408.57L14521.3,1408.69L14521.4,1408.81L14521.4,1408.93L14521.4,1409.06L14521.4,1409.18L14521.4,1409.3L14521.4,1409.42L14521.4,1409.55L14521.4,1409.67L14521.4,1409.8L14521.4,1409.92L14521.4,1410.04L14521.3,1410.16L14521.3,1410.28L14521.3,1410.4L14521.3,1410.53L14521.3,1410.64L14521.3,1410.76L14521.3,1410.88L14521.2,1411L14521.2,1411.12L14521.2,1411.24L14521.2,1411.36L14521.1,1411.47L14521.1,1411.59L14521.1,1411.7L14521,1411.82L14521,1411.93L14521,1412.05L14520.9,1412.16L14520.9,1412.27L14520.8,1412.38L14520.8,1412.5L14520.8,1412.61L14520.7,1412.72L14520.7,1412.83L14520.6,1412.94L14520.6,1413.05L14520.5,1413.15L14520.5,1413.26L14520.4,1413.37L14520.4,1413.47L14520.3,1413.58L14520.2,1413.68L14520.2,1413.78L14520.1,1413.89L14520.1,1413.99L14520,1414.09L14519.9,1414.19L14519.9,1414.29L14519.8,1414.39L14519.7,1414.49L14519.6,1414.59L14519.6,1414.68L14519.5,1414.78L14519.4,1414.87L14519.4,1414.97L14519.3,1415.06L14519.2,1415.15L14519.1,1415.25L14519,1415.34L14519,1415.43L14518.9,1415.52L14518.8,1415.61L14518.7,1415.69L14518.6,1415.78L14518.5,1415.86L14518.4,1415.95L14518.3,1416.03L14518.2,1416.12L14518.2,1416.2L14518.1,1416.28L14518,1416.36L14517.9,1416.44L14517.8,1416.51L14517.7,1416.59L14517.6,1416.67L14517.5,1416.74L14517.4,1416.82L14517.3,1416.89L14517.2,1416.96L14517.1,1417.03L14517,1417.1L14516.9,1417.17L14516.7,1417.24L14516.6,1417.3L14516.5,1417.37L14516.4,1417.43L14516.3,1417.49L14516.2,1417.56L14516.1,1417.62L14516,1417.68L14515.9,1417.73L14515.7,1417.79L14515.6,1417.85L14515.5,1417.9L14515.4,1417.95L14515.3,1418.01L14515.1,1418.06L14515,1418.11L14514.9,1418.16L14514.8,1418.2L14514.7,1418.25L14514.5,1418.3L14514.4,1418.34L14514.3,1418.38L14514.2,1418.42L14514,1418.46L14513.9,1418.5L14513.8,1418.54L14513.6,1418.57L14513.5,1418.61L14513.4,1418.64L14513.3,1418.67L14513.1,1418.7L14513,1418.73L14512.9,1418.76L14512.7,1418.79L14512.6,1418.81L14512.5,1418.83L14512.3,1418.85L14512.2,1418.88L14512.1,1418.89L14511.9,1418.91L14511.8,1418.93L14511.6,1418.94L14511.5,1418.95L14511.4,1418.97L14511.2,1418.98L14511.1,1418.98L14510.9,1418.99L14510.8,1419L14510.7,1419L14510.5,1419L14510.4,1419L14334.3,1419L14334.1,1419L14334,1419L14333.8,1419L14333.7,1418.99L14333.6,1418.98L14333.4,1418.98L14333.3,1418.97L14333.1,1418.95L14333,1418.94L14332.9,1418.93L14332.7,1418.91L14332.6,1418.89L14332.5,1418.88L14332.3,1418.85L14332.2,1418.83L14332.1,1418.81L14331.9,1418.79L14331.8,1418.76L14331.7,1418.73L14331.5,1418.7L14331.4,1418.67L14331.3,1418.64L14331.1,1418.61L14331,1418.57L14330.9,1418.54L14330.7,1418.5L14330.6,1418.46L14330.5,1418.42L14330.4,1418.38L14330.2,1418.34L14330.1,1418.3L14330,1418.25L14329.9,1418.2L14329.7,1418.16L14329.6,1418.11L14329.5,1418.06L14329.4,1418.01L14329.3,1417.95L14329.1,1417.9L14329,1417.85L14328.9,1417.79L14328.8,1417.73L14328.7,1417.68L14328.6,1417.62L14328.5,1417.56L14328.3,1417.49L14328.2,1417.43L14328.1,1417.37L14328,1417.3L14327.9,1417.24L14327.8,1417.17L14327.7,1417.1L14327.6,1417.03L14327.5,1416.96L14327.4,1416.89L14327.3,1416.82L14327.2,1416.74L14327.1,1416.67L14327,1416.59L14326.9,1416.51L14326.8,1416.44L14326.7,1416.36L14326.6,1416.28L14326.5,1416.2L14326.4,1416.12L14326.3,1416.03L14326.2,1415.95L14326.1,1415.86L14326,1415.78L14325.9,1415.69L14325.9,1415.61L14325.8,1415.52L14325.7,1415.43L14325.6,1415.34L14325.5,1415.25L14325.5,1415.15L14325.4,1415.06L14325.3,1414.97L14325.2,1414.87L14325.1,1414.78L14325.1,1414.68L14325,1414.59L14324.9,1414.49L14324.9,1414.39L14324.8,1414.29L14324.7,1414.19L14324.7,1414.09L14324.6,1413.99L14324.5,1413.89L14324.5,1413.78L14324.4,1413.68L14324.3,1413.58L14324.3,1413.47L14324.2,1413.37L14324.2,1413.26L14324.1,1413.15L14324.1,1413.05L14324,1412.94L14324,1412.83L14323.9,1412.72L14323.9,1412.61L14323.8,1412.5L14323.8,1412.38L14323.8,1412.27L14323.7,1412.16L14323.7,1412.05L14323.6,1411.93L14323.6,1411.82L14323.6,1411.7L14323.5,1411.59L14323.5,1411.47L14323.5,1411.36L14323.5,1411.24L14323.4,1411.12L14323.4,1411L14323.4,1410.88L14323.4,1410.76L14323.4,1410.64L14323.3,1410.53L14323.3,1410.4L14323.3,1410.28L14323.3,1410.16L14323.3,1410.04L14323.3,1409.92L14323.3,1409.8L14323.3,1409.67L14323.3,1409.55L14323.3,1409.42L14323.3,1409.3L14323.3,1409.18L14323.3,1409.06L14323.3,1408.93L14323.3,1408.81L14323.3,1408.69L14323.3,1408.57L14323.3,1408.45L14323.3,1408.33L14323.4,1408.21L14323.4,1408.09L14323.4,1407.97L14323.4,1407.85L14323.4,1407.73L14323.5,1407.61L14323.5,1407.5L14323.5,1407.38L14323.5,1407.26L14323.6,1407.15L14323.6,1407.03L14323.6,1406.92L14323.7,1406.8L14323.7,1406.69L14323.8,1406.58L14323.8,1406.47L14323.8,1406.36L14323.9,1406.24L14323.9,1406.13L14324,1406.02L14324,1405.91L14324.1,1405.81L14324.1,1405.7L14324.2,1405.59L14324.2,1405.49L14324.3,1405.38L14324.3,1405.27L14324.4,1405.17L14324.5,1405.07L14324.5,1404.96L14324.6,1404.86L14324.7,1404.76L14324.7,1404.66L14324.8,1404.56L14324.9,1404.46L14324.9,1404.36L14325,1404.26L14325.1,1404.17L14325.1,1404.07L14325.2,1403.98L14325.3,1403.88L14325.4,1403.79L14325.5,1403.7L14325.5,1403.6L14325.6,1403.51L14325.7,1403.42L14325.8,1403.33L14325.9,1403.25L14325.9,1403.16L14326,1403.07L14326.1,1402.99L14326.2,1402.9L14326.3,1402.82L14326.4,1402.74L14326.5,1402.65L14326.6,1402.57L14326.7,1402.49L14326.8,1402.41L14326.9,1402.34L14327,1402.26L14327.1,1402.18L14327.2,1402.11L14327.3,1402.04L14327.4,1401.96L14327.5,1401.89L14327.6,1401.82L14327.7,1401.75L14327.8,1401.68L14327.9,1401.62L14328,1401.55L14328.1,1401.48L14328.2,1401.42L14328.3,1401.36L14328.5,1401.3L14328.6,1401.23L14328.7,1401.17L14328.8,1401.12L14328.9,1401.06L14329,1401L14329.1,1400.95L14329.3,1400.89L14329.4,1400.84L14329.5,1400.79L14329.6,1400.74L14329.7,1400.69L14329.9,1400.65L14330,1400.6L14330.1,1400.56L14330.2,1400.51L14330.4,1400.47L14330.5,1400.43L14330.6,1400.39L14330.7,1400.35L14330.9,1400.31L14331,1400.28L14331.1,1400.24L14331.3,1400.21L14331.4,1400.18L14331.5,1400.15L14331.7,1400.12L14331.8,1400.09L14331.9,1400.07L14332.1,1400.04L14332.2,1400.02L14332.3,1400L14332.5,1399.98L14332.6,1399.96L14332.7,1399.94L14332.9,1399.92L14333,1399.91L14333.1,1399.9L14333.3,1399.88L14333.4,1399.88L14333.6,1399.87L14333.7,1399.86L14333.8,1399.85L14334,1399.85L14334.1,1399.85L14334.3,1399.85L14510.4,1399.85L14510.5,1399.85ZM14334.3,1409.42L14334.3,1409.42L14334.3,1409.42L14510.3,1409.42L14510.3,1409.42L14510.3,1409.42L14334.3,1409.42Z" style="fill:rgb(153,0,0);"/>
                                </g>
                                <g transform="matrix(1.13568,0,0,1.30499,-1959.2,-593.08)">
                                    <path d="M14521.4,1409.42C14521.4,1404.14 14516.5,1399.85 14510.4,1399.85L14334.3,1399.85C14328.2,1399.85 14323.3,1404.14 14323.3,1409.42C14323.3,1414.71 14328.2,1419 14334.3,1419L14510.4,1419C14516.5,1419 14521.4,1414.71 14521.4,1409.42Z" style="fill:rgb(153,0,0);"/>
                                    <path d="M14510.5,1399.85L14510.7,1399.85L14510.8,1399.85L14510.9,1399.86L14511.1,1399.87L14511.2,1399.88L14511.4,1399.88L14511.5,1399.9L14511.6,1399.91L14511.8,1399.92L14511.9,1399.94L14512.1,1399.96L14512.2,1399.98L14512.3,1400L14512.5,1400.02L14512.6,1400.04L14512.7,1400.07L14512.9,1400.09L14513,1400.12L14513.1,1400.15L14513.3,1400.18L14513.4,1400.21L14513.5,1400.24L14513.6,1400.28L14513.8,1400.31L14513.9,1400.35L14514,1400.39L14514.2,1400.43L14514.3,1400.47L14514.4,1400.51L14514.5,1400.56L14514.7,1400.6L14514.8,1400.65L14514.9,1400.69L14515,1400.74L14515.1,1400.79L14515.3,1400.84L14515.4,1400.89L14515.5,1400.95L14515.6,1401L14515.7,1401.06L14515.9,1401.12L14516,1401.17L14516.1,1401.23L14516.2,1401.3L14516.3,1401.36L14516.4,1401.42L14516.5,1401.48L14516.6,1401.55L14516.7,1401.62L14516.9,1401.68L14517,1401.75L14517.1,1401.82L14517.2,1401.89L14517.3,1401.96L14517.4,1402.04L14517.5,1402.11L14517.6,1402.18L14517.7,1402.26L14517.8,1402.34L14517.9,1402.41L14518,1402.49L14518.1,1402.57L14518.2,1402.65L14518.2,1402.74L14518.3,1402.82L14518.4,1402.9L14518.5,1402.99L14518.6,1403.07L14518.7,1403.16L14518.8,1403.25L14518.9,1403.33L14519,1403.42L14519,1403.51L14519.1,1403.6L14519.2,1403.7L14519.3,1403.79L14519.4,1403.88L14519.4,1403.98L14519.5,1404.07L14519.6,1404.17L14519.6,1404.26L14519.7,1404.36L14519.8,1404.46L14519.9,1404.56L14519.9,1404.66L14520,1404.76L14520.1,1404.86L14520.1,1404.96L14520.2,1405.07L14520.2,1405.17L14520.3,1405.27L14520.4,1405.38L14520.4,1405.49L14520.5,1405.59L14520.5,1405.7L14520.6,1405.81L14520.6,1405.91L14520.7,1406.02L14520.7,1406.13L14520.8,1406.24L14520.8,1406.36L14520.8,1406.47L14520.9,1406.58L14520.9,1406.69L14521,1406.8L14521,1406.92L14521,1407.03L14521.1,1407.15L14521.1,1407.26L14521.1,1407.38L14521.2,1407.5L14521.2,1407.61L14521.2,1407.73L14521.2,1407.85L14521.3,1407.97L14521.3,1408.09L14521.3,1408.21L14521.3,1408.33L14521.3,1408.45L14521.3,1408.57L14521.3,1408.69L14521.4,1408.81L14521.4,1408.93L14521.4,1409.06L14521.4,1409.18L14521.4,1409.3L14521.4,1409.42L14521.4,1409.55L14521.4,1409.67L14521.4,1409.8L14521.4,1409.92L14521.4,1410.04L14521.3,1410.16L14521.3,1410.28L14521.3,1410.4L14521.3,1410.53L14521.3,1410.64L14521.3,1410.76L14521.3,1410.88L14521.2,1411L14521.2,1411.12L14521.2,1411.24L14521.2,1411.36L14521.1,1411.47L14521.1,1411.59L14521.1,1411.7L14521,1411.82L14521,1411.93L14521,1412.05L14520.9,1412.16L14520.9,1412.27L14520.8,1412.38L14520.8,1412.5L14520.8,1412.61L14520.7,1412.72L14520.7,1412.83L14520.6,1412.94L14520.6,1413.05L14520.5,1413.15L14520.5,1413.26L14520.4,1413.37L14520.4,1413.47L14520.3,1413.58L14520.2,1413.68L14520.2,1413.78L14520.1,1413.89L14520.1,1413.99L14520,1414.09L14519.9,1414.19L14519.9,1414.29L14519.8,1414.39L14519.7,1414.49L14519.6,1414.59L14519.6,1414.68L14519.5,1414.78L14519.4,1414.87L14519.4,1414.97L14519.3,1415.06L14519.2,1415.15L14519.1,1415.25L14519,1415.34L14519,1415.43L14518.9,1415.52L14518.8,1415.61L14518.7,1415.69L14518.6,1415.78L14518.5,1415.86L14518.4,1415.95L14518.3,1416.03L14518.2,1416.12L14518.2,1416.2L14518.1,1416.28L14518,1416.36L14517.9,1416.44L14517.8,1416.51L14517.7,1416.59L14517.6,1416.67L14517.5,1416.74L14517.4,1416.82L14517.3,1416.89L14517.2,1416.96L14517.1,1417.03L14517,1417.1L14516.9,1417.17L14516.7,1417.24L14516.6,1417.3L14516.5,1417.37L14516.4,1417.43L14516.3,1417.49L14516.2,1417.56L14516.1,1417.62L14516,1417.68L14515.9,1417.73L14515.7,1417.79L14515.6,1417.85L14515.5,1417.9L14515.4,1417.95L14515.3,1418.01L14515.1,1418.06L14515,1418.11L14514.9,1418.16L14514.8,1418.2L14514.7,1418.25L14514.5,1418.3L14514.4,1418.34L14514.3,1418.38L14514.2,1418.42L14514,1418.46L14513.9,1418.5L14513.8,1418.54L14513.6,1418.57L14513.5,1418.61L14513.4,1418.64L14513.3,1418.67L14513.1,1418.7L14513,1418.73L14512.9,1418.76L14512.7,1418.79L14512.6,1418.81L14512.5,1418.83L14512.3,1418.85L14512.2,1418.88L14512.1,1418.89L14511.9,1418.91L14511.8,1418.93L14511.6,1418.94L14511.5,1418.95L14511.4,1418.97L14511.2,1418.98L14511.1,1418.98L14510.9,1418.99L14510.8,1419L14510.7,1419L14510.5,1419L14510.4,1419L14334.3,1419L14334.1,1419L14334,1419L14333.8,1419L14333.7,1418.99L14333.6,1418.98L14333.4,1418.98L14333.3,1418.97L14333.1,1418.95L14333,1418.94L14332.9,1418.93L14332.7,1418.91L14332.6,1418.89L14332.5,1418.88L14332.3,1418.85L14332.2,1418.83L14332.1,1418.81L14331.9,1418.79L14331.8,1418.76L14331.7,1418.73L14331.5,1418.7L14331.4,1418.67L14331.3,1418.64L14331.1,1418.61L14331,1418.57L14330.9,1418.54L14330.7,1418.5L14330.6,1418.46L14330.5,1418.42L14330.4,1418.38L14330.2,1418.34L14330.1,1418.3L14330,1418.25L14329.9,1418.2L14329.7,1418.16L14329.6,1418.11L14329.5,1418.06L14329.4,1418.01L14329.3,1417.95L14329.1,1417.9L14329,1417.85L14328.9,1417.79L14328.8,1417.73L14328.7,1417.68L14328.6,1417.62L14328.5,1417.56L14328.3,1417.49L14328.2,1417.43L14328.1,1417.37L14328,1417.3L14327.9,1417.24L14327.8,1417.17L14327.7,1417.1L14327.6,1417.03L14327.5,1416.96L14327.4,1416.89L14327.3,1416.82L14327.2,1416.74L14327.1,1416.67L14327,1416.59L14326.9,1416.51L14326.8,1416.44L14326.7,1416.36L14326.6,1416.28L14326.5,1416.2L14326.4,1416.12L14326.3,1416.03L14326.2,1415.95L14326.1,1415.86L14326,1415.78L14325.9,1415.69L14325.9,1415.61L14325.8,1415.52L14325.7,1415.43L14325.6,1415.34L14325.5,1415.25L14325.5,1415.15L14325.4,1415.06L14325.3,1414.97L14325.2,1414.87L14325.1,1414.78L14325.1,1414.68L14325,1414.59L14324.9,1414.49L14324.9,1414.39L14324.8,1414.29L14324.7,1414.19L14324.7,1414.09L14324.6,1413.99L14324.5,1413.89L14324.5,1413.78L14324.4,1413.68L14324.3,1413.58L14324.3,1413.47L14324.2,1413.37L14324.2,1413.26L14324.1,1413.15L14324.1,1413.05L14324,1412.94L14324,1412.83L14323.9,1412.72L14323.9,1412.61L14323.8,1412.5L14323.8,1412.38L14323.8,1412.27L14323.7,1412.16L14323.7,1412.05L14323.6,1411.93L14323.6,1411.82L14323.6,1411.7L14323.5,1411.59L14323.5,1411.47L14323.5,1411.36L14323.5,1411.24L14323.4,1411.12L14323.4,1411L14323.4,1410.88L14323.4,1410.76L14323.4,1410.64L14323.3,1410.53L14323.3,1410.4L14323.3,1410.28L14323.3,1410.16L14323.3,1410.04L14323.3,1409.92L14323.3,1409.8L14323.3,1409.67L14323.3,1409.55L14323.3,1409.42L14323.3,1409.3L14323.3,1409.18L14323.3,1409.06L14323.3,1408.93L14323.3,1408.81L14323.3,1408.69L14323.3,1408.57L14323.3,1408.45L14323.3,1408.33L14323.4,1408.21L14323.4,1408.09L14323.4,1407.97L14323.4,1407.85L14323.4,1407.73L14323.5,1407.61L14323.5,1407.5L14323.5,1407.38L14323.5,1407.26L14323.6,1407.15L14323.6,1407.03L14323.6,1406.92L14323.7,1406.8L14323.7,1406.69L14323.8,1406.58L14323.8,1406.47L14323.8,1406.36L14323.9,1406.24L14323.9,1406.13L14324,1406.02L14324,1405.91L14324.1,1405.81L14324.1,1405.7L14324.2,1405.59L14324.2,1405.49L14324.3,1405.38L14324.3,1405.27L14324.4,1405.17L14324.5,1405.07L14324.5,1404.96L14324.6,1404.86L14324.7,1404.76L14324.7,1404.66L14324.8,1404.56L14324.9,1404.46L14324.9,1404.36L14325,1404.26L14325.1,1404.17L14325.1,1404.07L14325.2,1403.98L14325.3,1403.88L14325.4,1403.79L14325.5,1403.7L14325.5,1403.6L14325.6,1403.51L14325.7,1403.42L14325.8,1403.33L14325.9,1403.25L14325.9,1403.16L14326,1403.07L14326.1,1402.99L14326.2,1402.9L14326.3,1402.82L14326.4,1402.74L14326.5,1402.65L14326.6,1402.57L14326.7,1402.49L14326.8,1402.41L14326.9,1402.34L14327,1402.26L14327.1,1402.18L14327.2,1402.11L14327.3,1402.04L14327.4,1401.96L14327.5,1401.89L14327.6,1401.82L14327.7,1401.75L14327.8,1401.68L14327.9,1401.62L14328,1401.55L14328.1,1401.48L14328.2,1401.42L14328.3,1401.36L14328.5,1401.3L14328.6,1401.23L14328.7,1401.17L14328.8,1401.12L14328.9,1401.06L14329,1401L14329.1,1400.95L14329.3,1400.89L14329.4,1400.84L14329.5,1400.79L14329.6,1400.74L14329.7,1400.69L14329.9,1400.65L14330,1400.6L14330.1,1400.56L14330.2,1400.51L14330.4,1400.47L14330.5,1400.43L14330.6,1400.39L14330.7,1400.35L14330.9,1400.31L14331,1400.28L14331.1,1400.24L14331.3,1400.21L14331.4,1400.18L14331.5,1400.15L14331.7,1400.12L14331.8,1400.09L14331.9,1400.07L14332.1,1400.04L14332.2,1400.02L14332.3,1400L14332.5,1399.98L14332.6,1399.96L14332.7,1399.94L14332.9,1399.92L14333,1399.91L14333.1,1399.9L14333.3,1399.88L14333.4,1399.88L14333.6,1399.87L14333.7,1399.86L14333.8,1399.85L14334,1399.85L14334.1,1399.85L14334.3,1399.85L14510.4,1399.85L14510.5,1399.85ZM14334.3,1409.42L14334.3,1409.42L14510.3,1409.42L14510.3,1409.42L14334.3,1409.42Z" style="fill:rgb(153,0,0);"/>
                                </g>
                                <g transform="matrix(1.13568,0,0,1.30499,-1959.2,-643.08)">
                                    <path d="M14521.4,1409.42C14521.4,1404.14 14516.5,1399.85 14510.4,1399.85L14334.3,1399.85C14328.2,1399.85 14323.3,1404.14 14323.3,1409.42C14323.3,1414.71 14328.2,1419 14334.3,1419L14510.4,1419C14516.5,1419 14521.4,1414.71 14521.4,1409.42Z" style="fill:rgb(153,0,0);"/>
                                    <path d="M14510.5,1399.85L14510.7,1399.85L14510.8,1399.85L14510.9,1399.86L14511.1,1399.87L14511.2,1399.88L14511.4,1399.88L14511.5,1399.9L14511.6,1399.91L14511.8,1399.92L14511.9,1399.94L14512.1,1399.96L14512.2,1399.98L14512.3,1400L14512.5,1400.02L14512.6,1400.04L14512.7,1400.07L14512.9,1400.09L14513,1400.12L14513.1,1400.15L14513.3,1400.18L14513.4,1400.21L14513.5,1400.24L14513.6,1400.28L14513.8,1400.31L14513.9,1400.35L14514,1400.39L14514.2,1400.43L14514.3,1400.47L14514.4,1400.51L14514.5,1400.56L14514.7,1400.6L14514.8,1400.65L14514.9,1400.69L14515,1400.74L14515.1,1400.79L14515.3,1400.84L14515.4,1400.89L14515.5,1400.95L14515.6,1401L14515.7,1401.06L14515.9,1401.12L14516,1401.17L14516.1,1401.23L14516.2,1401.3L14516.3,1401.36L14516.4,1401.42L14516.5,1401.48L14516.6,1401.55L14516.7,1401.62L14516.9,1401.68L14517,1401.75L14517.1,1401.82L14517.2,1401.89L14517.3,1401.96L14517.4,1402.04L14517.5,1402.11L14517.6,1402.18L14517.7,1402.26L14517.8,1402.34L14517.9,1402.41L14518,1402.49L14518.1,1402.57L14518.2,1402.65L14518.2,1402.74L14518.3,1402.82L14518.4,1402.9L14518.5,1402.99L14518.6,1403.07L14518.7,1403.16L14518.8,1403.25L14518.9,1403.33L14519,1403.42L14519,1403.51L14519.1,1403.6L14519.2,1403.7L14519.3,1403.79L14519.4,1403.88L14519.4,1403.98L14519.5,1404.07L14519.6,1404.17L14519.6,1404.26L14519.7,1404.36L14519.8,1404.46L14519.9,1404.56L14519.9,1404.66L14520,1404.76L14520.1,1404.86L14520.1,1404.96L14520.2,1405.07L14520.2,1405.17L14520.3,1405.27L14520.4,1405.38L14520.4,1405.49L14520.5,1405.59L14520.5,1405.7L14520.6,1405.81L14520.6,1405.91L14520.7,1406.02L14520.7,1406.13L14520.8,1406.24L14520.8,1406.36L14520.8,1406.47L14520.9,1406.58L14520.9,1406.69L14521,1406.8L14521,1406.92L14521,1407.03L14521.1,1407.15L14521.1,1407.26L14521.1,1407.38L14521.2,1407.5L14521.2,1407.61L14521.2,1407.73L14521.2,1407.85L14521.3,1407.97L14521.3,1408.09L14521.3,1408.21L14521.3,1408.33L14521.3,1408.45L14521.3,1408.57L14521.3,1408.69L14521.4,1408.81L14521.4,1408.93L14521.4,1409.06L14521.4,1409.18L14521.4,1409.3L14521.4,1409.42L14521.4,1409.55L14521.4,1409.67L14521.4,1409.8L14521.4,1409.92L14521.4,1410.04L14521.3,1410.16L14521.3,1410.28L14521.3,1410.4L14521.3,1410.53L14521.3,1410.64L14521.3,1410.76L14521.3,1410.88L14521.2,1411L14521.2,1411.12L14521.2,1411.24L14521.2,1411.36L14521.1,1411.47L14521.1,1411.59L14521.1,1411.7L14521,1411.82L14521,1411.93L14521,1412.05L14520.9,1412.16L14520.9,1412.27L14520.8,1412.38L14520.8,1412.5L14520.8,1412.61L14520.7,1412.72L14520.7,1412.83L14520.6,1412.94L14520.6,1413.05L14520.5,1413.15L14520.5,1413.26L14520.4,1413.37L14520.4,1413.47L14520.3,1413.58L14520.2,1413.68L14520.2,1413.78L14520.1,1413.89L14520.1,1413.99L14520,1414.09L14519.9,1414.19L14519.9,1414.29L14519.8,1414.39L14519.7,1414.49L14519.6,1414.59L14519.6,1414.68L14519.5,1414.78L14519.4,1414.87L14519.4,1414.97L14519.3,1415.06L14519.2,1415.15L14519.1,1415.25L14519,1415.34L14519,1415.43L14518.9,1415.52L14518.8,1415.61L14518.7,1415.69L14518.6,1415.78L14518.5,1415.86L14518.4,1415.95L14518.3,1416.03L14518.2,1416.12L14518.2,1416.2L14518.1,1416.28L14518,1416.36L14517.9,1416.44L14517.8,1416.51L14517.7,1416.59L14517.6,1416.67L14517.5,1416.74L14517.4,1416.82L14517.3,1416.89L14517.2,1416.96L14517.1,1417.03L14517,1417.1L14516.9,1417.17L14516.7,1417.24L14516.6,1417.3L14516.5,1417.37L14516.4,1417.43L14516.3,1417.49L14516.2,1417.56L14516.1,1417.62L14516,1417.68L14515.9,1417.73L14515.7,1417.79L14515.6,1417.85L14515.5,1417.9L14515.4,1417.95L14515.3,1418.01L14515.1,1418.06L14515,1418.11L14514.9,1418.16L14514.8,1418.2L14514.7,1418.25L14514.5,1418.3L14514.4,1418.34L14514.3,1418.38L14514.2,1418.42L14514,1418.46L14513.9,1418.5L14513.8,1418.54L14513.6,1418.57L14513.5,1418.61L14513.4,1418.64L14513.3,1418.67L14513.1,1418.7L14513,1418.73L14512.9,1418.76L14512.7,1418.79L14512.6,1418.81L14512.5,1418.83L14512.3,1418.85L14512.2,1418.88L14512.1,1418.89L14511.9,1418.91L14511.8,1418.93L14511.6,1418.94L14511.5,1418.95L14511.4,1418.97L14511.2,1418.98L14511.1,1418.98L14510.9,1418.99L14510.8,1419L14510.7,1419L14510.5,1419L14510.4,1419L14334.3,1419L14334.1,1419L14334,1419L14333.8,1419L14333.7,1418.99L14333.6,1418.98L14333.4,1418.98L14333.3,1418.97L14333.1,1418.95L14333,1418.94L14332.9,1418.93L14332.7,1418.91L14332.6,1418.89L14332.5,1418.88L14332.3,1418.85L14332.2,1418.83L14332.1,1418.81L14331.9,1418.79L14331.8,1418.76L14331.7,1418.73L14331.5,1418.7L14331.4,1418.67L14331.3,1418.64L14331.1,1418.61L14331,1418.57L14330.9,1418.54L14330.7,1418.5L14330.6,1418.46L14330.5,1418.42L14330.4,1418.38L14330.2,1418.34L14330.1,1418.3L14330,1418.25L14329.9,1418.2L14329.7,1418.16L14329.6,1418.11L14329.5,1418.06L14329.4,1418.01L14329.3,1417.95L14329.1,1417.9L14329,1417.85L14328.9,1417.79L14328.8,1417.73L14328.7,1417.68L14328.6,1417.62L14328.5,1417.56L14328.3,1417.49L14328.2,1417.43L14328.1,1417.37L14328,1417.3L14327.9,1417.24L14327.8,1417.17L14327.7,1417.1L14327.6,1417.03L14327.5,1416.96L14327.4,1416.89L14327.3,1416.82L14327.2,1416.74L14327.1,1416.67L14327,1416.59L14326.9,1416.51L14326.8,1416.44L14326.7,1416.36L14326.6,1416.28L14326.5,1416.2L14326.4,1416.12L14326.3,1416.03L14326.2,1415.95L14326.1,1415.86L14326,1415.78L14325.9,1415.69L14325.9,1415.61L14325.8,1415.52L14325.7,1415.43L14325.6,1415.34L14325.5,1415.25L14325.5,1415.15L14325.4,1415.06L14325.3,1414.97L14325.2,1414.87L14325.1,1414.78L14325.1,1414.68L14325,1414.59L14324.9,1414.49L14324.9,1414.39L14324.8,1414.29L14324.7,1414.19L14324.7,1414.09L14324.6,1413.99L14324.5,1413.89L14324.5,1413.78L14324.4,1413.68L14324.3,1413.58L14324.3,1413.47L14324.2,1413.37L14324.2,1413.26L14324.1,1413.15L14324.1,1413.05L14324,1412.94L14324,1412.83L14323.9,1412.72L14323.9,1412.61L14323.8,1412.5L14323.8,1412.38L14323.8,1412.27L14323.7,1412.16L14323.7,1412.05L14323.6,1411.93L14323.6,1411.82L14323.6,1411.7L14323.5,1411.59L14323.5,1411.47L14323.5,1411.36L14323.5,1411.24L14323.4,1411.12L14323.4,1411L14323.4,1410.88L14323.4,1410.76L14323.4,1410.64L14323.3,1410.53L14323.3,1410.4L14323.3,1410.28L14323.3,1410.16L14323.3,1410.04L14323.3,1409.92L14323.3,1409.8L14323.3,1409.67L14323.3,1409.55L14323.3,1409.42L14323.3,1409.3L14323.3,1409.18L14323.3,1409.06L14323.3,1408.93L14323.3,1408.81L14323.3,1408.69L14323.3,1408.57L14323.3,1408.45L14323.3,1408.33L14323.4,1408.21L14323.4,1408.09L14323.4,1407.97L14323.4,1407.85L14323.4,1407.73L14323.5,1407.61L14323.5,1407.5L14323.5,1407.38L14323.5,1407.26L14323.6,1407.15L14323.6,1407.03L14323.6,1406.92L14323.7,1406.8L14323.7,1406.69L14323.8,1406.58L14323.8,1406.47L14323.8,1406.36L14323.9,1406.24L14323.9,1406.13L14324,1406.02L14324,1405.91L14324.1,1405.81L14324.1,1405.7L14324.2,1405.59L14324.2,1405.49L14324.3,1405.38L14324.3,1405.27L14324.4,1405.17L14324.5,1405.07L14324.5,1404.96L14324.6,1404.86L14324.7,1404.76L14324.7,1404.66L14324.8,1404.56L14324.9,1404.46L14324.9,1404.36L14325,1404.26L14325.1,1404.17L14325.1,1404.07L14325.2,1403.98L14325.3,1403.88L14325.4,1403.79L14325.5,1403.7L14325.5,1403.6L14325.6,1403.51L14325.7,1403.42L14325.8,1403.33L14325.9,1403.25L14325.9,1403.16L14326,1403.07L14326.1,1402.99L14326.2,1402.9L14326.3,1402.82L14326.4,1402.74L14326.5,1402.65L14326.6,1402.57L14326.7,1402.49L14326.8,1402.41L14326.9,1402.34L14327,1402.26L14327.1,1402.18L14327.2,1402.11L14327.3,1402.04L14327.4,1401.96L14327.5,1401.89L14327.6,1401.82L14327.7,1401.75L14327.8,1401.68L14327.9,1401.62L14328,1401.55L14328.1,1401.48L14328.2,1401.42L14328.3,1401.36L14328.5,1401.3L14328.6,1401.23L14328.7,1401.17L14328.8,1401.12L14328.9,1401.06L14329,1401L14329.1,1400.95L14329.3,1400.89L14329.4,1400.84L14329.5,1400.79L14329.6,1400.74L14329.7,1400.69L14329.9,1400.65L14330,1400.6L14330.1,1400.56L14330.2,1400.51L14330.4,1400.47L14330.5,1400.43L14330.6,1400.39L14330.7,1400.35L14330.9,1400.31L14331,1400.28L14331.1,1400.24L14331.3,1400.21L14331.4,1400.18L14331.5,1400.15L14331.7,1400.12L14331.8,1400.09L14331.9,1400.07L14332.1,1400.04L14332.2,1400.02L14332.3,1400L14332.5,1399.98L14332.6,1399.96L14332.7,1399.94L14332.9,1399.92L14333,1399.91L14333.1,1399.9L14333.3,1399.88L14333.4,1399.88L14333.6,1399.87L14333.7,1399.86L14333.8,1399.85L14334,1399.85L14334.1,1399.85L14334.3,1399.85L14510.4,1399.85L14510.5,1399.85ZM14334.3,1409.42L14334.3,1409.42L14510.3,1409.42L14510.3,1409.42L14334.3,1409.42Z" style="fill:rgb(153,0,0);"/>
                                </g>
                                <g transform="matrix(1.13568,0,0,1.30499,-1959.2,-693.08)">
                                    <path d="M14521.4,1409.42C14521.4,1404.14 14516.5,1399.85 14510.4,1399.85L14334.3,1399.85C14328.2,1399.85 14323.3,1404.14 14323.3,1409.42C14323.3,1414.71 14328.2,1419 14334.3,1419L14510.4,1419C14516.5,1419 14521.4,1414.71 14521.4,1409.42Z" style="fill:rgb(153,0,0);"/>
                                    <path d="M14510.5,1399.85L14510.7,1399.85L14510.8,1399.85L14510.9,1399.86L14511.1,1399.87L14511.2,1399.88L14511.4,1399.88L14511.5,1399.9L14511.6,1399.91L14511.8,1399.92L14511.9,1399.94L14512.1,1399.96L14512.2,1399.98L14512.3,1400L14512.5,1400.02L14512.6,1400.04L14512.7,1400.07L14512.9,1400.09L14513,1400.12L14513.1,1400.15L14513.3,1400.18L14513.4,1400.21L14513.5,1400.24L14513.6,1400.28L14513.8,1400.31L14513.9,1400.35L14514,1400.39L14514.2,1400.43L14514.3,1400.47L14514.4,1400.51L14514.5,1400.56L14514.7,1400.6L14514.8,1400.65L14514.9,1400.69L14515,1400.74L14515.1,1400.79L14515.3,1400.84L14515.4,1400.89L14515.5,1400.95L14515.6,1401L14515.7,1401.06L14515.9,1401.12L14516,1401.17L14516.1,1401.23L14516.2,1401.3L14516.3,1401.36L14516.4,1401.42L14516.5,1401.48L14516.6,1401.55L14516.7,1401.62L14516.9,1401.68L14517,1401.75L14517.1,1401.82L14517.2,1401.89L14517.3,1401.96L14517.4,1402.04L14517.5,1402.11L14517.6,1402.18L14517.7,1402.26L14517.8,1402.34L14517.9,1402.41L14518,1402.49L14518.1,1402.57L14518.2,1402.65L14518.2,1402.74L14518.3,1402.82L14518.4,1402.9L14518.5,1402.99L14518.6,1403.07L14518.7,1403.16L14518.8,1403.25L14518.9,1403.33L14519,1403.42L14519,1403.51L14519.1,1403.6L14519.2,1403.7L14519.3,1403.79L14519.4,1403.88L14519.4,1403.98L14519.5,1404.07L14519.6,1404.17L14519.6,1404.26L14519.7,1404.36L14519.8,1404.46L14519.9,1404.56L14519.9,1404.66L14520,1404.76L14520.1,1404.86L14520.1,1404.96L14520.2,1405.07L14520.2,1405.17L14520.3,1405.27L14520.4,1405.38L14520.4,1405.49L14520.5,1405.59L14520.5,1405.7L14520.6,1405.81L14520.6,1405.91L14520.7,1406.02L14520.7,1406.13L14520.8,1406.24L14520.8,1406.36L14520.8,1406.47L14520.9,1406.58L14520.9,1406.69L14521,1406.8L14521,1406.92L14521,1407.03L14521.1,1407.15L14521.1,1407.26L14521.1,1407.38L14521.2,1407.5L14521.2,1407.61L14521.2,1407.73L14521.2,1407.85L14521.3,1407.97L14521.3,1408.09L14521.3,1408.21L14521.3,1408.33L14521.3,1408.45L14521.3,1408.57L14521.3,1408.69L14521.4,1408.81L14521.4,1408.93L14521.4,1409.06L14521.4,1409.18L14521.4,1409.3L14521.4,1409.42L14521.4,1409.55L14521.4,1409.67L14521.4,1409.8L14521.4,1409.92L14521.4,1410.04L14521.3,1410.16L14521.3,1410.28L14521.3,1410.4L14521.3,1410.53L14521.3,1410.64L14521.3,1410.76L14521.3,1410.88L14521.2,1411L14521.2,1411.12L14521.2,1411.24L14521.2,1411.36L14521.1,1411.47L14521.1,1411.59L14521.1,1411.7L14521,1411.82L14521,1411.93L14521,1412.05L14520.9,1412.16L14520.9,1412.27L14520.8,1412.38L14520.8,1412.5L14520.8,1412.61L14520.7,1412.72L14520.7,1412.83L14520.6,1412.94L14520.6,1413.05L14520.5,1413.15L14520.5,1413.26L14520.4,1413.37L14520.4,1413.47L14520.3,1413.58L14520.2,1413.68L14520.2,1413.78L14520.1,1413.89L14520.1,1413.99L14520,1414.09L14519.9,1414.19L14519.9,1414.29L14519.8,1414.39L14519.7,1414.49L14519.6,1414.59L14519.6,1414.68L14519.5,1414.78L14519.4,1414.87L14519.4,1414.97L14519.3,1415.06L14519.2,1415.15L14519.1,1415.25L14519,1415.34L14519,1415.43L14518.9,1415.52L14518.8,1415.61L14518.7,1415.69L14518.6,1415.78L14518.5,1415.86L14518.4,1415.95L14518.3,1416.03L14518.2,1416.12L14518.2,1416.2L14518.1,1416.28L14518,1416.36L14517.9,1416.44L14517.8,1416.51L14517.7,1416.59L14517.6,1416.67L14517.5,1416.74L14517.4,1416.82L14517.3,1416.89L14517.2,1416.96L14517.1,1417.03L14517,1417.1L14516.9,1417.17L14516.7,1417.24L14516.6,1417.3L14516.5,1417.37L14516.4,1417.43L14516.3,1417.49L14516.2,1417.56L14516.1,1417.62L14516,1417.68L14515.9,1417.73L14515.7,1417.79L14515.6,1417.85L14515.5,1417.9L14515.4,1417.95L14515.3,1418.01L14515.1,1418.06L14515,1418.11L14514.9,1418.16L14514.8,1418.2L14514.7,1418.25L14514.5,1418.3L14514.4,1418.34L14514.3,1418.38L14514.2,1418.42L14514,1418.46L14513.9,1418.5L14513.8,1418.54L14513.6,1418.57L14513.5,1418.61L14513.4,1418.64L14513.3,1418.67L14513.1,1418.7L14513,1418.73L14512.9,1418.76L14512.7,1418.79L14512.6,1418.81L14512.5,1418.83L14512.3,1418.85L14512.2,1418.88L14512.1,1418.89L14511.9,1418.91L14511.8,1418.93L14511.6,1418.94L14511.5,1418.95L14511.4,1418.97L14511.2,1418.98L14511.1,1418.98L14510.9,1418.99L14510.8,1419L14510.7,1419L14510.5,1419L14510.4,1419L14334.3,1419L14334.1,1419L14334,1419L14333.8,1419L14333.7,1418.99L14333.6,1418.98L14333.4,1418.98L14333.3,1418.97L14333.1,1418.95L14333,1418.94L14332.9,1418.93L14332.7,1418.91L14332.6,1418.89L14332.5,1418.88L14332.3,1418.85L14332.2,1418.83L14332.1,1418.81L14331.9,1418.79L14331.8,1418.76L14331.7,1418.73L14331.5,1418.7L14331.4,1418.67L14331.3,1418.64L14331.1,1418.61L14331,1418.57L14330.9,1418.54L14330.7,1418.5L14330.6,1418.46L14330.5,1418.42L14330.4,1418.38L14330.2,1418.34L14330.1,1418.3L14330,1418.25L14329.9,1418.2L14329.7,1418.16L14329.6,1418.11L14329.5,1418.06L14329.4,1418.01L14329.3,1417.95L14329.1,1417.9L14329,1417.85L14328.9,1417.79L14328.8,1417.73L14328.7,1417.68L14328.6,1417.62L14328.5,1417.56L14328.3,1417.49L14328.2,1417.43L14328.1,1417.37L14328,1417.3L14327.9,1417.24L14327.8,1417.17L14327.7,1417.1L14327.6,1417.03L14327.5,1416.96L14327.4,1416.89L14327.3,1416.82L14327.2,1416.74L14327.1,1416.67L14327,1416.59L14326.9,1416.51L14326.8,1416.44L14326.7,1416.36L14326.6,1416.28L14326.5,1416.2L14326.4,1416.12L14326.3,1416.03L14326.2,1415.95L14326.1,1415.86L14326,1415.78L14325.9,1415.69L14325.9,1415.61L14325.8,1415.52L14325.7,1415.43L14325.6,1415.34L14325.5,1415.25L14325.5,1415.15L14325.4,1415.06L14325.3,1414.97L14325.2,1414.87L14325.1,1414.78L14325.1,1414.68L14325,1414.59L14324.9,1414.49L14324.9,1414.39L14324.8,1414.29L14324.7,1414.19L14324.7,1414.09L14324.6,1413.99L14324.5,1413.89L14324.5,1413.78L14324.4,1413.68L14324.3,1413.58L14324.3,1413.47L14324.2,1413.37L14324.2,1413.26L14324.1,1413.15L14324.1,1413.05L14324,1412.94L14324,1412.83L14323.9,1412.72L14323.9,1412.61L14323.8,1412.5L14323.8,1412.38L14323.8,1412.27L14323.7,1412.16L14323.7,1412.05L14323.6,1411.93L14323.6,1411.82L14323.6,1411.7L14323.5,1411.59L14323.5,1411.47L14323.5,1411.36L14323.5,1411.24L14323.4,1411.12L14323.4,1411L14323.4,1410.88L14323.4,1410.76L14323.4,1410.64L14323.3,1410.53L14323.3,1410.4L14323.3,1410.28L14323.3,1410.16L14323.3,1410.04L14323.3,1409.92L14323.3,1409.8L14323.3,1409.67L14323.3,1409.55L14323.3,1409.42L14323.3,1409.3L14323.3,1409.18L14323.3,1409.06L14323.3,1408.93L14323.3,1408.81L14323.3,1408.69L14323.3,1408.57L14323.3,1408.45L14323.3,1408.33L14323.4,1408.21L14323.4,1408.09L14323.4,1407.97L14323.4,1407.85L14323.4,1407.73L14323.5,1407.61L14323.5,1407.5L14323.5,1407.38L14323.5,1407.26L14323.6,1407.15L14323.6,1407.03L14323.6,1406.92L14323.7,1406.8L14323.7,1406.69L14323.8,1406.58L14323.8,1406.47L14323.8,1406.36L14323.9,1406.24L14323.9,1406.13L14324,1406.02L14324,1405.91L14324.1,1405.81L14324.1,1405.7L14324.2,1405.59L14324.2,1405.49L14324.3,1405.38L14324.3,1405.27L14324.4,1405.17L14324.5,1405.07L14324.5,1404.96L14324.6,1404.86L14324.7,1404.76L14324.7,1404.66L14324.8,1404.56L14324.9,1404.46L14324.9,1404.36L14325,1404.26L14325.1,1404.17L14325.1,1404.07L14325.2,1403.98L14325.3,1403.88L14325.4,1403.79L14325.5,1403.7L14325.5,1403.6L14325.6,1403.51L14325.7,1403.42L14325.8,1403.33L14325.9,1403.25L14325.9,1403.16L14326,1403.07L14326.1,1402.99L14326.2,1402.9L14326.3,1402.82L14326.4,1402.74L14326.5,1402.65L14326.6,1402.57L14326.7,1402.49L14326.8,1402.41L14326.9,1402.34L14327,1402.26L14327.1,1402.18L14327.2,1402.11L14327.3,1402.04L14327.4,1401.96L14327.5,1401.89L14327.6,1401.82L14327.7,1401.75L14327.8,1401.68L14327.9,1401.62L14328,1401.55L14328.1,1401.48L14328.2,1401.42L14328.3,1401.36L14328.5,1401.3L14328.6,1401.23L14328.7,1401.17L14328.8,1401.12L14328.9,1401.06L14329,1401L14329.1,1400.95L14329.3,1400.89L14329.4,1400.84L14329.5,1400.79L14329.6,1400.74L14329.7,1400.69L14329.9,1400.65L14330,1400.6L14330.1,1400.56L14330.2,1400.51L14330.4,1400.47L14330.5,1400.43L14330.6,1400.39L14330.7,1400.35L14330.9,1400.31L14331,1400.28L14331.1,1400.24L14331.3,1400.21L14331.4,1400.18L14331.5,1400.15L14331.7,1400.12L14331.8,1400.09L14331.9,1400.07L14332.1,1400.04L14332.2,1400.02L14332.3,1400L14332.5,1399.98L14332.6,1399.96L14332.7,1399.94L14332.9,1399.92L14333,1399.91L14333.1,1399.9L14333.3,1399.88L14333.4,1399.88L14333.6,1399.87L14333.7,1399.86L14333.8,1399.85L14334,1399.85L14334.1,1399.85L14334.3,1399.85L14510.4,1399.85L14510.5,1399.85Z" style="fill:rgb(153,0,0);"/>
                                </g>
                            </g>
                        </g>
                    </g>
                </g>
            </g>
        </g>
    </g>
</svg>
