<?xml version="1.0" encoding="UTF-8" standalone="no"?>
<!DOCTYPE svg PUBLIC "-//W3C//DTD SVG 1.1//EN" "http://www.w3.org/Graphics/SVG/1.1/DTD/svg11.dtd">
<svg width="11px" height="29px" version="1.1" xmlns="http://www.w3.org/2000/svg" xmlns:xlink="http://www.w3.org/1999/xlink" xml:space="preserve" xmlns:serif="http://www.serif.com/" style="fill-rule:evenodd;clip-rule:evenodd;stroke-linejoin:round;stroke-miterlimit:1.41421;">
    <g transform="matrix(0.0295276,0,0,0.0295276,-365.492,-8.50394)">
        <g transform="matrix(1.09916,0,0,1.67861,-961.987,-55.2037)">
            <g id="Switch-3-Mid" serif:id="Switch 3 Mid" transform="matrix(1,0,0,1,1421.2,-4.49851)">
                <g>
                    <g id="Switch.3" transform="matrix(0.909786,0,0,0.595731,-2637.67,-63.0548)">
                        <g>
                            <g transform="matrix(0.823978,0,0,0.80948,14170.9,-2375.84)">
                                <path d="M1039.31,3542.93C1039.31,3519.07 1020.27,3499.69 996.828,3499.69L657.013,3499.69C633.569,3499.69 614.536,3519.07 614.536,3542.93L614.536,4630.05C614.536,4653.91 633.569,4673.28 657.013,4673.28L996.828,4673.28C1020.27,4673.28 1039.31,4653.91 1039.31,4630.05L1039.31,3542.93Z" style="fill:rgb(255,240,240);"/>
                                <path d="M997.102,3499.69L997.376,3499.7L997.65,3499.7L997.923,3499.71L998.196,3499.72L998.469,3499.72L998.741,3499.74L999.012,3499.75L999.283,3499.76L999.554,3499.78L999.824,3499.8L1000.09,3499.82L1000.36,3499.84L1000.63,3499.86L1000.9,3499.89L1001.17,3499.92L1001.44,3499.95L1001.7,3499.97L1001.97,3500.01L1002.24,3500.04L1002.5,3500.08L1002.76,3500.11L1003.03,3500.15L1003.29,3500.19L1003.56,3500.23L1003.82,3500.28L1004.08,3500.32L1004.34,3500.37L1004.6,3500.42L1004.86,3500.47L1005.12,3500.52L1005.38,3500.57L1005.64,3500.63L1005.9,3500.68L1006.16,3500.74L1006.42,3500.8L1006.67,3500.86L1006.93,3500.93L1007.18,3500.99L1007.44,3501.06L1007.69,3501.12L1007.95,3501.19L1008.2,3501.26L1008.45,3501.33L1008.7,3501.41L1008.95,3501.48L1009.2,3501.56L1009.45,3501.64L1009.7,3501.72L1009.95,3501.8L1010.2,3501.88L1010.45,3501.97L1010.69,3502.05L1010.94,3502.14L1011.18,3502.23L1011.43,3502.32L1011.67,3502.41L1011.91,3502.5L1012.15,3502.6L1012.4,3502.69L1012.64,3502.79L1012.88,3502.89L1013.12,3502.99L1013.36,3503.09L1013.59,3503.2L1013.83,3503.3L1014.07,3503.41L1014.3,3503.51L1014.54,3503.62L1014.77,3503.73L1015,3503.85L1015.24,3503.96L1015.47,3504.07L1015.7,3504.19L1015.93,3504.31L1016.16,3504.43L1016.39,3504.55L1016.62,3504.67L1016.84,3504.79L1017.07,3504.91L1017.29,3505.04L1017.52,3505.17L1017.74,3505.3L1017.96,3505.43L1018.19,3505.56L1018.41,3505.69L1018.63,3505.82L1018.85,3505.96L1019.07,3506.09L1019.28,3506.23L1019.5,3506.37L1019.72,3506.51L1019.93,3506.65L1020.14,3506.79L1020.36,3506.94L1020.57,3507.08L1020.78,3507.23L1020.99,3507.38L1021.2,3507.52L1021.41,3507.67L1021.62,3507.83L1021.83,3507.98L1022.03,3508.13L1022.24,3508.29L1022.44,3508.44L1022.64,3508.6L1022.85,3508.76L1023.05,3508.92L1023.25,3509.08L1023.45,3509.24L1023.64,3509.41L1023.84,3509.57L1024.04,3509.74L1024.23,3509.9L1024.43,3510.07L1024.62,3510.24L1024.81,3510.41L1025,3510.58L1025.19,3510.76L1025.38,3510.93L1025.57,3511.11L1025.76,3511.28L1025.94,3511.46L1026.13,3511.64L1026.31,3511.82L1026.5,3512L1026.68,3512.18L1026.86,3512.36L1027.04,3512.55L1027.22,3512.73L1027.39,3512.92L1027.57,3513.11L1027.75,3513.29L1027.92,3513.48L1028.09,3513.67L1028.26,3513.87L1028.43,3514.06L1028.61,3514.25L1028.77,3514.45L1028.94,3514.64L1029.11,3514.84L1029.27,3515.04L1029.44,3515.23L1029.6,3515.43L1029.76,3515.64L1029.92,3515.84L1030.08,3516.04L1030.24,3516.24L1030.4,3516.45L1030.55,3516.65L1030.71,3516.86L1030.86,3517.07L1031.01,3517.28L1031.16,3517.49L1031.32,3517.7L1031.46,3517.91L1031.61,3518.12L1031.76,3518.33L1031.9,3518.55L1032.05,3518.76L1032.19,3518.98L1032.33,3519.2L1032.47,3519.41L1032.61,3519.63L1032.75,3519.85L1032.88,3520.07L1033.02,3520.3L1033.15,3520.52L1033.28,3520.74L1033.41,3520.97L1033.55,3521.19L1033.67,3521.42L1033.8,3521.64L1033.93,3521.87L1034.05,3522.1L1034.17,3522.33L1034.3,3522.56L1034.42,3522.79L1034.54,3523.02L1034.65,3523.25L1034.77,3523.49L1034.89,3523.72L1035,3523.96L1035.11,3524.19L1035.22,3524.43L1035.33,3524.67L1035.44,3524.9L1035.55,3525.14L1035.66,3525.38L1035.76,3525.62L1035.86,3525.87L1035.96,3526.11L1036.07,3526.35L1036.16,3526.59L1036.26,3526.84L1036.36,3527.08L1036.45,3527.33L1036.54,3527.58L1036.63,3527.82L1036.72,3528.07L1036.81,3528.32L1036.9,3528.57L1036.99,3528.82L1037.07,3529.07L1037.15,3529.32L1037.24,3529.57L1037.32,3529.83L1037.39,3530.08L1037.47,3530.33L1037.55,3530.59L1037.62,3530.84L1037.69,3531.1L1037.76,3531.36L1037.83,3531.61L1037.9,3531.87L1037.97,3532.13L1038.03,3532.39L1038.09,3532.65L1038.16,3532.91L1038.22,3533.17L1038.28,3533.43L1038.33,3533.7L1038.39,3533.96L1038.44,3534.22L1038.49,3534.49L1038.54,3534.75L1038.59,3535.01L1038.64,3535.28L1038.69,3535.55L1038.73,3535.81L1038.77,3536.08L1038.82,3536.35L1038.85,3536.62L1038.89,3536.89L1038.93,3537.16L1038.96,3537.43L1039,3537.7L1039.03,3537.97L1039.06,3538.24L1039.09,3538.51L1039.11,3538.78L1039.14,3539.06L1039.16,3539.33L1039.18,3539.61L1039.2,3539.88L1039.22,3540.16L1039.24,3540.43L1039.25,3540.71L1039.26,3540.98L1039.27,3541.26L1039.28,3541.54L1039.29,3541.82L1039.3,3542.09L1039.3,3542.37L1039.3,3542.65L1039.31,3542.93L1039.31,4630.05L1039.3,4630.33L1039.3,4630.61L1039.3,4630.89L1039.29,4631.16L1039.28,4631.44L1039.27,4631.72L1039.26,4631.99L1039.25,4632.27L1039.24,4632.55L1039.22,4632.82L1039.2,4633.1L1039.18,4633.37L1039.16,4633.65L1039.14,4633.92L1039.11,4634.19L1039.09,4634.47L1039.06,4634.74L1039.03,4635.01L1039,4635.28L1038.96,4635.55L1038.93,4635.82L1038.89,4636.09L1038.85,4636.36L1038.82,4636.63L1038.77,4636.9L1038.73,4637.16L1038.69,4637.43L1038.64,4637.7L1038.59,4637.96L1038.54,4638.23L1038.49,4638.49L1038.44,4638.76L1038.39,4639.02L1038.33,4639.28L1038.28,4639.55L1038.22,4639.81L1038.16,4640.07L1038.09,4640.33L1038.03,4640.59L1037.97,4640.85L1037.9,4641.11L1037.83,4641.36L1037.76,4641.62L1037.69,4641.88L1037.62,4642.14L1037.55,4642.39L1037.47,4642.65L1037.39,4642.9L1037.32,4643.15L1037.24,4643.4L1037.15,4643.66L1037.07,4643.91L1036.99,4644.16L1036.9,4644.41L1036.81,4644.66L1036.72,4644.91L1036.63,4645.16L1036.54,4645.4L1036.45,4645.65L1036.36,4645.9L1036.26,4646.14L1036.16,4646.38L1036.07,4646.63L1035.96,4646.87L1035.86,4647.11L1035.76,4647.35L1035.66,4647.6L1035.55,4647.83L1035.44,4648.07L1035.33,4648.31L1035.22,4648.55L1035.11,4648.79L1035,4649.02L1034.89,4649.26L1034.77,4649.49L1034.65,4649.72L1034.54,4649.96L1034.42,4650.19L1034.3,4650.42L1034.17,4650.65L1034.05,4650.88L1033.93,4651.11L1033.8,4651.34L1033.67,4651.56L1033.55,4651.79L1033.41,4652.01L1033.28,4652.24L1033.15,4652.46L1033.02,4652.68L1032.88,4652.9L1032.75,4653.12L1032.61,4653.35L1032.47,4653.56L1032.33,4653.78L1032.19,4654L1032.05,4654.22L1031.9,4654.43L1031.76,4654.64L1031.61,4654.86L1031.46,4655.07L1031.32,4655.28L1031.16,4655.49L1031.01,4655.7L1030.86,4655.91L1030.71,4656.12L1030.55,4656.32L1030.4,4656.53L1030.24,4656.73L1030.08,4656.94L1029.92,4657.14L1029.76,4657.34L1029.6,4657.54L1029.44,4657.74L1029.27,4657.94L1029.11,4658.14L1028.94,4658.34L1028.77,4658.53L1028.61,4658.73L1028.43,4658.92L1028.26,4659.11L1028.09,4659.31L1027.92,4659.49L1027.75,4659.68L1027.57,4659.87L1027.39,4660.06L1027.22,4660.25L1027.04,4660.43L1026.86,4660.61L1026.68,4660.8L1026.5,4660.98L1026.31,4661.16L1026.13,4661.34L1025.94,4661.52L1025.76,4661.7L1025.57,4661.87L1025.38,4662.05L1025.19,4662.22L1025,4662.39L1024.81,4662.57L1024.62,4662.74L1024.43,4662.9L1024.23,4663.07L1024.04,4663.24L1023.84,4663.41L1023.64,4663.57L1023.45,4663.73L1023.25,4663.9L1023.05,4664.06L1022.85,4664.22L1022.64,4664.38L1022.44,4664.53L1022.24,4664.69L1022.03,4664.85L1021.83,4665L1021.62,4665.15L1021.41,4665.3L1021.2,4665.45L1020.99,4665.6L1020.78,4665.75L1020.57,4665.9L1020.36,4666.04L1020.14,4666.19L1019.93,4666.33L1019.72,4666.47L1019.5,4666.61L1019.28,4666.75L1019.07,4666.89L1018.85,4667.02L1018.63,4667.16L1018.41,4667.29L1018.19,4667.42L1017.96,4667.55L1017.74,4667.68L1017.52,4667.81L1017.29,4667.94L1017.07,4668.06L1016.84,4668.19L1016.62,4668.31L1016.39,4668.43L1016.16,4668.55L1015.93,4668.67L1015.7,4668.79L1015.47,4668.9L1015.24,4669.02L1015,4669.13L1014.77,4669.24L1014.54,4669.35L1014.3,4669.46L1014.07,4669.57L1013.83,4669.68L1013.59,4669.78L1013.36,4669.89L1013.12,4669.99L1012.88,4670.09L1012.64,4670.19L1012.4,4670.28L1012.15,4670.38L1011.91,4670.48L1011.67,4670.57L1011.43,4670.66L1011.18,4670.75L1010.94,4670.84L1010.69,4670.93L1010.45,4671.01L1010.2,4671.1L1009.95,4671.18L1009.7,4671.26L1009.45,4671.34L1009.2,4671.42L1008.95,4671.49L1008.7,4671.57L1008.45,4671.64L1008.2,4671.72L1007.95,4671.79L1007.69,4671.86L1007.44,4671.92L1007.18,4671.99L1006.93,4672.05L1006.67,4672.12L1006.42,4672.18L1006.16,4672.24L1005.9,4672.3L1005.64,4672.35L1005.38,4672.41L1005.12,4672.46L1004.86,4672.51L1004.6,4672.56L1004.34,4672.61L1004.08,4672.66L1003.82,4672.7L1003.56,4672.74L1003.29,4672.79L1003.03,4672.83L1002.76,4672.86L1002.5,4672.9L1002.24,4672.94L1001.97,4672.97L1001.7,4673L1001.44,4673.03L1001.17,4673.06L1000.9,4673.09L1000.63,4673.11L1000.36,4673.14L1000.09,4673.16L999.824,4673.18L999.554,4673.2L999.283,4673.21L999.012,4673.23L998.741,4673.24L998.469,4673.25L998.196,4673.26L997.923,4673.27L997.65,4673.28L997.376,4673.28L997.102,4673.28L996.828,4673.28L657.013,4673.28L656.738,4673.28L656.464,4673.28L656.191,4673.28L655.917,4673.27L655.644,4673.26L655.372,4673.25L655.1,4673.24L654.828,4673.23L654.557,4673.21L654.287,4673.2L654.016,4673.18L653.747,4673.16L653.477,4673.14L653.209,4673.11L652.94,4673.09L652.672,4673.06L652.405,4673.03L652.138,4673L651.872,4672.97L651.606,4672.94L651.341,4672.9L651.076,4672.86L650.812,4672.83L650.548,4672.79L650.284,4672.74L650.022,4672.7L649.76,4672.66L649.498,4672.61L649.237,4672.56L648.976,4672.51L648.716,4672.46L648.457,4672.41L648.198,4672.35L647.94,4672.3L647.682,4672.24L647.425,4672.18L647.168,4672.12L646.913,4672.05L646.657,4671.99L646.403,4671.92L646.148,4671.86L645.895,4671.79L645.642,4671.72L645.39,4671.64L645.138,4671.57L644.887,4671.49L644.637,4671.42L644.387,4671.34L644.138,4671.26L643.89,4671.18L643.642,4671.1L643.395,4671.01L643.149,4670.93L642.903,4670.84L642.658,4670.75L642.414,4670.66L642.171,4670.57L641.928,4670.48L641.686,4670.38L641.444,4670.28L641.203,4670.19L640.963,4670.09L640.724,4669.99L640.486,4669.89L640.248,4669.78L640.011,4669.68L639.774,4669.57L639.539,4669.46L639.304,4669.35L639.07,4669.24L638.837,4669.13L638.604,4669.02L638.373,4668.9L638.142,4668.79L637.912,4668.67L637.682,4668.55L637.454,4668.43L637.226,4668.31L636.999,4668.19L636.773,4668.06L636.548,4667.94L636.323,4667.81L636.1,4667.68L635.877,4667.55L635.655,4667.42L635.434,4667.29L635.213,4667.16L634.994,4667.02L634.776,4666.89L634.558,4666.75L634.341,4666.61L634.125,4666.47L633.91,4666.33L633.696,4666.19L633.483,4666.04L633.271,4665.9L633.059,4665.75L632.849,4665.6L632.639,4665.45L632.43,4665.3L632.223,4665.15L632.016,4665L631.81,4664.85L631.605,4664.69L631.401,4664.53L631.198,4664.38L630.996,4664.22L630.795,4664.06L630.595,4663.9L630.396,4663.73L630.197,4663.57L630,4663.41L629.804,4663.24L629.609,4663.07L629.415,4662.9L629.221,4662.74L629.029,4662.57L628.838,4662.39L628.648,4662.22L628.459,4662.05L628.271,4661.87L628.083,4661.7L627.897,4661.52L627.712,4661.34L627.529,4661.16L627.346,4660.98L627.164,4660.8L626.983,4660.61L626.803,4660.43L626.625,4660.25L626.447,4660.06L626.271,4659.87L626.096,4659.68L625.921,4659.49L625.748,4659.31L625.576,4659.11L625.405,4658.92L625.236,4658.73L625.067,4658.53L624.899,4658.34L624.733,4658.14L624.568,4657.94L624.404,4657.74L624.241,4657.54L624.079,4657.34L623.918,4657.14L623.759,4656.94L623.601,4656.73L623.444,4656.53L623.288,4656.32L623.133,4656.12L622.979,4655.91L622.827,4655.7L622.676,4655.49L622.526,4655.28L622.377,4655.07L622.23,4654.86L622.083,4654.64L621.938,4654.43L621.795,4654.22L621.652,4654L621.511,4653.78L621.371,4653.56L621.232,4653.35L621.094,4653.12L620.958,4652.9L620.823,4652.68L620.689,4652.46L620.557,4652.24L620.426,4652.01L620.296,4651.79L620.167,4651.56L620.04,4651.34L619.914,4651.11L619.789,4650.88L619.666,4650.65L619.544,4650.42L619.423,4650.19L619.304,4649.96L619.186,4649.72L619.069,4649.49L618.954,4649.26L618.84,4649.02L618.727,4648.79L618.616,4648.55L618.506,4648.31L618.398,4648.07L618.291,4647.83L618.185,4647.6L618.081,4647.35L617.978,4647.11L617.876,4646.87L617.776,4646.63L617.677,4646.38L617.58,4646.14L617.484,4645.9L617.39,4645.65L617.297,4645.4L617.205,4645.16L617.115,4644.91L617.027,4644.66L616.939,4644.41L616.854,4644.16L616.769,4643.91L616.687,4643.66L616.605,4643.4L616.525,4643.15L616.447,4642.9L616.37,4642.65L616.295,4642.39L616.221,4642.14L616.149,4641.88L616.078,4641.62L616.008,4641.36L615.941,4641.11L615.874,4640.85L615.81,4640.59L615.746,4640.33L615.685,4640.07L615.625,4639.81L615.566,4639.55L615.509,4639.28L615.454,4639.02L615.4,4638.76L615.347,4638.49L615.297,4638.23L615.248,4637.96L615.2,4637.7L615.154,4637.43L615.11,4637.16L615.067,4636.9L615.026,4636.63L614.986,4636.36L614.948,4636.09L614.912,4635.82L614.878,4635.55L614.845,4635.28L614.813,4635.01L614.784,4634.74L614.756,4634.47L614.729,4634.19L614.704,4633.92L614.681,4633.65L614.66,4633.37L614.64,4633.1L614.622,4632.82L614.606,4632.55L614.591,4632.27L614.578,4631.99L614.567,4631.72L614.558,4631.44L614.55,4631.16L614.544,4630.89L614.54,4630.61L614.537,4630.33L614.536,4630.05L614.536,3542.93L614.537,3542.65L614.54,3542.37L614.544,3542.09L614.55,3541.82L614.558,3541.54L614.567,3541.26L614.578,3540.98L614.591,3540.71L614.606,3540.43L614.622,3540.16L614.64,3539.88L614.66,3539.61L614.681,3539.33L614.704,3539.06L614.729,3538.78L614.756,3538.51L614.784,3538.24L614.813,3537.97L614.845,3537.7L614.878,3537.43L614.912,3537.16L614.948,3536.89L614.986,3536.62L615.026,3536.35L615.067,3536.08L615.11,3535.81L615.154,3535.55L615.2,3535.28L615.248,3535.01L615.297,3534.75L615.347,3534.49L615.4,3534.22L615.454,3533.96L615.509,3533.7L615.566,3533.43L615.625,3533.17L615.685,3532.91L615.746,3532.65L615.81,3532.39L615.874,3532.13L615.941,3531.87L616.008,3531.61L616.078,3531.36L616.149,3531.1L616.221,3530.84L616.295,3530.59L616.37,3530.33L616.447,3530.08L616.525,3529.83L616.605,3529.57L616.687,3529.32L616.769,3529.07L616.854,3528.82L616.939,3528.57L617.027,3528.32L617.115,3528.07L617.205,3527.82L617.297,3527.58L617.39,3527.33L617.484,3527.08L617.58,3526.84L617.677,3526.59L617.776,3526.35L617.876,3526.11L617.978,3525.87L618.081,3525.62L618.185,3525.38L618.291,3525.14L618.398,3524.9L618.506,3524.67L618.616,3524.43L618.727,3524.19L618.84,3523.96L618.954,3523.72L619.069,3523.49L619.186,3523.25L619.304,3523.02L619.423,3522.79L619.544,3522.56L619.666,3522.33L619.789,3522.1L619.914,3521.87L620.04,3521.64L620.167,3521.42L620.296,3521.19L620.426,3520.97L620.557,3520.74L620.689,3520.52L620.823,3520.3L620.958,3520.07L621.094,3519.85L621.232,3519.63L621.371,3519.41L621.511,3519.2L621.652,3518.98L621.795,3518.76L621.938,3518.55L622.083,3518.33L622.23,3518.12L622.377,3517.91L622.526,3517.7L622.676,3517.49L622.827,3517.28L622.979,3517.07L623.133,3516.86L623.288,3516.65L623.444,3516.45L623.601,3516.24L623.759,3516.04L623.918,3515.84L624.079,3515.64L624.241,3515.43L624.404,3515.23L624.568,3515.04L624.733,3514.84L624.899,3514.64L625.067,3514.45L625.236,3514.25L625.405,3514.06L625.576,3513.87L625.748,3513.67L625.921,3513.48L626.096,3513.29L626.271,3513.11L626.447,3512.92L626.625,3512.73L626.803,3512.55L626.983,3512.36L627.164,3512.18L627.346,3512L627.529,3511.82L627.712,3511.64L627.897,3511.46L628.083,3511.28L628.271,3511.11L628.459,3510.93L628.648,3510.76L628.838,3510.58L629.029,3510.41L629.221,3510.24L629.415,3510.07L629.609,3509.9L629.804,3509.74L630,3509.57L630.197,3509.41L630.396,3509.24L630.595,3509.08L630.795,3508.92L630.996,3508.76L631.198,3508.6L631.401,3508.44L631.605,3508.29L631.81,3508.13L632.016,3507.98L632.223,3507.83L632.43,3507.67L632.639,3507.52L632.849,3507.38L633.059,3507.23L633.271,3507.08L633.483,3506.94L633.696,3506.79L633.91,3506.65L634.125,3506.51L634.341,3506.37L634.558,3506.23L634.776,3506.09L634.994,3505.96L635.213,3505.82L635.434,3505.69L635.655,3505.56L635.877,3505.43L636.1,3505.3L636.323,3505.17L636.548,3505.04L636.773,3504.91L636.999,3504.79L637.226,3504.67L637.454,3504.55L637.682,3504.43L637.912,3504.31L638.142,3504.19L638.373,3504.07L638.604,3503.96L638.837,3503.85L639.07,3503.73L639.304,3503.62L639.539,3503.51L639.774,3503.41L640.011,3503.3L640.248,3503.2L640.486,3503.09L640.724,3502.99L640.963,3502.89L641.203,3502.79L641.444,3502.69L641.686,3502.6L641.928,3502.5L642.171,3502.41L642.414,3502.32L642.658,3502.23L642.903,3502.14L643.149,3502.05L643.395,3501.97L643.642,3501.88L643.89,3501.8L644.138,3501.72L644.387,3501.64L644.637,3501.56L644.887,3501.48L645.138,3501.41L645.39,3501.33L645.642,3501.26L645.895,3501.19L646.148,3501.12L646.403,3501.06L646.657,3500.99L646.913,3500.93L647.168,3500.86L647.425,3500.8L647.682,3500.74L647.94,3500.68L648.198,3500.63L648.457,3500.57L648.716,3500.52L648.976,3500.47L649.237,3500.42L649.498,3500.37L649.76,3500.32L650.022,3500.28L650.284,3500.23L650.548,3500.19L650.812,3500.15L651.076,3500.11L651.341,3500.08L651.606,3500.04L651.872,3500.01L652.138,3499.97L652.405,3499.95L652.672,3499.92L652.94,3499.89L653.209,3499.86L653.477,3499.84L653.747,3499.82L654.016,3499.8L654.287,3499.78L654.557,3499.76L654.828,3499.75L655.1,3499.74L655.372,3499.72L655.644,3499.72L655.917,3499.71L656.191,3499.7L656.464,3499.7L656.738,3499.69L657.013,3499.69L996.828,3499.69L997.102,3499.69ZM675.218,3561.46L675.218,4611.52L978.624,4611.52L978.624,3561.46L675.218,3561.46Z" style="fill:rgb(153,0,0);"/>
                            </g>
                        </g>
                    </g>
                    <g id="Sw.Lever" transform="matrix(0.909786,0,0,0.595731,-2244.22,-250.135)">
                        <g>
                            <g>
                                <g>
                                    <g transform="matrix(1.13568,0,0,1.30499,-1959.2,-493.08)">
                                        <path d="M14521.4,1409.42C14521.4,1404.14 14516.5,1399.85 14510.4,1399.85L14334.3,1399.85C14328.2,1399.85 14323.3,1404.14 14323.3,1409.42C14323.3,1414.71 14328.2,1419 14334.3,1419L14510.4,1419C14516.5,1419 14521.4,1414.71 14521.4,1409.42Z" style="fill:rgb(153,0,0);"/>
                                        <path d="M14510.5,1399.85L14510.7,1399.85L14510.8,1399.85L14510.9,1399.86L14511.1,1399.87L14511.2,1399.88L14511.4,1399.88L14511.5,1399.9L14511.6,1399.91L14511.8,1399.92L14511.9,1399.94L14512.1,1399.96L14512.2,1399.98L14512.3,1400L14512.5,1400.02L14512.6,1400.04L14512.7,1400.07L14512.9,1400.09L14513,1400.12L14513.1,1400.15L14513.3,1400.18L14513.4,1400.21L14513.5,1400.24L14513.6,1400.28L14513.8,1400.31L14513.9,1400.35L14514,1400.39L14514.2,1400.43L14514.3,1400.47L14514.4,1400.51L14514.5,1400.56L14514.7,1400.6L14514.8,1400.65L14514.9,1400.69L14515,1400.74L14515.1,1400.79L14515.3,1400.84L14515.4,1400.89L14515.5,1400.95L14515.6,1401L14515.7,1401.06L14515.9,1401.12L14516,1401.17L14516.1,1401.23L14516.2,1401.3L14516.3,1401.36L14516.4,1401.42L14516.5,1401.48L14516.6,1401.55L14516.7,1401.62L14516.9,1401.68L14517,1401.75L14517.1,1401.82L14517.2,1401.89L14517.3,1401.96L14517.4,1402.04L14517.5,1402.11L14517.6,1402.18L14517.7,1402.26L14517.8,1402.34L14517.9,1402.41L14518,1402.49L14518.1,1402.57L14518.2,1402.65L14518.2,1402.74L14518.3,1402.82L14518.4,1402.9L14518.5,1402.99L14518.6,1403.07L14518.7,1403.16L14518.8,1403.25L14518.9,1403.33L14519,1403.42L14519,1403.51L14519.1,1403.6L14519.2,1403.7L14519.3,1403.79L14519.4,1403.88L14519.4,1403.98L14519.5,1404.07L14519.6,1404.17L14519.6,1404.26L14519.7,1404.36L14519.8,1404.46L14519.9,1404.56L14519.9,1404.66L14520,1404.76L14520.1,1404.86L14520.1,1404.96L14520.2,1405.07L14520.2,1405.17L14520.3,1405.27L14520.4,1405.38L14520.4,1405.49L14520.5,1405.59L14520.5,1405.7L14520.6,1405.81L14520.6,1405.91L14520.7,1406.02L14520.7,1406.13L14520.8,1406.24L14520.8,1406.36L14520.8,1406.47L14520.9,1406.58L14520.9,1406.69L14521,1406.8L14521,1406.92L14521,1407.03L14521.1,1407.15L14521.1,1407.26L14521.1,1407.38L14521.2,1407.5L14521.2,1407.61L14521.2,1407.73L14521.2,1407.85L14521.3,1407.97L14521.3,1408.09L14521.3,1408.21L14521.3,1408.33L14521.3,1408.45L14521.3,1408.57L14521.3,1408.69L14521.4,1408.81L14521.4,1408.93L14521.4,1409.06L14521.4,1409.18L14521.4,1409.3L14521.4,1409.42L14521.4,1409.55L14521.4,1409.67L14521.4,1409.8L14521.4,1409.92L14521.4,1410.04L14521.3,1410.16L14521.3,1410.28L14521.3,1410.4L14521.3,1410.53L14521.3,1410.64L14521.3,1410.76L14521.3,1410.88L14521.2,1411L14521.2,1411.12L14521.2,1411.24L14521.2,1411.36L14521.1,1411.47L14521.1,1411.59L14521.1,1411.7L14521,1411.82L14521,1411.93L14521,1412.05L14520.9,1412.16L14520.9,1412.27L14520.8,1412.38L14520.8,1412.5L14520.8,1412.61L14520.7,1412.72L14520.7,1412.83L14520.6,1412.94L14520.6,1413.05L14520.5,1413.15L14520.5,1413.26L14520.4,1413.37L14520.4,1413.47L14520.3,1413.58L14520.2,1413.68L14520.2,1413.78L14520.1,1413.89L14520.1,1413.99L14520,1414.09L14519.9,1414.19L14519.9,1414.29L14519.8,1414.39L14519.7,1414.49L14519.6,1414.59L14519.6,1414.68L14519.5,1414.78L14519.4,1414.87L14519.4,1414.97L14519.3,1415.06L14519.2,1415.15L14519.1,1415.25L14519,1415.34L14519,1415.43L14518.9,1415.52L14518.8,1415.61L14518.7,1415.69L14518.6,1415.78L14518.5,1415.86L14518.4,1415.95L14518.3,1416.03L14518.2,1416.12L14518.2,1416.2L14518.1,1416.28L14518,1416.36L14517.9,1416.44L14517.8,1416.51L14517.7,1416.59L14517.6,1416.67L14517.5,1416.74L14517.4,1416.82L14517.3,1416.89L14517.2,1416.96L14517.1,1417.03L14517,1417.1L14516.9,1417.17L14516.7,1417.24L14516.6,1417.3L14516.5,1417.37L14516.4,1417.43L14516.3,1417.49L14516.2,1417.56L14516.1,1417.62L14516,1417.68L14515.9,1417.73L14515.7,1417.79L14515.6,1417.85L14515.5,1417.9L14515.4,1417.95L14515.3,1418.01L14515.1,1418.06L14515,1418.11L14514.9,1418.16L14514.8,1418.2L14514.7,1418.25L14514.5,1418.3L14514.4,1418.34L14514.3,1418.38L14514.2,1418.42L14514,1418.46L14513.9,1418.5L14513.8,1418.54L14513.6,1418.57L14513.5,1418.61L14513.4,1418.64L14513.3,1418.67L14513.1,1418.7L14513,1418.73L14512.9,1418.76L14512.7,1418.79L14512.6,1418.81L14512.5,1418.83L14512.3,1418.85L14512.2,1418.88L14512.1,1418.89L14511.9,1418.91L14511.8,1418.93L14511.6,1418.94L14511.5,1418.95L14511.4,1418.97L14511.2,1418.98L14511.1,1418.98L14510.9,1418.99L14510.8,1419L14510.7,1419L14510.5,1419L14510.4,1419L14334.3,1419L14334.1,1419L14334,1419L14333.8,1419L14333.7,1418.99L14333.6,1418.98L14333.4,1418.98L14333.3,1418.97L14333.1,1418.95L14333,1418.94L14332.9,1418.93L14332.7,1418.91L14332.6,1418.89L14332.5,1418.88L14332.3,1418.85L14332.2,1418.83L14332.1,1418.81L14331.9,1418.79L14331.8,1418.76L14331.7,1418.73L14331.5,1418.7L14331.4,1418.67L14331.3,1418.64L14331.1,1418.61L14331,1418.57L14330.9,1418.54L14330.7,1418.5L14330.6,1418.46L14330.5,1418.42L14330.4,1418.38L14330.2,1418.34L14330.1,1418.3L14330,1418.25L14329.9,1418.2L14329.7,1418.16L14329.6,1418.11L14329.5,1418.06L14329.4,1418.01L14329.3,1417.95L14329.1,1417.9L14329,1417.85L14328.9,1417.79L14328.8,1417.73L14328.7,1417.68L14328.6,1417.62L14328.5,1417.56L14328.3,1417.49L14328.2,1417.43L14328.1,1417.37L14328,1417.3L14327.9,1417.24L14327.8,1417.17L14327.7,1417.1L14327.6,1417.03L14327.5,1416.96L14327.4,1416.89L14327.3,1416.82L14327.2,1416.74L14327.1,1416.67L14327,1416.59L14326.9,1416.51L14326.8,1416.44L14326.7,1416.36L14326.6,1416.28L14326.5,1416.2L14326.4,1416.12L14326.3,1416.03L14326.2,1415.95L14326.1,1415.86L14326,1415.78L14325.9,1415.69L14325.9,1415.61L14325.8,1415.52L14325.7,1415.43L14325.6,1415.34L14325.5,1415.25L14325.5,1415.15L14325.4,1415.06L14325.3,1414.97L14325.2,1414.87L14325.1,1414.78L14325.1,1414.68L14325,1414.59L14324.9,1414.49L14324.9,1414.39L14324.8,1414.29L14324.7,1414.19L14324.7,1414.09L14324.6,1413.99L14324.5,1413.89L14324.5,1413.78L14324.4,1413.68L14324.3,1413.58L14324.3,1413.47L14324.2,1413.37L14324.2,1413.26L14324.1,1413.15L14324.1,1413.05L14324,1412.94L14324,1412.83L14323.9,1412.72L14323.9,1412.61L14323.8,1412.5L14323.8,1412.38L14323.8,1412.27L14323.7,1412.16L14323.7,1412.05L14323.6,1411.93L14323.6,1411.82L14323.6,1411.7L14323.5,1411.59L14323.5,1411.47L14323.5,1411.36L14323.5,1411.24L14323.4,1411.12L14323.4,1411L14323.4,1410.88L14323.4,1410.76L14323.4,1410.64L14323.3,1410.53L14323.3,1410.4L14323.3,1410.28L14323.3,1410.16L14323.3,1410.04L14323.3,1409.92L14323.3,1409.8L14323.3,1409.67L14323.3,1409.55L14323.3,1409.42L14323.3,1409.3L14323.3,1409.18L14323.3,1409.06L14323.3,1408.93L14323.3,1408.81L14323.3,1408.69L14323.3,1408.57L14323.3,1408.45L14323.3,1408.33L14323.4,1408.21L14323.4,1408.09L14323.4,1407.97L14323.4,1407.85L14323.4,1407.73L14323.5,1407.61L14323.5,1407.5L14323.5,1407.38L14323.5,1407.26L14323.6,1407.15L14323.6,1407.03L14323.6,1406.92L14323.7,1406.8L14323.7,1406.69L14323.8,1406.58L14323.8,1406.47L14323.8,1406.36L14323.9,1406.24L14323.9,1406.13L14324,1406.02L14324,1405.91L14324.1,1405.81L14324.1,1405.7L14324.2,1405.59L14324.2,1405.49L14324.3,1405.38L14324.3,1405.27L14324.4,1405.17L14324.5,1405.07L14324.5,1404.96L14324.6,1404.86L14324.7,1404.76L14324.7,1404.66L14324.8,1404.56L14324.9,1404.46L14324.9,1404.36L14325,1404.26L14325.1,1404.17L14325.1,1404.07L14325.2,1403.98L14325.3,1403.88L14325.4,1403.79L14325.5,1403.7L14325.5,1403.6L14325.6,1403.51L14325.7,1403.42L14325.8,1403.33L14325.9,1403.25L14325.9,1403.16L14326,1403.07L14326.1,1402.99L14326.2,1402.9L14326.3,1402.82L14326.4,1402.74L14326.5,1402.65L14326.6,1402.57L14326.7,1402.49L14326.8,1402.41L14326.9,1402.34L14327,1402.26L14327.1,1402.18L14327.2,1402.11L14327.3,1402.04L14327.4,1401.96L14327.5,1401.89L14327.6,1401.82L14327.7,1401.75L14327.8,1401.68L14327.9,1401.62L14328,1401.55L14328.1,1401.48L14328.2,1401.42L14328.3,1401.36L14328.5,1401.3L14328.6,1401.23L14328.7,1401.17L14328.8,1401.12L14328.9,1401.06L14329,1401L14329.1,1400.95L14329.3,1400.89L14329.4,1400.84L14329.5,1400.79L14329.6,1400.74L14329.7,1400.69L14329.9,1400.65L14330,1400.6L14330.1,1400.56L14330.2,1400.51L14330.4,1400.47L14330.5,1400.43L14330.6,1400.39L14330.7,1400.35L14330.9,1400.31L14331,1400.28L14331.1,1400.24L14331.3,1400.21L14331.4,1400.18L14331.5,1400.15L14331.7,1400.12L14331.8,1400.09L14331.9,1400.07L14332.1,1400.04L14332.2,1400.02L14332.3,1400L14332.5,1399.98L14332.6,1399.96L14332.7,1399.94L14332.9,1399.92L14333,1399.91L14333.1,1399.9L14333.3,1399.88L14333.4,1399.88L14333.6,1399.87L14333.7,1399.86L14333.8,1399.85L14334,1399.85L14334.1,1399.85L14334.3,1399.85L14510.4,1399.85L14510.5,1399.85ZM14334.3,1409.42L14334.3,1409.42L14334.3,1409.42L14510.3,1409.42L14510.3,1409.42L14510.3,1409.42L14334.3,1409.42Z" style="fill:rgb(153,0,0);"/>
                                    </g>
                                    <g transform="matrix(1.13568,0,0,1.30499,-1959.2,-543.08)">
                                        <path d="M14521.4,1409.42C14521.4,1404.14 14516.5,1399.85 14510.4,1399.85L14334.3,1399.85C14328.2,1399.85 14323.3,1404.14 14323.3,1409.42C14323.3,1414.71 14328.2,1419 14334.3,1419L14510.4,1419C14516.5,1419 14521.4,1414.71 14521.4,1409.42Z" style="fill:rgb(153,0,0);"/>
                                        <path d="M14510.5,1399.85L14510.7,1399.85L14510.8,1399.85L14510.9,1399.86L14511.1,1399.87L14511.2,1399.88L14511.4,1399.88L14511.5,1399.9L14511.6,1399.91L14511.8,1399.92L14511.9,1399.94L14512.1,1399.96L14512.2,1399.98L14512.3,1400L14512.5,1400.02L14512.6,1400.04L14512.7,1400.07L14512.9,1400.09L14513,1400.12L14513.1,1400.15L14513.3,1400.18L14513.4,1400.21L14513.5,1400.24L14513.6,1400.28L14513.8,1400.31L14513.9,1400.35L14514,1400.39L14514.2,1400.43L14514.3,1400.47L14514.4,1400.51L14514.5,1400.56L14514.7,1400.6L14514.8,1400.65L14514.9,1400.69L14515,1400.74L14515.1,1400.79L14515.3,1400.84L14515.4,1400.89L14515.5,1400.95L14515.6,1401L14515.7,1401.06L14515.9,1401.12L14516,1401.17L14516.1,1401.23L14516.2,1401.3L14516.3,1401.36L14516.4,1401.42L14516.5,1401.48L14516.6,1401.55L14516.7,1401.62L14516.9,1401.68L14517,1401.75L14517.1,1401.82L14517.2,1401.89L14517.3,1401.96L14517.4,1402.04L14517.5,1402.11L14517.6,1402.18L14517.7,1402.26L14517.8,1402.34L14517.9,1402.41L14518,1402.49L14518.1,1402.57L14518.2,1402.65L14518.2,1402.74L14518.3,1402.82L14518.4,1402.9L14518.5,1402.99L14518.6,1403.07L14518.7,1403.16L14518.8,1403.25L14518.9,1403.33L14519,1403.42L14519,1403.51L14519.1,1403.6L14519.2,1403.7L14519.3,1403.79L14519.4,1403.88L14519.4,1403.98L14519.5,1404.07L14519.6,1404.17L14519.6,1404.26L14519.7,1404.36L14519.8,1404.46L14519.9,1404.56L14519.9,1404.66L14520,1404.76L14520.1,1404.86L14520.1,1404.96L14520.2,1405.07L14520.2,1405.17L14520.3,1405.27L14520.4,1405.38L14520.4,1405.49L14520.5,1405.59L14520.5,1405.7L14520.6,1405.81L14520.6,1405.91L14520.7,1406.02L14520.7,1406.13L14520.8,1406.24L14520.8,1406.36L14520.8,1406.47L14520.9,1406.58L14520.9,1406.69L14521,1406.8L14521,1406.92L14521,1407.03L14521.1,1407.15L14521.1,1407.26L14521.1,1407.38L14521.2,1407.5L14521.2,1407.61L14521.2,1407.73L14521.2,1407.85L14521.3,1407.97L14521.3,1408.09L14521.3,1408.21L14521.3,1408.33L14521.3,1408.45L14521.3,1408.57L14521.3,1408.69L14521.4,1408.81L14521.4,1408.93L14521.4,1409.06L14521.4,1409.18L14521.4,1409.3L14521.4,1409.42L14521.4,1409.55L14521.4,1409.67L14521.4,1409.8L14521.4,1409.92L14521.4,1410.04L14521.3,1410.16L14521.3,1410.28L14521.3,1410.4L14521.3,1410.53L14521.3,1410.64L14521.3,1410.76L14521.3,1410.88L14521.2,1411L14521.2,1411.12L14521.2,1411.24L14521.2,1411.36L14521.1,1411.47L14521.1,1411.59L14521.1,1411.7L14521,1411.82L14521,1411.93L14521,1412.05L14520.9,1412.16L14520.9,1412.27L14520.8,1412.38L14520.8,1412.5L14520.8,1412.61L14520.7,1412.72L14520.7,1412.83L14520.6,1412.94L14520.6,1413.05L14520.5,1413.15L14520.5,1413.26L14520.4,1413.37L14520.4,1413.47L14520.3,1413.58L14520.2,1413.68L14520.2,1413.78L14520.1,1413.89L14520.1,1413.99L14520,1414.09L14519.9,1414.19L14519.9,1414.29L14519.8,1414.39L14519.7,1414.49L14519.6,1414.59L14519.6,1414.68L14519.5,1414.78L14519.4,1414.87L14519.4,1414.97L14519.3,1415.06L14519.2,1415.15L14519.1,1415.25L14519,1415.34L14519,1415.43L14518.9,1415.52L14518.8,1415.61L14518.7,1415.69L14518.6,1415.78L14518.5,1415.86L14518.4,1415.95L14518.3,1416.03L14518.2,1416.12L14518.2,1416.2L14518.1,1416.28L14518,1416.36L14517.9,1416.44L14517.8,1416.51L14517.7,1416.59L14517.6,1416.67L14517.5,1416.74L14517.4,1416.82L14517.3,1416.89L14517.2,1416.96L14517.1,1417.03L14517,1417.1L14516.9,1417.17L14516.7,1417.24L14516.6,1417.3L14516.5,1417.37L14516.4,1417.43L14516.3,1417.49L14516.2,1417.56L14516.1,1417.62L14516,1417.68L14515.9,1417.73L14515.7,1417.79L14515.6,1417.85L14515.5,1417.9L14515.4,1417.95L14515.3,1418.01L14515.1,1418.06L14515,1418.11L14514.9,1418.16L14514.8,1418.2L14514.7,1418.25L14514.5,1418.3L14514.4,1418.34L14514.3,1418.38L14514.2,1418.42L14514,1418.46L14513.9,1418.5L14513.8,1418.54L14513.6,1418.57L14513.5,1418.61L14513.4,1418.64L14513.3,1418.67L14513.1,1418.7L14513,1418.73L14512.9,1418.76L14512.7,1418.79L14512.6,1418.81L14512.5,1418.83L14512.3,1418.85L14512.2,1418.88L14512.1,1418.89L14511.9,1418.91L14511.8,1418.93L14511.6,1418.94L14511.5,1418.95L14511.4,1418.97L14511.2,1418.98L14511.1,1418.98L14510.9,1418.99L14510.8,1419L14510.7,1419L14510.5,1419L14510.4,1419L14334.3,1419L14334.1,1419L14334,1419L14333.8,1419L14333.7,1418.99L14333.6,1418.98L14333.4,1418.98L14333.3,1418.97L14333.1,1418.95L14333,1418.94L14332.9,1418.93L14332.7,1418.91L14332.6,1418.89L14332.5,1418.88L14332.3,1418.85L14332.2,1418.83L14332.1,1418.81L14331.9,1418.79L14331.8,1418.76L14331.7,1418.73L14331.5,1418.7L14331.4,1418.67L14331.3,1418.64L14331.1,1418.61L14331,1418.57L14330.9,1418.54L14330.7,1418.5L14330.6,1418.46L14330.5,1418.42L14330.4,1418.38L14330.2,1418.34L14330.1,1418.3L14330,1418.25L14329.9,1418.2L14329.7,1418.16L14329.6,1418.11L14329.5,1418.06L14329.4,1418.01L14329.3,1417.95L14329.1,1417.9L14329,1417.85L14328.9,1417.79L14328.8,1417.73L14328.7,1417.68L14328.6,1417.62L14328.5,1417.56L14328.3,1417.49L14328.2,1417.43L14328.1,1417.37L14328,1417.3L14327.9,1417.24L14327.8,1417.17L14327.7,1417.1L14327.6,1417.03L14327.5,1416.96L14327.4,1416.89L14327.3,1416.82L14327.2,1416.74L14327.1,1416.67L14327,1416.59L14326.9,1416.51L14326.8,1416.44L14326.7,1416.36L14326.6,1416.28L14326.5,1416.2L14326.4,1416.12L14326.3,1416.03L14326.2,1415.95L14326.1,1415.86L14326,1415.78L14325.9,1415.69L14325.9,1415.61L14325.8,1415.52L14325.7,1415.43L14325.6,1415.34L14325.5,1415.25L14325.5,1415.15L14325.4,1415.06L14325.3,1414.97L14325.2,1414.87L14325.1,1414.78L14325.1,1414.68L14325,1414.59L14324.9,1414.49L14324.9,1414.39L14324.8,1414.29L14324.7,1414.19L14324.7,1414.09L14324.6,1413.99L14324.5,1413.89L14324.5,1413.78L14324.4,1413.68L14324.3,1413.58L14324.3,1413.47L14324.2,1413.37L14324.2,1413.26L14324.1,1413.15L14324.1,1413.05L14324,1412.94L14324,1412.83L14323.9,1412.72L14323.9,1412.61L14323.8,1412.5L14323.8,1412.38L14323.8,1412.27L14323.7,1412.16L14323.7,1412.05L14323.6,1411.93L14323.6,1411.82L14323.6,1411.7L14323.5,1411.59L14323.5,1411.47L14323.5,1411.36L14323.5,1411.24L14323.4,1411.12L14323.4,1411L14323.4,1410.88L14323.4,1410.76L14323.4,1410.64L14323.3,1410.53L14323.3,1410.4L14323.3,1410.28L14323.3,1410.16L14323.3,1410.04L14323.3,1409.92L14323.3,1409.8L14323.3,1409.67L14323.3,1409.55L14323.3,1409.42L14323.3,1409.3L14323.3,1409.18L14323.3,1409.06L14323.3,1408.93L14323.3,1408.81L14323.3,1408.69L14323.3,1408.57L14323.3,1408.45L14323.3,1408.33L14323.4,1408.21L14323.4,1408.09L14323.4,1407.97L14323.4,1407.85L14323.4,1407.73L14323.5,1407.61L14323.5,1407.5L14323.5,1407.38L14323.5,1407.26L14323.6,1407.15L14323.6,1407.03L14323.6,1406.92L14323.7,1406.8L14323.7,1406.69L14323.8,1406.58L14323.8,1406.47L14323.8,1406.36L14323.9,1406.24L14323.9,1406.13L14324,1406.02L14324,1405.91L14324.1,1405.81L14324.1,1405.7L14324.2,1405.59L14324.2,1405.49L14324.3,1405.38L14324.3,1405.27L14324.4,1405.17L14324.5,1405.07L14324.5,1404.96L14324.6,1404.86L14324.7,1404.76L14324.7,1404.66L14324.8,1404.56L14324.9,1404.46L14324.9,1404.36L14325,1404.26L14325.1,1404.17L14325.1,1404.07L14325.2,1403.98L14325.3,1403.88L14325.4,1403.79L14325.5,1403.7L14325.5,1403.6L14325.6,1403.51L14325.7,1403.42L14325.8,1403.33L14325.9,1403.25L14325.9,1403.16L14326,1403.07L14326.1,1402.99L14326.2,1402.9L14326.3,1402.82L14326.4,1402.74L14326.5,1402.65L14326.6,1402.57L14326.7,1402.49L14326.8,1402.41L14326.9,1402.34L14327,1402.26L14327.1,1402.18L14327.2,1402.11L14327.3,1402.04L14327.4,1401.96L14327.5,1401.89L14327.6,1401.82L14327.7,1401.75L14327.8,1401.68L14327.9,1401.62L14328,1401.55L14328.1,1401.48L14328.2,1401.42L14328.3,1401.36L14328.5,1401.3L14328.6,1401.23L14328.7,1401.17L14328.8,1401.12L14328.9,1401.06L14329,1401L14329.1,1400.95L14329.3,1400.89L14329.4,1400.84L14329.5,1400.79L14329.6,1400.74L14329.7,1400.69L14329.9,1400.65L14330,1400.6L14330.1,1400.56L14330.2,1400.51L14330.4,1400.47L14330.5,1400.43L14330.6,1400.39L14330.7,1400.35L14330.9,1400.31L14331,1400.28L14331.1,1400.24L14331.3,1400.21L14331.4,1400.18L14331.5,1400.15L14331.7,1400.12L14331.8,1400.09L14331.9,1400.07L14332.1,1400.04L14332.2,1400.02L14332.3,1400L14332.5,1399.98L14332.6,1399.96L14332.7,1399.94L14332.9,1399.92L14333,1399.91L14333.1,1399.9L14333.3,1399.88L14333.4,1399.88L14333.6,1399.87L14333.7,1399.86L14333.8,1399.85L14334,1399.85L14334.1,1399.85L14334.3,1399.85L14510.4,1399.85L14510.5,1399.85ZM14334.3,1409.42L14334.3,1409.42L14334.3,1409.42L14510.3,1409.42L14510.3,1409.42L14510.3,1409.42L14334.3,1409.42Z" style="fill:rgb(153,0,0);"/>
                                    </g>
                                    <g transform="matrix(1.13568,0,0,1.30499,-1959.2,-593.08)">
                                        <path d="M14521.4,1409.42C14521.4,1404.14 14516.5,1399.85 14510.4,1399.85L14334.3,1399.85C14328.2,1399.85 14323.3,1404.14 14323.3,1409.42C14323.3,1414.71 14328.2,1419 14334.3,1419L14510.4,1419C14516.5,1419 14521.4,1414.71 14521.4,1409.42Z" style="fill:rgb(153,0,0);"/>
                                        <path d="M14510.5,1399.85L14510.7,1399.85L14510.8,1399.85L14510.9,1399.86L14511.1,1399.87L14511.2,1399.88L14511.4,1399.88L14511.5,1399.9L14511.6,1399.91L14511.8,1399.92L14511.9,1399.94L14512.1,1399.96L14512.2,1399.98L14512.3,1400L14512.5,1400.02L14512.6,1400.04L14512.7,1400.07L14512.9,1400.09L14513,1400.12L14513.1,1400.15L14513.3,1400.18L14513.4,1400.21L14513.5,1400.24L14513.6,1400.28L14513.8,1400.31L14513.9,1400.35L14514,1400.39L14514.2,1400.43L14514.3,1400.47L14514.4,1400.51L14514.5,1400.56L14514.7,1400.6L14514.8,1400.65L14514.9,1400.69L14515,1400.74L14515.1,1400.79L14515.3,1400.84L14515.4,1400.89L14515.5,1400.95L14515.6,1401L14515.7,1401.06L14515.9,1401.12L14516,1401.17L14516.1,1401.23L14516.2,1401.3L14516.3,1401.36L14516.4,1401.42L14516.5,1401.48L14516.6,1401.55L14516.7,1401.62L14516.9,1401.68L14517,1401.75L14517.1,1401.82L14517.2,1401.89L14517.3,1401.96L14517.4,1402.04L14517.5,1402.11L14517.6,1402.18L14517.7,1402.26L14517.8,1402.34L14517.9,1402.41L14518,1402.49L14518.1,1402.57L14518.2,1402.65L14518.2,1402.74L14518.3,1402.82L14518.4,1402.9L14518.5,1402.99L14518.6,1403.07L14518.7,1403.16L14518.8,1403.25L14518.9,1403.33L14519,1403.42L14519,1403.51L14519.1,1403.6L14519.2,1403.7L14519.3,1403.79L14519.4,1403.88L14519.4,1403.98L14519.5,1404.07L14519.6,1404.17L14519.6,1404.26L14519.7,1404.36L14519.8,1404.46L14519.9,1404.56L14519.9,1404.66L14520,1404.76L14520.1,1404.86L14520.1,1404.96L14520.2,1405.07L14520.2,1405.17L14520.3,1405.27L14520.4,1405.38L14520.4,1405.49L14520.5,1405.59L14520.5,1405.7L14520.6,1405.81L14520.6,1405.91L14520.7,1406.02L14520.7,1406.13L14520.8,1406.24L14520.8,1406.36L14520.8,1406.47L14520.9,1406.58L14520.9,1406.69L14521,1406.8L14521,1406.92L14521,1407.03L14521.1,1407.15L14521.1,1407.26L14521.1,1407.38L14521.2,1407.5L14521.2,1407.61L14521.2,1407.73L14521.2,1407.85L14521.3,1407.97L14521.3,1408.09L14521.3,1408.21L14521.3,1408.33L14521.3,1408.45L14521.3,1408.57L14521.3,1408.69L14521.4,1408.81L14521.4,1408.93L14521.4,1409.06L14521.4,1409.18L14521.4,1409.3L14521.4,1409.42L14521.4,1409.55L14521.4,1409.67L14521.4,1409.8L14521.4,1409.92L14521.4,1410.04L14521.3,1410.16L14521.3,1410.28L14521.3,1410.4L14521.3,1410.53L14521.3,1410.64L14521.3,1410.76L14521.3,1410.88L14521.2,1411L14521.2,1411.12L14521.2,1411.24L14521.2,1411.36L14521.1,1411.47L14521.1,1411.59L14521.1,1411.7L14521,1411.82L14521,1411.93L14521,1412.05L14520.9,1412.16L14520.9,1412.27L14520.8,1412.38L14520.8,1412.5L14520.8,1412.61L14520.7,1412.72L14520.7,1412.83L14520.6,1412.94L14520.6,1413.05L14520.5,1413.15L14520.5,1413.26L14520.4,1413.37L14520.4,1413.47L14520.3,1413.58L14520.2,1413.68L14520.2,1413.78L14520.1,1413.89L14520.1,1413.99L14520,1414.09L14519.9,1414.19L14519.9,1414.29L14519.8,1414.39L14519.7,1414.49L14519.6,1414.59L14519.6,1414.68L14519.5,1414.78L14519.4,1414.87L14519.4,1414.97L14519.3,1415.06L14519.2,1415.15L14519.1,1415.25L14519,1415.34L14519,1415.43L14518.9,1415.52L14518.8,1415.61L14518.7,1415.69L14518.6,1415.78L14518.5,1415.86L14518.4,1415.95L14518.3,1416.03L14518.2,1416.12L14518.2,1416.2L14518.1,1416.28L14518,1416.36L14517.9,1416.44L14517.8,1416.51L14517.7,1416.59L14517.6,1416.67L14517.5,1416.74L14517.4,1416.82L14517.3,1416.89L14517.2,1416.96L14517.1,1417.03L14517,1417.1L14516.9,1417.17L14516.7,1417.24L14516.6,1417.3L14516.5,1417.37L14516.4,1417.43L14516.3,1417.49L14516.2,1417.56L14516.1,1417.62L14516,1417.68L14515.9,1417.73L14515.7,1417.79L14515.6,1417.85L14515.5,1417.9L14515.4,1417.95L14515.3,1418.01L14515.1,1418.06L14515,1418.11L14514.9,1418.16L14514.8,1418.2L14514.7,1418.25L14514.5,1418.3L14514.4,1418.34L14514.3,1418.38L14514.2,1418.42L14514,1418.46L14513.9,1418.5L14513.8,1418.54L14513.6,1418.57L14513.5,1418.61L14513.4,1418.64L14513.3,1418.67L14513.1,1418.7L14513,1418.73L14512.9,1418.76L14512.7,1418.79L14512.6,1418.81L14512.5,1418.83L14512.3,1418.85L14512.2,1418.88L14512.1,1418.89L14511.9,1418.91L14511.8,1418.93L14511.6,1418.94L14511.5,1418.95L14511.4,1418.97L14511.2,1418.98L14511.1,1418.98L14510.9,1418.99L14510.8,1419L14510.7,1419L14510.5,1419L14510.4,1419L14334.3,1419L14334.1,1419L14334,1419L14333.8,1419L14333.7,1418.99L14333.6,1418.98L14333.4,1418.98L14333.3,1418.97L14333.1,1418.95L14333,1418.94L14332.9,1418.93L14332.7,1418.91L14332.6,1418.89L14332.5,1418.88L14332.3,1418.85L14332.2,1418.83L14332.1,1418.81L14331.9,1418.79L14331.8,1418.76L14331.7,1418.73L14331.5,1418.7L14331.4,1418.67L14331.3,1418.64L14331.1,1418.61L14331,1418.57L14330.9,1418.54L14330.7,1418.5L14330.6,1418.46L14330.5,1418.42L14330.4,1418.38L14330.2,1418.34L14330.1,1418.3L14330,1418.25L14329.9,1418.2L14329.7,1418.16L14329.6,1418.11L14329.5,1418.06L14329.4,1418.01L14329.3,1417.95L14329.1,1417.9L14329,1417.85L14328.9,1417.79L14328.8,1417.73L14328.7,1417.68L14328.6,1417.62L14328.5,1417.56L14328.3,1417.49L14328.2,1417.43L14328.1,1417.37L14328,1417.3L14327.9,1417.24L14327.8,1417.17L14327.7,1417.1L14327.6,1417.03L14327.5,1416.96L14327.4,1416.89L14327.3,1416.82L14327.2,1416.74L14327.1,1416.67L14327,1416.59L14326.9,1416.51L14326.8,1416.44L14326.7,1416.36L14326.6,1416.28L14326.5,1416.2L14326.4,1416.12L14326.3,1416.03L14326.2,1415.95L14326.1,1415.86L14326,1415.78L14325.9,1415.69L14325.9,1415.61L14325.8,1415.52L14325.7,1415.43L14325.6,1415.34L14325.5,1415.25L14325.5,1415.15L14325.4,1415.06L14325.3,1414.97L14325.2,1414.87L14325.1,1414.78L14325.1,1414.68L14325,1414.59L14324.9,1414.49L14324.9,1414.39L14324.8,1414.29L14324.7,1414.19L14324.7,1414.09L14324.6,1413.99L14324.5,1413.89L14324.5,1413.78L14324.4,1413.68L14324.3,1413.58L14324.3,1413.47L14324.2,1413.37L14324.2,1413.26L14324.1,1413.15L14324.1,1413.05L14324,1412.94L14324,1412.83L14323.9,1412.72L14323.9,1412.61L14323.8,1412.5L14323.8,1412.38L14323.8,1412.27L14323.7,1412.16L14323.7,1412.05L14323.6,1411.93L14323.6,1411.82L14323.6,1411.7L14323.5,1411.59L14323.5,1411.47L14323.5,1411.36L14323.5,1411.24L14323.4,1411.12L14323.4,1411L14323.4,1410.88L14323.4,1410.76L14323.4,1410.64L14323.3,1410.53L14323.3,1410.4L14323.3,1410.28L14323.3,1410.16L14323.3,1410.04L14323.3,1409.92L14323.3,1409.8L14323.3,1409.67L14323.3,1409.55L14323.3,1409.42L14323.3,1409.3L14323.3,1409.18L14323.3,1409.06L14323.3,1408.93L14323.3,1408.81L14323.3,1408.69L14323.3,1408.57L14323.3,1408.45L14323.3,1408.33L14323.4,1408.21L14323.4,1408.09L14323.4,1407.97L14323.4,1407.85L14323.4,1407.73L14323.5,1407.61L14323.5,1407.5L14323.5,1407.38L14323.5,1407.26L14323.6,1407.15L14323.6,1407.03L14323.6,1406.92L14323.7,1406.8L14323.7,1406.69L14323.8,1406.58L14323.8,1406.47L14323.8,1406.36L14323.9,1406.24L14323.9,1406.13L14324,1406.02L14324,1405.91L14324.1,1405.81L14324.1,1405.7L14324.2,1405.59L14324.2,1405.49L14324.3,1405.38L14324.3,1405.27L14324.4,1405.17L14324.5,1405.07L14324.5,1404.96L14324.6,1404.86L14324.7,1404.76L14324.7,1404.66L14324.8,1404.56L14324.9,1404.46L14324.9,1404.36L14325,1404.26L14325.1,1404.17L14325.1,1404.07L14325.2,1403.98L14325.3,1403.88L14325.4,1403.79L14325.5,1403.7L14325.5,1403.6L14325.6,1403.51L14325.7,1403.42L14325.8,1403.33L14325.9,1403.25L14325.9,1403.16L14326,1403.07L14326.1,1402.99L14326.2,1402.9L14326.3,1402.82L14326.4,1402.74L14326.5,1402.65L14326.6,1402.57L14326.7,1402.49L14326.8,1402.41L14326.9,1402.34L14327,1402.26L14327.1,1402.18L14327.2,1402.11L14327.3,1402.04L14327.4,1401.96L14327.5,1401.89L14327.6,1401.82L14327.7,1401.75L14327.8,1401.68L14327.9,1401.62L14328,1401.55L14328.1,1401.48L14328.2,1401.42L14328.3,1401.36L14328.5,1401.3L14328.6,1401.23L14328.7,1401.17L14328.8,1401.12L14328.9,1401.06L14329,1401L14329.1,1400.95L14329.3,1400.89L14329.4,1400.84L14329.5,1400.79L14329.6,1400.74L14329.7,1400.69L14329.9,1400.65L14330,1400.6L14330.1,1400.56L14330.2,1400.51L14330.4,1400.47L14330.5,1400.43L14330.6,1400.39L14330.7,1400.35L14330.9,1400.31L14331,1400.28L14331.1,1400.24L14331.3,1400.21L14331.4,1400.18L14331.5,1400.15L14331.7,1400.12L14331.8,1400.09L14331.9,1400.07L14332.1,1400.04L14332.2,1400.02L14332.3,1400L14332.5,1399.98L14332.6,1399.96L14332.7,1399.94L14332.9,1399.92L14333,1399.91L14333.1,1399.9L14333.3,1399.88L14333.4,1399.88L14333.6,1399.87L14333.7,1399.86L14333.8,1399.85L14334,1399.85L14334.1,1399.85L14334.3,1399.85L14510.4,1399.85L14510.5,1399.85ZM14334.3,1409.42L14334.3,1409.42L14334.3,1409.42L14510.3,1409.42L14510.3,1409.42L14510.3,1409.42L14334.3,1409.42Z" style="fill:rgb(153,0,0);"/>
                                    </g>
                                    <g transform="matrix(1.13568,0,0,1.30499,-1959.2,-643.08)">
                                        <path d="M14521.4,1409.42C14521.4,1404.14 14516.5,1399.85 14510.4,1399.85L14334.3,1399.85C14328.2,1399.85 14323.3,1404.14 14323.3,1409.42C14323.3,1414.71 14328.2,1419 14334.3,1419L14510.4,1419C14516.5,1419 14521.4,1414.71 14521.4,1409.42Z" style="fill:rgb(153,0,0);"/>
                                        <path d="M14510.5,1399.85L14510.7,1399.85L14510.8,1399.85L14510.9,1399.86L14511.1,1399.87L14511.2,1399.88L14511.4,1399.88L14511.5,1399.9L14511.6,1399.91L14511.8,1399.92L14511.9,1399.94L14512.1,1399.96L14512.2,1399.98L14512.3,1400L14512.5,1400.02L14512.6,1400.04L14512.7,1400.07L14512.9,1400.09L14513,1400.12L14513.1,1400.15L14513.3,1400.18L14513.4,1400.21L14513.5,1400.24L14513.6,1400.28L14513.8,1400.31L14513.9,1400.35L14514,1400.39L14514.2,1400.43L14514.3,1400.47L14514.4,1400.51L14514.5,1400.56L14514.7,1400.6L14514.8,1400.65L14514.9,1400.69L14515,1400.74L14515.1,1400.79L14515.3,1400.84L14515.4,1400.89L14515.5,1400.95L14515.6,1401L14515.7,1401.06L14515.9,1401.12L14516,1401.17L14516.1,1401.23L14516.2,1401.3L14516.3,1401.36L14516.4,1401.42L14516.5,1401.48L14516.6,1401.55L14516.7,1401.62L14516.9,1401.68L14517,1401.75L14517.1,1401.82L14517.2,1401.89L14517.3,1401.96L14517.4,1402.04L14517.5,1402.11L14517.6,1402.18L14517.7,1402.26L14517.8,1402.34L14517.9,1402.41L14518,1402.49L14518.1,1402.57L14518.2,1402.65L14518.2,1402.74L14518.3,1402.82L14518.4,1402.9L14518.5,1402.99L14518.6,1403.07L14518.7,1403.16L14518.8,1403.25L14518.9,1403.33L14519,1403.42L14519,1403.51L14519.1,1403.6L14519.2,1403.7L14519.3,1403.79L14519.4,1403.88L14519.4,1403.98L14519.5,1404.07L14519.6,1404.17L14519.6,1404.26L14519.7,1404.36L14519.8,1404.46L14519.9,1404.56L14519.9,1404.66L14520,1404.76L14520.1,1404.86L14520.1,1404.96L14520.2,1405.07L14520.2,1405.17L14520.3,1405.27L14520.4,1405.38L14520.4,1405.49L14520.5,1405.59L14520.5,1405.7L14520.6,1405.81L14520.6,1405.91L14520.7,1406.02L14520.7,1406.13L14520.8,1406.24L14520.8,1406.36L14520.8,1406.47L14520.9,1406.58L14520.9,1406.69L14521,1406.8L14521,1406.92L14521,1407.03L14521.1,1407.15L14521.1,1407.26L14521.1,1407.38L14521.2,1407.5L14521.2,1407.61L14521.2,1407.73L14521.2,1407.85L14521.3,1407.97L14521.3,1408.09L14521.3,1408.21L14521.3,1408.33L14521.3,1408.45L14521.3,1408.57L14521.3,1408.69L14521.4,1408.81L14521.4,1408.93L14521.4,1409.06L14521.4,1409.18L14521.4,1409.3L14521.4,1409.42L14521.4,1409.55L14521.4,1409.67L14521.4,1409.8L14521.4,1409.92L14521.4,1410.04L14521.3,1410.16L14521.3,1410.28L14521.3,1410.4L14521.3,1410.53L14521.3,1410.64L14521.3,1410.76L14521.3,1410.88L14521.2,1411L14521.2,1411.12L14521.2,1411.24L14521.2,1411.36L14521.1,1411.47L14521.1,1411.59L14521.1,1411.7L14521,1411.82L14521,1411.93L14521,1412.05L14520.9,1412.16L14520.9,1412.27L14520.8,1412.38L14520.8,1412.5L14520.8,1412.61L14520.7,1412.72L14520.7,1412.83L14520.6,1412.94L14520.6,1413.05L14520.5,1413.15L14520.5,1413.26L14520.4,1413.37L14520.4,1413.47L14520.3,1413.58L14520.2,1413.68L14520.2,1413.78L14520.1,1413.89L14520.1,1413.99L14520,1414.09L14519.9,1414.19L14519.9,1414.29L14519.8,1414.39L14519.7,1414.49L14519.6,1414.59L14519.6,1414.68L14519.5,1414.78L14519.4,1414.87L14519.4,1414.97L14519.3,1415.06L14519.2,1415.15L14519.1,1415.25L14519,1415.34L14519,1415.43L14518.9,1415.52L14518.8,1415.61L14518.7,1415.69L14518.6,1415.78L14518.5,1415.86L14518.4,1415.95L14518.3,1416.03L14518.2,1416.12L14518.2,1416.2L14518.1,1416.28L14518,1416.36L14517.9,1416.44L14517.8,1416.51L14517.7,1416.59L14517.6,1416.67L14517.5,1416.74L14517.4,1416.82L14517.3,1416.89L14517.2,1416.96L14517.1,1417.03L14517,1417.1L14516.9,1417.17L14516.7,1417.24L14516.6,1417.3L14516.5,1417.37L14516.4,1417.43L14516.3,1417.49L14516.2,1417.56L14516.1,1417.62L14516,1417.68L14515.9,1417.73L14515.7,1417.79L14515.6,1417.85L14515.5,1417.9L14515.4,1417.95L14515.3,1418.01L14515.1,1418.06L14515,1418.11L14514.9,1418.16L14514.8,1418.2L14514.7,1418.25L14514.5,1418.3L14514.4,1418.34L14514.3,1418.38L14514.2,1418.42L14514,1418.46L14513.9,1418.5L14513.8,1418.54L14513.6,1418.57L14513.5,1418.61L14513.4,1418.64L14513.3,1418.67L14513.1,1418.7L14513,1418.73L14512.9,1418.76L14512.7,1418.79L14512.6,1418.81L14512.5,1418.83L14512.3,1418.85L14512.2,1418.88L14512.1,1418.89L14511.9,1418.91L14511.8,1418.93L14511.6,1418.94L14511.5,1418.95L14511.4,1418.97L14511.2,1418.98L14511.1,1418.98L14510.9,1418.99L14510.8,1419L14510.7,1419L14510.5,1419L14510.4,1419L14334.3,1419L14334.1,1419L14334,1419L14333.8,1419L14333.7,1418.99L14333.6,1418.98L14333.4,1418.98L14333.3,1418.97L14333.1,1418.95L14333,1418.94L14332.9,1418.93L14332.7,1418.91L14332.6,1418.89L14332.5,1418.88L14332.3,1418.85L14332.2,1418.83L14332.1,1418.81L14331.9,1418.79L14331.8,1418.76L14331.7,1418.73L14331.5,1418.7L14331.4,1418.67L14331.3,1418.64L14331.1,1418.61L14331,1418.57L14330.9,1418.54L14330.7,1418.5L14330.6,1418.46L14330.5,1418.42L14330.4,1418.38L14330.2,1418.34L14330.1,1418.3L14330,1418.25L14329.9,1418.2L14329.7,1418.16L14329.6,1418.11L14329.5,1418.06L14329.4,1418.01L14329.3,1417.95L14329.1,1417.9L14329,1417.85L14328.9,1417.79L14328.8,1417.73L14328.7,1417.68L14328.6,1417.62L14328.5,1417.56L14328.3,1417.49L14328.2,1417.43L14328.1,1417.37L14328,1417.3L14327.9,1417.24L14327.8,1417.17L14327.7,1417.1L14327.6,1417.03L14327.5,1416.96L14327.4,1416.89L14327.3,1416.82L14327.2,1416.74L14327.1,1416.67L14327,1416.59L14326.9,1416.51L14326.8,1416.44L14326.7,1416.36L14326.6,1416.28L14326.5,1416.2L14326.4,1416.12L14326.3,1416.03L14326.2,1415.95L14326.1,1415.86L14326,1415.78L14325.9,1415.69L14325.9,1415.61L14325.8,1415.52L14325.7,1415.43L14325.6,1415.34L14325.5,1415.25L14325.5,1415.15L14325.4,1415.06L14325.3,1414.97L14325.2,1414.87L14325.1,1414.78L14325.1,1414.68L14325,1414.59L14324.9,1414.49L14324.9,1414.39L14324.8,1414.29L14324.7,1414.19L14324.7,1414.09L14324.6,1413.99L14324.5,1413.89L14324.5,1413.78L14324.4,1413.68L14324.3,1413.58L14324.3,1413.47L14324.2,1413.37L14324.2,1413.26L14324.1,1413.15L14324.1,1413.05L14324,1412.94L14324,1412.83L14323.9,1412.72L14323.9,1412.61L14323.8,1412.5L14323.8,1412.38L14323.8,1412.27L14323.7,1412.16L14323.7,1412.05L14323.6,1411.93L14323.6,1411.82L14323.6,1411.7L14323.5,1411.59L14323.5,1411.47L14323.5,1411.36L14323.5,1411.24L14323.4,1411.12L14323.4,1411L14323.4,1410.88L14323.4,1410.76L14323.4,1410.64L14323.3,1410.53L14323.3,1410.4L14323.3,1410.28L14323.3,1410.16L14323.3,1410.04L14323.3,1409.92L14323.3,1409.8L14323.3,1409.67L14323.3,1409.55L14323.3,1409.42L14323.3,1409.3L14323.3,1409.18L14323.3,1409.06L14323.3,1408.93L14323.3,1408.81L14323.3,1408.69L14323.3,1408.57L14323.3,1408.45L14323.3,1408.33L14323.4,1408.21L14323.4,1408.09L14323.4,1407.97L14323.4,1407.85L14323.4,1407.73L14323.5,1407.61L14323.5,1407.5L14323.5,1407.38L14323.5,1407.26L14323.6,1407.15L14323.6,1407.03L14323.6,1406.92L14323.7,1406.8L14323.7,1406.69L14323.8,1406.58L14323.8,1406.47L14323.8,1406.36L14323.9,1406.24L14323.9,1406.13L14324,1406.02L14324,1405.91L14324.1,1405.81L14324.1,1405.7L14324.2,1405.59L14324.2,1405.49L14324.3,1405.38L14324.3,1405.27L14324.4,1405.17L14324.5,1405.07L14324.5,1404.96L14324.6,1404.86L14324.7,1404.76L14324.7,1404.66L14324.8,1404.56L14324.9,1404.46L14324.9,1404.36L14325,1404.26L14325.1,1404.17L14325.1,1404.07L14325.2,1403.98L14325.3,1403.88L14325.4,1403.79L14325.5,1403.7L14325.5,1403.6L14325.6,1403.51L14325.7,1403.42L14325.8,1403.33L14325.9,1403.25L14325.9,1403.16L14326,1403.07L14326.1,1402.99L14326.2,1402.9L14326.3,1402.82L14326.4,1402.74L14326.5,1402.65L14326.6,1402.57L14326.7,1402.49L14326.8,1402.41L14326.9,1402.34L14327,1402.26L14327.1,1402.18L14327.2,1402.11L14327.3,1402.04L14327.4,1401.96L14327.5,1401.89L14327.6,1401.82L14327.7,1401.75L14327.8,1401.68L14327.9,1401.62L14328,1401.55L14328.1,1401.48L14328.2,1401.42L14328.3,1401.36L14328.5,1401.3L14328.6,1401.23L14328.7,1401.17L14328.8,1401.12L14328.9,1401.06L14329,1401L14329.1,1400.95L14329.3,1400.89L14329.4,1400.84L14329.5,1400.79L14329.6,1400.74L14329.7,1400.69L14329.9,1400.65L14330,1400.6L14330.1,1400.56L14330.2,1400.51L14330.4,1400.47L14330.5,1400.43L14330.6,1400.39L14330.7,1400.35L14330.9,1400.31L14331,1400.28L14331.1,1400.24L14331.3,1400.21L14331.4,1400.18L14331.5,1400.15L14331.7,1400.12L14331.8,1400.09L14331.9,1400.07L14332.1,1400.04L14332.2,1400.02L14332.3,1400L14332.5,1399.98L14332.6,1399.96L14332.7,1399.94L14332.9,1399.92L14333,1399.91L14333.1,1399.9L14333.3,1399.88L14333.4,1399.88L14333.6,1399.87L14333.7,1399.86L14333.8,1399.85L14334,1399.85L14334.1,1399.85L14334.3,1399.85L14510.4,1399.85L14510.5,1399.85ZM14334.3,1409.42L14334.3,1409.42L14510.3,1409.42L14510.3,1409.42L14334.3,1409.42Z" style="fill:rgb(153,0,0);"/>
                                    </g>
                                    <g transform="matrix(1.13568,0,0,1.30499,-1959.2,-693.08)">
                                        <path d="M14521.4,1409.42C14521.4,1404.14 14516.5,1399.85 14510.4,1399.85L14334.3,1399.85C14328.2,1399.85 14323.3,1404.14 14323.3,1409.42C14323.3,1414.71 14328.2,1419 14334.3,1419L14510.4,1419C14516.5,1419 14521.4,1414.71 14521.4,1409.42Z" style="fill:rgb(153,0,0);"/>
                                        <path d="M14510.5,1399.85L14510.7,1399.85L14510.8,1399.85L14510.9,1399.86L14511.1,1399.87L14511.2,1399.88L14511.4,1399.88L14511.5,1399.9L14511.6,1399.91L14511.8,1399.92L14511.9,1399.94L14512.1,1399.96L14512.2,1399.98L14512.3,1400L14512.5,1400.02L14512.6,1400.04L14512.7,1400.07L14512.9,1400.09L14513,1400.12L14513.1,1400.15L14513.3,1400.18L14513.4,1400.21L14513.5,1400.24L14513.6,1400.28L14513.8,1400.31L14513.9,1400.35L14514,1400.39L14514.2,1400.43L14514.3,1400.47L14514.4,1400.51L14514.5,1400.56L14514.7,1400.6L14514.8,1400.65L14514.9,1400.69L14515,1400.74L14515.1,1400.79L14515.3,1400.84L14515.4,1400.89L14515.5,1400.95L14515.6,1401L14515.7,1401.06L14515.9,1401.12L14516,1401.17L14516.1,1401.23L14516.2,1401.3L14516.3,1401.36L14516.4,1401.42L14516.5,1401.48L14516.6,1401.55L14516.7,1401.62L14516.9,1401.68L14517,1401.75L14517.1,1401.82L14517.2,1401.89L14517.3,1401.96L14517.4,1402.04L14517.5,1402.11L14517.6,1402.18L14517.7,1402.26L14517.8,1402.34L14517.9,1402.41L14518,1402.49L14518.1,1402.57L14518.2,1402.65L14518.2,1402.74L14518.3,1402.82L14518.4,1402.9L14518.5,1402.99L14518.6,1403.07L14518.7,1403.16L14518.8,1403.25L14518.9,1403.33L14519,1403.42L14519,1403.51L14519.1,1403.6L14519.2,1403.7L14519.3,1403.79L14519.4,1403.88L14519.4,1403.98L14519.5,1404.07L14519.6,1404.17L14519.6,1404.26L14519.7,1404.36L14519.8,1404.46L14519.9,1404.56L14519.9,1404.66L14520,1404.76L14520.1,1404.86L14520.1,1404.96L14520.2,1405.07L14520.2,1405.17L14520.3,1405.27L14520.4,1405.38L14520.4,1405.49L14520.5,1405.59L14520.5,1405.7L14520.6,1405.81L14520.6,1405.91L14520.7,1406.02L14520.7,1406.13L14520.8,1406.24L14520.8,1406.36L14520.8,1406.47L14520.9,1406.58L14520.9,1406.69L14521,1406.8L14521,1406.92L14521,1407.03L14521.1,1407.15L14521.1,1407.26L14521.1,1407.38L14521.2,1407.5L14521.2,1407.61L14521.2,1407.73L14521.2,1407.85L14521.3,1407.97L14521.3,1408.09L14521.3,1408.21L14521.3,1408.33L14521.3,1408.45L14521.3,1408.57L14521.3,1408.69L14521.4,1408.81L14521.4,1408.93L14521.4,1409.06L14521.4,1409.18L14521.4,1409.3L14521.4,1409.42L14521.4,1409.55L14521.4,1409.67L14521.4,1409.8L14521.4,1409.92L14521.4,1410.04L14521.3,1410.16L14521.3,1410.28L14521.3,1410.4L14521.3,1410.53L14521.3,1410.64L14521.3,1410.76L14521.3,1410.88L14521.2,1411L14521.2,1411.12L14521.2,1411.24L14521.2,1411.36L14521.1,1411.47L14521.1,1411.59L14521.1,1411.7L14521,1411.82L14521,1411.93L14521,1412.05L14520.9,1412.16L14520.9,1412.27L14520.8,1412.38L14520.8,1412.5L14520.8,1412.61L14520.7,1412.72L14520.7,1412.83L14520.6,1412.94L14520.6,1413.05L14520.5,1413.15L14520.5,1413.26L14520.4,1413.37L14520.4,1413.47L14520.3,1413.58L14520.2,1413.68L14520.2,1413.78L14520.1,1413.89L14520.1,1413.99L14520,1414.09L14519.9,1414.19L14519.9,1414.29L14519.8,1414.39L14519.7,1414.49L14519.6,1414.59L14519.6,1414.68L14519.5,1414.78L14519.4,1414.87L14519.4,1414.97L14519.3,1415.06L14519.2,1415.15L14519.1,1415.25L14519,1415.34L14519,1415.43L14518.9,1415.52L14518.8,1415.61L14518.7,1415.69L14518.6,1415.78L14518.5,1415.86L14518.4,1415.95L14518.3,1416.03L14518.2,1416.12L14518.2,1416.2L14518.1,1416.28L14518,1416.36L14517.9,1416.44L14517.8,1416.51L14517.7,1416.59L14517.6,1416.67L14517.5,1416.74L14517.4,1416.82L14517.3,1416.89L14517.2,1416.96L14517.1,1417.03L14517,1417.1L14516.9,1417.17L14516.7,1417.24L14516.6,1417.3L14516.5,1417.37L14516.4,1417.43L14516.3,1417.49L14516.2,1417.56L14516.1,1417.62L14516,1417.68L14515.9,1417.73L14515.7,1417.79L14515.6,1417.85L14515.5,1417.9L14515.4,1417.95L14515.3,1418.01L14515.1,1418.06L14515,1418.11L14514.9,1418.16L14514.8,1418.2L14514.7,1418.25L14514.5,1418.3L14514.4,1418.34L14514.3,1418.38L14514.2,1418.42L14514,1418.46L14513.9,1418.5L14513.8,1418.54L14513.6,1418.57L14513.5,1418.61L14513.4,1418.64L14513.3,1418.67L14513.1,1418.7L14513,1418.73L14512.9,1418.76L14512.7,1418.79L14512.6,1418.81L14512.5,1418.83L14512.3,1418.85L14512.2,1418.88L14512.1,1418.89L14511.9,1418.91L14511.8,1418.93L14511.6,1418.94L14511.5,1418.95L14511.4,1418.97L14511.2,1418.98L14511.1,1418.98L14510.9,1418.99L14510.8,1419L14510.7,1419L14510.5,1419L14510.4,1419L14334.3,1419L14334.1,1419L14334,1419L14333.8,1419L14333.7,1418.99L14333.6,1418.98L14333.4,1418.98L14333.3,1418.97L14333.1,1418.95L14333,1418.94L14332.9,1418.93L14332.7,1418.91L14332.6,1418.89L14332.5,1418.88L14332.3,1418.85L14332.2,1418.83L14332.1,1418.81L14331.9,1418.79L14331.8,1418.76L14331.7,1418.73L14331.5,1418.7L14331.4,1418.67L14331.3,1418.64L14331.1,1418.61L14331,1418.57L14330.9,1418.54L14330.7,1418.5L14330.6,1418.46L14330.5,1418.42L14330.4,1418.38L14330.2,1418.34L14330.1,1418.3L14330,1418.25L14329.9,1418.2L14329.7,1418.16L14329.6,1418.11L14329.5,1418.06L14329.4,1418.01L14329.3,1417.95L14329.1,1417.9L14329,1417.85L14328.9,1417.79L14328.8,1417.73L14328.7,1417.68L14328.6,1417.62L14328.5,1417.56L14328.3,1417.49L14328.2,1417.43L14328.1,1417.37L14328,1417.3L14327.9,1417.24L14327.8,1417.17L14327.7,1417.1L14327.6,1417.03L14327.5,1416.96L14327.4,1416.89L14327.3,1416.82L14327.2,1416.74L14327.1,1416.67L14327,1416.59L14326.9,1416.51L14326.8,1416.44L14326.7,1416.36L14326.6,1416.28L14326.5,1416.2L14326.4,1416.12L14326.3,1416.03L14326.2,1415.95L14326.1,1415.86L14326,1415.78L14325.9,1415.69L14325.9,1415.61L14325.8,1415.52L14325.7,1415.43L14325.6,1415.34L14325.5,1415.25L14325.5,1415.15L14325.4,1415.06L14325.3,1414.97L14325.2,1414.87L14325.1,1414.78L14325.1,1414.68L14325,1414.59L14324.9,1414.49L14324.9,1414.39L14324.8,1414.29L14324.7,1414.19L14324.7,1414.09L14324.6,1413.99L14324.5,1413.89L14324.5,1413.78L14324.4,1413.68L14324.3,1413.58L14324.3,1413.47L14324.2,1413.37L14324.2,1413.26L14324.1,1413.15L14324.1,1413.05L14324,1412.94L14324,1412.83L14323.9,1412.72L14323.9,1412.61L14323.8,1412.5L14323.8,1412.38L14323.8,1412.27L14323.7,1412.16L14323.7,1412.05L14323.6,1411.93L14323.6,1411.82L14323.6,1411.7L14323.5,1411.59L14323.5,1411.47L14323.5,1411.36L14323.5,1411.24L14323.4,1411.12L14323.4,1411L14323.4,1410.88L14323.4,1410.76L14323.4,1410.64L14323.3,1410.53L14323.3,1410.4L14323.3,1410.28L14323.3,1410.16L14323.3,1410.04L14323.3,1409.92L14323.3,1409.8L14323.3,1409.67L14323.3,1409.55L14323.3,1409.42L14323.3,1409.3L14323.3,1409.18L14323.3,1409.06L14323.3,1408.93L14323.3,1408.81L14323.3,1408.69L14323.3,1408.57L14323.3,1408.45L14323.3,1408.33L14323.4,1408.21L14323.4,1408.09L14323.4,1407.97L14323.4,1407.85L14323.4,1407.73L14323.5,1407.61L14323.5,1407.5L14323.5,1407.38L14323.5,1407.26L14323.6,1407.15L14323.6,1407.03L14323.6,1406.92L14323.7,1406.8L14323.7,1406.69L14323.8,1406.58L14323.8,1406.47L14323.8,1406.36L14323.9,1406.24L14323.9,1406.13L14324,1406.02L14324,1405.91L14324.1,1405.81L14324.1,1405.7L14324.2,1405.59L14324.2,1405.49L14324.3,1405.38L14324.3,1405.27L14324.4,1405.17L14324.5,1405.07L14324.5,1404.96L14324.6,1404.86L14324.7,1404.76L14324.7,1404.66L14324.8,1404.56L14324.9,1404.46L14324.9,1404.36L14325,1404.26L14325.1,1404.17L14325.1,1404.07L14325.2,1403.98L14325.3,1403.88L14325.4,1403.79L14325.5,1403.7L14325.5,1403.6L14325.6,1403.51L14325.7,1403.42L14325.8,1403.33L14325.9,1403.25L14325.9,1403.16L14326,1403.07L14326.1,1402.99L14326.2,1402.9L14326.3,1402.82L14326.4,1402.74L14326.5,1402.65L14326.6,1402.57L14326.7,1402.49L14326.8,1402.41L14326.9,1402.34L14327,1402.26L14327.1,1402.18L14327.2,1402.11L14327.3,1402.04L14327.4,1401.96L14327.5,1401.89L14327.6,1401.82L14327.7,1401.75L14327.8,1401.68L14327.9,1401.62L14328,1401.55L14328.1,1401.48L14328.2,1401.42L14328.3,1401.36L14328.5,1401.3L14328.6,1401.23L14328.7,1401.17L14328.8,1401.12L14328.9,1401.06L14329,1401L14329.1,1400.95L14329.3,1400.89L14329.4,1400.84L14329.5,1400.79L14329.6,1400.74L14329.7,1400.69L14329.9,1400.65L14330,1400.6L14330.1,1400.56L14330.2,1400.51L14330.4,1400.47L14330.5,1400.43L14330.6,1400.39L14330.7,1400.35L14330.9,1400.31L14331,1400.28L14331.1,1400.24L14331.3,1400.21L14331.4,1400.18L14331.5,1400.15L14331.7,1400.12L14331.8,1400.09L14331.9,1400.07L14332.1,1400.04L14332.2,1400.02L14332.3,1400L14332.5,1399.98L14332.6,1399.96L14332.7,1399.94L14332.9,1399.92L14333,1399.91L14333.1,1399.9L14333.3,1399.88L14333.4,1399.88L14333.6,1399.87L14333.7,1399.86L14333.8,1399.85L14334,1399.85L14334.1,1399.85L14334.3,1399.85L14510.4,1399.85L14510.5,1399.85ZM14334.3,1409.42L14334.3,1409.42L14334.3,1409.42L14510.3,1409.42L14510.3,1409.42L14510.3,1409.42L14334.3,1409.42Z" style="fill:rgb(153,0,0);"/>
                                    </g>
                                </g>
                            </g>
                        </g>
                    </g>
                </g>
            </g>
        </g>
    </g>
</svg>
