<?xml version="1.0" encoding="UTF-8" standalone="no"?>
<!DOCTYPE svg PUBLIC "-//W3C//DTD SVG 1.1//EN" "http://www.w3.org/Graphics/SVG/1.1/DTD/svg11.dtd">
<svg width="100%" height="100%" viewBox="0 0 9 9" version="1.1" xmlns="http://www.w3.org/2000/svg" xmlns:xlink="http://www.w3.org/1999/xlink" xml:space="preserve" xmlns:serif="http://www.serif.com/" style="fill-rule:evenodd;clip-rule:evenodd;stroke-linecap:round;stroke-linejoin:round;">
    <g id="J-CURVE" serif:id="J CURVE" transform="matrix(0.0174338,0,0,0.0295985,2.40542,6.51817)">
        <path d="M-102.125,75.403L-54.213,73.85L-28.08,72.814L-1.946,71.001L24.188,68.929L50.321,66.081L76.455,62.196L102.589,57.017L128.722,50.024L154.856,40.961L180.989,28.789L207.123,13.251C211.623,10.951 228.957,-3.89 233.257,-6.69C237.757,-9.69 255.09,-28.569 259.39,-32.069C263.89,-35.869 281.224,-59.363 285.524,-63.663C290.024,-68.363 307.358,-96.949 311.658,-102.249C316.158,-107.749 333.491,-141.469 337.791,-147.569L363.925,-199.103" style="fill:none;stroke:black;stroke-width:51.46px;"/>
    </g>
</svg>
