<?xml version="1.0" encoding="UTF-8" standalone="no"?>
<svg
   xmlns:dc="http://purl.org/dc/elements/1.1/"
   xmlns:cc="http://creativecommons.org/ns#"
   xmlns:rdf="http://www.w3.org/1999/02/22-rdf-syntax-ns#"
   xmlns:svg="http://www.w3.org/2000/svg"
   xmlns="http://www.w3.org/2000/svg"
   version="1.1"
   width="7.000mm"
   height="3.580mm"
   viewBox="-3.500 -1.790 7.000 3.580"
   id="svg6">
  <metadata
     id="metadata12">
    <rdf:RDF>
      <cc:Work
         rdf:about="">
        <dc:format>image/svg+xml</dc:format>
        <dc:type
           rdf:resource="http://purl.org/dc/dcmitype/StillImage" />
      </cc:Work>
    </rdf:RDF>
  </metadata>
  <defs
     id="defs10" />
  <rect
     x="-3.500"
     y="-1.790"
     width="7.000"
     height="3.580"
     fill="#faf7f0"
     stroke="#0044cc"
     stroke-width="0.250"
     rx="0.500"
     ry="0.500"
     id="rect2" />
  <g
     aria-label="0–1"
     id="text4"
     style="font-weight:bold;font-size:2.371px;font-family:'Proxima Nova';dominant-baseline:middle;text-anchor:middle;fill:#0044cc">
    <path
       d="m -1.8435081,0.06705348 c 0,0.40781201 0.201535,0.81799502 0.654396,0.81799502 0.45049001,0 0.65439602,-0.41018301 0.65439602,-0.81799502 0,-0.40781201 -0.20390601,-0.81562402 -0.65439602,-0.81562402 -0.452861,0 -0.654396,0.40781201 -0.654396,0.81562402 z m 0.96499701,0 c 0,0.29163301 -0.085356,0.51924901 -0.31060101,0.51924901 -0.227616,0 -0.312972,-0.227616 -0.312972,-0.51924901 0,-0.291633 0.085356,-0.51687801 0.312972,-0.51687801 0.22524501,0 0.31060101,0.22524501 0.31060101,0.51687801 z"
       style="font-weight:bold;font-size:2.371px;font-family:'Proxima Nova';dominant-baseline:middle;text-anchor:middle;fill:#0044cc"
       id="path14" />
    <path
       d="M -0.3850097,0.41084849 H 0.87873333 V 0.15478048 H -0.3850097 Z"
       style="font-weight:bold;font-size:2.371px;font-family:'Proxima Nova';dominant-baseline:middle;text-anchor:middle;fill:#0044cc"
       id="path16" />
    <path
       d="m 1.4305836,0.8565965 h 0.339053 v -1.58145703 h -0.294004 l -0.49791006,0.50028101 0.19205096,0.201535 0.2608101,-0.26792301 z"
       style="font-weight:bold;font-size:2.371px;font-family:'Proxima Nova';dominant-baseline:middle;text-anchor:middle;fill:#0044cc"
       id="path18" />
  </g>
</svg>
