<?xml version="1.0" encoding="UTF-8" standalone="no"?>
<svg
   xmlns:dc="http://purl.org/dc/elements/1.1/"
   xmlns:cc="http://creativecommons.org/ns#"
   xmlns:rdf="http://www.w3.org/1999/02/22-rdf-syntax-ns#"
   xmlns:svg="http://www.w3.org/2000/svg"
   xmlns="http://www.w3.org/2000/svg"
   version="1.1"
   width="7.000mm"
   height="3.580mm"
   viewBox="0 0 7.000 3.580"
   id="svg8">
  <metadata
     id="metadata14">
    <rdf:RDF>
      <cc:Work
         rdf:about="">
        <dc:format>image/svg+xml</dc:format>
        <dc:type
           rdf:resource="http://purl.org/dc/dcmitype/StillImage" />
      </cc:Work>
    </rdf:RDF>
  </metadata>
  <defs
     id="defs12" />
  <g
     transform="translate(3.5,1.79)"
     id="g6">
    <path
       id="rect2"
       style="fill:#faf7f0;stroke:#0044cc;stroke-width:0.25"
       d="m -3,-1.79 h 6 c 0.277,0 0.5,0.223 0.5,0.5 v 2.58 c 0,0.277 -0.223,0.5 -0.5,0.5 h -6 c -0.277,0 -0.5,-0.223 -0.5,-0.5 v -2.58 c 0,-0.277 0.223,-0.5 0.5,-0.5 z" />
    <g
       aria-label="±1"
       id="text4"
       style="font-weight:bold;font-size:2.371px;font-family:'Proxima Nova';dominant-baseline:middle;text-anchor:middle;fill:#0044cc">
      <path
         d="m -0.3818051,0.08365048 h 0.42440901 v -0.184938 H -0.3818051 v -0.46708701 h -0.20627701 v 0.46708701 H -1.0148621 v 0.184938 h 0.42677999 V 0.56733449 H -0.3818051 Z M -1.0148621,0.8565965 H 0.04260391 V 0.6716585 H -1.0148621 Z"
         style="font-weight:bold;font-size:2.371px;font-family:'Proxima Nova';dominant-baseline:middle;text-anchor:middle;fill:#0044cc"
         id="path17" />
      <path
         d="m 0.59008265,0.8565965 h 0.339053 v -1.58145703 h -0.294004 l -0.49791001,0.50028101 0.192051,0.201535 0.26081001,-0.26792301 z"
         style="font-weight:bold;font-size:2.371px;font-family:'Proxima Nova';dominant-baseline:middle;text-anchor:middle;fill:#0044cc"
         id="path19" />
    </g>
  </g>
</svg>
