<?xml version="1.0" encoding="UTF-8" standalone="no"?>
<svg
   xmlns:dc="http://purl.org/dc/elements/1.1/"
   xmlns:cc="http://creativecommons.org/ns#"
   xmlns:rdf="http://www.w3.org/1999/02/22-rdf-syntax-ns#"
   xmlns:svg="http://www.w3.org/2000/svg"
   xmlns="http://www.w3.org/2000/svg"
   id="svg8"
   viewBox="0 0 7.000 3.580"
   height="3.580mm"
   width="7.000mm"
   version="1.1">
  <metadata
     id="metadata14">
    <rdf:RDF>
      <cc:Work
         rdf:about="">
        <dc:format>image/svg+xml</dc:format>
        <dc:type
           rdf:resource="http://purl.org/dc/dcmitype/StillImage" />
      </cc:Work>
    </rdf:RDF>
  </metadata>
  <defs
     id="defs12" />
  <g
     id="g6"
     transform="translate(3.5,1.79)">
    <path
       d="m -3,-1.79 h 6 c 0.277,0 0.5,0.223 0.5,0.5 v 2.58 c 0,0.277 -0.223,0.5 -0.5,0.5 h -6 c -0.277,0 -0.5,-0.223 -0.5,-0.5 v -2.58 c 0,-0.277 0.223,-0.5 0.5,-0.5 z"
       style="fill:#faf7f0;stroke:#0044cc;stroke-width:0.25"
       id="rect2" />
    <g
       style="font-weight:bold;font-size:2.371px;font-family:'Proxima Nova';dominant-baseline:middle;text-anchor:middle;fill:#0044cc"
       id="text4"
       aria-label="±10">
      <path
         id="path17"
         style="font-weight:bold;font-size:2.371px;font-family:'Proxima Nova';dominant-baseline:middle;text-anchor:middle;fill:#0044cc"
         d="m -1.1157963,0.08365048 h 0.42440898 v -0.184938 H -1.1157963 v -0.46708701 h -0.206277 v 0.46708701 h -0.42678 v 0.184938 h 0.42678 v 0.48368401 h 0.206277 z m -0.633057,0.77294602 h 1.05746598 V 0.6716585 H -1.7488533 Z" />
      <path
         id="path19"
         style="font-weight:bold;font-size:2.371px;font-family:'Proxima Nova';dominant-baseline:middle;text-anchor:middle;fill:#0044cc"
         d="m -0.14390858,0.8565965 h 0.33905301 v -1.58145703 h -0.29400401 l -0.49791001,0.50028101 0.192051,0.201535 0.26081001,-0.26792301 z" />
      <path
         id="path21"
         style="font-weight:bold;font-size:2.371px;font-family:'Proxima Nova';dominant-baseline:middle;text-anchor:middle;fill:#0044cc"
         d="m 0.43024395,0.06705348 c 0,0.40781201 0.201535,0.81799502 0.65439605,0.81799502 0.45049,0 0.654396,-0.41018301 0.654396,-0.81799502 0,-0.40781201 -0.203906,-0.81562402 -0.654396,-0.81562402 -0.45286105,0 -0.65439605,0.40781201 -0.65439605,0.81562402 z m 0.96499705,0 c 0,0.29163301 -0.085356,0.51924901 -0.310601,0.51924901 -0.22761604,0 -0.31297205,-0.227616 -0.31297205,-0.51924901 0,-0.291633 0.085356,-0.51687801 0.31297205,-0.51687801 0.225245,0 0.310601,0.22524501 0.310601,0.51687801 z" />
    </g>
  </g>
</svg>
