<?xml version="1.0" encoding="UTF-8" standalone="no"?>
<svg xmlns:dc="http://purl.org/dc/elements/1.1/" xmlns:cc="http://creativecommons.org/ns#" xmlns:rdf="http://www.w3.org/1999/02/22-rdf-syntax-ns#" xmlns:svg="http://www.w3.org/2000/svg" xmlns="http://www.w3.org/2000/svg" version="1.1" width="7.250mm" height="3.830mm" viewBox="-3.625 -1.915 7.250 3.830" id="svg6">
  <metadata id="metadata12">
    <rdf:RDF>
      <cc:Work rdf:about="">
        <dc:format>image/svg+xml</dc:format>
        <dc:type rdf:resource="http://purl.org/dc/dcmitype/StillImage"/>
      </cc:Work>
    </rdf:RDF>
  </metadata>
  <defs id="defs10"/>
  <rect x="-3.500" y="-1.790" width="7.000" height="3.580" fill="#faf7f0" stroke="#0044cc" stroke-width="0.250" rx="0.500" ry="0.500" id="rect2"/>
  <g aria-label="±10" id="text4" style="font-weight:bold;font-size:2.371px;font-family:'Proxima Nova';dominant-baseline:middle;text-anchor:middle;fill:#0044cc">
    <path d="m -1.1157963,0.08365048 h 0.42440898 v -0.184938 H -1.1157963 v -0.46708701 h -0.206277 v 0.46708701 h -0.42678 v 0.184938 h 0.42678 v 0.48368401 h 0.206277 z m -0.633057,0.77294602 h 1.05746598 V 0.6716585 H -1.7488533 Z" style="font-weight:bold;font-size:2.371px;font-family:'Proxima Nova';dominant-baseline:middle;text-anchor:middle;fill:#0044cc" id="path14"/>
    <path d="m -0.14390858,0.8565965 h 0.33905301 v -1.58145703 h -0.29400401 l -0.49791001,0.50028101 0.192051,0.201535 0.26081001,-0.26792301 z" style="font-weight:bold;font-size:2.371px;font-family:'Proxima Nova';dominant-baseline:middle;text-anchor:middle;fill:#0044cc" id="path16"/>
    <path d="m 0.43024395,0.06705348 c 0,0.40781201 0.201535,0.81799502 0.65439605,0.81799502 0.45049,0 0.654396,-0.41018301 0.654396,-0.81799502 0,-0.40781201 -0.203906,-0.81562402 -0.654396,-0.81562402 -0.45286105,0 -0.65439605,0.40781201 -0.65439605,0.81562402 z m 0.96499705,0 c 0,0.29163301 -0.085356,0.51924901 -0.310601,0.51924901 -0.22761604,0 -0.31297205,-0.227616 -0.31297205,-0.51924901 0,-0.291633 0.085356,-0.51687801 0.31297205,-0.51687801 0.225245,0 0.310601,0.22524501 0.310601,0.51687801 z" style="font-weight:bold;font-size:2.371px;font-family:'Proxima Nova';dominant-baseline:middle;text-anchor:middle;fill:#0044cc" id="path18"/>
  </g>
</svg>
