<?xml version="1.0" encoding="UTF-8" standalone="no"?>
<svg
   xmlns:dc="http://purl.org/dc/elements/1.1/"
   xmlns:cc="http://creativecommons.org/ns#"
   xmlns:rdf="http://www.w3.org/1999/02/22-rdf-syntax-ns#"
   xmlns:svg="http://www.w3.org/2000/svg"
   xmlns="http://www.w3.org/2000/svg"
   id="svg8"
   viewBox="0 0 7.000 3.580"
   height="3.580mm"
   width="7.000mm"
   version="1.1">
  <metadata
     id="metadata14">
    <rdf:RDF>
      <cc:Work
         rdf:about="">
        <dc:format>image/svg+xml</dc:format>
        <dc:type
           rdf:resource="http://purl.org/dc/dcmitype/StillImage" />
      </cc:Work>
    </rdf:RDF>
  </metadata>
  <defs
     id="defs12" />
  <g
     id="g6"
     transform="translate(3.5,1.79)">
    <path
       id="rect2"
       d="m -3,-1.79 h 6 c 0.277,0 0.5,0.223 0.5,0.5 v 2.58 c 0,0.277 -0.223,0.5 -0.5,0.5 h -6 c -0.277,0 -0.5,-0.223 -0.5,-0.5 v -2.58 c 0,-0.277 0.223,-0.5 0.5,-0.5 z"
       style="fill:#0044cc;stroke:none" />
    <g
       id="text4"
       style="font-weight:bold;font-size:2.37100005px;font-family:'Proxima Nova';dominant-baseline:middle;text-anchor:middle;fill:#faf7f0"
       aria-label="0–2">
      <path
         id="path17"
         style="font-weight:bold;font-size:2.37100005px;font-family:'Proxima Nova';dominant-baseline:middle;text-anchor:middle;fill:#faf7f0"
         d="m -2.0681048,0.06705348 c 0,0.40781201 0.201535,0.81799502 0.654396,0.81799502 0.45049003,0 0.65439603,-0.41018301 0.65439603,-0.81799502 0,-0.40781201 -0.203906,-0.81562402 -0.65439603,-0.81562402 -0.452861,0 -0.654396,0.40781201 -0.654396,0.81562402 z m 0.964997,0 c 0,0.29163301 -0.085356,0.51924901 -0.310601,0.51924901 -0.227616,0 -0.312972,-0.227616 -0.312972,-0.51924901 0,-0.291633 0.085356,-0.51687801 0.312972,-0.51687801 0.225245,0 0.310601,0.22524501 0.310601,0.51687801 z" />
      <path
         id="path19"
         style="font-weight:bold;font-size:2.37100005px;font-family:'Proxima Nova';dominant-baseline:middle;text-anchor:middle;fill:#faf7f0"
         d="M -0.60960638,0.41084849 H 0.65413664 V 0.15478048 h -1.26374302 z" />
      <path
         id="path21"
         style="font-weight:bold;font-size:2.37100005px;font-family:'Proxima Nova';dominant-baseline:middle;text-anchor:middle;fill:#faf7f0"
         d="M 0.83848186,0.8565965 H 2.0287239 V 0.56022149 h -0.659138 c 0.424409,-0.298746 0.647283,-0.53347501 0.647283,-0.80376901 0,-0.31534301 -0.267923,-0.50502302 -0.604605,-0.50502302 -0.220503,0 -0.45523204,0.080614 -0.60934704,0.25843901 l 0.192051,0.22287401 C 1.1016629,-0.37869453 1.2391809,-0.44982453 1.4170059,-0.44982453 c 0.132776,0 0.258439,0.068759 0.258439,0.20627701 0,0.194422 -0.18968,0.358021 -0.83696304,0.83459201 z" />
    </g>
  </g>
</svg>
