<?xml version="1.0" encoding="UTF-8" standalone="no"?>
<svg
   xmlns:dc="http://purl.org/dc/elements/1.1/"
   xmlns:cc="http://creativecommons.org/ns#"
   xmlns:rdf="http://www.w3.org/1999/02/22-rdf-syntax-ns#"
   xmlns:svg="http://www.w3.org/2000/svg"
   xmlns="http://www.w3.org/2000/svg"
   id="svg10"
   viewBox="0 0 6.000 11.161"
   height="11.161mm"
   width="6.000mm"
   version="1.1">
  <metadata
     id="metadata16">
    <rdf:RDF>
      <cc:Work
         rdf:about="">
        <dc:format>image/svg+xml</dc:format>
        <dc:type
           rdf:resource="http://purl.org/dc/dcmitype/StillImage" />
      </cc:Work>
    </rdf:RDF>
  </metadata>
  <defs
     id="defs14" />
  <g
     id="g8"
     transform="translate(3,5.58)">
    <g
       id="g4"
       transform="translate(0,-4)">
      <g
         id="text2"
         style="font-weight:bold;font-size:2.37100005px;font-family:'Proxima Nova';dominant-baseline:alphabetic;text-anchor:middle;fill:#0044cc"
         aria-label="0–5">
        <path
           id="path18"
           style="font-weight:bold;font-size:2.37100005px;font-family:'Proxima Nova';dominant-baseline:alphabetic;text-anchor:middle;fill:#0044cc"
           d="m -2.0773665,-0.78954302 c 0,0.40781201 0.201535,0.81799502 0.654396,0.81799502 0.45049001,0 0.65439601,-0.41018301 0.65439601,-0.81799502 0,-0.40781198 -0.203906,-0.81562398 -0.65439601,-0.81562398 -0.452861,0 -0.654396,0.407812 -0.654396,0.81562398 z m 0.964997,0 c 0,0.29163301 -0.085356,0.51924901 -0.310601,0.51924901 -0.227616,0 -0.312972,-0.227616 -0.312972,-0.51924901 0,-0.29163298 0.085356,-0.51687798 0.312972,-0.51687798 0.225245,0 0.310601,0.225245 0.310601,0.51687798 z" />
        <path
           id="path20"
           style="font-weight:bold;font-size:2.37100005px;font-family:'Proxima Nova';dominant-baseline:alphabetic;text-anchor:middle;fill:#0044cc"
           d="M -0.6188681,-0.44574801 H 0.64487492 V -0.70181602 H -0.6188681 Z" />
        <path
           id="path22"
           style="font-weight:bold;font-size:2.37100005px;font-family:'Proxima Nova';dominant-baseline:alphabetic;text-anchor:middle;fill:#0044cc"
           d="m 0.83396214,-0.208648 c 0.135147,0.147002 0.33431096,0.2371 0.60934706,0.2371 0.381731,0 0.633057,-0.211019 0.633057,-0.54533001 0,-0.32008501 -0.239471,-0.50976499 -0.507394,-0.50976499 -0.144631,0 -0.272665,0.056904 -0.3556501,0.13040498 V -1.292195 H 1.9696712 V -1.581457 H 0.88375314 v 0.90335099 l 0.23472896,0.064017 c 0.09484,-0.090098 0.2015351,-0.13040501 0.3319401,-0.13040501 0.180196,0 0.28452,0.097211 0.28452,0.24184201 0,0.130405 -0.106695,0.2371 -0.294004,0.2371 -0.16597,0 -0.3129721,-0.059275 -0.4220381,-0.170712 z" />
      </g>
    </g>
    <path
       id="circle6"
       d="M 2.5,0 A 2.5,2.5 0 0 1 0,2.5 2.5,2.5 0 0 1 -2.5,0 2.5,2.5 0 0 1 0,-2.5 2.5,2.5 0 0 1 2.5,0 Z"
       style="fill:#0044cc;stroke:#0044cc;stroke-width:1" />
  </g>
</svg>
