<?xml version="1.0" encoding="UTF-8" standalone="no"?>
<svg
   xmlns:dc="http://purl.org/dc/elements/1.1/"
   xmlns:cc="http://creativecommons.org/ns#"
   xmlns:rdf="http://www.w3.org/1999/02/22-rdf-syntax-ns#"
   xmlns:svg="http://www.w3.org/2000/svg"
   xmlns="http://www.w3.org/2000/svg"
   id="svg178"
   height="379.42913385826773"
   width="135.0"
   version="1.1">
  <metadata
     id="metadata184">
    <rdf:RDF>
      <cc:Work
         rdf:about="">
        <dc:format>image/svg+xml</dc:format>
        <dc:type
           rdf:resource="http://purl.org/dc/dcmitype/StillImage" />
      </cc:Work>
    </rdf:RDF>
  </metadata>
  <defs
     id="defs182" />
  <g
     id="g176"
     transform="scale(2.9527559)">
    <path
       id="rect2"
       d="M 0,0 H 45.720001 V 128.5 H 0 Z"
       style="fill:#f0ffff;stroke:#009999;stroke-width:1" />
    <g
       id="text4"
       style="font-weight:bold;font-size:4.06400013px;font-family:'Proxima Nova';text-anchor:middle;fill:#009999"
       aria-label="BICYCLE">
      <path
         id="path187"
         style="font-weight:bold;font-size:4.06400013px;font-family:'Proxima Nova';text-anchor:middle;fill:#009999"
         d="m 15.000224,9 h 1.471168 c 0.516128,0 0.788416,-0.32512 0.788416,-0.73152 0,-0.341376 -0.231648,-0.621792 -0.520192,-0.666496 0.256032,-0.052832 0.46736,-0.2804161 0.46736,-0.6217921 0,-0.361696 -0.26416,-0.69088 -0.780288,-0.69088 h -1.426464 z m 0.577088,-1.6256001 v -0.58928 h 0.723392 c 0.195072,0 0.316992,0.125984 0.316992,0.296672 0,0.170688 -0.12192,0.292608 -0.316992,0.292608 z m 0,1.1257281 v -0.62992 h 0.743712 c 0.227584,0 0.349504,0.146304 0.349504,0.316992 0,0.195072 -0.130048,0.312928 -0.349504,0.312928 z" />
      <path
         id="path189"
         style="font-weight:bold;font-size:4.06400013px;font-family:'Proxima Nova';text-anchor:middle;fill:#009999"
         d="m 17.691037,9 h 0.577088 V 6.2893119 h -0.577088 z" />
      <path
         id="path191"
         style="font-weight:bold;font-size:4.06400013px;font-family:'Proxima Nova';text-anchor:middle;fill:#009999"
         d="m 20.114959,9.048768 c 0.597408,0 0.938784,-0.329184 1.133856,-0.666496 L 20.753007,8.142496 c -0.113792,0.22352 -0.357632,0.394208 -0.638048,0.394208 -0.491744,0 -0.849376,-0.377952 -0.849376,-0.890016 0,-0.5120641 0.357632,-0.8900161 0.849376,-0.8900161 0.280416,0 0.524256,0.174752 0.638048,0.394208 l 0.495808,-0.24384 c -0.191008,-0.337312 -0.536448,-0.662432 -1.133856,-0.662432 -0.8128,0 -1.44272,0.56896 -1.44272,1.4020801 0,0.83312 0.62992,1.40208 1.44272,1.40208 z" />
      <path
         id="path193"
         style="font-weight:bold;font-size:4.06400013px;font-family:'Proxima Nova';text-anchor:middle;fill:#009999"
         d="m 22.256941,9 h 0.577088 V 7.890528 l 1.03632,-1.6012161 h -0.658368 l -0.666496,1.089152 -0.674624,-1.089152 h -0.658368 l 1.044448,1.6012161 z" />
      <path
         id="path195"
         style="font-weight:bold;font-size:4.06400013px;font-family:'Proxima Nova';text-anchor:middle;fill:#009999"
         d="m 25.274335,9.048768 c 0.597408,0 0.938784,-0.329184 1.133856,-0.666496 L 25.912383,8.142496 c -0.113792,0.22352 -0.357632,0.394208 -0.638048,0.394208 -0.491744,0 -0.849376,-0.377952 -0.849376,-0.890016 0,-0.5120641 0.357632,-0.8900161 0.849376,-0.8900161 0.280416,0 0.524256,0.174752 0.638048,0.394208 l 0.495808,-0.24384 c -0.191008,-0.337312 -0.536448,-0.662432 -1.133856,-0.662432 -0.8128,0 -1.44272,0.56896 -1.44272,1.4020801 0,0.83312 0.62992,1.40208 1.44272,1.40208 z" />
      <path
         id="path197"
         style="font-weight:bold;font-size:4.06400013px;font-family:'Proxima Nova';text-anchor:middle;fill:#009999"
         d="m 26.755662,9 h 1.723136 V 8.492 H 27.33275 V 6.2893119 h -0.577088 z" />
      <path
         id="path199"
         style="font-weight:bold;font-size:4.06400013px;font-family:'Proxima Nova';text-anchor:middle;fill:#009999"
         d="M 28.882912,9 H 30.80112 V 8.492 H 29.46 V 7.878336 h 1.312672 V 7.3703359 H 29.46 v -0.573024 h 1.34112 v -0.508 h -1.918208 z" />
    </g>
    <g
       id="text6"
       style="font-weight:bold;font-size:4.06400013px;font-family:'Proxima Nova';dominant-baseline:hanging;text-anchor:middle;fill:#009999"
       aria-label="DHE">
      <path
         id="path202"
         style="font-weight:bold;font-size:4.06400013px;font-family:'Proxima Nova';dominant-baseline:hanging;text-anchor:middle;fill:#009999"
         d="m 18.996756,122.06845 h 1.068832 c 0.849376,0 1.438656,-0.53645 1.438656,-1.35331 0,-0.81687 -0.58928,-1.35738 -1.438656,-1.35738 h -1.068832 z m 0.577088,-0.508 v -1.69469 h 0.491744 c 0.556768,0 0.849376,0.36982 0.849376,0.84938 0,0.45923 -0.312928,0.84531 -0.849376,0.84531 z" />
      <path
         id="path204"
         style="font-weight:bold;font-size:4.06400013px;font-family:'Proxima Nova';dominant-baseline:hanging;text-anchor:middle;fill:#009999"
         d="m 23.775004,122.06845 h 0.581152 v -2.71069 h -0.581152 v 1.06477 h -1.28016 v -1.06477 h -0.577088 v 2.71069 h 0.577088 v -1.13792 h 1.28016 z" />
      <path
         id="path206"
         style="font-weight:bold;font-size:4.06400013px;font-family:'Proxima Nova';dominant-baseline:hanging;text-anchor:middle;fill:#009999"
         d="m 24.886381,122.06845 h 1.918208 v -0.508 h -1.34112 v -0.61367 h 1.312672 v -0.508 h -1.312672 v -0.57302 h 1.34112 v -0.508 h -1.918208 z" />
    </g>
    <g
       id="text8"
       style="font-weight:bold;font-size:2.37066674px;font-family:'Proxima Nova';text-anchor:middle;fill:#009999"
       aria-label="CV">
      <path
         id="path209"
         style="font-weight:bold;font-size:2.37066674px;font-family:'Proxima Nova';text-anchor:middle;fill:#009999"
         d="m 7.2549493,19.828447 c 0.348488,0 0.547624,-0.192024 0.661416,-0.388789 L 7.627144,19.299789 c -0.066379,0.130386 -0.2086187,0.229954 -0.3721947,0.229954 -0.2868507,0 -0.4954694,-0.220472 -0.4954694,-0.519176 0,-0.298704 0.2086187,-0.519176 0.4954694,-0.519176 0.163576,0 0.305816,0.101939 0.3721947,0.229955 l 0.2892213,-0.14224 c -0.1114213,-0.196765 -0.312928,-0.386419 -0.661416,-0.386419 -0.4741334,0 -0.8415867,0.331894 -0.8415867,0.81788 0,0.485987 0.3674533,0.81788 0.8415867,0.81788 z" />
      <path
         id="path211"
         style="font-weight:bold;font-size:2.37066674px;font-family:'Proxima Nova';text-anchor:middle;fill:#009999"
         d="M 8.5531115,19.799999 H 8.9750902 L 9.5843516,18.218765 H 9.2003036 L 8.7641009,19.434917 8.3255275,18.218765 h -0.384048 z" />
    </g>
    <g
       style="fill:#f0ffff;stroke:#009999;stroke-width:0.20999999"
       id="g16"
       transform="translate(7.953333,25)">
      <path
         id="circle10"
         d="M 4.0949998,0 A 4.0949998,4.0949998 0 0 1 0,4.0949998 4.0949998,4.0949998 0 0 1 -4.0949998,0 4.0949998,4.0949998 0 0 1 0,-4.0949998 4.0949998,4.0949998 0 0 1 4.0949998,0 Z"
         style="" />
      <path
         id="circle12"
         d="M 2.925,0 A 2.925,2.925 0 0 1 0,2.925 2.925,2.925 0 0 1 -2.925,0 2.925,2.925 0 0 1 0,-2.925 2.925,2.925 0 0 1 2.925,0 Z"
         style="" />
      <path
         id="circle14"
         d="M 1.755,0 A 1.755,1.755 0 0 1 0,1.755 1.755,1.755 0 0 1 -1.755,0 1.755,1.755 0 0 1 0,-1.755 1.755,1.755 0 0 1 1.755,0 Z"
         style="fill:#009999" />
    </g>
    <g
       id="text18"
       style="font-weight:bold;font-size:3.0480001px;font-family:'Proxima Nova';text-anchor:middle;fill:#009999"
       aria-label="RING">
      <path
         id="path217"
         style="font-weight:bold;font-size:3.0480001px;font-family:'Proxima Nova';text-anchor:middle;fill:#009999"
         d="m 35.512313,19.799999 h 0.496824 l -0.4572,-0.774192 c 0.219456,-0.05182 0.445008,-0.24384 0.445008,-0.603504 0,-0.377952 -0.25908,-0.65532 -0.682752,-0.65532 h -0.950976 v 2.033016 h 0.432816 v -0.722376 h 0.316992 z m 0.04267,-1.377696 c 0,0.170688 -0.131064,0.27432 -0.3048,0.27432 h -0.454152 v -0.54864 h 0.454152 c 0.173736,0 0.3048,0.103632 0.3048,0.27432 z" />
      <path
         id="path219"
         style="font-weight:bold;font-size:3.0480001px;font-family:'Proxima Nova';text-anchor:middle;fill:#009999"
         d="m 36.321795,19.799999 h 0.432816 v -2.033016 h -0.432816 z" />
      <path
         id="path221"
         style="font-weight:bold;font-size:3.0480001px;font-family:'Proxima Nova';text-anchor:middle;fill:#009999"
         d="m 38.557313,19.799999 h 0.417576 v -2.033016 h -0.432816 v 1.277112 l -0.941832,-1.277112 h -0.445008 v 2.033016 h 0.432816 v -1.32588 z" />
      <path
         id="path223"
         style="font-weight:bold;font-size:3.0480001px;font-family:'Proxima Nova';text-anchor:middle;fill:#009999"
         d="m 39.278212,18.785015 c 0,0.64008 0.48768,1.054608 1.08204,1.054608 0.368808,0 0.658368,-0.1524 0.865632,-0.384048 V 18.675287 H 40.25662 v 0.377952 h 0.536448 v 0.24384 c -0.0823,0.0762 -0.252984,0.155448 -0.432816,0.155448 -0.368808,0 -0.637032,-0.283464 -0.637032,-0.667512 0,-0.384048 0.268224,-0.667512 0.637032,-0.667512 0.216408,0 0.390144,0.12192 0.481584,0.265176 L 41.2015,18.187607 c -0.1524,-0.240792 -0.417576,-0.454152 -0.841248,-0.454152 -0.59436,0 -1.08204,0.408432 -1.08204,1.05156 z" />
    </g>
    <g
       style="fill:#009999;stroke:#f0ffff"
       id="g24"
       transform="translate(37.766667,25)">
      <path
         id="circle20"
         d="M 4.1999998,0 A 4.1999998,4.1999998 0 0 1 0,4.1999998 4.1999998,4.1999998 0 0 1 -4.1999998,0 4.1999998,4.1999998 0 0 1 0,-4.1999998 4.1999998,4.1999998 0 0 1 4.1999998,0 Z"
         style="stroke:none" />
      <path
         id="line22"
         d="M 0,0 V -3.675"
         style="stroke-width:0.52499998;stroke-linecap:round" />
    </g>
    <g
       id="text26"
       style="font-weight:bold;font-size:2.37066674px;font-family:'Proxima Nova';text-anchor:middle;fill:#009999"
       aria-label="CV">
      <path
         id="path228"
         style="font-weight:bold;font-size:2.37066674px;font-family:'Proxima Nova';text-anchor:middle;fill:#009999"
         d="m 7.2549493,38.328447 c 0.348488,0 0.547624,-0.192024 0.661416,-0.388789 L 7.627144,37.799789 c -0.066379,0.130386 -0.2086187,0.229954 -0.3721947,0.229954 -0.2868507,0 -0.4954694,-0.220472 -0.4954694,-0.519176 0,-0.298704 0.2086187,-0.519176 0.4954694,-0.519176 0.163576,0 0.305816,0.101939 0.3721947,0.229955 l 0.2892213,-0.14224 c -0.1114213,-0.196765 -0.312928,-0.386419 -0.661416,-0.386419 -0.4741334,0 -0.8415867,0.331894 -0.8415867,0.81788 0,0.485987 0.3674533,0.81788 0.8415867,0.81788 z" />
      <path
         id="path230"
         style="font-weight:bold;font-size:2.37066674px;font-family:'Proxima Nova';text-anchor:middle;fill:#009999"
         d="M 8.5531115,38.299999 H 8.9750902 L 9.5843516,36.718765 H 9.2003036 L 8.7641009,37.934917 8.3255275,36.718765 h -0.384048 z" />
    </g>
    <g
       style="fill:#f0ffff;stroke:#009999;stroke-width:0.20999999"
       id="g34"
       transform="translate(7.953333,43.5)">
      <path
         id="circle28"
         d="M 4.0949998,0 A 4.0949998,4.0949998 0 0 1 0,4.0949998 4.0949998,4.0949998 0 0 1 -4.0949998,0 4.0949998,4.0949998 0 0 1 0,-4.0949998 4.0949998,4.0949998 0 0 1 4.0949998,0 Z"
         style="" />
      <path
         id="circle30"
         d="M 2.925,0 A 2.925,2.925 0 0 1 0,2.925 2.925,2.925 0 0 1 -2.925,0 2.925,2.925 0 0 1 0,-2.925 2.925,2.925 0 0 1 2.925,0 Z"
         style="" />
      <path
         id="circle32"
         d="M 1.755,0 A 1.755,1.755 0 0 1 0,1.755 1.755,1.755 0 0 1 -1.755,0 1.755,1.755 0 0 1 0,-1.755 1.755,1.755 0 0 1 1.755,0 Z"
         style="fill:#009999" />
    </g>
    <g
       id="text36"
       style="font-weight:bold;font-size:3.0480001px;font-family:'Proxima Nova';text-anchor:middle;fill:#009999"
       aria-label="ROLLER">
      <path
         id="path236"
         style="font-weight:bold;font-size:3.0480001px;font-family:'Proxima Nova';text-anchor:middle;fill:#009999"
         d="m 33.50611,38.299999 h 0.496824 l -0.4572,-0.774192 c 0.219456,-0.05182 0.445008,-0.24384 0.445008,-0.603504 0,-0.377952 -0.25908,-0.65532 -0.682752,-0.65532 h -0.950976 v 2.033016 h 0.432816 v -0.722376 h 0.316992 z m 0.04267,-1.377696 c 0,0.170688 -0.131064,0.27432 -0.3048,0.27432 H 32.78983 v -0.54864 h 0.454152 c 0.173736,0 0.3048,0.103632 0.3048,0.27432 z" />
      <path
         id="path238"
         style="font-weight:bold;font-size:3.0480001px;font-family:'Proxima Nova';text-anchor:middle;fill:#009999"
         d="m 34.218056,37.285015 c 0,0.612648 0.448056,1.05156 1.060704,1.05156 0.615696,0 1.063752,-0.438912 1.063752,-1.05156 0,-0.612648 -0.448056,-1.05156 -1.063752,-1.05156 -0.612648,0 -1.060704,0.438912 -1.060704,1.05156 z m 1.679448,0 c 0,0.377952 -0.24384,0.667512 -0.618744,0.667512 -0.374904,0 -0.615696,-0.28956 -0.615696,-0.667512 0,-0.381 0.240792,-0.667512 0.615696,-0.667512 0.374904,0 0.618744,0.286512 0.618744,0.667512 z" />
      <path
         id="path240"
         style="font-weight:bold;font-size:3.0480001px;font-family:'Proxima Nova';text-anchor:middle;fill:#009999"
         d="m 36.649217,38.299999 h 1.292352 v -0.381 h -0.859536 v -1.652016 h -0.432816 z" />
      <path
         id="path242"
         style="font-weight:bold;font-size:3.0480001px;font-family:'Proxima Nova';text-anchor:middle;fill:#009999"
         d="m 38.244655,38.299999 h 1.292352 v -0.381 h -0.859536 v -1.652016 h -0.432816 z" />
      <path
         id="path244"
         style="font-weight:bold;font-size:3.0480001px;font-family:'Proxima Nova';text-anchor:middle;fill:#009999"
         d="m 39.840092,38.299999 h 1.438656 v -0.381 h -1.00584 v -0.460248 h 0.984504 v -0.381 h -0.984504 v -0.429768 h 1.00584 v -0.381 h -1.438656 z" />
      <path
         id="path246"
         style="font-weight:bold;font-size:3.0480001px;font-family:'Proxima Nova';text-anchor:middle;fill:#009999"
         d="m 42.769172,38.299999 h 0.496824 l -0.4572,-0.774192 c 0.219456,-0.05182 0.445008,-0.24384 0.445008,-0.603504 0,-0.377952 -0.25908,-0.65532 -0.682752,-0.65532 h -0.950976 v 2.033016 h 0.432816 v -0.722376 h 0.316992 z m 0.04267,-1.377696 c 0,0.170688 -0.131064,0.27432 -0.3048,0.27432 h -0.454152 v -0.54864 h 0.454152 c 0.173736,0 0.3048,0.103632 0.3048,0.27432 z" />
    </g>
    <g
       style="fill:#009999;stroke:#f0ffff"
       id="g42"
       transform="translate(37.766667,43.5)">
      <path
         id="circle38"
         d="M 4.1999998,0 A 4.1999998,4.1999998 0 0 1 0,4.1999998 4.1999998,4.1999998 0 0 1 -4.1999998,0 4.1999998,4.1999998 0 0 1 0,-4.1999998 4.1999998,4.1999998 0 0 1 4.1999998,0 Z"
         style="stroke:none" />
      <path
         id="line40"
         d="M 0,0 V -3.675"
         style="stroke-width:0.52499998;stroke-linecap:round" />
    </g>
    <g
       id="text44"
       style="font-weight:bold;font-size:2.37066674px;font-family:'Proxima Nova';text-anchor:middle;fill:#009999"
       aria-label="CV">
      <path
         id="path251"
         style="font-weight:bold;font-size:2.37066674px;font-family:'Proxima Nova';text-anchor:middle;fill:#009999"
         d="m 7.2549493,56.828447 c 0.348488,0 0.547624,-0.192024 0.661416,-0.388789 L 7.627144,56.299789 c -0.066379,0.130386 -0.2086187,0.229954 -0.3721947,0.229954 -0.2868507,0 -0.4954694,-0.220472 -0.4954694,-0.519176 0,-0.298704 0.2086187,-0.519176 0.4954694,-0.519176 0.163576,0 0.305816,0.101939 0.3721947,0.229955 l 0.2892213,-0.14224 c -0.1114213,-0.196765 -0.312928,-0.386419 -0.661416,-0.386419 -0.4741334,0 -0.8415867,0.331894 -0.8415867,0.81788 0,0.485987 0.3674533,0.81788 0.8415867,0.81788 z" />
      <path
         id="path253"
         style="font-weight:bold;font-size:2.37066674px;font-family:'Proxima Nova';text-anchor:middle;fill:#009999"
         d="M 8.5531115,56.799999 H 8.9750902 L 9.5843516,55.218765 H 9.2003036 L 8.7641009,56.434917 8.3255275,55.218765 h -0.384048 z" />
    </g>
    <g
       style="fill:#f0ffff;stroke:#009999;stroke-width:0.20999999"
       id="g52"
       transform="translate(7.953333,62)">
      <path
         id="circle46"
         d="M 4.0949998,0 A 4.0949998,4.0949998 0 0 1 0,4.0949998 4.0949998,4.0949998 0 0 1 -4.0949998,0 4.0949998,4.0949998 0 0 1 0,-4.0949998 4.0949998,4.0949998 0 0 1 4.0949998,0 Z"
         style="" />
      <path
         id="circle48"
         d="M 2.925,0 A 2.925,2.925 0 0 1 0,2.925 2.925,2.925 0 0 1 -2.925,0 2.925,2.925 0 0 1 0,-2.925 2.925,2.925 0 0 1 2.925,0 Z"
         style="" />
      <path
         id="circle50"
         d="M 1.755,0 A 1.755,1.755 0 0 1 0,1.755 1.755,1.755 0 0 1 -1.755,0 1.755,1.755 0 0 1 0,-1.755 1.755,1.755 0 0 1 1.755,0 Z"
         style="fill:#009999" />
    </g>
    <g
       id="text54"
       style="font-weight:bold;font-size:3.0480001px;font-family:'Proxima Nova';text-anchor:middle;fill:#009999"
       aria-label="ARM">
      <path
         id="path259"
         style="font-weight:bold;font-size:3.0480001px;font-family:'Proxima Nova';text-anchor:middle;fill:#009999"
         d="M 36.045094,56.799999 H 36.53887 L 35.755534,54.766983 H 35.21299 l -0.786384,2.033016 h 0.493776 l 0.128016,-0.344424 h 0.871728 z m -0.560832,-1.6002 0.316992,0.874776 H 35.16727 Z" />
      <path
         id="path261"
         style="font-weight:bold;font-size:3.0480001px;font-family:'Proxima Nova';text-anchor:middle;fill:#009999"
         d="m 37.875704,56.799999 h 0.496824 l -0.4572,-0.774192 c 0.219456,-0.05182 0.445008,-0.24384 0.445008,-0.603504 0,-0.377952 -0.25908,-0.65532 -0.682752,-0.65532 h -0.950976 v 2.033016 h 0.432816 v -0.722376 h 0.316992 z m 0.04267,-1.377696 c 0,0.170688 -0.131064,0.27432 -0.3048,0.27432 h -0.454152 v -0.54864 h 0.454152 c 0.173736,0 0.3048,0.103632 0.3048,0.27432 z" />
      <path
         id="path263"
         style="font-weight:bold;font-size:3.0480001px;font-family:'Proxima Nova';text-anchor:middle;fill:#009999"
         d="m 40.453026,56.799999 h 0.435864 v -2.033016 h -0.6096 l -0.493776,1.228344 -0.493776,-1.228344 h -0.606552 v 2.033016 h 0.432816 v -1.423416 l 0.573024,1.423416 h 0.188976 l 0.573024,-1.423416 z" />
    </g>
    <g
       style="fill:#009999;stroke:#f0ffff"
       id="g60"
       transform="translate(37.766667,62)">
      <path
         id="circle56"
         d="M 4.1999998,0 A 4.1999998,4.1999998 0 0 1 0,4.1999998 4.1999998,4.1999998 0 0 1 -4.1999998,0 4.1999998,4.1999998 0 0 1 0,-4.1999998 4.1999998,4.1999998 0 0 1 4.1999998,0 Z"
         style="stroke:none" />
      <path
         id="line58"
         d="M 0,0 V -3.675"
         style="stroke-width:0.52499998;stroke-linecap:round" />
    </g>
    <g
       id="text62"
       style="font-weight:bold;font-size:2.37066674px;font-family:'Proxima Nova';text-anchor:middle;fill:#009999"
       aria-label="CV">
      <path
         id="path268"
         style="font-weight:bold;font-size:2.37066674px;font-family:'Proxima Nova';text-anchor:middle;fill:#009999"
         d="m 7.2549493,75.328451 c 0.348488,0 0.547624,-0.192024 0.661416,-0.388789 L 7.627144,74.799792 c -0.066379,0.130387 -0.2086187,0.229955 -0.3721947,0.229955 -0.2868507,0 -0.4954694,-0.220472 -0.4954694,-0.519176 0,-0.298704 0.2086187,-0.519176 0.4954694,-0.519176 0.163576,0 0.305816,0.101939 0.3721947,0.229955 l 0.2892213,-0.14224 c -0.1114213,-0.196766 -0.312928,-0.386419 -0.661416,-0.386419 -0.4741334,0 -0.8415867,0.331893 -0.8415867,0.81788 0,0.485987 0.3674533,0.81788 0.8415867,0.81788 z" />
      <path
         id="path270"
         style="font-weight:bold;font-size:2.37066674px;font-family:'Proxima Nova';text-anchor:middle;fill:#009999"
         d="M 8.5531115,75.300003 H 8.9750902 L 9.5843516,73.718768 H 9.2003036 L 8.7641009,74.93492 8.3255275,73.718768 h -0.384048 z" />
    </g>
    <g
       style="fill:#f0ffff;stroke:#009999;stroke-width:0.20999999"
       id="g70"
       transform="translate(7.953333,80.5)">
      <path
         id="circle64"
         d="M 4.0949998,0 A 4.0949998,4.0949998 0 0 1 0,4.0949998 4.0949998,4.0949998 0 0 1 -4.0949998,0 4.0949998,4.0949998 0 0 1 0,-4.0949998 4.0949998,4.0949998 0 0 1 4.0949998,0 Z"
         style="" />
      <path
         id="circle66"
         d="M 2.925,0 A 2.925,2.925 0 0 1 0,2.925 2.925,2.925 0 0 1 -2.925,0 2.925,2.925 0 0 1 0,-2.925 2.925,2.925 0 0 1 2.925,0 Z"
         style="" />
      <path
         id="circle68"
         d="M 1.755,0 A 1.755,1.755 0 0 1 0,1.755 1.755,1.755 0 0 1 -1.755,0 1.755,1.755 0 0 1 0,-1.755 1.755,1.755 0 0 1 1.755,0 Z"
         style="fill:#009999" />
    </g>
    <g
       id="text72"
       style="font-weight:bold;font-size:3.0480001px;font-family:'Proxima Nova';text-anchor:middle;fill:#009999"
       aria-label="SPEED">
      <path
         id="path276"
         style="font-weight:bold;font-size:3.0480001px;font-family:'Proxima Nova';text-anchor:middle;fill:#009999"
         d="m 33.091987,75.013491 c 0.188976,0.192024 0.469392,0.323088 0.859536,0.323088 0.54864,0 0.813816,-0.280416 0.813816,-0.652272 0,-0.460248 -0.42672,-0.560832 -0.762,-0.64008 -0.219456,-0.05182 -0.405384,-0.09449 -0.405384,-0.225552 0,-0.12192 0.103632,-0.204216 0.28956,-0.204216 0.207264,0 0.42672,0.0701 0.591312,0.222504 l 0.240792,-0.316992 c -0.201168,-0.185928 -0.469392,-0.283464 -0.79248,-0.283464 -0.478536,0 -0.771144,0.280416 -0.771144,0.618744 0,0.463296 0.42672,0.554736 0.758952,0.630936 0.222504,0.05486 0.41148,0.09754 0.41148,0.246888 0,0.115824 -0.115824,0.225552 -0.353568,0.225552 -0.280416,0 -0.50292,-0.124968 -0.646176,-0.27432 z" />
      <path
         id="path278"
         style="font-weight:bold;font-size:3.0480001px;font-family:'Proxima Nova';text-anchor:middle;fill:#009999"
         d="m 35.056756,75.300003 h 0.432816 v -0.722376 h 0.51816 c 0.438912,0 0.682752,-0.301752 0.682752,-0.65532 0,-0.356616 -0.240792,-0.65532 -0.682752,-0.65532 h -0.950976 z m 1.191768,-1.377696 c 0,0.16764 -0.128016,0.27432 -0.298704,0.27432 h -0.460248 v -0.54864 h 0.460248 c 0.170688,0 0.298704,0.103632 0.298704,0.27432 z" />
      <path
         id="path280"
         style="font-weight:bold;font-size:3.0480001px;font-family:'Proxima Nova';text-anchor:middle;fill:#009999"
         d="m 36.955803,75.300003 h 1.438656 v -0.381 h -1.00584 v -0.460248 h 0.984504 v -0.381 h -0.984504 v -0.429768 h 1.00584 v -0.381 h -1.438656 z" />
      <path
         id="path282"
         style="font-weight:bold;font-size:3.0480001px;font-family:'Proxima Nova';text-anchor:middle;fill:#009999"
         d="m 38.735788,75.300003 h 1.438656 v -0.381 h -1.00584 v -0.460248 h 0.984504 v -0.381 h -0.984504 v -0.429768 h 1.00584 v -0.381 h -1.438656 z" />
      <path
         id="path284"
         style="font-weight:bold;font-size:3.0480001px;font-family:'Proxima Nova';text-anchor:middle;fill:#009999"
         d="m 40.515772,75.300003 h 0.801624 c 0.637032,0 1.078992,-0.402336 1.078992,-1.014984 0,-0.612648 -0.44196,-1.018032 -1.078992,-1.018032 h -0.801624 z m 0.432816,-0.381 v -1.271016 h 0.368808 c 0.417576,0 0.637032,0.277368 0.637032,0.637032 0,0.344424 -0.234696,0.633984 -0.637032,0.633984 z" />
    </g>
    <g
       style="fill:#009999;stroke:#f0ffff"
       id="g78"
       transform="translate(37.766667,80.5)">
      <path
         id="circle74"
         d="M 4.1999998,0 A 4.1999998,4.1999998 0 0 1 0,4.1999998 4.1999998,4.1999998 0 0 1 -4.1999998,0 4.1999998,4.1999998 0 0 1 0,-4.1999998 4.1999998,4.1999998 0 0 1 4.1999998,0 Z"
         style="stroke:none" />
      <path
         id="line76"
         d="M 0,0 V -3.675"
         style="stroke-width:0.52499998;stroke-linecap:round" />
    </g>
    <g
       id="text80"
       style="font-weight:bold;font-size:2.37066674px;font-family:'Proxima Nova';text-anchor:middle;fill:#009999"
       aria-label="CV">
      <path
         id="path289"
         style="font-weight:bold;font-size:2.37066674px;font-family:'Proxima Nova';text-anchor:middle;fill:#009999"
         d="m 7.2549493,91.828451 c 0.348488,0 0.547624,-0.192024 0.661416,-0.388789 L 7.627144,91.299792 c -0.066379,0.130387 -0.2086187,0.229955 -0.3721947,0.229955 -0.2868507,0 -0.4954694,-0.220472 -0.4954694,-0.519176 0,-0.298704 0.2086187,-0.519176 0.4954694,-0.519176 0.163576,0 0.305816,0.101939 0.3721947,0.229955 l 0.2892213,-0.14224 c -0.1114213,-0.196766 -0.312928,-0.386419 -0.661416,-0.386419 -0.4741334,0 -0.8415867,0.331893 -0.8415867,0.81788 0,0.485987 0.3674533,0.81788 0.8415867,0.81788 z" />
      <path
         id="path291"
         style="font-weight:bold;font-size:2.37066674px;font-family:'Proxima Nova';text-anchor:middle;fill:#009999"
         d="M 8.5531115,91.800003 H 8.9750902 L 9.5843516,90.218768 H 9.2003036 L 8.7641009,91.43492 8.3255275,90.218768 h -0.384048 z" />
    </g>
    <g
       style="fill:#f0ffff;stroke:#009999;stroke-width:0.20999999"
       id="g88"
       transform="translate(7.953333,97)">
      <path
         id="circle82"
         d="M 4.0949998,0 A 4.0949998,4.0949998 0 0 1 0,4.0949998 4.0949998,4.0949998 0 0 1 -4.0949998,0 4.0949998,4.0949998 0 0 1 0,-4.0949998 4.0949998,4.0949998 0 0 1 4.0949998,0 Z"
         style="" />
      <path
         id="circle84"
         d="M 2.925,0 A 2.925,2.925 0 0 1 0,2.925 2.925,2.925 0 0 1 -2.925,0 2.925,2.925 0 0 1 0,-2.925 2.925,2.925 0 0 1 2.925,0 Z"
         style="" />
      <path
         id="circle86"
         d="M 1.755,0 A 1.755,1.755 0 0 1 0,1.755 1.755,1.755 0 0 1 -1.755,0 1.755,1.755 0 0 1 0,-1.755 1.755,1.755 0 0 1 1.755,0 Z"
         style="fill:#009999" />
    </g>
    <g
       id="text90"
       style="font-weight:bold;font-size:3.0480001px;font-family:'Proxima Nova';text-anchor:middle;fill:#009999" />
    <g
       style="fill:#009999;stroke:#f0ffff"
       id="g96"
       transform="translate(17.891111,97)">
      <path
         id="circle92"
         d="M 4.1999998,0 A 4.1999998,4.1999998 0 0 1 0,4.1999998 4.1999998,4.1999998 0 0 1 -4.1999998,0 4.1999998,4.1999998 0 0 1 0,-4.1999998 4.1999998,4.1999998 0 0 1 4.1999998,0 Z"
         style="stroke:none" />
      <path
         id="line94"
         d="M 0,0 V -3.675"
         style="stroke-width:0.52499998;stroke-linecap:round" />
    </g>
    <g
       id="text98"
       style="font-weight:bold;font-size:2.37066674px;font-family:'Proxima Nova';text-anchor:middle;fill:#009999"
       aria-label="UNI">
      <path
         id="path300"
         style="font-weight:bold;font-size:2.37066674px;font-family:'Proxima Nova';text-anchor:middle;fill:#009999"
         d="m 25.929541,92.1944 c 0,0.388789 0.232326,0.659045 0.713571,0.659045 0.481245,0 0.713571,-0.267885 0.713571,-0.661416 v -0.948267 h -0.343747 v 0.938784 c 0,0.220472 -0.125645,0.372195 -0.369824,0.372195 -0.244179,0 -0.372195,-0.151723 -0.372195,-0.372195 v -0.938784 h -0.341376 z" />
      <path
         id="path302"
         style="font-weight:bold;font-size:2.37066674px;font-family:'Proxima Nova';text-anchor:middle;fill:#009999"
         d="m 28.756376,92.824997 h 0.324781 v -1.581235 h -0.336634 v 0.99331 l -0.732536,-0.99331 h -0.346118 v 1.581235 h 0.336635 v -1.03124 z" />
      <path
         id="path304"
         style="font-weight:bold;font-size:2.37066674px;font-family:'Proxima Nova';text-anchor:middle;fill:#009999"
         d="m 29.392937,92.824997 h 0.336635 v -1.581235 h -0.336635 z" />
    </g>
    <g
       id="text100"
       style="font-weight:bold;font-size:2.37066674px;font-family:'Proxima Nova';dominant-baseline:hanging;text-anchor:middle;fill:#009999"
       aria-label="BI">
      <path
         id="path307"
         style="font-weight:bold;font-size:2.37066674px;font-family:'Proxima Nova';dominant-baseline:hanging;text-anchor:middle;fill:#009999"
         d="M 26.876419,102.67326 H 27.7346 c 0.301075,0 0.45991,-0.18965 0.45991,-0.42672 0,-0.19913 -0.135128,-0.36271 -0.303446,-0.38878 0.149352,-0.0308 0.272627,-0.16358 0.272627,-0.36272 0,-0.21099 -0.154093,-0.40301 -0.455168,-0.40301 h -0.832104 z m 0.336635,-0.94826 v -0.34375 h 0.421978 c 0.113792,0 0.184912,0.0735 0.184912,0.17306 0,0.0996 -0.07112,0.17069 -0.184912,0.17069 z m 0,0.65667 v -0.36745 h 0.433832 c 0.132757,0 0.203877,0.0853 0.203877,0.18491 0,0.11379 -0.07586,0.18254 -0.203877,0.18254 z" />
      <path
         id="path309"
         style="font-weight:bold;font-size:2.37066674px;font-family:'Proxima Nova';dominant-baseline:hanging;text-anchor:middle;fill:#009999"
         d="m 28.44606,102.67326 h 0.336634 v -1.58123 H 28.44606 Z" />
    </g>
    <g
       style="fill:#f0ffff;stroke:#009999"
       id="g114"
       transform="translate(27.828889,97)">
      <path
         id="rect102"
         d="m -1.125,-2.8125 h 2.25 c 0.103875,0 0.1875,0.083625 0.1875,0.1875 v 5.25 c 0,0.103875 -0.083625,0.1875 -0.1875,0.1875 h -2.25 c -0.103875,0 -0.1875,-0.083625 -0.1875,-0.1875 v -5.25 c 0,-0.103875 0.083625,-0.1875 0.1875,-0.1875 z"
         style="stroke-width:0.375" />
      <path
         id="line104"
         d="m -0.875,-2.25 h 1.75"
         style="stroke-width:0.25;stroke-linecap:round" />
      <path
         id="line106"
         d="m -0.875,-1.75 h 1.75"
         style="stroke-width:0.25;stroke-linecap:round" />
      <path
         id="line108"
         d="m -0.875,-1.25 h 1.75"
         style="stroke-width:0.25;stroke-linecap:round" />
      <path
         id="line110"
         d="m -0.875,-0.75 h 1.75"
         style="stroke-width:0.25;stroke-linecap:round" />
      <path
         id="line112"
         d="m -0.875,-0.25 h 1.75"
         style="stroke-width:0.25;stroke-linecap:round" />
    </g>
    <path
       id="rect116"
       d="m 33.391666,89.044556 h 8.75 c 0.554,0 1,0.446 1,1 V 101.375 c 0,0.554 -0.446,1 -1,1 h -8.75 c -0.554,0 -1,-0.446 -1,-1 V 90.044556 c 0,-0.554 0.446,-1 1,-1 z"
       style="fill:#009999;stroke:#009999;stroke-width:0.34999999" />
    <g
       id="text118"
       style="font-weight:bold;font-size:2.37066674px;font-family:'Proxima Nova';text-anchor:middle;fill:#f0ffff"
       aria-label="X OUT">
      <path
         id="path319"
         style="font-weight:bold;font-size:2.37066674px;font-family:'Proxima Nova';text-anchor:middle;fill:#f0ffff"
         d="m 35.39374,91.800003 h 0.403013 l -0.573701,-0.813139 0.538141,-0.768096 h -0.405384 l -0.35797,0.540512 -0.362712,-0.540512 h -0.400643 l 0.538141,0.770467 -0.573701,0.810768 h 0.400643 l 0.398272,-0.578443 z" />
      <path
         id="path321"
         style="font-weight:bold;font-size:2.37066674px;font-family:'Proxima Nova';text-anchor:middle;fill:#f0ffff"
         d="m 36.476727,91.010571 c 0,0.476504 0.348488,0.81788 0.824992,0.81788 0.478875,0 0.827363,-0.341376 0.827363,-0.81788 0,-0.476504 -0.348488,-0.81788 -0.827363,-0.81788 -0.476504,0 -0.824992,0.341376 -0.824992,0.81788 z m 1.306238,0 c 0,0.293963 -0.189654,0.519176 -0.481246,0.519176 -0.291592,0 -0.478874,-0.225213 -0.478874,-0.519176 0,-0.296333 0.187282,-0.519176 0.478874,-0.519176 0.291592,0 0.481246,0.222843 0.481246,0.519176 z" />
      <path
         id="path323"
         style="font-weight:bold;font-size:2.37066674px;font-family:'Proxima Nova';text-anchor:middle;fill:#f0ffff"
         d="m 38.36763,91.169406 c 0,0.388789 0.232326,0.659045 0.713571,0.659045 0.481245,0 0.713571,-0.267885 0.713571,-0.661416 v -0.948267 h -0.343747 v 0.938784 c 0,0.220472 -0.125645,0.372195 -0.369824,0.372195 -0.244179,0 -0.372195,-0.151723 -0.372195,-0.372195 V 90.218768 H 38.36763 Z" />
      <path
         id="path325"
         style="font-weight:bold;font-size:2.37066674px;font-family:'Proxima Nova';text-anchor:middle;fill:#f0ffff"
         d="m 40.469041,91.800003 h 0.339006 v -1.284901 h 0.459909 v -0.296334 h -1.261195 v 0.296334 h 0.46228 z" />
    </g>
    <g
       style="fill:#f0ffff;stroke:#009999;stroke-width:0.20999999"
       id="g126"
       transform="translate(37.766667,97)">
      <path
         id="circle120"
         d="M 4.0949998,0 A 4.0949998,4.0949998 0 0 1 0,4.0949998 4.0949998,4.0949998 0 0 1 -4.0949998,0 4.0949998,4.0949998 0 0 1 0,-4.0949998 4.0949998,4.0949998 0 0 1 4.0949998,0 Z"
         style="" />
      <path
         id="circle122"
         d="M 2.925,0 A 2.925,2.925 0 0 1 0,2.925 2.925,2.925 0 0 1 -2.925,0 2.925,2.925 0 0 1 0,-2.925 2.925,2.925 0 0 1 2.925,0 Z"
         style="" />
      <path
         id="circle124"
         d="M 1.755,0 A 1.755,1.755 0 0 1 0,1.755 1.755,1.755 0 0 1 -1.755,0 1.755,1.755 0 0 1 0,-1.755 1.755,1.755 0 0 1 1.755,0 Z"
         style="fill:#009999" />
    </g>
    <g
       id="text128"
       style="font-weight:bold;font-size:2.37066674px;font-family:'Proxima Nova';text-anchor:middle;fill:#009999"
       aria-label="CV">
      <path
         id="path331"
         style="font-weight:bold;font-size:2.37066674px;font-family:'Proxima Nova';text-anchor:middle;fill:#009999"
         d="m 7.2549493,106.82845 c 0.348488,0 0.547624,-0.19202 0.661416,-0.38879 L 7.627144,106.29979 c -0.066379,0.13039 -0.2086187,0.22996 -0.3721947,0.22996 -0.2868507,0 -0.4954694,-0.22047 -0.4954694,-0.51918 0,-0.2987 0.2086187,-0.51917 0.4954694,-0.51917 0.163576,0 0.305816,0.10193 0.3721947,0.22995 l 0.2892213,-0.14224 c -0.1114213,-0.19677 -0.312928,-0.38642 -0.661416,-0.38642 -0.4741334,0 -0.8415867,0.33189 -0.8415867,0.81788 0,0.48599 0.3674533,0.81788 0.8415867,0.81788 z" />
      <path
         id="path333"
         style="font-weight:bold;font-size:2.37066674px;font-family:'Proxima Nova';text-anchor:middle;fill:#009999"
         d="m 8.5531115,106.8 h 0.4219787 l 0.6092614,-1.58123 h -0.384048 l -0.4362027,1.21615 -0.4385734,-1.21615 h -0.384048 z" />
    </g>
    <g
       style="fill:#f0ffff;stroke:#009999;stroke-width:0.20999999"
       id="g136"
       transform="translate(7.953333,112)">
      <path
         id="circle130"
         d="M 4.0949998,0 A 4.0949998,4.0949998 0 0 1 0,4.0949998 4.0949998,4.0949998 0 0 1 -4.0949998,0 4.0949998,4.0949998 0 0 1 0,-4.0949998 4.0949998,4.0949998 0 0 1 4.0949998,0 Z"
         style="" />
      <path
         id="circle132"
         d="M 2.925,0 A 2.925,2.925 0 0 1 0,2.925 2.925,2.925 0 0 1 -2.925,0 2.925,2.925 0 0 1 0,-2.925 2.925,2.925 0 0 1 2.925,0 Z"
         style="" />
      <path
         id="circle134"
         d="M 1.755,0 A 1.755,1.755 0 0 1 0,1.755 1.755,1.755 0 0 1 -1.755,0 1.755,1.755 0 0 1 0,-1.755 1.755,1.755 0 0 1 1.755,0 Z"
         style="fill:#009999" />
    </g>
    <g
       id="text138"
       style="font-weight:bold;font-size:3.0480001px;font-family:'Proxima Nova';text-anchor:middle;fill:#009999" />
    <g
       style="fill:#009999;stroke:#f0ffff"
       id="g144"
       transform="translate(17.891111,112)">
      <path
         id="circle140"
         d="M 4.1999998,0 A 4.1999998,4.1999998 0 0 1 0,4.1999998 4.1999998,4.1999998 0 0 1 -4.1999998,0 4.1999998,4.1999998 0 0 1 0,-4.1999998 4.1999998,4.1999998 0 0 1 4.1999998,0 Z"
         style="stroke:none" />
      <path
         id="line142"
         d="M 0,0 V -3.675"
         style="stroke-width:0.52499998;stroke-linecap:round" />
    </g>
    <g
       id="text146"
       style="font-weight:bold;font-size:2.37066674px;font-family:'Proxima Nova';text-anchor:middle;fill:#009999"
       aria-label="UNI">
      <path
         id="path342"
         style="font-weight:bold;font-size:2.37066674px;font-family:'Proxima Nova';text-anchor:middle;fill:#009999"
         d="m 25.929541,107.1944 c 0,0.38879 0.232326,0.65904 0.713571,0.65904 0.481245,0 0.713571,-0.26788 0.713571,-0.66141 v -0.94827 h -0.343747 v 0.93879 c 0,0.22047 -0.125645,0.37219 -0.369824,0.37219 -0.244179,0 -0.372195,-0.15172 -0.372195,-0.37219 v -0.93879 h -0.341376 z" />
      <path
         id="path344"
         style="font-weight:bold;font-size:2.37066674px;font-family:'Proxima Nova';text-anchor:middle;fill:#009999"
         d="m 28.756376,107.825 h 0.324781 v -1.58124 h -0.336634 v 0.99331 l -0.732536,-0.99331 h -0.346118 v 1.58124 h 0.336635 v -1.03124 z" />
      <path
         id="path346"
         style="font-weight:bold;font-size:2.37066674px;font-family:'Proxima Nova';text-anchor:middle;fill:#009999"
         d="m 29.392937,107.825 h 0.336635 v -1.58124 h -0.336635 z" />
    </g>
    <g
       id="text148"
       style="font-weight:bold;font-size:2.37066674px;font-family:'Proxima Nova';dominant-baseline:hanging;text-anchor:middle;fill:#009999"
       aria-label="BI">
      <path
         id="path349"
         style="font-weight:bold;font-size:2.37066674px;font-family:'Proxima Nova';dominant-baseline:hanging;text-anchor:middle;fill:#009999"
         d="M 26.876419,117.67326 H 27.7346 c 0.301075,0 0.45991,-0.18965 0.45991,-0.42672 0,-0.19913 -0.135128,-0.36271 -0.303446,-0.38878 0.149352,-0.0308 0.272627,-0.16358 0.272627,-0.36272 0,-0.21099 -0.154093,-0.40301 -0.455168,-0.40301 h -0.832104 z m 0.336635,-0.94826 v -0.34375 h 0.421978 c 0.113792,0 0.184912,0.0735 0.184912,0.17306 0,0.0996 -0.07112,0.17069 -0.184912,0.17069 z m 0,0.65667 v -0.36745 h 0.433832 c 0.132757,0 0.203877,0.0853 0.203877,0.18491 0,0.11379 -0.07586,0.18254 -0.203877,0.18254 z" />
      <path
         id="path351"
         style="font-weight:bold;font-size:2.37066674px;font-family:'Proxima Nova';dominant-baseline:hanging;text-anchor:middle;fill:#009999"
         d="m 28.44606,117.67326 h 0.336634 v -1.58123 H 28.44606 Z" />
    </g>
    <g
       style="fill:#f0ffff;stroke:#009999"
       id="g162"
       transform="translate(27.828889,112)">
      <path
         id="rect150"
         d="m -1.125,-2.8125 h 2.25 c 0.103875,0 0.1875,0.083625 0.1875,0.1875 v 5.25 c 0,0.103875 -0.083625,0.1875 -0.1875,0.1875 h -2.25 c -0.103875,0 -0.1875,-0.083625 -0.1875,-0.1875 v -5.25 c 0,-0.103875 0.083625,-0.1875 0.1875,-0.1875 z"
         style="stroke-width:0.375" />
      <path
         id="line152"
         d="m -0.875,-2.25 h 1.75"
         style="stroke-width:0.25;stroke-linecap:round" />
      <path
         id="line154"
         d="m -0.875,-1.75 h 1.75"
         style="stroke-width:0.25;stroke-linecap:round" />
      <path
         id="line156"
         d="m -0.875,-1.25 h 1.75"
         style="stroke-width:0.25;stroke-linecap:round" />
      <path
         id="line158"
         d="m -0.875,-0.75 h 1.75"
         style="stroke-width:0.25;stroke-linecap:round" />
      <path
         id="line160"
         d="m -0.875,-0.25 h 1.75"
         style="stroke-width:0.25;stroke-linecap:round" />
    </g>
    <path
       id="rect164"
       d="m 33.391666,104.04456 h 8.75 c 0.554,0 1,0.446 1,1 v 11.33045 c 0,0.554 -0.446,1 -1,1 h -8.75 c -0.554,0 -1,-0.446 -1,-1 v -11.33045 c 0,-0.554 0.446,-1 1,-1 z"
       style="fill:#009999;stroke:#009999;stroke-width:0.34999999" />
    <g
       id="text166"
       style="font-weight:bold;font-size:2.37066674px;font-family:'Proxima Nova';text-anchor:middle;fill:#f0ffff"
       aria-label="Y OUT">
      <path
         id="path361"
         style="font-weight:bold;font-size:2.37066674px;font-family:'Proxima Nova';text-anchor:middle;fill:#f0ffff"
         d="m 34.831225,106.8 h 0.336635 v -0.64719 l 0.60452,-0.93404 h -0.384048 l -0.388789,0.63534 -0.393531,-0.63534 h -0.384048 l 0.609261,0.93404 z" />
      <path
         id="path363"
         style="font-weight:bold;font-size:2.37066674px;font-family:'Proxima Nova';text-anchor:middle;fill:#f0ffff"
         d="m 36.448946,106.01057 c 0,0.47651 0.348488,0.81788 0.824992,0.81788 0.478875,0 0.827363,-0.34137 0.827363,-0.81788 0,-0.4765 -0.348488,-0.81788 -0.827363,-0.81788 -0.476504,0 -0.824992,0.34138 -0.824992,0.81788 z m 1.306237,0 c 0,0.29396 -0.189653,0.51918 -0.481245,0.51918 -0.291592,0 -0.478875,-0.22522 -0.478875,-0.51918 0,-0.29633 0.187283,-0.51917 0.478875,-0.51917 0.291592,0 0.481245,0.22284 0.481245,0.51917 z" />
      <path
         id="path365"
         style="font-weight:bold;font-size:2.37066674px;font-family:'Proxima Nova';text-anchor:middle;fill:#f0ffff"
         d="m 38.339849,106.16941 c 0,0.38879 0.232325,0.65904 0.713571,0.65904 0.481245,0 0.713571,-0.26788 0.713571,-0.66141 v -0.94827 h -0.343747 v 0.93878 c 0,0.22047 -0.125645,0.3722 -0.369824,0.3722 -0.244179,0 -0.372195,-0.15173 -0.372195,-0.3722 v -0.93878 h -0.341376 z" />
      <path
         id="path367"
         style="font-weight:bold;font-size:2.37066674px;font-family:'Proxima Nova';text-anchor:middle;fill:#f0ffff"
         d="m 40.44126,106.8 h 0.339005 v -1.2849 h 0.45991 v -0.29633 H 39.97898 v 0.29633 h 0.46228 z" />
    </g>
    <g
       style="fill:#f0ffff;stroke:#009999;stroke-width:0.20999999"
       id="g174"
       transform="translate(37.766667,112)">
      <path
         id="circle168"
         d="M 4.0949998,0 A 4.0949998,4.0949998 0 0 1 0,4.0949998 4.0949998,4.0949998 0 0 1 -4.0949998,0 4.0949998,4.0949998 0 0 1 0,-4.0949998 4.0949998,4.0949998 0 0 1 4.0949998,0 Z"
         style="" />
      <path
         id="circle170"
         d="M 2.925,0 A 2.925,2.925 0 0 1 0,2.925 2.925,2.925 0 0 1 -2.925,0 2.925,2.925 0 0 1 0,-2.925 2.925,2.925 0 0 1 2.925,0 Z"
         style="" />
      <path
         id="circle172"
         d="M 1.755,0 A 1.755,1.755 0 0 1 0,1.755 1.755,1.755 0 0 1 -1.755,0 1.755,1.755 0 0 1 0,-1.755 1.755,1.755 0 0 1 1.755,0 Z"
         style="fill:#009999" />
    </g>
  </g>
</svg>
