<?xml version="1.0" encoding="UTF-8" standalone="no"?>
<svg
   xmlns:dc="http://purl.org/dc/elements/1.1/"
   xmlns:cc="http://creativecommons.org/ns#"
   xmlns:rdf="http://www.w3.org/1999/02/22-rdf-syntax-ns#"
   xmlns:svg="http://www.w3.org/2000/svg"
   xmlns="http://www.w3.org/2000/svg"
   id="svg126"
   height="379.42913385826773"
   width="75.0"
   version="1.1">
  <metadata
     id="metadata132">
    <rdf:RDF>
      <cc:Work
         rdf:about="">
        <dc:format>image/svg+xml</dc:format>
        <dc:type
           rdf:resource="http://purl.org/dc/dcmitype/StillImage" />
      </cc:Work>
    </rdf:RDF>
  </metadata>
  <defs
     id="defs130" />
  <g
     id="g124"
     transform="scale(2.9527559)">
    <path
       id="rect2"
       d="M 0,0 H 25.4 V 128.5 H 0 Z"
       style="fill:#f0ffff;stroke:#009999;stroke-width:1" />
    <g
       id="text4"
       style="font-weight:bold;font-size:4.06400013px;font-family:'Proxima Nova';text-anchor:middle;fill:#009999"
       aria-label="CUBIC">
      <path
         id="path135"
         style="font-weight:bold;font-size:4.06400013px;font-family:'Proxima Nova';text-anchor:middle;fill:#009999"
         d="m 8.0975832,9.048768 c 0.597408,0 0.938784,-0.329184 1.133856,-0.666496 L 8.7356312,8.142496 c -0.113792,0.22352 -0.357632,0.394208 -0.638048,0.394208 -0.4917441,0 -0.8493761,-0.377952 -0.8493761,-0.890016 0,-0.5120641 0.357632,-0.8900161 0.8493761,-0.8900161 0.280416,0 0.524256,0.174752 0.638048,0.394208 l 0.495808,-0.24384 c -0.191008,-0.337312 -0.536448,-0.662432 -1.133856,-0.662432 -0.8128001,0 -1.4427201,0.56896 -1.4427201,1.4020801 0,0.83312 0.62992,1.40208 1.4427201,1.40208 z" />
      <path
         id="path137"
         style="font-weight:bold;font-size:4.06400013px;font-family:'Proxima Nova';text-anchor:middle;fill:#009999"
         d="m 9.5789113,7.918976 c 0,0.666496 0.398272,1.129792 1.2232637,1.129792 0.824992,0 1.223264,-0.459232 1.223264,-1.133856 V 6.2893119 h -0.58928 V 7.898656 c 0,0.377952 -0.215392,0.638048 -0.633984,0.638048 -0.418592,0 -0.638048,-0.260096 -0.638048,-0.638048 V 6.2893119 H 9.5789113 Z" />
      <path
         id="path139"
         style="font-weight:bold;font-size:4.06400013px;font-family:'Proxima Nova';text-anchor:middle;fill:#009999"
         d="m 12.555474,9 h 1.471168 c 0.516128,0 0.788416,-0.32512 0.788416,-0.73152 0,-0.341376 -0.231648,-0.621792 -0.520192,-0.666496 0.256032,-0.052832 0.46736,-0.2804161 0.46736,-0.6217921 0,-0.361696 -0.26416,-0.69088 -0.780288,-0.69088 h -1.426464 z m 0.577088,-1.6256001 v -0.58928 h 0.723392 c 0.195072,0 0.316992,0.125984 0.316992,0.296672 0,0.170688 -0.12192,0.292608 -0.316992,0.292608 z m 0,1.1257281 v -0.62992 h 0.743712 c 0.227584,0 0.349504,0.146304 0.349504,0.316992 0,0.195072 -0.130048,0.312928 -0.349504,0.312928 z" />
      <path
         id="path141"
         style="font-weight:bold;font-size:4.06400013px;font-family:'Proxima Nova';text-anchor:middle;fill:#009999"
         d="m 15.246286,9 h 0.577088 V 6.2893119 h -0.577088 z" />
      <path
         id="path143"
         style="font-weight:bold;font-size:4.06400013px;font-family:'Proxima Nova';text-anchor:middle;fill:#009999"
         d="m 17.670208,9.048768 c 0.597408,0 0.938784,-0.329184 1.133856,-0.666496 L 18.308256,8.142496 c -0.113792,0.22352 -0.357632,0.394208 -0.638048,0.394208 -0.491744,0 -0.849376,-0.377952 -0.849376,-0.890016 0,-0.5120641 0.357632,-0.8900161 0.849376,-0.8900161 0.280416,0 0.524256,0.174752 0.638048,0.394208 l 0.495808,-0.24384 c -0.191008,-0.337312 -0.536448,-0.662432 -1.133856,-0.662432 -0.8128,0 -1.44272,0.56896 -1.44272,1.4020801 0,0.83312 0.62992,1.40208 1.44272,1.40208 z" />
    </g>
    <g
       id="text6"
       style="font-weight:bold;font-size:4.06400013px;font-family:'Proxima Nova';dominant-baseline:hanging;text-anchor:middle;fill:#009999"
       aria-label="DHE">
      <path
         id="path146"
         style="font-weight:bold;font-size:4.06400013px;font-family:'Proxima Nova';dominant-baseline:hanging;text-anchor:middle;fill:#009999"
         d="M 8.8367549,122.06845 H 9.905587 c 0.849376,0 1.438656,-0.53645 1.438656,-1.35331 0,-0.81687 -0.58928,-1.35738 -1.438656,-1.35738 H 8.8367549 Z m 0.5770881,-0.508 v -1.69469 h 0.491744 c 0.556768,0 0.849376,0.36982 0.849376,0.84938 0,0.45923 -0.312928,0.84531 -0.849376,0.84531 z" />
      <path
         id="path148"
         style="font-weight:bold;font-size:4.06400013px;font-family:'Proxima Nova';dominant-baseline:hanging;text-anchor:middle;fill:#009999"
         d="m 13.615003,122.06845 h 0.581152 v -2.71069 h -0.581152 v 1.06477 h -1.28016 v -1.06477 h -0.577088 v 2.71069 h 0.577088 v -1.13792 h 1.28016 z" />
      <path
         id="path150"
         style="font-weight:bold;font-size:4.06400013px;font-family:'Proxima Nova';dominant-baseline:hanging;text-anchor:middle;fill:#009999"
         d="m 14.72638,122.06845 h 1.918208 v -0.508 h -1.34112 v -0.61367 h 1.312672 v -0.508 h -1.312672 v -0.57302 h 1.34112 v -0.508 H 14.72638 Z" />
    </g>
    <g
       id="text8"
       style="font-weight:bold;font-size:2.37066674px;font-family:'Proxima Nova';text-anchor:middle;fill:#009999"
       aria-label="CV">
      <path
         id="path153"
         style="font-weight:bold;font-size:2.37066674px;font-family:'Proxima Nova';text-anchor:middle;fill:#009999"
         d="m 5.9849465,19.828447 c 0.348488,0 0.547624,-0.192024 0.661416,-0.388789 L 6.3571411,19.299789 c -0.066379,0.130386 -0.2086186,0.229954 -0.3721946,0.229954 -0.2868507,0 -0.4954694,-0.220472 -0.4954694,-0.519176 0,-0.298704 0.2086187,-0.519176 0.4954694,-0.519176 0.163576,0 0.305816,0.101939 0.3721946,0.229955 l 0.2892214,-0.14224 c -0.1114214,-0.196765 -0.312928,-0.386419 -0.661416,-0.386419 -0.4741334,0 -0.8415867,0.331894 -0.8415867,0.81788 0,0.485987 0.3674533,0.81788 0.8415867,0.81788 z" />
      <path
         id="path155"
         style="font-weight:bold;font-size:2.37066674px;font-family:'Proxima Nova';text-anchor:middle;fill:#009999"
         d="M 7.2831087,19.799999 H 7.7050874 L 8.3143487,18.218765 H 7.9303007 L 7.494098,19.434917 7.0555247,18.218765 h -0.384048 z" />
    </g>
    <g
       style="fill:#f0ffff;stroke:#009999;stroke-width:0.20999999"
       id="g16"
       transform="translate(6.68333,25)">
      <path
         id="circle10"
         d="M 4.0949998,0 A 4.0949998,4.0949998 0 0 1 0,4.0949998 4.0949998,4.0949998 0 0 1 -4.0949998,0 4.0949998,4.0949998 0 0 1 0,-4.0949998 4.0949998,4.0949998 0 0 1 4.0949998,0 Z"
         style="" />
      <path
         id="circle12"
         d="M 2.925,0 A 2.925,2.925 0 0 1 0,2.925 2.925,2.925 0 0 1 -2.925,0 2.925,2.925 0 0 1 0,-2.925 2.925,2.925 0 0 1 2.925,0 Z"
         style="" />
      <path
         id="circle14"
         d="M 1.755,0 A 1.755,1.755 0 0 1 0,1.755 1.755,1.755 0 0 1 -1.755,0 1.755,1.755 0 0 1 0,-1.755 1.755,1.755 0 0 1 1.755,0 Z"
         style="fill:#009999" />
    </g>
    <g
       id="text20"
       style="font-weight:bold;font-size:3.0480001px;font-family:'Proxima Nova';text-anchor:middle;fill:#009999"
       aria-label="X3">
      <path
         id="path161"
         style="font-weight:bold;font-size:3.0480001px;font-family:'Proxima Nova';text-anchor:middle;fill:#009999"
         d="m 18.329787,19 h 0.51816 l -0.737616,-1.045464 0.691896,-0.987552 h -0.521208 l -0.460248,0.694944 -0.466344,-0.694944 h -0.515112 l 0.691896,0.9906 L 16.793595,19 h 0.515112 l 0.512064,-0.743712 z" />
      <path
         id="path163"
         style="baseline-shift:super"
         d="m 18.899668,17.49124 c 0.149352,0.18288 0.42672,0.326136 0.801624,0.326136 0.48768,0 0.801624,-0.246888 0.801624,-0.597408 0,-0.3048 -0.268224,-0.466344 -0.475488,-0.48768 0.225552,-0.03962 0.445008,-0.207264 0.445008,-0.463296 0,-0.338328 -0.292608,-0.551688 -0.768096,-0.551688 -0.356616,0 -0.612648,0.13716 -0.77724,0.323088 l 0.216408,0.271272 c 0.143256,-0.13716 0.32004,-0.210312 0.515112,-0.210312 0.21336,0 0.377952,0.07925 0.377952,0.240792 0,0.149352 -0.149352,0.216408 -0.374904,0.216408 -0.0762,0 -0.216408,0 -0.252984,-0.003 v 0.390144 c 0.03048,-0.003 0.16764,-0.0061 0.252984,-0.0061 0.283464,0 0.408432,0.07315 0.408432,0.234696 0,0.1524 -0.13716,0.25908 -0.384048,0.25908 -0.19812,0 -0.420624,-0.08534 -0.560832,-0.231648 z" />
    </g>
    <g
       style="fill:#009999;stroke:#f0ffff"
       id="g26"
       transform="translate(18.71667,25)">
      <path
         id="circle22"
         d="M 5,0 A 5,5 0 0 1 0,5 5,5 0 0 1 -5,0 5,5 0 0 1 0,-5 5,5 0 0 1 5,0 Z"
         style="stroke:none" />
      <path
         id="line24"
         d="M 0,0 V -4.375"
         style="stroke-width:0.625;stroke-linecap:round" />
    </g>
    <g
       id="text28"
       style="font-weight:bold;font-size:2.37066674px;font-family:'Proxima Nova';text-anchor:middle;fill:#009999"
       aria-label="CV">
      <path
         id="path168"
         style="font-weight:bold;font-size:2.37066674px;font-family:'Proxima Nova';text-anchor:middle;fill:#009999"
         d="m 5.9849465,35.828447 c 0.348488,0 0.547624,-0.192024 0.661416,-0.388789 L 6.3571411,35.299789 c -0.066379,0.130386 -0.2086186,0.229954 -0.3721946,0.229954 -0.2868507,0 -0.4954694,-0.220472 -0.4954694,-0.519176 0,-0.298704 0.2086187,-0.519176 0.4954694,-0.519176 0.163576,0 0.305816,0.101939 0.3721946,0.229955 l 0.2892214,-0.14224 c -0.1114214,-0.196765 -0.312928,-0.386419 -0.661416,-0.386419 -0.4741334,0 -0.8415867,0.331894 -0.8415867,0.81788 0,0.485987 0.3674533,0.81788 0.8415867,0.81788 z" />
      <path
         id="path170"
         style="font-weight:bold;font-size:2.37066674px;font-family:'Proxima Nova';text-anchor:middle;fill:#009999"
         d="M 7.2831087,35.799999 H 7.7050874 L 8.3143487,34.218765 H 7.9303007 L 7.494098,35.434917 7.0555247,34.218765 h -0.384048 z" />
    </g>
    <g
       style="fill:#f0ffff;stroke:#009999;stroke-width:0.20999999"
       id="g36"
       transform="translate(6.68333,41)">
      <path
         id="circle30"
         d="M 4.0949998,0 A 4.0949998,4.0949998 0 0 1 0,4.0949998 4.0949998,4.0949998 0 0 1 -4.0949998,0 4.0949998,4.0949998 0 0 1 0,-4.0949998 4.0949998,4.0949998 0 0 1 4.0949998,0 Z"
         style="" />
      <path
         id="circle32"
         d="M 2.925,0 A 2.925,2.925 0 0 1 0,2.925 2.925,2.925 0 0 1 -2.925,0 2.925,2.925 0 0 1 0,-2.925 2.925,2.925 0 0 1 2.925,0 Z"
         style="" />
      <path
         id="circle34"
         d="M 1.755,0 A 1.755,1.755 0 0 1 0,1.755 1.755,1.755 0 0 1 -1.755,0 1.755,1.755 0 0 1 0,-1.755 1.755,1.755 0 0 1 1.755,0 Z"
         style="fill:#009999" />
    </g>
    <g
       id="text40"
       style="font-weight:bold;font-size:3.0480001px;font-family:'Proxima Nova';text-anchor:middle;fill:#009999"
       aria-label="X2">
      <path
         id="path176"
         style="font-weight:bold;font-size:3.0480001px;font-family:'Proxima Nova';text-anchor:middle;fill:#009999"
         d="m 18.311928,35 h 0.51816 l -0.737616,-1.045464 0.691896,-0.987552 H 18.26316 l -0.460248,0.694944 -0.466344,-0.694944 h -0.515112 l 0.691896,0.9906 L 16.775736,35 h 0.515112 l 0.512064,-0.743712 z" />
      <path
         id="path178"
         style="baseline-shift:super"
         d="m 18.964105,33.7808 h 1.530096 v -0.381 h -0.829056 c 0.527304,-0.384048 0.813816,-0.6858 0.813816,-1.033272 0,-0.405384 -0.344424,-0.649224 -0.77724,-0.649224 -0.283464,0 -0.585216,0.103632 -0.783336,0.332232 l 0.246888,0.286512 c 0.13716,-0.143256 0.313944,-0.234696 0.545592,-0.234696 0.16764,0 0.329184,0.08839 0.329184,0.265176 0,0.249936 -0.24384,0.460248 -1.075944,1.072896 z" />
    </g>
    <g
       style="fill:#009999;stroke:#f0ffff"
       id="g46"
       transform="translate(18.71667,41)">
      <path
         id="circle42"
         d="M 5,0 A 5,5 0 0 1 0,5 5,5 0 0 1 -5,0 5,5 0 0 1 0,-5 5,5 0 0 1 5,0 Z"
         style="stroke:none" />
      <path
         id="line44"
         d="M 0,0 V -4.375"
         style="stroke-width:0.625;stroke-linecap:round" />
    </g>
    <g
       id="text48"
       style="font-weight:bold;font-size:2.37066674px;font-family:'Proxima Nova';text-anchor:middle;fill:#009999"
       aria-label="CV">
      <path
         id="path183"
         style="font-weight:bold;font-size:2.37066674px;font-family:'Proxima Nova';text-anchor:middle;fill:#009999"
         d="m 5.9849465,51.828447 c 0.348488,0 0.547624,-0.192024 0.661416,-0.388789 L 6.3571411,51.299789 c -0.066379,0.130386 -0.2086186,0.229954 -0.3721946,0.229954 -0.2868507,0 -0.4954694,-0.220472 -0.4954694,-0.519176 0,-0.298704 0.2086187,-0.519176 0.4954694,-0.519176 0.163576,0 0.305816,0.101939 0.3721946,0.229955 l 0.2892214,-0.14224 c -0.1114214,-0.196765 -0.312928,-0.386419 -0.661416,-0.386419 -0.4741334,0 -0.8415867,0.331894 -0.8415867,0.81788 0,0.485987 0.3674533,0.81788 0.8415867,0.81788 z" />
      <path
         id="path185"
         style="font-weight:bold;font-size:2.37066674px;font-family:'Proxima Nova';text-anchor:middle;fill:#009999"
         d="M 7.2831087,51.799999 H 7.7050874 L 8.3143487,50.218765 H 7.9303007 L 7.494098,51.434917 7.0555247,50.218765 h -0.384048 z" />
    </g>
    <g
       style="fill:#f0ffff;stroke:#009999;stroke-width:0.20999999"
       id="g56"
       transform="translate(6.68333,57)">
      <path
         id="circle50"
         d="M 4.0949998,0 A 4.0949998,4.0949998 0 0 1 0,4.0949998 4.0949998,4.0949998 0 0 1 -4.0949998,0 4.0949998,4.0949998 0 0 1 0,-4.0949998 4.0949998,4.0949998 0 0 1 4.0949998,0 Z"
         style="" />
      <path
         id="circle52"
         d="M 2.925,0 A 2.925,2.925 0 0 1 0,2.925 2.925,2.925 0 0 1 -2.925,0 2.925,2.925 0 0 1 0,-2.925 2.925,2.925 0 0 1 2.925,0 Z"
         style="" />
      <path
         id="circle54"
         d="M 1.755,0 A 1.755,1.755 0 0 1 0,1.755 1.755,1.755 0 0 1 -1.755,0 1.755,1.755 0 0 1 0,-1.755 1.755,1.755 0 0 1 1.755,0 Z"
         style="fill:#009999" />
    </g>
    <g
       id="text58"
       style="font-weight:bold;font-size:3.0480001px;font-family:'Proxima Nova';text-anchor:middle;fill:#009999"
       aria-label="X">
      <path
         id="path191"
         style="font-weight:bold;font-size:3.0480001px;font-family:'Proxima Nova';text-anchor:middle;fill:#009999"
         d="m 19.225733,51 h 0.51816 l -0.737616,-1.045464 0.691896,-0.987552 h -0.521208 l -0.460248,0.694944 -0.466344,-0.694944 h -0.515112 l 0.691896,0.9906 L 17.689541,51 h 0.515112 l 0.512064,-0.743712 z" />
    </g>
    <g
       style="fill:#009999;stroke:#f0ffff"
       id="g64"
       transform="translate(18.71667,57)">
      <path
         id="circle60"
         d="M 5,0 A 5,5 0 0 1 0,5 5,5 0 0 1 -5,0 5,5 0 0 1 0,-5 5,5 0 0 1 5,0 Z"
         style="stroke:none" />
      <path
         id="line62"
         d="M 0,0 V -4.375"
         style="stroke-width:0.625;stroke-linecap:round" />
    </g>
    <g
       id="text66"
       style="font-weight:bold;font-size:2.37066674px;font-family:'Proxima Nova';text-anchor:middle;fill:#009999"
       aria-label="CV">
      <path
         id="path196"
         style="font-weight:bold;font-size:2.37066674px;font-family:'Proxima Nova';text-anchor:middle;fill:#009999"
         d="m 5.9849465,67.828451 c 0.348488,0 0.547624,-0.192024 0.661416,-0.388789 l -0.2892214,-0.13987 c -0.066379,0.130387 -0.2086186,0.229955 -0.3721946,0.229955 -0.2868507,0 -0.4954694,-0.220472 -0.4954694,-0.519176 0,-0.298704 0.2086187,-0.519176 0.4954694,-0.519176 0.163576,0 0.305816,0.101939 0.3721946,0.229955 l 0.2892214,-0.14224 c -0.1114214,-0.196766 -0.312928,-0.386419 -0.661416,-0.386419 -0.4741334,0 -0.8415867,0.331893 -0.8415867,0.81788 0,0.485987 0.3674533,0.81788 0.8415867,0.81788 z" />
      <path
         id="path198"
         style="font-weight:bold;font-size:2.37066674px;font-family:'Proxima Nova';text-anchor:middle;fill:#009999"
         d="M 7.2831087,67.800003 H 7.7050874 L 8.3143487,66.218768 H 7.9303007 L 7.494098,67.43492 7.0555247,66.218768 h -0.384048 z" />
    </g>
    <g
       style="fill:#f0ffff;stroke:#009999;stroke-width:0.20999999"
       id="g74"
       transform="translate(6.68333,73)">
      <path
         id="circle68"
         d="M 4.0949998,0 A 4.0949998,4.0949998 0 0 1 0,4.0949998 4.0949998,4.0949998 0 0 1 -4.0949998,0 4.0949998,4.0949998 0 0 1 0,-4.0949998 4.0949998,4.0949998 0 0 1 4.0949998,0 Z"
         style="" />
      <path
         id="circle70"
         d="M 2.925,0 A 2.925,2.925 0 0 1 0,2.925 2.925,2.925 0 0 1 -2.925,0 2.925,2.925 0 0 1 0,-2.925 2.925,2.925 0 0 1 2.925,0 Z"
         style="" />
      <path
         id="circle72"
         d="M 1.755,0 A 1.755,1.755 0 0 1 0,1.755 1.755,1.755 0 0 1 -1.755,0 1.755,1.755 0 0 1 0,-1.755 1.755,1.755 0 0 1 1.755,0 Z"
         style="fill:#009999" />
    </g>
    <g
       id="text76"
       style="font-weight:bold;font-size:3.0480001px;font-family:'Proxima Nova';text-anchor:middle;fill:#009999"
       aria-label="C">
      <path
         id="path204"
         style="font-weight:bold;font-size:3.0480001px;font-family:'Proxima Nova';text-anchor:middle;fill:#009999"
         d="m 18.854591,67.036576 c 0.448056,0 0.704088,-0.246888 0.850392,-0.499872 l -0.371856,-0.179832 c -0.08534,0.16764 -0.268224,0.295656 -0.478536,0.295656 -0.368808,0 -0.637032,-0.283464 -0.637032,-0.667512 0,-0.384048 0.268224,-0.667512 0.637032,-0.667512 0.210312,0 0.393192,0.131064 0.478536,0.295656 l 0.371856,-0.18288 c -0.143256,-0.252984 -0.402336,-0.496824 -0.850392,-0.496824 -0.6096,0 -1.08204,0.42672 -1.08204,1.05156 0,0.62484 0.47244,1.05156 1.08204,1.05156 z" />
    </g>
    <g
       style="fill:#009999;stroke:#f0ffff"
       id="g82"
       transform="translate(18.71667,73)">
      <path
         id="circle78"
         d="M 5,0 A 5,5 0 0 1 0,5 5,5 0 0 1 -5,0 5,5 0 0 1 0,-5 5,5 0 0 1 5,0 Z"
         style="stroke:none" />
      <path
         id="line80"
         d="M 0,0 V -4.375"
         style="stroke-width:0.625;stroke-linecap:round" />
    </g>
    <g
       id="text84"
       style="font-weight:bold;font-size:3.0480001px;font-family:'Proxima Nova';text-anchor:middle;fill:#009999"
       aria-label="IN">
      <path
         id="path209"
         style="font-weight:bold;font-size:3.0480001px;font-family:'Proxima Nova';text-anchor:middle;fill:#009999"
         d="m 5.3575215,91 h 0.432816 v -2.033016 h -0.432816 z" />
      <path
         id="path211"
         style="font-weight:bold;font-size:3.0480001px;font-family:'Proxima Nova';text-anchor:middle;fill:#009999"
         d="M 7.593039,91 H 8.010615 V 88.966984 H 7.577799 v 1.277112 L 6.635967,88.966984 H 6.190959 V 91 h 0.432816 v -1.32588 z" />
    </g>
    <g
       style="fill:#009999;stroke:#f0ffff"
       id="g90"
       transform="translate(6.68333,97)">
      <path
         id="circle86"
         d="M 5,0 A 5,5 0 0 1 0,5 5,5 0 0 1 -5,0 5,5 0 0 1 0,-5 5,5 0 0 1 5,0 Z"
         style="stroke:none" />
      <path
         id="line88"
         d="M 0,0 V -4.375"
         style="stroke-width:0.625;stroke-linecap:round" />
    </g>
    <g
       id="text92"
       style="font-weight:bold;font-size:3.0480001px;font-family:'Proxima Nova';text-anchor:middle;fill:#009999"
       aria-label="OUT">
      <path
         id="path216"
         style="font-weight:bold;font-size:3.0480001px;font-family:'Proxima Nova';text-anchor:middle;fill:#009999"
         d="m 15.650262,89.985016 c 0,0.612648 0.448056,1.05156 1.060704,1.05156 0.615696,0 1.063752,-0.438912 1.063752,-1.05156 0,-0.612648 -0.448056,-1.05156 -1.063752,-1.05156 -0.612648,0 -1.060704,0.438912 -1.060704,1.05156 z m 1.679448,0 c 0,0.377952 -0.24384,0.667512 -0.618744,0.667512 -0.374904,0 -0.615696,-0.28956 -0.615696,-0.667512 0,-0.381 0.240792,-0.667512 0.615696,-0.667512 0.374904,0 0.618744,0.286512 0.618744,0.667512 z" />
      <path
         id="path218"
         style="font-weight:bold;font-size:3.0480001px;font-family:'Proxima Nova';text-anchor:middle;fill:#009999"
         d="m 18.081423,90.189232 c 0,0.499872 0.298704,0.847344 0.917448,0.847344 0.618744,0 0.917448,-0.344424 0.917448,-0.850392 v -1.2192 h -0.44196 v 1.207008 c 0,0.283464 -0.161544,0.478536 -0.475488,0.478536 -0.313944,0 -0.478536,-0.195072 -0.478536,-0.478536 v -1.207008 h -0.438912 z" />
      <path
         id="path220"
         style="font-weight:bold;font-size:3.0480001px;font-family:'Proxima Nova';text-anchor:middle;fill:#009999"
         d="m 20.783237,91 h 0.435864 v -1.652016 h 0.591312 v -0.381 h -1.621536 v 0.381 h 0.59436 z" />
    </g>
    <g
       style="fill:#009999;stroke:#f0ffff"
       id="g98"
       transform="translate(18.71667,97)">
      <path
         id="circle94"
         d="M 5,0 A 5,5 0 0 1 0,5 5,5 0 0 1 -5,0 5,5 0 0 1 0,-5 5,5 0 0 1 5,0 Z"
         style="stroke:none" />
      <path
         id="line96"
         d="M 0,0 V -4.375"
         style="stroke-width:0.625;stroke-linecap:round" />
    </g>
    <path
       id="rect100"
       d="M 2.3083301,104.04456 H 11.05833 c 0.554,0 1,0.446 1,1 v 11.33045 c 0,0.554 -0.446,1 -1,1 H 2.3083301 c -0.554,0 -1,-0.446 -1,-1 v -11.33045 c 0,-0.554 0.446,-1 1,-1 z"
       style="fill:#f0ffff;stroke:#009999;stroke-width:0.34999999" />
    <g
       id="text102"
       style="font-weight:bold;font-size:2.37066674px;font-family:'Proxima Nova';text-anchor:middle;fill:#009999"
       aria-label="IN">
      <path
         id="path226"
         style="font-weight:bold;font-size:2.37066674px;font-family:'Proxima Nova';text-anchor:middle;fill:#009999"
         d="m 5.6521456,106.8 h 0.3366347 v -1.58123 H 5.6521456 Z" />
      <path
         id="path228"
         style="font-weight:bold;font-size:2.37066674px;font-family:'Proxima Nova';text-anchor:middle;fill:#009999"
         d="m 7.3908815,106.8 h 0.3247813 v -1.58123 H 7.3790281 v 0.99331 l -0.732536,-0.99331 H 6.3003748 V 106.8 h 0.3366346 v -1.03124 z" />
    </g>
    <g
       style="fill:#f0ffff;stroke:#009999;stroke-width:0.20999999"
       id="g110"
       transform="translate(6.68333,112)">
      <path
         id="circle104"
         d="M 4.0949998,0 A 4.0949998,4.0949998 0 0 1 0,4.0949998 4.0949998,4.0949998 0 0 1 -4.0949998,0 4.0949998,4.0949998 0 0 1 0,-4.0949998 4.0949998,4.0949998 0 0 1 4.0949998,0 Z"
         style="" />
      <path
         id="circle106"
         d="M 2.925,0 A 2.925,2.925 0 0 1 0,2.925 2.925,2.925 0 0 1 -2.925,0 2.925,2.925 0 0 1 0,-2.925 2.925,2.925 0 0 1 2.925,0 Z"
         style="" />
      <path
         id="circle108"
         d="M 1.755,0 A 1.755,1.755 0 0 1 0,1.755 1.755,1.755 0 0 1 -1.755,0 1.755,1.755 0 0 1 0,-1.755 1.755,1.755 0 0 1 1.755,0 Z"
         style="fill:#009999" />
    </g>
    <path
       id="rect112"
       d="m 14.34167,104.04456 h 8.75 c 0.554,0 1,0.446 1,1 v 11.33045 c 0,0.554 -0.446,1 -1,1 h -8.75 c -0.554,0 -1,-0.446 -1,-1 v -11.33045 c 0,-0.554 0.446,-1 1,-1 z"
       style="fill:#009999;stroke:#009999;stroke-width:0.34999999" />
    <g
       id="text114"
       style="font-weight:bold;font-size:2.37066674px;font-family:'Proxima Nova';text-anchor:middle;fill:#f0ffff"
       aria-label="OUT">
      <path
         id="path235"
         style="font-weight:bold;font-size:2.37066674px;font-family:'Proxima Nova';text-anchor:middle;fill:#f0ffff"
         d="m 16.331686,106.01057 c 0,0.47651 0.348488,0.81788 0.824992,0.81788 0.478874,0 0.827362,-0.34137 0.827362,-0.81788 0,-0.4765 -0.348488,-0.81788 -0.827362,-0.81788 -0.476504,0 -0.824992,0.34138 -0.824992,0.81788 z m 1.306237,0 c 0,0.29396 -0.189653,0.51918 -0.481245,0.51918 -0.291592,0 -0.478875,-0.22522 -0.478875,-0.51918 0,-0.29633 0.187283,-0.51917 0.478875,-0.51917 0.291592,0 0.481245,0.22284 0.481245,0.51917 z" />
      <path
         id="path237"
         style="font-weight:bold;font-size:2.37066674px;font-family:'Proxima Nova';text-anchor:middle;fill:#f0ffff"
         d="m 18.222589,106.16941 c 0,0.38879 0.232325,0.65904 0.713571,0.65904 0.481245,0 0.71357,-0.26788 0.71357,-0.66141 v -0.94827 h -0.343746 v 0.93878 c 0,0.22047 -0.125646,0.3722 -0.369824,0.3722 -0.244179,0 -0.372195,-0.15173 -0.372195,-0.3722 v -0.93878 h -0.341376 z" />
      <path
         id="path239"
         style="font-weight:bold;font-size:2.37066674px;font-family:'Proxima Nova';text-anchor:middle;fill:#f0ffff"
         d="m 20.324,106.8 h 0.339005 v -1.2849 h 0.459909 v -0.29633 H 19.86172 v 0.29633 H 20.324 Z" />
    </g>
    <g
       style="fill:#f0ffff;stroke:#009999;stroke-width:0.20999999"
       id="g122"
       transform="translate(18.71667,112)">
      <path
         id="circle116"
         d="M 4.0949998,0 A 4.0949998,4.0949998 0 0 1 0,4.0949998 4.0949998,4.0949998 0 0 1 -4.0949998,0 4.0949998,4.0949998 0 0 1 0,-4.0949998 4.0949998,4.0949998 0 0 1 4.0949998,0 Z"
         style="" />
      <path
         id="circle118"
         d="M 2.925,0 A 2.925,2.925 0 0 1 0,2.925 2.925,2.925 0 0 1 -2.925,0 2.925,2.925 0 0 1 0,-2.925 2.925,2.925 0 0 1 2.925,0 Z"
         style="" />
      <path
         id="circle120"
         d="M 1.755,0 A 1.755,1.755 0 0 1 0,1.755 1.755,1.755 0 0 1 -1.755,0 1.755,1.755 0 0 1 0,-1.755 1.755,1.755 0 0 1 1.755,0 Z"
         style="fill:#009999" />
    </g>
  </g>
</svg>
