<?xml version="1.0" encoding="UTF-8" standalone="no"?>
<svg
   xmlns:dc="http://purl.org/dc/elements/1.1/"
   xmlns:cc="http://creativecommons.org/ns#"
   xmlns:rdf="http://www.w3.org/1999/02/22-rdf-syntax-ns#"
   xmlns:svg="http://www.w3.org/2000/svg"
   xmlns="http://www.w3.org/2000/svg"
   id="svg200"
   height="379.42913385826773"
   width="120.0"
   version="1.1">
  <metadata
     id="metadata206">
    <rdf:RDF>
      <cc:Work
         rdf:about="">
        <dc:format>image/svg+xml</dc:format>
        <dc:type
           rdf:resource="http://purl.org/dc/dcmitype/StillImage" />
      </cc:Work>
    </rdf:RDF>
  </metadata>
  <defs
     id="defs204" />
  <g
     id="g198"
     transform="scale(2.9527559)">
    <path
       id="rect2"
       d="M 0,0 H 40.639999 V 128.5 H 0 Z"
       style="fill:#fff7f0;stroke:#994d00;stroke-width:1" />
    <g
       id="text4"
       style="font-weight:bold;font-size:4.06400013px;font-family:'Proxima Nova';text-anchor:middle;fill:#994d00"
       aria-label="KNOBS">
      <path
         id="path209"
         style="font-weight:bold;font-size:4.06400013px;font-family:'Proxima Nova';text-anchor:middle;fill:#994d00"
         d="m 15.303849,9 h 0.7112 l -1.150112,-1.438656 1.07696,-1.2720321 h -0.7112 L 14.271593,7.500384 V 6.2893119 H 13.694505 V 9 h 0.577088 V 8.16688 l 0.211328,-0.251968 z" />
      <path
         id="path211"
         style="font-weight:bold;font-size:4.06400013px;font-family:'Proxima Nova';text-anchor:middle;fill:#994d00"
         d="m 18.15157,9 h 0.556768 V 6.2893119 H 18.13125 V 7.992128 L 16.875474,6.2893119 H 16.28213 V 9 h 0.577088 V 7.2321599 Z" />
      <path
         id="path213"
         style="font-weight:bold;font-size:4.06400013px;font-family:'Proxima Nova';text-anchor:middle;fill:#994d00"
         d="m 19.112769,7.646688 c 0,0.816864 0.597408,1.40208 1.414272,1.40208 0.820928,0 1.418336,-0.585216 1.418336,-1.40208 0,-0.8168641 -0.597408,-1.4020801 -1.418336,-1.4020801 -0.816864,0 -1.414272,0.585216 -1.414272,1.4020801 z m 2.239264,0 c 0,0.503936 -0.32512,0.890016 -0.824992,0.890016 -0.499872,0 -0.820928,-0.38608 -0.820928,-0.890016 0,-0.5080001 0.321056,-0.8900161 0.820928,-0.8900161 0.499872,0 0.824992,0.382016 0.824992,0.8900161 z" />
      <path
         id="path215"
         style="font-weight:bold;font-size:4.06400013px;font-family:'Proxima Nova';text-anchor:middle;fill:#994d00"
         d="m 22.354318,9 h 1.471168 c 0.516128,0 0.788416,-0.32512 0.788416,-0.73152 0,-0.341376 -0.231648,-0.621792 -0.520192,-0.666496 0.256032,-0.052832 0.46736,-0.2804161 0.46736,-0.6217921 0,-0.361696 -0.26416,-0.69088 -0.780288,-0.69088 h -1.426464 z m 0.577088,-1.6256001 v -0.58928 h 0.723392 c 0.195072,0 0.316992,0.125984 0.316992,0.296672 0,0.170688 -0.12192,0.292608 -0.316992,0.292608 z m 0,1.1257281 v -0.62992 h 0.743712 c 0.227584,0 0.349504,0.146304 0.349504,0.316992 0,0.195072 -0.130048,0.312928 -0.349504,0.312928 z" />
      <path
         id="path217"
         style="font-weight:bold;font-size:4.06400013px;font-family:'Proxima Nova';text-anchor:middle;fill:#994d00"
         d="m 24.86225,8.617984 c 0.251968,0.256032 0.625856,0.430784 1.146048,0.430784 0.73152,0 1.085088,-0.373888 1.085088,-0.869696 0,-0.613664 -0.56896,-0.7477761 -1.016,-0.8534401 -0.292608,-0.069088 -0.540512,-0.125984 -0.540512,-0.300736 0,-0.16256 0.138176,-0.272288 0.38608,-0.272288 0.276352,0 0.56896,0.093472 0.788416,0.296672 l 0.321056,-0.422656 c -0.268224,-0.247904 -0.625856,-0.377952 -1.05664,-0.377952 -0.638048,0 -1.028192,0.373888 -1.028192,0.824992 0,0.6177281 0.56896,0.7396481 1.011936,0.8412481 0.296672,0.073152 0.54864,0.130048 0.54864,0.329184 0,0.154432 -0.154432,0.300736 -0.471424,0.300736 -0.373888,0 -0.67056,-0.166624 -0.861568,-0.36576 z" />
    </g>
    <g
       id="text6"
       style="font-weight:bold;font-size:4.06400013px;font-family:'Proxima Nova';dominant-baseline:hanging;text-anchor:middle;fill:#994d00"
       aria-label="DHE">
      <path
         id="path220"
         style="font-weight:bold;font-size:4.06400013px;font-family:'Proxima Nova';dominant-baseline:hanging;text-anchor:middle;fill:#994d00"
         d="m 16.456755,122.06845 h 1.068832 c 0.849376,0 1.438656,-0.53645 1.438656,-1.35331 0,-0.81687 -0.58928,-1.35738 -1.438656,-1.35738 h -1.068832 z m 0.577088,-0.508 v -1.69469 h 0.491744 c 0.556768,0 0.849376,0.36982 0.849376,0.84938 0,0.45923 -0.312928,0.84531 -0.849376,0.84531 z" />
      <path
         id="path222"
         style="font-weight:bold;font-size:4.06400013px;font-family:'Proxima Nova';dominant-baseline:hanging;text-anchor:middle;fill:#994d00"
         d="m 21.235003,122.06845 h 0.581152 v -2.71069 h -0.581152 v 1.06477 h -1.28016 v -1.06477 h -0.577088 v 2.71069 h 0.577088 v -1.13792 h 1.28016 z" />
      <path
         id="path224"
         style="font-weight:bold;font-size:4.06400013px;font-family:'Proxima Nova';dominant-baseline:hanging;text-anchor:middle;fill:#994d00"
         d="m 22.34638,122.06845 h 1.918208 v -0.508 h -1.34112 v -0.61367 h 1.312672 v -0.508 h -1.312672 v -0.57302 h 1.34112 v -0.508 H 22.34638 Z" />
    </g>
    <g
       id="text10"
       style="font-weight:bold;font-size:3.0480001px;font-family:'Proxima Nova';text-anchor:middle;fill:#994d00"
       aria-label="-  +">
      <path
         id="path227"
         style="font-size:larger"
         d="M 4.8089507,18.812371 H 5.6867748 V 18.41735 H 4.8089507 Z" />
      <path
         id="path229"
         style="font-size:larger"
         d="m 8.7536727,18.410035 h 0.6547104 v -0.28895 H 8.7536727 V 17.407853 H 8.4354615 v 0.713232 H 7.7770934 v 0.28895 h 0.6583681 v 0.742493 h 0.3182112 z" />
    </g>
    <g
       style="fill:#994d00;stroke:#fff7f0"
       id="g16"
       transform="translate(7.1066663,24)">
      <path
         id="circle12"
         d="M 3.5,0 A 3.5,3.5 0 0 1 0,3.5 3.5,3.5 0 0 1 -3.5,0 3.5,3.5 0 0 1 0,-3.5 3.5,3.5 0 0 1 3.5,0 Z"
         style="stroke:none" />
      <path
         id="line14"
         d="M 0,0 V -3.0625"
         style="stroke-width:0.4375;stroke-linecap:round" />
    </g>
    <g
       id="text18"
       style="font-weight:bold;font-size:3.0480001px;font-family:'Proxima Nova';text-anchor:middle;fill:#994d00"
       aria-label="LEVEL">
      <path
         id="path234"
         style="font-weight:bold;font-size:3.0480001px;font-family:'Proxima Nova';text-anchor:middle;fill:#994d00"
         d="m 16.103949,16.65 h 1.292352 v -0.381 h -0.859536 v -1.652016 h -0.432816 z" />
      <path
         id="path236"
         style="font-weight:bold;font-size:3.0480001px;font-family:'Proxima Nova';text-anchor:middle;fill:#994d00"
         d="m 17.699386,16.65 h 1.438656 v -0.381 h -1.00584 v -0.460248 h 0.984504 v -0.381 h -0.984504 v -0.429768 h 1.00584 v -0.381 h -1.438656 z" />
      <path
         id="path238"
         style="font-weight:bold;font-size:3.0480001px;font-family:'Proxima Nova';text-anchor:middle;fill:#994d00"
         d="m 20.049347,16.65 h 0.542544 l 0.783336,-2.033016 h -0.493776 l -0.560832,1.563624 -0.56388,-1.563624 h -0.493776 z" />
      <path
         id="path240"
         style="font-weight:bold;font-size:3.0480001px;font-family:'Proxima Nova';text-anchor:middle;fill:#994d00"
         d="m 21.562965,16.65 h 1.438656 v -0.381 h -1.00584 v -0.460248 h 0.984504 v -0.381 h -0.984504 v -0.429768 h 1.00584 v -0.381 h -1.438656 z" />
      <path
         id="path242"
         style="font-weight:bold;font-size:3.0480001px;font-family:'Proxima Nova';text-anchor:middle;fill:#994d00"
         d="m 23.342949,16.65 h 1.292352 v -0.381 h -0.859536 v -1.652016 h -0.432816 z" />
    </g>
    <g
       style="fill:#994d00;stroke:#fff7f0"
       id="g24"
       transform="translate(20.32,24)">
      <path
         id="circle20"
         d="M 6.3499999,0 A 6.3499999,6.3499999 0 0 1 0,6.3499999 6.3499999,6.3499999 0 0 1 -6.3499999,0 6.3499999,6.3499999 0 0 1 0,-6.3499999 6.3499999,6.3499999 0 0 1 6.3499999,0 Z"
         style="stroke:none" />
      <path
         id="line22"
         d="M 0,0 V -5.5562501"
         style="stroke-width:0.79374999;stroke-linecap:round" />
    </g>
    <g
       id="text26"
       style="font-weight:bold;font-size:2.37066674px;font-family:'Proxima Nova';text-anchor:middle;fill:#994d00"
       aria-label="CLAMP">
      <path
         id="path247"
         style="font-weight:bold;font-size:2.37066674px;font-family:'Proxima Nova';text-anchor:middle;fill:#994d00"
         d="m 30.457337,20.028448 c 0.348488,0 0.547624,-0.192024 0.661416,-0.388789 l -0.289221,-0.13987 c -0.06638,0.130387 -0.208619,0.229955 -0.372195,0.229955 -0.286851,0 -0.495469,-0.220472 -0.495469,-0.519176 0,-0.298704 0.208618,-0.519176 0.495469,-0.519176 0.163576,0 0.305816,0.101939 0.372195,0.229955 l 0.289221,-0.14224 c -0.111421,-0.196766 -0.312928,-0.386419 -0.661416,-0.386419 -0.474133,0 -0.841587,0.331893 -0.841587,0.81788 0,0.485987 0.367454,0.81788 0.841587,0.81788 z" />
      <path
         id="path249"
         style="font-weight:bold;font-size:2.37066674px;font-family:'Proxima Nova';text-anchor:middle;fill:#994d00"
         d="m 31.321445,20 h 1.005163 V 19.703667 H 31.65808 v -1.284902 h -0.336635 z" />
      <path
         id="path251"
         style="font-weight:bold;font-size:2.37066674px;font-family:'Proxima Nova';text-anchor:middle;fill:#994d00"
         d="m 33.652848,20 h 0.384048 L 33.427634,18.418765 H 33.005656 L 32.394024,20 h 0.384048 l 0.09957,-0.267885 h 0.67801 z m -0.436203,-1.2446 0.246549,0.680381 h -0.493098 z" />
      <path
         id="path253"
         style="font-weight:bold;font-size:2.37066674px;font-family:'Proxima Nova';text-anchor:middle;fill:#994d00"
         d="m 35.557901,20 h 0.339005 v -1.581235 h -0.474133 l -0.384048,0.955379 -0.384048,-0.955379 H 34.182914 V 20 h 0.336634 V 18.892899 L 34.965234,20 h 0.146981 l 0.445686,-1.107101 z" />
      <path
         id="path255"
         style="font-weight:bold;font-size:2.37066674px;font-family:'Proxima Nova';text-anchor:middle;fill:#994d00"
         d="m 36.210945,20 h 0.336635 v -0.561848 h 0.403013 c 0.341376,0 0.53103,-0.234696 0.53103,-0.509693 0,-0.277368 -0.187283,-0.509694 -0.53103,-0.509694 h -0.739648 z m 0.926931,-1.071541 c 0,0.130386 -0.09957,0.21336 -0.232325,0.21336 H 36.54758 v -0.42672 h 0.357971 c 0.132757,0 0.232325,0.0806 0.232325,0.21336 z" />
    </g>
    <path
       id="circle28"
       d="m 36.033333,24 a 2.5,2.5 0 0 1 -2.5,2.5 2.5,2.5 0 0 1 -2.5,-2.5 2.5,2.5 0 0 1 2.5,-2.5 2.5,2.5 0 0 1 2.5,2.5 z"
       style="fill:#994d00;stroke:#994d00;stroke-width:1" />
    <g
       id="text30"
       style="font-weight:bold;font-size:2.37066674px;font-family:'Proxima Nova';text-anchor:middle;fill:#994d00"
       aria-label="CV">
      <path
         id="path259"
         style="font-weight:bold;font-size:2.37066674px;font-family:'Proxima Nova';text-anchor:middle;fill:#994d00"
         d="m 6.408283,34.828447 c 0.348488,0 0.547624,-0.192024 0.661416,-0.388789 L 6.7804776,34.299789 c -0.066379,0.130386 -0.2086186,0.229954 -0.3721946,0.229954 -0.2868507,0 -0.4954694,-0.220472 -0.4954694,-0.519176 0,-0.298704 0.2086187,-0.519176 0.4954694,-0.519176 0.163576,0 0.305816,0.101939 0.3721946,0.229955 L 7.069699,33.579106 C 6.9582776,33.382341 6.756771,33.192687 6.408283,33.192687 c -0.4741334,0 -0.8415867,0.331894 -0.8415867,0.81788 0,0.485987 0.3674533,0.81788 0.8415867,0.81788 z" />
      <path
         id="path261"
         style="font-weight:bold;font-size:2.37066674px;font-family:'Proxima Nova';text-anchor:middle;fill:#994d00"
         d="M 7.7064452,34.799999 H 8.1284239 L 8.7376852,33.218765 H 8.3536372 L 7.9174345,34.434917 7.4788612,33.218765 h -0.384048 z" />
    </g>
    <g
       style="fill:#fff7f0;stroke:#994d00;stroke-width:0.20999999"
       id="g38"
       transform="translate(7.1066663,40)">
      <path
         id="circle32"
         d="M 4.0949998,0 A 4.0949998,4.0949998 0 0 1 0,4.0949998 4.0949998,4.0949998 0 0 1 -4.0949998,0 4.0949998,4.0949998 0 0 1 0,-4.0949998 4.0949998,4.0949998 0 0 1 4.0949998,0 Z"
         style="" />
      <path
         id="circle34"
         d="M 2.925,0 A 2.925,2.925 0 0 1 0,2.925 2.925,2.925 0 0 1 -2.925,0 2.925,2.925 0 0 1 0,-2.925 2.925,2.925 0 0 1 2.925,0 Z"
         style="" />
      <path
         id="circle36"
         d="M 1.755,0 A 1.755,1.755 0 0 1 0,1.755 1.755,1.755 0 0 1 -1.755,0 1.755,1.755 0 0 1 0,-1.755 1.755,1.755 0 0 1 1.755,0 Z"
         style="fill:#994d00" />
    </g>
    <path
       id="rect40"
       d="m 15.945,32.044556 h 8.75 c 0.554,0 1,0.446 1,1 V 44.375 c 0,0.554 -0.446,1 -1,1 h -8.75 c -0.554,0 -1,-0.446 -1,-1 V 33.044556 c 0,-0.554 0.446,-1 1,-1 z"
       style="fill:#994d00;stroke:#fff7f0;stroke-width:0.34999999" />
    <g
       id="text42"
       style="font-weight:bold;font-size:2.37066674px;font-family:'Proxima Nova';text-anchor:middle;fill:#fff7f0"
       aria-label="OUT">
      <path
         id="path268"
         style="font-weight:bold;font-size:2.37066674px;font-family:'Proxima Nova';text-anchor:middle;fill:#fff7f0"
         d="m 17.935016,34.010567 c 0,0.476504 0.348488,0.81788 0.824992,0.81788 0.478875,0 0.827363,-0.341376 0.827363,-0.81788 0,-0.476504 -0.348488,-0.81788 -0.827363,-0.81788 -0.476504,0 -0.824992,0.341376 -0.824992,0.81788 z m 1.306238,0 c 0,0.293963 -0.189654,0.519176 -0.481246,0.519176 -0.291592,0 -0.478874,-0.225213 -0.478874,-0.519176 0,-0.296333 0.187282,-0.519176 0.478874,-0.519176 0.291592,0 0.481246,0.222843 0.481246,0.519176 z" />
      <path
         id="path270"
         style="font-weight:bold;font-size:2.37066674px;font-family:'Proxima Nova';text-anchor:middle;fill:#fff7f0"
         d="m 19.825919,34.169402 c 0,0.388789 0.232326,0.659045 0.713571,0.659045 0.481246,0 0.713571,-0.267885 0.713571,-0.661416 v -0.948266 h -0.343747 v 0.938784 c 0,0.220472 -0.125645,0.372194 -0.369824,0.372194 -0.244179,0 -0.372195,-0.151722 -0.372195,-0.372194 v -0.938784 h -0.341376 z" />
      <path
         id="path272"
         style="font-weight:bold;font-size:2.37066674px;font-family:'Proxima Nova';text-anchor:middle;fill:#fff7f0"
         d="m 21.92733,34.799999 h 0.339006 v -1.284901 h 0.459909 V 33.218765 H 21.46505 v 0.296333 h 0.46228 z" />
    </g>
    <g
       style="fill:#fff7f0;stroke:#994d00;stroke-width:0.20999999"
       id="g50"
       transform="translate(20.32,40)">
      <path
         id="circle44"
         d="M 4.0949998,0 A 4.0949998,4.0949998 0 0 1 0,4.0949998 4.0949998,4.0949998 0 0 1 -4.0949998,0 4.0949998,4.0949998 0 0 1 0,-4.0949998 4.0949998,4.0949998 0 0 1 4.0949998,0 Z"
         style="" />
      <path
         id="circle46"
         d="M 2.925,0 A 2.925,2.925 0 0 1 0,2.925 2.925,2.925 0 0 1 -2.925,0 2.925,2.925 0 0 1 0,-2.925 2.925,2.925 0 0 1 2.925,0 Z"
         style="" />
      <path
         id="circle48"
         d="M 1.755,0 A 1.755,1.755 0 0 1 0,1.755 1.755,1.755 0 0 1 -1.755,0 1.755,1.755 0 0 1 0,-1.755 1.755,1.755 0 0 1 1.755,0 Z"
         style="fill:#994d00" />
    </g>
    <g
       id="text52"
       style="font-weight:bold;font-size:2.37066674px;font-family:'Proxima Nova';text-anchor:middle;fill:#994d00"
       aria-label="UNI">
      <path
         id="path278"
         style="font-weight:bold;font-size:2.37066674px;font-family:'Proxima Nova';text-anchor:middle;fill:#994d00"
         d="m 31.633984,35.194403 c 0,0.38879 0.232326,0.659046 0.713571,0.659046 0.481245,0 0.713571,-0.267886 0.713571,-0.661416 v -0.948267 h -0.343747 v 0.938784 c 0,0.220472 -0.125645,0.372195 -0.369824,0.372195 -0.244179,0 -0.372195,-0.151723 -0.372195,-0.372195 v -0.938784 h -0.341376 z" />
      <path
         id="path280"
         style="font-weight:bold;font-size:2.37066674px;font-family:'Proxima Nova';text-anchor:middle;fill:#994d00"
         d="M 34.460819,35.825001 H 34.7856 v -1.581235 h -0.336634 v 0.993309 L 33.71643,34.243766 h -0.346118 v 1.581235 h 0.336635 v -1.03124 z" />
      <path
         id="path282"
         style="font-weight:bold;font-size:2.37066674px;font-family:'Proxima Nova';text-anchor:middle;fill:#994d00"
         d="m 35.09738,35.825001 h 0.336635 V 34.243766 H 35.09738 Z" />
    </g>
    <g
       id="text54"
       style="font-weight:bold;font-size:2.37066674px;font-family:'Proxima Nova';dominant-baseline:hanging;text-anchor:middle;fill:#994d00"
       aria-label="BI">
      <path
         id="path285"
         style="font-weight:bold;font-size:2.37066674px;font-family:'Proxima Nova';dominant-baseline:hanging;text-anchor:middle;fill:#994d00"
         d="m 32.580862,45.673261 h 0.858181 c 0.301075,0 0.45991,-0.189654 0.45991,-0.42672 0,-0.199136 -0.135128,-0.362712 -0.303446,-0.38879 0.149352,-0.03082 0.272627,-0.163576 0.272627,-0.362712 0,-0.210989 -0.154093,-0.403013 -0.455168,-0.403013 h -0.832104 z m 0.336635,-0.948267 v -0.343747 h 0.421978 c 0.113792,0 0.184912,0.07349 0.184912,0.173059 0,0.09957 -0.07112,0.170688 -0.184912,0.170688 z m 0,0.656675 v -0.367454 h 0.433832 c 0.132757,0 0.203877,0.08534 0.203877,0.184912 0,0.113792 -0.07586,0.182542 -0.203877,0.182542 z" />
      <path
         id="path287"
         style="font-weight:bold;font-size:2.37066674px;font-family:'Proxima Nova';dominant-baseline:hanging;text-anchor:middle;fill:#994d00"
         d="m 34.150503,45.673261 h 0.336634 v -1.581235 h -0.336634 z" />
    </g>
    <g
       style="fill:#fff7f0;stroke:#994d00"
       id="g68"
       transform="translate(33.533334,40)">
      <path
         id="rect56"
         d="m -1.125,-2.8125 h 2.25 c 0.103875,0 0.1875,0.083625 0.1875,0.1875 v 5.25 c 0,0.103875 -0.083625,0.1875 -0.1875,0.1875 h -2.25 c -0.103875,0 -0.1875,-0.083625 -0.1875,-0.1875 v -5.25 c 0,-0.103875 0.083625,-0.1875 0.1875,-0.1875 z"
         style="stroke-width:0.375" />
      <path
         id="line58"
         d="m -0.875,-2.25 h 1.75"
         style="stroke-width:0.25;stroke-linecap:round" />
      <path
         id="line60"
         d="m -0.875,-1.75 h 1.75"
         style="stroke-width:0.25;stroke-linecap:round" />
      <path
         id="line62"
         d="m -0.875,-1.25 h 1.75"
         style="stroke-width:0.25;stroke-linecap:round" />
      <path
         id="line64"
         d="m -0.875,-0.75 h 1.75"
         style="stroke-width:0.25;stroke-linecap:round" />
      <path
         id="line66"
         d="m -0.875,-0.25 h 1.75"
         style="stroke-width:0.25;stroke-linecap:round" />
    </g>
    <path
       id="line70"
       d="M 0,48 H 40.639999"
       style="stroke:#994d00;stroke-width:0.34999999" />
    <g
       id="text74"
       style="font-weight:bold;font-size:3.0480001px;font-family:'Proxima Nova';text-anchor:middle;fill:#994d00"
       aria-label="-  +">
      <path
         id="path297"
         style="font-size:larger"
         d="M 4.8089507,54.812371 H 5.6867748 V 54.41735 H 4.8089507 Z" />
      <path
         id="path299"
         style="font-size:larger"
         d="m 8.7536727,54.410035 h 0.6547104 v -0.28895 H 8.7536727 V 53.407853 H 8.4354615 v 0.713232 H 7.7770934 v 0.28895 h 0.6583681 v 0.742493 h 0.3182112 z" />
    </g>
    <g
       style="fill:#994d00;stroke:#fff7f0"
       id="g80"
       transform="translate(7.1066663,60)">
      <path
         id="circle76"
         d="M 3.5,0 A 3.5,3.5 0 0 1 0,3.5 3.5,3.5 0 0 1 -3.5,0 3.5,3.5 0 0 1 0,-3.5 3.5,3.5 0 0 1 3.5,0 Z"
         style="stroke:none" />
      <path
         id="line78"
         d="M 0,0 V -3.0625"
         style="stroke-width:0.4375;stroke-linecap:round" />
    </g>
    <g
       id="text82"
       style="font-weight:bold;font-size:3.0480001px;font-family:'Proxima Nova';text-anchor:middle;fill:#994d00"
       aria-label="LEVEL">
      <path
         id="path304"
         style="font-weight:bold;font-size:3.0480001px;font-family:'Proxima Nova';text-anchor:middle;fill:#994d00"
         d="m 16.103949,52.650002 h 1.292352 v -0.381 h -0.859536 v -1.652017 h -0.432816 z" />
      <path
         id="path306"
         style="font-weight:bold;font-size:3.0480001px;font-family:'Proxima Nova';text-anchor:middle;fill:#994d00"
         d="m 17.699386,52.650002 h 1.438656 v -0.381 h -1.00584 v -0.460249 h 0.984504 v -0.381 h -0.984504 v -0.429768 h 1.00584 v -0.381 h -1.438656 z" />
      <path
         id="path308"
         style="font-weight:bold;font-size:3.0480001px;font-family:'Proxima Nova';text-anchor:middle;fill:#994d00"
         d="m 20.049347,52.650002 h 0.542544 l 0.783336,-2.033017 h -0.493776 l -0.560832,1.563625 -0.56388,-1.563625 h -0.493776 z" />
      <path
         id="path310"
         style="font-weight:bold;font-size:3.0480001px;font-family:'Proxima Nova';text-anchor:middle;fill:#994d00"
         d="m 21.562965,52.650002 h 1.438656 v -0.381 h -1.00584 v -0.460249 h 0.984504 v -0.381 h -0.984504 v -0.429768 h 1.00584 v -0.381 h -1.438656 z" />
      <path
         id="path312"
         style="font-weight:bold;font-size:3.0480001px;font-family:'Proxima Nova';text-anchor:middle;fill:#994d00"
         d="m 23.342949,52.650002 h 1.292352 v -0.381 h -0.859536 v -1.652017 h -0.432816 z" />
    </g>
    <g
       style="fill:#994d00;stroke:#fff7f0"
       id="g88"
       transform="translate(20.32,60)">
      <path
         id="circle84"
         d="M 6.3499999,0 A 6.3499999,6.3499999 0 0 1 0,6.3499999 6.3499999,6.3499999 0 0 1 -6.3499999,0 6.3499999,6.3499999 0 0 1 0,-6.3499999 6.3499999,6.3499999 0 0 1 6.3499999,0 Z"
         style="stroke:none" />
      <path
         id="line86"
         d="M 0,0 V -5.5562501"
         style="stroke-width:0.79374999;stroke-linecap:round" />
    </g>
    <g
       id="text90"
       style="font-weight:bold;font-size:2.37066674px;font-family:'Proxima Nova';text-anchor:middle;fill:#994d00"
       aria-label="CLAMP">
      <path
         id="path317"
         style="font-weight:bold;font-size:2.37066674px;font-family:'Proxima Nova';text-anchor:middle;fill:#994d00"
         d="m 30.457337,56.028448 c 0.348488,0 0.547624,-0.192024 0.661416,-0.388789 l -0.289221,-0.13987 c -0.06638,0.130387 -0.208619,0.229955 -0.372195,0.229955 -0.286851,0 -0.495469,-0.220472 -0.495469,-0.519176 0,-0.298704 0.208618,-0.519176 0.495469,-0.519176 0.163576,0 0.305816,0.101939 0.372195,0.229955 l 0.289221,-0.14224 c -0.111421,-0.196766 -0.312928,-0.386419 -0.661416,-0.386419 -0.474133,0 -0.841587,0.331893 -0.841587,0.81788 0,0.485987 0.367454,0.81788 0.841587,0.81788 z" />
      <path
         id="path319"
         style="font-weight:bold;font-size:2.37066674px;font-family:'Proxima Nova';text-anchor:middle;fill:#994d00"
         d="m 31.321445,56 h 1.005163 V 55.703667 H 31.65808 v -1.284902 h -0.336635 z" />
      <path
         id="path321"
         style="font-weight:bold;font-size:2.37066674px;font-family:'Proxima Nova';text-anchor:middle;fill:#994d00"
         d="m 33.652848,56 h 0.384048 L 33.427634,54.418765 H 33.005656 L 32.394024,56 h 0.384048 l 0.09957,-0.267885 h 0.67801 z m -0.436203,-1.2446 0.246549,0.680381 h -0.493098 z" />
      <path
         id="path323"
         style="font-weight:bold;font-size:2.37066674px;font-family:'Proxima Nova';text-anchor:middle;fill:#994d00"
         d="m 35.557901,56 h 0.339005 v -1.581235 h -0.474133 l -0.384048,0.955379 -0.384048,-0.955379 H 34.182914 V 56 h 0.336634 V 54.892899 L 34.965234,56 h 0.146981 l 0.445686,-1.107101 z" />
      <path
         id="path325"
         style="font-weight:bold;font-size:2.37066674px;font-family:'Proxima Nova';text-anchor:middle;fill:#994d00"
         d="m 36.210945,56 h 0.336635 v -0.561848 h 0.403013 c 0.341376,0 0.53103,-0.234696 0.53103,-0.509693 0,-0.277368 -0.187283,-0.509694 -0.53103,-0.509694 h -0.739648 z m 0.926931,-1.071541 c 0,0.130386 -0.09957,0.21336 -0.232325,0.21336 H 36.54758 v -0.42672 h 0.357971 c 0.132757,0 0.232325,0.0806 0.232325,0.21336 z" />
    </g>
    <path
       id="circle92"
       d="m 36.033333,60 a 2.5,2.5 0 0 1 -2.5,2.5 2.5,2.5 0 0 1 -2.5,-2.5 2.5,2.5 0 0 1 2.5,-2.5 2.5,2.5 0 0 1 2.5,2.5 z"
       style="fill:#994d00;stroke:#994d00;stroke-width:1" />
    <g
       id="text94"
       style="font-weight:bold;font-size:2.37066674px;font-family:'Proxima Nova';text-anchor:middle;fill:#994d00"
       aria-label="CV">
      <path
         id="path329"
         style="font-weight:bold;font-size:2.37066674px;font-family:'Proxima Nova';text-anchor:middle;fill:#994d00"
         d="m 6.408283,70.828451 c 0.348488,0 0.547624,-0.192024 0.661416,-0.388789 l -0.2892214,-0.13987 c -0.066379,0.130387 -0.2086186,0.229955 -0.3721946,0.229955 -0.2868507,0 -0.4954694,-0.220472 -0.4954694,-0.519176 0,-0.298704 0.2086187,-0.519176 0.4954694,-0.519176 0.163576,0 0.305816,0.101939 0.3721946,0.229955 L 7.069699,69.57911 C 6.9582776,69.382344 6.756771,69.192691 6.408283,69.192691 c -0.4741334,0 -0.8415867,0.331893 -0.8415867,0.81788 0,0.485987 0.3674533,0.81788 0.8415867,0.81788 z" />
      <path
         id="path331"
         style="font-weight:bold;font-size:2.37066674px;font-family:'Proxima Nova';text-anchor:middle;fill:#994d00"
         d="M 7.7064452,70.800003 H 8.1284239 L 8.7376852,69.218768 H 8.3536372 L 7.9174345,70.43492 7.4788612,69.218768 h -0.384048 z" />
    </g>
    <g
       style="fill:#fff7f0;stroke:#994d00;stroke-width:0.20999999"
       id="g102"
       transform="translate(7.1066663,76)">
      <path
         id="circle96"
         d="M 4.0949998,0 A 4.0949998,4.0949998 0 0 1 0,4.0949998 4.0949998,4.0949998 0 0 1 -4.0949998,0 4.0949998,4.0949998 0 0 1 0,-4.0949998 4.0949998,4.0949998 0 0 1 4.0949998,0 Z"
         style="" />
      <path
         id="circle98"
         d="M 2.925,0 A 2.925,2.925 0 0 1 0,2.925 2.925,2.925 0 0 1 -2.925,0 2.925,2.925 0 0 1 0,-2.925 2.925,2.925 0 0 1 2.925,0 Z"
         style="" />
      <path
         id="circle100"
         d="M 1.755,0 A 1.755,1.755 0 0 1 0,1.755 1.755,1.755 0 0 1 -1.755,0 1.755,1.755 0 0 1 0,-1.755 1.755,1.755 0 0 1 1.755,0 Z"
         style="fill:#994d00" />
    </g>
    <path
       id="rect104"
       d="m 15.945,68.044556 h 8.75 c 0.554,0 1,0.446 1,1 V 80.375 c 0,0.554 -0.446,1 -1,1 h -8.75 c -0.554,0 -1,-0.446 -1,-1 V 69.044556 c 0,-0.554 0.446,-1 1,-1 z"
       style="fill:#994d00;stroke:#fff7f0;stroke-width:0.34999999" />
    <g
       id="text106"
       style="font-weight:bold;font-size:2.37066674px;font-family:'Proxima Nova';text-anchor:middle;fill:#fff7f0"
       aria-label="OUT">
      <path
         id="path338"
         style="font-weight:bold;font-size:2.37066674px;font-family:'Proxima Nova';text-anchor:middle;fill:#fff7f0"
         d="m 17.935016,70.010571 c 0,0.476504 0.348488,0.81788 0.824992,0.81788 0.478875,0 0.827363,-0.341376 0.827363,-0.81788 0,-0.476504 -0.348488,-0.81788 -0.827363,-0.81788 -0.476504,0 -0.824992,0.341376 -0.824992,0.81788 z m 1.306238,0 c 0,0.293963 -0.189654,0.519176 -0.481246,0.519176 -0.291592,0 -0.478874,-0.225213 -0.478874,-0.519176 0,-0.296333 0.187282,-0.519176 0.478874,-0.519176 0.291592,0 0.481246,0.222843 0.481246,0.519176 z" />
      <path
         id="path340"
         style="font-weight:bold;font-size:2.37066674px;font-family:'Proxima Nova';text-anchor:middle;fill:#fff7f0"
         d="m 19.825919,70.169406 c 0,0.388789 0.232326,0.659045 0.713571,0.659045 0.481246,0 0.713571,-0.267885 0.713571,-0.661416 v -0.948267 h -0.343747 v 0.938784 c 0,0.220472 -0.125645,0.372195 -0.369824,0.372195 -0.244179,0 -0.372195,-0.151723 -0.372195,-0.372195 v -0.938784 h -0.341376 z" />
      <path
         id="path342"
         style="font-weight:bold;font-size:2.37066674px;font-family:'Proxima Nova';text-anchor:middle;fill:#fff7f0"
         d="m 21.92733,70.800003 h 0.339006 v -1.284901 h 0.459909 V 69.218768 H 21.46505 v 0.296334 h 0.46228 z" />
    </g>
    <g
       style="fill:#fff7f0;stroke:#994d00;stroke-width:0.20999999"
       id="g114"
       transform="translate(20.32,76)">
      <path
         id="circle108"
         d="M 4.0949998,0 A 4.0949998,4.0949998 0 0 1 0,4.0949998 4.0949998,4.0949998 0 0 1 -4.0949998,0 4.0949998,4.0949998 0 0 1 0,-4.0949998 4.0949998,4.0949998 0 0 1 4.0949998,0 Z"
         style="" />
      <path
         id="circle110"
         d="M 2.925,0 A 2.925,2.925 0 0 1 0,2.925 2.925,2.925 0 0 1 -2.925,0 2.925,2.925 0 0 1 0,-2.925 2.925,2.925 0 0 1 2.925,0 Z"
         style="" />
      <path
         id="circle112"
         d="M 1.755,0 A 1.755,1.755 0 0 1 0,1.755 1.755,1.755 0 0 1 -1.755,0 1.755,1.755 0 0 1 0,-1.755 1.755,1.755 0 0 1 1.755,0 Z"
         style="fill:#994d00" />
    </g>
    <g
       id="text116"
       style="font-weight:bold;font-size:2.37066674px;font-family:'Proxima Nova';text-anchor:middle;fill:#994d00"
       aria-label="UNI">
      <path
         id="path348"
         style="font-weight:bold;font-size:2.37066674px;font-family:'Proxima Nova';text-anchor:middle;fill:#994d00"
         d="m 31.633984,71.1944 c 0,0.388789 0.232326,0.659045 0.713571,0.659045 0.481245,0 0.713571,-0.267885 0.713571,-0.661416 v -0.948267 h -0.343747 v 0.938784 c 0,0.220472 -0.125645,0.372195 -0.369824,0.372195 -0.244179,0 -0.372195,-0.151723 -0.372195,-0.372195 v -0.938784 h -0.341376 z" />
      <path
         id="path350"
         style="font-weight:bold;font-size:2.37066674px;font-family:'Proxima Nova';text-anchor:middle;fill:#994d00"
         d="M 34.460819,71.824997 H 34.7856 v -1.581235 h -0.336634 v 0.99331 l -0.732536,-0.99331 h -0.346118 v 1.581235 h 0.336635 v -1.03124 z" />
      <path
         id="path352"
         style="font-weight:bold;font-size:2.37066674px;font-family:'Proxima Nova';text-anchor:middle;fill:#994d00"
         d="m 35.09738,71.824997 h 0.336635 V 70.243762 H 35.09738 Z" />
    </g>
    <g
       id="text118"
       style="font-weight:bold;font-size:2.37066674px;font-family:'Proxima Nova';dominant-baseline:hanging;text-anchor:middle;fill:#994d00"
       aria-label="BI">
      <path
         id="path355"
         style="font-weight:bold;font-size:2.37066674px;font-family:'Proxima Nova';dominant-baseline:hanging;text-anchor:middle;fill:#994d00"
         d="m 32.580862,81.673264 h 0.858181 c 0.301075,0 0.45991,-0.189653 0.45991,-0.42672 0,-0.199136 -0.135128,-0.362712 -0.303446,-0.388789 0.149352,-0.03082 0.272627,-0.163576 0.272627,-0.362712 0,-0.210989 -0.154093,-0.403013 -0.455168,-0.403013 h -0.832104 z m 0.336635,-0.948266 v -0.343747 h 0.421978 c 0.113792,0 0.184912,0.07349 0.184912,0.173059 0,0.09957 -0.07112,0.170688 -0.184912,0.170688 z m 0,0.656674 v -0.367453 h 0.433832 c 0.132757,0 0.203877,0.08534 0.203877,0.184912 0,0.113792 -0.07586,0.182541 -0.203877,0.182541 z" />
      <path
         id="path357"
         style="font-weight:bold;font-size:2.37066674px;font-family:'Proxima Nova';dominant-baseline:hanging;text-anchor:middle;fill:#994d00"
         d="m 34.150503,81.673264 h 0.336634 V 80.09203 h -0.336634 z" />
    </g>
    <g
       style="fill:#fff7f0;stroke:#994d00"
       id="g132"
       transform="translate(33.533334,76)">
      <path
         id="rect120"
         d="m -1.125,-2.8125 h 2.25 c 0.103875,0 0.1875,0.083625 0.1875,0.1875 v 5.25 c 0,0.103875 -0.083625,0.1875 -0.1875,0.1875 h -2.25 c -0.103875,0 -0.1875,-0.083625 -0.1875,-0.1875 v -5.25 c 0,-0.103875 0.083625,-0.1875 0.1875,-0.1875 z"
         style="stroke-width:0.375" />
      <path
         id="line122"
         d="m -0.875,-2.25 h 1.75"
         style="stroke-width:0.25;stroke-linecap:round" />
      <path
         id="line124"
         d="m -0.875,-1.75 h 1.75"
         style="stroke-width:0.25;stroke-linecap:round" />
      <path
         id="line126"
         d="m -0.875,-1.25 h 1.75"
         style="stroke-width:0.25;stroke-linecap:round" />
      <path
         id="line128"
         d="m -0.875,-0.75 h 1.75"
         style="stroke-width:0.25;stroke-linecap:round" />
      <path
         id="line130"
         d="m -0.875,-0.25 h 1.75"
         style="stroke-width:0.25;stroke-linecap:round" />
    </g>
    <path
       id="line134"
       d="M 0,84 H 40.639999"
       style="stroke:#994d00;stroke-width:0.34999999" />
    <g
       id="text138"
       style="font-weight:bold;font-size:3.0480001px;font-family:'Proxima Nova';text-anchor:middle;fill:#994d00"
       aria-label="-  +">
      <path
         id="path367"
         style="font-size:larger"
         d="M 4.8089507,90.812371 H 5.6867748 V 90.41735 H 4.8089507 Z" />
      <path
         id="path369"
         style="font-size:larger"
         d="m 8.7536727,90.410035 h 0.6547104 v -0.28895 H 8.7536727 V 89.407853 H 8.4354615 v 0.713232 H 7.7770934 v 0.28895 h 0.6583681 v 0.742493 h 0.3182112 z" />
    </g>
    <g
       style="fill:#994d00;stroke:#fff7f0"
       id="g144"
       transform="translate(7.1066663,96)">
      <path
         id="circle140"
         d="M 3.5,0 A 3.5,3.5 0 0 1 0,3.5 3.5,3.5 0 0 1 -3.5,0 3.5,3.5 0 0 1 0,-3.5 3.5,3.5 0 0 1 3.5,0 Z"
         style="stroke:none" />
      <path
         id="line142"
         d="M 0,0 V -3.0625"
         style="stroke-width:0.4375;stroke-linecap:round" />
    </g>
    <g
       id="text146"
       style="font-weight:bold;font-size:3.0480001px;font-family:'Proxima Nova';text-anchor:middle;fill:#994d00"
       aria-label="LEVEL">
      <path
         id="path374"
         style="font-weight:bold;font-size:3.0480001px;font-family:'Proxima Nova';text-anchor:middle;fill:#994d00"
         d="m 16.103949,88.650002 h 1.292352 v -0.381 h -0.859536 v -1.652017 h -0.432816 z" />
      <path
         id="path376"
         style="font-weight:bold;font-size:3.0480001px;font-family:'Proxima Nova';text-anchor:middle;fill:#994d00"
         d="m 17.699386,88.650002 h 1.438656 v -0.381 h -1.00584 v -0.460249 h 0.984504 v -0.381 h -0.984504 v -0.429768 h 1.00584 v -0.381 h -1.438656 z" />
      <path
         id="path378"
         style="font-weight:bold;font-size:3.0480001px;font-family:'Proxima Nova';text-anchor:middle;fill:#994d00"
         d="m 20.049347,88.650002 h 0.542544 l 0.783336,-2.033017 h -0.493776 l -0.560832,1.563625 -0.56388,-1.563625 h -0.493776 z" />
      <path
         id="path380"
         style="font-weight:bold;font-size:3.0480001px;font-family:'Proxima Nova';text-anchor:middle;fill:#994d00"
         d="m 21.562965,88.650002 h 1.438656 v -0.381 h -1.00584 v -0.460249 h 0.984504 v -0.381 h -0.984504 v -0.429768 h 1.00584 v -0.381 h -1.438656 z" />
      <path
         id="path382"
         style="font-weight:bold;font-size:3.0480001px;font-family:'Proxima Nova';text-anchor:middle;fill:#994d00"
         d="m 23.342949,88.650002 h 1.292352 v -0.381 h -0.859536 v -1.652017 h -0.432816 z" />
    </g>
    <g
       style="fill:#994d00;stroke:#fff7f0"
       id="g152"
       transform="translate(20.32,96)">
      <path
         id="circle148"
         d="M 6.3499999,0 A 6.3499999,6.3499999 0 0 1 0,6.3499999 6.3499999,6.3499999 0 0 1 -6.3499999,0 6.3499999,6.3499999 0 0 1 0,-6.3499999 6.3499999,6.3499999 0 0 1 6.3499999,0 Z"
         style="stroke:none" />
      <path
         id="line150"
         d="M 0,0 V -5.5562501"
         style="stroke-width:0.79374999;stroke-linecap:round" />
    </g>
    <g
       id="text154"
       style="font-weight:bold;font-size:2.37066674px;font-family:'Proxima Nova';text-anchor:middle;fill:#994d00"
       aria-label="CLAMP">
      <path
         id="path387"
         style="font-weight:bold;font-size:2.37066674px;font-family:'Proxima Nova';text-anchor:middle;fill:#994d00"
         d="m 30.457337,92.028448 c 0.348488,0 0.547624,-0.192024 0.661416,-0.388789 l -0.289221,-0.13987 c -0.06638,0.130387 -0.208619,0.229955 -0.372195,0.229955 -0.286851,0 -0.495469,-0.220472 -0.495469,-0.519176 0,-0.298704 0.208618,-0.519176 0.495469,-0.519176 0.163576,0 0.305816,0.101939 0.372195,0.229955 l 0.289221,-0.14224 c -0.111421,-0.196766 -0.312928,-0.386419 -0.661416,-0.386419 -0.474133,0 -0.841587,0.331893 -0.841587,0.81788 0,0.485987 0.367454,0.81788 0.841587,0.81788 z" />
      <path
         id="path389"
         style="font-weight:bold;font-size:2.37066674px;font-family:'Proxima Nova';text-anchor:middle;fill:#994d00"
         d="m 31.321445,92 h 1.005163 V 91.703667 H 31.65808 v -1.284902 h -0.336635 z" />
      <path
         id="path391"
         style="font-weight:bold;font-size:2.37066674px;font-family:'Proxima Nova';text-anchor:middle;fill:#994d00"
         d="m 33.652848,92 h 0.384048 L 33.427634,90.418765 H 33.005656 L 32.394024,92 h 0.384048 l 0.09957,-0.267885 h 0.67801 z m -0.436203,-1.2446 0.246549,0.680381 h -0.493098 z" />
      <path
         id="path393"
         style="font-weight:bold;font-size:2.37066674px;font-family:'Proxima Nova';text-anchor:middle;fill:#994d00"
         d="m 35.557901,92 h 0.339005 v -1.581235 h -0.474133 l -0.384048,0.955379 -0.384048,-0.955379 H 34.182914 V 92 h 0.336634 V 90.892899 L 34.965234,92 h 0.146981 l 0.445686,-1.107101 z" />
      <path
         id="path395"
         style="font-weight:bold;font-size:2.37066674px;font-family:'Proxima Nova';text-anchor:middle;fill:#994d00"
         d="m 36.210945,92 h 0.336635 v -0.561848 h 0.403013 c 0.341376,0 0.53103,-0.234696 0.53103,-0.509693 0,-0.277368 -0.187283,-0.509694 -0.53103,-0.509694 h -0.739648 z m 0.926931,-1.071541 c 0,0.130386 -0.09957,0.21336 -0.232325,0.21336 H 36.54758 v -0.42672 h 0.357971 c 0.132757,0 0.232325,0.0806 0.232325,0.21336 z" />
    </g>
    <path
       id="circle156"
       d="m 36.033333,96 a 2.5,2.5 0 0 1 -2.5,2.5 2.5,2.5 0 0 1 -2.5,-2.5 2.5,2.5 0 0 1 2.5,-2.5 2.5,2.5 0 0 1 2.5,2.5 z"
       style="fill:#994d00;stroke:#994d00;stroke-width:1" />
    <g
       id="text158"
       style="font-weight:bold;font-size:2.37066674px;font-family:'Proxima Nova';text-anchor:middle;fill:#994d00"
       aria-label="CV">
      <path
         id="path399"
         style="font-weight:bold;font-size:2.37066674px;font-family:'Proxima Nova';text-anchor:middle;fill:#994d00"
         d="m 6.408283,106.82845 c 0.348488,0 0.547624,-0.19202 0.661416,-0.38879 l -0.2892214,-0.13987 c -0.066379,0.13039 -0.2086186,0.22996 -0.3721946,0.22996 -0.2868507,0 -0.4954694,-0.22047 -0.4954694,-0.51918 0,-0.2987 0.2086187,-0.51917 0.4954694,-0.51917 0.163576,0 0.305816,0.10193 0.3721946,0.22995 l 0.2892214,-0.14224 c -0.1114214,-0.19677 -0.312928,-0.38642 -0.661416,-0.38642 -0.4741334,0 -0.8415867,0.33189 -0.8415867,0.81788 0,0.48599 0.3674533,0.81788 0.8415867,0.81788 z" />
      <path
         id="path401"
         style="font-weight:bold;font-size:2.37066674px;font-family:'Proxima Nova';text-anchor:middle;fill:#994d00"
         d="m 7.7064452,106.8 h 0.4219787 l 0.6092613,-1.58123 h -0.384048 l -0.4362027,1.21615 -0.4385733,-1.21615 h -0.384048 z" />
    </g>
    <g
       style="fill:#fff7f0;stroke:#994d00;stroke-width:0.20999999"
       id="g166"
       transform="translate(7.1066663,112)">
      <path
         id="circle160"
         d="M 4.0949998,0 A 4.0949998,4.0949998 0 0 1 0,4.0949998 4.0949998,4.0949998 0 0 1 -4.0949998,0 4.0949998,4.0949998 0 0 1 0,-4.0949998 4.0949998,4.0949998 0 0 1 4.0949998,0 Z"
         style="" />
      <path
         id="circle162"
         d="M 2.925,0 A 2.925,2.925 0 0 1 0,2.925 2.925,2.925 0 0 1 -2.925,0 2.925,2.925 0 0 1 0,-2.925 2.925,2.925 0 0 1 2.925,0 Z"
         style="" />
      <path
         id="circle164"
         d="M 1.755,0 A 1.755,1.755 0 0 1 0,1.755 1.755,1.755 0 0 1 -1.755,0 1.755,1.755 0 0 1 0,-1.755 1.755,1.755 0 0 1 1.755,0 Z"
         style="fill:#994d00" />
    </g>
    <path
       id="rect168"
       d="m 15.945,104.04456 h 8.75 c 0.554,0 1,0.446 1,1 v 11.33045 c 0,0.554 -0.446,1 -1,1 h -8.75 c -0.554,0 -1,-0.446 -1,-1 v -11.33045 c 0,-0.554 0.446,-1 1,-1 z"
       style="fill:#994d00;stroke:#fff7f0;stroke-width:0.34999999" />
    <g
       id="text170"
       style="font-weight:bold;font-size:2.37066674px;font-family:'Proxima Nova';text-anchor:middle;fill:#fff7f0"
       aria-label="OUT">
      <path
         id="path408"
         style="font-weight:bold;font-size:2.37066674px;font-family:'Proxima Nova';text-anchor:middle;fill:#fff7f0"
         d="m 17.935016,106.01057 c 0,0.47651 0.348488,0.81788 0.824992,0.81788 0.478875,0 0.827363,-0.34137 0.827363,-0.81788 0,-0.4765 -0.348488,-0.81788 -0.827363,-0.81788 -0.476504,0 -0.824992,0.34138 -0.824992,0.81788 z m 1.306238,0 c 0,0.29396 -0.189654,0.51918 -0.481246,0.51918 -0.291592,0 -0.478874,-0.22522 -0.478874,-0.51918 0,-0.29633 0.187282,-0.51917 0.478874,-0.51917 0.291592,0 0.481246,0.22284 0.481246,0.51917 z" />
      <path
         id="path410"
         style="font-weight:bold;font-size:2.37066674px;font-family:'Proxima Nova';text-anchor:middle;fill:#fff7f0"
         d="m 19.825919,106.16941 c 0,0.38879 0.232326,0.65904 0.713571,0.65904 0.481246,0 0.713571,-0.26788 0.713571,-0.66141 v -0.94827 h -0.343747 v 0.93878 c 0,0.22047 -0.125645,0.3722 -0.369824,0.3722 -0.244179,0 -0.372195,-0.15173 -0.372195,-0.3722 v -0.93878 h -0.341376 z" />
      <path
         id="path412"
         style="font-weight:bold;font-size:2.37066674px;font-family:'Proxima Nova';text-anchor:middle;fill:#fff7f0"
         d="m 21.92733,106.8 h 0.339006 v -1.2849 h 0.459909 v -0.29633 H 21.46505 v 0.29633 h 0.46228 z" />
    </g>
    <g
       style="fill:#fff7f0;stroke:#994d00;stroke-width:0.20999999"
       id="g178"
       transform="translate(20.32,112)">
      <path
         id="circle172"
         d="M 4.0949998,0 A 4.0949998,4.0949998 0 0 1 0,4.0949998 4.0949998,4.0949998 0 0 1 -4.0949998,0 4.0949998,4.0949998 0 0 1 0,-4.0949998 4.0949998,4.0949998 0 0 1 4.0949998,0 Z"
         style="" />
      <path
         id="circle174"
         d="M 2.925,0 A 2.925,2.925 0 0 1 0,2.925 2.925,2.925 0 0 1 -2.925,0 2.925,2.925 0 0 1 0,-2.925 2.925,2.925 0 0 1 2.925,0 Z"
         style="" />
      <path
         id="circle176"
         d="M 1.755,0 A 1.755,1.755 0 0 1 0,1.755 1.755,1.755 0 0 1 -1.755,0 1.755,1.755 0 0 1 0,-1.755 1.755,1.755 0 0 1 1.755,0 Z"
         style="fill:#994d00" />
    </g>
    <g
       id="text180"
       style="font-weight:bold;font-size:2.37066674px;font-family:'Proxima Nova';text-anchor:middle;fill:#994d00"
       aria-label="UNI">
      <path
         id="path418"
         style="font-weight:bold;font-size:2.37066674px;font-family:'Proxima Nova';text-anchor:middle;fill:#994d00"
         d="m 31.633984,107.1944 c 0,0.38879 0.232326,0.65904 0.713571,0.65904 0.481245,0 0.713571,-0.26788 0.713571,-0.66141 v -0.94827 h -0.343747 v 0.93879 c 0,0.22047 -0.125645,0.37219 -0.369824,0.37219 -0.244179,0 -0.372195,-0.15172 -0.372195,-0.37219 v -0.93879 h -0.341376 z" />
      <path
         id="path420"
         style="font-weight:bold;font-size:2.37066674px;font-family:'Proxima Nova';text-anchor:middle;fill:#994d00"
         d="M 34.460819,107.825 H 34.7856 v -1.58124 h -0.336634 v 0.99331 l -0.732536,-0.99331 h -0.346118 v 1.58124 h 0.336635 v -1.03124 z" />
      <path
         id="path422"
         style="font-weight:bold;font-size:2.37066674px;font-family:'Proxima Nova';text-anchor:middle;fill:#994d00"
         d="m 35.09738,107.825 h 0.336635 v -1.58124 H 35.09738 Z" />
    </g>
    <g
       id="text182"
       style="font-weight:bold;font-size:2.37066674px;font-family:'Proxima Nova';dominant-baseline:hanging;text-anchor:middle;fill:#994d00"
       aria-label="BI">
      <path
         id="path425"
         style="font-weight:bold;font-size:2.37066674px;font-family:'Proxima Nova';dominant-baseline:hanging;text-anchor:middle;fill:#994d00"
         d="m 32.580862,117.67326 h 0.858181 c 0.301075,0 0.45991,-0.18965 0.45991,-0.42672 0,-0.19913 -0.135128,-0.36271 -0.303446,-0.38878 0.149352,-0.0308 0.272627,-0.16358 0.272627,-0.36272 0,-0.21099 -0.154093,-0.40301 -0.455168,-0.40301 h -0.832104 z m 0.336635,-0.94826 v -0.34375 h 0.421978 c 0.113792,0 0.184912,0.0735 0.184912,0.17306 0,0.0996 -0.07112,0.17069 -0.184912,0.17069 z m 0,0.65667 v -0.36745 h 0.433832 c 0.132757,0 0.203877,0.0853 0.203877,0.18491 0,0.11379 -0.07586,0.18254 -0.203877,0.18254 z" />
      <path
         id="path427"
         style="font-weight:bold;font-size:2.37066674px;font-family:'Proxima Nova';dominant-baseline:hanging;text-anchor:middle;fill:#994d00"
         d="m 34.150503,117.67326 h 0.336634 v -1.58123 h -0.336634 z" />
    </g>
    <g
       style="fill:#fff7f0;stroke:#994d00"
       id="g196"
       transform="translate(33.533334,112)">
      <path
         id="rect184"
         d="m -1.125,-2.8125 h 2.25 c 0.103875,0 0.1875,0.083625 0.1875,0.1875 v 5.25 c 0,0.103875 -0.083625,0.1875 -0.1875,0.1875 h -2.25 c -0.103875,0 -0.1875,-0.083625 -0.1875,-0.1875 v -5.25 c 0,-0.103875 0.083625,-0.1875 0.1875,-0.1875 z"
         style="stroke-width:0.375" />
      <path
         id="line186"
         d="m -0.875,-2.25 h 1.75"
         style="stroke-width:0.25;stroke-linecap:round" />
      <path
         id="line188"
         d="m -0.875,-1.75 h 1.75"
         style="stroke-width:0.25;stroke-linecap:round" />
      <path
         id="line190"
         d="m -0.875,-1.25 h 1.75"
         style="stroke-width:0.25;stroke-linecap:round" />
      <path
         id="line192"
         d="m -0.875,-0.75 h 1.75"
         style="stroke-width:0.25;stroke-linecap:round" />
      <path
         id="line194"
         d="m -0.875,-0.25 h 1.75"
         style="stroke-width:0.25;stroke-linecap:round" />
    </g>
  </g>
</svg>
