<?xml version="1.0" encoding="UTF-8" standalone="no"?>
<svg
   xmlns:dc="http://purl.org/dc/elements/1.1/"
   xmlns:cc="http://creativecommons.org/ns#"
   xmlns:rdf="http://www.w3.org/1999/02/22-rdf-syntax-ns#"
   xmlns:svg="http://www.w3.org/2000/svg"
   xmlns="http://www.w3.org/2000/svg"
   id="svg146"
   height="379.42913385826773"
   width="90.0"
   version="1.1">
  <metadata
     id="metadata152">
    <rdf:RDF>
      <cc:Work
         rdf:about="">
        <dc:format>image/svg+xml</dc:format>
        <dc:type
           rdf:resource="http://purl.org/dc/dcmitype/StillImage" />
      </cc:Work>
    </rdf:RDF>
  </metadata>
  <defs
     id="defs150" />
  <g
     id="g144"
     transform="scale(2.9527559)">
    <path
       id="rect2"
       d="M 0,0 H 30.48 V 128.5 H 0 Z"
       style="fill:#fffff0;stroke:#4d4d00;stroke-width:1" />
    <g
       id="text4"
       style="font-weight:bold;font-size:4.06400013px;font-family:'Proxima Nova';text-anchor:middle;fill:#4d4d00"
       aria-label="RANGER">
      <path
         id="path155"
         style="font-weight:bold;font-size:4.06400013px;font-family:'Proxima Nova';text-anchor:middle;fill:#4d4d00"
         d="m 8.9083828,9 h 0.662432 l -0.6096,-1.032256 c 0.292608,-0.069088 0.593344,-0.32512 0.593344,-0.8046721 0,-0.503936 -0.34544,-0.87376 -0.910336,-0.87376 H 7.3762548 V 9 h 0.577088 V 8.036832 h 0.422656 z m 0.056896,-1.8369281 c 0,0.227584 -0.174752,0.3657601 -0.4064,0.3657601 H 7.9533428 V 6.7973119 h 0.605536 c 0.231648,0 0.4064,0.138176 0.4064,0.36576 z" />
      <path
         id="path157"
         style="font-weight:bold;font-size:4.06400013px;font-family:'Proxima Nova';text-anchor:middle;fill:#4d4d00"
         d="M 11.857132,9 H 12.5155 L 11.471052,6.2893119 H 10.74766 L 9.6991483,9 h 0.6583677 l 0.170688,-0.459232 h 1.162304 z M 11.109356,6.8663999 11.532012,8.032768 H 10.6867 Z" />
      <path
         id="path159"
         style="font-weight:bold;font-size:4.06400013px;font-family:'Proxima Nova';text-anchor:middle;fill:#4d4d00"
         d="m 14.635257,9 h 0.556768 V 6.2893119 H 14.614937 V 7.992128 L 13.359161,6.2893119 H 12.765817 V 9 h 0.577088 V 7.2321599 Z" />
      <path
         id="path161"
         style="font-weight:bold;font-size:4.06400013px;font-family:'Proxima Nova';text-anchor:middle;fill:#4d4d00"
         d="m 15.596457,7.646688 c 0,0.85344 0.65024,1.406144 1.44272,1.406144 0.491744,0 0.877824,-0.2032 1.154176,-0.512064 V 7.500384 H 16.901001 V 8.00432 h 0.715264 v 0.32512 c -0.109728,0.1016 -0.337312,0.207264 -0.577088,0.207264 -0.491744,0 -0.849376,-0.377952 -0.849376,-0.890016 0,-0.5120641 0.357632,-0.8900161 0.849376,-0.8900161 0.288544,0 0.520192,0.16256 0.642112,0.353568 l 0.479552,-0.260096 c -0.2032,-0.321056 -0.556768,-0.605536 -1.121664,-0.605536 -0.79248,0 -1.44272,0.544576 -1.44272,1.4020801 z" />
      <path
         id="path163"
         style="font-weight:bold;font-size:4.06400013px;font-family:'Proxima Nova';text-anchor:middle;fill:#4d4d00"
         d="m 18.655443,9 h 1.918208 V 8.492 h -1.34112 V 7.878336 h 1.312672 V 7.3703359 h -1.312672 v -0.573024 h 1.34112 v -0.508 h -1.918208 z" />
      <path
         id="path165"
         style="font-weight:bold;font-size:4.06400013px;font-family:'Proxima Nova';text-anchor:middle;fill:#4d4d00"
         d="m 22.560883,9 h 0.662432 l -0.6096,-1.032256 c 0.292608,-0.069088 0.593344,-0.32512 0.593344,-0.8046721 0,-0.503936 -0.34544,-0.87376 -0.910336,-0.87376 H 21.028755 V 9 h 0.577088 V 8.036832 h 0.422656 z m 0.0569,-1.8369281 c 0,0.227584 -0.174752,0.3657601 -0.4064,0.3657601 H 21.605843 V 6.7973119 h 0.605536 c 0.231648,0 0.4064,0.138176 0.4064,0.36576 z" />
    </g>
    <g
       id="text6"
       style="font-weight:bold;font-size:4.06400013px;font-family:'Proxima Nova';dominant-baseline:hanging;text-anchor:middle;fill:#4d4d00"
       aria-label="DHE">
      <path
         id="path168"
         style="font-weight:bold;font-size:4.06400013px;font-family:'Proxima Nova';dominant-baseline:hanging;text-anchor:middle;fill:#4d4d00"
         d="m 11.376755,122.06845 h 1.068832 c 0.849376,0 1.438656,-0.53645 1.438656,-1.35331 0,-0.81687 -0.58928,-1.35738 -1.438656,-1.35738 h -1.068832 z m 0.577088,-0.508 v -1.69469 h 0.491744 c 0.556768,0 0.849376,0.36982 0.849376,0.84938 0,0.45923 -0.312928,0.84531 -0.849376,0.84531 z" />
      <path
         id="path170"
         style="font-weight:bold;font-size:4.06400013px;font-family:'Proxima Nova';dominant-baseline:hanging;text-anchor:middle;fill:#4d4d00"
         d="m 16.155003,122.06845 h 0.581152 v -2.71069 h -0.581152 v 1.06477 h -1.28016 v -1.06477 h -0.577088 v 2.71069 h 0.577088 v -1.13792 h 1.28016 z" />
      <path
         id="path172"
         style="font-weight:bold;font-size:4.06400013px;font-family:'Proxima Nova';dominant-baseline:hanging;text-anchor:middle;fill:#4d4d00"
         d="m 17.26638,122.06845 h 1.918208 v -0.508 h -1.34112 v -0.61367 h 1.312672 v -0.508 h -1.312672 v -0.57302 h 1.34112 v -0.508 H 17.26638 Z" />
    </g>
    <g
       id="text8"
       style="font-weight:bold;font-size:2.37066674px;font-family:'Proxima Nova';text-anchor:middle;fill:#4d4d00"
       aria-label="CV">
      <path
         id="path175"
         style="font-weight:bold;font-size:2.37066674px;font-family:'Proxima Nova';text-anchor:middle;fill:#4d4d00"
         d="m 8.3435208,16.828447 c 0.3484881,0 0.5476241,-0.192024 0.6614161,-0.388789 L 8.7157155,16.299789 c -0.066379,0.130386 -0.2086187,0.229954 -0.3721947,0.229954 -0.2868506,0 -0.4954693,-0.220472 -0.4954693,-0.519176 0,-0.298704 0.2086187,-0.519176 0.4954693,-0.519176 0.163576,0 0.3058161,0.101939 0.3721947,0.229955 l 0.2892214,-0.14224 c -0.1114214,-0.196765 -0.312928,-0.386419 -0.6614161,-0.386419 -0.4741333,0 -0.8415866,0.331894 -0.8415866,0.81788 0,0.485987 0.3674533,0.81788 0.8415866,0.81788 z" />
      <path
         id="path177"
         style="font-weight:bold;font-size:2.37066674px;font-family:'Proxima Nova';text-anchor:middle;fill:#4d4d00"
         d="m 9.6416831,16.799999 h 0.4219789 l 0.609261,-1.581234 H 10.288875 L 9.8526724,16.434917 9.4140991,15.218765 h -0.384048 z" />
    </g>
    <g
       style="fill:#fffff0;stroke:#4d4d00;stroke-width:0.20999999"
       id="g16"
       transform="translate(9.0419044,22)">
      <path
         id="circle10"
         d="M 4.0949998,0 A 4.0949998,4.0949998 0 0 1 0,4.0949998 4.0949998,4.0949998 0 0 1 -4.0949998,0 4.0949998,4.0949998 0 0 1 0,-4.0949998 4.0949998,4.0949998 0 0 1 4.0949998,0 Z"
         style="" />
      <path
         id="circle12"
         d="M 2.925,0 A 2.925,2.925 0 0 1 0,2.925 2.925,2.925 0 0 1 -2.925,0 2.925,2.925 0 0 1 0,-2.925 2.925,2.925 0 0 1 2.925,0 Z"
         style="" />
      <path
         id="circle14"
         d="M 1.755,0 A 1.755,1.755 0 0 1 0,1.755 1.755,1.755 0 0 1 -1.755,0 1.755,1.755 0 0 1 0,-1.755 1.755,1.755 0 0 1 1.755,0 Z"
         style="fill:#4d4d00" />
    </g>
    <g
       id="text20"
       style="font-weight:bold;font-size:3.0480001px;font-family:'Proxima Nova';text-anchor:middle;fill:#4d4d00"
       aria-label="-  +">
      <path
         id="path183"
         style="font-size:larger"
         d="m 19.140379,16.812371 h 0.877824 V 16.41735 h -0.877824 z" />
      <path
         id="path185"
         style="font-size:larger"
         d="m 23.085101,16.410035 h 0.654711 v -0.28895 H 23.085101 V 15.407853 H 22.76689 v 0.713232 h -0.658368 v 0.28895 h 0.658368 v 0.742493 h 0.318211 z" />
    </g>
    <g
       style="fill:#4d4d00;stroke:#fffff0"
       id="g26"
       transform="translate(21.438096,22)">
      <path
         id="circle22"
         d="M 3.5,0 A 3.5,3.5 0 0 1 0,3.5 3.5,3.5 0 0 1 -3.5,0 3.5,3.5 0 0 1 0,-3.5 3.5,3.5 0 0 1 3.5,0 Z"
         style="stroke:none" />
      <path
         id="line24"
         d="M 0,0 V -3.0625"
         style="stroke-width:0.4375;stroke-linecap:round" />
    </g>
    <g
       id="text28"
       style="font-weight:bold;font-size:2.37066674px;font-family:'Proxima Nova';text-anchor:middle;fill:#4d4d00"
       aria-label="UNI">
      <path
         id="path190"
         style="font-weight:bold;font-size:2.37066674px;font-family:'Proxima Nova';text-anchor:middle;fill:#4d4d00"
         d="m 19.538747,33.194403 c 0,0.38879 0.232325,0.659046 0.71357,0.659046 0.481246,0 0.713571,-0.267886 0.713571,-0.661416 v -0.948267 h -0.343747 v 0.938784 c 0,0.220472 -0.125645,0.372195 -0.369824,0.372195 -0.244178,0 -0.372194,-0.151723 -0.372194,-0.372195 v -0.938784 h -0.341376 z" />
      <path
         id="path192"
         style="font-weight:bold;font-size:2.37066674px;font-family:'Proxima Nova';text-anchor:middle;fill:#4d4d00"
         d="m 22.365581,33.825001 h 0.324782 v -1.581235 h -0.336635 v 0.993309 l -0.732536,-0.993309 h -0.346117 v 1.581235 h 0.336634 v -1.03124 z" />
      <path
         id="path194"
         style="font-weight:bold;font-size:2.37066674px;font-family:'Proxima Nova';text-anchor:middle;fill:#4d4d00"
         d="m 23.002142,33.825001 h 0.336635 v -1.581235 h -0.336635 z" />
    </g>
    <g
       id="text30"
       style="font-weight:bold;font-size:2.37066674px;font-family:'Proxima Nova';dominant-baseline:hanging;text-anchor:middle;fill:#4d4d00"
       aria-label="BI">
      <path
         id="path197"
         style="font-weight:bold;font-size:2.37066674px;font-family:'Proxima Nova';dominant-baseline:hanging;text-anchor:middle;fill:#4d4d00"
         d="m 20.485624,43.673261 h 0.858182 c 0.301074,0 0.459909,-0.189654 0.459909,-0.42672 0,-0.199136 -0.135128,-0.362712 -0.303445,-0.38879 0.149352,-0.03082 0.272626,-0.163576 0.272626,-0.362712 0,-0.210989 -0.154093,-0.403013 -0.455168,-0.403013 h -0.832104 z m 0.336635,-0.948267 v -0.343747 h 0.421979 c 0.113792,0 0.184912,0.07349 0.184912,0.173059 0,0.09957 -0.07112,0.170688 -0.184912,0.170688 z m 0,0.656675 v -0.367454 h 0.433832 c 0.132757,0 0.203877,0.08534 0.203877,0.184912 0,0.113792 -0.07586,0.182542 -0.203877,0.182542 z" />
      <path
         id="path199"
         style="font-weight:bold;font-size:2.37066674px;font-family:'Proxima Nova';dominant-baseline:hanging;text-anchor:middle;fill:#4d4d00"
         d="m 22.055265,43.673261 h 0.336634 v -1.581235 h -0.336634 z" />
    </g>
    <g
       style="fill:#fffff0;stroke:#4d4d00"
       id="g44"
       transform="translate(21.438096,38)">
      <path
         id="rect32"
         d="m -1.125,-2.8125 h 2.25 c 0.103875,0 0.1875,0.083625 0.1875,0.1875 v 5.25 c 0,0.103875 -0.083625,0.1875 -0.1875,0.1875 h -2.25 c -0.103875,0 -0.1875,-0.083625 -0.1875,-0.1875 v -5.25 c 0,-0.103875 0.083625,-0.1875 0.1875,-0.1875 z"
         style="stroke-width:0.375" />
      <path
         id="line34"
         d="m -0.875,-2.25 h 1.75"
         style="stroke-width:0.25;stroke-linecap:round" />
      <path
         id="line36"
         d="m -0.875,-1.75 h 1.75"
         style="stroke-width:0.25;stroke-linecap:round" />
      <path
         id="line38"
         d="m -0.875,-1.25 h 1.75"
         style="stroke-width:0.25;stroke-linecap:round" />
      <path
         id="line40"
         d="m -0.875,-0.75 h 1.75"
         style="stroke-width:0.25;stroke-linecap:round" />
      <path
         id="line42"
         d="m -0.875,-0.25 h 1.75"
         style="stroke-width:0.25;stroke-linecap:round" />
    </g>
    <g
       id="text46"
       style="font-weight:bold;font-size:3.0480001px;font-family:'Proxima Nova';text-anchor:middle;fill:#4d4d00"
       aria-label="MAX">
      <path
         id="path208"
         style="font-weight:bold;font-size:3.0480001px;font-family:'Proxima Nova';text-anchor:middle;fill:#4d4d00"
         d="m 7.6473968,32 h 0.435864 v -2.033016 h -0.6096 L 6.9798848,31.195328 6.4861087,29.966984 H 5.8795567 V 32 h 0.432816 V 30.576584 L 6.8853968,32 h 0.188976 l 0.573024,-1.423416 z" />
      <path
         id="path210"
         style="font-weight:bold;font-size:3.0480001px;font-family:'Proxima Nova';text-anchor:middle;fill:#4d4d00"
         d="M 9.8891056,32 H 10.382882 L 9.5995456,29.966984 H 9.0570016 L 8.2706176,32 h 0.493776 l 0.128016,-0.344424 h 0.871728 z m -0.560832,-1.6002 0.316992,0.874776 h -0.633984 z" />
      <path
         id="path212"
         style="font-weight:bold;font-size:3.0480001px;font-family:'Proxima Nova';text-anchor:middle;fill:#4d4d00"
         d="m 11.8965,32 h 0.51816 l -0.737616,-1.045464 0.691896,-0.987552 h -0.521208 l -0.460248,0.694944 -0.466344,-0.694944 h -0.515112 l 0.691896,0.9906 L 10.360308,32 h 0.515112 l 0.512064,-0.743712 z" />
    </g>
    <g
       style="fill:#4d4d00;stroke:#fffff0"
       id="g52"
       transform="translate(9.0419044,38)">
      <path
         id="circle48"
         d="M 5,0 A 5,5 0 0 1 0,5 5,5 0 0 1 -5,0 5,5 0 0 1 0,-5 5,5 0 0 1 5,0 Z"
         style="stroke:none" />
      <path
         id="line50"
         d="M 0,0 V -4.375"
         style="stroke-width:0.625;stroke-linecap:round" />
    </g>
    <path
       id="line54"
       d="M 0,48 H 30.48"
       style="stroke:#4d4d00;stroke-width:0.34999999" />
    <g
       id="text56"
       style="font-weight:bold;font-size:2.37066674px;font-family:'Proxima Nova';text-anchor:middle;fill:#4d4d00"
       aria-label="CV">
      <path
         id="path218"
         style="font-weight:bold;font-size:2.37066674px;font-family:'Proxima Nova';text-anchor:middle;fill:#4d4d00"
         d="m 8.3435208,52.828447 c 0.3484881,0 0.5476241,-0.192024 0.6614161,-0.388789 L 8.7157155,52.299789 c -0.066379,0.130386 -0.2086187,0.229954 -0.3721947,0.229954 -0.2868506,0 -0.4954693,-0.220472 -0.4954693,-0.519176 0,-0.298704 0.2086187,-0.519176 0.4954693,-0.519176 0.163576,0 0.3058161,0.101939 0.3721947,0.229955 l 0.2892214,-0.14224 c -0.1114214,-0.196765 -0.312928,-0.386419 -0.6614161,-0.386419 -0.4741333,0 -0.8415866,0.331894 -0.8415866,0.81788 0,0.485987 0.3674533,0.81788 0.8415866,0.81788 z" />
      <path
         id="path220"
         style="font-weight:bold;font-size:2.37066674px;font-family:'Proxima Nova';text-anchor:middle;fill:#4d4d00"
         d="m 9.6416831,52.799999 h 0.4219789 l 0.609261,-1.581234 H 10.288875 L 9.8526724,52.434917 9.4140991,51.218765 h -0.384048 z" />
    </g>
    <g
       style="fill:#fffff0;stroke:#4d4d00;stroke-width:0.20999999"
       id="g64"
       transform="translate(9.0419044,58)">
      <path
         id="circle58"
         d="M 4.0949998,0 A 4.0949998,4.0949998 0 0 1 0,4.0949998 4.0949998,4.0949998 0 0 1 -4.0949998,0 4.0949998,4.0949998 0 0 1 0,-4.0949998 4.0949998,4.0949998 0 0 1 4.0949998,0 Z"
         style="" />
      <path
         id="circle60"
         d="M 2.925,0 A 2.925,2.925 0 0 1 0,2.925 2.925,2.925 0 0 1 -2.925,0 2.925,2.925 0 0 1 0,-2.925 2.925,2.925 0 0 1 2.925,0 Z"
         style="" />
      <path
         id="circle62"
         d="M 1.755,0 A 1.755,1.755 0 0 1 0,1.755 1.755,1.755 0 0 1 -1.755,0 1.755,1.755 0 0 1 0,-1.755 1.755,1.755 0 0 1 1.755,0 Z"
         style="fill:#4d4d00" />
    </g>
    <g
       id="text68"
       style="font-weight:bold;font-size:3.0480001px;font-family:'Proxima Nova';text-anchor:middle;fill:#4d4d00"
       aria-label="-  +">
      <path
         id="path226"
         style="font-size:larger"
         d="m 19.140379,52.812371 h 0.877824 V 52.41735 h -0.877824 z" />
      <path
         id="path228"
         style="font-size:larger"
         d="m 23.085101,52.410035 h 0.654711 v -0.28895 H 23.085101 V 51.407853 H 22.76689 v 0.713232 h -0.658368 v 0.28895 h 0.658368 v 0.742493 h 0.318211 z" />
    </g>
    <g
       style="fill:#4d4d00;stroke:#fffff0"
       id="g74"
       transform="translate(21.438096,58)">
      <path
         id="circle70"
         d="M 3.5,0 A 3.5,3.5 0 0 1 0,3.5 3.5,3.5 0 0 1 -3.5,0 3.5,3.5 0 0 1 0,-3.5 3.5,3.5 0 0 1 3.5,0 Z"
         style="stroke:none" />
      <path
         id="line72"
         d="M 0,0 V -3.0625"
         style="stroke-width:0.4375;stroke-linecap:round" />
    </g>
    <g
       id="text76"
       style="font-weight:bold;font-size:3.0480001px;font-family:'Proxima Nova';text-anchor:middle;fill:#4d4d00"
       aria-label="LEVEL">
      <path
         id="path233"
         style="font-weight:bold;font-size:3.0480001px;font-family:'Proxima Nova';text-anchor:middle;fill:#4d4d00"
         d="m 4.8258536,68 h 1.292352 v -0.381 h -0.859536 v -1.652016 h -0.432816 z" />
      <path
         id="path235"
         style="font-weight:bold;font-size:3.0480001px;font-family:'Proxima Nova';text-anchor:middle;fill:#4d4d00"
         d="m 6.4212911,68 h 1.438656 v -0.381 h -1.00584 v -0.460248 h 0.984504 v -0.381 h -0.984504 v -0.429768 h 1.00584 v -0.381 h -1.438656 z" />
      <path
         id="path237"
         style="font-weight:bold;font-size:3.0480001px;font-family:'Proxima Nova';text-anchor:middle;fill:#4d4d00"
         d="m 8.7712516,68 h 0.542544 L 10.097132,65.966984 H 9.6033556 l -0.560832,1.563624 -0.56388,-1.563624 h -0.493776 z" />
      <path
         id="path239"
         style="font-weight:bold;font-size:3.0480001px;font-family:'Proxima Nova';text-anchor:middle;fill:#4d4d00"
         d="m 10.284869,68 h 1.438656 v -0.381 h -1.00584 v -0.460248 h 0.984504 v -0.381 h -0.984504 v -0.429768 h 1.00584 v -0.381 h -1.438656 z" />
      <path
         id="path241"
         style="font-weight:bold;font-size:3.0480001px;font-family:'Proxima Nova';text-anchor:middle;fill:#4d4d00"
         d="m 12.064854,68 h 1.292352 V 67.619 H 12.49767 v -1.652016 h -0.432816 z" />
    </g>
    <g
       style="fill:#4d4d00;stroke:#fffff0"
       id="g82"
       transform="translate(9.0419044,74)">
      <path
         id="circle78"
         d="M 5,0 A 5,5 0 0 1 0,5 5,5 0 0 1 -5,0 5,5 0 0 1 0,-5 5,5 0 0 1 5,0 Z"
         style="stroke:none" />
      <path
         id="line80"
         d="M 0,0 V -4.375"
         style="stroke-width:0.625;stroke-linecap:round" />
    </g>
    <path
       id="rect84"
       d="m 17.063095,66.044556 h 8.75 c 0.554,0 1,0.446 1,1 V 78.375 c 0,0.554 -0.446,1 -1,1 h -8.75 c -0.554,0 -1,-0.446 -1,-1 V 67.044556 c 0,-0.554 0.446,-1 1,-1 z"
       style="fill:#4d4d00;stroke:#fffff0;stroke-width:0.34999999" />
    <g
       id="text86"
       style="font-weight:bold;font-size:2.37066674px;font-family:'Proxima Nova';text-anchor:middle;fill:#fffff0"
       aria-label="OUT">
      <path
         id="path247"
         style="font-weight:bold;font-size:2.37066674px;font-family:'Proxima Nova';text-anchor:middle;fill:#fffff0"
         d="m 19.053112,68.010571 c 0,0.476504 0.348488,0.81788 0.824992,0.81788 0.478874,0 0.827362,-0.341376 0.827362,-0.81788 0,-0.476504 -0.348488,-0.81788 -0.827362,-0.81788 -0.476504,0 -0.824992,0.341376 -0.824992,0.81788 z m 1.306237,0 c 0,0.293963 -0.189653,0.519176 -0.481245,0.519176 -0.291592,0 -0.478875,-0.225213 -0.478875,-0.519176 0,-0.296333 0.187283,-0.519176 0.478875,-0.519176 0.291592,0 0.481245,0.222843 0.481245,0.519176 z" />
      <path
         id="path249"
         style="font-weight:bold;font-size:2.37066674px;font-family:'Proxima Nova';text-anchor:middle;fill:#fffff0"
         d="m 20.944015,68.169406 c 0,0.388789 0.232325,0.659045 0.713571,0.659045 0.481245,0 0.71357,-0.267885 0.71357,-0.661416 V 67.218768 H 22.02741 v 0.938784 c 0,0.220472 -0.125646,0.372195 -0.369824,0.372195 -0.244179,0 -0.372195,-0.151723 -0.372195,-0.372195 v -0.938784 h -0.341376 z" />
      <path
         id="path251"
         style="font-weight:bold;font-size:2.37066674px;font-family:'Proxima Nova';text-anchor:middle;fill:#fffff0"
         d="m 23.045426,68.800003 h 0.339005 v -1.284901 h 0.459909 v -0.296334 h -1.261194 v 0.296334 h 0.46228 z" />
    </g>
    <g
       style="fill:#fffff0;stroke:#4d4d00;stroke-width:0.20999999"
       id="g94"
       transform="translate(21.438096,74)">
      <path
         id="circle88"
         d="M 4.0949998,0 A 4.0949998,4.0949998 0 0 1 0,4.0949998 4.0949998,4.0949998 0 0 1 -4.0949998,0 4.0949998,4.0949998 0 0 1 0,-4.0949998 4.0949998,4.0949998 0 0 1 4.0949998,0 Z"
         style="" />
      <path
         id="circle90"
         d="M 2.925,0 A 2.925,2.925 0 0 1 0,2.925 2.925,2.925 0 0 1 -2.925,0 2.925,2.925 0 0 1 0,-2.925 2.925,2.925 0 0 1 2.925,0 Z"
         style="" />
      <path
         id="circle92"
         d="M 1.755,0 A 1.755,1.755 0 0 1 0,1.755 1.755,1.755 0 0 1 -1.755,0 1.755,1.755 0 0 1 0,-1.755 1.755,1.755 0 0 1 1.755,0 Z"
         style="fill:#4d4d00" />
    </g>
    <path
       id="line96"
       d="M 0,84 H 30.48"
       style="stroke:#4d4d00;stroke-width:0.34999999" />
    <g
       id="text98"
       style="font-weight:bold;font-size:2.37066674px;font-family:'Proxima Nova';text-anchor:middle;fill:#4d4d00"
       aria-label="CV">
      <path
         id="path258"
         style="font-weight:bold;font-size:2.37066674px;font-family:'Proxima Nova';text-anchor:middle;fill:#4d4d00"
         d="m 8.3435208,88.828451 c 0.3484881,0 0.5476241,-0.192024 0.6614161,-0.388789 l -0.2892214,-0.13987 c -0.066379,0.130387 -0.2086187,0.229955 -0.3721947,0.229955 -0.2868506,0 -0.4954693,-0.220472 -0.4954693,-0.519176 0,-0.298704 0.2086187,-0.519176 0.4954693,-0.519176 0.163576,0 0.3058161,0.101939 0.3721947,0.229955 l 0.2892214,-0.14224 c -0.1114214,-0.196766 -0.312928,-0.386419 -0.6614161,-0.386419 -0.4741333,0 -0.8415866,0.331893 -0.8415866,0.81788 0,0.485987 0.3674533,0.81788 0.8415866,0.81788 z" />
      <path
         id="path260"
         style="font-weight:bold;font-size:2.37066674px;font-family:'Proxima Nova';text-anchor:middle;fill:#4d4d00"
         d="m 9.6416831,88.800003 h 0.4219789 l 0.609261,-1.581235 H 10.288875 L 9.8526724,88.43492 9.4140991,87.218768 h -0.384048 z" />
    </g>
    <g
       style="fill:#fffff0;stroke:#4d4d00;stroke-width:0.20999999"
       id="g106"
       transform="translate(9.0419044,94)">
      <path
         id="circle100"
         d="M 4.0949998,0 A 4.0949998,4.0949998 0 0 1 0,4.0949998 4.0949998,4.0949998 0 0 1 -4.0949998,0 4.0949998,4.0949998 0 0 1 0,-4.0949998 4.0949998,4.0949998 0 0 1 4.0949998,0 Z"
         style="" />
      <path
         id="circle102"
         d="M 2.925,0 A 2.925,2.925 0 0 1 0,2.925 2.925,2.925 0 0 1 -2.925,0 2.925,2.925 0 0 1 0,-2.925 2.925,2.925 0 0 1 2.925,0 Z"
         style="" />
      <path
         id="circle104"
         d="M 1.755,0 A 1.755,1.755 0 0 1 0,1.755 1.755,1.755 0 0 1 -1.755,0 1.755,1.755 0 0 1 0,-1.755 1.755,1.755 0 0 1 1.755,0 Z"
         style="fill:#4d4d00" />
    </g>
    <g
       id="text110"
       style="font-weight:bold;font-size:3.0480001px;font-family:'Proxima Nova';text-anchor:middle;fill:#4d4d00"
       aria-label="-  +">
      <path
         id="path266"
         style="font-size:larger"
         d="m 19.140379,88.812371 h 0.877824 V 88.41735 h -0.877824 z" />
      <path
         id="path268"
         style="font-size:larger"
         d="m 23.085101,88.410035 h 0.654711 v -0.28895 H 23.085101 V 87.407853 H 22.76689 v 0.713232 h -0.658368 v 0.28895 h 0.658368 v 0.742493 h 0.318211 z" />
    </g>
    <g
       style="fill:#4d4d00;stroke:#fffff0"
       id="g116"
       transform="translate(21.438096,94)">
      <path
         id="circle112"
         d="M 3.5,0 A 3.5,3.5 0 0 1 0,3.5 3.5,3.5 0 0 1 -3.5,0 3.5,3.5 0 0 1 0,-3.5 3.5,3.5 0 0 1 3.5,0 Z"
         style="stroke:none" />
      <path
         id="line114"
         d="M 0,0 V -3.0625"
         style="stroke-width:0.4375;stroke-linecap:round" />
    </g>
    <g
       id="text118"
       style="font-weight:bold;font-size:2.37066674px;font-family:'Proxima Nova';text-anchor:middle;fill:#4d4d00"
       aria-label="UNI">
      <path
         id="path273"
         style="font-weight:bold;font-size:2.37066674px;font-family:'Proxima Nova';text-anchor:middle;fill:#4d4d00"
         d="m 19.538747,105.1944 c 0,0.38879 0.232325,0.65904 0.71357,0.65904 0.481246,0 0.713571,-0.26788 0.713571,-0.66141 v -0.94827 h -0.343747 v 0.93879 c 0,0.22047 -0.125645,0.37219 -0.369824,0.37219 -0.244178,0 -0.372194,-0.15172 -0.372194,-0.37219 v -0.93879 h -0.341376 z" />
      <path
         id="path275"
         style="font-weight:bold;font-size:2.37066674px;font-family:'Proxima Nova';text-anchor:middle;fill:#4d4d00"
         d="m 22.365581,105.825 h 0.324782 v -1.58124 h -0.336635 v 0.99331 l -0.732536,-0.99331 h -0.346117 v 1.58124 h 0.336634 v -1.03124 z" />
      <path
         id="path277"
         style="font-weight:bold;font-size:2.37066674px;font-family:'Proxima Nova';text-anchor:middle;fill:#4d4d00"
         d="m 23.002142,105.825 h 0.336635 v -1.58124 h -0.336635 z" />
    </g>
    <g
       id="text120"
       style="font-weight:bold;font-size:2.37066674px;font-family:'Proxima Nova';dominant-baseline:hanging;text-anchor:middle;fill:#4d4d00"
       aria-label="BI">
      <path
         id="path280"
         style="font-weight:bold;font-size:2.37066674px;font-family:'Proxima Nova';dominant-baseline:hanging;text-anchor:middle;fill:#4d4d00"
         d="m 20.485624,115.67326 h 0.858182 c 0.301074,0 0.459909,-0.18965 0.459909,-0.42672 0,-0.19913 -0.135128,-0.36271 -0.303445,-0.38878 0.149352,-0.0308 0.272626,-0.16358 0.272626,-0.36272 0,-0.21099 -0.154093,-0.40301 -0.455168,-0.40301 h -0.832104 z m 0.336635,-0.94826 v -0.34375 h 0.421979 c 0.113792,0 0.184912,0.0735 0.184912,0.17306 0,0.0996 -0.07112,0.17069 -0.184912,0.17069 z m 0,0.65667 v -0.36745 h 0.433832 c 0.132757,0 0.203877,0.0853 0.203877,0.18491 0,0.11379 -0.07586,0.18254 -0.203877,0.18254 z" />
      <path
         id="path282"
         style="font-weight:bold;font-size:2.37066674px;font-family:'Proxima Nova';dominant-baseline:hanging;text-anchor:middle;fill:#4d4d00"
         d="m 22.055265,115.67326 h 0.336634 v -1.58123 h -0.336634 z" />
    </g>
    <g
       style="fill:#fffff0;stroke:#4d4d00"
       id="g134"
       transform="translate(21.438096,110)">
      <path
         id="rect122"
         d="m -1.125,-2.8125 h 2.25 c 0.103875,0 0.1875,0.083625 0.1875,0.1875 v 5.25 c 0,0.103875 -0.083625,0.1875 -0.1875,0.1875 h -2.25 c -0.103875,0 -0.1875,-0.083625 -0.1875,-0.1875 v -5.25 c 0,-0.103875 0.083625,-0.1875 0.1875,-0.1875 z"
         style="stroke-width:0.375" />
      <path
         id="line124"
         d="m -0.875,-2.25 h 1.75"
         style="stroke-width:0.25;stroke-linecap:round" />
      <path
         id="line126"
         d="m -0.875,-1.75 h 1.75"
         style="stroke-width:0.25;stroke-linecap:round" />
      <path
         id="line128"
         d="m -0.875,-1.25 h 1.75"
         style="stroke-width:0.25;stroke-linecap:round" />
      <path
         id="line130"
         d="m -0.875,-0.75 h 1.75"
         style="stroke-width:0.25;stroke-linecap:round" />
      <path
         id="line132"
         d="m -0.875,-0.25 h 1.75"
         style="stroke-width:0.25;stroke-linecap:round" />
    </g>
    <g
       id="text136"
       style="font-weight:bold;font-size:3.0480001px;font-family:'Proxima Nova';text-anchor:middle;fill:#4d4d00"
       aria-label="MIN">
      <path
         id="path291"
         style="font-weight:bold;font-size:3.0480001px;font-family:'Proxima Nova';text-anchor:middle;fill:#4d4d00"
         d="m 8.1802015,104 h 0.435864 v -2.03302 h -0.6096 l -0.493776,1.22835 -0.4937761,-1.22835 H 6.4123614 V 104 h 0.432816 v -1.42342 L 7.4182015,104 h 0.188976 l 0.573024,-1.42342 z" />
      <path
         id="path293"
         style="font-weight:bold;font-size:3.0480001px;font-family:'Proxima Nova';text-anchor:middle;fill:#4d4d00"
         d="m 9.0198303,104 h 0.432816 v -2.03302 h -0.432816 z" />
      <path
         id="path295"
         style="font-weight:bold;font-size:3.0480001px;font-family:'Proxima Nova';text-anchor:middle;fill:#4d4d00"
         d="m 11.255348,104 h 0.417576 v -2.03302 h -0.432816 v 1.27712 l -0.941832,-1.27712 H 9.8532677 V 104 h 0.4328163 v -1.32588 z" />
    </g>
    <g
       style="fill:#4d4d00;stroke:#fffff0"
       id="g142"
       transform="translate(9.0419044,110)">
      <path
         id="circle138"
         d="M 5,0 A 5,5 0 0 1 0,5 5,5 0 0 1 -5,0 5,5 0 0 1 0,-5 5,5 0 0 1 5,0 Z"
         style="stroke:none" />
      <path
         id="line140"
         d="M 0,0 V -4.375"
         style="stroke-width:0.625;stroke-linecap:round" />
    </g>
  </g>
</svg>
