<?xml version="1.0" encoding="UTF-8" standalone="no"?>
<svg
   xmlns:dc="http://purl.org/dc/elements/1.1/"
   xmlns:cc="http://creativecommons.org/ns#"
   xmlns:rdf="http://www.w3.org/1999/02/22-rdf-syntax-ns#"
   xmlns:svg="http://www.w3.org/2000/svg"
   xmlns="http://www.w3.org/2000/svg"
   id="svg180"
   height="379.42913385826773"
   width="135.0"
   version="1.1">
  <metadata
     id="metadata186">
    <rdf:RDF>
      <cc:Work
         rdf:about="">
        <dc:format>image/svg+xml</dc:format>
        <dc:type
           rdf:resource="http://purl.org/dc/dcmitype/StillImage" />
      </cc:Work>
    </rdf:RDF>
  </metadata>
  <defs
     id="defs184" />
  <g
     id="g178"
     transform="scale(2.9527559)">
    <path
       id="rect2"
       d="M 0,0 H 45.720001 V 128.5 H 0 Z"
       style="fill:#fff7f0;stroke:#994d00;stroke-width:1" />
    <g
       id="text4"
       style="font-weight:bold;font-size:4.06400013px;font-family:'Proxima Nova';text-anchor:middle;fill:#994d00"
       aria-label="TAPERS">
      <path
         id="path189"
         style="font-weight:bold;font-size:4.06400013px;font-family:'Proxima Nova';text-anchor:middle;fill:#994d00"
         d="m 16.336487,9 h 0.581152 V 6.7973119 h 0.788416 v -0.508 h -2.162048 v 0.508 h 0.79248 z" />
      <path
         id="path191"
         style="font-weight:bold;font-size:4.06400013px;font-family:'Proxima Nova';text-anchor:middle;fill:#994d00"
         d="m 19.683508,9 h 0.658368 L 19.297428,6.2893119 H 18.574036 L 17.525524,9 h 0.658368 L 18.35458,8.540768 h 1.162304 z M 18.935732,6.8663999 19.358388,8.032768 h -0.845312 z" />
      <path
         id="path193"
         style="font-weight:bold;font-size:4.06400013px;font-family:'Proxima Nova';text-anchor:middle;fill:#994d00"
         d="m 20.592193,9 h 0.577088 V 8.036832 h 0.69088 c 0.585216,0 0.910336,-0.402336 0.910336,-0.8737601 0,-0.475488 -0.321056,-0.87376 -0.910336,-0.87376 h -1.267968 z m 1.589024,-1.8369281 c 0,0.22352 -0.170688,0.3657601 -0.398272,0.3657601 H 21.169281 V 6.7973119 h 0.613664 c 0.227584,0 0.398272,0.138176 0.398272,0.36576 z" />
      <path
         id="path195"
         style="font-weight:bold;font-size:4.06400013px;font-family:'Proxima Nova';text-anchor:middle;fill:#994d00"
         d="m 23.124256,9 h 1.918208 V 8.492 h -1.34112 V 7.878336 h 1.312672 V 7.3703359 h -1.312672 v -0.573024 h 1.34112 v -0.508 h -1.918208 z" />
      <path
         id="path197"
         style="font-weight:bold;font-size:4.06400013px;font-family:'Proxima Nova';text-anchor:middle;fill:#994d00"
         d="m 27.029696,9 h 0.662432 l -0.6096,-1.032256 c 0.292608,-0.069088 0.593344,-0.32512 0.593344,-0.8046721 0,-0.503936 -0.34544,-0.87376 -0.910336,-0.87376 H 25.497568 V 9 h 0.577088 V 8.036832 h 0.422656 z m 0.0569,-1.8369281 c 0,0.227584 -0.174752,0.3657601 -0.4064,0.3657601 H 26.074656 V 6.7973119 h 0.605536 c 0.231648,0 0.4064,0.138176 0.4064,0.36576 z" />
      <path
         id="path199"
         style="font-weight:bold;font-size:4.06400013px;font-family:'Proxima Nova';text-anchor:middle;fill:#994d00"
         d="m 27.926126,8.617984 c 0.251968,0.256032 0.625856,0.430784 1.146048,0.430784 0.73152,0 1.085088,-0.373888 1.085088,-0.869696 0,-0.613664 -0.56896,-0.7477761 -1.016,-0.8534401 -0.292608,-0.069088 -0.540512,-0.125984 -0.540512,-0.300736 0,-0.16256 0.138176,-0.272288 0.38608,-0.272288 0.276352,0 0.56896,0.093472 0.788416,0.296672 l 0.321056,-0.422656 c -0.268224,-0.247904 -0.625856,-0.377952 -1.05664,-0.377952 -0.638048,0 -1.028192,0.373888 -1.028192,0.824992 0,0.6177281 0.56896,0.7396481 1.011936,0.8412481 0.296672,0.073152 0.54864,0.130048 0.54864,0.329184 0,0.154432 -0.154432,0.300736 -0.471424,0.300736 -0.373888,0 -0.67056,-0.166624 -0.861568,-0.36576 z" />
    </g>
    <g
       id="text6"
       style="font-weight:bold;font-size:4.06400013px;font-family:'Proxima Nova';dominant-baseline:hanging;text-anchor:middle;fill:#994d00"
       aria-label="DHE">
      <path
         id="path202"
         style="font-weight:bold;font-size:4.06400013px;font-family:'Proxima Nova';dominant-baseline:hanging;text-anchor:middle;fill:#994d00"
         d="m 18.996756,122.06845 h 1.068832 c 0.849376,0 1.438656,-0.53645 1.438656,-1.35331 0,-0.81687 -0.58928,-1.35738 -1.438656,-1.35738 h -1.068832 z m 0.577088,-0.508 v -1.69469 h 0.491744 c 0.556768,0 0.849376,0.36982 0.849376,0.84938 0,0.45923 -0.312928,0.84531 -0.849376,0.84531 z" />
      <path
         id="path204"
         style="font-weight:bold;font-size:4.06400013px;font-family:'Proxima Nova';dominant-baseline:hanging;text-anchor:middle;fill:#994d00"
         d="m 23.775004,122.06845 h 0.581152 v -2.71069 h -0.581152 v 1.06477 h -1.28016 v -1.06477 h -0.577088 v 2.71069 h 0.577088 v -1.13792 h 1.28016 z" />
      <path
         id="path206"
         style="font-weight:bold;font-size:4.06400013px;font-family:'Proxima Nova';dominant-baseline:hanging;text-anchor:middle;fill:#994d00"
         d="m 24.886381,122.06845 h 1.918208 v -0.508 h -1.34112 v -0.61367 h 1.312672 v -0.508 h -1.312672 v -0.57302 h 1.34112 v -0.508 h -1.918208 z" />
    </g>
    <g
       id="text8"
       style="font-weight:bold;font-size:2.37066674px;font-family:'Proxima Nova';text-anchor:middle;fill:#994d00"
       aria-label="CV">
      <path
         id="path209"
         style="font-weight:bold;font-size:2.37066674px;font-family:'Proxima Nova';text-anchor:middle;fill:#994d00"
         d="m 8.7789495,20.828447 c 0.348488,0 0.547624,-0.192024 0.661416,-0.388789 L 9.1511441,20.299789 c -0.066379,0.130386 -0.2086186,0.229954 -0.3721946,0.229954 -0.2868507,0 -0.4954694,-0.220472 -0.4954694,-0.519176 0,-0.298704 0.2086187,-0.519176 0.4954694,-0.519176 0.163576,0 0.305816,0.101939 0.3721946,0.229955 l 0.2892214,-0.14224 c -0.1114214,-0.196765 -0.312928,-0.386419 -0.661416,-0.386419 -0.4741334,0 -0.8415867,0.331894 -0.8415867,0.81788 0,0.485987 0.3674533,0.81788 0.8415867,0.81788 z" />
      <path
         id="path211"
         style="font-weight:bold;font-size:2.37066674px;font-family:'Proxima Nova';text-anchor:middle;fill:#994d00"
         d="m 10.077112,20.799999 h 0.421978 l 0.609262,-1.581234 h -0.384048 l -0.436203,1.216152 -0.4385733,-1.216152 h -0.384048 z" />
    </g>
    <g
       style="fill:#fff7f0;stroke:#994d00;stroke-width:0.20999999"
       id="g16"
       transform="translate(9.477333,26)">
      <path
         id="circle10"
         d="M 4.0949998,0 A 4.0949998,4.0949998 0 0 1 0,4.0949998 4.0949998,4.0949998 0 0 1 -4.0949998,0 4.0949998,4.0949998 0 0 1 0,-4.0949998 4.0949998,4.0949998 0 0 1 4.0949998,0 Z"
         style="" />
      <path
         id="circle12"
         d="M 2.925,0 A 2.925,2.925 0 0 1 0,2.925 2.925,2.925 0 0 1 -2.925,0 2.925,2.925 0 0 1 0,-2.925 2.925,2.925 0 0 1 2.925,0 Z"
         style="" />
      <path
         id="circle14"
         d="M 1.755,0 A 1.755,1.755 0 0 1 0,1.755 1.755,1.755 0 0 1 -1.755,0 1.755,1.755 0 0 1 0,-1.755 1.755,1.755 0 0 1 1.755,0 Z"
         style="fill:#994d00" />
    </g>
    <g
       id="text20"
       style="font-weight:bold;font-size:3.0480001px;font-family:'Proxima Nova';text-anchor:middle;fill:#994d00"
       aria-label="-  +">
      <path
         id="path217"
         style="font-size:larger"
         d="m 20.562285,20.812371 h 0.877824 V 20.41735 h -0.877824 z" />
      <path
         id="path219"
         style="font-size:larger"
         d="m 24.507007,20.410035 h 0.65471 v -0.28895 h -0.65471 v -0.713232 h -0.318211 v 0.713232 h -0.658369 v 0.28895 h 0.658369 v 0.742493 h 0.318211 z" />
    </g>
    <g
       style="fill:#994d00;stroke:#fff7f0"
       id="g26"
       transform="translate(22.86,26)">
      <path
         id="circle22"
         d="M 3.5,0 A 3.5,3.5 0 0 1 0,3.5 3.5,3.5 0 0 1 -3.5,0 3.5,3.5 0 0 1 0,-3.5 3.5,3.5 0 0 1 3.5,0 Z"
         style="stroke:none" />
      <path
         id="line24"
         d="M 0,0 V -3.0625"
         style="stroke-width:0.4375;stroke-linecap:round" />
    </g>
    <g
       id="text28"
       style="font-weight:bold;font-size:3.0480001px;font-family:'Proxima Nova';text-anchor:middle;fill:#994d00"
       aria-label="LEVEL">
      <path
         id="path224"
         style="font-weight:bold;font-size:3.0480001px;font-family:'Proxima Nova';text-anchor:middle;fill:#994d00"
         d="m 32.026617,18.65 h 1.292352 v -0.381 h -0.859536 v -1.652016 h -0.432816 z" />
      <path
         id="path226"
         style="font-weight:bold;font-size:3.0480001px;font-family:'Proxima Nova';text-anchor:middle;fill:#994d00"
         d="m 33.622055,18.65 h 1.438656 v -0.381 h -1.00584 v -0.460248 h 0.984504 v -0.381 h -0.984504 v -0.429768 h 1.00584 v -0.381 h -1.438656 z" />
      <path
         id="path228"
         style="font-weight:bold;font-size:3.0480001px;font-family:'Proxima Nova';text-anchor:middle;fill:#994d00"
         d="m 35.972015,18.65 h 0.542544 l 0.783336,-2.033016 h -0.493776 l -0.560832,1.563624 -0.56388,-1.563624 h -0.493776 z" />
      <path
         id="path230"
         style="font-weight:bold;font-size:3.0480001px;font-family:'Proxima Nova';text-anchor:middle;fill:#994d00"
         d="m 37.485633,18.65 h 1.438656 v -0.381 h -1.00584 v -0.460248 h 0.984504 v -0.381 h -0.984504 v -0.429768 h 1.00584 v -0.381 h -1.438656 z" />
      <path
         id="path232"
         style="font-weight:bold;font-size:3.0480001px;font-family:'Proxima Nova';text-anchor:middle;fill:#994d00"
         d="M 39.265618,18.65 H 40.55797 V 18.269 H 39.698434 V 16.616984 H 39.265618 Z" />
    </g>
    <g
       style="fill:#994d00;stroke:#fff7f0"
       id="g34"
       transform="translate(36.242667,26)">
      <path
         id="circle30"
         d="M 6.3499999,0 A 6.3499999,6.3499999 0 0 1 0,6.3499999 6.3499999,6.3499999 0 0 1 -6.3499999,0 6.3499999,6.3499999 0 0 1 0,-6.3499999 6.3499999,6.3499999 0 0 1 6.3499999,0 Z"
         style="stroke:none" />
      <path
         id="line32"
         d="M 0,0 V -5.5562501"
         style="stroke-width:0.79374999;stroke-linecap:round" />
    </g>
    <g
       id="text36"
       style="font-weight:bold;font-size:2.37066674px;font-family:'Proxima Nova';text-anchor:middle;fill:#994d00"
       aria-label="S">
      <path
         id="path237"
         style="font-weight:bold;font-size:2.37066674px;font-family:'Proxima Nova';text-anchor:middle;fill:#994d00"
         d="m 8.8163801,36.602158 c 0.1469813,0.149352 0.3650826,0.251291 0.668528,0.251291 0.42672,0 0.6329679,-0.218102 0.6329679,-0.507323 0,-0.357971 -0.3318932,-0.436203 -0.5926666,-0.49784 -0.170688,-0.0403 -0.3152987,-0.07349 -0.3152987,-0.175429 0,-0.09483 0.080603,-0.158835 0.2252134,-0.158835 0.1612053,0 0.3318933,0.05453 0.4599093,0.173059 l 0.1872826,-0.24655 c -0.1564639,-0.14461 -0.3650826,-0.220472 -0.6163732,-0.220472 -0.3721947,0 -0.5997787,0.218102 -0.5997787,0.481246 0,0.360341 0.3318933,0.431461 0.590296,0.490728 0.1730587,0.04267 0.32004,0.07586 0.32004,0.192024 0,0.09009 -0.090085,0.175429 -0.2749973,0.175429 -0.2181014,0 -0.3911601,-0.0972 -0.5025814,-0.21336 z" />
    </g>
    <g
       id="text38"
       style="font-weight:bold;font-size:2.37066674px;font-family:'Proxima Nova';dominant-baseline:hanging;text-anchor:middle;fill:#994d00"
       aria-label="J">
      <path
         id="path240"
         style="font-weight:bold;font-size:2.37066674px;font-family:'Proxima Nova';dominant-baseline:hanging;text-anchor:middle;fill:#994d00"
         d="m 8.9150961,46.547615 c 0.113792,0.111422 0.2655147,0.154094 0.4243494,0.154094 0.3247813,0 0.5571066,-0.173059 0.5571066,-0.547624 V 45.092026 H 9.5599175 v 1.057317 c 0,0.154094 -0.097197,0.253662 -0.2465494,0.253662 -0.1090506,0 -0.1896533,-0.05453 -0.2512906,-0.113792 z" />
    </g>
    <g
       style="fill:#fff7f0;stroke:#994d00"
       id="g52"
       transform="translate(9.477333,41)">
      <path
         id="rect40"
         d="m -1.125,-2.8125 h 2.25 c 0.103875,0 0.1875,0.083625 0.1875,0.1875 v 5.25 c 0,0.103875 -0.083625,0.1875 -0.1875,0.1875 h -2.25 c -0.103875,0 -0.1875,-0.083625 -0.1875,-0.1875 v -5.25 c 0,-0.103875 0.083625,-0.1875 0.1875,-0.1875 z"
         style="stroke-width:0.375" />
      <path
         id="line42"
         d="m -0.875,0.25 h 1.75"
         style="stroke-width:0.25;stroke-linecap:round" />
      <path
         id="line44"
         d="m -0.875,0.75 h 1.75"
         style="stroke-width:0.25;stroke-linecap:round" />
      <path
         id="line46"
         d="m -0.875,1.25 h 1.75"
         style="stroke-width:0.25;stroke-linecap:round" />
      <path
         id="line48"
         d="m -0.875,1.75 h 1.75"
         style="stroke-width:0.25;stroke-linecap:round" />
      <path
         id="line50"
         d="m -0.875,2.25 h 1.75"
         style="stroke-width:0.25;stroke-linecap:round" />
    </g>
    <g
       id="text54"
       style="font-weight:bold;font-size:2.37066674px;font-family:'Proxima Nova';text-anchor:middle;fill:#994d00"
       aria-label="CURVE">
      <path
         id="path249"
         style="font-weight:bold;font-size:2.37066674px;font-family:'Proxima Nova';text-anchor:middle;fill:#994d00"
         d="m 19.846513,36.528448 c 0.348488,0 0.547624,-0.192024 0.661416,-0.388789 l -0.289222,-0.13987 c -0.06638,0.130387 -0.208618,0.229955 -0.372194,0.229955 -0.286851,0 -0.49547,-0.220472 -0.49547,-0.519176 0,-0.298704 0.208619,-0.519176 0.49547,-0.519176 0.163576,0 0.305816,0.101939 0.372194,0.229955 l 0.289222,-0.14224 c -0.111422,-0.196766 -0.312928,-0.386419 -0.661416,-0.386419 -0.474134,0 -0.841587,0.331893 -0.841587,0.81788 0,0.485987 0.367453,0.81788 0.841587,0.81788 z" />
      <path
         id="path251"
         style="font-weight:bold;font-size:2.37066674px;font-family:'Proxima Nova';text-anchor:middle;fill:#994d00"
         d="m 20.710621,35.869403 c 0,0.388789 0.232325,0.659045 0.71357,0.659045 0.481246,0 0.713571,-0.267885 0.713571,-0.661416 v -0.948267 h -0.343747 v 0.938784 c 0,0.220472 -0.125645,0.372195 -0.369824,0.372195 -0.244178,0 -0.372194,-0.151723 -0.372194,-0.372195 v -0.938784 h -0.341376 z" />
      <path
         id="path253"
         style="font-weight:bold;font-size:2.37066674px;font-family:'Proxima Nova';text-anchor:middle;fill:#994d00"
         d="m 23.34069,36.5 h 0.386419 l -0.3556,-0.602149 c 0.170688,-0.0403 0.346117,-0.189654 0.346117,-0.469392 0,-0.293963 -0.201507,-0.509694 -0.531029,-0.509694 H 22.446949 V 36.5 h 0.336634 v -0.561848 h 0.24655 z m 0.03319,-1.071541 c 0,0.132757 -0.101938,0.21336 -0.237066,0.21336 h -0.35323 v -0.42672 h 0.35323 c 0.135128,0 0.237066,0.0806 0.237066,0.21336 z" />
      <path
         id="path255"
         style="font-weight:bold;font-size:2.37066674px;font-family:'Proxima Nova';text-anchor:middle;fill:#994d00"
         d="m 24.390451,36.5 h 0.421979 l 0.609261,-1.581235 h -0.384048 l -0.436202,1.216152 -0.438574,-1.216152 h -0.384048 z" />
      <path
         id="path257"
         style="font-weight:bold;font-size:2.37066674px;font-family:'Proxima Nova';text-anchor:middle;fill:#994d00"
         d="m 25.567709,36.5 h 1.118955 v -0.296333 h -0.78232 v -0.357971 h 0.765725 v -0.296333 h -0.765725 v -0.334264 h 0.78232 v -0.296334 h -1.118955 z" />
    </g>
    <g
       style="fill:#994d00;stroke:#fff7f0"
       id="g60"
       transform="translate(22.86,41)">
      <path
         id="circle56"
         d="M 3.5,0 A 3.5,3.5 0 0 1 0,3.5 3.5,3.5 0 0 1 -3.5,0 3.5,3.5 0 0 1 0,-3.5 3.5,3.5 0 0 1 3.5,0 Z"
         style="stroke:none" />
      <path
         id="line58"
         d="M 0,0 V -3.0625"
         style="stroke-width:0.4375;stroke-linecap:round" />
    </g>
    <g
       id="text62"
       style="font-weight:bold;font-size:2.37066674px;font-family:'Proxima Nova';text-anchor:middle;fill:#994d00"
       aria-label="UNI">
      <path
         id="path262"
         style="font-weight:bold;font-size:2.37066674px;font-family:'Proxima Nova';text-anchor:middle;fill:#994d00"
         d="m 34.34332,36.194403 c 0,0.38879 0.232325,0.659046 0.71357,0.659046 0.481246,0 0.713571,-0.267886 0.713571,-0.661416 v -0.948267 h -0.343747 v 0.938784 c 0,0.220472 -0.125645,0.372195 -0.369824,0.372195 -0.244178,0 -0.372194,-0.151723 -0.372194,-0.372195 V 35.243766 H 34.34332 Z" />
      <path
         id="path264"
         style="font-weight:bold;font-size:2.37066674px;font-family:'Proxima Nova';text-anchor:middle;fill:#994d00"
         d="m 37.170154,36.825001 h 0.324782 v -1.581235 h -0.336635 v 0.993309 l -0.732536,-0.993309 h -0.346117 v 1.581235 h 0.336634 v -1.03124 z" />
      <path
         id="path266"
         style="font-weight:bold;font-size:2.37066674px;font-family:'Proxima Nova';text-anchor:middle;fill:#994d00"
         d="M 37.806715,36.825001 H 38.14335 V 35.243766 H 37.806715 Z" />
    </g>
    <g
       id="text64"
       style="font-weight:bold;font-size:2.37066674px;font-family:'Proxima Nova';dominant-baseline:hanging;text-anchor:middle;fill:#994d00"
       aria-label="BI">
      <path
         id="path269"
         style="font-weight:bold;font-size:2.37066674px;font-family:'Proxima Nova';dominant-baseline:hanging;text-anchor:middle;fill:#994d00"
         d="m 35.290197,46.673261 h 0.858182 c 0.301074,0 0.459909,-0.189654 0.459909,-0.42672 0,-0.199136 -0.135128,-0.362712 -0.303445,-0.38879 0.149352,-0.03082 0.272626,-0.163576 0.272626,-0.362712 0,-0.210989 -0.154093,-0.403013 -0.455168,-0.403013 h -0.832104 z m 0.336635,-0.948267 v -0.343747 h 0.421979 c 0.113792,0 0.184912,0.07349 0.184912,0.173059 0,0.09957 -0.07112,0.170688 -0.184912,0.170688 z m 0,0.656675 v -0.367454 h 0.433832 c 0.132757,0 0.203877,0.08534 0.203877,0.184912 0,0.113792 -0.07586,0.182542 -0.203877,0.182542 z" />
      <path
         id="path271"
         style="font-weight:bold;font-size:2.37066674px;font-family:'Proxima Nova';dominant-baseline:hanging;text-anchor:middle;fill:#994d00"
         d="m 36.859838,46.673261 h 0.336635 v -1.581235 h -0.336635 z" />
    </g>
    <g
       style="fill:#fff7f0;stroke:#994d00"
       id="g78"
       transform="translate(36.242667,41)">
      <path
         id="rect66"
         d="m -1.125,-2.8125 h 2.25 c 0.103875,0 0.1875,0.083625 0.1875,0.1875 v 5.25 c 0,0.103875 -0.083625,0.1875 -0.1875,0.1875 h -2.25 c -0.103875,0 -0.1875,-0.083625 -0.1875,-0.1875 v -5.25 c 0,-0.103875 0.083625,-0.1875 0.1875,-0.1875 z"
         style="stroke-width:0.375" />
      <path
         id="line68"
         d="m -0.875,-2.25 h 1.75"
         style="stroke-width:0.25;stroke-linecap:round" />
      <path
         id="line70"
         d="m -0.875,-1.75 h 1.75"
         style="stroke-width:0.25;stroke-linecap:round" />
      <path
         id="line72"
         d="m -0.875,-1.25 h 1.75"
         style="stroke-width:0.25;stroke-linecap:round" />
      <path
         id="line74"
         d="m -0.875,-0.75 h 1.75"
         style="stroke-width:0.25;stroke-linecap:round" />
      <path
         id="line76"
         d="m -0.875,-0.25 h 1.75"
         style="stroke-width:0.25;stroke-linecap:round" />
    </g>
    <path
       id="rect80"
       d="m 31.867666,48.044556 h 8.75 c 0.554,0 1,0.446 1,1 V 60.375 c 0,0.554 -0.446,1 -1,1 h -8.75 c -0.554,0 -1,-0.446 -1,-1 V 49.044556 c 0,-0.554 0.446,-1 1,-1 z"
       style="fill:#994d00;stroke:#fff7f0;stroke-width:0.34999999" />
    <g
       id="text82"
       style="font-weight:bold;font-size:2.37066674px;font-family:'Proxima Nova';text-anchor:middle;fill:#fff7f0"
       aria-label="OUT">
      <path
         id="path281"
         style="font-weight:bold;font-size:2.37066674px;font-family:'Proxima Nova';text-anchor:middle;fill:#fff7f0"
         d="m 33.857685,50.010567 c 0,0.476504 0.348488,0.81788 0.824992,0.81788 0.478875,0 0.827363,-0.341376 0.827363,-0.81788 0,-0.476504 -0.348488,-0.81788 -0.827363,-0.81788 -0.476504,0 -0.824992,0.341376 -0.824992,0.81788 z m 1.306237,0 c 0,0.293963 -0.189653,0.519176 -0.481245,0.519176 -0.291592,0 -0.478875,-0.225213 -0.478875,-0.519176 0,-0.296333 0.187283,-0.519176 0.478875,-0.519176 0.291592,0 0.481245,0.222843 0.481245,0.519176 z" />
      <path
         id="path283"
         style="font-weight:bold;font-size:2.37066674px;font-family:'Proxima Nova';text-anchor:middle;fill:#fff7f0"
         d="m 35.748588,50.169402 c 0,0.388789 0.232325,0.659045 0.713571,0.659045 0.481245,0 0.71357,-0.267885 0.71357,-0.661416 v -0.948266 h -0.343746 v 0.938784 c 0,0.220472 -0.125646,0.372194 -0.369824,0.372194 -0.244179,0 -0.372195,-0.151722 -0.372195,-0.372194 v -0.938784 h -0.341376 z" />
      <path
         id="path285"
         style="font-weight:bold;font-size:2.37066674px;font-family:'Proxima Nova';text-anchor:middle;fill:#fff7f0"
         d="m 37.849999,50.799999 h 0.339005 v -1.284901 h 0.459909 v -0.296333 h -1.261194 v 0.296333 h 0.46228 z" />
    </g>
    <g
       style="fill:#fff7f0;stroke:#994d00;stroke-width:0.20999999"
       id="g90"
       transform="translate(36.242667,56)">
      <path
         id="circle84"
         d="M 4.0949998,0 A 4.0949998,4.0949998 0 0 1 0,4.0949998 4.0949998,4.0949998 0 0 1 -4.0949998,0 4.0949998,4.0949998 0 0 1 0,-4.0949998 4.0949998,4.0949998 0 0 1 4.0949998,0 Z"
         style="" />
      <path
         id="circle86"
         d="M 2.925,0 A 2.925,2.925 0 0 1 0,2.925 2.925,2.925 0 0 1 -2.925,0 2.925,2.925 0 0 1 0,-2.925 2.925,2.925 0 0 1 2.925,0 Z"
         style="" />
      <path
         id="circle88"
         d="M 1.755,0 A 1.755,1.755 0 0 1 0,1.755 1.755,1.755 0 0 1 -1.755,0 1.755,1.755 0 0 1 0,-1.755 1.755,1.755 0 0 1 1.755,0 Z"
         style="fill:#994d00" />
    </g>
    <path
       id="line92"
       d="M 0,65.5 H 45.720001"
       style="stroke:#994d00;stroke-width:0.34999999" />
    <g
       id="text94"
       style="font-weight:bold;font-size:2.37066674px;font-family:'Proxima Nova';text-anchor:middle;fill:#994d00"
       aria-label="CV">
      <path
         id="path292"
         style="font-weight:bold;font-size:2.37066674px;font-family:'Proxima Nova';text-anchor:middle;fill:#994d00"
         d="m 8.7789495,73.828451 c 0.348488,0 0.547624,-0.192024 0.661416,-0.388789 l -0.2892214,-0.13987 c -0.066379,0.130387 -0.2086186,0.229955 -0.3721946,0.229955 -0.2868507,0 -0.4954694,-0.220472 -0.4954694,-0.519176 0,-0.298704 0.2086187,-0.519176 0.4954694,-0.519176 0.163576,0 0.305816,0.101939 0.3721946,0.229955 l 0.2892214,-0.14224 c -0.1114214,-0.196766 -0.312928,-0.386419 -0.661416,-0.386419 -0.4741334,0 -0.8415867,0.331893 -0.8415867,0.81788 0,0.485987 0.3674533,0.81788 0.8415867,0.81788 z" />
      <path
         id="path294"
         style="font-weight:bold;font-size:2.37066674px;font-family:'Proxima Nova';text-anchor:middle;fill:#994d00"
         d="m 10.077112,73.800003 h 0.421978 l 0.609262,-1.581235 H 10.724304 L 10.288101,73.43492 9.8495277,72.218768 h -0.384048 z" />
    </g>
    <g
       style="fill:#fff7f0;stroke:#994d00;stroke-width:0.20999999"
       id="g102"
       transform="translate(9.477333,79)">
      <path
         id="circle96"
         d="M 4.0949998,0 A 4.0949998,4.0949998 0 0 1 0,4.0949998 4.0949998,4.0949998 0 0 1 -4.0949998,0 4.0949998,4.0949998 0 0 1 0,-4.0949998 4.0949998,4.0949998 0 0 1 4.0949998,0 Z"
         style="" />
      <path
         id="circle98"
         d="M 2.925,0 A 2.925,2.925 0 0 1 0,2.925 2.925,2.925 0 0 1 -2.925,0 2.925,2.925 0 0 1 0,-2.925 2.925,2.925 0 0 1 2.925,0 Z"
         style="" />
      <path
         id="circle100"
         d="M 1.755,0 A 1.755,1.755 0 0 1 0,1.755 1.755,1.755 0 0 1 -1.755,0 1.755,1.755 0 0 1 0,-1.755 1.755,1.755 0 0 1 1.755,0 Z"
         style="fill:#994d00" />
    </g>
    <g
       id="text106"
       style="font-weight:bold;font-size:3.0480001px;font-family:'Proxima Nova';text-anchor:middle;fill:#994d00"
       aria-label="-  +">
      <path
         id="path300"
         style="font-size:larger"
         d="m 20.562285,73.812371 h 0.877824 V 73.41735 h -0.877824 z" />
      <path
         id="path302"
         style="font-size:larger"
         d="m 24.507007,73.410035 h 0.65471 v -0.28895 h -0.65471 v -0.713232 h -0.318211 v 0.713232 h -0.658369 v 0.28895 h 0.658369 v 0.742493 h 0.318211 z" />
    </g>
    <g
       style="fill:#994d00;stroke:#fff7f0"
       id="g112"
       transform="translate(22.86,79)">
      <path
         id="circle108"
         d="M 3.5,0 A 3.5,3.5 0 0 1 0,3.5 3.5,3.5 0 0 1 -3.5,0 3.5,3.5 0 0 1 0,-3.5 3.5,3.5 0 0 1 3.5,0 Z"
         style="stroke:none" />
      <path
         id="line110"
         d="M 0,0 V -3.0625"
         style="stroke-width:0.4375;stroke-linecap:round" />
    </g>
    <g
       id="text114"
       style="font-weight:bold;font-size:3.0480001px;font-family:'Proxima Nova';text-anchor:middle;fill:#994d00"
       aria-label="LEVEL">
      <path
         id="path307"
         style="font-weight:bold;font-size:3.0480001px;font-family:'Proxima Nova';text-anchor:middle;fill:#994d00"
         d="m 32.026617,71.650002 h 1.292352 v -0.381 h -0.859536 v -1.652017 h -0.432816 z" />
      <path
         id="path309"
         style="font-weight:bold;font-size:3.0480001px;font-family:'Proxima Nova';text-anchor:middle;fill:#994d00"
         d="m 33.622055,71.650002 h 1.438656 v -0.381 h -1.00584 v -0.460249 h 0.984504 v -0.381 h -0.984504 v -0.429768 h 1.00584 v -0.381 h -1.438656 z" />
      <path
         id="path311"
         style="font-weight:bold;font-size:3.0480001px;font-family:'Proxima Nova';text-anchor:middle;fill:#994d00"
         d="m 35.972015,71.650002 h 0.542544 l 0.783336,-2.033017 h -0.493776 l -0.560832,1.563625 -0.56388,-1.563625 h -0.493776 z" />
      <path
         id="path313"
         style="font-weight:bold;font-size:3.0480001px;font-family:'Proxima Nova';text-anchor:middle;fill:#994d00"
         d="m 37.485633,71.650002 h 1.438656 v -0.381 h -1.00584 v -0.460249 h 0.984504 v -0.381 h -0.984504 v -0.429768 h 1.00584 v -0.381 h -1.438656 z" />
      <path
         id="path315"
         style="font-weight:bold;font-size:3.0480001px;font-family:'Proxima Nova';text-anchor:middle;fill:#994d00"
         d="m 39.265618,71.650002 h 1.292352 v -0.381 h -0.859536 v -1.652017 h -0.432816 z" />
    </g>
    <g
       style="fill:#994d00;stroke:#fff7f0"
       id="g120"
       transform="translate(36.242667,79)">
      <path
         id="circle116"
         d="M 6.3499999,0 A 6.3499999,6.3499999 0 0 1 0,6.3499999 6.3499999,6.3499999 0 0 1 -6.3499999,0 6.3499999,6.3499999 0 0 1 0,-6.3499999 6.3499999,6.3499999 0 0 1 6.3499999,0 Z"
         style="stroke:none" />
      <path
         id="line118"
         d="M 0,0 V -5.5562501"
         style="stroke-width:0.79374999;stroke-linecap:round" />
    </g>
    <g
       id="text122"
       style="font-weight:bold;font-size:2.37066674px;font-family:'Proxima Nova';text-anchor:middle;fill:#994d00"
       aria-label="S">
      <path
         id="path320"
         style="font-weight:bold;font-size:2.37066674px;font-family:'Proxima Nova';text-anchor:middle;fill:#994d00"
         d="m 8.8163801,89.602154 c 0.1469813,0.149352 0.3650826,0.251291 0.668528,0.251291 0.42672,0 0.6329679,-0.218101 0.6329679,-0.507323 0,-0.35797 -0.3318932,-0.436202 -0.5926666,-0.49784 -0.170688,-0.0403 -0.3152987,-0.07349 -0.3152987,-0.175429 0,-0.09483 0.080603,-0.158835 0.2252134,-0.158835 0.1612053,0 0.3318933,0.05453 0.4599093,0.173059 L 10.082316,88.440528 C 9.9258521,88.295917 9.7172334,88.220056 9.4659428,88.220056 c -0.3721947,0 -0.5997787,0.218101 -0.5997787,0.481245 0,0.360341 0.3318933,0.431461 0.590296,0.490728 0.1730587,0.04267 0.32004,0.07586 0.32004,0.192024 0,0.09009 -0.090085,0.175429 -0.2749973,0.175429 -0.2181014,0 -0.3911601,-0.0972 -0.5025814,-0.21336 z" />
    </g>
    <g
       id="text124"
       style="font-weight:bold;font-size:2.37066674px;font-family:'Proxima Nova';dominant-baseline:hanging;text-anchor:middle;fill:#994d00"
       aria-label="J">
      <path
         id="path323"
         style="font-weight:bold;font-size:2.37066674px;font-family:'Proxima Nova';dominant-baseline:hanging;text-anchor:middle;fill:#994d00"
         d="m 8.9150961,99.547619 c 0.113792,0.111421 0.2655147,0.154093 0.4243494,0.154093 0.3247813,0 0.5571066,-0.173058 0.5571066,-0.547624 V 98.09203 H 9.5599175 v 1.057317 c 0,0.154093 -0.097197,0.253661 -0.2465494,0.253661 -0.1090506,0 -0.1896533,-0.05452 -0.2512906,-0.113792 z" />
    </g>
    <g
       style="fill:#fff7f0;stroke:#994d00"
       id="g138"
       transform="translate(9.477333,94)">
      <path
         id="rect126"
         d="m -1.125,-2.8125 h 2.25 c 0.103875,0 0.1875,0.083625 0.1875,0.1875 v 5.25 c 0,0.103875 -0.083625,0.1875 -0.1875,0.1875 h -2.25 c -0.103875,0 -0.1875,-0.083625 -0.1875,-0.1875 v -5.25 c 0,-0.103875 0.083625,-0.1875 0.1875,-0.1875 z"
         style="stroke-width:0.375" />
      <path
         id="line128"
         d="m -0.875,0.25 h 1.75"
         style="stroke-width:0.25;stroke-linecap:round" />
      <path
         id="line130"
         d="m -0.875,0.75 h 1.75"
         style="stroke-width:0.25;stroke-linecap:round" />
      <path
         id="line132"
         d="m -0.875,1.25 h 1.75"
         style="stroke-width:0.25;stroke-linecap:round" />
      <path
         id="line134"
         d="m -0.875,1.75 h 1.75"
         style="stroke-width:0.25;stroke-linecap:round" />
      <path
         id="line136"
         d="m -0.875,2.25 h 1.75"
         style="stroke-width:0.25;stroke-linecap:round" />
    </g>
    <g
       id="text140"
       style="font-weight:bold;font-size:2.37066674px;font-family:'Proxima Nova';text-anchor:middle;fill:#994d00"
       aria-label="CURVE">
      <path
         id="path332"
         style="font-weight:bold;font-size:2.37066674px;font-family:'Proxima Nova';text-anchor:middle;fill:#994d00"
         d="m 19.846513,89.528448 c 0.348488,0 0.547624,-0.192024 0.661416,-0.388789 l -0.289222,-0.13987 c -0.06638,0.130387 -0.208618,0.229955 -0.372194,0.229955 -0.286851,0 -0.49547,-0.220472 -0.49547,-0.519176 0,-0.298704 0.208619,-0.519176 0.49547,-0.519176 0.163576,0 0.305816,0.101939 0.372194,0.229955 l 0.289222,-0.14224 c -0.111422,-0.196766 -0.312928,-0.386419 -0.661416,-0.386419 -0.474134,0 -0.841587,0.331893 -0.841587,0.81788 0,0.485987 0.367453,0.81788 0.841587,0.81788 z" />
      <path
         id="path334"
         style="font-weight:bold;font-size:2.37066674px;font-family:'Proxima Nova';text-anchor:middle;fill:#994d00"
         d="m 20.710621,88.869403 c 0,0.388789 0.232325,0.659045 0.71357,0.659045 0.481246,0 0.713571,-0.267885 0.713571,-0.661416 v -0.948267 h -0.343747 v 0.938784 c 0,0.220472 -0.125645,0.372195 -0.369824,0.372195 -0.244178,0 -0.372194,-0.151723 -0.372194,-0.372195 v -0.938784 h -0.341376 z" />
      <path
         id="path336"
         style="font-weight:bold;font-size:2.37066674px;font-family:'Proxima Nova';text-anchor:middle;fill:#994d00"
         d="m 23.34069,89.5 h 0.386419 l -0.3556,-0.602149 c 0.170688,-0.0403 0.346117,-0.189654 0.346117,-0.469392 0,-0.293963 -0.201507,-0.509694 -0.531029,-0.509694 H 22.446949 V 89.5 h 0.336634 v -0.561848 h 0.24655 z m 0.03319,-1.071541 c 0,0.132757 -0.101938,0.21336 -0.237066,0.21336 h -0.35323 v -0.42672 h 0.35323 c 0.135128,0 0.237066,0.0806 0.237066,0.21336 z" />
      <path
         id="path338"
         style="font-weight:bold;font-size:2.37066674px;font-family:'Proxima Nova';text-anchor:middle;fill:#994d00"
         d="m 24.390451,89.5 h 0.421979 l 0.609261,-1.581235 h -0.384048 l -0.436202,1.216152 -0.438574,-1.216152 h -0.384048 z" />
      <path
         id="path340"
         style="font-weight:bold;font-size:2.37066674px;font-family:'Proxima Nova';text-anchor:middle;fill:#994d00"
         d="m 25.567709,89.5 h 1.118955 v -0.296333 h -0.78232 v -0.357971 h 0.765725 v -0.296333 h -0.765725 v -0.334264 h 0.78232 v -0.296334 h -1.118955 z" />
    </g>
    <g
       style="fill:#994d00;stroke:#fff7f0"
       id="g146"
       transform="translate(22.86,94)">
      <path
         id="circle142"
         d="M 3.5,0 A 3.5,3.5 0 0 1 0,3.5 3.5,3.5 0 0 1 -3.5,0 3.5,3.5 0 0 1 0,-3.5 3.5,3.5 0 0 1 3.5,0 Z"
         style="stroke:none" />
      <path
         id="line144"
         d="M 0,0 V -3.0625"
         style="stroke-width:0.4375;stroke-linecap:round" />
    </g>
    <g
       id="text148"
       style="font-weight:bold;font-size:2.37066674px;font-family:'Proxima Nova';text-anchor:middle;fill:#994d00"
       aria-label="UNI">
      <path
         id="path345"
         style="font-weight:bold;font-size:2.37066674px;font-family:'Proxima Nova';text-anchor:middle;fill:#994d00"
         d="m 34.34332,89.1944 c 0,0.388789 0.232325,0.659045 0.71357,0.659045 0.481246,0 0.713571,-0.267885 0.713571,-0.661416 v -0.948267 h -0.343747 v 0.938784 c 0,0.220472 -0.125645,0.372195 -0.369824,0.372195 -0.244178,0 -0.372194,-0.151723 -0.372194,-0.372195 V 88.243762 H 34.34332 Z" />
      <path
         id="path347"
         style="font-weight:bold;font-size:2.37066674px;font-family:'Proxima Nova';text-anchor:middle;fill:#994d00"
         d="m 37.170154,89.824997 h 0.324782 v -1.581235 h -0.336635 v 0.99331 l -0.732536,-0.99331 h -0.346117 v 1.581235 h 0.336634 v -1.03124 z" />
      <path
         id="path349"
         style="font-weight:bold;font-size:2.37066674px;font-family:'Proxima Nova';text-anchor:middle;fill:#994d00"
         d="M 37.806715,89.824997 H 38.14335 V 88.243762 H 37.806715 Z" />
    </g>
    <g
       id="text150"
       style="font-weight:bold;font-size:2.37066674px;font-family:'Proxima Nova';dominant-baseline:hanging;text-anchor:middle;fill:#994d00"
       aria-label="BI">
      <path
         id="path352"
         style="font-weight:bold;font-size:2.37066674px;font-family:'Proxima Nova';dominant-baseline:hanging;text-anchor:middle;fill:#994d00"
         d="m 35.290197,99.673264 h 0.858182 c 0.301074,0 0.459909,-0.189653 0.459909,-0.42672 0,-0.199136 -0.135128,-0.362712 -0.303445,-0.388789 0.149352,-0.03082 0.272626,-0.163576 0.272626,-0.362712 0,-0.210989 -0.154093,-0.403013 -0.455168,-0.403013 h -0.832104 z m 0.336635,-0.948266 v -0.343747 h 0.421979 c 0.113792,0 0.184912,0.07349 0.184912,0.173059 0,0.09957 -0.07112,0.170688 -0.184912,0.170688 z m 0,0.656674 v -0.367453 h 0.433832 c 0.132757,0 0.203877,0.08534 0.203877,0.184912 0,0.113792 -0.07586,0.182541 -0.203877,0.182541 z" />
      <path
         id="path354"
         style="font-weight:bold;font-size:2.37066674px;font-family:'Proxima Nova';dominant-baseline:hanging;text-anchor:middle;fill:#994d00"
         d="m 36.859838,99.673264 h 0.336635 V 98.09203 h -0.336635 z" />
    </g>
    <g
       style="fill:#fff7f0;stroke:#994d00"
       id="g164"
       transform="translate(36.242667,94)">
      <path
         id="rect152"
         d="m -1.125,-2.8125 h 2.25 c 0.103875,0 0.1875,0.083625 0.1875,0.1875 v 5.25 c 0,0.103875 -0.083625,0.1875 -0.1875,0.1875 h -2.25 c -0.103875,0 -0.1875,-0.083625 -0.1875,-0.1875 v -5.25 c 0,-0.103875 0.083625,-0.1875 0.1875,-0.1875 z"
         style="stroke-width:0.375" />
      <path
         id="line154"
         d="m -0.875,-2.25 h 1.75"
         style="stroke-width:0.25;stroke-linecap:round" />
      <path
         id="line156"
         d="m -0.875,-1.75 h 1.75"
         style="stroke-width:0.25;stroke-linecap:round" />
      <path
         id="line158"
         d="m -0.875,-1.25 h 1.75"
         style="stroke-width:0.25;stroke-linecap:round" />
      <path
         id="line160"
         d="m -0.875,-0.75 h 1.75"
         style="stroke-width:0.25;stroke-linecap:round" />
      <path
         id="line162"
         d="m -0.875,-0.25 h 1.75"
         style="stroke-width:0.25;stroke-linecap:round" />
    </g>
    <path
       id="rect166"
       d="m 31.867666,101.04456 h 8.75 c 0.554,0 1,0.446 1,1 v 11.33045 c 0,0.554 -0.446,1 -1,1 h -8.75 c -0.554,0 -1,-0.446 -1,-1 v -11.33045 c 0,-0.554 0.446,-1 1,-1 z"
       style="fill:#994d00;stroke:#fff7f0;stroke-width:0.34999999" />
    <g
       id="text168"
       style="font-weight:bold;font-size:2.37066674px;font-family:'Proxima Nova';text-anchor:middle;fill:#fff7f0"
       aria-label="OUT">
      <path
         id="path364"
         style="font-weight:bold;font-size:2.37066674px;font-family:'Proxima Nova';text-anchor:middle;fill:#fff7f0"
         d="m 33.857685,103.01057 c 0,0.47651 0.348488,0.81788 0.824992,0.81788 0.478875,0 0.827363,-0.34137 0.827363,-0.81788 0,-0.4765 -0.348488,-0.81788 -0.827363,-0.81788 -0.476504,0 -0.824992,0.34138 -0.824992,0.81788 z m 1.306237,0 c 0,0.29396 -0.189653,0.51918 -0.481245,0.51918 -0.291592,0 -0.478875,-0.22522 -0.478875,-0.51918 0,-0.29633 0.187283,-0.51917 0.478875,-0.51917 0.291592,0 0.481245,0.22284 0.481245,0.51917 z" />
      <path
         id="path366"
         style="font-weight:bold;font-size:2.37066674px;font-family:'Proxima Nova';text-anchor:middle;fill:#fff7f0"
         d="m 35.748588,103.16941 c 0,0.38879 0.232325,0.65904 0.713571,0.65904 0.481245,0 0.71357,-0.26788 0.71357,-0.66141 v -0.94827 h -0.343746 v 0.93878 c 0,0.22047 -0.125646,0.3722 -0.369824,0.3722 -0.244179,0 -0.372195,-0.15173 -0.372195,-0.3722 v -0.93878 h -0.341376 z" />
      <path
         id="path368"
         style="font-weight:bold;font-size:2.37066674px;font-family:'Proxima Nova';text-anchor:middle;fill:#fff7f0"
         d="m 37.849999,103.8 h 0.339005 v -1.2849 h 0.459909 v -0.29633 h -1.261194 v 0.29633 h 0.46228 z" />
    </g>
    <g
       style="fill:#fff7f0;stroke:#994d00;stroke-width:0.20999999"
       id="g176"
       transform="translate(36.242667,109)">
      <path
         id="circle170"
         d="M 4.0949998,0 A 4.0949998,4.0949998 0 0 1 0,4.0949998 4.0949998,4.0949998 0 0 1 -4.0949998,0 4.0949998,4.0949998 0 0 1 0,-4.0949998 4.0949998,4.0949998 0 0 1 4.0949998,0 Z"
         style="" />
      <path
         id="circle172"
         d="M 2.925,0 A 2.925,2.925 0 0 1 0,2.925 2.925,2.925 0 0 1 -2.925,0 2.925,2.925 0 0 1 0,-2.925 2.925,2.925 0 0 1 2.925,0 Z"
         style="" />
      <path
         id="circle174"
         d="M 1.755,0 A 1.755,1.755 0 0 1 0,1.755 1.755,1.755 0 0 1 -1.755,0 1.755,1.755 0 0 1 0,-1.755 1.755,1.755 0 0 1 1.755,0 Z"
         style="fill:#994d00" />
    </g>
  </g>
</svg>
