<?xml version="1.0" encoding="UTF-8" standalone="no"?>
<svg
   xmlns:dc="http://purl.org/dc/elements/1.1/"
   xmlns:cc="http://creativecommons.org/ns#"
   xmlns:rdf="http://www.w3.org/1999/02/22-rdf-syntax-ns#"
   xmlns:svg="http://www.w3.org/2000/svg"
   xmlns="http://www.w3.org/2000/svg"
   id="svg228"
   height="379.42913385826773"
   width="135.0"
   version="1.1">
  <metadata
     id="metadata234">
    <rdf:RDF>
      <cc:Work
         rdf:about="">
        <dc:format>image/svg+xml</dc:format>
        <dc:type
           rdf:resource="http://purl.org/dc/dcmitype/StillImage" />
      </cc:Work>
    </rdf:RDF>
  </metadata>
  <defs
     id="defs232" />
  <g
     id="g226"
     transform="scale(2.9527559)">
    <path
       id="rect2"
       d="M 0,0 H 45.720001 V 128.5 H 0 Z"
       style="fill:#fff7f0;stroke:#994d00;stroke-width:1" />
    <g
       id="text4"
       style="font-weight:bold;font-size:4.06400013px;font-family:'Proxima Nova';text-anchor:middle;fill:#994d00"
       aria-label="TAPERS">
      <path
         id="path237"
         style="font-weight:bold;font-size:4.06400013px;font-family:'Proxima Nova';text-anchor:middle;fill:#994d00"
         d="m 16.336487,9 h 0.581152 V 6.7973119 h 0.788416 v -0.508 h -2.162048 v 0.508 h 0.79248 z" />
      <path
         id="path239"
         style="font-weight:bold;font-size:4.06400013px;font-family:'Proxima Nova';text-anchor:middle;fill:#994d00"
         d="m 19.683508,9 h 0.658368 L 19.297428,6.2893119 H 18.574036 L 17.525524,9 h 0.658368 L 18.35458,8.540768 h 1.162304 z M 18.935732,6.8663999 19.358388,8.032768 h -0.845312 z" />
      <path
         id="path241"
         style="font-weight:bold;font-size:4.06400013px;font-family:'Proxima Nova';text-anchor:middle;fill:#994d00"
         d="m 20.592193,9 h 0.577088 V 8.036832 h 0.69088 c 0.585216,0 0.910336,-0.402336 0.910336,-0.8737601 0,-0.475488 -0.321056,-0.87376 -0.910336,-0.87376 h -1.267968 z m 1.589024,-1.8369281 c 0,0.22352 -0.170688,0.3657601 -0.398272,0.3657601 H 21.169281 V 6.7973119 h 0.613664 c 0.227584,0 0.398272,0.138176 0.398272,0.36576 z" />
      <path
         id="path243"
         style="font-weight:bold;font-size:4.06400013px;font-family:'Proxima Nova';text-anchor:middle;fill:#994d00"
         d="m 23.124256,9 h 1.918208 V 8.492 h -1.34112 V 7.878336 h 1.312672 V 7.3703359 h -1.312672 v -0.573024 h 1.34112 v -0.508 h -1.918208 z" />
      <path
         id="path245"
         style="font-weight:bold;font-size:4.06400013px;font-family:'Proxima Nova';text-anchor:middle;fill:#994d00"
         d="m 27.029696,9 h 0.662432 l -0.6096,-1.032256 c 0.292608,-0.069088 0.593344,-0.32512 0.593344,-0.8046721 0,-0.503936 -0.34544,-0.87376 -0.910336,-0.87376 H 25.497568 V 9 h 0.577088 V 8.036832 h 0.422656 z m 0.0569,-1.8369281 c 0,0.227584 -0.174752,0.3657601 -0.4064,0.3657601 H 26.074656 V 6.7973119 h 0.605536 c 0.231648,0 0.4064,0.138176 0.4064,0.36576 z" />
      <path
         id="path247"
         style="font-weight:bold;font-size:4.06400013px;font-family:'Proxima Nova';text-anchor:middle;fill:#994d00"
         d="m 27.926126,8.617984 c 0.251968,0.256032 0.625856,0.430784 1.146048,0.430784 0.73152,0 1.085088,-0.373888 1.085088,-0.869696 0,-0.613664 -0.56896,-0.7477761 -1.016,-0.8534401 -0.292608,-0.069088 -0.540512,-0.125984 -0.540512,-0.300736 0,-0.16256 0.138176,-0.272288 0.38608,-0.272288 0.276352,0 0.56896,0.093472 0.788416,0.296672 l 0.321056,-0.422656 c -0.268224,-0.247904 -0.625856,-0.377952 -1.05664,-0.377952 -0.638048,0 -1.028192,0.373888 -1.028192,0.824992 0,0.6177281 0.56896,0.7396481 1.011936,0.8412481 0.296672,0.073152 0.54864,0.130048 0.54864,0.329184 0,0.154432 -0.154432,0.300736 -0.471424,0.300736 -0.373888,0 -0.67056,-0.166624 -0.861568,-0.36576 z" />
    </g>
    <g
       id="text6"
       style="font-weight:bold;font-size:4.06400013px;font-family:'Proxima Nova';dominant-baseline:hanging;text-anchor:middle;fill:#994d00"
       aria-label="DHE">
      <path
         id="path250"
         style="font-weight:bold;font-size:4.06400013px;font-family:'Proxima Nova';dominant-baseline:hanging;text-anchor:middle;fill:#994d00"
         d="m 18.996756,122.06845 h 1.068832 c 0.849376,0 1.438656,-0.53645 1.438656,-1.35331 0,-0.81687 -0.58928,-1.35738 -1.438656,-1.35738 h -1.068832 z m 0.577088,-0.508 v -1.69469 h 0.491744 c 0.556768,0 0.849376,0.36982 0.849376,0.84938 0,0.45923 -0.312928,0.84531 -0.849376,0.84531 z" />
      <path
         id="path252"
         style="font-weight:bold;font-size:4.06400013px;font-family:'Proxima Nova';dominant-baseline:hanging;text-anchor:middle;fill:#994d00"
         d="m 23.775004,122.06845 h 0.581152 v -2.71069 h -0.581152 v 1.06477 h -1.28016 v -1.06477 h -0.577088 v 2.71069 h 0.577088 v -1.13792 h 1.28016 z" />
      <path
         id="path254"
         style="font-weight:bold;font-size:4.06400013px;font-family:'Proxima Nova';dominant-baseline:hanging;text-anchor:middle;fill:#994d00"
         d="m 24.886381,122.06845 h 1.918208 v -0.508 h -1.34112 v -0.61367 h 1.312672 v -0.508 h -1.312672 v -0.57302 h 1.34112 v -0.508 h -1.918208 z" />
    </g>
    <path
       id="line8"
       d="M 9.4773331,24 H 36.242668"
       style="stroke:#994d00;stroke-width:0.34999999" />
    <g
       id="text10"
       style="font-weight:bold;font-size:2.37066674px;font-family:'Proxima Nova';text-anchor:middle;fill:#994d00"
       aria-label="CV">
      <path
         id="path258"
         style="font-weight:bold;font-size:2.37066674px;font-family:'Proxima Nova';text-anchor:middle;fill:#994d00"
         d="m 8.7789495,18.828447 c 0.348488,0 0.547624,-0.192024 0.661416,-0.388789 L 9.1511441,18.299789 c -0.066379,0.130386 -0.2086186,0.229954 -0.3721946,0.229954 -0.2868507,0 -0.4954694,-0.220472 -0.4954694,-0.519176 0,-0.298704 0.2086187,-0.519176 0.4954694,-0.519176 0.163576,0 0.305816,0.101939 0.3721946,0.229955 l 0.2892214,-0.14224 c -0.1114214,-0.196765 -0.312928,-0.386419 -0.661416,-0.386419 -0.4741334,0 -0.8415867,0.331894 -0.8415867,0.81788 0,0.485987 0.3674533,0.81788 0.8415867,0.81788 z" />
      <path
         id="path260"
         style="font-weight:bold;font-size:2.37066674px;font-family:'Proxima Nova';text-anchor:middle;fill:#994d00"
         d="m 10.077112,18.799999 h 0.421978 l 0.609262,-1.581234 h -0.384048 l -0.436203,1.216152 -0.4385733,-1.216152 h -0.384048 z" />
    </g>
    <g
       style="fill:#fff7f0;stroke:#994d00;stroke-width:0.20999999"
       id="g18"
       transform="translate(9.477333,24)">
      <path
         id="circle12"
         d="M 4.0949998,0 A 4.0949998,4.0949998 0 0 1 0,4.0949998 4.0949998,4.0949998 0 0 1 -4.0949998,0 4.0949998,4.0949998 0 0 1 0,-4.0949998 4.0949998,4.0949998 0 0 1 4.0949998,0 Z"
         style="" />
      <path
         id="circle14"
         d="M 2.925,0 A 2.925,2.925 0 0 1 0,2.925 2.925,2.925 0 0 1 -2.925,0 2.925,2.925 0 0 1 0,-2.925 2.925,2.925 0 0 1 2.925,0 Z"
         style="" />
      <path
         id="circle16"
         d="M 1.755,0 A 1.755,1.755 0 0 1 0,1.755 1.755,1.755 0 0 1 -1.755,0 1.755,1.755 0 0 1 0,-1.755 1.755,1.755 0 0 1 1.755,0 Z"
         style="fill:#994d00" />
    </g>
    <g
       id="text22"
       style="font-weight:bold;font-size:3.0480001px;font-family:'Proxima Nova';text-anchor:middle;fill:#994d00"
       aria-label="-  +">
      <path
         id="path266"
         style="font-size:larger"
         d="m 20.562285,18.812371 h 0.877824 V 18.41735 h -0.877824 z" />
      <path
         id="path268"
         style="font-size:larger"
         d="m 24.507007,18.410035 h 0.65471 v -0.28895 h -0.65471 v -0.713232 h -0.318211 v 0.713232 h -0.658369 v 0.28895 h 0.658369 v 0.742493 h 0.318211 z" />
    </g>
    <g
       style="fill:#994d00;stroke:#fff7f0"
       id="g28"
       transform="translate(22.86,24)">
      <path
         id="circle24"
         d="M 3.5,0 A 3.5,3.5 0 0 1 0,3.5 3.5,3.5 0 0 1 -3.5,0 3.5,3.5 0 0 1 0,-3.5 3.5,3.5 0 0 1 3.5,0 Z"
         style="stroke:none" />
      <path
         id="line26"
         d="M 0,0 V -3.0625"
         style="stroke-width:0.4375;stroke-linecap:round" />
    </g>
    <g
       id="text30"
       style="font-weight:bold;font-size:3.0480001px;font-family:'Proxima Nova';text-anchor:middle;fill:#994d00"
       aria-label="LEVEL">
      <path
         id="path273"
         style="font-weight:bold;font-size:3.0480001px;font-family:'Proxima Nova';text-anchor:middle;fill:#994d00"
         d="m 32.026617,18 h 1.292352 v -0.381 h -0.859536 v -1.652016 h -0.432816 z" />
      <path
         id="path275"
         style="font-weight:bold;font-size:3.0480001px;font-family:'Proxima Nova';text-anchor:middle;fill:#994d00"
         d="m 33.622055,18 h 1.438656 v -0.381 h -1.00584 v -0.460248 h 0.984504 v -0.381 h -0.984504 v -0.429768 h 1.00584 v -0.381 h -1.438656 z" />
      <path
         id="path277"
         style="font-weight:bold;font-size:3.0480001px;font-family:'Proxima Nova';text-anchor:middle;fill:#994d00"
         d="m 35.972015,18 h 0.542544 l 0.783336,-2.033016 h -0.493776 l -0.560832,1.563624 -0.56388,-1.563624 h -0.493776 z" />
      <path
         id="path279"
         style="font-weight:bold;font-size:3.0480001px;font-family:'Proxima Nova';text-anchor:middle;fill:#994d00"
         d="m 37.485633,18 h 1.438656 v -0.381 h -1.00584 v -0.460248 h 0.984504 v -0.381 h -0.984504 v -0.429768 h 1.00584 v -0.381 h -1.438656 z" />
      <path
         id="path281"
         style="font-weight:bold;font-size:3.0480001px;font-family:'Proxima Nova';text-anchor:middle;fill:#994d00"
         d="M 39.265618,18 H 40.55797 V 17.619 H 39.698434 V 15.966984 H 39.265618 Z" />
    </g>
    <g
       style="fill:#994d00;stroke:#fff7f0"
       id="g36"
       transform="translate(36.242667,24)">
      <path
         id="circle32"
         d="M 5,0 A 5,5 0 0 1 0,5 5,5 0 0 1 -5,0 5,5 0 0 1 0,-5 5,5 0 0 1 5,0 Z"
         style="stroke:none" />
      <path
         id="line34"
         d="M 0,0 V -4.375"
         style="stroke-width:0.625;stroke-linecap:round" />
    </g>
    <path
       id="line38"
       d="M 9.4773331,40 H 36.242668"
       style="stroke:#994d00;stroke-width:0.34999999" />
    <g
       id="text40"
       style="font-weight:bold;font-size:2.37066674px;font-family:'Proxima Nova';text-anchor:middle;fill:#994d00"
       aria-label="CV">
      <path
         id="path287"
         style="font-weight:bold;font-size:2.37066674px;font-family:'Proxima Nova';text-anchor:middle;fill:#994d00"
         d="m 8.7789495,34.828447 c 0.348488,0 0.547624,-0.192024 0.661416,-0.388789 L 9.1511441,34.299789 c -0.066379,0.130386 -0.2086186,0.229954 -0.3721946,0.229954 -0.2868507,0 -0.4954694,-0.220472 -0.4954694,-0.519176 0,-0.298704 0.2086187,-0.519176 0.4954694,-0.519176 0.163576,0 0.305816,0.101939 0.3721946,0.229955 l 0.2892214,-0.14224 c -0.1114214,-0.196765 -0.312928,-0.386419 -0.661416,-0.386419 -0.4741334,0 -0.8415867,0.331894 -0.8415867,0.81788 0,0.485987 0.3674533,0.81788 0.8415867,0.81788 z" />
      <path
         id="path289"
         style="font-weight:bold;font-size:2.37066674px;font-family:'Proxima Nova';text-anchor:middle;fill:#994d00"
         d="m 10.077112,34.799999 h 0.421978 l 0.609262,-1.581234 h -0.384048 l -0.436203,1.216152 -0.4385733,-1.216152 h -0.384048 z" />
    </g>
    <g
       style="fill:#fff7f0;stroke:#994d00;stroke-width:0.20999999"
       id="g48"
       transform="translate(9.477333,40)">
      <path
         id="circle42"
         d="M 4.0949998,0 A 4.0949998,4.0949998 0 0 1 0,4.0949998 4.0949998,4.0949998 0 0 1 -4.0949998,0 4.0949998,4.0949998 0 0 1 0,-4.0949998 4.0949998,4.0949998 0 0 1 4.0949998,0 Z"
         style="" />
      <path
         id="circle44"
         d="M 2.925,0 A 2.925,2.925 0 0 1 0,2.925 2.925,2.925 0 0 1 -2.925,0 2.925,2.925 0 0 1 0,-2.925 2.925,2.925 0 0 1 2.925,0 Z"
         style="" />
      <path
         id="circle46"
         d="M 1.755,0 A 1.755,1.755 0 0 1 0,1.755 1.755,1.755 0 0 1 -1.755,0 1.755,1.755 0 0 1 0,-1.755 1.755,1.755 0 0 1 1.755,0 Z"
         style="fill:#994d00" />
    </g>
    <g
       id="text52"
       style="font-weight:bold;font-size:3.0480001px;font-family:'Proxima Nova';text-anchor:middle;fill:#994d00"
       aria-label="-  +">
      <path
         id="path295"
         style="font-size:larger"
         d="m 20.562285,34.812371 h 0.877824 V 34.41735 h -0.877824 z" />
      <path
         id="path297"
         style="font-size:larger"
         d="m 24.507007,34.410035 h 0.65471 v -0.28895 h -0.65471 v -0.713232 h -0.318211 v 0.713232 h -0.658369 v 0.28895 h 0.658369 v 0.742493 h 0.318211 z" />
    </g>
    <g
       style="fill:#994d00;stroke:#fff7f0"
       id="g58"
       transform="translate(22.86,40)">
      <path
         id="circle54"
         d="M 3.5,0 A 3.5,3.5 0 0 1 0,3.5 3.5,3.5 0 0 1 -3.5,0 3.5,3.5 0 0 1 0,-3.5 3.5,3.5 0 0 1 3.5,0 Z"
         style="stroke:none" />
      <path
         id="line56"
         d="M 0,0 V -3.0625"
         style="stroke-width:0.4375;stroke-linecap:round" />
    </g>
    <g
       id="text60"
       style="font-weight:bold;font-size:3.0480001px;font-family:'Proxima Nova';text-anchor:middle;fill:#994d00"
       aria-label="CURVE">
      <path
         id="path302"
         style="font-weight:bold;font-size:3.0480001px;font-family:'Proxima Nova';text-anchor:middle;fill:#994d00"
         d="m 32.368184,34.036576 c 0.448056,0 0.704088,-0.246888 0.850392,-0.499872 L 32.84672,33.356872 c -0.08534,0.16764 -0.268224,0.295656 -0.478536,0.295656 -0.368808,0 -0.637032,-0.283464 -0.637032,-0.667512 0,-0.384048 0.268224,-0.667512 0.637032,-0.667512 0.210312,0 0.393192,0.131064 0.478536,0.295656 l 0.371856,-0.18288 c -0.143256,-0.252984 -0.402336,-0.496824 -0.850392,-0.496824 -0.6096,0 -1.08204,0.42672 -1.08204,1.05156 0,0.62484 0.47244,1.05156 1.08204,1.05156 z" />
      <path
         id="path304"
         style="font-weight:bold;font-size:3.0480001px;font-family:'Proxima Nova';text-anchor:middle;fill:#994d00"
         d="m 33.47918,33.189232 c 0,0.499872 0.298704,0.847344 0.917448,0.847344 0.618744,0 0.917448,-0.344424 0.917448,-0.850392 v -1.2192 h -0.44196 v 1.207008 c 0,0.283464 -0.161544,0.478536 -0.475488,0.478536 -0.313944,0 -0.478536,-0.195072 -0.478536,-0.478536 V 31.966984 H 33.47918 Z" />
      <path
         id="path306"
         style="font-weight:bold;font-size:3.0480001px;font-family:'Proxima Nova';text-anchor:middle;fill:#994d00"
         d="m 36.860698,34 h 0.496824 l -0.4572,-0.774192 c 0.219456,-0.05182 0.445008,-0.24384 0.445008,-0.603504 0,-0.377952 -0.25908,-0.65532 -0.682752,-0.65532 H 35.711602 V 34 h 0.432816 v -0.722376 h 0.316992 z m 0.04267,-1.377696 c 0,0.170688 -0.131064,0.27432 -0.3048,0.27432 h -0.454152 v -0.54864 h 0.454152 c 0.173736,0 0.3048,0.103632 0.3048,0.27432 z" />
      <path
         id="path308"
         style="font-weight:bold;font-size:3.0480001px;font-family:'Proxima Nova';text-anchor:middle;fill:#994d00"
         d="m 38.21039,34 h 0.542544 l 0.783336,-2.033016 h -0.493776 l -0.560832,1.563624 -0.56388,-1.563624 h -0.493776 z" />
      <path
         id="path310"
         style="font-weight:bold;font-size:3.0480001px;font-family:'Proxima Nova';text-anchor:middle;fill:#994d00"
         d="m 39.724008,34 h 1.438656 v -0.381 h -1.00584 v -0.460248 h 0.984504 v -0.381 h -0.984504 v -0.429768 h 1.00584 v -0.381 h -1.438656 z" />
    </g>
    <g
       style="fill:#994d00;stroke:#fff7f0"
       id="g66"
       transform="translate(36.242667,40)">
      <path
         id="circle62"
         d="M 5,0 A 5,5 0 0 1 0,5 5,5 0 0 1 -5,0 5,5 0 0 1 0,-5 5,5 0 0 1 5,0 Z"
         style="stroke:none" />
      <path
         id="line64"
         d="M 0,0 V -4.375"
         style="stroke-width:0.625;stroke-linecap:round" />
    </g>
    <g
       id="text68"
       style="font-weight:bold;font-size:2.37066674px;font-family:'Proxima Nova';text-anchor:middle;fill:#994d00"
       aria-label="S">
      <path
         id="path315"
         style="font-weight:bold;font-size:2.37066674px;font-family:'Proxima Nova';text-anchor:middle;fill:#994d00"
         d="m 8.8163801,51.602158 c 0.1469813,0.149352 0.3650826,0.251291 0.668528,0.251291 0.42672,0 0.6329679,-0.218102 0.6329679,-0.507323 0,-0.357971 -0.3318932,-0.436203 -0.5926666,-0.49784 -0.170688,-0.0403 -0.3152987,-0.07349 -0.3152987,-0.175429 0,-0.09483 0.080603,-0.158835 0.2252134,-0.158835 0.1612053,0 0.3318933,0.05453 0.4599093,0.173059 l 0.1872826,-0.24655 c -0.1564639,-0.14461 -0.3650826,-0.220472 -0.6163732,-0.220472 -0.3721947,0 -0.5997787,0.218102 -0.5997787,0.481246 0,0.360341 0.3318933,0.431461 0.590296,0.490728 0.1730587,0.04267 0.32004,0.07586 0.32004,0.192024 0,0.09009 -0.090085,0.175429 -0.2749973,0.175429 -0.2181014,0 -0.3911601,-0.0972 -0.5025814,-0.21336 z" />
    </g>
    <g
       id="text70"
       style="font-weight:bold;font-size:2.37066674px;font-family:'Proxima Nova';dominant-baseline:hanging;text-anchor:middle;fill:#994d00"
       aria-label="J">
      <path
         id="path318"
         style="font-weight:bold;font-size:2.37066674px;font-family:'Proxima Nova';dominant-baseline:hanging;text-anchor:middle;fill:#994d00"
         d="m 8.9150961,61.547615 c 0.113792,0.111422 0.2655147,0.154094 0.4243494,0.154094 0.3247813,0 0.5571066,-0.173059 0.5571066,-0.547624 V 60.092026 H 9.5599175 v 1.057317 c 0,0.154094 -0.097197,0.253662 -0.2465494,0.253662 -0.1090506,0 -0.1896533,-0.05453 -0.2512906,-0.113792 z" />
    </g>
    <g
       style="fill:#fff7f0;stroke:#994d00"
       id="g84"
       transform="translate(9.477333,56)">
      <path
         id="rect72"
         d="m -1.125,-2.8125 h 2.25 c 0.103875,0 0.1875,0.083625 0.1875,0.1875 v 5.25 c 0,0.103875 -0.083625,0.1875 -0.1875,0.1875 h -2.25 c -0.103875,0 -0.1875,-0.083625 -0.1875,-0.1875 v -5.25 c 0,-0.103875 0.083625,-0.1875 0.1875,-0.1875 z"
         style="stroke-width:0.375" />
      <path
         id="line74"
         d="m -0.875,0.25 h 1.75"
         style="stroke-width:0.25;stroke-linecap:round" />
      <path
         id="line76"
         d="m -0.875,0.75 h 1.75"
         style="stroke-width:0.25;stroke-linecap:round" />
      <path
         id="line78"
         d="m -0.875,1.25 h 1.75"
         style="stroke-width:0.25;stroke-linecap:round" />
      <path
         id="line80"
         d="m -0.875,1.75 h 1.75"
         style="stroke-width:0.25;stroke-linecap:round" />
      <path
         id="line82"
         d="m -0.875,2.25 h 1.75"
         style="stroke-width:0.25;stroke-linecap:round" />
    </g>
    <g
       id="text86"
       style="font-weight:bold;font-size:2.37066674px;font-family:'Proxima Nova';text-anchor:middle;fill:#994d00"
       aria-label="UNI">
      <path
         id="path327"
         style="font-weight:bold;font-size:2.37066674px;font-family:'Proxima Nova';text-anchor:middle;fill:#994d00"
         d="m 20.960652,51.194403 c 0,0.38879 0.232325,0.659046 0.713571,0.659046 0.481245,0 0.71357,-0.267886 0.71357,-0.661416 v -0.948267 h -0.343746 v 0.938784 c 0,0.220472 -0.125646,0.372195 -0.369824,0.372195 -0.244179,0 -0.372195,-0.151723 -0.372195,-0.372195 v -0.938784 h -0.341376 z" />
      <path
         id="path329"
         style="font-weight:bold;font-size:2.37066674px;font-family:'Proxima Nova';text-anchor:middle;fill:#994d00"
         d="m 23.787487,51.825001 h 0.324781 v -1.581235 h -0.336634 v 0.993309 L 23.043098,50.243766 H 22.69698 v 1.581235 h 0.336635 v -1.03124 z" />
      <path
         id="path331"
         style="font-weight:bold;font-size:2.37066674px;font-family:'Proxima Nova';text-anchor:middle;fill:#994d00"
         d="m 24.424048,51.825001 h 0.336635 v -1.581235 h -0.336635 z" />
    </g>
    <g
       id="text88"
       style="font-weight:bold;font-size:2.37066674px;font-family:'Proxima Nova';dominant-baseline:hanging;text-anchor:middle;fill:#994d00"
       aria-label="BI">
      <path
         id="path334"
         style="font-weight:bold;font-size:2.37066674px;font-family:'Proxima Nova';dominant-baseline:hanging;text-anchor:middle;fill:#994d00"
         d="m 21.90753,61.673261 h 0.858181 c 0.301075,0 0.459909,-0.189654 0.459909,-0.42672 0,-0.199136 -0.135128,-0.362712 -0.303445,-0.38879 0.149352,-0.03082 0.272627,-0.163576 0.272627,-0.362712 0,-0.210989 -0.154094,-0.403013 -0.455168,-0.403013 H 21.90753 Z m 0.336634,-0.948267 v -0.343747 h 0.421979 c 0.113792,0 0.184912,0.07349 0.184912,0.173059 0,0.09957 -0.07112,0.170688 -0.184912,0.170688 z m 0,0.656675 v -0.367454 h 0.433832 c 0.132758,0 0.203878,0.08534 0.203878,0.184912 0,0.113792 -0.07586,0.182542 -0.203878,0.182542 z" />
      <path
         id="path336"
         style="font-weight:bold;font-size:2.37066674px;font-family:'Proxima Nova';dominant-baseline:hanging;text-anchor:middle;fill:#994d00"
         d="m 23.47717,61.673261 h 0.336635 V 60.092026 H 23.47717 Z" />
    </g>
    <g
       style="fill:#fff7f0;stroke:#994d00"
       id="g102"
       transform="translate(22.86,56)">
      <path
         id="rect90"
         d="m -1.125,-2.8125 h 2.25 c 0.103875,0 0.1875,0.083625 0.1875,0.1875 v 5.25 c 0,0.103875 -0.083625,0.1875 -0.1875,0.1875 h -2.25 c -0.103875,0 -0.1875,-0.083625 -0.1875,-0.1875 v -5.25 c 0,-0.103875 0.083625,-0.1875 0.1875,-0.1875 z"
         style="stroke-width:0.375" />
      <path
         id="line92"
         d="m -0.875,-2.25 h 1.75"
         style="stroke-width:0.25;stroke-linecap:round" />
      <path
         id="line94"
         d="m -0.875,-1.75 h 1.75"
         style="stroke-width:0.25;stroke-linecap:round" />
      <path
         id="line96"
         d="m -0.875,-1.25 h 1.75"
         style="stroke-width:0.25;stroke-linecap:round" />
      <path
         id="line98"
         d="m -0.875,-0.75 h 1.75"
         style="stroke-width:0.25;stroke-linecap:round" />
      <path
         id="line100"
         d="m -0.875,-0.25 h 1.75"
         style="stroke-width:0.25;stroke-linecap:round" />
    </g>
    <path
       id="rect104"
       d="m 31.867666,48.044556 h 8.75 c 0.554,0 1,0.446 1,1 V 60.375 c 0,0.554 -0.446,1 -1,1 h -8.75 c -0.554,0 -1,-0.446 -1,-1 V 49.044556 c 0,-0.554 0.446,-1 1,-1 z"
       style="fill:#994d00;stroke:#994d00;stroke-width:0.34999999" />
    <g
       id="text106"
       style="font-weight:bold;font-size:2.37066674px;font-family:'Proxima Nova';text-anchor:middle;fill:#fff7f0"
       aria-label="OUT">
      <path
         id="path346"
         style="font-weight:bold;font-size:2.37066674px;font-family:'Proxima Nova';text-anchor:middle;fill:#fff7f0"
         d="m 33.857685,50.010567 c 0,0.476504 0.348488,0.81788 0.824992,0.81788 0.478875,0 0.827363,-0.341376 0.827363,-0.81788 0,-0.476504 -0.348488,-0.81788 -0.827363,-0.81788 -0.476504,0 -0.824992,0.341376 -0.824992,0.81788 z m 1.306237,0 c 0,0.293963 -0.189653,0.519176 -0.481245,0.519176 -0.291592,0 -0.478875,-0.225213 -0.478875,-0.519176 0,-0.296333 0.187283,-0.519176 0.478875,-0.519176 0.291592,0 0.481245,0.222843 0.481245,0.519176 z" />
      <path
         id="path348"
         style="font-weight:bold;font-size:2.37066674px;font-family:'Proxima Nova';text-anchor:middle;fill:#fff7f0"
         d="m 35.748588,50.169402 c 0,0.388789 0.232325,0.659045 0.713571,0.659045 0.481245,0 0.71357,-0.267885 0.71357,-0.661416 v -0.948266 h -0.343746 v 0.938784 c 0,0.220472 -0.125646,0.372194 -0.369824,0.372194 -0.244179,0 -0.372195,-0.151722 -0.372195,-0.372194 v -0.938784 h -0.341376 z" />
      <path
         id="path350"
         style="font-weight:bold;font-size:2.37066674px;font-family:'Proxima Nova';text-anchor:middle;fill:#fff7f0"
         d="m 37.849999,50.799999 h 0.339005 v -1.284901 h 0.459909 v -0.296333 h -1.261194 v 0.296333 h 0.46228 z" />
    </g>
    <g
       style="fill:#fff7f0;stroke:#994d00;stroke-width:0.20999999"
       id="g114"
       transform="translate(36.242667,56)">
      <path
         id="circle108"
         d="M 4.0949998,0 A 4.0949998,4.0949998 0 0 1 0,4.0949998 4.0949998,4.0949998 0 0 1 -4.0949998,0 4.0949998,4.0949998 0 0 1 0,-4.0949998 4.0949998,4.0949998 0 0 1 4.0949998,0 Z"
         style="" />
      <path
         id="circle110"
         d="M 2.925,0 A 2.925,2.925 0 0 1 0,2.925 2.925,2.925 0 0 1 -2.925,0 2.925,2.925 0 0 1 0,-2.925 2.925,2.925 0 0 1 2.925,0 Z"
         style="" />
      <path
         id="circle112"
         d="M 1.755,0 A 1.755,1.755 0 0 1 0,1.755 1.755,1.755 0 0 1 -1.755,0 1.755,1.755 0 0 1 0,-1.755 1.755,1.755 0 0 1 1.755,0 Z"
         style="fill:#994d00" />
    </g>
    <path
       id="line116"
       d="M 0,66 H 45.720001"
       style="stroke:#994d00;stroke-width:0.34999999" />
    <path
       id="line118"
       d="M 9.4773331,76 H 36.242668"
       style="stroke:#994d00;stroke-width:0.34999999" />
    <g
       id="text120"
       style="font-weight:bold;font-size:2.37066674px;font-family:'Proxima Nova';text-anchor:middle;fill:#994d00"
       aria-label="CV">
      <path
         id="path358"
         style="font-weight:bold;font-size:2.37066674px;font-family:'Proxima Nova';text-anchor:middle;fill:#994d00"
         d="m 8.7789495,70.828451 c 0.348488,0 0.547624,-0.192024 0.661416,-0.388789 l -0.2892214,-0.13987 c -0.066379,0.130387 -0.2086186,0.229955 -0.3721946,0.229955 -0.2868507,0 -0.4954694,-0.220472 -0.4954694,-0.519176 0,-0.298704 0.2086187,-0.519176 0.4954694,-0.519176 0.163576,0 0.305816,0.101939 0.3721946,0.229955 l 0.2892214,-0.14224 c -0.1114214,-0.196766 -0.312928,-0.386419 -0.661416,-0.386419 -0.4741334,0 -0.8415867,0.331893 -0.8415867,0.81788 0,0.485987 0.3674533,0.81788 0.8415867,0.81788 z" />
      <path
         id="path360"
         style="font-weight:bold;font-size:2.37066674px;font-family:'Proxima Nova';text-anchor:middle;fill:#994d00"
         d="m 10.077112,70.800003 h 0.421978 l 0.609262,-1.581235 H 10.724304 L 10.288101,70.43492 9.8495277,69.218768 h -0.384048 z" />
    </g>
    <g
       style="fill:#fff7f0;stroke:#994d00;stroke-width:0.20999999"
       id="g128"
       transform="translate(9.477333,76)">
      <path
         id="circle122"
         d="M 4.0949998,0 A 4.0949998,4.0949998 0 0 1 0,4.0949998 4.0949998,4.0949998 0 0 1 -4.0949998,0 4.0949998,4.0949998 0 0 1 0,-4.0949998 4.0949998,4.0949998 0 0 1 4.0949998,0 Z"
         style="" />
      <path
         id="circle124"
         d="M 2.925,0 A 2.925,2.925 0 0 1 0,2.925 2.925,2.925 0 0 1 -2.925,0 2.925,2.925 0 0 1 0,-2.925 2.925,2.925 0 0 1 2.925,0 Z"
         style="" />
      <path
         id="circle126"
         d="M 1.755,0 A 1.755,1.755 0 0 1 0,1.755 1.755,1.755 0 0 1 -1.755,0 1.755,1.755 0 0 1 0,-1.755 1.755,1.755 0 0 1 1.755,0 Z"
         style="fill:#994d00" />
    </g>
    <g
       id="text132"
       style="font-weight:bold;font-size:3.0480001px;font-family:'Proxima Nova';text-anchor:middle;fill:#994d00"
       aria-label="-  +">
      <path
         id="path366"
         style="font-size:larger"
         d="m 20.562285,70.812371 h 0.877824 V 70.41735 h -0.877824 z" />
      <path
         id="path368"
         style="font-size:larger"
         d="m 24.507007,70.410035 h 0.65471 v -0.28895 h -0.65471 v -0.713232 h -0.318211 v 0.713232 h -0.658369 v 0.28895 h 0.658369 v 0.742493 h 0.318211 z" />
    </g>
    <g
       style="fill:#994d00;stroke:#fff7f0"
       id="g138"
       transform="translate(22.86,76)">
      <path
         id="circle134"
         d="M 3.5,0 A 3.5,3.5 0 0 1 0,3.5 3.5,3.5 0 0 1 -3.5,0 3.5,3.5 0 0 1 0,-3.5 3.5,3.5 0 0 1 3.5,0 Z"
         style="stroke:none" />
      <path
         id="line136"
         d="M 0,0 V -3.0625"
         style="stroke-width:0.4375;stroke-linecap:round" />
    </g>
    <g
       id="text140"
       style="font-weight:bold;font-size:3.0480001px;font-family:'Proxima Nova';text-anchor:middle;fill:#994d00"
       aria-label="LEVEL">
      <path
         id="path373"
         style="font-weight:bold;font-size:3.0480001px;font-family:'Proxima Nova';text-anchor:middle;fill:#994d00"
         d="m 32.026617,70 h 1.292352 v -0.381 h -0.859536 v -1.652016 h -0.432816 z" />
      <path
         id="path375"
         style="font-weight:bold;font-size:3.0480001px;font-family:'Proxima Nova';text-anchor:middle;fill:#994d00"
         d="m 33.622055,70 h 1.438656 v -0.381 h -1.00584 v -0.460248 h 0.984504 v -0.381 h -0.984504 v -0.429768 h 1.00584 v -0.381 h -1.438656 z" />
      <path
         id="path377"
         style="font-weight:bold;font-size:3.0480001px;font-family:'Proxima Nova';text-anchor:middle;fill:#994d00"
         d="m 35.972015,70 h 0.542544 l 0.783336,-2.033016 h -0.493776 l -0.560832,1.563624 -0.56388,-1.563624 h -0.493776 z" />
      <path
         id="path379"
         style="font-weight:bold;font-size:3.0480001px;font-family:'Proxima Nova';text-anchor:middle;fill:#994d00"
         d="m 37.485633,70 h 1.438656 v -0.381 h -1.00584 v -0.460248 h 0.984504 v -0.381 h -0.984504 v -0.429768 h 1.00584 v -0.381 h -1.438656 z" />
      <path
         id="path381"
         style="font-weight:bold;font-size:3.0480001px;font-family:'Proxima Nova';text-anchor:middle;fill:#994d00"
         d="M 39.265618,70 H 40.55797 V 69.619 H 39.698434 V 67.966984 H 39.265618 Z" />
    </g>
    <g
       style="fill:#994d00;stroke:#fff7f0"
       id="g146"
       transform="translate(36.242667,76)">
      <path
         id="circle142"
         d="M 5,0 A 5,5 0 0 1 0,5 5,5 0 0 1 -5,0 5,5 0 0 1 0,-5 5,5 0 0 1 5,0 Z"
         style="stroke:none" />
      <path
         id="line144"
         d="M 0,0 V -4.375"
         style="stroke-width:0.625;stroke-linecap:round" />
    </g>
    <path
       id="line148"
       d="M 9.4773331,92 H 36.242668"
       style="stroke:#994d00;stroke-width:0.34999999" />
    <g
       id="text150"
       style="font-weight:bold;font-size:2.37066674px;font-family:'Proxima Nova';text-anchor:middle;fill:#994d00"
       aria-label="CV">
      <path
         id="path387"
         style="font-weight:bold;font-size:2.37066674px;font-family:'Proxima Nova';text-anchor:middle;fill:#994d00"
         d="m 8.7789495,86.828451 c 0.348488,0 0.547624,-0.192024 0.661416,-0.388789 l -0.2892214,-0.13987 c -0.066379,0.130387 -0.2086186,0.229955 -0.3721946,0.229955 -0.2868507,0 -0.4954694,-0.220472 -0.4954694,-0.519176 0,-0.298704 0.2086187,-0.519176 0.4954694,-0.519176 0.163576,0 0.305816,0.101939 0.3721946,0.229955 l 0.2892214,-0.14224 c -0.1114214,-0.196766 -0.312928,-0.386419 -0.661416,-0.386419 -0.4741334,0 -0.8415867,0.331893 -0.8415867,0.81788 0,0.485987 0.3674533,0.81788 0.8415867,0.81788 z" />
      <path
         id="path389"
         style="font-weight:bold;font-size:2.37066674px;font-family:'Proxima Nova';text-anchor:middle;fill:#994d00"
         d="m 10.077112,86.800003 h 0.421978 l 0.609262,-1.581235 H 10.724304 L 10.288101,86.43492 9.8495277,85.218768 h -0.384048 z" />
    </g>
    <g
       style="fill:#fff7f0;stroke:#994d00;stroke-width:0.20999999"
       id="g158"
       transform="translate(9.477333,92)">
      <path
         id="circle152"
         d="M 4.0949998,0 A 4.0949998,4.0949998 0 0 1 0,4.0949998 4.0949998,4.0949998 0 0 1 -4.0949998,0 4.0949998,4.0949998 0 0 1 0,-4.0949998 4.0949998,4.0949998 0 0 1 4.0949998,0 Z"
         style="" />
      <path
         id="circle154"
         d="M 2.925,0 A 2.925,2.925 0 0 1 0,2.925 2.925,2.925 0 0 1 -2.925,0 2.925,2.925 0 0 1 0,-2.925 2.925,2.925 0 0 1 2.925,0 Z"
         style="" />
      <path
         id="circle156"
         d="M 1.755,0 A 1.755,1.755 0 0 1 0,1.755 1.755,1.755 0 0 1 -1.755,0 1.755,1.755 0 0 1 0,-1.755 1.755,1.755 0 0 1 1.755,0 Z"
         style="fill:#994d00" />
    </g>
    <g
       id="text162"
       style="font-weight:bold;font-size:3.0480001px;font-family:'Proxima Nova';text-anchor:middle;fill:#994d00"
       aria-label="-  +">
      <path
         id="path395"
         style="font-size:larger"
         d="m 20.562285,86.812371 h 0.877824 V 86.41735 h -0.877824 z" />
      <path
         id="path397"
         style="font-size:larger"
         d="m 24.507007,86.410035 h 0.65471 v -0.28895 h -0.65471 v -0.713232 h -0.318211 v 0.713232 h -0.658369 v 0.28895 h 0.658369 v 0.742493 h 0.318211 z" />
    </g>
    <g
       style="fill:#994d00;stroke:#fff7f0"
       id="g168"
       transform="translate(22.86,92)">
      <path
         id="circle164"
         d="M 3.5,0 A 3.5,3.5 0 0 1 0,3.5 3.5,3.5 0 0 1 -3.5,0 3.5,3.5 0 0 1 0,-3.5 3.5,3.5 0 0 1 3.5,0 Z"
         style="stroke:none" />
      <path
         id="line166"
         d="M 0,0 V -3.0625"
         style="stroke-width:0.4375;stroke-linecap:round" />
    </g>
    <g
       id="text170"
       style="font-weight:bold;font-size:3.0480001px;font-family:'Proxima Nova';text-anchor:middle;fill:#994d00"
       aria-label="CURVE">
      <path
         id="path402"
         style="font-weight:bold;font-size:3.0480001px;font-family:'Proxima Nova';text-anchor:middle;fill:#994d00"
         d="m 32.368184,86.036576 c 0.448056,0 0.704088,-0.246888 0.850392,-0.499872 L 32.84672,85.356872 c -0.08534,0.16764 -0.268224,0.295656 -0.478536,0.295656 -0.368808,0 -0.637032,-0.283464 -0.637032,-0.667512 0,-0.384048 0.268224,-0.667512 0.637032,-0.667512 0.210312,0 0.393192,0.131064 0.478536,0.295656 l 0.371856,-0.18288 c -0.143256,-0.252984 -0.402336,-0.496824 -0.850392,-0.496824 -0.6096,0 -1.08204,0.42672 -1.08204,1.05156 0,0.62484 0.47244,1.05156 1.08204,1.05156 z" />
      <path
         id="path404"
         style="font-weight:bold;font-size:3.0480001px;font-family:'Proxima Nova';text-anchor:middle;fill:#994d00"
         d="m 33.47918,85.189232 c 0,0.499872 0.298704,0.847344 0.917448,0.847344 0.618744,0 0.917448,-0.344424 0.917448,-0.850392 v -1.2192 h -0.44196 v 1.207008 c 0,0.283464 -0.161544,0.478536 -0.475488,0.478536 -0.313944,0 -0.478536,-0.195072 -0.478536,-0.478536 V 83.966984 H 33.47918 Z" />
      <path
         id="path406"
         style="font-weight:bold;font-size:3.0480001px;font-family:'Proxima Nova';text-anchor:middle;fill:#994d00"
         d="m 36.860698,86 h 0.496824 l -0.4572,-0.774192 c 0.219456,-0.05182 0.445008,-0.24384 0.445008,-0.603504 0,-0.377952 -0.25908,-0.65532 -0.682752,-0.65532 H 35.711602 V 86 h 0.432816 v -0.722376 h 0.316992 z m 0.04267,-1.377696 c 0,0.170688 -0.131064,0.27432 -0.3048,0.27432 h -0.454152 v -0.54864 h 0.454152 c 0.173736,0 0.3048,0.103632 0.3048,0.27432 z" />
      <path
         id="path408"
         style="font-weight:bold;font-size:3.0480001px;font-family:'Proxima Nova';text-anchor:middle;fill:#994d00"
         d="m 38.21039,86 h 0.542544 l 0.783336,-2.033016 h -0.493776 l -0.560832,1.563624 -0.56388,-1.563624 h -0.493776 z" />
      <path
         id="path410"
         style="font-weight:bold;font-size:3.0480001px;font-family:'Proxima Nova';text-anchor:middle;fill:#994d00"
         d="m 39.724008,86 h 1.438656 v -0.381 h -1.00584 v -0.460248 h 0.984504 v -0.381 h -0.984504 v -0.429768 h 1.00584 v -0.381 h -1.438656 z" />
    </g>
    <g
       style="fill:#994d00;stroke:#fff7f0"
       id="g176"
       transform="translate(36.242667,92)">
      <path
         id="circle172"
         d="M 5,0 A 5,5 0 0 1 0,5 5,5 0 0 1 -5,0 5,5 0 0 1 0,-5 5,5 0 0 1 5,0 Z"
         style="stroke:none" />
      <path
         id="line174"
         d="M 0,0 V -4.375"
         style="stroke-width:0.625;stroke-linecap:round" />
    </g>
    <g
       id="text178"
       style="font-weight:bold;font-size:2.37066674px;font-family:'Proxima Nova';text-anchor:middle;fill:#994d00"
       aria-label="S">
      <path
         id="path415"
         style="font-weight:bold;font-size:2.37066674px;font-family:'Proxima Nova';text-anchor:middle;fill:#994d00"
         d="m 8.8163801,103.60215 c 0.1469813,0.14936 0.3650826,0.25129 0.668528,0.25129 0.42672,0 0.6329679,-0.2181 0.6329679,-0.50732 0,-0.35797 -0.3318932,-0.4362 -0.5926666,-0.49784 -0.170688,-0.0403 -0.3152987,-0.0735 -0.3152987,-0.17543 0,-0.0948 0.080603,-0.15883 0.2252134,-0.15883 0.1612053,0 0.3318933,0.0545 0.4599093,0.17306 l 0.1872826,-0.24655 c -0.1564639,-0.14461 -0.3650826,-0.22047 -0.6163732,-0.22047 -0.3721947,0 -0.5997787,0.2181 -0.5997787,0.48124 0,0.36034 0.3318933,0.43146 0.590296,0.49073 0.1730587,0.0427 0.32004,0.0759 0.32004,0.19202 0,0.0901 -0.090085,0.17543 -0.2749973,0.17543 -0.2181014,0 -0.3911601,-0.0972 -0.5025814,-0.21336 z" />
    </g>
    <g
       id="text180"
       style="font-weight:bold;font-size:2.37066674px;font-family:'Proxima Nova';dominant-baseline:hanging;text-anchor:middle;fill:#994d00"
       aria-label="J">
      <path
         id="path418"
         style="font-weight:bold;font-size:2.37066674px;font-family:'Proxima Nova';dominant-baseline:hanging;text-anchor:middle;fill:#994d00"
         d="m 8.9150961,113.54762 c 0.113792,0.11142 0.2655147,0.15409 0.4243494,0.15409 0.3247813,0 0.5571066,-0.17306 0.5571066,-0.54762 v -1.06206 H 9.5599175 v 1.05732 c 0,0.15409 -0.097197,0.25366 -0.2465494,0.25366 -0.1090506,0 -0.1896533,-0.0545 -0.2512906,-0.11379 z" />
    </g>
    <g
       style="fill:#fff7f0;stroke:#994d00"
       id="g194"
       transform="translate(9.477333,108)">
      <path
         id="rect182"
         d="m -1.125,-2.8125 h 2.25 c 0.103875,0 0.1875,0.083625 0.1875,0.1875 v 5.25 c 0,0.103875 -0.083625,0.1875 -0.1875,0.1875 h -2.25 c -0.103875,0 -0.1875,-0.083625 -0.1875,-0.1875 v -5.25 c 0,-0.103875 0.083625,-0.1875 0.1875,-0.1875 z"
         style="stroke-width:0.375" />
      <path
         id="line184"
         d="m -0.875,0.25 h 1.75"
         style="stroke-width:0.25;stroke-linecap:round" />
      <path
         id="line186"
         d="m -0.875,0.75 h 1.75"
         style="stroke-width:0.25;stroke-linecap:round" />
      <path
         id="line188"
         d="m -0.875,1.25 h 1.75"
         style="stroke-width:0.25;stroke-linecap:round" />
      <path
         id="line190"
         d="m -0.875,1.75 h 1.75"
         style="stroke-width:0.25;stroke-linecap:round" />
      <path
         id="line192"
         d="m -0.875,2.25 h 1.75"
         style="stroke-width:0.25;stroke-linecap:round" />
    </g>
    <g
       id="text196"
       style="font-weight:bold;font-size:2.37066674px;font-family:'Proxima Nova';text-anchor:middle;fill:#994d00"
       aria-label="UNI">
      <path
         id="path427"
         style="font-weight:bold;font-size:2.37066674px;font-family:'Proxima Nova';text-anchor:middle;fill:#994d00"
         d="m 20.960652,103.1944 c 0,0.38879 0.232325,0.65904 0.713571,0.65904 0.481245,0 0.71357,-0.26788 0.71357,-0.66141 v -0.94827 h -0.343746 v 0.93879 c 0,0.22047 -0.125646,0.37219 -0.369824,0.37219 -0.244179,0 -0.372195,-0.15172 -0.372195,-0.37219 v -0.93879 h -0.341376 z" />
      <path
         id="path429"
         style="font-weight:bold;font-size:2.37066674px;font-family:'Proxima Nova';text-anchor:middle;fill:#994d00"
         d="m 23.787487,103.825 h 0.324781 v -1.58124 h -0.336634 v 0.99331 l -0.732536,-0.99331 H 22.69698 v 1.58124 h 0.336635 v -1.03124 z" />
      <path
         id="path431"
         style="font-weight:bold;font-size:2.37066674px;font-family:'Proxima Nova';text-anchor:middle;fill:#994d00"
         d="m 24.424048,103.825 h 0.336635 v -1.58124 h -0.336635 z" />
    </g>
    <g
       id="text198"
       style="font-weight:bold;font-size:2.37066674px;font-family:'Proxima Nova';dominant-baseline:hanging;text-anchor:middle;fill:#994d00"
       aria-label="BI">
      <path
         id="path434"
         style="font-weight:bold;font-size:2.37066674px;font-family:'Proxima Nova';dominant-baseline:hanging;text-anchor:middle;fill:#994d00"
         d="m 21.90753,113.67326 h 0.858181 c 0.301075,0 0.459909,-0.18965 0.459909,-0.42672 0,-0.19913 -0.135128,-0.36271 -0.303445,-0.38878 0.149352,-0.0308 0.272627,-0.16358 0.272627,-0.36272 0,-0.21099 -0.154094,-0.40301 -0.455168,-0.40301 H 21.90753 Z m 0.336634,-0.94826 v -0.34375 h 0.421979 c 0.113792,0 0.184912,0.0735 0.184912,0.17306 0,0.0996 -0.07112,0.17069 -0.184912,0.17069 z m 0,0.65667 v -0.36745 h 0.433832 c 0.132758,0 0.203878,0.0853 0.203878,0.18491 0,0.11379 -0.07586,0.18254 -0.203878,0.18254 z" />
      <path
         id="path436"
         style="font-weight:bold;font-size:2.37066674px;font-family:'Proxima Nova';dominant-baseline:hanging;text-anchor:middle;fill:#994d00"
         d="m 23.47717,113.67326 h 0.336635 v -1.58123 H 23.47717 Z" />
    </g>
    <g
       style="fill:#fff7f0;stroke:#994d00"
       id="g212"
       transform="translate(22.86,108)">
      <path
         id="rect200"
         d="m -1.125,-2.8125 h 2.25 c 0.103875,0 0.1875,0.083625 0.1875,0.1875 v 5.25 c 0,0.103875 -0.083625,0.1875 -0.1875,0.1875 h -2.25 c -0.103875,0 -0.1875,-0.083625 -0.1875,-0.1875 v -5.25 c 0,-0.103875 0.083625,-0.1875 0.1875,-0.1875 z"
         style="stroke-width:0.375" />
      <path
         id="line202"
         d="m -0.875,-2.25 h 1.75"
         style="stroke-width:0.25;stroke-linecap:round" />
      <path
         id="line204"
         d="m -0.875,-1.75 h 1.75"
         style="stroke-width:0.25;stroke-linecap:round" />
      <path
         id="line206"
         d="m -0.875,-1.25 h 1.75"
         style="stroke-width:0.25;stroke-linecap:round" />
      <path
         id="line208"
         d="m -0.875,-0.75 h 1.75"
         style="stroke-width:0.25;stroke-linecap:round" />
      <path
         id="line210"
         d="m -0.875,-0.25 h 1.75"
         style="stroke-width:0.25;stroke-linecap:round" />
    </g>
    <path
       id="rect214"
       d="m 31.867666,100.04456 h 8.75 c 0.554,0 1,0.446 1,1 v 11.33045 c 0,0.554 -0.446,1 -1,1 h -8.75 c -0.554,0 -1,-0.446 -1,-1 v -11.33045 c 0,-0.554 0.446,-1 1,-1 z"
       style="fill:#994d00;stroke:#994d00;stroke-width:0.34999999" />
    <g
       id="text216"
       style="font-weight:bold;font-size:2.37066674px;font-family:'Proxima Nova';text-anchor:middle;fill:#fff7f0"
       aria-label="OUT">
      <path
         id="path446"
         style="font-weight:bold;font-size:2.37066674px;font-family:'Proxima Nova';text-anchor:middle;fill:#fff7f0"
         d="m 33.857685,102.01057 c 0,0.47651 0.348488,0.81788 0.824992,0.81788 0.478875,0 0.827363,-0.34137 0.827363,-0.81788 0,-0.4765 -0.348488,-0.81788 -0.827363,-0.81788 -0.476504,0 -0.824992,0.34138 -0.824992,0.81788 z m 1.306237,0 c 0,0.29396 -0.189653,0.51918 -0.481245,0.51918 -0.291592,0 -0.478875,-0.22522 -0.478875,-0.51918 0,-0.29633 0.187283,-0.51917 0.478875,-0.51917 0.291592,0 0.481245,0.22284 0.481245,0.51917 z" />
      <path
         id="path448"
         style="font-weight:bold;font-size:2.37066674px;font-family:'Proxima Nova';text-anchor:middle;fill:#fff7f0"
         d="m 35.748588,102.16941 c 0,0.38879 0.232325,0.65904 0.713571,0.65904 0.481245,0 0.71357,-0.26788 0.71357,-0.66141 v -0.94827 h -0.343746 v 0.93878 c 0,0.22047 -0.125646,0.3722 -0.369824,0.3722 -0.244179,0 -0.372195,-0.15173 -0.372195,-0.3722 v -0.93878 h -0.341376 z" />
      <path
         id="path450"
         style="font-weight:bold;font-size:2.37066674px;font-family:'Proxima Nova';text-anchor:middle;fill:#fff7f0"
         d="m 37.849999,102.8 h 0.339005 v -1.2849 h 0.459909 v -0.29633 h -1.261194 v 0.29633 h 0.46228 z" />
    </g>
    <g
       style="fill:#fff7f0;stroke:#994d00;stroke-width:0.20999999"
       id="g224"
       transform="translate(36.242667,108)">
      <path
         id="circle218"
         d="M 4.0949998,0 A 4.0949998,4.0949998 0 0 1 0,4.0949998 4.0949998,4.0949998 0 0 1 -4.0949998,0 4.0949998,4.0949998 0 0 1 0,-4.0949998 4.0949998,4.0949998 0 0 1 4.0949998,0 Z"
         style="" />
      <path
         id="circle220"
         d="M 2.925,0 A 2.925,2.925 0 0 1 0,2.925 2.925,2.925 0 0 1 -2.925,0 2.925,2.925 0 0 1 0,-2.925 2.925,2.925 0 0 1 2.925,0 Z"
         style="" />
      <path
         id="circle222"
         d="M 1.755,0 A 1.755,1.755 0 0 1 0,1.755 1.755,1.755 0 0 1 -1.755,0 1.755,1.755 0 0 1 0,-1.755 1.755,1.755 0 0 1 1.755,0 Z"
         style="fill:#994d00" />
    </g>
  </g>
</svg>
