<?xml version="1.0" encoding="UTF-8" standalone="no"?>
<svg
   xmlns:dc="http://purl.org/dc/elements/1.1/"
   xmlns:cc="http://creativecommons.org/ns#"
   xmlns:rdf="http://www.w3.org/1999/02/22-rdf-syntax-ns#"
   xmlns:svg="http://www.w3.org/2000/svg"
   xmlns="http://www.w3.org/2000/svg"
   id="svg78"
   height="379.42913385826773"
   width="45.0"
   version="1.1">
  <metadata
     id="metadata84">
    <rdf:RDF>
      <cc:Work
         rdf:about="">
        <dc:format>image/svg+xml</dc:format>
        <dc:type
           rdf:resource="http://purl.org/dc/dcmitype/StillImage" />
      </cc:Work>
    </rdf:RDF>
  </metadata>
  <defs
     id="defs82" />
  <g
     id="g76"
     transform="scale(2.9527559)">
    <path
       id="rect2"
       d="M 0,0 H 15.24 V 128.5 H 0 Z"
       style="fill:#faf7f0;stroke:#0044cc;stroke-width:1" />
    <g
       id="text4"
       style="font-weight:bold;font-size:4.06400013px;font-family:'Proxima Nova';text-anchor:middle;fill:#0044cc"
       aria-label="TWEAK">
      <path
         id="path87"
         style="font-weight:bold;font-size:4.06400013px;font-family:'Proxima Nova';text-anchor:middle;fill:#0044cc"
         d="M 1.5965484,9 H 2.1777005 V 6.7973119 h 0.788416 v -0.508 H 0.80406842 v 0.508 H 1.5965484 Z" />
      <path
         id="path89"
         style="font-weight:bold;font-size:4.06400013px;font-family:'Proxima Nova';text-anchor:middle;fill:#0044cc"
         d="m 5.4087075,9 h 0.6136641 l 0.77216,-2.7106881 h -0.65024 L 5.6728675,8.24816 5.1608035,6.2893119 H 4.7096995 L 4.1935715,8.24816 3.7180835,6.2893119 H 3.0719075 L 3.8481315,9 h 0.613664 l 0.471424,-1.8613121 z" />
      <path
         id="path91"
         style="font-weight:bold;font-size:4.06400013px;font-family:'Proxima Nova';text-anchor:middle;fill:#0044cc"
         d="M 7.0666926,9 H 8.9849007 V 8.492 H 7.6437806 V 7.878336 H 8.9564527 V 7.3703359 H 7.6437806 v -0.573024 h 1.3411201 v -0.508 H 7.0666926 Z" />
      <path
         id="path93"
         style="font-weight:bold;font-size:4.06400013px;font-family:'Proxima Nova';text-anchor:middle;fill:#0044cc"
         d="m 11.309445,9 h 0.658368 L 10.923365,6.2893119 H 10.199973 L 9.1514611,9 h 0.658368 L 9.9805171,8.540768 H 11.142821 Z M 10.561669,6.8663999 10.984325,8.032768 h -0.845312 z" />
      <path
         id="path95"
         style="font-weight:bold;font-size:4.06400013px;font-family:'Proxima Nova';text-anchor:middle;fill:#0044cc"
         d="m 13.827474,9 h 0.7112 l -1.150112,-1.438656 1.07696,-1.2720321 h -0.7112 L 12.795218,7.500384 V 6.2893119 H 12.21813 V 9 h 0.577088 V 8.16688 l 0.211328,-0.251968 z" />
    </g>
    <g
       id="text6"
       style="font-weight:bold;font-size:4.06400013px;font-family:'Proxima Nova';dominant-baseline:hanging;text-anchor:middle;fill:#0044cc"
       aria-label="DHE">
      <path
         id="path98"
         style="font-weight:bold;font-size:4.06400013px;font-family:'Proxima Nova';dominant-baseline:hanging;text-anchor:middle;fill:#0044cc"
         d="m 3.756755,122.06845 h 1.068832 c 0.8493761,0 1.4386561,-0.53645 1.4386561,-1.35331 0,-0.81687 -0.58928,-1.35738 -1.4386561,-1.35738 H 3.756755 Z m 0.577088,-0.508 v -1.69469 h 0.491744 c 0.5567681,0 0.8493761,0.36982 0.8493761,0.84938 0,0.45923 -0.312928,0.84531 -0.8493761,0.84531 z" />
      <path
         id="path100"
         style="font-weight:bold;font-size:4.06400013px;font-family:'Proxima Nova';dominant-baseline:hanging;text-anchor:middle;fill:#0044cc"
         d="m 8.5350031,122.06845 h 0.581152 v -2.71069 h -0.581152 v 1.06477 H 7.254843 v -1.06477 H 6.677755 v 2.71069 h 0.577088 v -1.13792 h 1.2801601 z" />
      <path
         id="path102"
         style="font-weight:bold;font-size:4.06400013px;font-family:'Proxima Nova';dominant-baseline:hanging;text-anchor:middle;fill:#0044cc"
         d="m 9.6463801,122.06845 h 1.9182079 v -0.508 h -1.34112 v -0.61367 h 1.312672 v -0.508 h -1.312672 v -0.57302 h 1.34112 v -0.508 H 9.6463801 Z" />
    </g>
    <g
       id="text8"
       style="font-weight:bold;font-size:2.37066674px;font-family:'Proxima Nova';text-anchor:middle;fill:#0044cc"
       aria-label="MULT">
      <path
         id="path105"
         style="font-weight:bold;font-size:2.37066674px;font-family:'Proxima Nova';text-anchor:middle;fill:#0044cc"
         d="M 6.0769922,18.825001 H 6.4159975 V 17.243766 H 5.9418642 L 5.5578162,18.199145 5.1737681,17.243766 H 4.7020055 v 1.581235 h 0.3366346 v -1.107102 l 0.4456854,1.107102 h 0.1469813 l 0.4456854,-1.107102 z" />
      <path
         id="path107"
         style="font-weight:bold;font-size:2.37066674px;font-family:'Proxima Nova';text-anchor:middle;fill:#0044cc"
         d="m 6.7300368,18.194403 c 0,0.38879 0.2323253,0.659046 0.7135707,0.659046 0.4812453,0 0.7135707,-0.267886 0.7135707,-0.661416 V 17.243766 H 7.8134315 v 0.938784 c 0,0.220472 -0.1256453,0.372195 -0.369824,0.372195 -0.2441787,0 -0.3721947,-0.151723 -0.3721947,-0.372195 v -0.938784 h -0.341376 z" />
      <path
         id="path109"
         style="font-weight:bold;font-size:2.37066674px;font-family:'Proxima Nova';text-anchor:middle;fill:#0044cc"
         d="M 8.4663649,18.825001 H 9.4715276 V 18.528667 H 8.8029996 V 17.243766 H 8.4663649 Z" />
      <path
         id="path111"
         style="font-weight:bold;font-size:2.37066674px;font-family:'Proxima Nova';text-anchor:middle;fill:#0044cc"
         d="m 9.8362026,18.825001 h 0.3390054 v -1.284902 h 0.459909 V 17.243766 H 9.3739226 v 0.296333 h 0.46228 z" />
    </g>
    <g
       id="text10"
       style="font-weight:bold;font-size:2.37066674px;font-family:'Proxima Nova';dominant-baseline:hanging;text-anchor:middle;fill:#0044cc"
       aria-label="ADD">
      <path
         id="path114"
         style="font-weight:bold;font-size:2.37066674px;font-family:'Proxima Nova';dominant-baseline:hanging;text-anchor:middle;fill:#0044cc"
         d="m 6.3527674,28.673261 h 0.384048 L 6.127554,27.092026 H 5.7055754 l -0.6116321,1.581235 h 0.3840481 l 0.099568,-0.267886 h 0.6780107 z m -0.4362027,-1.2446 0.2465493,0.680381 H 5.6700154 Z" />
      <path
         id="path116"
         style="font-weight:bold;font-size:2.37066674px;font-family:'Proxima Nova';dominant-baseline:hanging;text-anchor:middle;fill:#0044cc"
         d="M 6.8828336,28.673261 H 7.506319 c 0.4954693,0 0.839216,-0.312928 0.839216,-0.789432 0,-0.476504 -0.3437467,-0.791803 -0.839216,-0.791803 H 6.8828336 Z M 7.2194683,28.376927 V 27.388359 H 7.506319 c 0.3247813,0 0.4954693,0.215731 0.4954693,0.49547 0,0.267885 -0.1825413,0.493098 -0.4954693,0.493098 z" />
      <path
         id="path118"
         style="font-weight:bold;font-size:2.37066674px;font-family:'Proxima Nova';dominant-baseline:hanging;text-anchor:middle;fill:#0044cc"
         d="m 8.5867503,28.673261 h 0.6234853 c 0.4954694,0 0.8392164,-0.312928 0.8392164,-0.789432 0,-0.476504 -0.343747,-0.791803 -0.8392164,-0.791803 H 8.5867503 Z M 8.923385,28.376927 v -0.988568 h 0.2868506 c 0.3247814,0 0.4954694,0.215731 0.4954694,0.49547 0,0.267885 -0.1825414,0.493098 -0.4954694,0.493098 z" />
    </g>
    <g
       style="fill:#faf7f0;stroke:#0044cc"
       id="g24"
       transform="translate(7.62,23)">
      <path
         id="rect12"
         d="m -1.125,-2.8125 h 2.25 c 0.103875,0 0.1875,0.083625 0.1875,0.1875 v 5.25 c 0,0.103875 -0.083625,0.1875 -0.1875,0.1875 h -2.25 c -0.103875,0 -0.1875,-0.083625 -0.1875,-0.1875 v -5.25 c 0,-0.103875 0.083625,-0.1875 0.1875,-0.1875 z"
         style="stroke-width:0.375" />
      <path
         id="line14"
         d="m -0.875,-2.25 h 1.75"
         style="stroke-width:0.25;stroke-linecap:round" />
      <path
         id="line16"
         d="m -0.875,-1.75 h 1.75"
         style="stroke-width:0.25;stroke-linecap:round" />
      <path
         id="line18"
         d="m -0.875,-1.25 h 1.75"
         style="stroke-width:0.25;stroke-linecap:round" />
      <path
         id="line20"
         d="m -0.875,-0.75 h 1.75"
         style="stroke-width:0.25;stroke-linecap:round" />
      <path
         id="line22"
         d="m -0.875,-0.25 h 1.75"
         style="stroke-width:0.25;stroke-linecap:round" />
    </g>
    <g
       id="text26"
       style="font-weight:bold;font-size:2.37066674px;font-family:'Proxima Nova';text-anchor:middle;fill:#0044cc"
       aria-label="GAIN">
      <path
         id="path127"
         style="font-weight:bold;font-size:2.37066674px;font-family:'Proxima Nova';text-anchor:middle;fill:#0044cc"
         d="m 4.8576545,35.035569 c 0,0.49784 0.3793067,0.82025 0.8415867,0.82025 0.2868507,0 0.5120641,-0.118533 0.6732694,-0.298704 v -0.60689 h -0.753872 v 0.293962 h 0.4172373 v 0.189654 c -0.064008,0.05927 -0.1967653,0.120904 -0.3366347,0.120904 -0.2868506,0 -0.4954693,-0.220472 -0.4954693,-0.519176 0,-0.298704 0.2086187,-0.519176 0.4954693,-0.519176 0.1683174,0 0.3034454,0.09483 0.3745654,0.206248 L 6.3535453,34.570918 C 6.2350119,34.383635 6.0287639,34.217689 5.6992412,34.217689 c -0.46228,0 -0.8415867,0.317669 -0.8415867,0.81788 z" />
      <path
         id="path129"
         style="font-weight:bold;font-size:2.37066674px;font-family:'Proxima Nova';text-anchor:middle;fill:#0044cc"
         d="m 7.7140486,35.825001 h 0.384048 L 7.4888353,34.243766 H 7.0668566 l -0.611632,1.581235 h 0.384048 l 0.099568,-0.267886 h 0.6780107 z m -0.4362027,-1.2446 0.2465494,0.680381 H 7.0312966 Z" />
      <path
         id="path131"
         style="font-weight:bold;font-size:2.37066674px;font-family:'Proxima Nova';text-anchor:middle;fill:#0044cc"
         d="M 8.2441147,35.825001 H 8.5807494 V 34.243766 H 8.2441147 Z" />
      <path
         id="path133"
         style="font-weight:bold;font-size:2.37066674px;font-family:'Proxima Nova';text-anchor:middle;fill:#0044cc"
         d="M 9.9828508,35.825001 H 10.307632 V 34.243766 H 9.9709975 v 0.993309 L 9.2384614,34.243766 H 8.8923441 v 1.581235 h 0.3366347 v -1.03124 z" />
    </g>
    <g
       id="text28"
       style="font-weight:bold;font-size:2.37066674px;font-family:'Proxima Nova';dominant-baseline:hanging;text-anchor:middle;fill:#0044cc"
       aria-label="AV">
      <path
         id="path136"
         style="font-weight:bold;font-size:2.37066674px;font-family:'Proxima Nova';dominant-baseline:hanging;text-anchor:middle;fill:#0044cc"
         d="m 7.3019601,45.673261 h 0.384048 L 7.0767468,44.092026 H 6.6547681 l -0.611632,1.581235 h 0.384048 l 0.099568,-0.267886 h 0.6780107 z m -0.4362027,-1.2446 0.2465494,0.680381 H 6.6192081 Z" />
      <path
         id="path138"
         style="font-weight:bold;font-size:2.37066674px;font-family:'Proxima Nova';dominant-baseline:hanging;text-anchor:middle;fill:#0044cc"
         d="M 8.164216,45.673261 H 8.5861947 L 9.1954561,44.092026 H 8.8114081 L 8.3752054,45.308178 7.936632,44.092026 H 7.552584 Z" />
    </g>
    <g
       style="fill:#faf7f0;stroke:#0044cc"
       id="g42"
       transform="translate(7.62,40)">
      <path
         id="rect30"
         d="m -1.125,-2.8125 h 2.25 c 0.103875,0 0.1875,0.083625 0.1875,0.1875 v 5.25 c 0,0.103875 -0.083625,0.1875 -0.1875,0.1875 h -2.25 c -0.103875,0 -0.1875,-0.083625 -0.1875,-0.1875 v -5.25 c 0,-0.103875 0.083625,-0.1875 0.1875,-0.1875 z"
         style="stroke-width:0.375" />
      <path
         id="line32"
         d="m -0.875,-2.25 h 1.75"
         style="stroke-width:0.25;stroke-linecap:round" />
      <path
         id="line34"
         d="m -0.875,-1.75 h 1.75"
         style="stroke-width:0.25;stroke-linecap:round" />
      <path
         id="line36"
         d="m -0.875,-1.25 h 1.75"
         style="stroke-width:0.25;stroke-linecap:round" />
      <path
         id="line38"
         d="m -0.875,-0.75 h 1.75"
         style="stroke-width:0.25;stroke-linecap:round" />
      <path
         id="line40"
         d="m -0.875,-0.25 h 1.75"
         style="stroke-width:0.25;stroke-linecap:round" />
    </g>
    <g
       id="text44"
       style="font-weight:bold;font-size:3.0480001px;font-family:'Proxima Nova';text-anchor:middle;fill:#0044cc" />
    <g
       style="fill:#0044cc;stroke:#faf7f0"
       id="g50"
       transform="translate(7.62,65.5)">
      <path
         id="circle46"
         d="M 6.3499999,0 A 6.3499999,6.3499999 0 0 1 0,6.3499999 6.3499999,6.3499999 0 0 1 -6.3499999,0 6.3499999,6.3499999 0 0 1 0,-6.3499999 6.3499999,6.3499999 0 0 1 6.3499999,0 Z"
         style="stroke:none" />
      <path
         id="line48"
         d="M 0,0 V -5.5562501"
         style="stroke-width:0.79374999;stroke-linecap:round" />
    </g>
    <path
       id="rect52"
       d="M 3.2449999,84.294556 H 11.995 c 0.554,0 1,0.446 1,1 V 96.625 c 0,0.554 -0.446,1 -1,1 H 3.2449999 c -0.554,0 -1,-0.446 -1,-1 V 85.294556 c 0,-0.554 0.446,-1 1,-1 z"
       style="fill:#faf7f0;stroke:#0044cc;stroke-width:0.34999999" />
    <g
       id="text54"
       style="font-weight:bold;font-size:2.37066674px;font-family:'Proxima Nova';text-anchor:middle;fill:#0044cc"
       aria-label="IN">
      <path
         id="path151"
         style="font-weight:bold;font-size:2.37066674px;font-family:'Proxima Nova';text-anchor:middle;fill:#0044cc"
         d="M 6.5888154,87.050003 H 6.9254501 V 85.468768 H 6.5888154 Z" />
      <path
         id="path153"
         style="font-weight:bold;font-size:2.37066674px;font-family:'Proxima Nova';text-anchor:middle;fill:#0044cc"
         d="M 8.3275513,87.050003 H 8.6523326 V 85.468768 H 8.315698 v 0.99331 L 7.5831619,85.468768 H 7.2370446 v 1.581235 h 0.3366347 v -1.03124 z" />
    </g>
    <g
       style="fill:#faf7f0;stroke:#0044cc;stroke-width:0.20999999"
       id="g62"
       transform="translate(7.62,92.25)">
      <path
         id="circle56"
         d="M 4.0949998,0 A 4.0949998,4.0949998 0 0 1 0,4.0949998 4.0949998,4.0949998 0 0 1 -4.0949998,0 4.0949998,4.0949998 0 0 1 0,-4.0949998 4.0949998,4.0949998 0 0 1 4.0949998,0 Z"
         style="" />
      <path
         id="circle58"
         d="M 2.925,0 A 2.925,2.925 0 0 1 0,2.925 2.925,2.925 0 0 1 -2.925,0 2.925,2.925 0 0 1 0,-2.925 2.925,2.925 0 0 1 2.925,0 Z"
         style="" />
      <path
         id="circle60"
         d="M 1.755,0 A 1.755,1.755 0 0 1 0,1.755 1.755,1.755 0 0 1 -1.755,0 1.755,1.755 0 0 1 0,-1.755 1.755,1.755 0 0 1 1.755,0 Z"
         style="fill:#0044cc" />
    </g>
    <path
       id="rect64"
       d="M 3.2449999,101.29456 H 11.995 c 0.554,0 1,0.446 1,1 v 11.33045 c 0,0.554 -0.446,1 -1,1 H 3.2449999 c -0.554,0 -1,-0.446 -1,-1 v -11.33045 c 0,-0.554 0.446,-1 1,-1 z"
       style="fill:#0044cc;stroke:#0044cc;stroke-width:0.34999999" />
    <g
       id="text66"
       style="font-weight:bold;font-size:2.37066674px;font-family:'Proxima Nova';text-anchor:middle;fill:#faf7f0"
       aria-label="OUT">
      <path
         id="path160"
         style="font-weight:bold;font-size:2.37066674px;font-family:'Proxima Nova';text-anchor:middle;fill:#faf7f0"
         d="m 5.2350165,103.26057 c 0,0.47651 0.348488,0.81788 0.8249921,0.81788 0.4788746,0 0.8273627,-0.34137 0.8273627,-0.81788 0,-0.4765 -0.3484881,-0.81788 -0.8273627,-0.81788 -0.4765041,0 -0.8249921,0.34138 -0.8249921,0.81788 z m 1.3062374,0 c 0,0.29396 -0.1896533,0.51918 -0.4812453,0.51918 -0.291592,0 -0.4788747,-0.22522 -0.4788747,-0.51918 0,-0.29633 0.1872827,-0.51917 0.4788747,-0.51917 0.291592,0 0.4812453,0.22284 0.4812453,0.51917 z" />
      <path
         id="path162"
         style="font-weight:bold;font-size:2.37066674px;font-family:'Proxima Nova';text-anchor:middle;fill:#faf7f0"
         d="m 7.1259197,103.41941 c 0,0.38879 0.2323253,0.65904 0.7135706,0.65904 0.4812454,0 0.7135707,-0.26788 0.7135707,-0.66141 v -0.94827 H 8.2093144 v 0.93878 c 0,0.22047 -0.1256454,0.3722 -0.3698241,0.3722 -0.2441786,0 -0.3721946,-0.15173 -0.3721946,-0.3722 v -0.93878 h -0.341376 z" />
      <path
         id="path164"
         style="font-weight:bold;font-size:2.37066674px;font-family:'Proxima Nova';text-anchor:middle;fill:#faf7f0"
         d="m 9.2273305,104.05 h 0.3390053 v -1.2849 h 0.4599092 v -0.29633 H 8.7650504 v 0.29633 h 0.4622801 z" />
    </g>
    <g
       style="fill:#faf7f0;stroke:#0044cc;stroke-width:0.20999999"
       id="g74"
       transform="translate(7.62,109.25)">
      <path
         id="circle68"
         d="M 4.0949998,0 A 4.0949998,4.0949998 0 0 1 0,4.0949998 4.0949998,4.0949998 0 0 1 -4.0949998,0 4.0949998,4.0949998 0 0 1 0,-4.0949998 4.0949998,4.0949998 0 0 1 4.0949998,0 Z"
         style="" />
      <path
         id="circle70"
         d="M 2.925,0 A 2.925,2.925 0 0 1 0,2.925 2.925,2.925 0 0 1 -2.925,0 2.925,2.925 0 0 1 0,-2.925 2.925,2.925 0 0 1 2.925,0 Z"
         style="" />
      <path
         id="circle72"
         d="M 1.755,0 A 1.755,1.755 0 0 1 0,1.755 1.755,1.755 0 0 1 -1.755,0 1.755,1.755 0 0 1 0,-1.755 1.755,1.755 0 0 1 1.755,0 Z"
         style="fill:#0044cc" />
    </g>
  </g>
</svg>
