<?xml version="1.0" encoding="UTF-8" standalone="no"?>
<svg
   xmlns:dc="http://purl.org/dc/elements/1.1/"
   xmlns:cc="http://creativecommons.org/ns#"
   xmlns:rdf="http://www.w3.org/1999/02/22-rdf-syntax-ns#"
   xmlns:svg="http://www.w3.org/2000/svg"
   xmlns="http://www.w3.org/2000/svg"
   id="svg220"
   height="379.42913385826773"
   width="165.0"
   version="1.1">
  <metadata
     id="metadata226">
    <rdf:RDF>
      <cc:Work
         rdf:about="">
        <dc:format>image/svg+xml</dc:format>
        <dc:type
           rdf:resource="http://purl.org/dc/dcmitype/StillImage" />
      </cc:Work>
    </rdf:RDF>
  </metadata>
  <defs
     id="defs224" />
  <g
     id="g218"
     transform="scale(2.9527559)">
    <path
       id="rect2"
       d="M 0,0 H 55.880001 V 128.5 H 0 Z"
       style="fill:#f7f2fc;stroke:#7f00ff;stroke-width:1" />
    <g
       id="text4"
       style="font-weight:bold;font-size:4.06400013px;font-family:'Proxima Nova';text-anchor:middle;fill:#7f00ff"
       aria-label="XYCLOID">
      <path
         id="path229"
         style="font-weight:bold;font-size:4.06400013px;font-family:'Proxima Nova';text-anchor:middle;fill:#7f00ff"
         d="m 21.411502,9 h 0.69088 L 21.118894,7.606048 22.041422,6.2893119 h -0.694944 l -0.613664,0.926592 -0.621792,-0.926592 H 19.424206 L 20.346734,7.610112 19.363246,9 h 0.686816 l 0.682752,-0.991616 z" />
      <path
         id="path231"
         style="font-weight:bold;font-size:4.06400013px;font-family:'Proxima Nova';text-anchor:middle;fill:#7f00ff"
         d="m 23.114191,9 h 0.577088 V 7.890528 l 1.03632,-1.6012161 h -0.658368 l -0.666496,1.089152 -0.674624,-1.089152 h -0.658368 l 1.044448,1.6012161 z" />
      <path
         id="path233"
         style="font-weight:bold;font-size:4.06400013px;font-family:'Proxima Nova';text-anchor:middle;fill:#7f00ff"
         d="m 26.131584,9.048768 c 0.597408,0 0.938784,-0.329184 1.133856,-0.666496 L 26.769632,8.142496 C 26.65584,8.366016 26.412,8.536704 26.131584,8.536704 c -0.491744,0 -0.849376,-0.377952 -0.849376,-0.890016 0,-0.5120641 0.357632,-0.8900161 0.849376,-0.8900161 0.280416,0 0.524256,0.174752 0.638048,0.394208 l 0.495808,-0.24384 c -0.191008,-0.337312 -0.536448,-0.662432 -1.133856,-0.662432 -0.8128,0 -1.44272,0.56896 -1.44272,1.4020801 0,0.83312 0.62992,1.40208 1.44272,1.40208 z" />
      <path
         id="path235"
         style="font-weight:bold;font-size:4.06400013px;font-family:'Proxima Nova';text-anchor:middle;fill:#7f00ff"
         d="m 27.612912,9 h 1.723137 V 8.492 H 28.19 V 6.2893119 h -0.577088 z" />
      <path
         id="path237"
         style="font-weight:bold;font-size:4.06400013px;font-family:'Proxima Nova';text-anchor:middle;fill:#7f00ff"
         d="m 29.498989,7.646688 c 0,0.816864 0.597408,1.40208 1.414272,1.40208 0.820928,0 1.418336,-0.585216 1.418336,-1.40208 0,-0.8168641 -0.597408,-1.4020801 -1.418336,-1.4020801 -0.816864,0 -1.414272,0.585216 -1.414272,1.4020801 z m 2.239264,0 c 0,0.503936 -0.32512,0.890016 -0.824992,0.890016 -0.499872,0 -0.820928,-0.38608 -0.820928,-0.890016 0,-0.5080001 0.321056,-0.8900161 0.820928,-0.8900161 0.499872,0 0.824992,0.382016 0.824992,0.8900161 z" />
      <path
         id="path239"
         style="font-weight:bold;font-size:4.06400013px;font-family:'Proxima Nova';text-anchor:middle;fill:#7f00ff"
         d="m 32.740537,9 h 0.577088 V 6.2893119 h -0.577088 z" />
      <path
         id="path241"
         style="font-weight:bold;font-size:4.06400013px;font-family:'Proxima Nova';text-anchor:middle;fill:#7f00ff"
         d="m 33.851787,9 h 1.068832 c 0.849376,0 1.438656,-0.536448 1.438656,-1.353312 0,-0.8168641 -0.58928,-1.3573761 -1.438656,-1.3573761 H 33.851787 Z M 34.428875,8.492 V 6.7973119 h 0.491744 c 0.556768,0 0.849376,0.369824 0.849376,0.8493761 0,0.459232 -0.312928,0.845312 -0.849376,0.845312 z" />
    </g>
    <g
       id="text6"
       style="font-weight:bold;font-size:4.06400013px;font-family:'Proxima Nova';dominant-baseline:hanging;text-anchor:middle;fill:#7f00ff"
       aria-label="DHE">
      <path
         id="path244"
         style="font-weight:bold;font-size:4.06400013px;font-family:'Proxima Nova';dominant-baseline:hanging;text-anchor:middle;fill:#7f00ff"
         d="m 24.076756,122.06845 h 1.068832 c 0.849376,0 1.438656,-0.53645 1.438656,-1.35331 0,-0.81687 -0.58928,-1.35738 -1.438656,-1.35738 h -1.068832 z m 0.577088,-0.508 v -1.69469 h 0.491744 c 0.556768,0 0.849376,0.36982 0.849376,0.84938 0,0.45923 -0.312928,0.84531 -0.849376,0.84531 z" />
      <path
         id="path246"
         style="font-weight:bold;font-size:4.06400013px;font-family:'Proxima Nova';dominant-baseline:hanging;text-anchor:middle;fill:#7f00ff"
         d="m 28.855004,122.06845 h 0.581152 v -2.71069 h -0.581152 v 1.06477 h -1.28016 v -1.06477 h -0.577088 v 2.71069 h 0.577088 v -1.13792 h 1.28016 z" />
      <path
         id="path248"
         style="font-weight:bold;font-size:4.06400013px;font-family:'Proxima Nova';dominant-baseline:hanging;text-anchor:middle;fill:#7f00ff"
         d="m 29.966381,122.06845 h 1.918208 v -0.508 h -1.34112 v -0.61367 h 1.312672 v -0.508 h -1.312672 v -0.57302 h 1.34112 v -0.508 h -1.918208 z" />
    </g>
    <path
       id="line8"
       d="M 7.9828572,40.5 H 34.592381"
       style="stroke:#7f00ff;stroke-width:0.34999999" />
    <g
       id="text10"
       style="font-weight:bold;font-size:2.37066674px;font-family:'Proxima Nova';text-anchor:middle;fill:#7f00ff"
       aria-label="CV">
      <path
         id="path252"
         style="font-weight:bold;font-size:2.37066674px;font-family:'Proxima Nova';text-anchor:middle;fill:#7f00ff"
         d="m 7.2844736,35.328447 c 0.348488,0 0.547624,-0.192024 0.661416,-0.388789 L 7.6566683,34.799789 c -0.066379,0.130386 -0.2086187,0.229954 -0.3721947,0.229954 -0.2868507,0 -0.4954693,-0.220472 -0.4954693,-0.519176 0,-0.298704 0.2086186,-0.519176 0.4954693,-0.519176 0.163576,0 0.305816,0.101939 0.3721947,0.229955 l 0.2892213,-0.14224 c -0.1114213,-0.196765 -0.312928,-0.386419 -0.661416,-0.386419 -0.4741333,0 -0.8415867,0.331894 -0.8415867,0.81788 0,0.485987 0.3674534,0.81788 0.8415867,0.81788 z" />
      <path
         id="path254"
         style="font-weight:bold;font-size:2.37066674px;font-family:'Proxima Nova';text-anchor:middle;fill:#7f00ff"
         d="M 8.5826359,35.299999 H 9.0046145 L 9.6138759,33.718765 H 9.2298279 L 8.7936252,34.934917 8.3550519,33.718765 H 7.9710038 Z" />
    </g>
    <g
       style="fill:#f7f2fc;stroke:#7f00ff;stroke-width:0.20999999"
       id="g18"
       transform="translate(7.9828571,40.5)">
      <path
         id="circle12"
         d="M 4.0949998,0 A 4.0949998,4.0949998 0 0 1 0,4.0949998 4.0949998,4.0949998 0 0 1 -4.0949998,0 4.0949998,4.0949998 0 0 1 0,-4.0949998 4.0949998,4.0949998 0 0 1 4.0949998,0 Z"
         style="" />
      <path
         id="circle14"
         d="M 2.925,0 A 2.925,2.925 0 0 1 0,2.925 2.925,2.925 0 0 1 -2.925,0 2.925,2.925 0 0 1 0,-2.925 2.925,2.925 0 0 1 2.925,0 Z"
         style="" />
      <path
         id="circle16"
         d="M 1.755,0 A 1.755,1.755 0 0 1 0,1.755 1.755,1.755 0 0 1 -1.755,0 1.755,1.755 0 0 1 0,-1.755 1.755,1.755 0 0 1 1.755,0 Z"
         style="fill:#7f00ff" />
    </g>
    <g
       id="text22"
       style="font-weight:bold;font-size:3.0480001px;font-family:'Proxima Nova';text-anchor:middle;fill:#7f00ff"
       aria-label="-  +">
      <path
         id="path260"
         style="font-size:larger"
         d="m 18.989903,35.312371 h 0.877824 V 34.91735 h -0.877824 z" />
      <path
         id="path262"
         style="font-size:larger"
         d="m 22.934625,34.910035 h 0.65471 v -0.28895 h -0.65471 v -0.713232 h -0.318211 v 0.713232 h -0.658368 v 0.28895 h 0.658368 v 0.742493 h 0.318211 z" />
    </g>
    <g
       style="fill:#7f00ff;stroke:#f7f2fc"
       id="g28"
       transform="translate(21.287619,40.5)">
      <path
         id="circle24"
         d="M 3.5,0 A 3.5,3.5 0 0 1 0,3.5 3.5,3.5 0 0 1 -3.5,0 3.5,3.5 0 0 1 0,-3.5 3.5,3.5 0 0 1 3.5,0 Z"
         style="stroke:none" />
      <path
         id="line26"
         d="M 0,0 V -3.0625"
         style="stroke-width:0.4375;stroke-linecap:round" />
    </g>
    <g
       id="text30"
       style="font-weight:bold;font-size:3.0480001px;font-family:'Proxima Nova';text-anchor:middle;fill:#7f00ff"
       aria-label="RATIO">
      <path
         id="path267"
         style="font-weight:bold;font-size:3.0480001px;font-family:'Proxima Nova';text-anchor:middle;fill:#7f00ff"
         d="m 31.549238,33.150002 h 0.496824 l -0.4572,-0.774192 c 0.219456,-0.05182 0.445008,-0.243841 0.445008,-0.603505 0,-0.377952 -0.25908,-0.65532 -0.682752,-0.65532 h -0.950976 v 2.033017 h 0.432816 v -0.722376 h 0.316992 z m 0.04267,-1.377697 c 0,0.170688 -0.131064,0.27432 -0.3048,0.27432 h -0.454152 v -0.54864 h 0.454152 c 0.173736,0 0.3048,0.103632 0.3048,0.27432 z" />
      <path
         id="path269"
         style="font-weight:bold;font-size:3.0480001px;font-family:'Proxima Nova';text-anchor:middle;fill:#7f00ff"
         d="m 33.7608,33.150002 h 0.493776 L 33.47124,31.116985 h -0.542544 l -0.786384,2.033017 h 0.493776 l 0.128016,-0.344424 h 0.871728 z m -0.560832,-1.600201 0.316992,0.874777 h -0.633984 z" />
      <path
         id="path271"
         style="font-weight:bold;font-size:3.0480001px;font-family:'Proxima Nova';text-anchor:middle;fill:#7f00ff"
         d="m 34.715253,33.150002 h 0.435864 v -1.652017 h 0.591312 v -0.381 h -1.621536 v 0.381 h 0.59436 z" />
      <path
         id="path273"
         style="font-weight:bold;font-size:3.0480001px;font-family:'Proxima Nova';text-anchor:middle;fill:#7f00ff"
         d="m 36.019892,33.150002 h 0.432816 v -2.033017 h -0.432816 z" />
      <path
         id="path275"
         style="font-weight:bold;font-size:3.0480001px;font-family:'Proxima Nova';text-anchor:middle;fill:#7f00ff"
         d="m 36.755794,32.135017 c 0,0.612649 0.448056,1.051561 1.060704,1.051561 0.615696,0 1.063752,-0.438912 1.063752,-1.051561 0,-0.612648 -0.448056,-1.05156 -1.063752,-1.05156 -0.612648,0 -1.060704,0.438912 -1.060704,1.05156 z m 1.679448,0 c 0,0.377953 -0.24384,0.667513 -0.618744,0.667513 -0.374904,0 -0.615696,-0.28956 -0.615696,-0.667513 0,-0.381 0.240792,-0.667512 0.615696,-0.667512 0.374904,0 0.618744,0.286512 0.618744,0.667512 z" />
    </g>
    <g
       style="fill:#7f00ff;stroke:#f7f2fc"
       id="g36"
       transform="translate(34.592381,40.5)">
      <path
         id="circle32"
         d="M 6.3499999,0 A 6.3499999,6.3499999 0 0 1 0,6.3499999 6.3499999,6.3499999 0 0 1 -6.3499999,0 6.3499999,6.3499999 0 0 1 0,-6.3499999 6.3499999,6.3499999 0 0 1 6.3499999,0 Z"
         style="stroke:none" />
      <path
         id="line34"
         d="M 0,0 V -5.5562501"
         style="stroke-width:0.79374999;stroke-linecap:round" />
    </g>
    <path
       id="line38"
       d="M 7.9828572,59 H 47.897144"
       style="stroke:#7f00ff;stroke-width:0.34999999" />
    <g
       id="text40"
       style="font-weight:bold;font-size:2.37066674px;font-family:'Proxima Nova';text-anchor:middle;fill:#7f00ff"
       aria-label="CV">
      <path
         id="path281"
         style="font-weight:bold;font-size:2.37066674px;font-family:'Proxima Nova';text-anchor:middle;fill:#7f00ff"
         d="m 7.2844736,53.828447 c 0.348488,0 0.547624,-0.192024 0.661416,-0.388789 L 7.6566683,53.299789 c -0.066379,0.130386 -0.2086187,0.229954 -0.3721947,0.229954 -0.2868507,0 -0.4954693,-0.220472 -0.4954693,-0.519176 0,-0.298704 0.2086186,-0.519176 0.4954693,-0.519176 0.163576,0 0.305816,0.101939 0.3721947,0.229955 l 0.2892213,-0.14224 c -0.1114213,-0.196765 -0.312928,-0.386419 -0.661416,-0.386419 -0.4741333,0 -0.8415867,0.331894 -0.8415867,0.81788 0,0.485987 0.3674534,0.81788 0.8415867,0.81788 z" />
      <path
         id="path283"
         style="font-weight:bold;font-size:2.37066674px;font-family:'Proxima Nova';text-anchor:middle;fill:#7f00ff"
         d="M 8.5826359,53.799999 H 9.0046145 L 9.6138759,52.218765 H 9.2298279 L 8.7936252,53.434917 8.3550519,52.218765 H 7.9710038 Z" />
    </g>
    <g
       style="fill:#f7f2fc;stroke:#7f00ff;stroke-width:0.20999999"
       id="g48"
       transform="translate(7.9828571,59)">
      <path
         id="circle42"
         d="M 4.0949998,0 A 4.0949998,4.0949998 0 0 1 0,4.0949998 4.0949998,4.0949998 0 0 1 -4.0949998,0 4.0949998,4.0949998 0 0 1 0,-4.0949998 4.0949998,4.0949998 0 0 1 4.0949998,0 Z"
         style="" />
      <path
         id="circle44"
         d="M 2.925,0 A 2.925,2.925 0 0 1 0,2.925 2.925,2.925 0 0 1 -2.925,0 2.925,2.925 0 0 1 0,-2.925 2.925,2.925 0 0 1 2.925,0 Z"
         style="" />
      <path
         id="circle46"
         d="M 1.755,0 A 1.755,1.755 0 0 1 0,1.755 1.755,1.755 0 0 1 -1.755,0 1.755,1.755 0 0 1 0,-1.755 1.755,1.755 0 0 1 1.755,0 Z"
         style="fill:#7f00ff" />
    </g>
    <g
       id="text52"
       style="font-weight:bold;font-size:3.0480001px;font-family:'Proxima Nova';text-anchor:middle;fill:#7f00ff"
       aria-label="-  +">
      <path
         id="path289"
         style="font-size:larger"
         d="m 18.989903,53.812371 h 0.877824 V 53.41735 h -0.877824 z" />
      <path
         id="path291"
         style="font-size:larger"
         d="m 22.934625,53.410035 h 0.65471 v -0.28895 h -0.65471 v -0.713232 h -0.318211 v 0.713232 h -0.658368 v 0.28895 h 0.658368 v 0.742493 h 0.318211 z" />
    </g>
    <g
       style="fill:#7f00ff;stroke:#f7f2fc"
       id="g58"
       transform="translate(21.287619,59)">
      <path
         id="circle54"
         d="M 3.5,0 A 3.5,3.5 0 0 1 0,3.5 3.5,3.5 0 0 1 -3.5,0 3.5,3.5 0 0 1 0,-3.5 3.5,3.5 0 0 1 3.5,0 Z"
         style="stroke:none" />
      <path
         id="line56"
         d="M 0,0 V -3.0625"
         style="stroke-width:0.4375;stroke-linecap:round" />
    </g>
    <g
       id="text60"
       style="font-weight:bold;font-size:3.0480001px;font-family:'Proxima Nova';text-anchor:middle;fill:#7f00ff"
       aria-label="DEPTH">
      <path
         id="path296"
         style="font-weight:bold;font-size:3.0480001px;font-family:'Proxima Nova';text-anchor:middle;fill:#7f00ff"
         d="m 29.858408,51.650002 h 0.801624 c 0.637032,0 1.078992,-0.402336 1.078992,-1.014985 0,-0.612648 -0.44196,-1.018032 -1.078992,-1.018032 h -0.801624 z m 0.432816,-0.381 v -1.271017 h 0.368808 c 0.417576,0 0.637032,0.277368 0.637032,0.637032 0,0.344425 -0.234696,0.633985 -0.637032,0.633985 z" />
      <path
         id="path298"
         style="font-weight:bold;font-size:3.0480001px;font-family:'Proxima Nova';text-anchor:middle;fill:#7f00ff"
         d="m 32.049158,51.650002 h 1.438656 v -0.381 h -1.00584 v -0.460249 h 0.984504 v -0.381 h -0.984504 v -0.429768 h 1.00584 v -0.381 h -1.438656 z" />
      <path
         id="path300"
         style="font-weight:bold;font-size:3.0480001px;font-family:'Proxima Nova';text-anchor:middle;fill:#7f00ff"
         d="m 33.829142,51.650002 h 0.432816 v -0.722376 h 0.51816 c 0.438912,0 0.682752,-0.301753 0.682752,-0.655321 0,-0.356616 -0.240792,-0.65532 -0.682752,-0.65532 h -0.950976 z m 1.191768,-1.377697 c 0,0.16764 -0.128016,0.27432 -0.298704,0.27432 h -0.460248 v -0.54864 h 0.460248 c 0.170688,0 0.298704,0.103632 0.298704,0.27432 z" />
      <path
         id="path302"
         style="font-weight:bold;font-size:3.0480001px;font-family:'Proxima Nova';text-anchor:middle;fill:#7f00ff"
         d="m 36.197581,51.650002 h 0.435864 v -1.652017 h 0.591312 v -0.381 h -1.621536 v 0.381 h 0.59436 z" />
      <path
         id="path304"
         style="font-weight:bold;font-size:3.0480001px;font-family:'Proxima Nova';text-anchor:middle;fill:#7f00ff"
         d="m 38.895156,51.650002 h 0.435864 v -2.033017 h -0.435864 v 0.798576 h -0.96012 V 49.616985 H 37.50222 v 2.033017 h 0.432816 v -0.853441 h 0.96012 z" />
    </g>
    <g
       style="fill:#7f00ff;stroke:#f7f2fc"
       id="g66"
       transform="translate(34.592381,59)">
      <path
         id="circle62"
         d="M 6.3499999,0 A 6.3499999,6.3499999 0 0 1 0,6.3499999 6.3499999,6.3499999 0 0 1 -6.3499999,0 6.3499999,6.3499999 0 0 1 0,-6.3499999 6.3499999,6.3499999 0 0 1 6.3499999,0 Z"
         style="stroke:none" />
      <path
         id="line64"
         d="M 0,0 V -5.5562501"
         style="stroke-width:0.79374999;stroke-linecap:round" />
    </g>
    <g
       id="text68"
       style="font-weight:bold;font-size:2.37066674px;font-family:'Proxima Nova';text-anchor:middle;fill:#7f00ff"
       aria-label="OUT">
      <path
         id="path309"
         style="font-weight:bold;font-size:2.37066674px;font-family:'Proxima Nova';text-anchor:middle;fill:#7f00ff"
         d="m 45.512161,52.535569 c 0,0.476504 0.348488,0.81788 0.824992,0.81788 0.478875,0 0.827363,-0.341376 0.827363,-0.81788 0,-0.476504 -0.348488,-0.81788 -0.827363,-0.81788 -0.476504,0 -0.824992,0.341376 -0.824992,0.81788 z m 1.306237,0 c 0,0.293962 -0.189653,0.519176 -0.481245,0.519176 -0.291592,0 -0.478875,-0.225214 -0.478875,-0.519176 0,-0.296334 0.187283,-0.519176 0.478875,-0.519176 0.291592,0 0.481245,0.222842 0.481245,0.519176 z" />
      <path
         id="path311"
         style="font-weight:bold;font-size:2.37066674px;font-family:'Proxima Nova';text-anchor:middle;fill:#7f00ff"
         d="m 47.403064,52.694403 c 0,0.38879 0.232325,0.659046 0.713571,0.659046 0.481245,0 0.71357,-0.267886 0.71357,-0.661416 v -0.948267 h -0.343746 v 0.938784 c 0,0.220472 -0.125646,0.372195 -0.369824,0.372195 -0.244179,0 -0.372195,-0.151723 -0.372195,-0.372195 v -0.938784 h -0.341376 z" />
      <path
         id="path313"
         style="font-weight:bold;font-size:2.37066674px;font-family:'Proxima Nova';text-anchor:middle;fill:#7f00ff"
         d="m 49.504475,53.325001 h 0.339005 v -1.284902 h 0.45991 v -0.296333 h -1.261195 v 0.296333 h 0.46228 z" />
    </g>
    <g
       id="text70"
       style="font-weight:bold;font-size:2.37066674px;font-family:'Proxima Nova';dominant-baseline:hanging;text-anchor:middle;fill:#7f00ff"
       aria-label="IN">
      <path
         id="path316"
         style="font-weight:bold;font-size:2.37066674px;font-family:'Proxima Nova';dominant-baseline:hanging;text-anchor:middle;fill:#7f00ff"
         d="m 46.86596,66.173264 h 0.336635 V 64.59203 H 46.86596 Z" />
      <path
         id="path318"
         style="font-weight:bold;font-size:2.37066674px;font-family:'Proxima Nova';dominant-baseline:hanging;text-anchor:middle;fill:#7f00ff"
         d="m 48.604696,66.173264 h 0.324781 V 64.59203 h -0.336635 v 0.993309 L 47.860306,64.59203 h -0.346117 v 1.581234 h 0.336635 v -1.03124 z" />
    </g>
    <g
       id="text72"
       style="font-weight:bold;font-size:2.37066674px;font-family:'Proxima Nova';fill:#7f00ff" />
    <g
       style="fill:#f7f2fc;stroke:#7f00ff"
       id="g86"
       transform="translate(47.897143,59)">
      <path
         id="rect74"
         d="m -1.125,-4.3125 h 2.25 c 0.103875,0 0.1875,0.083625 0.1875,0.1875 v 8.25 c 0,0.103875 -0.083625,0.1875 -0.1875,0.1875 h -2.25 c -0.103875,0 -0.1875,-0.083625 -0.1875,-0.1875 v -8.25 c 0,-0.103875 0.083625,-0.1875 0.1875,-0.1875 z"
         style="stroke-width:0.375" />
      <path
         id="line76"
         d="m -0.875,-1 h 1.75"
         style="stroke-width:0.25;stroke-linecap:round" />
      <path
         id="line78"
         d="m -0.875,-0.5 h 1.75"
         style="stroke-width:0.25;stroke-linecap:round" />
      <path
         id="line80"
         d="m -0.875,0 h 1.75"
         style="stroke-width:0.25;stroke-linecap:round" />
      <path
         id="line82"
         d="m -0.875,0.5 h 1.75"
         style="stroke-width:0.25;stroke-linecap:round" />
      <path
         id="line84"
         d="m -0.875,1 h 1.75"
         style="stroke-width:0.25;stroke-linecap:round" />
    </g>
    <path
       id="line88"
       d="M 7.9828572,77.5 H 34.592381"
       style="stroke:#7f00ff;stroke-width:0.34999999" />
    <g
       id="text90"
       style="font-weight:bold;font-size:2.37066674px;font-family:'Proxima Nova';text-anchor:middle;fill:#7f00ff"
       aria-label="CV">
      <path
         id="path329"
         style="font-weight:bold;font-size:2.37066674px;font-family:'Proxima Nova';text-anchor:middle;fill:#7f00ff"
         d="m 7.2844736,72.328451 c 0.348488,0 0.547624,-0.192024 0.661416,-0.388789 l -0.2892213,-0.13987 c -0.066379,0.130387 -0.2086187,0.229955 -0.3721947,0.229955 -0.2868507,0 -0.4954693,-0.220472 -0.4954693,-0.519176 0,-0.298704 0.2086186,-0.519176 0.4954693,-0.519176 0.163576,0 0.305816,0.101939 0.3721947,0.229955 l 0.2892213,-0.14224 c -0.1114213,-0.196766 -0.312928,-0.386419 -0.661416,-0.386419 -0.4741333,0 -0.8415867,0.331893 -0.8415867,0.81788 0,0.485987 0.3674534,0.81788 0.8415867,0.81788 z" />
      <path
         id="path331"
         style="font-weight:bold;font-size:2.37066674px;font-family:'Proxima Nova';text-anchor:middle;fill:#7f00ff"
         d="M 8.5826359,72.300003 H 9.0046145 L 9.6138759,70.718768 H 9.2298279 L 8.7936252,71.93492 8.3550519,70.718768 H 7.9710038 Z" />
    </g>
    <g
       style="fill:#f7f2fc;stroke:#7f00ff;stroke-width:0.20999999"
       id="g98"
       transform="translate(7.9828571,77.5)">
      <path
         id="circle92"
         d="M 4.0949998,0 A 4.0949998,4.0949998 0 0 1 0,4.0949998 4.0949998,4.0949998 0 0 1 -4.0949998,0 4.0949998,4.0949998 0 0 1 0,-4.0949998 4.0949998,4.0949998 0 0 1 4.0949998,0 Z"
         style="" />
      <path
         id="circle94"
         d="M 2.925,0 A 2.925,2.925 0 0 1 0,2.925 2.925,2.925 0 0 1 -2.925,0 2.925,2.925 0 0 1 0,-2.925 2.925,2.925 0 0 1 2.925,0 Z"
         style="" />
      <path
         id="circle96"
         d="M 1.755,0 A 1.755,1.755 0 0 1 0,1.755 1.755,1.755 0 0 1 -1.755,0 1.755,1.755 0 0 1 0,-1.755 1.755,1.755 0 0 1 1.755,0 Z"
         style="fill:#7f00ff" />
    </g>
    <g
       id="text102"
       style="font-weight:bold;font-size:3.0480001px;font-family:'Proxima Nova';text-anchor:middle;fill:#7f00ff"
       aria-label="-  +">
      <path
         id="path337"
         style="font-size:larger"
         d="m 18.989903,72.312371 h 0.877824 V 71.91735 h -0.877824 z" />
      <path
         id="path339"
         style="font-size:larger"
         d="m 22.934625,71.910035 h 0.65471 v -0.28895 h -0.65471 v -0.713232 h -0.318211 v 0.713232 h -0.658368 v 0.28895 h 0.658368 v 0.742493 h 0.318211 z" />
    </g>
    <g
       style="fill:#7f00ff;stroke:#f7f2fc"
       id="g108"
       transform="translate(21.287619,77.5)">
      <path
         id="circle104"
         d="M 3.5,0 A 3.5,3.5 0 0 1 0,3.5 3.5,3.5 0 0 1 -3.5,0 3.5,3.5 0 0 1 0,-3.5 3.5,3.5 0 0 1 3.5,0 Z"
         style="stroke:none" />
      <path
         id="line106"
         d="M 0,0 V -3.0625"
         style="stroke-width:0.4375;stroke-linecap:round" />
    </g>
    <g
       id="text110"
       style="font-weight:bold;font-size:3.0480001px;font-family:'Proxima Nova';text-anchor:middle;fill:#7f00ff"
       aria-label="SPEED">
      <path
         id="path344"
         style="font-weight:bold;font-size:3.0480001px;font-family:'Proxima Nova';text-anchor:middle;fill:#7f00ff"
         d="m 29.917701,69.86349 c 0.188976,0.192024 0.469392,0.323088 0.859536,0.323088 0.54864,0 0.813816,-0.280416 0.813816,-0.652272 0,-0.460249 -0.42672,-0.560833 -0.762,-0.640081 -0.219456,-0.05182 -0.405384,-0.09449 -0.405384,-0.225552 0,-0.12192 0.103632,-0.204216 0.28956,-0.204216 0.207264,0 0.42672,0.0701 0.591312,0.222504 l 0.240792,-0.316992 c -0.201168,-0.185928 -0.469392,-0.283464 -0.79248,-0.283464 -0.478536,0 -0.771144,0.280416 -0.771144,0.618744 0,0.463296 0.42672,0.554736 0.758952,0.630936 0.222504,0.05487 0.41148,0.09754 0.41148,0.246889 0,0.115824 -0.115824,0.225552 -0.353568,0.225552 -0.280416,0 -0.50292,-0.124968 -0.646176,-0.27432 z" />
      <path
         id="path346"
         style="font-weight:bold;font-size:3.0480001px;font-family:'Proxima Nova';text-anchor:middle;fill:#7f00ff"
         d="m 31.88247,70.150002 h 0.432816 v -0.722376 h 0.51816 c 0.438912,0 0.682752,-0.301753 0.682752,-0.655321 0,-0.356616 -0.240792,-0.65532 -0.682752,-0.65532 H 31.88247 Z m 1.191768,-1.377697 c 0,0.16764 -0.128016,0.27432 -0.298704,0.27432 h -0.460248 v -0.54864 h 0.460248 c 0.170688,0 0.298704,0.103632 0.298704,0.27432 z" />
      <path
         id="path348"
         style="font-weight:bold;font-size:3.0480001px;font-family:'Proxima Nova';text-anchor:middle;fill:#7f00ff"
         d="m 33.781517,70.150002 h 1.438656 v -0.381 h -1.00584 v -0.460249 h 0.984504 v -0.381 h -0.984504 v -0.429768 h 1.00584 v -0.381 h -1.438656 z" />
      <path
         id="path350"
         style="font-weight:bold;font-size:3.0480001px;font-family:'Proxima Nova';text-anchor:middle;fill:#7f00ff"
         d="m 35.561502,70.150002 h 1.438656 v -0.381 h -1.00584 v -0.460249 h 0.984504 v -0.381 h -0.984504 v -0.429768 h 1.00584 v -0.381 h -1.438656 z" />
      <path
         id="path352"
         style="font-weight:bold;font-size:3.0480001px;font-family:'Proxima Nova';text-anchor:middle;fill:#7f00ff"
         d="m 37.341486,70.150002 h 0.801624 c 0.637032,0 1.078992,-0.402336 1.078992,-1.014985 0,-0.612648 -0.44196,-1.018032 -1.078992,-1.018032 h -0.801624 z m 0.432816,-0.381 v -1.271017 h 0.368808 c 0.417576,0 0.637032,0.277368 0.637032,0.637032 0,0.344425 -0.234696,0.633985 -0.637032,0.633985 z" />
    </g>
    <g
       style="fill:#7f00ff;stroke:#f7f2fc"
       id="g116"
       transform="translate(34.592381,77.5)">
      <path
         id="circle112"
         d="M 6.3499999,0 A 6.3499999,6.3499999 0 0 1 0,6.3499999 6.3499999,6.3499999 0 0 1 -6.3499999,0 6.3499999,6.3499999 0 0 1 0,-6.3499999 6.3499999,6.3499999 0 0 1 6.3499999,0 Z"
         style="stroke:none" />
      <path
         id="line114"
         d="M 0,0 V -5.5562501"
         style="stroke-width:0.79374999;stroke-linecap:round" />
    </g>
    <path
       id="line118"
       d="M 7.9828572,97 H 47.897144"
       style="stroke:#7f00ff;stroke-width:0.34999999" />
    <g
       id="text120"
       style="font-weight:bold;font-size:2.37066674px;font-family:'Proxima Nova';text-anchor:middle;fill:#7f00ff"
       aria-label="CV">
      <path
         id="path358"
         style="font-weight:bold;font-size:2.37066674px;font-family:'Proxima Nova';text-anchor:middle;fill:#7f00ff"
         d="m 7.2844736,91.828451 c 0.348488,0 0.547624,-0.192024 0.661416,-0.388789 l -0.2892213,-0.13987 c -0.066379,0.130387 -0.2086187,0.229955 -0.3721947,0.229955 -0.2868507,0 -0.4954693,-0.220472 -0.4954693,-0.519176 0,-0.298704 0.2086186,-0.519176 0.4954693,-0.519176 0.163576,0 0.305816,0.101939 0.3721947,0.229955 l 0.2892213,-0.14224 c -0.1114213,-0.196766 -0.312928,-0.386419 -0.661416,-0.386419 -0.4741333,0 -0.8415867,0.331893 -0.8415867,0.81788 0,0.485987 0.3674534,0.81788 0.8415867,0.81788 z" />
      <path
         id="path360"
         style="font-weight:bold;font-size:2.37066674px;font-family:'Proxima Nova';text-anchor:middle;fill:#7f00ff"
         d="M 8.5826359,91.800003 H 9.0046145 L 9.6138759,90.218768 H 9.2298279 L 8.7936252,91.43492 8.3550519,90.218768 H 7.9710038 Z" />
    </g>
    <g
       style="fill:#f7f2fc;stroke:#7f00ff;stroke-width:0.20999999"
       id="g128"
       transform="translate(7.9828571,97)">
      <path
         id="circle122"
         d="M 4.0949998,0 A 4.0949998,4.0949998 0 0 1 0,4.0949998 4.0949998,4.0949998 0 0 1 -4.0949998,0 4.0949998,4.0949998 0 0 1 0,-4.0949998 4.0949998,4.0949998 0 0 1 4.0949998,0 Z"
         style="" />
      <path
         id="circle124"
         d="M 2.925,0 A 2.925,2.925 0 0 1 0,2.925 2.925,2.925 0 0 1 -2.925,0 2.925,2.925 0 0 1 0,-2.925 2.925,2.925 0 0 1 2.925,0 Z"
         style="" />
      <path
         id="circle126"
         d="M 1.755,0 A 1.755,1.755 0 0 1 0,1.755 1.755,1.755 0 0 1 -1.755,0 1.755,1.755 0 0 1 0,-1.755 1.755,1.755 0 0 1 1.755,0 Z"
         style="fill:#7f00ff" />
    </g>
    <g
       id="text130"
       style="font-weight:bold;font-size:2.37066674px;font-family:'Proxima Nova';text-anchor:middle;fill:#7f00ff"
       aria-label="GAIN">
      <path
         id="path366"
         style="font-weight:bold;font-size:2.37066674px;font-family:'Proxima Nova';text-anchor:middle;fill:#7f00ff"
         d="m 18.525273,91.010571 c 0,0.49784 0.379307,0.820251 0.841587,0.820251 0.286851,0 0.512064,-0.118534 0.673269,-0.298704 v -0.606891 h -0.753872 v 0.293963 h 0.417238 v 0.189653 c -0.06401,0.05927 -0.196766,0.120904 -0.336635,0.120904 -0.286851,0 -0.495469,-0.220472 -0.495469,-0.519176 0,-0.298704 0.208618,-0.519176 0.495469,-0.519176 0.168317,0 0.303445,0.09483 0.374565,0.206248 l 0.279739,-0.151723 c -0.118533,-0.187282 -0.324781,-0.353229 -0.654304,-0.353229 -0.46228,0 -0.841587,0.317669 -0.841587,0.81788 z" />
      <path
         id="path368"
         style="font-weight:bold;font-size:2.37066674px;font-family:'Proxima Nova';text-anchor:middle;fill:#7f00ff"
         d="m 21.381667,91.800003 h 0.384048 l -0.609261,-1.581235 h -0.421979 l -0.611632,1.581235 h 0.384048 l 0.09957,-0.267885 h 0.678011 z m -0.436202,-1.2446 0.246549,0.680381 h -0.493099 z" />
      <path
         id="path370"
         style="font-weight:bold;font-size:2.37066674px;font-family:'Proxima Nova';text-anchor:middle;fill:#7f00ff"
         d="m 21.911733,91.800003 h 0.336635 v -1.581235 h -0.336635 z" />
      <path
         id="path372"
         style="font-weight:bold;font-size:2.37066674px;font-family:'Proxima Nova';text-anchor:middle;fill:#7f00ff"
         d="m 23.65047,91.800003 h 0.324781 v -1.581235 h -0.336635 v 0.99331 l -0.732536,-0.99331 h -0.346117 v 1.581235 h 0.336635 v -1.03124 z" />
    </g>
    <g
       style="fill:#7f00ff;stroke:#f7f2fc"
       id="g136"
       transform="translate(21.287619,97)">
      <path
         id="circle132"
         d="M 4.1999998,0 A 4.1999998,4.1999998 0 0 1 0,4.1999998 4.1999998,4.1999998 0 0 1 -4.1999998,0 4.1999998,4.1999998 0 0 1 0,-4.1999998 4.1999998,4.1999998 0 0 1 4.1999998,0 Z"
         style="stroke:none" />
      <path
         id="line134"
         d="M 0,0 V -3.675"
         style="stroke-width:0.52499998;stroke-linecap:round" />
    </g>
    <g
       id="text138"
       style="font-weight:bold;font-size:2.37066674px;font-family:'Proxima Nova';text-anchor:middle;fill:#7f00ff"
       aria-label="UNI">
      <path
         id="path377"
         style="font-weight:bold;font-size:2.37066674px;font-family:'Proxima Nova';text-anchor:middle;fill:#7f00ff"
         d="m 32.693032,92.1944 c 0,0.388789 0.232325,0.659045 0.713571,0.659045 0.481245,0 0.71357,-0.267885 0.71357,-0.661416 v -0.948267 h -0.343746 v 0.938784 c 0,0.220472 -0.125646,0.372195 -0.369824,0.372195 -0.244179,0 -0.372195,-0.151723 -0.372195,-0.372195 v -0.938784 h -0.341376 z" />
      <path
         id="path379"
         style="font-weight:bold;font-size:2.37066674px;font-family:'Proxima Nova';text-anchor:middle;fill:#7f00ff"
         d="m 35.519867,92.824997 h 0.324781 v -1.581235 h -0.336635 v 0.99331 l -0.732536,-0.99331 H 34.42936 v 1.581235 h 0.336635 v -1.03124 z" />
      <path
         id="path381"
         style="font-weight:bold;font-size:2.37066674px;font-family:'Proxima Nova';text-anchor:middle;fill:#7f00ff"
         d="m 36.156428,92.824997 h 0.336634 v -1.581235 h -0.336634 z" />
    </g>
    <g
       id="text140"
       style="font-weight:bold;font-size:2.37066674px;font-family:'Proxima Nova';dominant-baseline:hanging;text-anchor:middle;fill:#7f00ff"
       aria-label="BI">
      <path
         id="path384"
         style="font-weight:bold;font-size:2.37066674px;font-family:'Proxima Nova';dominant-baseline:hanging;text-anchor:middle;fill:#7f00ff"
         d="m 33.63991,102.67326 h 0.858181 c 0.301075,0 0.459909,-0.18965 0.459909,-0.42672 0,-0.19913 -0.135128,-0.36271 -0.303445,-0.38878 0.149352,-0.0308 0.272627,-0.16358 0.272627,-0.36272 0,-0.21099 -0.154094,-0.40301 -0.455168,-0.40301 H 33.63991 Z m 0.336634,-0.94826 v -0.34375 h 0.421979 c 0.113792,0 0.184912,0.0735 0.184912,0.17306 0,0.0996 -0.07112,0.17069 -0.184912,0.17069 z m 0,0.65667 v -0.36745 h 0.433832 c 0.132758,0 0.203878,0.0853 0.203878,0.18491 0,0.11379 -0.07586,0.18254 -0.203878,0.18254 z" />
      <path
         id="path386"
         style="font-weight:bold;font-size:2.37066674px;font-family:'Proxima Nova';dominant-baseline:hanging;text-anchor:middle;fill:#7f00ff"
         d="m 35.20955,102.67326 h 0.336635 v -1.58123 H 35.20955 Z" />
    </g>
    <g
       style="fill:#f7f2fc;stroke:#7f00ff"
       id="g154"
       transform="translate(34.592381,97)">
      <path
         id="rect142"
         d="m -1.125,-2.8125 h 2.25 c 0.103875,0 0.1875,0.083625 0.1875,0.1875 v 5.25 c 0,0.103875 -0.083625,0.1875 -0.1875,0.1875 h -2.25 c -0.103875,0 -0.1875,-0.083625 -0.1875,-0.1875 v -5.25 c 0,-0.103875 0.083625,-0.1875 0.1875,-0.1875 z"
         style="stroke-width:0.375" />
      <path
         id="line144"
         d="m -0.875,0.25 h 1.75"
         style="stroke-width:0.25;stroke-linecap:round" />
      <path
         id="line146"
         d="m -0.875,0.75 h 1.75"
         style="stroke-width:0.25;stroke-linecap:round" />
      <path
         id="line148"
         d="m -0.875,1.25 h 1.75"
         style="stroke-width:0.25;stroke-linecap:round" />
      <path
         id="line150"
         d="m -0.875,1.75 h 1.75"
         style="stroke-width:0.25;stroke-linecap:round" />
      <path
         id="line152"
         d="m -0.875,2.25 h 1.75"
         style="stroke-width:0.25;stroke-linecap:round" />
    </g>
    <path
       id="rect156"
       d="m 43.522144,89.044556 h 8.75 c 0.554,0 1,0.446 1,1 V 101.375 c 0,0.554 -0.446,1 -1,1 h -8.75 c -0.554,0 -1,-0.446 -1,-1 V 90.044556 c 0,-0.554 0.446,-1 1,-1 z"
       style="fill:#7f00ff;stroke:#7f00ff;stroke-width:0.34999999" />
    <g
       id="text158"
       style="font-weight:bold;font-size:2.37066674px;font-family:'Proxima Nova';text-anchor:middle;fill:#f7f2fc"
       aria-label="X OUT">
      <path
         id="path396"
         style="font-weight:bold;font-size:2.37066674px;font-family:'Proxima Nova';text-anchor:middle;fill:#f7f2fc"
         d="m 45.524218,91.800003 h 0.403013 l -0.573701,-0.813139 0.538141,-0.768096 h -0.405384 l -0.35797,0.540512 -0.362712,-0.540512 h -0.400643 l 0.538141,0.770467 -0.573701,0.810768 h 0.400643 l 0.398272,-0.578443 z" />
      <path
         id="path398"
         style="font-weight:bold;font-size:2.37066674px;font-family:'Proxima Nova';text-anchor:middle;fill:#f7f2fc"
         d="m 46.607205,91.010571 c 0,0.476504 0.348488,0.81788 0.824992,0.81788 0.478875,0 0.827363,-0.341376 0.827363,-0.81788 0,-0.476504 -0.348488,-0.81788 -0.827363,-0.81788 -0.476504,0 -0.824992,0.341376 -0.824992,0.81788 z m 1.306238,0 c 0,0.293963 -0.189654,0.519176 -0.481246,0.519176 -0.291592,0 -0.478874,-0.225213 -0.478874,-0.519176 0,-0.296333 0.187282,-0.519176 0.478874,-0.519176 0.291592,0 0.481246,0.222843 0.481246,0.519176 z" />
      <path
         id="path400"
         style="font-weight:bold;font-size:2.37066674px;font-family:'Proxima Nova';text-anchor:middle;fill:#f7f2fc"
         d="m 48.498108,91.169406 c 0,0.388789 0.232326,0.659045 0.713571,0.659045 0.481245,0 0.713571,-0.267885 0.713571,-0.661416 v -0.948267 h -0.343747 v 0.938784 c 0,0.220472 -0.125645,0.372195 -0.369824,0.372195 -0.244179,0 -0.372195,-0.151723 -0.372195,-0.372195 v -0.938784 h -0.341376 z" />
      <path
         id="path402"
         style="font-weight:bold;font-size:2.37066674px;font-family:'Proxima Nova';text-anchor:middle;fill:#f7f2fc"
         d="m 50.599519,91.800003 h 0.339005 v -1.284901 h 0.45991 v -0.296334 h -1.261195 v 0.296334 h 0.46228 z" />
    </g>
    <g
       style="fill:#f7f2fc;stroke:#7f00ff;stroke-width:0.20999999"
       id="g166"
       transform="translate(47.897143,97)">
      <path
         id="circle160"
         d="M 4.0949998,0 A 4.0949998,4.0949998 0 0 1 0,4.0949998 4.0949998,4.0949998 0 0 1 -4.0949998,0 4.0949998,4.0949998 0 0 1 0,-4.0949998 4.0949998,4.0949998 0 0 1 4.0949998,0 Z"
         style="" />
      <path
         id="circle162"
         d="M 2.925,0 A 2.925,2.925 0 0 1 0,2.925 2.925,2.925 0 0 1 -2.925,0 2.925,2.925 0 0 1 0,-2.925 2.925,2.925 0 0 1 2.925,0 Z"
         style="" />
      <path
         id="circle164"
         d="M 1.755,0 A 1.755,1.755 0 0 1 0,1.755 1.755,1.755 0 0 1 -1.755,0 1.755,1.755 0 0 1 0,-1.755 1.755,1.755 0 0 1 1.755,0 Z"
         style="fill:#7f00ff" />
    </g>
    <path
       id="line168"
       d="M 7.9828572,112 H 47.897144"
       style="stroke:#7f00ff;stroke-width:0.34999999" />
    <g
       id="text170"
       style="font-weight:bold;font-size:2.37066674px;font-family:'Proxima Nova';text-anchor:middle;fill:#7f00ff"
       aria-label="CV">
      <path
         id="path409"
         style="font-weight:bold;font-size:2.37066674px;font-family:'Proxima Nova';text-anchor:middle;fill:#7f00ff"
         d="m 7.2844736,106.82845 c 0.348488,0 0.547624,-0.19202 0.661416,-0.38879 l -0.2892213,-0.13987 c -0.066379,0.13039 -0.2086187,0.22996 -0.3721947,0.22996 -0.2868507,0 -0.4954693,-0.22047 -0.4954693,-0.51918 0,-0.2987 0.2086186,-0.51917 0.4954693,-0.51917 0.163576,0 0.305816,0.10193 0.3721947,0.22995 l 0.2892213,-0.14224 c -0.1114213,-0.19677 -0.312928,-0.38642 -0.661416,-0.38642 -0.4741333,0 -0.8415867,0.33189 -0.8415867,0.81788 0,0.48599 0.3674534,0.81788 0.8415867,0.81788 z" />
      <path
         id="path411"
         style="font-weight:bold;font-size:2.37066674px;font-family:'Proxima Nova';text-anchor:middle;fill:#7f00ff"
         d="m 8.5826359,106.8 h 0.4219786 l 0.6092614,-1.58123 h -0.384048 l -0.4362027,1.21615 -0.4385733,-1.21615 H 7.9710038 Z" />
    </g>
    <g
       style="fill:#f7f2fc;stroke:#7f00ff;stroke-width:0.20999999"
       id="g178"
       transform="translate(7.9828571,112)">
      <path
         id="circle172"
         d="M 4.0949998,0 A 4.0949998,4.0949998 0 0 1 0,4.0949998 4.0949998,4.0949998 0 0 1 -4.0949998,0 4.0949998,4.0949998 0 0 1 0,-4.0949998 4.0949998,4.0949998 0 0 1 4.0949998,0 Z"
         style="" />
      <path
         id="circle174"
         d="M 2.925,0 A 2.925,2.925 0 0 1 0,2.925 2.925,2.925 0 0 1 -2.925,0 2.925,2.925 0 0 1 0,-2.925 2.925,2.925 0 0 1 2.925,0 Z"
         style="" />
      <path
         id="circle176"
         d="M 1.755,0 A 1.755,1.755 0 0 1 0,1.755 1.755,1.755 0 0 1 -1.755,0 1.755,1.755 0 0 1 0,-1.755 1.755,1.755 0 0 1 1.755,0 Z"
         style="fill:#7f00ff" />
    </g>
    <g
       id="text180"
       style="font-weight:bold;font-size:2.37066674px;font-family:'Proxima Nova';text-anchor:middle;fill:#7f00ff"
       aria-label="GAIN">
      <path
         id="path417"
         style="font-weight:bold;font-size:2.37066674px;font-family:'Proxima Nova';text-anchor:middle;fill:#7f00ff"
         d="m 18.525273,106.01057 c 0,0.49784 0.379307,0.82025 0.841587,0.82025 0.286851,0 0.512064,-0.11853 0.673269,-0.2987 v -0.60689 h -0.753872 v 0.29396 h 0.417238 v 0.18965 c -0.06401,0.0593 -0.196766,0.12091 -0.336635,0.12091 -0.286851,0 -0.495469,-0.22047 -0.495469,-0.51918 0,-0.2987 0.208618,-0.51917 0.495469,-0.51917 0.168317,0 0.303445,0.0948 0.374565,0.20624 l 0.279739,-0.15172 c -0.118533,-0.18728 -0.324781,-0.35323 -0.654304,-0.35323 -0.46228,0 -0.841587,0.31767 -0.841587,0.81788 z" />
      <path
         id="path419"
         style="font-weight:bold;font-size:2.37066674px;font-family:'Proxima Nova';text-anchor:middle;fill:#7f00ff"
         d="m 21.381667,106.8 h 0.384048 l -0.609261,-1.58123 H 20.734475 L 20.122843,106.8 h 0.384048 l 0.09957,-0.26788 h 0.678011 z m -0.436202,-1.2446 0.246549,0.68038 h -0.493099 z" />
      <path
         id="path421"
         style="font-weight:bold;font-size:2.37066674px;font-family:'Proxima Nova';text-anchor:middle;fill:#7f00ff"
         d="m 21.911733,106.8 h 0.336635 v -1.58123 h -0.336635 z" />
      <path
         id="path423"
         style="font-weight:bold;font-size:2.37066674px;font-family:'Proxima Nova';text-anchor:middle;fill:#7f00ff"
         d="m 23.65047,106.8 h 0.324781 v -1.58123 h -0.336635 v 0.99331 L 22.90608,105.21877 H 22.559963 V 106.8 h 0.336635 v -1.03124 z" />
    </g>
    <g
       style="fill:#7f00ff;stroke:#f7f2fc"
       id="g186"
       transform="translate(21.287619,112)">
      <path
         id="circle182"
         d="M 4.1999998,0 A 4.1999998,4.1999998 0 0 1 0,4.1999998 4.1999998,4.1999998 0 0 1 -4.1999998,0 4.1999998,4.1999998 0 0 1 0,-4.1999998 4.1999998,4.1999998 0 0 1 4.1999998,0 Z"
         style="stroke:none" />
      <path
         id="line184"
         d="M 0,0 V -3.675"
         style="stroke-width:0.52499998;stroke-linecap:round" />
    </g>
    <g
       id="text188"
       style="font-weight:bold;font-size:2.37066674px;font-family:'Proxima Nova';text-anchor:middle;fill:#7f00ff"
       aria-label="UNI">
      <path
         id="path428"
         style="font-weight:bold;font-size:2.37066674px;font-family:'Proxima Nova';text-anchor:middle;fill:#7f00ff"
         d="m 32.693032,107.1944 c 0,0.38879 0.232325,0.65904 0.713571,0.65904 0.481245,0 0.71357,-0.26788 0.71357,-0.66141 v -0.94827 h -0.343746 v 0.93879 c 0,0.22047 -0.125646,0.37219 -0.369824,0.37219 -0.244179,0 -0.372195,-0.15172 -0.372195,-0.37219 v -0.93879 h -0.341376 z" />
      <path
         id="path430"
         style="font-weight:bold;font-size:2.37066674px;font-family:'Proxima Nova';text-anchor:middle;fill:#7f00ff"
         d="m 35.519867,107.825 h 0.324781 v -1.58124 h -0.336635 v 0.99331 l -0.732536,-0.99331 H 34.42936 v 1.58124 h 0.336635 v -1.03124 z" />
      <path
         id="path432"
         style="font-weight:bold;font-size:2.37066674px;font-family:'Proxima Nova';text-anchor:middle;fill:#7f00ff"
         d="m 36.156428,107.825 h 0.336634 v -1.58124 h -0.336634 z" />
    </g>
    <g
       id="text190"
       style="font-weight:bold;font-size:2.37066674px;font-family:'Proxima Nova';dominant-baseline:hanging;text-anchor:middle;fill:#7f00ff"
       aria-label="BI">
      <path
         id="path435"
         style="font-weight:bold;font-size:2.37066674px;font-family:'Proxima Nova';dominant-baseline:hanging;text-anchor:middle;fill:#7f00ff"
         d="m 33.63991,117.67326 h 0.858181 c 0.301075,0 0.459909,-0.18965 0.459909,-0.42672 0,-0.19913 -0.135128,-0.36271 -0.303445,-0.38878 0.149352,-0.0308 0.272627,-0.16358 0.272627,-0.36272 0,-0.21099 -0.154094,-0.40301 -0.455168,-0.40301 H 33.63991 Z m 0.336634,-0.94826 v -0.34375 h 0.421979 c 0.113792,0 0.184912,0.0735 0.184912,0.17306 0,0.0996 -0.07112,0.17069 -0.184912,0.17069 z m 0,0.65667 v -0.36745 h 0.433832 c 0.132758,0 0.203878,0.0853 0.203878,0.18491 0,0.11379 -0.07586,0.18254 -0.203878,0.18254 z" />
      <path
         id="path437"
         style="font-weight:bold;font-size:2.37066674px;font-family:'Proxima Nova';dominant-baseline:hanging;text-anchor:middle;fill:#7f00ff"
         d="m 35.20955,117.67326 h 0.336635 v -1.58123 H 35.20955 Z" />
    </g>
    <g
       style="fill:#f7f2fc;stroke:#7f00ff"
       id="g204"
       transform="translate(34.592381,112)">
      <path
         id="rect192"
         d="m -1.125,-2.8125 h 2.25 c 0.103875,0 0.1875,0.083625 0.1875,0.1875 v 5.25 c 0,0.103875 -0.083625,0.1875 -0.1875,0.1875 h -2.25 c -0.103875,0 -0.1875,-0.083625 -0.1875,-0.1875 v -5.25 c 0,-0.103875 0.083625,-0.1875 0.1875,-0.1875 z"
         style="stroke-width:0.375" />
      <path
         id="line194"
         d="m -0.875,0.25 h 1.75"
         style="stroke-width:0.25;stroke-linecap:round" />
      <path
         id="line196"
         d="m -0.875,0.75 h 1.75"
         style="stroke-width:0.25;stroke-linecap:round" />
      <path
         id="line198"
         d="m -0.875,1.25 h 1.75"
         style="stroke-width:0.25;stroke-linecap:round" />
      <path
         id="line200"
         d="m -0.875,1.75 h 1.75"
         style="stroke-width:0.25;stroke-linecap:round" />
      <path
         id="line202"
         d="m -0.875,2.25 h 1.75"
         style="stroke-width:0.25;stroke-linecap:round" />
    </g>
    <path
       id="rect206"
       d="m 43.522144,104.04456 h 8.75 c 0.554,0 1,0.446 1,1 v 11.33045 c 0,0.554 -0.446,1 -1,1 h -8.75 c -0.554,0 -1,-0.446 -1,-1 v -11.33045 c 0,-0.554 0.446,-1 1,-1 z"
       style="fill:#7f00ff;stroke:#7f00ff;stroke-width:0.34999999" />
    <g
       id="text208"
       style="font-weight:bold;font-size:2.37066674px;font-family:'Proxima Nova';text-anchor:middle;fill:#f7f2fc"
       aria-label="Y OUT">
      <path
         id="path447"
         style="font-weight:bold;font-size:2.37066674px;font-family:'Proxima Nova';text-anchor:middle;fill:#f7f2fc"
         d="m 44.961703,106.8 h 0.336635 v -0.64719 l 0.60452,-0.93404 H 45.51881 l -0.388789,0.63534 -0.393531,-0.63534 h -0.384048 l 0.609261,0.93404 z" />
      <path
         id="path449"
         style="font-weight:bold;font-size:2.37066674px;font-family:'Proxima Nova';text-anchor:middle;fill:#f7f2fc"
         d="m 46.579424,106.01057 c 0,0.47651 0.348488,0.81788 0.824992,0.81788 0.478875,0 0.827363,-0.34137 0.827363,-0.81788 0,-0.4765 -0.348488,-0.81788 -0.827363,-0.81788 -0.476504,0 -0.824992,0.34138 -0.824992,0.81788 z m 1.306237,0 c 0,0.29396 -0.189653,0.51918 -0.481245,0.51918 -0.291592,0 -0.478875,-0.22522 -0.478875,-0.51918 0,-0.29633 0.187283,-0.51917 0.478875,-0.51917 0.291592,0 0.481245,0.22284 0.481245,0.51917 z" />
      <path
         id="path451"
         style="font-weight:bold;font-size:2.37066674px;font-family:'Proxima Nova';text-anchor:middle;fill:#f7f2fc"
         d="m 48.470327,106.16941 c 0,0.38879 0.232325,0.65904 0.713571,0.65904 0.481245,0 0.71357,-0.26788 0.71357,-0.66141 v -0.94827 h -0.343746 v 0.93878 c 0,0.22047 -0.125646,0.3722 -0.369824,0.3722 -0.244179,0 -0.372195,-0.15173 -0.372195,-0.3722 v -0.93878 h -0.341376 z" />
      <path
         id="path453"
         style="font-weight:bold;font-size:2.37066674px;font-family:'Proxima Nova';text-anchor:middle;fill:#f7f2fc"
         d="m 50.571738,106.8 h 0.339005 v -1.2849 h 0.45991 v -0.29633 h -1.261195 v 0.29633 h 0.46228 z" />
    </g>
    <g
       style="fill:#f7f2fc;stroke:#7f00ff;stroke-width:0.20999999"
       id="g216"
       transform="translate(47.897143,112)">
      <path
         id="circle210"
         d="M 4.0949998,0 A 4.0949998,4.0949998 0 0 1 0,4.0949998 4.0949998,4.0949998 0 0 1 -4.0949998,0 4.0949998,4.0949998 0 0 1 0,-4.0949998 4.0949998,4.0949998 0 0 1 4.0949998,0 Z"
         style="" />
      <path
         id="circle212"
         d="M 2.925,0 A 2.925,2.925 0 0 1 0,2.925 2.925,2.925 0 0 1 -2.925,0 2.925,2.925 0 0 1 0,-2.925 2.925,2.925 0 0 1 2.925,0 Z"
         style="" />
      <path
         id="circle214"
         d="M 1.755,0 A 1.755,1.755 0 0 1 0,1.755 1.755,1.755 0 0 1 -1.755,0 1.755,1.755 0 0 1 0,-1.755 1.755,1.755 0 0 1 1.755,0 Z"
         style="fill:#7f00ff" />
    </g>
  </g>
</svg>
