<?xml version="1.0" encoding="UTF-8" standalone="no"?>
<svg
   xmlns:dc="http://purl.org/dc/elements/1.1/"
   xmlns:cc="http://creativecommons.org/ns#"
   xmlns:rdf="http://www.w3.org/1999/02/22-rdf-syntax-ns#"
   xmlns:svg="http://www.w3.org/2000/svg"
   xmlns="http://www.w3.org/2000/svg"
   id="svg246"
   height="379.42913385826773"
   width="165.0"
   version="1.1">
  <metadata
     id="metadata252">
    <rdf:RDF>
      <cc:Work
         rdf:about="">
        <dc:format>image/svg+xml</dc:format>
        <dc:type
           rdf:resource="http://purl.org/dc/dcmitype/StillImage" />
      </cc:Work>
    </rdf:RDF>
  </metadata>
  <defs
     id="defs250" />
  <g
     id="g244"
     transform="scale(2.9527559)">
    <path
       id="rect2"
       d="M 0,0 H 55.880001 V 128.5 H 0 Z"
       style="fill:#f7f2fc;stroke:#7f00ff;stroke-width:1" />
    <g
       id="text4"
       style="font-weight:bold;font-size:4.06400013px;font-family:'Proxima Nova';text-anchor:middle;fill:#7f00ff"
       aria-label="XYCLOID">
      <path
         id="path255"
         style="font-weight:bold;font-size:4.06400013px;font-family:'Proxima Nova';text-anchor:middle;fill:#7f00ff"
         d="m 21.411502,9 h 0.69088 L 21.118894,7.606048 22.041422,6.2893119 h -0.694944 l -0.613664,0.926592 -0.621792,-0.926592 H 19.424206 L 20.346734,7.610112 19.363246,9 h 0.686816 l 0.682752,-0.991616 z" />
      <path
         id="path257"
         style="font-weight:bold;font-size:4.06400013px;font-family:'Proxima Nova';text-anchor:middle;fill:#7f00ff"
         d="m 23.114191,9 h 0.577088 V 7.890528 l 1.03632,-1.6012161 h -0.658368 l -0.666496,1.089152 -0.674624,-1.089152 h -0.658368 l 1.044448,1.6012161 z" />
      <path
         id="path259"
         style="font-weight:bold;font-size:4.06400013px;font-family:'Proxima Nova';text-anchor:middle;fill:#7f00ff"
         d="m 26.131584,9.048768 c 0.597408,0 0.938784,-0.329184 1.133856,-0.666496 L 26.769632,8.142496 C 26.65584,8.366016 26.412,8.536704 26.131584,8.536704 c -0.491744,0 -0.849376,-0.377952 -0.849376,-0.890016 0,-0.5120641 0.357632,-0.8900161 0.849376,-0.8900161 0.280416,0 0.524256,0.174752 0.638048,0.394208 l 0.495808,-0.24384 c -0.191008,-0.337312 -0.536448,-0.662432 -1.133856,-0.662432 -0.8128,0 -1.44272,0.56896 -1.44272,1.4020801 0,0.83312 0.62992,1.40208 1.44272,1.40208 z" />
      <path
         id="path261"
         style="font-weight:bold;font-size:4.06400013px;font-family:'Proxima Nova';text-anchor:middle;fill:#7f00ff"
         d="m 27.612912,9 h 1.723137 V 8.492 H 28.19 V 6.2893119 h -0.577088 z" />
      <path
         id="path263"
         style="font-weight:bold;font-size:4.06400013px;font-family:'Proxima Nova';text-anchor:middle;fill:#7f00ff"
         d="m 29.498989,7.646688 c 0,0.816864 0.597408,1.40208 1.414272,1.40208 0.820928,0 1.418336,-0.585216 1.418336,-1.40208 0,-0.8168641 -0.597408,-1.4020801 -1.418336,-1.4020801 -0.816864,0 -1.414272,0.585216 -1.414272,1.4020801 z m 2.239264,0 c 0,0.503936 -0.32512,0.890016 -0.824992,0.890016 -0.499872,0 -0.820928,-0.38608 -0.820928,-0.890016 0,-0.5080001 0.321056,-0.8900161 0.820928,-0.8900161 0.499872,0 0.824992,0.382016 0.824992,0.8900161 z" />
      <path
         id="path265"
         style="font-weight:bold;font-size:4.06400013px;font-family:'Proxima Nova';text-anchor:middle;fill:#7f00ff"
         d="m 32.740537,9 h 0.577088 V 6.2893119 h -0.577088 z" />
      <path
         id="path267"
         style="font-weight:bold;font-size:4.06400013px;font-family:'Proxima Nova';text-anchor:middle;fill:#7f00ff"
         d="m 33.851787,9 h 1.068832 c 0.849376,0 1.438656,-0.536448 1.438656,-1.353312 0,-0.8168641 -0.58928,-1.3573761 -1.438656,-1.3573761 H 33.851787 Z M 34.428875,8.492 V 6.7973119 h 0.491744 c 0.556768,0 0.849376,0.369824 0.849376,0.8493761 0,0.459232 -0.312928,0.845312 -0.849376,0.845312 z" />
    </g>
    <g
       id="text6"
       style="font-weight:bold;font-size:4.06400013px;font-family:'Proxima Nova';dominant-baseline:hanging;text-anchor:middle;fill:#7f00ff"
       aria-label="DHE">
      <path
         id="path270"
         style="font-weight:bold;font-size:4.06400013px;font-family:'Proxima Nova';dominant-baseline:hanging;text-anchor:middle;fill:#7f00ff"
         d="m 24.076756,122.06845 h 1.068832 c 0.849376,0 1.438656,-0.53645 1.438656,-1.35331 0,-0.81687 -0.58928,-1.35738 -1.438656,-1.35738 h -1.068832 z m 0.577088,-0.508 v -1.69469 h 0.491744 c 0.556768,0 0.849376,0.36982 0.849376,0.84938 0,0.45923 -0.312928,0.84531 -0.849376,0.84531 z" />
      <path
         id="path272"
         style="font-weight:bold;font-size:4.06400013px;font-family:'Proxima Nova';dominant-baseline:hanging;text-anchor:middle;fill:#7f00ff"
         d="m 28.855004,122.06845 h 0.581152 v -2.71069 h -0.581152 v 1.06477 h -1.28016 v -1.06477 h -0.577088 v 2.71069 h 0.577088 v -1.13792 h 1.28016 z" />
      <path
         id="path274"
         style="font-weight:bold;font-size:4.06400013px;font-family:'Proxima Nova';dominant-baseline:hanging;text-anchor:middle;fill:#7f00ff"
         d="m 29.966381,122.06845 h 1.918208 v -0.508 h -1.34112 v -0.61367 h 1.312672 v -0.508 h -1.312672 v -0.57302 h 1.34112 v -0.508 h -1.918208 z" />
    </g>
    <path
       id="line8"
       d="M 7.9828572,30 H 47.897144"
       style="stroke:#7f00ff;stroke-width:0.34999999" />
    <g
       id="text10"
       style="font-weight:bold;font-size:2.37066674px;font-family:'Proxima Nova';text-anchor:middle;fill:#7f00ff"
       aria-label="CV">
      <path
         id="path278"
         style="font-weight:bold;font-size:2.37066674px;font-family:'Proxima Nova';text-anchor:middle;fill:#7f00ff"
         d="m 7.2844736,24.828447 c 0.348488,0 0.547624,-0.192024 0.661416,-0.388789 L 7.6566683,24.299789 c -0.066379,0.130386 -0.2086187,0.229954 -0.3721947,0.229954 -0.2868507,0 -0.4954693,-0.220472 -0.4954693,-0.519176 0,-0.298704 0.2086186,-0.519176 0.4954693,-0.519176 0.163576,0 0.305816,0.101939 0.3721947,0.229955 l 0.2892213,-0.14224 c -0.1114213,-0.196765 -0.312928,-0.386419 -0.661416,-0.386419 -0.4741333,0 -0.8415867,0.331894 -0.8415867,0.81788 0,0.485987 0.3674534,0.81788 0.8415867,0.81788 z" />
      <path
         id="path280"
         style="font-weight:bold;font-size:2.37066674px;font-family:'Proxima Nova';text-anchor:middle;fill:#7f00ff"
         d="M 8.5826359,24.799999 H 9.0046145 L 9.6138759,23.218765 H 9.2298279 L 8.7936252,24.434917 8.3550519,23.218765 H 7.9710038 Z" />
    </g>
    <g
       style="fill:#f7f2fc;stroke:#7f00ff;stroke-width:0.20999999"
       id="g18"
       transform="translate(7.9828571,30)">
      <path
         id="circle12"
         d="M 4.0949998,0 A 4.0949998,4.0949998 0 0 1 0,4.0949998 4.0949998,4.0949998 0 0 1 -4.0949998,0 4.0949998,4.0949998 0 0 1 0,-4.0949998 4.0949998,4.0949998 0 0 1 4.0949998,0 Z"
         style="" />
      <path
         id="circle14"
         d="M 2.925,0 A 2.925,2.925 0 0 1 0,2.925 2.925,2.925 0 0 1 -2.925,0 2.925,2.925 0 0 1 0,-2.925 2.925,2.925 0 0 1 2.925,0 Z"
         style="" />
      <path
         id="circle16"
         d="M 1.755,0 A 1.755,1.755 0 0 1 0,1.755 1.755,1.755 0 0 1 -1.755,0 1.755,1.755 0 0 1 0,-1.755 1.755,1.755 0 0 1 1.755,0 Z"
         style="fill:#7f00ff" />
    </g>
    <g
       id="text22"
       style="font-weight:bold;font-size:3.0480001px;font-family:'Proxima Nova';text-anchor:middle;fill:#7f00ff"
       aria-label="-  +">
      <path
         id="path286"
         style="font-size:larger"
         d="m 18.989903,24.812371 h 0.877824 V 24.41735 h -0.877824 z" />
      <path
         id="path288"
         style="font-size:larger"
         d="m 22.934625,24.410035 h 0.65471 v -0.28895 h -0.65471 v -0.713232 h -0.318211 v 0.713232 h -0.658368 v 0.28895 h 0.658368 v 0.742493 h 0.318211 z" />
    </g>
    <g
       style="fill:#7f00ff;stroke:#f7f2fc"
       id="g28"
       transform="translate(21.287619,30)">
      <path
         id="circle24"
         d="M 3.5,0 A 3.5,3.5 0 0 1 0,3.5 3.5,3.5 0 0 1 -3.5,0 3.5,3.5 0 0 1 0,-3.5 3.5,3.5 0 0 1 3.5,0 Z"
         style="stroke:none" />
      <path
         id="line26"
         d="M 0,0 V -3.0625"
         style="stroke-width:0.4375;stroke-linecap:round" />
    </g>
    <g
       id="text30"
       style="font-weight:bold;font-size:3.0480001px;font-family:'Proxima Nova';text-anchor:middle;fill:#7f00ff"
       aria-label="RATIO">
      <path
         id="path293"
         style="font-weight:bold;font-size:3.0480001px;font-family:'Proxima Nova';text-anchor:middle;fill:#7f00ff"
         d="m 31.549238,22.65 h 0.496824 l -0.4572,-0.774192 c 0.219456,-0.05182 0.445008,-0.24384 0.445008,-0.603504 0,-0.377952 -0.25908,-0.65532 -0.682752,-0.65532 H 30.400142 V 22.65 h 0.432816 v -0.722376 h 0.316992 z m 0.04267,-1.377696 c 0,0.170688 -0.131064,0.27432 -0.3048,0.27432 h -0.454152 v -0.54864 h 0.454152 c 0.173736,0 0.3048,0.103632 0.3048,0.27432 z" />
      <path
         id="path295"
         style="font-weight:bold;font-size:3.0480001px;font-family:'Proxima Nova';text-anchor:middle;fill:#7f00ff"
         d="m 33.7608,22.65 h 0.493776 L 33.47124,20.616984 H 32.928696 L 32.142312,22.65 h 0.493776 l 0.128016,-0.344424 h 0.871728 z m -0.560832,-1.6002 0.316992,0.874776 h -0.633984 z" />
      <path
         id="path297"
         style="font-weight:bold;font-size:3.0480001px;font-family:'Proxima Nova';text-anchor:middle;fill:#7f00ff"
         d="m 34.715253,22.65 h 0.435864 v -1.652016 h 0.591312 v -0.381 h -1.621536 v 0.381 h 0.59436 z" />
      <path
         id="path299"
         style="font-weight:bold;font-size:3.0480001px;font-family:'Proxima Nova';text-anchor:middle;fill:#7f00ff"
         d="m 36.019892,22.65 h 0.432816 v -2.033016 h -0.432816 z" />
      <path
         id="path301"
         style="font-weight:bold;font-size:3.0480001px;font-family:'Proxima Nova';text-anchor:middle;fill:#7f00ff"
         d="m 36.755794,21.635016 c 0,0.612648 0.448056,1.05156 1.060704,1.05156 0.615696,0 1.063752,-0.438912 1.063752,-1.05156 0,-0.612648 -0.448056,-1.05156 -1.063752,-1.05156 -0.612648,0 -1.060704,0.438912 -1.060704,1.05156 z m 1.679448,0 c 0,0.377952 -0.24384,0.667512 -0.618744,0.667512 -0.374904,0 -0.615696,-0.28956 -0.615696,-0.667512 0,-0.381 0.240792,-0.667512 0.615696,-0.667512 0.374904,0 0.618744,0.286512 0.618744,0.667512 z" />
    </g>
    <g
       style="fill:#7f00ff;stroke:#f7f2fc"
       id="g36"
       transform="translate(34.592381,30)">
      <path
         id="circle32"
         d="M 6.3499999,0 A 6.3499999,6.3499999 0 0 1 0,6.3499999 6.3499999,6.3499999 0 0 1 -6.3499999,0 6.3499999,6.3499999 0 0 1 0,-6.3499999 6.3499999,6.3499999 0 0 1 6.3499999,0 Z"
         style="stroke:none" />
      <path
         id="line34"
         d="M 0,0 V -5.5562501"
         style="stroke-width:0.79374999;stroke-linecap:round" />
    </g>
    <g
       id="text38"
       style="font-weight:bold;font-size:2.37066674px;font-family:'Proxima Nova';text-anchor:middle;fill:#7f00ff"
       aria-label="FREE">
      <path
         id="path306"
         style="font-weight:bold;font-size:2.37066674px;font-family:'Proxima Nova';text-anchor:middle;fill:#7f00ff"
         d="m 45.231496,25.825001 h 0.336635 v -0.654304 h 0.765725 v -0.296334 h -0.765725 v -0.334264 h 0.78232 v -0.296333 h -1.118955 z" />
      <path
         id="path308"
         style="font-weight:bold;font-size:2.37066674px;font-family:'Proxima Nova';text-anchor:middle;fill:#7f00ff"
         d="m 47.477258,25.825001 h 0.386419 l -0.3556,-0.60215 c 0.170688,-0.0403 0.346117,-0.189653 0.346117,-0.469392 0,-0.293962 -0.201506,-0.509693 -0.531029,-0.509693 h -0.739648 v 1.581235 h 0.336635 v -0.561848 h 0.246549 z m 0.03319,-1.071542 c 0,0.132758 -0.101939,0.21336 -0.237067,0.21336 h -0.353229 v -0.42672 h 0.353229 c 0.135128,0 0.237067,0.0806 0.237067,0.21336 z" />
      <path
         id="path310"
         style="font-weight:bold;font-size:2.37066674px;font-family:'Proxima Nova';text-anchor:middle;fill:#7f00ff"
         d="m 48.106856,25.825001 h 1.118954 v -0.296334 h -0.78232 v -0.35797 h 0.765726 V 24.874363 H 48.44349 v -0.334264 h 0.78232 v -0.296333 h -1.118954 z" />
      <path
         id="path312"
         style="font-weight:bold;font-size:2.37066674px;font-family:'Proxima Nova';text-anchor:middle;fill:#7f00ff"
         d="m 49.491288,25.825001 h 1.118955 v -0.296334 h -0.78232 v -0.35797 h 0.765725 v -0.296334 h -0.765725 v -0.334264 h 0.78232 v -0.296333 h -1.118955 z" />
    </g>
    <g
       id="text40"
       style="font-weight:bold;font-size:2.37066674px;font-family:'Proxima Nova';dominant-baseline:hanging;text-anchor:middle;fill:#7f00ff"
       aria-label="LOCK">
      <path
         id="path315"
         style="font-weight:bold;font-size:2.37066674px;font-family:'Proxima Nova';dominant-baseline:hanging;text-anchor:middle;fill:#7f00ff"
         d="m 44.98841,35.673261 h 1.005163 V 35.376927 H 45.325045 V 34.092026 H 44.98841 Z" />
      <path
         id="path317"
         style="font-weight:bold;font-size:2.37066674px;font-family:'Proxima Nova';dominant-baseline:hanging;text-anchor:middle;fill:#7f00ff"
         d="m 46.088622,34.883829 c 0,0.476504 0.348488,0.81788 0.824992,0.81788 0.478875,0 0.827363,-0.341376 0.827363,-0.81788 0,-0.476504 -0.348488,-0.81788 -0.827363,-0.81788 -0.476504,0 -0.824992,0.341376 -0.824992,0.81788 z m 1.306237,0 c 0,0.293962 -0.189653,0.519176 -0.481245,0.519176 -0.291592,0 -0.478875,-0.225214 -0.478875,-0.519176 0,-0.296334 0.187283,-0.519176 0.478875,-0.519176 0.291592,0 0.481245,0.222842 0.481245,0.519176 z" />
      <path
         id="path319"
         style="font-weight:bold;font-size:2.37066674px;font-family:'Proxima Nova';dominant-baseline:hanging;text-anchor:middle;fill:#7f00ff"
         d="m 48.74525,35.701709 c 0.348488,0 0.547624,-0.192024 0.661416,-0.38879 L 49.117445,35.17305 c -0.06638,0.130387 -0.208619,0.229955 -0.372195,0.229955 -0.28685,0 -0.495469,-0.220472 -0.495469,-0.519176 0,-0.298704 0.208619,-0.519176 0.495469,-0.519176 0.163576,0 0.305816,0.101938 0.372195,0.229954 l 0.289221,-0.14224 c -0.111421,-0.196765 -0.312928,-0.386418 -0.661416,-0.386418 -0.474133,0 -0.841586,0.331893 -0.841586,0.81788 0,0.485986 0.367453,0.81788 0.841586,0.81788 z" />
      <path
         id="path321"
         style="font-weight:bold;font-size:2.37066674px;font-family:'Proxima Nova';dominant-baseline:hanging;text-anchor:middle;fill:#7f00ff"
         d="m 50.548142,35.673261 h 0.414867 L 50.29211,34.834045 50.920337,34.092026 H 50.50547 l -0.559477,0.706459 v -0.706459 h -0.336635 v 1.581235 h 0.336635 v -0.485987 l 0.123274,-0.146981 z" />
    </g>
    <g
       style="fill:#f7f2fc;stroke:#7f00ff"
       id="g54"
       transform="translate(47.897143,30)">
      <path
         id="rect42"
         d="m -1.125,-2.8125 h 2.25 c 0.103875,0 0.1875,0.083625 0.1875,0.1875 v 5.25 c 0,0.103875 -0.083625,0.1875 -0.1875,0.1875 h -2.25 c -0.103875,0 -0.1875,-0.083625 -0.1875,-0.1875 v -5.25 c 0,-0.103875 0.083625,-0.1875 0.1875,-0.1875 z"
         style="stroke-width:0.375" />
      <path
         id="line44"
         d="m -0.875,-2.25 h 1.75"
         style="stroke-width:0.25;stroke-linecap:round" />
      <path
         id="line46"
         d="m -0.875,-1.75 h 1.75"
         style="stroke-width:0.25;stroke-linecap:round" />
      <path
         id="line48"
         d="m -0.875,-1.25 h 1.75"
         style="stroke-width:0.25;stroke-linecap:round" />
      <path
         id="line50"
         d="m -0.875,-0.75 h 1.75"
         style="stroke-width:0.25;stroke-linecap:round" />
      <path
         id="line52"
         d="m -0.875,-0.25 h 1.75"
         style="stroke-width:0.25;stroke-linecap:round" />
    </g>
    <path
       id="line56"
       d="M 7.9828572,52 H 47.897144"
       style="stroke:#7f00ff;stroke-width:0.34999999" />
    <g
       id="text58"
       style="font-weight:bold;font-size:2.37066674px;font-family:'Proxima Nova';text-anchor:middle;fill:#7f00ff"
       aria-label="CV">
      <path
         id="path331"
         style="font-weight:bold;font-size:2.37066674px;font-family:'Proxima Nova';text-anchor:middle;fill:#7f00ff"
         d="m 7.2844736,46.828447 c 0.348488,0 0.547624,-0.192024 0.661416,-0.388789 L 7.6566683,46.299789 c -0.066379,0.130386 -0.2086187,0.229954 -0.3721947,0.229954 -0.2868507,0 -0.4954693,-0.220472 -0.4954693,-0.519176 0,-0.298704 0.2086186,-0.519176 0.4954693,-0.519176 0.163576,0 0.305816,0.101939 0.3721947,0.229955 l 0.2892213,-0.14224 c -0.1114213,-0.196765 -0.312928,-0.386419 -0.661416,-0.386419 -0.4741333,0 -0.8415867,0.331894 -0.8415867,0.81788 0,0.485987 0.3674534,0.81788 0.8415867,0.81788 z" />
      <path
         id="path333"
         style="font-weight:bold;font-size:2.37066674px;font-family:'Proxima Nova';text-anchor:middle;fill:#7f00ff"
         d="M 8.5826359,46.799999 H 9.0046145 L 9.6138759,45.218765 H 9.2298279 L 8.7936252,46.434917 8.3550519,45.218765 H 7.9710038 Z" />
    </g>
    <g
       style="fill:#f7f2fc;stroke:#7f00ff;stroke-width:0.20999999"
       id="g66"
       transform="translate(7.9828571,52)">
      <path
         id="circle60"
         d="M 4.0949998,0 A 4.0949998,4.0949998 0 0 1 0,4.0949998 4.0949998,4.0949998 0 0 1 -4.0949998,0 4.0949998,4.0949998 0 0 1 0,-4.0949998 4.0949998,4.0949998 0 0 1 4.0949998,0 Z"
         style="" />
      <path
         id="circle62"
         d="M 2.925,0 A 2.925,2.925 0 0 1 0,2.925 2.925,2.925 0 0 1 -2.925,0 2.925,2.925 0 0 1 0,-2.925 2.925,2.925 0 0 1 2.925,0 Z"
         style="" />
      <path
         id="circle64"
         d="M 1.755,0 A 1.755,1.755 0 0 1 0,1.755 1.755,1.755 0 0 1 -1.755,0 1.755,1.755 0 0 1 0,-1.755 1.755,1.755 0 0 1 1.755,0 Z"
         style="fill:#7f00ff" />
    </g>
    <g
       id="text70"
       style="font-weight:bold;font-size:3.0480001px;font-family:'Proxima Nova';text-anchor:middle;fill:#7f00ff"
       aria-label="-  +">
      <path
         id="path339"
         style="font-size:larger"
         d="m 18.989903,46.812371 h 0.877824 V 46.41735 h -0.877824 z" />
      <path
         id="path341"
         style="font-size:larger"
         d="m 22.934625,46.410035 h 0.65471 v -0.28895 h -0.65471 v -0.713232 h -0.318211 v 0.713232 h -0.658368 v 0.28895 h 0.658368 v 0.742493 h 0.318211 z" />
    </g>
    <g
       style="fill:#7f00ff;stroke:#f7f2fc"
       id="g76"
       transform="translate(21.287619,52)">
      <path
         id="circle72"
         d="M 3.5,0 A 3.5,3.5 0 0 1 0,3.5 3.5,3.5 0 0 1 -3.5,0 3.5,3.5 0 0 1 0,-3.5 3.5,3.5 0 0 1 3.5,0 Z"
         style="stroke:none" />
      <path
         id="line74"
         d="M 0,0 V -3.0625"
         style="stroke-width:0.4375;stroke-linecap:round" />
    </g>
    <g
       id="text78"
       style="font-weight:bold;font-size:3.0480001px;font-family:'Proxima Nova';text-anchor:middle;fill:#7f00ff"
       aria-label="DEPTH">
      <path
         id="path346"
         style="font-weight:bold;font-size:3.0480001px;font-family:'Proxima Nova';text-anchor:middle;fill:#7f00ff"
         d="m 29.858408,44.650002 h 0.801624 c 0.637032,0 1.078992,-0.402336 1.078992,-1.014985 0,-0.612648 -0.44196,-1.018032 -1.078992,-1.018032 h -0.801624 z m 0.432816,-0.381 v -1.271017 h 0.368808 c 0.417576,0 0.637032,0.277368 0.637032,0.637032 0,0.344425 -0.234696,0.633985 -0.637032,0.633985 z" />
      <path
         id="path348"
         style="font-weight:bold;font-size:3.0480001px;font-family:'Proxima Nova';text-anchor:middle;fill:#7f00ff"
         d="m 32.049158,44.650002 h 1.438656 v -0.381 h -1.00584 v -0.460249 h 0.984504 v -0.381 h -0.984504 v -0.429768 h 1.00584 v -0.381 h -1.438656 z" />
      <path
         id="path350"
         style="font-weight:bold;font-size:3.0480001px;font-family:'Proxima Nova';text-anchor:middle;fill:#7f00ff"
         d="m 33.829142,44.650002 h 0.432816 v -0.722376 h 0.51816 c 0.438912,0 0.682752,-0.301753 0.682752,-0.655321 0,-0.356616 -0.240792,-0.65532 -0.682752,-0.65532 h -0.950976 z m 1.191768,-1.377697 c 0,0.16764 -0.128016,0.27432 -0.298704,0.27432 h -0.460248 v -0.54864 h 0.460248 c 0.170688,0 0.298704,0.103632 0.298704,0.27432 z" />
      <path
         id="path352"
         style="font-weight:bold;font-size:3.0480001px;font-family:'Proxima Nova';text-anchor:middle;fill:#7f00ff"
         d="m 36.197581,44.650002 h 0.435864 v -1.652017 h 0.591312 v -0.381 h -1.621536 v 0.381 h 0.59436 z" />
      <path
         id="path354"
         style="font-weight:bold;font-size:3.0480001px;font-family:'Proxima Nova';text-anchor:middle;fill:#7f00ff"
         d="m 38.895156,44.650002 h 0.435864 v -2.033017 h -0.435864 v 0.798576 h -0.96012 V 42.616985 H 37.50222 v 2.033017 h 0.432816 v -0.853441 h 0.96012 z" />
    </g>
    <g
       style="fill:#7f00ff;stroke:#f7f2fc"
       id="g84"
       transform="translate(34.592381,52)">
      <path
         id="circle80"
         d="M 6.3499999,0 A 6.3499999,6.3499999 0 0 1 0,6.3499999 6.3499999,6.3499999 0 0 1 -6.3499999,0 6.3499999,6.3499999 0 0 1 0,-6.3499999 6.3499999,6.3499999 0 0 1 6.3499999,0 Z"
         style="stroke:none" />
      <path
         id="line82"
         d="M 0,0 V -5.5562501"
         style="stroke-width:0.79374999;stroke-linecap:round" />
    </g>
    <g
       id="text86"
       style="font-weight:bold;font-size:2.37066674px;font-family:'Proxima Nova';text-anchor:middle;fill:#7f00ff"
       aria-label="OUT">
      <path
         id="path359"
         style="font-weight:bold;font-size:2.37066674px;font-family:'Proxima Nova';text-anchor:middle;fill:#7f00ff"
         d="m 45.512161,45.535569 c 0,0.476504 0.348488,0.81788 0.824992,0.81788 0.478875,0 0.827363,-0.341376 0.827363,-0.81788 0,-0.476504 -0.348488,-0.81788 -0.827363,-0.81788 -0.476504,0 -0.824992,0.341376 -0.824992,0.81788 z m 1.306237,0 c 0,0.293962 -0.189653,0.519176 -0.481245,0.519176 -0.291592,0 -0.478875,-0.225214 -0.478875,-0.519176 0,-0.296334 0.187283,-0.519176 0.478875,-0.519176 0.291592,0 0.481245,0.222842 0.481245,0.519176 z" />
      <path
         id="path361"
         style="font-weight:bold;font-size:2.37066674px;font-family:'Proxima Nova';text-anchor:middle;fill:#7f00ff"
         d="m 47.403064,45.694403 c 0,0.38879 0.232325,0.659046 0.713571,0.659046 0.481245,0 0.71357,-0.267886 0.71357,-0.661416 v -0.948267 h -0.343746 v 0.938784 c 0,0.220472 -0.125646,0.372195 -0.369824,0.372195 -0.244179,0 -0.372195,-0.151723 -0.372195,-0.372195 v -0.938784 h -0.341376 z" />
      <path
         id="path363"
         style="font-weight:bold;font-size:2.37066674px;font-family:'Proxima Nova';text-anchor:middle;fill:#7f00ff"
         d="m 49.504475,46.325001 h 0.339005 v -1.284902 h 0.45991 v -0.296333 h -1.261195 v 0.296333 h 0.46228 z" />
    </g>
    <g
       id="text88"
       style="font-weight:bold;font-size:2.37066674px;font-family:'Proxima Nova';dominant-baseline:hanging;text-anchor:middle;fill:#7f00ff"
       aria-label="IN">
      <path
         id="path366"
         style="font-weight:bold;font-size:2.37066674px;font-family:'Proxima Nova';dominant-baseline:hanging;text-anchor:middle;fill:#7f00ff"
         d="m 46.86596,59.173261 h 0.336635 V 57.592026 H 46.86596 Z" />
      <path
         id="path368"
         style="font-weight:bold;font-size:2.37066674px;font-family:'Proxima Nova';dominant-baseline:hanging;text-anchor:middle;fill:#7f00ff"
         d="m 48.604696,59.173261 h 0.324781 v -1.581235 h -0.336635 v 0.993309 l -0.732536,-0.993309 h -0.346117 v 1.581235 h 0.336635 v -1.03124 z" />
    </g>
    <g
       id="text90"
       style="font-weight:bold;font-size:2.37066674px;font-family:'Proxima Nova';fill:#7f00ff" />
    <g
       style="fill:#f7f2fc;stroke:#7f00ff"
       id="g104"
       transform="translate(47.897143,52)">
      <path
         id="rect92"
         d="m -1.125,-4.3125 h 2.25 c 0.103875,0 0.1875,0.083625 0.1875,0.1875 v 8.25 c 0,0.103875 -0.083625,0.1875 -0.1875,0.1875 h -2.25 c -0.103875,0 -0.1875,-0.083625 -0.1875,-0.1875 v -8.25 c 0,-0.103875 0.083625,-0.1875 0.1875,-0.1875 z"
         style="stroke-width:0.375" />
      <path
         id="line94"
         d="m -0.875,-1 h 1.75"
         style="stroke-width:0.25;stroke-linecap:round" />
      <path
         id="line96"
         d="m -0.875,-0.5 h 1.75"
         style="stroke-width:0.25;stroke-linecap:round" />
      <path
         id="line98"
         d="m -0.875,0 h 1.75"
         style="stroke-width:0.25;stroke-linecap:round" />
      <path
         id="line100"
         d="m -0.875,0.5 h 1.75"
         style="stroke-width:0.25;stroke-linecap:round" />
      <path
         id="line102"
         d="m -0.875,1 h 1.75"
         style="stroke-width:0.25;stroke-linecap:round" />
    </g>
    <path
       id="line106"
       d="M 7.9828572,74 H 34.592381"
       style="stroke:#7f00ff;stroke-width:0.34999999" />
    <g
       id="text108"
       style="font-weight:bold;font-size:2.37066674px;font-family:'Proxima Nova';text-anchor:middle;fill:#7f00ff"
       aria-label="CV">
      <path
         id="path379"
         style="font-weight:bold;font-size:2.37066674px;font-family:'Proxima Nova';text-anchor:middle;fill:#7f00ff"
         d="m 7.2844736,68.828451 c 0.348488,0 0.547624,-0.192024 0.661416,-0.388789 l -0.2892213,-0.13987 c -0.066379,0.130387 -0.2086187,0.229955 -0.3721947,0.229955 -0.2868507,0 -0.4954693,-0.220472 -0.4954693,-0.519176 0,-0.298704 0.2086186,-0.519176 0.4954693,-0.519176 0.163576,0 0.305816,0.101939 0.3721947,0.229955 l 0.2892213,-0.14224 c -0.1114213,-0.196766 -0.312928,-0.386419 -0.661416,-0.386419 -0.4741333,0 -0.8415867,0.331893 -0.8415867,0.81788 0,0.485987 0.3674534,0.81788 0.8415867,0.81788 z" />
      <path
         id="path381"
         style="font-weight:bold;font-size:2.37066674px;font-family:'Proxima Nova';text-anchor:middle;fill:#7f00ff"
         d="M 8.5826359,68.800003 H 9.0046145 L 9.6138759,67.218768 H 9.2298279 L 8.7936252,68.43492 8.3550519,67.218768 H 7.9710038 Z" />
    </g>
    <g
       style="fill:#f7f2fc;stroke:#7f00ff;stroke-width:0.20999999"
       id="g116"
       transform="translate(7.9828571,74)">
      <path
         id="circle110"
         d="M 4.0949998,0 A 4.0949998,4.0949998 0 0 1 0,4.0949998 4.0949998,4.0949998 0 0 1 -4.0949998,0 4.0949998,4.0949998 0 0 1 0,-4.0949998 4.0949998,4.0949998 0 0 1 4.0949998,0 Z"
         style="" />
      <path
         id="circle112"
         d="M 2.925,0 A 2.925,2.925 0 0 1 0,2.925 2.925,2.925 0 0 1 -2.925,0 2.925,2.925 0 0 1 0,-2.925 2.925,2.925 0 0 1 2.925,0 Z"
         style="" />
      <path
         id="circle114"
         d="M 1.755,0 A 1.755,1.755 0 0 1 0,1.755 1.755,1.755 0 0 1 -1.755,0 1.755,1.755 0 0 1 0,-1.755 1.755,1.755 0 0 1 1.755,0 Z"
         style="fill:#7f00ff" />
    </g>
    <g
       id="text120"
       style="font-weight:bold;font-size:3.0480001px;font-family:'Proxima Nova';text-anchor:middle;fill:#7f00ff"
       aria-label="-  +">
      <path
         id="path387"
         style="font-size:larger"
         d="m 18.989903,68.812371 h 0.877824 V 68.41735 h -0.877824 z" />
      <path
         id="path389"
         style="font-size:larger"
         d="m 22.934625,68.410035 h 0.65471 v -0.28895 h -0.65471 v -0.713232 h -0.318211 v 0.713232 h -0.658368 v 0.28895 h 0.658368 v 0.742493 h 0.318211 z" />
    </g>
    <g
       style="fill:#7f00ff;stroke:#f7f2fc"
       id="g126"
       transform="translate(21.287619,74)">
      <path
         id="circle122"
         d="M 3.5,0 A 3.5,3.5 0 0 1 0,3.5 3.5,3.5 0 0 1 -3.5,0 3.5,3.5 0 0 1 0,-3.5 3.5,3.5 0 0 1 3.5,0 Z"
         style="stroke:none" />
      <path
         id="line124"
         d="M 0,0 V -3.0625"
         style="stroke-width:0.4375;stroke-linecap:round" />
    </g>
    <g
       id="text128"
       style="font-weight:bold;font-size:3.0480001px;font-family:'Proxima Nova';text-anchor:middle;fill:#7f00ff"
       aria-label="SPEED">
      <path
         id="path394"
         style="font-weight:bold;font-size:3.0480001px;font-family:'Proxima Nova';text-anchor:middle;fill:#7f00ff"
         d="m 29.917701,66.36349 c 0.188976,0.192024 0.469392,0.323088 0.859536,0.323088 0.54864,0 0.813816,-0.280416 0.813816,-0.652272 0,-0.460249 -0.42672,-0.560833 -0.762,-0.640081 -0.219456,-0.05182 -0.405384,-0.09449 -0.405384,-0.225552 0,-0.12192 0.103632,-0.204216 0.28956,-0.204216 0.207264,0 0.42672,0.0701 0.591312,0.222504 l 0.240792,-0.316992 c -0.201168,-0.185928 -0.469392,-0.283464 -0.79248,-0.283464 -0.478536,0 -0.771144,0.280416 -0.771144,0.618744 0,0.463296 0.42672,0.554736 0.758952,0.630936 0.222504,0.05487 0.41148,0.09754 0.41148,0.246889 0,0.115824 -0.115824,0.225552 -0.353568,0.225552 -0.280416,0 -0.50292,-0.124968 -0.646176,-0.27432 z" />
      <path
         id="path396"
         style="font-weight:bold;font-size:3.0480001px;font-family:'Proxima Nova';text-anchor:middle;fill:#7f00ff"
         d="m 31.88247,66.650002 h 0.432816 v -0.722376 h 0.51816 c 0.438912,0 0.682752,-0.301753 0.682752,-0.655321 0,-0.356616 -0.240792,-0.65532 -0.682752,-0.65532 H 31.88247 Z m 1.191768,-1.377697 c 0,0.16764 -0.128016,0.27432 -0.298704,0.27432 h -0.460248 v -0.54864 h 0.460248 c 0.170688,0 0.298704,0.103632 0.298704,0.27432 z" />
      <path
         id="path398"
         style="font-weight:bold;font-size:3.0480001px;font-family:'Proxima Nova';text-anchor:middle;fill:#7f00ff"
         d="m 33.781517,66.650002 h 1.438656 v -0.381 h -1.00584 v -0.460249 h 0.984504 v -0.381 h -0.984504 v -0.429768 h 1.00584 v -0.381 h -1.438656 z" />
      <path
         id="path400"
         style="font-weight:bold;font-size:3.0480001px;font-family:'Proxima Nova';text-anchor:middle;fill:#7f00ff"
         d="m 35.561502,66.650002 h 1.438656 v -0.381 h -1.00584 v -0.460249 h 0.984504 v -0.381 h -0.984504 v -0.429768 h 1.00584 v -0.381 h -1.438656 z" />
      <path
         id="path402"
         style="font-weight:bold;font-size:3.0480001px;font-family:'Proxima Nova';text-anchor:middle;fill:#7f00ff"
         d="m 37.341486,66.650002 h 0.801624 c 0.637032,0 1.078992,-0.402336 1.078992,-1.014985 0,-0.612648 -0.44196,-1.018032 -1.078992,-1.018032 h -0.801624 z m 0.432816,-0.381 v -1.271017 h 0.368808 c 0.417576,0 0.637032,0.277368 0.637032,0.637032 0,0.344425 -0.234696,0.633985 -0.637032,0.633985 z" />
    </g>
    <g
       style="fill:#7f00ff;stroke:#f7f2fc"
       id="g134"
       transform="translate(34.592381,74)">
      <path
         id="circle130"
         d="M 6.3499999,0 A 6.3499999,6.3499999 0 0 1 0,6.3499999 6.3499999,6.3499999 0 0 1 -6.3499999,0 6.3499999,6.3499999 0 0 1 0,-6.3499999 6.3499999,6.3499999 0 0 1 6.3499999,0 Z"
         style="stroke:none" />
      <path
         id="line132"
         d="M 0,0 V -5.5562501"
         style="stroke-width:0.79374999;stroke-linecap:round" />
    </g>
    <g
       id="text136"
       style="font-weight:bold;font-size:2.37066674px;font-family:'Proxima Nova';text-anchor:middle;fill:#7f00ff"
       aria-label="PHASE">
      <path
         id="path407"
         style="font-weight:bold;font-size:2.37066674px;font-family:'Proxima Nova';text-anchor:middle;fill:#7f00ff"
         d="m 44.245262,68.800003 h 0.336635 v -0.561848 h 0.403013 c 0.341376,0 0.531029,-0.234696 0.531029,-0.509693 0,-0.277368 -0.187282,-0.509694 -0.531029,-0.509694 h -0.739648 z m 0.926931,-1.071541 c 0,0.130386 -0.09957,0.21336 -0.232326,0.21336 h -0.35797 v -0.42672 h 0.35797 c 0.132758,0 0.232326,0.0806 0.232326,0.21336 z" />
      <path
         id="path409"
         style="font-weight:bold;font-size:2.37066674px;font-family:'Proxima Nova';text-anchor:middle;fill:#7f00ff"
         d="m 46.805693,68.800003 h 0.339005 v -1.581235 h -0.339005 v 0.621115 h -0.74676 v -0.621115 h -0.336635 v 1.581235 h 0.336635 v -0.663787 h 0.74676 z" />
      <path
         id="path411"
         style="font-weight:bold;font-size:2.37066674px;font-family:'Proxima Nova';text-anchor:middle;fill:#7f00ff"
         d="m 48.544503,68.800003 h 0.384048 L 48.31929,67.218768 h -0.421979 l -0.611632,1.581235 h 0.384048 l 0.09957,-0.267885 h 0.678011 z m -0.436203,-1.2446 0.24655,0.680381 h -0.493099 z" />
      <path
         id="path413"
         style="font-weight:bold;font-size:2.37066674px;font-family:'Proxima Nova';text-anchor:middle;fill:#7f00ff"
         d="m 48.949368,68.57716 c 0.146981,0.149352 0.365083,0.251291 0.668528,0.251291 0.42672,0 0.632968,-0.218101 0.632968,-0.507323 0,-0.35797 -0.331893,-0.436202 -0.592667,-0.49784 -0.170688,-0.0403 -0.315298,-0.07349 -0.315298,-0.175429 0,-0.09483 0.0806,-0.158835 0.225213,-0.158835 0.161205,0 0.331893,0.05453 0.459909,0.173059 l 0.187283,-0.246549 c -0.156464,-0.144611 -0.365083,-0.220472 -0.616373,-0.220472 -0.372195,0 -0.599779,0.218101 -0.599779,0.481245 0,0.360341 0.331893,0.431461 0.590296,0.490728 0.173059,0.04267 0.32004,0.07586 0.32004,0.192024 0,0.09009 -0.09009,0.175429 -0.274997,0.175429 -0.218102,0 -0.39116,-0.0972 -0.502582,-0.21336 z" />
      <path
         id="path415"
         style="font-weight:bold;font-size:2.37066674px;font-family:'Proxima Nova';text-anchor:middle;fill:#7f00ff"
         d="m 50.477523,68.800003 h 1.118954 V 68.50367 h -0.78232 v -0.357971 h 0.765726 v -0.296333 h -0.765726 v -0.334264 h 0.78232 v -0.296334 h -1.118954 z" />
    </g>
    <g
       style="fill:#7f00ff;stroke:#f7f2fc"
       id="g142"
       transform="translate(47.897143,74)">
      <path
         id="circle138"
         d="M 4.1999998,0 A 4.1999998,4.1999998 0 0 1 0,4.1999998 4.1999998,4.1999998 0 0 1 -4.1999998,0 4.1999998,4.1999998 0 0 1 0,-4.1999998 4.1999998,4.1999998 0 0 1 4.1999998,0 Z"
         style="stroke:none" />
      <path
         id="line140"
         d="M 0,0 V -3.675"
         style="stroke-width:0.52499998;stroke-linecap:round" />
    </g>
    <path
       id="line144"
       d="M 7.9828572,97 H 47.897144"
       style="stroke:#7f00ff;stroke-width:0.34999999" />
    <g
       id="text146"
       style="font-weight:bold;font-size:2.37066674px;font-family:'Proxima Nova';text-anchor:middle;fill:#7f00ff"
       aria-label="CV">
      <path
         id="path421"
         style="font-weight:bold;font-size:2.37066674px;font-family:'Proxima Nova';text-anchor:middle;fill:#7f00ff"
         d="m 7.2844736,91.828451 c 0.348488,0 0.547624,-0.192024 0.661416,-0.388789 l -0.2892213,-0.13987 c -0.066379,0.130387 -0.2086187,0.229955 -0.3721947,0.229955 -0.2868507,0 -0.4954693,-0.220472 -0.4954693,-0.519176 0,-0.298704 0.2086186,-0.519176 0.4954693,-0.519176 0.163576,0 0.305816,0.101939 0.3721947,0.229955 l 0.2892213,-0.14224 c -0.1114213,-0.196766 -0.312928,-0.386419 -0.661416,-0.386419 -0.4741333,0 -0.8415867,0.331893 -0.8415867,0.81788 0,0.485987 0.3674534,0.81788 0.8415867,0.81788 z" />
      <path
         id="path423"
         style="font-weight:bold;font-size:2.37066674px;font-family:'Proxima Nova';text-anchor:middle;fill:#7f00ff"
         d="M 8.5826359,91.800003 H 9.0046145 L 9.6138759,90.218768 H 9.2298279 L 8.7936252,91.43492 8.3550519,90.218768 H 7.9710038 Z" />
    </g>
    <g
       style="fill:#f7f2fc;stroke:#7f00ff;stroke-width:0.20999999"
       id="g154"
       transform="translate(7.9828571,97)">
      <path
         id="circle148"
         d="M 4.0949998,0 A 4.0949998,4.0949998 0 0 1 0,4.0949998 4.0949998,4.0949998 0 0 1 -4.0949998,0 4.0949998,4.0949998 0 0 1 0,-4.0949998 4.0949998,4.0949998 0 0 1 4.0949998,0 Z"
         style="" />
      <path
         id="circle150"
         d="M 2.925,0 A 2.925,2.925 0 0 1 0,2.925 2.925,2.925 0 0 1 -2.925,0 2.925,2.925 0 0 1 0,-2.925 2.925,2.925 0 0 1 2.925,0 Z"
         style="" />
      <path
         id="circle152"
         d="M 1.755,0 A 1.755,1.755 0 0 1 0,1.755 1.755,1.755 0 0 1 -1.755,0 1.755,1.755 0 0 1 0,-1.755 1.755,1.755 0 0 1 1.755,0 Z"
         style="fill:#7f00ff" />
    </g>
    <g
       id="text156"
       style="font-weight:bold;font-size:2.37066674px;font-family:'Proxima Nova';text-anchor:middle;fill:#7f00ff"
       aria-label="GAIN">
      <path
         id="path429"
         style="font-weight:bold;font-size:2.37066674px;font-family:'Proxima Nova';text-anchor:middle;fill:#7f00ff"
         d="m 18.525273,91.010571 c 0,0.49784 0.379307,0.820251 0.841587,0.820251 0.286851,0 0.512064,-0.118534 0.673269,-0.298704 v -0.606891 h -0.753872 v 0.293963 h 0.417238 v 0.189653 c -0.06401,0.05927 -0.196766,0.120904 -0.336635,0.120904 -0.286851,0 -0.495469,-0.220472 -0.495469,-0.519176 0,-0.298704 0.208618,-0.519176 0.495469,-0.519176 0.168317,0 0.303445,0.09483 0.374565,0.206248 l 0.279739,-0.151723 c -0.118533,-0.187282 -0.324781,-0.353229 -0.654304,-0.353229 -0.46228,0 -0.841587,0.317669 -0.841587,0.81788 z" />
      <path
         id="path431"
         style="font-weight:bold;font-size:2.37066674px;font-family:'Proxima Nova';text-anchor:middle;fill:#7f00ff"
         d="m 21.381667,91.800003 h 0.384048 l -0.609261,-1.581235 h -0.421979 l -0.611632,1.581235 h 0.384048 l 0.09957,-0.267885 h 0.678011 z m -0.436202,-1.2446 0.246549,0.680381 h -0.493099 z" />
      <path
         id="path433"
         style="font-weight:bold;font-size:2.37066674px;font-family:'Proxima Nova';text-anchor:middle;fill:#7f00ff"
         d="m 21.911733,91.800003 h 0.336635 v -1.581235 h -0.336635 z" />
      <path
         id="path435"
         style="font-weight:bold;font-size:2.37066674px;font-family:'Proxima Nova';text-anchor:middle;fill:#7f00ff"
         d="m 23.65047,91.800003 h 0.324781 v -1.581235 h -0.336635 v 0.99331 l -0.732536,-0.99331 h -0.346117 v 1.581235 h 0.336635 v -1.03124 z" />
    </g>
    <g
       style="fill:#7f00ff;stroke:#f7f2fc"
       id="g162"
       transform="translate(21.287619,97)">
      <path
         id="circle158"
         d="M 4.1999998,0 A 4.1999998,4.1999998 0 0 1 0,4.1999998 4.1999998,4.1999998 0 0 1 -4.1999998,0 4.1999998,4.1999998 0 0 1 0,-4.1999998 4.1999998,4.1999998 0 0 1 4.1999998,0 Z"
         style="stroke:none" />
      <path
         id="line160"
         d="M 0,0 V -3.675"
         style="stroke-width:0.52499998;stroke-linecap:round" />
    </g>
    <g
       id="text164"
       style="font-weight:bold;font-size:2.37066674px;font-family:'Proxima Nova';text-anchor:middle;fill:#7f00ff"
       aria-label="UNI">
      <path
         id="path440"
         style="font-weight:bold;font-size:2.37066674px;font-family:'Proxima Nova';text-anchor:middle;fill:#7f00ff"
         d="m 32.693032,92.1944 c 0,0.388789 0.232325,0.659045 0.713571,0.659045 0.481245,0 0.71357,-0.267885 0.71357,-0.661416 v -0.948267 h -0.343746 v 0.938784 c 0,0.220472 -0.125646,0.372195 -0.369824,0.372195 -0.244179,0 -0.372195,-0.151723 -0.372195,-0.372195 v -0.938784 h -0.341376 z" />
      <path
         id="path442"
         style="font-weight:bold;font-size:2.37066674px;font-family:'Proxima Nova';text-anchor:middle;fill:#7f00ff"
         d="m 35.519867,92.824997 h 0.324781 v -1.581235 h -0.336635 v 0.99331 l -0.732536,-0.99331 H 34.42936 v 1.581235 h 0.336635 v -1.03124 z" />
      <path
         id="path444"
         style="font-weight:bold;font-size:2.37066674px;font-family:'Proxima Nova';text-anchor:middle;fill:#7f00ff"
         d="m 36.156428,92.824997 h 0.336634 v -1.581235 h -0.336634 z" />
    </g>
    <g
       id="text166"
       style="font-weight:bold;font-size:2.37066674px;font-family:'Proxima Nova';dominant-baseline:hanging;text-anchor:middle;fill:#7f00ff"
       aria-label="BI">
      <path
         id="path447"
         style="font-weight:bold;font-size:2.37066674px;font-family:'Proxima Nova';dominant-baseline:hanging;text-anchor:middle;fill:#7f00ff"
         d="m 33.63991,102.67326 h 0.858181 c 0.301075,0 0.459909,-0.18965 0.459909,-0.42672 0,-0.19913 -0.135128,-0.36271 -0.303445,-0.38878 0.149352,-0.0308 0.272627,-0.16358 0.272627,-0.36272 0,-0.21099 -0.154094,-0.40301 -0.455168,-0.40301 H 33.63991 Z m 0.336634,-0.94826 v -0.34375 h 0.421979 c 0.113792,0 0.184912,0.0735 0.184912,0.17306 0,0.0996 -0.07112,0.17069 -0.184912,0.17069 z m 0,0.65667 v -0.36745 h 0.433832 c 0.132758,0 0.203878,0.0853 0.203878,0.18491 0,0.11379 -0.07586,0.18254 -0.203878,0.18254 z" />
      <path
         id="path449"
         style="font-weight:bold;font-size:2.37066674px;font-family:'Proxima Nova';dominant-baseline:hanging;text-anchor:middle;fill:#7f00ff"
         d="m 35.20955,102.67326 h 0.336635 v -1.58123 H 35.20955 Z" />
    </g>
    <g
       style="fill:#f7f2fc;stroke:#7f00ff"
       id="g180"
       transform="translate(34.592381,97)">
      <path
         id="rect168"
         d="m -1.125,-2.8125 h 2.25 c 0.103875,0 0.1875,0.083625 0.1875,0.1875 v 5.25 c 0,0.103875 -0.083625,0.1875 -0.1875,0.1875 h -2.25 c -0.103875,0 -0.1875,-0.083625 -0.1875,-0.1875 v -5.25 c 0,-0.103875 0.083625,-0.1875 0.1875,-0.1875 z"
         style="stroke-width:0.375" />
      <path
         id="line170"
         d="m -0.875,0.25 h 1.75"
         style="stroke-width:0.25;stroke-linecap:round" />
      <path
         id="line172"
         d="m -0.875,0.75 h 1.75"
         style="stroke-width:0.25;stroke-linecap:round" />
      <path
         id="line174"
         d="m -0.875,1.25 h 1.75"
         style="stroke-width:0.25;stroke-linecap:round" />
      <path
         id="line176"
         d="m -0.875,1.75 h 1.75"
         style="stroke-width:0.25;stroke-linecap:round" />
      <path
         id="line178"
         d="m -0.875,2.25 h 1.75"
         style="stroke-width:0.25;stroke-linecap:round" />
    </g>
    <path
       id="rect182"
       d="m 43.522144,89.044556 h 8.75 c 0.554,0 1,0.446 1,1 V 101.375 c 0,0.554 -0.446,1 -1,1 h -8.75 c -0.554,0 -1,-0.446 -1,-1 V 90.044556 c 0,-0.554 0.446,-1 1,-1 z"
       style="fill:#7f00ff;stroke:#7f00ff;stroke-width:0.34999999" />
    <g
       id="text184"
       style="font-weight:bold;font-size:2.37066674px;font-family:'Proxima Nova';text-anchor:middle;fill:#f7f2fc"
       aria-label="X OUT">
      <path
         id="path459"
         style="font-weight:bold;font-size:2.37066674px;font-family:'Proxima Nova';text-anchor:middle;fill:#f7f2fc"
         d="m 45.524218,91.800003 h 0.403013 l -0.573701,-0.813139 0.538141,-0.768096 h -0.405384 l -0.35797,0.540512 -0.362712,-0.540512 h -0.400643 l 0.538141,0.770467 -0.573701,0.810768 h 0.400643 l 0.398272,-0.578443 z" />
      <path
         id="path461"
         style="font-weight:bold;font-size:2.37066674px;font-family:'Proxima Nova';text-anchor:middle;fill:#f7f2fc"
         d="m 46.607205,91.010571 c 0,0.476504 0.348488,0.81788 0.824992,0.81788 0.478875,0 0.827363,-0.341376 0.827363,-0.81788 0,-0.476504 -0.348488,-0.81788 -0.827363,-0.81788 -0.476504,0 -0.824992,0.341376 -0.824992,0.81788 z m 1.306238,0 c 0,0.293963 -0.189654,0.519176 -0.481246,0.519176 -0.291592,0 -0.478874,-0.225213 -0.478874,-0.519176 0,-0.296333 0.187282,-0.519176 0.478874,-0.519176 0.291592,0 0.481246,0.222843 0.481246,0.519176 z" />
      <path
         id="path463"
         style="font-weight:bold;font-size:2.37066674px;font-family:'Proxima Nova';text-anchor:middle;fill:#f7f2fc"
         d="m 48.498108,91.169406 c 0,0.388789 0.232326,0.659045 0.713571,0.659045 0.481245,0 0.713571,-0.267885 0.713571,-0.661416 v -0.948267 h -0.343747 v 0.938784 c 0,0.220472 -0.125645,0.372195 -0.369824,0.372195 -0.244179,0 -0.372195,-0.151723 -0.372195,-0.372195 v -0.938784 h -0.341376 z" />
      <path
         id="path465"
         style="font-weight:bold;font-size:2.37066674px;font-family:'Proxima Nova';text-anchor:middle;fill:#f7f2fc"
         d="m 50.599519,91.800003 h 0.339005 v -1.284901 h 0.45991 v -0.296334 h -1.261195 v 0.296334 h 0.46228 z" />
    </g>
    <g
       style="fill:#f7f2fc;stroke:#7f00ff;stroke-width:0.20999999"
       id="g192"
       transform="translate(47.897143,97)">
      <path
         id="circle186"
         d="M 4.0949998,0 A 4.0949998,4.0949998 0 0 1 0,4.0949998 4.0949998,4.0949998 0 0 1 -4.0949998,0 4.0949998,4.0949998 0 0 1 0,-4.0949998 4.0949998,4.0949998 0 0 1 4.0949998,0 Z"
         style="" />
      <path
         id="circle188"
         d="M 2.925,0 A 2.925,2.925 0 0 1 0,2.925 2.925,2.925 0 0 1 -2.925,0 2.925,2.925 0 0 1 0,-2.925 2.925,2.925 0 0 1 2.925,0 Z"
         style="" />
      <path
         id="circle190"
         d="M 1.755,0 A 1.755,1.755 0 0 1 0,1.755 1.755,1.755 0 0 1 -1.755,0 1.755,1.755 0 0 1 0,-1.755 1.755,1.755 0 0 1 1.755,0 Z"
         style="fill:#7f00ff" />
    </g>
    <path
       id="line194"
       d="M 7.9828572,112 H 47.897144"
       style="stroke:#7f00ff;stroke-width:0.34999999" />
    <g
       id="text196"
       style="font-weight:bold;font-size:2.37066674px;font-family:'Proxima Nova';text-anchor:middle;fill:#7f00ff"
       aria-label="CV">
      <path
         id="path472"
         style="font-weight:bold;font-size:2.37066674px;font-family:'Proxima Nova';text-anchor:middle;fill:#7f00ff"
         d="m 7.2844736,106.82845 c 0.348488,0 0.547624,-0.19202 0.661416,-0.38879 l -0.2892213,-0.13987 c -0.066379,0.13039 -0.2086187,0.22996 -0.3721947,0.22996 -0.2868507,0 -0.4954693,-0.22047 -0.4954693,-0.51918 0,-0.2987 0.2086186,-0.51917 0.4954693,-0.51917 0.163576,0 0.305816,0.10193 0.3721947,0.22995 l 0.2892213,-0.14224 c -0.1114213,-0.19677 -0.312928,-0.38642 -0.661416,-0.38642 -0.4741333,0 -0.8415867,0.33189 -0.8415867,0.81788 0,0.48599 0.3674534,0.81788 0.8415867,0.81788 z" />
      <path
         id="path474"
         style="font-weight:bold;font-size:2.37066674px;font-family:'Proxima Nova';text-anchor:middle;fill:#7f00ff"
         d="m 8.5826359,106.8 h 0.4219786 l 0.6092614,-1.58123 h -0.384048 l -0.4362027,1.21615 -0.4385733,-1.21615 H 7.9710038 Z" />
    </g>
    <g
       style="fill:#f7f2fc;stroke:#7f00ff;stroke-width:0.20999999"
       id="g204"
       transform="translate(7.9828571,112)">
      <path
         id="circle198"
         d="M 4.0949998,0 A 4.0949998,4.0949998 0 0 1 0,4.0949998 4.0949998,4.0949998 0 0 1 -4.0949998,0 4.0949998,4.0949998 0 0 1 0,-4.0949998 4.0949998,4.0949998 0 0 1 4.0949998,0 Z"
         style="" />
      <path
         id="circle200"
         d="M 2.925,0 A 2.925,2.925 0 0 1 0,2.925 2.925,2.925 0 0 1 -2.925,0 2.925,2.925 0 0 1 0,-2.925 2.925,2.925 0 0 1 2.925,0 Z"
         style="" />
      <path
         id="circle202"
         d="M 1.755,0 A 1.755,1.755 0 0 1 0,1.755 1.755,1.755 0 0 1 -1.755,0 1.755,1.755 0 0 1 0,-1.755 1.755,1.755 0 0 1 1.755,0 Z"
         style="fill:#7f00ff" />
    </g>
    <g
       id="text206"
       style="font-weight:bold;font-size:2.37066674px;font-family:'Proxima Nova';text-anchor:middle;fill:#7f00ff"
       aria-label="GAIN">
      <path
         id="path480"
         style="font-weight:bold;font-size:2.37066674px;font-family:'Proxima Nova';text-anchor:middle;fill:#7f00ff"
         d="m 18.525273,106.01057 c 0,0.49784 0.379307,0.82025 0.841587,0.82025 0.286851,0 0.512064,-0.11853 0.673269,-0.2987 v -0.60689 h -0.753872 v 0.29396 h 0.417238 v 0.18965 c -0.06401,0.0593 -0.196766,0.12091 -0.336635,0.12091 -0.286851,0 -0.495469,-0.22047 -0.495469,-0.51918 0,-0.2987 0.208618,-0.51917 0.495469,-0.51917 0.168317,0 0.303445,0.0948 0.374565,0.20624 l 0.279739,-0.15172 c -0.118533,-0.18728 -0.324781,-0.35323 -0.654304,-0.35323 -0.46228,0 -0.841587,0.31767 -0.841587,0.81788 z" />
      <path
         id="path482"
         style="font-weight:bold;font-size:2.37066674px;font-family:'Proxima Nova';text-anchor:middle;fill:#7f00ff"
         d="m 21.381667,106.8 h 0.384048 l -0.609261,-1.58123 H 20.734475 L 20.122843,106.8 h 0.384048 l 0.09957,-0.26788 h 0.678011 z m -0.436202,-1.2446 0.246549,0.68038 h -0.493099 z" />
      <path
         id="path484"
         style="font-weight:bold;font-size:2.37066674px;font-family:'Proxima Nova';text-anchor:middle;fill:#7f00ff"
         d="m 21.911733,106.8 h 0.336635 v -1.58123 h -0.336635 z" />
      <path
         id="path486"
         style="font-weight:bold;font-size:2.37066674px;font-family:'Proxima Nova';text-anchor:middle;fill:#7f00ff"
         d="m 23.65047,106.8 h 0.324781 v -1.58123 h -0.336635 v 0.99331 L 22.90608,105.21877 H 22.559963 V 106.8 h 0.336635 v -1.03124 z" />
    </g>
    <g
       style="fill:#7f00ff;stroke:#f7f2fc"
       id="g212"
       transform="translate(21.287619,112)">
      <path
         id="circle208"
         d="M 4.1999998,0 A 4.1999998,4.1999998 0 0 1 0,4.1999998 4.1999998,4.1999998 0 0 1 -4.1999998,0 4.1999998,4.1999998 0 0 1 0,-4.1999998 4.1999998,4.1999998 0 0 1 4.1999998,0 Z"
         style="stroke:none" />
      <path
         id="line210"
         d="M 0,0 V -3.675"
         style="stroke-width:0.52499998;stroke-linecap:round" />
    </g>
    <g
       id="text214"
       style="font-weight:bold;font-size:2.37066674px;font-family:'Proxima Nova';text-anchor:middle;fill:#7f00ff"
       aria-label="UNI">
      <path
         id="path491"
         style="font-weight:bold;font-size:2.37066674px;font-family:'Proxima Nova';text-anchor:middle;fill:#7f00ff"
         d="m 32.693032,107.1944 c 0,0.38879 0.232325,0.65904 0.713571,0.65904 0.481245,0 0.71357,-0.26788 0.71357,-0.66141 v -0.94827 h -0.343746 v 0.93879 c 0,0.22047 -0.125646,0.37219 -0.369824,0.37219 -0.244179,0 -0.372195,-0.15172 -0.372195,-0.37219 v -0.93879 h -0.341376 z" />
      <path
         id="path493"
         style="font-weight:bold;font-size:2.37066674px;font-family:'Proxima Nova';text-anchor:middle;fill:#7f00ff"
         d="m 35.519867,107.825 h 0.324781 v -1.58124 h -0.336635 v 0.99331 l -0.732536,-0.99331 H 34.42936 v 1.58124 h 0.336635 v -1.03124 z" />
      <path
         id="path495"
         style="font-weight:bold;font-size:2.37066674px;font-family:'Proxima Nova';text-anchor:middle;fill:#7f00ff"
         d="m 36.156428,107.825 h 0.336634 v -1.58124 h -0.336634 z" />
    </g>
    <g
       id="text216"
       style="font-weight:bold;font-size:2.37066674px;font-family:'Proxima Nova';dominant-baseline:hanging;text-anchor:middle;fill:#7f00ff"
       aria-label="BI">
      <path
         id="path498"
         style="font-weight:bold;font-size:2.37066674px;font-family:'Proxima Nova';dominant-baseline:hanging;text-anchor:middle;fill:#7f00ff"
         d="m 33.63991,117.67326 h 0.858181 c 0.301075,0 0.459909,-0.18965 0.459909,-0.42672 0,-0.19913 -0.135128,-0.36271 -0.303445,-0.38878 0.149352,-0.0308 0.272627,-0.16358 0.272627,-0.36272 0,-0.21099 -0.154094,-0.40301 -0.455168,-0.40301 H 33.63991 Z m 0.336634,-0.94826 v -0.34375 h 0.421979 c 0.113792,0 0.184912,0.0735 0.184912,0.17306 0,0.0996 -0.07112,0.17069 -0.184912,0.17069 z m 0,0.65667 v -0.36745 h 0.433832 c 0.132758,0 0.203878,0.0853 0.203878,0.18491 0,0.11379 -0.07586,0.18254 -0.203878,0.18254 z" />
      <path
         id="path500"
         style="font-weight:bold;font-size:2.37066674px;font-family:'Proxima Nova';dominant-baseline:hanging;text-anchor:middle;fill:#7f00ff"
         d="m 35.20955,117.67326 h 0.336635 v -1.58123 H 35.20955 Z" />
    </g>
    <g
       style="fill:#f7f2fc;stroke:#7f00ff"
       id="g230"
       transform="translate(34.592381,112)">
      <path
         id="rect218"
         d="m -1.125,-2.8125 h 2.25 c 0.103875,0 0.1875,0.083625 0.1875,0.1875 v 5.25 c 0,0.103875 -0.083625,0.1875 -0.1875,0.1875 h -2.25 c -0.103875,0 -0.1875,-0.083625 -0.1875,-0.1875 v -5.25 c 0,-0.103875 0.083625,-0.1875 0.1875,-0.1875 z"
         style="stroke-width:0.375" />
      <path
         id="line220"
         d="m -0.875,0.25 h 1.75"
         style="stroke-width:0.25;stroke-linecap:round" />
      <path
         id="line222"
         d="m -0.875,0.75 h 1.75"
         style="stroke-width:0.25;stroke-linecap:round" />
      <path
         id="line224"
         d="m -0.875,1.25 h 1.75"
         style="stroke-width:0.25;stroke-linecap:round" />
      <path
         id="line226"
         d="m -0.875,1.75 h 1.75"
         style="stroke-width:0.25;stroke-linecap:round" />
      <path
         id="line228"
         d="m -0.875,2.25 h 1.75"
         style="stroke-width:0.25;stroke-linecap:round" />
    </g>
    <path
       id="rect232"
       d="m 43.522144,104.04456 h 8.75 c 0.554,0 1,0.446 1,1 v 11.33045 c 0,0.554 -0.446,1 -1,1 h -8.75 c -0.554,0 -1,-0.446 -1,-1 v -11.33045 c 0,-0.554 0.446,-1 1,-1 z"
       style="fill:#7f00ff;stroke:#7f00ff;stroke-width:0.34999999" />
    <g
       id="text234"
       style="font-weight:bold;font-size:2.37066674px;font-family:'Proxima Nova';text-anchor:middle;fill:#f7f2fc"
       aria-label="Y OUT">
      <path
         id="path510"
         style="font-weight:bold;font-size:2.37066674px;font-family:'Proxima Nova';text-anchor:middle;fill:#f7f2fc"
         d="m 44.961703,106.8 h 0.336635 v -0.64719 l 0.60452,-0.93404 H 45.51881 l -0.388789,0.63534 -0.393531,-0.63534 h -0.384048 l 0.609261,0.93404 z" />
      <path
         id="path512"
         style="font-weight:bold;font-size:2.37066674px;font-family:'Proxima Nova';text-anchor:middle;fill:#f7f2fc"
         d="m 46.579424,106.01057 c 0,0.47651 0.348488,0.81788 0.824992,0.81788 0.478875,0 0.827363,-0.34137 0.827363,-0.81788 0,-0.4765 -0.348488,-0.81788 -0.827363,-0.81788 -0.476504,0 -0.824992,0.34138 -0.824992,0.81788 z m 1.306237,0 c 0,0.29396 -0.189653,0.51918 -0.481245,0.51918 -0.291592,0 -0.478875,-0.22522 -0.478875,-0.51918 0,-0.29633 0.187283,-0.51917 0.478875,-0.51917 0.291592,0 0.481245,0.22284 0.481245,0.51917 z" />
      <path
         id="path514"
         style="font-weight:bold;font-size:2.37066674px;font-family:'Proxima Nova';text-anchor:middle;fill:#f7f2fc"
         d="m 48.470327,106.16941 c 0,0.38879 0.232325,0.65904 0.713571,0.65904 0.481245,0 0.71357,-0.26788 0.71357,-0.66141 v -0.94827 h -0.343746 v 0.93878 c 0,0.22047 -0.125646,0.3722 -0.369824,0.3722 -0.244179,0 -0.372195,-0.15173 -0.372195,-0.3722 v -0.93878 h -0.341376 z" />
      <path
         id="path516"
         style="font-weight:bold;font-size:2.37066674px;font-family:'Proxima Nova';text-anchor:middle;fill:#f7f2fc"
         d="m 50.571738,106.8 h 0.339005 v -1.2849 h 0.45991 v -0.29633 h -1.261195 v 0.29633 h 0.46228 z" />
    </g>
    <g
       style="fill:#f7f2fc;stroke:#7f00ff;stroke-width:0.20999999"
       id="g242"
       transform="translate(47.897143,112)">
      <path
         id="circle236"
         d="M 4.0949998,0 A 4.0949998,4.0949998 0 0 1 0,4.0949998 4.0949998,4.0949998 0 0 1 -4.0949998,0 4.0949998,4.0949998 0 0 1 0,-4.0949998 4.0949998,4.0949998 0 0 1 4.0949998,0 Z"
         style="" />
      <path
         id="circle238"
         d="M 2.925,0 A 2.925,2.925 0 0 1 0,2.925 2.925,2.925 0 0 1 -2.925,0 2.925,2.925 0 0 1 0,-2.925 2.925,2.925 0 0 1 2.925,0 Z"
         style="" />
      <path
         id="circle240"
         d="M 1.755,0 A 1.755,1.755 0 0 1 0,1.755 1.755,1.755 0 0 1 -1.755,0 1.755,1.755 0 0 1 0,-1.755 1.755,1.755 0 0 1 1.755,0 Z"
         style="fill:#7f00ff" />
    </g>
  </g>
</svg>
