<?xml version="1.0" encoding="UTF-8" standalone="no"?>
<!DOCTYPE svg PUBLIC "-//W3C//DTD SVG 1.1//EN" "http://www.w3.org/Graphics/SVG/1.1/DTD/svg11.dtd">
<svg width="120px" height="380px" version="1.1" xmlns="http://www.w3.org/2000/svg" xmlns:xlink="http://www.w3.org/1999/xlink" xml:space="preserve" xmlns:serif="http://www.serif.com/" style="fill-rule:evenodd;clip-rule:evenodd;stroke-linecap:round;stroke-linejoin:round;stroke-miterlimit:1.5;">
    <g id="Booster-Stage" serif:id="Booster Stage" transform="matrix(4.72196,0,0,12.5786,609.137,-86.6018)">
        <rect x="-129.001" y="6.885" width="25.326" height="30.165" style="fill:none;"/>
        <clipPath id="_clip1">
            <rect x="-129.001" y="6.885" width="25.326" height="30.165"/>
        </clipPath>
        <g clip-path="url(#_clip1)">
            <g id="Background" transform="matrix(0.513173,0,0,0.353117,-305.17,-3.72088)">
                <rect x="343.442" y="30.035" width="49.327" height="85.424" style="fill:rgb(255,230,230);"/>
                <path d="M392.768,115.458L343.442,115.458L343.442,30.035L392.768,30.035L392.768,115.458ZM343.746,30.201L343.746,115.292L392.464,115.292L392.464,30.201L343.746,30.201Z" style="fill:rgb(153,0,0);"/>
            </g>
            <g id="OUT" transform="matrix(0.257997,0,0,0.0983737,-128.708,27.7923)">
                <rect x="66.681" y="35.639" width="26.661" height="38.18" style="fill:none;"/>
                <g id="Border" transform="matrix(0.912684,0,0,0.585831,40.2966,-0.655943)">
                    <path d="M56.502,68.089C56.502,65.89 55.338,64.105 53.904,64.105L33.125,64.105C31.691,64.105 30.527,65.89 30.527,68.089L30.527,110.479C30.527,112.678 31.691,114.463 33.125,114.463L53.904,114.463C55.338,114.463 56.502,112.678 56.502,110.479L56.502,68.089Z" style="fill:rgb(153,0,0);stroke:rgb(153,0,0);stroke-width:1.07px;"/>
                </g>
                <g transform="matrix(0.820847,0,0,0.808143,56.9184,3.09951)">
                    <path id="Label" d="M21.112,47.12C21.112,48.523 22.138,49.528 23.541,49.528C24.951,49.528 25.977,48.523 25.977,47.12C25.977,45.718 24.951,44.713 23.541,44.713C22.138,44.713 21.112,45.718 21.112,47.12ZM24.958,47.12C24.958,47.986 24.399,48.649 23.541,48.649C22.683,48.649 22.131,47.986 22.131,47.12C22.131,46.248 22.683,45.592 23.541,45.592C24.399,45.592 24.958,46.248 24.958,47.12Z" style="fill:rgb(255,230,230);fill-rule:nonzero;"/>
                    <path d="M26.675,47.588C26.675,48.733 27.359,49.528 28.775,49.528C30.192,49.528 30.876,48.74 30.876,47.581L30.876,44.789L29.864,44.789L29.864,47.553C29.864,48.202 29.494,48.649 28.775,48.649C28.057,48.649 27.68,48.202 27.68,47.553L27.68,44.789L26.675,44.789L26.675,47.588Z" style="fill:rgb(255,230,230);fill-rule:nonzero;"/>
                    <path d="M32.865,49.445L33.863,49.445L33.863,45.662L35.217,45.662L35.217,44.789L31.504,44.789L31.504,45.662L32.865,45.662L32.865,49.445Z" style="fill:rgb(255,230,230);fill-rule:nonzero;"/>
                </g>
            </g>
            <g id="IN" transform="matrix(0.257997,0,0,0.0983737,-145.266,27.7923)">
                <rect x="66.681" y="35.639" width="26.661" height="38.18" style="fill:none;"/>
                <g id="Border1" serif:id="Border" transform="matrix(0.912684,0,0,0.585831,40.2966,-0.655943)">
                    <path d="M56.502,68.089C56.502,65.89 55.338,64.105 53.904,64.105L33.125,64.105C31.691,64.105 30.527,65.89 30.527,68.089L30.527,110.479C30.527,112.678 31.691,114.463 33.125,114.463L53.904,114.463C55.338,114.463 56.502,112.678 56.502,110.479L56.502,68.089Z" style="fill:none;stroke:rgb(153,0,0);stroke-width:1.07px;"/>
                </g>
                <g transform="matrix(0.820847,0,0,0.808143,56.9184,3.09951)">
                    <rect id="Label1" serif:id="Label" x="25.094" y="44.789" width="0.991" height="4.655" style="fill:rgb(153,0,0);fill-rule:nonzero;"/>
                    <path d="M30.217,49.445L31.173,49.445L31.173,44.789L30.182,44.789L30.182,47.714L28.025,44.789L27.006,44.789L27.006,49.445L27.997,49.445L27.997,46.409L30.217,49.445Z" style="fill:rgb(153,0,0);fill-rule:nonzero;"/>
                </g>
            </g>
            <g id="EOC" transform="matrix(0.457796,0,0,0.503825,-129.322,-15.658)">
                <rect x="27.993" y="86.224" width="36.88" height="7.429" style="fill:none;"/>
                <g id="Border2" serif:id="Border" transform="matrix(0.616089,0,0,0.105825,7.63489,77.9785)">
                    <path d="M73.819,85.559C73.819,82.555 72.591,80.116 71.078,80.116L37.173,80.116C35.66,80.116 34.432,82.555 34.432,85.559L34.432,129.104C34.432,132.108 35.66,134.547 37.173,134.547L71.078,134.547C72.591,134.547 73.819,132.108 73.819,129.104L73.819,85.559Z" style="fill:rgb(153,0,0);stroke:rgb(153,0,0);stroke-width:0.95px;"/>
                </g>
                <g transform="matrix(0.4626,0,0,0.157793,33.4187,79.8573)">
                    <path id="Label2" serif:id="Label" d="M21.493,49.445L24.787,49.445L24.787,48.572L22.484,48.572L22.484,47.518L24.738,47.518L24.738,46.646L22.484,46.646L22.484,45.662L24.787,45.662L24.787,44.789L21.493,44.789L21.493,49.445Z" style="fill:rgb(255,230,230);fill-rule:nonzero;"/>
                    <path d="M25.338,47.12C25.338,48.523 26.364,49.528 27.767,49.528C29.177,49.528 30.203,48.523 30.203,47.12C30.203,45.718 29.177,44.713 27.767,44.713C26.364,44.713 25.338,45.718 25.338,47.12ZM29.184,47.12C29.184,47.986 28.625,48.649 27.767,48.649C26.908,48.649 26.357,47.986 26.357,47.12C26.357,46.248 26.908,45.592 27.767,45.592C28.625,45.592 29.184,46.248 29.184,47.12Z" style="fill:rgb(255,230,230);fill-rule:nonzero;"/>
                    <path d="M33.155,49.528C34.181,49.528 34.767,48.963 35.102,48.384L34.251,47.972C34.055,48.356 33.636,48.649 33.155,48.649C32.31,48.649 31.696,48 31.696,47.12C31.696,46.241 32.31,45.592 33.155,45.592C33.636,45.592 34.055,45.892 34.251,46.269L35.102,45.85C34.774,45.271 34.181,44.713 33.155,44.713C31.759,44.713 30.677,45.69 30.677,47.12C30.677,48.551 31.759,49.528 33.155,49.528Z" style="fill:rgb(255,230,230);fill-rule:nonzero;"/>
                </g>
            </g>
            <g id="TRIG" transform="matrix(0.457796,0,0,0.503825,-145.88,-15.658)">
                <rect x="27.993" y="86.224" width="36.88" height="7.429" style="fill:none;"/>
                <g id="Border3" serif:id="Border" transform="matrix(0.616089,0,0,0.105825,18.5391,77.9785)">
                    <path d="M73.819,85.559C73.819,82.555 72.591,80.116 71.078,80.116L37.173,80.116C35.66,80.116 34.432,82.555 34.432,85.559L34.432,129.104C34.432,132.108 35.66,134.547 37.173,134.547L71.078,134.547C72.591,134.547 73.819,132.108 73.819,129.104L73.819,85.559Z" style="fill:none;stroke:rgb(153,0,0);stroke-width:0.95px;"/>
                </g>
                <g transform="matrix(0.4626,0,0,0.157793,33.4187,79.8573)">
                    <path id="Label3" serif:id="Label" d="M21.925,49.445L22.923,49.445L22.923,45.662L24.277,45.662L24.277,44.789L20.564,44.789L20.564,45.662L21.925,45.662L21.925,49.445Z" style="fill:rgb(153,0,0);fill-rule:nonzero;"/>
                    <path d="M27.544,49.445L28.681,49.445L27.634,47.672C28.137,47.553 28.653,47.113 28.653,46.29C28.653,45.425 28.06,44.789 27.09,44.789L24.912,44.789L24.912,49.445L25.903,49.445L25.903,47.79L26.629,47.79L27.544,49.445ZM27.641,46.29C27.641,46.681 27.341,46.918 26.943,46.918L25.903,46.918L25.903,45.662L26.943,45.662C27.341,45.662 27.641,45.899 27.641,46.29Z" style="fill:rgb(153,0,0);fill-rule:nonzero;"/>
                    <rect x="29.4" y="44.789" width="0.991" height="4.655" style="fill:rgb(153,0,0);fill-rule:nonzero;"/>
                    <path d="M31.089,47.12C31.089,48.586 32.206,49.535 33.567,49.535C34.411,49.535 35.074,49.186 35.549,48.656L35.549,46.869L33.329,46.869L33.329,47.735L34.558,47.735L34.558,48.293C34.369,48.467 33.978,48.649 33.567,48.649C32.722,48.649 32.108,48 32.108,47.12C32.108,46.241 32.722,45.592 33.567,45.592C34.062,45.592 34.46,45.871 34.669,46.199L35.493,45.753C35.144,45.201 34.537,44.713 33.567,44.713C32.206,44.713 31.089,45.648 31.089,47.12Z" style="fill:rgb(153,0,0);fill-rule:nonzero;"/>
                </g>
            </g>
            <g id="ACTIVE" transform="matrix(0.457796,0,0,0.503825,-129.322,-19.1792)">
                <rect x="27.993" y="86.224" width="36.88" height="7.429" style="fill:none;"/>
                <g id="Border4" serif:id="Border" transform="matrix(0.616089,0,0,0.105825,7.63489,77.9785)">
                    <path d="M73.819,85.559C73.819,82.555 72.591,80.116 71.078,80.116L37.173,80.116C35.66,80.116 34.432,82.555 34.432,85.559L34.432,129.104C34.432,132.108 35.66,134.547 37.173,134.547L71.078,134.547C72.591,134.547 73.819,132.108 73.819,129.104L73.819,85.559Z" style="fill:rgb(153,0,0);stroke:rgb(153,0,0);stroke-width:0.95px;"/>
                </g>
                <g transform="matrix(0.4626,0,0,0.157793,33.4187,79.8573)">
                    <path id="Label4" serif:id="Label" d="M19.73,49.445L20.861,49.445L19.067,44.789L17.825,44.789L16.024,49.445L17.155,49.445L17.448,48.656L19.444,48.656L19.73,49.445ZM18.446,45.78L19.172,47.783L17.72,47.783L18.446,45.78Z" style="fill:rgb(255,230,230);fill-rule:nonzero;"/>
                    <path d="M23.311,49.528C24.337,49.528 24.923,48.963 25.258,48.384L24.406,47.972C24.211,48.356 23.792,48.649 23.311,48.649C22.466,48.649 21.852,48 21.852,47.12C21.852,46.241 22.466,45.592 23.311,45.592C23.792,45.592 24.211,45.892 24.406,46.269L25.258,45.85C24.93,45.271 24.337,44.713 23.311,44.713C21.915,44.713 20.833,45.69 20.833,47.12C20.833,48.551 21.915,49.528 23.311,49.528Z" style="fill:rgb(255,230,230);fill-rule:nonzero;"/>
                    <path d="M26.926,49.445L27.924,49.445L27.924,45.662L29.278,45.662L29.278,44.789L25.565,44.789L25.565,45.662L26.926,45.662L26.926,49.445Z" style="fill:rgb(255,230,230);fill-rule:nonzero;"/>
                    <rect x="29.913" y="44.789" width="0.991" height="4.655" style="fill:rgb(255,230,230);fill-rule:nonzero;"/>
                    <path d="M33.13,49.445L34.373,49.445L36.166,44.789L35.036,44.789L33.752,48.37L32.46,44.789L31.33,44.789L33.13,49.445Z" style="fill:rgb(255,230,230);fill-rule:nonzero;"/>
                    <path d="M36.599,49.445L39.893,49.445L39.893,48.572L37.59,48.572L37.59,47.518L39.844,47.518L39.844,46.646L37.59,46.646L37.59,45.662L39.893,45.662L39.893,44.789L36.599,44.789L36.599,49.445Z" style="fill:rgb(255,230,230);fill-rule:nonzero;"/>
                </g>
            </g>
            <g id="DEFER" transform="matrix(0.457796,0,0,0.503825,-145.88,-19.1792)">
                <rect x="27.993" y="86.224" width="36.88" height="7.429" style="fill:none;"/>
                <g id="Border5" serif:id="Border" transform="matrix(0.616089,0,0,0.105825,18.5391,77.9785)">
                    <path d="M73.819,85.559C73.819,82.555 72.591,80.116 71.078,80.116L37.173,80.116C35.66,80.116 34.432,82.555 34.432,85.559L34.432,129.104C34.432,132.108 35.66,134.547 37.173,134.547L71.078,134.547C72.591,134.547 73.819,132.108 73.819,129.104L73.819,85.559Z" style="fill:none;stroke:rgb(153,0,0);stroke-width:0.95px;"/>
                </g>
                <g transform="matrix(0.4626,0,0,0.157793,33.4187,79.8573)">
                    <path id="Label5" serif:id="Label" d="M17.783,49.445L19.619,49.445C21.077,49.445 22.089,48.523 22.089,47.12C22.089,45.718 21.077,44.789 19.619,44.789L17.783,44.789L17.783,49.445ZM18.774,48.572L18.774,45.662L19.619,45.662C20.575,45.662 21.077,46.297 21.077,47.12C21.077,47.909 20.54,48.572 19.619,48.572L18.774,48.572Z" style="fill:rgb(153,0,0);fill-rule:nonzero;"/>
                    <path d="M22.794,49.445L26.088,49.445L26.088,48.572L23.785,48.572L23.785,47.518L26.04,47.518L26.04,46.646L23.785,46.646L23.785,45.662L26.088,45.662L26.088,44.789L22.794,44.789L22.794,49.445Z" style="fill:rgb(153,0,0);fill-rule:nonzero;"/>
                    <path d="M26.863,49.445L27.854,49.445L27.854,47.518L30.108,47.518L30.108,46.646L27.854,46.646L27.854,45.662L30.157,45.662L30.157,44.789L26.863,44.789L26.863,49.445Z" style="fill:rgb(153,0,0);fill-rule:nonzero;"/>
                    <path d="M30.848,49.445L34.142,49.445L34.142,48.572L31.839,48.572L31.839,47.518L34.094,47.518L34.094,46.646L31.839,46.646L31.839,45.662L34.142,45.662L34.142,44.789L30.848,44.789L30.848,49.445Z" style="fill:rgb(153,0,0);fill-rule:nonzero;"/>
                    <path d="M37.548,49.445L38.686,49.445L37.639,47.672C38.141,47.553 38.658,47.113 38.658,46.29C38.658,45.425 38.065,44.789 37.095,44.789L34.917,44.789L34.917,49.445L35.908,49.445L35.908,47.79L36.634,47.79L37.548,49.445ZM37.646,46.29C37.646,46.681 37.346,46.918 36.948,46.918L35.908,46.918L35.908,45.662L36.948,45.662C37.346,45.662 37.646,45.899 37.646,46.29Z" style="fill:rgb(153,0,0);fill-rule:nonzero;"/>
                </g>
            </g>
            <g id="Duration">
                <g id="Connector" transform="matrix(0.211776,0,0,0.0795,-194.934,15.09)">
                    <path d="M332.002,79.912C346.234,79.912 410.423,79.683 410.191,79.912" style="fill:none;stroke:rgb(153,0,0);stroke-width:1px;"/>
                </g>
                <g id="Switch" transform="matrix(0.364201,0,0,0.0853659,-119.77,14.2192)">
                    <rect x="18.404" y="62.576" width="27.472" height="43.998" style="fill:none;"/>
                    <g transform="matrix(0.581482,0,0,0.931286,17.9869,58.825)">
                        <path id="LOW" d="M24.322,49.445L25.313,49.445L25.313,44.789L24.448,44.789L22.982,46.262L23.548,46.855L24.322,46.067L24.322,49.445Z" style="fill:rgb(153,0,0);fill-rule:nonzero;"/>
                    </g>
                    <g transform="matrix(0.581482,0,0,0.931286,29.2404,40.7019)">
                        <path id="MID" d="M14.609,49.444L15.6,49.444L15.6,44.789L14.735,44.789L13.269,46.262L13.834,46.855L14.609,46.066L14.609,49.444Z" style="fill:rgb(153,0,0);fill-rule:nonzero;"/>
                        <path d="M16.298,47.12C16.298,48.321 16.891,49.528 18.224,49.528C19.55,49.528 20.151,48.321 20.151,47.12C20.151,45.92 19.55,44.719 18.224,44.719C16.891,44.719 16.298,45.92 16.298,47.12ZM19.139,47.12C19.139,47.979 18.887,48.649 18.224,48.649C17.554,48.649 17.303,47.979 17.303,47.12C17.303,46.262 17.554,45.599 18.224,45.599C18.887,45.599 19.139,46.262 19.139,47.12Z" style="fill:rgb(153,0,0);fill-rule:nonzero;"/>
                    </g>
                    <g transform="matrix(0.581482,0,0,0.931286,17.9869,22.5784)">
                        <path id="HIGH" d="M19.995,49.445L20.986,49.445L20.986,44.789L20.121,44.789L18.655,46.262L19.221,46.855L19.995,46.067L19.995,49.445Z" style="fill:rgb(153,0,0);fill-rule:nonzero;"/>
                        <path d="M21.684,47.12C21.684,48.321 22.277,49.528 23.611,49.528C24.937,49.528 25.537,48.321 25.537,47.12C25.537,45.92 24.937,44.72 23.611,44.72C22.277,44.72 21.684,45.92 21.684,47.12ZM24.525,47.12C24.525,47.979 24.274,48.649 23.611,48.649C22.941,48.649 22.689,47.979 22.689,47.12C22.689,46.262 22.941,45.599 23.611,45.599C24.274,45.599 24.525,46.262 24.525,47.12Z" style="fill:rgb(153,0,0);fill-rule:nonzero;"/>
                        <path d="M26.011,47.12C26.011,48.321 26.605,49.528 27.938,49.528C29.264,49.528 29.864,48.321 29.864,47.12C29.864,45.92 29.264,44.72 27.938,44.72C26.605,44.72 26.011,45.92 26.011,47.12ZM28.852,47.12C28.852,47.979 28.601,48.649 27.938,48.649C27.268,48.649 27.016,47.979 27.016,47.12C27.016,46.262 27.268,45.599 27.938,45.599C28.601,45.599 28.852,46.262 28.852,47.12Z" style="fill:rgb(153,0,0);fill-rule:nonzero;"/>
                    </g>
                </g>
                <g id="CV" transform="matrix(0.257997,0,0,0.0983737,-145.266,16.0551)">
                    <rect x="66.681" y="35.639" width="26.661" height="38.18" style="fill:none;"/>
                    <g transform="matrix(0.820847,0,0,0.808143,56.9184,3.09951)">
                        <path id="Label6" serif:id="Label" d="M26.078,49.528C27.104,49.528 27.69,48.963 28.025,48.384L27.174,47.972C26.978,48.356 26.56,48.649 26.078,48.649C25.233,48.649 24.619,48 24.619,47.12C24.619,46.241 25.233,45.592 26.078,45.592C26.56,45.592 26.978,45.892 27.174,46.269L28.025,45.85C27.697,45.271 27.104,44.713 26.078,44.713C24.682,44.713 23.6,45.69 23.6,47.12C23.6,48.551 24.682,49.528 26.078,49.528Z" style="fill:rgb(153,0,0);fill-rule:nonzero;"/>
                        <path d="M29.896,49.445L31.138,49.445L32.932,44.789L31.801,44.789L30.517,48.37L29.226,44.789L28.095,44.789L29.896,49.445Z" style="fill:rgb(153,0,0);fill-rule:nonzero;"/>
                    </g>
                </g>
                <g id="Knob" transform="matrix(0.132047,0,0,0.0806623,-124.167,11.1284)">
                    <rect x="24.299" y="98.722" width="71.034" height="58.204" style="fill:none;"/>
                    <g transform="matrix(1.60379,0,0,0.98559,-3.96195,56.3603)">
                        <path id="Label-Large" serif:id="Label Large" d="M17.676,50.776L20.032,50.776C21.904,50.776 23.203,49.594 23.203,47.793C23.203,45.992 21.904,44.801 20.032,44.801L17.676,44.801L17.676,50.776ZM18.948,49.656L18.948,45.921L20.032,45.921C21.259,45.921 21.904,46.736 21.904,47.793C21.904,48.805 21.214,49.656 20.032,49.656L18.948,49.656Z" style="fill:rgb(153,0,0);fill-rule:nonzero;"/>
                        <path d="M24.108,48.393C24.108,49.862 24.986,50.884 26.804,50.884C28.623,50.884 29.501,49.871 29.501,48.384L29.501,44.801L28.202,44.801L28.202,48.348C28.202,49.182 27.727,49.755 26.804,49.755C25.882,49.755 25.398,49.182 25.398,48.348L25.398,44.801L24.108,44.801L24.108,48.393Z" style="fill:rgb(153,0,0);fill-rule:nonzero;"/>
                        <path d="M34.052,50.776L35.512,50.776L34.168,48.501C34.813,48.348 35.476,47.784 35.476,46.727C35.476,45.616 34.715,44.801 33.469,44.801L30.674,44.801L30.674,50.776L31.947,50.776L31.947,48.653L32.878,48.653L34.052,50.776ZM34.177,46.727C34.177,47.229 33.792,47.533 33.281,47.533L31.947,47.533L31.947,45.921L33.281,45.921C33.792,45.921 34.177,46.225 34.177,46.727Z" style="fill:rgb(153,0,0);fill-rule:nonzero;"/>
                        <path d="M40.556,50.776L42.007,50.776L39.704,44.801L38.11,44.801L35.799,50.776L37.25,50.776L37.626,49.764L40.188,49.764L40.556,50.776ZM38.907,46.073L39.839,48.644L37.976,48.644L38.907,46.073Z" style="fill:rgb(153,0,0);fill-rule:nonzero;"/>
                        <path d="M43.368,50.776L44.649,50.776L44.649,45.921L46.387,45.921L46.387,44.801L41.622,44.801L41.622,45.921L43.368,45.921L43.368,50.776Z" style="fill:rgb(153,0,0);fill-rule:nonzero;"/>
                        <rect x="47.203" y="44.801" width="1.272" height="5.975" style="fill:rgb(153,0,0);fill-rule:nonzero;"/>
                        <path d="M49.371,47.793C49.371,49.594 50.687,50.884 52.488,50.884C54.298,50.884 55.614,49.594 55.614,47.793C55.614,45.992 54.298,44.702 52.488,44.702C50.687,44.702 49.371,45.992 49.371,47.793ZM54.307,47.793C54.307,48.904 53.59,49.755 52.488,49.755C51.386,49.755 50.678,48.904 50.678,47.793C50.678,46.673 51.386,45.831 52.488,45.831C53.59,45.831 54.307,46.673 54.307,47.793Z" style="fill:rgb(153,0,0);fill-rule:nonzero;"/>
                        <path d="M60.631,50.776L61.858,50.776L61.858,44.801L60.586,44.801L60.586,48.554L57.818,44.801L56.51,44.801L56.51,50.776L57.782,50.776L57.782,46.879L60.631,50.776Z" style="fill:rgb(153,0,0);fill-rule:nonzero;"/>
                    </g>
                </g>
            </g>
            <g id="Shape">
                <g id="Connector1" serif:id="Connector" transform="matrix(0.211776,0,0,0.0795,-194.934,10.7472)">
                    <path d="M332.002,79.912C346.234,79.912 410.423,79.683 410.191,79.912" style="fill:none;stroke:rgb(153,0,0);stroke-width:1px;"/>
                </g>
                <g id="Switch-2" serif:id="Switch 2" transform="matrix(0.16421,0,0,0.0571875,-114.38,11.8288)">
                    <rect x="21.318" y="61.322" width="34.273" height="61.572" style="fill:none;"/>
                    <g id="J-CURVE" serif:id="J CURVE" transform="matrix(0.02533,0,0,0.0299068,35.1382,116.513)">
                        <path d="M-102.125,75.403L-54.213,73.85L-28.08,72.814L-1.946,71.001L24.188,68.929L50.321,66.081L76.455,62.196L102.589,57.017L128.722,50.024L154.856,40.961L180.989,28.789L207.123,13.251C211.623,10.951 228.957,-3.89 233.257,-6.69C237.757,-9.69 255.09,-28.569 259.39,-32.069C263.89,-35.869 281.224,-59.363 285.524,-63.663C290.024,-68.363 307.358,-96.949 311.658,-102.249C316.158,-107.749 333.491,-141.469 337.791,-147.569L363.925,-199.103" style="fill:none;stroke:rgb(153,0,0);stroke-width:60.68px;stroke-miterlimit:4;"/>
                    </g>
                    <g id="SIGMOID" transform="matrix(0.0224516,0,0,0.0265083,35.515,71.1914)">
                        <path d="M-132,93L-107.8,92.4L-94.6,92L-81.4,91.3L-68.2,90.5L-55,89.4L-41.8,87.9L-28.6,85.9L-15.4,83.2L-2.2,79.7L11,75L24.2,69C28.7,66.7 33.1,64.1 37.4,61.3C41.9,58.3 46.3,55 50.6,51.5C55.1,47.7 59.5,43.6 63.8,39.3C68.3,34.6 72.7,29.7 77,24.4C81.5,18.9 85.9,13 90.2,6.9L103.4,-13L116.6,-34.9L129.8,-58L138.6,-73.5L151.8,-96.3L165,-117.6L178.2,-136.8C182.5,-142.6 186.9,-148.2 191.4,-153.4C195.7,-158.4 200.1,-163 204.6,-167.4C208.9,-171.5 213.3,-175.3 217.8,-178.7C222.1,-182.1 226.5,-185.1 231,-187.8C235.3,-190.5 239.8,-192.8 244.2,-195L257.4,-200.5L270.6,-204.7L283.8,-207.9L297,-210.3L310.2,-212.2L323.4,-213.5L336.6,-214.6L349.8,-215.3L363,-215.9L374,-216.2L393.8,-216.7" style="fill:none;stroke:rgb(153,0,0);stroke-width:68.46px;stroke-linejoin:miter;stroke-miterlimit:4;"/>
                    </g>
                </g>
                <g id="CV1" serif:id="CV" transform="matrix(0.257997,0,0,0.0983737,-145.266,11.7123)">
                    <rect x="66.681" y="35.639" width="26.661" height="38.18" style="fill:none;"/>
                    <g transform="matrix(0.820847,0,0,0.808143,56.9184,3.09951)">
                        <path id="Label7" serif:id="Label" d="M26.078,49.528C27.104,49.528 27.69,48.963 28.025,48.384L27.174,47.972C26.978,48.356 26.56,48.649 26.078,48.649C25.233,48.649 24.619,48 24.619,47.12C24.619,46.241 25.233,45.592 26.078,45.592C26.56,45.592 26.978,45.892 27.174,46.269L28.025,45.85C27.697,45.271 27.104,44.713 26.078,44.713C24.682,44.713 23.6,45.69 23.6,47.12C23.6,48.551 24.682,49.528 26.078,49.528Z" style="fill:rgb(153,0,0);fill-rule:nonzero;"/>
                        <path d="M29.896,49.445L31.138,49.445L32.932,44.789L31.801,44.789L30.517,48.37L29.226,44.789L28.095,44.789L29.896,49.445Z" style="fill:rgb(153,0,0);fill-rule:nonzero;"/>
                    </g>
                </g>
                <g id="Knob1" serif:id="Knob" transform="matrix(0.132047,0,0,0.0806623,-124.167,6.78564)">
                    <rect x="24.299" y="98.722" width="71.034" height="58.204" style="fill:none;"/>
                    <g transform="matrix(1.60379,0,0,0.98559,8.54239,56.3603)">
                        <path id="Label-Large1" serif:id="Label Large" d="M17.727,49.934C18.282,50.498 19.106,50.884 20.253,50.884C21.865,50.884 22.645,50.059 22.645,48.967C22.645,47.614 21.391,47.318 20.405,47.085C19.76,46.933 19.214,46.808 19.214,46.422C19.214,46.064 19.518,45.822 20.065,45.822C20.674,45.822 21.319,46.028 21.803,46.476L22.51,45.544C21.919,44.998 21.131,44.711 20.181,44.711C18.775,44.711 17.915,45.535 17.915,46.53C17.915,47.892 19.169,48.16 20.145,48.384C20.799,48.545 21.355,48.671 21.355,49.11C21.355,49.45 21.014,49.773 20.316,49.773C19.491,49.773 18.838,49.405 18.416,48.967L17.727,49.934Z" style="fill:rgb(153,0,0);fill-rule:nonzero;"/>
                        <path d="M27.599,50.776L28.88,50.776L28.88,44.801L27.599,44.801L27.599,47.148L24.777,47.148L24.777,44.801L23.505,44.801L23.505,50.776L24.777,50.776L24.777,48.268L27.599,48.268L27.599,50.776Z" style="fill:rgb(153,0,0);fill-rule:nonzero;"/>
                        <path d="M34.174,50.776L35.625,50.776L33.323,44.801L31.729,44.801L29.417,50.776L30.869,50.776L31.245,49.764L33.807,49.764L34.174,50.776ZM32.526,46.073L33.458,48.644L31.594,48.644L32.526,46.073Z" style="fill:rgb(153,0,0);fill-rule:nonzero;"/>
                        <path d="M36.181,50.776L37.453,50.776L37.453,48.653L38.976,48.653C40.266,48.653 40.983,47.766 40.983,46.727C40.983,45.679 40.275,44.801 38.976,44.801L36.181,44.801L36.181,50.776ZM39.684,46.727C39.684,47.22 39.307,47.533 38.806,47.533L37.453,47.533L37.453,45.921L38.806,45.921C39.307,45.921 39.684,46.225 39.684,46.727Z" style="fill:rgb(153,0,0);fill-rule:nonzero;"/>
                        <path d="M41.771,50.776L45.999,50.776L45.999,49.656L43.043,49.656L43.043,48.304L45.936,48.304L45.936,47.184L43.043,47.184L43.043,45.921L45.999,45.921L45.999,44.801L41.771,44.801L41.771,50.776Z" style="fill:rgb(153,0,0);fill-rule:nonzero;"/>
                    </g>
                </g>
            </g>
            <g id="Level">
                <g id="Connector2" serif:id="Connector" transform="matrix(0.211776,0,0,0.0795,-194.934,6.40446)">
                    <path d="M332.002,79.912C346.234,79.912 410.423,79.683 410.191,79.912" style="fill:none;stroke:rgb(153,0,0);stroke-width:1px;"/>
                </g>
                <g id="CV2" serif:id="CV" transform="matrix(0.257997,0,0,0.0983737,-145.266,7.36956)">
                    <rect x="66.681" y="35.639" width="26.661" height="38.18" style="fill:none;"/>
                    <g transform="matrix(0.820847,0,0,0.808143,56.9184,3.09951)">
                        <path id="Label8" serif:id="Label" d="M26.078,49.528C27.104,49.528 27.69,48.963 28.025,48.384L27.174,47.972C26.978,48.356 26.56,48.649 26.078,48.649C25.233,48.649 24.619,48 24.619,47.12C24.619,46.241 25.233,45.592 26.078,45.592C26.56,45.592 26.978,45.892 27.174,46.269L28.025,45.85C27.697,45.271 27.104,44.713 26.078,44.713C24.682,44.713 23.6,45.69 23.6,47.12C23.6,48.551 24.682,49.528 26.078,49.528Z" style="fill:rgb(153,0,0);fill-rule:nonzero;"/>
                        <path d="M29.896,49.445L31.138,49.445L32.932,44.789L31.801,44.789L30.517,48.37L29.226,44.789L28.095,44.789L29.896,49.445Z" style="fill:rgb(153,0,0);fill-rule:nonzero;"/>
                    </g>
                </g>
                <g id="Knob2" serif:id="Knob" transform="matrix(0.132047,0,0,0.0806623,-124.167,2.44288)">
                    <rect x="24.299" y="98.722" width="71.034" height="58.204" style="fill:none;"/>
                    <g transform="matrix(1.60379,0,0,0.98559,8.54239,56.3603)">
                        <path id="Label-Large2" serif:id="Label Large" d="M19.59,50.776L23.388,50.776L23.388,49.656L20.862,49.656L20.862,44.801L19.59,44.801L19.59,50.776Z" style="fill:rgb(153,0,0);fill-rule:nonzero;"/>
                        <path d="M24.275,50.776L28.504,50.776L28.504,49.656L25.547,49.656L25.547,48.304L28.441,48.304L28.441,47.184L25.547,47.184L25.547,45.921L28.504,45.921L28.504,44.801L24.275,44.801L24.275,50.776Z" style="fill:rgb(153,0,0);fill-rule:nonzero;"/>
                        <path d="M31.173,50.776L32.768,50.776L35.07,44.801L33.619,44.801L31.97,49.397L30.313,44.801L28.862,44.801L31.173,50.776Z" style="fill:rgb(153,0,0);fill-rule:nonzero;"/>
                        <path d="M35.625,50.776L39.854,50.776L39.854,49.656L36.898,49.656L36.898,48.304L39.791,48.304L39.791,47.184L36.898,47.184L36.898,45.921L39.854,45.921L39.854,44.801L35.625,44.801L35.625,50.776Z" style="fill:rgb(153,0,0);fill-rule:nonzero;"/>
                        <path d="M40.848,50.776L44.646,50.776L44.646,49.656L42.12,49.656L42.12,44.801L40.848,44.801L40.848,50.776Z" style="fill:rgb(153,0,0);fill-rule:nonzero;"/>
                    </g>
                </g>
                <g id="Switch-21" serif:id="Switch 2" transform="matrix(0.16421,0,0,0.0571875,-114.38,7.48603)">
                    <rect x="21.318" y="61.322" width="34.273" height="61.572" style="fill:none;"/>
                    <g transform="matrix(1.28967,0,0,1.39016,7.06434,48.3137)">
                        <path id="Low" d="M21.531,49.445L24.057,49.445C24.944,49.445 25.411,48.886 25.411,48.188C25.411,47.602 25.013,47.12 24.518,47.044C24.957,46.953 25.32,46.562 25.32,45.976C25.32,45.355 24.867,44.789 23.98,44.789L21.531,44.789L21.531,49.445ZM22.522,46.653L22.522,45.641L23.764,45.641C24.099,45.641 24.308,45.857 24.308,46.15C24.308,46.443 24.099,46.653 23.764,46.653L22.522,46.653ZM22.522,48.586L22.522,47.504L23.799,47.504C24.19,47.504 24.399,47.756 24.399,48.049C24.399,48.384 24.176,48.586 23.799,48.586L22.522,48.586Z" style="fill:rgb(153,0,0);fill-rule:nonzero;"/>
                        <rect x="26.158" y="44.789" width="0.991" height="4.655" style="fill:rgb(153,0,0);fill-rule:nonzero;"/>
                    </g>
                    <g transform="matrix(1.28967,0,0,1.39016,7.06434,4.92067)">
                        <path id="HIGH1" serif:id="HIGH" d="M18.743,47.588C18.743,48.733 19.427,49.528 20.843,49.528C22.26,49.528 22.944,48.74 22.944,47.581L22.944,44.789L21.932,44.789L21.932,47.553C21.932,48.202 21.562,48.649 20.843,48.649C20.124,48.649 19.748,48.202 19.748,47.553L19.748,44.789L18.743,44.789L18.743,47.588Z" style="fill:rgb(153,0,0);fill-rule:nonzero;"/>
                        <path d="M27.069,49.445L28.025,49.445L28.025,44.789L27.034,44.789L27.034,47.714L24.877,44.789L23.858,44.789L23.858,49.445L24.849,49.445L24.849,46.409L27.069,49.445Z" style="fill:rgb(153,0,0);fill-rule:nonzero;"/>
                        <rect x="28.946" y="44.789" width="0.991" height="4.655" style="fill:rgb(153,0,0);fill-rule:nonzero;"/>
                    </g>
                </g>
            </g>
            <g id="Plugin-Labels" serif:id="Plugin Labels">
                <g transform="matrix(0.211776,0,0,0.0795,-123.47,32.4349)">
                    <path id="DHE" d="M22.267,40.151L25.417,40.151C27.921,40.151 29.658,38.57 29.658,36.162C29.658,33.754 27.921,32.161 25.417,32.161L22.267,32.161L22.267,40.151ZM23.968,38.654L23.968,33.659L25.417,33.659C27.058,33.659 27.921,34.749 27.921,36.162C27.921,37.516 26.998,38.654 25.417,38.654L23.968,38.654Z" style="fill:rgb(153,0,0);fill-rule:nonzero;"/>
                    <path d="M36.342,40.151L38.055,40.151L38.055,32.161L36.342,32.161L36.342,35.3L32.569,35.3L32.569,32.161L30.868,32.161L30.868,40.151L32.569,40.151L32.569,36.797L36.342,36.797L36.342,40.151Z" style="fill:rgb(153,0,0);fill-rule:nonzero;"/>
                    <path d="M39.624,40.151L45.279,40.151L45.279,38.654L41.326,38.654L41.326,36.845L45.195,36.845L45.195,35.348L41.326,35.348L41.326,33.659L45.279,33.659L45.279,32.161L39.624,32.161L39.624,40.151Z" style="fill:rgb(153,0,0);fill-rule:nonzero;"/>
                </g>
                <g transform="matrix(0.211776,0,0,0.0795,-130.809,4.32802)">
                    <path id="Plugin" d="M21.692,58.045L26.028,58.045C27.549,58.045 28.352,57.087 28.352,55.889C28.352,54.883 27.669,54.056 26.819,53.924C27.573,53.769 28.196,53.098 28.196,52.091C28.196,51.025 27.418,50.055 25.896,50.055L21.692,50.055L21.692,58.045ZM23.393,53.253L23.393,51.516L25.525,51.516C26.1,51.516 26.459,51.888 26.459,52.391C26.459,52.894 26.1,53.253 25.525,53.253L23.393,53.253ZM23.393,56.572L23.393,54.715L25.585,54.715C26.256,54.715 26.615,55.146 26.615,55.649C26.615,56.224 26.232,56.572 25.585,56.572L23.393,56.572Z" style="fill:rgb(153,0,0);fill-rule:nonzero;"/>
                    <path d="M29.25,54.056C29.25,56.464 31.011,58.189 33.419,58.189C35.839,58.189 37.6,56.464 37.6,54.056C37.6,51.648 35.839,49.923 33.419,49.923C31.011,49.923 29.25,51.648 29.25,54.056ZM35.851,54.056C35.851,55.541 34.893,56.679 33.419,56.679C31.946,56.679 30.999,55.541 30.999,54.056C30.999,52.559 31.946,51.433 33.419,51.433C34.893,51.433 35.851,52.559 35.851,54.056Z" style="fill:rgb(153,0,0);fill-rule:nonzero;"/>
                    <path d="M38.415,54.056C38.415,56.464 40.175,58.189 42.583,58.189C45.003,58.189 46.764,56.464 46.764,54.056C46.764,51.648 45.003,49.923 42.583,49.923C40.175,49.923 38.415,51.648 38.415,54.056ZM45.015,54.056C45.015,55.541 44.057,56.679 42.583,56.679C41.11,56.679 40.164,55.541 40.164,54.056C40.164,52.559 41.11,51.433 42.583,51.433C44.057,51.433 45.015,52.559 45.015,54.056Z" style="fill:rgb(153,0,0);fill-rule:nonzero;"/>
                    <path d="M47.423,56.919C48.166,57.674 49.268,58.189 50.801,58.189C52.957,58.189 53.999,57.087 53.999,55.625C53.999,53.816 52.322,53.421 51.005,53.11C50.142,52.906 49.411,52.738 49.411,52.223C49.411,51.744 49.819,51.421 50.549,51.421C51.364,51.421 52.227,51.696 52.873,52.295L53.82,51.049C53.029,50.319 51.975,49.935 50.705,49.935C48.824,49.935 47.674,51.037 47.674,52.367C47.674,54.188 49.352,54.547 50.657,54.847C51.532,55.062 52.274,55.23 52.274,55.817C52.274,56.272 51.819,56.703 50.885,56.703C49.783,56.703 48.908,56.212 48.345,55.625L47.423,56.919Z" style="fill:rgb(153,0,0);fill-rule:nonzero;"/>
                    <path d="M56.91,58.045L58.623,58.045L58.623,51.552L60.947,51.552L60.947,50.055L54.574,50.055L54.574,51.552L56.91,51.552L56.91,58.045Z" style="fill:rgb(153,0,0);fill-rule:nonzero;"/>
                    <path d="M62.037,58.045L67.692,58.045L67.692,56.548L63.739,56.548L63.739,54.739L67.608,54.739L67.608,53.241L63.739,53.241L63.739,51.552L67.692,51.552L67.692,50.055L62.037,50.055L62.037,58.045Z" style="fill:rgb(153,0,0);fill-rule:nonzero;"/>
                    <path d="M73.537,58.045L75.49,58.045L73.693,55.002C74.556,54.799 75.442,54.044 75.442,52.63C75.442,51.145 74.424,50.055 72.759,50.055L69.021,50.055L69.021,58.045L70.722,58.045L70.722,55.206L71.968,55.206L73.537,58.045ZM73.705,52.63C73.705,53.301 73.19,53.709 72.507,53.709L70.722,53.709L70.722,51.552L72.507,51.552C73.19,51.552 73.705,51.96 73.705,52.63Z" style="fill:rgb(153,0,0);fill-rule:nonzero;"/>
                    <path d="M79.252,56.919C79.994,57.674 81.096,58.189 82.63,58.189C84.786,58.189 85.828,57.087 85.828,55.625C85.828,53.816 84.151,53.421 82.833,53.11C81.971,52.906 81.24,52.738 81.24,52.223C81.24,51.744 81.647,51.421 82.378,51.421C83.193,51.421 84.055,51.696 84.702,52.295L85.648,51.049C84.858,50.319 83.804,49.935 82.534,49.935C80.653,49.935 79.503,51.037 79.503,52.367C79.503,54.188 81.18,54.547 82.486,54.847C83.36,55.062 84.103,55.23 84.103,55.817C84.103,56.272 83.648,56.703 82.714,56.703C81.611,56.703 80.737,56.212 80.174,55.625L79.252,56.919Z" style="fill:rgb(153,0,0);fill-rule:nonzero;"/>
                    <path d="M88.739,58.045L90.452,58.045L90.452,51.552L92.776,51.552L92.776,50.055L86.403,50.055L86.403,51.552L88.739,51.552L88.739,58.045Z" style="fill:rgb(153,0,0);fill-rule:nonzero;"/>
                    <path d="M98.61,58.045L100.55,58.045L97.472,50.055L95.34,50.055L92.249,58.045L94.19,58.045L94.693,56.691L98.119,56.691L98.61,58.045ZM96.406,51.756L97.652,55.194L95.16,55.194L96.406,51.756Z" style="fill:rgb(153,0,0);fill-rule:nonzero;"/>
                    <path d="M100.503,54.056C100.503,56.572 102.419,58.201 104.755,58.201C106.205,58.201 107.343,57.602 108.157,56.691L108.157,53.625L104.348,53.625L104.348,55.11L106.456,55.11L106.456,56.069C106.133,56.368 105.462,56.679 104.755,56.679C103.306,56.679 102.252,55.565 102.252,54.056C102.252,52.547 103.306,51.433 104.755,51.433C105.606,51.433 106.289,51.912 106.648,52.475L108.061,51.708C107.462,50.762 106.42,49.923 104.755,49.923C102.419,49.923 100.503,51.528 100.503,54.056Z" style="fill:rgb(153,0,0);fill-rule:nonzero;"/>
                    <path d="M109.511,58.045L115.165,58.045L115.165,56.548L111.212,56.548L111.212,54.739L115.081,54.739L115.081,53.241L111.212,53.241L111.212,51.552L115.165,51.552L115.165,50.055L109.511,50.055L109.511,58.045Z" style="fill:rgb(153,0,0);fill-rule:nonzero;"/>
                </g>
            </g>
        </g>
    </g>
</svg>
