<?xml version="1.0" encoding="UTF-8" standalone="no"?>
<!DOCTYPE svg PUBLIC "-//W3C//DTD SVG 1.1//EN" "http://www.w3.org/Graphics/SVG/1.1/DTD/svg11.dtd">
<svg width="119px" height="379px" version="1.1" xmlns="http://www.w3.org/2000/svg" xmlns:xlink="http://www.w3.org/1999/xlink" xml:space="preserve" xmlns:serif="http://www.serif.com/" style="fill-rule:evenodd;clip-rule:evenodd;stroke-linecap:round;stroke-linejoin:round;stroke-miterlimit:8;">
    <g id="BOOSTER-STAGE" serif:id="BOOSTER STAGE" transform="matrix(0.866438,0,0,0.998498,20.7741,-741.404)">
        <g id="Background" transform="matrix(1.53281,0,0,1,-23.9764,3.61155e-05)">
            <rect x="0" y="742.52" width="90" height="380" style="fill:white;"/>
        </g>
        <g id="Port-labels" serif:id="Port labels">
            <g transform="matrix(1.15415,0,0,1.0015,61.5874,1006.19)">
                <path id="OUT-port-label" serif:id="OUT port label" d="M17.68,50.669C17.68,52.076 18.709,53.084 20.116,53.084C21.53,53.084 22.559,52.076 22.559,50.669C22.559,49.262 21.53,48.254 20.116,48.254C18.709,48.254 17.68,49.262 17.68,50.669ZM21.537,50.669C21.537,51.537 20.977,52.202 20.116,52.202C19.255,52.202 18.702,51.537 18.702,50.669C18.702,49.794 19.255,49.136 20.116,49.136C20.977,49.136 21.537,49.794 21.537,50.669Z" style="fill-rule:nonzero;"/>
                <path d="M23.259,51.138C23.259,52.286 23.945,53.084 25.366,53.084C26.787,53.084 27.473,52.293 27.473,51.131L27.473,48.331L26.458,48.331L26.458,51.103C26.458,51.754 26.087,52.202 25.366,52.202C24.645,52.202 24.267,51.754 24.267,51.103L24.267,48.331L23.259,48.331L23.259,51.138Z" style="fill-rule:nonzero;"/>
                <path d="M29.468,53L30.469,53L30.469,49.206L31.827,49.206L31.827,48.331L28.103,48.331L28.103,49.206L29.468,49.206L29.468,53Z" style="fill-rule:nonzero;"/>
            </g>
            <g transform="matrix(1.15415,0,0,1.0015,-28.0023,1006.19)">
                <rect id="IN-port-label" serif:id="IN port label" x="21.109" y="48.331" width="0.994" height="4.669" style="fill-rule:nonzero;"/>
                <path d="M26.247,53L27.206,53L27.206,48.331L26.212,48.331L26.212,51.264L24.049,48.331L23.027,48.331L23.027,53L24.021,53L24.021,49.955L26.247,53Z" style="fill-rule:nonzero;"/>
            </g>
            <g transform="matrix(1.15415,0,0,1.0015,60.9549,961.827)">
                <path id="EOC-port-label" serif:id="EOC port label" d="M18.61,53L21.914,53L21.914,52.125L19.604,52.125L19.604,51.068L21.865,51.068L21.865,50.193L19.604,50.193L19.604,49.206L21.914,49.206L21.914,48.331L18.61,48.331L18.61,53Z" style="fill-rule:nonzero;"/>
                <path d="M22.467,50.669C22.467,52.076 23.496,53.084 24.903,53.084C26.317,53.084 27.346,52.076 27.346,50.669C27.346,49.262 26.317,48.254 24.903,48.254C23.496,48.254 22.467,49.262 22.467,50.669ZM26.324,50.669C26.324,51.537 25.764,52.202 24.903,52.202C24.042,52.202 23.489,51.537 23.489,50.669C23.489,49.794 24.042,49.136 24.903,49.136C25.764,49.136 26.324,49.794 26.324,50.669Z" style="fill-rule:nonzero;"/>
                <path d="M30.307,53.084C31.336,53.084 31.924,52.517 32.26,51.936L31.406,51.523C31.21,51.908 30.79,52.202 30.307,52.202C29.46,52.202 28.844,51.551 28.844,50.669C28.844,49.787 29.46,49.136 30.307,49.136C30.79,49.136 31.21,49.437 31.406,49.815L32.26,49.395C31.931,48.814 31.336,48.254 30.307,48.254C28.907,48.254 27.822,49.234 27.822,50.669C27.822,52.104 28.907,53.084 30.307,53.084Z" style="fill-rule:nonzero;"/>
            </g>
            <g transform="matrix(1.15415,0,0,1.0015,-32.1611,961.827)">
                <path id="TRIG-port-label" serif:id="TRIG port label" d="M21.534,53L22.535,53L22.535,49.206L23.893,49.206L23.893,48.331L20.169,48.331L20.169,49.206L21.534,49.206L21.534,53Z" style="fill-rule:nonzero;"/>
                <path d="M27.169,53L28.31,53L27.26,51.222C27.764,51.103 28.282,50.662 28.282,49.836C28.282,48.968 27.687,48.331 26.714,48.331L24.53,48.331L24.53,53L25.524,53L25.524,51.341L26.252,51.341L27.169,53ZM27.267,49.836C27.267,50.228 26.966,50.466 26.567,50.466L25.524,50.466L25.524,49.206L26.567,49.206C26.966,49.206 27.267,49.444 27.267,49.836Z" style="fill-rule:nonzero;"/>
                <rect x="29.031" y="48.331" width="0.994" height="4.669" style="fill-rule:nonzero;"/>
                <path d="M30.725,50.669C30.725,52.139 31.845,53.091 33.21,53.091C34.057,53.091 34.722,52.741 35.198,52.209L35.198,50.417L32.972,50.417L32.972,51.285L34.204,51.285L34.204,51.845C34.015,52.02 33.623,52.202 33.21,52.202C32.363,52.202 31.747,51.551 31.747,50.669C31.747,49.787 32.363,49.136 33.21,49.136C33.707,49.136 34.106,49.416 34.316,49.745L35.142,49.297C34.792,48.744 34.183,48.254 33.21,48.254C31.845,48.254 30.725,49.192 30.725,50.669Z" style="fill-rule:nonzero;"/>
            </g>
            <g transform="matrix(1.15415,0,0,1.0015,55.1943,917.469)">
                <path id="ACTIVE-port-label" serif:id="ACTIVE port label" d="M21.834,53L22.968,53L21.169,48.331L19.923,48.331L18.117,53L19.251,53L19.545,52.209L21.547,52.209L21.834,53ZM20.546,49.325L21.274,51.334L19.818,51.334L20.546,49.325Z" style="fill-rule:nonzero;"/>
                <path d="M25.425,53.084C26.454,53.084 27.042,52.517 27.378,51.936L26.524,51.523C26.328,51.908 25.908,52.202 25.425,52.202C24.578,52.202 23.962,51.551 23.962,50.669C23.962,49.787 24.578,49.136 25.425,49.136C25.908,49.136 26.328,49.437 26.524,49.815L27.378,49.395C27.049,48.814 26.454,48.254 25.425,48.254C24.025,48.254 22.94,49.234 22.94,50.669C22.94,52.104 24.025,53.084 25.425,53.084Z" style="fill-rule:nonzero;"/>
                <path d="M29.051,53L30.052,53L30.052,49.206L31.41,49.206L31.41,48.331L27.686,48.331L27.686,49.206L29.051,49.206L29.051,53Z" style="fill-rule:nonzero;"/>
                <rect x="32.047" y="48.331" width="0.994" height="4.669" style="fill-rule:nonzero;"/>
                <path d="M35.274,53L36.52,53L38.319,48.331L37.185,48.331L35.897,51.922L34.602,48.331L33.468,48.331L35.274,53Z" style="fill-rule:nonzero;"/>
                <path d="M38.753,53L42.057,53L42.057,52.125L39.747,52.125L39.747,51.068L42.008,51.068L42.008,50.193L39.747,50.193L39.747,49.206L42.057,49.206L42.057,48.331L38.753,48.331L38.753,53Z" style="fill-rule:nonzero;"/>
            </g>
            <g transform="matrix(1.15415,0,0,1.0015,-37.7961,917.469)">
                <path id="DEFER-port-label" serif:id="DEFER port label" d="M22.262,53L24.103,53C25.566,53 26.581,52.076 26.581,50.669C26.581,49.262 25.566,48.331 24.103,48.331L22.262,48.331L22.262,53ZM23.256,52.125L23.256,49.206L24.103,49.206C25.062,49.206 25.566,49.843 25.566,50.669C25.566,51.46 25.027,52.125 24.103,52.125L23.256,52.125Z" style="fill-rule:nonzero;"/>
                <path d="M27.288,53L30.592,53L30.592,52.125L28.282,52.125L28.282,51.068L30.543,51.068L30.543,50.193L28.282,50.193L28.282,49.206L30.592,49.206L30.592,48.331L27.288,48.331L27.288,53Z" style="fill-rule:nonzero;"/>
                <path d="M31.369,53L32.363,53L32.363,51.068L34.624,51.068L34.624,50.193L32.363,50.193L32.363,49.206L34.673,49.206L34.673,48.331L31.369,48.331L31.369,53Z" style="fill-rule:nonzero;"/>
                <path d="M35.366,53L38.67,53L38.67,52.125L36.36,52.125L36.36,51.068L38.621,51.068L38.621,50.193L36.36,50.193L36.36,49.206L38.67,49.206L38.67,48.331L35.366,48.331L35.366,53Z" style="fill-rule:nonzero;"/>
                <path d="M42.086,53L43.227,53L42.177,51.222C42.681,51.103 43.199,50.662 43.199,49.836C43.199,48.968 42.604,48.331 41.631,48.331L39.447,48.331L39.447,53L40.441,53L40.441,51.341L41.169,51.341L42.086,53ZM42.184,49.836C42.184,50.228 41.883,50.466 41.484,50.466L40.441,50.466L40.441,49.206L41.484,49.206C41.883,49.206 42.184,49.444 42.184,49.836Z" style="fill-rule:nonzero;"/>
            </g>
        </g>
        <g id="Duration-labels" serif:id="Duration labels">
            <g id="Duration-link" serif:id="Duration link" transform="matrix(1.3083,0,0,1,-33.189,850.989)">
                <path d="M29.882,74.887C47.683,74.887 71.844,74.887 89.646,74.887" style="stroke:black;stroke-width:0.69px;"/>
            </g>
            <g transform="matrix(1.15415,0,0,1.0015,45.013,898.175)">
                <path id="Duration-switch-1-label" serif:id="Duration switch 1 label" d="M39.066,49.444L40.06,49.444L40.06,44.775L39.192,44.775L37.722,46.252L38.289,46.847L39.066,46.056L39.066,49.444Z" style="fill-rule:nonzero;"/>
            </g>
            <g transform="matrix(1.15415,0,0,1.0015,84.369,876.904)">
                <path id="Duration-switch-10-label" serif:id="Duration switch 10 label" d="M14.613,51.222L15.607,51.222L15.607,46.553L14.739,46.553L13.269,48.03L13.836,48.625L14.613,47.834L14.613,51.222Z" style="fill-rule:nonzero;"/>
                <path d="M16.307,48.891C16.307,50.095 16.902,51.306 18.239,51.306C19.569,51.306 20.171,50.095 20.171,48.891C20.171,47.687 19.569,46.483 18.239,46.483C16.902,46.483 16.307,47.687 16.307,48.891ZM19.156,48.891C19.156,49.752 18.904,50.424 18.239,50.424C17.567,50.424 17.315,49.752 17.315,48.891C17.315,48.03 17.567,47.365 18.239,47.365C18.904,47.365 19.156,48.03 19.156,48.891Z" style="fill-rule:nonzero;"/>
            </g>
            <g transform="matrix(1.15415,0,0,1.0015,45.013,855.634)">
                <path id="Duration-switch-100-label" serif:id="Duration switch 100 label" d="M34.726,53L35.72,53L35.72,48.331L34.852,48.331L33.382,49.808L33.949,50.403L34.726,49.612L34.726,53Z" style="fill-rule:nonzero;"/>
                <path d="M36.42,50.669C36.42,51.873 37.015,53.084 38.352,53.084C39.682,53.084 40.284,51.873 40.284,50.669C40.284,49.465 39.682,48.261 38.352,48.261C37.015,48.261 36.42,49.465 36.42,50.669ZM39.269,50.669C39.269,51.53 39.017,52.202 38.352,52.202C37.68,52.202 37.428,51.53 37.428,50.669C37.428,49.808 37.68,49.143 38.352,49.143C39.017,49.143 39.269,49.808 39.269,50.669Z" style="fill-rule:nonzero;"/>
                <path d="M40.76,50.669C40.76,51.873 41.355,53.084 42.692,53.084C44.022,53.084 44.624,51.873 44.624,50.669C44.624,49.465 44.022,48.261 42.692,48.261C41.355,48.261 40.76,49.465 40.76,50.669ZM43.609,50.669C43.609,51.53 43.357,52.202 42.692,52.202C42.02,52.202 41.768,51.53 41.768,50.669C41.768,49.808 42.02,49.143 42.692,49.143C43.357,49.143 43.609,49.808 43.609,50.669Z" style="fill-rule:nonzero;"/>
            </g>
            <g transform="matrix(1.15415,0,0,1.0015,-0.107876,851.021)">
                <path id="DURATION-knob-label" serif:id="DURATION knob label" d="M17.285,53L19.517,53C21.389,53 22.658,51.767 22.658,50.003C22.658,48.239 21.389,46.997 19.517,46.997L17.285,46.997L17.285,53ZM18.338,52.073L18.338,47.924L19.517,47.924C20.858,47.924 21.578,48.842 21.578,50.003C21.578,51.137 20.822,52.073 19.517,52.073L18.338,52.073Z" style="fill-rule:nonzero;"/>
                <path d="M23.675,50.633C23.675,52.109 24.53,53.108 26.276,53.108C28.013,53.108 28.868,52.118 28.868,50.624L28.868,46.997L27.806,46.997L27.806,50.597C27.806,51.551 27.275,52.172 26.276,52.172C25.268,52.172 24.737,51.551 24.737,50.597L24.737,46.997L23.675,46.997L23.675,50.633Z" style="fill-rule:nonzero;"/>
                <path d="M33.575,53L34.79,53L33.323,50.642C34.043,50.525 34.745,49.949 34.745,48.878C34.745,47.771 33.971,46.997 32.783,46.997L30.146,46.997L30.146,53L31.199,53L31.199,50.759L32.243,50.759L33.575,53ZM33.665,48.878C33.665,49.454 33.233,49.832 32.639,49.832L31.199,49.832L31.199,47.924L32.639,47.924C33.233,47.924 33.665,48.302 33.665,48.878Z" style="fill-rule:nonzero;"/>
                <path d="M40.001,53L41.198,53L38.84,46.997L37.526,46.997L35.168,53L36.365,53L36.806,51.848L39.56,51.848L40.001,53ZM38.183,48.059L39.263,50.921L37.103,50.921L38.183,48.059Z" style="fill-rule:nonzero;"/>
                <path d="M42.701,53L43.754,53L43.754,47.924L45.572,47.924L45.572,46.997L40.883,46.997L40.883,47.924L42.701,47.924L42.701,53Z" style="fill-rule:nonzero;"/>
                <rect x="46.463" y="46.997" width="1.053" height="6.003" style="fill-rule:nonzero;"/>
                <path d="M48.524,50.003C48.524,51.794 49.793,53.108 51.593,53.108C53.393,53.108 54.662,51.794 54.662,50.003C54.662,48.212 53.393,46.898 51.593,46.898C49.793,46.898 48.524,48.212 48.524,50.003ZM53.582,50.003C53.582,51.236 52.799,52.172 51.593,52.172C50.378,52.172 49.604,51.236 49.604,50.003C49.604,48.761 50.378,47.834 51.593,47.834C52.799,47.834 53.582,48.761 53.582,50.003Z" style="fill-rule:nonzero;"/>
                <path d="M59.864,53L60.881,53L60.881,46.997L59.828,46.997L59.828,51.164L56.759,46.997L55.679,46.997L55.679,53L56.732,53L56.732,48.716L59.864,53Z" style="fill-rule:nonzero;"/>
            </g>
            <g transform="matrix(1.15415,0,0,1.0015,-45.2288,858.325)">
                <path id="Duration-CV-label" serif:id="Duration CV label" d="M37.022,53.084C38.051,53.084 38.639,52.517 38.975,51.936L38.121,51.523C37.925,51.908 37.505,52.202 37.022,52.202C36.175,52.202 35.559,51.551 35.559,50.669C35.559,49.787 36.175,49.136 37.022,49.136C37.505,49.136 37.925,49.437 38.121,49.815L38.975,49.395C38.646,48.814 38.051,48.254 37.022,48.254C35.622,48.254 34.537,49.234 34.537,50.669C34.537,52.104 35.622,53.084 37.022,53.084Z" style="fill-rule:nonzero;"/>
                <path d="M40.851,53L42.097,53L43.896,48.331L42.762,48.331L41.474,51.922L40.179,48.331L39.045,48.331L40.851,53Z" style="fill-rule:nonzero;"/>
            </g>
        </g>
        <g id="Shape-labels" serif:id="Shape labels">
            <g id="Shape-link" serif:id="Shape link" transform="matrix(1.3083,0,0,1,-33.189,796.363)">
                <path d="M29.882,74.887C47.683,74.887 71.844,74.887 89.646,74.887" style="stroke:black;stroke-width:0.69px;"/>
            </g>
            <g id="J-CURVE" serif:id="J CURVE" transform="matrix(0.0226683,0,0,0.0215455,87.1536,888.74)">
                <path d="M-102.125,75.403L-54.213,73.85L-28.08,72.814L-1.946,71.001L24.188,68.929L50.321,66.081L76.455,62.196L102.589,57.017L128.722,50.024L154.856,40.961L180.989,28.789L207.123,13.251C211.623,10.951 228.957,-3.89 233.257,-6.69C237.757,-9.69 255.09,-28.569 259.39,-32.069C263.89,-35.869 281.224,-59.363 285.524,-63.663C290.024,-68.363 307.358,-96.949 311.658,-102.249C316.158,-107.749 333.491,-141.469 337.791,-147.569L363.925,-199.103" style="fill:none;stroke:black;stroke-width:60.68px;stroke-miterlimit:4;"/>
            </g>
            <g id="SIGMOID" transform="matrix(0.0200924,0,0,0.0190972,87.4908,856.089)">
                <path d="M-132,93L-107.8,92.4L-94.6,92L-81.4,91.3L-68.2,90.5L-55,89.4L-41.8,87.9L-28.6,85.9L-15.4,83.2L-2.2,79.7L11,75L24.2,69C28.7,66.7 33.1,64.1 37.4,61.3C41.9,58.3 46.3,55 50.6,51.5C55.1,47.7 59.5,43.6 63.8,39.3C68.3,34.6 72.7,29.7 77,24.4C81.5,18.9 85.9,13 90.2,6.9L103.4,-13L116.6,-34.9L129.8,-58L138.6,-73.5L151.8,-96.3L165,-117.6L178.2,-136.8C182.5,-142.6 186.9,-148.2 191.4,-153.4C195.7,-158.4 200.1,-163 204.6,-167.4C208.9,-171.5 213.3,-175.3 217.8,-178.7C222.1,-182.1 226.5,-185.1 231,-187.8C235.3,-190.5 239.8,-192.8 244.2,-195L257.4,-200.5L270.6,-204.7L283.8,-207.9L297,-210.3L310.2,-212.2L323.4,-213.5L336.6,-214.6L349.8,-215.3L363,-215.9L374,-216.2L393.8,-216.7" style="fill:none;stroke:black;stroke-width:68.46px;stroke-linejoin:miter;stroke-miterlimit:4;"/>
            </g>
            <g transform="matrix(1.15415,0,0,1.0015,-0.107876,796.313)">
                <path id="SHAPE-knob-label" serif:id="SHAPE knob label" d="M25.048,52.154C25.579,52.721 26.38,53.108 27.487,53.108C29.107,53.108 29.809,52.253 29.809,51.254C29.809,49.949 28.63,49.643 27.64,49.391C26.929,49.211 26.317,49.058 26.317,48.59C26.317,48.14 26.713,47.843 27.334,47.843C27.964,47.843 28.603,48.059 29.071,48.527L29.674,47.744C29.116,47.204 28.36,46.907 27.424,46.907C26.11,46.907 25.237,47.672 25.237,48.662C25.237,49.931 26.389,50.219 27.37,50.462C28.099,50.651 28.738,50.813 28.738,51.353C28.738,51.749 28.396,52.172 27.532,52.172C26.695,52.172 26.047,51.785 25.633,51.344L25.048,52.154Z" style="fill-rule:nonzero;"/>
                <path d="M34.957,53L36.01,53L36.01,46.997L34.957,46.997L34.957,49.454L31.834,49.454L31.834,46.997L30.781,46.997L30.781,53L31.834,53L31.834,50.381L34.957,50.381L34.957,53Z" style="fill-rule:nonzero;"/>
                <path d="M41.491,53L42.688,53L40.33,46.997L39.016,46.997L36.658,53L37.855,53L38.296,51.848L41.05,51.848L41.491,53ZM39.673,48.059L40.753,50.921L38.593,50.921L39.673,48.059Z" style="fill-rule:nonzero;"/>
                <path d="M43.345,53L44.398,53L44.398,50.759L45.982,50.759C47.233,50.759 47.944,49.895 47.944,48.878C47.944,47.861 47.242,46.997 45.982,46.997L43.345,46.997L43.345,53ZM46.864,48.878C46.864,49.454 46.432,49.832 45.838,49.832L44.398,49.832L44.398,47.924L45.838,47.924C46.432,47.924 46.864,48.302 46.864,48.878Z" style="fill-rule:nonzero;"/>
                <path d="M48.817,53L52.93,53L52.93,52.073L49.87,52.073L49.87,50.408L52.867,50.408L52.867,49.481L49.87,49.481L49.87,47.924L52.93,47.924L52.93,46.997L48.817,46.997L48.817,53Z" style="fill-rule:nonzero;"/>
            </g>
            <g transform="matrix(1.15415,0,0,1.0015,-45.2288,803.617)">
                <path id="Shape-CV-label" serif:id="Shape CV label" d="M37.022,53.084C38.051,53.084 38.639,52.517 38.975,51.936L38.121,51.523C37.925,51.908 37.505,52.202 37.022,52.202C36.175,52.202 35.559,51.551 35.559,50.669C35.559,49.787 36.175,49.136 37.022,49.136C37.505,49.136 37.925,49.437 38.121,49.815L38.975,49.395C38.646,48.814 38.051,48.254 37.022,48.254C35.622,48.254 34.537,49.234 34.537,50.669C34.537,52.104 35.622,53.084 37.022,53.084Z" style="fill-rule:nonzero;"/>
                <path d="M40.851,53L42.097,53L43.896,48.331L42.762,48.331L41.474,51.922L40.179,48.331L39.045,48.331L40.851,53Z" style="fill-rule:nonzero;"/>
            </g>
        </g>
        <g id="Level-labels" serif:id="Level labels" transform="matrix(1,0,0,1,-59.7638,0)">
            <g id="level-link" serif:id="level link" transform="matrix(1.3083,0,0,1,26.5748,741.737)">
                <path d="M29.882,74.887C47.683,74.887 71.844,74.887 89.646,74.887" style="stroke:black;stroke-width:0.69px;"/>
            </g>
            <g transform="matrix(1.15415,0,0,1.0015,104.777,784.899)">
                <path id="Level-switch-BI-label" serif:id="Level switch BI label" d="M36.266,49.444L38.8,49.444C39.689,49.444 40.158,48.884 40.158,48.184C40.158,47.596 39.759,47.113 39.262,47.036C39.703,46.945 40.067,46.553 40.067,45.965C40.067,45.342 39.612,44.775 38.723,44.775L36.266,44.775L36.266,49.444ZM37.26,46.644L37.26,45.629L38.506,45.629C38.842,45.629 39.052,45.846 39.052,46.14C39.052,46.434 38.842,46.644 38.506,46.644L37.26,46.644ZM37.26,48.583L37.26,47.498L38.541,47.498C38.933,47.498 39.143,47.75 39.143,48.044C39.143,48.38 38.919,48.583 38.541,48.583L37.26,48.583Z" style="fill-rule:nonzero;"/>
                <rect x="40.907" y="44.775" width="0.994" height="4.669" style="fill-rule:nonzero;"/>
            </g>
            <g transform="matrix(1.15415,0,0,1.0015,104.777,750.077)">
                <path id="Level-switch-UNI-label" serif:id="Level switch UNI label" d="M33.469,51.138C33.469,52.286 34.155,53.084 35.576,53.084C36.997,53.084 37.683,52.293 37.683,51.131L37.683,48.331L36.668,48.331L36.668,51.103C36.668,51.754 36.297,52.202 35.576,52.202C34.855,52.202 34.477,51.754 34.477,51.103L34.477,48.331L33.469,48.331L33.469,51.138Z" style="fill-rule:nonzero;"/>
                <path d="M41.82,53L42.779,53L42.779,48.331L41.785,48.331L41.785,51.264L39.622,48.331L38.6,48.331L38.6,53L39.594,53L39.594,49.955L41.82,53Z" style="fill-rule:nonzero;"/>
                <rect x="43.703" y="48.331" width="0.994" height="4.669" style="fill-rule:nonzero;"/>
            </g>
            <g transform="matrix(1.15415,0,0,1.0015,14.535,748.909)">
                <path id="Level-CV-label" serif:id="Level CV label" d="M37.022,53.084C38.051,53.084 38.639,52.517 38.975,51.936L38.121,51.523C37.925,51.908 37.505,52.202 37.022,52.202C36.175,52.202 35.559,51.551 35.559,50.669C35.559,49.787 36.175,49.136 37.022,49.136C37.505,49.136 37.925,49.437 38.121,49.815L38.975,49.395C38.646,48.814 38.051,48.254 37.022,48.254C35.622,48.254 34.537,49.234 34.537,50.669C34.537,52.104 35.622,53.084 37.022,53.084Z" style="fill-rule:nonzero;"/>
                <path d="M40.851,53L42.097,53L43.896,48.331L42.762,48.331L41.474,51.922L40.179,48.331L39.045,48.331L40.851,53Z" style="fill-rule:nonzero;"/>
            </g>
            <g transform="matrix(1.15415,0,0,1.0015,59.6559,741.604)">
                <path id="LEVEL-knob-label" serif:id="LEVEL knob label" d="M26.848,53L30.547,53L30.547,52.073L27.901,52.073L27.901,46.997L26.848,46.997L26.848,53Z" style="fill-rule:nonzero;"/>
                <path d="M31.501,53L35.614,53L35.614,52.073L32.554,52.073L32.554,50.408L35.551,50.408L35.551,49.481L32.554,49.481L32.554,47.924L35.614,47.924L35.614,46.997L31.501,46.997L31.501,53Z" style="fill-rule:nonzero;"/>
                <path d="M38.422,53L39.736,53L42.094,46.997L40.897,46.997L39.079,51.857L37.261,46.997L36.064,46.997L38.422,53Z" style="fill-rule:nonzero;"/>
                <path d="M42.751,53L46.864,53L46.864,52.073L43.804,52.073L43.804,50.408L46.801,50.408L46.801,49.481L43.804,49.481L43.804,47.924L46.864,47.924L46.864,46.997L42.751,46.997L42.751,53Z" style="fill-rule:nonzero;"/>
                <path d="M47.944,53L51.643,53L51.643,52.073L48.997,52.073L48.997,46.997L47.944,46.997L47.944,53Z" style="fill-rule:nonzero;"/>
            </g>
        </g>
        <g id="TITLES">
            <g transform="matrix(1.15415,0,0,1.0015,6.16647,1059.43)">
                <path id="AUTHOR-NAME" serif:id="AUTHOR NAME" d="M22.267,45.104L25.417,45.104C27.921,45.104 29.658,43.523 29.658,41.115C29.658,38.708 27.921,37.114 25.417,37.114L22.267,37.114L22.267,45.104ZM23.968,43.607L23.968,38.612L25.417,38.612C27.058,38.612 27.921,39.702 27.921,41.115C27.921,42.469 26.998,43.607 25.417,43.607L23.968,43.607Z" style="fill-rule:nonzero;"/>
                <path d="M36.342,45.104L38.055,45.104L38.055,37.114L36.342,37.114L36.342,40.253L32.569,40.253L32.569,37.114L30.868,37.114L30.868,45.104L32.569,45.104L32.569,41.75L36.342,41.75L36.342,45.104Z" style="fill-rule:nonzero;"/>
                <path d="M39.624,45.104L45.279,45.104L45.279,43.607L41.326,43.607L41.326,41.798L45.195,41.798L45.195,40.301L41.326,40.301L41.326,38.612L45.279,38.612L45.279,37.114L39.624,37.114L39.624,45.104Z" style="fill-rule:nonzero;"/>
            </g>
            <g transform="matrix(1.15415,0,0,1.0015,-33.8314,728.231)">
                <path id="PLUGIN-NAME" serif:id="PLUGIN NAME" d="M21.692,40.151L26.028,40.151C27.549,40.151 28.352,39.193 28.352,37.995C28.352,36.989 27.669,36.162 26.819,36.03C27.573,35.875 28.196,35.204 28.196,34.198C28.196,33.132 27.418,32.161 25.896,32.161L21.692,32.161L21.692,40.151ZM23.393,35.36L23.393,33.623L25.525,33.623C26.1,33.623 26.459,33.994 26.459,34.497C26.459,35 26.1,35.36 25.525,35.36L23.393,35.36ZM23.393,38.678L23.393,36.821L25.585,36.821C26.256,36.821 26.615,37.252 26.615,37.755C26.615,38.33 26.232,38.678 25.585,38.678L23.393,38.678Z" style="fill-rule:nonzero;"/>
                <path d="M29.25,36.162C29.25,38.57 31.011,40.295 33.419,40.295C35.839,40.295 37.6,38.57 37.6,36.162C37.6,33.754 35.839,32.029 33.419,32.029C31.011,32.029 29.25,33.754 29.25,36.162ZM35.851,36.162C35.851,37.648 34.893,38.786 33.419,38.786C31.946,38.786 30.999,37.648 30.999,36.162C30.999,34.665 31.946,33.539 33.419,33.539C34.893,33.539 35.851,34.665 35.851,36.162Z" style="fill-rule:nonzero;"/>
                <path d="M38.415,36.162C38.415,38.57 40.175,40.295 42.583,40.295C45.003,40.295 46.764,38.57 46.764,36.162C46.764,33.754 45.003,32.029 42.583,32.029C40.175,32.029 38.415,33.754 38.415,36.162ZM45.015,36.162C45.015,37.648 44.057,38.786 42.583,38.786C41.11,38.786 40.164,37.648 40.164,36.162C40.164,34.665 41.11,33.539 42.583,33.539C44.057,33.539 45.015,34.665 45.015,36.162Z" style="fill-rule:nonzero;"/>
                <path d="M47.423,39.025C48.166,39.78 49.268,40.295 50.801,40.295C52.957,40.295 53.999,39.193 53.999,37.732C53.999,35.923 52.322,35.527 51.005,35.216C50.142,35.012 49.411,34.845 49.411,34.329C49.411,33.85 49.819,33.527 50.549,33.527C51.364,33.527 52.227,33.802 52.873,34.401L53.82,33.155C53.029,32.425 51.975,32.041 50.705,32.041C48.824,32.041 47.674,33.144 47.674,34.473C47.674,36.294 49.352,36.653 50.657,36.953C51.532,37.169 52.274,37.336 52.274,37.923C52.274,38.378 51.819,38.81 50.885,38.81C49.783,38.81 48.908,38.319 48.345,37.732L47.423,39.025Z" style="fill-rule:nonzero;"/>
                <path d="M56.91,40.151L58.623,40.151L58.623,33.659L60.947,33.659L60.947,32.161L54.574,32.161L54.574,33.659L56.91,33.659L56.91,40.151Z" style="fill-rule:nonzero;"/>
                <path d="M62.037,40.151L67.692,40.151L67.692,38.654L63.739,38.654L63.739,36.845L67.608,36.845L67.608,35.348L63.739,35.348L63.739,33.659L67.692,33.659L67.692,32.161L62.037,32.161L62.037,40.151Z" style="fill-rule:nonzero;"/>
                <path d="M73.537,40.151L75.49,40.151L73.693,37.109C74.556,36.905 75.442,36.15 75.442,34.737C75.442,33.251 74.424,32.161 72.759,32.161L69.021,32.161L69.021,40.151L70.722,40.151L70.722,37.312L71.968,37.312L73.537,40.151ZM73.705,34.737C73.705,35.408 73.19,35.815 72.507,35.815L70.722,35.815L70.722,33.659L72.507,33.659C73.19,33.659 73.705,34.066 73.705,34.737Z" style="fill-rule:nonzero;"/>
                <path d="M79.252,39.025C79.994,39.78 81.096,40.295 82.63,40.295C84.786,40.295 85.828,39.193 85.828,37.732C85.828,35.923 84.151,35.527 82.833,35.216C81.971,35.012 81.24,34.845 81.24,34.329C81.24,33.85 81.647,33.527 82.378,33.527C83.193,33.527 84.055,33.802 84.702,34.401L85.648,33.155C84.858,32.425 83.804,32.041 82.534,32.041C80.653,32.041 79.503,33.144 79.503,34.473C79.503,36.294 81.18,36.653 82.486,36.953C83.36,37.169 84.103,37.336 84.103,37.923C84.103,38.378 83.648,38.81 82.714,38.81C81.611,38.81 80.737,38.319 80.174,37.732L79.252,39.025Z" style="fill-rule:nonzero;"/>
                <path d="M88.739,40.151L90.452,40.151L90.452,33.659L92.776,33.659L92.776,32.161L86.403,32.161L86.403,33.659L88.739,33.659L88.739,40.151Z" style="fill-rule:nonzero;"/>
                <path d="M98.61,40.151L100.55,40.151L97.472,32.161L95.34,32.161L92.249,40.151L94.19,40.151L94.693,38.798L98.119,38.798L98.61,40.151ZM96.406,33.862L97.652,37.3L95.16,37.3L96.406,33.862Z" style="fill-rule:nonzero;"/>
                <path d="M100.503,36.162C100.503,38.678 102.419,40.307 104.755,40.307C106.205,40.307 107.343,39.708 108.157,38.798L108.157,35.731L104.348,35.731L104.348,37.216L106.456,37.216L106.456,38.175C106.133,38.474 105.462,38.786 104.755,38.786C103.306,38.786 102.252,37.672 102.252,36.162C102.252,34.653 103.306,33.539 104.755,33.539C105.606,33.539 106.289,34.018 106.648,34.581L108.061,33.814C107.462,32.868 106.42,32.029 104.755,32.029C102.419,32.029 100.503,33.635 100.503,36.162Z" style="fill-rule:nonzero;"/>
                <path d="M109.511,40.151L115.165,40.151L115.165,38.654L111.212,38.654L111.212,36.845L115.081,36.845L115.081,35.348L111.212,35.348L111.212,33.659L115.165,33.659L115.165,32.161L109.511,32.161L109.511,40.151Z" style="fill-rule:nonzero;"/>
            </g>
        </g>
    </g>
</svg>
