<?xml version="1.0" encoding="UTF-8" standalone="no"?>
<!DOCTYPE svg PUBLIC "-//W3C//DTD SVG 1.1//EN" "http://www.w3.org/Graphics/SVG/1.1/DTD/svg11.dtd">
<svg width="119px" height="379px" version="1.1" xmlns="http://www.w3.org/2000/svg" xmlns:xlink="http://www.w3.org/1999/xlink" xml:space="preserve" xmlns:serif="http://www.serif.com/" style="fill-rule:evenodd;clip-rule:evenodd;stroke-linecap:round;stroke-linejoin:round;stroke-miterlimit:8;">
    <g id="Layer-1" serif:id="Layer 1" transform="matrix(1,0,0,1,14.7638,-742.805)">
        <g id="Background" transform="matrix(1.33333,0,0,1,-15,3.61155e-05)">
            <rect x="0" y="742.52" width="90" height="380" style="fill:white;"/>
        </g>
        <g id="LABEL-OUT" serif:id="LABEL OUT">
            <g transform="matrix(1,0,0,1,53.4104,1005.74)">
                <path id="LABEL-OUT-Stage" serif:id="LABEL OUT Stage" d="M23.642,50.682C23.642,52.089 24.671,53.097 26.078,53.097C27.492,53.097 28.521,52.089 28.521,50.682C28.521,49.275 27.492,48.267 26.078,48.267C24.671,48.267 23.642,49.275 23.642,50.682ZM27.499,50.682C27.499,51.55 26.939,52.215 26.078,52.215C25.217,52.215 24.664,51.55 24.664,50.682C24.664,49.807 25.217,49.149 26.078,49.149C26.939,49.149 27.499,49.807 27.499,50.682Z" style="fill-rule:nonzero;"/>
                <path d="M29.221,51.151C29.221,52.299 29.907,53.097 31.328,53.097C32.749,53.097 33.435,52.306 33.435,51.144L33.435,48.344L32.42,48.344L32.42,51.116C32.42,51.767 32.049,52.215 31.328,52.215C30.607,52.215 30.229,51.767 30.229,51.116L30.229,48.344L29.221,48.344L29.221,51.151Z" style="fill-rule:nonzero;"/>
                <path d="M35.43,53.013L36.431,53.013L36.431,49.219L37.789,49.219L37.789,48.344L34.065,48.344L34.065,49.219L35.43,49.219L35.43,53.013Z" style="fill-rule:nonzero;"/>
            </g>
            <g transform="matrix(1,0,0,1,41.0202,961.446)">
                <path id="LABEL-OUT-EOC" serif:id="LABEL OUT EOC" d="M36.414,53.013L39.718,53.013L39.718,52.138L37.408,52.138L37.408,51.081L39.669,51.081L39.669,50.206L37.408,50.206L37.408,49.219L39.718,49.219L39.718,48.344L36.414,48.344L36.414,53.013Z" style="fill-rule:nonzero;"/>
                <path d="M40.271,50.682C40.271,52.089 41.3,53.097 42.707,53.097C44.121,53.097 45.15,52.089 45.15,50.682C45.15,49.275 44.121,48.267 42.707,48.267C41.3,48.267 40.271,49.275 40.271,50.682ZM44.128,50.682C44.128,51.55 43.568,52.215 42.707,52.215C41.846,52.215 41.293,51.55 41.293,50.682C41.293,49.807 41.846,49.149 42.707,49.149C43.568,49.149 44.128,49.807 44.128,50.682Z" style="fill-rule:nonzero;"/>
                <path d="M48.111,53.097C49.14,53.097 49.728,52.53 50.064,51.949L49.21,51.536C49.014,51.921 48.594,52.215 48.111,52.215C47.264,52.215 46.648,51.564 46.648,50.682C46.648,49.8 47.264,49.149 48.111,49.149C48.594,49.149 49.014,49.45 49.21,49.828L50.064,49.408C49.735,48.827 49.14,48.267 48.111,48.267C46.711,48.267 45.626,49.247 45.626,50.682C45.626,52.117 46.711,53.097 48.111,53.097Z" style="fill-rule:nonzero;"/>
            </g>
            <g transform="matrix(1,0,0,1,41.0202,917.155)">
                <path id="LABEL-OUT-Active" serif:id="LABEL OUT Active" d="M34.646,53.013L35.78,53.013L33.981,48.344L32.735,48.344L30.929,53.013L32.063,53.013L32.357,52.222L34.359,52.222L34.646,53.013ZM33.358,49.338L34.086,51.347L32.63,51.347L33.358,49.338Z" style="fill-rule:nonzero;"/>
                <path d="M38.237,53.097C39.266,53.097 39.854,52.53 40.19,51.949L39.336,51.536C39.14,51.921 38.72,52.215 38.237,52.215C37.39,52.215 36.774,51.564 36.774,50.682C36.774,49.8 37.39,49.149 38.237,49.149C38.72,49.149 39.14,49.45 39.336,49.828L40.19,49.408C39.861,48.827 39.266,48.267 38.237,48.267C36.837,48.267 35.752,49.247 35.752,50.682C35.752,52.117 36.837,53.097 38.237,53.097Z" style="fill-rule:nonzero;"/>
                <path d="M41.863,53.013L42.864,53.013L42.864,49.219L44.222,49.219L44.222,48.344L40.498,48.344L40.498,49.219L41.863,49.219L41.863,53.013Z" style="fill-rule:nonzero;"/>
                <rect x="44.859" y="48.344" width="0.994" height="4.669" style="fill-rule:nonzero;"/>
                <path d="M48.086,53.013L49.332,53.013L51.131,48.344L49.997,48.344L48.709,51.935L47.414,48.344L46.28,48.344L48.086,53.013Z" style="fill-rule:nonzero;"/>
                <path d="M51.565,53.013L54.869,53.013L54.869,52.138L52.559,52.138L52.559,51.081L54.82,51.081L54.82,50.206L52.559,50.206L52.559,49.219L54.869,49.219L54.869,48.344L51.565,48.344L51.565,53.013Z" style="fill-rule:nonzero;"/>
            </g>
        </g>
        <g id="LABEL-IN" serif:id="LABEL IN">
            <g transform="matrix(1,0,0,1,-19.9422,1005.74)">
                <rect id="LABEL-IN-Stage" serif:id="LABEL IN Stage" x="22.799" y="48.344" width="0.994" height="4.669" style="fill-rule:nonzero;"/>
                <path d="M27.937,53.013L28.896,53.013L28.896,48.344L27.902,48.344L27.902,51.277L25.739,48.344L24.717,48.344L24.717,53.013L25.711,53.013L25.711,49.968L27.937,53.013Z" style="fill-rule:nonzero;"/>
            </g>
            <g transform="matrix(1,0,0,1,-37.1688,961.446)">
                <path id="LABEL-IN-Trig" serif:id="LABEL IN Trig" d="M36.848,53.013L37.849,53.013L37.849,49.219L39.207,49.219L39.207,48.344L35.483,48.344L35.483,49.219L36.848,49.219L36.848,53.013Z" style="fill-rule:nonzero;"/>
                <path d="M42.483,53.013L43.624,53.013L42.574,51.235C43.078,51.116 43.596,50.675 43.596,49.849C43.596,48.981 43.001,48.344 42.028,48.344L39.844,48.344L39.844,53.013L40.838,53.013L40.838,51.354L41.566,51.354L42.483,53.013ZM42.581,49.849C42.581,50.241 42.28,50.479 41.881,50.479L40.838,50.479L40.838,49.219L41.881,49.219C42.28,49.219 42.581,49.457 42.581,49.849Z" style="fill-rule:nonzero;"/>
                <rect x="44.345" y="48.344" width="0.994" height="4.669" style="fill-rule:nonzero;"/>
                <path d="M46.039,50.682C46.039,52.152 47.159,53.104 48.524,53.104C49.371,53.104 50.036,52.754 50.512,52.222L50.512,50.43L48.286,50.43L48.286,51.298L49.518,51.298L49.518,51.858C49.329,52.033 48.937,52.215 48.524,52.215C47.677,52.215 47.061,51.564 47.061,50.682C47.061,49.8 47.677,49.149 48.524,49.149C49.021,49.149 49.42,49.429 49.63,49.758L50.456,49.31C50.106,48.757 49.497,48.267 48.524,48.267C47.159,48.267 46.039,49.205 46.039,50.682Z" style="fill-rule:nonzero;"/>
            </g>
            <g transform="matrix(1,0,0,1,-37.1688,917.155)">
                <path id="LABEL-IN-Defer" serif:id="LABEL IN Defer" d="M32.693,53.013L34.534,53.013C35.997,53.013 37.012,52.089 37.012,50.682C37.012,49.275 35.997,48.344 34.534,48.344L32.693,48.344L32.693,53.013ZM33.687,52.138L33.687,49.219L34.534,49.219C35.493,49.219 35.997,49.856 35.997,50.682C35.997,51.473 35.458,52.138 34.534,52.138L33.687,52.138Z" style="fill-rule:nonzero;"/>
                <path d="M37.719,53.013L41.023,53.013L41.023,52.138L38.713,52.138L38.713,51.081L40.974,51.081L40.974,50.206L38.713,50.206L38.713,49.219L41.023,49.219L41.023,48.344L37.719,48.344L37.719,53.013Z" style="fill-rule:nonzero;"/>
                <path d="M41.8,53.013L42.794,53.013L42.794,51.081L45.055,51.081L45.055,50.206L42.794,50.206L42.794,49.219L45.104,49.219L45.104,48.344L41.8,48.344L41.8,53.013Z" style="fill-rule:nonzero;"/>
                <path d="M45.797,53.013L49.101,53.013L49.101,52.138L46.791,52.138L46.791,51.081L49.052,51.081L49.052,50.206L46.791,50.206L46.791,49.219L49.101,49.219L49.101,48.344L45.797,48.344L45.797,53.013Z" style="fill-rule:nonzero;"/>
                <path d="M52.517,53.013L53.658,53.013L52.608,51.235C53.112,51.116 53.63,50.675 53.63,49.849C53.63,48.981 53.035,48.344 52.062,48.344L49.878,48.344L49.878,53.013L50.872,53.013L50.872,51.354L51.6,51.354L52.517,53.013ZM52.615,49.849C52.615,50.241 52.314,50.479 51.915,50.479L50.872,50.479L50.872,49.219L51.915,49.219C52.314,49.219 52.615,49.457 52.615,49.849Z" style="fill-rule:nonzero;"/>
            </g>
        </g>
        <g id="Links">
            <g id="LINK-Duration" serif:id="LINK Duration" transform="matrix(1.3083,0,0,1,-33.189,850.989)">
                <path d="M29.882,74.887C47.683,74.887 71.844,74.887 89.646,74.887" style="stroke:black;stroke-width:0.63px;"/>
            </g>
            <g id="LINK-Shape" serif:id="LINK Shape" transform="matrix(1.3083,0,0,1,-33.189,796.363)">
                <path d="M29.882,74.887C47.683,74.887 71.844,74.887 89.646,74.887" style="stroke:black;stroke-width:0.63px;"/>
            </g>
            <g id="LINK-Level" serif:id="LINK Level" transform="matrix(1.3083,0,0,1,-33.189,741.737)">
                <path d="M29.882,74.887C47.683,74.887 71.844,74.887 89.646,74.887" style="stroke:black;stroke-width:0.63px;"/>
            </g>
        </g>
        <g id="CV" transform="matrix(1,0,0,1,-59.7638,0)">
            <g transform="matrix(1,0,0,1,22.595,852.194)">
                <path id="LABEL-CV-Duration" serif:id="LABEL CV Duration" d="M41.013,53.097C42.042,53.097 42.63,52.53 42.966,51.949L42.112,51.536C41.916,51.921 41.496,52.215 41.013,52.215C40.166,52.215 39.55,51.564 39.55,50.682C39.55,49.8 40.166,49.149 41.013,49.149C41.496,49.149 41.916,49.45 42.112,49.828L42.966,49.408C42.637,48.827 42.042,48.267 41.013,48.267C39.613,48.267 38.528,49.247 38.528,50.682C38.528,52.117 39.613,53.097 41.013,53.097Z" style="fill-rule:nonzero;"/>
                <path d="M44.842,53.013L46.088,53.013L47.887,48.344L46.753,48.344L45.465,51.935L44.17,48.344L43.036,48.344L44.842,53.013Z" style="fill-rule:nonzero;"/>
            </g>
            <g transform="matrix(1,0,0,1,22.595,797.568)">
                <path id="LABEL-CV-Shape" serif:id="LABEL CV Shape" d="M41.013,53.097C42.042,53.097 42.63,52.53 42.966,51.949L42.112,51.536C41.916,51.921 41.496,52.215 41.013,52.215C40.166,52.215 39.55,51.564 39.55,50.682C39.55,49.8 40.166,49.149 41.013,49.149C41.496,49.149 41.916,49.45 42.112,49.828L42.966,49.408C42.637,48.827 42.042,48.267 41.013,48.267C39.613,48.267 38.528,49.247 38.528,50.682C38.528,52.117 39.613,53.097 41.013,53.097Z" style="fill-rule:nonzero;"/>
                <path d="M44.842,53.013L46.088,53.013L47.887,48.344L46.753,48.344L45.465,51.935L44.17,48.344L43.036,48.344L44.842,53.013Z" style="fill-rule:nonzero;"/>
            </g>
            <g transform="matrix(1,0,0,1,22.595,742.805)">
                <path id="LABEL-CV-Level" serif:id="LABEL CV Level" d="M41.013,53.097C42.042,53.097 42.63,52.53 42.966,51.949L42.112,51.536C41.916,51.921 41.496,52.215 41.013,52.215C40.166,52.215 39.55,51.564 39.55,50.682C39.55,49.8 40.166,49.149 41.013,49.149C41.496,49.149 41.916,49.45 42.112,49.828L42.966,49.408C42.637,48.827 42.042,48.267 41.013,48.267C39.613,48.267 38.528,49.247 38.528,50.682C38.528,52.117 39.613,53.097 41.013,53.097Z" style="fill-rule:nonzero;"/>
                <path d="M44.842,53.013L46.088,53.013L47.887,48.344L46.753,48.344L45.465,51.935L44.17,48.344L43.036,48.344L44.842,53.013Z" style="fill-rule:nonzero;"/>
            </g>
        </g>
        <g id="Knob-Labels" serif:id="Knob Labels">
            <g transform="matrix(1,0,0,1,1.92573,852.194)">
                <path id="LABEL-Duration" serif:id="LABEL Duration" d="M21.276,53.013L23.508,53.013C25.38,53.013 26.649,51.78 26.649,50.016C26.649,48.252 25.38,47.01 23.508,47.01L21.276,47.01L21.276,53.013ZM22.329,52.086L22.329,47.937L23.508,47.937C24.849,47.937 25.569,48.855 25.569,50.016C25.569,51.15 24.813,52.086 23.508,52.086L22.329,52.086Z" style="fill-rule:nonzero;"/>
                <path d="M27.666,50.646C27.666,52.122 28.521,53.121 30.267,53.121C32.004,53.121 32.859,52.131 32.859,50.637L32.859,47.01L31.797,47.01L31.797,50.61C31.797,51.564 31.266,52.185 30.267,52.185C29.259,52.185 28.728,51.564 28.728,50.61L28.728,47.01L27.666,47.01L27.666,50.646Z" style="fill-rule:nonzero;"/>
                <path d="M37.566,53.013L38.781,53.013L37.314,50.655C38.034,50.538 38.736,49.962 38.736,48.891C38.736,47.784 37.962,47.01 36.774,47.01L34.137,47.01L34.137,53.013L35.19,53.013L35.19,50.772L36.234,50.772L37.566,53.013ZM37.656,48.891C37.656,49.467 37.224,49.845 36.63,49.845L35.19,49.845L35.19,47.937L36.63,47.937C37.224,47.937 37.656,48.315 37.656,48.891Z" style="fill-rule:nonzero;"/>
                <path d="M43.992,53.013L45.189,53.013L42.831,47.01L41.517,47.01L39.159,53.013L40.356,53.013L40.797,51.861L43.551,51.861L43.992,53.013ZM42.174,48.072L43.254,50.934L41.094,50.934L42.174,48.072Z" style="fill-rule:nonzero;"/>
                <path d="M46.692,53.013L47.745,53.013L47.745,47.937L49.563,47.937L49.563,47.01L44.874,47.01L44.874,47.937L46.692,47.937L46.692,53.013Z" style="fill-rule:nonzero;"/>
                <rect x="50.454" y="47.01" width="1.053" height="6.003" style="fill-rule:nonzero;"/>
                <path d="M52.515,50.016C52.515,51.807 53.784,53.121 55.584,53.121C57.384,53.121 58.653,51.807 58.653,50.016C58.653,48.225 57.384,46.911 55.584,46.911C53.784,46.911 52.515,48.225 52.515,50.016ZM57.573,50.016C57.573,51.249 56.79,52.185 55.584,52.185C54.369,52.185 53.595,51.249 53.595,50.016C53.595,48.774 54.369,47.847 55.584,47.847C56.79,47.847 57.573,48.774 57.573,50.016Z" style="fill-rule:nonzero;"/>
                <path d="M63.855,53.013L64.872,53.013L64.872,47.01L63.819,47.01L63.819,51.177L60.75,47.01L59.67,47.01L59.67,53.013L60.723,53.013L60.723,48.729L63.855,53.013Z" style="fill-rule:nonzero;"/>
            </g>
            <g transform="matrix(1,0,0,1,1.92573,797.568)">
                <path id="LABEL-Shape" serif:id="LABEL Shape" d="M29.039,52.167C29.57,52.734 30.371,53.121 31.478,53.121C33.098,53.121 33.8,52.266 33.8,51.267C33.8,49.962 32.621,49.656 31.631,49.404C30.92,49.224 30.308,49.071 30.308,48.603C30.308,48.153 30.704,47.856 31.325,47.856C31.955,47.856 32.594,48.072 33.062,48.54L33.665,47.757C33.107,47.217 32.351,46.92 31.415,46.92C30.101,46.92 29.228,47.685 29.228,48.675C29.228,49.944 30.38,50.232 31.361,50.475C32.09,50.664 32.729,50.826 32.729,51.366C32.729,51.762 32.387,52.185 31.523,52.185C30.686,52.185 30.038,51.798 29.624,51.357L29.039,52.167Z" style="fill-rule:nonzero;"/>
                <path d="M38.948,53.013L40.001,53.013L40.001,47.01L38.948,47.01L38.948,49.467L35.825,49.467L35.825,47.01L34.772,47.01L34.772,53.013L35.825,53.013L35.825,50.394L38.948,50.394L38.948,53.013Z" style="fill-rule:nonzero;"/>
                <path d="M45.482,53.013L46.679,53.013L44.321,47.01L43.007,47.01L40.649,53.013L41.846,53.013L42.287,51.861L45.041,51.861L45.482,53.013ZM43.664,48.072L44.744,50.934L42.584,50.934L43.664,48.072Z" style="fill-rule:nonzero;"/>
                <path d="M47.336,53.013L48.389,53.013L48.389,50.772L49.973,50.772C51.224,50.772 51.935,49.908 51.935,48.891C51.935,47.874 51.233,47.01 49.973,47.01L47.336,47.01L47.336,53.013ZM50.855,48.891C50.855,49.467 50.423,49.845 49.829,49.845L48.389,49.845L48.389,47.937L49.829,47.937C50.423,47.937 50.855,48.315 50.855,48.891Z" style="fill-rule:nonzero;"/>
                <path d="M52.808,53.013L56.921,53.013L56.921,52.086L53.861,52.086L53.861,50.421L56.858,50.421L56.858,49.494L53.861,49.494L53.861,47.937L56.921,47.937L56.921,47.01L52.808,47.01L52.808,53.013Z" style="fill-rule:nonzero;"/>
            </g>
            <g transform="matrix(1,0,0,1,1.92573,742.942)">
                <path id="LABEL-Level" serif:id="LABEL Level" d="M30.839,53.013L34.538,53.013L34.538,52.086L31.892,52.086L31.892,47.01L30.839,47.01L30.839,53.013Z" style="fill-rule:nonzero;"/>
                <path d="M35.492,53.013L39.605,53.013L39.605,52.086L36.545,52.086L36.545,50.421L39.542,50.421L39.542,49.494L36.545,49.494L36.545,47.937L39.605,47.937L39.605,47.01L35.492,47.01L35.492,53.013Z" style="fill-rule:nonzero;"/>
                <path d="M42.413,53.013L43.727,53.013L46.085,47.01L44.888,47.01L43.07,51.87L41.252,47.01L40.055,47.01L42.413,53.013Z" style="fill-rule:nonzero;"/>
                <path d="M46.742,53.013L50.855,53.013L50.855,52.086L47.795,52.086L47.795,50.421L50.792,50.421L50.792,49.494L47.795,49.494L47.795,47.937L50.855,47.937L50.855,47.01L46.742,47.01L46.742,53.013Z" style="fill-rule:nonzero;"/>
                <path d="M51.935,53.013L55.634,53.013L55.634,52.086L52.988,52.086L52.988,47.01L51.935,47.01L51.935,53.013Z" style="fill-rule:nonzero;"/>
            </g>
        </g>
        <g id="Titles">
            <g transform="matrix(1,0,0,1,8.72988,1059.39)">
                <path id="DHE" d="M24.89,45.124L28.04,45.124C30.544,45.124 32.281,43.543 32.281,41.135C32.281,38.727 30.544,37.134 28.04,37.134L24.89,37.134L24.89,45.124ZM26.591,43.627L26.591,38.631L28.04,38.631C29.682,38.631 30.544,39.721 30.544,41.135C30.544,42.489 29.622,43.627 28.04,43.627L26.591,43.627Z" style="fill-rule:nonzero;"/>
                <path d="M38.965,45.124L40.678,45.124L40.678,37.134L38.965,37.134L38.965,40.272L35.192,40.272L35.192,37.134L33.491,37.134L33.491,45.124L35.192,45.124L35.192,41.77L38.965,41.77L38.965,45.124Z" style="fill-rule:nonzero;"/>
                <path d="M42.248,45.124L47.902,45.124L47.902,43.627L43.949,43.627L43.949,41.818L47.818,41.818L47.818,40.32L43.949,40.32L43.949,38.631L47.902,38.631L47.902,37.134L42.248,37.134L42.248,45.124Z" style="fill-rule:nonzero;"/>
            </g>
            <g transform="matrix(1,0,0,1,-22.3008,728.36)">
                <path id="Title" d="M20.69,40.151L25.026,40.151C26.548,40.151 27.35,39.193 27.35,37.995C27.35,36.989 26.667,36.162 25.817,36.03C26.572,35.875 27.195,35.204 27.195,34.198C27.195,33.132 26.416,32.161 24.895,32.161L20.69,32.161L20.69,40.151ZM22.391,35.36L22.391,33.623L24.523,33.623C25.098,33.623 25.458,33.994 25.458,34.497C25.458,35 25.098,35.36 24.523,35.36L22.391,35.36ZM22.391,38.678L22.391,36.821L24.583,36.821C25.254,36.821 25.613,37.252 25.613,37.755C25.613,38.33 25.23,38.678 24.583,38.678L22.391,38.678Z" style="fill-rule:nonzero;"/>
                <path d="M28.249,36.162C28.249,38.57 30.01,40.295 32.417,40.295C34.837,40.295 36.598,38.57 36.598,36.162C36.598,33.754 34.837,32.029 32.417,32.029C30.01,32.029 28.249,33.754 28.249,36.162ZM34.849,36.162C34.849,37.648 33.891,38.786 32.417,38.786C30.944,38.786 29.998,37.648 29.998,36.162C29.998,34.665 30.944,33.539 32.417,33.539C33.891,33.539 34.849,34.665 34.849,36.162Z" style="fill-rule:nonzero;"/>
                <path d="M37.413,36.162C37.413,38.57 39.174,40.295 41.581,40.295C44.001,40.295 45.762,38.57 45.762,36.162C45.762,33.754 44.001,32.029 41.581,32.029C39.174,32.029 37.413,33.754 37.413,36.162ZM44.013,36.162C44.013,37.648 43.055,38.786 41.581,38.786C40.108,38.786 39.162,37.648 39.162,36.162C39.162,34.665 40.108,33.539 41.581,33.539C43.055,33.539 44.013,34.665 44.013,36.162Z" style="fill-rule:nonzero;"/>
                <path d="M46.421,39.025C47.164,39.78 48.266,40.295 49.799,40.295C51.955,40.295 52.998,39.193 52.998,37.732C52.998,35.923 51.321,35.527 50.003,35.216C49.14,35.012 48.41,34.845 48.41,34.329C48.41,33.85 48.817,33.527 49.548,33.527C50.362,33.527 51.225,33.802 51.872,34.401L52.818,33.155C52.027,32.425 50.973,32.041 49.703,32.041C47.823,32.041 46.673,33.144 46.673,34.473C46.673,36.294 48.35,36.653 49.655,36.953C50.53,37.169 51.273,37.336 51.273,37.923C51.273,38.378 50.817,38.81 49.883,38.81C48.781,38.81 47.906,38.319 47.343,37.732L46.421,39.025Z" style="fill-rule:nonzero;"/>
                <path d="M55.909,40.151L57.622,40.151L57.622,33.659L59.946,33.659L59.946,32.161L53.573,32.161L53.573,33.659L55.909,33.659L55.909,40.151Z" style="fill-rule:nonzero;"/>
                <path d="M61.036,40.151L66.69,40.151L66.69,38.654L62.737,38.654L62.737,36.845L66.606,36.845L66.606,35.348L62.737,35.348L62.737,33.659L66.69,33.659L66.69,32.161L61.036,32.161L61.036,40.151Z" style="fill-rule:nonzero;"/>
                <path d="M72.536,40.151L74.488,40.151L72.691,37.109C73.554,36.905 74.44,36.15 74.44,34.737C74.44,33.251 73.422,32.161 71.757,32.161L68.02,32.161L68.02,40.151L69.721,40.151L69.721,37.312L70.966,37.312L72.536,40.151ZM72.703,34.737C72.703,35.408 72.188,35.815 71.505,35.815L69.721,35.815L69.721,33.659L71.505,33.659C72.188,33.659 72.703,34.066 72.703,34.737Z" style="fill-rule:nonzero;"/>
                <path d="M78.25,39.025C78.992,39.78 80.095,40.295 81.628,40.295C83.784,40.295 84.826,39.193 84.826,37.732C84.826,35.923 83.149,35.527 81.831,35.216C80.969,35.012 80.238,34.845 80.238,34.329C80.238,33.85 80.646,33.527 81.376,33.527C82.191,33.527 83.053,33.802 83.7,34.401L84.647,33.155C83.856,32.425 82.802,32.041 81.532,32.041C79.651,32.041 78.501,33.144 78.501,34.473C78.501,36.294 80.178,36.653 81.484,36.953C82.359,37.169 83.101,37.336 83.101,37.923C83.101,38.378 82.646,38.81 81.712,38.81C80.61,38.81 79.735,38.319 79.172,37.732L78.25,39.025Z" style="fill-rule:nonzero;"/>
                <path d="M87.737,40.151L89.45,40.151L89.45,33.659L91.774,33.659L91.774,32.161L85.401,32.161L85.401,33.659L87.737,33.659L87.737,40.151Z" style="fill-rule:nonzero;"/>
                <path d="M97.608,40.151L99.549,40.151L96.47,32.161L94.338,32.161L91.247,40.151L93.188,40.151L93.691,38.798L97.117,38.798L97.608,40.151ZM95.404,33.862L96.65,37.3L94.158,37.3L95.404,33.862Z" style="fill-rule:nonzero;"/>
                <path d="M99.501,36.162C99.501,38.678 101.417,40.307 103.753,40.307C105.203,40.307 106.341,39.708 107.155,38.798L107.155,35.731L103.346,35.731L103.346,37.216L105.454,37.216L105.454,38.175C105.131,38.474 104.46,38.786 103.753,38.786C102.304,38.786 101.25,37.672 101.25,36.162C101.25,34.653 102.304,33.539 103.753,33.539C104.604,33.539 105.287,34.018 105.646,34.581L107.06,33.814C106.461,32.868 105.418,32.029 103.753,32.029C101.417,32.029 99.501,33.635 99.501,36.162Z" style="fill-rule:nonzero;"/>
                <path d="M108.509,40.151L114.163,40.151L114.163,38.654L110.21,38.654L110.21,36.845L114.079,36.845L114.079,35.348L110.21,35.348L110.21,33.659L114.163,33.659L114.163,32.161L108.509,32.161L108.509,40.151Z" style="fill-rule:nonzero;"/>
            </g>
        </g>
    </g>
</svg>
