<?xml version="1.0" encoding="UTF-8" standalone="no"?>
<!DOCTYPE svg PUBLIC "-//W3C//DTD SVG 1.1//EN" "http://www.w3.org/Graphics/SVG/1.1/DTD/svg11.dtd">
<svg width="120px" height="380px" version="1.1" xmlns="http://www.w3.org/2000/svg" xmlns:xlink="http://www.w3.org/1999/xlink" xml:space="preserve" xmlns:serif="http://www.serif.com/" style="fill-rule:evenodd;clip-rule:evenodd;stroke-linecap:round;stroke-linejoin:round;stroke-miterlimit:1.5;">
    <g transform="matrix(1,0,0,1,-311,-6)">
        <g id="Booster-Stage" serif:id="Booster Stage" transform="matrix(4.72196,0,0,12.5786,920.47,-80.5084)">
            <rect x="-129.001" y="6.885" width="25.326" height="30.165" style="fill:none;"/>
            <clipPath id="_clip1">
                <rect x="-129.001" y="6.885" width="25.326" height="30.165"/>
            </clipPath>
            <g clip-path="url(#_clip1)">
                <g id="Background" transform="matrix(0.513173,0,0,0.353117,-305.17,-3.72088)">
                    <rect x="343.442" y="30.035" width="49.327" height="85.424" style="fill:rgb(255,230,230);"/>
                    <path d="M392.768,115.458L343.442,115.458L343.442,30.035L392.768,30.035L392.768,115.458ZM343.746,30.201L343.746,115.292L392.464,115.292L392.464,30.201L343.746,30.201Z" style="fill:rgb(153,0,0);"/>
                </g>
                <g id="OUT" transform="matrix(0.257997,0,0,0.0983737,-128.708,27.7923)">
                    <rect x="66.681" y="35.639" width="26.661" height="38.18" style="fill:none;"/>
                    <g id="Border" transform="matrix(0.912684,0,0,0.585831,40.2966,-0.655943)">
                        <path d="M56.502,68.089C56.502,65.89 55.338,64.105 53.904,64.105L33.125,64.105C31.691,64.105 30.527,65.89 30.527,68.089L30.527,110.479C30.527,112.678 31.691,114.463 33.125,114.463L53.904,114.463C55.338,114.463 56.502,112.678 56.502,110.479L56.502,68.089Z" style="fill:rgb(153,0,0);stroke:rgb(153,0,0);stroke-width:1.07px;"/>
                    </g>
                    <g transform="matrix(0.820847,0,0,0.808143,56.9184,3.09951)">
                        <path id="Label" d="M21.091,47.114C21.091,48.521 22.12,49.529 23.527,49.529C24.941,49.529 25.97,48.521 25.97,47.114C25.97,45.707 24.941,44.699 23.527,44.699C22.12,44.699 21.091,45.707 21.091,47.114ZM24.948,47.114C24.948,47.982 24.388,48.647 23.527,48.647C22.666,48.647 22.113,47.982 22.113,47.114C22.113,46.239 22.666,45.581 23.527,45.581C24.388,45.581 24.948,46.239 24.948,47.114Z" style="fill:rgb(255,230,230);fill-rule:nonzero;"/>
                        <path d="M26.67,47.583C26.67,48.731 27.356,49.529 28.777,49.529C30.198,49.529 30.884,48.738 30.884,47.576L30.884,44.776L29.869,44.776L29.869,47.548C29.869,48.199 29.498,48.647 28.777,48.647C28.056,48.647 27.678,48.199 27.678,47.548L27.678,44.776L26.67,44.776L26.67,47.583Z" style="fill:rgb(255,230,230);fill-rule:nonzero;"/>
                        <path d="M32.879,49.445L33.88,49.445L33.88,45.651L35.238,45.651L35.238,44.776L31.514,44.776L31.514,45.651L32.879,45.651L32.879,49.445Z" style="fill:rgb(255,230,230);fill-rule:nonzero;"/>
                    </g>
                </g>
                <g id="IN" transform="matrix(0.257997,0,0,0.0983737,-145.266,27.7923)">
                    <rect x="66.681" y="35.639" width="26.661" height="38.18" style="fill:none;"/>
                    <g id="Border1" serif:id="Border" transform="matrix(0.912684,0,0,0.585831,40.2966,-0.655943)">
                        <path d="M56.502,68.089C56.502,65.89 55.338,64.105 53.904,64.105L33.125,64.105C31.691,64.105 30.527,65.89 30.527,68.089L30.527,110.479C30.527,112.678 31.691,114.463 33.125,114.463L53.904,114.463C55.338,114.463 56.502,112.678 56.502,110.479L56.502,68.089Z" style="fill:none;stroke:rgb(153,0,0);stroke-width:1.07px;"/>
                    </g>
                    <g transform="matrix(0.820847,0,0,0.808143,56.9184,3.09951)">
                        <rect id="Label1" serif:id="Label" x="25.085" y="44.776" width="0.994" height="4.669" style="fill:rgb(153,0,0);fill-rule:nonzero;"/>
                        <path d="M30.223,49.445L31.182,49.445L31.182,44.776L30.188,44.776L30.188,47.709L28.025,44.776L27.003,44.776L27.003,49.445L27.997,49.445L27.997,46.4L30.223,49.445Z" style="fill:rgb(153,0,0);fill-rule:nonzero;"/>
                    </g>
                </g>
                <g id="EOC" transform="matrix(0.457796,0,0,0.503825,-129.322,-15.658)">
                    <rect x="27.993" y="86.224" width="36.88" height="7.429" style="fill:none;"/>
                    <g id="Border2" serif:id="Border" transform="matrix(0.616089,0,0,0.105825,7.63489,77.9785)">
                        <path d="M73.819,85.559C73.819,82.555 72.591,80.116 71.078,80.116L37.173,80.116C35.66,80.116 34.432,82.555 34.432,85.559L34.432,129.104C34.432,132.108 35.66,134.547 37.173,134.547L71.078,134.547C72.591,134.547 73.819,132.108 73.819,129.104L73.819,85.559Z" style="fill:rgb(153,0,0);stroke:rgb(153,0,0);stroke-width:0.95px;"/>
                    </g>
                    <g id="Button" transform="matrix(0.122405,0,0,0.0417494,-525.678,35.1526)">
                        <path d="M4543.47,1300.62C4537.06,1318.26 4546.17,1337.79 4563.79,1344.21C4581.45,1350.62 4600.97,1341.53 4607.39,1323.88C4613.81,1306.23 4604.72,1286.72 4587.06,1280.29C4569.42,1273.88 4549.92,1282.96 4543.47,1300.62" style="fill:rgb(255,230,230);fill-rule:nonzero;"/>
                    </g>
                    <g transform="matrix(0.4626,0,0,0.157793,33.4187,79.8573)">
                        <path id="Label2" serif:id="Label" d="M21.473,49.445L24.777,49.445L24.777,48.57L22.467,48.57L22.467,47.513L24.728,47.513L24.728,46.638L22.467,46.638L22.467,45.651L24.777,45.651L24.777,44.776L21.473,44.776L21.473,49.445Z" style="fill:rgb(255,230,230);fill-rule:nonzero;"/>
                        <path d="M25.33,47.114C25.33,48.521 26.359,49.529 27.766,49.529C29.18,49.529 30.209,48.521 30.209,47.114C30.209,45.707 29.18,44.699 27.766,44.699C26.359,44.699 25.33,45.707 25.33,47.114ZM29.187,47.114C29.187,47.982 28.627,48.647 27.766,48.647C26.905,48.647 26.352,47.982 26.352,47.114C26.352,46.239 26.905,45.581 27.766,45.581C28.627,45.581 29.187,46.239 29.187,47.114Z" style="fill:rgb(255,230,230);fill-rule:nonzero;"/>
                        <path d="M33.17,49.529C34.199,49.529 34.787,48.962 35.123,48.381L34.269,47.968C34.073,48.353 33.653,48.647 33.17,48.647C32.323,48.647 31.707,47.996 31.707,47.114C31.707,46.232 32.323,45.581 33.17,45.581C33.653,45.581 34.073,45.882 34.269,46.26L35.123,45.84C34.794,45.259 34.199,44.699 33.17,44.699C31.77,44.699 30.685,45.679 30.685,47.114C30.685,48.549 31.77,49.529 33.17,49.529Z" style="fill:rgb(255,230,230);fill-rule:nonzero;"/>
                    </g>
                </g>
                <g id="TRIG" transform="matrix(0.457796,0,0,0.503825,-145.88,-15.658)">
                    <rect x="27.993" y="86.224" width="36.88" height="7.429" style="fill:none;"/>
                    <g id="Border3" serif:id="Border" transform="matrix(0.616089,0,0,0.105825,18.5391,77.9785)">
                        <path d="M73.819,85.559C73.819,82.555 72.591,80.116 71.078,80.116L37.173,80.116C35.66,80.116 34.432,82.555 34.432,85.559L34.432,129.104C34.432,132.108 35.66,134.547 37.173,134.547L71.078,134.547C72.591,134.547 73.819,132.108 73.819,129.104L73.819,85.559Z" style="fill:none;stroke:rgb(153,0,0);stroke-width:0.95px;"/>
                    </g>
                    <g id="Button1" serif:id="Button" transform="matrix(0.122405,0,0,0.0417494,-501.564,35.1526)">
                        <path d="M4543.47,1300.62C4537.06,1318.26 4546.17,1337.79 4563.79,1344.21C4581.45,1350.62 4600.97,1341.53 4607.39,1323.88C4613.81,1306.23 4604.72,1286.72 4587.06,1280.29C4569.42,1273.88 4549.92,1282.96 4543.47,1300.62" style="fill:rgb(153,0,0);fill-rule:nonzero;"/>
                    </g>
                    <g transform="matrix(0.4626,0,0,0.157793,33.4187,79.8573)">
                        <path id="Label3" serif:id="Label" d="M21.907,49.445L22.908,49.445L22.908,45.651L24.266,45.651L24.266,44.776L20.542,44.776L20.542,45.651L21.907,45.651L21.907,49.445Z" style="fill:rgb(153,0,0);fill-rule:nonzero;"/>
                        <path d="M27.542,49.445L28.683,49.445L27.633,47.667C28.137,47.548 28.655,47.107 28.655,46.281C28.655,45.413 28.06,44.776 27.087,44.776L24.903,44.776L24.903,49.445L25.897,49.445L25.897,47.786L26.625,47.786L27.542,49.445ZM27.64,46.281C27.64,46.673 27.339,46.911 26.94,46.911L25.897,46.911L25.897,45.651L26.94,45.651C27.339,45.651 27.64,45.889 27.64,46.281Z" style="fill:rgb(153,0,0);fill-rule:nonzero;"/>
                        <rect x="29.404" y="44.776" width="0.994" height="4.669" style="fill:rgb(153,0,0);fill-rule:nonzero;"/>
                        <path d="M31.098,47.114C31.098,48.584 32.218,49.536 33.583,49.536C34.43,49.536 35.095,49.186 35.571,48.654L35.571,46.862L33.345,46.862L33.345,47.73L34.577,47.73L34.577,48.29C34.388,48.465 33.996,48.647 33.583,48.647C32.736,48.647 32.12,47.996 32.12,47.114C32.12,46.232 32.736,45.581 33.583,45.581C34.08,45.581 34.479,45.861 34.689,46.19L35.515,45.742C35.165,45.189 34.556,44.699 33.583,44.699C32.218,44.699 31.098,45.637 31.098,47.114Z" style="fill:rgb(153,0,0);fill-rule:nonzero;"/>
                    </g>
                </g>
                <g id="ACTIVE" transform="matrix(0.457796,0,0,0.503825,-129.322,-19.1792)">
                    <rect x="27.993" y="86.224" width="36.88" height="7.429" style="fill:none;"/>
                    <g id="Border4" serif:id="Border" transform="matrix(0.616089,0,0,0.105825,7.63489,77.9785)">
                        <path d="M73.819,85.559C73.819,82.555 72.591,80.116 71.078,80.116L37.173,80.116C35.66,80.116 34.432,82.555 34.432,85.559L34.432,129.104C34.432,132.108 35.66,134.547 37.173,134.547L71.078,134.547C72.591,134.547 73.819,132.108 73.819,129.104L73.819,85.559Z" style="fill:rgb(153,0,0);stroke:rgb(153,0,0);stroke-width:0.95px;"/>
                    </g>
                    <g id="Button2" serif:id="Button" transform="matrix(0.122405,0,0,0.0417494,-525.678,35.1526)">
                        <path d="M4543.47,1300.62C4537.06,1318.26 4546.17,1337.79 4563.79,1344.21C4581.45,1350.62 4600.97,1341.53 4607.39,1323.88C4613.81,1306.23 4604.72,1286.72 4587.06,1280.29C4569.42,1273.88 4549.92,1282.96 4543.47,1300.62" style="fill:rgb(255,230,230);fill-rule:nonzero;"/>
                    </g>
                    <g transform="matrix(0.4626,0,0,0.157793,33.4187,79.8573)">
                        <path id="Label4" serif:id="Label" d="M19.705,49.445L20.839,49.445L19.04,44.776L17.794,44.776L15.988,49.445L17.122,49.445L17.416,48.654L19.418,48.654L19.705,49.445ZM18.417,45.77L19.145,47.779L17.689,47.779L18.417,45.77Z" style="fill:rgb(255,230,230);fill-rule:nonzero;"/>
                        <path d="M23.296,49.529C24.325,49.529 24.913,48.962 25.249,48.381L24.395,47.968C24.199,48.353 23.779,48.647 23.296,48.647C22.449,48.647 21.833,47.996 21.833,47.114C21.833,46.232 22.449,45.581 23.296,45.581C23.779,45.581 24.199,45.882 24.395,46.26L25.249,45.84C24.92,45.259 24.325,44.699 23.296,44.699C21.896,44.699 20.811,45.679 20.811,47.114C20.811,48.549 21.896,49.529 23.296,49.529Z" style="fill:rgb(255,230,230);fill-rule:nonzero;"/>
                        <path d="M26.922,49.445L27.923,49.445L27.923,45.651L29.281,45.651L29.281,44.776L25.557,44.776L25.557,45.651L26.922,45.651L26.922,49.445Z" style="fill:rgb(255,230,230);fill-rule:nonzero;"/>
                        <rect x="29.918" y="44.776" width="0.994" height="4.669" style="fill:rgb(255,230,230);fill-rule:nonzero;"/>
                        <path d="M33.145,49.445L34.391,49.445L36.19,44.776L35.056,44.776L33.768,48.367L32.473,44.776L31.339,44.776L33.145,49.445Z" style="fill:rgb(255,230,230);fill-rule:nonzero;"/>
                        <path d="M36.624,49.445L39.928,49.445L39.928,48.57L37.618,48.57L37.618,47.513L39.879,47.513L39.879,46.638L37.618,46.638L37.618,45.651L39.928,45.651L39.928,44.776L36.624,44.776L36.624,49.445Z" style="fill:rgb(255,230,230);fill-rule:nonzero;"/>
                    </g>
                </g>
                <g id="DEFER" transform="matrix(0.457796,0,0,0.503825,-145.88,-19.1792)">
                    <rect x="27.993" y="86.224" width="36.88" height="7.429" style="fill:none;"/>
                    <g id="Border5" serif:id="Border" transform="matrix(0.616089,0,0,0.105825,18.5391,77.9785)">
                        <path d="M73.819,85.559C73.819,82.555 72.591,80.116 71.078,80.116L37.173,80.116C35.66,80.116 34.432,82.555 34.432,85.559L34.432,129.104C34.432,132.108 35.66,134.547 37.173,134.547L71.078,134.547C72.591,134.547 73.819,132.108 73.819,129.104L73.819,85.559Z" style="fill:none;stroke:rgb(153,0,0);stroke-width:0.95px;"/>
                    </g>
                    <g id="Button3" serif:id="Button" transform="matrix(0.122405,0,0,0.0417494,-501.564,35.1526)">
                        <path d="M4543.47,1300.62C4537.06,1318.26 4546.17,1337.79 4563.79,1344.21C4581.45,1350.62 4600.97,1341.53 4607.39,1323.88C4613.81,1306.23 4604.72,1286.72 4587.06,1280.29C4569.42,1273.88 4549.92,1282.96 4543.47,1300.62" style="fill:rgb(153,0,0);fill-rule:nonzero;"/>
                    </g>
                    <g transform="matrix(0.4626,0,0,0.157793,33.4187,79.8573)">
                        <path id="Label5" serif:id="Label" d="M17.752,49.445L19.593,49.445C21.056,49.445 22.071,48.521 22.071,47.114C22.071,45.707 21.056,44.776 19.593,44.776L17.752,44.776L17.752,49.445ZM18.746,48.57L18.746,45.651L19.593,45.651C20.552,45.651 21.056,46.288 21.056,47.114C21.056,47.905 20.517,48.57 19.593,48.57L18.746,48.57Z" style="fill:rgb(153,0,0);fill-rule:nonzero;"/>
                        <path d="M22.778,49.445L26.082,49.445L26.082,48.57L23.772,48.57L23.772,47.513L26.033,47.513L26.033,46.638L23.772,46.638L23.772,45.651L26.082,45.651L26.082,44.776L22.778,44.776L22.778,49.445Z" style="fill:rgb(153,0,0);fill-rule:nonzero;"/>
                        <path d="M26.859,49.445L27.853,49.445L27.853,47.513L30.114,47.513L30.114,46.638L27.853,46.638L27.853,45.651L30.163,45.651L30.163,44.776L26.859,44.776L26.859,49.445Z" style="fill:rgb(153,0,0);fill-rule:nonzero;"/>
                        <path d="M30.856,49.445L34.16,49.445L34.16,48.57L31.85,48.57L31.85,47.513L34.111,47.513L34.111,46.638L31.85,46.638L31.85,45.651L34.16,45.651L34.16,44.776L30.856,44.776L30.856,49.445Z" style="fill:rgb(153,0,0);fill-rule:nonzero;"/>
                        <path d="M37.576,49.445L38.717,49.445L37.667,47.667C38.171,47.548 38.689,47.107 38.689,46.281C38.689,45.413 38.094,44.776 37.121,44.776L34.937,44.776L34.937,49.445L35.931,49.445L35.931,47.786L36.659,47.786L37.576,49.445ZM37.674,46.281C37.674,46.673 37.373,46.911 36.974,46.911L35.931,46.911L35.931,45.651L36.974,45.651C37.373,45.651 37.674,45.889 37.674,46.281Z" style="fill:rgb(153,0,0);fill-rule:nonzero;"/>
                    </g>
                </g>
                <g id="Duration">
                    <g id="Connector" transform="matrix(0.211776,0,0,0.0795,-194.934,15.09)">
                        <path d="M332.002,79.912C346.234,79.912 410.423,79.683 410.191,79.912" style="fill:none;stroke:rgb(153,0,0);stroke-width:1px;"/>
                    </g>
                    <g id="Switch" transform="matrix(0.364201,0,0,0.0853659,-119.77,14.2192)">
                        <rect x="18.404" y="62.576" width="27.472" height="43.998" style="fill:none;"/>
                        <g transform="matrix(0.581482,0,0,0.931286,17.9869,58.825)">
                            <path id="LOW" d="M24.322,49.445L25.316,49.445L25.316,44.776L24.448,44.776L22.978,46.253L23.545,46.848L24.322,46.057L24.322,49.445Z" style="fill:rgb(153,0,0);fill-rule:nonzero;"/>
                        </g>
                        <g transform="matrix(0.581482,0,0,0.931286,29.2404,40.7019)">
                            <path id="MID" d="M14.613,49.444L15.607,49.444L15.607,44.775L14.739,44.775L13.269,46.252L13.836,46.847L14.613,46.056L14.613,49.444Z" style="fill:rgb(153,0,0);fill-rule:nonzero;"/>
                            <path d="M16.307,47.113C16.307,48.317 16.902,49.528 18.239,49.528C19.569,49.528 20.171,48.317 20.171,47.113C20.171,45.909 19.569,44.705 18.239,44.705C16.902,44.705 16.307,45.909 16.307,47.113ZM19.156,47.113C19.156,47.974 18.904,48.646 18.239,48.646C17.567,48.646 17.315,47.974 17.315,47.113C17.315,46.252 17.567,45.587 18.239,45.587C18.904,45.587 19.156,46.252 19.156,47.113Z" style="fill:rgb(153,0,0);fill-rule:nonzero;"/>
                        </g>
                        <g transform="matrix(0.581482,0,0,0.931286,17.9869,22.5784)">
                            <path id="HIGH" d="M19.982,49.445L20.976,49.445L20.976,44.776L20.108,44.776L18.638,46.253L19.205,46.848L19.982,46.057L19.982,49.445Z" style="fill:rgb(153,0,0);fill-rule:nonzero;"/>
                            <path d="M21.676,47.114C21.676,48.318 22.271,49.529 23.608,49.529C24.938,49.529 25.54,48.318 25.54,47.114C25.54,45.91 24.938,44.706 23.608,44.706C22.271,44.706 21.676,45.91 21.676,47.114ZM24.525,47.114C24.525,47.975 24.273,48.647 23.608,48.647C22.936,48.647 22.684,47.975 22.684,47.114C22.684,46.253 22.936,45.588 23.608,45.588C24.273,45.588 24.525,46.253 24.525,47.114Z" style="fill:rgb(153,0,0);fill-rule:nonzero;"/>
                            <path d="M26.016,47.114C26.016,48.318 26.611,49.529 27.948,49.529C29.278,49.529 29.88,48.318 29.88,47.114C29.88,45.91 29.278,44.706 27.948,44.706C26.611,44.706 26.016,45.91 26.016,47.114ZM28.865,47.114C28.865,47.975 28.613,48.647 27.948,48.647C27.276,48.647 27.024,47.975 27.024,47.114C27.024,46.253 27.276,45.588 27.948,45.588C28.613,45.588 28.865,46.253 28.865,47.114Z" style="fill:rgb(153,0,0);fill-rule:nonzero;"/>
                        </g>
                    </g>
                    <g id="CV" transform="matrix(0.257997,0,0,0.0983737,-145.266,16.0551)">
                        <rect x="66.681" y="35.639" width="26.661" height="38.18" style="fill:none;"/>
                        <g transform="matrix(0.820847,0,0,0.808143,56.9184,3.09951)">
                            <path id="Label6" serif:id="Label" d="M26.072,49.529C27.101,49.529 27.689,48.962 28.025,48.381L27.171,47.968C26.975,48.353 26.555,48.647 26.072,48.647C25.225,48.647 24.609,47.996 24.609,47.114C24.609,46.232 25.225,45.581 26.072,45.581C26.555,45.581 26.975,45.882 27.171,46.26L28.025,45.84C27.696,45.259 27.101,44.699 26.072,44.699C24.672,44.699 23.587,45.679 23.587,47.114C23.587,48.549 24.672,49.529 26.072,49.529Z" style="fill:rgb(153,0,0);fill-rule:nonzero;"/>
                            <path d="M29.901,49.445L31.147,49.445L32.946,44.776L31.812,44.776L30.524,48.367L29.229,44.776L28.095,44.776L29.901,49.445Z" style="fill:rgb(153,0,0);fill-rule:nonzero;"/>
                        </g>
                    </g>
                    <g id="Knob" transform="matrix(0.132047,0,0,0.0806623,-124.167,11.1284)">
                        <rect x="24.299" y="98.722" width="71.034" height="58.204" style="fill:none;"/>
                        <g transform="matrix(1.60379,0,0,0.98559,-3.96195,56.3603)">
                            <path id="Label-Large" serif:id="Label Large" d="M17.969,50.776L20.201,50.776C22.073,50.776 23.342,49.543 23.342,47.779C23.342,46.015 22.073,44.773 20.201,44.773L17.969,44.773L17.969,50.776ZM19.022,49.849L19.022,45.7L20.201,45.7C21.542,45.7 22.262,46.618 22.262,47.779C22.262,48.913 21.506,49.849 20.201,49.849L19.022,49.849Z" style="fill:rgb(153,0,0);fill-rule:nonzero;"/>
                            <path d="M24.359,48.409C24.359,49.885 25.214,50.884 26.96,50.884C28.697,50.884 29.552,49.894 29.552,48.4L29.552,44.773L28.49,44.773L28.49,48.373C28.49,49.327 27.959,49.948 26.96,49.948C25.952,49.948 25.421,49.327 25.421,48.373L25.421,44.773L24.359,44.773L24.359,48.409Z" style="fill:rgb(153,0,0);fill-rule:nonzero;"/>
                            <path d="M34.259,50.776L35.474,50.776L34.007,48.418C34.727,48.301 35.429,47.725 35.429,46.654C35.429,45.547 34.655,44.773 33.467,44.773L30.83,44.773L30.83,50.776L31.883,50.776L31.883,48.535L32.927,48.535L34.259,50.776ZM34.349,46.654C34.349,47.23 33.917,47.608 33.323,47.608L31.883,47.608L31.883,45.7L33.323,45.7C33.917,45.7 34.349,46.078 34.349,46.654Z" style="fill:rgb(153,0,0);fill-rule:nonzero;"/>
                            <path d="M40.685,50.776L41.882,50.776L39.524,44.773L38.21,44.773L35.852,50.776L37.049,50.776L37.49,49.624L40.244,49.624L40.685,50.776ZM38.867,45.835L39.947,48.697L37.787,48.697L38.867,45.835Z" style="fill:rgb(153,0,0);fill-rule:nonzero;"/>
                            <path d="M43.385,50.776L44.438,50.776L44.438,45.7L46.256,45.7L46.256,44.773L41.567,44.773L41.567,45.7L43.385,45.7L43.385,50.776Z" style="fill:rgb(153,0,0);fill-rule:nonzero;"/>
                            <rect x="47.147" y="44.773" width="1.053" height="6.003" style="fill:rgb(153,0,0);fill-rule:nonzero;"/>
                            <path d="M49.208,47.779C49.208,49.57 50.477,50.884 52.277,50.884C54.077,50.884 55.346,49.57 55.346,47.779C55.346,45.988 54.077,44.674 52.277,44.674C50.477,44.674 49.208,45.988 49.208,47.779ZM54.266,47.779C54.266,49.012 53.483,49.948 52.277,49.948C51.062,49.948 50.288,49.012 50.288,47.779C50.288,46.537 51.062,45.61 52.277,45.61C53.483,45.61 54.266,46.537 54.266,47.779Z" style="fill:rgb(153,0,0);fill-rule:nonzero;"/>
                            <path d="M60.548,50.776L61.565,50.776L61.565,44.773L60.512,44.773L60.512,48.94L57.443,44.773L56.363,44.773L56.363,50.776L57.416,50.776L57.416,46.492L60.548,50.776Z" style="fill:rgb(153,0,0);fill-rule:nonzero;"/>
                        </g>
                    </g>
                </g>
                <g id="Shape">
                    <g id="Connector1" serif:id="Connector" transform="matrix(0.211776,0,0,0.0795,-194.934,10.7472)">
                        <path d="M332.002,79.912C346.234,79.912 410.423,79.683 410.191,79.912" style="fill:none;stroke:rgb(153,0,0);stroke-width:1px;"/>
                    </g>
                    <g id="Switch-2" serif:id="Switch 2" transform="matrix(0.16421,0,0,0.0571875,-114.38,11.8288)">
                        <rect x="21.318" y="61.322" width="34.273" height="61.572" style="fill:none;"/>
                        <g id="J-CURVE" serif:id="J CURVE" transform="matrix(0.02533,0,0,0.0299068,35.1382,116.513)">
                            <path d="M-102.125,75.403L-54.213,73.85L-28.08,72.814L-1.946,71.001L24.188,68.929L50.321,66.081L76.455,62.196L102.589,57.017L128.722,50.024L154.856,40.961L180.989,28.789L207.123,13.251C211.623,10.951 228.957,-3.89 233.257,-6.69C237.757,-9.69 255.09,-28.569 259.39,-32.069C263.89,-35.869 281.224,-59.363 285.524,-63.663C290.024,-68.363 307.358,-96.949 311.658,-102.249C316.158,-107.749 333.491,-141.469 337.791,-147.569L363.925,-199.103" style="fill:none;stroke:rgb(153,0,0);stroke-width:60.68px;stroke-miterlimit:4;"/>
                        </g>
                        <g id="SIGMOID" transform="matrix(0.0224516,0,0,0.0265083,35.515,71.1914)">
                            <path d="M-132,93L-107.8,92.4L-94.6,92L-81.4,91.3L-68.2,90.5L-55,89.4L-41.8,87.9L-28.6,85.9L-15.4,83.2L-2.2,79.7L11,75L24.2,69C28.7,66.7 33.1,64.1 37.4,61.3C41.9,58.3 46.3,55 50.6,51.5C55.1,47.7 59.5,43.6 63.8,39.3C68.3,34.6 72.7,29.7 77,24.4C81.5,18.9 85.9,13 90.2,6.9L103.4,-13L116.6,-34.9L129.8,-58L138.6,-73.5L151.8,-96.3L165,-117.6L178.2,-136.8C182.5,-142.6 186.9,-148.2 191.4,-153.4C195.7,-158.4 200.1,-163 204.6,-167.4C208.9,-171.5 213.3,-175.3 217.8,-178.7C222.1,-182.1 226.5,-185.1 231,-187.8C235.3,-190.5 239.8,-192.8 244.2,-195L257.4,-200.5L270.6,-204.7L283.8,-207.9L297,-210.3L310.2,-212.2L323.4,-213.5L336.6,-214.6L349.8,-215.3L363,-215.9L374,-216.2L393.8,-216.7" style="fill:none;stroke:rgb(153,0,0);stroke-width:68.46px;stroke-linejoin:miter;stroke-miterlimit:4;"/>
                        </g>
                    </g>
                    <g id="CV1" serif:id="CV" transform="matrix(0.257997,0,0,0.0983737,-145.266,11.7123)">
                        <rect x="66.681" y="35.639" width="26.661" height="38.18" style="fill:none;"/>
                        <g transform="matrix(0.820847,0,0,0.808143,56.9184,3.09951)">
                            <path id="Label7" serif:id="Label" d="M26.072,49.529C27.101,49.529 27.689,48.962 28.025,48.381L27.171,47.968C26.975,48.353 26.555,48.647 26.072,48.647C25.225,48.647 24.609,47.996 24.609,47.114C24.609,46.232 25.225,45.581 26.072,45.581C26.555,45.581 26.975,45.882 27.171,46.26L28.025,45.84C27.696,45.259 27.101,44.699 26.072,44.699C24.672,44.699 23.587,45.679 23.587,47.114C23.587,48.549 24.672,49.529 26.072,49.529Z" style="fill:rgb(153,0,0);fill-rule:nonzero;"/>
                            <path d="M29.901,49.445L31.147,49.445L32.946,44.776L31.812,44.776L30.524,48.367L29.229,44.776L28.095,44.776L29.901,49.445Z" style="fill:rgb(153,0,0);fill-rule:nonzero;"/>
                        </g>
                    </g>
                    <g id="Knob1" serif:id="Knob" transform="matrix(0.132047,0,0,0.0806623,-124.167,6.78564)">
                        <rect x="24.299" y="98.722" width="71.034" height="58.204" style="fill:none;"/>
                        <g transform="matrix(1.60379,0,0,0.98559,8.54239,56.3603)">
                            <path id="Label-Large1" serif:id="Label Large" d="M17.935,49.93C18.466,50.497 19.267,50.884 20.374,50.884C21.994,50.884 22.696,50.029 22.696,49.03C22.696,47.725 21.517,47.419 20.527,47.167C19.816,46.987 19.204,46.834 19.204,46.366C19.204,45.916 19.6,45.619 20.221,45.619C20.851,45.619 21.49,45.835 21.958,46.303L22.561,45.52C22.003,44.98 21.247,44.683 20.311,44.683C18.997,44.683 18.124,45.448 18.124,46.438C18.124,47.707 19.276,47.995 20.257,48.238C20.986,48.427 21.625,48.589 21.625,49.129C21.625,49.525 21.283,49.948 20.419,49.948C19.582,49.948 18.934,49.561 18.52,49.12L17.935,49.93Z" style="fill:rgb(153,0,0);fill-rule:nonzero;"/>
                            <path d="M27.844,50.776L28.897,50.776L28.897,44.773L27.844,44.773L27.844,47.23L24.721,47.23L24.721,44.773L23.668,44.773L23.668,50.776L24.721,50.776L24.721,48.157L27.844,48.157L27.844,50.776Z" style="fill:rgb(153,0,0);fill-rule:nonzero;"/>
                            <path d="M34.378,50.776L35.575,50.776L33.217,44.773L31.903,44.773L29.545,50.776L30.742,50.776L31.183,49.624L33.937,49.624L34.378,50.776ZM32.56,45.835L33.64,48.697L31.48,48.697L32.56,45.835Z" style="fill:rgb(153,0,0);fill-rule:nonzero;"/>
                            <path d="M36.232,50.776L37.285,50.776L37.285,48.535L38.869,48.535C40.12,48.535 40.831,47.671 40.831,46.654C40.831,45.637 40.129,44.773 38.869,44.773L36.232,44.773L36.232,50.776ZM39.751,46.654C39.751,47.23 39.319,47.608 38.725,47.608L37.285,47.608L37.285,45.7L38.725,45.7C39.319,45.7 39.751,46.078 39.751,46.654Z" style="fill:rgb(153,0,0);fill-rule:nonzero;"/>
                            <path d="M41.704,50.776L45.817,50.776L45.817,49.849L42.757,49.849L42.757,48.184L45.754,48.184L45.754,47.257L42.757,47.257L42.757,45.7L45.817,45.7L45.817,44.773L41.704,44.773L41.704,50.776Z" style="fill:rgb(153,0,0);fill-rule:nonzero;"/>
                        </g>
                    </g>
                </g>
                <g id="Level">
                    <g id="Connector2" serif:id="Connector" transform="matrix(0.211776,0,0,0.0795,-194.934,6.40446)">
                        <path d="M332.002,79.912C346.234,79.912 410.423,79.683 410.191,79.912" style="fill:none;stroke:rgb(153,0,0);stroke-width:1px;"/>
                    </g>
                    <g id="CV2" serif:id="CV" transform="matrix(0.257997,0,0,0.0983737,-145.266,7.36956)">
                        <rect x="66.681" y="35.639" width="26.661" height="38.18" style="fill:none;"/>
                        <g transform="matrix(0.820847,0,0,0.808143,56.9184,3.09951)">
                            <path id="Label8" serif:id="Label" d="M26.072,49.529C27.101,49.529 27.689,48.962 28.025,48.381L27.171,47.968C26.975,48.353 26.555,48.647 26.072,48.647C25.225,48.647 24.609,47.996 24.609,47.114C24.609,46.232 25.225,45.581 26.072,45.581C26.555,45.581 26.975,45.882 27.171,46.26L28.025,45.84C27.696,45.259 27.101,44.699 26.072,44.699C24.672,44.699 23.587,45.679 23.587,47.114C23.587,48.549 24.672,49.529 26.072,49.529Z" style="fill:rgb(153,0,0);fill-rule:nonzero;"/>
                            <path d="M29.901,49.445L31.147,49.445L32.946,44.776L31.812,44.776L30.524,48.367L29.229,44.776L28.095,44.776L29.901,49.445Z" style="fill:rgb(153,0,0);fill-rule:nonzero;"/>
                        </g>
                    </g>
                    <g id="Knob2" serif:id="Knob" transform="matrix(0.132047,0,0,0.0806623,-124.167,2.44288)">
                        <rect x="24.299" y="98.722" width="71.034" height="58.204" style="fill:none;"/>
                        <g transform="matrix(1.60379,0,0,0.98559,8.54239,56.3603)">
                            <path id="Label-Large2" serif:id="Label Large" d="M19.735,50.776L23.434,50.776L23.434,49.849L20.788,49.849L20.788,44.773L19.735,44.773L19.735,50.776Z" style="fill:rgb(153,0,0);fill-rule:nonzero;"/>
                            <path d="M24.388,50.776L28.501,50.776L28.501,49.849L25.441,49.849L25.441,48.184L28.438,48.184L28.438,47.257L25.441,47.257L25.441,45.7L28.501,45.7L28.501,44.773L24.388,44.773L24.388,50.776Z" style="fill:rgb(153,0,0);fill-rule:nonzero;"/>
                            <path d="M31.309,50.776L32.623,50.776L34.981,44.773L33.784,44.773L31.966,49.633L30.148,44.773L28.951,44.773L31.309,50.776Z" style="fill:rgb(153,0,0);fill-rule:nonzero;"/>
                            <path d="M35.638,50.776L39.751,50.776L39.751,49.849L36.691,49.849L36.691,48.184L39.688,48.184L39.688,47.257L36.691,47.257L36.691,45.7L39.751,45.7L39.751,44.773L35.638,44.773L35.638,50.776Z" style="fill:rgb(153,0,0);fill-rule:nonzero;"/>
                            <path d="M40.831,50.776L44.53,50.776L44.53,49.849L41.884,49.849L41.884,44.773L40.831,44.773L40.831,50.776Z" style="fill:rgb(153,0,0);fill-rule:nonzero;"/>
                        </g>
                    </g>
                    <g id="Switch-21" serif:id="Switch 2" transform="matrix(0.16421,0,0,0.0571875,-114.38,7.48603)">
                        <rect x="21.318" y="61.322" width="34.273" height="61.572" style="fill:none;"/>
                        <g transform="matrix(1.28967,0,0,1.39016,7.06434,48.3137)">
                            <path id="Low" d="M21.522,49.445L24.056,49.445C24.945,49.445 25.414,48.885 25.414,48.185C25.414,47.597 25.015,47.114 24.518,47.037C24.959,46.946 25.323,46.554 25.323,45.966C25.323,45.343 24.868,44.776 23.979,44.776L21.522,44.776L21.522,49.445ZM22.516,46.645L22.516,45.63L23.762,45.63C24.098,45.63 24.308,45.847 24.308,46.141C24.308,46.435 24.098,46.645 23.762,46.645L22.516,46.645ZM22.516,48.584L22.516,47.499L23.797,47.499C24.189,47.499 24.399,47.751 24.399,48.045C24.399,48.381 24.175,48.584 23.797,48.584L22.516,48.584Z" style="fill:rgb(153,0,0);fill-rule:nonzero;"/>
                            <rect x="26.163" y="44.776" width="0.994" height="4.669" style="fill:rgb(153,0,0);fill-rule:nonzero;"/>
                        </g>
                        <g transform="matrix(1.28967,0,0,1.39016,7.06434,4.92067)">
                            <path id="HIGH1" serif:id="HIGH" d="M18.726,47.583C18.726,48.731 19.412,49.529 20.833,49.529C22.254,49.529 22.94,48.738 22.94,47.576L22.94,44.776L21.925,44.776L21.925,47.548C21.925,48.199 21.554,48.647 20.833,48.647C20.112,48.647 19.734,48.199 19.734,47.548L19.734,44.776L18.726,44.776L18.726,47.583Z" style="fill:rgb(153,0,0);fill-rule:nonzero;"/>
                            <path d="M27.077,49.445L28.036,49.445L28.036,44.776L27.042,44.776L27.042,47.709L24.879,44.776L23.857,44.776L23.857,49.445L24.851,49.445L24.851,46.4L27.077,49.445Z" style="fill:rgb(153,0,0);fill-rule:nonzero;"/>
                            <rect x="28.96" y="44.776" width="0.994" height="4.669" style="fill:rgb(153,0,0);fill-rule:nonzero;"/>
                        </g>
                    </g>
                </g>
                <g id="Plugin-Labels" serif:id="Plugin Labels">
                    <g transform="matrix(0.211776,0,0,0.0795,-123.47,32.4349)">
                        <path id="DHE" d="M22.267,40.151L25.417,40.151C27.921,40.151 29.658,38.57 29.658,36.162C29.658,33.754 27.921,32.161 25.417,32.161L22.267,32.161L22.267,40.151ZM23.968,38.654L23.968,33.659L25.417,33.659C27.058,33.659 27.921,34.749 27.921,36.162C27.921,37.516 26.998,38.654 25.417,38.654L23.968,38.654Z" style="fill:rgb(153,0,0);fill-rule:nonzero;"/>
                        <path d="M36.342,40.151L38.055,40.151L38.055,32.161L36.342,32.161L36.342,35.3L32.569,35.3L32.569,32.161L30.868,32.161L30.868,40.151L32.569,40.151L32.569,36.797L36.342,36.797L36.342,40.151Z" style="fill:rgb(153,0,0);fill-rule:nonzero;"/>
                        <path d="M39.624,40.151L45.279,40.151L45.279,38.654L41.326,38.654L41.326,36.845L45.195,36.845L45.195,35.348L41.326,35.348L41.326,33.659L45.279,33.659L45.279,32.161L39.624,32.161L39.624,40.151Z" style="fill:rgb(153,0,0);fill-rule:nonzero;"/>
                    </g>
                    <g transform="matrix(0.211776,0,0,0.0795,-130.809,4.32802)">
                        <path id="Plugin" d="M21.692,58.045L26.028,58.045C27.549,58.045 28.352,57.087 28.352,55.889C28.352,54.883 27.669,54.056 26.819,53.924C27.573,53.769 28.196,53.098 28.196,52.091C28.196,51.025 27.418,50.055 25.896,50.055L21.692,50.055L21.692,58.045ZM23.393,53.253L23.393,51.516L25.525,51.516C26.1,51.516 26.459,51.888 26.459,52.391C26.459,52.894 26.1,53.253 25.525,53.253L23.393,53.253ZM23.393,56.572L23.393,54.715L25.585,54.715C26.256,54.715 26.615,55.146 26.615,55.649C26.615,56.224 26.232,56.572 25.585,56.572L23.393,56.572Z" style="fill:rgb(153,0,0);fill-rule:nonzero;"/>
                        <path d="M29.25,54.056C29.25,56.464 31.011,58.189 33.419,58.189C35.839,58.189 37.6,56.464 37.6,54.056C37.6,51.648 35.839,49.923 33.419,49.923C31.011,49.923 29.25,51.648 29.25,54.056ZM35.851,54.056C35.851,55.541 34.893,56.679 33.419,56.679C31.946,56.679 30.999,55.541 30.999,54.056C30.999,52.559 31.946,51.433 33.419,51.433C34.893,51.433 35.851,52.559 35.851,54.056Z" style="fill:rgb(153,0,0);fill-rule:nonzero;"/>
                        <path d="M38.415,54.056C38.415,56.464 40.175,58.189 42.583,58.189C45.003,58.189 46.764,56.464 46.764,54.056C46.764,51.648 45.003,49.923 42.583,49.923C40.175,49.923 38.415,51.648 38.415,54.056ZM45.015,54.056C45.015,55.541 44.057,56.679 42.583,56.679C41.11,56.679 40.164,55.541 40.164,54.056C40.164,52.559 41.11,51.433 42.583,51.433C44.057,51.433 45.015,52.559 45.015,54.056Z" style="fill:rgb(153,0,0);fill-rule:nonzero;"/>
                        <path d="M47.423,56.919C48.166,57.674 49.268,58.189 50.801,58.189C52.957,58.189 53.999,57.087 53.999,55.625C53.999,53.816 52.322,53.421 51.005,53.11C50.142,52.906 49.411,52.738 49.411,52.223C49.411,51.744 49.819,51.421 50.549,51.421C51.364,51.421 52.227,51.696 52.873,52.295L53.82,51.049C53.029,50.319 51.975,49.935 50.705,49.935C48.824,49.935 47.674,51.037 47.674,52.367C47.674,54.188 49.352,54.547 50.657,54.847C51.532,55.062 52.274,55.23 52.274,55.817C52.274,56.272 51.819,56.703 50.885,56.703C49.783,56.703 48.908,56.212 48.345,55.625L47.423,56.919Z" style="fill:rgb(153,0,0);fill-rule:nonzero;"/>
                        <path d="M56.91,58.045L58.623,58.045L58.623,51.552L60.947,51.552L60.947,50.055L54.574,50.055L54.574,51.552L56.91,51.552L56.91,58.045Z" style="fill:rgb(153,0,0);fill-rule:nonzero;"/>
                        <path d="M62.037,58.045L67.692,58.045L67.692,56.548L63.739,56.548L63.739,54.739L67.608,54.739L67.608,53.241L63.739,53.241L63.739,51.552L67.692,51.552L67.692,50.055L62.037,50.055L62.037,58.045Z" style="fill:rgb(153,0,0);fill-rule:nonzero;"/>
                        <path d="M73.537,58.045L75.49,58.045L73.693,55.002C74.556,54.799 75.442,54.044 75.442,52.63C75.442,51.145 74.424,50.055 72.759,50.055L69.021,50.055L69.021,58.045L70.722,58.045L70.722,55.206L71.968,55.206L73.537,58.045ZM73.705,52.63C73.705,53.301 73.19,53.709 72.507,53.709L70.722,53.709L70.722,51.552L72.507,51.552C73.19,51.552 73.705,51.96 73.705,52.63Z" style="fill:rgb(153,0,0);fill-rule:nonzero;"/>
                        <path d="M79.252,56.919C79.994,57.674 81.096,58.189 82.63,58.189C84.786,58.189 85.828,57.087 85.828,55.625C85.828,53.816 84.151,53.421 82.833,53.11C81.971,52.906 81.24,52.738 81.24,52.223C81.24,51.744 81.647,51.421 82.378,51.421C83.193,51.421 84.055,51.696 84.702,52.295L85.648,51.049C84.858,50.319 83.804,49.935 82.534,49.935C80.653,49.935 79.503,51.037 79.503,52.367C79.503,54.188 81.18,54.547 82.486,54.847C83.36,55.062 84.103,55.23 84.103,55.817C84.103,56.272 83.648,56.703 82.714,56.703C81.611,56.703 80.737,56.212 80.174,55.625L79.252,56.919Z" style="fill:rgb(153,0,0);fill-rule:nonzero;"/>
                        <path d="M88.739,58.045L90.452,58.045L90.452,51.552L92.776,51.552L92.776,50.055L86.403,50.055L86.403,51.552L88.739,51.552L88.739,58.045Z" style="fill:rgb(153,0,0);fill-rule:nonzero;"/>
                        <path d="M98.61,58.045L100.55,58.045L97.472,50.055L95.34,50.055L92.249,58.045L94.19,58.045L94.693,56.691L98.119,56.691L98.61,58.045ZM96.406,51.756L97.652,55.194L95.16,55.194L96.406,51.756Z" style="fill:rgb(153,0,0);fill-rule:nonzero;"/>
                        <path d="M100.503,54.056C100.503,56.572 102.419,58.201 104.755,58.201C106.205,58.201 107.343,57.602 108.157,56.691L108.157,53.625L104.348,53.625L104.348,55.11L106.456,55.11L106.456,56.069C106.133,56.368 105.462,56.679 104.755,56.679C103.306,56.679 102.252,55.565 102.252,54.056C102.252,52.547 103.306,51.433 104.755,51.433C105.606,51.433 106.289,51.912 106.648,52.475L108.061,51.708C107.462,50.762 106.42,49.923 104.755,49.923C102.419,49.923 100.503,51.528 100.503,54.056Z" style="fill:rgb(153,0,0);fill-rule:nonzero;"/>
                        <path d="M109.511,58.045L115.165,58.045L115.165,56.548L111.212,56.548L111.212,54.739L115.081,54.739L115.081,53.241L111.212,53.241L111.212,51.552L115.165,51.552L115.165,50.055L109.511,50.055L109.511,58.045Z" style="fill:rgb(153,0,0);fill-rule:nonzero;"/>
                    </g>
                </g>
            </g>
        </g>
    </g>
</svg>
