<?xml version="1.0" encoding="UTF-8" standalone="no"?>
<!DOCTYPE svg PUBLIC "-//W3C//DTD SVG 1.1//EN" "http://www.w3.org/Graphics/SVG/1.1/DTD/svg11.dtd">
<svg width="19px" height="18px" version="1.1" xmlns="http://www.w3.org/2000/svg" xmlns:xlink="http://www.w3.org/1999/xlink" xml:space="preserve" xmlns:serif="http://www.serif.com/" style="fill-rule:evenodd;clip-rule:evenodd;stroke-linejoin:round;stroke-miterlimit:1.41421;">
    <g transform="matrix(1,0,0,1,-63,-233)">
        <g transform="matrix(2.1617,0,0,6.33742,-1.51564,-327.85)">
            <g id="Button-Light-Off" serif:id="Button Light Off" transform="matrix(0.485833,0,0,0.165718,-250.568,85.1649)">
                <circle cx="586.505" cy="28.803" r="8.435" style="fill:rgb(255,230,230);"/>
                <path d="M586.614,20.369L586.723,20.371L586.831,20.375L586.939,20.38L587.047,20.386L587.154,20.393L587.261,20.402L587.367,20.412L587.473,20.424L587.579,20.436L587.684,20.451L587.789,20.466L587.894,20.483L587.998,20.5L588.101,20.52L588.204,20.54L588.307,20.562L588.409,20.585L588.511,20.609L588.612,20.634L588.713,20.661L588.813,20.689L588.913,20.718L589.012,20.748L589.111,20.78L589.209,20.812L589.307,20.846L589.404,20.881L589.501,20.917L589.597,20.954L589.692,20.992L589.787,21.032L589.881,21.072L589.975,21.114L590.068,21.157L590.161,21.201L590.253,21.246L590.344,21.292L590.434,21.339L590.524,21.387L590.614,21.436L590.702,21.487L590.79,21.538L590.878,21.59L590.964,21.644L591.05,21.698L591.135,21.754L591.22,21.81L591.304,21.867L591.387,21.926L591.469,21.985L591.551,22.045L591.631,22.106L591.711,22.169L591.791,22.232L591.869,22.296L591.947,22.361L592.024,22.426L592.1,22.493L592.175,22.561L592.25,22.629L592.324,22.699L592.396,22.769L592.468,22.84L592.54,22.912L592.61,22.985L592.679,23.059L592.748,23.133L592.815,23.209L592.882,23.285L592.948,23.362L593.013,23.439L593.077,23.518L593.14,23.597L593.202,23.677L593.263,23.758L593.324,23.84L593.383,23.922L593.441,24.005L593.499,24.089L593.555,24.173L593.61,24.258L593.665,24.344L593.718,24.431L593.771,24.518L593.822,24.606L593.872,24.695L593.921,24.784L593.97,24.874L594.017,24.965L594.063,25.056L594.108,25.148L594.152,25.24L594.194,25.333L594.236,25.427L594.277,25.521L594.316,25.616L594.355,25.712L594.392,25.808L594.428,25.904L594.463,26.002L594.497,26.099L594.529,26.197L594.561,26.296L594.591,26.395L594.62,26.495L594.648,26.596L594.674,26.696L594.7,26.798L594.724,26.899L594.747,27.002L594.769,27.104L594.789,27.207L594.808,27.311L594.826,27.415L594.843,27.519L594.858,27.624L594.872,27.73L594.885,27.835L594.896,27.941L594.907,28.048L594.915,28.155L594.923,28.262L594.929,28.369L594.934,28.477L594.937,28.586L594.939,28.694L594.94,28.803L594.939,28.912L594.937,29.021L594.934,29.129L594.929,29.237L594.923,29.345L594.915,29.452L594.907,29.559L594.896,29.665L594.885,29.771L594.872,29.877L594.858,29.982L594.843,30.087L594.826,30.192L594.808,30.296L594.789,30.399L594.769,30.502L594.747,30.605L594.724,30.707L594.7,30.809L594.674,30.91L594.648,31.011L594.62,31.111L594.591,31.211L594.561,31.31L594.529,31.409L594.497,31.507L594.463,31.605L594.428,31.702L594.392,31.799L594.355,31.895L594.316,31.99L594.277,32.085L594.236,32.179L594.194,32.273L594.152,32.366L594.108,32.459L594.063,32.551L594.017,32.642L593.97,32.732L593.921,32.822L593.872,32.912L593.822,33L593.771,33.088L593.718,33.176L593.665,33.262L593.61,33.348L593.555,33.433L593.499,33.518L593.441,33.602L593.383,33.685L593.324,33.767L593.263,33.849L593.202,33.929L593.14,34.009L593.077,34.089L593.013,34.167L592.948,34.245L592.882,34.322L592.815,34.398L592.748,34.473L592.679,34.548L592.61,34.621L592.54,34.694L592.468,34.766L592.396,34.837L592.324,34.908L592.25,34.977L592.175,35.046L592.1,35.113L592.024,35.18L591.947,35.246L591.869,35.311L591.791,35.375L591.711,35.438L591.631,35.5L591.551,35.561L591.469,35.622L591.387,35.681L591.304,35.739L591.22,35.797L591.135,35.853L591.05,35.908L590.964,35.963L590.878,36.016L590.79,36.068L590.702,36.12L590.614,36.17L590.524,36.219L590.434,36.267L590.344,36.315L590.253,36.361L590.161,36.406L590.068,36.45L589.975,36.492L589.881,36.534L589.787,36.575L589.692,36.614L589.597,36.652L589.501,36.69L589.404,36.726L589.307,36.761L589.209,36.794L589.111,36.827L589.012,36.858L588.913,36.889L588.813,36.918L588.713,36.946L588.612,36.972L588.511,36.998L588.409,37.022L588.307,37.045L588.204,37.066L588.101,37.087L587.998,37.106L587.894,37.124L587.789,37.141L587.684,37.156L587.579,37.17L587.473,37.183L587.367,37.194L587.261,37.204L587.154,37.213L587.047,37.221L586.939,37.227L586.831,37.232L586.723,37.235L586.614,37.237L586.505,37.238L586.396,37.237L586.288,37.235L586.18,37.232L586.072,37.227L585.964,37.221L585.857,37.213L585.75,37.204L585.643,37.194L585.537,37.183L585.432,37.17L585.326,37.156L585.222,37.141L585.117,37.124L585.013,37.106L584.91,37.087L584.806,37.066L584.704,37.045L584.601,37.022L584.5,36.998L584.398,36.972L584.298,36.946L584.197,36.918L584.098,36.889L583.998,36.858L583.9,36.827L583.801,36.794L583.704,36.761L583.606,36.726L583.51,36.69L583.414,36.652L583.318,36.614L583.224,36.575L583.129,36.534L583.036,36.492L582.942,36.45L582.85,36.406L582.758,36.361L582.667,36.315L582.576,36.267L582.486,36.219L582.397,36.17L582.308,36.12L582.22,36.068L582.133,36.016L582.046,35.963L581.961,35.908L581.875,35.853L581.791,35.797L581.707,35.739L581.624,35.681L581.542,35.622L581.46,35.561L581.379,35.5L581.299,35.438L581.22,35.375L581.141,35.311L581.064,35.246L580.987,35.18L580.911,35.113L580.835,35.046L580.761,34.977L580.687,34.908L580.614,34.837L580.542,34.766L580.471,34.694L580.401,34.621L580.331,34.548L580.263,34.473L580.195,34.398L580.129,34.322L580.063,34.245L579.998,34.167L579.934,34.089L579.871,34.009L579.808,33.929L579.747,33.849L579.687,33.767L579.628,33.685L579.569,33.602L579.512,33.518L579.456,33.433L579.4,33.348L579.346,33.262L579.293,33.176L579.24,33.088L579.189,33L579.139,32.912L579.089,32.822L579.041,32.732L578.994,32.642L578.948,32.551L578.903,32.459L578.859,32.366L578.816,32.273L578.775,32.179L578.734,32.085L578.694,31.99L578.656,31.895L578.619,31.799L578.583,31.702L578.548,31.605L578.514,31.507L578.482,31.409L578.45,31.31L578.42,31.211L578.391,31.111L578.363,31.011L578.336,30.91L578.311,30.809L578.287,30.707L578.264,30.605L578.242,30.502L578.222,30.399L578.203,30.296L578.185,30.192L578.168,30.087L578.153,29.982L578.139,29.877L578.126,29.771L578.114,29.665L578.104,29.559L578.095,29.452L578.088,29.345L578.082,29.237L578.077,29.129L578.073,29.021L578.071,28.912L578.071,28.803L578.071,28.694L578.073,28.586L578.077,28.477L578.082,28.369L578.088,28.262L578.095,28.155L578.104,28.048L578.114,27.941L578.126,27.835L578.139,27.73L578.153,27.624L578.168,27.519L578.185,27.415L578.203,27.311L578.222,27.207L578.242,27.104L578.264,27.002L578.287,26.899L578.311,26.798L578.336,26.696L578.363,26.596L578.391,26.495L578.42,26.395L578.45,26.296L578.482,26.197L578.514,26.099L578.548,26.002L578.583,25.904L578.619,25.808L578.656,25.712L578.694,25.616L578.734,25.521L578.775,25.427L578.816,25.333L578.859,25.24L578.903,25.148L578.948,25.056L578.994,24.965L579.041,24.874L579.089,24.784L579.139,24.695L579.189,24.606L579.24,24.518L579.293,24.431L579.346,24.344L579.4,24.258L579.456,24.173L579.512,24.089L579.569,24.005L579.628,23.922L579.687,23.84L579.747,23.758L579.808,23.677L579.871,23.597L579.934,23.518L579.998,23.439L580.063,23.362L580.129,23.285L580.195,23.209L580.263,23.133L580.331,23.059L580.401,22.985L580.471,22.912L580.542,22.84L580.614,22.769L580.687,22.699L580.761,22.629L580.835,22.561L580.911,22.493L580.987,22.426L581.064,22.361L581.141,22.296L581.22,22.232L581.299,22.169L581.379,22.106L581.46,22.045L581.542,21.985L581.624,21.926L581.707,21.867L581.791,21.81L581.875,21.754L581.961,21.698L582.046,21.644L582.133,21.59L582.22,21.538L582.308,21.487L582.397,21.436L582.486,21.387L582.576,21.339L582.667,21.292L582.758,21.246L582.85,21.201L582.942,21.157L583.036,21.114L583.129,21.072L583.224,21.032L583.318,20.992L583.414,20.954L583.51,20.917L583.606,20.881L583.704,20.846L583.801,20.812L583.9,20.78L583.998,20.748L584.098,20.718L584.197,20.689L584.298,20.661L584.398,20.634L584.5,20.609L584.601,20.585L584.704,20.562L584.806,20.54L584.91,20.52L585.013,20.5L585.117,20.483L585.222,20.466L585.326,20.451L585.432,20.436L585.537,20.424L585.643,20.412L585.75,20.402L585.857,20.393L585.964,20.386L586.072,20.38L586.18,20.375L586.288,20.371L586.396,20.369L586.505,20.369L586.614,20.369ZM586.432,23.181L586.359,23.182L586.286,23.184L586.214,23.188L586.142,23.192L586.07,23.197L585.999,23.203L585.928,23.209L585.857,23.217L585.787,23.226L585.717,23.235L585.646,23.245L585.577,23.256L585.508,23.268L585.439,23.281L585.37,23.295L585.302,23.309L585.234,23.324L585.167,23.34L585.1,23.357L585.033,23.375L584.966,23.393L584.9,23.413L584.834,23.433L584.769,23.453L584.703,23.475L584.638,23.498L584.574,23.521L584.51,23.545L584.446,23.569L584.382,23.595L584.319,23.621L584.257,23.648L584.194,23.676L584.132,23.704L584.071,23.734L584.01,23.763L583.949,23.794L583.889,23.825L583.829,23.858L583.769,23.89L583.71,23.924L583.652,23.958L583.593,23.993L583.536,24.029L583.478,24.065L583.422,24.102L583.365,24.139L583.309,24.178L583.254,24.217L583.199,24.256L583.144,24.297L583.09,24.337L583.037,24.379L582.984,24.421L582.931,24.464L582.879,24.507L582.828,24.551L582.777,24.596L582.726,24.642L582.677,24.687L582.627,24.734L582.579,24.781L582.53,24.828L582.483,24.877L582.436,24.925L582.389,24.974L582.344,25.024L582.298,25.075L582.254,25.126L582.209,25.177L582.166,25.229L582.123,25.282L582.081,25.335L582.039,25.388L581.999,25.442L581.958,25.497L581.919,25.552L581.88,25.607L581.841,25.663L581.804,25.72L581.767,25.776L581.731,25.834L581.695,25.892L581.66,25.95L581.626,26.008L581.592,26.067L581.56,26.127L581.528,26.187L581.496,26.247L581.466,26.308L581.436,26.369L581.406,26.43L581.378,26.492L581.35,26.555L581.323,26.617L581.297,26.68L581.271,26.744L581.247,26.808L581.223,26.872L581.2,26.936L581.177,27.001L581.156,27.066L581.135,27.132L581.115,27.198L581.095,27.264L581.077,27.331L581.059,27.398L581.042,27.465L581.026,27.532L581.011,27.6L580.997,27.669L580.983,27.737L580.97,27.806L580.958,27.875L580.947,27.945L580.937,28.014L580.928,28.085L580.919,28.155L580.911,28.226L580.905,28.297L580.899,28.368L580.894,28.44L580.89,28.512L580.886,28.584L580.884,28.657L580.883,28.73L580.882,28.803L580.883,28.877L580.884,28.95L580.886,29.022L580.89,29.094L580.894,29.166L580.899,29.238L580.905,29.31L580.911,29.381L580.919,29.452L580.928,29.522L580.937,29.592L580.947,29.662L580.958,29.731L580.97,29.801L580.983,29.869L580.997,29.938L581.011,30.006L581.026,30.074L581.042,30.142L581.059,30.209L581.077,30.276L581.095,30.342L581.115,30.409L581.135,30.475L581.156,30.54L581.177,30.605L581.2,30.67L581.223,30.735L581.247,30.799L581.271,30.863L581.297,30.926L581.323,30.989L581.35,31.052L581.378,31.114L581.406,31.176L581.436,31.238L581.466,31.299L581.496,31.359L581.528,31.42L581.56,31.48L581.592,31.539L581.626,31.598L581.66,31.657L581.695,31.715L581.731,31.773L581.767,31.83L581.804,31.887L581.841,31.943L581.88,31.999L581.919,32.055L581.958,32.11L581.999,32.164L582.039,32.218L582.081,32.272L582.123,32.325L582.166,32.377L582.21,32.429L582.254,32.481L582.298,32.532L582.344,32.582L582.389,32.632L582.436,32.681L582.483,32.73L582.53,32.778L582.579,32.826L582.627,32.873L582.677,32.919L582.726,32.965L582.777,33.01L582.828,33.055L582.879,33.099L582.931,33.143L582.984,33.185L583.037,33.228L583.09,33.269L583.144,33.31L583.199,33.35L583.253,33.39L583.309,33.429L583.365,33.467L583.422,33.505L583.478,33.542L583.536,33.578L583.594,33.614L583.652,33.648L583.71,33.683L583.769,33.716L583.829,33.749L583.889,33.781L583.949,33.812L584.01,33.843L584.071,33.873L584.133,33.902L584.194,33.931L584.257,33.958L584.319,33.985L584.382,34.012L584.446,34.037L584.51,34.062L584.574,34.086L584.638,34.109L584.703,34.131L584.768,34.153L584.834,34.174L584.9,34.194L584.966,34.213L585.033,34.232L585.1,34.249L585.167,34.266L585.234,34.282L585.303,34.298L585.371,34.312L585.439,34.326L585.508,34.338L585.577,34.35L585.647,34.361L585.717,34.372L585.786,34.381L585.857,34.389L585.928,34.397L585.999,34.404L586.07,34.41L586.142,34.415L586.214,34.419L586.286,34.422L586.359,34.424L586.432,34.426L586.505,34.426L586.579,34.426L586.652,34.424L586.724,34.422L586.797,34.419L586.869,34.415L586.94,34.41L587.012,34.404L587.083,34.397L587.154,34.389L587.224,34.381L587.294,34.372L587.364,34.361L587.433,34.35L587.503,34.338L587.572,34.326L587.64,34.312L587.708,34.298L587.776,34.282L587.844,34.266L587.911,34.249L587.978,34.232L588.044,34.213L588.111,34.194L588.177,34.174L588.242,34.153L588.308,34.131L588.372,34.109L588.437,34.086L588.501,34.062L588.565,34.037L588.628,34.012L588.691,33.985L588.754,33.958L588.816,33.931L588.878,33.902L588.939,33.873L589.001,33.843L589.062,33.812L589.122,33.781L589.182,33.749L589.241,33.716L589.301,33.683L589.359,33.648L589.417,33.614L589.475,33.578L589.532,33.542L589.589,33.505L589.645,33.467L589.701,33.429L589.757,33.39L589.812,33.35L589.866,33.31L589.921,33.269L589.974,33.228L590.027,33.185L590.079,33.143L590.131,33.099L590.183,33.055L590.234,33.01L590.284,32.965L590.334,32.919L590.383,32.873L590.432,32.826L590.48,32.778L590.528,32.73L590.575,32.681L590.621,32.632L590.667,32.582L590.713,32.532L590.757,32.481L590.801,32.429L590.845,32.377L590.887,32.325L590.93,32.272L590.971,32.218L591.012,32.164L591.052,32.11L591.092,32.055L591.131,31.999L591.169,31.943L591.207,31.887L591.244,31.83L591.28,31.773L591.316,31.715L591.35,31.657L591.385,31.598L591.418,31.539L591.451,31.48L591.483,31.42L591.515,31.359L591.545,31.299L591.575,31.238L591.604,31.176L591.633,31.114L591.66,31.052L591.687,30.989L591.714,30.926L591.739,30.863L591.764,30.799L591.788,30.735L591.811,30.67L591.834,30.605L591.855,30.54L591.876,30.475L591.896,30.409L591.915,30.342L591.934,30.276L591.951,30.209L591.968,30.142L591.984,30.074L592,30.006L592.014,29.938L592.028,29.869L592.04,29.801L592.052,29.731L592.063,29.662L592.074,29.592L592.083,29.522L592.092,29.451L592.099,29.381L592.106,29.31L592.112,29.238L592.117,29.167L592.121,29.094L592.124,29.022L592.127,28.95L592.128,28.877L592.128,28.803L592.128,28.73L592.127,28.657L592.124,28.584L592.121,28.512L592.117,28.44L592.112,28.368L592.106,28.297L592.099,28.226L592.092,28.155L592.083,28.085L592.074,28.014L592.063,27.945L592.052,27.875L592.04,27.806L592.028,27.737L592.014,27.669L592,27.6L591.984,27.532L591.968,27.465L591.951,27.398L591.934,27.331L591.915,27.264L591.896,27.198L591.876,27.132L591.855,27.066L591.833,27.001L591.811,26.936L591.788,26.872L591.764,26.808L591.739,26.744L591.714,26.68L591.688,26.617L591.661,26.555L591.633,26.492L591.604,26.43L591.575,26.369L591.545,26.308L591.515,26.247L591.483,26.187L591.451,26.127L591.418,26.067L591.385,26.008L591.351,25.95L591.316,25.892L591.28,25.834L591.244,25.776L591.207,25.72L591.169,25.663L591.131,25.607L591.092,25.552L591.052,25.497L591.012,25.442L590.971,25.388L590.93,25.335L590.887,25.282L590.844,25.229L590.801,25.177L590.757,25.126L590.712,25.075L590.667,25.024L590.621,24.974L590.575,24.925L590.528,24.877L590.48,24.828L590.432,24.781L590.383,24.734L590.334,24.687L590.284,24.641L590.234,24.596L590.183,24.551L590.131,24.507L590.079,24.464L590.027,24.421L589.974,24.379L589.92,24.337L589.866,24.297L589.812,24.256L589.757,24.217L589.701,24.178L589.645,24.139L589.589,24.102L589.532,24.065L589.475,24.029L589.417,23.993L589.359,23.958L589.3,23.924L589.241,23.89L589.182,23.858L589.122,23.825L589.061,23.794L589.001,23.763L588.94,23.734L588.878,23.704L588.816,23.676L588.754,23.648L588.691,23.621L588.628,23.595L588.565,23.569L588.501,23.545L588.437,23.521L588.373,23.498L588.307,23.475L588.242,23.453L588.177,23.433L588.111,23.413L588.045,23.393L587.978,23.375L587.911,23.357L587.844,23.34L587.776,23.324L587.708,23.309L587.64,23.295L587.572,23.281L587.502,23.268L587.433,23.256L587.364,23.245L587.294,23.235L587.224,23.226L587.153,23.217L587.083,23.209L587.012,23.203L586.94,23.197L586.869,23.192L586.797,23.188L586.724,23.184L586.651,23.182L586.579,23.181L586.505,23.18L586.432,23.181Z" style="fill:rgb(255,230,230);"/>
            </g>
        </g>
    </g>
</svg>
