<?xml version="1.0" encoding="UTF-8" standalone="no"?>
<!DOCTYPE svg PUBLIC "-//W3C//DTD SVG 1.1//EN" "http://www.w3.org/Graphics/SVG/1.1/DTD/svg11.dtd">
<svg width="29px" height="379px" version="1.1" xmlns="http://www.w3.org/2000/svg" xmlns:xlink="http://www.w3.org/1999/xlink" xml:space="preserve" xmlns:serif="http://www.serif.com/" style="fill-rule:evenodd;clip-rule:evenodd;stroke-linecap:round;stroke-miterlimit:8;">
    <g id="Upstage" transform="matrix(1,0,0,1,-29.9409,-742.52)">
        <g id="Background" transform="matrix(0.664042,0,0,0.998498,15,1.11558)">
            <rect x="0" y="742.52" width="90" height="380" style="fill:white;"/>
        </g>
        <g id="BOTTOM-LABELS" serif:id="BOTTOM LABELS" transform="matrix(0.996063,0,0,1,0.0590551,0)">
            <g id="Out-port-BOX" serif:id="Out port BOX" transform="matrix(0.578311,0,0,1.49194,20.298,741.64)">
                <path d="M65.217,208.318C65.217,207.839 64.209,207.45 62.967,207.45L22.461,207.45C21.219,207.45 20.211,207.839 20.211,208.318L20.211,231.063C20.211,231.542 21.219,231.932 22.461,231.932L62.967,231.932C64.209,231.932 65.217,231.542 65.217,231.063L65.217,208.318Z" style="fill:rgb(230,230,230);stroke:rgb(230,230,230);stroke-width:0.92px;"/>
            </g>
            <g transform="matrix(1.00395,0,0,1,20.1798,1005.79)">
                <path id="OUT-port-label" serif:id="OUT port label" d="M17.68,50.669C17.68,52.076 18.709,53.084 20.116,53.084C21.53,53.084 22.559,52.076 22.559,50.669C22.559,49.262 21.53,48.254 20.116,48.254C18.709,48.254 17.68,49.262 17.68,50.669ZM21.537,50.669C21.537,51.537 20.977,52.202 20.116,52.202C19.255,52.202 18.702,51.537 18.702,50.669C18.702,49.794 19.255,49.136 20.116,49.136C20.977,49.136 21.537,49.794 21.537,50.669Z" style="fill-rule:nonzero;"/>
                <path d="M23.259,51.138C23.259,52.286 23.945,53.084 25.366,53.084C26.787,53.084 27.473,52.293 27.473,51.131L27.473,48.331L26.458,48.331L26.458,51.103C26.458,51.754 26.087,52.202 25.366,52.202C24.645,52.202 24.267,51.754 24.267,51.103L24.267,48.331L23.259,48.331L23.259,51.138Z" style="fill-rule:nonzero;"/>
                <path d="M29.468,53L30.469,53L30.469,49.206L31.827,49.206L31.827,48.331L28.103,48.331L28.103,49.206L29.468,49.206L29.468,53Z" style="fill-rule:nonzero;"/>
            </g>
            <g id="In-port-BOX" serif:id="In port BOX" transform="matrix(0.578311,0,0,1.49194,20.298,697.348)">
                <path d="M65.217,208.318C65.217,207.839 64.209,207.45 62.967,207.45L22.461,207.45C21.219,207.45 20.211,207.839 20.211,208.318L20.211,231.063C20.211,231.542 21.219,231.932 22.461,231.932L62.967,231.932C64.209,231.932 65.217,231.542 65.217,231.063L65.217,208.318Z" style="fill:none;stroke:rgb(230,230,230);stroke-width:0.92px;"/>
            </g>
            <g transform="matrix(1.00395,0,0,1,19.8978,961.498)">
                <rect id="IN-port-label" serif:id="IN port label" x="21.955" y="48.331" width="0.994" height="4.669" style="fill-rule:nonzero;"/>
                <path d="M27.093,53L28.052,53L28.052,48.331L27.058,48.331L27.058,51.264L24.895,48.331L23.873,48.331L23.873,53L24.867,53L24.867,49.955L27.093,53Z" style="fill-rule:nonzero;"/>
            </g>
        </g>
        <g id="TOP-LABELS" serif:id="TOP LABELS" transform="matrix(0.996063,0,0,1,0.0590551,0)">
            <g transform="matrix(1.00395,0,0,1,5.76233,900.198)">
                <rect id="_----label" serif:id="-/+ label" x="34.612" y="50.534" width="2" height="0.9" style="fill-rule:nonzero;"/>
                <path d="M36.862,53.167L37.629,53.167L39.604,47.275L38.837,47.275L36.862,53.167Z" style="fill-rule:nonzero;"/>
                <path d="M42.071,50.517L43.562,50.517L43.562,49.859L42.071,49.859L42.071,48.234L41.346,48.234L41.346,49.859L39.846,49.859L39.846,50.517L41.346,50.517L41.346,52.209L42.071,52.209L42.071,50.517Z" style="fill-rule:nonzero;"/>
            </g>
            <g transform="matrix(1.00395,0,0,1,5.76233,843.387)">
                <path id="Shape-CV-label" serif:id="Shape CV label" d="M37.022,53.084C38.051,53.084 38.639,52.517 38.975,51.936L38.121,51.523C37.925,51.908 37.505,52.202 37.022,52.202C36.175,52.202 35.559,51.551 35.559,50.669C35.559,49.787 36.175,49.136 37.022,49.136C37.505,49.136 37.925,49.437 38.121,49.815L38.975,49.395C38.646,48.814 38.051,48.254 37.022,48.254C35.622,48.254 34.537,49.234 34.537,50.669C34.537,52.104 35.622,53.084 37.022,53.084Z" style="fill-rule:nonzero;"/>
                <path d="M40.851,53L42.097,53L43.896,48.331L42.762,48.331L41.474,51.922L40.179,48.331L39.045,48.331L40.851,53Z" style="fill-rule:nonzero;"/>
            </g>
            <g id="J-CURVE" serif:id="J CURVE" transform="matrix(0.0197183,0,0,0.0215132,42.4189,873.757)">
                <path d="M-102.125,75.403L-54.213,73.85L-28.08,72.814L-1.946,71.001L24.188,68.929L50.321,66.081L76.455,62.196L102.589,57.017L128.722,50.024L154.856,40.961L180.989,28.789L207.123,13.251C211.623,10.951 228.957,-3.89 233.257,-6.69C237.757,-9.69 255.09,-28.569 259.39,-32.069C263.89,-35.869 281.224,-59.363 285.524,-63.663C290.024,-68.363 307.358,-96.949 311.658,-102.249C316.158,-107.749 333.491,-141.469 337.791,-147.569L363.925,-199.103" style="fill:none;stroke:black;stroke-width:60.68px;stroke-linejoin:round;stroke-miterlimit:4;"/>
            </g>
            <g id="SIGMOID" transform="matrix(0.0174776,0,0,0.0190685,42.7122,841.155)">
                <path d="M-132,93L-107.8,92.4L-94.6,92L-81.4,91.3L-68.2,90.5L-55,89.4L-41.8,87.9L-28.6,85.9L-15.4,83.2L-2.2,79.7L11,75L24.2,69C28.7,66.7 33.1,64.1 37.4,61.3C41.9,58.3 46.3,55 50.6,51.5C55.1,47.7 59.5,43.6 63.8,39.3C68.3,34.6 72.7,29.7 77,24.4C81.5,18.9 85.9,13 90.2,6.9L103.4,-13L116.6,-34.9L129.8,-58L138.6,-73.5L151.8,-96.3L165,-117.6L178.2,-136.8C182.5,-142.6 186.9,-148.2 191.4,-153.4C195.7,-158.4 200.1,-163 204.6,-167.4C208.9,-171.5 213.3,-175.3 217.8,-178.7C222.1,-182.1 226.5,-185.1 231,-187.8C235.3,-190.5 239.8,-192.8 244.2,-195L257.4,-200.5L270.6,-204.7L283.8,-207.9L297,-210.3L310.2,-212.2L323.4,-213.5L336.6,-214.6L349.8,-215.3L363,-215.9L374,-216.2L393.8,-216.7" style="fill:none;stroke:black;stroke-width:68.46px;stroke-miterlimit:4;"/>
            </g>
            <g transform="matrix(1.00395,0,0,1,5.76233,736.32)">
                <path id="Shape-knob-label" serif:id="Shape knob label" d="M27.712,52.315C28.142,52.774 28.791,53.088 29.688,53.088C31,53.088 31.569,52.395 31.569,51.586C31.569,50.528 30.614,50.281 29.812,50.076C29.236,49.931 28.74,49.807 28.74,49.427C28.74,49.063 29.061,48.822 29.564,48.822C30.074,48.822 30.592,48.997 30.971,49.376L31.46,48.742C31.008,48.305 30.395,48.064 29.637,48.064C28.572,48.064 27.865,48.684 27.865,49.486C27.865,50.514 28.798,50.747 29.593,50.944C30.184,51.097 30.701,51.228 30.701,51.666C30.701,51.987 30.424,52.33 29.724,52.33C29.046,52.33 28.521,52.016 28.186,51.659L27.712,52.315Z" style="fill-rule:nonzero;"/>
                <path d="M35.74,53L36.593,53L36.593,48.137L35.74,48.137L35.74,50.127L33.21,50.127L33.21,48.137L32.357,48.137L32.357,53L33.21,53L33.21,50.878L35.74,50.878L35.74,53Z" style="fill-rule:nonzero;"/>
                <path d="M41.034,53L42.004,53L40.093,48.137L39.029,48.137L37.118,53L38.088,53L38.445,52.067L40.676,52.067L41.034,53ZM39.561,48.997L40.436,51.316L38.686,51.316L39.561,48.997Z" style="fill-rule:nonzero;"/>
                <path d="M42.536,53L43.389,53L43.389,51.185L44.672,51.185C45.686,51.185 46.262,50.485 46.262,49.661C46.262,48.837 45.693,48.137 44.672,48.137L42.536,48.137L42.536,53ZM45.387,49.661C45.387,50.127 45.037,50.434 44.556,50.434L43.389,50.434L43.389,48.888L44.556,48.888C45.037,48.888 45.387,49.194 45.387,49.661Z" style="fill-rule:nonzero;"/>
                <path d="M46.969,53L50.301,53L50.301,52.249L47.822,52.249L47.822,50.9L50.25,50.9L50.25,50.149L47.822,50.149L47.822,48.888L50.301,48.888L50.301,48.137L46.969,48.137L46.969,53Z" style="fill-rule:nonzero;"/>
            </g>
        </g>
        <g id="TITLES" transform="matrix(0.866438,0,0,0.998498,35.7741,1.11554)">
            <g transform="matrix(1.15415,0,0,1.0015,-42.7602,1059.43)">
                <path id="AUTHOR-NAME" serif:id="AUTHOR NAME" d="M34.777,45.104L37.927,45.104C40.431,45.104 42.168,43.523 42.168,41.115C42.168,38.708 40.431,37.114 37.927,37.114L34.777,37.114L34.777,45.104ZM36.478,43.607L36.478,38.612L37.927,38.612C39.568,38.612 40.431,39.702 40.431,41.115C40.431,42.469 39.508,43.607 37.927,43.607L36.478,43.607Z" style="fill-rule:nonzero;"/>
                <path d="M48.852,45.104L50.565,45.104L50.565,37.114L48.852,37.114L48.852,40.253L45.079,40.253L45.079,37.114L43.378,37.114L43.378,45.104L45.079,45.104L45.079,41.75L48.852,41.75L48.852,45.104Z" style="fill-rule:nonzero;"/>
                <path d="M52.135,45.104L57.789,45.104L57.789,43.607L53.836,43.607L53.836,41.798L57.705,41.798L57.705,40.301L53.836,40.301L53.836,38.612L57.789,38.612L57.789,37.114L52.135,37.114L52.135,45.104Z" style="fill-rule:nonzero;"/>
            </g>
            <g transform="matrix(1.15415,0,0,1.0015,-42.7602,728.231)">
                <path id="PLUGIN-NAME" serif:id="PLUGIN NAME" d="M39.904,39.025C40.646,39.78 41.749,40.295 43.282,40.295C45.438,40.295 46.48,39.193 46.48,37.732C46.48,35.923 44.803,35.527 43.486,35.216C42.623,35.012 41.892,34.845 41.892,34.329C41.892,33.85 42.3,33.527 43.03,33.527C43.845,33.527 44.707,33.802 45.354,34.401L46.301,33.155C45.51,32.425 44.456,32.041 43.186,32.041C41.305,32.041 40.155,33.144 40.155,34.473C40.155,36.294 41.832,36.653 43.138,36.953C44.013,37.169 44.755,37.336 44.755,37.923C44.755,38.378 44.3,38.81 43.366,38.81C42.264,38.81 41.389,38.319 40.826,37.732L39.904,39.025Z" style="fill-rule:nonzero;"/>
                <path d="M46.912,39.516C47.487,40.079 48.253,40.295 49.056,40.295C50.697,40.295 51.871,39.421 51.871,37.528L51.871,32.161L50.17,32.161L50.17,37.504C50.17,38.283 49.679,38.786 48.924,38.786C48.373,38.786 47.966,38.51 47.654,38.211L46.912,39.516Z" style="fill-rule:nonzero;"/>
            </g>
        </g>
    </g>
</svg>
