<?xml version="1.0" encoding="UTF-8" standalone="no"?>
<!DOCTYPE svg PUBLIC "-//W3C//DTD SVG 1.1//EN" "http://www.w3.org/Graphics/SVG/1.1/DTD/svg11.dtd">
<svg width="90px" height="380px" version="1.1" xmlns="http://www.w3.org/2000/svg" xmlns:xlink="http://www.w3.org/1999/xlink" xml:space="preserve" xmlns:serif="http://www.serif.com/" style="fill-rule:evenodd;clip-rule:evenodd;stroke-linejoin:round;stroke-miterlimit:1.41421;">
    <g id="Layer-1" serif:id="Layer 1" transform="matrix(1,0,0,1,0,-742.52)">
        <rect id="rect817" x="0" y="742.52" width="90" height="380" style="fill:rgb(240,240,240);"/>
        <g transform="matrix(1,0,0,1,4.81232,750.5)">
            <path d="M28.662,353.521L31.818,353.521C34.326,353.521 36.066,351.937 36.066,349.525C36.066,347.113 34.326,345.517 31.818,345.517L28.662,345.517L28.662,353.521ZM30.366,352.021L30.366,347.017L31.818,347.017C33.462,347.017 34.326,348.109 34.326,349.525C34.326,350.881 33.402,352.021 31.818,352.021L30.366,352.021Z" style="fill:rgb(51,51,51);fill-rule:nonzero;"/>
            <path d="M42.762,353.521L44.478,353.521L44.478,345.517L42.762,345.517L42.762,348.661L38.982,348.661L38.982,345.517L37.278,345.517L37.278,353.521L38.982,353.521L38.982,350.161L42.762,350.161L42.762,353.521Z" style="fill:rgb(51,51,51);fill-rule:nonzero;"/>
            <path d="M46.05,353.521L51.714,353.521L51.714,352.021L47.754,352.021L47.754,350.209L51.63,350.209L51.63,348.709L47.754,348.709L47.754,347.017L51.714,347.017L51.714,345.517L46.05,345.517L46.05,353.521Z" style="fill:rgb(51,51,51);fill-rule:nonzero;"/>
        </g>
        <g transform="matrix(1,0,0,1,-1.116,414.713)">
            <path d="M28.122,352.393C28.866,353.149 29.97,353.665 31.506,353.665C33.666,353.665 34.71,352.561 34.71,351.097C34.71,349.285 33.03,348.889 31.71,348.577C30.846,348.373 30.114,348.205 30.114,347.689C30.114,347.209 30.522,346.885 31.254,346.885C32.07,346.885 32.934,347.161 33.582,347.761L34.53,346.513C33.738,345.781 32.682,345.397 31.41,345.397C29.526,345.397 28.374,346.501 28.374,347.833C28.374,349.657 30.054,350.017 31.362,350.317C32.238,350.533 32.982,350.701 32.982,351.289C32.982,351.745 32.526,352.177 31.59,352.177C30.486,352.177 29.61,351.685 29.046,351.097L28.122,352.393Z" style="fill:rgb(51,51,51);fill-rule:nonzero;"/>
            <path d="M37.626,353.521L39.342,353.521L39.342,347.017L41.67,347.017L41.67,345.517L35.286,345.517L35.286,347.017L37.626,347.017L37.626,353.521Z" style="fill:rgb(51,51,51);fill-rule:nonzero;"/>
            <path d="M47.514,353.521L49.458,353.521L46.374,345.517L44.238,345.517L41.142,353.521L43.086,353.521L43.59,352.165L47.022,352.165L47.514,353.521ZM45.306,347.221L46.554,350.665L44.058,350.665L45.306,347.221Z" style="fill:rgb(51,51,51);fill-rule:nonzero;"/>
            <path d="M49.41,349.525C49.41,352.045 51.33,353.677 53.67,353.677C55.122,353.677 56.262,353.077 57.078,352.165L57.078,349.093L53.262,349.093L53.262,350.581L55.374,350.581L55.374,351.541C55.05,351.841 54.378,352.153 53.67,352.153C52.218,352.153 51.162,351.037 51.162,349.525C51.162,348.013 52.218,346.897 53.67,346.897C54.522,346.897 55.206,347.377 55.566,347.941L56.982,347.173C56.382,346.225 55.338,345.385 53.67,345.385C51.33,345.385 49.41,346.993 49.41,349.525Z" style="fill:rgb(51,51,51);fill-rule:nonzero;"/>
            <path d="M58.434,353.521L64.098,353.521L64.098,352.021L60.138,352.021L60.138,350.209L64.014,350.209L64.014,348.709L60.138,348.709L60.138,347.017L64.098,347.017L64.098,345.517L58.434,345.517L58.434,353.521Z" style="fill:rgb(51,51,51);fill-rule:nonzero;"/>
        </g>
        <g transform="matrix(1,0,0,1,30.3526,757.022)">
            <path d="M27.574,213.058C27.574,214.465 28.603,215.473 30.01,215.473C31.424,215.473 32.453,214.465 32.453,213.058C32.453,211.651 31.424,210.643 30.01,210.643C28.603,210.643 27.574,211.651 27.574,213.058ZM31.431,213.058C31.431,213.926 30.871,214.591 30.01,214.591C29.149,214.591 28.596,213.926 28.596,213.058C28.596,212.183 29.149,211.525 30.01,211.525C30.871,211.525 31.431,212.183 31.431,213.058Z" style="fill-rule:nonzero;"/>
            <path d="M33.153,213.527C33.153,214.675 33.839,215.473 35.26,215.473C36.681,215.473 37.367,214.682 37.367,213.52L37.367,210.72L36.352,210.72L36.352,213.492C36.352,214.143 35.981,214.591 35.26,214.591C34.539,214.591 34.161,214.143 34.161,213.492L34.161,210.72L33.153,210.72L33.153,213.527Z" style="fill-rule:nonzero;"/>
            <path d="M39.362,215.389L40.363,215.389L40.363,211.595L41.721,211.595L41.721,210.72L37.997,210.72L37.997,211.595L39.362,211.595L39.362,215.389Z" style="fill-rule:nonzero;"/>
        </g>
        <g transform="matrix(1,0,0,1,30.3771,800.022)">
            <path d="M27.798,215.389L31.102,215.389L31.102,214.514L28.792,214.514L28.792,213.457L31.053,213.457L31.053,212.582L28.792,212.582L28.792,211.595L31.102,211.595L31.102,210.72L27.798,210.72L27.798,215.389Z" style="fill-rule:nonzero;"/>
            <path d="M31.655,213.058C31.655,214.465 32.684,215.473 34.091,215.473C35.505,215.473 36.534,214.465 36.534,213.058C36.534,211.651 35.505,210.643 34.091,210.643C32.684,210.643 31.655,211.651 31.655,213.058ZM35.512,213.058C35.512,213.926 34.952,214.591 34.091,214.591C33.23,214.591 32.677,213.926 32.677,213.058C32.677,212.183 33.23,211.525 34.091,211.525C34.952,211.525 35.512,212.183 35.512,213.058Z" style="fill-rule:nonzero;"/>
            <path d="M39.495,215.473C40.524,215.473 41.112,214.906 41.448,214.325L40.594,213.912C40.398,214.297 39.978,214.591 39.495,214.591C38.648,214.591 38.032,213.94 38.032,213.058C38.032,212.176 38.648,211.525 39.495,211.525C39.978,211.525 40.398,211.826 40.594,212.204L41.448,211.784C41.119,211.203 40.524,210.643 39.495,210.643C38.095,210.643 37.01,211.623 37.01,213.058C37.01,214.493 38.095,215.473 39.495,215.473Z" style="fill-rule:nonzero;"/>
        </g>
        <g transform="matrix(1,0,0,1,25.7291,843.022)">
            <path d="M31.018,215.389L32.152,215.389L30.353,210.72L29.107,210.72L27.301,215.389L28.435,215.389L28.729,214.598L30.731,214.598L31.018,215.389ZM29.73,211.714L30.458,213.723L29.002,213.723L29.73,211.714Z" style="fill-rule:nonzero;"/>
            <path d="M34.609,215.473C35.638,215.473 36.226,214.906 36.562,214.325L35.708,213.912C35.512,214.297 35.092,214.591 34.609,214.591C33.762,214.591 33.146,213.94 33.146,213.058C33.146,212.176 33.762,211.525 34.609,211.525C35.092,211.525 35.512,211.826 35.708,212.204L36.562,211.784C36.233,211.203 35.638,210.643 34.609,210.643C33.209,210.643 32.124,211.623 32.124,213.058C32.124,214.493 33.209,215.473 34.609,215.473Z" style="fill-rule:nonzero;"/>
            <path d="M38.235,215.389L39.236,215.389L39.236,211.595L40.594,211.595L40.594,210.72L36.87,210.72L36.87,211.595L38.235,211.595L38.235,215.389Z" style="fill-rule:nonzero;"/>
            <rect x="41.231" y="210.72" width="0.994" height="4.669" style="fill-rule:nonzero;"/>
            <path d="M44.458,215.389L45.704,215.389L47.503,210.72L46.369,210.72L45.081,214.311L43.786,210.72L42.652,210.72L44.458,215.389Z" style="fill-rule:nonzero;"/>
            <path d="M47.937,215.389L51.241,215.389L51.241,214.514L48.931,214.514L48.931,213.457L51.192,213.457L51.192,212.582L48.931,212.582L48.931,211.595L51.241,211.595L51.241,210.72L47.937,210.72L47.937,215.389Z" style="fill-rule:nonzero;"/>
        </g>
        <g transform="matrix(1,0,0,1,2.98956,690.022)">
            <path d="M30.855,215.497C32.07,215.497 32.808,214.867 33.267,214.147L32.367,213.688C32.079,214.192 31.503,214.561 30.855,214.561C29.667,214.561 28.785,213.652 28.785,212.392C28.785,211.132 29.667,210.223 30.855,210.223C31.503,210.223 32.079,210.601 32.367,211.096L33.267,210.637C32.817,209.917 32.07,209.287 30.855,209.287C29.082,209.287 27.705,210.547 27.705,212.392C27.705,214.237 29.082,215.497 30.855,215.497Z" style="fill-rule:nonzero;"/>
            <path d="M34.113,213.022C34.113,214.498 34.968,215.497 36.714,215.497C38.451,215.497 39.306,214.507 39.306,213.013L39.306,209.386L38.244,209.386L38.244,212.986C38.244,213.94 37.713,214.561 36.714,214.561C35.706,214.561 35.175,213.94 35.175,212.986L35.175,209.386L34.113,209.386L34.113,213.022Z" style="fill-rule:nonzero;"/>
            <path d="M44.013,215.389L45.228,215.389L43.761,213.031C44.481,212.914 45.183,212.338 45.183,211.267C45.183,210.16 44.409,209.386 43.221,209.386L40.584,209.386L40.584,215.389L41.637,215.389L41.637,213.148L42.681,213.148L44.013,215.389ZM44.103,211.267C44.103,211.843 43.671,212.221 43.077,212.221L41.637,212.221L41.637,210.313L43.077,210.313C43.671,210.313 44.103,210.691 44.103,211.267Z" style="fill-rule:nonzero;"/>
            <path d="M47.874,215.389L49.188,215.389L51.546,209.386L50.349,209.386L48.531,214.246L46.713,209.386L45.516,209.386L47.874,215.389Z" style="fill-rule:nonzero;"/>
            <path d="M52.203,215.389L56.316,215.389L56.316,214.462L53.256,214.462L53.256,212.797L56.253,212.797L56.253,211.87L53.256,211.87L53.256,210.313L56.316,210.313L56.316,209.386L52.203,209.386L52.203,215.389Z" style="fill-rule:nonzero;"/>
        </g>
        <g transform="matrix(1,0,0,1,-5.84644,757.13)">
            <rect x="27.798" y="210.72" width="0.994" height="4.669" style="fill-rule:nonzero;"/>
            <path d="M32.936,215.389L33.895,215.389L33.895,210.72L32.901,210.72L32.901,213.653L30.738,210.72L29.716,210.72L29.716,215.389L30.71,215.389L30.71,212.344L32.936,215.389Z" style="fill-rule:nonzero;"/>
        </g>
        <g transform="matrix(1,0,0,1,-10.0254,800.013)">
            <path d="M28.876,215.389L29.877,215.389L29.877,211.595L31.235,211.595L31.235,210.72L27.511,210.72L27.511,211.595L28.876,211.595L28.876,215.389Z" style="fill-rule:nonzero;"/>
            <path d="M34.511,215.389L35.652,215.389L34.602,213.611C35.106,213.492 35.624,213.051 35.624,212.225C35.624,211.357 35.029,210.72 34.056,210.72L31.872,210.72L31.872,215.389L32.866,215.389L32.866,213.73L33.594,213.73L34.511,215.389ZM34.609,212.225C34.609,212.617 34.308,212.855 33.909,212.855L32.866,212.855L32.866,211.595L33.909,211.595C34.308,211.595 34.609,211.833 34.609,212.225Z" style="fill-rule:nonzero;"/>
            <rect x="36.373" y="210.72" width="0.994" height="4.669" style="fill-rule:nonzero;"/>
            <path d="M38.067,213.058C38.067,214.528 39.187,215.48 40.552,215.48C41.399,215.48 42.064,215.13 42.54,214.598L42.54,212.806L40.314,212.806L40.314,213.674L41.546,213.674L41.546,214.234C41.357,214.409 40.965,214.591 40.552,214.591C39.705,214.591 39.089,213.94 39.089,213.058C39.089,212.176 39.705,211.525 40.552,211.525C41.049,211.525 41.448,211.805 41.658,212.134L42.484,211.686C42.134,211.133 41.525,210.643 40.552,210.643C39.187,210.643 38.067,211.581 38.067,213.058Z" style="fill-rule:nonzero;"/>
        </g>
        <g transform="matrix(1,0,0,1,-10.9564,843.022)">
            <path d="M27.798,215.389L28.792,215.389L28.792,213.73L29.982,213.73C30.99,213.73 31.55,213.037 31.55,212.225C31.55,211.406 30.997,210.72 29.982,210.72L27.798,210.72L27.798,215.389ZM30.535,212.225C30.535,212.61 30.241,212.855 29.849,212.855L28.792,212.855L28.792,211.595L29.849,211.595C30.241,211.595 30.535,211.833 30.535,212.225Z" style="fill-rule:nonzero;"/>
            <path d="M34.868,215.389L36.002,215.389L34.203,210.72L32.957,210.72L31.151,215.389L32.285,215.389L32.579,214.598L34.581,214.598L34.868,215.389ZM33.58,211.714L34.308,213.723L32.852,213.723L33.58,211.714Z" style="fill-rule:nonzero;"/>
            <path d="M36.072,214.731C36.506,215.172 37.15,215.473 38.046,215.473C39.306,215.473 39.915,214.829 39.915,213.975C39.915,212.918 38.935,212.687 38.165,212.505C37.661,212.386 37.234,212.288 37.234,211.987C37.234,211.707 37.472,211.518 37.899,211.518C38.375,211.518 38.879,211.679 39.257,212.029L39.81,211.301C39.348,210.874 38.732,210.65 37.99,210.65C36.891,210.65 36.219,211.294 36.219,212.071C36.219,213.135 37.199,213.345 37.962,213.52C38.473,213.646 38.907,213.744 38.907,214.087C38.907,214.353 38.641,214.605 38.095,214.605C37.451,214.605 36.94,214.318 36.611,213.975L36.072,214.731Z" style="fill-rule:nonzero;"/>
            <path d="M40.272,214.731C40.706,215.172 41.35,215.473 42.246,215.473C43.506,215.473 44.115,214.829 44.115,213.975C44.115,212.918 43.135,212.687 42.365,212.505C41.861,212.386 41.434,212.288 41.434,211.987C41.434,211.707 41.672,211.518 42.099,211.518C42.575,211.518 43.079,211.679 43.457,212.029L44.01,211.301C43.548,210.874 42.932,210.65 42.19,210.65C41.091,210.65 40.419,211.294 40.419,212.071C40.419,213.135 41.399,213.345 42.162,213.52C42.673,213.646 43.107,213.744 43.107,214.087C43.107,214.353 42.841,214.605 42.295,214.605C41.651,214.605 41.14,214.318 40.811,213.975L40.272,214.731Z" style="fill-rule:nonzero;"/>
        </g>
        <g transform="matrix(1,0,0,1,16.5817,656.13)">
            <path d="M21.632,139.389L22.847,139.389L21.38,137.031C22.1,136.914 22.802,136.338 22.802,135.267C22.802,134.16 22.028,133.386 20.84,133.386L18.203,133.386L18.203,139.389L19.256,139.389L19.256,137.148L20.3,137.148L21.632,139.389ZM21.722,135.267C21.722,135.843 21.29,136.221 20.696,136.221L19.256,136.221L19.256,134.313L20.696,134.313C21.29,134.313 21.722,134.691 21.722,135.267Z" style="fill-rule:nonzero;"/>
            <path d="M28.058,139.389L29.255,139.389L26.897,133.386L25.583,133.386L23.225,139.389L24.422,139.389L24.863,138.237L27.617,138.237L28.058,139.389ZM26.24,134.448L27.32,137.31L25.16,137.31L26.24,134.448Z" style="fill-rule:nonzero;"/>
            <path d="M30.758,139.389L31.811,139.389L31.811,134.313L33.629,134.313L33.629,133.386L28.94,133.386L28.94,134.313L30.758,134.313L30.758,139.389Z" style="fill-rule:nonzero;"/>
            <path d="M34.52,139.389L38.633,139.389L38.633,138.462L35.573,138.462L35.573,136.797L38.57,136.797L38.57,135.87L35.573,135.87L35.573,134.313L38.633,134.313L38.633,133.386L34.52,133.386L34.52,139.389Z" style="fill-rule:nonzero;"/>
        </g>
        <g transform="matrix(1,0,0,1,9.81024,787.19)">
            <path d="M22.792,63.329L26.491,63.329L26.491,62.402L23.845,62.402L23.845,57.326L22.792,57.326L22.792,63.329Z" style="fill-rule:nonzero;"/>
            <path d="M27.445,63.329L31.558,63.329L31.558,62.402L28.498,62.402L28.498,60.737L31.495,60.737L31.495,59.81L28.498,59.81L28.498,58.253L31.558,58.253L31.558,57.326L27.445,57.326L27.445,63.329Z" style="fill-rule:nonzero;"/>
            <path d="M34.366,63.329L35.68,63.329L38.038,57.326L36.841,57.326L35.023,62.186L33.205,57.326L32.008,57.326L34.366,63.329Z" style="fill-rule:nonzero;"/>
            <path d="M38.695,63.329L42.808,63.329L42.808,62.402L39.748,62.402L39.748,60.737L42.745,60.737L42.745,59.81L39.748,59.81L39.748,58.253L42.808,58.253L42.808,57.326L38.695,57.326L38.695,63.329Z" style="fill-rule:nonzero;"/>
            <path d="M43.888,63.329L47.587,63.329L47.587,62.402L44.941,62.402L44.941,57.326L43.888,57.326L43.888,63.329Z" style="fill-rule:nonzero;"/>
        </g>
    </g>
</svg>
