<?xml version="1.0" encoding="UTF-8" standalone="no"?>
<!DOCTYPE svg PUBLIC "-//W3C//DTD SVG 1.1//EN" "http://www.w3.org/Graphics/SVG/1.1/DTD/svg11.dtd">
<svg width="90px" height="380px" version="1.1" xmlns="http://www.w3.org/2000/svg" xmlns:xlink="http://www.w3.org/1999/xlink" xml:space="preserve" xmlns:serif="http://www.serif.com/" style="fill-rule:evenodd;clip-rule:evenodd;stroke-linejoin:round;stroke-miterlimit:1.41421;">
    <g id="Layer-1" serif:id="Layer 1" transform="matrix(1,0,0,1,0,-742.52)">
        <rect id="rect817" x="0" y="742.52" width="90" height="380" style="fill:rgb(240,240,240);"/>
        <rect id="rect8171" serif:id="rect817" x="0" y="742.52" width="90" height="380" style="fill:rgb(240,240,240);"/>
        <g transform="matrix(1,0,0,1,-1.10968,416.564)">
            <path d="M28.122,352.393C28.866,353.149 29.97,353.665 31.506,353.665C33.666,353.665 34.71,352.561 34.71,351.097C34.71,349.285 33.03,348.889 31.71,348.577C30.846,348.373 30.114,348.205 30.114,347.689C30.114,347.209 30.522,346.885 31.254,346.885C32.07,346.885 32.934,347.161 33.582,347.761L34.53,346.513C33.738,345.781 32.682,345.397 31.41,345.397C29.526,345.397 28.374,346.501 28.374,347.833C28.374,349.657 30.054,350.017 31.362,350.317C32.238,350.533 32.982,350.701 32.982,351.289C32.982,351.745 32.526,352.177 31.59,352.177C30.486,352.177 29.61,351.685 29.046,351.097L28.122,352.393Z" style="fill-rule:nonzero;"/>
            <path d="M37.626,353.521L39.342,353.521L39.342,347.017L41.67,347.017L41.67,345.517L35.286,345.517L35.286,347.017L37.626,347.017L37.626,353.521Z" style="fill-rule:nonzero;"/>
            <path d="M47.514,353.521L49.458,353.521L46.374,345.517L44.238,345.517L41.142,353.521L43.086,353.521L43.59,352.165L47.022,352.165L47.514,353.521ZM45.306,347.221L46.554,350.665L44.058,350.665L45.306,347.221Z" style="fill-rule:nonzero;"/>
            <path d="M49.41,349.525C49.41,352.045 51.33,353.677 53.67,353.677C55.122,353.677 56.262,353.077 57.078,352.165L57.078,349.093L53.262,349.093L53.262,350.581L55.374,350.581L55.374,351.541C55.05,351.841 54.378,352.153 53.67,352.153C52.218,352.153 51.162,351.037 51.162,349.525C51.162,348.013 52.218,346.897 53.67,346.897C54.522,346.897 55.206,347.377 55.566,347.941L56.982,347.173C56.382,346.225 55.338,345.385 53.67,345.385C51.33,345.385 49.41,346.993 49.41,349.525Z" style="fill-rule:nonzero;"/>
            <path d="M58.434,353.521L64.098,353.521L64.098,352.021L60.138,352.021L60.138,350.209L64.014,350.209L64.014,348.709L60.138,348.709L60.138,347.017L64.098,347.017L64.098,345.517L58.434,345.517L58.434,353.521Z" style="fill-rule:nonzero;"/>
            <rect x="27.87" y="354.997" width="36.768" height="0.24"/>
        </g>
        <g transform="matrix(1,0,0,1,24.1922,755.292)">
            <path d="M27.705,212.392C27.705,214.183 28.974,215.497 30.774,215.497C32.574,215.497 33.843,214.183 33.843,212.392C33.843,210.601 32.574,209.287 30.774,209.287C28.974,209.287 27.705,210.601 27.705,212.392ZM32.763,212.392C32.763,213.625 31.98,214.561 30.774,214.561C29.559,214.561 28.785,213.625 28.785,212.392C28.785,211.15 29.559,210.223 30.774,210.223C31.98,210.223 32.763,211.15 32.763,212.392Z" style="fill-rule:nonzero;"/>
            <path d="M34.86,213.022C34.86,214.498 35.715,215.497 37.461,215.497C39.198,215.497 40.053,214.507 40.053,213.013L40.053,209.386L38.991,209.386L38.991,212.986C38.991,213.94 38.46,214.561 37.461,214.561C36.453,214.561 35.922,213.94 35.922,212.986L35.922,209.386L34.86,209.386L34.86,213.022Z" style="fill-rule:nonzero;"/>
            <path d="M42.762,215.389L43.815,215.389L43.815,210.313L45.633,210.313L45.633,209.386L40.944,209.386L40.944,210.313L42.762,210.313L42.762,215.389Z" style="fill-rule:nonzero;"/>
        </g>
        <g transform="matrix(1,0,0,1,24.4385,803.619)">
            <path d="M27.975,215.389L32.088,215.389L32.088,214.462L29.028,214.462L29.028,212.797L32.025,212.797L32.025,211.87L29.028,211.87L29.028,210.313L32.088,210.313L32.088,209.386L27.975,209.386L27.975,215.389Z" style="fill-rule:nonzero;"/>
            <path d="M32.898,212.392C32.898,214.183 34.167,215.497 35.967,215.497C37.767,215.497 39.036,214.183 39.036,212.392C39.036,210.601 37.767,209.287 35.967,209.287C34.167,209.287 32.898,210.601 32.898,212.392ZM37.956,212.392C37.956,213.625 37.173,214.561 35.967,214.561C34.752,214.561 33.978,213.625 33.978,212.392C33.978,211.15 34.752,210.223 35.967,210.223C37.173,210.223 37.956,211.15 37.956,212.392Z" style="fill-rule:nonzero;"/>
            <path d="M42.933,215.497C44.148,215.497 44.886,214.867 45.345,214.147L44.445,213.688C44.157,214.192 43.581,214.561 42.933,214.561C41.745,214.561 40.863,213.652 40.863,212.392C40.863,211.132 41.745,210.223 42.933,210.223C43.581,210.223 44.157,210.601 44.445,211.096L45.345,210.637C44.895,209.917 44.148,209.287 42.933,209.287C41.16,209.287 39.783,210.547 39.783,212.392C39.783,214.237 41.16,215.497 42.933,215.497Z" style="fill-rule:nonzero;"/>
        </g>
        <g transform="matrix(1,0,0,1,18.6021,845.463)">
            <path d="M32.178,215.389L33.375,215.389L31.017,209.386L29.703,209.386L27.345,215.389L28.542,215.389L28.983,214.237L31.737,214.237L32.178,215.389ZM30.36,210.448L31.44,213.31L29.28,213.31L30.36,210.448Z" style="fill-rule:nonzero;"/>
            <path d="M36.597,215.497C37.812,215.497 38.55,214.867 39.009,214.147L38.109,213.688C37.821,214.192 37.245,214.561 36.597,214.561C35.409,214.561 34.527,213.652 34.527,212.392C34.527,211.132 35.409,210.223 36.597,210.223C37.245,210.223 37.821,210.601 38.109,211.096L39.009,210.637C38.559,209.917 37.812,209.287 36.597,209.287C34.824,209.287 33.447,210.547 33.447,212.392C33.447,214.237 34.824,215.497 36.597,215.497Z" style="fill-rule:nonzero;"/>
            <path d="M41.286,215.389L42.339,215.389L42.339,210.313L44.157,210.313L44.157,209.386L39.468,209.386L39.468,210.313L41.286,210.313L41.286,215.389Z" style="fill-rule:nonzero;"/>
            <rect x="45.048" y="209.386" width="1.053" height="6.003" style="fill-rule:nonzero;"/>
            <path d="M49.107,215.389L50.421,215.389L52.779,209.386L51.582,209.386L49.764,214.246L47.946,209.386L46.749,209.386L49.107,215.389Z" style="fill-rule:nonzero;"/>
            <path d="M53.436,215.389L57.549,215.389L57.549,214.462L54.489,214.462L54.489,212.797L57.486,212.797L57.486,211.87L54.489,211.87L54.489,210.313L57.549,210.313L57.549,209.386L53.436,209.386L53.436,215.389Z" style="fill-rule:nonzero;"/>
        </g>
        <g transform="matrix(1,0,0,1,2.98956,690.022)">
            <path d="M30.855,215.497C32.07,215.497 32.808,214.867 33.267,214.147L32.367,213.688C32.079,214.192 31.503,214.561 30.855,214.561C29.667,214.561 28.785,213.652 28.785,212.392C28.785,211.132 29.667,210.223 30.855,210.223C31.503,210.223 32.079,210.601 32.367,211.096L33.267,210.637C32.817,209.917 32.07,209.287 30.855,209.287C29.082,209.287 27.705,210.547 27.705,212.392C27.705,214.237 29.082,215.497 30.855,215.497Z" style="fill-rule:nonzero;"/>
            <path d="M34.113,213.022C34.113,214.498 34.968,215.497 36.714,215.497C38.451,215.497 39.306,214.507 39.306,213.013L39.306,209.386L38.244,209.386L38.244,212.986C38.244,213.94 37.713,214.561 36.714,214.561C35.706,214.561 35.175,213.94 35.175,212.986L35.175,209.386L34.113,209.386L34.113,213.022Z" style="fill-rule:nonzero;"/>
            <path d="M44.013,215.389L45.228,215.389L43.761,213.031C44.481,212.914 45.183,212.338 45.183,211.267C45.183,210.16 44.409,209.386 43.221,209.386L40.584,209.386L40.584,215.389L41.637,215.389L41.637,213.148L42.681,213.148L44.013,215.389ZM44.103,211.267C44.103,211.843 43.671,212.221 43.077,212.221L41.637,212.221L41.637,210.313L43.077,210.313C43.671,210.313 44.103,210.691 44.103,211.267Z" style="fill-rule:nonzero;"/>
            <path d="M47.874,215.389L49.188,215.389L51.546,209.386L50.349,209.386L48.531,214.246L46.713,209.386L45.516,209.386L47.874,215.389Z" style="fill-rule:nonzero;"/>
            <path d="M52.203,215.389L56.316,215.389L56.316,214.462L53.256,214.462L53.256,212.797L56.253,212.797L56.253,211.87L53.256,211.87L53.256,210.313L56.316,210.313L56.316,209.386L52.203,209.386L52.203,215.389Z" style="fill-rule:nonzero;"/>
        </g>
        <g transform="matrix(1,0,0,1,-11.8145,755.072)">
            <rect x="27.975" y="209.386" width="1.053" height="6.003" style="fill-rule:nonzero;"/>
            <path d="M34.491,215.389L35.508,215.389L35.508,209.386L34.455,209.386L34.455,213.553L31.386,209.386L30.306,209.386L30.306,215.389L31.359,215.389L31.359,211.105L34.491,215.389Z" style="fill-rule:nonzero;"/>
        </g>
        <g transform="matrix(1,0,0,1,-14.6917,802.954)">
            <path d="M29.406,215.389L30.459,215.389L30.459,210.313L32.277,210.313L32.277,209.386L27.588,209.386L27.588,210.313L29.406,210.313L29.406,215.389Z" style="fill-rule:nonzero;"/>
            <path d="M36.597,215.389L37.812,215.389L36.345,213.031C37.065,212.914 37.767,212.338 37.767,211.267C37.767,210.16 36.993,209.386 35.805,209.386L33.168,209.386L33.168,215.389L34.221,215.389L34.221,213.148L35.265,213.148L36.597,215.389ZM36.687,211.267C36.687,211.843 36.255,212.221 35.661,212.221L34.221,212.221L34.221,210.313L35.661,210.313C36.255,210.313 36.687,210.691 36.687,211.267Z" style="fill-rule:nonzero;"/>
            <rect x="38.82" y="209.386" width="1.053" height="6.003" style="fill-rule:nonzero;"/>
            <path d="M40.881,212.392C40.881,214.273 42.294,215.506 44.031,215.506C45.075,215.506 45.912,215.074 46.506,214.417L46.506,212.167L43.662,212.167L43.662,213.094L45.453,213.094L45.453,214.03C45.183,214.282 44.643,214.57 44.031,214.57C42.843,214.57 41.961,213.652 41.961,212.392C41.961,211.132 42.843,210.223 44.031,210.223C44.706,210.223 45.273,210.574 45.588,211.024L46.452,210.538C45.966,209.845 45.201,209.287 44.031,209.287C42.294,209.287 40.881,210.511 40.881,212.392Z" style="fill-rule:nonzero;"/>
        </g>
        <g transform="matrix(1,0,0,1,-16.5392,844.545)">
            <path d="M27.975,215.389L29.028,215.389L29.028,213.148L30.612,213.148C31.863,213.148 32.574,212.284 32.574,211.267C32.574,210.25 31.872,209.386 30.612,209.386L27.975,209.386L27.975,215.389ZM31.494,211.267C31.494,211.843 31.062,212.221 30.468,212.221L29.028,212.221L29.028,210.313L30.468,210.313C31.062,210.313 31.494,210.691 31.494,211.267Z" style="fill-rule:nonzero;"/>
            <path d="M36.975,215.389L38.172,215.389L35.814,209.386L34.5,209.386L32.142,215.389L33.339,215.389L33.78,214.237L36.534,214.237L36.975,215.389ZM35.157,210.448L36.237,213.31L34.077,213.31L35.157,210.448Z" style="fill-rule:nonzero;"/>
            <path d="M38.352,214.543C38.883,215.11 39.684,215.497 40.791,215.497C42.411,215.497 43.113,214.642 43.113,213.643C43.113,212.338 41.934,212.032 40.944,211.78C40.233,211.6 39.621,211.447 39.621,210.979C39.621,210.529 40.017,210.232 40.638,210.232C41.268,210.232 41.907,210.448 42.375,210.916L42.978,210.133C42.42,209.593 41.664,209.296 40.728,209.296C39.414,209.296 38.541,210.061 38.541,211.051C38.541,212.32 39.693,212.608 40.674,212.851C41.403,213.04 42.042,213.202 42.042,213.742C42.042,214.138 41.7,214.561 40.836,214.561C39.999,214.561 39.351,214.174 38.937,213.733L38.352,214.543Z" style="fill-rule:nonzero;"/>
            <path d="M43.698,214.543C44.229,215.11 45.03,215.497 46.137,215.497C47.757,215.497 48.459,214.642 48.459,213.643C48.459,212.338 47.28,212.032 46.29,211.78C45.579,211.6 44.967,211.447 44.967,210.979C44.967,210.529 45.363,210.232 45.984,210.232C46.614,210.232 47.253,210.448 47.721,210.916L48.324,210.133C47.766,209.593 47.01,209.296 46.074,209.296C44.76,209.296 43.887,210.061 43.887,211.051C43.887,212.32 45.039,212.608 46.02,212.851C46.749,213.04 47.388,213.202 47.388,213.742C47.388,214.138 47.046,214.561 46.182,214.561C45.345,214.561 44.697,214.174 44.283,213.733L43.698,214.543Z" style="fill-rule:nonzero;"/>
        </g>
        <g transform="matrix(1,0,0,1,17.4142,656.13)">
            <path d="M19.634,139.389L20.687,139.389L20.687,134.313L22.505,134.313L22.505,133.386L17.816,133.386L17.816,134.313L19.634,134.313L19.634,139.389Z" style="fill-rule:nonzero;"/>
            <rect x="23.396" y="133.386" width="1.053" height="6.003" style="fill-rule:nonzero;"/>
            <path d="M30.911,139.389L31.964,139.389L31.964,133.386L30.479,133.386L28.841,137.337L27.212,133.386L25.727,133.386L25.727,139.389L26.78,139.389L26.78,134.934L28.616,139.389L29.066,139.389L30.911,134.934L30.911,139.389Z" style="fill-rule:nonzero;"/>
            <path d="M33.242,139.389L37.355,139.389L37.355,138.462L34.295,138.462L34.295,136.797L37.292,136.797L37.292,135.87L34.295,135.87L34.295,134.313L37.355,134.313L37.355,133.386L33.242,133.386L33.242,139.389Z" style="fill-rule:nonzero;"/>
        </g>
        <g transform="matrix(1,0,0,1,13.6847,787.19)">
            <path d="M22.792,63.329L26.905,63.329L26.905,62.402L23.845,62.402L23.845,60.737L26.842,60.737L26.842,59.81L23.845,59.81L23.845,58.253L26.905,58.253L26.905,57.326L22.792,57.326L22.792,63.329Z" style="fill-rule:nonzero;"/>
            <path d="M32.17,63.329L33.187,63.329L33.187,57.326L32.134,57.326L32.134,61.493L29.065,57.326L27.985,57.326L27.985,63.329L29.038,63.329L29.038,59.045L32.17,63.329Z" style="fill-rule:nonzero;"/>
            <path d="M34.465,63.329L36.697,63.329C38.569,63.329 39.838,62.096 39.838,60.332C39.838,58.568 38.569,57.326 36.697,57.326L34.465,57.326L34.465,63.329ZM35.518,62.402L35.518,58.253L36.697,58.253C38.038,58.253 38.758,59.171 38.758,60.332C38.758,61.466 38.002,62.402 36.697,62.402L35.518,62.402Z" style="fill-rule:nonzero;"/>
        </g>
        <g transform="matrix(1,0,0,1,4.81232,751.52)">
            <path d="M28.662,353.521L31.818,353.521C34.326,353.521 36.066,351.937 36.066,349.525C36.066,347.113 34.326,345.517 31.818,345.517L28.662,345.517L28.662,353.521ZM30.366,352.021L30.366,347.017L31.818,347.017C33.462,347.017 34.326,348.109 34.326,349.525C34.326,350.881 33.402,352.021 31.818,352.021L30.366,352.021Z" style="fill-rule:nonzero;"/>
            <path d="M42.762,353.521L44.478,353.521L44.478,345.517L42.762,345.517L42.762,348.661L38.982,348.661L38.982,345.517L37.278,345.517L37.278,353.521L38.982,353.521L38.982,350.161L42.762,350.161L42.762,353.521Z" style="fill-rule:nonzero;"/>
            <path d="M46.05,353.521L51.714,353.521L51.714,352.021L47.754,352.021L47.754,350.209L51.63,350.209L51.63,348.709L47.754,348.709L47.754,347.017L51.714,347.017L51.714,345.517L46.05,345.517L46.05,353.521Z" style="fill-rule:nonzero;"/>
            <rect x="27.87" y="354.997" width="24.384" height="0.24"/>
        </g>
    </g>
</svg>
