<?xml version="1.0" encoding="UTF-8" standalone="no"?>
<!DOCTYPE svg PUBLIC "-//W3C//DTD SVG 1.1//EN" "http://www.w3.org/Graphics/SVG/1.1/DTD/svg11.dtd">
<svg width="61px" height="380px" version="1.1" xmlns="http://www.w3.org/2000/svg" xmlns:xlink="http://www.w3.org/1999/xlink" xml:space="preserve" xmlns:serif="http://www.serif.com/" style="fill-rule:evenodd;clip-rule:evenodd;stroke-linecap:round;stroke-linejoin:round;stroke-miterlimit:1.5;">
    <g transform="matrix(1,0,0,1,-132,0)">
        <g id="Stage" transform="matrix(2.35982,0,0,12.5786,437.292,-86.6018)">
            <rect x="-129.001" y="6.885" width="25.326" height="30.165" style="fill:none;"/>
            <clipPath id="_clip1">
                <rect x="-129.001" y="6.885" width="25.326" height="30.165"/>
            </clipPath>
            <g clip-path="url(#_clip1)">
                <g id="Background" transform="matrix(0.513426,0,0,0.353117,-305.333,-3.72088)">
                    <rect x="343.442" y="30.035" width="49.327" height="85.424" style="fill:rgb(230,255,230);"/>
                    <path d="M392.768,115.458L343.442,115.458L343.442,30.035L392.768,30.035L392.768,115.458ZM344.051,30.201L344.051,115.292L392.159,115.292L392.159,30.201L344.051,30.201Z" style="fill:rgb(0,153,0);"/>
                </g>
                <g id="OUT" transform="matrix(0.51625,0,0,0.0983737,-151.863,27.7923)">
                    <rect x="66.681" y="35.639" width="26.661" height="38.18" style="fill:none;"/>
                    <g id="Border" transform="matrix(0.819372,0,0,0.585831,44.357,-0.655943)">
                        <path d="M56.502,67.682C56.502,65.708 55.338,64.105 53.904,64.105L33.125,64.105C31.691,64.105 30.527,65.708 30.527,67.682L30.527,110.886C30.527,112.86 31.691,114.463 33.125,114.463L53.904,114.463C55.338,114.463 56.502,112.86 56.502,110.886L56.502,67.682Z" style="fill:rgb(0,153,0);stroke:rgb(0,153,0);stroke-width:1.15px;"/>
                    </g>
                    <g transform="matrix(0.820847,0,0,0.808143,56.9184,3.09951)">
                        <path id="Label" d="M21.112,47.12C21.112,48.523 22.138,49.528 23.541,49.528C24.951,49.528 25.977,48.523 25.977,47.12C25.977,45.718 24.951,44.713 23.541,44.713C22.138,44.713 21.112,45.718 21.112,47.12ZM24.958,47.12C24.958,47.986 24.399,48.649 23.541,48.649C22.683,48.649 22.131,47.986 22.131,47.12C22.131,46.248 22.683,45.592 23.541,45.592C24.399,45.592 24.958,46.248 24.958,47.12Z" style="fill:rgb(230,255,230);fill-rule:nonzero;"/>
                        <path d="M26.675,47.588C26.675,48.733 27.359,49.528 28.775,49.528C30.192,49.528 30.876,48.74 30.876,47.581L30.876,44.789L29.864,44.789L29.864,47.553C29.864,48.202 29.494,48.649 28.775,48.649C28.057,48.649 27.68,48.202 27.68,47.553L27.68,44.789L26.675,44.789L26.675,47.588Z" style="fill:rgb(230,255,230);fill-rule:nonzero;"/>
                        <path d="M32.865,49.445L33.863,49.445L33.863,45.662L35.217,45.662L35.217,44.789L31.504,44.789L31.504,45.662L32.865,45.662L32.865,49.445Z" style="fill:rgb(230,255,230);fill-rule:nonzero;"/>
                    </g>
                </g>
                <g id="IN" transform="matrix(0.51625,0,0,0.0983737,-163.425,27.7923)">
                    <rect x="66.681" y="35.639" width="26.661" height="38.18" style="fill:none;"/>
                    <g id="Border1" serif:id="Border" transform="matrix(0.819372,0,0,0.585831,44.357,-0.655943)">
                        <path d="M56.502,67.682C56.502,65.708 55.338,64.105 53.904,64.105L33.125,64.105C31.691,64.105 30.527,65.708 30.527,67.682L30.527,110.886C30.527,112.86 31.691,114.463 33.125,114.463L53.904,114.463C55.338,114.463 56.502,112.86 56.502,110.886L56.502,67.682Z" style="fill:none;stroke:rgb(0,153,0);stroke-width:1.15px;"/>
                    </g>
                    <g transform="matrix(0.820847,0,0,0.808143,56.9184,3.09951)">
                        <rect id="Label1" serif:id="Label" x="25.094" y="44.789" width="0.991" height="4.655" style="fill:rgb(0,153,0);fill-rule:nonzero;"/>
                        <path d="M30.217,49.445L31.173,49.445L31.173,44.789L30.182,44.789L30.182,47.714L28.025,44.789L27.006,44.789L27.006,49.445L27.997,49.445L27.997,46.409L30.217,49.445Z" style="fill:rgb(0,153,0);fill-rule:nonzero;"/>
                    </g>
                </g>
                <g id="EOC" transform="matrix(0.51625,0,0,0.0983737,-151.863,24.2711)">
                    <rect x="66.681" y="35.639" width="26.661" height="38.18" style="fill:none;"/>
                    <g id="Border2" serif:id="Border" transform="matrix(0.819372,0,0,0.585831,44.357,-0.655943)">
                        <path d="M56.502,67.682C56.502,65.708 55.338,64.105 53.904,64.105L33.125,64.105C31.691,64.105 30.527,65.708 30.527,67.682L30.527,110.886C30.527,112.86 31.691,114.463 33.125,114.463L53.904,114.463C55.338,114.463 56.502,112.86 56.502,110.886L56.502,67.682Z" style="fill:rgb(0,153,0);stroke:rgb(0,153,0);stroke-width:1.15px;"/>
                    </g>
                    <g transform="matrix(0.820847,0,0,0.808143,56.9184,3.09951)">
                        <path id="Label2" serif:id="Label" d="M21.493,49.445L24.787,49.445L24.787,48.572L22.484,48.572L22.484,47.518L24.738,47.518L24.738,46.646L22.484,46.646L22.484,45.662L24.787,45.662L24.787,44.789L21.493,44.789L21.493,49.445Z" style="fill:rgb(230,255,230);fill-rule:nonzero;"/>
                        <path d="M25.338,47.12C25.338,48.523 26.364,49.528 27.767,49.528C29.177,49.528 30.203,48.523 30.203,47.12C30.203,45.718 29.177,44.713 27.767,44.713C26.364,44.713 25.338,45.718 25.338,47.12ZM29.184,47.12C29.184,47.986 28.625,48.649 27.767,48.649C26.908,48.649 26.357,47.986 26.357,47.12C26.357,46.248 26.908,45.592 27.767,45.592C28.625,45.592 29.184,46.248 29.184,47.12Z" style="fill:rgb(230,255,230);fill-rule:nonzero;"/>
                        <path d="M33.155,49.528C34.181,49.528 34.767,48.963 35.102,48.384L34.251,47.972C34.055,48.356 33.636,48.649 33.155,48.649C32.31,48.649 31.696,48 31.696,47.12C31.696,46.241 32.31,45.592 33.155,45.592C33.636,45.592 34.055,45.892 34.251,46.269L35.102,45.85C34.774,45.271 34.181,44.713 33.155,44.713C31.759,44.713 30.677,45.69 30.677,47.12C30.677,48.551 31.759,49.528 33.155,49.528Z" style="fill:rgb(230,255,230);fill-rule:nonzero;"/>
                    </g>
                </g>
                <g id="TRIG" transform="matrix(0.51625,0,0,0.0983737,-163.425,24.2711)">
                    <rect x="66.681" y="35.639" width="26.661" height="38.18" style="fill:none;"/>
                    <g id="Border3" serif:id="Border" transform="matrix(0.819372,0,0,0.585831,44.357,-0.655943)">
                        <path d="M56.502,67.682C56.502,65.708 55.338,64.105 53.904,64.105L33.125,64.105C31.691,64.105 30.527,65.708 30.527,67.682L30.527,110.886C30.527,112.86 31.691,114.463 33.125,114.463L53.904,114.463C55.338,114.463 56.502,112.86 56.502,110.886L56.502,67.682Z" style="fill:none;stroke:rgb(0,153,0);stroke-width:1.15px;"/>
                    </g>
                    <g transform="matrix(0.820847,0,0,0.808143,56.9184,3.09951)">
                        <path id="Label3" serif:id="Label" d="M21.925,49.445L22.923,49.445L22.923,45.662L24.277,45.662L24.277,44.789L20.564,44.789L20.564,45.662L21.925,45.662L21.925,49.445Z" style="fill:rgb(0,153,0);fill-rule:nonzero;"/>
                        <path d="M27.544,49.445L28.681,49.445L27.634,47.672C28.137,47.553 28.653,47.113 28.653,46.29C28.653,45.425 28.06,44.789 27.09,44.789L24.912,44.789L24.912,49.445L25.903,49.445L25.903,47.79L26.629,47.79L27.544,49.445ZM27.641,46.29C27.641,46.681 27.341,46.918 26.943,46.918L25.903,46.918L25.903,45.662L26.943,45.662C27.341,45.662 27.641,45.899 27.641,46.29Z" style="fill:rgb(0,153,0);fill-rule:nonzero;"/>
                        <rect x="29.4" y="44.789" width="0.991" height="4.655" style="fill:rgb(0,153,0);fill-rule:nonzero;"/>
                        <path d="M31.089,47.12C31.089,48.586 32.206,49.535 33.567,49.535C34.411,49.535 35.074,49.186 35.549,48.656L35.549,46.869L33.329,46.869L33.329,47.735L34.558,47.735L34.558,48.293C34.369,48.467 33.978,48.649 33.567,48.649C32.722,48.649 32.108,48 32.108,47.12C32.108,46.241 32.722,45.592 33.567,45.592C34.062,45.592 34.46,45.871 34.669,46.199L35.493,45.753C35.144,45.201 34.537,44.713 33.567,44.713C32.206,44.713 31.089,45.648 31.089,47.12Z" style="fill:rgb(0,153,0);fill-rule:nonzero;"/>
                    </g>
                </g>
                <g id="ACTIVE" transform="matrix(0.51625,0,0,0.0983737,-151.863,20.75)">
                    <rect x="66.681" y="35.639" width="26.661" height="38.18" style="fill:none;"/>
                    <g id="Border4" serif:id="Border" transform="matrix(0.819372,0,0,0.585831,44.357,-0.655943)">
                        <path d="M56.502,67.682C56.502,65.708 55.338,64.105 53.904,64.105L33.125,64.105C31.691,64.105 30.527,65.708 30.527,67.682L30.527,110.886C30.527,112.86 31.691,114.463 33.125,114.463L53.904,114.463C55.338,114.463 56.502,112.86 56.502,110.886L56.502,67.682Z" style="fill:rgb(0,153,0);stroke:rgb(0,153,0);stroke-width:1.15px;"/>
                    </g>
                    <g transform="matrix(0.820847,0,0,0.808143,56.9184,3.09951)">
                        <path id="Label4" serif:id="Label" d="M19.73,49.445L20.861,49.445L19.067,44.789L17.825,44.789L16.024,49.445L17.155,49.445L17.448,48.656L19.444,48.656L19.73,49.445ZM18.446,45.78L19.172,47.783L17.72,47.783L18.446,45.78Z" style="fill:rgb(230,255,230);fill-rule:nonzero;"/>
                        <path d="M23.311,49.528C24.337,49.528 24.923,48.963 25.258,48.384L24.406,47.972C24.211,48.356 23.792,48.649 23.311,48.649C22.466,48.649 21.852,48 21.852,47.12C21.852,46.241 22.466,45.592 23.311,45.592C23.792,45.592 24.211,45.892 24.406,46.269L25.258,45.85C24.93,45.271 24.337,44.713 23.311,44.713C21.915,44.713 20.833,45.69 20.833,47.12C20.833,48.551 21.915,49.528 23.311,49.528Z" style="fill:rgb(230,255,230);fill-rule:nonzero;"/>
                        <path d="M26.926,49.445L27.924,49.445L27.924,45.662L29.278,45.662L29.278,44.789L25.565,44.789L25.565,45.662L26.926,45.662L26.926,49.445Z" style="fill:rgb(230,255,230);fill-rule:nonzero;"/>
                        <rect x="29.913" y="44.789" width="0.991" height="4.655" style="fill:rgb(230,255,230);fill-rule:nonzero;"/>
                        <path d="M33.13,49.445L34.373,49.445L36.166,44.789L35.036,44.789L33.752,48.37L32.46,44.789L31.33,44.789L33.13,49.445Z" style="fill:rgb(230,255,230);fill-rule:nonzero;"/>
                        <path d="M36.599,49.445L39.893,49.445L39.893,48.572L37.59,48.572L37.59,47.518L39.844,47.518L39.844,46.646L37.59,46.646L37.59,45.662L39.893,45.662L39.893,44.789L36.599,44.789L36.599,49.445Z" style="fill:rgb(230,255,230);fill-rule:nonzero;"/>
                    </g>
                </g>
                <g id="DEFER" transform="matrix(0.51625,0,0,0.0983737,-163.425,20.75)">
                    <rect x="66.681" y="35.639" width="26.661" height="38.18" style="fill:none;"/>
                    <g id="Border5" serif:id="Border" transform="matrix(0.819372,0,0,0.585831,44.357,-0.655943)">
                        <path d="M56.502,67.682C56.502,65.708 55.338,64.105 53.904,64.105L33.125,64.105C31.691,64.105 30.527,65.708 30.527,67.682L30.527,110.886C30.527,112.86 31.691,114.463 33.125,114.463L53.904,114.463C55.338,114.463 56.502,112.86 56.502,110.886L56.502,67.682Z" style="fill:none;stroke:rgb(0,153,0);stroke-width:1.15px;"/>
                    </g>
                    <g transform="matrix(0.820847,0,0,0.808143,56.9184,3.09951)">
                        <path id="Label5" serif:id="Label" d="M17.783,49.445L19.619,49.445C21.077,49.445 22.089,48.523 22.089,47.12C22.089,45.718 21.077,44.789 19.619,44.789L17.783,44.789L17.783,49.445ZM18.774,48.572L18.774,45.662L19.619,45.662C20.575,45.662 21.077,46.297 21.077,47.12C21.077,47.909 20.54,48.572 19.619,48.572L18.774,48.572Z" style="fill:rgb(0,153,0);fill-rule:nonzero;"/>
                        <path d="M22.794,49.445L26.088,49.445L26.088,48.572L23.785,48.572L23.785,47.518L26.04,47.518L26.04,46.646L23.785,46.646L23.785,45.662L26.088,45.662L26.088,44.789L22.794,44.789L22.794,49.445Z" style="fill:rgb(0,153,0);fill-rule:nonzero;"/>
                        <path d="M26.863,49.445L27.854,49.445L27.854,47.518L30.108,47.518L30.108,46.646L27.854,46.646L27.854,45.662L30.157,45.662L30.157,44.789L26.863,44.789L26.863,49.445Z" style="fill:rgb(0,153,0);fill-rule:nonzero;"/>
                        <path d="M30.848,49.445L34.142,49.445L34.142,48.572L31.839,48.572L31.839,47.518L34.094,47.518L34.094,46.646L31.839,46.646L31.839,45.662L34.142,45.662L34.142,44.789L30.848,44.789L30.848,49.445Z" style="fill:rgb(0,153,0);fill-rule:nonzero;"/>
                        <path d="M37.548,49.445L38.686,49.445L37.639,47.672C38.141,47.553 38.658,47.113 38.658,46.29C38.658,45.425 38.065,44.789 37.095,44.789L34.917,44.789L34.917,49.445L35.908,49.445L35.908,47.79L36.634,47.79L37.548,49.445ZM37.646,46.29C37.646,46.681 37.346,46.918 36.948,46.918L35.908,46.918L35.908,45.662L36.948,45.662C37.346,45.662 37.646,45.899 37.646,46.29Z" style="fill:rgb(0,153,0);fill-rule:nonzero;"/>
                    </g>
                </g>
                <g id="Duration" transform="matrix(2.00099,0,0,1,118.529,8.88178e-15)">
                    <g>
                        <g id="Knob" transform="matrix(0.132047,0,0,0.0806623,-125.274,11.1284)">
                            <rect x="24.299" y="98.722" width="71.034" height="58.204" style="fill:none;"/>
                            <g transform="matrix(1.60379,0,0,0.98559,-3.96195,56.3603)">
                                <path id="Label-Large" serif:id="Label Large" d="M17.676,50.776L20.032,50.776C21.904,50.776 23.203,49.594 23.203,47.793C23.203,45.992 21.904,44.801 20.032,44.801L17.676,44.801L17.676,50.776ZM18.948,49.656L18.948,45.921L20.032,45.921C21.259,45.921 21.904,46.736 21.904,47.793C21.904,48.805 21.214,49.656 20.032,49.656L18.948,49.656Z" style="fill:rgb(0,153,0);fill-rule:nonzero;"/>
                                <path d="M24.108,48.393C24.108,49.862 24.986,50.884 26.804,50.884C28.623,50.884 29.501,49.871 29.501,48.384L29.501,44.801L28.202,44.801L28.202,48.348C28.202,49.182 27.727,49.755 26.804,49.755C25.882,49.755 25.398,49.182 25.398,48.348L25.398,44.801L24.108,44.801L24.108,48.393Z" style="fill:rgb(0,153,0);fill-rule:nonzero;"/>
                                <path d="M34.052,50.776L35.512,50.776L34.168,48.501C34.813,48.348 35.476,47.784 35.476,46.727C35.476,45.616 34.715,44.801 33.469,44.801L30.674,44.801L30.674,50.776L31.947,50.776L31.947,48.653L32.878,48.653L34.052,50.776ZM34.177,46.727C34.177,47.229 33.792,47.533 33.281,47.533L31.947,47.533L31.947,45.921L33.281,45.921C33.792,45.921 34.177,46.225 34.177,46.727Z" style="fill:rgb(0,153,0);fill-rule:nonzero;"/>
                                <path d="M40.556,50.776L42.007,50.776L39.704,44.801L38.11,44.801L35.799,50.776L37.25,50.776L37.626,49.764L40.188,49.764L40.556,50.776ZM38.907,46.073L39.839,48.644L37.976,48.644L38.907,46.073Z" style="fill:rgb(0,153,0);fill-rule:nonzero;"/>
                                <path d="M43.368,50.776L44.649,50.776L44.649,45.921L46.387,45.921L46.387,44.801L41.622,44.801L41.622,45.921L43.368,45.921L43.368,50.776Z" style="fill:rgb(0,153,0);fill-rule:nonzero;"/>
                                <rect x="47.203" y="44.801" width="1.272" height="5.975" style="fill:rgb(0,153,0);fill-rule:nonzero;"/>
                                <path d="M49.371,47.793C49.371,49.594 50.687,50.884 52.488,50.884C54.298,50.884 55.614,49.594 55.614,47.793C55.614,45.992 54.298,44.702 52.488,44.702C50.687,44.702 49.371,45.992 49.371,47.793ZM54.307,47.793C54.307,48.904 53.59,49.755 52.488,49.755C51.386,49.755 50.678,48.904 50.678,47.793C50.678,46.673 51.386,45.831 52.488,45.831C53.59,45.831 54.307,46.673 54.307,47.793Z" style="fill:rgb(0,153,0);fill-rule:nonzero;"/>
                                <path d="M60.631,50.776L61.858,50.776L61.858,44.801L60.586,44.801L60.586,48.554L57.818,44.801L56.51,44.801L56.51,50.776L57.782,50.776L57.782,46.879L60.631,50.776Z" style="fill:rgb(0,153,0);fill-rule:nonzero;"/>
                            </g>
                        </g>
                    </g>
                </g>
                <g id="Shape" transform="matrix(2.00099,0,0,1,118.529,8.88178e-15)">
                    <g>
                        <g id="Knob1" serif:id="Knob" transform="matrix(0.132047,0,0,0.0806623,-125.274,6.78564)">
                            <rect x="24.299" y="98.722" width="71.034" height="58.204" style="fill:none;"/>
                            <g transform="matrix(1.60379,0,0,0.98559,8.54239,56.3603)">
                                <path id="Label-Large1" serif:id="Label Large" d="M17.727,49.934C18.282,50.498 19.106,50.884 20.253,50.884C21.865,50.884 22.645,50.059 22.645,48.967C22.645,47.614 21.391,47.318 20.405,47.085C19.76,46.933 19.214,46.808 19.214,46.422C19.214,46.064 19.518,45.822 20.065,45.822C20.674,45.822 21.319,46.028 21.803,46.476L22.51,45.544C21.919,44.998 21.131,44.711 20.181,44.711C18.775,44.711 17.915,45.535 17.915,46.53C17.915,47.892 19.169,48.16 20.145,48.384C20.799,48.545 21.355,48.671 21.355,49.11C21.355,49.45 21.014,49.773 20.316,49.773C19.491,49.773 18.838,49.405 18.416,48.967L17.727,49.934Z" style="fill:rgb(0,153,0);fill-rule:nonzero;"/>
                                <path d="M27.599,50.776L28.88,50.776L28.88,44.801L27.599,44.801L27.599,47.148L24.777,47.148L24.777,44.801L23.505,44.801L23.505,50.776L24.777,50.776L24.777,48.268L27.599,48.268L27.599,50.776Z" style="fill:rgb(0,153,0);fill-rule:nonzero;"/>
                                <path d="M34.174,50.776L35.625,50.776L33.323,44.801L31.729,44.801L29.417,50.776L30.869,50.776L31.245,49.764L33.807,49.764L34.174,50.776ZM32.526,46.073L33.458,48.644L31.594,48.644L32.526,46.073Z" style="fill:rgb(0,153,0);fill-rule:nonzero;"/>
                                <path d="M36.181,50.776L37.453,50.776L37.453,48.653L38.976,48.653C40.266,48.653 40.983,47.766 40.983,46.727C40.983,45.679 40.275,44.801 38.976,44.801L36.181,44.801L36.181,50.776ZM39.684,46.727C39.684,47.22 39.307,47.533 38.806,47.533L37.453,47.533L37.453,45.921L38.806,45.921C39.307,45.921 39.684,46.225 39.684,46.727Z" style="fill:rgb(0,153,0);fill-rule:nonzero;"/>
                                <path d="M41.771,50.776L45.999,50.776L45.999,49.656L43.043,49.656L43.043,48.304L45.936,48.304L45.936,47.184L43.043,47.184L43.043,45.921L45.999,45.921L45.999,44.801L41.771,44.801L41.771,50.776Z" style="fill:rgb(0,153,0);fill-rule:nonzero;"/>
                            </g>
                        </g>
                    </g>
                </g>
                <g id="Level" transform="matrix(2.00099,0,0,1,118.529,8.88178e-15)">
                    <g>
                        <g id="Knob2" serif:id="Knob" transform="matrix(0.132047,0,0,0.0806623,-125.274,2.44288)">
                            <rect x="24.299" y="98.722" width="71.034" height="58.204" style="fill:none;"/>
                            <g transform="matrix(1.60379,0,0,0.98559,8.54239,56.3603)">
                                <path id="Label-Large2" serif:id="Label Large" d="M19.59,50.776L23.388,50.776L23.388,49.656L20.862,49.656L20.862,44.801L19.59,44.801L19.59,50.776Z" style="fill:rgb(0,153,0);fill-rule:nonzero;"/>
                                <path d="M24.275,50.776L28.504,50.776L28.504,49.656L25.547,49.656L25.547,48.304L28.441,48.304L28.441,47.184L25.547,47.184L25.547,45.921L28.504,45.921L28.504,44.801L24.275,44.801L24.275,50.776Z" style="fill:rgb(0,153,0);fill-rule:nonzero;"/>
                                <path d="M31.173,50.776L32.768,50.776L35.07,44.801L33.619,44.801L31.97,49.397L30.313,44.801L28.862,44.801L31.173,50.776Z" style="fill:rgb(0,153,0);fill-rule:nonzero;"/>
                                <path d="M35.625,50.776L39.854,50.776L39.854,49.656L36.898,49.656L36.898,48.304L39.791,48.304L39.791,47.184L36.898,47.184L36.898,45.921L39.854,45.921L39.854,44.801L35.625,44.801L35.625,50.776Z" style="fill:rgb(0,153,0);fill-rule:nonzero;"/>
                                <path d="M40.848,50.776L44.646,50.776L44.646,49.656L42.12,49.656L42.12,44.801L40.848,44.801L40.848,50.776Z" style="fill:rgb(0,153,0);fill-rule:nonzero;"/>
                            </g>
                        </g>
                    </g>
                </g>
                <g id="Plugin-Labels" serif:id="Plugin Labels" transform="matrix(2.00099,0,0,1,129.128,0)">
                    <g transform="matrix(0.211776,0,0,0.0795,-132.447,32.4349)">
                        <path id="DHE" d="M34.777,40.151L37.927,40.151C40.431,40.151 42.168,38.57 42.168,36.162C42.168,33.754 40.431,32.161 37.927,32.161L34.777,32.161L34.777,40.151ZM36.478,38.654L36.478,33.659L37.927,33.659C39.568,33.659 40.431,34.749 40.431,36.162C40.431,37.516 39.508,38.654 37.927,38.654L36.478,38.654Z" style="fill:rgb(0,153,0);fill-rule:nonzero;"/>
                        <path d="M48.852,40.151L50.565,40.151L50.565,32.161L48.852,32.161L48.852,35.3L45.079,35.3L45.079,32.161L43.378,32.161L43.378,40.151L45.079,40.151L45.079,36.797L48.852,36.797L48.852,40.151Z" style="fill:rgb(0,153,0);fill-rule:nonzero;"/>
                        <path d="M52.135,40.151L57.789,40.151L57.789,38.654L53.836,38.654L53.836,36.845L57.705,36.845L57.705,35.348L53.836,35.348L53.836,33.659L57.789,33.659L57.789,32.161L52.135,32.161L52.135,40.151Z" style="fill:rgb(0,153,0);fill-rule:nonzero;"/>
                    </g>
                    <g transform="matrix(0.211776,0,0,0.0795,-132.447,4.32802)">
                        <path id="Plugin" d="M28.056,56.919C28.799,57.674 29.901,58.189 31.435,58.189C33.591,58.189 34.633,57.087 34.633,55.625C34.633,53.816 32.956,53.421 31.638,53.11C30.776,52.906 30.045,52.738 30.045,52.223C30.045,51.744 30.452,51.421 31.183,51.421C31.998,51.421 32.86,51.696 33.507,52.295L34.453,51.049C33.663,50.319 32.608,49.935 31.339,49.935C29.458,49.935 28.308,51.037 28.308,52.367C28.308,54.188 29.985,54.547 31.291,54.847C32.165,55.062 32.908,55.23 32.908,55.817C32.908,56.272 32.453,56.703 31.518,56.703C30.416,56.703 29.542,56.212 28.979,55.625L28.056,56.919Z" style="fill:rgb(0,153,0);fill-rule:nonzero;"/>
                        <path d="M37.544,58.045L39.257,58.045L39.257,51.552L41.581,51.552L41.581,50.055L35.208,50.055L35.208,51.552L37.544,51.552L37.544,58.045Z" style="fill:rgb(0,153,0);fill-rule:nonzero;"/>
                        <path d="M47.415,58.045L49.355,58.045L46.277,50.055L44.144,50.055L41.054,58.045L42.994,58.045L43.498,56.691L46.924,56.691L47.415,58.045ZM45.211,51.756L46.456,55.194L43.965,55.194L45.211,51.756Z" style="fill:rgb(0,153,0);fill-rule:nonzero;"/>
                        <path d="M49.307,54.056C49.307,56.572 51.224,58.201 53.56,58.201C55.01,58.201 56.148,57.602 56.962,56.691L56.962,53.625L53.153,53.625L53.153,55.11L55.261,55.11L55.261,56.069C54.938,56.368 54.267,56.679 53.56,56.679C52.111,56.679 51.056,55.565 51.056,54.056C51.056,52.547 52.111,51.433 53.56,51.433C54.411,51.433 55.093,51.912 55.453,52.475L56.866,51.708C56.267,50.762 55.225,49.923 53.56,49.923C51.224,49.923 49.307,51.528 49.307,54.056Z" style="fill:rgb(0,153,0);fill-rule:nonzero;"/>
                        <path d="M58.316,58.045L63.97,58.045L63.97,56.548L60.017,56.548L60.017,54.739L63.886,54.739L63.886,53.241L60.017,53.241L60.017,51.552L63.97,51.552L63.97,50.055L58.316,50.055L58.316,58.045Z" style="fill:rgb(0,153,0);fill-rule:nonzero;"/>
                    </g>
                </g>
            </g>
        </g>
    </g>
</svg>
