<?xml version="1.0" encoding="UTF-8" standalone="no"?>
<!DOCTYPE svg PUBLIC "-//W3C//DTD SVG 1.1//EN" "http://www.w3.org/Graphics/SVG/1.1/DTD/svg11.dtd">
<svg width="60px" height="380px" version="1.1" xmlns="http://www.w3.org/2000/svg" xmlns:xlink="http://www.w3.org/1999/xlink" xml:space="preserve" xmlns:serif="http://www.serif.com/" style="fill-rule:evenodd;clip-rule:evenodd;stroke-linejoin:round;stroke-miterlimit:1.41421;">
    <g id="Layer-1" serif:id="Layer 1" transform="matrix(1,0,0,1,-15,-742.52)">
        <g id="rect817" transform="matrix(0.666667,0,0,1,15,0)">
            <rect x="0" y="742.52" width="90" height="380" style="fill:rgb(230,230,230);"/>
        </g>
        <g transform="matrix(1,0,0,1,4.81232,750.5)">
            <path d="M28.662,353.521L31.818,353.521C34.326,353.521 36.066,351.937 36.066,349.525C36.066,347.113 34.326,345.517 31.818,345.517L28.662,345.517L28.662,353.521ZM30.366,352.021L30.366,347.017L31.818,347.017C33.462,347.017 34.326,348.109 34.326,349.525C34.326,350.881 33.402,352.021 31.818,352.021L30.366,352.021Z" style="fill-rule:nonzero;"/>
            <path d="M42.762,353.521L44.478,353.521L44.478,345.517L42.762,345.517L42.762,348.661L38.982,348.661L38.982,345.517L37.278,345.517L37.278,353.521L38.982,353.521L38.982,350.161L42.762,350.161L42.762,353.521Z" style="fill-rule:nonzero;"/>
            <path d="M46.05,353.521L51.714,353.521L51.714,352.021L47.754,352.021L47.754,350.209L51.63,350.209L51.63,348.709L47.754,348.709L47.754,347.017L51.714,347.017L51.714,345.517L46.05,345.517L46.05,353.521Z" style="fill-rule:nonzero;"/>
        </g>
        <g transform="matrix(1,0,0,1,-1.10968,414.713)">
            <path d="M28.122,352.393C28.866,353.149 29.97,353.665 31.506,353.665C33.666,353.665 34.71,352.561 34.71,351.097C34.71,349.285 33.03,348.889 31.71,348.577C30.846,348.373 30.114,348.205 30.114,347.689C30.114,347.209 30.522,346.885 31.254,346.885C32.07,346.885 32.934,347.161 33.582,347.761L34.53,346.513C33.738,345.781 32.682,345.397 31.41,345.397C29.526,345.397 28.374,346.501 28.374,347.833C28.374,349.657 30.054,350.017 31.362,350.317C32.238,350.533 32.982,350.701 32.982,351.289C32.982,351.745 32.526,352.177 31.59,352.177C30.486,352.177 29.61,351.685 29.046,351.097L28.122,352.393Z" style="fill-rule:nonzero;"/>
            <path d="M37.626,353.521L39.342,353.521L39.342,347.017L41.67,347.017L41.67,345.517L35.286,345.517L35.286,347.017L37.626,347.017L37.626,353.521Z" style="fill-rule:nonzero;"/>
            <path d="M47.514,353.521L49.458,353.521L46.374,345.517L44.238,345.517L41.142,353.521L43.086,353.521L43.59,352.165L47.022,352.165L47.514,353.521ZM45.306,347.221L46.554,350.665L44.058,350.665L45.306,347.221Z" style="fill-rule:nonzero;"/>
            <path d="M49.41,349.525C49.41,352.045 51.33,353.677 53.67,353.677C55.122,353.677 56.262,353.077 57.078,352.165L57.078,349.093L53.262,349.093L53.262,350.581L55.374,350.581L55.374,351.541C55.05,351.841 54.378,352.153 53.67,352.153C52.218,352.153 51.162,351.037 51.162,349.525C51.162,348.013 52.218,346.897 53.67,346.897C54.522,346.897 55.206,347.377 55.566,347.941L56.982,347.173C56.382,346.225 55.338,345.385 53.67,345.385C51.33,345.385 49.41,346.993 49.41,349.525Z" style="fill-rule:nonzero;"/>
            <path d="M58.434,353.521L64.098,353.521L64.098,352.021L60.138,352.021L60.138,350.209L64.014,350.209L64.014,348.709L60.138,348.709L60.138,347.017L64.098,347.017L64.098,345.517L58.434,345.517L58.434,353.521Z" style="fill-rule:nonzero;"/>
        </g>
        <g transform="matrix(1,0,0,1,25.3526,757.022)">
            <path d="M27.574,213.058C27.574,214.465 28.603,215.473 30.01,215.473C31.424,215.473 32.453,214.465 32.453,213.058C32.453,211.651 31.424,210.643 30.01,210.643C28.603,210.643 27.574,211.651 27.574,213.058ZM31.431,213.058C31.431,213.926 30.871,214.591 30.01,214.591C29.149,214.591 28.596,213.926 28.596,213.058C28.596,212.183 29.149,211.525 30.01,211.525C30.871,211.525 31.431,212.183 31.431,213.058Z" style="fill-rule:nonzero;"/>
            <path d="M33.153,213.527C33.153,214.675 33.839,215.473 35.26,215.473C36.681,215.473 37.367,214.682 37.367,213.52L37.367,210.72L36.352,210.72L36.352,213.492C36.352,214.143 35.981,214.591 35.26,214.591C34.539,214.591 34.161,214.143 34.161,213.492L34.161,210.72L33.153,210.72L33.153,213.527Z" style="fill-rule:nonzero;"/>
            <path d="M39.362,215.389L40.363,215.389L40.363,211.595L41.721,211.595L41.721,210.72L37.997,210.72L37.997,211.595L39.362,211.595L39.362,215.389Z" style="fill-rule:nonzero;"/>
        </g>
        <g transform="matrix(1,0,0,1,25.3771,800.022)">
            <path d="M27.798,215.389L31.102,215.389L31.102,214.514L28.792,214.514L28.792,213.457L31.053,213.457L31.053,212.582L28.792,212.582L28.792,211.595L31.102,211.595L31.102,210.72L27.798,210.72L27.798,215.389Z" style="fill-rule:nonzero;"/>
            <path d="M31.655,213.058C31.655,214.465 32.684,215.473 34.091,215.473C35.505,215.473 36.534,214.465 36.534,213.058C36.534,211.651 35.505,210.643 34.091,210.643C32.684,210.643 31.655,211.651 31.655,213.058ZM35.512,213.058C35.512,213.926 34.952,214.591 34.091,214.591C33.23,214.591 32.677,213.926 32.677,213.058C32.677,212.183 33.23,211.525 34.091,211.525C34.952,211.525 35.512,212.183 35.512,213.058Z" style="fill-rule:nonzero;"/>
            <path d="M39.495,215.473C40.524,215.473 41.112,214.906 41.448,214.325L40.594,213.912C40.398,214.297 39.978,214.591 39.495,214.591C38.648,214.591 38.032,213.94 38.032,213.058C38.032,212.176 38.648,211.525 39.495,211.525C39.978,211.525 40.398,211.826 40.594,212.204L41.448,211.784C41.119,211.203 40.524,210.643 39.495,210.643C38.095,210.643 37.01,211.623 37.01,213.058C37.01,214.493 38.095,215.473 39.495,215.473Z" style="fill-rule:nonzero;"/>
        </g>
        <g transform="matrix(1,0,0,1,20.7291,843.022)">
            <path d="M31.018,215.389L32.152,215.389L30.353,210.72L29.107,210.72L27.301,215.389L28.435,215.389L28.729,214.598L30.731,214.598L31.018,215.389ZM29.73,211.714L30.458,213.723L29.002,213.723L29.73,211.714Z" style="fill-rule:nonzero;"/>
            <path d="M34.609,215.473C35.638,215.473 36.226,214.906 36.562,214.325L35.708,213.912C35.512,214.297 35.092,214.591 34.609,214.591C33.762,214.591 33.146,213.94 33.146,213.058C33.146,212.176 33.762,211.525 34.609,211.525C35.092,211.525 35.512,211.826 35.708,212.204L36.562,211.784C36.233,211.203 35.638,210.643 34.609,210.643C33.209,210.643 32.124,211.623 32.124,213.058C32.124,214.493 33.209,215.473 34.609,215.473Z" style="fill-rule:nonzero;"/>
            <path d="M38.235,215.389L39.236,215.389L39.236,211.595L40.594,211.595L40.594,210.72L36.87,210.72L36.87,211.595L38.235,211.595L38.235,215.389Z" style="fill-rule:nonzero;"/>
            <rect x="41.231" y="210.72" width="0.994" height="4.669" style="fill-rule:nonzero;"/>
            <path d="M44.458,215.389L45.704,215.389L47.503,210.72L46.369,210.72L45.081,214.311L43.786,210.72L42.652,210.72L44.458,215.389Z" style="fill-rule:nonzero;"/>
            <path d="M47.937,215.389L51.241,215.389L51.241,214.514L48.931,214.514L48.931,213.457L51.192,213.457L51.192,212.582L48.931,212.582L48.931,211.595L51.241,211.595L51.241,210.72L47.937,210.72L47.937,215.389Z" style="fill-rule:nonzero;"/>
        </g>
        <g transform="matrix(1,0,0,1,3.04806,690.022)">
            <path d="M28.011,214.543C28.542,215.11 29.343,215.497 30.45,215.497C32.07,215.497 32.772,214.642 32.772,213.643C32.772,212.338 31.593,212.032 30.603,211.78C29.892,211.6 29.28,211.447 29.28,210.979C29.28,210.529 29.676,210.232 30.297,210.232C30.927,210.232 31.566,210.448 32.034,210.916L32.637,210.133C32.079,209.593 31.323,209.296 30.387,209.296C29.073,209.296 28.2,210.061 28.2,211.051C28.2,212.32 29.352,212.608 30.333,212.851C31.062,213.04 31.701,213.202 31.701,213.742C31.701,214.138 31.359,214.561 30.495,214.561C29.658,214.561 29.01,214.174 28.596,213.733L28.011,214.543Z" style="fill-rule:nonzero;"/>
            <path d="M37.92,215.389L38.973,215.389L38.973,209.386L37.92,209.386L37.92,211.843L34.797,211.843L34.797,209.386L33.744,209.386L33.744,215.389L34.797,215.389L34.797,212.77L37.92,212.77L37.92,215.389Z" style="fill-rule:nonzero;"/>
            <path d="M44.454,215.389L45.651,215.389L43.293,209.386L41.979,209.386L39.621,215.389L40.818,215.389L41.259,214.237L44.013,214.237L44.454,215.389ZM42.636,210.448L43.716,213.31L41.556,213.31L42.636,210.448Z" style="fill-rule:nonzero;"/>
            <path d="M46.308,215.389L47.361,215.389L47.361,213.148L48.945,213.148C50.196,213.148 50.907,212.284 50.907,211.267C50.907,210.25 50.205,209.386 48.945,209.386L46.308,209.386L46.308,215.389ZM49.827,211.267C49.827,211.843 49.395,212.221 48.801,212.221L47.361,212.221L47.361,210.313L48.801,210.313C49.395,210.313 49.827,210.691 49.827,211.267Z" style="fill-rule:nonzero;"/>
            <path d="M51.78,215.389L55.893,215.389L55.893,214.462L52.833,214.462L52.833,212.797L55.83,212.797L55.83,211.87L52.833,211.87L52.833,210.313L55.893,210.313L55.893,209.386L51.78,209.386L51.78,215.389Z" style="fill-rule:nonzero;"/>
        </g>
        <g transform="matrix(1,0,0,1,-0.846438,757.13)">
            <rect x="27.798" y="210.72" width="0.994" height="4.669" style="fill-rule:nonzero;"/>
            <path d="M32.936,215.389L33.895,215.389L33.895,210.72L32.901,210.72L32.901,213.653L30.738,210.72L29.716,210.72L29.716,215.389L30.71,215.389L30.71,212.344L32.936,215.389Z" style="fill-rule:nonzero;"/>
        </g>
        <g transform="matrix(1,0,0,1,-5.02544,800.013)">
            <path d="M28.876,215.389L29.877,215.389L29.877,211.595L31.235,211.595L31.235,210.72L27.511,210.72L27.511,211.595L28.876,211.595L28.876,215.389Z" style="fill-rule:nonzero;"/>
            <path d="M34.511,215.389L35.652,215.389L34.602,213.611C35.106,213.492 35.624,213.051 35.624,212.225C35.624,211.357 35.029,210.72 34.056,210.72L31.872,210.72L31.872,215.389L32.866,215.389L32.866,213.73L33.594,213.73L34.511,215.389ZM34.609,212.225C34.609,212.617 34.308,212.855 33.909,212.855L32.866,212.855L32.866,211.595L33.909,211.595C34.308,211.595 34.609,211.833 34.609,212.225Z" style="fill-rule:nonzero;"/>
            <rect x="36.373" y="210.72" width="0.994" height="4.669" style="fill-rule:nonzero;"/>
            <path d="M38.067,213.058C38.067,214.528 39.187,215.48 40.552,215.48C41.399,215.48 42.064,215.13 42.54,214.598L42.54,212.806L40.314,212.806L40.314,213.674L41.546,213.674L41.546,214.234C41.357,214.409 40.965,214.591 40.552,214.591C39.705,214.591 39.089,213.94 39.089,213.058C39.089,212.176 39.705,211.525 40.552,211.525C41.049,211.525 41.448,211.805 41.658,212.134L42.484,211.686C42.134,211.133 41.525,210.643 40.552,210.643C39.187,210.643 38.067,211.581 38.067,213.058Z" style="fill-rule:nonzero;"/>
        </g>
        <g transform="matrix(1,0,0,1,-5.93194,843.022)">
            <path d="M25.449,215.389L27.29,215.389C28.753,215.389 29.768,214.465 29.768,213.058C29.768,211.651 28.753,210.72 27.29,210.72L25.449,210.72L25.449,215.389ZM26.443,214.514L26.443,211.595L27.29,211.595C28.249,211.595 28.753,212.232 28.753,213.058C28.753,213.849 28.214,214.514 27.29,214.514L26.443,214.514Z" style="fill-rule:nonzero;"/>
            <path d="M30.475,215.389L33.779,215.389L33.779,214.514L31.469,214.514L31.469,213.457L33.73,213.457L33.73,212.582L31.469,212.582L31.469,211.595L33.779,211.595L33.779,210.72L30.475,210.72L30.475,215.389Z" style="fill-rule:nonzero;"/>
            <path d="M34.556,215.389L35.55,215.389L35.55,213.457L37.811,213.457L37.811,212.582L35.55,212.582L35.55,211.595L37.86,211.595L37.86,210.72L34.556,210.72L34.556,215.389Z" style="fill-rule:nonzero;"/>
            <path d="M38.553,215.389L41.857,215.389L41.857,214.514L39.547,214.514L39.547,213.457L41.808,213.457L41.808,212.582L39.547,212.582L39.547,211.595L41.857,211.595L41.857,210.72L38.553,210.72L38.553,215.389Z" style="fill-rule:nonzero;"/>
            <path d="M45.273,215.389L46.414,215.389L45.364,213.611C45.868,213.492 46.386,213.051 46.386,212.225C46.386,211.357 45.791,210.72 44.818,210.72L42.634,210.72L42.634,215.389L43.628,215.389L43.628,213.73L44.356,213.73L45.273,215.389ZM45.371,212.225C45.371,212.617 45.07,212.855 44.671,212.855L43.628,212.855L43.628,211.595L44.671,211.595C45.07,211.595 45.371,211.833 45.371,212.225Z" style="fill-rule:nonzero;"/>
        </g>
        <g transform="matrix(1,0,0,1,16.6807,656.13)">
            <path d="M6.521,139.389L8.753,139.389C10.625,139.389 11.894,138.156 11.894,136.392C11.894,134.628 10.625,133.386 8.753,133.386L6.521,133.386L6.521,139.389ZM7.574,138.462L7.574,134.313L8.753,134.313C10.094,134.313 10.814,135.231 10.814,136.392C10.814,137.526 10.058,138.462 8.753,138.462L7.574,138.462Z" style="fill-rule:nonzero;"/>
            <path d="M12.911,137.022C12.911,138.498 13.766,139.497 15.512,139.497C17.249,139.497 18.104,138.507 18.104,137.013L18.104,133.386L17.042,133.386L17.042,136.986C17.042,137.94 16.511,138.561 15.512,138.561C14.504,138.561 13.973,137.94 13.973,136.986L13.973,133.386L12.911,133.386L12.911,137.022Z" style="fill-rule:nonzero;"/>
            <path d="M22.811,139.389L24.026,139.389L22.559,137.031C23.279,136.914 23.981,136.338 23.981,135.267C23.981,134.16 23.207,133.386 22.019,133.386L19.382,133.386L19.382,139.389L20.435,139.389L20.435,137.148L21.479,137.148L22.811,139.389ZM22.901,135.267C22.901,135.843 22.469,136.221 21.875,136.221L20.435,136.221L20.435,134.313L21.875,134.313C22.469,134.313 22.901,134.691 22.901,135.267Z" style="fill-rule:nonzero;"/>
            <path d="M29.237,139.389L30.434,139.389L28.076,133.386L26.762,133.386L24.404,139.389L25.601,139.389L26.042,138.237L28.796,138.237L29.237,139.389ZM27.419,134.448L28.499,137.31L26.339,137.31L27.419,134.448Z" style="fill-rule:nonzero;"/>
            <path d="M31.937,139.389L32.99,139.389L32.99,134.313L34.808,134.313L34.808,133.386L30.119,133.386L30.119,134.313L31.937,134.313L31.937,139.389Z" style="fill-rule:nonzero;"/>
            <rect x="35.699" y="133.386" width="1.053" height="6.003" style="fill-rule:nonzero;"/>
            <path d="M37.76,136.392C37.76,138.183 39.029,139.497 40.829,139.497C42.629,139.497 43.898,138.183 43.898,136.392C43.898,134.601 42.629,133.287 40.829,133.287C39.029,133.287 37.76,134.601 37.76,136.392ZM42.818,136.392C42.818,137.625 42.035,138.561 40.829,138.561C39.614,138.561 38.84,137.625 38.84,136.392C38.84,135.15 39.614,134.223 40.829,134.223C42.035,134.223 42.818,135.15 42.818,136.392Z" style="fill-rule:nonzero;"/>
            <path d="M49.1,139.389L50.117,139.389L50.117,133.386L49.064,133.386L49.064,137.553L45.995,133.386L44.915,133.386L44.915,139.389L45.968,139.389L45.968,135.105L49.1,139.389Z" style="fill-rule:nonzero;"/>
        </g>
        <g transform="matrix(1,0,0,1,9.81024,787.19)">
            <path d="M22.792,63.329L26.491,63.329L26.491,62.402L23.845,62.402L23.845,57.326L22.792,57.326L22.792,63.329Z" style="fill-rule:nonzero;"/>
            <path d="M27.445,63.329L31.558,63.329L31.558,62.402L28.498,62.402L28.498,60.737L31.495,60.737L31.495,59.81L28.498,59.81L28.498,58.253L31.558,58.253L31.558,57.326L27.445,57.326L27.445,63.329Z" style="fill-rule:nonzero;"/>
            <path d="M34.366,63.329L35.68,63.329L38.038,57.326L36.841,57.326L35.023,62.186L33.205,57.326L32.008,57.326L34.366,63.329Z" style="fill-rule:nonzero;"/>
            <path d="M38.695,63.329L42.808,63.329L42.808,62.402L39.748,62.402L39.748,60.737L42.745,60.737L42.745,59.81L39.748,59.81L39.748,58.253L42.808,58.253L42.808,57.326L38.695,57.326L38.695,63.329Z" style="fill-rule:nonzero;"/>
            <path d="M43.888,63.329L47.587,63.329L47.587,62.402L44.941,62.402L44.941,57.326L43.888,57.326L43.888,63.329Z" style="fill-rule:nonzero;"/>
        </g>
    </g>
</svg>
