<?xml version="1.0" encoding="UTF-8" standalone="no"?>
<!DOCTYPE svg PUBLIC "-//W3C//DTD SVG 1.1//EN" "http://www.w3.org/Graphics/SVG/1.1/DTD/svg11.dtd">
<svg width="59px" height="379px" version="1.1" xmlns="http://www.w3.org/2000/svg" xmlns:xlink="http://www.w3.org/1999/xlink" xml:space="preserve" xmlns:serif="http://www.serif.com/" style="fill-rule:evenodd;clip-rule:evenodd;stroke-linecap:round;stroke-miterlimit:8;">
    <g id="Upstage" transform="matrix(1,0,0,1,-15,-742.52)">
        <g id="Background" transform="matrix(0.664042,0,0,0.998498,15,1.11558)">
            <rect x="0" y="742.52" width="90" height="380" style="fill:white;"/>
        </g>
        <g id="BOTTOM-LABELS" serif:id="BOTTOM LABELS" transform="matrix(0.996063,0,0,1,0.0590551,0)">
            <g id="Out-port-BOX" serif:id="Out port BOX" transform="matrix(0.578311,0,0,1.49194,33.9936,741.64)">
                <path d="M65.217,208.318C65.217,207.839 64.209,207.45 62.967,207.45L22.461,207.45C21.219,207.45 20.211,207.839 20.211,208.318L20.211,231.063C20.211,231.542 21.219,231.932 22.461,231.932L62.967,231.932C64.209,231.932 65.217,231.542 65.217,231.063L65.217,208.318Z" style="fill:rgb(230,230,230);stroke:rgb(230,230,230);stroke-width:0.92px;"/>
            </g>
            <g transform="matrix(1.00395,0,0,1,33.8754,1005.79)">
                <path id="OUT-port-label" serif:id="OUT port label" d="M17.68,50.669C17.68,52.076 18.709,53.084 20.116,53.084C21.53,53.084 22.559,52.076 22.559,50.669C22.559,49.262 21.53,48.254 20.116,48.254C18.709,48.254 17.68,49.262 17.68,50.669ZM21.537,50.669C21.537,51.537 20.977,52.202 20.116,52.202C19.255,52.202 18.702,51.537 18.702,50.669C18.702,49.794 19.255,49.136 20.116,49.136C20.977,49.136 21.537,49.794 21.537,50.669Z" style="fill-rule:nonzero;"/>
                <path d="M23.259,51.138C23.259,52.286 23.945,53.084 25.366,53.084C26.787,53.084 27.473,52.293 27.473,51.131L27.473,48.331L26.458,48.331L26.458,51.103C26.458,51.754 26.087,52.202 25.366,52.202C24.645,52.202 24.267,51.754 24.267,51.103L24.267,48.331L23.259,48.331L23.259,51.138Z" style="fill-rule:nonzero;"/>
                <path d="M29.468,53L30.469,53L30.469,49.206L31.827,49.206L31.827,48.331L28.103,48.331L28.103,49.206L29.468,49.206L29.468,53Z" style="fill-rule:nonzero;"/>
            </g>
            <g id="Trig-out-port-BOX" serif:id="Trig out port BOX" transform="matrix(0.578311,0,0,1.49194,33.9936,697.348)">
                <path d="M65.217,208.318C65.217,207.839 64.209,207.45 62.967,207.45L22.461,207.45C21.219,207.45 20.211,207.839 20.211,208.318L20.211,231.063C20.211,231.542 21.219,231.932 22.461,231.932L62.967,231.932C64.209,231.932 65.217,231.542 65.217,231.063L65.217,208.318Z" style="fill:rgb(230,230,230);stroke:rgb(230,230,230);stroke-width:0.92px;"/>
            </g>
            <g transform="matrix(1.00395,0,0,1,33.5934,961.498)">
                <path id="TRIG-out-port-label" serif:id="TRIG out port label" d="M18.777,53L19.778,53L19.778,49.206L21.136,49.206L21.136,48.331L17.412,48.331L17.412,49.206L18.777,49.206L18.777,53Z" style="fill-rule:nonzero;"/>
                <path d="M24.412,53L25.553,53L24.503,51.222C25.007,51.103 25.525,50.662 25.525,49.836C25.525,48.968 24.93,48.331 23.957,48.331L21.773,48.331L21.773,53L22.767,53L22.767,51.341L23.495,51.341L24.412,53ZM24.51,49.836C24.51,50.228 24.209,50.466 23.81,50.466L22.767,50.466L22.767,49.206L23.81,49.206C24.209,49.206 24.51,49.444 24.51,49.836Z" style="fill-rule:nonzero;"/>
                <rect x="26.274" y="48.331" width="0.994" height="4.669" style="fill-rule:nonzero;"/>
                <path d="M27.968,50.669C27.968,52.139 29.088,53.091 30.453,53.091C31.3,53.091 31.965,52.741 32.441,52.209L32.441,50.417L30.215,50.417L30.215,51.285L31.447,51.285L31.447,51.845C31.258,52.02 30.866,52.202 30.453,52.202C29.606,52.202 28.99,51.551 28.99,50.669C28.99,49.787 29.606,49.136 30.453,49.136C30.95,49.136 31.349,49.416 31.559,49.745L32.385,49.297C32.035,48.744 31.426,48.254 30.453,48.254C29.088,48.254 27.968,49.192 27.968,50.669Z" style="fill-rule:nonzero;"/>
            </g>
            <g id="Trig-in-port-BOX" serif:id="Trig in port BOX" transform="matrix(0.578311,0,0,1.49194,6.6023,697.348)">
                <path d="M65.217,208.318C65.217,207.839 64.209,207.45 62.967,207.45L22.461,207.45C21.219,207.45 20.211,207.839 20.211,208.318L20.211,231.063C20.211,231.542 21.219,231.932 22.461,231.932L62.967,231.932C64.209,231.932 65.217,231.542 65.217,231.063L65.217,208.318Z" style="fill:none;stroke:rgb(230,230,230);stroke-width:0.92px;"/>
            </g>
            <g transform="matrix(1.00395,0,0,1,6.20212,961.498)">
                <path id="TRIG-in-port-label" serif:id="TRIG in port label" d="M18.777,53L19.778,53L19.778,49.206L21.136,49.206L21.136,48.331L17.412,48.331L17.412,49.206L18.777,49.206L18.777,53Z" style="fill-rule:nonzero;"/>
                <path d="M24.412,53L25.553,53L24.503,51.222C25.007,51.103 25.525,50.662 25.525,49.836C25.525,48.968 24.93,48.331 23.957,48.331L21.773,48.331L21.773,53L22.767,53L22.767,51.341L23.495,51.341L24.412,53ZM24.51,49.836C24.51,50.228 24.209,50.466 23.81,50.466L22.767,50.466L22.767,49.206L23.81,49.206C24.209,49.206 24.51,49.444 24.51,49.836Z" style="fill-rule:nonzero;"/>
                <rect x="26.274" y="48.331" width="0.994" height="4.669" style="fill-rule:nonzero;"/>
                <path d="M27.968,50.669C27.968,52.139 29.088,53.091 30.453,53.091C31.3,53.091 31.965,52.741 32.441,52.209L32.441,50.417L30.215,50.417L30.215,51.285L31.447,51.285L31.447,51.845C31.258,52.02 30.866,52.202 30.453,52.202C29.606,52.202 28.99,51.551 28.99,50.669C28.99,49.787 29.606,49.136 30.453,49.136C30.95,49.136 31.349,49.416 31.559,49.745L32.385,49.297C32.035,48.744 31.426,48.254 30.453,48.254C29.088,48.254 27.968,49.192 27.968,50.669Z" style="fill-rule:nonzero;"/>
            </g>
            <g id="Wait-port-BOX" serif:id="Wait port BOX" transform="matrix(0.578311,0,0,1.49194,6.6023,653.057)">
                <path d="M65.217,208.318C65.217,207.839 64.209,207.45 62.967,207.45L22.461,207.45C21.219,207.45 20.211,207.839 20.211,208.318L20.211,231.063C20.211,231.542 21.219,231.932 22.461,231.932L62.967,231.932C64.209,231.932 65.217,231.542 65.217,231.063L65.217,208.318Z" style="fill:none;stroke:rgb(230,230,230);stroke-width:0.92px;"/>
            </g>
            <g transform="matrix(1.00395,0,0,1,3.23769,917.206)">
                <path id="WAIT-port-label" serif:id="WAIT port label" d="M23.539,53L24.596,53L25.926,48.331L24.806,48.331L23.994,51.705L23.112,48.331L22.335,48.331L21.446,51.705L20.627,48.331L19.514,48.331L20.851,53L21.908,53L22.72,49.794L23.539,53Z" style="fill-rule:nonzero;"/>
                <path d="M29.307,53L30.441,53L28.642,48.331L27.396,48.331L25.59,53L26.724,53L27.018,52.209L29.02,52.209L29.307,53ZM28.019,49.325L28.747,51.334L27.291,51.334L28.019,49.325Z" style="fill-rule:nonzero;"/>
                <rect x="30.875" y="48.331" width="0.994" height="4.669" style="fill-rule:nonzero;"/>
                <path d="M33.871,53L34.872,53L34.872,49.206L36.23,49.206L36.23,48.331L32.506,48.331L32.506,49.206L33.871,49.206L33.871,53Z" style="fill-rule:nonzero;"/>
            </g>
        </g>
        <g id="TOP-LABELS" serif:id="TOP LABELS" transform="matrix(0.996063,0,0,1,0.0590551,0)">
            <g transform="matrix(1.00395,0,0,1,30.629,860.636)">
                <path id="TRIG-button-label" serif:id="TRIG button label" d="M21.73,53L22.731,53L22.731,49.206L24.089,49.206L24.089,48.331L20.365,48.331L20.365,49.206L21.73,49.206L21.73,53Z" style="fill-rule:nonzero;"/>
                <path d="M27.365,53L28.506,53L27.456,51.222C27.96,51.103 28.478,50.662 28.478,49.836C28.478,48.968 27.883,48.331 26.91,48.331L24.726,48.331L24.726,53L25.72,53L25.72,51.341L26.448,51.341L27.365,53ZM27.463,49.836C27.463,50.228 27.162,50.466 26.763,50.466L25.72,50.466L25.72,49.206L26.763,49.206C27.162,49.206 27.463,49.444 27.463,49.836Z" style="fill-rule:nonzero;"/>
                <rect x="29.227" y="48.331" width="0.994" height="4.669" style="fill-rule:nonzero;"/>
                <path d="M30.921,50.669C30.921,52.139 32.041,53.091 33.406,53.091C34.253,53.091 34.918,52.741 35.394,52.209L35.394,50.417L33.168,50.417L33.168,51.285L34.4,51.285L34.4,51.845C34.211,52.02 33.819,52.202 33.406,52.202C32.559,52.202 31.943,51.551 31.943,50.669C31.943,49.787 32.559,49.136 33.406,49.136C33.903,49.136 34.302,49.416 34.512,49.745L35.338,49.297C34.988,48.744 34.379,48.254 33.406,48.254C32.041,48.254 30.921,49.192 30.921,50.669Z" style="fill-rule:nonzero;"/>
            </g>
            <g transform="matrix(1.00395,0,0,1,3.23769,860.636)">
                <path id="WAIT-button-label" serif:id="WAIT button label" d="M23.539,53L24.596,53L25.926,48.331L24.806,48.331L23.994,51.705L23.112,48.331L22.335,48.331L21.446,51.705L20.627,48.331L19.514,48.331L20.851,53L21.908,53L22.72,49.794L23.539,53Z" style="fill-rule:nonzero;"/>
                <path d="M29.307,53L30.441,53L28.642,48.331L27.396,48.331L25.59,53L26.724,53L27.018,52.209L29.02,52.209L29.307,53ZM28.019,49.325L28.747,51.334L27.291,51.334L28.019,49.325Z" style="fill-rule:nonzero;"/>
                <rect x="30.875" y="48.331" width="0.994" height="4.669" style="fill-rule:nonzero;"/>
                <path d="M33.871,53L34.872,53L34.872,49.206L36.23,49.206L36.23,48.331L32.506,48.331L32.506,49.206L33.871,49.206L33.871,53Z" style="fill-rule:nonzero;"/>
            </g>
            <g transform="matrix(1.00395,0,0,1,-7.93333,803.525)">
                <path id="Level-CV-label" serif:id="Level CV label" d="M37.022,53.084C38.051,53.084 38.639,52.517 38.975,51.936L38.121,51.523C37.925,51.908 37.505,52.202 37.022,52.202C36.175,52.202 35.559,51.551 35.559,50.669C35.559,49.787 36.175,49.136 37.022,49.136C37.505,49.136 37.925,49.437 38.121,49.815L38.975,49.395C38.646,48.814 38.051,48.254 37.022,48.254C35.622,48.254 34.537,49.234 34.537,50.669C34.537,52.104 35.622,53.084 37.022,53.084Z" style="fill-rule:nonzero;"/>
                <path d="M40.851,53L42.097,53L43.896,48.331L42.762,48.331L41.474,51.922L40.179,48.331L39.045,48.331L40.851,53Z" style="fill-rule:nonzero;"/>
            </g>
            <g transform="matrix(1.00395,0,0,1,19.458,839.462)">
                <path id="Level-switch-BI-label" serif:id="Level switch BI label" d="M36.266,49.444L38.8,49.444C39.689,49.444 40.158,48.884 40.158,48.184C40.158,47.596 39.759,47.113 39.262,47.036C39.703,46.945 40.067,46.553 40.067,45.965C40.067,45.342 39.612,44.775 38.723,44.775L36.266,44.775L36.266,49.444ZM37.26,46.644L37.26,45.629L38.506,45.629C38.842,45.629 39.052,45.846 39.052,46.14C39.052,46.434 38.842,46.644 38.506,46.644L37.26,46.644ZM37.26,48.583L37.26,47.498L38.541,47.498C38.933,47.498 39.143,47.75 39.143,48.044C39.143,48.38 38.919,48.583 38.541,48.583L37.26,48.583Z" style="fill-rule:nonzero;"/>
                <rect x="40.907" y="44.775" width="0.994" height="4.669" style="fill-rule:nonzero;"/>
            </g>
            <g transform="matrix(1.00395,0,0,1,19.458,803.525)">
                <path id="Level-switch-UNI-label" serif:id="Level switch UNI label" d="M33.469,51.138C33.469,52.286 34.155,53.084 35.576,53.084C36.997,53.084 37.683,52.293 37.683,51.131L37.683,48.331L36.668,48.331L36.668,51.103C36.668,51.754 36.297,52.202 35.576,52.202C34.855,52.202 34.477,51.754 34.477,51.103L34.477,48.331L33.469,48.331L33.469,51.138Z" style="fill-rule:nonzero;"/>
                <path d="M41.82,53L42.779,53L42.779,48.331L41.785,48.331L41.785,51.264L39.622,48.331L38.6,48.331L38.6,53L39.594,53L39.594,49.955L41.82,53Z" style="fill-rule:nonzero;"/>
                <rect x="43.703" y="48.331" width="0.994" height="4.669" style="fill-rule:nonzero;"/>
            </g>
            <g transform="matrix(1.00395,0,0,1,5.76233,741.606)">
                <path id="LEVEL-knob-label" serif:id="LEVEL knob label" d="M26.848,53L30.547,53L30.547,52.073L27.901,52.073L27.901,46.997L26.848,46.997L26.848,53Z" style="fill-rule:nonzero;"/>
                <path d="M31.501,53L35.614,53L35.614,52.073L32.554,52.073L32.554,50.408L35.551,50.408L35.551,49.481L32.554,49.481L32.554,47.924L35.614,47.924L35.614,46.997L31.501,46.997L31.501,53Z" style="fill-rule:nonzero;"/>
                <path d="M38.422,53L39.736,53L42.094,46.997L40.897,46.997L39.079,51.857L37.261,46.997L36.064,46.997L38.422,53Z" style="fill-rule:nonzero;"/>
                <path d="M42.751,53L46.864,53L46.864,52.073L43.804,52.073L43.804,50.408L46.801,50.408L46.801,49.481L43.804,49.481L43.804,47.924L46.864,47.924L46.864,46.997L42.751,46.997L42.751,53Z" style="fill-rule:nonzero;"/>
                <path d="M47.944,53L51.643,53L51.643,52.073L48.997,52.073L48.997,46.997L47.944,46.997L47.944,53Z" style="fill-rule:nonzero;"/>
            </g>
        </g>
        <g id="TITLES" transform="matrix(0.866438,0,0,0.998498,35.7741,1.11554)">
            <g transform="matrix(1.15415,0,0,1.0015,-42.7602,1059.43)">
                <path id="AUTHOR-NAME" serif:id="AUTHOR NAME" d="M34.777,45.104L37.927,45.104C40.431,45.104 42.168,43.523 42.168,41.115C42.168,38.708 40.431,37.114 37.927,37.114L34.777,37.114L34.777,45.104ZM36.478,43.607L36.478,38.612L37.927,38.612C39.568,38.612 40.431,39.702 40.431,41.115C40.431,42.469 39.508,43.607 37.927,43.607L36.478,43.607Z" style="fill-rule:nonzero;"/>
                <path d="M48.852,45.104L50.565,45.104L50.565,37.114L48.852,37.114L48.852,40.253L45.079,40.253L45.079,37.114L43.378,37.114L43.378,45.104L45.079,45.104L45.079,41.75L48.852,41.75L48.852,45.104Z" style="fill-rule:nonzero;"/>
                <path d="M52.135,45.104L57.789,45.104L57.789,43.607L53.836,43.607L53.836,41.798L57.705,41.798L57.705,40.301L53.836,40.301L53.836,38.612L57.789,38.612L57.789,37.114L52.135,37.114L52.135,45.104Z" style="fill-rule:nonzero;"/>
            </g>
            <g transform="matrix(1.15415,0,0,1.0015,-42.7602,728.231)">
                <path id="PLUGIN-NAME" serif:id="PLUGIN NAME" d="M20.468,36.965C20.468,38.929 21.642,40.295 24.073,40.295C26.505,40.295 27.679,38.941 27.679,36.953L27.679,32.161L25.942,32.161L25.942,36.905C25.942,38.019 25.307,38.786 24.073,38.786C22.839,38.786 22.193,38.019 22.193,36.905L22.193,32.161L20.468,32.161L20.468,36.965Z" style="fill-rule:nonzero;"/>
                <path d="M29.248,40.151L30.949,40.151L30.949,37.312L32.986,37.312C34.711,37.312 35.669,36.126 35.669,34.737C35.669,33.335 34.723,32.161 32.986,32.161L29.248,32.161L29.248,40.151ZM33.932,34.737C33.932,35.396 33.429,35.815 32.758,35.815L30.949,35.815L30.949,33.659L32.758,33.659C33.429,33.659 33.932,34.066 33.932,34.737Z" style="fill-rule:nonzero;"/>
                <path d="M36.184,39.025C36.927,39.78 38.029,40.295 39.562,40.295C41.719,40.295 42.761,39.193 42.761,37.732C42.761,35.923 41.084,35.527 39.766,35.216C38.904,35.012 38.173,34.845 38.173,34.329C38.173,33.85 38.58,33.527 39.311,33.527C40.125,33.527 40.988,33.802 41.635,34.401L42.581,33.155C41.791,32.425 40.736,32.041 39.467,32.041C37.586,32.041 36.436,33.144 36.436,34.473C36.436,36.294 38.113,36.653 39.419,36.953C40.293,37.169 41.036,37.336 41.036,37.923C41.036,38.378 40.581,38.81 39.646,38.81C38.544,38.81 37.67,38.319 37.107,37.732L36.184,39.025Z" style="fill-rule:nonzero;"/>
                <path d="M45.672,40.151L47.385,40.151L47.385,33.659L49.709,33.659L49.709,32.161L43.336,32.161L43.336,33.659L45.672,33.659L45.672,40.151Z" style="fill-rule:nonzero;"/>
                <path d="M55.543,40.151L57.483,40.151L54.405,32.161L52.272,32.161L49.182,40.151L51.122,40.151L51.625,38.798L55.051,38.798L55.543,40.151ZM53.338,33.862L54.584,37.3L52.093,37.3L53.338,33.862Z" style="fill-rule:nonzero;"/>
                <path d="M57.435,36.162C57.435,38.678 59.352,40.307 61.688,40.307C63.137,40.307 64.275,39.708 65.09,38.798L65.09,35.731L61.281,35.731L61.281,37.216L63.389,37.216L63.389,38.175C63.066,38.474 62.395,38.786 61.688,38.786C60.238,38.786 59.184,37.672 59.184,36.162C59.184,34.653 60.238,33.539 61.688,33.539C62.538,33.539 63.221,34.018 63.581,34.581L64.994,33.814C64.395,32.868 63.353,32.029 61.688,32.029C59.352,32.029 57.435,33.635 57.435,36.162Z" style="fill-rule:nonzero;"/>
                <path d="M66.444,40.151L72.098,40.151L72.098,38.654L68.145,38.654L68.145,36.845L72.014,36.845L72.014,35.348L68.145,35.348L68.145,33.659L72.098,33.659L72.098,32.161L66.444,32.161L66.444,40.151Z" style="fill-rule:nonzero;"/>
            </g>
        </g>
    </g>
</svg>
