<?xml version="1.0" encoding="UTF-8" standalone="no"?>
<!DOCTYPE svg PUBLIC "-//W3C//DTD SVG 1.1//EN" "http://www.w3.org/Graphics/SVG/1.1/DTD/svg11.dtd">
<svg width="61px" height="380px" version="1.1" xmlns="http://www.w3.org/2000/svg" xmlns:xlink="http://www.w3.org/1999/xlink" xml:space="preserve" xmlns:serif="http://www.serif.com/" style="fill-rule:evenodd;clip-rule:evenodd;stroke-linecap:round;stroke-linejoin:round;stroke-miterlimit:1.5;">
    <g transform="matrix(1,0,0,1,-206,0)">
        <g id="Upstage" transform="matrix(2.35982,0,0,12.5786,511.111,-86.6018)">
            <rect x="-129.001" y="6.885" width="25.326" height="30.165" style="fill:rgb(230,255,230);"/>
            <clipPath id="_clip1">
                <rect x="-129.001" y="6.885" width="25.326" height="30.165"/>
            </clipPath>
            <g clip-path="url(#_clip1)">
                <g id="Background" transform="matrix(0.513426,0,0,0.353117,-305.333,-3.72088)">
                    <rect x="343.442" y="30.035" width="49.327" height="85.424" style="fill:rgb(230,242,255);"/>
                    <path d="M392.768,115.458L343.442,115.458L343.442,30.035L392.768,30.035L392.768,115.458ZM344.051,30.201L344.051,115.292L392.159,115.292L392.159,30.201L344.051,30.201Z" style="fill:rgb(0,77,153);"/>
                </g>
                <g id="OUT" transform="matrix(0.51625,0,0,0.0983737,-151.863,27.7923)">
                    <rect x="66.681" y="35.639" width="26.661" height="38.18" style="fill:none;"/>
                    <g id="Border" transform="matrix(0.819372,0,0,0.585831,44.357,-0.655943)">
                        <path d="M56.502,67.682C56.502,65.708 55.338,64.105 53.904,64.105L33.125,64.105C31.691,64.105 30.527,65.708 30.527,67.682L30.527,110.886C30.527,112.86 31.691,114.463 33.125,114.463L53.904,114.463C55.338,114.463 56.502,112.86 56.502,110.886L56.502,67.682Z" style="fill:rgb(0,77,153);stroke:rgb(0,77,153);stroke-width:1.15px;"/>
                    </g>
                    <g transform="matrix(0.820847,0,0,0.808143,56.9184,3.09951)">
                        <path id="Label" d="M21.112,47.12C21.112,48.523 22.138,49.528 23.541,49.528C24.951,49.528 25.977,48.523 25.977,47.12C25.977,45.718 24.951,44.713 23.541,44.713C22.138,44.713 21.112,45.718 21.112,47.12ZM24.958,47.12C24.958,47.986 24.399,48.649 23.541,48.649C22.683,48.649 22.131,47.986 22.131,47.12C22.131,46.248 22.683,45.592 23.541,45.592C24.399,45.592 24.958,46.248 24.958,47.12Z" style="fill:rgb(230,242,255);fill-rule:nonzero;"/>
                        <path d="M26.675,47.588C26.675,48.733 27.359,49.528 28.775,49.528C30.192,49.528 30.876,48.74 30.876,47.581L30.876,44.789L29.864,44.789L29.864,47.553C29.864,48.202 29.494,48.649 28.775,48.649C28.057,48.649 27.68,48.202 27.68,47.553L27.68,44.789L26.675,44.789L26.675,47.588Z" style="fill:rgb(230,242,255);fill-rule:nonzero;"/>
                        <path d="M32.865,49.445L33.863,49.445L33.863,45.662L35.217,45.662L35.217,44.789L31.504,44.789L31.504,45.662L32.865,45.662L32.865,49.445Z" style="fill:rgb(230,242,255);fill-rule:nonzero;"/>
                    </g>
                </g>
                <g id="TRIG-OUT" serif:id="TRIG OUT" transform="matrix(0.51625,0,0,0.0983737,-151.863,24.2711)">
                    <rect x="66.681" y="35.639" width="26.661" height="38.18" style="fill:none;"/>
                    <g id="Border1" serif:id="Border" transform="matrix(0.819372,0,0,0.585831,44.357,-0.655943)">
                        <path d="M56.502,67.682C56.502,65.708 55.338,64.105 53.904,64.105L33.125,64.105C31.691,64.105 30.527,65.708 30.527,67.682L30.527,110.886C30.527,112.86 31.691,114.463 33.125,114.463L53.904,114.463C55.338,114.463 56.502,112.86 56.502,110.886L56.502,67.682Z" style="fill:rgb(0,77,153);stroke:rgb(0,77,153);stroke-width:1.15px;"/>
                    </g>
                    <g transform="matrix(0.820847,0,0,0.808143,56.9184,3.09951)">
                        <path id="Label1" serif:id="Label" d="M21.925,49.445L22.923,49.445L22.923,45.662L24.277,45.662L24.277,44.789L20.564,44.789L20.564,45.662L21.925,45.662L21.925,49.445Z" style="fill:rgb(230,242,255);fill-rule:nonzero;"/>
                        <path d="M27.544,49.445L28.681,49.445L27.634,47.672C28.137,47.553 28.653,47.113 28.653,46.29C28.653,45.425 28.06,44.789 27.09,44.789L24.912,44.789L24.912,49.445L25.903,49.445L25.903,47.79L26.629,47.79L27.544,49.445ZM27.641,46.29C27.641,46.681 27.341,46.918 26.943,46.918L25.903,46.918L25.903,45.662L26.943,45.662C27.341,45.662 27.641,45.899 27.641,46.29Z" style="fill:rgb(230,242,255);fill-rule:nonzero;"/>
                        <rect x="29.4" y="44.789" width="0.991" height="4.655" style="fill:rgb(230,242,255);fill-rule:nonzero;"/>
                        <path d="M31.089,47.12C31.089,48.586 32.206,49.535 33.567,49.535C34.411,49.535 35.074,49.186 35.549,48.656L35.549,46.869L33.329,46.869L33.329,47.735L34.558,47.735L34.558,48.293C34.369,48.467 33.978,48.649 33.567,48.649C32.722,48.649 32.108,48 32.108,47.12C32.108,46.241 32.722,45.592 33.567,45.592C34.062,45.592 34.46,45.871 34.669,46.199L35.493,45.753C35.144,45.201 34.537,44.713 33.567,44.713C32.206,44.713 31.089,45.648 31.089,47.12Z" style="fill:rgb(230,242,255);fill-rule:nonzero;"/>
                    </g>
                </g>
                <g id="TRIG-IN" serif:id="TRIG IN" transform="matrix(0.51625,0,0,0.0983737,-163.425,24.2711)">
                    <rect x="66.681" y="35.639" width="26.661" height="38.18" style="fill:none;"/>
                    <g id="Border2" serif:id="Border" transform="matrix(0.819372,0,0,0.585831,44.357,-0.655943)">
                        <path d="M56.502,67.682C56.502,65.708 55.338,64.105 53.904,64.105L33.125,64.105C31.691,64.105 30.527,65.708 30.527,67.682L30.527,110.886C30.527,112.86 31.691,114.463 33.125,114.463L53.904,114.463C55.338,114.463 56.502,112.86 56.502,110.886L56.502,67.682Z" style="fill:none;stroke:rgb(0,77,153);stroke-width:1.15px;"/>
                    </g>
                    <g transform="matrix(0.820847,0,0,0.808143,56.9184,3.09951)">
                        <path id="Label2" serif:id="Label" d="M21.925,49.445L22.923,49.445L22.923,45.662L24.277,45.662L24.277,44.789L20.564,44.789L20.564,45.662L21.925,45.662L21.925,49.445Z" style="fill:rgb(0,77,153);fill-rule:nonzero;"/>
                        <path d="M27.544,49.445L28.681,49.445L27.634,47.672C28.137,47.553 28.653,47.113 28.653,46.29C28.653,45.425 28.06,44.789 27.09,44.789L24.912,44.789L24.912,49.445L25.903,49.445L25.903,47.79L26.629,47.79L27.544,49.445ZM27.641,46.29C27.641,46.681 27.341,46.918 26.943,46.918L25.903,46.918L25.903,45.662L26.943,45.662C27.341,45.662 27.641,45.899 27.641,46.29Z" style="fill:rgb(0,77,153);fill-rule:nonzero;"/>
                        <rect x="29.4" y="44.789" width="0.991" height="4.655" style="fill:rgb(0,77,153);fill-rule:nonzero;"/>
                        <path d="M31.089,47.12C31.089,48.586 32.206,49.535 33.567,49.535C34.411,49.535 35.074,49.186 35.549,48.656L35.549,46.869L33.329,46.869L33.329,47.735L34.558,47.735L34.558,48.293C34.369,48.467 33.978,48.649 33.567,48.649C32.722,48.649 32.108,48 32.108,47.12C32.108,46.241 32.722,45.592 33.567,45.592C34.062,45.592 34.46,45.871 34.669,46.199L35.493,45.753C35.144,45.201 34.537,44.713 33.567,44.713C32.206,44.713 31.089,45.648 31.089,47.12Z" style="fill:rgb(0,77,153);fill-rule:nonzero;"/>
                    </g>
                </g>
                <g id="WAIT" transform="matrix(0.51625,0,0,0.0983737,-163.425,20.75)">
                    <rect x="66.681" y="35.639" width="26.661" height="38.18" style="fill:none;"/>
                    <g id="Border3" serif:id="Border" transform="matrix(0.819372,0,0,0.585831,44.357,-0.655943)">
                        <path d="M56.502,67.682C56.502,65.708 55.338,64.105 53.904,64.105L33.125,64.105C31.691,64.105 30.527,65.708 30.527,67.682L30.527,110.886C30.527,112.86 31.691,114.463 33.125,114.463L53.904,114.463C55.338,114.463 56.502,112.86 56.502,110.886L56.502,67.682Z" style="fill:none;stroke:rgb(0,77,153);stroke-width:1.15px;"/>
                    </g>
                    <g transform="matrix(0.820847,0,0,0.808143,56.9184,3.09951)">
                        <path id="Label3" serif:id="Label" d="M23.729,49.445L24.783,49.445L26.109,44.789L24.993,44.789L24.183,48.153L23.304,44.789L22.529,44.789L21.643,48.153L20.826,44.789L19.716,44.789L21.049,49.445L22.103,49.445L22.913,46.248L23.729,49.445Z" style="fill:rgb(0,77,153);fill-rule:nonzero;"/>
                        <path d="M29.48,49.445L30.611,49.445L28.817,44.789L27.575,44.789L25.774,49.445L26.905,49.445L27.198,48.656L29.194,48.656L29.48,49.445ZM28.196,45.78L28.922,47.783L27.47,47.783L28.196,45.78Z" style="fill:rgb(0,77,153);fill-rule:nonzero;"/>
                        <rect x="31.044" y="44.789" width="0.991" height="4.655" style="fill:rgb(0,77,153);fill-rule:nonzero;"/>
                        <path d="M34.031,49.445L35.029,49.445L35.029,45.662L36.383,45.662L36.383,44.789L32.67,44.789L32.67,45.662L34.031,45.662L34.031,49.445Z" style="fill:rgb(0,77,153);fill-rule:nonzero;"/>
                    </g>
                </g>
                <g id="TRIG" transform="matrix(0.354792,0,0,0.0721348,-247.678,16.6359)">
                    <rect x="370.611" y="45.432" width="31.741" height="42.305" style="fill:none;"/>
                    <g transform="matrix(1.19439,0,0,1.1021,353.091,-1.08203)">
                        <path id="Label4" serif:id="Label" d="M21.748,49.445L22.746,49.445L22.746,45.662L24.1,45.662L24.1,44.789L20.387,44.789L20.387,45.662L21.748,45.662L21.748,49.445Z" style="fill:rgb(0,77,153);fill-rule:nonzero;"/>
                        <path d="M27.366,49.445L28.504,49.445L27.457,47.672C27.96,47.553 28.476,47.113 28.476,46.29C28.476,45.425 27.883,44.789 26.913,44.789L24.735,44.789L24.735,49.445L25.726,49.445L25.726,47.79L26.452,47.79L27.366,49.445ZM27.464,46.29C27.464,46.681 27.164,46.918 26.766,46.918L25.726,46.918L25.726,45.662L26.766,45.662C27.164,45.662 27.464,45.899 27.464,46.29Z" style="fill:rgb(0,77,153);fill-rule:nonzero;"/>
                        <rect x="29.223" y="44.789" width="0.991" height="4.655" style="fill:rgb(0,77,153);fill-rule:nonzero;"/>
                        <path d="M30.912,47.12C30.912,48.586 32.029,49.535 33.389,49.535C34.234,49.535 34.897,49.186 35.372,48.656L35.372,46.869L33.152,46.869L33.152,47.735L34.38,47.735L34.38,48.293C34.192,48.467 33.801,48.649 33.389,48.649C32.545,48.649 31.931,48 31.931,47.12C31.931,46.241 32.545,45.592 33.389,45.592C33.885,45.592 34.283,45.871 34.492,46.199L35.316,45.753C34.967,45.201 34.36,44.713 33.389,44.713C32.029,44.713 30.912,45.648 30.912,47.12Z" style="fill:rgb(0,77,153);fill-rule:nonzero;"/>
                    </g>
                </g>
                <g id="WAIT1" serif:id="WAIT" transform="matrix(0.354792,0,0,0.0721348,-259.24,16.6359)">
                    <rect x="370.611" y="45.432" width="31.741" height="42.305" style="fill:none;"/>
                    <g transform="matrix(1.19439,0,0,1.1021,353.091,-1.08203)">
                        <path id="Label5" serif:id="Label" d="M23.552,49.445L24.606,49.445L25.932,44.789L24.816,44.789L24.006,48.153L23.127,44.789L22.352,44.789L21.466,48.153L20.649,44.789L19.539,44.789L20.872,49.445L21.926,49.445L22.736,46.248L23.552,49.445Z" style="fill:rgb(0,77,153);fill-rule:nonzero;"/>
                        <path d="M29.303,49.445L30.434,49.445L28.64,44.789L27.398,44.789L25.597,49.445L26.728,49.445L27.021,48.656L29.017,48.656L29.303,49.445ZM28.019,45.78L28.745,47.783L27.293,47.783L28.019,45.78Z" style="fill:rgb(0,77,153);fill-rule:nonzero;"/>
                        <rect x="30.866" y="44.789" width="0.991" height="4.655" style="fill:rgb(0,77,153);fill-rule:nonzero;"/>
                        <path d="M33.854,49.445L34.852,49.445L34.852,45.662L36.206,45.662L36.206,44.789L32.493,44.789L32.493,45.662L33.854,45.662L33.854,49.445Z" style="fill:rgb(0,77,153);fill-rule:nonzero;"/>
                    </g>
                </g>
                <g id="Level" transform="matrix(2.00099,0,0,1,118.529,8.88178e-15)">
                    <g>
                        <g id="Switch" transform="matrix(0.16421,0,0,0.0571875,-120.801,11.8288)">
                            <rect x="21.318" y="61.322" width="34.273" height="61.572" style="fill:none;"/>
                            <g transform="matrix(1.28967,0,0,1.39016,7.06434,48.3137)">
                                <path id="BI" d="M21.531,49.445L24.057,49.445C24.944,49.445 25.411,48.886 25.411,48.188C25.411,47.602 25.013,47.12 24.518,47.044C24.957,46.953 25.32,46.562 25.32,45.976C25.32,45.355 24.867,44.789 23.98,44.789L21.531,44.789L21.531,49.445ZM22.522,46.653L22.522,45.641L23.764,45.641C24.099,45.641 24.308,45.857 24.308,46.15C24.308,46.443 24.099,46.653 23.764,46.653L22.522,46.653ZM22.522,48.586L22.522,47.504L23.799,47.504C24.19,47.504 24.399,47.756 24.399,48.049C24.399,48.384 24.176,48.586 23.799,48.586L22.522,48.586Z" style="fill:rgb(0,77,153);fill-rule:nonzero;"/>
                                <rect x="26.158" y="44.789" width="0.991" height="4.655" style="fill:rgb(0,77,153);fill-rule:nonzero;"/>
                            </g>
                            <g transform="matrix(1.28967,0,0,1.39016,7.06434,3.2962)">
                                <path id="UNI" d="M18.743,47.588C18.743,48.733 19.427,49.528 20.843,49.528C22.26,49.528 22.944,48.74 22.944,47.581L22.944,44.789L21.932,44.789L21.932,47.553C21.932,48.202 21.562,48.649 20.843,48.649C20.124,48.649 19.748,48.202 19.748,47.553L19.748,44.789L18.743,44.789L18.743,47.588Z" style="fill:rgb(0,77,153);fill-rule:nonzero;"/>
                                <path d="M27.069,49.445L28.025,49.445L28.025,44.789L27.034,44.789L27.034,47.714L24.877,44.789L23.858,44.789L23.858,49.445L24.849,49.445L24.849,46.409L27.069,49.445Z" style="fill:rgb(0,77,153);fill-rule:nonzero;"/>
                                <rect x="28.946" y="44.789" width="0.991" height="4.655" style="fill:rgb(0,77,153);fill-rule:nonzero;"/>
                            </g>
                        </g>
                        <g id="CV" transform="matrix(0.257997,0,0,0.0983737,-140.907,11.7123)">
                            <rect x="66.681" y="35.639" width="26.661" height="38.18" style="fill:none;"/>
                            <g transform="matrix(0.820847,0,0,0.808143,56.9184,3.09951)">
                                <path id="Label6" serif:id="Label" d="M26.078,49.528C27.104,49.528 27.69,48.963 28.025,48.384L27.174,47.972C26.978,48.356 26.56,48.649 26.078,48.649C25.233,48.649 24.619,48 24.619,47.12C24.619,46.241 25.233,45.592 26.078,45.592C26.56,45.592 26.978,45.892 27.174,46.269L28.025,45.85C27.697,45.271 27.104,44.713 26.078,44.713C24.682,44.713 23.6,45.69 23.6,47.12C23.6,48.551 24.682,49.528 26.078,49.528Z" style="fill:rgb(0,77,153);fill-rule:nonzero;"/>
                                <path d="M29.896,49.445L31.138,49.445L32.932,44.789L31.801,44.789L30.517,48.37L29.226,44.789L28.095,44.789L29.896,49.445Z" style="fill:rgb(0,77,153);fill-rule:nonzero;"/>
                            </g>
                        </g>
                        <g id="Knob" transform="matrix(0.132047,0,0,0.0806623,-125.274,2.44288)">
                            <rect x="24.299" y="98.722" width="71.034" height="58.204" style="fill:none;"/>
                            <g transform="matrix(1.60379,0,0,0.98559,8.54239,56.3603)">
                                <path id="Label-Large" serif:id="Label Large" d="M19.59,50.776L23.388,50.776L23.388,49.656L20.862,49.656L20.862,44.801L19.59,44.801L19.59,50.776Z" style="fill:rgb(0,77,153);fill-rule:nonzero;"/>
                                <path d="M24.275,50.776L28.504,50.776L28.504,49.656L25.547,49.656L25.547,48.304L28.441,48.304L28.441,47.184L25.547,47.184L25.547,45.921L28.504,45.921L28.504,44.801L24.275,44.801L24.275,50.776Z" style="fill:rgb(0,77,153);fill-rule:nonzero;"/>
                                <path d="M31.173,50.776L32.768,50.776L35.07,44.801L33.619,44.801L31.97,49.397L30.313,44.801L28.862,44.801L31.173,50.776Z" style="fill:rgb(0,77,153);fill-rule:nonzero;"/>
                                <path d="M35.625,50.776L39.854,50.776L39.854,49.656L36.898,49.656L36.898,48.304L39.791,48.304L39.791,47.184L36.898,47.184L36.898,45.921L39.854,45.921L39.854,44.801L35.625,44.801L35.625,50.776Z" style="fill:rgb(0,77,153);fill-rule:nonzero;"/>
                                <path d="M40.848,50.776L44.646,50.776L44.646,49.656L42.12,49.656L42.12,44.801L40.848,44.801L40.848,50.776Z" style="fill:rgb(0,77,153);fill-rule:nonzero;"/>
                            </g>
                        </g>
                    </g>
                </g>
                <g id="Plugin-Labels" serif:id="Plugin Labels" transform="matrix(2.00099,0,0,1,129.128,0)">
                    <g transform="matrix(0.211776,0,0,0.0795,-132.447,32.4349)">
                        <path id="DHE" d="M34.777,40.151L37.927,40.151C40.431,40.151 42.168,38.57 42.168,36.162C42.168,33.754 40.431,32.161 37.927,32.161L34.777,32.161L34.777,40.151ZM36.478,38.654L36.478,33.659L37.927,33.659C39.568,33.659 40.431,34.749 40.431,36.162C40.431,37.516 39.508,38.654 37.927,38.654L36.478,38.654Z" style="fill:rgb(0,77,153);fill-rule:nonzero;"/>
                        <path d="M48.852,40.151L50.565,40.151L50.565,32.161L48.852,32.161L48.852,35.3L45.079,35.3L45.079,32.161L43.378,32.161L43.378,40.151L45.079,40.151L45.079,36.797L48.852,36.797L48.852,40.151Z" style="fill:rgb(0,77,153);fill-rule:nonzero;"/>
                        <path d="M52.135,40.151L57.789,40.151L57.789,38.654L53.836,38.654L53.836,36.845L57.705,36.845L57.705,35.348L53.836,35.348L53.836,33.659L57.789,33.659L57.789,32.161L52.135,32.161L52.135,40.151Z" style="fill:rgb(0,77,153);fill-rule:nonzero;"/>
                    </g>
                    <g transform="matrix(0.211776,0,0,0.0795,-132.447,4.32802)">
                        <path id="Plugin" d="M20.468,54.859C20.468,56.823 21.642,58.189 24.073,58.189C26.505,58.189 27.679,56.835 27.679,54.847L27.679,50.055L25.942,50.055L25.942,54.799C25.942,55.913 25.307,56.679 24.073,56.679C22.839,56.679 22.193,55.913 22.193,54.799L22.193,50.055L20.468,50.055L20.468,54.859Z" style="fill:rgb(0,77,153);fill-rule:nonzero;"/>
                        <path d="M29.248,58.045L30.949,58.045L30.949,55.206L32.986,55.206C34.711,55.206 35.669,54.02 35.669,52.63C35.669,51.229 34.723,50.055 32.986,50.055L29.248,50.055L29.248,58.045ZM33.932,52.63C33.932,53.289 33.429,53.709 32.758,53.709L30.949,53.709L30.949,51.552L32.758,51.552C33.429,51.552 33.932,51.96 33.932,52.63Z" style="fill:rgb(0,77,153);fill-rule:nonzero;"/>
                        <path d="M36.184,56.919C36.927,57.674 38.029,58.189 39.562,58.189C41.719,58.189 42.761,57.087 42.761,55.625C42.761,53.816 41.084,53.421 39.766,53.11C38.904,52.906 38.173,52.738 38.173,52.223C38.173,51.744 38.58,51.421 39.311,51.421C40.125,51.421 40.988,51.696 41.635,52.295L42.581,51.049C41.791,50.319 40.736,49.935 39.467,49.935C37.586,49.935 36.436,51.037 36.436,52.367C36.436,54.188 38.113,54.547 39.419,54.847C40.293,55.062 41.036,55.23 41.036,55.817C41.036,56.272 40.581,56.703 39.646,56.703C38.544,56.703 37.67,56.212 37.107,55.625L36.184,56.919Z" style="fill:rgb(0,77,153);fill-rule:nonzero;"/>
                        <path d="M45.672,58.045L47.385,58.045L47.385,51.552L49.709,51.552L49.709,50.055L43.336,50.055L43.336,51.552L45.672,51.552L45.672,58.045Z" style="fill:rgb(0,77,153);fill-rule:nonzero;"/>
                        <path d="M55.543,58.045L57.483,58.045L54.405,50.055L52.272,50.055L49.182,58.045L51.122,58.045L51.625,56.691L55.051,56.691L55.543,58.045ZM53.338,51.756L54.584,55.194L52.093,55.194L53.338,51.756Z" style="fill:rgb(0,77,153);fill-rule:nonzero;"/>
                        <path d="M57.435,54.056C57.435,56.572 59.352,58.201 61.688,58.201C63.137,58.201 64.275,57.602 65.09,56.691L65.09,53.625L61.281,53.625L61.281,55.11L63.389,55.11L63.389,56.069C63.066,56.368 62.395,56.679 61.688,56.679C60.238,56.679 59.184,55.565 59.184,54.056C59.184,52.547 60.238,51.433 61.688,51.433C62.538,51.433 63.221,51.912 63.581,52.475L64.994,51.708C64.395,50.762 63.353,49.923 61.688,49.923C59.352,49.923 57.435,51.528 57.435,54.056Z" style="fill:rgb(0,77,153);fill-rule:nonzero;"/>
                        <path d="M66.444,58.045L72.098,58.045L72.098,56.548L68.145,56.548L68.145,54.739L72.014,54.739L72.014,53.241L68.145,53.241L68.145,51.552L72.098,51.552L72.098,50.055L66.444,50.055L66.444,58.045Z" style="fill:rgb(0,77,153);fill-rule:nonzero;"/>
                    </g>
                </g>
            </g>
        </g>
    </g>
</svg>
