<?xml version="1.0" encoding="UTF-8" standalone="no"?>
<svg
   xmlns:dc="http://purl.org/dc/elements/1.1/"
   xmlns:cc="http://creativecommons.org/ns#"
   xmlns:rdf="http://www.w3.org/1999/02/22-rdf-syntax-ns#"
   xmlns:svg="http://www.w3.org/2000/svg"
   xmlns="http://www.w3.org/2000/svg"
   id="svg66"
   height="379.42913385826773"
   width="120.0"
   version="1.1">
  <metadata
     id="metadata72">
    <rdf:RDF>
      <cc:Work
         rdf:about="">
        <dc:format>image/svg+xml</dc:format>
        <dc:type
           rdf:resource="http://purl.org/dc/dcmitype/StillImage" />
      </cc:Work>
    </rdf:RDF>
  </metadata>
  <defs
     id="defs70" />
  <g
     id="g64"
     transform="scale(2.9527559)">
    <path
       id="rect2"
       d="M 0,0 H 40.639999 V 128.5 H 0 Z"
       style="fill:#fff7f0;stroke:#994d00;stroke-width:1" />
    <g
       id="text4"
       style="font-weight:bold;font-size:4.06400013px;font-family:'Proxima Nova';text-anchor:middle;fill:#994d00"
       aria-label="TAPERS">
      <path
         id="path75"
         style="font-weight:bold;font-size:4.06400013px;font-family:'Proxima Nova';text-anchor:middle;fill:#994d00"
         d="m 13.796486,9 h 0.581152 V 6.7973119 h 0.788416 v -0.508 h -2.162048 v 0.508 h 0.79248 z" />
      <path
         id="path77"
         style="font-weight:bold;font-size:4.06400013px;font-family:'Proxima Nova';text-anchor:middle;fill:#994d00"
         d="m 17.143507,9 h 0.658368 L 16.757427,6.2893119 H 16.034035 L 14.985523,9 h 0.658368 l 0.170688,-0.459232 h 1.162304 z M 16.395731,6.8663999 16.818387,8.032768 h -0.845312 z" />
      <path
         id="path79"
         style="font-weight:bold;font-size:4.06400013px;font-family:'Proxima Nova';text-anchor:middle;fill:#994d00"
         d="M 18.052192,9 H 18.62928 V 8.036832 h 0.69088 c 0.585216,0 0.910336,-0.402336 0.910336,-0.8737601 0,-0.475488 -0.321056,-0.87376 -0.910336,-0.87376 h -1.267968 z m 1.589024,-1.8369281 c 0,0.22352 -0.170688,0.3657601 -0.398272,0.3657601 H 18.62928 V 6.7973119 h 0.613664 c 0.227584,0 0.398272,0.138176 0.398272,0.36576 z" />
      <path
         id="path81"
         style="font-weight:bold;font-size:4.06400013px;font-family:'Proxima Nova';text-anchor:middle;fill:#994d00"
         d="m 20.584255,9 h 1.918208 V 8.492 h -1.34112 V 7.878336 h 1.312672 V 7.3703359 h -1.312672 v -0.573024 h 1.34112 v -0.508 h -1.918208 z" />
      <path
         id="path83"
         style="font-weight:bold;font-size:4.06400013px;font-family:'Proxima Nova';text-anchor:middle;fill:#994d00"
         d="m 24.489695,9 h 0.662433 L 24.542527,7.967744 c 0.292608,-0.069088 0.593344,-0.32512 0.593344,-0.8046721 0,-0.503936 -0.34544,-0.87376 -0.910336,-0.87376 H 22.957567 V 9 h 0.577088 V 8.036832 h 0.422656 z m 0.0569,-1.8369281 c 0,0.227584 -0.174752,0.3657601 -0.4064,0.3657601 H 23.534655 V 6.7973119 h 0.605536 c 0.231648,0 0.4064,0.138176 0.4064,0.36576 z" />
      <path
         id="path85"
         style="font-weight:bold;font-size:4.06400013px;font-family:'Proxima Nova';text-anchor:middle;fill:#994d00"
         d="m 25.386125,8.617984 c 0.251968,0.256032 0.625856,0.430784 1.146048,0.430784 0.73152,0 1.085088,-0.373888 1.085088,-0.869696 0,-0.613664 -0.56896,-0.7477761 -1.016,-0.8534401 -0.292608,-0.069088 -0.540512,-0.125984 -0.540512,-0.300736 0,-0.16256 0.138176,-0.272288 0.38608,-0.272288 0.276352,0 0.56896,0.093472 0.788416,0.296672 l 0.321056,-0.422656 c -0.268224,-0.247904 -0.625856,-0.377952 -1.05664,-0.377952 -0.638048,0 -1.028192,0.373888 -1.028192,0.824992 0,0.6177281 0.56896,0.7396481 1.011936,0.8412481 0.296672,0.073152 0.54864,0.130048 0.54864,0.329184 0,0.154432 -0.154432,0.300736 -0.471424,0.300736 -0.373888,0 -0.67056,-0.166624 -0.861568,-0.36576 z" />
    </g>
    <g
       id="text6"
       style="font-weight:bold;font-size:4.06400013px;font-family:'Proxima Nova';dominant-baseline:hanging;text-anchor:middle;fill:#994d00"
       aria-label="DHE">
      <path
         id="path88"
         style="font-weight:bold;font-size:4.06400013px;font-family:'Proxima Nova';dominant-baseline:hanging;text-anchor:middle;fill:#994d00"
         d="m 16.456755,122.06845 h 1.068832 c 0.849376,0 1.438656,-0.53645 1.438656,-1.35331 0,-0.81687 -0.58928,-1.35738 -1.438656,-1.35738 h -1.068832 z m 0.577088,-0.508 v -1.69469 h 0.491744 c 0.556768,0 0.849376,0.36982 0.849376,0.84938 0,0.45923 -0.312928,0.84531 -0.849376,0.84531 z" />
      <path
         id="path90"
         style="font-weight:bold;font-size:4.06400013px;font-family:'Proxima Nova';dominant-baseline:hanging;text-anchor:middle;fill:#994d00"
         d="m 21.235003,122.06845 h 0.581152 v -2.71069 h -0.581152 v 1.06477 h -1.28016 v -1.06477 h -0.577088 v 2.71069 h 0.577088 v -1.13792 h 1.28016 z" />
      <path
         id="path92"
         style="font-weight:bold;font-size:4.06400013px;font-family:'Proxima Nova';dominant-baseline:hanging;text-anchor:middle;fill:#994d00"
         d="m 22.34638,122.06845 h 1.918208 v -0.508 h -1.34112 v -0.61367 h 1.312672 v -0.508 h -1.312672 v -0.57302 h 1.34112 v -0.508 H 22.34638 Z" />
    </g>
    <g
       id="text10"
       style="font-weight:bold;font-size:3.0480001px;font-family:'Proxima Nova';text-anchor:middle;fill:#994d00"
       aria-label="-  +">
      <path
         id="path95"
         style="font-size:larger"
         d="M 4.8089507,18.812371 H 5.6867748 V 18.41735 H 4.8089507 Z" />
      <path
         id="path97"
         style="font-size:larger"
         d="m 8.7536727,18.410035 h 0.6547104 v -0.28895 H 8.7536727 V 17.407853 H 8.4354615 v 0.713232 H 7.7770934 v 0.28895 h 0.6583681 v 0.742493 h 0.3182112 z" />
    </g>
    <g
       id="text12"
       style="font-weight:bold;font-size:3.0480001px;font-family:'Proxima Nova';text-anchor:middle;fill:#994d00"
       aria-label="LEVEL">
      <path
         id="path100"
         style="font-weight:bold;font-size:3.0480001px;font-family:'Proxima Nova';text-anchor:middle;fill:#994d00"
         d="m 16.103949,16.65 h 1.292352 v -0.381 h -0.859536 v -1.652016 h -0.432816 z" />
      <path
         id="path102"
         style="font-weight:bold;font-size:3.0480001px;font-family:'Proxima Nova';text-anchor:middle;fill:#994d00"
         d="m 17.699386,16.65 h 1.438656 v -0.381 h -1.00584 v -0.460248 h 0.984504 v -0.381 h -0.984504 v -0.429768 h 1.00584 v -0.381 h -1.438656 z" />
      <path
         id="path104"
         style="font-weight:bold;font-size:3.0480001px;font-family:'Proxima Nova';text-anchor:middle;fill:#994d00"
         d="m 20.049347,16.65 h 0.542544 l 0.783336,-2.033016 h -0.493776 l -0.560832,1.563624 -0.56388,-1.563624 h -0.493776 z" />
      <path
         id="path106"
         style="font-weight:bold;font-size:3.0480001px;font-family:'Proxima Nova';text-anchor:middle;fill:#994d00"
         d="m 21.562965,16.65 h 1.438656 v -0.381 h -1.00584 v -0.460248 h 0.984504 v -0.381 h -0.984504 v -0.429768 h 1.00584 v -0.381 h -1.438656 z" />
      <path
         id="path108"
         style="font-weight:bold;font-size:3.0480001px;font-family:'Proxima Nova';text-anchor:middle;fill:#994d00"
         d="m 23.342949,16.65 h 1.292352 v -0.381 h -0.859536 v -1.652016 h -0.432816 z" />
    </g>
    <g
       id="text14"
       style="font-weight:bold;font-size:2.37066674px;font-family:'Proxima Nova';text-anchor:middle;fill:#994d00"
       aria-label="CLAMP">
      <path
         id="path111"
         style="font-weight:bold;font-size:2.37066674px;font-family:'Proxima Nova';text-anchor:middle;fill:#994d00"
         d="m 30.457337,20.028448 c 0.348488,0 0.547624,-0.192024 0.661416,-0.388789 l -0.289221,-0.13987 c -0.06638,0.130387 -0.208619,0.229955 -0.372195,0.229955 -0.286851,0 -0.495469,-0.220472 -0.495469,-0.519176 0,-0.298704 0.208618,-0.519176 0.495469,-0.519176 0.163576,0 0.305816,0.101939 0.372195,0.229955 l 0.289221,-0.14224 c -0.111421,-0.196766 -0.312928,-0.386419 -0.661416,-0.386419 -0.474133,0 -0.841587,0.331893 -0.841587,0.81788 0,0.485987 0.367454,0.81788 0.841587,0.81788 z" />
      <path
         id="path113"
         style="font-weight:bold;font-size:2.37066674px;font-family:'Proxima Nova';text-anchor:middle;fill:#994d00"
         d="m 31.321445,20 h 1.005163 V 19.703667 H 31.65808 v -1.284902 h -0.336635 z" />
      <path
         id="path115"
         style="font-weight:bold;font-size:2.37066674px;font-family:'Proxima Nova';text-anchor:middle;fill:#994d00"
         d="m 33.652848,20 h 0.384048 L 33.427634,18.418765 H 33.005656 L 32.394024,20 h 0.384048 l 0.09957,-0.267885 h 0.67801 z m -0.436203,-1.2446 0.246549,0.680381 h -0.493098 z" />
      <path
         id="path117"
         style="font-weight:bold;font-size:2.37066674px;font-family:'Proxima Nova';text-anchor:middle;fill:#994d00"
         d="m 35.557901,20 h 0.339005 v -1.581235 h -0.474133 l -0.384048,0.955379 -0.384048,-0.955379 H 34.182914 V 20 h 0.336634 V 18.892899 L 34.965234,20 h 0.146981 l 0.445686,-1.107101 z" />
      <path
         id="path119"
         style="font-weight:bold;font-size:2.37066674px;font-family:'Proxima Nova';text-anchor:middle;fill:#994d00"
         d="m 36.210945,20 h 0.336635 v -0.561848 h 0.403013 c 0.341376,0 0.53103,-0.234696 0.53103,-0.509693 0,-0.277368 -0.187283,-0.509694 -0.53103,-0.509694 h -0.739648 z m 0.926931,-1.071541 c 0,0.130386 -0.09957,0.21336 -0.232325,0.21336 H 36.54758 v -0.42672 h 0.357971 c 0.132757,0 0.232325,0.0806 0.232325,0.21336 z" />
    </g>
    <g
       id="text16"
       style="font-weight:bold;font-size:2.37066674px;font-family:'Proxima Nova';text-anchor:middle;fill:#994d00"
       aria-label="CV">
      <path
         id="path122"
         style="font-weight:bold;font-size:2.37066674px;font-family:'Proxima Nova';text-anchor:middle;fill:#994d00"
         d="m 6.408283,34.828447 c 0.348488,0 0.547624,-0.192024 0.661416,-0.388789 L 6.7804776,34.299789 c -0.066379,0.130386 -0.2086186,0.229954 -0.3721946,0.229954 -0.2868507,0 -0.4954694,-0.220472 -0.4954694,-0.519176 0,-0.298704 0.2086187,-0.519176 0.4954694,-0.519176 0.163576,0 0.305816,0.101939 0.3721946,0.229955 L 7.069699,33.579106 C 6.9582776,33.382341 6.756771,33.192687 6.408283,33.192687 c -0.4741334,0 -0.8415867,0.331894 -0.8415867,0.81788 0,0.485987 0.3674533,0.81788 0.8415867,0.81788 z" />
      <path
         id="path124"
         style="font-weight:bold;font-size:2.37066674px;font-family:'Proxima Nova';text-anchor:middle;fill:#994d00"
         d="M 7.7064452,34.799999 H 8.1284239 L 8.7376852,33.218765 H 8.3536372 L 7.9174345,34.434917 7.4788612,33.218765 h -0.384048 z" />
    </g>
    <g
       id="text18"
       style="font-weight:bold;font-size:3.0480001px;font-family:'Proxima Nova';text-anchor:middle;fill:#994d00"
       aria-label="CURVE">
      <path
         id="path127"
         style="font-weight:bold;font-size:3.0480001px;font-family:'Proxima Nova';text-anchor:middle;fill:#994d00"
         d="m 16.445515,32.686578 c 0.448056,0 0.704088,-0.246888 0.850392,-0.499872 l -0.371856,-0.179832 c -0.08534,0.16764 -0.268224,0.295656 -0.478536,0.295656 -0.368808,0 -0.637032,-0.283464 -0.637032,-0.667513 0,-0.384048 0.268224,-0.667512 0.637032,-0.667512 0.210312,0 0.393192,0.131064 0.478536,0.295656 l 0.371856,-0.18288 c -0.143256,-0.252984 -0.402336,-0.496824 -0.850392,-0.496824 -0.6096,0 -1.08204,0.42672 -1.08204,1.05156 0,0.624841 0.47244,1.051561 1.08204,1.051561 z" />
      <path
         id="path129"
         style="font-weight:bold;font-size:3.0480001px;font-family:'Proxima Nova';text-anchor:middle;fill:#994d00"
         d="m 17.556511,31.839234 c 0,0.499872 0.298704,0.847344 0.917448,0.847344 0.618744,0 0.917448,-0.344424 0.917448,-0.850393 v -1.2192 h -0.44196 v 1.207008 c 0,0.283465 -0.161544,0.478537 -0.475488,0.478537 -0.313944,0 -0.478536,-0.195072 -0.478536,-0.478537 v -1.207008 h -0.438912 z" />
      <path
         id="path131"
         style="font-weight:bold;font-size:3.0480001px;font-family:'Proxima Nova';text-anchor:middle;fill:#994d00"
         d="m 20.938029,32.650002 h 0.496824 l -0.4572,-0.774192 c 0.219456,-0.05182 0.445008,-0.243841 0.445008,-0.603505 0,-0.377952 -0.25908,-0.65532 -0.682752,-0.65532 h -0.950976 v 2.033017 h 0.432816 v -0.722376 h 0.316992 z m 0.04267,-1.377697 c 0,0.170688 -0.131064,0.27432 -0.3048,0.27432 h -0.454152 v -0.54864 h 0.454152 c 0.173736,0 0.3048,0.103632 0.3048,0.27432 z" />
      <path
         id="path133"
         style="font-weight:bold;font-size:3.0480001px;font-family:'Proxima Nova';text-anchor:middle;fill:#994d00"
         d="m 22.287722,32.650002 h 0.542544 l 0.783336,-2.033017 h -0.493776 l -0.560832,1.563625 -0.56388,-1.563625 h -0.493776 z" />
      <path
         id="path135"
         style="font-weight:bold;font-size:3.0480001px;font-family:'Proxima Nova';text-anchor:middle;fill:#994d00"
         d="m 23.80134,32.650002 h 1.438656 v -0.381 h -1.00584 v -0.460249 h 0.984504 v -0.381 h -0.984504 v -0.429768 h 1.00584 v -0.381 H 23.80134 Z" />
    </g>
    <g
       id="text20"
       style="font-weight:bold;font-size:2.37066674px;font-family:'Proxima Nova';text-anchor:middle;fill:#994d00"
       aria-label="UNI">
      <path
         id="path138"
         style="font-weight:bold;font-size:2.37066674px;font-family:'Proxima Nova';text-anchor:middle;fill:#994d00"
         d="m 31.633984,35.194403 c 0,0.38879 0.232326,0.659046 0.713571,0.659046 0.481245,0 0.713571,-0.267886 0.713571,-0.661416 v -0.948267 h -0.343747 v 0.938784 c 0,0.220472 -0.125645,0.372195 -0.369824,0.372195 -0.244179,0 -0.372195,-0.151723 -0.372195,-0.372195 v -0.938784 h -0.341376 z" />
      <path
         id="path140"
         style="font-weight:bold;font-size:2.37066674px;font-family:'Proxima Nova';text-anchor:middle;fill:#994d00"
         d="M 34.460819,35.825001 H 34.7856 v -1.581235 h -0.336634 v 0.993309 L 33.71643,34.243766 h -0.346118 v 1.581235 h 0.336635 v -1.03124 z" />
      <path
         id="path142"
         style="font-weight:bold;font-size:2.37066674px;font-family:'Proxima Nova';text-anchor:middle;fill:#994d00"
         d="m 35.09738,35.825001 h 0.336635 V 34.243766 H 35.09738 Z" />
    </g>
    <g
       id="text22"
       style="font-weight:bold;font-size:2.37066674px;font-family:'Proxima Nova';dominant-baseline:hanging;text-anchor:middle;fill:#994d00"
       aria-label="BI">
      <path
         id="path145"
         style="font-weight:bold;font-size:2.37066674px;font-family:'Proxima Nova';dominant-baseline:hanging;text-anchor:middle;fill:#994d00"
         d="m 32.580862,45.673261 h 0.858181 c 0.301075,0 0.45991,-0.189654 0.45991,-0.42672 0,-0.199136 -0.135128,-0.362712 -0.303446,-0.38879 0.149352,-0.03082 0.272627,-0.163576 0.272627,-0.362712 0,-0.210989 -0.154093,-0.403013 -0.455168,-0.403013 h -0.832104 z m 0.336635,-0.948267 v -0.343747 h 0.421978 c 0.113792,0 0.184912,0.07349 0.184912,0.173059 0,0.09957 -0.07112,0.170688 -0.184912,0.170688 z m 0,0.656675 v -0.367454 h 0.433832 c 0.132757,0 0.203877,0.08534 0.203877,0.184912 0,0.113792 -0.07586,0.182542 -0.203877,0.182542 z" />
      <path
         id="path147"
         style="font-weight:bold;font-size:2.37066674px;font-family:'Proxima Nova';dominant-baseline:hanging;text-anchor:middle;fill:#994d00"
         d="m 34.150503,45.673261 h 0.336634 v -1.581235 h -0.336634 z" />
    </g>
    <path
       id="line24"
       d="M 0,48 H 40.639999"
       style="stroke:#994d00;stroke-width:0.34999999" />
    <g
       id="text28"
       style="font-weight:bold;font-size:3.0480001px;font-family:'Proxima Nova';text-anchor:middle;fill:#994d00"
       aria-label="-  +">
      <path
         id="path151"
         style="font-size:larger"
         d="M 4.8089507,54.812371 H 5.6867748 V 54.41735 H 4.8089507 Z" />
      <path
         id="path153"
         style="font-size:larger"
         d="m 8.7536727,54.410035 h 0.6547104 v -0.28895 H 8.7536727 V 53.407853 H 8.4354615 v 0.713232 H 7.7770934 v 0.28895 h 0.6583681 v 0.742493 h 0.3182112 z" />
    </g>
    <g
       id="text30"
       style="font-weight:bold;font-size:3.0480001px;font-family:'Proxima Nova';text-anchor:middle;fill:#994d00"
       aria-label="LEVEL">
      <path
         id="path156"
         style="font-weight:bold;font-size:3.0480001px;font-family:'Proxima Nova';text-anchor:middle;fill:#994d00"
         d="m 16.103949,52.650002 h 1.292352 v -0.381 h -0.859536 v -1.652017 h -0.432816 z" />
      <path
         id="path158"
         style="font-weight:bold;font-size:3.0480001px;font-family:'Proxima Nova';text-anchor:middle;fill:#994d00"
         d="m 17.699386,52.650002 h 1.438656 v -0.381 h -1.00584 v -0.460249 h 0.984504 v -0.381 h -0.984504 v -0.429768 h 1.00584 v -0.381 h -1.438656 z" />
      <path
         id="path160"
         style="font-weight:bold;font-size:3.0480001px;font-family:'Proxima Nova';text-anchor:middle;fill:#994d00"
         d="m 20.049347,52.650002 h 0.542544 l 0.783336,-2.033017 h -0.493776 l -0.560832,1.563625 -0.56388,-1.563625 h -0.493776 z" />
      <path
         id="path162"
         style="font-weight:bold;font-size:3.0480001px;font-family:'Proxima Nova';text-anchor:middle;fill:#994d00"
         d="m 21.562965,52.650002 h 1.438656 v -0.381 h -1.00584 v -0.460249 h 0.984504 v -0.381 h -0.984504 v -0.429768 h 1.00584 v -0.381 h -1.438656 z" />
      <path
         id="path164"
         style="font-weight:bold;font-size:3.0480001px;font-family:'Proxima Nova';text-anchor:middle;fill:#994d00"
         d="m 23.342949,52.650002 h 1.292352 v -0.381 h -0.859536 v -1.652017 h -0.432816 z" />
    </g>
    <g
       id="text32"
       style="font-weight:bold;font-size:2.37066674px;font-family:'Proxima Nova';text-anchor:middle;fill:#994d00"
       aria-label="CLAMP">
      <path
         id="path167"
         style="font-weight:bold;font-size:2.37066674px;font-family:'Proxima Nova';text-anchor:middle;fill:#994d00"
         d="m 30.457337,56.028448 c 0.348488,0 0.547624,-0.192024 0.661416,-0.388789 l -0.289221,-0.13987 c -0.06638,0.130387 -0.208619,0.229955 -0.372195,0.229955 -0.286851,0 -0.495469,-0.220472 -0.495469,-0.519176 0,-0.298704 0.208618,-0.519176 0.495469,-0.519176 0.163576,0 0.305816,0.101939 0.372195,0.229955 l 0.289221,-0.14224 c -0.111421,-0.196766 -0.312928,-0.386419 -0.661416,-0.386419 -0.474133,0 -0.841587,0.331893 -0.841587,0.81788 0,0.485987 0.367454,0.81788 0.841587,0.81788 z" />
      <path
         id="path169"
         style="font-weight:bold;font-size:2.37066674px;font-family:'Proxima Nova';text-anchor:middle;fill:#994d00"
         d="m 31.321445,56 h 1.005163 V 55.703667 H 31.65808 v -1.284902 h -0.336635 z" />
      <path
         id="path171"
         style="font-weight:bold;font-size:2.37066674px;font-family:'Proxima Nova';text-anchor:middle;fill:#994d00"
         d="m 33.652848,56 h 0.384048 L 33.427634,54.418765 H 33.005656 L 32.394024,56 h 0.384048 l 0.09957,-0.267885 h 0.67801 z m -0.436203,-1.2446 0.246549,0.680381 h -0.493098 z" />
      <path
         id="path173"
         style="font-weight:bold;font-size:2.37066674px;font-family:'Proxima Nova';text-anchor:middle;fill:#994d00"
         d="m 35.557901,56 h 0.339005 v -1.581235 h -0.474133 l -0.384048,0.955379 -0.384048,-0.955379 H 34.182914 V 56 h 0.336634 V 54.892899 L 34.965234,56 h 0.146981 l 0.445686,-1.107101 z" />
      <path
         id="path175"
         style="font-weight:bold;font-size:2.37066674px;font-family:'Proxima Nova';text-anchor:middle;fill:#994d00"
         d="m 36.210945,56 h 0.336635 v -0.561848 h 0.403013 c 0.341376,0 0.53103,-0.234696 0.53103,-0.509693 0,-0.277368 -0.187283,-0.509694 -0.53103,-0.509694 h -0.739648 z m 0.926931,-1.071541 c 0,0.130386 -0.09957,0.21336 -0.232325,0.21336 H 36.54758 v -0.42672 h 0.357971 c 0.132757,0 0.232325,0.0806 0.232325,0.21336 z" />
    </g>
    <g
       id="text34"
       style="font-weight:bold;font-size:2.37066674px;font-family:'Proxima Nova';text-anchor:middle;fill:#994d00"
       aria-label="CV">
      <path
         id="path178"
         style="font-weight:bold;font-size:2.37066674px;font-family:'Proxima Nova';text-anchor:middle;fill:#994d00"
         d="m 6.408283,70.828451 c 0.348488,0 0.547624,-0.192024 0.661416,-0.388789 l -0.2892214,-0.13987 c -0.066379,0.130387 -0.2086186,0.229955 -0.3721946,0.229955 -0.2868507,0 -0.4954694,-0.220472 -0.4954694,-0.519176 0,-0.298704 0.2086187,-0.519176 0.4954694,-0.519176 0.163576,0 0.305816,0.101939 0.3721946,0.229955 L 7.069699,69.57911 C 6.9582776,69.382344 6.756771,69.192691 6.408283,69.192691 c -0.4741334,0 -0.8415867,0.331893 -0.8415867,0.81788 0,0.485987 0.3674533,0.81788 0.8415867,0.81788 z" />
      <path
         id="path180"
         style="font-weight:bold;font-size:2.37066674px;font-family:'Proxima Nova';text-anchor:middle;fill:#994d00"
         d="M 7.7064452,70.800003 H 8.1284239 L 8.7376852,69.218768 H 8.3536372 L 7.9174345,70.43492 7.4788612,69.218768 h -0.384048 z" />
    </g>
    <path
       id="rect36"
       d="m 15.945,68.044556 h 8.75 c 0.554,0 1,0.446 1,1 V 80.375 c 0,0.554 -0.446,1 -1,1 h -8.75 c -0.554,0 -1,-0.446 -1,-1 V 69.044556 c 0,-0.554 0.446,-1 1,-1 z"
       style="fill:#994d00;stroke:#fff7f0;stroke-width:0.34999999" />
    <g
       id="text38"
       style="font-weight:bold;font-size:2.37066674px;font-family:'Proxima Nova';text-anchor:middle;fill:#fff7f0"
       aria-label="OUT">
      <path
         id="path184"
         style="font-weight:bold;font-size:2.37066674px;font-family:'Proxima Nova';text-anchor:middle;fill:#fff7f0"
         d="m 17.935016,70.010571 c 0,0.476504 0.348488,0.81788 0.824992,0.81788 0.478875,0 0.827363,-0.341376 0.827363,-0.81788 0,-0.476504 -0.348488,-0.81788 -0.827363,-0.81788 -0.476504,0 -0.824992,0.341376 -0.824992,0.81788 z m 1.306238,0 c 0,0.293963 -0.189654,0.519176 -0.481246,0.519176 -0.291592,0 -0.478874,-0.225213 -0.478874,-0.519176 0,-0.296333 0.187282,-0.519176 0.478874,-0.519176 0.291592,0 0.481246,0.222843 0.481246,0.519176 z" />
      <path
         id="path186"
         style="font-weight:bold;font-size:2.37066674px;font-family:'Proxima Nova';text-anchor:middle;fill:#fff7f0"
         d="m 19.825919,70.169406 c 0,0.388789 0.232326,0.659045 0.713571,0.659045 0.481246,0 0.713571,-0.267885 0.713571,-0.661416 v -0.948267 h -0.343747 v 0.938784 c 0,0.220472 -0.125645,0.372195 -0.369824,0.372195 -0.244179,0 -0.372195,-0.151723 -0.372195,-0.372195 v -0.938784 h -0.341376 z" />
      <path
         id="path188"
         style="font-weight:bold;font-size:2.37066674px;font-family:'Proxima Nova';text-anchor:middle;fill:#fff7f0"
         d="m 21.92733,70.800003 h 0.339006 v -1.284901 h 0.459909 V 69.218768 H 21.46505 v 0.296334 h 0.46228 z" />
    </g>
    <g
       id="text40"
       style="font-weight:bold;font-size:2.37066674px;font-family:'Proxima Nova';text-anchor:middle;fill:#994d00"
       aria-label="UNI">
      <path
         id="path191"
         style="font-weight:bold;font-size:2.37066674px;font-family:'Proxima Nova';text-anchor:middle;fill:#994d00"
         d="m 31.633984,71.1944 c 0,0.388789 0.232326,0.659045 0.713571,0.659045 0.481245,0 0.713571,-0.267885 0.713571,-0.661416 v -0.948267 h -0.343747 v 0.938784 c 0,0.220472 -0.125645,0.372195 -0.369824,0.372195 -0.244179,0 -0.372195,-0.151723 -0.372195,-0.372195 v -0.938784 h -0.341376 z" />
      <path
         id="path193"
         style="font-weight:bold;font-size:2.37066674px;font-family:'Proxima Nova';text-anchor:middle;fill:#994d00"
         d="M 34.460819,71.824997 H 34.7856 v -1.581235 h -0.336634 v 0.99331 l -0.732536,-0.99331 h -0.346118 v 1.581235 h 0.336635 v -1.03124 z" />
      <path
         id="path195"
         style="font-weight:bold;font-size:2.37066674px;font-family:'Proxima Nova';text-anchor:middle;fill:#994d00"
         d="m 35.09738,71.824997 h 0.336635 V 70.243762 H 35.09738 Z" />
    </g>
    <g
       id="text42"
       style="font-weight:bold;font-size:2.37066674px;font-family:'Proxima Nova';dominant-baseline:hanging;text-anchor:middle;fill:#994d00"
       aria-label="BI">
      <path
         id="path198"
         style="font-weight:bold;font-size:2.37066674px;font-family:'Proxima Nova';dominant-baseline:hanging;text-anchor:middle;fill:#994d00"
         d="m 32.580862,81.673264 h 0.858181 c 0.301075,0 0.45991,-0.189653 0.45991,-0.42672 0,-0.199136 -0.135128,-0.362712 -0.303446,-0.388789 0.149352,-0.03082 0.272627,-0.163576 0.272627,-0.362712 0,-0.210989 -0.154093,-0.403013 -0.455168,-0.403013 h -0.832104 z m 0.336635,-0.948266 v -0.343747 h 0.421978 c 0.113792,0 0.184912,0.07349 0.184912,0.173059 0,0.09957 -0.07112,0.170688 -0.184912,0.170688 z m 0,0.656674 v -0.367453 h 0.433832 c 0.132757,0 0.203877,0.08534 0.203877,0.184912 0,0.113792 -0.07586,0.182541 -0.203877,0.182541 z" />
      <path
         id="path200"
         style="font-weight:bold;font-size:2.37066674px;font-family:'Proxima Nova';dominant-baseline:hanging;text-anchor:middle;fill:#994d00"
         d="m 34.150503,81.673264 h 0.336634 V 80.09203 h -0.336634 z" />
    </g>
    <path
       id="line44"
       d="M 0,84 H 40.639999"
       style="stroke:#994d00;stroke-width:0.34999999" />
    <g
       id="text48"
       style="font-weight:bold;font-size:3.0480001px;font-family:'Proxima Nova';text-anchor:middle;fill:#994d00"
       aria-label="-  +">
      <path
         id="path204"
         style="font-size:larger"
         d="M 4.8089507,90.812371 H 5.6867748 V 90.41735 H 4.8089507 Z" />
      <path
         id="path206"
         style="font-size:larger"
         d="m 8.7536727,90.410035 h 0.6547104 v -0.28895 H 8.7536727 V 89.407853 H 8.4354615 v 0.713232 H 7.7770934 v 0.28895 h 0.6583681 v 0.742493 h 0.3182112 z" />
    </g>
    <g
       id="text50"
       style="font-weight:bold;font-size:3.0480001px;font-family:'Proxima Nova';text-anchor:middle;fill:#994d00"
       aria-label="LEVEL">
      <path
         id="path209"
         style="font-weight:bold;font-size:3.0480001px;font-family:'Proxima Nova';text-anchor:middle;fill:#994d00"
         d="m 16.103949,88.650002 h 1.292352 v -0.381 h -0.859536 v -1.652017 h -0.432816 z" />
      <path
         id="path211"
         style="font-weight:bold;font-size:3.0480001px;font-family:'Proxima Nova';text-anchor:middle;fill:#994d00"
         d="m 17.699386,88.650002 h 1.438656 v -0.381 h -1.00584 v -0.460249 h 0.984504 v -0.381 h -0.984504 v -0.429768 h 1.00584 v -0.381 h -1.438656 z" />
      <path
         id="path213"
         style="font-weight:bold;font-size:3.0480001px;font-family:'Proxima Nova';text-anchor:middle;fill:#994d00"
         d="m 20.049347,88.650002 h 0.542544 l 0.783336,-2.033017 h -0.493776 l -0.560832,1.563625 -0.56388,-1.563625 h -0.493776 z" />
      <path
         id="path215"
         style="font-weight:bold;font-size:3.0480001px;font-family:'Proxima Nova';text-anchor:middle;fill:#994d00"
         d="m 21.562965,88.650002 h 1.438656 v -0.381 h -1.00584 v -0.460249 h 0.984504 v -0.381 h -0.984504 v -0.429768 h 1.00584 v -0.381 h -1.438656 z" />
      <path
         id="path217"
         style="font-weight:bold;font-size:3.0480001px;font-family:'Proxima Nova';text-anchor:middle;fill:#994d00"
         d="m 23.342949,88.650002 h 1.292352 v -0.381 h -0.859536 v -1.652017 h -0.432816 z" />
    </g>
    <g
       id="text52"
       style="font-weight:bold;font-size:2.37066674px;font-family:'Proxima Nova';text-anchor:middle;fill:#994d00"
       aria-label="CLAMP">
      <path
         id="path220"
         style="font-weight:bold;font-size:2.37066674px;font-family:'Proxima Nova';text-anchor:middle;fill:#994d00"
         d="m 30.457337,92.028448 c 0.348488,0 0.547624,-0.192024 0.661416,-0.388789 l -0.289221,-0.13987 c -0.06638,0.130387 -0.208619,0.229955 -0.372195,0.229955 -0.286851,0 -0.495469,-0.220472 -0.495469,-0.519176 0,-0.298704 0.208618,-0.519176 0.495469,-0.519176 0.163576,0 0.305816,0.101939 0.372195,0.229955 l 0.289221,-0.14224 c -0.111421,-0.196766 -0.312928,-0.386419 -0.661416,-0.386419 -0.474133,0 -0.841587,0.331893 -0.841587,0.81788 0,0.485987 0.367454,0.81788 0.841587,0.81788 z" />
      <path
         id="path222"
         style="font-weight:bold;font-size:2.37066674px;font-family:'Proxima Nova';text-anchor:middle;fill:#994d00"
         d="m 31.321445,92 h 1.005163 V 91.703667 H 31.65808 v -1.284902 h -0.336635 z" />
      <path
         id="path224"
         style="font-weight:bold;font-size:2.37066674px;font-family:'Proxima Nova';text-anchor:middle;fill:#994d00"
         d="m 33.652848,92 h 0.384048 L 33.427634,90.418765 H 33.005656 L 32.394024,92 h 0.384048 l 0.09957,-0.267885 h 0.67801 z m -0.436203,-1.2446 0.246549,0.680381 h -0.493098 z" />
      <path
         id="path226"
         style="font-weight:bold;font-size:2.37066674px;font-family:'Proxima Nova';text-anchor:middle;fill:#994d00"
         d="m 35.557901,92 h 0.339005 v -1.581235 h -0.474133 l -0.384048,0.955379 -0.384048,-0.955379 H 34.182914 V 92 h 0.336634 V 90.892899 L 34.965234,92 h 0.146981 l 0.445686,-1.107101 z" />
      <path
         id="path228"
         style="font-weight:bold;font-size:2.37066674px;font-family:'Proxima Nova';text-anchor:middle;fill:#994d00"
         d="m 36.210945,92 h 0.336635 v -0.561848 h 0.403013 c 0.341376,0 0.53103,-0.234696 0.53103,-0.509693 0,-0.277368 -0.187283,-0.509694 -0.53103,-0.509694 h -0.739648 z m 0.926931,-1.071541 c 0,0.130386 -0.09957,0.21336 -0.232325,0.21336 H 36.54758 v -0.42672 h 0.357971 c 0.132757,0 0.232325,0.0806 0.232325,0.21336 z" />
    </g>
    <g
       id="text54"
       style="font-weight:bold;font-size:2.37066674px;font-family:'Proxima Nova';text-anchor:middle;fill:#994d00"
       aria-label="CV">
      <path
         id="path231"
         style="font-weight:bold;font-size:2.37066674px;font-family:'Proxima Nova';text-anchor:middle;fill:#994d00"
         d="m 6.408283,106.82845 c 0.348488,0 0.547624,-0.19202 0.661416,-0.38879 l -0.2892214,-0.13987 c -0.066379,0.13039 -0.2086186,0.22996 -0.3721946,0.22996 -0.2868507,0 -0.4954694,-0.22047 -0.4954694,-0.51918 0,-0.2987 0.2086187,-0.51917 0.4954694,-0.51917 0.163576,0 0.305816,0.10193 0.3721946,0.22995 l 0.2892214,-0.14224 c -0.1114214,-0.19677 -0.312928,-0.38642 -0.661416,-0.38642 -0.4741334,0 -0.8415867,0.33189 -0.8415867,0.81788 0,0.48599 0.3674533,0.81788 0.8415867,0.81788 z" />
      <path
         id="path233"
         style="font-weight:bold;font-size:2.37066674px;font-family:'Proxima Nova';text-anchor:middle;fill:#994d00"
         d="m 7.7064452,106.8 h 0.4219787 l 0.6092613,-1.58123 h -0.384048 l -0.4362027,1.21615 -0.4385733,-1.21615 h -0.384048 z" />
    </g>
    <path
       id="rect56"
       d="m 15.945,104.04456 h 8.75 c 0.554,0 1,0.446 1,1 v 11.33045 c 0,0.554 -0.446,1 -1,1 h -8.75 c -0.554,0 -1,-0.446 -1,-1 v -11.33045 c 0,-0.554 0.446,-1 1,-1 z"
       style="fill:#994d00;stroke:#fff7f0;stroke-width:0.34999999" />
    <g
       id="text58"
       style="font-weight:bold;font-size:2.37066674px;font-family:'Proxima Nova';text-anchor:middle;fill:#fff7f0"
       aria-label="OUT">
      <path
         id="path237"
         style="font-weight:bold;font-size:2.37066674px;font-family:'Proxima Nova';text-anchor:middle;fill:#fff7f0"
         d="m 17.935016,106.01057 c 0,0.47651 0.348488,0.81788 0.824992,0.81788 0.478875,0 0.827363,-0.34137 0.827363,-0.81788 0,-0.4765 -0.348488,-0.81788 -0.827363,-0.81788 -0.476504,0 -0.824992,0.34138 -0.824992,0.81788 z m 1.306238,0 c 0,0.29396 -0.189654,0.51918 -0.481246,0.51918 -0.291592,0 -0.478874,-0.22522 -0.478874,-0.51918 0,-0.29633 0.187282,-0.51917 0.478874,-0.51917 0.291592,0 0.481246,0.22284 0.481246,0.51917 z" />
      <path
         id="path239"
         style="font-weight:bold;font-size:2.37066674px;font-family:'Proxima Nova';text-anchor:middle;fill:#fff7f0"
         d="m 19.825919,106.16941 c 0,0.38879 0.232326,0.65904 0.713571,0.65904 0.481246,0 0.713571,-0.26788 0.713571,-0.66141 v -0.94827 h -0.343747 v 0.93878 c 0,0.22047 -0.125645,0.3722 -0.369824,0.3722 -0.244179,0 -0.372195,-0.15173 -0.372195,-0.3722 v -0.93878 h -0.341376 z" />
      <path
         id="path241"
         style="font-weight:bold;font-size:2.37066674px;font-family:'Proxima Nova';text-anchor:middle;fill:#fff7f0"
         d="m 21.92733,106.8 h 0.339006 v -1.2849 h 0.459909 v -0.29633 H 21.46505 v 0.29633 h 0.46228 z" />
    </g>
    <g
       id="text60"
       style="font-weight:bold;font-size:2.37066674px;font-family:'Proxima Nova';text-anchor:middle;fill:#994d00"
       aria-label="UNI">
      <path
         id="path244"
         style="font-weight:bold;font-size:2.37066674px;font-family:'Proxima Nova';text-anchor:middle;fill:#994d00"
         d="m 31.633984,107.1944 c 0,0.38879 0.232326,0.65904 0.713571,0.65904 0.481245,0 0.713571,-0.26788 0.713571,-0.66141 v -0.94827 h -0.343747 v 0.93879 c 0,0.22047 -0.125645,0.37219 -0.369824,0.37219 -0.244179,0 -0.372195,-0.15172 -0.372195,-0.37219 v -0.93879 h -0.341376 z" />
      <path
         id="path246"
         style="font-weight:bold;font-size:2.37066674px;font-family:'Proxima Nova';text-anchor:middle;fill:#994d00"
         d="M 34.460819,107.825 H 34.7856 v -1.58124 h -0.336634 v 0.99331 l -0.732536,-0.99331 h -0.346118 v 1.58124 h 0.336635 v -1.03124 z" />
      <path
         id="path248"
         style="font-weight:bold;font-size:2.37066674px;font-family:'Proxima Nova';text-anchor:middle;fill:#994d00"
         d="m 35.09738,107.825 h 0.336635 v -1.58124 H 35.09738 Z" />
    </g>
    <g
       id="text62"
       style="font-weight:bold;font-size:2.37066674px;font-family:'Proxima Nova';dominant-baseline:hanging;text-anchor:middle;fill:#994d00"
       aria-label="BI">
      <path
         id="path251"
         style="font-weight:bold;font-size:2.37066674px;font-family:'Proxima Nova';dominant-baseline:hanging;text-anchor:middle;fill:#994d00"
         d="m 32.580862,117.67326 h 0.858181 c 0.301075,0 0.45991,-0.18965 0.45991,-0.42672 0,-0.19913 -0.135128,-0.36271 -0.303446,-0.38878 0.149352,-0.0308 0.272627,-0.16358 0.272627,-0.36272 0,-0.21099 -0.154093,-0.40301 -0.455168,-0.40301 h -0.832104 z m 0.336635,-0.94826 v -0.34375 h 0.421978 c 0.113792,0 0.184912,0.0735 0.184912,0.17306 0,0.0996 -0.07112,0.17069 -0.184912,0.17069 z m 0,0.65667 v -0.36745 h 0.433832 c 0.132757,0 0.203877,0.0853 0.203877,0.18491 0,0.11379 -0.07586,0.18254 -0.203877,0.18254 z" />
      <path
         id="path253"
         style="font-weight:bold;font-size:2.37066674px;font-family:'Proxima Nova';dominant-baseline:hanging;text-anchor:middle;fill:#994d00"
         d="m 34.150503,117.67326 h 0.336634 v -1.58123 h -0.336634 z" />
    </g>
  </g>
</svg>
