<?xml version="1.0" encoding="UTF-8" standalone="no"?>
<!DOCTYPE svg PUBLIC "-//W3C//DTD SVG 1.1//EN" "http://www.w3.org/Graphics/SVG/1.1/DTD/svg11.dtd">
<svg width="24px" height="24px" version="1.1" xmlns="http://www.w3.org/2000/svg" xmlns:xlink="http://www.w3.org/1999/xlink" xml:space="preserve" xmlns:serif="http://www.serif.com/" style="fill-rule:evenodd;clip-rule:evenodd;stroke-linecap:round;stroke-linejoin:round;stroke-miterlimit:1.5;">
    <g transform="matrix(1,0,0,1,-344,-16)">
        <g transform="matrix(0.0324555,0,0,0.0495652,-28.4051,-1.63003)">
            <g id="Port" transform="matrix(1,0,0,1,546.414,-2274.84)">
                <g>
                    <g id="Port1" serif:id="Port" transform="matrix(0.909786,0,0,0.595731,-4643.78,551.029)">
                        <g>
                            <g>
                                <g id="Sleeve" transform="matrix(2.15997,0,0,2.15997,15474.4,868.768)">
                                    <circle cx="946.25" cy="1402.06" r="185.187" style="fill:rgb(240,255,240);"/>
                                    <path d="M948.641,1216.88L951.026,1216.93L953.404,1217L955.773,1217.11L958.135,1217.24L960.489,1217.41L962.835,1217.6L965.173,1217.82L967.502,1218.08L969.822,1218.36L972.134,1218.66L974.436,1219L976.729,1219.37L979.013,1219.76L981.287,1220.18L983.552,1220.63L985.806,1221.11L988.05,1221.61L990.284,1222.14L992.508,1222.7L994.721,1223.29L996.923,1223.9L999.114,1224.54L1001.29,1225.2L1003.46,1225.89L1005.62,1226.6L1007.76,1227.35L1009.9,1228.11L1012.02,1228.9L1014.12,1229.72L1016.22,1230.56L1018.3,1231.43L1020.37,1232.32L1022.43,1233.24L1024.48,1234.18L1026.51,1235.14L1028.52,1236.13L1030.53,1237.14L1032.52,1238.17L1034.49,1239.23L1036.45,1240.31L1038.4,1241.42L1040.33,1242.54L1042.25,1243.69L1044.15,1244.87L1046.03,1246.06L1047.9,1247.28L1049.76,1248.51L1051.6,1249.77L1053.42,1251.05L1055.23,1252.35L1057.02,1253.68L1058.8,1255.02L1060.55,1256.39L1062.29,1257.77L1064.02,1259.18L1065.72,1260.6L1067.41,1262.05L1069.09,1263.51L1070.74,1265L1072.37,1266.5L1073.99,1268.03L1075.59,1269.57L1077.17,1271.13L1078.73,1272.71L1080.28,1274.31L1081.8,1275.93L1083.31,1277.57L1084.79,1279.22L1086.26,1280.89L1087.7,1282.58L1089.13,1284.29L1090.53,1286.01L1091.92,1287.75L1093.28,1289.51L1094.63,1291.28L1095.95,1293.07L1097.25,1294.88L1098.53,1296.7L1099.79,1298.55L1101.03,1300.4L1102.25,1302.27L1103.44,1304.16L1104.61,1306.06L1105.76,1307.98L1106.89,1309.91L1107.99,1311.85L1109.07,1313.81L1110.13,1315.79L1111.16,1317.78L1112.18,1319.78L1113.16,1321.8L1114.13,1323.83L1115.07,1325.87L1115.98,1327.93L1116.87,1330L1117.74,1332.08L1118.58,1334.18L1119.4,1336.29L1120.19,1338.41L1120.96,1340.54L1121.7,1342.69L1122.42,1344.84L1123.11,1347.01L1123.77,1349.19L1124.41,1351.38L1125.02,1353.58L1125.6,1355.8L1126.16,1358.02L1126.69,1360.25L1127.19,1362.5L1127.67,1364.75L1128.12,1367.02L1128.54,1369.29L1128.94,1371.58L1129.3,1373.87L1129.64,1376.17L1129.95,1378.48L1130.23,1380.8L1130.48,1383.13L1130.7,1385.47L1130.9,1387.82L1131.06,1390.17L1131.2,1392.53L1131.3,1394.9L1131.38,1397.28L1131.42,1399.66L1131.44,1402.06L1131.42,1404.45L1131.38,1406.83L1131.3,1409.21L1131.2,1411.58L1131.06,1413.94L1130.9,1416.29L1130.7,1418.64L1130.48,1420.98L1130.23,1423.31L1129.95,1425.63L1129.64,1427.94L1129.3,1430.24L1128.94,1432.53L1128.54,1434.82L1128.12,1437.09L1127.67,1439.36L1127.19,1441.61L1126.69,1443.86L1126.16,1446.09L1125.6,1448.31L1125.02,1450.53L1124.41,1452.73L1123.77,1454.92L1123.11,1457.1L1122.42,1459.27L1121.7,1461.42L1120.96,1463.57L1120.19,1465.7L1119.4,1467.82L1118.58,1469.93L1117.74,1472.03L1116.87,1474.11L1115.98,1476.18L1115.07,1478.24L1114.13,1480.28L1113.16,1482.31L1112.18,1484.33L1111.16,1486.33L1110.13,1488.32L1109.07,1490.3L1107.99,1492.26L1106.89,1494.2L1105.76,1496.13L1104.61,1498.05L1103.44,1499.95L1102.25,1501.84L1101.03,1503.71L1099.79,1505.57L1098.53,1507.4L1097.25,1509.23L1095.95,1511.04L1094.63,1512.83L1093.28,1514.6L1091.92,1516.36L1090.53,1518.1L1089.13,1519.82L1087.7,1521.53L1086.26,1523.22L1084.79,1524.89L1083.31,1526.54L1081.8,1528.18L1080.28,1529.8L1078.73,1531.4L1077.17,1532.98L1075.59,1534.54L1073.99,1536.08L1072.37,1537.61L1070.74,1539.11L1069.09,1540.6L1067.41,1542.06L1065.72,1543.51L1064.02,1544.93L1062.29,1546.34L1060.55,1547.72L1058.8,1549.09L1057.02,1550.43L1055.23,1551.76L1053.42,1553.06L1051.6,1554.34L1049.76,1555.6L1047.9,1556.84L1046.03,1558.05L1044.15,1559.24L1042.25,1560.42L1040.33,1561.57L1038.4,1562.69L1036.45,1563.8L1034.49,1564.88L1032.52,1565.93L1030.53,1566.97L1028.52,1567.98L1026.51,1568.97L1024.48,1569.93L1022.43,1570.87L1020.37,1571.79L1018.3,1572.68L1016.22,1573.55L1014.12,1574.39L1012.02,1575.2L1009.9,1576L1007.76,1576.76L1005.62,1577.51L1003.46,1578.22L1001.29,1578.91L999.114,1579.57L996.923,1580.21L994.721,1580.82L992.508,1581.41L990.284,1581.97L988.05,1582.5L985.806,1583L983.552,1583.48L981.287,1583.93L979.013,1584.35L976.729,1584.74L974.436,1585.11L972.134,1585.44L969.822,1585.75L967.502,1586.03L965.173,1586.29L962.835,1586.51L960.489,1586.7L958.135,1586.87L955.773,1587L953.404,1587.11L951.026,1587.18L948.641,1587.23L946.25,1587.24L943.858,1587.23L941.473,1587.18L939.096,1587.11L936.726,1587L934.364,1586.87L932.01,1586.7L929.664,1586.51L927.326,1586.29L924.997,1586.03L922.677,1585.75L920.366,1585.44L918.063,1585.11L915.77,1584.74L913.486,1584.35L911.212,1583.93L908.947,1583.48L906.693,1583L904.449,1582.5L902.215,1581.97L899.991,1581.41L897.778,1580.82L895.576,1580.21L893.386,1579.57L891.206,1578.91L889.038,1578.22L886.881,1577.51L884.736,1576.76L882.603,1576L880.483,1575.2L878.374,1574.39L876.278,1573.55L874.195,1572.68L872.125,1571.79L870.068,1570.87L868.024,1569.93L865.993,1568.97L863.976,1567.98L861.973,1566.97L859.984,1565.93L858.009,1564.88L856.048,1563.8L854.102,1562.69L852.17,1561.57L850.254,1560.42L848.352,1559.24L846.466,1558.05L844.595,1556.84L842.74,1555.6L840.9,1554.34L839.077,1553.06L837.269,1551.76L835.478,1550.43L833.704,1549.09L831.946,1547.72L830.205,1546.34L828.482,1544.93L826.775,1543.51L825.086,1542.06L823.415,1540.6L821.761,1539.11L820.125,1537.61L818.508,1536.08L816.909,1534.54L815.328,1532.98L813.766,1531.4L812.223,1529.8L810.699,1528.18L809.194,1526.54L807.709,1524.89L806.244,1523.22L804.798,1521.53L803.372,1519.82L801.966,1518.1L800.581,1516.36L799.216,1514.6L797.872,1512.83L796.549,1511.04L795.247,1509.23L793.967,1507.4L792.707,1505.57L791.47,1503.71L790.254,1501.84L789.06,1499.95L787.888,1498.05L786.739,1496.13L785.612,1494.2L784.508,1492.26L783.427,1490.3L782.369,1488.32L781.334,1486.33L780.323,1484.33L779.335,1482.31L778.371,1480.28L777.432,1478.24L776.516,1476.18L775.625,1474.11L774.758,1472.03L773.916,1469.93L773.099,1467.82L772.307,1465.7L771.54,1463.57L770.799,1461.42L770.083,1459.27L769.394,1457.1L768.73,1454.92L768.092,1452.73L767.481,1450.53L766.896,1448.31L766.339,1446.09L765.808,1443.86L765.304,1441.61L764.827,1439.36L764.378,1437.09L763.957,1434.82L763.563,1432.53L763.197,1430.24L762.86,1427.94L762.551,1425.63L762.271,1423.31L762.019,1420.98L761.796,1418.64L761.602,1416.29L761.438,1413.94L761.303,1411.58L761.198,1409.21L761.123,1406.83L761.077,1404.45L761.062,1402.06L761.077,1399.66L761.123,1397.28L761.198,1394.9L761.303,1392.53L761.438,1390.17L761.602,1387.82L761.796,1385.47L762.019,1383.13L762.271,1380.8L762.551,1378.48L762.86,1376.17L763.197,1373.87L763.563,1371.58L763.957,1369.29L764.378,1367.02L764.827,1364.75L765.304,1362.5L765.808,1360.25L766.339,1358.02L766.896,1355.8L767.481,1353.58L768.092,1351.38L768.73,1349.19L769.394,1347.01L770.083,1344.84L770.799,1342.69L771.54,1340.54L772.307,1338.41L773.099,1336.29L773.916,1334.18L774.758,1332.08L775.625,1330L776.516,1327.93L777.432,1325.87L778.371,1323.83L779.335,1321.8L780.323,1319.78L781.334,1317.78L782.369,1315.79L783.427,1313.81L784.508,1311.85L785.612,1309.91L786.739,1307.98L787.888,1306.06L789.06,1304.16L790.254,1302.27L791.47,1300.4L792.707,1298.55L793.967,1296.7L795.247,1294.88L796.549,1293.07L797.872,1291.28L799.216,1289.51L800.581,1287.75L801.966,1286.01L803.372,1284.29L804.798,1282.58L806.244,1280.89L807.709,1279.22L809.194,1277.57L810.699,1275.93L812.223,1274.31L813.766,1272.71L815.328,1271.13L816.909,1269.57L818.508,1268.03L820.125,1266.5L821.761,1265L823.415,1263.51L825.086,1262.05L826.775,1260.6L828.482,1259.18L830.205,1257.77L831.946,1256.39L833.704,1255.02L835.478,1253.68L837.269,1252.35L839.077,1251.05L840.9,1249.77L842.74,1248.51L844.595,1247.28L846.466,1246.06L848.352,1244.87L850.254,1243.69L852.17,1242.54L854.102,1241.42L856.048,1240.31L858.009,1239.23L859.984,1238.17L861.973,1237.14L863.976,1236.13L865.993,1235.14L868.024,1234.18L870.068,1233.24L872.125,1232.32L874.195,1231.43L876.278,1230.56L878.374,1229.72L880.483,1228.9L882.603,1228.11L884.736,1227.35L886.881,1226.6L889.038,1225.89L891.206,1225.2L893.386,1224.54L895.576,1223.9L897.778,1223.29L899.991,1222.7L902.215,1222.14L904.449,1221.61L906.693,1221.11L908.947,1220.63L911.212,1220.18L913.486,1219.76L915.77,1219.37L918.063,1219L920.366,1218.66L922.677,1218.36L924.997,1218.08L927.326,1217.82L929.664,1217.6L932.01,1217.41L934.364,1217.24L936.726,1217.11L939.096,1217L941.473,1216.93L943.858,1216.88L946.25,1216.87L948.641,1216.88ZM944.004,1228.46L941.766,1228.5L939.536,1228.57L937.312,1228.67L935.097,1228.8L932.889,1228.95L930.689,1229.13L928.498,1229.34L926.314,1229.58L924.139,1229.84L921.971,1230.13L919.814,1230.44L917.664,1230.79L915.524,1231.16L913.392,1231.55L911.27,1231.97L909.157,1232.42L907.055,1232.89L904.961,1233.39L902.878,1233.91L900.804,1234.46L898.741,1235.03L896.688,1235.63L894.646,1236.25L892.615,1236.9L890.594,1237.57L888.584,1238.26L886.586,1238.98L884.598,1239.72L882.623,1240.49L880.659,1241.28L878.707,1242.09L876.766,1242.92L874.838,1243.78L872.923,1244.66L871.02,1245.57L869.129,1246.49L867.252,1247.44L865.388,1248.41L863.536,1249.4L861.698,1250.41L859.873,1251.45L858.062,1252.51L856.265,1253.58L854.483,1254.68L852.715,1255.8L850.96,1256.94L849.221,1258.1L847.496,1259.28L845.786,1260.48L844.091,1261.7L842.411,1262.95L840.747,1264.21L839.098,1265.49L837.467,1266.79L835.85,1268.1L834.249,1269.44L832.665,1270.8L831.097,1272.17L829.546,1273.57L828.012,1274.98L826.495,1276.4L824.995,1277.85L823.511,1279.32L822.047,1280.8L820.6,1282.3L819.171,1283.82L817.759,1285.35L816.366,1286.9L814.992,1288.47L813.636,1290.05L812.298,1291.65L810.98,1293.27L809.681,1294.9L808.401,1296.55L807.141,1298.22L805.9,1299.9L804.679,1301.59L803.477,1303.3L802.297,1305.03L801.137,1306.77L799.997,1308.52L798.877,1310.29L797.778,1312.07L796.701,1313.87L795.645,1315.68L794.61,1317.5L793.596,1319.34L792.605,1321.19L791.635,1323.06L790.687,1324.93L789.761,1326.83L788.857,1328.73L787.977,1330.64L787.119,1332.57L786.283,1334.51L785.471,1336.46L784.683,1338.43L783.917,1340.4L783.174,1342.39L782.456,1344.39L781.762,1346.4L781.091,1348.42L780.445,1350.45L779.823,1352.49L779.225,1354.55L778.653,1356.61L778.105,1358.68L777.582,1360.77L777.085,1362.86L776.613,1364.96L776.166,1367.08L775.745,1369.2L775.35,1371.33L774.982,1373.47L774.639,1375.62L774.322,1377.78L774.033,1379.94L773.77,1382.12L773.534,1384.3L773.325,1386.5L773.143,1388.69L772.989,1390.9L772.863,1393.12L772.764,1395.34L772.693,1397.57L772.651,1399.81L772.636,1402.06L772.651,1404.3L772.693,1406.54L772.764,1408.77L772.863,1410.99L772.989,1413.21L773.143,1415.41L773.325,1417.61L773.534,1419.81L773.77,1421.99L774.033,1424.17L774.322,1426.33L774.639,1428.49L774.982,1430.64L775.35,1432.78L775.745,1434.91L776.166,1437.03L776.613,1439.15L777.085,1441.25L777.582,1443.34L778.105,1445.43L778.653,1447.5L779.225,1449.56L779.823,1451.62L780.445,1453.66L781.091,1455.69L781.762,1457.71L782.456,1459.72L783.174,1461.72L783.917,1463.71L784.683,1465.68L785.471,1467.64L786.283,1469.6L787.119,1471.54L787.977,1473.47L788.857,1475.38L789.761,1477.28L790.687,1479.17L791.635,1481.05L792.605,1482.92L793.596,1484.77L794.61,1486.61L795.645,1488.43L796.701,1490.24L797.778,1492.04L798.877,1493.82L799.997,1495.59L801.137,1497.35L802.297,1499.08L803.477,1500.81L804.679,1502.52L805.9,1504.21L807.141,1505.89L808.401,1507.56L809.681,1509.2L810.98,1510.84L812.298,1512.45L813.636,1514.06L814.992,1515.64L816.366,1517.21L817.759,1518.76L819.171,1520.29L820.6,1521.81L822.047,1523.31L823.511,1524.79L824.995,1526.26L826.495,1527.7L828.012,1529.13L829.546,1530.55L831.097,1531.94L832.665,1533.31L834.249,1534.67L835.85,1536.01L837.467,1537.33L839.098,1538.62L840.747,1539.9L842.411,1541.16L844.091,1542.4L845.786,1543.62L847.496,1544.83L849.221,1546.01L850.96,1547.17L852.715,1548.31L854.483,1549.43L856.265,1550.53L858.062,1551.6L859.873,1552.66L861.698,1553.69L863.536,1554.71L865.388,1555.7L867.252,1556.67L869.129,1557.62L871.02,1558.54L872.923,1559.45L874.838,1560.33L876.766,1561.18L878.707,1562.02L880.659,1562.83L882.623,1563.62L884.598,1564.39L886.586,1565.13L888.584,1565.85L890.594,1566.54L892.615,1567.21L894.646,1567.86L896.688,1568.48L898.741,1569.08L900.804,1569.65L902.878,1570.2L904.962,1570.72L907.055,1571.22L909.157,1571.69L911.27,1572.14L913.392,1572.56L915.524,1572.95L917.664,1573.32L919.814,1573.66L921.971,1573.98L924.138,1574.27L926.314,1574.53L928.498,1574.77L930.689,1574.98L932.889,1575.16L935.097,1575.32L937.312,1575.44L939.536,1575.54L941.766,1575.61L944.004,1575.65L946.249,1575.67L948.494,1575.65L950.733,1575.61L952.963,1575.54L955.187,1575.44L957.402,1575.32L959.61,1575.16L961.81,1574.98L964.002,1574.77L966.185,1574.53L968.361,1574.27L970.527,1573.98L972.686,1573.66L974.835,1573.32L976.976,1572.95L979.107,1572.56L981.229,1572.14L983.341,1571.69L985.445,1571.22L987.538,1570.72L989.621,1570.2L991.694,1569.65L993.758,1569.08L995.811,1568.48L997.853,1567.86L999.884,1567.21L1001.9,1566.54L1003.92,1565.85L1005.91,1565.13L1007.9,1564.39L1009.88,1563.62L1011.84,1562.83L1013.79,1562.02L1015.73,1561.18L1017.66,1560.33L1019.58,1559.45L1021.48,1558.54L1023.37,1557.62L1025.25,1556.67L1027.11,1555.7L1028.96,1554.71L1030.8,1553.69L1032.62,1552.66L1034.44,1551.6L1036.23,1550.53L1038.02,1549.43L1039.79,1548.31L1041.54,1547.17L1043.28,1546.01L1045,1544.83L1046.71,1543.62L1048.41,1542.4L1050.09,1541.16L1051.75,1539.9L1053.4,1538.62L1055.03,1537.32L1056.65,1536.01L1058.25,1534.67L1059.83,1533.31L1061.4,1531.94L1062.95,1530.55L1064.49,1529.13L1066.01,1527.7L1067.51,1526.26L1068.99,1524.79L1070.45,1523.31L1071.9,1521.81L1073.33,1520.29L1074.74,1518.76L1076.13,1517.21L1077.51,1515.64L1078.86,1514.06L1080.2,1512.45L1081.52,1510.84L1082.82,1509.2L1084.1,1507.56L1085.36,1505.89L1086.6,1504.21L1087.82,1502.52L1089.02,1500.81L1090.2,1499.08L1091.36,1497.34L1092.5,1495.59L1093.62,1493.82L1094.72,1492.04L1095.8,1490.24L1096.85,1488.43L1097.89,1486.61L1098.9,1484.77L1099.89,1482.92L1100.86,1481.05L1101.81,1479.17L1102.74,1477.29L1103.64,1475.38L1104.52,1473.47L1105.38,1471.54L1106.21,1469.6L1107.03,1467.64L1107.82,1465.68L1108.58,1463.71L1109.32,1461.72L1110.04,1459.72L1110.74,1457.71L1111.41,1455.69L1112.05,1453.66L1112.68,1451.62L1113.27,1449.56L1113.85,1447.5L1114.39,1445.43L1114.92,1443.34L1115.41,1441.25L1115.89,1439.15L1116.33,1437.04L1116.75,1434.91L1117.15,1432.78L1117.52,1430.64L1117.86,1428.49L1118.18,1426.33L1118.47,1424.16L1118.73,1421.99L1118.96,1419.81L1119.17,1417.62L1119.36,1415.42L1119.51,1413.21L1119.64,1410.99L1119.74,1408.77L1119.81,1406.54L1119.85,1404.3L1119.86,1402.06L1119.85,1399.81L1119.81,1397.57L1119.74,1395.34L1119.64,1393.12L1119.51,1390.9L1119.36,1388.69L1119.17,1386.49L1118.96,1384.3L1118.73,1382.12L1118.47,1379.94L1118.18,1377.78L1117.86,1375.62L1117.52,1373.47L1117.15,1371.33L1116.75,1369.2L1116.33,1367.08L1115.89,1364.96L1115.41,1362.86L1114.92,1360.77L1114.39,1358.68L1113.85,1356.61L1113.27,1354.55L1112.68,1352.49L1112.05,1350.45L1111.41,1348.42L1110.74,1346.4L1110.04,1344.39L1109.32,1342.39L1108.58,1340.4L1107.82,1338.43L1107.03,1336.46L1106.21,1334.51L1105.38,1332.57L1104.52,1330.64L1103.64,1328.73L1102.74,1326.83L1101.81,1324.94L1100.86,1323.06L1099.89,1321.19L1098.9,1319.34L1097.89,1317.5L1096.85,1315.68L1095.8,1313.87L1094.72,1312.07L1093.62,1310.29L1092.5,1308.52L1091.36,1306.77L1090.2,1305.03L1089.02,1303.3L1087.82,1301.59L1086.6,1299.9L1085.36,1298.22L1084.1,1296.55L1082.82,1294.9L1081.52,1293.27L1080.2,1291.65L1078.86,1290.05L1077.51,1288.47L1076.13,1286.9L1074.74,1285.35L1073.33,1283.82L1071.9,1282.3L1070.45,1280.8L1068.99,1279.32L1067.51,1277.85L1066.01,1276.41L1064.49,1274.98L1062.95,1273.56L1061.4,1272.17L1059.83,1270.8L1058.25,1269.44L1056.65,1268.1L1055.03,1266.79L1053.4,1265.49L1051.75,1264.21L1050.09,1262.95L1048.41,1261.7L1046.71,1260.48L1045,1259.28L1043.28,1258.1L1041.54,1256.94L1039.79,1255.8L1038.02,1254.68L1036.23,1253.58L1034.44,1252.51L1032.62,1251.45L1030.8,1250.41L1028.96,1249.4L1027.11,1248.41L1025.25,1247.44L1023.37,1246.49L1021.48,1245.57L1019.58,1244.66L1017.66,1243.78L1015.73,1242.92L1013.79,1242.09L1011.84,1241.28L1009.88,1240.49L1007.9,1239.72L1005.91,1238.98L1003.92,1238.26L1001.9,1237.57L999.884,1236.9L997.853,1236.25L995.811,1235.63L993.758,1235.03L991.694,1234.46L989.621,1233.91L987.538,1233.39L985.445,1232.89L983.341,1232.42L981.228,1231.97L979.107,1231.55L976.976,1231.16L974.835,1230.79L972.686,1230.44L970.528,1230.13L968.361,1229.84L966.185,1229.58L964.002,1229.34L961.81,1229.13L959.61,1228.95L957.402,1228.8L955.187,1228.67L952.963,1228.57L950.733,1228.5L948.494,1228.46L946.249,1228.44L944.004,1228.46Z" style="fill:rgb(0,153,0);"/>
                                </g>
                                <g id="Ring" transform="matrix(1.51306,0,0,1.51306,16086.6,1775.77)">
                                    <circle cx="946.25" cy="1402.06" r="185.187" style="fill:rgb(240,255,240);stroke:rgb(0,153,0);stroke-width:16.32px;"/>
                                </g>
                                <g id="Tip" transform="matrix(0.932838,0,0,0.932838,16635.6,2589.28)">
                                    <circle cx="946.25" cy="1402.06" r="185.187" style="fill:rgb(0,153,0);"/>
                                </g>
                            </g>
                        </g>
                    </g>
                </g>
            </g>
        </g>
    </g>
</svg>
