<?xml version="1.0" encoding="UTF-8" standalone="no"?>
<svg
   xmlns:dc="http://purl.org/dc/elements/1.1/"
   xmlns:cc="http://creativecommons.org/ns#"
   xmlns:rdf="http://www.w3.org/1999/02/22-rdf-syntax-ns#"
   xmlns:svg="http://www.w3.org/2000/svg"
   xmlns="http://www.w3.org/2000/svg"
   version="1.1"
   width="10.400mm"
   height="3.580mm"
   viewBox="0 0 10.400 3.580"
   id="svg8">
  <metadata
     id="metadata14">
    <rdf:RDF>
      <cc:Work
         rdf:about="">
        <dc:format>image/svg+xml</dc:format>
        <dc:type
           rdf:resource="http://purl.org/dc/dcmitype/StillImage" />
      </cc:Work>
    </rdf:RDF>
  </metadata>
  <defs
     id="defs12" />
  <g
     transform="translate(5.2,1.79)"
     id="g6">
    <path
       id="rect2"
       style="fill:#efedeb;stroke:#331a00;stroke-width:0.25"
       d="m -4.6999998,-1.79 h 9.3999996 c 0.277,0 0.5,0.223 0.5,0.5 v 2.58 c 0,0.277 -0.223,0.5 -0.5,0.5 h -9.3999996 c -0.277,0 -0.5,-0.223 -0.5,-0.5 v -2.58 c 0,-0.277 0.223,-0.5 0.5,-0.5 z" />
    <g
       aria-label="SAMPLE"
       id="text4"
       style="font-weight:bold;font-size:2.371px;font-family:'Proxima Nova';dominant-baseline:middle;text-anchor:middle;fill:#331a00">
      <path
         d="m -4.5301846,0.63372249 c 0.149373,0.14937301 0.367505,0.25132601 0.670993,0.25132601 0.42678,0 0.633057,-0.218132 0.633057,-0.50739401 0,-0.35090801 -0.33194,-0.42915101 -0.59275,-0.48842601 -0.182567,-0.042678 -0.315343,-0.075872 -0.315343,-0.18256701 0,-0.09484 0.080614,-0.161228 0.232358,-0.161228 0.154115,0 0.324827,0.054533 0.452861,0.173083 l 0.187309,-0.246584 c -0.156486,-0.144631 -0.365134,-0.22050301 -0.61646,-0.22050301 -0.372247,0 -0.599863,0.21339001 -0.599863,0.47657102 0,0.353279 0.33194,0.424409 0.590379,0.48368401 0.182567,0.042678 0.320085,0.082985 0.320085,0.201535 0,0.090098 -0.090098,0.177825 -0.275036,0.177825 -0.218132,0 -0.391215,-0.097211 -0.502652,-0.21339 z"
         style="font-weight:bold;font-size:2.371px;font-family:'Proxima Nova';dominant-baseline:middle;text-anchor:middle;fill:#331a00"
         id="path17" />
      <path
         d="m -1.9107111,0.8565965 h 0.367505 l -0.609347,-1.58145703 h -0.422038 L -3.1863092,0.8565965 h 0.3698761 l 0.099582,-0.27266501 h 0.706558 z m -0.452861,-1.28982403 0.26081,0.72552602 h -0.523991 z"
         style="font-weight:bold;font-size:2.371px;font-family:'Proxima Nova';dominant-baseline:middle;text-anchor:middle;fill:#331a00"
         id="path19" />
      <path
         d="M -0.02198727,0.8565965 H 0.31706574 V -0.72486053 H -0.15713427 L -0.54123628,0.26147549 -0.92533829,-0.72486053 H -1.3971673 V 0.8565965 h 0.336682 v -1.13808003 l 0.44574802,1.13808003 h 0.147002 l 0.44574801,-1.13808003 z"
         style="font-weight:bold;font-size:2.371px;font-family:'Proxima Nova';dominant-baseline:middle;text-anchor:middle;fill:#331a00"
         id="path21" />
      <path
         d="M 0.63114944,0.8565965 H 0.96783145 V 0.28992749 H 1.3709015 c 0.341424,0 0.531104,-0.22998701 0.531104,-0.50502301 0,-0.27740701 -0.187309,-0.50976501 -0.531104,-0.50976501 H 0.63114944 Z M 1.5582105,-0.21746652 c 0,0.132776 -0.099582,0.21813200109 -0.232358,0.21813200109 H 0.96783145 V -0.43559853 H 1.3258525 c 0.132776,0 0.232358,0.087727 0.232358,0.21813201 z"
         style="font-weight:bold;font-size:2.371px;font-family:'Proxima Nova';dominant-baseline:middle;text-anchor:middle;fill:#331a00"
         id="path23" />
      <path
         d="M 2.1083933,0.8565965 H 3.1136974 V 0.56022149 H 2.4450753 v -1.28508202 h -0.336682 z"
         style="font-weight:bold;font-size:2.371px;font-family:'Proxima Nova';dominant-baseline:middle;text-anchor:middle;fill:#331a00"
         id="path25" />
      <path
         d="m 3.3494636,0.8565965 h 1.119112 V 0.56496349 h -0.78243 v -0.367505 h 0.765833 v -0.28926201 h -0.765833 v -0.34379501 h 0.78243 v -0.289262 h -1.119112 z"
         style="font-weight:bold;font-size:2.371px;font-family:'Proxima Nova';dominant-baseline:middle;text-anchor:middle;fill:#331a00"
         id="path27" />
    </g>
  </g>
</svg>
