<?xml version="1.0" encoding="UTF-8" standalone="no"?>
<svg
   xmlns:dc="http://purl.org/dc/elements/1.1/"
   xmlns:cc="http://creativecommons.org/ns#"
   xmlns:rdf="http://www.w3.org/1999/02/22-rdf-syntax-ns#"
   xmlns:svg="http://www.w3.org/2000/svg"
   xmlns="http://www.w3.org/2000/svg"
   version="1.1"
   width="10.160mm"
   height="3.580mm"
   viewBox="0 0 10.160 3.580"
   id="svg8">
  <metadata
     id="metadata14">
    <rdf:RDF>
      <cc:Work
         rdf:about="">
        <dc:format>image/svg+xml</dc:format>
        <dc:type
           rdf:resource="http://purl.org/dc/dcmitype/StillImage" />
      </cc:Work>
    </rdf:RDF>
  </metadata>
  <defs
     id="defs12" />
  <g
     transform="translate(5.08,1.79)"
     id="g6">
    <path
       id="rect2"
       style="fill:#efedeb;stroke:#331a00;stroke-width:0.25"
       d="m -4.5799999,-1.79 h 9.1599998 c 0.277,0 0.5,0.223 0.5,0.5 v 2.58 c 0,0.277 -0.223,0.5 -0.5,0.5 h -9.1599998 c -0.277,0 -0.5,-0.223 -0.5,-0.5 v -2.58 c 0,-0.277 0.223,-0.5 0.5,-0.5 z" />
    <g
       aria-label="SUSTAIN"
       id="text4"
       style="font-weight:bold;font-size:2.371px;font-family:'Proxima Nova';dominant-baseline:middle;text-anchor:middle;fill:#331a00">
      <path
         d="m -4.8404522,0.63372249 c 0.149373,0.14937301 0.367505,0.25132601 0.670993,0.25132601 0.42678,0 0.6330571,-0.218132 0.6330571,-0.50739401 0,-0.35090801 -0.3319401,-0.42915101 -0.5927501,-0.48842601 -0.182567,-0.042678 -0.315343,-0.075872 -0.315343,-0.18256701 0,-0.09484 0.080614,-0.161228 0.232358,-0.161228 0.154115,0 0.324827,0.054533 0.452861,0.173083 l 0.1873091,-0.246584 c -0.1564861,-0.144631 -0.3651341,-0.22050301 -0.6164601,-0.22050301 -0.372247,0 -0.599863,0.21339001 -0.599863,0.47657102 0,0.353279 0.33194,0.424409 0.590379,0.48368401 0.182567,0.042678 0.320085,0.082985 0.320085,0.201535 0,0.090098 -0.090098,0.177825 -0.275036,0.177825 -0.218132,0 -0.391215,-0.097211 -0.502652,-0.21339 z"
         style="font-weight:bold;font-size:2.371px;font-family:'Proxima Nova';dominant-baseline:middle;text-anchor:middle;fill:#331a00"
         id="path17" />
      <path
         d="m -3.3097123,0.22591049 c 0,0.388844 0.225245,0.65913801 0.708929,0.65913801 0.478942,0 0.7041871,-0.26792301 0.7041871,-0.66150901 v -0.94840002 h -0.3414241 v 0.93891602 c 0,0.220503 -0.120921,0.372247 -0.362763,0.372247 -0.246584,0 -0.367505,-0.151744 -0.367505,-0.372247 v -0.93891602 h -0.341424 z"
         style="font-weight:bold;font-size:2.371px;font-family:'Proxima Nova';dominant-baseline:middle;text-anchor:middle;fill:#331a00"
         id="path19" />
      <path
         d="m -1.6914677,0.63372249 c 0.149373,0.14937301 0.367505,0.25132601 0.670993,0.25132601 0.42677998,0 0.63305699,-0.218132 0.63305699,-0.50739401 0,-0.35090801 -0.33194001,-0.42915101 -0.59275002,-0.48842601 -0.18256697,-0.042678 -0.31534297,-0.075872 -0.31534297,-0.18256701 0,-0.09484 0.080614,-0.161228 0.232358,-0.161228 0.15411497,0 0.32482698,0.054533 0.45286098,0.173083 l 0.187309,-0.246584 c -0.156486,-0.144631 -0.365134,-0.22050301 -0.61645998,-0.22050301 -0.372247,0 -0.599863,0.21339001 -0.599863,0.47657102 0,0.353279 0.33194,0.424409 0.590379,0.48368401 0.18256697,0.042678 0.32008498,0.082985 0.32008498,0.201535 0,0.090098 -0.090098,0.177825 -0.27503598,0.177825 -0.218132,0 -0.391215,-0.097211 -0.502652,-0.21339 z"
         style="font-weight:bold;font-size:2.371px;font-family:'Proxima Nova';dominant-baseline:middle;text-anchor:middle;fill:#331a00"
         id="path21" />
      <path
         d="m 0.18588283,0.8565965 h 0.339053 v -1.28508203 h 0.45997401 v -0.296375 h -1.26137202 v 0.296375 h 0.46234501 z"
         style="font-weight:bold;font-size:2.371px;font-family:'Proxima Nova';dominant-baseline:middle;text-anchor:middle;fill:#331a00"
         id="path23" />
      <path
         d="m 2.1551835,0.8565965 h 0.367505 L 1.9133415,-0.72486053 H 1.4913034 L 0.87958543,0.8565965 H 1.2494614 l 0.099582,-0.27266501 h 0.7065581 z m -0.452861,-1.28982403 0.26081,0.72552602 H 1.4391414 Z"
         style="font-weight:bold;font-size:2.371px;font-family:'Proxima Nova';dominant-baseline:middle;text-anchor:middle;fill:#331a00"
         id="path25" />
      <path
         d="m 2.6687274,0.8565965 h 0.336682 v -1.58145703 h -0.336682 z"
         style="font-weight:bold;font-size:2.371px;font-family:'Proxima Nova';dominant-baseline:middle;text-anchor:middle;fill:#331a00"
         id="path27" />
      <path
         d="m 4.4077072,0.8565965 h 0.324827 V -0.72486053 H 4.3958522 V 0.29941149 L 3.6632131,-0.72486053 H 3.3170471 V 0.8565965 h 0.336682 v -1.06220802 z"
         style="font-weight:bold;font-size:2.371px;font-family:'Proxima Nova';dominant-baseline:middle;text-anchor:middle;fill:#331a00"
         id="path29" />
    </g>
  </g>
</svg>
