<?xml version="1.0" encoding="UTF-8" standalone="no"?>
<svg
   xmlns:dc="http://purl.org/dc/elements/1.1/"
   xmlns:cc="http://creativecommons.org/ns#"
   xmlns:rdf="http://www.w3.org/1999/02/22-rdf-syntax-ns#"
   xmlns:svg="http://www.w3.org/2000/svg"
   xmlns="http://www.w3.org/2000/svg"
   version="1.1"
   width="10.400mm"
   height="3.580mm"
   viewBox="0 0 10.400 3.580"
   id="svg8">
  <metadata
     id="metadata14">
    <rdf:RDF>
      <cc:Work
         rdf:about="">
        <dc:format>image/svg+xml</dc:format>
        <dc:type
           rdf:resource="http://purl.org/dc/dcmitype/StillImage" />
      </cc:Work>
    </rdf:RDF>
  </metadata>
  <defs
     id="defs12" />
  <g
     transform="translate(5.2,1.79)"
     id="g6">
    <path
       id="rect2"
       style="fill:#efedeb;stroke:#331a00;stroke-width:0.25"
       d="m -4.6999998,-1.79 h 9.3999996 c 0.277,0 0.5,0.223 0.5,0.5 v 2.58 c 0,0.277 -0.223,0.5 -0.5,0.5 h -9.3999996 c -0.277,0 -0.5,-0.223 -0.5,-0.5 v -2.58 c 0,-0.277 0.223,-0.5 0.5,-0.5 z" />
    <g
       aria-label="ADVANCE"
       id="text4"
       style="font-weight:bold;font-size:2.371px;font-family:'Proxima Nova';dominant-baseline:middle;text-anchor:middle;fill:#331a00">
      <path
         d="m -4.3118118,0.8565965 h 0.367505 l -0.609347,-1.58145703 h -0.422038 l -0.611718,1.58145703 h 0.369876 l 0.099582,-0.27266501 h 0.706558 z m -0.452861,-1.28982403 0.26081,0.72552602 h -0.523991 z"
         style="font-weight:bold;font-size:2.371px;font-family:'Proxima Nova';dominant-baseline:middle;text-anchor:middle;fill:#331a00"
         id="path17" />
      <path
         d="m -3.798268,0.8565965 h 0.6235731 c 0.495539,0 0.839334,-0.31297201 0.839334,-0.78954302 0,-0.47657101 -0.343795,-0.79191401 -0.839334,-0.79191401 H -3.798268 Z m 0.3366821,-0.29637501 v -0.98870702 h 0.286891 c 0.324827,0 0.495539,0.21576101 0.495539,0.49553901 0,0.26792301 -0.182567,0.49316801 -0.495539,0.49316801 z"
         style="font-weight:bold;font-size:2.371px;font-family:'Proxima Nova';dominant-baseline:middle;text-anchor:middle;fill:#331a00"
         id="path19" />
      <path
         d="m -1.6970434,0.8565965 h 0.422038 l 0.609347,-1.58145703 h -0.384102 l -0.436264,1.21632302 -0.438635,-1.21632302 h -0.384102 z"
         style="font-weight:bold;font-size:2.371px;font-family:'Proxima Nova';dominant-baseline:middle;text-anchor:middle;fill:#331a00"
         id="path21" />
      <path
         d="M 0.47649684,0.8565965 H 0.84400185 L 0.23465483,-0.72486053 H -0.18738318 L -0.79910119,0.8565965 h 0.36987601 l 0.099582,-0.27266501 H 0.37691484 Z M 0.02363583,-0.43322753 0.28444584,0.29229849 h -0.52399102 z"
         style="font-weight:bold;font-size:2.371px;font-family:'Proxima Nova';dominant-baseline:middle;text-anchor:middle;fill:#331a00"
         id="path23" />
      <path
         d="m 2.0807008,0.8565965 h 0.324827 V -0.72486053 H 2.0688458 V 0.29941149 L 1.3362068,-0.72486053 H 0.99004079 V 0.8565965 H 1.3267228 v -1.06220802 z"
         style="font-weight:bold;font-size:2.371px;font-family:'Proxima Nova';dominant-baseline:middle;text-anchor:middle;fill:#331a00"
         id="path25" />
      <path
         d="m 3.4713295,0.8850485 c 0.360392,0 0.559556,-0.192051 0.673364,-0.38884401 l -0.289262,-0.139889 c -0.066388,0.130405 -0.208648,0.229987 -0.384102,0.229987 -0.275036,0 -0.483684,-0.220503 -0.483684,-0.51924901 0,-0.298746 0.208648,-0.51924901 0.483684,-0.51924901 0.175454,0 0.317714,0.101953 0.384102,0.22998701 l 0.289262,-0.14226001 c -0.111437,-0.196793 -0.312972,-0.38647301 -0.673364,-0.38647301 -0.462345,0 -0.8298501,0.33194001 -0.8298501,0.81799502 0,0.48605501 0.3675051,0.81799502 0.8298501,0.81799502 z"
         style="font-weight:bold;font-size:2.371px;font-family:'Proxima Nova';dominant-baseline:middle;text-anchor:middle;fill:#331a00"
         id="path27" />
      <path
         d="M 4.3474135,0.8565965 H 5.4665256 V 0.56496349 h -0.78243 v -0.367505 h 0.765833 v -0.28926201 h -0.765833 v -0.34379501 h 0.78243 v -0.289262 H 4.3474135 Z"
         style="font-weight:bold;font-size:2.371px;font-family:'Proxima Nova';dominant-baseline:middle;text-anchor:middle;fill:#331a00"
         id="path29" />
    </g>
  </g>
</svg>
