<?xml version="1.0" encoding="UTF-8" standalone="no"?>
<svg
   xmlns:dc="http://purl.org/dc/elements/1.1/"
   xmlns:cc="http://creativecommons.org/ns#"
   xmlns:rdf="http://www.w3.org/1999/02/22-rdf-syntax-ns#"
   xmlns:svg="http://www.w3.org/2000/svg"
   xmlns="http://www.w3.org/2000/svg"
   id="svg106"
   height="379.42913385826773"
   width="180.0"
   version="1.1">
  <metadata
     id="metadata112">
    <rdf:RDF>
      <cc:Work
         rdf:about="">
        <dc:format>image/svg+xml</dc:format>
        <dc:type
           rdf:resource="http://purl.org/dc/dcmitype/StillImage" />
      </cc:Work>
    </rdf:RDF>
  </metadata>
  <defs
     id="defs110" />
  <g
     id="g104"
     transform="scale(2.9527559)">
    <path
       id="rect2"
       d="M 0,0 H 60.959999 V 128.5 H 0 Z"
       style="fill:#faf7f0;stroke:#0044cc;stroke-width:1" />
    <g
       id="text4"
       style="font-weight:bold;font-size:4.06400013px;font-family:'Proxima Nova';text-anchor:middle;fill:#0044cc"
       aria-label="TWEAKS">
      <path
         id="path115"
         style="font-weight:bold;font-size:4.06400013px;font-family:'Proxima Nova';text-anchor:middle;fill:#0044cc"
         d="m 23.238142,9 h 0.581152 V 6.7973119 h 0.788416 v -0.508 h -2.162048 v 0.508 h 0.79248 z" />
      <path
         id="path117"
         style="font-weight:bold;font-size:4.06400013px;font-family:'Proxima Nova';text-anchor:middle;fill:#0044cc"
         d="m 27.050301,9 h 0.613664 l 0.77216,-2.7106881 h -0.65024 L 27.314461,8.24816 26.802397,6.2893119 H 26.351293 L 25.835165,8.24816 25.359677,6.2893119 H 24.713501 L 25.489725,9 h 0.613664 l 0.471424,-1.8613121 z" />
      <path
         id="path119"
         style="font-weight:bold;font-size:4.06400013px;font-family:'Proxima Nova';text-anchor:middle;fill:#0044cc"
         d="m 28.708286,9 h 1.918208 V 8.492 h -1.34112 V 7.878336 h 1.312672 V 7.3703359 h -1.312672 v -0.573024 h 1.34112 v -0.508 h -1.918208 z" />
      <path
         id="path121"
         style="font-weight:bold;font-size:4.06400013px;font-family:'Proxima Nova';text-anchor:middle;fill:#0044cc"
         d="m 32.951039,9 h 0.658368 L 32.564959,6.2893119 H 31.841566 L 30.793054,9 h 0.658368 L 31.62211,8.540768 h 1.162305 z M 32.203262,6.8663999 32.625919,8.032768 h -0.845313 z" />
      <path
         id="path123"
         style="font-weight:bold;font-size:4.06400013px;font-family:'Proxima Nova';text-anchor:middle;fill:#0044cc"
         d="m 35.469067,9 h 0.7112 l -1.150112,-1.438656 1.07696,-1.2720321 h -0.7112 L 34.436811,7.500384 V 6.2893119 H 33.859723 V 9 h 0.577088 V 8.16688 l 0.211328,-0.251968 z" />
      <path
         id="path125"
         style="font-weight:bold;font-size:4.06400013px;font-family:'Proxima Nova';text-anchor:middle;fill:#0044cc"
         d="m 36.264469,8.617984 c 0.251968,0.256032 0.625856,0.430784 1.146048,0.430784 0.73152,0 1.085088,-0.373888 1.085088,-0.869696 0,-0.613664 -0.56896,-0.7477761 -1.016,-0.8534401 -0.292608,-0.069088 -0.540512,-0.125984 -0.540512,-0.300736 0,-0.16256 0.138176,-0.272288 0.38608,-0.272288 0.276352,0 0.56896,0.093472 0.788416,0.296672 l 0.321056,-0.422656 c -0.268224,-0.247904 -0.625856,-0.377952 -1.05664,-0.377952 -0.638048,0 -1.028192,0.373888 -1.028192,0.824992 0,0.6177281 0.56896,0.7396481 1.011936,0.8412481 0.296672,0.073152 0.54864,0.130048 0.54864,0.329184 0,0.154432 -0.154432,0.300736 -0.471424,0.300736 -0.373888,0 -0.67056,-0.166624 -0.861568,-0.36576 z" />
    </g>
    <g
       id="text6"
       style="font-weight:bold;font-size:4.06400013px;font-family:'Proxima Nova';dominant-baseline:hanging;text-anchor:middle;fill:#0044cc"
       aria-label="DHE">
      <path
         id="path128"
         style="font-weight:bold;font-size:4.06400013px;font-family:'Proxima Nova';dominant-baseline:hanging;text-anchor:middle;fill:#0044cc"
         d="m 26.616755,122.06845 h 1.068832 c 0.849376,0 1.438656,-0.53645 1.438656,-1.35331 0,-0.81687 -0.58928,-1.35738 -1.438656,-1.35738 h -1.068832 z m 0.577088,-0.508 v -1.69469 h 0.491744 c 0.556768,0 0.849376,0.36982 0.849376,0.84938 0,0.45923 -0.312928,0.84531 -0.849376,0.84531 z" />
      <path
         id="path130"
         style="font-weight:bold;font-size:4.06400013px;font-family:'Proxima Nova';dominant-baseline:hanging;text-anchor:middle;fill:#0044cc"
         d="m 31.395003,122.06845 h 0.581152 v -2.71069 h -0.581152 v 1.06477 h -1.28016 v -1.06477 h -0.577088 v 2.71069 h 0.577088 v -1.13792 h 1.28016 z" />
      <path
         id="path132"
         style="font-weight:bold;font-size:4.06400013px;font-family:'Proxima Nova';dominant-baseline:hanging;text-anchor:middle;fill:#0044cc"
         d="m 32.50638,122.06845 h 1.918208 v -0.508 h -1.34112 v -0.61367 h 1.312672 v -0.508 h -1.312672 v -0.57302 h 1.34112 v -0.508 H 32.50638 Z" />
    </g>
    <path
       id="line8"
       d="M 8.7085714,23 H 52.251427"
       style="stroke:#0044cc;stroke-width:0.34999999" />
    <path
       id="rect10"
       d="m 4.3335714,16.294556 h 8.7499996 c 0.554,0 1,0.446 1,1 V 28.625 c 0,0.554 -0.446,1 -1,1 H 4.3335714 c -0.554,0 -1,-0.446 -1,-1 V 17.294556 c 0,-0.554 0.446,-1 1,-1 z"
       style="fill:#faf7f0;stroke:#0044cc;stroke-width:0.34999999" />
    <g
       id="text12"
       style="font-weight:bold;font-size:2.37066674px;font-family:'Proxima Nova';text-anchor:middle;fill:#0044cc"
       aria-label="IN">
      <path
         id="path137"
         style="font-weight:bold;font-size:2.37066674px;font-family:'Proxima Nova';text-anchor:middle;fill:#0044cc"
         d="M 7.677387,19.049999 H 8.0140216 V 17.468765 H 7.677387 Z" />
      <path
         id="path139"
         style="font-weight:bold;font-size:2.37066674px;font-family:'Proxima Nova';text-anchor:middle;fill:#0044cc"
         d="M 9.4161228,19.049999 H 9.7409042 V 17.468765 H 9.4042695 v 0.993309 L 8.6717335,17.468765 H 8.3256161 v 1.581234 h 0.3366347 v -1.03124 z" />
    </g>
    <g
       id="text14"
       style="font-weight:bold;font-size:2.37066674px;font-family:'Proxima Nova';text-anchor:middle;fill:#0044cc"
       aria-label="MULT">
      <path
         id="path142"
         style="font-weight:bold;font-size:2.37066674px;font-family:'Proxima Nova';text-anchor:middle;fill:#0044cc"
         d="m 18.051278,18.825001 h 0.339006 V 17.243766 H 17.91615 l -0.384048,0.955379 -0.384048,-0.955379 h -0.471762 v 1.581235 h 0.336634 v -1.107102 l 0.445686,1.107102 h 0.146981 l 0.445685,-1.107102 z" />
      <path
         id="path144"
         style="font-weight:bold;font-size:2.37066674px;font-family:'Proxima Nova';text-anchor:middle;fill:#0044cc"
         d="m 18.704323,18.194403 c 0,0.38879 0.232325,0.659046 0.713571,0.659046 0.481245,0 0.71357,-0.267886 0.71357,-0.661416 v -0.948267 h -0.343746 v 0.938784 c 0,0.220472 -0.125646,0.372195 -0.369824,0.372195 -0.244179,0 -0.372195,-0.151723 -0.372195,-0.372195 v -0.938784 h -0.341376 z" />
      <path
         id="path146"
         style="font-weight:bold;font-size:2.37066674px;font-family:'Proxima Nova';text-anchor:middle;fill:#0044cc"
         d="m 20.440651,18.825001 h 1.005163 v -0.296334 h -0.668528 v -1.284901 h -0.336635 z" />
      <path
         id="path148"
         style="font-weight:bold;font-size:2.37066674px;font-family:'Proxima Nova';text-anchor:middle;fill:#0044cc"
         d="m 21.810489,18.825001 h 0.339005 v -1.284902 h 0.459909 v -0.296333 h -1.261194 v 0.296333 h 0.46228 z" />
    </g>
    <g
       id="text16"
       style="font-weight:bold;font-size:2.37066674px;font-family:'Proxima Nova';dominant-baseline:hanging;text-anchor:middle;fill:#0044cc"
       aria-label="ADD">
      <path
         id="path151"
         style="font-weight:bold;font-size:2.37066674px;font-family:'Proxima Nova';dominant-baseline:hanging;text-anchor:middle;fill:#0044cc"
         d="m 18.327053,28.673261 h 0.384048 L 18.10184,27.092026 h -0.421979 l -0.611632,1.581235 h 0.384048 l 0.09957,-0.267886 h 0.678011 z m -0.436202,-1.2446 0.246549,0.680381 h -0.493099 z" />
      <path
         id="path153"
         style="font-weight:bold;font-size:2.37066674px;font-family:'Proxima Nova';dominant-baseline:hanging;text-anchor:middle;fill:#0044cc"
         d="m 18.85712,28.673261 h 0.623485 c 0.495469,0 0.839216,-0.312928 0.839216,-0.789432 0,-0.476504 -0.343747,-0.791803 -0.839216,-0.791803 H 18.85712 Z m 0.336634,-0.296334 v -0.988568 h 0.286851 c 0.324781,0 0.495469,0.215731 0.495469,0.49547 0,0.267885 -0.182541,0.493098 -0.495469,0.493098 z" />
      <path
         id="path155"
         style="font-weight:bold;font-size:2.37066674px;font-family:'Proxima Nova';dominant-baseline:hanging;text-anchor:middle;fill:#0044cc"
         d="m 20.561036,28.673261 h 0.623486 c 0.495469,0 0.839216,-0.312928 0.839216,-0.789432 0,-0.476504 -0.343747,-0.791803 -0.839216,-0.791803 h -0.623486 z m 0.336635,-0.296334 v -0.988568 h 0.286851 c 0.324781,0 0.495469,0.215731 0.495469,0.49547 0,0.267885 -0.182541,0.493098 -0.495469,0.493098 z" />
    </g>
    <g
       id="text18"
       style="font-weight:bold;font-size:3.0480001px;font-family:'Proxima Nova';text-anchor:middle;fill:#0044cc" />
    <path
       id="rect20"
       d="m 47.876427,16.294556 h 8.75 c 0.554,0 1,0.446 1,1 V 28.625 c 0,0.554 -0.446,1 -1,1 h -8.75 c -0.554,0 -1,-0.446 -1,-1 V 17.294556 c 0,-0.554 0.446,-1 1,-1 z"
       style="fill:#0044cc;stroke:#0044cc;stroke-width:0.34999999" />
    <g
       id="text22"
       style="font-weight:bold;font-size:2.37066674px;font-family:'Proxima Nova';text-anchor:middle;fill:#faf7f0"
       aria-label="OUT">
      <path
         id="path160"
         style="font-weight:bold;font-size:2.37066674px;font-family:'Proxima Nova';text-anchor:middle;fill:#faf7f0"
         d="m 49.866443,18.260567 c 0,0.476504 0.348488,0.81788 0.824992,0.81788 0.478875,0 0.827363,-0.341376 0.827363,-0.81788 0,-0.476504 -0.348488,-0.81788 -0.827363,-0.81788 -0.476504,0 -0.824992,0.341376 -0.824992,0.81788 z m 1.306238,0 c 0,0.293963 -0.189654,0.519176 -0.481246,0.519176 -0.291592,0 -0.478874,-0.225213 -0.478874,-0.519176 0,-0.296333 0.187282,-0.519176 0.478874,-0.519176 0.291592,0 0.481246,0.222843 0.481246,0.519176 z" />
      <path
         id="path162"
         style="font-weight:bold;font-size:2.37066674px;font-family:'Proxima Nova';text-anchor:middle;fill:#faf7f0"
         d="m 51.757346,18.419402 c 0,0.388789 0.232326,0.659045 0.713571,0.659045 0.481246,0 0.713571,-0.267885 0.713571,-0.661416 v -0.948266 h -0.343747 v 0.938784 c 0,0.220472 -0.125645,0.372194 -0.369824,0.372194 -0.244179,0 -0.372195,-0.151722 -0.372195,-0.372194 v -0.938784 h -0.341376 z" />
      <path
         id="path164"
         style="font-weight:bold;font-size:2.37066674px;font-family:'Proxima Nova';text-anchor:middle;fill:#faf7f0"
         d="m 53.858757,19.049999 h 0.339006 v -1.284901 h 0.459909 v -0.296333 h -1.261195 v 0.296333 h 0.46228 z" />
    </g>
    <path
       id="line24"
       d="M 8.7085714,40 H 52.251427"
       style="stroke:#0044cc;stroke-width:0.34999999" />
    <path
       id="rect26"
       d="m 4.3335714,33.294556 h 8.7499996 c 0.554,0 1,0.446 1,1 V 45.625 c 0,0.554 -0.446,1 -1,1 H 4.3335714 c -0.554,0 -1,-0.446 -1,-1 V 34.294556 c 0,-0.554 0.446,-1 1,-1 z"
       style="fill:#faf7f0;stroke:#0044cc;stroke-width:0.34999999" />
    <g
       id="text28"
       style="font-weight:bold;font-size:2.37066674px;font-family:'Proxima Nova';text-anchor:middle;fill:#0044cc"
       aria-label="IN">
      <path
         id="path169"
         style="font-weight:bold;font-size:2.37066674px;font-family:'Proxima Nova';text-anchor:middle;fill:#0044cc"
         d="M 7.677387,36.049999 H 8.0140216 V 34.468765 H 7.677387 Z" />
      <path
         id="path171"
         style="font-weight:bold;font-size:2.37066674px;font-family:'Proxima Nova';text-anchor:middle;fill:#0044cc"
         d="M 9.4161228,36.049999 H 9.7409042 V 34.468765 H 9.4042695 v 0.993309 L 8.6717335,34.468765 H 8.3256161 v 1.581234 h 0.3366347 v -1.03124 z" />
    </g>
    <g
       id="text30"
       style="font-weight:bold;font-size:2.37066674px;font-family:'Proxima Nova';text-anchor:middle;fill:#0044cc"
       aria-label="MULT">
      <path
         id="path174"
         style="font-weight:bold;font-size:2.37066674px;font-family:'Proxima Nova';text-anchor:middle;fill:#0044cc"
         d="m 18.051278,35.825001 h 0.339006 V 34.243766 H 17.91615 l -0.384048,0.955379 -0.384048,-0.955379 h -0.471762 v 1.581235 h 0.336634 v -1.107102 l 0.445686,1.107102 h 0.146981 l 0.445685,-1.107102 z" />
      <path
         id="path176"
         style="font-weight:bold;font-size:2.37066674px;font-family:'Proxima Nova';text-anchor:middle;fill:#0044cc"
         d="m 18.704323,35.194403 c 0,0.38879 0.232325,0.659046 0.713571,0.659046 0.481245,0 0.71357,-0.267886 0.71357,-0.661416 v -0.948267 h -0.343746 v 0.938784 c 0,0.220472 -0.125646,0.372195 -0.369824,0.372195 -0.244179,0 -0.372195,-0.151723 -0.372195,-0.372195 v -0.938784 h -0.341376 z" />
      <path
         id="path178"
         style="font-weight:bold;font-size:2.37066674px;font-family:'Proxima Nova';text-anchor:middle;fill:#0044cc"
         d="m 20.440651,35.825001 h 1.005163 v -0.296334 h -0.668528 v -1.284901 h -0.336635 z" />
      <path
         id="path180"
         style="font-weight:bold;font-size:2.37066674px;font-family:'Proxima Nova';text-anchor:middle;fill:#0044cc"
         d="m 21.810489,35.825001 h 0.339005 v -1.284902 h 0.459909 v -0.296333 h -1.261194 v 0.296333 h 0.46228 z" />
    </g>
    <g
       id="text32"
       style="font-weight:bold;font-size:2.37066674px;font-family:'Proxima Nova';dominant-baseline:hanging;text-anchor:middle;fill:#0044cc"
       aria-label="ADD">
      <path
         id="path183"
         style="font-weight:bold;font-size:2.37066674px;font-family:'Proxima Nova';dominant-baseline:hanging;text-anchor:middle;fill:#0044cc"
         d="m 18.327053,45.673261 h 0.384048 L 18.10184,44.092026 h -0.421979 l -0.611632,1.581235 h 0.384048 l 0.09957,-0.267886 h 0.678011 z m -0.436202,-1.2446 0.246549,0.680381 h -0.493099 z" />
      <path
         id="path185"
         style="font-weight:bold;font-size:2.37066674px;font-family:'Proxima Nova';dominant-baseline:hanging;text-anchor:middle;fill:#0044cc"
         d="m 18.85712,45.673261 h 0.623485 c 0.495469,0 0.839216,-0.312928 0.839216,-0.789432 0,-0.476504 -0.343747,-0.791803 -0.839216,-0.791803 H 18.85712 Z m 0.336634,-0.296334 v -0.988568 h 0.286851 c 0.324781,0 0.495469,0.215731 0.495469,0.49547 0,0.267885 -0.182541,0.493098 -0.495469,0.493098 z" />
      <path
         id="path187"
         style="font-weight:bold;font-size:2.37066674px;font-family:'Proxima Nova';dominant-baseline:hanging;text-anchor:middle;fill:#0044cc"
         d="m 20.561036,45.673261 h 0.623486 c 0.495469,0 0.839216,-0.312928 0.839216,-0.789432 0,-0.476504 -0.343747,-0.791803 -0.839216,-0.791803 h -0.623486 z m 0.336635,-0.296334 v -0.988568 h 0.286851 c 0.324781,0 0.495469,0.215731 0.495469,0.49547 0,0.267885 -0.182541,0.493098 -0.495469,0.493098 z" />
    </g>
    <g
       id="text34"
       style="font-weight:bold;font-size:3.0480001px;font-family:'Proxima Nova';text-anchor:middle;fill:#0044cc" />
    <path
       id="rect36"
       d="m 47.876427,33.294556 h 8.75 c 0.554,0 1,0.446 1,1 V 45.625 c 0,0.554 -0.446,1 -1,1 h -8.75 c -0.554,0 -1,-0.446 -1,-1 V 34.294556 c 0,-0.554 0.446,-1 1,-1 z"
       style="fill:#0044cc;stroke:#0044cc;stroke-width:0.34999999" />
    <g
       id="text38"
       style="font-weight:bold;font-size:2.37066674px;font-family:'Proxima Nova';text-anchor:middle;fill:#faf7f0"
       aria-label="OUT">
      <path
         id="path192"
         style="font-weight:bold;font-size:2.37066674px;font-family:'Proxima Nova';text-anchor:middle;fill:#faf7f0"
         d="m 49.866443,35.260567 c 0,0.476504 0.348488,0.81788 0.824992,0.81788 0.478875,0 0.827363,-0.341376 0.827363,-0.81788 0,-0.476504 -0.348488,-0.81788 -0.827363,-0.81788 -0.476504,0 -0.824992,0.341376 -0.824992,0.81788 z m 1.306238,0 c 0,0.293963 -0.189654,0.519176 -0.481246,0.519176 -0.291592,0 -0.478874,-0.225213 -0.478874,-0.519176 0,-0.296333 0.187282,-0.519176 0.478874,-0.519176 0.291592,0 0.481246,0.222843 0.481246,0.519176 z" />
      <path
         id="path194"
         style="font-weight:bold;font-size:2.37066674px;font-family:'Proxima Nova';text-anchor:middle;fill:#faf7f0"
         d="m 51.757346,35.419402 c 0,0.388789 0.232326,0.659045 0.713571,0.659045 0.481246,0 0.713571,-0.267885 0.713571,-0.661416 v -0.948266 h -0.343747 v 0.938784 c 0,0.220472 -0.125645,0.372194 -0.369824,0.372194 -0.244179,0 -0.372195,-0.151722 -0.372195,-0.372194 v -0.938784 h -0.341376 z" />
      <path
         id="path196"
         style="font-weight:bold;font-size:2.37066674px;font-family:'Proxima Nova';text-anchor:middle;fill:#faf7f0"
         d="m 53.858757,36.049999 h 0.339006 v -1.284901 h 0.459909 v -0.296333 h -1.261195 v 0.296333 h 0.46228 z" />
    </g>
    <path
       id="line40"
       d="M 8.7085714,57 H 52.251427"
       style="stroke:#0044cc;stroke-width:0.34999999" />
    <path
       id="rect42"
       d="m 4.3335714,50.294556 h 8.7499996 c 0.554,0 1,0.446 1,1 V 62.625 c 0,0.554 -0.446,1 -1,1 H 4.3335714 c -0.554,0 -1,-0.446 -1,-1 V 51.294556 c 0,-0.554 0.446,-1 1,-1 z"
       style="fill:#faf7f0;stroke:#0044cc;stroke-width:0.34999999" />
    <g
       id="text44"
       style="font-weight:bold;font-size:2.37066674px;font-family:'Proxima Nova';text-anchor:middle;fill:#0044cc"
       aria-label="IN">
      <path
         id="path201"
         style="font-weight:bold;font-size:2.37066674px;font-family:'Proxima Nova';text-anchor:middle;fill:#0044cc"
         d="M 7.677387,53.049999 H 8.0140216 V 51.468765 H 7.677387 Z" />
      <path
         id="path203"
         style="font-weight:bold;font-size:2.37066674px;font-family:'Proxima Nova';text-anchor:middle;fill:#0044cc"
         d="M 9.4161228,53.049999 H 9.7409042 V 51.468765 H 9.4042695 v 0.993309 L 8.6717335,51.468765 H 8.3256161 v 1.581234 h 0.3366347 v -1.03124 z" />
    </g>
    <g
       id="text46"
       style="font-weight:bold;font-size:2.37066674px;font-family:'Proxima Nova';text-anchor:middle;fill:#0044cc"
       aria-label="MULT">
      <path
         id="path206"
         style="font-weight:bold;font-size:2.37066674px;font-family:'Proxima Nova';text-anchor:middle;fill:#0044cc"
         d="m 18.051278,52.825001 h 0.339006 V 51.243766 H 17.91615 l -0.384048,0.955379 -0.384048,-0.955379 h -0.471762 v 1.581235 h 0.336634 v -1.107102 l 0.445686,1.107102 h 0.146981 l 0.445685,-1.107102 z" />
      <path
         id="path208"
         style="font-weight:bold;font-size:2.37066674px;font-family:'Proxima Nova';text-anchor:middle;fill:#0044cc"
         d="m 18.704323,52.194403 c 0,0.38879 0.232325,0.659046 0.713571,0.659046 0.481245,0 0.71357,-0.267886 0.71357,-0.661416 v -0.948267 h -0.343746 v 0.938784 c 0,0.220472 -0.125646,0.372195 -0.369824,0.372195 -0.244179,0 -0.372195,-0.151723 -0.372195,-0.372195 v -0.938784 h -0.341376 z" />
      <path
         id="path210"
         style="font-weight:bold;font-size:2.37066674px;font-family:'Proxima Nova';text-anchor:middle;fill:#0044cc"
         d="m 20.440651,52.825001 h 1.005163 v -0.296334 h -0.668528 v -1.284901 h -0.336635 z" />
      <path
         id="path212"
         style="font-weight:bold;font-size:2.37066674px;font-family:'Proxima Nova';text-anchor:middle;fill:#0044cc"
         d="m 21.810489,52.825001 h 0.339005 v -1.284902 h 0.459909 v -0.296333 h -1.261194 v 0.296333 h 0.46228 z" />
    </g>
    <g
       id="text48"
       style="font-weight:bold;font-size:2.37066674px;font-family:'Proxima Nova';dominant-baseline:hanging;text-anchor:middle;fill:#0044cc"
       aria-label="ADD">
      <path
         id="path215"
         style="font-weight:bold;font-size:2.37066674px;font-family:'Proxima Nova';dominant-baseline:hanging;text-anchor:middle;fill:#0044cc"
         d="m 18.327053,62.673261 h 0.384048 L 18.10184,61.092026 h -0.421979 l -0.611632,1.581235 h 0.384048 l 0.09957,-0.267886 h 0.678011 z m -0.436202,-1.2446 0.246549,0.680381 h -0.493099 z" />
      <path
         id="path217"
         style="font-weight:bold;font-size:2.37066674px;font-family:'Proxima Nova';dominant-baseline:hanging;text-anchor:middle;fill:#0044cc"
         d="m 18.85712,62.673261 h 0.623485 c 0.495469,0 0.839216,-0.312928 0.839216,-0.789432 0,-0.476504 -0.343747,-0.791803 -0.839216,-0.791803 H 18.85712 Z m 0.336634,-0.296334 v -0.988568 h 0.286851 c 0.324781,0 0.495469,0.215731 0.495469,0.49547 0,0.267885 -0.182541,0.493098 -0.495469,0.493098 z" />
      <path
         id="path219"
         style="font-weight:bold;font-size:2.37066674px;font-family:'Proxima Nova';dominant-baseline:hanging;text-anchor:middle;fill:#0044cc"
         d="m 20.561036,62.673261 h 0.623486 c 0.495469,0 0.839216,-0.312928 0.839216,-0.789432 0,-0.476504 -0.343747,-0.791803 -0.839216,-0.791803 h -0.623486 z m 0.336635,-0.296334 v -0.988568 h 0.286851 c 0.324781,0 0.495469,0.215731 0.495469,0.49547 0,0.267885 -0.182541,0.493098 -0.495469,0.493098 z" />
    </g>
    <g
       id="text50"
       style="font-weight:bold;font-size:3.0480001px;font-family:'Proxima Nova';text-anchor:middle;fill:#0044cc" />
    <path
       id="rect52"
       d="m 47.876427,50.294556 h 8.75 c 0.554,0 1,0.446 1,1 V 62.625 c 0,0.554 -0.446,1 -1,1 h -8.75 c -0.554,0 -1,-0.446 -1,-1 V 51.294556 c 0,-0.554 0.446,-1 1,-1 z"
       style="fill:#0044cc;stroke:#0044cc;stroke-width:0.34999999" />
    <g
       id="text54"
       style="font-weight:bold;font-size:2.37066674px;font-family:'Proxima Nova';text-anchor:middle;fill:#faf7f0"
       aria-label="OUT">
      <path
         id="path224"
         style="font-weight:bold;font-size:2.37066674px;font-family:'Proxima Nova';text-anchor:middle;fill:#faf7f0"
         d="m 49.866443,52.260567 c 0,0.476504 0.348488,0.81788 0.824992,0.81788 0.478875,0 0.827363,-0.341376 0.827363,-0.81788 0,-0.476504 -0.348488,-0.81788 -0.827363,-0.81788 -0.476504,0 -0.824992,0.341376 -0.824992,0.81788 z m 1.306238,0 c 0,0.293963 -0.189654,0.519176 -0.481246,0.519176 -0.291592,0 -0.478874,-0.225213 -0.478874,-0.519176 0,-0.296333 0.187282,-0.519176 0.478874,-0.519176 0.291592,0 0.481246,0.222843 0.481246,0.519176 z" />
      <path
         id="path226"
         style="font-weight:bold;font-size:2.37066674px;font-family:'Proxima Nova';text-anchor:middle;fill:#faf7f0"
         d="m 51.757346,52.419402 c 0,0.388789 0.232326,0.659045 0.713571,0.659045 0.481246,0 0.713571,-0.267885 0.713571,-0.661416 v -0.948266 h -0.343747 v 0.938784 c 0,0.220472 -0.125645,0.372194 -0.369824,0.372194 -0.244179,0 -0.372195,-0.151722 -0.372195,-0.372194 v -0.938784 h -0.341376 z" />
      <path
         id="path228"
         style="font-weight:bold;font-size:2.37066674px;font-family:'Proxima Nova';text-anchor:middle;fill:#faf7f0"
         d="m 53.858757,53.049999 h 0.339006 v -1.284901 h 0.459909 v -0.296333 h -1.261195 v 0.296333 h 0.46228 z" />
    </g>
    <path
       id="line56"
       d="M 8.7085714,74 H 52.251427"
       style="stroke:#0044cc;stroke-width:0.34999999" />
    <path
       id="rect58"
       d="m 4.3335714,67.294556 h 8.7499996 c 0.554,0 1,0.446 1,1 V 79.625 c 0,0.554 -0.446,1 -1,1 H 4.3335714 c -0.554,0 -1,-0.446 -1,-1 V 68.294556 c 0,-0.554 0.446,-1 1,-1 z"
       style="fill:#faf7f0;stroke:#0044cc;stroke-width:0.34999999" />
    <g
       id="text60"
       style="font-weight:bold;font-size:2.37066674px;font-family:'Proxima Nova';text-anchor:middle;fill:#0044cc"
       aria-label="IN">
      <path
         id="path233"
         style="font-weight:bold;font-size:2.37066674px;font-family:'Proxima Nova';text-anchor:middle;fill:#0044cc"
         d="M 7.677387,70.050003 H 8.0140216 V 68.468768 H 7.677387 Z" />
      <path
         id="path235"
         style="font-weight:bold;font-size:2.37066674px;font-family:'Proxima Nova';text-anchor:middle;fill:#0044cc"
         d="M 9.4161228,70.050003 H 9.7409042 V 68.468768 H 9.4042695 v 0.99331 l -0.732536,-0.99331 H 8.3256161 v 1.581235 h 0.3366347 v -1.03124 z" />
    </g>
    <g
       id="text62"
       style="font-weight:bold;font-size:2.37066674px;font-family:'Proxima Nova';text-anchor:middle;fill:#0044cc"
       aria-label="MULT">
      <path
         id="path238"
         style="font-weight:bold;font-size:2.37066674px;font-family:'Proxima Nova';text-anchor:middle;fill:#0044cc"
         d="m 18.051278,69.824997 h 0.339006 V 68.243762 H 17.91615 l -0.384048,0.955379 -0.384048,-0.955379 h -0.471762 v 1.581235 h 0.336634 v -1.107101 l 0.445686,1.107101 h 0.146981 l 0.445685,-1.107101 z" />
      <path
         id="path240"
         style="font-weight:bold;font-size:2.37066674px;font-family:'Proxima Nova';text-anchor:middle;fill:#0044cc"
         d="m 18.704323,69.1944 c 0,0.388789 0.232325,0.659045 0.713571,0.659045 0.481245,0 0.71357,-0.267885 0.71357,-0.661416 v -0.948267 h -0.343746 v 0.938784 c 0,0.220472 -0.125646,0.372195 -0.369824,0.372195 -0.244179,0 -0.372195,-0.151723 -0.372195,-0.372195 v -0.938784 h -0.341376 z" />
      <path
         id="path242"
         style="font-weight:bold;font-size:2.37066674px;font-family:'Proxima Nova';text-anchor:middle;fill:#0044cc"
         d="m 20.440651,69.824997 h 1.005163 v -0.296333 h -0.668528 v -1.284902 h -0.336635 z" />
      <path
         id="path244"
         style="font-weight:bold;font-size:2.37066674px;font-family:'Proxima Nova';text-anchor:middle;fill:#0044cc"
         d="m 21.810489,69.824997 h 0.339005 v -1.284901 h 0.459909 v -0.296334 h -1.261194 v 0.296334 h 0.46228 z" />
    </g>
    <g
       id="text64"
       style="font-weight:bold;font-size:2.37066674px;font-family:'Proxima Nova';dominant-baseline:hanging;text-anchor:middle;fill:#0044cc"
       aria-label="ADD">
      <path
         id="path247"
         style="font-weight:bold;font-size:2.37066674px;font-family:'Proxima Nova';dominant-baseline:hanging;text-anchor:middle;fill:#0044cc"
         d="m 18.327053,79.673264 h 0.384048 L 18.10184,78.09203 h -0.421979 l -0.611632,1.581234 h 0.384048 l 0.09957,-0.267885 h 0.678011 z m -0.436202,-1.2446 0.246549,0.680382 h -0.493099 z" />
      <path
         id="path249"
         style="font-weight:bold;font-size:2.37066674px;font-family:'Proxima Nova';dominant-baseline:hanging;text-anchor:middle;fill:#0044cc"
         d="m 18.85712,79.673264 h 0.623485 c 0.495469,0 0.839216,-0.312928 0.839216,-0.789432 0,-0.476504 -0.343747,-0.791802 -0.839216,-0.791802 H 18.85712 Z m 0.336634,-0.296333 v -0.988568 h 0.286851 c 0.324781,0 0.495469,0.215731 0.495469,0.495469 0,0.267886 -0.182541,0.493099 -0.495469,0.493099 z" />
      <path
         id="path251"
         style="font-weight:bold;font-size:2.37066674px;font-family:'Proxima Nova';dominant-baseline:hanging;text-anchor:middle;fill:#0044cc"
         d="m 20.561036,79.673264 h 0.623486 c 0.495469,0 0.839216,-0.312928 0.839216,-0.789432 0,-0.476504 -0.343747,-0.791802 -0.839216,-0.791802 h -0.623486 z m 0.336635,-0.296333 v -0.988568 h 0.286851 c 0.324781,0 0.495469,0.215731 0.495469,0.495469 0,0.267886 -0.182541,0.493099 -0.495469,0.493099 z" />
    </g>
    <g
       id="text66"
       style="font-weight:bold;font-size:3.0480001px;font-family:'Proxima Nova';text-anchor:middle;fill:#0044cc" />
    <path
       id="rect68"
       d="m 47.876427,67.294556 h 8.75 c 0.554,0 1,0.446 1,1 V 79.625 c 0,0.554 -0.446,1 -1,1 h -8.75 c -0.554,0 -1,-0.446 -1,-1 V 68.294556 c 0,-0.554 0.446,-1 1,-1 z"
       style="fill:#0044cc;stroke:#0044cc;stroke-width:0.34999999" />
    <g
       id="text70"
       style="font-weight:bold;font-size:2.37066674px;font-family:'Proxima Nova';text-anchor:middle;fill:#faf7f0"
       aria-label="OUT">
      <path
         id="path256"
         style="font-weight:bold;font-size:2.37066674px;font-family:'Proxima Nova';text-anchor:middle;fill:#faf7f0"
         d="m 49.866443,69.260571 c 0,0.476504 0.348488,0.81788 0.824992,0.81788 0.478875,0 0.827363,-0.341376 0.827363,-0.81788 0,-0.476504 -0.348488,-0.81788 -0.827363,-0.81788 -0.476504,0 -0.824992,0.341376 -0.824992,0.81788 z m 1.306238,0 c 0,0.293963 -0.189654,0.519176 -0.481246,0.519176 -0.291592,0 -0.478874,-0.225213 -0.478874,-0.519176 0,-0.296333 0.187282,-0.519176 0.478874,-0.519176 0.291592,0 0.481246,0.222843 0.481246,0.519176 z" />
      <path
         id="path258"
         style="font-weight:bold;font-size:2.37066674px;font-family:'Proxima Nova';text-anchor:middle;fill:#faf7f0"
         d="m 51.757346,69.419406 c 0,0.388789 0.232326,0.659045 0.713571,0.659045 0.481246,0 0.713571,-0.267885 0.713571,-0.661416 v -0.948267 h -0.343747 v 0.938784 c 0,0.220472 -0.125645,0.372195 -0.369824,0.372195 -0.244179,0 -0.372195,-0.151723 -0.372195,-0.372195 v -0.938784 h -0.341376 z" />
      <path
         id="path260"
         style="font-weight:bold;font-size:2.37066674px;font-family:'Proxima Nova';text-anchor:middle;fill:#faf7f0"
         d="m 53.858757,70.050003 h 0.339006 v -1.284901 h 0.459909 v -0.296334 h -1.261195 v 0.296334 h 0.46228 z" />
    </g>
    <path
       id="line72"
       d="M 8.7085714,91 H 52.251427"
       style="stroke:#0044cc;stroke-width:0.34999999" />
    <path
       id="rect74"
       d="m 4.3335714,84.294556 h 8.7499996 c 0.554,0 1,0.446 1,1 V 96.625 c 0,0.554 -0.446,1 -1,1 H 4.3335714 c -0.554,0 -1,-0.446 -1,-1 V 85.294556 c 0,-0.554 0.446,-1 1,-1 z"
       style="fill:#faf7f0;stroke:#0044cc;stroke-width:0.34999999" />
    <g
       id="text76"
       style="font-weight:bold;font-size:2.37066674px;font-family:'Proxima Nova';text-anchor:middle;fill:#0044cc"
       aria-label="IN">
      <path
         id="path265"
         style="font-weight:bold;font-size:2.37066674px;font-family:'Proxima Nova';text-anchor:middle;fill:#0044cc"
         d="M 7.677387,87.050003 H 8.0140216 V 85.468768 H 7.677387 Z" />
      <path
         id="path267"
         style="font-weight:bold;font-size:2.37066674px;font-family:'Proxima Nova';text-anchor:middle;fill:#0044cc"
         d="M 9.4161228,87.050003 H 9.7409042 V 85.468768 H 9.4042695 v 0.99331 l -0.732536,-0.99331 H 8.3256161 v 1.581235 h 0.3366347 v -1.03124 z" />
    </g>
    <g
       id="text78"
       style="font-weight:bold;font-size:2.37066674px;font-family:'Proxima Nova';text-anchor:middle;fill:#0044cc"
       aria-label="MULT">
      <path
         id="path270"
         style="font-weight:bold;font-size:2.37066674px;font-family:'Proxima Nova';text-anchor:middle;fill:#0044cc"
         d="m 18.051278,86.824997 h 0.339006 V 85.243762 H 17.91615 l -0.384048,0.955379 -0.384048,-0.955379 h -0.471762 v 1.581235 h 0.336634 v -1.107101 l 0.445686,1.107101 h 0.146981 l 0.445685,-1.107101 z" />
      <path
         id="path272"
         style="font-weight:bold;font-size:2.37066674px;font-family:'Proxima Nova';text-anchor:middle;fill:#0044cc"
         d="m 18.704323,86.1944 c 0,0.388789 0.232325,0.659045 0.713571,0.659045 0.481245,0 0.71357,-0.267885 0.71357,-0.661416 v -0.948267 h -0.343746 v 0.938784 c 0,0.220472 -0.125646,0.372195 -0.369824,0.372195 -0.244179,0 -0.372195,-0.151723 -0.372195,-0.372195 v -0.938784 h -0.341376 z" />
      <path
         id="path274"
         style="font-weight:bold;font-size:2.37066674px;font-family:'Proxima Nova';text-anchor:middle;fill:#0044cc"
         d="m 20.440651,86.824997 h 1.005163 v -0.296333 h -0.668528 v -1.284902 h -0.336635 z" />
      <path
         id="path276"
         style="font-weight:bold;font-size:2.37066674px;font-family:'Proxima Nova';text-anchor:middle;fill:#0044cc"
         d="m 21.810489,86.824997 h 0.339005 v -1.284901 h 0.459909 v -0.296334 h -1.261194 v 0.296334 h 0.46228 z" />
    </g>
    <g
       id="text80"
       style="font-weight:bold;font-size:2.37066674px;font-family:'Proxima Nova';dominant-baseline:hanging;text-anchor:middle;fill:#0044cc"
       aria-label="ADD">
      <path
         id="path279"
         style="font-weight:bold;font-size:2.37066674px;font-family:'Proxima Nova';dominant-baseline:hanging;text-anchor:middle;fill:#0044cc"
         d="m 18.327053,96.673264 h 0.384048 L 18.10184,95.09203 h -0.421979 l -0.611632,1.581234 h 0.384048 l 0.09957,-0.267885 h 0.678011 z m -0.436202,-1.2446 0.246549,0.680382 h -0.493099 z" />
      <path
         id="path281"
         style="font-weight:bold;font-size:2.37066674px;font-family:'Proxima Nova';dominant-baseline:hanging;text-anchor:middle;fill:#0044cc"
         d="m 18.85712,96.673264 h 0.623485 c 0.495469,0 0.839216,-0.312928 0.839216,-0.789432 0,-0.476504 -0.343747,-0.791802 -0.839216,-0.791802 H 18.85712 Z m 0.336634,-0.296333 v -0.988568 h 0.286851 c 0.324781,0 0.495469,0.215731 0.495469,0.495469 0,0.267886 -0.182541,0.493099 -0.495469,0.493099 z" />
      <path
         id="path283"
         style="font-weight:bold;font-size:2.37066674px;font-family:'Proxima Nova';dominant-baseline:hanging;text-anchor:middle;fill:#0044cc"
         d="m 20.561036,96.673264 h 0.623486 c 0.495469,0 0.839216,-0.312928 0.839216,-0.789432 0,-0.476504 -0.343747,-0.791802 -0.839216,-0.791802 h -0.623486 z m 0.336635,-0.296333 v -0.988568 h 0.286851 c 0.324781,0 0.495469,0.215731 0.495469,0.495469 0,0.267886 -0.182541,0.493099 -0.495469,0.493099 z" />
    </g>
    <g
       id="text82"
       style="font-weight:bold;font-size:3.0480001px;font-family:'Proxima Nova';text-anchor:middle;fill:#0044cc" />
    <path
       id="rect84"
       d="m 47.876427,84.294556 h 8.75 c 0.554,0 1,0.446 1,1 V 96.625 c 0,0.554 -0.446,1 -1,1 h -8.75 c -0.554,0 -1,-0.446 -1,-1 V 85.294556 c 0,-0.554 0.446,-1 1,-1 z"
       style="fill:#0044cc;stroke:#0044cc;stroke-width:0.34999999" />
    <g
       id="text86"
       style="font-weight:bold;font-size:2.37066674px;font-family:'Proxima Nova';text-anchor:middle;fill:#faf7f0"
       aria-label="OUT">
      <path
         id="path288"
         style="font-weight:bold;font-size:2.37066674px;font-family:'Proxima Nova';text-anchor:middle;fill:#faf7f0"
         d="m 49.866443,86.260571 c 0,0.476504 0.348488,0.81788 0.824992,0.81788 0.478875,0 0.827363,-0.341376 0.827363,-0.81788 0,-0.476504 -0.348488,-0.81788 -0.827363,-0.81788 -0.476504,0 -0.824992,0.341376 -0.824992,0.81788 z m 1.306238,0 c 0,0.293963 -0.189654,0.519176 -0.481246,0.519176 -0.291592,0 -0.478874,-0.225213 -0.478874,-0.519176 0,-0.296333 0.187282,-0.519176 0.478874,-0.519176 0.291592,0 0.481246,0.222843 0.481246,0.519176 z" />
      <path
         id="path290"
         style="font-weight:bold;font-size:2.37066674px;font-family:'Proxima Nova';text-anchor:middle;fill:#faf7f0"
         d="m 51.757346,86.419406 c 0,0.388789 0.232326,0.659045 0.713571,0.659045 0.481246,0 0.713571,-0.267885 0.713571,-0.661416 v -0.948267 h -0.343747 v 0.938784 c 0,0.220472 -0.125645,0.372195 -0.369824,0.372195 -0.244179,0 -0.372195,-0.151723 -0.372195,-0.372195 v -0.938784 h -0.341376 z" />
      <path
         id="path292"
         style="font-weight:bold;font-size:2.37066674px;font-family:'Proxima Nova';text-anchor:middle;fill:#faf7f0"
         d="m 53.858757,87.050003 h 0.339006 v -1.284901 h 0.459909 v -0.296334 h -1.261195 v 0.296334 h 0.46228 z" />
    </g>
    <path
       id="line88"
       d="M 8.7085714,108 H 52.251427"
       style="stroke:#0044cc;stroke-width:0.34999999" />
    <path
       id="rect90"
       d="m 4.3335714,101.29456 h 8.7499996 c 0.554,0 1,0.446 1,1 v 11.33045 c 0,0.554 -0.446,1 -1,1 H 4.3335714 c -0.554,0 -1,-0.446 -1,-1 v -11.33045 c 0,-0.554 0.446,-1 1,-1 z"
       style="fill:#faf7f0;stroke:#0044cc;stroke-width:0.34999999" />
    <g
       id="text92"
       style="font-weight:bold;font-size:2.37066674px;font-family:'Proxima Nova';text-anchor:middle;fill:#0044cc"
       aria-label="IN">
      <path
         id="path297"
         style="font-weight:bold;font-size:2.37066674px;font-family:'Proxima Nova';text-anchor:middle;fill:#0044cc"
         d="m 7.677387,104.05 h 0.3366346 v -1.58123 H 7.677387 Z" />
      <path
         id="path299"
         style="font-weight:bold;font-size:2.37066674px;font-family:'Proxima Nova';text-anchor:middle;fill:#0044cc"
         d="m 9.4161228,104.05 h 0.3247814 v -1.58123 H 9.4042695 v 0.99331 l -0.732536,-0.99331 H 8.3256161 V 104.05 h 0.3366347 v -1.03124 z" />
    </g>
    <g
       id="text94"
       style="font-weight:bold;font-size:2.37066674px;font-family:'Proxima Nova';text-anchor:middle;fill:#0044cc"
       aria-label="MULT">
      <path
         id="path302"
         style="font-weight:bold;font-size:2.37066674px;font-family:'Proxima Nova';text-anchor:middle;fill:#0044cc"
         d="m 18.051278,103.825 h 0.339006 v -1.58124 H 17.91615 l -0.384048,0.95538 -0.384048,-0.95538 h -0.471762 v 1.58124 h 0.336634 v -1.1071 l 0.445686,1.1071 h 0.146981 l 0.445685,-1.1071 z" />
      <path
         id="path304"
         style="font-weight:bold;font-size:2.37066674px;font-family:'Proxima Nova';text-anchor:middle;fill:#0044cc"
         d="m 18.704323,103.1944 c 0,0.38879 0.232325,0.65904 0.713571,0.65904 0.481245,0 0.71357,-0.26788 0.71357,-0.66141 v -0.94827 h -0.343746 v 0.93879 c 0,0.22047 -0.125646,0.37219 -0.369824,0.37219 -0.244179,0 -0.372195,-0.15172 -0.372195,-0.37219 v -0.93879 h -0.341376 z" />
      <path
         id="path306"
         style="font-weight:bold;font-size:2.37066674px;font-family:'Proxima Nova';text-anchor:middle;fill:#0044cc"
         d="m 20.440651,103.825 h 1.005163 v -0.29634 h -0.668528 v -1.2849 h -0.336635 z" />
      <path
         id="path308"
         style="font-weight:bold;font-size:2.37066674px;font-family:'Proxima Nova';text-anchor:middle;fill:#0044cc"
         d="m 21.810489,103.825 h 0.339005 v -1.2849 h 0.459909 v -0.29634 h -1.261194 v 0.29634 h 0.46228 z" />
    </g>
    <g
       id="text96"
       style="font-weight:bold;font-size:2.37066674px;font-family:'Proxima Nova';dominant-baseline:hanging;text-anchor:middle;fill:#0044cc"
       aria-label="ADD">
      <path
         id="path311"
         style="font-weight:bold;font-size:2.37066674px;font-family:'Proxima Nova';dominant-baseline:hanging;text-anchor:middle;fill:#0044cc"
         d="m 18.327053,113.67326 h 0.384048 l -0.609261,-1.58123 h -0.421979 l -0.611632,1.58123 h 0.384048 l 0.09957,-0.26788 h 0.678011 z m -0.436202,-1.2446 0.246549,0.68039 h -0.493099 z" />
      <path
         id="path313"
         style="font-weight:bold;font-size:2.37066674px;font-family:'Proxima Nova';dominant-baseline:hanging;text-anchor:middle;fill:#0044cc"
         d="m 18.85712,113.67326 h 0.623485 c 0.495469,0 0.839216,-0.31292 0.839216,-0.78943 0,-0.4765 -0.343747,-0.7918 -0.839216,-0.7918 H 18.85712 Z m 0.336634,-0.29633 v -0.98857 h 0.286851 c 0.324781,0 0.495469,0.21573 0.495469,0.49547 0,0.26789 -0.182541,0.4931 -0.495469,0.4931 z" />
      <path
         id="path315"
         style="font-weight:bold;font-size:2.37066674px;font-family:'Proxima Nova';dominant-baseline:hanging;text-anchor:middle;fill:#0044cc"
         d="m 20.561036,113.67326 h 0.623486 c 0.495469,0 0.839216,-0.31292 0.839216,-0.78943 0,-0.4765 -0.343747,-0.7918 -0.839216,-0.7918 h -0.623486 z m 0.336635,-0.29633 v -0.98857 h 0.286851 c 0.324781,0 0.495469,0.21573 0.495469,0.49547 0,0.26789 -0.182541,0.4931 -0.495469,0.4931 z" />
    </g>
    <g
       id="text98"
       style="font-weight:bold;font-size:3.0480001px;font-family:'Proxima Nova';text-anchor:middle;fill:#0044cc" />
    <path
       id="rect100"
       d="m 47.876427,101.29456 h 8.75 c 0.554,0 1,0.446 1,1 v 11.33045 c 0,0.554 -0.446,1 -1,1 h -8.75 c -0.554,0 -1,-0.446 -1,-1 v -11.33045 c 0,-0.554 0.446,-1 1,-1 z"
       style="fill:#0044cc;stroke:#0044cc;stroke-width:0.34999999" />
    <g
       id="text102"
       style="font-weight:bold;font-size:2.37066674px;font-family:'Proxima Nova';text-anchor:middle;fill:#faf7f0"
       aria-label="OUT">
      <path
         id="path320"
         style="font-weight:bold;font-size:2.37066674px;font-family:'Proxima Nova';text-anchor:middle;fill:#faf7f0"
         d="m 49.866443,103.26057 c 0,0.47651 0.348488,0.81788 0.824992,0.81788 0.478875,0 0.827363,-0.34137 0.827363,-0.81788 0,-0.4765 -0.348488,-0.81788 -0.827363,-0.81788 -0.476504,0 -0.824992,0.34138 -0.824992,0.81788 z m 1.306238,0 c 0,0.29396 -0.189654,0.51918 -0.481246,0.51918 -0.291592,0 -0.478874,-0.22522 -0.478874,-0.51918 0,-0.29633 0.187282,-0.51917 0.478874,-0.51917 0.291592,0 0.481246,0.22284 0.481246,0.51917 z" />
      <path
         id="path322"
         style="font-weight:bold;font-size:2.37066674px;font-family:'Proxima Nova';text-anchor:middle;fill:#faf7f0"
         d="m 51.757346,103.41941 c 0,0.38879 0.232326,0.65904 0.713571,0.65904 0.481246,0 0.713571,-0.26788 0.713571,-0.66141 v -0.94827 h -0.343747 v 0.93878 c 0,0.22047 -0.125645,0.3722 -0.369824,0.3722 -0.244179,0 -0.372195,-0.15173 -0.372195,-0.3722 v -0.93878 h -0.341376 z" />
      <path
         id="path324"
         style="font-weight:bold;font-size:2.37066674px;font-family:'Proxima Nova';text-anchor:middle;fill:#faf7f0"
         d="m 53.858757,104.05 h 0.339006 v -1.2849 h 0.459909 v -0.29633 h -1.261195 v 0.29633 h 0.46228 z" />
    </g>
  </g>
</svg>
