<?xml version="1.0" encoding="UTF-8" standalone="no"?>
<svg
   xmlns:dc="http://purl.org/dc/elements/1.1/"
   xmlns:cc="http://creativecommons.org/ns#"
   xmlns:rdf="http://www.w3.org/1999/02/22-rdf-syntax-ns#"
   xmlns:svg="http://www.w3.org/2000/svg"
   xmlns="http://www.w3.org/2000/svg"
   id="svg24"
   height="379.42913385826773"
   width="75.0"
   version="1.1">
  <metadata
     id="metadata30">
    <rdf:RDF>
      <cc:Work
         rdf:about="">
        <dc:format>image/svg+xml</dc:format>
        <dc:type
           rdf:resource="http://purl.org/dc/dcmitype/StillImage" />
      </cc:Work>
    </rdf:RDF>
  </metadata>
  <defs
     id="defs28" />
  <g
     id="g22"
     transform="scale(2.9527559)">
    <path
       id="rect2"
       d="M 0,0 H 25.4 V 128.5 H 0 Z"
       style="fill:#f0ffff;stroke:#009999;stroke-width:1" />
    <g
       id="text4"
       style="font-weight:bold;font-size:4.06400013px;font-family:'Proxima Nova';text-anchor:middle;fill:#009999"
       aria-label="CYCLOID">
      <path
         id="path33"
         style="font-weight:bold;font-size:4.06400013px;font-family:'Proxima Nova';text-anchor:middle;fill:#009999"
         d="m 5.7242706,9.048768 c 0.597408,0 0.938784,-0.329184 1.133856,-0.666496 L 6.3623186,8.142496 c -0.113792,0.22352 -0.357632,0.394208 -0.638048,0.394208 -0.491744,0 -0.849376,-0.377952 -0.849376,-0.890016 0,-0.5120641 0.357632,-0.8900161 0.849376,-0.8900161 0.280416,0 0.524256,0.174752 0.638048,0.394208 l 0.495808,-0.24384 c -0.191008,-0.337312 -0.536448,-0.662432 -1.133856,-0.662432 -0.8128,0 -1.4427201,0.56896 -1.4427201,1.4020801 0,0.83312 0.6299201,1.40208 1.4427201,1.40208 z" />
      <path
         id="path35"
         style="font-weight:bold;font-size:4.06400013px;font-family:'Proxima Nova';text-anchor:middle;fill:#009999"
         d="m 7.8662526,9 h 0.577088 V 7.890528 l 1.03632,-1.6012161 h -0.658368 l -0.666496,1.089152 -0.674624,-1.089152 h -0.658368 l 1.044448,1.6012161 z" />
      <path
         id="path37"
         style="font-weight:bold;font-size:4.06400013px;font-family:'Proxima Nova';text-anchor:middle;fill:#009999"
         d="m 10.883646,9.048768 c 0.597408,0 0.938784,-0.329184 1.133856,-0.666496 L 11.521694,8.142496 c -0.113792,0.22352 -0.357632,0.394208 -0.638048,0.394208 -0.491744,0 -0.849376,-0.377952 -0.849376,-0.890016 0,-0.5120641 0.357632,-0.8900161 0.849376,-0.8900161 0.280416,0 0.524256,0.174752 0.638048,0.394208 l 0.495808,-0.24384 c -0.191008,-0.337312 -0.536448,-0.662432 -1.133856,-0.662432 -0.8128,0 -1.4427203,0.56896 -1.4427203,1.4020801 0,0.83312 0.6299203,1.40208 1.4427203,1.40208 z" />
      <path
         id="path39"
         style="font-weight:bold;font-size:4.06400013px;font-family:'Proxima Nova';text-anchor:middle;fill:#009999"
         d="M 12.364974,9 H 14.08811 V 8.492 H 12.942062 V 6.2893119 h -0.577088 z" />
      <path
         id="path41"
         style="font-weight:bold;font-size:4.06400013px;font-family:'Proxima Nova';text-anchor:middle;fill:#009999"
         d="m 14.251051,7.646688 c 0,0.816864 0.597408,1.40208 1.414272,1.40208 0.820928,0 1.418336,-0.585216 1.418336,-1.40208 0,-0.8168641 -0.597408,-1.4020801 -1.418336,-1.4020801 -0.816864,0 -1.414272,0.585216 -1.414272,1.4020801 z m 2.239264,0 c 0,0.503936 -0.32512,0.890016 -0.824992,0.890016 -0.499872,0 -0.820928,-0.38608 -0.820928,-0.890016 0,-0.5080001 0.321056,-0.8900161 0.820928,-0.8900161 0.499872,0 0.824992,0.382016 0.824992,0.8900161 z" />
      <path
         id="path43"
         style="font-weight:bold;font-size:4.06400013px;font-family:'Proxima Nova';text-anchor:middle;fill:#009999"
         d="m 17.492599,9 h 0.577088 V 6.2893119 h -0.577088 z" />
      <path
         id="path45"
         style="font-weight:bold;font-size:4.06400013px;font-family:'Proxima Nova';text-anchor:middle;fill:#009999"
         d="m 18.603849,9 h 1.068832 c 0.849376,0 1.438656,-0.536448 1.438656,-1.353312 0,-0.8168641 -0.58928,-1.3573761 -1.438656,-1.3573761 H 18.603849 Z M 19.180937,8.492 V 6.7973119 h 0.491744 c 0.556768,0 0.849376,0.369824 0.849376,0.8493761 0,0.459232 -0.312928,0.845312 -0.849376,0.845312 z" />
    </g>
    <g
       id="text6"
       style="font-weight:bold;font-size:4.06400013px;font-family:'Proxima Nova';dominant-baseline:hanging;text-anchor:middle;fill:#009999"
       aria-label="DHE">
      <path
         id="path48"
         style="font-weight:bold;font-size:4.06400013px;font-family:'Proxima Nova';dominant-baseline:hanging;text-anchor:middle;fill:#009999"
         d="M 8.8367549,122.06845 H 9.905587 c 0.849376,0 1.438656,-0.53645 1.438656,-1.35331 0,-0.81687 -0.58928,-1.35738 -1.438656,-1.35738 H 8.8367549 Z m 0.5770881,-0.508 v -1.69469 h 0.491744 c 0.556768,0 0.849376,0.36982 0.849376,0.84938 0,0.45923 -0.312928,0.84531 -0.849376,0.84531 z" />
      <path
         id="path50"
         style="font-weight:bold;font-size:4.06400013px;font-family:'Proxima Nova';dominant-baseline:hanging;text-anchor:middle;fill:#009999"
         d="m 13.615003,122.06845 h 0.581152 v -2.71069 h -0.581152 v 1.06477 h -1.28016 v -1.06477 h -0.577088 v 2.71069 h 0.577088 v -1.13792 h 1.28016 z" />
      <path
         id="path52"
         style="font-weight:bold;font-size:4.06400013px;font-family:'Proxima Nova';dominant-baseline:hanging;text-anchor:middle;fill:#009999"
         d="m 14.72638,122.06845 h 1.918208 v -0.508 h -1.34112 v -0.61367 h 1.312672 v -0.508 h -1.312672 v -0.57302 h 1.34112 v -0.508 H 14.72638 Z" />
    </g>
    <g
       id="text8"
       style="font-weight:bold;font-size:3.0480001px;font-family:'Proxima Nova';text-anchor:middle;fill:#009999"
       aria-label="FIXED">
      <path
         id="path55"
         style="font-weight:bold;font-size:3.0480001px;font-family:'Proxima Nova';text-anchor:middle;fill:#009999"
         d="m 8.6119411,17.65 h 0.432816 v -0.841248 h 0.9845039 v -0.381 H 9.0447571 v -0.429768 h 1.0058399 v -0.381 H 8.6119411 Z" />
      <path
         id="path57"
         style="font-weight:bold;font-size:3.0480001px;font-family:'Proxima Nova';text-anchor:middle;fill:#009999"
         d="M 10.350254,17.65 H 10.78307 V 15.616984 H 10.350254 Z" />
      <path
         id="path59"
         style="font-weight:bold;font-size:3.0480001px;font-family:'Proxima Nova';text-anchor:middle;fill:#009999"
         d="m 12.509571,17.65 h 0.51816 l -0.737616,-1.045464 0.691896,-0.987552 h -0.521208 l -0.460248,0.694944 -0.466344,-0.694944 h -0.515112 l 0.691896,0.9906 L 10.973379,17.65 h 0.515112 l 0.512064,-0.743712 z" />
      <path
         id="path61"
         style="font-weight:bold;font-size:3.0480001px;font-family:'Proxima Nova';text-anchor:middle;fill:#009999"
         d="m 13.21966,17.65 h 1.438656 v -0.381 h -1.00584 v -0.460248 h 0.984504 v -0.381 h -0.984504 v -0.429768 h 1.00584 v -0.381 H 13.21966 Z" />
      <path
         id="path63"
         style="font-weight:bold;font-size:3.0480001px;font-family:'Proxima Nova';text-anchor:middle;fill:#009999"
         d="m 14.999645,17.65 h 0.801624 c 0.637032,0 1.078992,-0.402336 1.078992,-1.014984 0,-0.612648 -0.44196,-1.018032 -1.078992,-1.018032 h -0.801624 z m 0.432816,-0.381 v -1.271016 h 0.368808 c 0.417576,0 0.637032,0.277368 0.637032,0.637032 0,0.344424 -0.234696,0.633984 -0.637032,0.633984 z" />
    </g>
    <g
       id="text10"
       style="font-weight:bold;font-size:3.0480001px;font-family:'Proxima Nova';text-anchor:middle;fill:#009999"
       aria-label="MOVING">
      <path
         id="path66"
         style="font-weight:bold;font-size:3.0480001px;font-family:'Proxima Nova';text-anchor:middle;fill:#009999"
         d="m 8.5611014,36.150002 h 0.435864 v -2.033017 h -0.6096 l -0.493776,1.228345 -0.493776,-1.228345 h -0.606552 v 2.033017 h 0.432816 v -1.423417 l 0.573024,1.423417 h 0.188976 l 0.573024,-1.423417 z" />
      <path
         id="path68"
         style="font-weight:bold;font-size:3.0480001px;font-family:'Proxima Nova';text-anchor:middle;fill:#009999"
         d="m 9.3031942,35.135017 c 0,0.612649 0.448056,1.051561 1.0607038,1.051561 0.615696,0 1.063752,-0.438912 1.063752,-1.051561 0,-0.612648 -0.448056,-1.05156 -1.063752,-1.05156 -0.6126478,0 -1.0607038,0.438912 -1.0607038,1.05156 z m 1.6794478,0 c 0,0.377953 -0.24384,0.667513 -0.618744,0.667513 -0.3749038,0 -0.6156958,-0.28956 -0.6156958,-0.667513 0,-0.381 0.240792,-0.667512 0.6156958,-0.667512 0.374904,0 0.618744,0.286512 0.618744,0.667512 z" />
      <path
         id="path70"
         style="font-weight:bold;font-size:3.0480001px;font-family:'Proxima Nova';text-anchor:middle;fill:#009999"
         d="m 12.2448,36.150002 h 0.542544 l 0.783336,-2.033017 h -0.493776 l -0.560832,1.563625 -0.56388,-1.563625 h -0.493776 z" />
      <path
         id="path72"
         style="font-weight:bold;font-size:3.0480001px;font-family:'Proxima Nova';text-anchor:middle;fill:#009999"
         d="m 13.758418,36.150002 h 0.432816 v -2.033017 h -0.432816 z" />
      <path
         id="path74"
         style="font-weight:bold;font-size:3.0480001px;font-family:'Proxima Nova';text-anchor:middle;fill:#009999"
         d="m 15.993935,36.150002 h 0.417576 v -2.033017 h -0.432816 v 1.277113 l -0.941832,-1.277113 h -0.445008 v 2.033017 h 0.432816 v -1.325881 z" />
      <path
         id="path76"
         style="font-weight:bold;font-size:3.0480001px;font-family:'Proxima Nova';text-anchor:middle;fill:#009999"
         d="m 16.714835,35.135017 c 0,0.640081 0.48768,1.054609 1.08204,1.054609 0.368808,0 0.658368,-0.1524 0.865632,-0.384048 v -0.780289 h -0.969264 v 0.377953 h 0.536448 v 0.24384 c -0.0823,0.0762 -0.252984,0.155448 -0.432816,0.155448 -0.368808,0 -0.637032,-0.283464 -0.637032,-0.667513 0,-0.384048 0.268224,-0.667512 0.637032,-0.667512 0.216408,0 0.390144,0.12192 0.481584,0.265176 l 0.359664,-0.195072 c -0.1524,-0.240792 -0.417576,-0.454152 -0.841248,-0.454152 -0.59436,0 -1.08204,0.408432 -1.08204,1.05156 z" />
    </g>
    <g
       id="text12"
       style="font-weight:bold;font-size:3.0480001px;font-family:'Proxima Nova';text-anchor:middle;fill:#009999"
       aria-label="DISTANCE">
      <path
         id="path79"
         style="font-weight:bold;font-size:3.0480001px;font-family:'Proxima Nova';text-anchor:middle;fill:#009999"
         d="m 5.6085895,54.650002 h 0.801624 c 0.637032,0 1.078992,-0.402336 1.078992,-1.014985 0,-0.612648 -0.44196,-1.018032 -1.078992,-1.018032 h -0.801624 z m 0.432816,-0.381 v -1.271017 h 0.368808 c 0.417576,0 0.637032,0.277368 0.637032,0.637032 0,0.344425 -0.234696,0.633985 -0.637032,0.633985 z" />
      <path
         id="path81"
         style="font-weight:bold;font-size:3.0480001px;font-family:'Proxima Nova';text-anchor:middle;fill:#009999"
         d="m 7.7993396,54.650002 h 0.432816 v -2.033017 h -0.432816 z" />
      <path
         id="path83"
         style="font-weight:bold;font-size:3.0480001px;font-family:'Proxima Nova';text-anchor:middle;fill:#009999"
         d="m 8.495617,54.36349 c 0.188976,0.192024 0.469392,0.323088 0.859536,0.323088 0.5486401,0 0.813816,-0.280416 0.813816,-0.652272 0,-0.460249 -0.4267199,-0.560833 -0.762,-0.640081 -0.219456,-0.05182 -0.405384,-0.09449 -0.405384,-0.225552 0,-0.12192 0.103632,-0.204216 0.28956,-0.204216 0.2072641,0 0.4267201,0.0701 0.5913121,0.222504 l 0.2407919,-0.316992 c -0.2011679,-0.185928 -0.4693919,-0.283464 -0.79248,-0.283464 -0.478536,0 -0.771144,0.280416 -0.771144,0.618744 0,0.463296 0.42672,0.554736 0.758952,0.630936 0.2225041,0.05486 0.4114801,0.09754 0.4114801,0.246889 0,0.115824 -0.115824,0.225552 -0.3535681,0.225552 -0.280416,0 -0.50292,-0.124968 -0.646176,-0.27432 z" />
      <path
         id="path85"
         style="font-weight:bold;font-size:3.0480001px;font-family:'Proxima Nova';text-anchor:middle;fill:#009999"
         d="m 10.905966,54.650002 h 0.435864 v -1.652017 h 0.591312 v -0.381 h -1.621536 v 0.381 h 0.59436 z" />
      <path
         id="path87"
         style="font-weight:bold;font-size:3.0480001px;font-family:'Proxima Nova';text-anchor:middle;fill:#009999"
         d="m 13.416232,54.650002 h 0.493776 l -0.783336,-2.033017 h -0.542544 l -0.786384,2.033017 h 0.493776 l 0.128016,-0.344424 h 0.871728 z m -0.560832,-1.600201 0.316992,0.874777 h -0.633984 z" />
      <path
         id="path89"
         style="font-weight:bold;font-size:3.0480001px;font-family:'Proxima Nova';text-anchor:middle;fill:#009999"
         d="m 15.499826,54.650002 h 0.417576 v -2.033017 h -0.432816 v 1.277113 l -0.941832,-1.277113 h -0.445008 v 2.033017 h 0.432816 v -1.325881 z" />
      <path
         id="path91"
         style="font-weight:bold;font-size:3.0480001px;font-family:'Proxima Nova';text-anchor:middle;fill:#009999"
         d="m 17.302765,54.686578 c 0.448056,0 0.704088,-0.246888 0.850392,-0.499872 l -0.371856,-0.179832 c -0.08534,0.16764 -0.268224,0.295656 -0.478536,0.295656 -0.368808,0 -0.637032,-0.283464 -0.637032,-0.667513 0,-0.384048 0.268224,-0.667512 0.637032,-0.667512 0.210312,0 0.393192,0.131064 0.478536,0.295656 l 0.371856,-0.18288 c -0.143256,-0.252984 -0.402336,-0.496824 -0.850392,-0.496824 -0.6096,0 -1.08204,0.42672 -1.08204,1.05156 0,0.624841 0.47244,1.051561 1.08204,1.051561 z" />
      <path
         id="path93"
         style="font-weight:bold;font-size:3.0480001px;font-family:'Proxima Nova';text-anchor:middle;fill:#009999"
         d="m 18.413761,54.650002 h 1.438656 v -0.381 h -1.00584 v -0.460249 h 0.984504 v -0.381 h -0.984504 v -0.429768 h 1.00584 v -0.381 h -1.438656 z" />
    </g>
    <path
       id="rect14"
       d="M 2.3083301,104.04456 H 11.05833 c 0.554,0 1,0.446 1,1 v 11.33045 c 0,0.554 -0.446,1 -1,1 H 2.3083301 c -0.554,0 -1,-0.446 -1,-1 v -11.33045 c 0,-0.554 0.446,-1 1,-1 z"
       style="fill:#009999;stroke:#009999;stroke-width:0.34999999" />
    <g
       id="text16"
       style="font-weight:bold;font-size:2.37066674px;font-family:'Proxima Nova';text-anchor:middle;fill:#f0ffff"
       aria-label="X">
      <path
         id="path97"
         style="font-weight:bold;font-size:2.37066674px;font-family:'Proxima Nova';text-anchor:middle;fill:#f0ffff"
         d="m 7.0792684,106.8 h 0.4030134 l -0.5737014,-0.81314 0.5381414,-0.76809 h -0.405384 l -0.3579707,0.54051 -0.362712,-0.54051 H 5.9200124 L 6.4581538,105.98924 5.8844524,106.8 h 0.4006427 l 0.398272,-0.57844 z" />
    </g>
    <path
       id="rect18"
       d="m 14.34167,104.04456 h 8.75 c 0.554,0 1,0.446 1,1 v 11.33045 c 0,0.554 -0.446,1 -1,1 h -8.75 c -0.554,0 -1,-0.446 -1,-1 v -11.33045 c 0,-0.554 0.446,-1 1,-1 z"
       style="fill:#009999;stroke:#009999;stroke-width:0.34999999" />
    <g
       id="text20"
       style="font-weight:bold;font-size:2.37066674px;font-family:'Proxima Nova';text-anchor:middle;fill:#f0ffff"
       aria-label="Y">
      <path
         id="path101"
         style="font-weight:bold;font-size:2.37066674px;font-family:'Proxima Nova';text-anchor:middle;fill:#f0ffff"
         d="m 18.550093,106.8 h 0.336634 v -0.64719 l 0.60452,-0.93404 h -0.384048 l -0.388789,0.63534 -0.393531,-0.63534 h -0.384048 l 0.609262,0.93404 z" />
    </g>
  </g>
</svg>
