<?xml version="1.0" encoding="UTF-8" standalone="no"?>
<svg
   xmlns:dc="http://purl.org/dc/elements/1.1/"
   xmlns:cc="http://creativecommons.org/ns#"
   xmlns:rdf="http://www.w3.org/1999/02/22-rdf-syntax-ns#"
   xmlns:svg="http://www.w3.org/2000/svg"
   xmlns="http://www.w3.org/2000/svg"
   version="1.1"
   width="10.160mm"
   height="3.580mm"
   viewBox="0 0 10.160 3.580"
   id="svg8">
  <metadata
     id="metadata14">
    <rdf:RDF>
      <cc:Work
         rdf:about="">
        <dc:format>image/svg+xml</dc:format>
        <dc:type
           rdf:resource="http://purl.org/dc/dcmitype/StillImage" />
      </cc:Work>
    </rdf:RDF>
  </metadata>
  <defs
     id="defs12" />
  <g
     transform="translate(5.08,1.79)"
     id="g6">
    <path
       id="rect2"
       style="fill:#efedeb;stroke:#331a00;stroke-width:0.25"
       d="m -4.5799999,-1.79 h 9.1599998 c 0.277,0 0.5,0.223 0.5,0.5 v 2.58 c 0,0.277 -0.223,0.5 -0.5,0.5 h -9.1599998 c -0.277,0 -0.5,-0.223 -0.5,-0.5 v -2.58 c 0,-0.277 0.223,-0.5 0.5,-0.5 z" />
    <g
       aria-label="IGNORE"
       id="text4"
       style="font-weight:bold;font-size:2.371px;font-family:'Proxima Nova';dominant-baseline:middle;text-anchor:middle;fill:#331a00">
      <path
         d="m -4.2474614,0.8565965 h 0.336682 v -1.58145703 h -0.336682 z"
         style="font-weight:bold;font-size:2.371px;font-family:'Proxima Nova';dominant-baseline:middle;text-anchor:middle;fill:#331a00"
         id="path17" />
      <path
         d="m -3.675013,0.06705348 c 0,0.49791001 0.37936,0.82036602 0.841705,0.82036602 0.286891,0 0.512136,-0.11855 0.673364,-0.29874601 v -0.60460501 h -0.753978 v 0.28926201 h 0.422038 v 0.192051 c -0.068759,0.061646 -0.196793,0.120921 -0.341424,0.120921 -0.286891,0 -0.495539,-0.220503 -0.495539,-0.51924901 0,-0.298746 0.208648,-0.51924901 0.495539,-0.51924901 0.16597,0 0.301117,0.087727 0.374618,0.19916401 l 0.279778,-0.15174401 c -0.120921,-0.187309 -0.327198,-0.34616601 -0.654396,-0.34616601 -0.462345,0 -0.841705,0.31771401 -0.841705,0.81799502 z"
         style="font-weight:bold;font-size:2.371px;font-family:'Proxima Nova';dominant-baseline:middle;text-anchor:middle;fill:#331a00"
         id="path19" />
      <path
         d="m -0.79969369,0.8565965 h 0.324827 V -0.72486053 H -0.8115487 v 1.02427202 l -0.732639,-1.02427202 h -0.346166 V 0.8565965 h 0.336682 v -1.06220802 z"
         style="font-weight:bold;font-size:2.371px;font-family:'Proxima Nova';dominant-baseline:middle;text-anchor:middle;fill:#331a00"
         id="path21" />
      <path
         d="m -0.23891506,0.06705348 c 0,0.47657101 0.348537,0.81799502 0.82510802,0.81799502 0.47894204,0 0.82747904,-0.34142401 0.82747904,-0.81799502 0,-0.47657101 -0.348537,-0.81799502 -0.82747904,-0.81799502 -0.47657102,0 -0.82510802,0.34142401 -0.82510802,0.81799502 z m 1.30642106,0 c 0,0.29400401 -0.18968004,0.51924901 -0.48131304,0.51924901 -0.29163301,0 -0.47894202,-0.225245 -0.47894202,-0.51924901 0,-0.296375 0.18730901,-0.51924901 0.47894202,-0.51924901 0.291633,0 0.48131304,0.22287401 0.48131304,0.51924901 z"
         style="font-weight:bold;font-size:2.371px;font-family:'Proxima Nova';dominant-baseline:middle;text-anchor:middle;fill:#331a00"
         id="path23" />
      <path
         d="m 2.5461206,0.8565965 h 0.386473 l -0.35565,-0.60223401 c 0.170712,-0.040307 0.346166,-0.18968001 0.346166,-0.46945801 0,-0.29400401 -0.201535,-0.50976501 -0.531104,-0.50976501 H 1.6522536 V 0.8565965 h 0.336682 V 0.28992749 h 0.246584 z m 0.033194,-1.07406302 c 0,0.132776 -0.101953,0.21813200109 -0.2371,0.21813200109 H 1.9889356 V -0.43559853 h 0.353279 c 0.135147,0 0.2371,0.085356 0.2371,0.21813201 z"
         style="font-weight:bold;font-size:2.371px;font-family:'Proxima Nova';dominant-baseline:middle;text-anchor:middle;fill:#331a00"
         id="path25" />
      <path
         d="m 3.1758065,0.8565965 h 1.119112 V 0.56496349 h -0.78243 v -0.367505 h 0.765833 v -0.28926201 h -0.765833 v -0.34379501 h 0.78243 v -0.289262 h -1.119112 z"
         style="font-weight:bold;font-size:2.371px;font-family:'Proxima Nova';dominant-baseline:middle;text-anchor:middle;fill:#331a00"
         id="path27" />
    </g>
  </g>
</svg>
