<?xml version="1.0" encoding="UTF-8" standalone="no"?>
<svg
   xmlns:dc="http://purl.org/dc/elements/1.1/"
   xmlns:cc="http://creativecommons.org/ns#"
   xmlns:rdf="http://www.w3.org/1999/02/22-rdf-syntax-ns#"
   xmlns:svg="http://www.w3.org/2000/svg"
   xmlns="http://www.w3.org/2000/svg"
   version="1.1"
   width="10.160mm"
   height="3.580mm"
   viewBox="0 0 10.160 3.580"
   id="svg8">
  <metadata
     id="metadata14">
    <rdf:RDF>
      <cc:Work
         rdf:about="">
        <dc:format>image/svg+xml</dc:format>
        <dc:type
           rdf:resource="http://purl.org/dc/dcmitype/StillImage" />
      </cc:Work>
    </rdf:RDF>
  </metadata>
  <defs
     id="defs12" />
  <g
     transform="translate(5.08,1.79)"
     id="g6">
    <path
       id="rect2"
       style="fill:#efedeb;stroke:#331a00;stroke-width:0.25"
       d="m -4.5799999,-1.79 h 9.1599998 c 0.277,0 0.5,0.223 0.5,0.5 v 2.58 c 0,0.277 -0.223,0.5 -0.5,0.5 h -9.1599998 c -0.277,0 -0.5,-0.223 -0.5,-0.5 v -2.58 c 0,-0.277 0.223,-0.5 0.5,-0.5 z" />
    <g
       aria-label="HIGH"
       id="text4"
       style="font-weight:bold;font-size:2.371px;font-family:'Proxima Nova';dominant-baseline:middle;text-anchor:middle;fill:#331a00">
      <path
         d="m -1.6704622,0.8565965 h 0.3390531 v -1.58145703 h -0.3390531 v 0.62120201 h -0.746865 v -0.62120201 h -0.336682 V 0.8565965 h 0.336682 V 0.19271649 h 0.746865 z"
         style="font-weight:bold;font-size:2.371px;font-family:'Proxima Nova';dominant-baseline:middle;text-anchor:middle;fill:#331a00"
         id="path17" />
      <path
         d="m -1.0220677,0.8565965 h 0.33668199 V -0.72486053 H -1.0220677 Z"
         style="font-weight:bold;font-size:2.371px;font-family:'Proxima Nova';dominant-baseline:middle;text-anchor:middle;fill:#331a00"
         id="path19" />
      <path
         d="m -0.44961928,0.06705348 c 0,0.49791001 0.37936001,0.82036602 0.84170502,0.82036602 0.286891,0 0.51213601,-0.11855 0.67336406,-0.29874601 V -0.01593152 H 0.31147174 v 0.28926201 h 0.42203801 v 0.192051 c -0.068759,0.061646 -0.19679301,0.120921 -0.34142401,0.120921 -0.28689101,0 -0.49553901,-0.220503 -0.49553901,-0.51924901 0,-0.298746 0.208648,-0.51924901 0.49553901,-0.51924901 0.16597,0 0.301117,0.087727 0.37461801,0.19916401 L 1.0464818,-0.40477553 c -0.12092105,-0.187309 -0.32719806,-0.34616601 -0.65439606,-0.34616601 -0.46234501,0 -0.84170502,0.31771401 -0.84170502,0.81799502 z"
         style="font-weight:bold;font-size:2.371px;font-family:'Proxima Nova';dominant-baseline:middle;text-anchor:middle;fill:#331a00"
         id="path21" />
      <path
         d="m 2.4185867,0.8565965 h 0.339053 v -1.58145703 h -0.339053 v 0.62120201 H 1.6717217 V -0.72486053 H 1.3350397 V 0.8565965 h 0.336682 V 0.19271649 h 0.746865 z"
         style="font-weight:bold;font-size:2.371px;font-family:'Proxima Nova';dominant-baseline:middle;text-anchor:middle;fill:#331a00"
         id="path23" />
    </g>
  </g>
</svg>
