<?xml version="1.0" encoding="UTF-8" standalone="no"?>
<svg
   xmlns:dc="http://purl.org/dc/elements/1.1/"
   xmlns:cc="http://creativecommons.org/ns#"
   xmlns:rdf="http://www.w3.org/1999/02/22-rdf-syntax-ns#"
   xmlns:svg="http://www.w3.org/2000/svg"
   xmlns="http://www.w3.org/2000/svg"
   id="svg8"
   viewBox="0 0 9.000 3.580"
   height="3.580mm"
   width="9.000mm"
   version="1.1">
  <metadata
     id="metadata14">
    <rdf:RDF>
      <cc:Work
         rdf:about="">
        <dc:format>image/svg+xml</dc:format>
        <dc:type
           rdf:resource="http://purl.org/dc/dcmitype/StillImage" />
      </cc:Work>
    </rdf:RDF>
  </metadata>
  <defs
     id="defs12" />
  <g
     id="g6"
     transform="translate(4.5,1.79)">
    <path
       id="rect2"
       d="m -3.875,-1.665 h 7.75 c 0.277,0 0.5,0.223 0.5,0.5 v 2.33 c 0,0.277 -0.223,0.5 -0.5,0.5 h -7.75 c -0.277,0 -0.5,-0.223 -0.5,-0.5 v -2.33 c 0,-0.277 0.223,-0.5 0.5,-0.5 z"
       style="fill:#331a00;stroke:#331a00;stroke-width:0.25" />
    <g
       id="text4"
       style="font-weight:bold;font-size:2.37100005px;font-family:'Proxima Nova';dominant-baseline:middle;text-anchor:middle;fill:#efedeb"
       aria-label="INPUT">
      <path
         id="path17"
         style="font-weight:bold;font-size:2.37100005px;font-family:'Proxima Nova';dominant-baseline:middle;text-anchor:middle;fill:#efedeb"
         d="m -3.3236049,0.8565965 h 0.336682 v -1.58145703 h -0.336682 z" />
      <path
         id="path19"
         style="font-weight:bold;font-size:2.37100005px;font-family:'Proxima Nova';dominant-baseline:middle;text-anchor:middle;fill:#efedeb"
         d="m -1.5846246,0.8565965 h 0.3248271 v -1.58145703 h -0.3366821 v 1.02427202 l -0.732639,-1.02427202 h -0.346166 V 0.8565965 h 0.336682 v -1.06220802 z" />
      <path
         id="path21"
         style="font-weight:bold;font-size:2.37100005px;font-family:'Proxima Nova';dominant-baseline:middle;text-anchor:middle;fill:#efedeb"
         d="m -0.94797404,0.8565965 h 0.33668201 V 0.28992749 h 0.40307001 c 0.34142401,0 0.53110401,-0.22998701 0.53110401,-0.50502301 0,-0.27740701 -0.187309,-0.50976501 -0.53110401,-0.50976501 h -0.73975202 z m 0.92706102,-1.07406302 c 0,0.132776 -0.099582,0.21813200109 -0.232358,0.21813200109 H -0.61129203 V -0.43559853 h 0.35802101 c 0.132776,0 0.232358,0.087727 0.232358,0.21813201 z" />
      <path
         id="path23"
         style="font-weight:bold;font-size:2.37100005px;font-family:'Proxima Nova';dominant-baseline:middle;text-anchor:middle;fill:#efedeb"
         d="m 0.5292701,0.22591049 c 0,0.388844 0.22524501,0.65913801 0.708929,0.65913801 0.478942,0 0.704187,-0.26792301 0.704187,-0.66150901 v -0.94840002 h -0.341424 v 0.93891602 c 0,0.220503 -0.120921,0.372247 -0.362763,0.372247 -0.24658399,0 -0.36750499,-0.151744 -0.36750499,-0.372247 V -0.72486053 H 0.5292701 Z" />
      <path
         id="path25"
         style="font-weight:bold;font-size:2.37100005px;font-family:'Proxima Nova';dominant-baseline:middle;text-anchor:middle;fill:#efedeb"
         d="m 2.6217145,0.8565965 h 0.339053 v -1.28508203 h 0.459974 v -0.296375 h -1.261372 v 0.296375 h 0.462345 z" />
    </g>
  </g>
</svg>
