<?xml version="1.0" encoding="UTF-8" standalone="no"?>
<svg
   xmlns:dc="http://purl.org/dc/elements/1.1/"
   xmlns:cc="http://creativecommons.org/ns#"
   xmlns:rdf="http://www.w3.org/1999/02/22-rdf-syntax-ns#"
   xmlns:svg="http://www.w3.org/2000/svg"
   xmlns="http://www.w3.org/2000/svg"
   id="svg8"
   viewBox="0 0 9.000 3.580"
   height="3.580mm"
   width="9.000mm"
   version="1.1">
  <metadata
     id="metadata14">
    <rdf:RDF>
      <cc:Work
         rdf:about="">
        <dc:format>image/svg+xml</dc:format>
        <dc:type
           rdf:resource="http://purl.org/dc/dcmitype/StillImage" />
      </cc:Work>
    </rdf:RDF>
  </metadata>
  <defs
     id="defs12" />
  <g
     id="g6"
     transform="translate(4.5,1.79)">
    <path
       d="m -4,-1.79 h 8 c 0.277,0 0.5,0.223 0.5,0.5 v 2.58 c 0,0.277 -0.223,0.5 -0.5,0.5 h -8 c -0.277,0 -0.5,-0.223 -0.5,-0.5 v -2.58 c 0,-0.277 0.223,-0.5 0.5,-0.5 z"
       style="fill:#efedeb;stroke:#331a00;stroke-width:0.25"
       id="rect2" />
    <g
       style="font-weight:bold;font-size:2.371px;font-family:'Proxima Nova';dominant-baseline:middle;text-anchor:middle;fill:#331a00"
       id="text4"
       aria-label="IGNR">
      <path
         id="path17"
         style="font-weight:bold;font-size:2.371px;font-family:'Proxima Nova';dominant-baseline:middle;text-anchor:middle;fill:#331a00"
         d="m -2.6474994,0.8565965 h 0.336682 v -1.58145703 h -0.336682 z" />
      <path
         id="path19"
         style="font-weight:bold;font-size:2.371px;font-family:'Proxima Nova';dominant-baseline:middle;text-anchor:middle;fill:#331a00"
         d="m -2.0750511,0.06705348 c 0,0.49791001 0.37936,0.82036602 0.841705,0.82036602 0.28689103,0 0.51213604,-0.11855 0.67336404,-0.29874601 V -0.01593152 H -1.3139601 v 0.28926201 h 0.42203803 v 0.192051 c -0.068759,0.061646 -0.19679303,0.120921 -0.34142403,0.120921 -0.286891,0 -0.495539,-0.220503 -0.495539,-0.51924901 0,-0.298746 0.208648,-0.51924901 0.495539,-0.51924901 0.16597,0 0.30111703,0.087727 0.37461803,0.19916401 l 0.27977801,-0.15174401 c -0.120921,-0.187309 -0.32719801,-0.34616601 -0.65439604,-0.34616601 -0.462345,0 -0.841705,0.31771401 -0.841705,0.81799502 z" />
      <path
         id="path21"
         style="font-weight:bold;font-size:2.371px;font-family:'Proxima Nova';dominant-baseline:middle;text-anchor:middle;fill:#331a00"
         d="M 0.80026825,0.8565965 H 1.1250953 V -0.72486053 H 0.78841325 V 0.29941149 L 0.05577424,-0.72486053 H -0.29039177 V 0.8565965 h 0.33668201 v -1.06220802 z" />
      <path
         id="path23"
         style="font-weight:bold;font-size:2.371px;font-family:'Proxima Nova';dominant-baseline:middle;text-anchor:middle;fill:#331a00"
         d="m 2.3307859,0.8565965 h 0.386473 l -0.35565,-0.60223401 c 0.170712,-0.040307 0.346166,-0.18968001 0.346166,-0.46945801 0,-0.29400401 -0.201535,-0.50976501 -0.531104,-0.50976501 H 1.4369189 V 0.8565965 h 0.336682 V 0.28992749 h 0.246584 z m 0.033194,-1.07406302 c 0,0.132776 -0.101953,0.21813200109 -0.2371,0.21813200109 H 1.7736009 V -0.43559853 h 0.353279 c 0.135147,0 0.2371,0.085356 0.2371,0.21813201 z" />
    </g>
  </g>
</svg>
