<?xml version="1.0" encoding="UTF-8" standalone="no"?>
<svg
   xmlns:dc="http://purl.org/dc/elements/1.1/"
   xmlns:cc="http://creativecommons.org/ns#"
   xmlns:rdf="http://www.w3.org/1999/02/22-rdf-syntax-ns#"
   xmlns:svg="http://www.w3.org/2000/svg"
   xmlns="http://www.w3.org/2000/svg"
   version="1.1"
   width="9.000mm"
   height="3.580mm"
   viewBox="0 0 9.000 3.580"
   id="svg8">
  <metadata
     id="metadata14">
    <rdf:RDF>
      <cc:Work
         rdf:about="">
        <dc:format>image/svg+xml</dc:format>
        <dc:type
           rdf:resource="http://purl.org/dc/dcmitype/StillImage" />
      </cc:Work>
    </rdf:RDF>
  </metadata>
  <defs
     id="defs12" />
  <g
     transform="translate(4.5,1.79)"
     id="g6">
    <path
       id="rect2"
       style="fill:#efedeb;stroke:#331a00;stroke-width:0.25"
       d="m -4,-1.79 h 8 c 0.277,0 0.5,0.223 0.5,0.5 v 2.58 c 0,0.277 -0.223,0.5 -0.5,0.5 h -8 c -0.277,0 -0.5,-0.223 -0.5,-0.5 v -2.58 c 0,-0.277 0.223,-0.5 0.5,-0.5 z" />
    <g
       aria-label="IGNOR"
       id="text4"
       style="font-weight:bold;font-size:2.371px;font-family:'Proxima Nova';dominant-baseline:middle;text-anchor:middle;fill:#331a00">
      <path
         d="m -3.5551479,0.8565965 h 0.336682 v -1.58145703 h -0.336682 z"
         style="font-weight:bold;font-size:2.371px;font-family:'Proxima Nova';dominant-baseline:middle;text-anchor:middle;fill:#331a00"
         id="path17" />
      <path
         d="m -2.9826996,0.06705348 c 0,0.49791001 0.3793601,0.82036602 0.8417051,0.82036602 0.286891,0 0.512136,-0.11855 0.673364,-0.29874601 v -0.60460501 h -0.753978 v 0.28926201 h 0.422038 v 0.192051 c -0.068759,0.061646 -0.196793,0.120921 -0.341424,0.120921 -0.286891,0 -0.495539,-0.220503 -0.495539,-0.51924901 0,-0.298746 0.208648,-0.51924901 0.495539,-0.51924901 0.16597,0 0.301117,0.087727 0.374618,0.19916401 l 0.279778,-0.15174401 c -0.120921,-0.187309 -0.327198,-0.34616601 -0.654396,-0.34616601 -0.462345,0 -0.8417051,0.31771401 -0.8417051,0.81799502 z"
         style="font-weight:bold;font-size:2.371px;font-family:'Proxima Nova';dominant-baseline:middle;text-anchor:middle;fill:#331a00"
         id="path19" />
      <path
         d="m -0.1073802,0.8565965 h 0.324827 v -1.58145703 h -0.336682 V 0.29941149 L -0.85187422,-0.72486053 H -1.1980402 V 0.8565965 h 0.33668198 v -1.06220802 z"
         style="font-weight:bold;font-size:2.371px;font-family:'Proxima Nova';dominant-baseline:middle;text-anchor:middle;fill:#331a00"
         id="path21" />
      <path
         d="m 0.45339843,0.06705348 c 0,0.47657101 0.34853701,0.81799502 0.82510797,0.81799502 0.4789421,0 0.8274791,-0.34142401 0.8274791,-0.81799502 0,-0.47657101 -0.348537,-0.81799502 -0.8274791,-0.81799502 -0.47657096,0 -0.82510797,0.34142401 -0.82510797,0.81799502 z m 1.30642107,0 c 0,0.29400401 -0.18968,0.51924901 -0.4813131,0.51924901 -0.29163296,0 -0.47894196,-0.225245 -0.47894196,-0.51924901 0,-0.296375 0.187309,-0.51924901 0.47894196,-0.51924901 0.2916331,0 0.4813131,0.22287401 0.4813131,0.51924901 z"
         style="font-weight:bold;font-size:2.371px;font-family:'Proxima Nova';dominant-baseline:middle;text-anchor:middle;fill:#331a00"
         id="path23" />
      <path
         d="m 3.2384341,0.8565965 h 0.386473 l -0.35565,-0.60223401 c 0.170712,-0.040307 0.346166,-0.18968001 0.346166,-0.46945801 0,-0.29400401 -0.201535,-0.50976501 -0.531104,-0.50976501 H 2.3445671 V 0.8565965 h 0.336682 V 0.28992749 h 0.246584 z m 0.033194,-1.07406302 c 0,0.132776 -0.101953,0.21813200109 -0.2371,0.21813200109 H 2.6812491 V -0.43559853 h 0.353279 c 0.135147,0 0.2371,0.085356 0.2371,0.21813201 z"
         style="font-weight:bold;font-size:2.371px;font-family:'Proxima Nova';dominant-baseline:middle;text-anchor:middle;fill:#331a00"
         id="path25" />
    </g>
  </g>
</svg>
