<?xml version="1.0" encoding="UTF-8" standalone="no"?>
<svg
   xmlns:dc="http://purl.org/dc/elements/1.1/"
   xmlns:cc="http://creativecommons.org/ns#"
   xmlns:rdf="http://www.w3.org/1999/02/22-rdf-syntax-ns#"
   xmlns:svg="http://www.w3.org/2000/svg"
   xmlns="http://www.w3.org/2000/svg"
   id="svg14"
   viewBox="0 0 10 11.161"
   height="11.161mm"
   width="10mm"
   version="1.1">
  <metadata
     id="metadata20">
    <rdf:RDF>
      <cc:Work
         rdf:about="">
        <dc:format>image/svg+xml</dc:format>
        <dc:type
           rdf:resource="http://purl.org/dc/dcmitype/StillImage" />
      </cc:Work>
    </rdf:RDF>
  </metadata>
  <defs
     id="defs18" />
  <g
     id="g12"
     transform="translate(5,5.58)">
    <g
       id="g4"
       transform="translate(0,-4)">
      <g
         id="text2"
         style="font-weight:bold;font-size:2.37100005px;font-family:'Proxima Nova';dominant-baseline:alphabetic;text-anchor:middle;fill:#331a00"
         aria-label="HOLD">
        <path
           id="path22"
           style="font-weight:bold;font-size:2.37100005px;font-family:'Proxima Nova';dominant-baseline:alphabetic;text-anchor:middle;fill:#331a00"
           d="m -2.0061995,0 h 0.339053 v -1.581457 h -0.339053 v 0.62120198 h -0.746865 V -1.581457 h -0.336682 V 0 h 0.336682 v -0.66388001 h 0.746865 z" />
        <path
           id="path24"
           style="font-weight:bold;font-size:2.37100005px;font-family:'Proxima Nova';dominant-baseline:alphabetic;text-anchor:middle;fill:#331a00"
           d="m -1.433677,-0.78954302 c 0,0.47657101 0.348537,0.81799502 0.82510799,0.81799502 0.47894201,0 0.82747902,-0.34142401 0.82747902,-0.81799502 0,-0.47657098 -0.34853701,-0.81799498 -0.82747902,-0.81799498 -0.47657099,0 -0.82510799,0.341424 -0.82510799,0.81799498 z m 1.306421,0 c 0,0.29400401 -0.18968,0.51924901 -0.48131301,0.51924901 -0.29163301,0 -0.47894199,-0.225245 -0.47894199,-0.51924901 0,-0.29637498 0.18730898,-0.51924898 0.47894199,-0.51924898 0.29163301,0 0.48131301,0.222874 0.48131301,0.51924898 z" />
        <path
           id="path26"
           style="font-weight:bold;font-size:2.37100005px;font-family:'Proxima Nova';dominant-baseline:alphabetic;text-anchor:middle;fill:#331a00"
           d="M 0.45749186,0 H 1.4627959 V -0.29637501 H 0.79417387 V -1.581457 H 0.45749186 Z" />
        <path
           id="path28"
           style="font-weight:bold;font-size:2.37100005px;font-family:'Proxima Nova';dominant-baseline:alphabetic;text-anchor:middle;fill:#331a00"
           d="m 1.6985621,0 h 0.623573 c 0.4955391,0 0.8393341,-0.31297201 0.8393341,-0.78954302 0,-0.47657098 -0.343795,-0.79191398 -0.8393341,-0.79191398 h -0.623573 z m 0.336682,-0.29637501 V -1.285082 h 0.286891 c 0.3248271,0 0.4955391,0.215761 0.4955391,0.49553898 0,0.26792301 -0.182567,0.49316801 -0.4955391,0.49316801 z" />
      </g>
    </g>
    <path
       id="circle6"
       d="M 2.5,0 A 2.5,2.5 0 0 1 0,2.5 2.5,2.5 0 0 1 -2.5,0 2.5,2.5 0 0 1 0,-2.5 2.5,2.5 0 0 1 2.5,0 Z"
       style="fill:#331a00;stroke:#331a00;stroke-width:1" />
    <path
       id="line8"
       d="m -0.75,0 h 1.5"
       style="stroke:#efedeb;stroke-width:0.49000001;stroke-linecap:round" />
    <path
       id="line10"
       d="m 0,-0.75 v 1.5"
       style="stroke:#efedeb;stroke-width:0.49000001;stroke-linecap:round" />
  </g>
</svg>
