<?xml version="1.0" encoding="UTF-8" standalone="no"?>
<svg
   xmlns:dc="http://purl.org/dc/elements/1.1/"
   xmlns:cc="http://creativecommons.org/ns#"
   xmlns:rdf="http://www.w3.org/1999/02/22-rdf-syntax-ns#"
   xmlns:svg="http://www.w3.org/2000/svg"
   xmlns="http://www.w3.org/2000/svg"
   id="svg10"
   viewBox="0 0 6.000 11.161"
   height="11.161mm"
   width="6.000mm"
   version="1.1">
  <metadata
     id="metadata16">
    <rdf:RDF>
      <cc:Work
         rdf:about="">
        <dc:format>image/svg+xml</dc:format>
        <dc:type
           rdf:resource="http://purl.org/dc/dcmitype/StillImage" />
      </cc:Work>
    </rdf:RDF>
  </metadata>
  <defs
     id="defs14" />
  <g
     id="g8"
     transform="translate(3,5.58)">
    <g
       id="g4"
       transform="translate(0,-4)">
      <g
         id="text2"
         style="font-weight:bold;font-size:2.37100005px;font-family:'Proxima Nova';dominant-baseline:alphabetic;text-anchor:middle;fill:#331a00"
         aria-label="NONE">
        <path
           id="path18"
           style="font-weight:bold;font-size:2.37100005px;font-family:'Proxima Nova';dominant-baseline:alphabetic;text-anchor:middle;fill:#331a00"
           d="m -2.0801265,0 h 0.324827 v -1.581457 h -0.336682 v 1.02427199 L -2.8246205,-1.581457 h -0.346166 V 0 h 0.336682 v -1.062208 z" />
        <path
           id="path20"
           style="font-weight:bold;font-size:2.37100005px;font-family:'Proxima Nova';dominant-baseline:alphabetic;text-anchor:middle;fill:#331a00"
           d="m -1.519348,-0.78954302 c 0,0.47657101 0.348537,0.81799502 0.82510802,0.81799502 0.47894202,0 0.82747902,-0.34142401 0.82747902,-0.81799502 0,-0.47657098 -0.348537,-0.81799498 -0.82747902,-0.81799498 -0.47657102,0 -0.82510802,0.341424 -0.82510802,0.81799498 z m 1.30642104,0 c 0,0.29400401 -0.18968001,0.51924901 -0.48131302,0.51924901 -0.291633,0 -0.47894202,-0.225245 -0.47894202,-0.51924901 0,-0.29637498 0.18730902,-0.51924898 0.47894202,-0.51924898 0.29163301,0 0.48131302,0.222874 0.48131302,0.51924898 z" />
        <path
           id="path22"
           style="font-weight:bold;font-size:2.37100005px;font-family:'Proxima Nova';dominant-baseline:alphabetic;text-anchor:middle;fill:#331a00"
           d="m 1.4624808,0 h 0.324827 v -1.581457 h -0.336682 v 1.02427199 L 0.71798679,-1.581457 H 0.37182078 V 0 h 0.336682 v -1.062208 z" />
        <path
           id="path24"
           style="font-weight:bold;font-size:2.37100005px;font-family:'Proxima Nova';dominant-baseline:alphabetic;text-anchor:middle;fill:#331a00"
           d="M 2.0991314,0 H 3.2182435 V -0.29163301 H 2.4358134 v -0.367505 H 3.2016465 V -0.94840002 H 2.4358134 V -1.292195 H 3.2182435 V -1.581457 H 2.0991314 Z" />
      </g>
    </g>
    <path
       id="circle6"
       d="M 2.5,0 A 2.5,2.5 0 0 1 0,2.5 2.5,2.5 0 0 1 -2.5,0 2.5,2.5 0 0 1 0,-2.5 2.5,2.5 0 0 1 2.5,0 Z"
       style="fill:#331a00;stroke:#331a00;stroke-width:1" />
  </g>
</svg>
