<?xml version="1.0" encoding="UTF-8" standalone="no"?>
<svg
   xmlns:dc="http://purl.org/dc/elements/1.1/"
   xmlns:cc="http://creativecommons.org/ns#"
   xmlns:rdf="http://www.w3.org/1999/02/22-rdf-syntax-ns#"
   xmlns:svg="http://www.w3.org/2000/svg"
   xmlns="http://www.w3.org/2000/svg"
   id="svg8"
   viewBox="0 0 9.000 3.580"
   height="3.580mm"
   width="9.000mm"
   version="1.1">
  <metadata
     id="metadata14">
    <rdf:RDF>
      <cc:Work
         rdf:about="">
        <dc:format>image/svg+xml</dc:format>
        <dc:type
           rdf:resource="http://purl.org/dc/dcmitype/StillImage" />
      </cc:Work>
    </rdf:RDF>
  </metadata>
  <defs
     id="defs12" />
  <g
     id="g6"
     transform="translate(4.5,1.79)">
    <path
       d="m -4,-1.79 h 8 c 0.277,0 0.5,0.223 0.5,0.5 v 2.58 c 0,0.277 -0.223,0.5 -0.5,0.5 h -8 c -0.277,0 -0.5,-0.223 -0.5,-0.5 v -2.58 c 0,-0.277 0.223,-0.5 0.5,-0.5 z"
       style="fill:#efedeb;stroke:#331a00;stroke-width:0.25"
       id="rect2" />
    <g
       style="font-weight:bold;font-size:2.371px;font-family:'Proxima Nova';dominant-baseline:middle;text-anchor:middle;fill:#331a00"
       id="text4"
       aria-label="YES">
      <path
         id="path17"
         style="font-weight:bold;font-size:2.371px;font-family:'Proxima Nova';dominant-baseline:middle;text-anchor:middle;fill:#331a00"
         d="m -1.5697502,0.8565965 h 0.336682 V 0.20931349 l 0.604605,-0.93417402 h -0.384102 l -0.388844,0.63542801 -0.393586,-0.63542801 h -0.384102 l 0.609347,0.93417402 z" />
      <path
         id="path19"
         style="font-weight:bold;font-size:2.371px;font-family:'Proxima Nova';dominant-baseline:middle;text-anchor:middle;fill:#331a00"
         d="M -0.48257265,0.8565965 H 0.63653937 V 0.56496349 h -0.78243001 v -0.367505 h 0.76583301 v -0.28926201 h -0.76583301 v -0.34379501 h 0.78243001 v -0.289262 h -1.11911202 z" />
      <path
         id="path21"
         style="font-weight:bold;font-size:2.371px;font-family:'Proxima Nova';dominant-baseline:middle;text-anchor:middle;fill:#331a00"
         d="M 0.79298833,0.63372249 C 0.94236133,0.7830955 1.1604933,0.8850485 1.4639813,0.8850485 c 0.4267801,0 0.6330571,-0.218132 0.6330571,-0.50739401 0,-0.35090801 -0.33194,-0.42915101 -0.5927501,-0.48842601 -0.182567,-0.042678 -0.315343,-0.075872 -0.315343,-0.18256701 0,-0.09484 0.080614,-0.161228 0.232358,-0.161228 0.154115,0 0.3248271,0.054533 0.4528611,0.173083 l 0.187309,-0.246584 c -0.156486,-0.144631 -0.365134,-0.22050301 -0.6164601,-0.22050301 -0.372247,0 -0.59986297,0.21339001 -0.59986297,0.47657102 0,0.353279 0.33193997,0.424409 0.59037897,0.48368401 0.182567,0.042678 0.3200851,0.082985 0.3200851,0.201535 0,0.090098 -0.090098,0.177825 -0.2750361,0.177825 -0.218132,0 -0.391215,-0.097211 -0.50265197,-0.21339 z" />
    </g>
  </g>
</svg>
