<?xml version="1.0" encoding="UTF-8" standalone="no"?>
<svg
   xmlns:dc="http://purl.org/dc/elements/1.1/"
   xmlns:cc="http://creativecommons.org/ns#"
   xmlns:rdf="http://www.w3.org/1999/02/22-rdf-syntax-ns#"
   xmlns:svg="http://www.w3.org/2000/svg"
   xmlns="http://www.w3.org/2000/svg"
   id="svg8"
   viewBox="0 0 9.000 3.580"
   height="3.580mm"
   width="9.000mm"
   version="1.1">
  <metadata
     id="metadata14">
    <rdf:RDF>
      <cc:Work
         rdf:about="">
        <dc:format>image/svg+xml</dc:format>
        <dc:type
           rdf:resource="http://purl.org/dc/dcmitype/StillImage" />
      </cc:Work>
    </rdf:RDF>
  </metadata>
  <defs
     id="defs12" />
  <g
     id="g6"
     transform="translate(4.5,1.79)">
    <path
       id="rect2"
       d="m -3.875,-1.665 h 7.75 c 0.277,0 0.5,0.223 0.5,0.5 v 2.33 c 0,0.277 -0.223,0.5 -0.5,0.5 h -7.75 c -0.277,0 -0.5,-0.223 -0.5,-0.5 v -2.33 c 0,-0.277 0.223,-0.5 0.5,-0.5 z"
       style="fill:#331a00;stroke:#331a00;stroke-width:0.25" />
    <g
       id="text4"
       style="font-weight:bold;font-size:2.37100005px;font-family:'Proxima Nova';dominant-baseline:middle;text-anchor:middle;fill:#efedeb"
       aria-label="LOW">
      <path
         id="path17"
         style="font-weight:bold;font-size:2.37100005px;font-family:'Proxima Nova';dominant-baseline:middle;text-anchor:middle;fill:#efedeb"
         d="m -2.4043793,0.8565965 h 1.005304 V 0.56022149 h -0.668622 v -1.28508202 h -0.336682 z" />
      <path
         id="path19"
         style="font-weight:bold;font-size:2.37100005px;font-family:'Proxima Nova';dominant-baseline:middle;text-anchor:middle;fill:#efedeb"
         d="m -1.304013,0.06705348 c 0,0.47657101 0.34853702,0.81799502 0.82510803,0.81799502 0.478942008494,0 0.82747902,-0.34142401 0.82747902,-0.81799502 0,-0.47657101 -0.348537011506,-0.81799502 -0.82747902,-0.81799502 -0.47657101,0 -0.82510803,0.34142401 -0.82510803,0.81799502 z m 1.30642104,0 c 0,0.29400401 -0.18968001,0.51924901 -0.48131301,0.51924901 -0.29163301,0 -0.47894201,-0.225245 -0.47894201,-0.51924901 0,-0.296375 0.187309,-0.51924901 0.47894201,-0.51924901 0.291633,0 0.48131301,0.22287401 0.48131301,0.51924901 z" />
      <path
         id="path21"
         style="font-weight:bold;font-size:2.37100005px;font-family:'Proxima Nova';dominant-baseline:middle;text-anchor:middle;fill:#efedeb"
         d="m 1.7500574,0.8565965 h 0.358021 l 0.45049,-1.58145703 h -0.37936 L 1.9041724,0.41796149 1.6054264,-0.72486053 H 1.3422454 L 1.0411284,0.41796149 0.76372139,-0.72486053 H 0.38673238 L 0.83959339,0.8565965 H 1.1976144 l 0.275036,-1.08591802 z" />
    </g>
  </g>
</svg>
