<?xml version="1.0" encoding="UTF-8" standalone="no"?>
<svg
   xmlns:dc="http://purl.org/dc/elements/1.1/"
   xmlns:cc="http://creativecommons.org/ns#"
   xmlns:rdf="http://www.w3.org/1999/02/22-rdf-syntax-ns#"
   xmlns:svg="http://www.w3.org/2000/svg"
   xmlns="http://www.w3.org/2000/svg"
   id="svg8"
   viewBox="0 0 9.000 3.580"
   height="3.580mm"
   width="9.000mm"
   version="1.1">
  <metadata
     id="metadata14">
    <rdf:RDF>
      <cc:Work
         rdf:about="">
        <dc:format>image/svg+xml</dc:format>
        <dc:type
           rdf:resource="http://purl.org/dc/dcmitype/StillImage" />
      </cc:Work>
    </rdf:RDF>
  </metadata>
  <defs
     id="defs12" />
  <g
     id="g6"
     transform="translate(4.5,1.79)">
    <path
       d="m -4,-1.79 h 8 c 0.277,0 0.5,0.223 0.5,0.5 v 2.58 c 0,0.277 -0.223,0.5 -0.5,0.5 h -8 c -0.277,0 -0.5,-0.223 -0.5,-0.5 v -2.58 c 0,-0.277 0.223,-0.5 0.5,-0.5 z"
       style="fill:#efedeb;stroke:#331a00;stroke-width:0.25"
       id="rect2" />
    <g
       style="font-weight:bold;font-size:2.371px;font-family:'Proxima Nova';dominant-baseline:middle;text-anchor:middle;fill:#331a00"
       id="text4"
       aria-label="SNAP">
      <path
         id="path17"
         style="font-weight:bold;font-size:2.371px;font-family:'Proxima Nova';dominant-baseline:middle;text-anchor:middle;fill:#331a00"
         d="m -3.0760947,0.63372249 c 0.149373,0.14937301 0.367505,0.25132601 0.670993,0.25132601 0.42678,0 0.633057,-0.218132 0.633057,-0.50739401 0,-0.35090801 -0.33194,-0.42915101 -0.59275,-0.48842601 -0.182567,-0.042678 -0.315343,-0.075872 -0.315343,-0.18256701 0,-0.09484 0.080614,-0.161228 0.232358,-0.161228 0.154115,0 0.324827,0.054533 0.452861,0.173083 l 0.187309,-0.246584 c -0.156486,-0.144631 -0.365134,-0.22050301 -0.61646,-0.22050301 -0.372247,0 -0.599863,0.21339001 -0.599863,0.47657102 0,0.353279 0.33194,0.424409 0.590379,0.48368401 0.182567,0.042678 0.320085,0.082985 0.320085,0.201535 0,0.090098 -0.090098,0.177825 -0.275036,0.177825 -0.218132,0 -0.391215,-0.097211 -0.502652,-0.21339 z" />
      <path
         id="path19"
         style="font-weight:bold;font-size:2.371px;font-family:'Proxima Nova';dominant-baseline:middle;text-anchor:middle;fill:#331a00"
         d="m -0.4546948,0.8565965 h 0.32482701 V -0.72486053 H -0.4665498 v 1.02427202 l -0.732639,-1.02427202 h -0.346166 V 0.8565965 h 0.336682 v -1.06220802 z" />
      <path
         id="path21"
         style="font-weight:bold;font-size:2.371px;font-family:'Proxima Nova';dominant-baseline:middle;text-anchor:middle;fill:#331a00"
         d="M 1.2892127,0.8565965 H 1.6567178 L 1.0473707,-0.72486053 H 0.62533273 L 0.01361472,0.8565965 h 0.369876 l 0.099582,-0.27266501 H 1.1896307 Z M 0.83635173,-0.43322753 1.0971617,0.29229849 H 0.57317073 Z" />
      <path
         id="path23"
         style="font-weight:bold;font-size:2.371px;font-family:'Proxima Nova';dominant-baseline:middle;text-anchor:middle;fill:#331a00"
         d="m 1.8027567,0.8565965 h 0.336682 V 0.28992749 h 0.40307 c 0.341424,0 0.531104,-0.22998701 0.531104,-0.50502301 0,-0.27740701 -0.187309,-0.50976501 -0.531104,-0.50976501 h -0.739752 z m 0.927061,-1.07406302 c 0,0.132776 -0.099582,0.21813200109 -0.232358,0.21813200109 H 2.1394387 V -0.43559853 h 0.358021 c 0.132776,0 0.232358,0.087727 0.232358,0.21813201 z" />
    </g>
  </g>
</svg>
