<?xml version="1.0" encoding="UTF-8" standalone="no"?>
<svg
   xmlns:dc="http://purl.org/dc/elements/1.1/"
   xmlns:cc="http://creativecommons.org/ns#"
   xmlns:rdf="http://www.w3.org/1999/02/22-rdf-syntax-ns#"
   xmlns:svg="http://www.w3.org/2000/svg"
   xmlns="http://www.w3.org/2000/svg"
   id="svg8"
   viewBox="0 0 9.000 3.580"
   height="3.580mm"
   width="9.000mm"
   version="1.1">
  <metadata
     id="metadata14">
    <rdf:RDF>
      <cc:Work
         rdf:about="">
        <dc:format>image/svg+xml</dc:format>
        <dc:type
           rdf:resource="http://purl.org/dc/dcmitype/StillImage" />
      </cc:Work>
    </rdf:RDF>
  </metadata>
  <defs
     id="defs12" />
  <g
     id="g6"
     transform="translate(4.5,1.79)">
    <path
       id="rect2"
       d="m -3.875,-1.665 h 7.75 c 0.277,0 0.5,0.223 0.5,0.5 v 2.33 c 0,0.277 -0.223,0.5 -0.5,0.5 h -7.75 c -0.277,0 -0.5,-0.223 -0.5,-0.5 v -2.33 c 0,-0.277 0.223,-0.5 0.5,-0.5 z"
       style="fill:#efedeb;stroke:#331a00;stroke-width:0.25" />
    <g
       id="text4"
       style="font-weight:bold;font-size:2.37100005px;font-family:'Proxima Nova';dominant-baseline:middle;text-anchor:middle;fill:#331a00"
       aria-label="SUST">
      <path
         id="path17"
         style="font-weight:bold;font-size:2.37100005px;font-family:'Proxima Nova';dominant-baseline:middle;text-anchor:middle;fill:#331a00"
         d="m -2.9186455,0.63372249 c 0.149373,0.14937301 0.367505,0.25132601 0.670993,0.25132601 0.42678,0 0.633057,-0.218132 0.633057,-0.50739401 0,-0.35090801 -0.33194,-0.42915101 -0.59275,-0.48842601 -0.182567,-0.042678 -0.315343,-0.075872 -0.315343,-0.18256701 0,-0.09484 0.080614,-0.161228 0.232358,-0.161228 0.154115,0 0.324827,0.054533 0.452861,0.173083 l 0.187309,-0.246584 c -0.156486,-0.144631 -0.365134,-0.22050301 -0.61646,-0.22050301 -0.372247,0 -0.599863,0.21339001 -0.599863,0.47657102 0,0.353279 0.33194,0.424409 0.590379,0.48368401 0.182567,0.042678 0.320085,0.082985 0.320085,0.201535 0,0.090098 -0.090098,0.177825 -0.275036,0.177825 -0.218132,0 -0.391215,-0.097211 -0.502652,-0.21339 z" />
      <path
         id="path19"
         style="font-weight:bold;font-size:2.37100005px;font-family:'Proxima Nova';dominant-baseline:middle;text-anchor:middle;fill:#331a00"
         d="m -1.3879056,0.22591049 c 0,0.388844 0.225245,0.65913801 0.70892902,0.65913801 0.47894201,0 0.70418701,-0.26792301 0.70418701,-0.66150901 v -0.94840002 h -0.341424 v 0.93891602 c 0,0.220503 -0.12092101,0.372247 -0.36276301,0.372247 -0.24658401,0 -0.36750502,-0.151744 -0.36750502,-0.372247 v -0.93891602 h -0.341424 z" />
      <path
         id="path21"
         style="font-weight:bold;font-size:2.37100005px;font-family:'Proxima Nova';dominant-baseline:middle;text-anchor:middle;fill:#331a00"
         d="m 0.23033894,0.63372249 c 0.149373,0.14937301 0.36750501,0.25132601 0.67099301,0.25132601 0.42678005,0 0.63305705,-0.218132 0.63305705,-0.50739401 0,-0.35090801 -0.33194,-0.42915101 -0.59275005,-0.48842601 -0.182567,-0.042678 -0.315343,-0.075872 -0.315343,-0.18256701 0,-0.09484 0.080614,-0.161228 0.232358,-0.161228 0.15411505,0 0.32482705,0.054533 0.45286105,0.173083 l 0.187309,-0.246584 c -0.156486,-0.144631 -0.365134,-0.22050301 -0.61646005,-0.22050301 -0.372247,0 -0.59986301,0.21339001 -0.59986301,0.47657102 0,0.353279 0.33194001,0.424409 0.59037901,0.48368401 0.18256705,0.042678 0.32008505,0.082985 0.32008505,0.201535 0,0.090098 -0.090098,0.177825 -0.27503605,0.177825 -0.218132,0 -0.391215,-0.097211 -0.50265201,-0.21339 z" />
      <path
         id="path23"
         style="font-weight:bold;font-size:2.37100005px;font-family:'Proxima Nova';dominant-baseline:middle;text-anchor:middle;fill:#331a00"
         d="m 2.1076895,0.8565965 h 0.339053 v -1.28508203 h 0.459974 v -0.296375 h -1.261372 v 0.296375 h 0.462345 z" />
    </g>
  </g>
</svg>
