<?xml version="1.0" encoding="UTF-8" standalone="no"?>
<svg
   xmlns:dc="http://purl.org/dc/elements/1.1/"
   xmlns:cc="http://creativecommons.org/ns#"
   xmlns:rdf="http://www.w3.org/1999/02/22-rdf-syntax-ns#"
   xmlns:svg="http://www.w3.org/2000/svg"
   xmlns="http://www.w3.org/2000/svg"
   id="svg8"
   viewBox="0 0 9.000 3.580"
   height="3.580mm"
   width="9.000mm"
   version="1.1">
  <metadata
     id="metadata14">
    <rdf:RDF>
      <cc:Work
         rdf:about="">
        <dc:format>image/svg+xml</dc:format>
        <dc:type
           rdf:resource="http://purl.org/dc/dcmitype/StillImage" />
      </cc:Work>
    </rdf:RDF>
  </metadata>
  <defs
     id="defs12" />
  <g
     id="g6"
     transform="translate(4.5,1.79)">
    <path
       id="rect2"
       d="m -3.875,-1.665 h 7.75 c 0.277,0 0.5,0.223 0.5,0.5 v 2.33 c 0,0.277 -0.223,0.5 -0.5,0.5 h -7.75 c -0.277,0 -0.5,-0.223 -0.5,-0.5 v -2.33 c 0,-0.277 0.223,-0.5 0.5,-0.5 z"
       style="fill:#331a00;stroke:#331a00;stroke-width:0.25" />
    <g
       id="text4"
       style="font-weight:bold;font-size:2.37100005px;font-family:'Proxima Nova';dominant-baseline:middle;text-anchor:middle;fill:#efedeb"
       aria-label="CHASE">
      <path
         id="path17"
         style="font-weight:bold;font-size:2.37100005px;font-family:'Proxima Nova';dominant-baseline:middle;text-anchor:middle;fill:#efedeb"
         d="m -2.9748271,0.8850485 c 0.360392,0 0.559556,-0.192051 0.673364,-0.38884401 l -0.289262,-0.139889 c -0.066388,0.130405 -0.208648,0.229987 -0.384102,0.229987 -0.275036,0 -0.483684,-0.220503 -0.483684,-0.51924901 0,-0.298746 0.208648,-0.51924901 0.483684,-0.51924901 0.175454,0 0.317714,0.101953 0.384102,0.22998701 l 0.289262,-0.14226001 c -0.111437,-0.196793 -0.312972,-0.38647301 -0.673364,-0.38647301 -0.462345,0 -0.82985,0.33194001 -0.82985,0.81799502 0,0.48605501 0.367505,0.81799502 0.82985,0.81799502 z" />
      <path
         id="path19"
         style="font-weight:bold;font-size:2.37100005px;font-family:'Proxima Nova';dominant-baseline:middle;text-anchor:middle;fill:#efedeb"
         d="m -1.0151955,0.8565965 h 0.33905301 V -0.72486053 H -1.0151955 v 0.62120201 h -0.746865 v -0.62120201 h -0.336682 V 0.8565965 h 0.336682 V 0.19271649 h 0.746865 z" />
      <path
         id="path21"
         style="font-weight:bold;font-size:2.37100005px;font-family:'Proxima Nova';dominant-baseline:middle;text-anchor:middle;fill:#efedeb"
         d="M 0.74045597,0.8565965 H 1.107961 L 0.49861396,-0.72486053 H 0.07657595 L -0.53514206,0.8565965 h 0.36987601 l 0.099582,-0.27266501 h 0.70655802 z m -0.45286101,-1.28982403 0.26081,0.72552602 H 0.02441395 Z" />
      <path
         id="path23"
         style="font-weight:bold;font-size:2.37100005px;font-family:'Proxima Nova';dominant-baseline:middle;text-anchor:middle;fill:#efedeb"
         d="m 1.1264105,0.63372249 c 0.149373,0.14937301 0.367505,0.25132601 0.670993,0.25132601 0.42678,0 0.633057,-0.218132 0.633057,-0.50739401 0,-0.35090801 -0.33194,-0.42915101 -0.59275,-0.48842601 -0.182567,-0.042678 -0.315343,-0.075872 -0.315343,-0.18256701 0,-0.09484 0.080614,-0.161228 0.232358,-0.161228 0.154115,0 0.324827,0.054533 0.452861,0.173083 l 0.187309,-0.246584 c -0.156486,-0.144631 -0.365134,-0.22050301 -0.61646,-0.22050301 -0.372247,0 -0.599863,0.21339001 -0.599863,0.47657102 0,0.353279 0.33194,0.424409 0.590379,0.48368401 0.182567,0.042678 0.320085,0.082985 0.320085,0.201535 0,0.090098 -0.090098,0.177825 -0.275036,0.177825 -0.218132,0 -0.391215,-0.097211 -0.502652,-0.21339 z" />
      <path
         id="path25"
         style="font-weight:bold;font-size:2.37100005px;font-family:'Proxima Nova';dominant-baseline:middle;text-anchor:middle;fill:#efedeb"
         d="M 2.6571502,0.8565965 H 3.7762623 V 0.56496349 H 2.9938322 v -0.367505 H 3.7596653 V -0.09180352 H 2.9938322 v -0.34379501 h 0.7824301 v -0.289262 H 2.6571502 Z" />
    </g>
  </g>
</svg>
