<?xml version="1.0" encoding="UTF-8" standalone="no"?>
<svg
   xmlns:dc="http://purl.org/dc/elements/1.1/"
   xmlns:cc="http://creativecommons.org/ns#"
   xmlns:rdf="http://www.w3.org/1999/02/22-rdf-syntax-ns#"
   xmlns:svg="http://www.w3.org/2000/svg"
   xmlns="http://www.w3.org/2000/svg"
   id="svg10"
   viewBox="0 0 6.000 11.161"
   height="11.161mm"
   width="6.000mm"
   version="1.1">
  <metadata
     id="metadata16">
    <rdf:RDF>
      <cc:Work
         rdf:about="">
        <dc:format>image/svg+xml</dc:format>
        <dc:type
           rdf:resource="http://purl.org/dc/dcmitype/StillImage" />
      </cc:Work>
    </rdf:RDF>
  </metadata>
  <defs
     id="defs14" />
  <g
     id="g8"
     transform="translate(3,5.58)">
    <g
       id="g4"
       transform="translate(0,-4)">
      <g
         id="text2"
         style="font-weight:bold;font-size:2.37100005px;font-family:'Proxima Nova';dominant-baseline:alphabetic;text-anchor:middle;fill:#331a00"
         aria-label="RISE">
        <path
           id="path18"
           style="font-weight:bold;font-size:2.37100005px;font-family:'Proxima Nova';dominant-baseline:alphabetic;text-anchor:middle;fill:#331a00"
           d="m -1.4387339,0 h 0.386473 l -0.35565,-0.60223401 c 0.170712,-0.040307 0.346166,-0.18968001 0.346166,-0.46945799 0,-0.294004 -0.201535,-0.509765 -0.531104,-0.509765 H -2.332601 V 0 h 0.336682 v -0.56192701 h 0.246584 z m 0.033194,-1.071692 c 0,0.13277598 -0.101953,0.21338998 -0.2371,0.21338998 H -1.995919 V -1.285082 h 0.3532791 c 0.135147,0 0.2371,0.080614 0.2371,0.21339 z" />
        <path
           id="path20"
           style="font-weight:bold;font-size:2.37100005px;font-family:'Proxima Nova';dominant-baseline:alphabetic;text-anchor:middle;fill:#331a00"
           d="m -0.80904819,0 h 0.33668201 v -1.581457 h -0.33668201 z" />
        <path
           id="path22"
           style="font-weight:bold;font-size:2.37100005px;font-family:'Proxima Nova';dominant-baseline:alphabetic;text-anchor:middle;fill:#331a00"
           d="m -0.26742287,-0.222874 c 0.147002,0.149373 0.365134,0.251326 0.66862201,0.251326 0.42678001,0 0.63305706,-0.218132 0.63305706,-0.50739401 0,-0.35802101 -0.33194005,-0.43626401 -0.59275006,-0.49791001 -0.170712,-0.040307 -0.31534301,-0.073501 -0.31534301,-0.17545398 0,-0.09484 0.080614,-0.158857 0.22524501,-0.158857 0.161228,0 0.33194001,0.054533 0.45997401,0.173083 l 0.187309,-0.246584 c -0.156486,-0.144631 -0.365134,-0.220503 -0.61646001,-0.220503 -0.37224701,0 -0.59986301,0.218132 -0.59986301,0.481313 0,0.36039198 0.33194,0.43152198 0.59037901,0.49079699 0.173083,0.042678 0.32008501,0.075872 0.32008501,0.192051 0,0.090098 -0.090098,0.175454 -0.27503601,0.175454 -0.218132,0 -0.39121501,-0.097211 -0.50265201,-0.21339 z" />
        <path
           id="path24"
           style="font-weight:bold;font-size:2.37100005px;font-family:'Proxima Nova';dominant-baseline:alphabetic;text-anchor:middle;fill:#331a00"
           d="m 1.2609459,0 h 1.119112 v -0.29637501 h -0.78243 v -0.358021 h 0.765833 V -0.95077102 H 1.5976279 V -1.285082 h 0.78243 v -0.296375 h -1.119112 z" />
      </g>
    </g>
    <path
       id="circle6"
       d="M 2.5,0 A 2.5,2.5 0 0 1 0,2.5 2.5,2.5 0 0 1 -2.5,0 2.5,2.5 0 0 1 0,-2.5 2.5,2.5 0 0 1 2.5,0 Z"
       style="fill:#331a00;stroke:#331a00;stroke-width:1" />
  </g>
</svg>
