<?xml version="1.0" encoding="UTF-8" standalone="no"?>
<svg
   xmlns:dc="http://purl.org/dc/elements/1.1/"
   xmlns:cc="http://creativecommons.org/ns#"
   xmlns:rdf="http://www.w3.org/1999/02/22-rdf-syntax-ns#"
   xmlns:svg="http://www.w3.org/2000/svg"
   xmlns="http://www.w3.org/2000/svg"
   id="svg10"
   viewBox="0 0 6.000 11.161"
   height="11.161mm"
   width="6.000mm"
   version="1.1">
  <metadata
     id="metadata16">
    <rdf:RDF>
      <cc:Work
         rdf:about="">
        <dc:format>image/svg+xml</dc:format>
        <dc:type
           rdf:resource="http://purl.org/dc/dcmitype/StillImage" />
      </cc:Work>
    </rdf:RDF>
  </metadata>
  <defs
     id="defs14" />
  <g
     id="g8"
     transform="translate(3,5.58)">
    <g
       id="g4"
       transform="translate(0,-4)">
      <g
         id="text2"
         style="font-weight:bold;font-size:2.37100005px;font-family:'Proxima Nova';dominant-baseline:alphabetic;text-anchor:middle;fill:#331a00"
         aria-label="EOS">
        <path
           id="path18"
           style="font-weight:bold;font-size:2.37100005px;font-family:'Proxima Nova';dominant-baseline:alphabetic;text-anchor:middle;fill:#331a00"
           d="m -2.1543129,0 h 1.119112 v -0.29163301 h -0.78243 v -0.367505 h 0.765833 v -0.28926201 h -0.765833 V -1.292195 h 0.78243 v -0.289262 h -1.119112 z" />
        <path
           id="path20"
           style="font-weight:bold;font-size:2.37100005px;font-family:'Proxima Nova';dominant-baseline:alphabetic;text-anchor:middle;fill:#331a00"
           d="m -0.84555789,-0.78954302 c 0,0.47657101 0.34853701,0.81799502 0.82510802,0.81799502 0.47894201,0 0.82747901,-0.34142401 0.82747901,-0.81799502 0,-0.47657098 -0.348537,-0.81799498 -0.82747901,-0.81799498 -0.47657101,0 -0.82510802,0.341424 -0.82510802,0.81799498 z m 1.30642103,0 c 0,0.29400401 -0.18968001,0.51924901 -0.48131301,0.51924901 -0.29163301,0 -0.47894201,-0.225245 -0.47894201,-0.51924901 0,-0.29637498 0.187309,-0.51924898 0.47894201,-0.51924898 0.291633,0 0.48131301,0.222874 0.48131301,0.51924898 z" />
        <path
           id="path22"
           style="font-weight:bold;font-size:2.37100005px;font-family:'Proxima Nova';dominant-baseline:alphabetic;text-anchor:middle;fill:#331a00"
           d="m 0.93654511,-0.222874 c 0.14937299,0.149373 0.36750499,0.251326 0.67099299,0.251326 0.42678,0 0.633057,-0.218132 0.633057,-0.50739401 0,-0.35090801 -0.33194,-0.42915101 -0.59275,-0.48842601 -0.182567,-0.042678 -0.315343,-0.075872 -0.315343,-0.18256698 0,-0.09484 0.080614,-0.161228 0.232358,-0.161228 0.154115,0 0.324827,0.054533 0.452861,0.173083 l 0.187309,-0.246584 c -0.156486,-0.144631 -0.365134,-0.220503 -0.61646,-0.220503 -0.372247,0 -0.59986298,0.21339 -0.59986298,0.476571 0,0.35327898 0.33193998,0.42440898 0.59037898,0.48368399 0.182567,0.042678 0.320085,0.082985 0.320085,0.201535 0,0.090098 -0.090098,0.177825 -0.275036,0.177825 -0.218132,0 -0.391215,-0.097211 -0.502652,-0.21339 z" />
      </g>
    </g>
    <path
       id="circle6"
       d="M 2.5,0 A 2.5,2.5 0 0 1 0,2.5 2.5,2.5 0 0 1 -2.5,0 2.5,2.5 0 0 1 0,-2.5 2.5,2.5 0 0 1 2.5,0 Z"
       style="fill:#331a00;stroke:#331a00;stroke-width:1" />
  </g>
</svg>
