<?xml version="1.0" encoding="UTF-8" standalone="no"?>
<svg
   xmlns:dc="http://purl.org/dc/elements/1.1/"
   xmlns:cc="http://creativecommons.org/ns#"
   xmlns:rdf="http://www.w3.org/1999/02/22-rdf-syntax-ns#"
   xmlns:svg="http://www.w3.org/2000/svg"
   xmlns="http://www.w3.org/2000/svg"
   id="svg10"
   viewBox="0 0 6.000 11.161"
   height="11.161mm"
   width="6.000mm"
   version="1.1">
  <metadata
     id="metadata16">
    <rdf:RDF>
      <cc:Work
         rdf:about="">
        <dc:format>image/svg+xml</dc:format>
        <dc:type
           rdf:resource="http://purl.org/dc/dcmitype/StillImage" />
      </cc:Work>
    </rdf:RDF>
  </metadata>
  <defs
     id="defs14" />
  <g
     id="g8"
     transform="translate(3,5.58)">
    <g
       id="g4"
       transform="translate(0,-4)">
      <g
         id="text2"
         style="font-weight:bold;font-size:2.37100005px;font-family:'Proxima Nova';dominant-baseline:alphabetic;text-anchor:middle;fill:#331a00"
         aria-label="HIGH">
        <path
           id="path18"
           style="font-weight:bold;font-size:2.37100005px;font-family:'Proxima Nova';dominant-baseline:alphabetic;text-anchor:middle;fill:#331a00"
           d="m -1.6704622,0 h 0.3390531 v -1.581457 h -0.3390531 v 0.62120198 h -0.746865 V -1.581457 h -0.336682 V 0 h 0.336682 v -0.66388001 h 0.746865 z" />
        <path
           id="path20"
           style="font-weight:bold;font-size:2.37100005px;font-family:'Proxima Nova';dominant-baseline:alphabetic;text-anchor:middle;fill:#331a00"
           d="m -1.0220677,0 h 0.33668199 V -1.581457 H -1.0220677 Z" />
        <path
           id="path22"
           style="font-weight:bold;font-size:2.37100005px;font-family:'Proxima Nova';dominant-baseline:alphabetic;text-anchor:middle;fill:#331a00"
           d="m -0.44961928,-0.78954302 c 0,0.49791001 0.37936001,0.82036602 0.84170502,0.82036602 0.286891,0 0.51213601,-0.11855 0.67336406,-0.29874601 V -0.87252802 H 0.31147174 v 0.28926201 h 0.42203801 v 0.192051 c -0.068759,0.061646 -0.19679301,0.120921 -0.34142401,0.120921 -0.28689101,0 -0.49553901,-0.220503 -0.49553901,-0.51924901 0,-0.29874598 0.208648,-0.51924898 0.49553901,-0.51924898 0.16597,0 0.301117,0.087727 0.37461801,0.199164 L 1.0464818,-1.261372 C 0.92556075,-1.448681 0.71928374,-1.607538 0.39208574,-1.607538 c -0.46234501,0 -0.84170502,0.317714 -0.84170502,0.81799498 z" />
        <path
           id="path24"
           style="font-weight:bold;font-size:2.37100005px;font-family:'Proxima Nova';dominant-baseline:alphabetic;text-anchor:middle;fill:#331a00"
           d="m 2.4185867,0 h 0.339053 v -1.581457 h -0.339053 v 0.62120198 H 1.6717217 V -1.581457 H 1.3350397 V 0 h 0.336682 v -0.66388001 h 0.746865 z" />
      </g>
    </g>
    <path
       id="circle6"
       d="M 2.5,0 A 2.5,2.5 0 0 1 0,2.5 2.5,2.5 0 0 1 -2.5,0 2.5,2.5 0 0 1 0,-2.5 2.5,2.5 0 0 1 2.5,0 Z"
       style="fill:#331a00;stroke:#331a00;stroke-width:1" />
  </g>
</svg>
