<?xml version="1.0" encoding="UTF-8" standalone="no"?>
<!DOCTYPE svg PUBLIC "-//W3C//DTD SVG 1.1//EN" "http://www.w3.org/Graphics/SVG/1.1/DTD/svg11.dtd">
<svg width="60px" height="380px" version="1.1" xmlns="http://www.w3.org/2000/svg" xmlns:xlink="http://www.w3.org/1999/xlink" xml:space="preserve" xmlns:serif="http://www.serif.com/" style="fill-rule:evenodd;clip-rule:evenodd;stroke-linejoin:round;stroke-miterlimit:1.41421;">
    <g id="Stage" transform="matrix(0.0264926,0,0,0.127579,291.482,19.0645)">
        <rect x="-11002.4" y="-149.433" width="2264.79" height="2974.07" style="fill:none;"/>
        <clipPath id="_clip1">
            <rect x="-11002.4" y="-149.433" width="2264.79" height="2974.07"/>
        </clipPath>
        <g clip-path="url(#_clip1)">
            <g transform="matrix(0.779121,0,0,0.666967,-11611.7,-675.307)">
                <rect x="782.068" y="788.458" width="2906.85" height="4459.1" style="fill:rgb(240,255,240);"/>
                <path d="M3688.92,5247.56L782.068,5247.56L782.068,788.458L3688.92,788.458L3688.92,5247.56ZM853.595,805.808L853.595,5230.21L3617.39,5230.21L3617.39,805.808L853.595,805.808Z" style="fill:rgb(0,153,0);"/>
            </g>
            <g transform="matrix(1.11456,0,0,0.231445,-11066,2073.32)">
                <path d="M683.42,2616.81L790.118,2616.81C874.908,2616.81 933.734,2563.26 933.734,2481.72C933.734,2400.17 874.908,2346.21 790.118,2346.21L683.42,2346.21L683.42,2616.81ZM741.029,2566.1L741.029,2396.93L790.118,2396.93C845.698,2396.93 874.908,2433.84 874.908,2481.72C874.908,2527.56 843.67,2566.1 790.118,2566.1L741.029,2566.1Z" style="fill:rgb(0,153,0);fill-rule:nonzero;"/>
                <path d="M1160.11,2616.81L1218.13,2616.81L1218.13,2346.21L1160.11,2346.21L1160.11,2452.51L1032.32,2452.51L1032.32,2346.21L974.709,2346.21L974.709,2616.81L1032.32,2616.81L1032.32,2503.22L1160.11,2503.22L1160.11,2616.81Z" style="fill:rgb(0,153,0);fill-rule:nonzero;"/>
                <path d="M1271.27,2616.81L1462.76,2616.81L1462.76,2566.1L1328.88,2566.1L1328.88,2504.84L1459.92,2504.84L1459.92,2454.13L1328.88,2454.13L1328.88,2396.93L1462.76,2396.93L1462.76,2346.21L1271.27,2346.21L1271.27,2616.81Z" style="fill:rgb(0,153,0);fill-rule:nonzero;"/>
            </g>
            <g id="OUT" transform="matrix(1.11456,0,0,0.231445,-11470.6,698.246)">
                <g>
                    <g transform="matrix(1.15853,0,0,1.44507,-6346.82,-5241.72)">
                        <rect x="6681.69" y="8297.85" width="906.323" height="1090.84" style="fill:none;"/>
                    </g>
                    <g transform="matrix(1.02061,0,0,1.20137,-5362.73,-3217.75)">
                        <path d="M7588.01,8374.85C7588.01,8332.35 7547.4,8297.85 7497.38,8297.85L6772.32,8297.85C6722.3,8297.85 6681.69,8332.35 6681.69,8374.85L6681.69,9311.7C6681.69,9354.19 6722.3,9388.69 6772.32,9388.69L7497.38,9388.69C7547.4,9388.69 7588.01,9354.19 7588.01,9311.7L7588.01,8374.85Z" style="fill:rgb(0,153,0);"/>
                    </g>
                    <g transform="matrix(1,0,0,1,-4619.98,-1941.83)">
                        <path d="M6300.33,8897.74C6300.33,8945.25 6335.08,8979.28 6382.59,8979.28C6430.33,8979.28 6465.08,8945.25 6465.08,8897.74C6465.08,8850.23 6430.33,8816.19 6382.59,8816.19C6335.08,8816.19 6300.33,8850.23 6300.33,8897.74ZM6430.57,8897.74C6430.57,8927.05 6411.66,8949.5 6382.59,8949.5C6353.51,8949.5 6334.84,8927.05 6334.84,8897.74C6334.84,8868.19 6353.51,8845.98 6382.59,8845.98C6411.66,8845.98 6430.57,8868.19 6430.57,8897.74Z" style="fill:rgb(240,255,240);fill-rule:nonzero;"/>
                        <path d="M6488.71,8913.57C6488.71,8952.34 6511.88,8979.28 6559.86,8979.28C6607.84,8979.28 6631,8952.57 6631,8913.34L6631,8818.79L6596.73,8818.79L6596.73,8912.39C6596.73,8934.37 6584.2,8949.5 6559.86,8949.5C6535.51,8949.5 6522.75,8934.37 6522.75,8912.39L6522.75,8818.79L6488.71,8818.79L6488.71,8913.57Z" style="fill:rgb(240,255,240);fill-rule:nonzero;"/>
                        <path d="M6698.36,8976.45L6732.16,8976.45L6732.16,8848.34L6778.02,8848.34L6778.02,8818.79L6652.27,8818.79L6652.27,8848.34L6698.36,8848.34L6698.36,8976.45Z" style="fill:rgb(240,255,240);fill-rule:nonzero;"/>
                    </g>
                </g>
            </g>
            <g id="IN" transform="matrix(1.11456,0,0,0.231445,-12547.3,698.246)">
                <g>
                    <g transform="matrix(1.15853,0,0,1.44507,-6346.82,-5241.72)">
                        <rect x="6681.69" y="8297.85" width="906.323" height="1090.84" style="fill:none;"/>
                    </g>
                    <g transform="matrix(1.02061,0,0,1.20137,-5362.73,-3217.75)">
                        <path d="M7499.72,8297.88L7502.04,8297.95L7504.35,8298.08L7506.64,8298.25L7508.92,8298.47L7511.18,8298.74L7513.42,8299.06L7515.64,8299.42L7517.84,8299.83L7520.02,8300.28L7522.18,8300.77L7524.32,8301.32L7526.44,8301.9L7528.53,8302.53L7530.6,8303.2L7532.65,8303.91L7534.67,8304.66L7536.66,8305.45L7538.63,8306.28L7540.57,8307.15L7542.48,8308.06L7544.36,8309.01L7546.22,8309.99L7548.04,8311.01L7549.83,8312.07L7551.59,8313.16L7553.32,8314.28L7555.02,8315.44L7556.68,8316.64L7558.31,8317.86L7559.9,8319.12L7561.46,8320.41L7562.98,8321.74L7564.46,8323.09L7565.9,8324.47L7567.31,8325.88L7568.67,8327.32L7570,8328.79L7571.28,8330.29L7572.53,8331.81L7573.73,8333.36L7574.89,8334.93L7576,8336.53L7577.07,8338.16L7578.09,8339.81L7579.07,8341.48L7580,8343.17L7580.89,8344.89L7581.72,8346.63L7582.51,8348.39L7583.25,8350.16L7583.94,8351.96L7584.57,8353.78L7585.16,8355.61L7585.69,8357.47L7586.17,8359.34L7586.6,8361.23L7586.97,8363.13L7587.29,8365.05L7587.55,8366.98L7587.75,8368.93L7587.9,8370.89L7587.99,8372.86L7588.01,8374.85L7588.01,9311.7L7587.99,9313.68L7587.9,9315.66L7587.75,9317.62L7587.55,9319.56L7587.29,9321.5L7586.97,9323.42L7586.6,9325.32L7586.17,9327.21L7585.69,9329.08L7585.16,9330.93L7584.57,9332.76L7583.94,9334.58L7583.25,9336.38L7582.51,9338.16L7581.72,9339.92L7580.89,9341.66L7580,9343.37L7579.07,9345.07L7578.09,9346.74L7577.07,9348.39L7576,9350.01L7574.89,9351.61L7573.73,9353.18L7572.53,9354.73L7571.28,9356.26L7570,9357.75L7568.67,9359.22L7567.31,9360.66L7565.9,9362.07L7564.46,9363.46L7562.98,9364.81L7561.46,9366.13L7559.9,9367.42L7558.31,9368.68L7556.68,9369.91L7555.02,9371.1L7553.32,9372.26L7551.59,9373.39L7549.83,9374.48L7548.04,9375.53L7546.22,9376.56L7544.36,9377.54L7542.48,9378.49L7540.57,9379.39L7538.63,9380.26L7536.66,9381.09L7534.67,9381.89L7532.65,9382.64L7530.6,9383.35L7528.53,9384.02L7526.44,9384.64L7524.32,9385.23L7522.18,9385.77L7520.02,9386.27L7517.84,9386.72L7515.64,9387.13L7513.42,9387.49L7511.18,9387.8L7508.92,9388.07L7506.64,9388.29L7504.35,9388.47L7502.04,9388.59L7499.72,9388.67L7497.38,9388.69L6772.32,9388.69L6769.99,9388.67L6767.66,9388.59L6765.36,9388.47L6763.06,9388.29L6760.79,9388.07L6758.53,9387.8L6756.29,9387.49L6754.07,9387.13L6751.87,9386.72L6749.68,9386.27L6747.52,9385.77L6745.39,9385.23L6743.27,9384.64L6741.18,9384.02L6739.11,9383.35L6737.06,9382.64L6735.04,9381.89L6733.05,9381.09L6731.08,9380.26L6729.14,9379.39L6727.23,9378.49L6725.34,9377.54L6723.49,9376.56L6721.66,9375.53L6719.87,9374.48L6718.11,9373.39L6716.38,9372.26L6714.69,9371.1L6713.03,9369.91L6711.4,9368.68L6709.81,9367.42L6708.25,9366.13L6706.73,9364.81L6705.25,9363.46L6703.8,9362.07L6702.4,9360.66L6701.03,9359.22L6699.71,9357.75L6698.42,9356.26L6697.18,9354.73L6695.98,9353.18L6694.82,9351.61L6693.71,9350.01L6692.64,9348.39L6691.61,9346.74L6690.63,9345.07L6689.7,9343.37L6688.82,9341.66L6687.98,9339.92L6687.19,9338.16L6686.46,9336.38L6685.77,9334.58L6685.13,9332.76L6684.55,9330.93L6684.01,9329.08L6683.53,9327.21L6683.11,9325.32L6682.74,9323.42L6682.42,9321.5L6682.16,9319.56L6681.96,9317.62L6681.81,9315.66L6681.72,9313.68L6681.69,9311.7L6681.69,8374.85L6681.72,8372.86L6681.81,8370.89L6681.96,8368.93L6682.16,8366.98L6682.42,8365.05L6682.74,8363.13L6683.11,8361.23L6683.53,8359.34L6684.01,8357.47L6684.55,8355.61L6685.13,8353.78L6685.77,8351.96L6686.46,8350.16L6687.19,8348.39L6687.98,8346.63L6688.82,8344.89L6689.7,8343.17L6690.63,8341.48L6691.61,8339.81L6692.64,8338.16L6693.71,8336.53L6694.82,8334.93L6695.98,8333.36L6697.18,8331.81L6698.42,8330.29L6699.71,8328.79L6701.03,8327.32L6702.4,8325.88L6703.8,8324.47L6705.25,8323.09L6706.73,8321.74L6708.25,8320.41L6709.81,8319.12L6711.4,8317.86L6713.03,8316.64L6714.69,8315.44L6716.38,8314.28L6718.11,8313.16L6719.87,8312.07L6721.66,8311.01L6723.49,8309.99L6725.34,8309.01L6727.23,8308.06L6729.14,8307.15L6731.08,8306.28L6733.05,8305.45L6735.04,8304.66L6737.06,8303.91L6739.11,8303.2L6741.18,8302.53L6743.27,8301.9L6745.39,8301.32L6747.52,8300.77L6749.68,8300.28L6751.87,8299.83L6754.07,8299.42L6756.29,8299.06L6758.53,8298.74L6760.79,8298.47L6763.06,8298.25L6765.36,8298.08L6767.66,8297.95L6769.99,8297.88L6772.32,8297.85L7497.38,8297.85L7499.72,8297.88ZM6772.63,8339.47L6771.22,8339.49L6770.14,8339.52L6769.07,8339.58L6768.02,8339.66L6766.97,8339.76L6765.94,8339.88L6764.91,8340.03L6763.9,8340.19L6762.9,8340.38L6761.9,8340.59L6760.92,8340.81L6759.95,8341.06L6758.99,8341.32L6758.03,8341.61L6757.08,8341.92L6756.15,8342.24L6755.23,8342.58L6754.32,8342.94L6753.43,8343.32L6752.53,8343.72L6751.65,8344.14L6750.79,8344.57L6749.94,8345.02L6749.1,8345.5L6748.27,8345.98L6747.46,8346.48L6746.66,8347.01L6745.87,8347.55L6745.11,8348.09L6744.35,8348.66L6743.61,8349.25L6742.89,8349.84L6742.19,8350.45L6741.51,8351.08L6740.83,8351.73L6740.18,8352.38L6739.55,8353.04L6738.94,8353.73L6738.34,8354.42L6737.77,8355.11L6737.22,8355.83L6736.69,8356.55L6736.18,8357.29L6735.68,8358.04L6735.21,8358.79L6734.77,8359.56L6734.34,8360.33L6733.94,8361.11L6733.56,8361.9L6733.2,8362.7L6732.86,8363.51L6732.55,8364.33L6732.26,8365.16L6731.99,8366L6731.75,8366.84L6731.53,8367.69L6731.34,8368.55L6731.17,8369.42L6731.02,8370.3L6730.9,8371.19L6730.81,8372.09L6730.74,8373L6730.7,8373.92L6730.68,8375.11L6730.68,9311.43L6730.7,9312.63L6730.74,9313.55L6730.81,9314.45L6730.9,9315.35L6731.02,9316.24L6731.17,9317.12L6731.34,9317.99L6731.53,9318.85L6731.75,9319.7L6731.99,9320.55L6732.26,9321.38L6732.55,9322.21L6732.86,9323.03L6733.2,9323.84L6733.56,9324.64L6733.94,9325.43L6734.34,9326.22L6734.77,9326.99L6735.21,9327.75L6735.68,9328.51L6736.18,9329.26L6736.69,9329.99L6737.22,9330.72L6737.77,9331.43L6738.34,9332.13L6738.94,9332.82L6739.55,9333.5L6740.18,9334.17L6740.83,9334.82L6741.51,9335.46L6742.19,9336.09L6742.89,9336.7L6743.61,9337.3L6744.35,9337.88L6745.11,9338.45L6745.87,9339L6746.66,9339.54L6747.46,9340.06L6748.27,9340.56L6749.1,9341.05L6749.94,9341.52L6750.79,9341.97L6751.65,9342.41L6752.53,9342.82L6753.43,9343.23L6754.32,9343.6L6755.23,9343.96L6756.16,9344.31L6757.09,9344.63L6758.03,9344.93L6758.98,9345.22L6759.95,9345.49L6760.92,9345.73L6761.9,9345.96L6762.9,9346.17L6763.9,9346.35L6764.91,9346.52L6765.94,9346.66L6766.97,9346.78L6768.02,9346.89L6769.07,9346.97L6770.14,9347.02L6771.23,9347.06L6772.64,9347.07L7497.07,9347.07L7498.47,9347.06L7499.56,9347.02L7500.63,9346.97L7501.69,9346.89L7502.73,9346.78L7503.77,9346.66L7504.79,9346.52L7505.81,9346.35L7506.81,9346.17L7507.81,9345.96L7508.79,9345.73L7509.75,9345.49L7510.72,9345.22L7511.68,9344.93L7512.61,9344.63L7513.54,9344.31L7514.47,9343.96L7515.38,9343.6L7516.28,9343.23L7517.17,9342.82L7518.05,9342.41L7518.92,9341.97L7519.77,9341.52L7520.61,9341.05L7521.43,9340.56L7522.24,9340.06L7523.05,9339.54L7523.83,9339L7524.6,9338.45L7525.35,9337.88L7526.09,9337.3L7526.81,9336.7L7527.51,9336.09L7528.2,9335.46L7528.88,9334.82L7529.52,9334.17L7530.15,9333.5L7530.77,9332.82L7531.36,9332.13L7531.93,9331.43L7532.49,9330.72L7533.02,9329.99L7533.53,9329.26L7534.02,9328.51L7534.49,9327.75L7534.94,9326.99L7535.36,9326.22L7535.77,9325.43L7536.15,9324.64L7536.51,9323.84L7536.84,9323.03L7537.16,9322.21L7537.45,9321.38L7537.71,9320.55L7537.95,9319.7L7538.17,9318.85L7538.37,9317.99L7538.54,9317.12L7538.68,9316.24L7538.8,9315.35L7538.9,9314.45L7538.97,9313.55L7539.01,9312.63L7539.02,9311.43L7539.02,8375.11L7539.01,8373.92L7538.97,8373L7538.9,8372.09L7538.8,8371.19L7538.68,8370.3L7538.54,8369.42L7538.37,8368.55L7538.17,8367.69L7537.95,8366.84L7537.71,8366L7537.45,8365.16L7537.16,8364.33L7536.84,8363.51L7536.51,8362.7L7536.15,8361.9L7535.77,8361.11L7535.36,8360.33L7534.94,8359.56L7534.49,8358.79L7534.02,8358.04L7533.53,8357.29L7533.02,8356.55L7532.49,8355.83L7531.93,8355.12L7531.36,8354.42L7530.77,8353.73L7530.15,8353.04L7529.52,8352.38L7528.88,8351.73L7528.2,8351.08L7527.51,8350.45L7526.81,8349.84L7526.09,8349.25L7525.35,8348.66L7524.6,8348.09L7523.83,8347.55L7523.05,8347.01L7522.24,8346.48L7521.43,8345.98L7520.61,8345.5L7519.77,8345.02L7518.92,8344.57L7518.05,8344.14L7517.17,8343.72L7516.28,8343.32L7515.38,8342.94L7514.47,8342.58L7513.55,8342.24L7512.62,8341.92L7511.67,8341.61L7510.71,8341.32L7509.75,8341.06L7508.79,8340.81L7507.81,8340.59L7506.81,8340.38L7505.81,8340.19L7504.79,8340.03L7503.77,8339.88L7502.73,8339.76L7501.69,8339.66L7500.63,8339.58L7499.56,8339.52L7498.49,8339.49L7497.08,8339.47L6772.63,8339.47Z" style="fill:rgb(0,153,0);"/>
                    </g>
                    <g transform="matrix(1,0,0,1,-4618.92,-1941.83)">
                        <rect x="6435.18" y="8818.79" width="33.563" height="157.653" style="fill:rgb(0,153,0);fill-rule:nonzero;"/>
                        <path d="M6608.66,8976.45L6641.05,8976.45L6641.05,8818.79L6607.48,8818.79L6607.48,8917.83L6534.45,8818.79L6499.94,8818.79L6499.94,8976.45L6533.5,8976.45L6533.5,8873.63L6608.66,8976.45Z" style="fill:rgb(0,153,0);fill-rule:nonzero;"/>
                    </g>
                </g>
            </g>
            <g id="EOC" transform="matrix(1.11456,0,0,0.231445,-11470.6,351.097)">
                <g>
                    <g transform="matrix(1.15853,0,0,1.44507,-6346.82,-5241.72)">
                        <rect x="6681.69" y="8297.85" width="906.323" height="1090.84" style="fill:none;"/>
                    </g>
                    <g transform="matrix(1.02061,0,0,1.20137,-5362.73,-3217.75)">
                        <path d="M7588.01,8374.85C7588.01,8332.35 7547.4,8297.85 7497.38,8297.85L6772.32,8297.85C6722.3,8297.85 6681.69,8332.35 6681.69,8374.85L6681.69,9311.7C6681.69,9354.19 6722.3,9388.69 6772.32,9388.69L7497.38,9388.69C7547.4,9388.69 7588.01,9354.19 7588.01,9311.7L7588.01,8374.85Z" style="fill:rgb(0,153,0);"/>
                    </g>
                    <g transform="matrix(1,0,0,1,-4624.47,-1941.83)">
                        <path d="M6313.21,8976.45L6424.78,8976.45L6424.78,8946.9L6346.78,8946.9L6346.78,8911.21L6423.12,8911.21L6423.12,8881.67L6346.78,8881.67L6346.78,8848.34L6424.78,8848.34L6424.78,8818.79L6313.21,8818.79L6313.21,8976.45Z" style="fill:rgb(240,255,240);fill-rule:nonzero;"/>
                        <path d="M6443.45,8897.74C6443.45,8945.25 6478.19,8979.28 6525.7,8979.28C6573.45,8979.28 6608.19,8945.25 6608.19,8897.74C6608.19,8850.23 6573.45,8816.19 6525.7,8816.19C6478.19,8816.19 6443.45,8850.23 6443.45,8897.74ZM6573.68,8897.74C6573.68,8927.05 6554.78,8949.5 6525.7,8949.5C6496.63,8949.5 6477.96,8927.05 6477.96,8897.74C6477.96,8868.19 6496.63,8845.98 6525.7,8845.98C6554.78,8845.98 6573.68,8868.19 6573.68,8897.74Z" style="fill:rgb(240,255,240);fill-rule:nonzero;"/>
                        <path d="M6708.17,8979.28C6742.92,8979.28 6762.77,8960.14 6774.12,8940.52L6745.28,8926.57C6738.66,8939.57 6724.48,8949.5 6708.17,8949.5C6679.57,8949.5 6658.77,8927.52 6658.77,8897.74C6658.77,8867.96 6679.57,8845.98 6708.17,8845.98C6724.48,8845.98 6738.66,8856.14 6745.28,8868.9L6774.12,8854.72C6763.01,8835.1 6742.92,8816.19 6708.17,8816.19C6660.9,8816.19 6624.27,8849.28 6624.27,8897.74C6624.27,8946.19 6660.9,8979.28 6708.17,8979.28Z" style="fill:rgb(240,255,240);fill-rule:nonzero;"/>
                    </g>
                </g>
            </g>
            <g id="TRIG" transform="matrix(1.11456,0,0,0.231445,-12547.3,351.078)">
                <g>
                    <g transform="matrix(1.15853,0,0,1.44507,-6346.82,-5241.72)">
                        <rect x="6681.69" y="8297.85" width="906.323" height="1090.84" style="fill:none;"/>
                    </g>
                    <g transform="matrix(1.02061,0,0,1.20137,-5362.73,-3217.75)">
                        <path d="M7499.72,8297.88L7502.04,8297.95L7504.35,8298.08L7506.64,8298.25L7508.92,8298.47L7511.18,8298.74L7513.42,8299.06L7515.64,8299.42L7517.84,8299.83L7520.02,8300.28L7522.18,8300.77L7524.32,8301.32L7526.44,8301.9L7528.53,8302.53L7530.6,8303.2L7532.65,8303.91L7534.67,8304.66L7536.66,8305.45L7538.63,8306.28L7540.57,8307.15L7542.48,8308.06L7544.36,8309.01L7546.22,8309.99L7548.04,8311.01L7549.83,8312.07L7551.59,8313.16L7553.32,8314.28L7555.02,8315.44L7556.68,8316.64L7558.31,8317.86L7559.9,8319.12L7561.46,8320.41L7562.98,8321.74L7564.46,8323.09L7565.9,8324.47L7567.31,8325.88L7568.67,8327.32L7570,8328.79L7571.28,8330.29L7572.53,8331.81L7573.73,8333.36L7574.89,8334.93L7576,8336.53L7577.07,8338.16L7578.09,8339.81L7579.07,8341.48L7580,8343.17L7580.89,8344.89L7581.72,8346.63L7582.51,8348.39L7583.25,8350.16L7583.94,8351.96L7584.57,8353.78L7585.16,8355.61L7585.69,8357.47L7586.17,8359.34L7586.6,8361.23L7586.97,8363.13L7587.29,8365.05L7587.55,8366.98L7587.75,8368.93L7587.9,8370.89L7587.99,8372.86L7588.01,8374.85L7588.01,9311.7L7587.99,9313.68L7587.9,9315.66L7587.75,9317.62L7587.55,9319.56L7587.29,9321.5L7586.97,9323.42L7586.6,9325.32L7586.17,9327.21L7585.69,9329.08L7585.16,9330.93L7584.57,9332.76L7583.94,9334.58L7583.25,9336.38L7582.51,9338.16L7581.72,9339.92L7580.89,9341.66L7580,9343.37L7579.07,9345.07L7578.09,9346.74L7577.07,9348.39L7576,9350.01L7574.89,9351.61L7573.73,9353.18L7572.53,9354.73L7571.28,9356.26L7570,9357.75L7568.67,9359.22L7567.31,9360.66L7565.9,9362.07L7564.46,9363.46L7562.98,9364.81L7561.46,9366.13L7559.9,9367.42L7558.31,9368.68L7556.68,9369.91L7555.02,9371.1L7553.32,9372.26L7551.59,9373.39L7549.83,9374.48L7548.04,9375.53L7546.22,9376.56L7544.36,9377.54L7542.48,9378.49L7540.57,9379.39L7538.63,9380.26L7536.66,9381.09L7534.67,9381.89L7532.65,9382.64L7530.6,9383.35L7528.53,9384.02L7526.44,9384.64L7524.32,9385.23L7522.18,9385.77L7520.02,9386.27L7517.84,9386.72L7515.64,9387.13L7513.42,9387.49L7511.18,9387.8L7508.92,9388.07L7506.64,9388.29L7504.35,9388.47L7502.04,9388.59L7499.72,9388.67L7497.38,9388.69L6772.32,9388.69L6769.99,9388.67L6767.66,9388.59L6765.36,9388.47L6763.06,9388.29L6760.79,9388.07L6758.53,9387.8L6756.29,9387.49L6754.07,9387.13L6751.87,9386.72L6749.68,9386.27L6747.52,9385.77L6745.39,9385.23L6743.27,9384.64L6741.18,9384.02L6739.11,9383.35L6737.06,9382.64L6735.04,9381.89L6733.05,9381.09L6731.08,9380.26L6729.14,9379.39L6727.23,9378.49L6725.34,9377.54L6723.49,9376.56L6721.66,9375.53L6719.87,9374.48L6718.11,9373.39L6716.38,9372.26L6714.69,9371.1L6713.03,9369.91L6711.4,9368.68L6709.81,9367.42L6708.25,9366.13L6706.73,9364.81L6705.25,9363.46L6703.8,9362.07L6702.4,9360.66L6701.03,9359.22L6699.71,9357.75L6698.42,9356.26L6697.18,9354.73L6695.98,9353.18L6694.82,9351.61L6693.71,9350.01L6692.64,9348.39L6691.61,9346.74L6690.63,9345.07L6689.7,9343.37L6688.82,9341.66L6687.98,9339.92L6687.19,9338.16L6686.46,9336.38L6685.77,9334.58L6685.13,9332.76L6684.55,9330.93L6684.01,9329.08L6683.53,9327.21L6683.11,9325.32L6682.74,9323.42L6682.42,9321.5L6682.16,9319.56L6681.96,9317.62L6681.81,9315.66L6681.72,9313.68L6681.69,9311.7L6681.69,8374.85L6681.72,8372.86L6681.81,8370.89L6681.96,8368.93L6682.16,8366.98L6682.42,8365.05L6682.74,8363.13L6683.11,8361.23L6683.53,8359.34L6684.01,8357.47L6684.55,8355.61L6685.13,8353.78L6685.77,8351.96L6686.46,8350.16L6687.19,8348.39L6687.98,8346.63L6688.82,8344.89L6689.7,8343.17L6690.63,8341.48L6691.61,8339.81L6692.64,8338.16L6693.71,8336.53L6694.82,8334.93L6695.98,8333.36L6697.18,8331.81L6698.42,8330.29L6699.71,8328.79L6701.03,8327.32L6702.4,8325.88L6703.8,8324.47L6705.25,8323.09L6706.73,8321.74L6708.25,8320.41L6709.81,8319.12L6711.4,8317.86L6713.03,8316.64L6714.69,8315.44L6716.38,8314.28L6718.11,8313.16L6719.87,8312.07L6721.66,8311.01L6723.49,8309.99L6725.34,8309.01L6727.23,8308.06L6729.14,8307.15L6731.08,8306.28L6733.05,8305.45L6735.04,8304.66L6737.06,8303.91L6739.11,8303.2L6741.18,8302.53L6743.27,8301.9L6745.39,8301.32L6747.52,8300.77L6749.68,8300.28L6751.87,8299.83L6754.07,8299.42L6756.29,8299.06L6758.53,8298.74L6760.79,8298.47L6763.06,8298.25L6765.36,8298.08L6767.66,8297.95L6769.99,8297.88L6772.32,8297.85L7497.38,8297.85L7499.72,8297.88ZM6772.63,8339.47L6771.23,8339.49L6770.15,8339.52L6769.07,8339.58L6768.01,8339.66L6766.97,8339.76L6765.94,8339.88L6764.91,8340.03L6763.9,8340.19L6762.89,8340.38L6761.91,8340.58L6760.93,8340.81L6759.94,8341.06L6758.98,8341.32L6758.03,8341.61L6757.09,8341.91L6756.15,8342.24L6755.23,8342.58L6754.32,8342.94L6753.42,8343.32L6752.53,8343.72L6751.66,8344.14L6750.8,8344.57L6749.94,8345.02L6749.1,8345.5L6748.27,8345.99L6747.46,8346.49L6746.67,8347L6745.88,8347.54L6745.1,8348.1L6744.35,8348.66L6743.61,8349.25L6742.89,8349.84L6742.19,8350.45L6741.5,8351.09L6740.83,8351.72L6740.18,8352.38L6739.55,8353.05L6738.94,8353.72L6738.35,8354.41L6737.77,8355.12L6737.22,8355.83L6736.69,8356.56L6736.17,8357.29L6735.68,8358.03L6735.21,8358.79L6734.77,8359.56L6734.34,8360.33L6733.94,8361.11L6733.56,8361.91L6733.2,8362.71L6732.86,8363.51L6732.55,8364.33L6732.26,8365.16L6731.99,8365.99L6731.75,8366.84L6731.53,8367.69L6731.34,8368.55L6731.17,8369.42L6731.02,8370.3L6730.9,8371.19L6730.81,8372.09L6730.74,8373L6730.7,8373.92L6730.68,8375.11L6730.68,9311.43L6730.7,9312.63L6730.74,9313.55L6730.81,9314.46L6730.9,9315.35L6731.02,9316.24L6731.17,9317.12L6731.34,9317.99L6731.53,9318.85L6731.75,9319.71L6731.99,9320.55L6732.26,9321.39L6732.55,9322.21L6732.86,9323.03L6733.2,9323.84L6733.56,9324.64L6733.94,9325.43L6734.34,9326.21L6734.77,9326.99L6735.22,9327.76L6735.68,9328.51L6736.17,9329.25L6736.69,9329.99L6737.22,9330.71L6737.77,9331.43L6738.34,9332.13L6738.94,9332.82L6739.55,9333.5L6740.18,9334.17L6740.83,9334.82L6741.5,9335.46L6742.19,9336.08L6742.89,9336.7L6743.62,9337.3L6744.35,9337.88L6745.1,9338.45L6745.88,9339L6746.66,9339.54L6747.46,9340.06L6748.27,9340.56L6749.1,9341.05L6749.94,9341.52L6750.8,9341.97L6751.66,9342.41L6752.53,9342.82L6753.42,9343.22L6754.32,9343.6L6755.23,9343.96L6756.15,9344.31L6757.09,9344.63L6758.03,9344.94L6758.98,9345.22L6759.94,9345.49L6760.92,9345.73L6761.91,9345.96L6762.9,9346.17L6763.9,9346.35L6764.91,9346.52L6765.93,9346.66L6766.97,9346.78L6768.02,9346.89L6769.07,9346.97L6770.14,9347.02L6771.23,9347.06L6772.64,9347.07L7497.07,9347.07L7498.47,9347.06L7499.56,9347.02L7500.63,9346.97L7501.69,9346.89L7502.73,9346.78L7503.78,9346.66L7504.79,9346.52L7505.81,9346.35L7506.81,9346.17L7507.8,9345.96L7508.79,9345.73L7509.76,9345.49L7510.72,9345.22L7511.67,9344.94L7512.61,9344.63L7513.55,9344.31L7514.47,9343.96L7515.38,9343.6L7516.28,9343.22L7517.17,9342.82L7518.05,9342.41L7518.91,9341.97L7519.77,9341.52L7520.61,9341.05L7521.43,9340.56L7522.25,9340.06L7523.05,9339.54L7523.83,9339L7524.6,9338.45L7525.35,9337.88L7526.09,9337.3L7526.81,9336.7L7527.52,9336.08L7528.2,9335.46L7528.87,9334.82L7529.52,9334.17L7530.15,9333.5L7530.77,9332.82L7531.36,9332.13L7531.93,9331.43L7532.49,9330.71L7533.02,9329.99L7533.53,9329.25L7534.02,9328.51L7534.49,9327.76L7534.94,9326.99L7535.37,9326.21L7535.77,9325.43L7536.15,9324.64L7536.51,9323.84L7536.84,9323.03L7537.16,9322.21L7537.45,9321.39L7537.71,9320.55L7537.95,9319.71L7538.17,9318.85L7538.37,9317.99L7538.54,9317.12L7538.68,9316.24L7538.8,9315.35L7538.9,9314.46L7538.97,9313.55L7539.01,9312.63L7539.02,9311.43L7539.02,8375.11L7539.01,8373.92L7538.97,8373L7538.9,8372.09L7538.8,8371.19L7538.68,8370.3L7538.54,8369.42L7538.37,8368.55L7538.17,8367.69L7537.95,8366.84L7537.71,8365.99L7537.45,8365.16L7537.16,8364.33L7536.84,8363.51L7536.51,8362.71L7536.15,8361.91L7535.77,8361.11L7535.36,8360.33L7534.94,8359.56L7534.49,8358.79L7534.02,8358.03L7533.53,8357.29L7533.02,8356.56L7532.49,8355.83L7531.93,8355.12L7531.36,8354.41L7530.77,8353.72L7530.16,8353.05L7529.52,8352.38L7528.87,8351.72L7528.2,8351.09L7527.51,8350.45L7526.81,8349.84L7526.09,8349.25L7525.35,8348.66L7524.6,8348.1L7523.83,8347.54L7523.04,8347L7522.25,8346.49L7521.44,8345.99L7520.61,8345.5L7519.77,8345.02L7518.91,8344.57L7518.05,8344.14L7517.17,8343.72L7516.28,8343.32L7515.38,8342.94L7514.47,8342.58L7513.55,8342.24L7512.61,8341.91L7511.67,8341.61L7510.72,8341.32L7509.76,8341.06L7508.78,8340.81L7507.8,8340.58L7506.82,8340.38L7505.81,8340.19L7504.79,8340.03L7503.77,8339.88L7502.73,8339.76L7501.7,8339.66L7500.63,8339.58L7499.55,8339.52L7498.47,8339.49L7497.08,8339.47L6772.63,8339.47Z" style="fill:rgb(0,153,0);"/>
                    </g>
                    <g transform="matrix(1,0,0,1,-4616.32,-1941.83)">
                        <path d="M6327.87,8976.45L6361.67,8976.45L6361.67,8848.34L6407.52,8848.34L6407.52,8818.79L6281.78,8818.79L6281.78,8848.34L6327.87,8848.34L6327.87,8976.45Z" style="fill:rgb(0,153,0);fill-rule:nonzero;"/>
                        <path d="M6518.14,8976.45L6556.67,8976.45L6521.21,8916.41C6538.23,8912.39 6555.72,8897.5 6555.72,8869.61C6555.72,8840.3 6535.63,8818.79 6502.78,8818.79L6429.03,8818.79L6429.03,8976.45L6462.59,8976.45L6462.59,8920.43L6487.18,8920.43L6518.14,8976.45ZM6521.45,8869.61C6521.45,8882.85 6511.28,8890.88 6497.81,8890.88L6462.59,8890.88L6462.59,8848.34L6497.81,8848.34C6511.28,8848.34 6521.45,8856.38 6521.45,8869.61Z" style="fill:rgb(0,153,0);fill-rule:nonzero;"/>
                        <rect x="6581.01" y="8818.79" width="33.563" height="157.653" style="fill:rgb(0,153,0);fill-rule:nonzero;"/>
                        <path d="M6638.21,8897.74C6638.21,8947.37 6676.03,8979.52 6722.12,8979.52C6750.72,8979.52 6773.17,8967.7 6789.24,8949.74L6789.24,8889.23L6714.08,8889.23L6714.08,8918.54L6755.68,8918.54L6755.68,8937.45C6749.3,8943.36 6736.06,8949.5 6722.12,8949.5C6693.52,8949.5 6672.72,8927.52 6672.72,8897.74C6672.72,8867.96 6693.52,8845.98 6722.12,8845.98C6738.9,8845.98 6752.37,8855.43 6759.46,8866.54L6787.35,8851.41C6775.54,8832.74 6754.97,8816.19 6722.12,8816.19C6676.03,8816.19 6638.21,8847.87 6638.21,8897.74Z" style="fill:rgb(0,153,0);fill-rule:nonzero;"/>
                    </g>
                </g>
            </g>
            <g id="ACTIVE" transform="matrix(1.11456,0,0,0.231445,-11470.6,3.90999)">
                <g>
                    <g transform="matrix(1.15853,0,0,1.44507,-6346.82,-5241.72)">
                        <rect x="6681.69" y="8297.85" width="906.323" height="1090.84" style="fill:none;"/>
                    </g>
                    <g transform="matrix(1.02061,0,0,1.20137,-5362.73,-3217.75)">
                        <path d="M7588.01,8374.85C7588.01,8332.35 7547.4,8297.85 7497.38,8297.85L6772.32,8297.85C6722.3,8297.85 6681.69,8332.35 6681.69,8374.85L6681.69,9311.7C6681.69,9354.19 6722.3,9388.69 6772.32,9388.69L7497.38,9388.69C7547.4,9388.69 7588.01,9354.19 7588.01,9311.7L7588.01,8374.85Z" style="fill:rgb(0,153,0);"/>
                    </g>
                    <g transform="matrix(1,0,0,1,-4613.01,-1941.83)">
                        <path d="M6253.53,8976.45L6291.82,8976.45L6231.08,8818.79L6189.01,8818.79L6128.03,8976.45L6166.32,8976.45L6176.24,8949.74L6243.84,8949.74L6253.53,8976.45ZM6210.04,8852.36L6234.62,8920.19L6185.46,8920.19L6210.04,8852.36Z" style="fill:rgb(240,255,240);fill-rule:nonzero;"/>
                        <path d="M6374.79,8979.28C6409.53,8979.28 6429.39,8960.14 6440.73,8940.52L6411.9,8926.57C6405.28,8939.57 6391.1,8949.5 6374.79,8949.5C6346.19,8949.5 6325.39,8927.52 6325.39,8897.74C6325.39,8867.96 6346.19,8845.98 6374.79,8845.98C6391.1,8845.98 6405.28,8856.14 6411.9,8868.9L6440.73,8854.72C6429.62,8835.1 6409.53,8816.19 6374.79,8816.19C6327.51,8816.19 6290.88,8849.28 6290.88,8897.74C6290.88,8946.19 6327.51,8979.28 6374.79,8979.28Z" style="fill:rgb(240,255,240);fill-rule:nonzero;"/>
                        <path d="M6497.22,8976.45L6531.02,8976.45L6531.02,8848.34L6576.88,8848.34L6576.88,8818.79L6451.13,8818.79L6451.13,8848.34L6497.22,8848.34L6497.22,8976.45Z" style="fill:rgb(240,255,240);fill-rule:nonzero;"/>
                        <rect x="6598.38" y="8818.79" width="33.563" height="157.653" style="fill:rgb(240,255,240);fill-rule:nonzero;"/>
                        <path d="M6707.35,8976.45L6749.42,8976.45L6810.16,8818.79L6771.87,8818.79L6728.38,8940.05L6684.66,8818.79L6646.36,8818.79L6707.35,8976.45Z" style="fill:rgb(240,255,240);fill-rule:nonzero;"/>
                        <path d="M6824.82,8976.45L6936.38,8976.45L6936.38,8946.9L6858.38,8946.9L6858.38,8911.21L6934.73,8911.21L6934.73,8881.67L6858.38,8881.67L6858.38,8848.34L6936.38,8848.34L6936.38,8818.79L6824.82,8818.79L6824.82,8976.45Z" style="fill:rgb(240,255,240);fill-rule:nonzero;"/>
                    </g>
                </g>
            </g>
            <g id="DEFER" transform="matrix(1.11456,0,0,0.231445,-12547.3,3.90999)">
                <g>
                    <g transform="matrix(1.15853,0,0,1.44507,-6346.82,-5241.72)">
                        <rect x="6681.69" y="8297.85" width="906.323" height="1090.84" style="fill:none;"/>
                    </g>
                    <g transform="matrix(1.02061,0,0,1.20137,-5362.73,-3217.75)">
                        <path d="M7499.72,8297.88L7502.04,8297.95L7504.35,8298.08L7506.64,8298.25L7508.92,8298.47L7511.18,8298.74L7513.42,8299.06L7515.64,8299.42L7517.84,8299.83L7520.02,8300.28L7522.18,8300.77L7524.32,8301.32L7526.44,8301.9L7528.53,8302.53L7530.6,8303.2L7532.65,8303.91L7534.67,8304.66L7536.66,8305.45L7538.63,8306.28L7540.57,8307.15L7542.48,8308.06L7544.36,8309.01L7546.22,8309.99L7548.04,8311.01L7549.83,8312.07L7551.59,8313.16L7553.32,8314.28L7555.02,8315.44L7556.68,8316.64L7558.31,8317.86L7559.9,8319.12L7561.46,8320.41L7562.98,8321.74L7564.46,8323.09L7565.9,8324.47L7567.31,8325.88L7568.67,8327.32L7570,8328.79L7571.28,8330.29L7572.53,8331.81L7573.73,8333.36L7574.89,8334.93L7576,8336.53L7577.07,8338.16L7578.09,8339.81L7579.07,8341.48L7580,8343.17L7580.89,8344.89L7581.72,8346.63L7582.51,8348.39L7583.25,8350.16L7583.94,8351.96L7584.57,8353.78L7585.16,8355.61L7585.69,8357.47L7586.17,8359.34L7586.6,8361.23L7586.97,8363.13L7587.29,8365.05L7587.55,8366.98L7587.75,8368.93L7587.9,8370.89L7587.99,8372.86L7588.01,8374.85L7588.01,9311.7L7587.99,9313.68L7587.9,9315.66L7587.75,9317.62L7587.55,9319.56L7587.29,9321.5L7586.97,9323.42L7586.6,9325.32L7586.17,9327.21L7585.69,9329.08L7585.16,9330.93L7584.57,9332.76L7583.94,9334.58L7583.25,9336.38L7582.51,9338.16L7581.72,9339.92L7580.89,9341.66L7580,9343.37L7579.07,9345.07L7578.09,9346.74L7577.07,9348.39L7576,9350.01L7574.89,9351.61L7573.73,9353.18L7572.53,9354.73L7571.28,9356.26L7570,9357.75L7568.67,9359.22L7567.31,9360.66L7565.9,9362.07L7564.46,9363.46L7562.98,9364.81L7561.46,9366.13L7559.9,9367.42L7558.31,9368.68L7556.68,9369.91L7555.02,9371.1L7553.32,9372.26L7551.59,9373.39L7549.83,9374.48L7548.04,9375.53L7546.22,9376.56L7544.36,9377.54L7542.48,9378.49L7540.57,9379.39L7538.63,9380.26L7536.66,9381.09L7534.67,9381.89L7532.65,9382.64L7530.6,9383.35L7528.53,9384.02L7526.44,9384.64L7524.32,9385.23L7522.18,9385.77L7520.02,9386.27L7517.84,9386.72L7515.64,9387.13L7513.42,9387.49L7511.18,9387.8L7508.92,9388.07L7506.64,9388.29L7504.35,9388.47L7502.04,9388.59L7499.72,9388.67L7497.38,9388.69L6772.32,9388.69L6769.99,9388.67L6767.66,9388.59L6765.36,9388.47L6763.06,9388.29L6760.79,9388.07L6758.53,9387.8L6756.29,9387.49L6754.07,9387.13L6751.87,9386.72L6749.68,9386.27L6747.52,9385.77L6745.39,9385.23L6743.27,9384.64L6741.18,9384.02L6739.11,9383.35L6737.06,9382.64L6735.04,9381.89L6733.05,9381.09L6731.08,9380.26L6729.14,9379.39L6727.23,9378.49L6725.34,9377.54L6723.49,9376.56L6721.66,9375.53L6719.87,9374.48L6718.11,9373.39L6716.38,9372.26L6714.69,9371.1L6713.03,9369.91L6711.4,9368.68L6709.81,9367.42L6708.25,9366.13L6706.73,9364.81L6705.25,9363.46L6703.8,9362.07L6702.4,9360.66L6701.03,9359.22L6699.71,9357.75L6698.42,9356.26L6697.18,9354.73L6695.98,9353.18L6694.82,9351.61L6693.71,9350.01L6692.64,9348.39L6691.61,9346.74L6690.63,9345.07L6689.7,9343.37L6688.82,9341.66L6687.98,9339.92L6687.19,9338.16L6686.46,9336.38L6685.77,9334.58L6685.13,9332.76L6684.55,9330.93L6684.01,9329.08L6683.53,9327.21L6683.11,9325.32L6682.74,9323.42L6682.42,9321.5L6682.16,9319.56L6681.96,9317.62L6681.81,9315.66L6681.72,9313.68L6681.69,9311.7L6681.69,8374.85L6681.72,8372.86L6681.81,8370.89L6681.96,8368.93L6682.16,8366.98L6682.42,8365.05L6682.74,8363.13L6683.11,8361.23L6683.53,8359.34L6684.01,8357.47L6684.55,8355.61L6685.13,8353.78L6685.77,8351.96L6686.46,8350.16L6687.19,8348.39L6687.98,8346.63L6688.82,8344.89L6689.7,8343.17L6690.63,8341.48L6691.61,8339.81L6692.64,8338.16L6693.71,8336.53L6694.82,8334.93L6695.98,8333.36L6697.18,8331.81L6698.42,8330.29L6699.71,8328.79L6701.03,8327.32L6702.4,8325.88L6703.8,8324.47L6705.25,8323.09L6706.73,8321.74L6708.25,8320.41L6709.81,8319.12L6711.4,8317.86L6713.03,8316.64L6714.69,8315.44L6716.38,8314.28L6718.11,8313.16L6719.87,8312.07L6721.66,8311.01L6723.49,8309.99L6725.34,8309.01L6727.23,8308.06L6729.14,8307.15L6731.08,8306.28L6733.05,8305.45L6735.04,8304.66L6737.06,8303.91L6739.11,8303.2L6741.18,8302.53L6743.27,8301.9L6745.39,8301.32L6747.52,8300.77L6749.68,8300.28L6751.87,8299.83L6754.07,8299.42L6756.29,8299.06L6758.53,8298.74L6760.79,8298.47L6763.06,8298.25L6765.36,8298.08L6767.66,8297.95L6769.99,8297.88L6772.32,8297.85L7497.38,8297.85L7499.72,8297.88ZM6772.63,8339.47L6771.23,8339.49L6770.15,8339.52L6769.07,8339.58L6768.02,8339.66L6766.97,8339.76L6765.94,8339.88L6764.91,8340.03L6763.9,8340.19L6762.9,8340.38L6761.9,8340.59L6760.92,8340.81L6759.95,8341.06L6758.98,8341.32L6758.03,8341.61L6757.09,8341.91L6756.16,8342.24L6755.23,8342.58L6754.32,8342.94L6753.43,8343.32L6752.53,8343.72L6751.66,8344.14L6750.79,8344.57L6749.94,8345.02L6749.1,8345.5L6748.27,8345.98L6747.46,8346.48L6746.66,8347.01L6745.88,8347.54L6745.11,8348.1L6744.35,8348.66L6743.61,8349.25L6742.89,8349.85L6742.19,8350.46L6741.5,8351.08L6740.83,8351.73L6740.18,8352.38L6739.55,8353.05L6738.94,8353.72L6738.35,8354.41L6737.77,8355.12L6737.22,8355.83L6736.69,8356.55L6736.18,8357.29L6735.68,8358.04L6735.21,8358.79L6734.77,8359.56L6734.34,8360.33L6733.94,8361.11L6733.56,8361.91L6733.2,8362.7L6732.86,8363.51L6732.55,8364.33L6732.26,8365.16L6731.99,8365.99L6731.75,8366.84L6731.53,8367.69L6731.34,8368.55L6731.17,8369.42L6731.02,8370.3L6730.9,8371.19L6730.81,8372.09L6730.74,8373L6730.7,8373.92L6730.68,8375.11L6730.68,9311.43L6730.7,9312.63L6730.74,9313.55L6730.81,9314.46L6730.9,9315.35L6731.02,9316.24L6731.17,9317.12L6731.34,9317.99L6731.53,9318.85L6731.75,9319.7L6731.99,9320.55L6732.26,9321.38L6732.55,9322.21L6732.86,9323.03L6733.2,9323.84L6733.56,9324.64L6733.94,9325.43L6734.34,9326.22L6734.77,9326.99L6735.21,9327.75L6735.68,9328.51L6736.17,9329.25L6736.69,9329.99L6737.22,9330.71L6737.77,9331.43L6738.35,9332.13L6738.94,9332.82L6739.55,9333.5L6740.18,9334.17L6740.83,9334.82L6741.5,9335.46L6742.19,9336.09L6742.89,9336.7L6743.61,9337.3L6744.36,9337.88L6745.11,9338.45L6745.87,9339L6746.66,9339.54L6747.46,9340.06L6748.27,9340.56L6749.11,9341.05L6749.94,9341.52L6750.79,9341.97L6751.65,9342.41L6752.53,9342.82L6753.42,9343.22L6754.32,9343.6L6755.24,9343.97L6756.15,9344.31L6757.08,9344.63L6758.03,9344.94L6758.99,9345.22L6759.94,9345.49L6760.92,9345.73L6761.91,9345.96L6762.89,9346.16L6763.9,9346.35L6764.91,9346.52L6765.94,9346.66L6766.97,9346.78L6768.02,9346.89L6769.09,9346.97L6770.14,9347.02L6771.22,9347.06L6772.63,9347.07L7497.08,9347.07L7498.49,9347.06L7499.56,9347.02L7500.62,9346.97L7501.69,9346.89L7502.73,9346.78L7503.77,9346.66L7504.79,9346.52L7505.81,9346.35L7506.82,9346.16L7507.8,9345.96L7508.79,9345.73L7509.76,9345.49L7510.71,9345.22L7511.67,9344.94L7512.62,9344.63L7513.55,9344.31L7514.47,9343.97L7515.38,9343.6L7516.28,9343.22L7517.17,9342.82L7518.05,9342.41L7518.92,9341.97L7519.77,9341.52L7520.6,9341.05L7521.43,9340.56L7522.25,9340.06L7523.05,9339.54L7523.83,9339L7524.6,9338.45L7525.35,9337.89L7526.09,9337.3L7526.81,9336.7L7527.51,9336.09L7528.2,9335.46L7528.87,9334.82L7529.52,9334.17L7530.16,9333.5L7530.77,9332.82L7531.36,9332.13L7531.93,9331.43L7532.49,9330.71L7533.02,9329.99L7533.53,9329.25L7534.02,9328.51L7534.49,9327.75L7534.94,9326.99L7535.36,9326.22L7535.77,9325.43L7536.15,9324.64L7536.51,9323.84L7536.84,9323.03L7537.16,9322.21L7537.45,9321.38L7537.71,9320.55L7537.95,9319.7L7538.17,9318.85L7538.37,9317.99L7538.54,9317.12L7538.68,9316.24L7538.8,9315.35L7538.9,9314.46L7538.97,9313.55L7539.01,9312.63L7539.02,9311.43L7539.02,8375.11L7539.01,8373.92L7538.97,8373L7538.9,8372.09L7538.8,8371.19L7538.68,8370.3L7538.54,8369.42L7538.37,8368.55L7538.17,8367.69L7537.95,8366.84L7537.71,8366L7537.45,8365.16L7537.16,8364.33L7536.84,8363.51L7536.51,8362.7L7536.15,8361.9L7535.77,8361.11L7535.36,8360.33L7534.94,8359.56L7534.49,8358.79L7534.02,8358.03L7533.53,8357.29L7533.02,8356.55L7532.49,8355.83L7531.93,8355.12L7531.36,8354.41L7530.77,8353.72L7530.15,8353.04L7529.52,8352.38L7528.87,8351.73L7528.2,8351.08L7527.52,8350.46L7526.81,8349.85L7526.09,8349.25L7525.35,8348.66L7524.6,8348.1L7523.83,8347.54L7523.05,8347.01L7522.24,8346.48L7521.43,8345.98L7520.61,8345.5L7519.77,8345.02L7518.91,8344.57L7518.05,8344.14L7517.17,8343.72L7516.28,8343.32L7515.38,8342.94L7514.47,8342.58L7513.55,8342.24L7512.61,8341.91L7511.68,8341.61L7510.72,8341.32L7509.76,8341.06L7508.78,8340.81L7507.8,8340.59L7506.81,8340.38L7505.81,8340.19L7504.79,8340.03L7503.77,8339.88L7502.73,8339.76L7501.69,8339.66L7500.63,8339.58L7499.56,8339.52L7498.47,8339.49L7497.07,8339.47L6772.63,8339.47Z" style="fill:rgb(0,153,0);"/>
                    </g>
                    <g transform="matrix(1,0,0,1,-4622.34,-1941.83)">
                        <path d="M6187.59,8976.45L6249.75,8976.45C6299.15,8976.45 6333.42,8945.25 6333.42,8897.74C6333.42,8850.23 6299.15,8818.79 6249.75,8818.79L6187.59,8818.79L6187.59,8976.45ZM6221.15,8946.9L6221.15,8848.34L6249.75,8848.34C6282.13,8848.34 6299.15,8869.85 6299.15,8897.74C6299.15,8924.45 6280.95,8946.9 6249.75,8946.9L6221.15,8946.9Z" style="fill:rgb(0,153,0);fill-rule:nonzero;"/>
                        <path d="M6357.3,8976.45L6468.86,8976.45L6468.86,8946.9L6390.86,8946.9L6390.86,8911.21L6467.2,8911.21L6467.2,8881.67L6390.86,8881.67L6390.86,8848.34L6468.86,8848.34L6468.86,8818.79L6357.3,8818.79L6357.3,8976.45Z" style="fill:rgb(0,153,0);fill-rule:nonzero;"/>
                        <path d="M6495.09,8976.45L6528.66,8976.45L6528.66,8911.21L6605,8911.21L6605,8881.67L6528.66,8881.67L6528.66,8848.34L6606.66,8848.34L6606.66,8818.79L6495.09,8818.79L6495.09,8976.45Z" style="fill:rgb(0,153,0);fill-rule:nonzero;"/>
                        <path d="M6630.06,8976.45L6741.62,8976.45L6741.62,8946.9L6663.62,8946.9L6663.62,8911.21L6739.96,8911.21L6739.96,8881.67L6663.62,8881.67L6663.62,8848.34L6741.62,8848.34L6741.62,8818.79L6630.06,8818.79L6630.06,8976.45Z" style="fill:rgb(0,153,0);fill-rule:nonzero;"/>
                        <path d="M6856.96,8976.45L6895.49,8976.45L6860.04,8916.41C6877.05,8912.39 6894.54,8897.5 6894.54,8869.61C6894.54,8840.3 6874.45,8818.79 6841.6,8818.79L6767.86,8818.79L6767.86,8976.45L6801.42,8976.45L6801.42,8920.43L6826,8920.43L6856.96,8976.45ZM6860.27,8869.61C6860.27,8882.85 6850.11,8890.88 6836.64,8890.88L6801.42,8890.88L6801.42,8848.34L6836.64,8848.34C6850.11,8848.34 6860.27,8856.38 6860.27,8869.61Z" style="fill:rgb(0,153,0);fill-rule:nonzero;"/>
                    </g>
                </g>
            </g>
            <g id="Duration" transform="matrix(1.11456,0,0,0.23144,-13178,935.062)">
                <g>
                    <g transform="matrix(2.25661,0,0,2.91913,-14817,-2003.28)">
                        <rect x="7594.95" y="875.534" width="576.086" height="658.944" style="fill:none;"/>
                    </g>
                    <g transform="matrix(1,0,0,1,-4310.51,36.0859)">
                        <path d="M6525.57,724.516L6606.29,724.516C6670.44,724.516 6714.94,684.003 6714.94,622.313C6714.94,560.623 6670.44,519.803 6606.29,519.803L6525.57,519.803L6525.57,724.516ZM6569.15,686.152L6569.15,558.167L6606.29,558.167C6648.34,558.167 6670.44,586.097 6670.44,622.313C6670.44,656.995 6646.81,686.152 6606.29,686.152L6569.15,686.152Z" style="fill:rgb(0,153,0);fill-rule:nonzero;"/>
                        <path d="M6745.94,642.876C6745.94,693.211 6776.02,728.199 6838.32,728.199C6900.62,728.199 6930.7,693.518 6930.7,642.569L6930.7,519.803L6886.2,519.803L6886.2,641.342C6886.2,669.885 6869.93,689.528 6838.32,689.528C6806.71,689.528 6790.14,669.885 6790.14,641.342L6790.14,519.803L6745.94,519.803L6745.94,642.876Z" style="fill:rgb(0,153,0);fill-rule:nonzero;"/>
                        <path d="M7086.62,724.516L7136.64,724.516L7090.61,646.559C7112.7,641.342 7135.42,622.006 7135.42,585.79C7135.42,547.732 7109.33,519.803 7066.67,519.803L6970.91,519.803L6970.91,724.516L7014.49,724.516L7014.49,651.777L7046.41,651.777L7086.62,724.516ZM7090.91,585.79C7090.91,602.977 7077.72,613.412 7060.22,613.412L7014.49,613.412L7014.49,558.167L7060.22,558.167C7077.72,558.167 7090.91,568.603 7090.91,585.79Z" style="fill:rgb(0,153,0);fill-rule:nonzero;"/>
                        <path d="M7309.44,724.516L7359.16,724.516L7280.28,519.803L7225.65,519.803L7146.47,724.516L7196.19,724.516L7209.08,689.835L7296.86,689.835L7309.44,724.516ZM7252.97,563.385L7284.89,651.47L7221.05,651.47L7252.97,563.385Z" style="fill:rgb(0,153,0);fill-rule:nonzero;"/>
                        <path d="M7405.81,724.516L7449.7,724.516L7449.7,558.167L7509.24,558.167L7509.24,519.803L7345.96,519.803L7345.96,558.167L7405.81,558.167L7405.81,724.516Z" style="fill:rgb(0,153,0);fill-rule:nonzero;"/>
                        <rect x="7537.17" y="519.803" width="43.582" height="204.713" style="fill:rgb(0,153,0);fill-rule:nonzero;"/>
                        <path d="M7611.44,622.313C7611.44,684.003 7656.56,728.199 7718.25,728.199C7780.25,728.199 7825.36,684.003 7825.36,622.313C7825.36,560.623 7780.25,516.427 7718.25,516.427C7656.56,516.427 7611.44,560.623 7611.44,622.313ZM7780.56,622.313C7780.56,660.371 7756,689.528 7718.25,689.528C7680.5,689.528 7656.25,660.371 7656.25,622.313C7656.25,583.948 7680.5,555.098 7718.25,555.098C7756,555.098 7780.56,583.948 7780.56,622.313Z" style="fill:rgb(0,153,0);fill-rule:nonzero;"/>
                        <path d="M7997.24,724.516L8039.29,724.516L8039.29,519.803L7995.7,519.803L7995.7,648.401L7900.87,519.803L7856.06,519.803L7856.06,724.516L7899.64,724.516L7899.64,591.007L7997.24,724.516Z" style="fill:rgb(0,153,0);fill-rule:nonzero;"/>
                    </g>
                </g>
            </g>
            <g id="Curve" transform="matrix(1.11456,0,0,0.23144,-13182.3,506.888)">
                <g>
                    <g transform="matrix(2.25661,0,0,2.91913,-14817,-2003.28)">
                        <rect x="7594.95" y="875.534" width="576.086" height="658.944" style="fill:none;"/>
                    </g>
                    <g transform="matrix(1,0,0,1,-4308.83,36.0859)">
                        <path d="M6892.34,728.199C6937.45,728.199 6963.24,703.339 6977.97,677.865L6940.52,659.757C6931.93,676.637 6913.52,689.528 6892.34,689.528C6855.2,689.528 6828.19,660.984 6828.19,622.313C6828.19,583.641 6855.2,555.098 6892.34,555.098C6913.52,555.098 6931.93,568.296 6940.52,584.869L6977.97,566.454C6963.54,540.98 6937.45,516.427 6892.34,516.427C6830.95,516.427 6783.38,559.395 6783.38,622.313C6783.38,685.231 6830.95,728.199 6892.34,728.199Z" style="fill:rgb(0,153,0);fill-rule:nonzero;"/>
                        <path d="M7004.06,642.876C7004.06,693.211 7034.13,728.199 7096.44,728.199C7158.74,728.199 7188.82,693.518 7188.82,642.569L7188.82,519.803L7144.32,519.803L7144.32,641.342C7144.32,669.885 7128.05,689.528 7096.44,689.528C7064.83,689.528 7048.25,669.885 7048.25,641.342L7048.25,519.803L7004.06,519.803L7004.06,642.876Z" style="fill:rgb(0,153,0);fill-rule:nonzero;"/>
                        <path d="M7344.73,724.516L7394.76,724.516L7348.72,646.559C7370.82,641.342 7393.53,622.006 7393.53,585.79C7393.53,547.732 7367.44,519.803 7324.78,519.803L7229.03,519.803L7229.03,724.516L7272.61,724.516L7272.61,651.777L7304.53,651.777L7344.73,724.516ZM7349.03,585.79C7349.03,602.977 7335.83,613.412 7318.34,613.412L7272.61,613.412L7272.61,558.167L7318.34,558.167C7335.83,558.167 7349.03,568.603 7349.03,585.79Z" style="fill:rgb(0,153,0);fill-rule:nonzero;"/>
                        <path d="M7480.7,724.516L7535.33,724.516L7614.21,519.803L7564.49,519.803L7508.01,677.251L7451.23,519.803L7401.51,519.803L7480.7,724.516Z" style="fill:rgb(0,153,0);fill-rule:nonzero;"/>
                        <path d="M7633.24,724.516L7778.1,724.516L7778.1,686.152L7676.82,686.152L7676.82,639.807L7775.95,639.807L7775.95,601.443L7676.82,601.443L7676.82,558.167L7778.1,558.167L7778.1,519.803L7633.24,519.803L7633.24,724.516Z" style="fill:rgb(0,153,0);fill-rule:nonzero;"/>
                    </g>
                </g>
            </g>
            <g id="Level" transform="matrix(1.11456,0,0,0.23144,-13188.5,78.7134)">
                <g>
                    <g transform="matrix(2.25661,0,0,2.91913,-14817,-2003.28)">
                        <rect x="7594.95" y="875.534" width="576.086" height="658.944" style="fill:none;"/>
                    </g>
                    <g transform="matrix(1,0,0,1,-4315.58,36.0859)">
                        <path d="M6858.27,724.516L6988.4,724.516L6988.4,686.152L6901.85,686.152L6901.85,519.803L6858.27,519.803L6858.27,724.516Z" style="fill:rgb(0,153,0);fill-rule:nonzero;"/>
                        <path d="M7018.79,724.516L7163.65,724.516L7163.65,686.152L7062.37,686.152L7062.37,639.807L7161.5,639.807L7161.5,601.443L7062.37,601.443L7062.37,558.167L7163.65,558.167L7163.65,519.803L7018.79,519.803L7018.79,724.516Z" style="fill:rgb(0,153,0);fill-rule:nonzero;"/>
                        <path d="M7255.11,724.516L7309.74,724.516L7388.62,519.803L7338.9,519.803L7282.43,677.251L7225.65,519.803L7175.93,519.803L7255.11,724.516Z" style="fill:rgb(0,153,0);fill-rule:nonzero;"/>
                        <path d="M7407.65,724.516L7552.52,724.516L7552.52,686.152L7451.23,686.152L7451.23,639.807L7550.37,639.807L7550.37,601.443L7451.23,601.443L7451.23,558.167L7552.52,558.167L7552.52,519.803L7407.65,519.803L7407.65,724.516Z" style="fill:rgb(0,153,0);fill-rule:nonzero;"/>
                        <path d="M7586.58,724.516L7716.72,724.516L7716.72,686.152L7630.17,686.152L7630.17,519.803L7586.58,519.803L7586.58,724.516Z" style="fill:rgb(0,153,0);fill-rule:nonzero;"/>
                    </g>
                </g>
            </g>
            <g transform="matrix(1.11456,0,0,0.231445,-11055.9,-546.78)">
                <path d="M455.826,2578.68C480.979,2604.23 518.303,2621.68 570.232,2621.68C643.257,2621.68 678.552,2584.36 678.552,2534.86C678.552,2473.6 621.755,2460.21 577.128,2449.66C547.918,2442.77 523.171,2437.09 523.171,2419.64C523.171,2403.42 536.965,2392.46 561.712,2392.46C589.299,2392.46 618.509,2401.79 640.417,2422.08L672.467,2379.89C645.691,2355.14 609.99,2342.16 566.986,2342.16C503.292,2342.16 464.345,2379.48 464.345,2424.51C464.345,2486.18 521.143,2498.35 565.363,2508.49C594.979,2515.79 620.132,2521.47 620.132,2541.35C620.132,2556.77 604.716,2571.37 573.071,2571.37C535.748,2571.37 506.132,2554.74 487.064,2534.86L455.826,2578.68Z" style="fill:rgb(0,153,0);fill-rule:nonzero;"/>
                <path d="M777.136,2616.81L835.15,2616.81L835.15,2396.93L913.855,2396.93L913.855,2346.21L698.025,2346.21L698.025,2396.93L777.136,2396.93L777.136,2616.81Z" style="fill:rgb(0,153,0);fill-rule:nonzero;"/>
                <path d="M1111.43,2616.81L1177.15,2616.81L1072.89,2346.21L1000.67,2346.21L896.004,2616.81L961.727,2616.81L978.766,2570.97L1094.79,2570.97L1111.43,2616.81ZM1036.78,2403.82L1078.97,2520.26L994.588,2520.26L1036.78,2403.82Z" style="fill:rgb(0,153,0);fill-rule:nonzero;"/>
                <path d="M1175.53,2481.72C1175.53,2566.91 1240.44,2622.09 1319.55,2622.09C1368.64,2622.09 1407.18,2601.8 1434.77,2570.97L1434.77,2467.11L1305.76,2467.11L1305.76,2517.42L1377.16,2517.42L1377.16,2549.87C1366.2,2560.01 1343.49,2570.56 1319.55,2570.56C1270.46,2570.56 1234.76,2532.83 1234.76,2481.72C1234.76,2430.6 1270.46,2392.87 1319.55,2392.87C1348.35,2392.87 1371.48,2409.1 1383.65,2428.16L1431.52,2402.2C1411.24,2370.15 1375.94,2341.75 1319.55,2341.75C1240.44,2341.75 1175.53,2396.11 1175.53,2481.72Z" style="fill:rgb(0,153,0);fill-rule:nonzero;"/>
                <path d="M1480.61,2616.81L1672.1,2616.81L1672.1,2566.1L1538.22,2566.1L1538.22,2504.84L1669.26,2504.84L1669.26,2454.13L1538.22,2454.13L1538.22,2396.93L1672.1,2396.93L1672.1,2346.21L1480.61,2346.21L1480.61,2616.81Z" style="fill:rgb(0,153,0);fill-rule:nonzero;"/>
            </g>
        </g>
    </g>
</svg>
