<?xml version="1.0" encoding="UTF-8" standalone="no"?>
<svg xmlns:dc="http://purl.org/dc/elements/1.1/" xmlns:cc="http://creativecommons.org/ns#" xmlns:rdf="http://www.w3.org/1999/02/22-rdf-syntax-ns#" xmlns:svg="http://www.w3.org/2000/svg" xmlns="http://www.w3.org/2000/svg" version="1.1" width="40.640mm" height="128.500mm" viewBox="0 0 40.640 128.500" id="svg172">
  <metadata id="metadata178">
    <rdf:RDF>
      <cc:Work rdf:about="">
        <dc:format>image/svg+xml</dc:format>
        <dc:type rdf:resource="http://purl.org/dc/dcmitype/StillImage"/>
      </cc:Work>
    </rdf:RDF>
  </metadata>
  <defs id="defs176"/>
  <g id="faceplate">
    <rect x="0.250" y="0.250" width="40.140" height="128.000" fill="#f0f0ff" stroke="#000099" stroke-width="0.500" rx="0.000" ry="0.000" id="rect2"/>
    <g transform="translate(20.320,9.000)" id="g6">
      <g aria-label="TRUTH 2" id="text4" style="font-weight:bold;font-size:4.064px;font-family:'Proxima Nova';dominant-baseline:alphabetic;text-anchor:middle;fill:#000099">
        <path d="m -7.4799827,0 h 0.581152 v -2.2026881 h 0.788416 v -0.508 h -2.1620481 v 0.508 h 0.7924801 z" style="font-weight:bold;font-size:4.064px;font-family:'Proxima Nova';dominant-baseline:alphabetic;text-anchor:middle;fill:#000099" id="path180"/>
        <path d="m -4.2083357,0 h 0.6624321 l -0.6096001,-1.032256 c 0.292608,-0.069088 0.5933441,-0.32512 0.5933441,-0.8046721 0,-0.503936 -0.3454401,-0.87376 -0.9103361,-0.87376 h -1.267968 V 0 h 0.577088 v -0.97129603 h 0.422656 z m 0.056896,-1.8409921 c 0,0.227584 -0.174752,0.3738881 -0.4064,0.3738881 h -0.605536 v -0.7477761 h 0.605536 c 0.231648,0 0.4064,0.146304 0.4064,0.373888 z" style="font-weight:bold;font-size:4.064px;font-family:'Proxima Nova';dominant-baseline:alphabetic;text-anchor:middle;fill:#000099" id="path182"/>
        <path d="m -3.1290264,-1.081024 c 0,0.66649599 0.38608,1.129792 1.215136,1.129792 0.8209281,0 1.20700808,-0.45923201 1.20700808,-1.133856 V -2.7106881 H -1.2920983 v 1.6093441 c 0,0.37795198 -0.207264,0.63804799 -0.6217921,0.63804799 -0.422656,0 -0.62992,-0.26009601 -0.62992,-0.63804799 v -1.6093441 h -0.585216 z" style="font-weight:bold;font-size:4.064px;font-family:'Proxima Nova';dominant-baseline:alphabetic;text-anchor:middle;fill:#000099" id="path184"/>
        <path d="M 0.45751726,0 H 1.0386693 v -2.2026881 h 0.788416 v -0.508 h -2.16204806 v 0.508 h 0.79248002 z" style="font-weight:bold;font-size:4.064px;font-family:'Proxima Nova';dominant-baseline:alphabetic;text-anchor:middle;fill:#000099" id="path186"/>
        <path d="m 4.0542848,0 h 0.581152 v -2.7106881 h -0.581152 v 1.064768 h -1.28016 v -1.064768 H 2.1970368 V 0 h 0.577088 v -1.13792 h 1.28016 z" style="font-weight:bold;font-size:4.064px;font-family:'Proxima Nova';dominant-baseline:alphabetic;text-anchor:middle;fill:#000099" id="path188"/>
        <path d="M 6.1282579,0 H 8.168386 V -0.50800002 H 7.0385939 C 7.76605,-1.020064 8.148066,-1.4224 8.148066,-1.8856961 c 0,-0.540512 -0.459232,-0.865632 -1.0363201,-0.865632 -0.377952,0 -0.780288,0.138176 -1.044448,0.442976 l 0.329184,0.382016 c 0.18288,-0.191008 0.418592,-0.312928 0.723392,-0.312928 0.2275841,0 0.4429761,0.117856 0.4429761,0.353568 0,0.3332481 -0.3251201,0.6136641 -1.4345921,1.43052809 z" style="font-weight:bold;font-size:4.064px;font-family:'Proxima Nova';dominant-baseline:alphabetic;text-anchor:middle;fill:#000099" id="path190"/>
      </g>
    </g>
    <g transform="translate(20.320,119.500)" id="g10">
      <g aria-label="DHE" id="text8" style="font-weight:bold;font-size:4.064px;font-family:'Proxima Nova';dominant-baseline:hanging;text-anchor:middle;fill:#000099">
        <path d="m -3.8632449,2.7584481 h 1.0688321 c 0.849376,0 1.438656,-0.5364481 1.438656,-1.3533121 0,-0.816864 -0.58928,-1.35737602 -1.438656,-1.35737602 H -3.8632449 Z M -3.2861569,2.250448 V 0.55575999 h 0.4917441 c 0.556768,0 0.849376,0.36982402 0.849376,0.84937601 0,0.459232 -0.312928,0.845312 -0.849376,0.845312 z" style="font-weight:bold;font-size:4.064px;font-family:'Proxima Nova';dominant-baseline:hanging;text-anchor:middle;fill:#000099" id="path193"/>
        <path d="M 0.91500319,2.7584481 H 1.4961552 V 0.04775998 H 0.91500319 V 1.112528 H -0.36515685 V 0.04775998 H -0.94224487 V 2.7584481 h 0.57708802 V 1.620528 h 1.28016004 z" style="font-weight:bold;font-size:4.064px;font-family:'Proxima Nova';dominant-baseline:hanging;text-anchor:middle;fill:#000099" id="path195"/>
        <path d="M 2.0263802,2.7584481 H 3.9445883 V 2.258576 H 2.6034682 V 1.628656 H 3.9161403 V 1.132848 H 2.6034682 V 0.54356799 H 3.9445883 V 0.04775998 H 2.0263802 Z" style="font-weight:bold;font-size:4.064px;font-family:'Proxima Nova';dominant-baseline:hanging;text-anchor:middle;fill:#000099" id="path197"/>
      </g>
    </g>
    <rect x="5.080" y="76.768" width="17.400" height="13.432" fill="#f0f0ff" stroke="#000099" stroke-width="0.350" rx="1.000" ry="1.000" id="rect12"/>
    <g transform="translate(10.280,79.800)" id="g16">
      <g aria-label="A" id="text14" style="font-weight:bold;font-size:3.048px;font-family:'Proxima Nova';dominant-baseline:alphabetic;text-anchor:middle;fill:#000099">
        <path d="M 0.58278714,0 H 1.0552272 L 0.27189113,-2.0330161 H -0.27065288 L -1.0570369,0 h 0.47548801 l 0.128016,-0.35052001 H 0.45477114 Z M 6.1912502e-4,-1.6581121 0.33589914,-0.72542402 h -0.67360803 z" style="font-weight:bold;font-size:3.048px;font-family:'Proxima Nova';dominant-baseline:alphabetic;text-anchor:middle;fill:#000099" id="path200"/>
      </g>
    </g>
    <rect x="5.080" y="92.268" width="17.400" height="13.432" fill="#f0f0ff" stroke="#000099" stroke-width="0.350" rx="1.000" ry="1.000" id="rect18"/>
    <g transform="translate(10.280,95.300)" id="g22">
      <g aria-label="    B/GATE" id="text20" style="font-weight:bold;font-size:3.048px;font-family:'Proxima Nova';dominant-baseline:alphabetic;text-anchor:middle;fill:#000099">
        <path d="m -3.5552539,0 h 1.103376 c 0.3870961,0 0.5913121,-0.24384001 0.5913121,-0.54864002 0,-0.25603201 -0.173736,-0.46634398 -0.3901441,-0.49987198 0.1920241,-0.039624 0.3505201,-0.210312 0.3505201,-0.466344 0,-0.2712721 -0.19812,-0.5181601 -0.5852161,-0.5181601 h -1.069848 z m 0.432816,-1.216152 v -0.4480561 h 0.542544 c 0.146304,0 0.237744,0.097536 0.237744,0.2225041 0,0.131064 -0.09144,0.225552 -0.237744,0.225552 z m 0,0.84734399 v -0.47853602 h 0.557784 c 0.170688,0 0.262128,0.10972801 0.262128,0.23774401 0,0.14630401 -0.097536,0.24079201 -0.262128,0.24079201 z" style="font-weight:bold;font-size:3.048px;font-family:'Proxima Nova';dominant-baseline:alphabetic;text-anchor:middle;fill:#000099" id="path203"/>
        <path d="m -1.7383126,0.06096 h 0.280416 l 0.72237605,-2.1549361 H -1.0159366 Z" style="font-weight:bold;font-size:3.048px;font-family:'Proxima Nova';dominant-baseline:alphabetic;text-anchor:middle;fill:#000099" id="path205"/>
        <path d="m -0.63455564,-1.014984 c 0,0.64007999 0.48768001,1.054608 1.08204003,1.054608 0.36880801,0 0.65836801,-0.1524 0.86563201,-0.38404801 V -1.121664 H 0.34385239 v 0.37185598 H 0.8863964 v 0.246888 c -0.088392,0.079248 -0.252984,0.15544801 -0.43891201,0.15544801 -0.36880801,0 -0.63703202,-0.28346401 -0.63703202,-0.66751199 0,-0.384048 0.26822401,-0.6675121 0.63703202,-0.6675121 0.21336001,0 0.38709601,0.112776 0.48158402,0.2560321 L 1.2887324,-1.6215361 c -0.155448,-0.240792 -0.420624,-0.445008 -0.84124801,-0.445008 -0.59436002,0 -1.08204003,0.408432 -1.08204003,1.0515601 z" style="font-weight:bold;font-size:3.048px;font-family:'Proxima Nova';dominant-baseline:alphabetic;text-anchor:middle;fill:#000099" id="path207"/>
        <path d="M 3.0592875,0 H 3.5317276 L 2.7483915,-2.0330161 H 2.2058475 L 1.4194635,0 h 0.475488 l 0.128016,-0.35052001 h 0.908304 z m -0.582168,-1.6581121 0.33528,0.93268808 h -0.673608 z" style="font-weight:bold;font-size:3.048px;font-family:'Proxima Nova';dominant-baseline:alphabetic;text-anchor:middle;fill:#000099" id="path209"/>
        <path d="m 3.9924038,0 h 0.435864 v -1.6520161 h 0.591312 v -0.381 h -1.621536 v 0.381 h 0.59436 z" style="font-weight:bold;font-size:3.048px;font-family:'Proxima Nova';dominant-baseline:alphabetic;text-anchor:middle;fill:#000099" id="path211"/>
        <path d="M 5.2970434,0 H 6.7356995 V -0.37490401 H 5.7298594 V -0.84734403 H 6.7143635 V -1.2192 H 5.7298594 v -0.4419601 h 1.0058401 v -0.371856 H 5.2970434 Z" style="font-weight:bold;font-size:3.048px;font-family:'Proxima Nova';dominant-baseline:alphabetic;text-anchor:middle;fill:#000099" id="path213"/>
      </g>
    </g>
    <rect x="5.080" y="22.460" width="30.480" height="25.400" fill="#f0f0ff" stroke="#000099" stroke-width="0.350" rx="0" ry="0" id="rect24"/>
    <rect x="5.080" y="22.460" width="30.480" height="5.080" fill="#000099" stroke="#000099" stroke-width="0.350" rx="0" ry="0" id="rect26"/>
    <rect x="25.400" y="22.460" width="10.160" height="25.400" fill="#000099" stroke="#000099" stroke-width="0.350" rx="0" ry="0" id="rect28"/>
    <line x1="15.240" y1="22.460" x2="15.240" y2="47.860" stroke="#000099" stroke-width="0.350" id="line30"/>
    <line x1="25.400" y1="22.460" x2="25.400" y2="47.860" stroke="#000099" stroke-width="0.350" id="line32"/>
    <line x1="5.080" y1="27.540" x2="35.560" y2="27.540" stroke="#000099" stroke-width="0.350" id="line34"/>
    <line x1="5.080" y1="32.620" x2="35.560" y2="32.620" stroke="#000099" stroke-width="0.350" id="line36"/>
    <line x1="5.080" y1="37.700" x2="35.560" y2="37.700" stroke="#000099" stroke-width="0.350" id="line38"/>
    <line x1="5.080" y1="42.780" x2="35.560" y2="42.780" stroke="#000099" stroke-width="0.350" id="line40"/>
    <g transform="translate(30.480,25)" id="g44">
      <g aria-label="Q" id="text42" style="font-weight:bold;font-size:3.048px;font-family:'Proxima Nova';dominant-baseline:middle;text-anchor:middle;fill:#f0f0ff">
        <path d="m 1.0612755,0.087108 c 0,-0.61264802 -0.44805598,-1.05156004 -1.063752,-1.05156004 -0.61264802,0 -1.060704,0.43891202 -1.060704,1.05156004 0,0.61264801 0.44805598,1.05156 1.060704,1.05156 0.17678401,0 0.34137601,-0.036576 0.48463202,-0.103632 l 0.161544,0.192024 0.30175201,-0.24688798 -0.149352,-0.173736 C 0.96373953,0.62355601 1.0612755,0.37362 1.0612755,0.087108 Z m -1.063752,0.66751202 c -0.37490401,0 -0.61569602,-0.28956001 -0.61569602,-0.66751202 0,-0.38100002 0.24079201,-0.66751203 0.61569602,-0.66751203 0.37490401,0 0.61874402,0.28651201 0.61874402,0.66751203 0,0.146304 -0.036576,0.280416 -0.103632,0.38709601 L 0.28098751,0.202932 -0.0207645,0.44677201 0.21088351,0.71804402 c -0.064008,0.024384 -0.13716001,0.036576 -0.21336001,0.036576 z" style="font-weight:bold;font-size:3.048px;font-family:'Proxima Nova';dominant-baseline:middle;text-anchor:middle;fill:#f0f0ff" id="path216"/>
      </g>
    </g>
    <g transform="translate(10.160,30.080)" id="g48">
      <g aria-label="F" id="text46" style="font-weight:bold;font-size:3.048px;font-family:'Proxima Nova';dominant-baseline:middle;text-anchor:middle;fill:#000099">
        <path d="m -0.66798827,1.102092 h 0.43281601 V 0.254748 h 0.98450403 v -0.37185601 h -0.98450403 v -0.44196002 h 1.00584003 v -0.37185601 h -1.43865604 z" style="font-weight:bold;font-size:3.048px;font-family:'Proxima Nova';dominant-baseline:middle;text-anchor:middle;fill:#000099" id="path219"/>
      </g>
    </g>
    <g transform="translate(20.320,30.080)" id="g52">
      <g aria-label="F" id="text50" style="font-weight:bold;font-size:3.048px;font-family:'Proxima Nova';dominant-baseline:middle;text-anchor:middle;fill:#000099">
        <path d="m -0.66798827,1.102092 h 0.43281601 V 0.254748 h 0.98450403 v -0.37185601 h -0.98450403 v -0.44196002 h 1.00584003 v -0.37185601 h -1.43865604 z" style="font-weight:bold;font-size:3.048px;font-family:'Proxima Nova';dominant-baseline:middle;text-anchor:middle;fill:#000099" id="path222"/>
      </g>
    </g>
    <g transform="translate(10.160,35.160)" id="g56">
      <g aria-label="F" id="text54" style="font-weight:bold;font-size:3.048px;font-family:'Proxima Nova';dominant-baseline:middle;text-anchor:middle;fill:#000099">
        <path d="m -0.66798827,1.102092 h 0.43281601 V 0.254748 h 0.98450403 v -0.37185601 h -0.98450403 v -0.44196002 h 1.00584003 v -0.37185601 h -1.43865604 z" style="font-weight:bold;font-size:3.048px;font-family:'Proxima Nova';dominant-baseline:middle;text-anchor:middle;fill:#000099" id="path225"/>
      </g>
    </g>
    <g transform="translate(20.320,35.160)" id="g60">
      <g aria-label="T" id="text58" style="font-weight:bold;font-size:3.048px;font-family:'Proxima Nova';dominant-baseline:middle;text-anchor:middle;fill:#000099">
        <path d="M -0.21645563,1.102092 H 0.21940838 V -0.54992403 H 0.8107204 v -0.38100001 h -1.62153605 v 0.38100001 h 0.59436002 z" style="font-weight:bold;font-size:3.048px;font-family:'Proxima Nova';dominant-baseline:middle;text-anchor:middle;fill:#000099" id="path228"/>
      </g>
    </g>
    <g transform="translate(10.160,40.240)" id="g64">
      <g aria-label="T" id="text62" style="font-weight:bold;font-size:3.048px;font-family:'Proxima Nova';dominant-baseline:middle;text-anchor:middle;fill:#000099">
        <path d="M -0.21645563,1.102092 H 0.21940838 V -0.54992403 H 0.8107204 v -0.38100001 h -1.62153605 v 0.38100001 h 0.59436002 z" style="font-weight:bold;font-size:3.048px;font-family:'Proxima Nova';dominant-baseline:middle;text-anchor:middle;fill:#000099" id="path231"/>
      </g>
    </g>
    <g transform="translate(20.320,40.240)" id="g68">
      <g aria-label="F" id="text66" style="font-weight:bold;font-size:3.048px;font-family:'Proxima Nova';dominant-baseline:middle;text-anchor:middle;fill:#000099">
        <path d="m -0.66798827,1.102092 h 0.43281601 V 0.254748 h 0.98450403 v -0.37185601 h -0.98450403 v -0.44196002 h 1.00584003 v -0.37185601 h -1.43865604 z" style="font-weight:bold;font-size:3.048px;font-family:'Proxima Nova';dominant-baseline:middle;text-anchor:middle;fill:#000099" id="path234"/>
      </g>
    </g>
    <g transform="translate(10.160,45.320)" id="g72">
      <g aria-label="T" id="text70" style="font-weight:bold;font-size:3.048px;font-family:'Proxima Nova';dominant-baseline:middle;text-anchor:middle;fill:#000099">
        <path d="M -0.21645563,1.102092 H 0.21940838 V -0.54992403 H 0.8107204 v -0.38100001 h -1.62153605 v 0.38100001 h 0.59436002 z" style="font-weight:bold;font-size:3.048px;font-family:'Proxima Nova';dominant-baseline:middle;text-anchor:middle;fill:#000099" id="path237"/>
      </g>
    </g>
    <g transform="translate(20.320,45.320)" id="g76">
      <g aria-label="T" id="text74" style="font-weight:bold;font-size:3.048px;font-family:'Proxima Nova';dominant-baseline:middle;text-anchor:middle;fill:#000099">
        <path d="M -0.21645563,1.102092 H 0.21940838 V -0.54992403 H 0.8107204 v -0.38100001 h -1.62153605 v 0.38100001 h 0.59436002 z" style="font-weight:bold;font-size:3.048px;font-family:'Proxima Nova';dominant-baseline:middle;text-anchor:middle;fill:#000099" id="path240"/>
      </g>
    </g>
    <rect x="25.280" y="76.768" width="10.400" height="13.432" fill="#000099" stroke="#000099" stroke-width="0.350" rx="1.000" ry="1.000" id="rect78"/>
    <g transform="translate(30.480,79.800)" id="g82">
      <g aria-label="Q" id="text80" style="font-weight:bold;font-size:3.048px;font-family:'Proxima Nova';dominant-baseline:alphabetic;text-anchor:middle;fill:#f0f0ff">
        <path d="m 1.0612755,-1.014984 c 0,-0.6126481 -0.44805598,-1.0515601 -1.063752,-1.0515601 -0.61264802,0 -1.060704,0.438912 -1.060704,1.0515601 0,0.61264799 0.44805598,1.05156 1.060704,1.05156 0.17678401,0 0.34137601,-0.036576 0.48463202,-0.103632 l 0.161544,0.192024 0.30175201,-0.246888 -0.149352,-0.17373601 C 0.96373953,-0.47853602 1.0612755,-0.72847202 1.0612755,-1.014984 Z m -1.063752,0.66751199 c -0.37490401,0 -0.61569602,-0.28956001 -0.61569602,-0.66751199 0,-0.381 0.24079201,-0.6675121 0.61569602,-0.6675121 0.37490401,0 0.61874402,0.2865121 0.61874402,0.6675121 0,0.14630397 -0.036576,0.28041598 -0.103632,0.38709598 l -0.23164801,-0.27127201 -0.30175201,0.24384001 0.23164801,0.27127201 c -0.064008,0.024384 -0.13716001,0.036576 -0.21336001,0.036576 z" style="font-weight:bold;font-size:3.048px;font-family:'Proxima Nova';dominant-baseline:alphabetic;text-anchor:middle;fill:#f0f0ff" id="path243"/>
      </g>
    </g>
    <rect x="25.280" y="92.268" width="10.400" height="13.432" fill="#000099" stroke="#000099" stroke-width="0.350" rx="1.000" ry="1.000" id="rect84"/>
    <g transform="translate(30.480,95.300)" id="g88">
      <g aria-label="¬ Q" id="text86" style="font-weight:bold;font-size:3.048px;font-family:'Proxima Nova';dominant-baseline:alphabetic;text-anchor:middle;fill:#f0f0ff">
        <path d="M -0.89475472,-0.61264802 V -1.426464 H -2.2541628 v 0.24384 h 1.1125201 v 0.56997598 z" style="font-weight:bold;font-size:3.048px;font-family:'Proxima Nova';dominant-baseline:alphabetic;text-anchor:middle;fill:#f0f0ff" id="path246"/>
        <path d="m 2.2370176,-1.014984 c 0,-0.6126481 -0.448056,-1.0515601 -1.063752,-1.0515601 -0.61264805,0 -1.06070406,0.438912 -1.06070406,1.0515601 0,0.61264799 0.44805601,1.05156 1.06070406,1.05156 0.176784,0 0.341376,-0.036576 0.484632,-0.103632 l 0.161544,0.192024 0.301752,-0.246888 -0.149352,-0.17373601 c 0.16764,-0.18288001 0.265176,-0.43281601 0.265176,-0.71932799 z m -1.063752,0.66751199 c -0.37490404,0 -0.61569605,-0.28956001 -0.61569605,-0.66751199 0,-0.381 0.24079201,-0.6675121 0.61569605,-0.6675121 0.374904,0 0.618744,0.2865121 0.618744,0.6675121 0,0.14630397 -0.036576,0.28041598 -0.103632,0.38709598 l -0.231648,-0.27127201 -0.301752,0.24384001 0.231648,0.27127201 c -0.064008,0.024384 -0.13716,0.036576 -0.21336,0.036576 z" style="font-weight:bold;font-size:3.048px;font-family:'Proxima Nova';dominant-baseline:alphabetic;text-anchor:middle;fill:#f0f0ff" id="path248"/>
      </g>
    </g>
  </g>
  <g id="overlay">
    <g transform="translate(10.280,85.000)" id="g97">
      <circle cx="0" cy="0" r="4.200" fill="#000099" stroke="none" stroke-width="0" id="circle91"/>
      <circle cx="0" cy="0" r="3.500" fill="none" stroke="#f0f0ff" stroke-width="0.950" id="circle93"/>
      <circle cx="0" cy="0" r="2.325" fill="none" stroke="#f0f0ff" stroke-width="0.950" id="circle95"/>
    </g>
    <g transform="translate(18.480,85.000)" id="g103">
      <circle cx="0" cy="0" r="3.000" fill="#000099" stroke="none" stroke-width="0" id="circle99"/>
      <circle cx="0" cy="0" r="2.000" fill="#000099" stroke="none" stroke-width="0" id="circle101"/>
    </g>
    <g transform="translate(10.280,100.500)" id="g111">
      <circle cx="0" cy="0" r="4.200" fill="#000099" stroke="none" stroke-width="0" id="circle105"/>
      <circle cx="0" cy="0" r="3.500" fill="none" stroke="#f0f0ff" stroke-width="0.950" id="circle107"/>
      <circle cx="0" cy="0" r="2.325" fill="none" stroke="#f0f0ff" stroke-width="0.950" id="circle109"/>
    </g>
    <g transform="translate(18.480,100.500)" id="g117">
      <circle cx="0" cy="0" r="3.000" fill="#000099" stroke="none" stroke-width="0" id="circle113"/>
      <circle cx="0" cy="0" r="2.000" fill="#000099" stroke="none" stroke-width="0" id="circle115"/>
    </g>
    <g transform="translate(10.160,25)" id="g123">
      <rect x="-4.500" y="-2.016" width="9.000" height="4.032" fill="#f0f0ff" stroke="#000099" stroke-width="0.250" rx="0.500" ry="0.500" id="rect119"/>
      <g aria-label="A" id="text121" style="font-weight:bold;font-size:3.048px;font-family:'Proxima Nova';dominant-baseline:middle;text-anchor:middle;fill:#000099">
        <path d="M 0.58278714,1.102092 H 1.0552272 L 0.27189113,-0.93092404 H -0.27065288 L -1.0570369,1.102092 h 0.47548801 l 0.128016,-0.35051998 H 0.45477114 Z M 6.1912502e-4,-0.55602003 0.33589914,0.376668 h -0.67360803 z" style="font-weight:bold;font-size:3.048px;font-family:'Proxima Nova';dominant-baseline:middle;text-anchor:middle;fill:#000099" id="path251"/>
      </g>
    </g>
    <g transform="translate(20.320,25)" id="g129">
      <rect x="-4.500" y="-2.016" width="9.000" height="4.032" fill="#f0f0ff" stroke="#000099" stroke-width="0.250" rx="0.500" ry="0.500" id="rect125"/>
      <g aria-label="HIGH" id="text127" style="font-weight:bold;font-size:3.048px;font-family:'Proxima Nova';dominant-baseline:middle;text-anchor:middle;fill:#000099">
        <path d="m -2.1474351,1.102092 h 0.435864 v -2.03301604 h -0.435864 v 0.79857603 h -0.9601201 v -0.79857603 h -0.432816 V 1.102092 h 0.432816 v -0.85344 h 0.9601201 z" style="font-weight:bold;font-size:3.048px;font-family:'Proxima Nova';dominant-baseline:middle;text-anchor:middle;fill:#000099" id="path254"/>
        <path d="m -1.3139024,1.102092 h 0.43281604 V -0.93092404 H -1.3139024 Z" style="font-weight:bold;font-size:3.048px;font-family:'Proxima Nova';dominant-baseline:middle;text-anchor:middle;fill:#000099" id="path256"/>
        <path d="m -0.57800093,0.087108 c 0,0.64008002 0.48768001,1.054608 1.08204003,1.054608 0.36880801,0 0.658368,-0.15239998 0.865632,-0.38404798 V -0.01957201 H 0.4004071 V 0.352284 h 0.54254401 v 0.24688801 c -0.088392,0.079248 -0.252984,0.15544801 -0.43891201,0.15544801 -0.36880801,0 -0.63703202,-0.28346401 -0.63703202,-0.66751202 0,-0.38404802 0.26822401,-0.66751203 0.63703202,-0.66751203 0.21336001,0 0.38709601,0.11277601 0.48158402,0.25603201 l 0.35966398,-0.195072 c -0.155448,-0.24079201 -0.42062399,-0.44500802 -0.841248,-0.44500802 -0.59436002,0 -1.08204003,0.40843201 -1.08204003,1.05156004 z" style="font-weight:bold;font-size:3.048px;font-family:'Proxima Nova';dominant-baseline:middle;text-anchor:middle;fill:#000099" id="path258"/>
        <path d="m 3.1091743,1.102092 h 0.435864 v -2.03301604 h -0.435864 v 0.79857603 h -0.96012 V -0.93092404 H 1.7162383 V 1.102092 h 0.432816 v -0.85344 h 0.96012 z" style="font-weight:bold;font-size:3.048px;font-family:'Proxima Nova';dominant-baseline:middle;text-anchor:middle;fill:#000099" id="path260"/>
      </g>
    </g>
    <g transform="translate(30.480,30.080)" id="g135">
      <rect x="-4.500" y="-2.016" width="9.000" height="4.032" fill="#f0f0ff" stroke="#000099" stroke-width="0.250" rx="0.500" ry="0.500" id="rect131"/>
      <g aria-label="T" id="text133" style="font-weight:bold;font-size:3.048px;font-family:'Proxima Nova';dominant-baseline:middle;text-anchor:middle;fill:#000099">
        <path d="M -0.21645563,1.102092 H 0.21940838 V -0.54992403 H 0.8107204 v -0.38100001 h -1.62153605 v 0.38100001 h 0.59436002 z" style="font-weight:bold;font-size:3.048px;font-family:'Proxima Nova';dominant-baseline:middle;text-anchor:middle;fill:#000099" id="path263"/>
      </g>
    </g>
    <g transform="translate(30.480,35.160)" id="g141">
      <rect x="-4.500" y="-2.016" width="9.000" height="4.032" fill="#f0f0ff" stroke="#000099" stroke-width="0.250" rx="0.500" ry="0.500" id="rect137"/>
      <g aria-label="T" id="text139" style="font-weight:bold;font-size:3.048px;font-family:'Proxima Nova';dominant-baseline:middle;text-anchor:middle;fill:#000099">
        <path d="M -0.21645563,1.102092 H 0.21940838 V -0.54992403 H 0.8107204 v -0.38100001 h -1.62153605 v 0.38100001 h 0.59436002 z" style="font-weight:bold;font-size:3.048px;font-family:'Proxima Nova';dominant-baseline:middle;text-anchor:middle;fill:#000099" id="path266"/>
      </g>
    </g>
    <g transform="translate(30.480,40.240)" id="g147">
      <rect x="-4.500" y="-2.016" width="9.000" height="4.032" fill="#f0f0ff" stroke="#000099" stroke-width="0.250" rx="0.500" ry="0.500" id="rect143"/>
      <g aria-label="T" id="text145" style="font-weight:bold;font-size:3.048px;font-family:'Proxima Nova';dominant-baseline:middle;text-anchor:middle;fill:#000099">
        <path d="M -0.21645563,1.102092 H 0.21940838 V -0.54992403 H 0.8107204 v -0.38100001 h -1.62153605 v 0.38100001 h 0.59436002 z" style="font-weight:bold;font-size:3.048px;font-family:'Proxima Nova';dominant-baseline:middle;text-anchor:middle;fill:#000099" id="path269"/>
      </g>
    </g>
    <g transform="translate(30.480,45.320)" id="g153">
      <rect x="-4.500" y="-2.016" width="9.000" height="4.032" fill="#f0f0ff" stroke="#000099" stroke-width="0.250" rx="0.500" ry="0.500" id="rect149"/>
      <g aria-label="T" id="text151" style="font-weight:bold;font-size:3.048px;font-family:'Proxima Nova';dominant-baseline:middle;text-anchor:middle;fill:#000099">
        <path d="M -0.21645563,1.102092 H 0.21940838 V -0.54992403 H 0.8107204 v -0.38100001 h -1.62153605 v 0.38100001 h 0.59436002 z" style="font-weight:bold;font-size:3.048px;font-family:'Proxima Nova';dominant-baseline:middle;text-anchor:middle;fill:#000099" id="path272"/>
      </g>
    </g>
    <g transform="translate(30.480,85)" id="g161">
      <circle cx="0" cy="0" r="4.200" fill="#000099" stroke="none" stroke-width="0" id="circle155"/>
      <circle cx="0" cy="0" r="3.500" fill="none" stroke="#f0f0ff" stroke-width="0.950" id="circle157"/>
      <circle cx="0" cy="0" r="2.325" fill="none" stroke="#f0f0ff" stroke-width="0.950" id="circle159"/>
    </g>
    <g transform="translate(30.480,100.500)" id="g169">
      <circle cx="0" cy="0" r="4.200" fill="#000099" stroke="none" stroke-width="0" id="circle163"/>
      <circle cx="0" cy="0" r="3.500" fill="none" stroke="#f0f0ff" stroke-width="0.950" id="circle165"/>
      <circle cx="0" cy="0" r="2.325" fill="none" stroke="#f0f0ff" stroke-width="0.950" id="circle167"/>
    </g>
  </g>
</svg>
