<?xml version="1.0" encoding="UTF-8" standalone="no"?>
<svg
   xmlns:dc="http://purl.org/dc/elements/1.1/"
   xmlns:cc="http://creativecommons.org/ns#"
   xmlns:rdf="http://www.w3.org/1999/02/22-rdf-syntax-ns#"
   xmlns:svg="http://www.w3.org/2000/svg"
   xmlns="http://www.w3.org/2000/svg"
   id="svg8"
   viewBox="0 0 6.0 11.370666666666667"
   height="11.370666666666667mm"
   width="6.0mm"
   version="1.1">
  <metadata
     id="metadata14">
    <rdf:RDF>
      <cc:Work
         rdf:about="">
        <dc:format>image/svg+xml</dc:format>
        <dc:type
           rdf:resource="http://purl.org/dc/dcmitype/StillImage" />
      </cc:Work>
    </rdf:RDF>
  </metadata>
  <defs
     id="defs12" />
  <g
     id="g6"
     transform="translate(3,5.6853333)">
    <path
       id="circle2"
       d="M 2.5,0 A 2.5,2.5 0 0 1 0,2.5 2.5,2.5 0 0 1 -2.5,0 2.5,2.5 0 0 1 0,-2.5 2.5,2.5 0 0 1 2.5,0 Z"
       style="fill:#0044cc;stroke:#0044cc;stroke-width:1" />
    <g
       id="text4"
       style="font-weight:bold;font-size:2.37066674px;font-family:'Proxima Nova';text-anchor:middle;fill:#0044cc"
       aria-label="±10">
      <path
         id="path17"
         style="font-weight:bold;font-size:2.37066674px;font-family:'Proxima Nova';text-anchor:middle;fill:#0044cc"
         d="m -1.1156395,-4.7728374 h 0.42434937 v -0.184912 H -1.1156395 v -0.4670213 h -0.206248 v 0.4670213 h -0.42672 v 0.184912 h 0.42672 v 0.4836161 h 0.206248 z M -1.7486075,-4 h 1.05731737 V -4.184912 H -1.7486075 Z" />
      <path
         id="path19"
         style="font-weight:bold;font-size:2.37066674px;font-family:'Proxima Nova';text-anchor:middle;fill:#0044cc"
         d="m -0.14151769,-4 h 0.33663467 v -1.5812347 h -0.29396267 l -0.49784002,0.5002107 0.19202401,0.2015066 0.26314401,-0.2678853 z" />
      <path
         id="path21"
         style="font-weight:bold;font-size:2.37066674px;font-family:'Proxima Nova';text-anchor:middle;fill:#0044cc"
         d="m 0.43018343,-4.789432 c 0,0.4077547 0.20150667,0.81788 0.65430407,0.81788 0.4504266,0 0.654304,-0.4101253 0.654304,-0.81788 0,-0.4077547 -0.2038774,-0.8155094 -0.654304,-0.8155094 -0.4527974,0 -0.65430407,0.4077547 -0.65430407,0.8155094 z m 0.96486137,0 c 0,0.291592 -0.085344,0.519176 -0.3105573,0.519176 -0.22758406,0 -0.31292806,-0.227584 -0.31292806,-0.519176 0,-0.291592 0.085344,-0.5168054 0.31292806,-0.5168054 0.2252133,0 0.3105573,0.2252134 0.3105573,0.5168054 z" />
    </g>
  </g>
</svg>
