<?xml version="1.0" encoding="UTF-8" standalone="no"?>
<svg
   xmlns:dc="http://purl.org/dc/elements/1.1/"
   xmlns:cc="http://creativecommons.org/ns#"
   xmlns:rdf="http://www.w3.org/1999/02/22-rdf-syntax-ns#"
   xmlns:svg="http://www.w3.org/2000/svg"
   xmlns="http://www.w3.org/2000/svg"
   id="svg8"
   viewBox="0 0 6.0 11.370666666666667"
   height="11.370666666666667mm"
   width="6.0mm"
   version="1.1">
  <metadata
     id="metadata14">
    <rdf:RDF>
      <cc:Work
         rdf:about="">
        <dc:format>image/svg+xml</dc:format>
        <dc:type
           rdf:resource="http://purl.org/dc/dcmitype/StillImage" />
      </cc:Work>
    </rdf:RDF>
  </metadata>
  <defs
     id="defs12" />
  <g
     id="g6"
     transform="translate(3,5.6853333)">
    <path
       id="circle2"
       d="M 2.5,0 A 2.5,2.5 0 0 1 0,2.5 2.5,2.5 0 0 1 -2.5,0 2.5,2.5 0 0 1 0,-2.5 2.5,2.5 0 0 1 2.5,0 Z"
       style="fill:#0044cc;stroke:#0044cc;stroke-width:1" />
    <g
       id="text4"
       style="font-weight:bold;font-size:2.37066674px;font-family:'Proxima Nova';text-anchor:middle;fill:#0044cc"
       aria-label="±5">
      <path
         id="path17"
         style="font-weight:bold;font-size:2.37066674px;font-family:'Proxima Nova';text-anchor:middle;fill:#0044cc"
         d="m -0.61557696,-4.7728374 h 0.42434935 v -0.184912 h -0.42434935 v -0.4670213 h -0.206248 v 0.4670213 H -1.248545 v 0.184912 h 0.42672004 v 0.4836161 h 0.206248 z M -1.248545,-4 h 1.05731739 V -4.184912 H -1.248545 Z" />
      <path
         id="path19"
         style="font-weight:bold;font-size:2.37066674px;font-family:'Proxima Nova';text-anchor:middle;fill:#0044cc"
         d="m -0.00653786,-4.2086187 c 0.13512801,0.1469814 0.33426402,0.2370667 0.60926136,0.2370667 0.38167734,0 0.632968,-0.2109893 0.632968,-0.547624 0,-0.32004 -0.23943732,-0.512064 -0.50732267,-0.512064 -0.14461067,0 -0.27262667,0.056896 -0.34848801,0.1327573 V -5.2849014 H 1.1290115 V -5.5812347 H 0.04324615 v 0.9079653 l 0.234696,0.061637 c 0.0948267,-0.090085 0.20150668,-0.128016 0.33189335,-0.128016 0.18017067,0 0.28448001,0.094827 0.28448001,0.234696 0,0.128016 -0.10668001,0.234696 -0.29396268,0.234696 -0.16594667,0 -0.31292801,-0.061637 -0.41960801,-0.1730587 z" />
    </g>
  </g>
</svg>
