<?xml version="1.0" encoding="UTF-8" standalone="no"?>
<svg
   xmlns:dc="http://purl.org/dc/elements/1.1/"
   xmlns:cc="http://creativecommons.org/ns#"
   xmlns:rdf="http://www.w3.org/1999/02/22-rdf-syntax-ns#"
   xmlns:svg="http://www.w3.org/2000/svg"
   xmlns="http://www.w3.org/2000/svg"
   id="svg10"
   viewBox="0 0 6.0 12.370666666666667"
   height="12.370666666666667mm"
   width="6.0mm"
   version="1.1">
  <metadata
     id="metadata16">
    <rdf:RDF>
      <cc:Work
         rdf:about="">
        <dc:format>image/svg+xml</dc:format>
        <dc:type
           rdf:resource="http://purl.org/dc/dcmitype/StillImage" />
      </cc:Work>
    </rdf:RDF>
  </metadata>
  <defs
     id="defs14" />
  <g
     id="g8"
     transform="translate(3,6.1853333)">
    <g
       id="text2"
       style="font-weight:bold;font-size:2.37066674px;font-family:'Proxima Nova';text-anchor:middle;fill:#0044cc"
       aria-label="10">
      <path
         id="path18"
         style="font-weight:bold;font-size:2.37066674px;font-family:'Proxima Nova';text-anchor:middle;fill:#0044cc"
         d="m -0.73881459,-4 h 0.33663468 v -1.5812347 h -0.29396267 l -0.49784002,0.5002107 0.192024,0.2015066 0.26314401,-0.2678853 z" />
      <path
         id="path20"
         style="font-weight:bold;font-size:2.37066674px;font-family:'Proxima Nova';text-anchor:middle;fill:#0044cc"
         d="m -0.16711346,-4.789432 c 0,0.4077547 0.20150667,0.81788 0.65430402,0.81788 0.45042668,0 0.65430404,-0.4101253 0.65430404,-0.81788 0,-0.4077547 -0.20387736,-0.8155094 -0.65430404,-0.8155094 -0.45279735,0 -0.65430402,0.4077547 -0.65430402,0.8155094 z m 0.96486136,0 c 0,0.291592 -0.085344,0.519176 -0.31055734,0.519176 -0.22758401,0 -0.31292801,-0.227584 -0.31292801,-0.519176 0,-0.291592 0.085344,-0.5168054 0.31292801,-0.5168054 0.22521334,0 0.31055734,0.2252134 0.31055734,0.5168054 z" />
    </g>
    <path
       id="circle4"
       d="M 2.5,0 A 2.5,2.5 0 0 1 0,2.5 2.5,2.5 0 0 1 -2.5,0 2.5,2.5 0 0 1 0,-2.5 2.5,2.5 0 0 1 2.5,0 Z"
       style="fill:#0044cc;stroke:#0044cc;stroke-width:1" />
    <g
       id="text6"
       style="font-weight:bold;font-size:2.37066674px;font-family:'Proxima Nova';dominant-baseline:hanging;text-anchor:middle;fill:#0044cc"
       aria-label="0">
      <path
         id="path24"
         style="font-weight:bold;font-size:2.37066674px;font-family:'Proxima Nova';dominant-baseline:hanging;text-anchor:middle;fill:#0044cc"
         d="m -0.65328538,4.7088293 c 0,0.4077547 0.20150668,0.81788 0.65430403,0.81788 0.45042668,0 0.65430402,-0.4101253 0.65430402,-0.81788 0,-0.4077547 -0.20387734,-0.8155094 -0.65430402,-0.8155094 -0.45279735,0 -0.65430403,0.4077547 -0.65430403,0.8155094 z m 0.96486137,0 c 0,0.291592 -0.085344,0.519176 -0.31055734,0.519176 -0.22758401,0 -0.31292801,-0.227584 -0.31292801,-0.519176 0,-0.291592 0.085344,-0.5168053 0.31292801,-0.5168053 0.22521334,0 0.31055734,0.2252133 0.31055734,0.5168053 z" />
    </g>
  </g>
</svg>
