<?xml version="1.0" encoding="UTF-8" standalone="no"?>
<svg
   xmlns:dc="http://purl.org/dc/elements/1.1/"
   xmlns:cc="http://creativecommons.org/ns#"
   xmlns:rdf="http://www.w3.org/1999/02/22-rdf-syntax-ns#"
   xmlns:svg="http://www.w3.org/2000/svg"
   xmlns="http://www.w3.org/2000/svg"
   id="svg10"
   viewBox="0 0 6.0 12.370666666666667"
   height="12.370666666666667mm"
   width="6.0mm"
   version="1.1">
  <metadata
     id="metadata16">
    <rdf:RDF>
      <cc:Work
         rdf:about="">
        <dc:format>image/svg+xml</dc:format>
        <dc:type
           rdf:resource="http://purl.org/dc/dcmitype/StillImage" />
      </cc:Work>
    </rdf:RDF>
  </metadata>
  <defs
     id="defs14" />
  <g
     id="g8"
     transform="translate(3,6.1853333)">
    <g
       id="text2"
       style="font-weight:bold;font-size:2.37066674px;font-family:'Proxima Nova';text-anchor:middle;fill:#0044cc"
       aria-label="5">
      <path
         id="path18"
         style="font-weight:bold;font-size:2.37066674px;font-family:'Proxima Nova';text-anchor:middle;fill:#0044cc"
         d="m -0.60383475,-4.2086187 c 0.13512801,0.1469814 0.33426401,0.2370667 0.60926135,0.2370667 0.38167735,0 0.63296802,-0.2109893 0.63296802,-0.547624 0,-0.32004 -0.23943734,-0.512064 -0.50732268,-0.512064 -0.14461067,0 -0.27262667,0.056896 -0.34848801,0.1327573 v -0.3864187 h 0.74913069 v -0.2963333 h -1.08576537 v 0.9079653 l 0.23469601,0.061637 c 0.0948267,-0.090085 0.20150667,-0.128016 0.33189334,-0.128016 0.18017068,0 0.28448001,0.094827 0.28448001,0.234696 0,0.128016 -0.10668,0.234696 -0.29396267,0.234696 -0.16594667,0 -0.31292801,-0.061637 -0.41960802,-0.1730587 z" />
    </g>
    <path
       id="circle4"
       d="M 2.5,0 A 2.5,2.5 0 0 1 0,2.5 2.5,2.5 0 0 1 -2.5,0 2.5,2.5 0 0 1 0,-2.5 2.5,2.5 0 0 1 2.5,0 Z"
       style="fill:#0044cc;stroke:#0044cc;stroke-width:1" />
    <g
       id="text6"
       style="font-weight:bold;font-size:2.37066674px;font-family:'Proxima Nova';dominant-baseline:hanging;text-anchor:middle;fill:#0044cc"
       aria-label="0">
      <path
         id="path22"
         style="font-weight:bold;font-size:2.37066674px;font-family:'Proxima Nova';dominant-baseline:hanging;text-anchor:middle;fill:#0044cc"
         d="m -0.65328538,4.7088293 c 0,0.4077547 0.20150668,0.81788 0.65430403,0.81788 0.45042668,0 0.65430402,-0.4101253 0.65430402,-0.81788 0,-0.4077547 -0.20387734,-0.8155094 -0.65430402,-0.8155094 -0.45279735,0 -0.65430403,0.4077547 -0.65430403,0.8155094 z m 0.96486137,0 c 0,0.291592 -0.085344,0.519176 -0.31055734,0.519176 -0.22758401,0 -0.31292801,-0.227584 -0.31292801,-0.519176 0,-0.291592 0.085344,-0.5168053 0.31292801,-0.5168053 0.22521334,0 0.31055734,0.2252133 0.31055734,0.5168053 z" />
    </g>
  </g>
</svg>
