<?xml version="1.0" encoding="UTF-8" standalone="no"?>
<svg
   xmlns:dc="http://purl.org/dc/elements/1.1/"
   xmlns:cc="http://creativecommons.org/ns#"
   xmlns:rdf="http://www.w3.org/1999/02/22-rdf-syntax-ns#"
   xmlns:svg="http://www.w3.org/2000/svg"
   xmlns="http://www.w3.org/2000/svg"
   id="svg8"
   viewBox="0 0 9.000 3.580"
   height="3.580mm"
   width="9.000mm"
   version="1.1">
  <metadata
     id="metadata14">
    <rdf:RDF>
      <cc:Work
         rdf:about="">
        <dc:format>image/svg+xml</dc:format>
        <dc:type
           rdf:resource="http://purl.org/dc/dcmitype/StillImage" />
      </cc:Work>
    </rdf:RDF>
  </metadata>
  <defs
     id="defs12" />
  <g
     id="g6"
     transform="translate(4.5,1.79)">
    <path
       id="rect2"
       d="m -3.875,-1.665 h 7.75 c 0.277,0 0.5,0.223 0.5,0.5 v 2.33 c 0,0.277 -0.223,0.5 -0.5,0.5 h -7.75 c -0.277,0 -0.5,-0.223 -0.5,-0.5 v -2.33 c 0,-0.277 0.223,-0.5 0.5,-0.5 z"
       style="fill:#efedeb;stroke:#331a00;stroke-width:0.25" />
    <g
       id="text4"
       style="font-weight:bold;font-size:2.37100005px;font-family:'Proxima Nova';dominant-baseline:middle;text-anchor:middle;fill:#331a00"
       aria-label="HIGH">
      <path
         id="path17"
         style="font-weight:bold;font-size:2.37100005px;font-family:'Proxima Nova';dominant-baseline:middle;text-anchor:middle;fill:#331a00"
         d="m -1.6704622,0.8565965 h 0.3390531 v -1.58145703 h -0.3390531 v 0.62120201 h -0.746865 v -0.62120201 h -0.336682 V 0.8565965 h 0.336682 V 0.19271649 h 0.746865 z" />
      <path
         id="path19"
         style="font-weight:bold;font-size:2.37100005px;font-family:'Proxima Nova';dominant-baseline:middle;text-anchor:middle;fill:#331a00"
         d="m -1.0220677,0.8565965 h 0.33668199 V -0.72486053 H -1.0220677 Z" />
      <path
         id="path21"
         style="font-weight:bold;font-size:2.37100005px;font-family:'Proxima Nova';dominant-baseline:middle;text-anchor:middle;fill:#331a00"
         d="m -0.44961928,0.06705348 c 0,0.49791001 0.37936001,0.82036602 0.84170502,0.82036602 0.286891,0 0.51213601,-0.11855 0.67336406,-0.29874601 V -0.01593152 H 0.31147174 v 0.28926201 h 0.42203801 v 0.192051 c -0.068759,0.061646 -0.19679301,0.120921 -0.34142401,0.120921 -0.28689101,0 -0.49553901,-0.220503 -0.49553901,-0.51924901 0,-0.298746 0.208648,-0.51924901 0.49553901,-0.51924901 0.16597,0 0.301117,0.087727 0.37461801,0.19916401 L 1.0464818,-0.40477553 c -0.12092105,-0.187309 -0.32719806,-0.34616601 -0.65439606,-0.34616601 -0.46234501,0 -0.84170502,0.31771401 -0.84170502,0.81799502 z" />
      <path
         id="path23"
         style="font-weight:bold;font-size:2.37100005px;font-family:'Proxima Nova';dominant-baseline:middle;text-anchor:middle;fill:#331a00"
         d="m 2.4185867,0.8565965 h 0.339053 v -1.58145703 h -0.339053 v 0.62120201 H 1.6717217 V -0.72486053 H 1.3350397 V 0.8565965 h 0.336682 V 0.19271649 h 0.746865 z" />
    </g>
  </g>
</svg>
