<?xml version="1.0" encoding="UTF-8" standalone="no"?>
<svg
   xmlns:dc="http://purl.org/dc/elements/1.1/"
   xmlns:cc="http://creativecommons.org/ns#"
   xmlns:rdf="http://www.w3.org/1999/02/22-rdf-syntax-ns#"
   xmlns:svg="http://www.w3.org/2000/svg"
   xmlns="http://www.w3.org/2000/svg"
   id="svg8"
   viewBox="0 0 9.000 3.580"
   height="3.580mm"
   width="9.000mm"
   version="1.1">
  <metadata
     id="metadata14">
    <rdf:RDF>
      <cc:Work
         rdf:about="">
        <dc:format>image/svg+xml</dc:format>
        <dc:type
           rdf:resource="http://purl.org/dc/dcmitype/StillImage" />
      </cc:Work>
    </rdf:RDF>
  </metadata>
  <defs
     id="defs12" />
  <g
     id="g6"
     transform="translate(4.5,1.79)">
    <path
       id="rect2"
       d="m -4,-1.79 h 8 c 0.277,0 0.5,0.223 0.5,0.5 v 2.58 c 0,0.277 -0.223,0.5 -0.5,0.5 h -8 c -0.277,0 -0.5,-0.223 -0.5,-0.5 v -2.58 c 0,-0.277 0.223,-0.5 0.5,-0.5 z"
       style="fill:#331a00;stroke:none" />
    <g
       id="text4"
       style="font-weight:bold;font-size:2.37100005px;font-family:'Proxima Nova';dominant-baseline:middle;text-anchor:middle;fill:#efedeb"
       aria-label="EDGE">
      <path
         id="path17"
         style="font-weight:bold;font-size:2.37100005px;font-family:'Proxima Nova';dominant-baseline:middle;text-anchor:middle;fill:#efedeb"
         d="m -2.9346127,0.8565965 h 1.119112 V 0.56496349 h -0.78243 v -0.367505 h 0.765833 v -0.28926201 h -0.765833 v -0.34379501 h 0.78243 v -0.289262 h -1.119112 z" />
      <path
         id="path19"
         style="font-weight:bold;font-size:2.37100005px;font-family:'Proxima Nova';dominant-baseline:middle;text-anchor:middle;fill:#efedeb"
         d="m -1.5499857,0.8565965 h 0.623573 c 0.49553901,0 0.83933402,-0.31297201 0.83933402,-0.78954302 0,-0.47657101 -0.34379501,-0.79191401 -0.83933402,-0.79191401 h -0.623573 z m 0.336682,-0.29637501 v -0.98870702 h 0.286891 c 0.32482701,0 0.49553901,0.21576101 0.49553901,0.49553901 0,0.26792301 -0.182567,0.49316801 -0.49553901,0.49316801 z" />
      <path
         id="path21"
         style="font-weight:bold;font-size:2.37100005px;font-family:'Proxima Nova';dominant-baseline:middle;text-anchor:middle;fill:#efedeb"
         d="m 0.07829857,0.06705348 c 0,0.49791001 0.37936,0.82036602 0.84170501,0.82036602 0.28689102,0 0.51213602,-0.11855 0.67336402,-0.29874601 V -0.01593152 H 0.83938958 V 0.27333049 H 1.2614276 v 0.192051 c -0.068759,0.061646 -0.196793,0.120921 -0.34142402,0.120921 -0.286891,0 -0.49553901,-0.220503 -0.49553901,-0.51924901 0,-0.298746 0.20864801,-0.51924901 0.49553901,-0.51924901 0.16597002,0 0.30111702,0.087727 0.37461802,0.19916401 l 0.279778,-0.15174401 c -0.120921,-0.187309 -0.327198,-0.34616601 -0.65439602,-0.34616601 -0.46234501,0 -0.84170501,0.31771401 -0.84170501,0.81799502 z" />
      <path
         id="path23"
         style="font-weight:bold;font-size:2.37100005px;font-family:'Proxima Nova';dominant-baseline:middle;text-anchor:middle;fill:#efedeb"
         d="M 1.8629575,0.8565965 H 2.9820696 V 0.56496349 H 2.1996395 v -0.367505 H 2.9654726 V -0.09180352 H 2.1996395 v -0.34379501 h 0.7824301 v -0.289262 H 1.8629575 Z" />
    </g>
  </g>
</svg>
