<?xml version="1.0" encoding="UTF-8" standalone="no"?>
<svg
   xmlns:dc="http://purl.org/dc/elements/1.1/"
   xmlns:cc="http://creativecommons.org/ns#"
   xmlns:rdf="http://www.w3.org/1999/02/22-rdf-syntax-ns#"
   xmlns:svg="http://www.w3.org/2000/svg"
   xmlns="http://www.w3.org/2000/svg"
   id="svg10"
   viewBox="0 0 6.000 11.161"
   height="11.161mm"
   width="6.000mm"
   version="1.1">
  <metadata
     id="metadata16">
    <rdf:RDF>
      <cc:Work
         rdf:about="">
        <dc:format>image/svg+xml</dc:format>
        <dc:type
           rdf:resource="http://purl.org/dc/dcmitype/StillImage" />
      </cc:Work>
    </rdf:RDF>
  </metadata>
  <defs
     id="defs14" />
  <g
     id="g8"
     transform="translate(3,5.58)">
    <g
       id="g4"
       transform="translate(0,-4)">
      <g
         id="text2"
         style="font-weight:bold;font-size:2.37100005px;font-family:'Proxima Nova';dominant-baseline:alphabetic;text-anchor:middle;fill:#331a00"
         aria-label="GEN">
        <path
           id="path18"
           style="font-weight:bold;font-size:2.37100005px;font-family:'Proxima Nova';dominant-baseline:alphabetic;text-anchor:middle;fill:#331a00"
           d="m -2.3297484,-0.78954302 c 0,0.49791001 0.3793601,0.82036602 0.8417051,0.82036602 0.286891,0 0.51213597,-0.11855 0.67336398,-0.29874601 V -0.87252802 H -1.5686573 v 0.28926201 h 0.422038 v 0.192051 c -0.068759,0.061646 -0.196793,0.120921 -0.341424,0.120921 -0.286891,0 -0.495539,-0.220503 -0.495539,-0.51924901 0,-0.29874598 0.208648,-0.51924898 0.495539,-0.51924898 0.16597,0 0.301117,0.087727 0.374618,0.199164 l 0.27977798,-0.151744 c -0.12092101,-0.187309 -0.32719798,-0.346166 -0.65439598,-0.346166 -0.462345,0 -0.8417051,0.317714 -0.8417051,0.81799498 z" />
        <path
           id="path20"
           style="font-weight:bold;font-size:2.37100005px;font-family:'Proxima Nova';dominant-baseline:alphabetic;text-anchor:middle;fill:#331a00"
           d="m -0.54508915,0 h 1.11911202 v -0.29163301 h -0.78243001 v -0.367505 H 0.55742587 V -0.94840002 H -0.20840714 V -1.292195 h 0.78243001 v -0.289262 h -1.11911202 z" />
        <path
           id="path22"
           style="font-weight:bold;font-size:2.37100005px;font-family:'Proxima Nova';dominant-baseline:alphabetic;text-anchor:middle;fill:#331a00"
           d="M 1.930198,0 H 2.255025 V -1.581457 H 1.918343 v 1.02427199 L 1.185704,-1.581457 H 0.83953795 V 0 H 1.17622 v -1.062208 z" />
      </g>
    </g>
    <path
       id="circle6"
       d="M 2.5,0 A 2.5,2.5 0 0 1 0,2.5 2.5,2.5 0 0 1 -2.5,0 2.5,2.5 0 0 1 0,-2.5 2.5,2.5 0 0 1 2.5,0 Z"
       style="fill:#331a00;stroke:#331a00;stroke-width:1" />
  </g>
</svg>
