<?xml version="1.0" encoding="UTF-8" standalone="no"?>
<svg
   xmlns:dc="http://purl.org/dc/elements/1.1/"
   xmlns:cc="http://creativecommons.org/ns#"
   xmlns:rdf="http://www.w3.org/1999/02/22-rdf-syntax-ns#"
   xmlns:svg="http://www.w3.org/2000/svg"
   xmlns="http://www.w3.org/2000/svg"
   id="svg10"
   viewBox="0 0 6.000 11.161"
   height="11.161mm"
   width="6.000mm"
   version="1.1">
  <metadata
     id="metadata16">
    <rdf:RDF>
      <cc:Work
         rdf:about="">
        <dc:format>image/svg+xml</dc:format>
        <dc:type
           rdf:resource="http://purl.org/dc/dcmitype/StillImage" />
      </cc:Work>
    </rdf:RDF>
  </metadata>
  <defs
     id="defs14" />
  <g
     id="g8"
     transform="translate(3,5.58)">
    <g
       id="g4"
       transform="translate(0,-4)">
      <g
         id="text2"
         style="font-weight:bold;font-size:2.37100005px;font-family:'Proxima Nova';dominant-baseline:alphabetic;text-anchor:middle;fill:#331a00"
         aria-label="SKIP">
        <path
           id="path18"
           style="font-weight:bold;font-size:2.37100005px;font-family:'Proxima Nova';dominant-baseline:alphabetic;text-anchor:middle;fill:#331a00"
           d="m -2.4786583,-0.222874 c 0.147002,0.149373 0.365134,0.251326 0.668622,0.251326 0.4267801,0 0.6330571,-0.218132 0.6330571,-0.50739401 0,-0.35802101 -0.3319401,-0.43626401 -0.5927501,-0.49791001 -0.170712,-0.040307 -0.315343,-0.073501 -0.315343,-0.17545398 0,-0.09484 0.080614,-0.158857 0.225245,-0.158857 0.161228,0 0.33194,0.054533 0.4599741,0.173083 l 0.187309,-0.246584 c -0.156486,-0.144631 -0.3651341,-0.220503 -0.6164601,-0.220503 -0.372247,0 -0.599863,0.218132 -0.599863,0.481313 0,0.36039198 0.33194,0.43152198 0.590379,0.49079699 0.173083,0.042678 0.320085,0.075872 0.320085,0.192051 0,0.090098 -0.090098,0.175454 -0.275036,0.175454 -0.218132,0 -0.391215,-0.097211 -0.502652,-0.21339 z" />
        <path
           id="path20"
           style="font-weight:bold;font-size:2.37100005px;font-family:'Proxima Nova';dominant-baseline:alphabetic;text-anchor:middle;fill:#331a00"
           d="M -0.01137336,0 H 0.40355165 L -0.26744136,-0.83933402 0.36087365,-1.581457 h -0.41492501 l -0.55955601,0.70655798 V -1.581457 H -0.95028938 V 0 h 0.33668201 v -0.48605501 l 0.123292,-0.147002 z" />
        <path
           id="path22"
           style="font-weight:bold;font-size:2.37100005px;font-family:'Proxima Nova';dominant-baseline:alphabetic;text-anchor:middle;fill:#331a00"
           d="M 0.55937075,0 H 0.89605276 V -1.581457 H 0.55937075 Z" />
        <path
           id="path24"
           style="font-weight:bold;font-size:2.37100005px;font-family:'Proxima Nova';dominant-baseline:alphabetic;text-anchor:middle;fill:#331a00"
           d="m 1.2076912,0 h 0.336682 v -0.56192701 h 0.40307 c 0.341424,0 0.531104,-0.23472901 0.531104,-0.50976499 0,-0.277407 -0.187309,-0.509765 -0.531104,-0.509765 h -0.739752 z m 0.927061,-1.071692 c 0,0.13040498 -0.099582,0.21338998 -0.232358,0.21338998 H 1.5443732 V -1.285082 h 0.358021 c 0.132776,0 0.232358,0.080614 0.232358,0.21339 z" />
      </g>
    </g>
    <path
       id="circle6"
       d="M 2.5,0 A 2.5,2.5 0 0 1 0,2.5 2.5,2.5 0 0 1 -2.5,0 2.5,2.5 0 0 1 0,-2.5 2.5,2.5 0 0 1 2.5,0 Z"
       style="fill:#331a00;stroke:#331a00;stroke-width:1" />
  </g>
</svg>
