<?xml version="1.0" encoding="UTF-8" standalone="no"?>
<svg
   xmlns:dc="http://purl.org/dc/elements/1.1/"
   xmlns:cc="http://creativecommons.org/ns#"
   xmlns:rdf="http://www.w3.org/1999/02/22-rdf-syntax-ns#"
   xmlns:svg="http://www.w3.org/2000/svg"
   xmlns="http://www.w3.org/2000/svg"
   id="svg8"
   viewBox="0 0 9.000 3.580"
   height="3.580mm"
   width="9.000mm"
   version="1.1">
  <metadata
     id="metadata14">
    <rdf:RDF>
      <cc:Work
         rdf:about="">
        <dc:format>image/svg+xml</dc:format>
        <dc:type
           rdf:resource="http://purl.org/dc/dcmitype/StillImage" />
      </cc:Work>
    </rdf:RDF>
  </metadata>
  <defs
     id="defs12" />
  <g
     id="g6"
     transform="translate(4.5,1.79)">
    <path
       d="m -4,-1.79 h 8 c 0.277,0 0.5,0.223 0.5,0.5 v 2.58 c 0,0.277 -0.223,0.5 -0.5,0.5 h -8 c -0.277,0 -0.5,-0.223 -0.5,-0.5 v -2.58 c 0,-0.277 0.223,-0.5 0.5,-0.5 z"
       style="fill:#efedeb;stroke:#331a00;stroke-width:0.25"
       id="rect2" />
    <g
       style="font-weight:bold;font-size:2.371px;font-family:'Proxima Nova';dominant-baseline:middle;text-anchor:middle;fill:#331a00"
       id="text4"
       aria-label="OUT">
      <path
         id="path17"
         style="font-weight:bold;font-size:2.371px;font-family:'Proxima Nova';dominant-baseline:middle;text-anchor:middle;fill:#331a00"
         d="m -2.3806878,0.06705348 c 0,0.47657101 0.348537,0.81799502 0.825108,0.81799502 0.478942,0 0.82747903,-0.34142401 0.82747903,-0.81799502 0,-0.47657101 -0.34853703,-0.81799502 -0.82747903,-0.81799502 -0.476571,0 -0.825108,0.34142401 -0.825108,0.81799502 z m 1.306421,0 c 0,0.29400401 -0.18968,0.51924901 -0.481313,0.51924901 -0.291633,0 -0.478942,-0.225245 -0.478942,-0.51924901 0,-0.296375 0.187309,-0.51924901 0.478942,-0.51924901 0.291633,0 0.481313,0.22287401 0.481313,0.51924901 z" />
      <path
         id="path19"
         style="font-weight:bold;font-size:2.371px;font-family:'Proxima Nova';dominant-baseline:middle;text-anchor:middle;fill:#331a00"
         d="m -0.48951892,0.22591049 c 0,0.388844 0.22524501,0.65913801 0.70892902,0.65913801 0.47894201,0 0.70418701,-0.26792301 0.70418701,-0.66150901 V -0.72486053 H 0.5821731 v 0.93891602 c 0,0.220503 -0.120921,0.372247 -0.362763,0.372247 -0.24658401,0 -0.36750501,-0.151744 -0.36750501,-0.372247 v -0.93891602 h -0.34142401 z" />
      <path
         id="path21"
         style="font-weight:bold;font-size:2.371px;font-family:'Proxima Nova';dominant-baseline:middle;text-anchor:middle;fill:#331a00"
         d="m 1.6029255,0.8565965 h 0.339053 v -1.28508203 h 0.459974 v -0.296375 h -1.261372 v 0.296375 h 0.462345 z" />
    </g>
  </g>
</svg>
