<?xml version="1.0" encoding="UTF-8" standalone="no"?>
<svg
   xmlns:dc="http://purl.org/dc/elements/1.1/"
   xmlns:cc="http://creativecommons.org/ns#"
   xmlns:rdf="http://www.w3.org/1999/02/22-rdf-syntax-ns#"
   xmlns:svg="http://www.w3.org/2000/svg"
   xmlns="http://www.w3.org/2000/svg"
   id="svg10"
   viewBox="0 0 6.000 11.161"
   height="11.161mm"
   width="6.000mm"
   version="1.1">
  <metadata
     id="metadata16">
    <rdf:RDF>
      <cc:Work
         rdf:about="">
        <dc:format>image/svg+xml</dc:format>
        <dc:type
           rdf:resource="http://purl.org/dc/dcmitype/StillImage" />
      </cc:Work>
    </rdf:RDF>
  </metadata>
  <defs
     id="defs14" />
  <g
     id="g8"
     transform="translate(3,5.58)">
    <g
       id="g4"
       transform="translate(0,-4)">
      <g
         id="text2"
         style="font-weight:bold;font-size:2.37100005px;font-family:'Proxima Nova';dominant-baseline:alphabetic;text-anchor:middle;fill:#331a00"
         aria-label="EDGE">
        <path
           id="path18"
           style="font-weight:bold;font-size:2.37100005px;font-family:'Proxima Nova';dominant-baseline:alphabetic;text-anchor:middle;fill:#331a00"
           d="m -2.9346127,0 h 1.119112 v -0.29637501 h -0.78243 v -0.358021 h 0.765833 v -0.29637501 h -0.765833 V -1.285082 h 0.78243 v -0.296375 h -1.119112 z" />
        <path
           id="path20"
           style="font-weight:bold;font-size:2.37100005px;font-family:'Proxima Nova';dominant-baseline:alphabetic;text-anchor:middle;fill:#331a00"
           d="m -1.5499857,0 h 0.623573 c 0.49553901,0 0.83933402,-0.31297201 0.83933402,-0.78954302 0,-0.47657098 -0.34379501,-0.79191398 -0.83933402,-0.79191398 h -0.623573 z m 0.336682,-0.29637501 V -1.285082 h 0.286891 c 0.32482701,0 0.49553901,0.215761 0.49553901,0.49553898 0,0.26792301 -0.182567,0.49316801 -0.49553901,0.49316801 z" />
        <path
           id="path22"
           style="font-weight:bold;font-size:2.37100005px;font-family:'Proxima Nova';dominant-baseline:alphabetic;text-anchor:middle;fill:#331a00"
           d="m 0.07829857,-0.78954302 c 0,0.49791001 0.37936,0.82036602 0.84170501,0.82036602 0.28689102,0 0.51213602,-0.11855 0.67336402,-0.29874601 V -0.87489902 H 0.83938958 v 0.29400401 H 1.2566856 v 0.18968 c -0.064017,0.059275 -0.196793,0.120921 -0.33668202,0.120921 -0.286891,0 -0.49553901,-0.220503 -0.49553901,-0.51924901 0,-0.29874598 0.20864801,-0.51924898 0.49553901,-0.51924898 0.16834102,0 0.30348802,0.09484 0.37461802,0.206277 l 0.279778,-0.151744 c -0.11855,-0.187309 -0.324827,-0.353279 -0.65439602,-0.353279 -0.46234501,0 -0.84170501,0.317714 -0.84170501,0.81799498 z" />
        <path
           id="path24"
           style="font-weight:bold;font-size:2.37100005px;font-family:'Proxima Nova';dominant-baseline:alphabetic;text-anchor:middle;fill:#331a00"
           d="M 1.8629575,0 H 2.9820696 V -0.29637501 H 2.1996395 v -0.358021 H 2.9654726 V -0.95077102 H 2.1996395 V -1.285082 H 2.9820696 V -1.581457 H 1.8629575 Z" />
      </g>
    </g>
    <path
       id="circle6"
       d="M 2.5,0 A 2.5,2.5 0 0 1 0,2.5 2.5,2.5 0 0 1 -2.5,0 2.5,2.5 0 0 1 0,-2.5 2.5,2.5 0 0 1 2.5,0 Z"
       style="fill:#331a00;stroke:#331a00;stroke-width:1" />
  </g>
</svg>
