<?xml version="1.0" encoding="UTF-8" standalone="no"?>
<svg
   xmlns:dc="http://purl.org/dc/elements/1.1/"
   xmlns:cc="http://creativecommons.org/ns#"
   xmlns:rdf="http://www.w3.org/1999/02/22-rdf-syntax-ns#"
   xmlns:svg="http://www.w3.org/2000/svg"
   xmlns="http://www.w3.org/2000/svg"
   id="svg10"
   viewBox="0 0 6.000 11.161"
   height="11.161mm"
   width="6.000mm"
   version="1.1">
  <metadata
     id="metadata16">
    <rdf:RDF>
      <cc:Work
         rdf:about="">
        <dc:format>image/svg+xml</dc:format>
        <dc:type
           rdf:resource="http://purl.org/dc/dcmitype/StillImage" />
      </cc:Work>
    </rdf:RDF>
  </metadata>
  <defs
     id="defs14" />
  <g
     id="g8"
     transform="translate(3,5.58)">
    <g
       id="g4"
       transform="translate(0,-4)">
      <g
         id="text2"
         style="font-weight:bold;font-size:2.37100005px;font-family:'Proxima Nova';dominant-baseline:alphabetic;text-anchor:middle;fill:#331a00"
         aria-label="TIME">
        <path
           id="path18"
           style="font-weight:bold;font-size:2.37100005px;font-family:'Proxima Nova';dominant-baseline:alphabetic;text-anchor:middle;fill:#331a00"
           d="m -2.1990099,0 h 0.339053 v -1.285082 h 0.459974 v -0.296375 h -1.261372 v 0.296375 h 0.462345 z" />
        <path
           id="path20"
           style="font-weight:bold;font-size:2.37100005px;font-family:'Proxima Nova';dominant-baseline:alphabetic;text-anchor:middle;fill:#331a00"
           d="m -1.1841478,0 h 0.33668205 V -1.581457 H -1.1841478 Z" />
        <path
           id="path22"
           style="font-weight:bold;font-size:2.37100005px;font-family:'Proxima Nova';dominant-baseline:alphabetic;text-anchor:middle;fill:#331a00"
           d="M 0.83935259,0 H 1.1784056 V -1.581457 H 0.70420559 L 0.32010358,-0.59512101 -0.06399843,-1.581457 H -0.53582744 V 0 h 0.33668201 V -1.13808 L 0.24660258,0 h 0.147002 l 0.44574801,-1.13808 z" />
        <path
           id="path24"
           style="font-weight:bold;font-size:2.37100005px;font-family:'Proxima Nova';dominant-baseline:alphabetic;text-anchor:middle;fill:#331a00"
           d="m 1.4924891,0 h 1.119112 v -0.29163301 h -0.78243 v -0.367505 h 0.765833 V -0.94840002 H 1.8291711 V -1.292195 h 0.78243 v -0.289262 h -1.119112 z" />
      </g>
    </g>
    <path
       id="circle6"
       d="M 2.5,0 A 2.5,2.5 0 0 1 0,2.5 2.5,2.5 0 0 1 -2.5,0 2.5,2.5 0 0 1 0,-2.5 2.5,2.5 0 0 1 2.5,0 Z"
       style="fill:#331a00;stroke:#331a00;stroke-width:1" />
  </g>
</svg>
