<?xml version="1.0" encoding="UTF-8" standalone="no"?>
<svg
   xmlns:dc="http://purl.org/dc/elements/1.1/"
   xmlns:cc="http://creativecommons.org/ns#"
   xmlns:rdf="http://www.w3.org/1999/02/22-rdf-syntax-ns#"
   xmlns:svg="http://www.w3.org/2000/svg"
   xmlns="http://www.w3.org/2000/svg"
   id="svg14"
   viewBox="0 0 10 11.161"
   height="11.161mm"
   width="10mm"
   version="1.1">
  <metadata
     id="metadata20">
    <rdf:RDF>
      <cc:Work
         rdf:about="">
        <dc:format>image/svg+xml</dc:format>
        <dc:type
           rdf:resource="http://purl.org/dc/dcmitype/StillImage" />
      </cc:Work>
    </rdf:RDF>
  </metadata>
  <defs
     id="defs18" />
  <g
     id="g12"
     transform="translate(5,5.58)">
    <g
       id="g4"
       transform="translate(0,-4)">
      <g
         id="text2"
         style="font-weight:bold;font-size:2.37100005px;font-family:'Proxima Nova';dominant-baseline:alphabetic;text-anchor:middle;fill:#331a00"
         aria-label="SUSTAIN">
        <path
           id="path22"
           style="font-weight:bold;font-size:2.37100005px;font-family:'Proxima Nova';dominant-baseline:alphabetic;text-anchor:middle;fill:#331a00"
           d="m -4.8404522,-0.222874 c 0.149373,0.149373 0.367505,0.251326 0.670993,0.251326 0.42678,0 0.6330571,-0.218132 0.6330571,-0.50739401 0,-0.35090801 -0.3319401,-0.42915101 -0.5927501,-0.48842601 -0.182567,-0.042678 -0.315343,-0.075872 -0.315343,-0.18256698 0,-0.09484 0.080614,-0.161228 0.232358,-0.161228 0.154115,0 0.324827,0.054533 0.452861,0.173083 l 0.1873091,-0.246584 c -0.1564861,-0.144631 -0.3651341,-0.220503 -0.6164601,-0.220503 -0.372247,0 -0.599863,0.21339 -0.599863,0.476571 0,0.35327898 0.33194,0.42440898 0.590379,0.48368399 0.182567,0.042678 0.320085,0.082985 0.320085,0.201535 0,0.090098 -0.090098,0.177825 -0.275036,0.177825 -0.218132,0 -0.391215,-0.097211 -0.502652,-0.21339 z" />
        <path
           id="path24"
           style="font-weight:bold;font-size:2.37100005px;font-family:'Proxima Nova';dominant-baseline:alphabetic;text-anchor:middle;fill:#331a00"
           d="m -3.3097123,-0.63068601 c 0,0.388844 0.225245,0.65913801 0.708929,0.65913801 0.478942,0 0.7041871,-0.26792301 0.7041871,-0.66150901 V -1.581457 h -0.3414241 v 0.93891599 c 0,0.220503 -0.120921,0.372247 -0.362763,0.372247 -0.246584,0 -0.367505,-0.151744 -0.367505,-0.372247 V -1.581457 h -0.341424 z" />
        <path
           id="path26"
           style="font-weight:bold;font-size:2.37100005px;font-family:'Proxima Nova';dominant-baseline:alphabetic;text-anchor:middle;fill:#331a00"
           d="m -1.6914677,-0.222874 c 0.149373,0.149373 0.367505,0.251326 0.670993,0.251326 0.42677998,0 0.63305699,-0.218132 0.63305699,-0.50739401 0,-0.35090801 -0.33194001,-0.42915101 -0.59275002,-0.48842601 C -1.1627347,-1.010046 -1.2955107,-1.04324 -1.2955107,-1.149935 c 0,-0.09484 0.080614,-0.161228 0.232358,-0.161228 0.15411497,0 0.32482698,0.054533 0.45286098,0.173083 l 0.187309,-0.246584 c -0.156486,-0.144631 -0.365134,-0.220503 -0.61645998,-0.220503 -0.372247,0 -0.599863,0.21339 -0.599863,0.476571 0,0.35327898 0.33194,0.42440898 0.590379,0.48368399 0.18256697,0.042678 0.32008498,0.082985 0.32008498,0.201535 0,0.090098 -0.090098,0.177825 -0.27503598,0.177825 -0.218132,0 -0.391215,-0.097211 -0.502652,-0.21339 z" />
        <path
           id="path28"
           style="font-weight:bold;font-size:2.37100005px;font-family:'Proxima Nova';dominant-baseline:alphabetic;text-anchor:middle;fill:#331a00"
           d="m 0.18588283,0 h 0.339053 v -1.285082 h 0.45997401 v -0.296375 h -1.26137202 v 0.296375 h 0.46234501 z" />
        <path
           id="path30"
           style="font-weight:bold;font-size:2.37100005px;font-family:'Proxima Nova';dominant-baseline:alphabetic;text-anchor:middle;fill:#331a00"
           d="m 2.1551835,0 h 0.367505 L 1.9133415,-1.581457 H 1.4913034 L 0.87958543,0 H 1.2494614 l 0.099582,-0.27266501 h 0.7065581 z m -0.452861,-1.289824 0.26081,0.72552599 H 1.4391414 Z" />
        <path
           id="path32"
           style="font-weight:bold;font-size:2.37100005px;font-family:'Proxima Nova';dominant-baseline:alphabetic;text-anchor:middle;fill:#331a00"
           d="m 2.6687274,0 h 0.336682 v -1.581457 h -0.336682 z" />
        <path
           id="path34"
           style="font-weight:bold;font-size:2.37100005px;font-family:'Proxima Nova';dominant-baseline:alphabetic;text-anchor:middle;fill:#331a00"
           d="m 4.4077072,0 h 0.324827 v -1.581457 h -0.336682 v 1.02427199 L 3.6632131,-1.581457 H 3.3170471 V 0 h 0.336682 v -1.062208 z" />
      </g>
    </g>
    <path
       id="circle6"
       d="M 2.5,0 A 2.5,2.5 0 0 1 0,2.5 2.5,2.5 0 0 1 -2.5,0 2.5,2.5 0 0 1 0,-2.5 2.5,2.5 0 0 1 2.5,0 Z"
       style="fill:#331a00;stroke:#331a00;stroke-width:1" />
    <path
       id="line8"
       d="m -0.75,0 h 1.5"
       style="stroke:#efedeb;stroke-width:0.49000001;stroke-linecap:round" />
    <path
       id="line10"
       d="m 0,-0.75 v 1.5"
       style="stroke:#efedeb;stroke-width:0.49000001;stroke-linecap:round" />
  </g>
</svg>
