<?xml version="1.0" encoding="UTF-8" standalone="no"?>
<svg
   xmlns:dc="http://purl.org/dc/elements/1.1/"
   xmlns:cc="http://creativecommons.org/ns#"
   xmlns:rdf="http://www.w3.org/1999/02/22-rdf-syntax-ns#"
   xmlns:svg="http://www.w3.org/2000/svg"
   xmlns="http://www.w3.org/2000/svg"
   version="1.1"
   width="8.400mm"
   height="3.580mm"
   viewBox="-4.200 -1.790 8.400 3.580"
   id="svg6">
  <metadata
     id="metadata12">
    <rdf:RDF>
      <cc:Work
         rdf:about="">
        <dc:format>image/svg+xml</dc:format>
        <dc:type
           rdf:resource="http://purl.org/dc/dcmitype/StillImage" />
      </cc:Work>
    </rdf:RDF>
  </metadata>
  <defs
     id="defs10" />
  <rect
     x="-4.200"
     y="-1.790"
     width="8.400"
     height="3.580"
     fill="#efedeb"
     stroke="#331a00"
     stroke-width="0.250"
     rx="0.500"
     ry="0.500"
     id="rect2" />
  <g
     aria-label="SMPL"
     id="text4"
     style="font-weight:bold;font-size:2.371px;font-family:'Proxima Nova';dominant-baseline:middle;text-anchor:middle;fill:#331a00">
    <path
       d="m -3.0367324,0.63372249 c 0.149373,0.14937301 0.367505,0.25132601 0.670993,0.25132601 0.42678,0 0.633057,-0.218132 0.633057,-0.50739401 0,-0.35090801 -0.33194,-0.42915101 -0.59275,-0.48842601 -0.182567,-0.042678 -0.315343,-0.075872 -0.315343,-0.18256701 0,-0.09484 0.080614,-0.161228 0.232358,-0.161228 0.154115,0 0.324827,0.054533 0.452861,0.173083 l 0.187309,-0.246584 c -0.156486,-0.144631 -0.365134,-0.22050301 -0.61646,-0.22050301 -0.372247,0 -0.599863,0.21339001 -0.599863,0.47657102 0,0.353279 0.33194,0.424409 0.590379,0.48368401 0.182567,0.042678 0.320085,0.082985 0.320085,0.201535 0,0.090098 -0.090098,0.177825 -0.275036,0.177825 -0.218132,0 -0.391215,-0.097211 -0.502652,-0.21339 z"
       style="font-weight:bold;font-size:2.371px;font-family:'Proxima Nova';dominant-baseline:middle;text-anchor:middle;fill:#331a00"
       id="path14" />
    <path
       d="m -0.13081248,0.8565965 h 0.339053 v -1.58145703 h -0.47420001 l -0.384102,0.98633602 -0.38410201,-0.98633602 h -0.471829 V 0.8565965 h 0.336682 v -1.13808003 l 0.445748,1.13808003 h 0.14700201 l 0.44574801,-1.13808003 z"
       style="font-weight:bold;font-size:2.371px;font-family:'Proxima Nova';dominant-baseline:middle;text-anchor:middle;fill:#331a00"
       id="path16" />
    <path
       d="m 0.52232387,0.8565965 h 0.336682 V 0.28992749 H 1.2620759 c 0.341424,0 0.531104,-0.22998701 0.531104,-0.50502301 0,-0.27740701 -0.187309,-0.50976501 -0.531104,-0.50976501 H 0.52232387 Z M 1.4493849,-0.21746652 c 0,0.132776 -0.099582,0.21813200109 -0.232358,0.21813200109 H 0.85900587 V -0.43559853 H 1.2170269 c 0.132776,0 0.232358,0.087727 0.232358,0.21813201 z"
       style="font-weight:bold;font-size:2.371px;font-family:'Proxima Nova';dominant-baseline:middle;text-anchor:middle;fill:#331a00"
       id="path18" />
    <path
       d="M 1.9995682,0.8565965 H 3.0048723 V 0.56022149 H 2.3362502 v -1.28508202 h -0.336682 z"
       style="font-weight:bold;font-size:2.371px;font-family:'Proxima Nova';dominant-baseline:middle;text-anchor:middle;fill:#331a00"
       id="path20" />
  </g>
</svg>
