<?xml version="1.0" encoding="UTF-8" standalone="no"?>
<svg
   xmlns:dc="http://purl.org/dc/elements/1.1/"
   xmlns:cc="http://creativecommons.org/ns#"
   xmlns:rdf="http://www.w3.org/1999/02/22-rdf-syntax-ns#"
   xmlns:svg="http://www.w3.org/2000/svg"
   xmlns="http://www.w3.org/2000/svg"
   version="1.1"
   width="8.400mm"
   height="3.580mm"
   viewBox="-4.200 -1.790 8.400 3.580"
   id="svg6">
  <metadata
     id="metadata12">
    <rdf:RDF>
      <cc:Work
         rdf:about="">
        <dc:format>image/svg+xml</dc:format>
        <dc:type
           rdf:resource="http://purl.org/dc/dcmitype/StillImage" />
      </cc:Work>
    </rdf:RDF>
  </metadata>
  <defs
     id="defs10" />
  <rect
     x="-4.200"
     y="-1.790"
     width="8.400"
     height="3.580"
     fill="#efedeb"
     stroke="#331a00"
     stroke-width="0.250"
     rx="0.500"
     ry="0.500"
     id="rect2" />
  <g
     aria-label="OFF"
     id="text4"
     style="font-weight:bold;font-size:2.371px;font-family:'Proxima Nova';dominant-baseline:middle;text-anchor:middle;fill:#331a00">
    <path
       d="m -2.1792454,0.06705348 c 0,0.47657101 0.348537,0.81799502 0.825108,0.81799502 0.47894201,0 0.82747901,-0.34142401 0.82747901,-0.81799502 0,-0.47657101 -0.348537,-0.81799502 -0.82747901,-0.81799502 -0.476571,0 -0.825108,0.34142401 -0.825108,0.81799502 z m 1.30642101,0 c 0,0.29400401 -0.18968001,0.51924901 -0.48131301,0.51924901 -0.291633,0 -0.478942,-0.225245 -0.478942,-0.51924901 0,-0.296375 0.187309,-0.51924901 0.478942,-0.51924901 0.291633,0 0.48131301,0.22287401 0.48131301,0.51924901 z"
       style="font-weight:bold;font-size:2.371px;font-family:'Proxima Nova';dominant-baseline:middle;text-anchor:middle;fill:#331a00"
       id="path14" />
    <path
       d="m -0.28807653,0.8565965 h 0.336682 V 0.19745849 H 0.81443849 V -0.09180352 H 0.04860547 v -0.34379501 h 0.78243002 v -0.289262 h -1.11911202 z"
       style="font-weight:bold;font-size:2.371px;font-family:'Proxima Nova';dominant-baseline:middle;text-anchor:middle;fill:#331a00"
       id="path16" />
    <path
       d="m 1.0641345,0.8565965 h 0.336682 V 0.19745849 h 0.765833 v -0.28926201 h -0.765833 v -0.34379501 h 0.78243 v -0.289262 h -1.119112 z"
       style="font-weight:bold;font-size:2.371px;font-family:'Proxima Nova';dominant-baseline:middle;text-anchor:middle;fill:#331a00"
       id="path18" />
  </g>
</svg>
