<?xml version="1.0" encoding="UTF-8" standalone="no"?>
<svg xmlns="http://www.w3.org/2000/svg" xmlns:svg="http://www.w3.org/2000/svg" version="1.1" viewBox="-4.625000 -1.915222 9.250000 3.830444" height="3.830444mm" width="9.250000mm">
  <defs/>
  <g>
    <rect x="-4.5" y="-1.7902222222222222" width="9" height="3.5804444444444443" rx="0.5" ry="0.5" fill="#efedeb" stroke="#18191c" stroke-width="0.25"/>
    <g style="font-weight:bold;font-size:2.37067px;font-family:'Proxima Nova';dominant-baseline:middle;text-anchor:middle;fill:#18191c">
      <path d="m -2.4040413,0.85699603 h 1.0051627 V 0.56066269 h -0.668528 v -1.28490138 h -0.3366347 z" style="font-weight:bold;font-size:2.37067px;font-family:'Proxima Nova';dominant-baseline:middle;text-anchor:middle;fill:#18191c"/>
      <path d="m -1.3038297,0.067564 c 0,0.47650402 0.34848805,0.81788003 0.82499206,0.81788003 0.478874682599,0 0.82736269,-0.34137601 0.82736269,-0.81788003 0,-0.47650401 -0.348488007401,-0.81788002 -0.82736269,-0.81788002 -0.47650401,0 -0.82499206,0.34137601 -0.82499206,0.81788002 z m 1.30623741,0 c 0,0.29396268 -0.18965334,0.51917602 -0.48124535,0.51917602 -0.29159201,0 -0.47887468,-0.22521334 -0.47887468,-0.51917602 0,-0.29633334 0.18728267,-0.51917601 0.47887468,-0.51917601 0.29159201,0 0.48124535,0.22284267 0.48124535,0.51917601 z" style="font-weight:bold;font-size:2.37067px;font-family:'Proxima Nova';dominant-baseline:middle;text-anchor:middle;fill:#18191c"/>
      <path d="M 1.7498113,0.85699603 H 2.107782 L 2.5582086,-0.72423869 H 2.178902 L 1.9039046,0.41842268 1.6052006,-0.72423869 H 1.3420566 L 1.0409819,0.41842268 0.76361392,-0.72423869 H 0.38667791 L 0.83947526,0.85699603 H 1.1974459 l 0.2749974,-1.08576537 z" style="font-weight:bold;font-size:2.37067px;font-family:'Proxima Nova';dominant-baseline:middle;text-anchor:middle;fill:#18191c"/>
    </g>
  </g>
</svg>
