<?xml version="1.0" encoding="UTF-8" standalone="no"?>
<svg xmlns="http://www.w3.org/2000/svg" xmlns:svg="http://www.w3.org/2000/svg" version="1.1" viewBox="-4.625000 -1.915222 9.250000 3.830444" height="3.830444mm" width="9.250000mm">
  <defs/>
  <g>
    <rect x="-4.5" y="-1.7902222222222222" width="9" height="3.5804444444444443" rx="0.5" ry="0.5" fill="#efedeb" stroke="#18191c" stroke-width="0.25"/>
    <g style="font-weight:bold;font-size:2.37067px;font-family:'Proxima Nova';dominant-baseline:middle;text-anchor:middle;fill:#18191c">
      <path d="m -3.020711,0.88544403 c 0.3603414,0 0.5594774,-0.19202401 0.6732694,-0.38878935 L -2.636663,0.35678535 c -0.066379,0.13038667 -0.2086186,0.22995467 -0.384048,0.22995467 -0.2749973,0 -0.483616,-0.22047201 -0.483616,-0.51917602 0,-0.29870401 0.2086187,-0.51917601 0.483616,-0.51917601 0.1754294,0 0.3176694,0.10193867 0.384048,0.22995467 l 0.2892214,-0.14224 c -0.1114214,-0.19676534 -0.312928,-0.38641868 -0.6732694,-0.38641868 -0.46228,0 -0.8297333,0.33189334 -0.8297333,0.81788002 0,0.48598669 0.3674533,0.81788003 0.8297333,0.81788003 z" style="font-weight:bold;font-size:2.37067px;font-family:'Proxima Nova';dominant-baseline:middle;text-anchor:middle;fill:#18191c"/>
      <path d="m -2.1447497,0.22639868 c 0,0.38878934 0.2252134,0.65904535 0.7088294,0.65904535 0.47887468,0 0.70408802,-0.26788534 0.70408802,-0.66141602 v -0.9482667 H -1.0732083 v 0.93878403 c 0,0.22047201 -0.120904,0.37219468 -0.362712,0.37219468 -0.2465493,0 -0.3674533,-0.15172267 -0.3674533,-0.37219468 v -0.93878403 h -0.3413761 z" style="font-weight:bold;font-size:2.37067px;font-family:'Proxima Nova';dominant-baseline:middle;text-anchor:middle;fill:#18191c"/>
      <path d="M 0.47605954,0.85699603 H 0.86247821 L 0.5068782,0.25484668 c 0.17068801,-0.0403013 0.34611735,-0.18965334 0.34611735,-0.46939202 0,-0.29396267 -0.20150668,-0.50969335 -0.53102935,-0.50969335 h -0.73964803 v 1.58123472 h 0.33663468 V 0.29040668 H 0.16550219 Z M 0.50924887,-0.216916 c 0,0.13275733 -0.10193867,0.21810134 -0.23706667,0.21810134 H -0.08104715 V -0.43501734 H 0.2721822 c 0.135128,0 0.23706667,0.085344 0.23706667,0.21810134 z" style="font-weight:bold;font-size:2.37067px;font-family:'Proxima Nova';dominant-baseline:middle;text-anchor:middle;fill:#18191c"/>
      <path d="M 1.5258203,0.85699603 H 1.9477989 L 2.5570603,-0.72423869 H 2.1730123 L 1.7368096,0.49191335 1.2982362,-0.72423869 H 0.91418823 Z" style="font-weight:bold;font-size:2.37067px;font-family:'Proxima Nova';dominant-baseline:middle;text-anchor:middle;fill:#18191c"/>
      <path d="M 2.7030786,0.85699603 H 3.8220333 V 0.56540402 h -0.78232 V 0.19795068 H 3.8054386 V -0.09127067 H 3.0397133 v -0.34374667 h 0.78232 V -0.72423869 H 2.7030786 Z" style="font-weight:bold;font-size:2.37067px;font-family:'Proxima Nova';dominant-baseline:middle;text-anchor:middle;fill:#18191c"/>
    </g>
  </g>
</svg>
