<?xml version="1.0" encoding="UTF-8" standalone="no"?>
<svg xmlns="http://www.w3.org/2000/svg" xmlns:svg="http://www.w3.org/2000/svg" version="1.1" viewBox="-4.625000 -1.915222 9.250000 3.830444" height="3.830444mm" width="9.250000mm">
  <defs/>
  <g>
    <rect x="-4.5" y="-1.7902222222222222" width="9" height="3.5804444444444443" rx="0.5" ry="0.5" fill="#efedeb" stroke="#18191c" stroke-width="0.25"/>
    <g style="font-weight:bold;font-size:2.37067px;font-family:'Proxima Nova';dominant-baseline:middle;text-anchor:middle;fill:#18191c">
      <path d="m -2.9744089,0.88544403 c 0.3603414,0 0.5594774,-0.19202401 0.6732694,-0.38878935 L -2.5903609,0.35678535 c -0.066379,0.13038667 -0.2086186,0.22995467 -0.384048,0.22995467 -0.2749973,0 -0.483616,-0.22047201 -0.483616,-0.51917602 0,-0.29870401 0.2086187,-0.51917601 0.483616,-0.51917601 0.1754294,0 0.3176694,0.10193867 0.384048,0.22995467 l 0.2892214,-0.14224 c -0.1114214,-0.19676534 -0.312928,-0.38641868 -0.6732694,-0.38641868 -0.46228,0 -0.8297333,0.33189334 -0.8297333,0.81788002 0,0.48598669 0.3674533,0.81788003 0.8297333,0.81788003 z" style="font-weight:bold;font-size:2.37067px;font-family:'Proxima Nova';dominant-baseline:middle;text-anchor:middle;fill:#18191c"/>
      <path d="m -1.0150529,0.85699603 h 0.33900538 V -0.72423869 H -1.0150529 V -0.103124 h -0.74676 v -0.62111469 h -0.3366347 v 1.58123472 h 0.3366347 V 0.19320934 h 0.74676 z" style="font-weight:bold;font-size:2.37067px;font-family:'Proxima Nova';dominant-baseline:middle;text-anchor:middle;fill:#18191c"/>
      <path d="M 0.74035172,0.85699603 H 1.1078051 L 0.49854371,-0.72423869 H 0.07656503 l -0.61163202,1.58123472 h 0.36982401 l 0.099568,-0.27262668 H 0.64078371 Z M 0.28755437,-0.43264668 0.54832771,0.29277734 H 0.02441036 Z" style="font-weight:bold;font-size:2.37067px;font-family:'Proxima Nova';dominant-baseline:middle;text-anchor:middle;fill:#18191c"/>
      <path d="m 1.1262519,0.63415336 c 0.149352,0.149352 0.3674533,0.25129067 0.6708987,0.25129067 0.42672,0 0.632968,-0.21810134 0.632968,-0.50732268 0,-0.35085868 -0.3318933,-0.42909068 -0.5926667,-0.48835735 -0.1825413,-0.042672 -0.3152987,-0.0758613 -0.3152987,-0.18254134 0,-0.0948267 0.080603,-0.16120534 0.2323254,-0.16120534 0.1540933,0 0.3247813,0.0545253 0.4527973,0.17305867 l 0.1872827,-0.24654934 c -0.156464,-0.14461067 -0.3650827,-0.220472 -0.6163734,-0.220472 -0.3721946,0 -0.5997786,0.21336 -0.5997786,0.47650401 0,0.35322934 0.3318933,0.42434935 0.590296,0.48361602 0.1825413,0.042672 0.32004,0.0829733 0.32004,0.20150667 0,0.0900853 -0.090085,0.1778 -0.2749974,0.1778 -0.2181013,0 -0.39116,-0.0971973 -0.5025813,-0.21336 z" style="font-weight:bold;font-size:2.37067px;font-family:'Proxima Nova';dominant-baseline:middle;text-anchor:middle;fill:#18191c"/>
      <path d="M 2.6567765,0.85699603 H 3.7757312 V 0.56540402 h -0.78232 V 0.19795068 H 3.7591366 V -0.09127067 H 2.9934112 v -0.34374667 h 0.78232 V -0.72423869 H 2.6567765 Z" style="font-weight:bold;font-size:2.37067px;font-family:'Proxima Nova';dominant-baseline:middle;text-anchor:middle;fill:#18191c"/>
    </g>
  </g>
</svg>
