<?xml version="1.0" encoding="UTF-8" standalone="no"?>
<svg xmlns="http://www.w3.org/2000/svg" xmlns:svg="http://www.w3.org/2000/svg" version="1.1" viewBox="-4.625000 -1.915222 9.250000 3.830444" height="3.830444mm" width="9.250000mm">
  <defs/>
  <g>
    <rect x="-4.5" y="-1.7902222222222222" width="9" height="3.5804444444444443" rx="0.5" ry="0.5" fill="#efedeb" stroke="#18191c" stroke-width="0.25"/>
    <g style="font-weight:bold;font-size:2.37067px;font-family:'Proxima Nova';dominant-baseline:middle;text-anchor:middle;fill:#18191c">
      <path d="M -3.3231377,0.85699603 H -2.986503 V -0.72423869 H -3.3231377 Z" style="font-weight:bold;font-size:2.37067px;font-family:'Proxima Nova';dominant-baseline:middle;text-anchor:middle;fill:#18191c"/>
      <path d="m -1.5844018,0.85699603 h 0.3247814 v -1.58123472 h -0.3366347 v 1.02412804 l -0.732536,-1.02412804 h -0.3461174 v 1.58123472 h 0.3366347 v -1.0620587 z" style="font-weight:bold;font-size:2.37067px;font-family:'Proxima Nova';dominant-baseline:middle;text-anchor:middle;fill:#18191c"/>
      <path d="m -0.94784084,0.85699603 h 0.33663468 V 0.29040668 h 0.40301335 c 0.34137601,0 0.53102935,-0.22995468 0.53102935,-0.50495202 0,-0.27736801 -0.18728268,-0.50969335 -0.53102935,-0.50969335 h -0.73964803 z m 0.9269307,-1.07391203 c 0,0.13275733 -0.099568,0.21810134 -0.23232534,0.21810134 h -0.35797068 v -0.43620268 h 0.35797068 c 0.13275734,0 0.23232534,0.0877147 0.23232534,0.21810134 z" style="font-weight:bold;font-size:2.37067px;font-family:'Proxima Nova';dominant-baseline:middle;text-anchor:middle;fill:#18191c"/>
      <path d="m 0.52919564,0.22639868 c 0,0.38878934 0.22521334,0.65904535 0.70882936,0.65904535 0.4788747,0 0.704088,-0.26788534 0.704088,-0.66141602 v -0.9482667 H 1.600737 v 0.93878403 c 0,0.22047201 -0.120904,0.37219468 -0.362712,0.37219468 -0.24654935,0 -0.36745335,-0.15172267 -0.36745335,-0.37219468 V -0.72423869 H 0.52919564 Z" style="font-weight:bold;font-size:2.37067px;font-family:'Proxima Nova';dominant-baseline:middle;text-anchor:middle;fill:#18191c"/>
      <path d="M 2.621346,0.85699603 H 2.9603514 V -0.42790534 H 3.4202607 V -0.72423869 H 2.159066 v 0.29633335 h 0.46228 z" style="font-weight:bold;font-size:2.37067px;font-family:'Proxima Nova';dominant-baseline:middle;text-anchor:middle;fill:#18191c"/>
    </g>
  </g>
</svg>
