<?xml version="1.0" encoding="UTF-8" standalone="no"?>
<svg xmlns:dc="http://purl.org/dc/elements/1.1/" xmlns:cc="http://creativecommons.org/ns#" xmlns:rdf="http://www.w3.org/1999/02/22-rdf-syntax-ns#" xmlns:svg="http://www.w3.org/2000/svg" xmlns="http://www.w3.org/2000/svg" version="1.1" width="9.250mm" height="3.830mm" viewBox="-4.625 -1.915 9.250 3.830" id="svg6">
  <metadata id="metadata12">
    <rdf:RDF>
      <cc:Work rdf:about="">
        <dc:format>image/svg+xml</dc:format>
        <dc:type rdf:resource="http://purl.org/dc/dcmitype/StillImage"/>
      </cc:Work>
    </rdf:RDF>
  </metadata>
  <defs id="defs10"/>
  <rect x="-4.500" y="-1.790" width="9.000" height="3.580" fill="#efedeb" stroke="#331a00" stroke-width="0.250" rx="0.500" ry="0.500" id="rect2"/>
  <g aria-label="HOLD" id="text4" style="font-weight:bold;font-size:2.371px;font-family:'Proxima Nova';dominant-baseline:middle;text-anchor:middle;fill:#331a00">
    <path d="m -2.0061995,0.8565965 h 0.339053 v -1.58145703 h -0.339053 v 0.62120201 h -0.746865 v -0.62120201 h -0.336682 V 0.8565965 h 0.336682 V 0.19271649 h 0.746865 z" style="font-weight:bold;font-size:2.371px;font-family:'Proxima Nova';dominant-baseline:middle;text-anchor:middle;fill:#331a00" id="path14"/>
    <path d="m -1.433677,0.06705348 c 0,0.47657101 0.348537,0.81799502 0.82510799,0.81799502 0.47894201,0 0.82747902,-0.34142401 0.82747902,-0.81799502 0,-0.47657101 -0.34853701,-0.81799502 -0.82747902,-0.81799502 -0.47657099,0 -0.82510799,0.34142401 -0.82510799,0.81799502 z m 1.306421,0 c 0,0.29400401 -0.18968,0.51924901 -0.48131301,0.51924901 -0.29163301,0 -0.47894199,-0.225245 -0.47894199,-0.51924901 0,-0.296375 0.18730898,-0.51924901 0.47894199,-0.51924901 0.29163301,0 0.48131301,0.22287401 0.48131301,0.51924901 z" style="font-weight:bold;font-size:2.371px;font-family:'Proxima Nova';dominant-baseline:middle;text-anchor:middle;fill:#331a00" id="path16"/>
    <path d="M 0.45749186,0.8565965 H 1.4627959 V 0.56022149 H 0.79417387 V -0.72486053 H 0.45749186 Z" style="font-weight:bold;font-size:2.371px;font-family:'Proxima Nova';dominant-baseline:middle;text-anchor:middle;fill:#331a00" id="path18"/>
    <path d="m 1.6985621,0.8565965 h 0.623573 c 0.4955391,0 0.8393341,-0.31297201 0.8393341,-0.78954302 0,-0.47657101 -0.343795,-0.79191401 -0.8393341,-0.79191401 h -0.623573 z m 0.336682,-0.29637501 v -0.98870702 h 0.286891 c 0.3248271,0 0.4955391,0.21576101 0.4955391,0.49553901 0,0.26792301 -0.182567,0.49316801 -0.4955391,0.49316801 z" style="font-weight:bold;font-size:2.371px;font-family:'Proxima Nova';dominant-baseline:middle;text-anchor:middle;fill:#331a00" id="path20"/>
  </g>
</svg>
