<?xml version="1.0" encoding="UTF-8" standalone="no"?>
<svg xmlns="http://www.w3.org/2000/svg" xmlns:svg="http://www.w3.org/2000/svg" version="1.1" viewBox="-4.625000 -1.915222 9.250000 3.830444" height="3.830444mm" width="9.250000mm">
  <defs/>
  <g>
    <rect x="-4.5" y="-1.7902222222222222" width="9" height="3.5804444444444443" rx="0.5" ry="0.5" fill="#efedeb" stroke="#18191c" stroke-width="0.25"/>
    <g style="font-weight:bold;font-size:2.37067px;font-family:'Proxima Nova';dominant-baseline:middle;text-anchor:middle;fill:#18191c">
      <path d="m -2.0059174,0.85699603 h 0.3390053 V -0.72423869 H -2.0059174 V -0.103124 h -0.7467601 v -0.62111469 h -0.3366346 v 1.58123472 h 0.3366346 V 0.19320934 h 0.7467601 z" style="font-weight:bold;font-size:2.37067px;font-family:'Proxima Nova';dominant-baseline:middle;text-anchor:middle;fill:#18191c"/>
      <path d="m -1.4334756,0.067564 c 0,0.47650402 0.3484881,0.81788003 0.82499207,0.81788003 0.47887468,0 0.82736269,-0.34137601 0.82736269,-0.81788003 0,-0.47650401 -0.34848801,-0.81788002 -0.82736269,-0.81788002 -0.47650397,0 -0.82499207,0.34137601 -0.82499207,0.81788002 z m 1.30623742,0 c 0,0.29396268 -0.18965334,0.51917602 -0.48124535,0.51917602 -0.29159201,0 -0.47887467,-0.22521334 -0.47887467,-0.51917602 0,-0.29633334 0.18728266,-0.51917601 0.47887467,-0.51917601 0.29159201,0 0.48124535,0.22284267 0.48124535,0.51917601 z" style="font-weight:bold;font-size:2.37067px;font-family:'Proxima Nova';dominant-baseline:middle;text-anchor:middle;fill:#18191c"/>
      <path d="M 0.45742744,0.85699603 H 1.4625901 V 0.56066269 H 0.79406212 V -0.72423869 H 0.45742744 Z" style="font-weight:bold;font-size:2.37067px;font-family:'Proxima Nova';dominant-baseline:middle;text-anchor:middle;fill:#18191c"/>
      <path d="M 1.6983237,0.85699603 H 2.321809 c 0.4954694,0 0.839216,-0.31292801 0.839216,-0.78943203 0,-0.47650401 -0.3437466,-0.79180269 -0.839216,-0.79180269 H 1.6983237 Z M 2.0349583,0.56066269 V -0.42790534 H 2.321809 c 0.3247814,0 0.4954694,0.21573067 0.4954694,0.49546934 0,0.26788535 -0.1825414,0.49309869 -0.4954694,0.49309869 z" style="font-weight:bold;font-size:2.37067px;font-family:'Proxima Nova';dominant-baseline:middle;text-anchor:middle;fill:#18191c"/>
    </g>
  </g>
</svg>
