<?xml version="1.0" encoding="UTF-8" standalone="no"?>
<svg xmlns="http://www.w3.org/2000/svg" xmlns:svg="http://www.w3.org/2000/svg" version="1.1" viewBox="-4.625000 -1.915222 9.250000 3.830444" height="3.830444mm" width="9.250000mm">
  <defs/>
  <g>
    <rect x="-4.5" y="-1.7902222222222222" width="9" height="3.5804444444444443" rx="0.5" ry="0.5" fill="#efedeb" stroke="#18191c" stroke-width="0.25"/>
    <g style="font-weight:bold;font-size:2.37067px;font-family:'Proxima Nova';dominant-baseline:middle;text-anchor:middle;fill:#18191c">
      <path d="m -2.9182352,0.63415336 c 0.149352,0.149352 0.3674533,0.25129067 0.6708987,0.25129067 0.42672,0 0.632968,-0.21810134 0.632968,-0.50732268 0,-0.35085868 -0.3318933,-0.42909068 -0.5926667,-0.48835735 -0.1825413,-0.042672 -0.3152987,-0.0758613 -0.3152987,-0.18254134 0,-0.0948267 0.080603,-0.16120534 0.2323254,-0.16120534 0.1540933,0 0.3247813,0.0545253 0.4527973,0.17305867 l 0.1872827,-0.24654934 c -0.156464,-0.14461067 -0.3650827,-0.220472 -0.6163733,-0.220472 -0.3721947,0 -0.5997787,0.21336 -0.5997787,0.47650401 0,0.35322934 0.3318933,0.42434935 0.590296,0.48361602 0.1825413,0.042672 0.32004,0.0829733 0.32004,0.20150667 0,0.0900853 -0.090085,0.1778 -0.2749973,0.1778 -0.2181014,0 -0.3911601,-0.0971973 -0.5025814,-0.21336 z" style="font-weight:bold;font-size:2.37067px;font-family:'Proxima Nova';dominant-baseline:middle;text-anchor:middle;fill:#18191c"/>
      <path d="m -1.3877105,0.22639868 c 0,0.38878934 0.2252133,0.65904535 0.70882931,0.65904535 0.47887468,0 0.70408802,-0.26788534 0.70408802,-0.66141602 v -0.9482667 h -0.34137601 v 0.93878403 c 0,0.22047201 -0.120904,0.37219468 -0.36271201,0.37219468 -0.24654934,0 -0.36745331,-0.15172267 -0.36745331,-0.37219468 v -0.93878403 h -0.341376 z" style="font-weight:bold;font-size:2.37067px;font-family:'Proxima Nova';dominant-baseline:middle;text-anchor:middle;fill:#18191c"/>
      <path d="m 0.23030649,0.63415336 c 0.14935201,0.149352 0.36745335,0.25129067 0.67089869,0.25129067 0.42672002,0 0.63296802,-0.21810134 0.63296802,-0.50732268 0,-0.35085868 -0.3318933,-0.42909068 -0.59266669,-0.48835735 -0.18254133,-0.042672 -0.31529867,-0.0758613 -0.31529867,-0.18254134 0,-0.0948267 0.0806027,-0.16120534 0.23232534,-0.16120534 0.15409332,0 0.32478132,0.0545253 0.45279732,0.17305867 l 0.1872827,-0.24654934 c -0.156464,-0.14461067 -0.3650827,-0.220472 -0.61637335,-0.220472 -0.37219468,0 -0.59977869,0.21336 -0.59977869,0.47650401 0,0.35322934 0.33189334,0.42434935 0.59029602,0.48361602 0.18254132,0.042672 0.32004002,0.0829733 0.32004002,0.20150667 0,0.0900853 -0.090085,0.1778 -0.27499735,0.1778 -0.21810134,0 -0.39116002,-0.0971973 -0.50258135,-0.21336 z" style="font-weight:bold;font-size:2.37067px;font-family:'Proxima Nova';dominant-baseline:middle;text-anchor:middle;fill:#18191c"/>
      <path d="M 2.1073927,0.85699603 H 2.4463981 V -0.42790534 H 2.9063074 V -0.72423869 H 1.6451127 v 0.29633335 h 0.46228 z" style="font-weight:bold;font-size:2.37067px;font-family:'Proxima Nova';dominant-baseline:middle;text-anchor:middle;fill:#18191c"/>
    </g>
  </g>
</svg>
