<svg version="1.1" xmlns="http://www.w3.org/2000/svg" width="40.640mm" height="128.500mm" viewBox="0 0 40.640 128.500">
  <g id="faceplate">
    <rect x="0.250" y="0.250" width="40.140" height="128.000" fill="#fff0f0" stroke="#990000" stroke-width="0.500" rx="0.000" ry="0.000"/>
    <g transform="translate(20.320,9.000)">
      <text style="font-family:Proxima Nova;font-weight:bold;font-size:4.064px" dominant-baseline="alphabetic" text-anchor="middle" fill="#990000" y="0.000">
BOOSTER STAGE      </text>
    </g>
    <g transform="translate(20.320,119.500)">
      <text style="font-family:Proxima Nova;font-weight:bold;font-size:4.064px" dominant-baseline="hanging" text-anchor="middle" fill="#990000" y="0.190">
DHE      </text>
    </g>
    <line x1="7.107" y1="25.000" x2="33.533" y2="25.000" stroke="#990000" stroke-width="0.350"/>
    <g transform="translate(7.107,19.800)">
      <text style="font-family:Proxima Nova;font-weight:bold;font-size:2.371px" dominant-baseline="alphabetic" text-anchor="middle" fill="#990000" y="0.000">
CV      </text>
    </g>
    <g transform="translate(20.320,17.650)">
      <text style="font-family:Proxima Nova;font-weight:bold;font-size:3.048px" dominant-baseline="alphabetic" text-anchor="middle" fill="#990000" y="0.000">
LEVEL      </text>
    </g>
    <g transform="translate(33.533,29.000)">
      <text style="font-family:Proxima Nova;font-weight:bold;font-size:2.371px" dominant-baseline="hanging" text-anchor="middle" fill="#990000" y="0.111">
BI      </text>
    </g>
    <g transform="translate(33.533,21.000)">
      <text style="font-family:Proxima Nova;font-weight:bold;font-size:2.371px" dominant-baseline="alphabetic" text-anchor="middle" fill="#990000" y="0.000">
UNI      </text>
    </g>
    <line x1="7.107" y1="43.500" x2="33.533" y2="43.500" stroke="#990000" stroke-width="0.350"/>
    <g transform="translate(7.107,38.300)">
      <text style="font-family:Proxima Nova;font-weight:bold;font-size:2.371px" dominant-baseline="alphabetic" text-anchor="middle" fill="#990000" y="0.000">
CV      </text>
    </g>
    <g transform="translate(20.320,36.150)">
      <text style="font-family:Proxima Nova;font-weight:bold;font-size:3.048px" dominant-baseline="alphabetic" text-anchor="middle" fill="#990000" y="0.000">
CURVE      </text>
    </g>
    <g transform="translate(33.533,47.500)">
      <text style="font-family:Proxima Nova;font-weight:bold;font-size:2.371px" dominant-baseline="hanging" text-anchor="middle" fill="#990000" y="0.111">
J      </text>
    </g>
    <g transform="translate(33.533,39.500)">
      <text style="font-family:Proxima Nova;font-weight:bold;font-size:2.371px" dominant-baseline="alphabetic" text-anchor="middle" fill="#990000" y="0.000">
S      </text>
    </g>
    <line x1="7.107" y1="62.000" x2="33.533" y2="62.000" stroke="#990000" stroke-width="0.350"/>
    <g transform="translate(7.107,56.800)">
      <text style="font-family:Proxima Nova;font-weight:bold;font-size:2.371px" dominant-baseline="alphabetic" text-anchor="middle" fill="#990000" y="0.000">
CV      </text>
    </g>
    <g transform="translate(20.320,54.650)">
      <text style="font-family:Proxima Nova;font-weight:bold;font-size:3.048px" dominant-baseline="alphabetic" text-anchor="middle" fill="#990000" y="0.000">
DURATION      </text>
    </g>
    <g transform="translate(33.533,67.500)">
      <text style="font-family:Proxima Nova;font-weight:bold;font-size:2.371px" dominant-baseline="hanging" text-anchor="middle" fill="#990000" y="0.111">
1      </text>
    </g>
    <g transform="translate(33.533,56.500)">
      <text style="font-family:Proxima Nova;font-weight:bold;font-size:2.371px" dominant-baseline="alphabetic" text-anchor="middle" fill="#990000" y="0.000">
100      </text>
    </g>
    <g transform="translate(36.033,62.000)">
      <text style="font-family:Proxima Nova;font-weight:bold;font-size:2.371px" dominant-baseline="middle" text-anchor="start" fill="#990000" y="0.284">
10      </text>
    </g>
    <rect x="1.907" y="74.220" width="17.400" height="12.980" fill="#fff0f0" stroke="#990000" stroke-width="0.350" rx="1.000" ry="1.000"/>
    <g transform="translate(7.107,76.800)">
      <text style="font-family:Proxima Nova;font-weight:bold;font-size:2.371px" dominant-baseline="alphabetic" text-anchor="middle" fill="#990000" y="0.000">
DEFER      </text>
    </g>
    <rect x="21.333" y="74.220" width="17.400" height="12.980" fill="#990000" stroke="#990000" stroke-width="0.350" rx="1.000" ry="1.000"/>
    <g transform="translate(33.533,76.800)">
      <text style="font-family:Proxima Nova;font-weight:bold;font-size:2.371px" dominant-baseline="alphabetic" text-anchor="middle" fill="#fff0f0" y="0.000">
ACTIVE      </text>
    </g>
    <rect x="1.907" y="89.220" width="17.400" height="12.980" fill="#fff0f0" stroke="#990000" stroke-width="0.350" rx="1.000" ry="1.000"/>
    <g transform="translate(7.107,91.800)">
      <text style="font-family:Proxima Nova;font-weight:bold;font-size:2.371px" dominant-baseline="alphabetic" text-anchor="middle" fill="#990000" y="0.000">
TRIG      </text>
    </g>
    <rect x="21.333" y="89.220" width="17.400" height="12.980" fill="#990000" stroke="#990000" stroke-width="0.350" rx="1.000" ry="1.000"/>
    <g transform="translate(33.533,91.800)">
      <text style="font-family:Proxima Nova;font-weight:bold;font-size:2.371px" dominant-baseline="alphabetic" text-anchor="middle" fill="#fff0f0" y="0.000">
EOC      </text>
    </g>
    <rect x="1.907" y="104.220" width="10.400" height="12.980" fill="#fff0f0" stroke="#990000" stroke-width="0.350" rx="1.000" ry="1.000"/>
    <g transform="translate(7.107,106.800)">
      <text style="font-family:Proxima Nova;font-weight:bold;font-size:2.371px" dominant-baseline="alphabetic" text-anchor="middle" fill="#990000" y="0.000">
IN      </text>
    </g>
    <rect x="28.333" y="104.220" width="10.400" height="12.980" fill="#990000" stroke="#990000" stroke-width="0.350" rx="1.000" ry="1.000"/>
    <g transform="translate(33.533,106.800)">
      <text style="font-family:Proxima Nova;font-weight:bold;font-size:2.371px" dominant-baseline="alphabetic" text-anchor="middle" fill="#fff0f0" y="0.000">
OUT      </text>
    </g>
  </g>
  <g id="overlay">
    <g transform="translate(7.107,25.000)">
      <circle cx="0" cy="0" r="4.200" fill="#990000" stroke="none" stroke-width="0"/>
      <circle cx="0" cy="0" r="3.500" fill="none" stroke="#fff0f0" stroke-width="0.950"/>
      <circle cx="0" cy="0" r="2.325" fill="none" stroke="#fff0f0" stroke-width="0.950"/>
    </g>
    <g transform="translate(20.320,25.000)">
      <circle cx="0" cy="0" r="6.350" fill="#990000" stroke="none" stroke-width="0"/>
      <line x1="0" y1="0" x2="0" y2="-5.556" stroke="#fff0f0" stroke-width="0.794" stroke-linecap="round"/>
    </g>
    <g transform="translate(33.533,25.000)">
      <rect x="-1.312" y="-2.812" width="2.625" height="5.625" fill="#fff0f0" stroke="#990000" stroke-width="0.375" rx="0.188" ry="0.188"/>
      <line x1="-0.812" y1="0.250" x2="0.812" y2="0.250" stroke="#990000" stroke-width="0.250" stroke-linecap="round"/>
      <line x1="-0.812" y1="0.750" x2="0.812" y2="0.750" stroke="#990000" stroke-width="0.250" stroke-linecap="round"/>
      <line x1="-0.812" y1="1.250" x2="0.812" y2="1.250" stroke="#990000" stroke-width="0.250" stroke-linecap="round"/>
      <line x1="-0.812" y1="1.750" x2="0.812" y2="1.750" stroke="#990000" stroke-width="0.250" stroke-linecap="round"/>
      <line x1="-0.812" y1="2.250" x2="0.812" y2="2.250" stroke="#990000" stroke-width="0.250" stroke-linecap="round"/>
    </g>
    <g transform="translate(7.107,43.500)">
      <circle cx="0" cy="0" r="4.200" fill="#990000" stroke="none" stroke-width="0"/>
      <circle cx="0" cy="0" r="3.500" fill="none" stroke="#fff0f0" stroke-width="0.950"/>
      <circle cx="0" cy="0" r="2.325" fill="none" stroke="#fff0f0" stroke-width="0.950"/>
    </g>
    <g transform="translate(20.320,43.500)">
      <circle cx="0" cy="0" r="6.350" fill="#990000" stroke="none" stroke-width="0"/>
      <line x1="0" y1="0" x2="0" y2="-5.556" stroke="#fff0f0" stroke-width="0.794" stroke-linecap="round"/>
    </g>
    <g transform="translate(33.533,43.500)">
      <rect x="-1.312" y="-2.812" width="2.625" height="5.625" fill="#fff0f0" stroke="#990000" stroke-width="0.375" rx="0.188" ry="0.188"/>
      <line x1="-0.812" y1="0.250" x2="0.812" y2="0.250" stroke="#990000" stroke-width="0.250" stroke-linecap="round"/>
      <line x1="-0.812" y1="0.750" x2="0.812" y2="0.750" stroke="#990000" stroke-width="0.250" stroke-linecap="round"/>
      <line x1="-0.812" y1="1.250" x2="0.812" y2="1.250" stroke="#990000" stroke-width="0.250" stroke-linecap="round"/>
      <line x1="-0.812" y1="1.750" x2="0.812" y2="1.750" stroke="#990000" stroke-width="0.250" stroke-linecap="round"/>
      <line x1="-0.812" y1="2.250" x2="0.812" y2="2.250" stroke="#990000" stroke-width="0.250" stroke-linecap="round"/>
    </g>
    <g transform="translate(7.107,62.000)">
      <circle cx="0" cy="0" r="4.200" fill="#990000" stroke="none" stroke-width="0"/>
      <circle cx="0" cy="0" r="3.500" fill="none" stroke="#fff0f0" stroke-width="0.950"/>
      <circle cx="0" cy="0" r="2.325" fill="none" stroke="#fff0f0" stroke-width="0.950"/>
    </g>
    <g transform="translate(20.320,62.000)">
      <circle cx="0" cy="0" r="6.350" fill="#990000" stroke="none" stroke-width="0"/>
      <line x1="0" y1="0" x2="0" y2="-5.556" stroke="#fff0f0" stroke-width="0.794" stroke-linecap="round"/>
    </g>
    <g transform="translate(33.533,62.000)">
      <rect x="-1.312" y="-4.312" width="2.625" height="8.625" fill="#fff0f0" stroke="#990000" stroke-width="0.375" rx="0.188" ry="0.188"/>
      <line x1="-0.812" y1="-1.000" x2="0.812" y2="-1.000" stroke="#990000" stroke-width="0.250" stroke-linecap="round"/>
      <line x1="-0.812" y1="-0.500" x2="0.812" y2="-0.500" stroke="#990000" stroke-width="0.250" stroke-linecap="round"/>
      <line x1="-0.812" y1="0.000" x2="0.812" y2="0.000" stroke="#990000" stroke-width="0.250" stroke-linecap="round"/>
      <line x1="-0.812" y1="0.500" x2="0.812" y2="0.500" stroke="#990000" stroke-width="0.250" stroke-linecap="round"/>
      <line x1="-0.812" y1="1.000" x2="0.812" y2="1.000" stroke="#990000" stroke-width="0.250" stroke-linecap="round"/>
    </g>
    <g transform="translate(7.107,82.000)">
      <circle cx="0" cy="0" r="4.200" fill="#990000" stroke="none" stroke-width="0"/>
      <circle cx="0" cy="0" r="3.500" fill="none" stroke="#fff0f0" stroke-width="0.950"/>
      <circle cx="0" cy="0" r="2.325" fill="none" stroke="#fff0f0" stroke-width="0.950"/>
    </g>
    <g transform="translate(15.307,82.000)">
      <circle cx="0" cy="0" r="3.000" fill="#990000" stroke="none" stroke-width="0"/>
      <circle cx="0" cy="0" r="2.000" fill="#990000" stroke="none" stroke-width="0"/>
    </g>
    <g transform="translate(33.533,82.000)">
      <circle cx="0" cy="0" r="4.200" fill="#990000" stroke="none" stroke-width="0"/>
      <circle cx="0" cy="0" r="3.500" fill="none" stroke="#fff0f0" stroke-width="0.950"/>
      <circle cx="0" cy="0" r="2.325" fill="none" stroke="#fff0f0" stroke-width="0.950"/>
    </g>
    <g transform="translate(25.333,82.000)">
      <circle cx="0" cy="0" r="3.000" fill="#fff0f0" stroke="none" stroke-width="0"/>
      <circle cx="0" cy="0" r="2.000" fill="#fff0f0" stroke="none" stroke-width="0"/>
    </g>
    <g transform="translate(7.107,97.000)">
      <circle cx="0" cy="0" r="4.200" fill="#990000" stroke="none" stroke-width="0"/>
      <circle cx="0" cy="0" r="3.500" fill="none" stroke="#fff0f0" stroke-width="0.950"/>
      <circle cx="0" cy="0" r="2.325" fill="none" stroke="#fff0f0" stroke-width="0.950"/>
    </g>
    <g transform="translate(15.307,97.000)">
      <circle cx="0" cy="0" r="3.000" fill="#990000" stroke="none" stroke-width="0"/>
      <circle cx="0" cy="0" r="2.000" fill="#990000" stroke="none" stroke-width="0"/>
    </g>
    <g transform="translate(33.533,97.000)">
      <circle cx="0" cy="0" r="4.200" fill="#990000" stroke="none" stroke-width="0"/>
      <circle cx="0" cy="0" r="3.500" fill="none" stroke="#fff0f0" stroke-width="0.950"/>
      <circle cx="0" cy="0" r="2.325" fill="none" stroke="#fff0f0" stroke-width="0.950"/>
    </g>
    <g transform="translate(25.333,97.000)">
      <circle cx="0" cy="0" r="3.000" fill="#fff0f0" stroke="none" stroke-width="0"/>
      <circle cx="0" cy="0" r="2.000" fill="#fff0f0" stroke="none" stroke-width="0"/>
    </g>
    <g transform="translate(7.107,112.000)">
      <circle cx="0" cy="0" r="4.200" fill="#990000" stroke="none" stroke-width="0"/>
      <circle cx="0" cy="0" r="3.500" fill="none" stroke="#fff0f0" stroke-width="0.950"/>
      <circle cx="0" cy="0" r="2.325" fill="none" stroke="#fff0f0" stroke-width="0.950"/>
    </g>
    <g transform="translate(33.533,112.000)">
      <circle cx="0" cy="0" r="4.200" fill="#990000" stroke="none" stroke-width="0"/>
      <circle cx="0" cy="0" r="3.500" fill="none" stroke="#fff0f0" stroke-width="0.950"/>
      <circle cx="0" cy="0" r="2.325" fill="none" stroke="#fff0f0" stroke-width="0.950"/>
    </g>
  </g>
</svg>
