<svg version="1.1" xmlns="http://www.w3.org/2000/svg" width="111.760mm" height="128.500mm" viewBox="0 0 111.760 128.500">
  <g id="faceplate">
    <rect x="0.250" y="0.250" width="111.260" height="128.000" fill="#efedeb" stroke="#331a00" stroke-width="0.500" rx="0.000" ry="0.000"/>
    <g transform="translate(55.880,9.000)">
      <text style="font-family:Proxima Nova;font-weight:bold;font-size:4.064px" dominant-baseline="alphabetic" text-anchor="middle" fill="#331a00" y="0.000">
CURVE SEQUENCER 4      </text>
    </g>
    <g transform="translate(55.880,119.500)">
      <text style="font-family:Proxima Nova;font-weight:bold;font-size:4.064px" dominant-baseline="hanging" text-anchor="middle" fill="#331a00" y="0.190">
DHE      </text>
    </g>
    <rect x="4.960" y="26.510" width="17.400" height="12.980" fill="#efedeb" stroke="#331a00" stroke-width="0.350" rx="1.000" ry="1.000"/>
    <g transform="translate(10.160,29.090)">
      <text style="font-family:Proxima Nova;font-weight:bold;font-size:2.371px" dominant-baseline="alphabetic" text-anchor="middle" fill="#331a00" y="0.000">
RUN      </text>
    </g>
    <rect x="4.960" y="84.522" width="17.400" height="12.980" fill="#efedeb" stroke="#331a00" stroke-width="0.350" rx="1.000" ry="1.000"/>
    <g transform="translate(10.160,87.102)">
      <text style="font-family:Proxima Nova;font-weight:bold;font-size:2.371px" dominant-baseline="alphabetic" text-anchor="middle" fill="#331a00" y="0.000">
GATE      </text>
    </g>
    <line x1="10.160" y1="72.965" x2="20.320" y2="72.965" stroke="#331a00" stroke-width="0.350"/>
    <g transform="translate(10.160,67.765)">
      <text style="font-family:Proxima Nova;font-weight:bold;font-size:2.371px" dominant-baseline="alphabetic" text-anchor="middle" fill="#331a00" y="0.000">
START      </text>
    </g>
    <g transform="translate(20.320,67.765)">
      <text style="font-family:Proxima Nova;font-weight:bold;font-size:2.371px" dominant-baseline="alphabetic" text-anchor="middle" fill="#331a00" y="0.000">
LENGTH      </text>
    </g>
    <rect x="4.960" y="45.847" width="17.400" height="12.980" fill="#efedeb" stroke="#331a00" stroke-width="0.350" rx="1.000" ry="1.000"/>
    <g transform="translate(10.160,48.428)">
      <text style="font-family:Proxima Nova;font-weight:bold;font-size:2.371px" dominant-baseline="alphabetic" text-anchor="middle" fill="#331a00" y="0.000">
LOOP      </text>
    </g>
    <rect x="4.960" y="103.860" width="17.400" height="12.980" fill="#efedeb" stroke="#331a00" stroke-width="0.350" rx="1.000" ry="1.000"/>
    <g transform="translate(10.160,106.440)">
      <text style="font-family:Proxima Nova;font-weight:bold;font-size:2.371px" dominant-baseline="alphabetic" text-anchor="middle" fill="#331a00" y="0.000">
RESET      </text>
    </g>
    <g transform="translate(43.942,28.499)">
      <text style="font-family:Proxima Nova;font-weight:bold;font-size:3.048px" dominant-baseline="middle" text-anchor="end" fill="#331a00" y="0.366">
GENERATE      </text>
    </g>
    <g transform="translate(43.942,36.830)">
      <text style="font-family:Proxima Nova;font-weight:bold;font-size:3.048px" dominant-baseline="middle" text-anchor="end" fill="#331a00" y="0.366">
ADVANCE      </text>
    </g>
    <g transform="translate(43.942,49.530)">
      <text style="font-family:Proxima Nova;font-weight:bold;font-size:3.048px" dominant-baseline="middle" text-anchor="end" fill="#331a00" y="0.366">
LEVEL      </text>
    </g>
    <g transform="translate(43.942,64.770)">
      <text style="font-family:Proxima Nova;font-weight:bold;font-size:3.048px" dominant-baseline="middle" text-anchor="end" fill="#331a00" y="0.366">
SHAPE      </text>
    </g>
    <g transform="translate(43.942,76.200)">
      <text style="font-family:Proxima Nova;font-weight:bold;font-size:3.048px" dominant-baseline="middle" text-anchor="end" fill="#331a00" y="0.366">
CURVE      </text>
    </g>
    <g transform="translate(43.942,91.440)">
      <text style="font-family:Proxima Nova;font-weight:bold;font-size:3.048px" dominant-baseline="middle" text-anchor="end" fill="#331a00" y="0.366">
DURATION      </text>
    </g>
    <g transform="translate(43.942,108.540)">
      <text style="font-family:Proxima Nova;font-weight:bold;font-size:3.048px" dominant-baseline="middle" text-anchor="end" fill="#331a00" y="0.366">
ENABLED      </text>
    </g>
    <line x1="45.085" y1="26.670" x2="45.085" y2="116.840" stroke="#331a00" stroke-width="0.350"/>
    <g transform="translate(50.800,21.408)">
      <circle cx="0" cy="0" r="1.088" fill="#331a00" stroke="none" stroke-width="0"/>
    </g>
    <g transform="translate(50.800,17.780)">
      <text style="font-family:Proxima Nova;font-weight:bold;font-size:3.048px" dominant-baseline="alphabetic" text-anchor="middle" fill="#331a00" y="0.000">
1      </text>
    </g>
    <g transform="translate(50.800,68.770)">
      <text style="font-family:Proxima Nova;font-weight:bold;font-size:2.371px" dominant-baseline="hanging" text-anchor="middle" fill="#331a00" y="0.111">
J      </text>
    </g>
    <g transform="translate(50.800,60.770)">
      <text style="font-family:Proxima Nova;font-weight:bold;font-size:2.371px" dominant-baseline="alphabetic" text-anchor="middle" fill="#331a00" y="0.000">
S      </text>
    </g>
    <g transform="translate(50.800,71.000)">
      <text style="font-family:Proxima Nova;font-weight:bold;font-size:2.371px" dominant-baseline="alphabetic" text-anchor="middle" fill="#331a00" y="0.000">
      </text>
    </g>
    <g transform="translate(50.800,44.330)">
      <text style="font-family:Proxima Nova;font-weight:bold;font-size:2.371px" dominant-baseline="alphabetic" text-anchor="middle" fill="#331a00" y="0.000">
      </text>
    </g>
    <g transform="translate(50.800,86.240)">
      <text style="font-family:Proxima Nova;font-weight:bold;font-size:2.371px" dominant-baseline="alphabetic" text-anchor="middle" fill="#331a00" y="0.000">
      </text>
    </g>
    <g transform="translate(50.800,100.440)">
      <text style="font-family:Proxima Nova;font-weight:bold;font-size:2.371px" dominant-baseline="alphabetic" text-anchor="middle" fill="#331a00" y="0.000">
      </text>
    </g>
    <g transform="translate(50.800,107.440)">
      <text style="font-family:Proxima Nova;font-weight:bold;font-size:2.371px" dominant-baseline="alphabetic" text-anchor="middle" fill="#331a00" y="0.000">
      </text>
    </g>
    <line x1="50.800" y1="104.440" x2="50.800" y2="112.640" stroke="#331a00" stroke-width="0.350"/>
    <line x1="56.515" y1="26.670" x2="56.515" y2="116.840" stroke="#331a00" stroke-width="0.350"/>
    <g transform="translate(62.230,21.408)">
      <circle cx="0" cy="0" r="1.088" fill="#331a00" stroke="none" stroke-width="0"/>
    </g>
    <g transform="translate(62.230,17.780)">
      <text style="font-family:Proxima Nova;font-weight:bold;font-size:3.048px" dominant-baseline="alphabetic" text-anchor="middle" fill="#331a00" y="0.000">
2      </text>
    </g>
    <g transform="translate(62.230,68.770)">
      <text style="font-family:Proxima Nova;font-weight:bold;font-size:2.371px" dominant-baseline="hanging" text-anchor="middle" fill="#331a00" y="0.111">
J      </text>
    </g>
    <g transform="translate(62.230,60.770)">
      <text style="font-family:Proxima Nova;font-weight:bold;font-size:2.371px" dominant-baseline="alphabetic" text-anchor="middle" fill="#331a00" y="0.000">
S      </text>
    </g>
    <g transform="translate(62.230,71.000)">
      <text style="font-family:Proxima Nova;font-weight:bold;font-size:2.371px" dominant-baseline="alphabetic" text-anchor="middle" fill="#331a00" y="0.000">
      </text>
    </g>
    <g transform="translate(62.230,44.330)">
      <text style="font-family:Proxima Nova;font-weight:bold;font-size:2.371px" dominant-baseline="alphabetic" text-anchor="middle" fill="#331a00" y="0.000">
      </text>
    </g>
    <g transform="translate(62.230,86.240)">
      <text style="font-family:Proxima Nova;font-weight:bold;font-size:2.371px" dominant-baseline="alphabetic" text-anchor="middle" fill="#331a00" y="0.000">
      </text>
    </g>
    <g transform="translate(62.230,100.440)">
      <text style="font-family:Proxima Nova;font-weight:bold;font-size:2.371px" dominant-baseline="alphabetic" text-anchor="middle" fill="#331a00" y="0.000">
      </text>
    </g>
    <g transform="translate(62.230,107.440)">
      <text style="font-family:Proxima Nova;font-weight:bold;font-size:2.371px" dominant-baseline="alphabetic" text-anchor="middle" fill="#331a00" y="0.000">
      </text>
    </g>
    <line x1="62.230" y1="104.440" x2="62.230" y2="112.640" stroke="#331a00" stroke-width="0.350"/>
    <line x1="67.945" y1="26.670" x2="67.945" y2="116.840" stroke="#331a00" stroke-width="0.350"/>
    <g transform="translate(73.660,21.408)">
      <circle cx="0" cy="0" r="1.088" fill="#331a00" stroke="none" stroke-width="0"/>
    </g>
    <g transform="translate(73.660,17.780)">
      <text style="font-family:Proxima Nova;font-weight:bold;font-size:3.048px" dominant-baseline="alphabetic" text-anchor="middle" fill="#331a00" y="0.000">
3      </text>
    </g>
    <g transform="translate(73.660,68.770)">
      <text style="font-family:Proxima Nova;font-weight:bold;font-size:2.371px" dominant-baseline="hanging" text-anchor="middle" fill="#331a00" y="0.111">
J      </text>
    </g>
    <g transform="translate(73.660,60.770)">
      <text style="font-family:Proxima Nova;font-weight:bold;font-size:2.371px" dominant-baseline="alphabetic" text-anchor="middle" fill="#331a00" y="0.000">
S      </text>
    </g>
    <g transform="translate(73.660,71.000)">
      <text style="font-family:Proxima Nova;font-weight:bold;font-size:2.371px" dominant-baseline="alphabetic" text-anchor="middle" fill="#331a00" y="0.000">
      </text>
    </g>
    <g transform="translate(73.660,44.330)">
      <text style="font-family:Proxima Nova;font-weight:bold;font-size:2.371px" dominant-baseline="alphabetic" text-anchor="middle" fill="#331a00" y="0.000">
      </text>
    </g>
    <g transform="translate(73.660,86.240)">
      <text style="font-family:Proxima Nova;font-weight:bold;font-size:2.371px" dominant-baseline="alphabetic" text-anchor="middle" fill="#331a00" y="0.000">
      </text>
    </g>
    <g transform="translate(73.660,100.440)">
      <text style="font-family:Proxima Nova;font-weight:bold;font-size:2.371px" dominant-baseline="alphabetic" text-anchor="middle" fill="#331a00" y="0.000">
      </text>
    </g>
    <g transform="translate(73.660,107.440)">
      <text style="font-family:Proxima Nova;font-weight:bold;font-size:2.371px" dominant-baseline="alphabetic" text-anchor="middle" fill="#331a00" y="0.000">
      </text>
    </g>
    <line x1="73.660" y1="104.440" x2="73.660" y2="112.640" stroke="#331a00" stroke-width="0.350"/>
    <line x1="79.375" y1="26.670" x2="79.375" y2="116.840" stroke="#331a00" stroke-width="0.350"/>
    <g transform="translate(85.090,21.408)">
      <circle cx="0" cy="0" r="1.088" fill="#331a00" stroke="none" stroke-width="0"/>
    </g>
    <g transform="translate(85.090,17.780)">
      <text style="font-family:Proxima Nova;font-weight:bold;font-size:3.048px" dominant-baseline="alphabetic" text-anchor="middle" fill="#331a00" y="0.000">
4      </text>
    </g>
    <g transform="translate(85.090,68.770)">
      <text style="font-family:Proxima Nova;font-weight:bold;font-size:2.371px" dominant-baseline="hanging" text-anchor="middle" fill="#331a00" y="0.111">
J      </text>
    </g>
    <g transform="translate(85.090,60.770)">
      <text style="font-family:Proxima Nova;font-weight:bold;font-size:2.371px" dominant-baseline="alphabetic" text-anchor="middle" fill="#331a00" y="0.000">
S      </text>
    </g>
    <g transform="translate(85.090,71.000)">
      <text style="font-family:Proxima Nova;font-weight:bold;font-size:2.371px" dominant-baseline="alphabetic" text-anchor="middle" fill="#331a00" y="0.000">
      </text>
    </g>
    <g transform="translate(85.090,44.330)">
      <text style="font-family:Proxima Nova;font-weight:bold;font-size:2.371px" dominant-baseline="alphabetic" text-anchor="middle" fill="#331a00" y="0.000">
      </text>
    </g>
    <g transform="translate(85.090,86.240)">
      <text style="font-family:Proxima Nova;font-weight:bold;font-size:2.371px" dominant-baseline="alphabetic" text-anchor="middle" fill="#331a00" y="0.000">
      </text>
    </g>
    <g transform="translate(85.090,100.440)">
      <text style="font-family:Proxima Nova;font-weight:bold;font-size:2.371px" dominant-baseline="alphabetic" text-anchor="middle" fill="#331a00" y="0.000">
      </text>
    </g>
    <g transform="translate(85.090,107.440)">
      <text style="font-family:Proxima Nova;font-weight:bold;font-size:2.371px" dominant-baseline="alphabetic" text-anchor="middle" fill="#331a00" y="0.000">
      </text>
    </g>
    <line x1="85.090" y1="104.440" x2="85.090" y2="112.640" stroke="#331a00" stroke-width="0.350"/>
    <line x1="90.805" y1="26.670" x2="90.805" y2="116.840" stroke="#331a00" stroke-width="0.350"/>
    <rect x="96.400" y="26.510" width="10.400" height="12.980" fill="#efedeb" stroke="#331a00" stroke-width="0.350" rx="1.000" ry="1.000"/>
    <g transform="translate(101.600,29.090)">
      <text style="font-family:Proxima Nova;font-weight:bold;font-size:2.371px" dominant-baseline="alphabetic" text-anchor="middle" fill="#331a00" y="0.000">
IN      </text>
    </g>
    <line x1="90.805" y1="49.530" x2="101.600" y2="49.530" stroke="#331a00" stroke-width="0.350"/>
    <g transform="translate(101.600,53.530)">
      <text style="font-family:Proxima Nova;font-weight:bold;font-size:2.371px" dominant-baseline="hanging" text-anchor="middle" fill="#331a00" y="0.111">
BI      </text>
    </g>
    <g transform="translate(101.600,45.530)">
      <text style="font-family:Proxima Nova;font-weight:bold;font-size:2.371px" dominant-baseline="alphabetic" text-anchor="middle" fill="#331a00" y="0.000">
UNI      </text>
    </g>
    <line x1="90.805" y1="91.440" x2="101.600" y2="91.440" stroke="#331a00" stroke-width="0.350"/>
    <g transform="translate(101.600,96.940)">
      <text style="font-family:Proxima Nova;font-weight:bold;font-size:2.371px" dominant-baseline="hanging" text-anchor="middle" fill="#331a00" y="0.111">
1      </text>
    </g>
    <g transform="translate(101.600,85.940)">
      <text style="font-family:Proxima Nova;font-weight:bold;font-size:2.371px" dominant-baseline="alphabetic" text-anchor="middle" fill="#331a00" y="0.000">
100      </text>
    </g>
    <g transform="translate(104.100,91.440)">
      <text style="font-family:Proxima Nova;font-weight:bold;font-size:2.371px" dominant-baseline="middle" text-anchor="start" fill="#331a00" y="0.284">
10      </text>
    </g>
    <rect x="96.400" y="103.860" width="10.400" height="12.980" fill="#331a00" stroke="#331a00" stroke-width="0.350" rx="1.000" ry="1.000"/>
    <g transform="translate(101.600,106.440)">
      <text style="font-family:Proxima Nova;font-weight:bold;font-size:2.371px" dominant-baseline="alphabetic" text-anchor="middle" fill="#efedeb" y="0.000">
OUT      </text>
    </g>
  </g>
  <g id="overlay">
    <g transform="translate(10.160,34.290)">
      <circle cx="0" cy="0" r="4.200" fill="#331a00" stroke="none" stroke-width="0"/>
      <circle cx="0" cy="0" r="3.500" fill="none" stroke="#efedeb" stroke-width="0.950"/>
      <circle cx="0" cy="0" r="2.325" fill="none" stroke="#efedeb" stroke-width="0.950"/>
    </g>
    <g transform="translate(18.360,34.290)">
      <circle cx="0" cy="0" r="3.000" fill="#331a00" stroke="none" stroke-width="0"/>
      <circle cx="0" cy="0" r="2.000" fill="#331a00" stroke="none" stroke-width="0"/>
    </g>
    <g transform="translate(10.160,92.302)">
      <circle cx="0" cy="0" r="4.200" fill="#331a00" stroke="none" stroke-width="0"/>
      <circle cx="0" cy="0" r="3.500" fill="none" stroke="#efedeb" stroke-width="0.950"/>
      <circle cx="0" cy="0" r="2.325" fill="none" stroke="#efedeb" stroke-width="0.950"/>
    </g>
    <g transform="translate(18.360,92.302)">
      <circle cx="0" cy="0" r="3.000" fill="#331a00" stroke="none" stroke-width="0"/>
      <circle cx="0" cy="0" r="2.000" fill="#331a00" stroke="none" stroke-width="0"/>
    </g>
    <g transform="translate(10.160,72.965)">
      <circle cx="0" cy="0" r="4.200" fill="#331a00" stroke="none" stroke-width="0"/>
      <line x1="0" y1="0" x2="0" y2="-3.675" stroke="#efedeb" stroke-width="0.525" stroke-linecap="round"/>
    </g>
    <g transform="translate(20.320,72.965)">
      <circle cx="0" cy="0" r="4.200" fill="#331a00" stroke="none" stroke-width="0"/>
      <line x1="0" y1="0" x2="0" y2="-3.675" stroke="#efedeb" stroke-width="0.525" stroke-linecap="round"/>
    </g>
    <g transform="translate(10.160,53.628)">
      <circle cx="0" cy="0" r="4.200" fill="#331a00" stroke="none" stroke-width="0"/>
      <circle cx="0" cy="0" r="3.500" fill="none" stroke="#efedeb" stroke-width="0.950"/>
      <circle cx="0" cy="0" r="2.325" fill="none" stroke="#efedeb" stroke-width="0.950"/>
    </g>
    <g transform="translate(18.360,53.628)">
      <circle cx="0" cy="0" r="3.000" fill="#331a00" stroke="none" stroke-width="0"/>
      <circle cx="0" cy="0" r="2.000" fill="#331a00" stroke="none" stroke-width="0"/>
    </g>
    <g transform="translate(10.160,111.640)">
      <circle cx="0" cy="0" r="4.200" fill="#331a00" stroke="none" stroke-width="0"/>
      <circle cx="0" cy="0" r="3.500" fill="none" stroke="#efedeb" stroke-width="0.950"/>
      <circle cx="0" cy="0" r="2.325" fill="none" stroke="#efedeb" stroke-width="0.950"/>
    </g>
    <g transform="translate(18.360,111.640)">
      <circle cx="0" cy="0" r="3.000" fill="#331a00" stroke="none" stroke-width="0"/>
      <circle cx="0" cy="0" r="2.000" fill="#331a00" stroke="none" stroke-width="0"/>
    </g>
    <g transform="translate(50.800,28.499)">
      <rect x="-4.500" y="-1.790" width="9.000" height="3.580" fill="#efedeb" stroke="#331a00" stroke-width="0.250" rx="0.500" ry="0.500"/>
      <text style="font-family:Proxima Nova;font-weight:bold;font-size:2.371px" dominant-baseline="middle" text-anchor="middle" fill="#331a00" y="0.284">
CURVE      </text>
    </g>
    <g transform="translate(50.800,36.830)">
      <rect x="-4.500" y="-1.790" width="9.000" height="3.580" fill="#efedeb" stroke="#331a00" stroke-width="0.250" rx="0.500" ry="0.500"/>
      <text style="font-family:Proxima Nova;font-weight:bold;font-size:2.371px" dominant-baseline="middle" text-anchor="middle" fill="#331a00" y="0.284">
TIME      </text>
    </g>
    <g transform="translate(50.800,64.770)">
      <rect x="-1.312" y="-2.812" width="2.625" height="5.625" fill="#efedeb" stroke="#331a00" stroke-width="0.375" rx="0.188" ry="0.188"/>
      <line x1="-0.812" y1="0.250" x2="0.812" y2="0.250" stroke="#331a00" stroke-width="0.250" stroke-linecap="round"/>
      <line x1="-0.812" y1="0.750" x2="0.812" y2="0.750" stroke="#331a00" stroke-width="0.250" stroke-linecap="round"/>
      <line x1="-0.812" y1="1.250" x2="0.812" y2="1.250" stroke="#331a00" stroke-width="0.250" stroke-linecap="round"/>
      <line x1="-0.812" y1="1.750" x2="0.812" y2="1.750" stroke="#331a00" stroke-width="0.250" stroke-linecap="round"/>
      <line x1="-0.812" y1="2.250" x2="0.812" y2="2.250" stroke="#331a00" stroke-width="0.250" stroke-linecap="round"/>
    </g>
    <g transform="translate(50.800,76.200)">
      <circle cx="0" cy="0" r="4.200" fill="#331a00" stroke="none" stroke-width="0"/>
      <line x1="0" y1="0" x2="0" y2="-3.675" stroke="#efedeb" stroke-width="0.525" stroke-linecap="round"/>
    </g>
    <g transform="translate(50.800,49.530)">
      <circle cx="0" cy="0" r="4.200" fill="#331a00" stroke="none" stroke-width="0"/>
      <line x1="0" y1="0" x2="0" y2="-3.675" stroke="#efedeb" stroke-width="0.525" stroke-linecap="round"/>
    </g>
    <g transform="translate(50.800,91.440)">
      <circle cx="0" cy="0" r="4.200" fill="#331a00" stroke="none" stroke-width="0"/>
      <line x1="0" y1="0" x2="0" y2="-3.675" stroke="#efedeb" stroke-width="0.525" stroke-linecap="round"/>
    </g>
    <g transform="translate(50.800,104.440)">
      <circle cx="0" cy="0" r="3.000" fill="#331a00" stroke="none" stroke-width="0"/>
      <circle cx="0" cy="0" r="2.000" fill="#331a00" stroke="none" stroke-width="0"/>
    </g>
    <g transform="translate(50.800,112.640)">
      <circle cx="0" cy="0" r="4.200" fill="#331a00" stroke="none" stroke-width="0"/>
      <circle cx="0" cy="0" r="3.500" fill="none" stroke="#efedeb" stroke-width="0.950"/>
      <circle cx="0" cy="0" r="2.325" fill="none" stroke="#efedeb" stroke-width="0.950"/>
    </g>
    <g transform="translate(62.230,28.499)">
      <rect x="-4.500" y="-1.790" width="9.000" height="3.580" fill="#efedeb" stroke="#331a00" stroke-width="0.250" rx="0.500" ry="0.500"/>
      <text style="font-family:Proxima Nova;font-weight:bold;font-size:2.371px" dominant-baseline="middle" text-anchor="middle" fill="#331a00" y="0.284">
CURVE      </text>
    </g>
    <g transform="translate(62.230,36.830)">
      <rect x="-4.500" y="-1.790" width="9.000" height="3.580" fill="#efedeb" stroke="#331a00" stroke-width="0.250" rx="0.500" ry="0.500"/>
      <text style="font-family:Proxima Nova;font-weight:bold;font-size:2.371px" dominant-baseline="middle" text-anchor="middle" fill="#331a00" y="0.284">
TIME      </text>
    </g>
    <g transform="translate(62.230,64.770)">
      <rect x="-1.312" y="-2.812" width="2.625" height="5.625" fill="#efedeb" stroke="#331a00" stroke-width="0.375" rx="0.188" ry="0.188"/>
      <line x1="-0.812" y1="0.250" x2="0.812" y2="0.250" stroke="#331a00" stroke-width="0.250" stroke-linecap="round"/>
      <line x1="-0.812" y1="0.750" x2="0.812" y2="0.750" stroke="#331a00" stroke-width="0.250" stroke-linecap="round"/>
      <line x1="-0.812" y1="1.250" x2="0.812" y2="1.250" stroke="#331a00" stroke-width="0.250" stroke-linecap="round"/>
      <line x1="-0.812" y1="1.750" x2="0.812" y2="1.750" stroke="#331a00" stroke-width="0.250" stroke-linecap="round"/>
      <line x1="-0.812" y1="2.250" x2="0.812" y2="2.250" stroke="#331a00" stroke-width="0.250" stroke-linecap="round"/>
    </g>
    <g transform="translate(62.230,76.200)">
      <circle cx="0" cy="0" r="4.200" fill="#331a00" stroke="none" stroke-width="0"/>
      <line x1="0" y1="0" x2="0" y2="-3.675" stroke="#efedeb" stroke-width="0.525" stroke-linecap="round"/>
    </g>
    <g transform="translate(62.230,49.530)">
      <circle cx="0" cy="0" r="4.200" fill="#331a00" stroke="none" stroke-width="0"/>
      <line x1="0" y1="0" x2="0" y2="-3.675" stroke="#efedeb" stroke-width="0.525" stroke-linecap="round"/>
    </g>
    <g transform="translate(62.230,91.440)">
      <circle cx="0" cy="0" r="4.200" fill="#331a00" stroke="none" stroke-width="0"/>
      <line x1="0" y1="0" x2="0" y2="-3.675" stroke="#efedeb" stroke-width="0.525" stroke-linecap="round"/>
    </g>
    <g transform="translate(62.230,104.440)">
      <circle cx="0" cy="0" r="3.000" fill="#331a00" stroke="none" stroke-width="0"/>
      <circle cx="0" cy="0" r="2.000" fill="#331a00" stroke="none" stroke-width="0"/>
    </g>
    <g transform="translate(62.230,112.640)">
      <circle cx="0" cy="0" r="4.200" fill="#331a00" stroke="none" stroke-width="0"/>
      <circle cx="0" cy="0" r="3.500" fill="none" stroke="#efedeb" stroke-width="0.950"/>
      <circle cx="0" cy="0" r="2.325" fill="none" stroke="#efedeb" stroke-width="0.950"/>
    </g>
    <g transform="translate(73.660,28.499)">
      <rect x="-4.500" y="-1.790" width="9.000" height="3.580" fill="#efedeb" stroke="#331a00" stroke-width="0.250" rx="0.500" ry="0.500"/>
      <text style="font-family:Proxima Nova;font-weight:bold;font-size:2.371px" dominant-baseline="middle" text-anchor="middle" fill="#331a00" y="0.284">
CURVE      </text>
    </g>
    <g transform="translate(73.660,36.830)">
      <rect x="-4.500" y="-1.790" width="9.000" height="3.580" fill="#efedeb" stroke="#331a00" stroke-width="0.250" rx="0.500" ry="0.500"/>
      <text style="font-family:Proxima Nova;font-weight:bold;font-size:2.371px" dominant-baseline="middle" text-anchor="middle" fill="#331a00" y="0.284">
TIME      </text>
    </g>
    <g transform="translate(73.660,64.770)">
      <rect x="-1.312" y="-2.812" width="2.625" height="5.625" fill="#efedeb" stroke="#331a00" stroke-width="0.375" rx="0.188" ry="0.188"/>
      <line x1="-0.812" y1="0.250" x2="0.812" y2="0.250" stroke="#331a00" stroke-width="0.250" stroke-linecap="round"/>
      <line x1="-0.812" y1="0.750" x2="0.812" y2="0.750" stroke="#331a00" stroke-width="0.250" stroke-linecap="round"/>
      <line x1="-0.812" y1="1.250" x2="0.812" y2="1.250" stroke="#331a00" stroke-width="0.250" stroke-linecap="round"/>
      <line x1="-0.812" y1="1.750" x2="0.812" y2="1.750" stroke="#331a00" stroke-width="0.250" stroke-linecap="round"/>
      <line x1="-0.812" y1="2.250" x2="0.812" y2="2.250" stroke="#331a00" stroke-width="0.250" stroke-linecap="round"/>
    </g>
    <g transform="translate(73.660,76.200)">
      <circle cx="0" cy="0" r="4.200" fill="#331a00" stroke="none" stroke-width="0"/>
      <line x1="0" y1="0" x2="0" y2="-3.675" stroke="#efedeb" stroke-width="0.525" stroke-linecap="round"/>
    </g>
    <g transform="translate(73.660,49.530)">
      <circle cx="0" cy="0" r="4.200" fill="#331a00" stroke="none" stroke-width="0"/>
      <line x1="0" y1="0" x2="0" y2="-3.675" stroke="#efedeb" stroke-width="0.525" stroke-linecap="round"/>
    </g>
    <g transform="translate(73.660,91.440)">
      <circle cx="0" cy="0" r="4.200" fill="#331a00" stroke="none" stroke-width="0"/>
      <line x1="0" y1="0" x2="0" y2="-3.675" stroke="#efedeb" stroke-width="0.525" stroke-linecap="round"/>
    </g>
    <g transform="translate(73.660,104.440)">
      <circle cx="0" cy="0" r="3.000" fill="#331a00" stroke="none" stroke-width="0"/>
      <circle cx="0" cy="0" r="2.000" fill="#331a00" stroke="none" stroke-width="0"/>
    </g>
    <g transform="translate(73.660,112.640)">
      <circle cx="0" cy="0" r="4.200" fill="#331a00" stroke="none" stroke-width="0"/>
      <circle cx="0" cy="0" r="3.500" fill="none" stroke="#efedeb" stroke-width="0.950"/>
      <circle cx="0" cy="0" r="2.325" fill="none" stroke="#efedeb" stroke-width="0.950"/>
    </g>
    <g transform="translate(85.090,28.499)">
      <rect x="-4.500" y="-1.790" width="9.000" height="3.580" fill="#efedeb" stroke="#331a00" stroke-width="0.250" rx="0.500" ry="0.500"/>
      <text style="font-family:Proxima Nova;font-weight:bold;font-size:2.371px" dominant-baseline="middle" text-anchor="middle" fill="#331a00" y="0.284">
CURVE      </text>
    </g>
    <g transform="translate(85.090,36.830)">
      <rect x="-4.500" y="-1.790" width="9.000" height="3.580" fill="#efedeb" stroke="#331a00" stroke-width="0.250" rx="0.500" ry="0.500"/>
      <text style="font-family:Proxima Nova;font-weight:bold;font-size:2.371px" dominant-baseline="middle" text-anchor="middle" fill="#331a00" y="0.284">
TIME      </text>
    </g>
    <g transform="translate(85.090,64.770)">
      <rect x="-1.312" y="-2.812" width="2.625" height="5.625" fill="#efedeb" stroke="#331a00" stroke-width="0.375" rx="0.188" ry="0.188"/>
      <line x1="-0.812" y1="0.250" x2="0.812" y2="0.250" stroke="#331a00" stroke-width="0.250" stroke-linecap="round"/>
      <line x1="-0.812" y1="0.750" x2="0.812" y2="0.750" stroke="#331a00" stroke-width="0.250" stroke-linecap="round"/>
      <line x1="-0.812" y1="1.250" x2="0.812" y2="1.250" stroke="#331a00" stroke-width="0.250" stroke-linecap="round"/>
      <line x1="-0.812" y1="1.750" x2="0.812" y2="1.750" stroke="#331a00" stroke-width="0.250" stroke-linecap="round"/>
      <line x1="-0.812" y1="2.250" x2="0.812" y2="2.250" stroke="#331a00" stroke-width="0.250" stroke-linecap="round"/>
    </g>
    <g transform="translate(85.090,76.200)">
      <circle cx="0" cy="0" r="4.200" fill="#331a00" stroke="none" stroke-width="0"/>
      <line x1="0" y1="0" x2="0" y2="-3.675" stroke="#efedeb" stroke-width="0.525" stroke-linecap="round"/>
    </g>
    <g transform="translate(85.090,49.530)">
      <circle cx="0" cy="0" r="4.200" fill="#331a00" stroke="none" stroke-width="0"/>
      <line x1="0" y1="0" x2="0" y2="-3.675" stroke="#efedeb" stroke-width="0.525" stroke-linecap="round"/>
    </g>
    <g transform="translate(85.090,91.440)">
      <circle cx="0" cy="0" r="4.200" fill="#331a00" stroke="none" stroke-width="0"/>
      <line x1="0" y1="0" x2="0" y2="-3.675" stroke="#efedeb" stroke-width="0.525" stroke-linecap="round"/>
    </g>
    <g transform="translate(85.090,104.440)">
      <circle cx="0" cy="0" r="3.000" fill="#331a00" stroke="none" stroke-width="0"/>
      <circle cx="0" cy="0" r="2.000" fill="#331a00" stroke="none" stroke-width="0"/>
    </g>
    <g transform="translate(85.090,112.640)">
      <circle cx="0" cy="0" r="4.200" fill="#331a00" stroke="none" stroke-width="0"/>
      <circle cx="0" cy="0" r="3.500" fill="none" stroke="#efedeb" stroke-width="0.950"/>
      <circle cx="0" cy="0" r="2.325" fill="none" stroke="#efedeb" stroke-width="0.950"/>
    </g>
    <g transform="translate(48.624,21.408)">
      <line x1="-2.176" y1="-2.176" x2="-2.176" y2="2.176" stroke-width="0.350" stroke-linecap="square" stroke="#331a00"/>
      <line x1="-2.176" y1="-2.176" x2="0.000" y2="-2.176" stroke-width="0.350" stroke-linecap="square" stroke="#331a00"/>
      <line x1="-2.176" y1="2.176" x2="0.000" y2="2.176" stroke-width="0.350" stroke-linecap="square" stroke="#331a00"/>
    </g>
    <g transform="translate(87.266,21.408)">
      <line x1="2.176" y1="-2.176" x2="2.176" y2="2.176" stroke-width="0.350" stroke-linecap="square" stroke="#331a00"/>
      <line x1="2.176" y1="-2.176" x2="0.000" y2="-2.176" stroke-width="0.350" stroke-linecap="square" stroke="#331a00"/>
      <line x1="2.176" y1="2.176" x2="0.000" y2="2.176" stroke-width="0.350" stroke-linecap="square" stroke="#331a00"/>
    </g>
    <g transform="translate(101.600,34.290)">
      <circle cx="0" cy="0" r="4.200" fill="#331a00" stroke="none" stroke-width="0"/>
      <circle cx="0" cy="0" r="3.500" fill="none" stroke="#efedeb" stroke-width="0.950"/>
      <circle cx="0" cy="0" r="2.325" fill="none" stroke="#efedeb" stroke-width="0.950"/>
    </g>
    <g transform="translate(101.600,49.530)">
      <rect x="-1.312" y="-2.812" width="2.625" height="5.625" fill="#efedeb" stroke="#331a00" stroke-width="0.375" rx="0.188" ry="0.188"/>
      <line x1="-0.812" y1="-2.250" x2="0.812" y2="-2.250" stroke="#331a00" stroke-width="0.250" stroke-linecap="round"/>
      <line x1="-0.812" y1="-1.750" x2="0.812" y2="-1.750" stroke="#331a00" stroke-width="0.250" stroke-linecap="round"/>
      <line x1="-0.812" y1="-1.250" x2="0.812" y2="-1.250" stroke="#331a00" stroke-width="0.250" stroke-linecap="round"/>
      <line x1="-0.812" y1="-0.750" x2="0.812" y2="-0.750" stroke="#331a00" stroke-width="0.250" stroke-linecap="round"/>
      <line x1="-0.812" y1="-0.250" x2="0.812" y2="-0.250" stroke="#331a00" stroke-width="0.250" stroke-linecap="round"/>
    </g>
    <g transform="translate(101.600,91.440)">
      <rect x="-1.312" y="-4.312" width="2.625" height="8.625" fill="#efedeb" stroke="#331a00" stroke-width="0.375" rx="0.188" ry="0.188"/>
      <line x1="-0.812" y1="-1.000" x2="0.812" y2="-1.000" stroke="#331a00" stroke-width="0.250" stroke-linecap="round"/>
      <line x1="-0.812" y1="-0.500" x2="0.812" y2="-0.500" stroke="#331a00" stroke-width="0.250" stroke-linecap="round"/>
      <line x1="-0.812" y1="0.000" x2="0.812" y2="0.000" stroke="#331a00" stroke-width="0.250" stroke-linecap="round"/>
      <line x1="-0.812" y1="0.500" x2="0.812" y2="0.500" stroke="#331a00" stroke-width="0.250" stroke-linecap="round"/>
      <line x1="-0.812" y1="1.000" x2="0.812" y2="1.000" stroke="#331a00" stroke-width="0.250" stroke-linecap="round"/>
    </g>
    <g transform="translate(101.600,111.640)">
      <circle cx="0" cy="0" r="4.200" fill="#331a00" stroke="none" stroke-width="0"/>
      <circle cx="0" cy="0" r="3.500" fill="none" stroke="#efedeb" stroke-width="0.950"/>
      <circle cx="0" cy="0" r="2.325" fill="none" stroke="#efedeb" stroke-width="0.950"/>
    </g>
  </g>
</svg>
