<svg version="1.1" xmlns="http://www.w3.org/2000/svg" width="60.960mm" height="128.500mm" viewBox="0 0 60.960 128.500">
  <g id="faceplate">
    <rect x="0.250" y="0.250" width="60.460" height="128.000" fill="#faf7f0" stroke="#0044cc" stroke-width="0.500" rx="0.000" ry="0.000"/>
    <g transform="translate(30.480,9.000)">
      <text style="font-family:Proxima Nova;font-weight:bold;font-size:4.064px" dominant-baseline="alphabetic" text-anchor="middle" fill="#0044cc" y="0.000">
FUNC 6      </text>
    </g>
    <g transform="translate(30.480,119.500)">
      <text style="font-family:Proxima Nova;font-weight:bold;font-size:4.064px" dominant-baseline="hanging" text-anchor="middle" fill="#0044cc" y="0.190">
DHE      </text>
    </g>
    <line x1="8.709" y1="23.000" x2="52.251" y2="23.000" stroke="#0044cc" stroke-width="0.350"/>
    <rect x="3.509" y="16.470" width="10.400" height="12.980" fill="#faf7f0" stroke="#0044cc" stroke-width="0.350" rx="1.000" ry="1.000"/>
    <g transform="translate(8.709,19.050)">
      <text style="font-family:Proxima Nova;font-weight:bold;font-size:2.371px" dominant-baseline="alphabetic" text-anchor="middle" fill="#0044cc" y="0.000">
IN      </text>
    </g>
    <g transform="translate(19.594,27.000)">
      <text style="font-family:Proxima Nova;font-weight:bold;font-size:2.371px" dominant-baseline="hanging" text-anchor="middle" fill="#0044cc" y="0.111">
ADD      </text>
    </g>
    <g transform="translate(19.594,19.000)">
      <text style="font-family:Proxima Nova;font-weight:bold;font-size:2.371px" dominant-baseline="alphabetic" text-anchor="middle" fill="#0044cc" y="0.000">
MULT      </text>
    </g>
    <g transform="translate(30.480,15.650)">
      <text style="font-family:Proxima Nova;font-weight:bold;font-size:3.048px" dominant-baseline="alphabetic" text-anchor="middle" fill="#0044cc" y="0.000">
       </text>
    </g>
    <rect x="47.051" y="16.470" width="10.400" height="12.980" fill="#0044cc" stroke="#0044cc" stroke-width="0.350" rx="1.000" ry="1.000"/>
    <g transform="translate(52.251,19.050)">
      <text style="font-family:Proxima Nova;font-weight:bold;font-size:2.371px" dominant-baseline="alphabetic" text-anchor="middle" fill="#faf7f0" y="0.000">
OUT      </text>
    </g>
    <line x1="8.709" y1="40.000" x2="52.251" y2="40.000" stroke="#0044cc" stroke-width="0.350"/>
    <rect x="3.509" y="33.470" width="10.400" height="12.980" fill="#faf7f0" stroke="#0044cc" stroke-width="0.350" rx="1.000" ry="1.000"/>
    <g transform="translate(8.709,36.050)">
      <text style="font-family:Proxima Nova;font-weight:bold;font-size:2.371px" dominant-baseline="alphabetic" text-anchor="middle" fill="#0044cc" y="0.000">
IN      </text>
    </g>
    <g transform="translate(19.594,44.000)">
      <text style="font-family:Proxima Nova;font-weight:bold;font-size:2.371px" dominant-baseline="hanging" text-anchor="middle" fill="#0044cc" y="0.111">
ADD      </text>
    </g>
    <g transform="translate(19.594,36.000)">
      <text style="font-family:Proxima Nova;font-weight:bold;font-size:2.371px" dominant-baseline="alphabetic" text-anchor="middle" fill="#0044cc" y="0.000">
MULT      </text>
    </g>
    <g transform="translate(30.480,32.650)">
      <text style="font-family:Proxima Nova;font-weight:bold;font-size:3.048px" dominant-baseline="alphabetic" text-anchor="middle" fill="#0044cc" y="0.000">
       </text>
    </g>
    <rect x="47.051" y="33.470" width="10.400" height="12.980" fill="#0044cc" stroke="#0044cc" stroke-width="0.350" rx="1.000" ry="1.000"/>
    <g transform="translate(52.251,36.050)">
      <text style="font-family:Proxima Nova;font-weight:bold;font-size:2.371px" dominant-baseline="alphabetic" text-anchor="middle" fill="#faf7f0" y="0.000">
OUT      </text>
    </g>
    <line x1="8.709" y1="57.000" x2="52.251" y2="57.000" stroke="#0044cc" stroke-width="0.350"/>
    <rect x="3.509" y="50.470" width="10.400" height="12.980" fill="#faf7f0" stroke="#0044cc" stroke-width="0.350" rx="1.000" ry="1.000"/>
    <g transform="translate(8.709,53.050)">
      <text style="font-family:Proxima Nova;font-weight:bold;font-size:2.371px" dominant-baseline="alphabetic" text-anchor="middle" fill="#0044cc" y="0.000">
IN      </text>
    </g>
    <g transform="translate(19.594,61.000)">
      <text style="font-family:Proxima Nova;font-weight:bold;font-size:2.371px" dominant-baseline="hanging" text-anchor="middle" fill="#0044cc" y="0.111">
ADD      </text>
    </g>
    <g transform="translate(19.594,53.000)">
      <text style="font-family:Proxima Nova;font-weight:bold;font-size:2.371px" dominant-baseline="alphabetic" text-anchor="middle" fill="#0044cc" y="0.000">
MULT      </text>
    </g>
    <g transform="translate(30.480,49.650)">
      <text style="font-family:Proxima Nova;font-weight:bold;font-size:3.048px" dominant-baseline="alphabetic" text-anchor="middle" fill="#0044cc" y="0.000">
       </text>
    </g>
    <rect x="47.051" y="50.470" width="10.400" height="12.980" fill="#0044cc" stroke="#0044cc" stroke-width="0.350" rx="1.000" ry="1.000"/>
    <g transform="translate(52.251,53.050)">
      <text style="font-family:Proxima Nova;font-weight:bold;font-size:2.371px" dominant-baseline="alphabetic" text-anchor="middle" fill="#faf7f0" y="0.000">
OUT      </text>
    </g>
    <line x1="8.709" y1="74.000" x2="52.251" y2="74.000" stroke="#0044cc" stroke-width="0.350"/>
    <rect x="3.509" y="67.470" width="10.400" height="12.980" fill="#faf7f0" stroke="#0044cc" stroke-width="0.350" rx="1.000" ry="1.000"/>
    <g transform="translate(8.709,70.050)">
      <text style="font-family:Proxima Nova;font-weight:bold;font-size:2.371px" dominant-baseline="alphabetic" text-anchor="middle" fill="#0044cc" y="0.000">
IN      </text>
    </g>
    <g transform="translate(19.594,78.000)">
      <text style="font-family:Proxima Nova;font-weight:bold;font-size:2.371px" dominant-baseline="hanging" text-anchor="middle" fill="#0044cc" y="0.111">
ADD      </text>
    </g>
    <g transform="translate(19.594,70.000)">
      <text style="font-family:Proxima Nova;font-weight:bold;font-size:2.371px" dominant-baseline="alphabetic" text-anchor="middle" fill="#0044cc" y="0.000">
MULT      </text>
    </g>
    <g transform="translate(30.480,66.650)">
      <text style="font-family:Proxima Nova;font-weight:bold;font-size:3.048px" dominant-baseline="alphabetic" text-anchor="middle" fill="#0044cc" y="0.000">
       </text>
    </g>
    <rect x="47.051" y="67.470" width="10.400" height="12.980" fill="#0044cc" stroke="#0044cc" stroke-width="0.350" rx="1.000" ry="1.000"/>
    <g transform="translate(52.251,70.050)">
      <text style="font-family:Proxima Nova;font-weight:bold;font-size:2.371px" dominant-baseline="alphabetic" text-anchor="middle" fill="#faf7f0" y="0.000">
OUT      </text>
    </g>
    <line x1="8.709" y1="91.000" x2="52.251" y2="91.000" stroke="#0044cc" stroke-width="0.350"/>
    <rect x="3.509" y="84.470" width="10.400" height="12.980" fill="#faf7f0" stroke="#0044cc" stroke-width="0.350" rx="1.000" ry="1.000"/>
    <g transform="translate(8.709,87.050)">
      <text style="font-family:Proxima Nova;font-weight:bold;font-size:2.371px" dominant-baseline="alphabetic" text-anchor="middle" fill="#0044cc" y="0.000">
IN      </text>
    </g>
    <g transform="translate(19.594,95.000)">
      <text style="font-family:Proxima Nova;font-weight:bold;font-size:2.371px" dominant-baseline="hanging" text-anchor="middle" fill="#0044cc" y="0.111">
ADD      </text>
    </g>
    <g transform="translate(19.594,87.000)">
      <text style="font-family:Proxima Nova;font-weight:bold;font-size:2.371px" dominant-baseline="alphabetic" text-anchor="middle" fill="#0044cc" y="0.000">
MULT      </text>
    </g>
    <g transform="translate(30.480,83.650)">
      <text style="font-family:Proxima Nova;font-weight:bold;font-size:3.048px" dominant-baseline="alphabetic" text-anchor="middle" fill="#0044cc" y="0.000">
       </text>
    </g>
    <rect x="47.051" y="84.470" width="10.400" height="12.980" fill="#0044cc" stroke="#0044cc" stroke-width="0.350" rx="1.000" ry="1.000"/>
    <g transform="translate(52.251,87.050)">
      <text style="font-family:Proxima Nova;font-weight:bold;font-size:2.371px" dominant-baseline="alphabetic" text-anchor="middle" fill="#faf7f0" y="0.000">
OUT      </text>
    </g>
    <line x1="8.709" y1="108.000" x2="52.251" y2="108.000" stroke="#0044cc" stroke-width="0.350"/>
    <rect x="3.509" y="101.470" width="10.400" height="12.980" fill="#faf7f0" stroke="#0044cc" stroke-width="0.350" rx="1.000" ry="1.000"/>
    <g transform="translate(8.709,104.050)">
      <text style="font-family:Proxima Nova;font-weight:bold;font-size:2.371px" dominant-baseline="alphabetic" text-anchor="middle" fill="#0044cc" y="0.000">
IN      </text>
    </g>
    <g transform="translate(19.594,112.000)">
      <text style="font-family:Proxima Nova;font-weight:bold;font-size:2.371px" dominant-baseline="hanging" text-anchor="middle" fill="#0044cc" y="0.111">
ADD      </text>
    </g>
    <g transform="translate(19.594,104.000)">
      <text style="font-family:Proxima Nova;font-weight:bold;font-size:2.371px" dominant-baseline="alphabetic" text-anchor="middle" fill="#0044cc" y="0.000">
MULT      </text>
    </g>
    <g transform="translate(30.480,100.650)">
      <text style="font-family:Proxima Nova;font-weight:bold;font-size:3.048px" dominant-baseline="alphabetic" text-anchor="middle" fill="#0044cc" y="0.000">
       </text>
    </g>
    <rect x="47.051" y="101.470" width="10.400" height="12.980" fill="#0044cc" stroke="#0044cc" stroke-width="0.350" rx="1.000" ry="1.000"/>
    <g transform="translate(52.251,104.050)">
      <text style="font-family:Proxima Nova;font-weight:bold;font-size:2.371px" dominant-baseline="alphabetic" text-anchor="middle" fill="#faf7f0" y="0.000">
OUT      </text>
    </g>
  </g>
  <g id="overlay">
    <g transform="translate(8.709,24.250)">
      <circle cx="0" cy="0" r="4.200" fill="#0044cc" stroke="none" stroke-width="0"/>
      <circle cx="0" cy="0" r="3.500" fill="none" stroke="#faf7f0" stroke-width="0.950"/>
      <circle cx="0" cy="0" r="2.325" fill="none" stroke="#faf7f0" stroke-width="0.950"/>
    </g>
    <g transform="translate(19.594,23.000)">
      <rect x="-1.312" y="-2.812" width="2.625" height="5.625" fill="#faf7f0" stroke="#0044cc" stroke-width="0.375" rx="0.188" ry="0.188"/>
      <line x1="-0.812" y1="0.250" x2="0.812" y2="0.250" stroke="#0044cc" stroke-width="0.250" stroke-linecap="round"/>
      <line x1="-0.812" y1="0.750" x2="0.812" y2="0.750" stroke="#0044cc" stroke-width="0.250" stroke-linecap="round"/>
      <line x1="-0.812" y1="1.250" x2="0.812" y2="1.250" stroke="#0044cc" stroke-width="0.250" stroke-linecap="round"/>
      <line x1="-0.812" y1="1.750" x2="0.812" y2="1.750" stroke="#0044cc" stroke-width="0.250" stroke-linecap="round"/>
      <line x1="-0.812" y1="2.250" x2="0.812" y2="2.250" stroke="#0044cc" stroke-width="0.250" stroke-linecap="round"/>
    </g>
    <g transform="translate(30.480,23.000)">
      <circle cx="0" cy="0" r="6.350" fill="#0044cc" stroke="none" stroke-width="0"/>
      <line x1="0" y1="0" x2="0" y2="-5.556" stroke="#faf7f0" stroke-width="0.794" stroke-linecap="round"/>
    </g>
    <g transform="translate(41.866,23.000)">
      <rect x="-3.500" y="-1.790" width="7.000" height="3.580" fill="#faf7f0" stroke="#0044cc" stroke-width="0.250" rx="0.500" ry="0.500"/>
      <text style="font-family:Proxima Nova;font-weight:bold;font-size:2.371px" dominant-baseline="middle" text-anchor="middle" fill="#0044cc" y="0.284">
±5      </text>
    </g>
    <g transform="translate(52.251,24.250)">
      <circle cx="0" cy="0" r="4.200" fill="#0044cc" stroke="none" stroke-width="0"/>
      <circle cx="0" cy="0" r="3.500" fill="none" stroke="#faf7f0" stroke-width="0.950"/>
      <circle cx="0" cy="0" r="2.325" fill="none" stroke="#faf7f0" stroke-width="0.950"/>
    </g>
    <g transform="translate(8.709,41.250)">
      <circle cx="0" cy="0" r="4.200" fill="#0044cc" stroke="none" stroke-width="0"/>
      <circle cx="0" cy="0" r="3.500" fill="none" stroke="#faf7f0" stroke-width="0.950"/>
      <circle cx="0" cy="0" r="2.325" fill="none" stroke="#faf7f0" stroke-width="0.950"/>
    </g>
    <g transform="translate(19.594,40.000)">
      <rect x="-1.312" y="-2.812" width="2.625" height="5.625" fill="#faf7f0" stroke="#0044cc" stroke-width="0.375" rx="0.188" ry="0.188"/>
      <line x1="-0.812" y1="0.250" x2="0.812" y2="0.250" stroke="#0044cc" stroke-width="0.250" stroke-linecap="round"/>
      <line x1="-0.812" y1="0.750" x2="0.812" y2="0.750" stroke="#0044cc" stroke-width="0.250" stroke-linecap="round"/>
      <line x1="-0.812" y1="1.250" x2="0.812" y2="1.250" stroke="#0044cc" stroke-width="0.250" stroke-linecap="round"/>
      <line x1="-0.812" y1="1.750" x2="0.812" y2="1.750" stroke="#0044cc" stroke-width="0.250" stroke-linecap="round"/>
      <line x1="-0.812" y1="2.250" x2="0.812" y2="2.250" stroke="#0044cc" stroke-width="0.250" stroke-linecap="round"/>
    </g>
    <g transform="translate(30.480,40.000)">
      <circle cx="0" cy="0" r="6.350" fill="#0044cc" stroke="none" stroke-width="0"/>
      <line x1="0" y1="0" x2="0" y2="-5.556" stroke="#faf7f0" stroke-width="0.794" stroke-linecap="round"/>
    </g>
    <g transform="translate(41.866,40.000)">
      <rect x="-3.500" y="-1.790" width="7.000" height="3.580" fill="#faf7f0" stroke="#0044cc" stroke-width="0.250" rx="0.500" ry="0.500"/>
      <text style="font-family:Proxima Nova;font-weight:bold;font-size:2.371px" dominant-baseline="middle" text-anchor="middle" fill="#0044cc" y="0.284">
±5      </text>
    </g>
    <g transform="translate(52.251,41.250)">
      <circle cx="0" cy="0" r="4.200" fill="#0044cc" stroke="none" stroke-width="0"/>
      <circle cx="0" cy="0" r="3.500" fill="none" stroke="#faf7f0" stroke-width="0.950"/>
      <circle cx="0" cy="0" r="2.325" fill="none" stroke="#faf7f0" stroke-width="0.950"/>
    </g>
    <g transform="translate(8.709,58.250)">
      <circle cx="0" cy="0" r="4.200" fill="#0044cc" stroke="none" stroke-width="0"/>
      <circle cx="0" cy="0" r="3.500" fill="none" stroke="#faf7f0" stroke-width="0.950"/>
      <circle cx="0" cy="0" r="2.325" fill="none" stroke="#faf7f0" stroke-width="0.950"/>
    </g>
    <g transform="translate(19.594,57.000)">
      <rect x="-1.312" y="-2.812" width="2.625" height="5.625" fill="#faf7f0" stroke="#0044cc" stroke-width="0.375" rx="0.188" ry="0.188"/>
      <line x1="-0.812" y1="0.250" x2="0.812" y2="0.250" stroke="#0044cc" stroke-width="0.250" stroke-linecap="round"/>
      <line x1="-0.812" y1="0.750" x2="0.812" y2="0.750" stroke="#0044cc" stroke-width="0.250" stroke-linecap="round"/>
      <line x1="-0.812" y1="1.250" x2="0.812" y2="1.250" stroke="#0044cc" stroke-width="0.250" stroke-linecap="round"/>
      <line x1="-0.812" y1="1.750" x2="0.812" y2="1.750" stroke="#0044cc" stroke-width="0.250" stroke-linecap="round"/>
      <line x1="-0.812" y1="2.250" x2="0.812" y2="2.250" stroke="#0044cc" stroke-width="0.250" stroke-linecap="round"/>
    </g>
    <g transform="translate(30.480,57.000)">
      <circle cx="0" cy="0" r="6.350" fill="#0044cc" stroke="none" stroke-width="0"/>
      <line x1="0" y1="0" x2="0" y2="-5.556" stroke="#faf7f0" stroke-width="0.794" stroke-linecap="round"/>
    </g>
    <g transform="translate(41.866,57.000)">
      <rect x="-3.500" y="-1.790" width="7.000" height="3.580" fill="#faf7f0" stroke="#0044cc" stroke-width="0.250" rx="0.500" ry="0.500"/>
      <text style="font-family:Proxima Nova;font-weight:bold;font-size:2.371px" dominant-baseline="middle" text-anchor="middle" fill="#0044cc" y="0.284">
±5      </text>
    </g>
    <g transform="translate(52.251,58.250)">
      <circle cx="0" cy="0" r="4.200" fill="#0044cc" stroke="none" stroke-width="0"/>
      <circle cx="0" cy="0" r="3.500" fill="none" stroke="#faf7f0" stroke-width="0.950"/>
      <circle cx="0" cy="0" r="2.325" fill="none" stroke="#faf7f0" stroke-width="0.950"/>
    </g>
    <g transform="translate(8.709,75.250)">
      <circle cx="0" cy="0" r="4.200" fill="#0044cc" stroke="none" stroke-width="0"/>
      <circle cx="0" cy="0" r="3.500" fill="none" stroke="#faf7f0" stroke-width="0.950"/>
      <circle cx="0" cy="0" r="2.325" fill="none" stroke="#faf7f0" stroke-width="0.950"/>
    </g>
    <g transform="translate(19.594,74.000)">
      <rect x="-1.312" y="-2.812" width="2.625" height="5.625" fill="#faf7f0" stroke="#0044cc" stroke-width="0.375" rx="0.188" ry="0.188"/>
      <line x1="-0.812" y1="0.250" x2="0.812" y2="0.250" stroke="#0044cc" stroke-width="0.250" stroke-linecap="round"/>
      <line x1="-0.812" y1="0.750" x2="0.812" y2="0.750" stroke="#0044cc" stroke-width="0.250" stroke-linecap="round"/>
      <line x1="-0.812" y1="1.250" x2="0.812" y2="1.250" stroke="#0044cc" stroke-width="0.250" stroke-linecap="round"/>
      <line x1="-0.812" y1="1.750" x2="0.812" y2="1.750" stroke="#0044cc" stroke-width="0.250" stroke-linecap="round"/>
      <line x1="-0.812" y1="2.250" x2="0.812" y2="2.250" stroke="#0044cc" stroke-width="0.250" stroke-linecap="round"/>
    </g>
    <g transform="translate(30.480,74.000)">
      <circle cx="0" cy="0" r="6.350" fill="#0044cc" stroke="none" stroke-width="0"/>
      <line x1="0" y1="0" x2="0" y2="-5.556" stroke="#faf7f0" stroke-width="0.794" stroke-linecap="round"/>
    </g>
    <g transform="translate(41.866,74.000)">
      <rect x="-3.500" y="-1.790" width="7.000" height="3.580" fill="#faf7f0" stroke="#0044cc" stroke-width="0.250" rx="0.500" ry="0.500"/>
      <text style="font-family:Proxima Nova;font-weight:bold;font-size:2.371px" dominant-baseline="middle" text-anchor="middle" fill="#0044cc" y="0.284">
±5      </text>
    </g>
    <g transform="translate(52.251,75.250)">
      <circle cx="0" cy="0" r="4.200" fill="#0044cc" stroke="none" stroke-width="0"/>
      <circle cx="0" cy="0" r="3.500" fill="none" stroke="#faf7f0" stroke-width="0.950"/>
      <circle cx="0" cy="0" r="2.325" fill="none" stroke="#faf7f0" stroke-width="0.950"/>
    </g>
    <g transform="translate(8.709,92.250)">
      <circle cx="0" cy="0" r="4.200" fill="#0044cc" stroke="none" stroke-width="0"/>
      <circle cx="0" cy="0" r="3.500" fill="none" stroke="#faf7f0" stroke-width="0.950"/>
      <circle cx="0" cy="0" r="2.325" fill="none" stroke="#faf7f0" stroke-width="0.950"/>
    </g>
    <g transform="translate(19.594,91.000)">
      <rect x="-1.312" y="-2.812" width="2.625" height="5.625" fill="#faf7f0" stroke="#0044cc" stroke-width="0.375" rx="0.188" ry="0.188"/>
      <line x1="-0.812" y1="0.250" x2="0.812" y2="0.250" stroke="#0044cc" stroke-width="0.250" stroke-linecap="round"/>
      <line x1="-0.812" y1="0.750" x2="0.812" y2="0.750" stroke="#0044cc" stroke-width="0.250" stroke-linecap="round"/>
      <line x1="-0.812" y1="1.250" x2="0.812" y2="1.250" stroke="#0044cc" stroke-width="0.250" stroke-linecap="round"/>
      <line x1="-0.812" y1="1.750" x2="0.812" y2="1.750" stroke="#0044cc" stroke-width="0.250" stroke-linecap="round"/>
      <line x1="-0.812" y1="2.250" x2="0.812" y2="2.250" stroke="#0044cc" stroke-width="0.250" stroke-linecap="round"/>
    </g>
    <g transform="translate(30.480,91.000)">
      <circle cx="0" cy="0" r="6.350" fill="#0044cc" stroke="none" stroke-width="0"/>
      <line x1="0" y1="0" x2="0" y2="-5.556" stroke="#faf7f0" stroke-width="0.794" stroke-linecap="round"/>
    </g>
    <g transform="translate(41.866,91.000)">
      <rect x="-3.500" y="-1.790" width="7.000" height="3.580" fill="#faf7f0" stroke="#0044cc" stroke-width="0.250" rx="0.500" ry="0.500"/>
      <text style="font-family:Proxima Nova;font-weight:bold;font-size:2.371px" dominant-baseline="middle" text-anchor="middle" fill="#0044cc" y="0.284">
±5      </text>
    </g>
    <g transform="translate(52.251,92.250)">
      <circle cx="0" cy="0" r="4.200" fill="#0044cc" stroke="none" stroke-width="0"/>
      <circle cx="0" cy="0" r="3.500" fill="none" stroke="#faf7f0" stroke-width="0.950"/>
      <circle cx="0" cy="0" r="2.325" fill="none" stroke="#faf7f0" stroke-width="0.950"/>
    </g>
    <g transform="translate(8.709,109.250)">
      <circle cx="0" cy="0" r="4.200" fill="#0044cc" stroke="none" stroke-width="0"/>
      <circle cx="0" cy="0" r="3.500" fill="none" stroke="#faf7f0" stroke-width="0.950"/>
      <circle cx="0" cy="0" r="2.325" fill="none" stroke="#faf7f0" stroke-width="0.950"/>
    </g>
    <g transform="translate(19.594,108.000)">
      <rect x="-1.312" y="-2.812" width="2.625" height="5.625" fill="#faf7f0" stroke="#0044cc" stroke-width="0.375" rx="0.188" ry="0.188"/>
      <line x1="-0.812" y1="0.250" x2="0.812" y2="0.250" stroke="#0044cc" stroke-width="0.250" stroke-linecap="round"/>
      <line x1="-0.812" y1="0.750" x2="0.812" y2="0.750" stroke="#0044cc" stroke-width="0.250" stroke-linecap="round"/>
      <line x1="-0.812" y1="1.250" x2="0.812" y2="1.250" stroke="#0044cc" stroke-width="0.250" stroke-linecap="round"/>
      <line x1="-0.812" y1="1.750" x2="0.812" y2="1.750" stroke="#0044cc" stroke-width="0.250" stroke-linecap="round"/>
      <line x1="-0.812" y1="2.250" x2="0.812" y2="2.250" stroke="#0044cc" stroke-width="0.250" stroke-linecap="round"/>
    </g>
    <g transform="translate(30.480,108.000)">
      <circle cx="0" cy="0" r="6.350" fill="#0044cc" stroke="none" stroke-width="0"/>
      <line x1="0" y1="0" x2="0" y2="-5.556" stroke="#faf7f0" stroke-width="0.794" stroke-linecap="round"/>
    </g>
    <g transform="translate(41.866,108.000)">
      <rect x="-3.500" y="-1.790" width="7.000" height="3.580" fill="#faf7f0" stroke="#0044cc" stroke-width="0.250" rx="0.500" ry="0.500"/>
      <text style="font-family:Proxima Nova;font-weight:bold;font-size:2.371px" dominant-baseline="middle" text-anchor="middle" fill="#0044cc" y="0.284">
±5      </text>
    </g>
    <g transform="translate(52.251,109.250)">
      <circle cx="0" cy="0" r="4.200" fill="#0044cc" stroke="none" stroke-width="0"/>
      <circle cx="0" cy="0" r="3.500" fill="none" stroke="#faf7f0" stroke-width="0.950"/>
      <circle cx="0" cy="0" r="2.325" fill="none" stroke="#faf7f0" stroke-width="0.950"/>
    </g>
  </g>
</svg>
