<svg version="1.1" xmlns="http://www.w3.org/2000/svg" width="45.720mm" height="128.500mm" viewBox="0 0 45.720 128.500">
  <g id="faceplate">
    <rect x="0.250" y="0.250" width="45.220" height="128.000" fill="#f0f0ff" stroke="#000099" stroke-width="0.500" rx="0.000" ry="0.000"/>
    <g transform="translate(22.860,9.000)">
      <text style="font-family:Proxima Nova;font-weight:bold;font-size:4.064px" dominant-baseline="alphabetic" text-anchor="middle" fill="#000099" y="0.000">
GATOR      </text>
    </g>
    <g transform="translate(22.860,119.500)">
      <text style="font-family:Proxima Nova;font-weight:bold;font-size:4.064px" dominant-baseline="hanging" text-anchor="middle" fill="#000099" y="0.190">
DHE      </text>
    </g>
    <g transform="translate(7.620,12.580)">
      <text style="font-family:Proxima Nova;font-weight:bold;font-size:2.371px" dominant-baseline="alphabetic" text-anchor="middle" fill="#000099" y="0.000">
      </text>
    </g>
    <g transform="translate(38.100,12.580)">
      <text style="font-family:Proxima Nova;font-weight:bold;font-size:2.371px" dominant-baseline="alphabetic" text-anchor="middle" fill="#000099" y="0.000">
      </text>
    </g>
    <g transform="translate(7.620,21.470)">
      <text style="font-family:Proxima Nova;font-weight:bold;font-size:2.371px" dominant-baseline="alphabetic" text-anchor="middle" fill="#000099" y="0.000">
      </text>
    </g>
    <g transform="translate(38.100,21.470)">
      <text style="font-family:Proxima Nova;font-weight:bold;font-size:2.371px" dominant-baseline="alphabetic" text-anchor="middle" fill="#000099" y="0.000">
      </text>
    </g>
    <g transform="translate(7.620,30.360)">
      <text style="font-family:Proxima Nova;font-weight:bold;font-size:2.371px" dominant-baseline="alphabetic" text-anchor="middle" fill="#000099" y="0.000">
      </text>
    </g>
    <g transform="translate(38.100,30.360)">
      <text style="font-family:Proxima Nova;font-weight:bold;font-size:2.371px" dominant-baseline="alphabetic" text-anchor="middle" fill="#000099" y="0.000">
      </text>
    </g>
    <g transform="translate(7.620,39.250)">
      <text style="font-family:Proxima Nova;font-weight:bold;font-size:2.371px" dominant-baseline="alphabetic" text-anchor="middle" fill="#000099" y="0.000">
      </text>
    </g>
    <g transform="translate(38.100,39.250)">
      <text style="font-family:Proxima Nova;font-weight:bold;font-size:2.371px" dominant-baseline="alphabetic" text-anchor="middle" fill="#000099" y="0.000">
      </text>
    </g>
    <g transform="translate(7.620,48.140)">
      <text style="font-family:Proxima Nova;font-weight:bold;font-size:2.371px" dominant-baseline="alphabetic" text-anchor="middle" fill="#000099" y="0.000">
      </text>
    </g>
    <g transform="translate(38.100,48.140)">
      <text style="font-family:Proxima Nova;font-weight:bold;font-size:2.371px" dominant-baseline="alphabetic" text-anchor="middle" fill="#000099" y="0.000">
      </text>
    </g>
    <g transform="translate(7.620,57.030)">
      <text style="font-family:Proxima Nova;font-weight:bold;font-size:2.371px" dominant-baseline="alphabetic" text-anchor="middle" fill="#000099" y="0.000">
      </text>
    </g>
    <g transform="translate(38.100,57.030)">
      <text style="font-family:Proxima Nova;font-weight:bold;font-size:2.371px" dominant-baseline="alphabetic" text-anchor="middle" fill="#000099" y="0.000">
      </text>
    </g>
    <g transform="translate(7.620,65.920)">
      <text style="font-family:Proxima Nova;font-weight:bold;font-size:2.371px" dominant-baseline="alphabetic" text-anchor="middle" fill="#000099" y="0.000">
      </text>
    </g>
    <g transform="translate(38.100,65.920)">
      <text style="font-family:Proxima Nova;font-weight:bold;font-size:2.371px" dominant-baseline="alphabetic" text-anchor="middle" fill="#000099" y="0.000">
      </text>
    </g>
    <g transform="translate(7.620,74.810)">
      <text style="font-family:Proxima Nova;font-weight:bold;font-size:2.371px" dominant-baseline="alphabetic" text-anchor="middle" fill="#000099" y="0.000">
      </text>
    </g>
    <g transform="translate(38.100,74.810)">
      <text style="font-family:Proxima Nova;font-weight:bold;font-size:2.371px" dominant-baseline="alphabetic" text-anchor="middle" fill="#000099" y="0.000">
      </text>
    </g>
    <rect x="2.420" y="87.787" width="10.400" height="12.980" fill="#000099" stroke="#000099" stroke-width="0.350" rx="1.000" ry="1.000"/>
    <g transform="translate(7.620,90.368)">
      <text style="font-family:Proxima Nova;font-weight:bold;font-size:2.371px" dominant-baseline="alphabetic" text-anchor="middle" fill="#f0f0ff" y="0.000">
AND      </text>
    </g>
    <rect x="11.310" y="87.787" width="10.400" height="12.980" fill="#000099" stroke="#000099" stroke-width="0.350" rx="1.000" ry="1.000"/>
    <g transform="translate(16.510,90.368)">
      <text style="font-family:Proxima Nova;font-weight:bold;font-size:2.371px" dominant-baseline="alphabetic" text-anchor="middle" fill="#f0f0ff" y="0.000">
NAND      </text>
    </g>
    <rect x="24.010" y="87.787" width="10.400" height="12.980" fill="#000099" stroke="#000099" stroke-width="0.350" rx="1.000" ry="1.000"/>
    <g transform="translate(29.210,90.368)">
      <text style="font-family:Proxima Nova;font-weight:bold;font-size:2.371px" dominant-baseline="alphabetic" text-anchor="middle" fill="#f0f0ff" y="0.000">
OR      </text>
    </g>
    <rect x="32.900" y="87.787" width="10.400" height="12.980" fill="#000099" stroke="#000099" stroke-width="0.350" rx="1.000" ry="1.000"/>
    <g transform="translate(38.100,90.368)">
      <text style="font-family:Proxima Nova;font-weight:bold;font-size:2.371px" dominant-baseline="alphabetic" text-anchor="middle" fill="#f0f0ff" y="0.000">
NOR      </text>
    </g>
    <rect x="2.420" y="101.757" width="10.400" height="12.980" fill="#000099" stroke="#000099" stroke-width="0.350" rx="1.000" ry="1.000"/>
    <g transform="translate(7.620,104.338)">
      <text style="font-family:Proxima Nova;font-weight:bold;font-size:2.371px" dominant-baseline="alphabetic" text-anchor="middle" fill="#f0f0ff" y="0.000">
EVEN      </text>
    </g>
    <rect x="11.310" y="101.757" width="10.400" height="12.980" fill="#000099" stroke="#000099" stroke-width="0.350" rx="1.000" ry="1.000"/>
    <g transform="translate(16.510,104.338)">
      <text style="font-family:Proxima Nova;font-weight:bold;font-size:2.371px" dominant-baseline="alphabetic" text-anchor="middle" fill="#f0f0ff" y="0.000">
ODD      </text>
    </g>
    <rect x="24.010" y="101.757" width="10.400" height="12.980" fill="#000099" stroke="#000099" stroke-width="0.350" rx="1.000" ry="1.000"/>
    <g transform="translate(29.210,104.338)">
      <text style="font-family:Proxima Nova;font-weight:bold;font-size:2.371px" dominant-baseline="alphabetic" text-anchor="middle" fill="#f0f0ff" y="0.000">
XOR      </text>
    </g>
    <rect x="32.900" y="101.757" width="10.400" height="12.980" fill="#000099" stroke="#000099" stroke-width="0.350" rx="1.000" ry="1.000"/>
    <g transform="translate(38.100,104.338)">
      <text style="font-family:Proxima Nova;font-weight:bold;font-size:2.371px" dominant-baseline="alphabetic" text-anchor="middle" fill="#f0f0ff" y="0.000">
XNOR      </text>
    </g>
  </g>
  <g id="overlay">
    <g transform="translate(7.620,17.780)">
      <circle cx="0" cy="0" r="4.200" fill="#000099" stroke="none" stroke-width="0"/>
      <circle cx="0" cy="0" r="3.500" fill="none" stroke="#f0f0ff" stroke-width="0.950"/>
      <circle cx="0" cy="0" r="2.325" fill="none" stroke="#f0f0ff" stroke-width="0.950"/>
    </g>
    <g transform="translate(16.510,17.780)">
      <circle cx="0" cy="0" r="3.000" fill="#000099" stroke="none" stroke-width="0"/>
      <circle cx="0" cy="0" r="2.000" fill="#000099" stroke="none" stroke-width="0"/>
    </g>
    <g transform="translate(29.210,17.780)">
      <circle cx="0" cy="0" r="3.000" fill="#000099" stroke="none" stroke-width="0"/>
      <circle cx="0" cy="0" r="2.000" fill="#000099" stroke="none" stroke-width="0"/>
    </g>
    <g transform="translate(38.100,17.780)">
      <circle cx="0" cy="0" r="4.200" fill="#000099" stroke="none" stroke-width="0"/>
      <circle cx="0" cy="0" r="3.500" fill="none" stroke="#f0f0ff" stroke-width="0.950"/>
      <circle cx="0" cy="0" r="2.325" fill="none" stroke="#f0f0ff" stroke-width="0.950"/>
    </g>
    <g transform="translate(7.620,26.670)">
      <circle cx="0" cy="0" r="4.200" fill="#000099" stroke="none" stroke-width="0"/>
      <circle cx="0" cy="0" r="3.500" fill="none" stroke="#f0f0ff" stroke-width="0.950"/>
      <circle cx="0" cy="0" r="2.325" fill="none" stroke="#f0f0ff" stroke-width="0.950"/>
    </g>
    <g transform="translate(16.510,26.670)">
      <circle cx="0" cy="0" r="3.000" fill="#000099" stroke="none" stroke-width="0"/>
      <circle cx="0" cy="0" r="2.000" fill="#000099" stroke="none" stroke-width="0"/>
    </g>
    <g transform="translate(29.210,26.670)">
      <circle cx="0" cy="0" r="3.000" fill="#000099" stroke="none" stroke-width="0"/>
      <circle cx="0" cy="0" r="2.000" fill="#000099" stroke="none" stroke-width="0"/>
    </g>
    <g transform="translate(38.100,26.670)">
      <circle cx="0" cy="0" r="4.200" fill="#000099" stroke="none" stroke-width="0"/>
      <circle cx="0" cy="0" r="3.500" fill="none" stroke="#f0f0ff" stroke-width="0.950"/>
      <circle cx="0" cy="0" r="2.325" fill="none" stroke="#f0f0ff" stroke-width="0.950"/>
    </g>
    <g transform="translate(7.620,35.560)">
      <circle cx="0" cy="0" r="4.200" fill="#000099" stroke="none" stroke-width="0"/>
      <circle cx="0" cy="0" r="3.500" fill="none" stroke="#f0f0ff" stroke-width="0.950"/>
      <circle cx="0" cy="0" r="2.325" fill="none" stroke="#f0f0ff" stroke-width="0.950"/>
    </g>
    <g transform="translate(16.510,35.560)">
      <circle cx="0" cy="0" r="3.000" fill="#000099" stroke="none" stroke-width="0"/>
      <circle cx="0" cy="0" r="2.000" fill="#000099" stroke="none" stroke-width="0"/>
    </g>
    <g transform="translate(29.210,35.560)">
      <circle cx="0" cy="0" r="3.000" fill="#000099" stroke="none" stroke-width="0"/>
      <circle cx="0" cy="0" r="2.000" fill="#000099" stroke="none" stroke-width="0"/>
    </g>
    <g transform="translate(38.100,35.560)">
      <circle cx="0" cy="0" r="4.200" fill="#000099" stroke="none" stroke-width="0"/>
      <circle cx="0" cy="0" r="3.500" fill="none" stroke="#f0f0ff" stroke-width="0.950"/>
      <circle cx="0" cy="0" r="2.325" fill="none" stroke="#f0f0ff" stroke-width="0.950"/>
    </g>
    <g transform="translate(7.620,44.450)">
      <circle cx="0" cy="0" r="4.200" fill="#000099" stroke="none" stroke-width="0"/>
      <circle cx="0" cy="0" r="3.500" fill="none" stroke="#f0f0ff" stroke-width="0.950"/>
      <circle cx="0" cy="0" r="2.325" fill="none" stroke="#f0f0ff" stroke-width="0.950"/>
    </g>
    <g transform="translate(16.510,44.450)">
      <circle cx="0" cy="0" r="3.000" fill="#000099" stroke="none" stroke-width="0"/>
      <circle cx="0" cy="0" r="2.000" fill="#000099" stroke="none" stroke-width="0"/>
    </g>
    <g transform="translate(29.210,44.450)">
      <circle cx="0" cy="0" r="3.000" fill="#000099" stroke="none" stroke-width="0"/>
      <circle cx="0" cy="0" r="2.000" fill="#000099" stroke="none" stroke-width="0"/>
    </g>
    <g transform="translate(38.100,44.450)">
      <circle cx="0" cy="0" r="4.200" fill="#000099" stroke="none" stroke-width="0"/>
      <circle cx="0" cy="0" r="3.500" fill="none" stroke="#f0f0ff" stroke-width="0.950"/>
      <circle cx="0" cy="0" r="2.325" fill="none" stroke="#f0f0ff" stroke-width="0.950"/>
    </g>
    <g transform="translate(7.620,53.340)">
      <circle cx="0" cy="0" r="4.200" fill="#000099" stroke="none" stroke-width="0"/>
      <circle cx="0" cy="0" r="3.500" fill="none" stroke="#f0f0ff" stroke-width="0.950"/>
      <circle cx="0" cy="0" r="2.325" fill="none" stroke="#f0f0ff" stroke-width="0.950"/>
    </g>
    <g transform="translate(16.510,53.340)">
      <circle cx="0" cy="0" r="3.000" fill="#000099" stroke="none" stroke-width="0"/>
      <circle cx="0" cy="0" r="2.000" fill="#000099" stroke="none" stroke-width="0"/>
    </g>
    <g transform="translate(29.210,53.340)">
      <circle cx="0" cy="0" r="3.000" fill="#000099" stroke="none" stroke-width="0"/>
      <circle cx="0" cy="0" r="2.000" fill="#000099" stroke="none" stroke-width="0"/>
    </g>
    <g transform="translate(38.100,53.340)">
      <circle cx="0" cy="0" r="4.200" fill="#000099" stroke="none" stroke-width="0"/>
      <circle cx="0" cy="0" r="3.500" fill="none" stroke="#f0f0ff" stroke-width="0.950"/>
      <circle cx="0" cy="0" r="2.325" fill="none" stroke="#f0f0ff" stroke-width="0.950"/>
    </g>
    <g transform="translate(7.620,62.230)">
      <circle cx="0" cy="0" r="4.200" fill="#000099" stroke="none" stroke-width="0"/>
      <circle cx="0" cy="0" r="3.500" fill="none" stroke="#f0f0ff" stroke-width="0.950"/>
      <circle cx="0" cy="0" r="2.325" fill="none" stroke="#f0f0ff" stroke-width="0.950"/>
    </g>
    <g transform="translate(16.510,62.230)">
      <circle cx="0" cy="0" r="3.000" fill="#000099" stroke="none" stroke-width="0"/>
      <circle cx="0" cy="0" r="2.000" fill="#000099" stroke="none" stroke-width="0"/>
    </g>
    <g transform="translate(29.210,62.230)">
      <circle cx="0" cy="0" r="3.000" fill="#000099" stroke="none" stroke-width="0"/>
      <circle cx="0" cy="0" r="2.000" fill="#000099" stroke="none" stroke-width="0"/>
    </g>
    <g transform="translate(38.100,62.230)">
      <circle cx="0" cy="0" r="4.200" fill="#000099" stroke="none" stroke-width="0"/>
      <circle cx="0" cy="0" r="3.500" fill="none" stroke="#f0f0ff" stroke-width="0.950"/>
      <circle cx="0" cy="0" r="2.325" fill="none" stroke="#f0f0ff" stroke-width="0.950"/>
    </g>
    <g transform="translate(7.620,71.120)">
      <circle cx="0" cy="0" r="4.200" fill="#000099" stroke="none" stroke-width="0"/>
      <circle cx="0" cy="0" r="3.500" fill="none" stroke="#f0f0ff" stroke-width="0.950"/>
      <circle cx="0" cy="0" r="2.325" fill="none" stroke="#f0f0ff" stroke-width="0.950"/>
    </g>
    <g transform="translate(16.510,71.120)">
      <circle cx="0" cy="0" r="3.000" fill="#000099" stroke="none" stroke-width="0"/>
      <circle cx="0" cy="0" r="2.000" fill="#000099" stroke="none" stroke-width="0"/>
    </g>
    <g transform="translate(29.210,71.120)">
      <circle cx="0" cy="0" r="3.000" fill="#000099" stroke="none" stroke-width="0"/>
      <circle cx="0" cy="0" r="2.000" fill="#000099" stroke="none" stroke-width="0"/>
    </g>
    <g transform="translate(38.100,71.120)">
      <circle cx="0" cy="0" r="4.200" fill="#000099" stroke="none" stroke-width="0"/>
      <circle cx="0" cy="0" r="3.500" fill="none" stroke="#f0f0ff" stroke-width="0.950"/>
      <circle cx="0" cy="0" r="2.325" fill="none" stroke="#f0f0ff" stroke-width="0.950"/>
    </g>
    <g transform="translate(7.620,80.010)">
      <circle cx="0" cy="0" r="4.200" fill="#000099" stroke="none" stroke-width="0"/>
      <circle cx="0" cy="0" r="3.500" fill="none" stroke="#f0f0ff" stroke-width="0.950"/>
      <circle cx="0" cy="0" r="2.325" fill="none" stroke="#f0f0ff" stroke-width="0.950"/>
    </g>
    <g transform="translate(16.510,80.010)">
      <circle cx="0" cy="0" r="3.000" fill="#000099" stroke="none" stroke-width="0"/>
      <circle cx="0" cy="0" r="2.000" fill="#000099" stroke="none" stroke-width="0"/>
    </g>
    <g transform="translate(29.210,80.010)">
      <circle cx="0" cy="0" r="3.000" fill="#000099" stroke="none" stroke-width="0"/>
      <circle cx="0" cy="0" r="2.000" fill="#000099" stroke="none" stroke-width="0"/>
    </g>
    <g transform="translate(38.100,80.010)">
      <circle cx="0" cy="0" r="4.200" fill="#000099" stroke="none" stroke-width="0"/>
      <circle cx="0" cy="0" r="3.500" fill="none" stroke="#f0f0ff" stroke-width="0.950"/>
      <circle cx="0" cy="0" r="2.325" fill="none" stroke="#f0f0ff" stroke-width="0.950"/>
    </g>
    <g transform="translate(7.620,95.568)">
      <circle cx="0" cy="0" r="4.200" fill="#000099" stroke="none" stroke-width="0"/>
      <circle cx="0" cy="0" r="3.500" fill="none" stroke="#f0f0ff" stroke-width="0.950"/>
      <circle cx="0" cy="0" r="2.325" fill="none" stroke="#f0f0ff" stroke-width="0.950"/>
    </g>
    <g transform="translate(16.510,95.568)">
      <circle cx="0" cy="0" r="4.200" fill="#000099" stroke="none" stroke-width="0"/>
      <circle cx="0" cy="0" r="3.500" fill="none" stroke="#f0f0ff" stroke-width="0.950"/>
      <circle cx="0" cy="0" r="2.325" fill="none" stroke="#f0f0ff" stroke-width="0.950"/>
    </g>
    <g transform="translate(29.210,95.568)">
      <circle cx="0" cy="0" r="4.200" fill="#000099" stroke="none" stroke-width="0"/>
      <circle cx="0" cy="0" r="3.500" fill="none" stroke="#f0f0ff" stroke-width="0.950"/>
      <circle cx="0" cy="0" r="2.325" fill="none" stroke="#f0f0ff" stroke-width="0.950"/>
    </g>
    <g transform="translate(38.100,95.568)">
      <circle cx="0" cy="0" r="4.200" fill="#000099" stroke="none" stroke-width="0"/>
      <circle cx="0" cy="0" r="3.500" fill="none" stroke="#f0f0ff" stroke-width="0.950"/>
      <circle cx="0" cy="0" r="2.325" fill="none" stroke="#f0f0ff" stroke-width="0.950"/>
    </g>
    <g transform="translate(7.620,109.538)">
      <circle cx="0" cy="0" r="4.200" fill="#000099" stroke="none" stroke-width="0"/>
      <circle cx="0" cy="0" r="3.500" fill="none" stroke="#f0f0ff" stroke-width="0.950"/>
      <circle cx="0" cy="0" r="2.325" fill="none" stroke="#f0f0ff" stroke-width="0.950"/>
    </g>
    <g transform="translate(16.510,109.538)">
      <circle cx="0" cy="0" r="4.200" fill="#000099" stroke="none" stroke-width="0"/>
      <circle cx="0" cy="0" r="3.500" fill="none" stroke="#f0f0ff" stroke-width="0.950"/>
      <circle cx="0" cy="0" r="2.325" fill="none" stroke="#f0f0ff" stroke-width="0.950"/>
    </g>
    <g transform="translate(29.210,109.538)">
      <circle cx="0" cy="0" r="4.200" fill="#000099" stroke="none" stroke-width="0"/>
      <circle cx="0" cy="0" r="3.500" fill="none" stroke="#f0f0ff" stroke-width="0.950"/>
      <circle cx="0" cy="0" r="2.325" fill="none" stroke="#f0f0ff" stroke-width="0.950"/>
    </g>
    <g transform="translate(38.100,109.538)">
      <circle cx="0" cy="0" r="4.200" fill="#000099" stroke="none" stroke-width="0"/>
      <circle cx="0" cy="0" r="3.500" fill="none" stroke="#f0f0ff" stroke-width="0.950"/>
      <circle cx="0" cy="0" r="2.325" fill="none" stroke="#f0f0ff" stroke-width="0.950"/>
    </g>
  </g>
</svg>
