<svg version="1.1" xmlns="http://www.w3.org/2000/svg" width="25.400mm" height="128.500mm" viewBox="0 0 25.400 128.500">
  <g id="faceplate">
    <rect x="0.250" y="0.250" width="24.900" height="128.000" fill="#fff0ff" stroke="#990099" stroke-width="0.500" rx="0.000" ry="0.000"/>
    <g transform="translate(12.700,9.000)">
      <text style="font-family:Proxima Nova;font-weight:bold;font-size:4.064px" dominant-baseline="alphabetic" text-anchor="middle" fill="#990099" y="0.000">
HOSTAGE      </text>
    </g>
    <g transform="translate(12.700,119.500)">
      <text style="font-family:Proxima Nova;font-weight:bold;font-size:4.064px" dominant-baseline="hanging" text-anchor="middle" fill="#990099" y="0.190">
DHE      </text>
    </g>
    <g transform="translate(12.700,29.000)">
      <text style="font-family:Proxima Nova;font-weight:bold;font-size:2.371px" dominant-baseline="hanging" text-anchor="middle" fill="#990099" y="0.111">
HOLD      </text>
    </g>
    <g transform="translate(12.700,21.000)">
      <text style="font-family:Proxima Nova;font-weight:bold;font-size:2.371px" dominant-baseline="alphabetic" text-anchor="middle" fill="#990099" y="0.000">
SUSTAIN      </text>
    </g>
    <g transform="translate(6.683,38.300)">
      <text style="font-family:Proxima Nova;font-weight:bold;font-size:2.371px" dominant-baseline="alphabetic" text-anchor="middle" fill="#990099" y="0.000">
CV      </text>
    </g>
    <g transform="translate(18.717,49.000)">
      <text style="font-family:Proxima Nova;font-weight:bold;font-size:2.371px" dominant-baseline="hanging" text-anchor="middle" fill="#990099" y="0.111">
1      </text>
    </g>
    <g transform="translate(18.717,38.000)">
      <text style="font-family:Proxima Nova;font-weight:bold;font-size:2.371px" dominant-baseline="alphabetic" text-anchor="middle" fill="#990099" y="0.000">
100      </text>
    </g>
    <g transform="translate(21.217,43.500)">
      <text style="font-family:Proxima Nova;font-weight:bold;font-size:2.371px" dominant-baseline="middle" text-anchor="start" fill="#990099" y="0.284">
10      </text>
    </g>
    <g transform="translate(12.700,54.650)">
      <text style="font-family:Proxima Nova;font-weight:bold;font-size:3.048px" dominant-baseline="alphabetic" text-anchor="middle" fill="#990099" y="0.000">
DURATION      </text>
    </g>
    <rect x="1.483" y="74.220" width="10.400" height="12.980" fill="#fff0ff" stroke="#990099" stroke-width="0.350" rx="1.000" ry="1.000"/>
    <g transform="translate(6.683,76.800)">
      <text style="font-family:Proxima Nova;font-weight:bold;font-size:2.371px" dominant-baseline="alphabetic" text-anchor="middle" fill="#990099" y="0.000">
DEFER      </text>
    </g>
    <rect x="13.517" y="74.220" width="10.400" height="12.980" fill="#990099" stroke="#990099" stroke-width="0.350" rx="1.000" ry="1.000"/>
    <g transform="translate(18.717,76.800)">
      <text style="font-family:Proxima Nova;font-weight:bold;font-size:2.371px" dominant-baseline="alphabetic" text-anchor="middle" fill="#fff0ff" y="0.000">
ACTIVE      </text>
    </g>
    <rect x="1.483" y="89.220" width="10.400" height="12.980" fill="#fff0ff" stroke="#990099" stroke-width="0.350" rx="1.000" ry="1.000"/>
    <g transform="translate(6.683,91.800)">
      <text style="font-family:Proxima Nova;font-weight:bold;font-size:2.371px" dominant-baseline="alphabetic" text-anchor="middle" fill="#990099" y="0.000">
GATE      </text>
    </g>
    <rect x="13.517" y="89.220" width="10.400" height="12.980" fill="#990099" stroke="#990099" stroke-width="0.350" rx="1.000" ry="1.000"/>
    <g transform="translate(18.717,91.800)">
      <text style="font-family:Proxima Nova;font-weight:bold;font-size:2.371px" dominant-baseline="alphabetic" text-anchor="middle" fill="#fff0ff" y="0.000">
EOC      </text>
    </g>
    <rect x="1.483" y="104.220" width="10.400" height="12.980" fill="#fff0ff" stroke="#990099" stroke-width="0.350" rx="1.000" ry="1.000"/>
    <g transform="translate(6.683,106.800)">
      <text style="font-family:Proxima Nova;font-weight:bold;font-size:2.371px" dominant-baseline="alphabetic" text-anchor="middle" fill="#990099" y="0.000">
IN      </text>
    </g>
    <rect x="13.517" y="104.220" width="10.400" height="12.980" fill="#990099" stroke="#990099" stroke-width="0.350" rx="1.000" ry="1.000"/>
    <g transform="translate(18.717,106.800)">
      <text style="font-family:Proxima Nova;font-weight:bold;font-size:2.371px" dominant-baseline="alphabetic" text-anchor="middle" fill="#fff0ff" y="0.000">
OUT      </text>
    </g>
  </g>
  <g id="overlay">
    <g transform="translate(12.700,25.000)">
      <rect x="-1.312" y="-2.812" width="2.625" height="5.625" fill="#fff0ff" stroke="#990099" stroke-width="0.375" rx="0.188" ry="0.188"/>
      <line x1="-0.812" y1="0.250" x2="0.812" y2="0.250" stroke="#990099" stroke-width="0.250" stroke-linecap="round"/>
      <line x1="-0.812" y1="0.750" x2="0.812" y2="0.750" stroke="#990099" stroke-width="0.250" stroke-linecap="round"/>
      <line x1="-0.812" y1="1.250" x2="0.812" y2="1.250" stroke="#990099" stroke-width="0.250" stroke-linecap="round"/>
      <line x1="-0.812" y1="1.750" x2="0.812" y2="1.750" stroke="#990099" stroke-width="0.250" stroke-linecap="round"/>
      <line x1="-0.812" y1="2.250" x2="0.812" y2="2.250" stroke="#990099" stroke-width="0.250" stroke-linecap="round"/>
    </g>
    <g transform="translate(6.683,43.500)">
      <circle cx="0" cy="0" r="4.200" fill="#990099" stroke="none" stroke-width="0"/>
      <circle cx="0" cy="0" r="3.500" fill="none" stroke="#fff0ff" stroke-width="0.950"/>
      <circle cx="0" cy="0" r="2.325" fill="none" stroke="#fff0ff" stroke-width="0.950"/>
    </g>
    <g transform="translate(18.717,43.500)">
      <rect x="-1.312" y="-4.312" width="2.625" height="8.625" fill="#fff0ff" stroke="#990099" stroke-width="0.375" rx="0.188" ry="0.188"/>
      <line x1="-0.812" y1="-1.000" x2="0.812" y2="-1.000" stroke="#990099" stroke-width="0.250" stroke-linecap="round"/>
      <line x1="-0.812" y1="-0.500" x2="0.812" y2="-0.500" stroke="#990099" stroke-width="0.250" stroke-linecap="round"/>
      <line x1="-0.812" y1="0.000" x2="0.812" y2="0.000" stroke="#990099" stroke-width="0.250" stroke-linecap="round"/>
      <line x1="-0.812" y1="0.500" x2="0.812" y2="0.500" stroke="#990099" stroke-width="0.250" stroke-linecap="round"/>
      <line x1="-0.812" y1="1.000" x2="0.812" y2="1.000" stroke="#990099" stroke-width="0.250" stroke-linecap="round"/>
    </g>
    <g transform="translate(12.700,62.000)">
      <circle cx="0" cy="0" r="6.350" fill="#990099" stroke="none" stroke-width="0"/>
      <line x1="0" y1="0" x2="0" y2="-5.556" stroke="#fff0ff" stroke-width="0.794" stroke-linecap="round"/>
    </g>
    <g transform="translate(6.683,82.000)">
      <circle cx="0" cy="0" r="4.200" fill="#990099" stroke="none" stroke-width="0"/>
      <circle cx="0" cy="0" r="3.500" fill="none" stroke="#fff0ff" stroke-width="0.950"/>
      <circle cx="0" cy="0" r="2.325" fill="none" stroke="#fff0ff" stroke-width="0.950"/>
    </g>
    <g transform="translate(18.717,82.000)">
      <circle cx="0" cy="0" r="4.200" fill="#990099" stroke="none" stroke-width="0"/>
      <circle cx="0" cy="0" r="3.500" fill="none" stroke="#fff0ff" stroke-width="0.950"/>
      <circle cx="0" cy="0" r="2.325" fill="none" stroke="#fff0ff" stroke-width="0.950"/>
    </g>
    <g transform="translate(6.683,97.000)">
      <circle cx="0" cy="0" r="4.200" fill="#990099" stroke="none" stroke-width="0"/>
      <circle cx="0" cy="0" r="3.500" fill="none" stroke="#fff0ff" stroke-width="0.950"/>
      <circle cx="0" cy="0" r="2.325" fill="none" stroke="#fff0ff" stroke-width="0.950"/>
    </g>
    <g transform="translate(18.717,97.000)">
      <circle cx="0" cy="0" r="4.200" fill="#990099" stroke="none" stroke-width="0"/>
      <circle cx="0" cy="0" r="3.500" fill="none" stroke="#fff0ff" stroke-width="0.950"/>
      <circle cx="0" cy="0" r="2.325" fill="none" stroke="#fff0ff" stroke-width="0.950"/>
    </g>
    <g transform="translate(6.683,112.000)">
      <circle cx="0" cy="0" r="4.200" fill="#990099" stroke="none" stroke-width="0"/>
      <circle cx="0" cy="0" r="3.500" fill="none" stroke="#fff0ff" stroke-width="0.950"/>
      <circle cx="0" cy="0" r="2.325" fill="none" stroke="#fff0ff" stroke-width="0.950"/>
    </g>
    <g transform="translate(18.717,112.000)">
      <circle cx="0" cy="0" r="4.200" fill="#990099" stroke="none" stroke-width="0"/>
      <circle cx="0" cy="0" r="3.500" fill="none" stroke="#fff0ff" stroke-width="0.950"/>
      <circle cx="0" cy="0" r="2.325" fill="none" stroke="#fff0ff" stroke-width="0.950"/>
    </g>
  </g>
</svg>
