<svg version="1.1" xmlns="http://www.w3.org/2000/svg" width="30.480mm" height="128.500mm" viewBox="0 0 30.480 128.500">
  <g id="faceplate">
    <rect x="0.250" y="0.250" width="29.980" height="128.000" fill="#fffff0" stroke="#4d4d00" stroke-width="0.500" rx="0.000" ry="0.000"/>
    <g transform="translate(15.240,9.000)">
      <text style="font-family:Proxima Nova;font-weight:bold;font-size:4.064px" dominant-baseline="alphabetic" text-anchor="middle" fill="#4d4d00" y="0.000">
RANGER      </text>
    </g>
    <g transform="translate(15.240,119.500)">
      <text style="font-family:Proxima Nova;font-weight:bold;font-size:4.064px" dominant-baseline="hanging" text-anchor="middle" fill="#4d4d00" y="0.190">
DHE      </text>
    </g>
    <line x1="0" y1="14.500" x2="30.480" y2="14.500" stroke="#4d4d00" stroke-width="0.350"/>
    <g transform="translate(7.620,19.750)">
      <text style="font-family:Proxima Nova;font-weight:bold;font-size:2.371px" dominant-baseline="alphabetic" text-anchor="middle" fill="#4d4d00" y="0.000">
LEVEL      </text>
    </g>
    <rect x="17.660" y="17.970" width="10.400" height="12.980" fill="#4d4d00" stroke="#4d4d00" stroke-width="0.350" rx="1.000" ry="1.000"/>
    <g transform="translate(22.860,20.550)">
      <text style="font-family:Proxima Nova;font-weight:bold;font-size:2.371px" dominant-baseline="alphabetic" text-anchor="middle" fill="#fffff0" y="0.000">
OUT      </text>
    </g>
    <g transform="translate(7.620,35.550)">
      <text style="font-family:Proxima Nova;font-weight:bold;font-size:2.371px" dominant-baseline="alphabetic" text-anchor="middle" fill="#4d4d00" y="0.000">
CV      </text>
    </g>
    <g transform="translate(22.860,36.250)">
      <text style="font-family:Proxima Nova;font-weight:bold;font-size:3.048px" dominant-baseline="alphabetic" text-anchor="middle" fill="#4d4d00" y="0.000">
- +      </text>
    </g>
    <line x1="0" y1="48.250" x2="30.480" y2="48.250" stroke="#4d4d00" stroke-width="0.350"/>
    <g transform="translate(7.620,53.500)">
      <text style="font-family:Proxima Nova;font-weight:bold;font-size:2.371px" dominant-baseline="alphabetic" text-anchor="middle" fill="#4d4d00" y="0.000">
CCW      </text>
    </g>
    <g transform="translate(22.860,53.500)">
      <text style="font-family:Proxima Nova;font-weight:bold;font-size:2.371px" dominant-baseline="alphabetic" text-anchor="middle" fill="#4d4d00" y="0.000">
CW      </text>
    </g>
    <g transform="translate(7.620,70.000)">
      <text style="font-family:Proxima Nova;font-weight:bold;font-size:3.048px" dominant-baseline="alphabetic" text-anchor="middle" fill="#4d4d00" y="0.000">
- +      </text>
    </g>
    <g transform="translate(22.860,70.000)">
      <text style="font-family:Proxima Nova;font-weight:bold;font-size:3.048px" dominant-baseline="alphabetic" text-anchor="middle" fill="#4d4d00" y="0.000">
- +      </text>
    </g>
    <g transform="translate(7.620,84.300)">
      <text style="font-family:Proxima Nova;font-weight:bold;font-size:2.371px" dominant-baseline="alphabetic" text-anchor="middle" fill="#4d4d00" y="0.000">
CV      </text>
    </g>
    <g transform="translate(22.860,84.300)">
      <text style="font-family:Proxima Nova;font-weight:bold;font-size:2.371px" dominant-baseline="alphabetic" text-anchor="middle" fill="#4d4d00" y="0.000">
CV      </text>
    </g>
    <g transform="translate(7.620,108.500)">
      <text style="font-family:Proxima Nova;font-weight:bold;font-size:2.371px" dominant-baseline="hanging" text-anchor="middle" fill="#4d4d00" y="0.111">
BI      </text>
    </g>
    <g transform="translate(7.620,100.500)">
      <text style="font-family:Proxima Nova;font-weight:bold;font-size:2.371px" dominant-baseline="alphabetic" text-anchor="middle" fill="#4d4d00" y="0.000">
UNI      </text>
    </g>
    <g transform="translate(22.860,108.500)">
      <text style="font-family:Proxima Nova;font-weight:bold;font-size:2.371px" dominant-baseline="hanging" text-anchor="middle" fill="#4d4d00" y="0.111">
BI      </text>
    </g>
    <g transform="translate(22.860,100.500)">
      <text style="font-family:Proxima Nova;font-weight:bold;font-size:2.371px" dominant-baseline="alphabetic" text-anchor="middle" fill="#4d4d00" y="0.000">
UNI      </text>
    </g>
    <line x1="0" y1="113.500" x2="30.480" y2="113.500" stroke="#4d4d00" stroke-width="0.350"/>
    <line x1="15.240" y1="48.250" x2="15.240" y2="113.500" stroke="#4d4d00" stroke-width="0.350"/>
  </g>
  <g id="overlay">
    <g transform="translate(7.620,25.750)">
      <circle cx="0" cy="0" r="5.000" fill="#4d4d00" stroke="none" stroke-width="0"/>
      <line x1="0" y1="0" x2="0" y2="-4.375" stroke="#fffff0" stroke-width="0.625" stroke-linecap="round"/>
    </g>
    <g transform="translate(22.860,25.750)">
      <circle cx="0" cy="0" r="4.200" fill="#4d4d00" stroke="none" stroke-width="0"/>
      <circle cx="0" cy="0" r="3.500" fill="none" stroke="#fffff0" stroke-width="0.950"/>
      <circle cx="0" cy="0" r="2.325" fill="none" stroke="#fffff0" stroke-width="0.950"/>
    </g>
    <g transform="translate(7.620,40.750)">
      <circle cx="0" cy="0" r="4.200" fill="#4d4d00" stroke="none" stroke-width="0"/>
      <circle cx="0" cy="0" r="3.500" fill="none" stroke="#fffff0" stroke-width="0.950"/>
      <circle cx="0" cy="0" r="2.325" fill="none" stroke="#fffff0" stroke-width="0.950"/>
    </g>
    <g transform="translate(22.860,40.750)">
      <circle cx="0" cy="0" r="3.500" fill="#4d4d00" stroke="none" stroke-width="0"/>
      <line x1="0" y1="0" x2="0" y2="-3.062" stroke="#fffff0" stroke-width="0.438" stroke-linecap="round"/>
    </g>
    <g transform="translate(7.620,59.500)">
      <circle cx="0" cy="0" r="5.000" fill="#4d4d00" stroke="none" stroke-width="0"/>
      <line x1="0" y1="0" x2="0" y2="-4.375" stroke="#fffff0" stroke-width="0.625" stroke-linecap="round"/>
    </g>
    <g transform="translate(22.860,59.500)">
      <circle cx="0" cy="0" r="5.000" fill="#4d4d00" stroke="none" stroke-width="0"/>
      <line x1="0" y1="0" x2="0" y2="-4.375" stroke="#fffff0" stroke-width="0.625" stroke-linecap="round"/>
    </g>
    <g transform="translate(7.620,74.500)">
      <circle cx="0" cy="0" r="3.500" fill="#4d4d00" stroke="none" stroke-width="0"/>
      <line x1="0" y1="0" x2="0" y2="-3.062" stroke="#fffff0" stroke-width="0.438" stroke-linecap="round"/>
    </g>
    <g transform="translate(22.860,74.500)">
      <circle cx="0" cy="0" r="3.500" fill="#4d4d00" stroke="none" stroke-width="0"/>
      <line x1="0" y1="0" x2="0" y2="-3.062" stroke="#fffff0" stroke-width="0.438" stroke-linecap="round"/>
    </g>
    <g transform="translate(7.620,89.500)">
      <circle cx="0" cy="0" r="4.200" fill="#4d4d00" stroke="none" stroke-width="0"/>
      <circle cx="0" cy="0" r="3.500" fill="none" stroke="#fffff0" stroke-width="0.950"/>
      <circle cx="0" cy="0" r="2.325" fill="none" stroke="#fffff0" stroke-width="0.950"/>
    </g>
    <g transform="translate(22.860,89.500)">
      <circle cx="0" cy="0" r="4.200" fill="#4d4d00" stroke="none" stroke-width="0"/>
      <circle cx="0" cy="0" r="3.500" fill="none" stroke="#fffff0" stroke-width="0.950"/>
      <circle cx="0" cy="0" r="2.325" fill="none" stroke="#fffff0" stroke-width="0.950"/>
    </g>
    <g transform="translate(7.620,104.500)">
      <rect x="-1.312" y="-2.812" width="2.625" height="5.625" fill="#fffff0" stroke="#4d4d00" stroke-width="0.375" rx="0.188" ry="0.188"/>
      <line x1="-0.812" y1="0.250" x2="0.812" y2="0.250" stroke="#4d4d00" stroke-width="0.250" stroke-linecap="round"/>
      <line x1="-0.812" y1="0.750" x2="0.812" y2="0.750" stroke="#4d4d00" stroke-width="0.250" stroke-linecap="round"/>
      <line x1="-0.812" y1="1.250" x2="0.812" y2="1.250" stroke="#4d4d00" stroke-width="0.250" stroke-linecap="round"/>
      <line x1="-0.812" y1="1.750" x2="0.812" y2="1.750" stroke="#4d4d00" stroke-width="0.250" stroke-linecap="round"/>
      <line x1="-0.812" y1="2.250" x2="0.812" y2="2.250" stroke="#4d4d00" stroke-width="0.250" stroke-linecap="round"/>
    </g>
    <g transform="translate(22.860,104.500)">
      <rect x="-1.312" y="-2.812" width="2.625" height="5.625" fill="#fffff0" stroke="#4d4d00" stroke-width="0.375" rx="0.188" ry="0.188"/>
      <line x1="-0.812" y1="0.250" x2="0.812" y2="0.250" stroke="#4d4d00" stroke-width="0.250" stroke-linecap="round"/>
      <line x1="-0.812" y1="0.750" x2="0.812" y2="0.750" stroke="#4d4d00" stroke-width="0.250" stroke-linecap="round"/>
      <line x1="-0.812" y1="1.250" x2="0.812" y2="1.250" stroke="#4d4d00" stroke-width="0.250" stroke-linecap="round"/>
      <line x1="-0.812" y1="1.750" x2="0.812" y2="1.750" stroke="#4d4d00" stroke-width="0.250" stroke-linecap="round"/>
      <line x1="-0.812" y1="2.250" x2="0.812" y2="2.250" stroke="#4d4d00" stroke-width="0.250" stroke-linecap="round"/>
    </g>
  </g>
</svg>
