<svg version="1.1" xmlns="http://www.w3.org/2000/svg" width="25.400mm" height="128.500mm" viewBox="0 0 25.400 128.500">
  <g id="faceplate">
    <rect x="0.250" y="0.250" width="24.900" height="128.000" fill="#f0fff0" stroke="#009900" stroke-width="0.500" rx="0.000" ry="0.000"/>
    <g transform="translate(12.700,9.000)">
      <text style="font-family:Proxima Nova;font-weight:bold;font-size:4.064px" dominant-baseline="alphabetic" text-anchor="middle" fill="#009900" y="0.000">
STAGE      </text>
    </g>
    <g transform="translate(12.700,119.500)">
      <text style="font-family:Proxima Nova;font-weight:bold;font-size:4.064px" dominant-baseline="hanging" text-anchor="middle" fill="#009900" y="0.190">
DHE      </text>
    </g>
    <g transform="translate(12.700,17.650)">
      <text style="font-family:Proxima Nova;font-weight:bold;font-size:3.048px" dominant-baseline="alphabetic" text-anchor="middle" fill="#009900" y="0.000">
LEVEL      </text>
    </g>
    <g transform="translate(12.700,36.150)">
      <text style="font-family:Proxima Nova;font-weight:bold;font-size:3.048px" dominant-baseline="alphabetic" text-anchor="middle" fill="#009900" y="0.000">
CURVE      </text>
    </g>
    <g transform="translate(12.700,54.650)">
      <text style="font-family:Proxima Nova;font-weight:bold;font-size:3.048px" dominant-baseline="alphabetic" text-anchor="middle" fill="#009900" y="0.000">
DURATION      </text>
    </g>
    <rect x="1.483" y="74.220" width="10.400" height="12.980" fill="#f0fff0" stroke="#009900" stroke-width="0.350" rx="1.000" ry="1.000"/>
    <g transform="translate(6.683,76.800)">
      <text style="font-family:Proxima Nova;font-weight:bold;font-size:2.371px" dominant-baseline="alphabetic" text-anchor="middle" fill="#009900" y="0.000">
DEFER      </text>
    </g>
    <rect x="13.517" y="74.220" width="10.400" height="12.980" fill="#009900" stroke="#009900" stroke-width="0.350" rx="1.000" ry="1.000"/>
    <g transform="translate(18.717,76.800)">
      <text style="font-family:Proxima Nova;font-weight:bold;font-size:2.371px" dominant-baseline="alphabetic" text-anchor="middle" fill="#f0fff0" y="0.000">
ACTIVE      </text>
    </g>
    <rect x="1.483" y="89.220" width="10.400" height="12.980" fill="#f0fff0" stroke="#009900" stroke-width="0.350" rx="1.000" ry="1.000"/>
    <g transform="translate(6.683,91.800)">
      <text style="font-family:Proxima Nova;font-weight:bold;font-size:2.371px" dominant-baseline="alphabetic" text-anchor="middle" fill="#009900" y="0.000">
TRIG      </text>
    </g>
    <rect x="13.517" y="89.220" width="10.400" height="12.980" fill="#009900" stroke="#009900" stroke-width="0.350" rx="1.000" ry="1.000"/>
    <g transform="translate(18.717,91.800)">
      <text style="font-family:Proxima Nova;font-weight:bold;font-size:2.371px" dominant-baseline="alphabetic" text-anchor="middle" fill="#f0fff0" y="0.000">
EOC      </text>
    </g>
    <rect x="1.483" y="104.220" width="10.400" height="12.980" fill="#f0fff0" stroke="#009900" stroke-width="0.350" rx="1.000" ry="1.000"/>
    <g transform="translate(6.683,106.800)">
      <text style="font-family:Proxima Nova;font-weight:bold;font-size:2.371px" dominant-baseline="alphabetic" text-anchor="middle" fill="#009900" y="0.000">
IN      </text>
    </g>
    <rect x="13.517" y="104.220" width="10.400" height="12.980" fill="#009900" stroke="#009900" stroke-width="0.350" rx="1.000" ry="1.000"/>
    <g transform="translate(18.717,106.800)">
      <text style="font-family:Proxima Nova;font-weight:bold;font-size:2.371px" dominant-baseline="alphabetic" text-anchor="middle" fill="#f0fff0" y="0.000">
OUT      </text>
    </g>
  </g>
  <g id="overlay">
    <g transform="translate(12.700,25.000)">
      <circle cx="0" cy="0" r="6.350" fill="#009900" stroke="none" stroke-width="0"/>
      <line x1="0" y1="0" x2="0" y2="-5.556" stroke="#f0fff0" stroke-width="0.794" stroke-linecap="round"/>
    </g>
    <g transform="translate(12.700,43.500)">
      <circle cx="0" cy="0" r="6.350" fill="#009900" stroke="none" stroke-width="0"/>
      <line x1="0" y1="0" x2="0" y2="-5.556" stroke="#f0fff0" stroke-width="0.794" stroke-linecap="round"/>
    </g>
    <g transform="translate(12.700,62.000)">
      <circle cx="0" cy="0" r="6.350" fill="#009900" stroke="none" stroke-width="0"/>
      <line x1="0" y1="0" x2="0" y2="-5.556" stroke="#f0fff0" stroke-width="0.794" stroke-linecap="round"/>
    </g>
    <g transform="translate(6.683,82.000)">
      <circle cx="0" cy="0" r="4.200" fill="#009900" stroke="none" stroke-width="0"/>
      <circle cx="0" cy="0" r="3.500" fill="none" stroke="#f0fff0" stroke-width="0.950"/>
      <circle cx="0" cy="0" r="2.325" fill="none" stroke="#f0fff0" stroke-width="0.950"/>
    </g>
    <g transform="translate(18.717,82.000)">
      <circle cx="0" cy="0" r="4.200" fill="#009900" stroke="none" stroke-width="0"/>
      <circle cx="0" cy="0" r="3.500" fill="none" stroke="#f0fff0" stroke-width="0.950"/>
      <circle cx="0" cy="0" r="2.325" fill="none" stroke="#f0fff0" stroke-width="0.950"/>
    </g>
    <g transform="translate(6.683,97.000)">
      <circle cx="0" cy="0" r="4.200" fill="#009900" stroke="none" stroke-width="0"/>
      <circle cx="0" cy="0" r="3.500" fill="none" stroke="#f0fff0" stroke-width="0.950"/>
      <circle cx="0" cy="0" r="2.325" fill="none" stroke="#f0fff0" stroke-width="0.950"/>
    </g>
    <g transform="translate(18.717,97.000)">
      <circle cx="0" cy="0" r="4.200" fill="#009900" stroke="none" stroke-width="0"/>
      <circle cx="0" cy="0" r="3.500" fill="none" stroke="#f0fff0" stroke-width="0.950"/>
      <circle cx="0" cy="0" r="2.325" fill="none" stroke="#f0fff0" stroke-width="0.950"/>
    </g>
    <g transform="translate(6.683,112.000)">
      <circle cx="0" cy="0" r="4.200" fill="#009900" stroke="none" stroke-width="0"/>
      <circle cx="0" cy="0" r="3.500" fill="none" stroke="#f0fff0" stroke-width="0.950"/>
      <circle cx="0" cy="0" r="2.325" fill="none" stroke="#f0fff0" stroke-width="0.950"/>
    </g>
    <g transform="translate(18.717,112.000)">
      <circle cx="0" cy="0" r="4.200" fill="#009900" stroke="none" stroke-width="0"/>
      <circle cx="0" cy="0" r="3.500" fill="none" stroke="#f0fff0" stroke-width="0.950"/>
      <circle cx="0" cy="0" r="2.325" fill="none" stroke="#f0fff0" stroke-width="0.950"/>
    </g>
  </g>
</svg>
