<svg version="1.1" xmlns="http://www.w3.org/2000/svg" width="20.320mm" height="128.500mm" viewBox="0 0 20.320 128.500">
  <g id="faceplate">
    <rect x="0.250" y="0.250" width="19.820" height="128.000" fill="#fff4f0" stroke="#ff4400" stroke-width="0.500" rx="0.000" ry="0.000"/>
    <g transform="translate(10.160,9.000)">
      <text style="font-family:Proxima Nova;font-weight:bold;font-size:4.064px" dominant-baseline="alphabetic" text-anchor="middle" fill="#ff4400" y="0.000">
SWAVE      </text>
    </g>
    <g transform="translate(10.160,119.500)">
      <text style="font-family:Proxima Nova;font-weight:bold;font-size:4.064px" dominant-baseline="hanging" text-anchor="middle" fill="#ff4400" y="0.190">
DHE      </text>
    </g>
    <g transform="translate(10.160,29.000)">
      <text style="font-family:Proxima Nova;font-weight:bold;font-size:2.371px" dominant-baseline="hanging" text-anchor="middle" fill="#ff4400" y="0.111">
J      </text>
    </g>
    <g transform="translate(10.160,21.000)">
      <text style="font-family:Proxima Nova;font-weight:bold;font-size:2.371px" dominant-baseline="alphabetic" text-anchor="middle" fill="#ff4400" y="0.000">
S      </text>
    </g>
    <g transform="translate(10.160,36.150)">
      <text style="font-family:Proxima Nova;font-weight:bold;font-size:3.048px" dominant-baseline="alphabetic" text-anchor="middle" fill="#ff4400" y="0.000">
CURVE      </text>
    </g>
    <g transform="translate(10.160,57.500)">
      <text style="font-family:Proxima Nova;font-weight:bold;font-size:3.048px" dominant-baseline="alphabetic" text-anchor="middle" fill="#ff4400" y="0.000">
- +      </text>
    </g>
    <g transform="translate(10.160,75.300)">
      <text style="font-family:Proxima Nova;font-weight:bold;font-size:2.371px" dominant-baseline="alphabetic" text-anchor="middle" fill="#ff4400" y="0.000">
CV      </text>
    </g>
    <rect x="4.960" y="89.220" width="10.400" height="12.980" fill="#fff4f0" stroke="#ff4400" stroke-width="0.350" rx="1.000" ry="1.000"/>
    <g transform="translate(10.160,91.800)">
      <text style="font-family:Proxima Nova;font-weight:bold;font-size:2.371px" dominant-baseline="alphabetic" text-anchor="middle" fill="#ff4400" y="0.000">
IN      </text>
    </g>
    <rect x="4.960" y="104.220" width="10.400" height="12.980" fill="#ff4400" stroke="#ff4400" stroke-width="0.350" rx="1.000" ry="1.000"/>
    <g transform="translate(10.160,106.800)">
      <text style="font-family:Proxima Nova;font-weight:bold;font-size:2.371px" dominant-baseline="alphabetic" text-anchor="middle" fill="#fff4f0" y="0.000">
OUT      </text>
    </g>
  </g>
  <g id="overlay">
    <g transform="translate(10.160,25.000)">
      <rect x="-1.312" y="-2.812" width="2.625" height="5.625" fill="#fff4f0" stroke="#ff4400" stroke-width="0.375" rx="0.188" ry="0.188"/>
      <line x1="-0.812" y1="0.250" x2="0.812" y2="0.250" stroke="#ff4400" stroke-width="0.250" stroke-linecap="round"/>
      <line x1="-0.812" y1="0.750" x2="0.812" y2="0.750" stroke="#ff4400" stroke-width="0.250" stroke-linecap="round"/>
      <line x1="-0.812" y1="1.250" x2="0.812" y2="1.250" stroke="#ff4400" stroke-width="0.250" stroke-linecap="round"/>
      <line x1="-0.812" y1="1.750" x2="0.812" y2="1.750" stroke="#ff4400" stroke-width="0.250" stroke-linecap="round"/>
      <line x1="-0.812" y1="2.250" x2="0.812" y2="2.250" stroke="#ff4400" stroke-width="0.250" stroke-linecap="round"/>
    </g>
    <g transform="translate(10.160,43.500)">
      <circle cx="0" cy="0" r="6.350" fill="#ff4400" stroke="none" stroke-width="0"/>
      <line x1="0" y1="0" x2="0" y2="-5.556" stroke="#fff4f0" stroke-width="0.794" stroke-linecap="round"/>
    </g>
    <g transform="translate(10.160,62.000)">
      <circle cx="0" cy="0" r="3.500" fill="#ff4400" stroke="none" stroke-width="0"/>
      <line x1="0" y1="0" x2="0" y2="-3.062" stroke="#fff4f0" stroke-width="0.438" stroke-linecap="round"/>
    </g>
    <g transform="translate(10.160,80.500)">
      <circle cx="0" cy="0" r="4.200" fill="#ff4400" stroke="none" stroke-width="0"/>
      <circle cx="0" cy="0" r="3.500" fill="none" stroke="#fff4f0" stroke-width="0.950"/>
      <circle cx="0" cy="0" r="2.325" fill="none" stroke="#fff4f0" stroke-width="0.950"/>
    </g>
    <g transform="translate(10.160,97.000)">
      <circle cx="0" cy="0" r="4.200" fill="#ff4400" stroke="none" stroke-width="0"/>
      <circle cx="0" cy="0" r="3.500" fill="none" stroke="#fff4f0" stroke-width="0.950"/>
      <circle cx="0" cy="0" r="2.325" fill="none" stroke="#fff4f0" stroke-width="0.950"/>
    </g>
    <g transform="translate(10.160,112.000)">
      <circle cx="0" cy="0" r="4.200" fill="#ff4400" stroke="none" stroke-width="0"/>
      <circle cx="0" cy="0" r="3.500" fill="none" stroke="#fff4f0" stroke-width="0.950"/>
      <circle cx="0" cy="0" r="2.325" fill="none" stroke="#fff4f0" stroke-width="0.950"/>
    </g>
  </g>
</svg>
