<?xml version="1.0" encoding="UTF-8" standalone="no"?>
<svg xmlns:dc="http://purl.org/dc/elements/1.1/" xmlns:cc="http://creativecommons.org/ns#" xmlns:rdf="http://www.w3.org/1999/02/22-rdf-syntax-ns#" xmlns:svg="http://www.w3.org/2000/svg" xmlns="http://www.w3.org/2000/svg" version="1.1" width="8.650mm" height="3.830mm" viewBox="-4.325 -1.915 8.650 3.830" id="svg6">
  <metadata id="metadata12">
    <rdf:RDF>
      <cc:Work rdf:about="">
        <dc:format>image/svg+xml</dc:format>
        <dc:type rdf:resource="http://purl.org/dc/dcmitype/StillImage"/>
      </cc:Work>
    </rdf:RDF>
  </metadata>
  <defs id="defs10"/>
  <rect x="-4.200" y="-1.790" width="8.400" height="3.580" fill="#efedeb" stroke="#331a00" stroke-width="0.250" rx="0.500" ry="0.500" id="rect2"/>
  <g aria-label="RISE" id="text4" style="font-weight:bold;font-size:2.371px;font-family:'Proxima Nova';dominant-baseline:middle;text-anchor:middle;fill:#331a00">
    <path d="m -1.4387339,0.8565965 h 0.386473 l -0.35565,-0.60223401 c 0.170712,-0.040307 0.346166,-0.18968001 0.346166,-0.46945801 0,-0.29400401 -0.201535,-0.50976501 -0.531104,-0.50976501 H -2.332601 V 0.8565965 h 0.336682 V 0.28992749 h 0.246584 z m 0.033194,-1.07406302 c 0,0.132776 -0.101953,0.21813200109 -0.2371,0.21813200109 H -1.995919 V -0.43559853 h 0.3532791 c 0.135147,0 0.2371,0.085356 0.2371,0.21813201 z" style="font-weight:bold;font-size:2.371px;font-family:'Proxima Nova';dominant-baseline:middle;text-anchor:middle;fill:#331a00" id="path14"/>
    <path d="m -0.80904819,0.8565965 h 0.33668201 v -1.58145703 h -0.33668201 z" style="font-weight:bold;font-size:2.371px;font-family:'Proxima Nova';dominant-baseline:middle;text-anchor:middle;fill:#331a00" id="path16"/>
    <path d="m -0.26979387,0.63372249 c 0.149373,0.14937301 0.367505,0.25132601 0.67099301,0.25132601 0.42678001,0 0.63305706,-0.218132 0.63305706,-0.50739401 0,-0.35090801 -0.33194005,-0.42915101 -0.59275006,-0.48842601 -0.182567,-0.042678 -0.31534301,-0.075872 -0.31534301,-0.18256701 0,-0.09484 0.080614,-0.161228 0.23235801,-0.161228 0.154115,0 0.32482701,0.054533 0.45286101,0.173083 l 0.187309,-0.246584 c -0.156486,-0.144631 -0.365134,-0.22050301 -0.61646001,-0.22050301 -0.37224701,0 -0.59986301,0.21339001 -0.59986301,0.47657102 0,0.353279 0.33194,0.424409 0.59037901,0.48368401 0.182567,0.042678 0.32008501,0.082985 0.32008501,0.201535 0,0.090098 -0.090098,0.177825 -0.27503601,0.177825 -0.218132,0 -0.39121501,-0.097211 -0.50265201,-0.21339 z" style="font-weight:bold;font-size:2.371px;font-family:'Proxima Nova';dominant-baseline:middle;text-anchor:middle;fill:#331a00" id="path18"/>
    <path d="m 1.2609459,0.8565965 h 1.119112 V 0.56496349 h -0.78243 v -0.367505 h 0.765833 v -0.28926201 h -0.765833 v -0.34379501 h 0.78243 v -0.289262 h -1.119112 z" style="font-weight:bold;font-size:2.371px;font-family:'Proxima Nova';dominant-baseline:middle;text-anchor:middle;fill:#331a00" id="path20"/>
  </g>
</svg>
