<?xml version="1.0" encoding="UTF-8" standalone="no"?>
<svg xmlns="http://www.w3.org/2000/svg" xmlns:svg="http://www.w3.org/2000/svg" version="1.1" viewBox="-4.325000 -1.915222 8.650000 3.830444" height="3.830444mm" width="8.650000mm">
  <defs/>
  <g>
    <rect x="-4.2" y="-1.7902222222222222" width="8.4" height="3.5804444444444443" rx="0.5" ry="0.5" fill="#efedeb" stroke="#18191c" stroke-width="0.25"/>
    <g style="font-weight:bold;font-size:2.37067px;font-family:'Proxima Nova';dominant-baseline:middle;text-anchor:middle;fill:#18191c">
      <path d="m -0.62835633,0.85699603 h 0.85818136 c 0.30107467,0 0.45990935,-0.18965334 0.45990935,-0.42672001 0,-0.19913601 -0.13512801,-0.36271202 -0.30344535,-0.38878935 0.14935201,-0.03081867 0.27262668,-0.163576 0.27262668,-0.36271201 0,-0.21098934 -0.15409334,-0.40301335 -0.45516802,-0.40301335 H -0.62835633 Z M -0.29172166,-0.0889 v -0.34848801 h 0.42197868 c 0.11379201,0 0.18491201,0.0758613 0.18491201,0.17305867 0,0.10193867 -0.07112,0.17542934 -0.18491201,0.17542934 z m 0,0.65904535 V 0.19795068 h 0.43383202 c 0.13275734,0 0.20387734,0.085344 0.20387734,0.184912 0,0.113792 -0.0758613,0.18728267 -0.20387734,0.18728267 z" style="font-weight:bold;font-size:2.37067px;font-family:'Proxima Nova';dominant-baseline:middle;text-anchor:middle;fill:#18191c"/>
    </g>
  </g>
</svg>
