<?xml version="1.0" encoding="UTF-8" standalone="no"?>
<svg xmlns="http://www.w3.org/2000/svg" xmlns:svg="http://www.w3.org/2000/svg" version="1.1" viewBox="-4.325000 -1.915222 8.650000 3.830444" height="3.830444mm" width="8.650000mm">
  <defs/>
  <g>
    <rect x="-4.2" y="-1.7902222222222222" width="8.4" height="3.5804444444444443" rx="0.5" ry="0.5" fill="#efedeb" stroke="#18191c" stroke-width="0.25"/>
    <g style="font-weight:bold;font-size:2.37067px;font-family:'Proxima Nova';dominant-baseline:middle;text-anchor:middle;fill:#18191c">
      <path d="m -2.3803531,0.067564 c 0,0.47650402 0.348488,0.81788003 0.824992,0.81788003 0.4788747,0 0.82736268,-0.34137601 0.82736268,-0.81788003 0,-0.47650401 -0.34848798,-0.81788002 -0.82736268,-0.81788002 -0.476504,0 -0.824992,0.34137601 -0.824992,0.81788002 z m 1.3062373,0 c 0,0.29396268 -0.1896533,0.51917602 -0.4812453,0.51917602 -0.291592,0 -0.4788747,-0.22521334 -0.4788747,-0.51917602 0,-0.29633334 0.1872827,-0.51917601 0.4788747,-0.51917601 0.291592,0 0.4812453,0.22284267 0.4812453,0.51917601 z" style="font-weight:bold;font-size:2.37067px;font-family:'Proxima Nova';dominant-baseline:middle;text-anchor:middle;fill:#18191c"/>
      <path d="m -0.48945002,0.22639868 c 0,0.38878934 0.22521334,0.65904535 0.70882935,0.65904535 0.47887469,0 0.70408803,-0.26788534 0.70408803,-0.66141602 v -0.9482667 H 0.58209135 v 0.93878403 c 0,0.22047201 -0.12090401,0.37219468 -0.36271202,0.37219468 -0.24654934,0 -0.36745334,-0.15172267 -0.36745334,-0.37219468 v -0.93878403 h -0.34137601 z" style="font-weight:bold;font-size:2.37067px;font-family:'Proxima Nova';dominant-baseline:middle;text-anchor:middle;fill:#18191c"/>
      <path d="M 1.6027004,0.85699603 H 1.9417057 V -0.42790534 H 2.4016151 V -0.72423869 H 1.1404204 v 0.29633335 h 0.46228 z" style="font-weight:bold;font-size:2.37067px;font-family:'Proxima Nova';dominant-baseline:middle;text-anchor:middle;fill:#18191c"/>
    </g>
  </g>
</svg>
