<?xml version="1.0" encoding="UTF-8" standalone="no"?>
<svg
   xmlns:dc="http://purl.org/dc/elements/1.1/"
   xmlns:cc="http://creativecommons.org/ns#"
   xmlns:rdf="http://www.w3.org/1999/02/22-rdf-syntax-ns#"
   xmlns:svg="http://www.w3.org/2000/svg"
   xmlns="http://www.w3.org/2000/svg"
   id="svg8"
   viewBox="0 0 6.0 11.370666666666667"
   height="11.370666666666667mm"
   width="6.0mm"
   version="1.1">
  <metadata
     id="metadata14">
    <rdf:RDF>
      <cc:Work
         rdf:about="">
        <dc:format>image/svg+xml</dc:format>
        <dc:type
           rdf:resource="http://purl.org/dc/dcmitype/StillImage" />
      </cc:Work>
    </rdf:RDF>
  </metadata>
  <defs
     id="defs12" />
  <g
     id="g6"
     transform="translate(3,5.6853333)">
    <path
       id="circle2"
       d="M 2.5,0 A 2.5,2.5 0 0 1 0,2.5 2.5,2.5 0 0 1 -2.5,0 2.5,2.5 0 0 1 0,-2.5 2.5,2.5 0 0 1 2.5,0 Z"
       style="fill:#0044cc;stroke:#0044cc;stroke-width:1" />
    <g
       id="text4"
       style="font-weight:bold;font-size:2.37066674px;font-family:'Proxima Nova';text-anchor:middle;fill:#0044cc"
       aria-label="±2">
      <path
         id="path17"
         style="font-weight:bold;font-size:2.37066674px;font-family:'Proxima Nova';text-anchor:middle;fill:#0044cc"
         d="m -0.60631654,-4.7728374 h 0.42434935 v -0.184912 h -0.42434935 v -0.4670213 h -0.20624801 v 0.4670213 H -1.2392846 v 0.184912 h 0.42672005 v 0.4836161 h 0.20624801 z M -1.2392846,-4 h 1.05731741 V -4.184912 H -1.2392846 Z" />
      <path
         id="path19"
         style="font-weight:bold;font-size:2.37066674px;font-family:'Proxima Nova';text-anchor:middle;fill:#0044cc"
         d="M -0.00201877,-4 H 1.1880559 V -4.2963333 H 0.54323458 c 0.41012535,-0.2987041 0.63296802,-0.5334001 0.63296802,-0.8036561 0,-0.3152986 -0.26788534,-0.504952 -0.60452002,-0.504952 -0.22047201,0 -0.45516801,0.080603 -0.60926135,0.2584027 l 0.192024,0.2228427 c 0.10668001,-0.1114214 0.24417868,-0.1825414 0.42434935,-0.1825414 0.13038667,0 0.25603201,0.068749 0.25603201,0.206248 0,0.1943947 -0.18965334,0.3579707 -0.83684536,0.8344747 z" />
    </g>
  </g>
</svg>
