<?xml version="1.0" encoding="UTF-8" standalone="no"?>
<svg
   xmlns:dc="http://purl.org/dc/elements/1.1/"
   xmlns:cc="http://creativecommons.org/ns#"
   xmlns:rdf="http://www.w3.org/1999/02/22-rdf-syntax-ns#"
   xmlns:svg="http://www.w3.org/2000/svg"
   xmlns="http://www.w3.org/2000/svg"
   id="svg32"
   viewbox="0 0 59.99999999976 379.42913385675"
   height="379.42913385675"
   width="59.99999999976"
   version="1.1">
  <metadata
     id="metadata38">
    <rdf:RDF>
      <cc:Work
         rdf:about="">
        <dc:format>image/svg+xml</dc:format>
        <dc:type
           rdf:resource="http://purl.org/dc/dcmitype/StillImage" />
      </cc:Work>
    </rdf:RDF>
  </metadata>
  <defs
     id="defs36" />
  <rect
     id="rect2"
     stroke-width="1"
     fill="white"
     stroke="black"
     height="380.01968503784997"
     width="60.0"
     y="0"
     x="0" />
  <g
     id="text4"
     style="font-weight:bold;font-size:12px;font-family:'Proxima Nova';text-anchor:middle;fill:#000000"
     aria-label="SNOB">
    <path
       id="path40"
       style="font-weight:bold;font-size:12px;font-family:'Proxima Nova';text-anchor:middle;fill:#000000"
       d="m 13.716844,25.446802 c 0.744,0.756 1.848,1.272 3.384,1.272 2.16,0 3.204,-1.104 3.204,-2.568 0,-1.812 -1.68,-2.208 -3,-2.52 -0.864,-0.204 -1.596,-0.372 -1.596,-0.888 0,-0.48 0.408,-0.804 1.14,-0.804 0.816,0 1.68,0.276 2.328,0.876 l 0.948,-1.248 c -0.792,-0.732 -1.848,-1.116 -3.12,-1.116 -1.884,0 -3.036,1.104 -3.036,2.436 0,1.824 1.68,2.184 2.988,2.484 0.876,0.216 1.62,0.384 1.62,0.972 0,0.456 -0.456,0.888 -1.392,0.888 -1.104,0 -1.98,-0.492 -2.544,-1.08 z" />
    <path
       id="path42"
       style="font-weight:bold;font-size:12px;font-family:'Proxima Nova';text-anchor:middle;fill:#000000"
       d="m 26.972156,26.574802 h 1.644 v -8.004 h -1.704 v 5.028 l -3.708,-5.028 h -1.752 v 8.004 h 1.704 v -5.22 z" />
    <path
       id="path44"
       style="font-weight:bold;font-size:12px;font-family:'Proxima Nova';text-anchor:middle;fill:#000000"
       d="m 29.810344,22.578802 c 0,2.412 1.764,4.14 4.176,4.14 2.424,0 4.188,-1.728 4.188,-4.14 0,-2.412 -1.764,-4.14 -4.188,-4.14 -2.412,0 -4.176,1.728 -4.176,4.14 z m 6.612,0 c 0,1.488 -0.96,2.628 -2.436,2.628 -1.476,0 -2.424,-1.14 -2.424,-2.628 0,-1.5 0.948,-2.628 2.424,-2.628 1.476,0 2.436,1.128 2.436,2.628 z" />
    <path
       id="path46"
       style="font-weight:bold;font-size:12px;font-family:'Proxima Nova';text-anchor:middle;fill:#000000"
       d="m 39.381844,26.574802 h 4.344 c 1.524,0 2.328,-0.96 2.328,-2.16 0,-1.008 -0.684,-1.836 -1.536,-1.968 0.756,-0.156 1.38,-0.828 1.38,-1.836 0,-1.068 -0.78,-2.04 -2.304,-2.04 h -4.212 z m 1.704,-4.8 v -1.74 h 2.136 c 0.576,0 0.936,0.372 0.936,0.876 0,0.504 -0.36,0.864 -0.936,0.864 z m 0,3.324 v -1.86 h 2.196 c 0.672,0 1.032,0.432 1.032,0.936 0,0.576 -0.384,0.924 -1.032,0.924 z" />
  </g>
  <g
     id="text6"
     style="font-weight:bold;font-size:12px;font-family:'Proxima Nova';dominant-baseline:hanging;text-anchor:middle;fill:#000000"
     aria-label="DHE">
    <path
       id="path49"
       style="font-weight:bold;font-size:12px;font-family:'Proxima Nova';dominant-baseline:hanging;text-anchor:middle;fill:#000000"
       d="m 18.592781,361.02889 h 3.156 c 2.508,0 4.248,-1.584 4.248,-3.996 0,-2.412 -1.74,-4.008 -4.248,-4.008 h -3.156 z m 1.704,-1.5 v -5.004 h 1.452 c 1.644,0 2.508,1.092 2.508,2.508 0,1.356 -0.924,2.496 -2.508,2.496 z" />
    <path
       id="path51"
       style="font-weight:bold;font-size:12px;font-family:'Proxima Nova';dominant-baseline:hanging;text-anchor:middle;fill:#000000"
       d="m 32.701781,361.02889 h 1.716 v -8.004 h -1.716 v 3.144 h -3.78 v -3.144 h -1.704 v 8.004 h 1.704 v -3.36 h 3.78 z" />
    <path
       id="path53"
       style="font-weight:bold;font-size:12px;font-family:'Proxima Nova';dominant-baseline:hanging;text-anchor:middle;fill:#000000"
       d="m 35.983406,361.02889 h 5.664 v -1.5 h -3.96 v -1.812 h 3.876 v -1.5 h -3.876 v -1.692 h 3.96 v -1.5 h -5.664 z" />
  </g>
  <g
     id="text8"
     style="font-weight:bold;font-size:9px;font-family:'Proxima Nova';text-anchor:middle;fill:#000000"
     aria-label="LEVEL">
    <path
       id="path56"
       style="font-weight:bold;font-size:9px;font-family:'Proxima Nova';text-anchor:middle;fill:#000000"
       d="m 17.551031,51.673229 h 3.816 v -1.125 h -2.538 v -4.878 h -1.278 z" />
    <path
       id="path58"
       style="font-weight:bold;font-size:9px;font-family:'Proxima Nova';text-anchor:middle;fill:#000000"
       d="m 22.261969,51.673229 h 4.248 v -1.125 h -2.97 v -1.359 h 2.907 v -1.125 h -2.907 v -1.269 h 2.97 v -1.125 h -4.248 z" />
    <path
       id="path60"
       style="font-weight:bold;font-size:9px;font-family:'Proxima Nova';text-anchor:middle;fill:#000000"
       d="m 29.200828,51.673229 h 1.602 l 2.313,-6.003 h -1.458 l -1.656,4.617 -1.665,-4.617 h -1.458 z" />
    <path
       id="path62"
       style="font-weight:bold;font-size:9px;font-family:'Proxima Nova';text-anchor:middle;fill:#000000"
       d="m 33.670172,51.673229 h 4.248 v -1.125 h -2.97 v -1.359 h 2.907 v -1.125 h -2.907 v -1.269 h 2.97 v -1.125 h -4.248 z" />
    <path
       id="path64"
       style="font-weight:bold;font-size:9px;font-family:'Proxima Nova';text-anchor:middle;fill:#000000"
       d="m 38.926031,51.673229 h 3.816 v -1.125 h -2.538 v -4.878 h -1.278 z" />
  </g>
  <rect
     id="rect10"
     fill="none"
     stroke="none"
     ry="3.0"
     rx="3.0"
     stroke-width="1.033464566925"
     height="39.361548556245"
     width="31.742125984125003"
     y="104.9543963250675"
     x="0.11318887795230104" />
  <g
     id="text12"
     style="font-weight:bold;font-size:7px;font-family:'Proxima Nova';text-anchor:middle;fill:#000000"
     aria-label="CV">
    <path
       id="path67"
       style="font-weight:bold;font-size:7px;font-family:'Proxima Nova';text-anchor:middle;fill:#000000"
       d="m 13.922096,113.17455 c 1.029,0 1.617,-0.567 1.953,-1.148 l -0.854,-0.413 c -0.196,0.385 -0.616,0.679 -1.099,0.679 -0.847,0 -1.463,-0.651 -1.463,-1.533 0,-0.882 0.616,-1.533 1.463,-1.533 0.483,0 0.903,0.301 1.099,0.679 l 0.854,-0.42 c -0.329,-0.581 -0.924,-1.141 -1.953,-1.141 -1.4,0 -2.485,0.98 -2.485,2.415 0,1.435 1.085,2.415 2.485,2.415 z" />
    <path
       id="path69"
       style="font-weight:bold;font-size:7px;font-family:'Proxima Nova';text-anchor:middle;fill:#000000"
       d="m 17.755252,113.09055 h 1.246 l 1.799,-4.669 h -1.134 l -1.288,3.591 -1.295,-3.591 h -1.134 z" />
  </g>
  <g
     id="text14"
     style="font-weight:bold;font-size:7px;font-family:'Proxima Nova';text-anchor:middle;fill:#000000"
     aria-label="UNI">
    <path
       id="path72"
       style="font-weight:bold;font-size:7px;font-family:'Proxima Nova';text-anchor:middle;fill:#000000"
       d="m 38.407435,114.25513 c 0,1.148 0.686,1.946 2.107,1.946 1.421,0 2.107,-0.791 2.107,-1.953 v -2.8 h -1.015 v 2.772 c 0,0.651 -0.371,1.099 -1.092,1.099 -0.721,0 -1.099,-0.448 -1.099,-1.099 v -2.772 h -1.008 z" />
    <path
       id="path74"
       style="font-weight:bold;font-size:7px;font-family:'Proxima Nova';text-anchor:middle;fill:#000000"
       d="m 46.754388,116.11713 h 0.959 v -4.669 h -0.994 v 2.933 l -2.163,-2.933 h -1.022 v 4.669 h 0.994 v -3.045 z" />
    <path
       id="path76"
       style="font-weight:bold;font-size:7px;font-family:'Proxima Nova';text-anchor:middle;fill:#000000"
       d="m 48.633997,116.11713 h 0.994 v -4.669 h -0.994 z" />
  </g>
  <g
     id="text16"
     style="font-weight:bold;font-size:7px;font-family:'Proxima Nova';dominant-baseline:hanging;text-anchor:middle;fill:#000000"
     aria-label="BI">
    <path
       id="path79"
       style="font-weight:bold;font-size:7px;font-family:'Proxima Nova';dominant-baseline:hanging;text-anchor:middle;fill:#000000"
       d="m 41.203333,145.19664 h 2.534 c 0.889,0 1.358,-0.56 1.358,-1.26 0,-0.588 -0.399,-1.071 -0.896,-1.148 0.441,-0.091 0.805,-0.483 0.805,-1.071 0,-0.623 -0.455,-1.19 -1.344,-1.19 h -2.457 z m 0.994,-2.8 v -1.015 h 1.246 c 0.336,0 0.546,0.217 0.546,0.511 0,0.294 -0.21,0.504 -0.546,0.504 z m 0,1.939 v -1.085 h 1.281 c 0.392,0 0.602,0.252 0.602,0.546 0,0.336 -0.224,0.539 -0.602,0.539 z" />
    <path
       id="path81"
       style="font-weight:bold;font-size:7px;font-family:'Proxima Nova';dominant-baseline:hanging;text-anchor:middle;fill:#000000"
       d="m 45.838099,145.19664 h 0.994 v -4.669 h -0.994 z" />
  </g>
  <g
     id="text18"
     style="font-weight:bold;font-size:9px;font-family:'Proxima Nova';text-anchor:middle;fill:#000000"
     aria-label="CURVE">
    <path
       id="path84"
       style="font-weight:bold;font-size:9px;font-family:'Proxima Nova';text-anchor:middle;fill:#000000"
       d="m 18.559594,161.0332 c 1.323,0 2.079,-0.729 2.511,-1.476 l -1.098,-0.531 c -0.252,0.495 -0.792,0.873 -1.413,0.873 -1.089,0 -1.881,-0.837 -1.881,-1.971 0,-1.134 0.792,-1.971 1.881,-1.971 0.621,0 1.161,0.387 1.413,0.873 l 1.098,-0.54 c -0.423,-0.747 -1.188,-1.467 -2.511,-1.467 -1.8,0 -3.195,1.26 -3.195,3.105 0,1.845 1.395,3.105 3.195,3.105 z" />
    <path
       id="path86"
       style="font-weight:bold;font-size:9px;font-family:'Proxima Nova';text-anchor:middle;fill:#000000"
       d="m 21.840094,158.5312 c 0,1.476 0.882,2.502 2.709,2.502 1.827,0 2.709,-1.017 2.709,-2.511 v -3.6 h -1.305 v 3.564 c 0,0.837 -0.477,1.413 -1.404,1.413 -0.927,0 -1.413,-0.576 -1.413,-1.413 v -3.564 h -1.296 z" />
    <path
       id="path88"
       style="font-weight:bold;font-size:9px;font-family:'Proxima Nova';text-anchor:middle;fill:#000000"
       d="m 31.824891,160.9252 h 1.467 l -1.35,-2.286 c 0.648,-0.153 1.314,-0.72 1.314,-1.782 0,-1.116 -0.765,-1.935 -2.016,-1.935 h -2.808 v 6.003 h 1.278 v -2.133 h 0.936 z m 0.126,-4.068 c 0,0.504 -0.387,0.81 -0.9,0.81 h -1.341 v -1.62 h 1.341 c 0.513,0 0.9,0.306 0.9,0.81 z" />
    <path
       id="path90"
       style="font-weight:bold;font-size:9px;font-family:'Proxima Nova';text-anchor:middle;fill:#000000"
       d="m 35.810203,160.9252 h 1.602 l 2.313,-6.003 h -1.458 l -1.656,4.617 -1.665,-4.617 h -1.458 z" />
    <path
       id="path92"
       style="font-weight:bold;font-size:9px;font-family:'Proxima Nova';text-anchor:middle;fill:#000000"
       d="m 40.279547,160.9252 h 4.248 v -1.125 h -2.97 v -1.359 h 2.907 v -1.125 h -2.907 v -1.269 h 2.97 v -1.125 h -4.248 z" />
  </g>
  <rect
     id="rect20"
     fill="none"
     stroke="none"
     ry="3.0"
     rx="3.0"
     stroke-width="1.033464566925"
     height="39.36154855624497"
     width="31.742125984125003"
     y="214.20636482856753"
     x="0.11318887795230104" />
  <g
     id="text22"
     style="font-weight:bold;font-size:7px;font-family:'Proxima Nova';text-anchor:middle;fill:#000000"
     aria-label="CV">
    <path
       id="path95"
       style="font-weight:bold;font-size:7px;font-family:'Proxima Nova';text-anchor:middle;fill:#000000"
       d="m 13.922096,222.42651 c 1.029,0 1.617,-0.567 1.953,-1.148 l -0.854,-0.413 c -0.196,0.385 -0.616,0.679 -1.099,0.679 -0.847,0 -1.463,-0.651 -1.463,-1.533 0,-0.882 0.616,-1.533 1.463,-1.533 0.483,0 0.903,0.301 1.099,0.679 l 0.854,-0.42 c -0.329,-0.581 -0.924,-1.141 -1.953,-1.141 -1.4,0 -2.485,0.98 -2.485,2.415 0,1.435 1.085,2.415 2.485,2.415 z" />
    <path
       id="path97"
       style="font-weight:bold;font-size:7px;font-family:'Proxima Nova';text-anchor:middle;fill:#000000"
       d="m 17.755252,222.34251 h 1.246 l 1.799,-4.669 h -1.134 l -1.288,3.591 -1.295,-3.591 h -1.134 z" />
  </g>
  <g
     id="text24"
     style="font-weight:bold;font-size:7px;font-family:'Proxima Nova';text-anchor:middle;fill:#000000"
     aria-label="S">
    <path
       id="path100"
       style="font-weight:bold;font-size:7px;font-family:'Proxima Nova';text-anchor:middle;fill:#000000"
       d="m 42.064114,224.71109 c 0.434,0.441 1.078,0.742 1.974,0.742 1.26,0 1.869,-0.644 1.869,-1.498 0,-1.057 -0.98,-1.288 -1.75,-1.47 -0.504,-0.119 -0.931,-0.217 -0.931,-0.518 0,-0.28 0.238,-0.469 0.665,-0.469 0.476,0 0.98,0.161 1.358,0.511 l 0.553,-0.728 c -0.462,-0.427 -1.078,-0.651 -1.82,-0.651 -1.099,0 -1.771,0.644 -1.771,1.421 0,1.064 0.98,1.274 1.743,1.449 0.511,0.126 0.945,0.224 0.945,0.567 0,0.266 -0.266,0.518 -0.812,0.518 -0.644,0 -1.155,-0.287 -1.484,-0.63 z" />
  </g>
  <g
     id="text26"
     style="font-weight:bold;font-size:7px;font-family:'Proxima Nova';dominant-baseline:hanging;text-anchor:middle;fill:#000000"
     aria-label="J">
    <path
       id="path103"
       style="font-weight:bold;font-size:7px;font-family:'Proxima Nova';dominant-baseline:hanging;text-anchor:middle;fill:#000000"
       d="m 42.355599,254.07761 c 0.336,0.329 0.784,0.455 1.253,0.455 0.959,0 1.645,-0.511 1.645,-1.617 v -3.136 h -0.994 v 3.122 c 0,0.455 -0.287,0.749 -0.728,0.749 -0.322,0 -0.56,-0.161 -0.742,-0.336 z" />
  </g>
  <rect
     id="rect28"
     fill="black"
     stroke="black"
     ry="3.0"
     rx="3.0"
     stroke-width="1.033464566925"
     height="39.361548556245"
     width="31.742125984125003"
     y="307.21817585181753"
     x="14.128937007817498" />
  <g
     id="text30"
     style="font-weight:bold;font-size:7px;font-family:'Proxima Nova';text-anchor:middle;fill:#ffffff"
     aria-label="OUT">
    <path
       id="path106"
       style="font-weight:bold;font-size:7px;font-family:'Proxima Nova';text-anchor:middle;fill:#ffffff"
       d="m 22.957727,313.02334 c 0,1.407 1.029,2.415 2.436,2.415 1.414,0 2.443,-1.008 2.443,-2.415 0,-1.407 -1.029,-2.415 -2.443,-2.415 -1.407,0 -2.436,1.008 -2.436,2.415 z m 3.857,0 c 0,0.868 -0.56,1.533 -1.421,1.533 -0.861,0 -1.414,-0.665 -1.414,-1.533 0,-0.875 0.553,-1.533 1.414,-1.533 0.861,0 1.421,0.658 1.421,1.533 z" />
    <path
       id="path108"
       style="font-weight:bold;font-size:7px;font-family:'Proxima Nova';text-anchor:middle;fill:#ffffff"
       d="m 28.541102,313.49234 c 0,1.148 0.686,1.946 2.107,1.946 1.421,0 2.107,-0.791 2.107,-1.953 v -2.8 h -1.015 v 2.772 c 0,0.651 -0.371,1.099 -1.092,1.099 -0.721,0 -1.099,-0.448 -1.099,-1.099 v -2.772 h -1.008 z" />
    <path
       id="path110"
       style="font-weight:bold;font-size:7px;font-family:'Proxima Nova';text-anchor:middle;fill:#ffffff"
       d="m 34.746055,315.35434 h 1.001 v -3.794 h 1.358 v -0.875 h -3.724 v 0.875 h 1.365 z" />
  </g>
</svg>
