<?xml version="1.0" encoding="UTF-8" standalone="no"?>
<svg
   xmlns:dc="http://purl.org/dc/elements/1.1/"
   xmlns:cc="http://creativecommons.org/ns#"
   xmlns:rdf="http://www.w3.org/1999/02/22-rdf-syntax-ns#"
   xmlns:svg="http://www.w3.org/2000/svg"
   xmlns="http://www.w3.org/2000/svg"
   id="svg8"
   viewBox="0 0 6.0 11.370666666666667"
   height="11.370666666666667mm"
   width="6.0mm"
   version="1.1">
  <metadata
     id="metadata14">
    <rdf:RDF>
      <cc:Work
         rdf:about="">
        <dc:format>image/svg+xml</dc:format>
        <dc:type
           rdf:resource="http://purl.org/dc/dcmitype/StillImage" />
      </cc:Work>
    </rdf:RDF>
  </metadata>
  <defs
     id="defs12" />
  <g
     id="g6"
     transform="translate(3,5.6853333)">
    <path
       id="circle2"
       d="M 2.5,0 A 2.5,2.5 0 0 1 0,2.5 2.5,2.5 0 0 1 -2.5,0 2.5,2.5 0 0 1 0,-2.5 2.5,2.5 0 0 1 2.5,0 Z"
       style="fill:#0044cc;stroke:#0044cc;stroke-width:1" />
    <g
       id="text4"
       style="font-weight:bold;font-size:2.37066674px;font-family:'Proxima Nova';text-anchor:middle;fill:#0044cc"
       aria-label="0–2">
      <path
         id="path17"
         style="font-weight:bold;font-size:2.37066674px;font-family:'Proxima Nova';text-anchor:middle;fill:#0044cc"
         d="m -2.0678141,-4.789432 c 0,0.4077547 0.2015067,0.81788 0.6543041,0.81788 0.45042664,0 0.65430398,-0.4101253 0.65430398,-0.81788 0,-0.4077547 -0.20387734,-0.8155094 -0.65430398,-0.8155094 -0.4527974,0 -0.6543041,0.4077547 -0.6543041,0.8155094 z m 0.9648614,0 c 0,0.291592 -0.085344,0.519176 -0.3105573,0.519176 -0.2275841,0 -0.3129281,-0.227584 -0.3129281,-0.519176 0,-0.291592 0.085344,-0.5168054 0.3129281,-0.5168054 0.2252133,0 0.3105573,0.2252134 0.3105573,0.5168054 z" />
      <path
         id="path19"
         style="font-weight:bold;font-size:2.37066674px;font-family:'Proxima Nova';text-anchor:middle;fill:#0044cc"
         d="M -0.60952067,-4.4456853 H 0.6540447 v -0.2560321 h -1.26356537 z" />
      <path
         id="path21"
         style="font-weight:bold;font-size:2.37066674px;font-family:'Proxima Nova';text-anchor:middle;fill:#0044cc"
         d="M 0.83836414,-4 H 2.0284388 V -4.2963333 H 1.3836175 c 0.4101253,-0.2987041 0.632968,-0.5334001 0.632968,-0.8036561 0,-0.3152986 -0.2678853,-0.504952 -0.60452,-0.504952 -0.220472,0 -0.45516803,0.080603 -0.60926136,0.2584027 l 0.192024,0.2228427 C 1.1015081,-5.2351174 1.2390068,-5.3062374 1.4191775,-5.3062374 c 0.1303867,0 0.256032,0.068749 0.256032,0.206248 0,0.1943947 -0.1896533,0.3579707 -0.83684536,0.8344747 z" />
    </g>
  </g>
</svg>
