<?xml version="1.0" encoding="UTF-8" standalone="no"?>
<svg
   xmlns:dc="http://purl.org/dc/elements/1.1/"
   xmlns:cc="http://creativecommons.org/ns#"
   xmlns:rdf="http://www.w3.org/1999/02/22-rdf-syntax-ns#"
   xmlns:svg="http://www.w3.org/2000/svg"
   xmlns="http://www.w3.org/2000/svg"
   id="svg8"
   viewBox="0 0 6.0 11.370666666666667"
   height="11.370666666666667mm"
   width="6.0mm"
   version="1.1">
  <metadata
     id="metadata14">
    <rdf:RDF>
      <cc:Work
         rdf:about="">
        <dc:format>image/svg+xml</dc:format>
        <dc:type
           rdf:resource="http://purl.org/dc/dcmitype/StillImage" />
      </cc:Work>
    </rdf:RDF>
  </metadata>
  <defs
     id="defs12" />
  <g
     id="g6"
     transform="translate(3,5.6853333)">
    <path
       id="circle2"
       d="M 2.5,0 A 2.5,2.5 0 0 1 0,2.5 2.5,2.5 0 0 1 -2.5,0 2.5,2.5 0 0 1 0,-2.5 2.5,2.5 0 0 1 2.5,0 Z"
       style="fill:#0044cc;stroke:#0044cc;stroke-width:1" />
    <g
       id="text4"
       style="font-weight:bold;font-size:2.37066674px;font-family:'Proxima Nova';text-anchor:middle;fill:#0044cc"
       aria-label="0–5">
      <path
         id="path17"
         style="font-weight:bold;font-size:2.37066674px;font-family:'Proxima Nova';text-anchor:middle;fill:#0044cc"
         d="m -2.0770745,-4.789432 c 0,0.4077547 0.2015067,0.81788 0.654304,0.81788 0.45042672,0 0.65430406,-0.4101253 0.65430406,-0.81788 0,-0.4077547 -0.20387734,-0.8155094 -0.65430406,-0.8155094 -0.4527973,0 -0.654304,0.4077547 -0.654304,0.8155094 z m 0.9648614,0 c 0,0.291592 -0.085344,0.519176 -0.3105574,0.519176 -0.227584,0 -0.312928,-0.227584 -0.312928,-0.519176 0,-0.291592 0.085344,-0.5168054 0.312928,-0.5168054 0.2252134,0 0.3105574,0.2252134 0.3105574,0.5168054 z" />
      <path
         id="path19"
         style="font-weight:bold;font-size:2.37066674px;font-family:'Proxima Nova';text-anchor:middle;fill:#0044cc"
         d="M -0.61878109,-4.4456853 H 0.64478428 V -4.7017174 H -0.61878109 Z" />
      <path
         id="path21"
         style="font-weight:bold;font-size:2.37066674px;font-family:'Proxima Nova';text-anchor:middle;fill:#0044cc"
         d="m 0.83384505,-4.2086187 c 0.13512801,0.1469814 0.33426405,0.2370667 0.60926135,0.2370667 0.3816774,0 0.632968,-0.2109893 0.632968,-0.547624 0,-0.32004 -0.2394373,-0.512064 -0.5073227,-0.512064 -0.1446106,0 -0.2726266,0.056896 -0.348488,0.1327573 V -5.2849014 H 1.9693944 V -5.5812347 H 0.88362905 v 0.9079653 l 0.23469605,0.061637 c 0.094827,-0.090085 0.2015066,-0.128016 0.3318933,-0.128016 0.1801707,0 0.28448,0.094827 0.28448,0.234696 0,0.128016 -0.10668,0.234696 -0.2939627,0.234696 -0.1659466,0 -0.312928,-0.061637 -0.419608,-0.1730587 z" />
    </g>
  </g>
</svg>
