<?xml version="1.0" encoding="UTF-8" standalone="no"?>
<svg
   xmlns:dc="http://purl.org/dc/elements/1.1/"
   xmlns:cc="http://creativecommons.org/ns#"
   xmlns:rdf="http://www.w3.org/1999/02/22-rdf-syntax-ns#"
   xmlns:svg="http://www.w3.org/2000/svg"
   xmlns="http://www.w3.org/2000/svg"
   id="svg8"
   viewBox="0 0 6.0 11.370666666666667"
   height="11.370666666666667mm"
   width="6.0mm"
   version="1.1">
  <metadata
     id="metadata14">
    <rdf:RDF>
      <cc:Work
         rdf:about="">
        <dc:format>image/svg+xml</dc:format>
        <dc:type
           rdf:resource="http://purl.org/dc/dcmitype/StillImage" />
      </cc:Work>
    </rdf:RDF>
  </metadata>
  <defs
     id="defs12" />
  <g
     id="g6"
     transform="translate(3,5.6853333)">
    <path
       id="circle2"
       d="M 2.5,0 A 2.5,2.5 0 0 1 0,2.5 2.5,2.5 0 0 1 -2.5,0 2.5,2.5 0 0 1 0,-2.5 2.5,2.5 0 0 1 2.5,0 Z"
       style="fill:#0044cc;stroke:#0044cc;stroke-width:1" />
    <g
       id="text4"
       style="font-weight:bold;font-size:2.37066674px;font-family:'Proxima Nova';text-anchor:middle;fill:#0044cc"
       aria-label="0–1">
      <path
         id="path17"
         style="font-weight:bold;font-size:2.37066674px;font-family:'Proxima Nova';text-anchor:middle;fill:#0044cc"
         d="m -1.843249,-4.789432 c 0,0.4077547 0.2015067,0.81788 0.6543041,0.81788 0.45042665,0 0.65430399,-0.4101253 0.65430399,-0.81788 0,-0.4077547 -0.20387734,-0.8155094 -0.65430399,-0.8155094 -0.4527974,0 -0.6543041,0.4077547 -0.6543041,0.8155094 z m 0.96486141,0 c 0,0.291592 -0.085344,0.519176 -0.31055731,0.519176 -0.227584,0 -0.312928,-0.227584 -0.312928,-0.519176 0,-0.291592 0.085344,-0.5168054 0.312928,-0.5168054 0.22521331,0 0.31055731,0.2252134 0.31055731,0.5168054 z" />
      <path
         id="path19"
         style="font-weight:bold;font-size:2.37066674px;font-family:'Proxima Nova';text-anchor:middle;fill:#0044cc"
         d="M -0.38495556,-4.4456853 H 0.87860981 V -4.7017174 H -0.38495556 Z" />
      <path
         id="path21"
         style="font-weight:bold;font-size:2.37066674px;font-family:'Proxima Nova';text-anchor:middle;fill:#0044cc"
         d="M 1.4327533,-4 H 1.7693879 V -5.5812347 H 1.4754253 l -0.49784005,0.5002107 0.19202405,0.2015066 0.263144,-0.2678853 z" />
    </g>
  </g>
</svg>
