<?xml version="1.0" encoding="UTF-8" standalone="no"?>
<svg xmlns="http://www.w3.org/2000/svg" xmlns:svg="http://www.w3.org/2000/svg" version="1.1" viewBox="-3.625000 -1.915222 7.250000 3.830444" height="3.830444mm" width="7.250000mm">
  <defs/>
  <g>
    <rect x="-3.5" y="-1.7902222222222222" width="7" height="3.5804444444444443" rx="0.5" ry="0.5" fill="#f0f3fa" stroke="#0044cc" stroke-width="0.25"/>
    <g style="font-weight:bold;font-size:2.37067px;font-family:'Proxima Nova';dominant-baseline:middle;text-anchor:middle;fill:#0044cc">
      <path d="m -1.1156395,0.08415867 h 0.42434937 v -0.184912 H -1.1156395 v -0.46702135 h -0.206248 v 0.46702135 h -0.42672 v 0.184912 h 0.42672 v 0.48361602 h 0.206248 z m -0.632968,0.77283736 h 1.05731737 V 0.67208402 H -1.7486075 Z" style="font-weight:bold;font-size:2.37067px;font-family:'Proxima Nova';dominant-baseline:middle;text-anchor:middle;fill:#0044cc"/>
      <path d="m -0.14388836,0.85699603 h 0.33900534 v -1.58123472 h -0.29396267 l -0.49784002,0.50021069 0.19202401,0.20150667 0.26077334,-0.26788534 z" style="font-weight:bold;font-size:2.37067px;font-family:'Proxima Nova';dominant-baseline:middle;text-anchor:middle;fill:#0044cc"/>
      <path d="m 0.43018343,0.067564 c 0,0.40775468 0.20150667,0.81788003 0.65430407,0.81788003 0.4504266,0 0.654304,-0.41012535 0.654304,-0.81788003 0,-0.40775468 -0.2038774,-0.81550935 -0.654304,-0.81550935 -0.4527974,0 -0.65430407,0.40775467 -0.65430407,0.81550935 z m 0.96486137,0 c 0,0.29159201 -0.085344,0.51917602 -0.3105573,0.51917602 -0.22758406,0 -0.31292806,-0.22758401 -0.31292806,-0.51917602 0,-0.291592 0.085344,-0.51680535 0.31292806,-0.51680535 0.2252133,0 0.3105573,0.22521335 0.3105573,0.51680535 z" style="font-weight:bold;font-size:2.37067px;font-family:'Proxima Nova';dominant-baseline:middle;text-anchor:middle;fill:#0044cc"/>
    </g>
  </g>
</svg>
