<?xml version="1.0" encoding="UTF-8" standalone="no"?>
<svg xmlns="http://www.w3.org/2000/svg" xmlns:svg="http://www.w3.org/2000/svg" version="1.1" viewBox="-3.625000 -1.915222 7.250000 3.830444" height="3.830444mm" width="7.250000mm">
  <defs/>
  <g>
    <rect x="-3.5" y="-1.7902222222222222" width="7" height="3.5804444444444443" rx="0.5" ry="0.5" fill="#f0f3fa" stroke="#0044cc" stroke-width="0.25"/>
    <g style="font-weight:bold;font-size:2.37067px;font-family:'Proxima Nova';dominant-baseline:middle;text-anchor:middle;fill:#0044cc">
      <path d="m -1.843249,0.067564 c 0,0.40775468 0.2015067,0.81788003 0.6543041,0.81788003 0.45042665,0 0.65430399,-0.41012535 0.65430399,-0.81788003 0,-0.40775468 -0.20387734,-0.81550935 -0.65430399,-0.81550935 -0.4527974,0 -0.6543041,0.40775467 -0.6543041,0.81550935 z m 0.96486141,0 c 0,0.29159201 -0.085344,0.51917602 -0.31055731,0.51917602 -0.227584,0 -0.312928,-0.22758401 -0.312928,-0.51917602 0,-0.291592 0.085344,-0.51680535 0.312928,-0.51680535 0.22521331,0 0.31055731,0.22521335 0.31055731,0.51680535 z" style="font-weight:bold;font-size:2.37067px;font-family:'Proxima Nova';dominant-baseline:middle;text-anchor:middle;fill:#0044cc"/>
      <path d="M -0.38495556,0.41131068 H 0.87860981 V 0.15527867 h -1.26356537 z" style="font-weight:bold;font-size:2.37067px;font-family:'Proxima Nova';dominant-baseline:middle;text-anchor:middle;fill:#0044cc"/>
      <path d="M 1.4303826,0.85699603 H 1.7693879 V -0.72423869 H 1.4754253 L 0.97758525,-0.224028 1.1696093,-0.02252133 1.4303826,-0.29040667 Z" style="font-weight:bold;font-size:2.37067px;font-family:'Proxima Nova';dominant-baseline:middle;text-anchor:middle;fill:#0044cc"/>
    </g>
  </g>
</svg>
