<?xml version="1.0" encoding="UTF-8" standalone="no"?>
<svg xmlns="http://www.w3.org/2000/svg" xmlns:svg="http://www.w3.org/2000/svg" version="1.1" width="8.250mm" height="3.830mm" viewBox="-4.125 -1.915 8.250 3.830">
  <defs/>
  <rect x="-4.000" y="-1.790" width="8.000" height="3.580" fill="#faf7f0" stroke="#0044cc" stroke-width="0.250" rx="0.500" ry="0.500"/>
  <g style="font-weight:bold;font-size:2.371px;font-family:'Proxima Nova';dominant-baseline:middle;text-anchor:middle;fill:#0044cc">
    <path d="m -0.60640179,0.08365048 h 0.42440901 v -0.184938 h -0.42440901 v -0.46708701 h -0.206277 v 0.46708701 H -1.2394588 v 0.184938 h 0.42678001 v 0.48368401 h 0.206277 z M -1.2394588,0.8565965 h 1.05746602 V 0.6716585 H -1.2394588 Z" style="font-weight:bold;font-size:2.371px;font-family:'Proxima Nova';dominant-baseline:middle;text-anchor:middle;fill:#0044cc"/>
    <path d="M -0.00201905,0.8565965 H 1.188223 V 0.56022149 H 0.52908497 c 0.424409,-0.298746 0.64728303,-0.53347501 0.64728303,-0.80376901 0,-0.31534301 -0.26792303,-0.50502302 -0.60460503,-0.50502302 -0.22050301,0 -0.45523201,0.080614 -0.60934702,0.25843901 l 0.19205101,0.22287401 c 0.106695,-0.11143701 0.244213,-0.18256701 0.42203801,-0.18256701 0.132776,0 0.258439,0.068759 0.258439,0.20627701 0,0.194422 -0.18968,0.358021 -0.83696302,0.83459201 z" style="font-weight:bold;font-size:2.371px;font-family:'Proxima Nova';dominant-baseline:middle;text-anchor:middle;fill:#0044cc"/>
  </g>
</svg>
