<?xml version="1.0" encoding="UTF-8" standalone="no"?>
<svg xmlns="http://www.w3.org/2000/svg" xmlns:svg="http://www.w3.org/2000/svg" version="1.1" width="8.250mm" height="3.830mm" viewBox="-4.125 -1.915 8.250 3.830">
  <defs/>
  <rect x="-4.000" y="-1.790" width="8.000" height="3.580" fill="#faf7f0" stroke="#0044cc" stroke-width="0.250" rx="0.500" ry="0.500"/>
  <g style="font-weight:bold;font-size:2.371px;font-family:'Proxima Nova';dominant-baseline:middle;text-anchor:middle;fill:#0044cc">
    <path d="m -2.5774993,0.06705348 c 0,0.40781201 0.201535,0.81799502 0.654396,0.81799502 0.45049,0 0.654396,-0.41018301 0.654396,-0.81799502 0,-0.40781201 -0.203906,-0.81562402 -0.654396,-0.81562402 -0.452861,0 -0.654396,0.40781201 -0.654396,0.81562402 z m 0.964997,0 c 0,0.29163301 -0.085356,0.51924901 -0.310601,0.51924901 -0.227616,0 -0.312972,-0.227616 -0.312972,-0.51924901 0,-0.291633 0.085356,-0.51687801 0.312972,-0.51687801 0.225245,0 0.310601,0.22524501 0.310601,0.51687801 z" style="font-weight:bold;font-size:2.371px;font-family:'Proxima Nova';dominant-baseline:middle;text-anchor:middle;fill:#0044cc"/>
    <path d="m -1.1190009,0.41084849 h 1.263743 V 0.15478048 h -1.263743 z" style="font-weight:bold;font-size:2.371px;font-family:'Proxima Nova';dominant-baseline:middle;text-anchor:middle;fill:#0044cc"/>
    <path d="M 0.69659233,0.8565965 H 1.0356453 V -0.72486053 H 0.74164133 l -0.49791001,0.50028101 0.192051,0.201535 0.26081001,-0.26792301 z" style="font-weight:bold;font-size:2.371px;font-family:'Proxima Nova';dominant-baseline:middle;text-anchor:middle;fill:#0044cc"/>
    <path d="m 1.2707449,0.06705348 c 0,0.40781201 0.201535,0.81799502 0.654396,0.81799502 0.45049,0 0.654396,-0.41018301 0.654396,-0.81799502 0,-0.40781201 -0.203906,-0.81562402 -0.654396,-0.81562402 -0.452861,0 -0.654396,0.40781201 -0.654396,0.81562402 z m 0.964997,0 c 0,0.29163301 -0.085356,0.51924901 -0.310601,0.51924901 -0.227616,0 -0.312972,-0.227616 -0.312972,-0.51924901 0,-0.291633 0.085356,-0.51687801 0.312972,-0.51687801 0.225245,0 0.310601,0.22524501 0.310601,0.51687801 z" style="font-weight:bold;font-size:2.371px;font-family:'Proxima Nova';dominant-baseline:middle;text-anchor:middle;fill:#0044cc"/>
  </g>
</svg>
