<?xml version="1.0" encoding="UTF-8" standalone="no"?>
<svg xmlns="http://www.w3.org/2000/svg" xmlns:svg="http://www.w3.org/2000/svg" version="1.1" viewBox="-3.625000 -1.915222 7.250000 3.830444" height="3.830444mm" width="7.250000mm">
  <defs/>
  <g>
    <rect x="-3.5" y="-1.7902222222222222" width="7" height="3.5804444444444443" rx="0.5" ry="0.5" fill="#f0f3fa" stroke="#0044cc" stroke-width="0.25"/>
    <g style="font-weight:bold;font-size:2.37067px;font-family:'Proxima Nova';dominant-baseline:middle;text-anchor:middle;fill:#0044cc">
      <path d="m -2.0770745,0.067564 c 0,0.40775468 0.2015067,0.81788003 0.654304,0.81788003 0.45042672,0 0.65430406,-0.41012535 0.65430406,-0.81788003 0,-0.40775468 -0.20387734,-0.81550935 -0.65430406,-0.81550935 -0.4527973,0 -0.654304,0.40775467 -0.654304,0.81550935 z m 0.9648614,0 c 0,0.29159201 -0.085344,0.51917602 -0.3105574,0.51917602 -0.227584,0 -0.312928,-0.22758401 -0.312928,-0.51917602 0,-0.291592 0.085344,-0.51680535 0.312928,-0.51680535 0.2252134,0 0.3105574,0.22521335 0.3105574,0.51680535 z" style="font-weight:bold;font-size:2.37067px;font-family:'Proxima Nova';dominant-baseline:middle;text-anchor:middle;fill:#0044cc"/>
      <path d="M -0.61878109,0.41131068 H 0.64478428 V 0.15527867 h -1.26356537 z" style="font-weight:bold;font-size:2.37067px;font-family:'Proxima Nova';dominant-baseline:middle;text-anchor:middle;fill:#0044cc"/>
      <path d="m 0.83384505,0.64837736 c 0.13512801,0.14698133 0.33426405,0.23706667 0.60926135,0.23706667 0.3816774,0 0.632968,-0.21098934 0.632968,-0.54525335 0,-0.32004001 -0.2394373,-0.50969335 -0.5073227,-0.50969335 -0.1446106,0 -0.2726266,0.056896 -0.3556,0.13038667 V -0.43501734 H 1.9693944 V -0.72423869 H 0.88362905 v 0.90322403 l 0.23469605,0.064008 c 0.094827,-0.0900853 0.2015066,-0.13038667 0.3318933,-0.13038667 0.1801707,0 0.28448,0.0971973 0.28448,0.24180801 0,0.13038667 -0.10668,0.23706667 -0.2939627,0.23706667 -0.1659466,0 -0.312928,-0.0592667 -0.4219786,-0.170688 z" style="font-weight:bold;font-size:2.37067px;font-family:'Proxima Nova';dominant-baseline:middle;text-anchor:middle;fill:#0044cc"/>
    </g>
  </g>
</svg>
