<?xml version="1.0" encoding="UTF-8" standalone="no"?>
<svg
   xmlns:dc="http://purl.org/dc/elements/1.1/"
   xmlns:cc="http://creativecommons.org/ns#"
   xmlns:rdf="http://www.w3.org/1999/02/22-rdf-syntax-ns#"
   xmlns:svg="http://www.w3.org/2000/svg"
   xmlns="http://www.w3.org/2000/svg"
   id="svg8"
   viewBox="0 0 8.000 3.580"
   height="3.580mm"
   width="8.000mm"
   version="1.1">
  <metadata
     id="metadata14">
    <rdf:RDF>
      <cc:Work
         rdf:about="">
        <dc:format>image/svg+xml</dc:format>
        <dc:type
           rdf:resource="http://purl.org/dc/dcmitype/StillImage" />
      </cc:Work>
    </rdf:RDF>
  </metadata>
  <defs
     id="defs12" />
  <g
     id="g6"
     transform="translate(4,1.79)">
    <path
       d="m -3.5,-1.79 h 7 c 0.277,0 0.5,0.223 0.5,0.5 v 2.58 c 0,0.277 -0.223,0.5 -0.5,0.5 h -7 C -3.777,1.79 -4,1.567 -4,1.29 v -2.58 c 0,-0.277 0.223,-0.5 0.5,-0.5 z"
       style="fill:#faf7f0;stroke:#0044cc;stroke-width:0.25"
       id="rect2" />
    <g
       style="font-weight:bold;font-size:2.371px;font-family:'Proxima Nova';dominant-baseline:middle;text-anchor:middle;fill:#0044cc"
       id="text4"
       aria-label="0–5">
      <path
         id="path17"
         style="font-weight:bold;font-size:2.371px;font-family:'Proxima Nova';dominant-baseline:middle;text-anchor:middle;fill:#0044cc"
         d="m -2.0773665,0.06705348 c 0,0.40781201 0.201535,0.81799502 0.654396,0.81799502 0.45049001,0 0.65439601,-0.41018301 0.65439601,-0.81799502 0,-0.40781201 -0.203906,-0.81562402 -0.65439601,-0.81562402 -0.452861,0 -0.654396,0.40781201 -0.654396,0.81562402 z m 0.964997,0 c 0,0.29163301 -0.085356,0.51924901 -0.310601,0.51924901 -0.227616,0 -0.312972,-0.227616 -0.312972,-0.51924901 0,-0.291633 0.085356,-0.51687801 0.312972,-0.51687801 0.225245,0 0.310601,0.22524501 0.310601,0.51687801 z" />
      <path
         id="path19"
         style="font-weight:bold;font-size:2.371px;font-family:'Proxima Nova';dominant-baseline:middle;text-anchor:middle;fill:#0044cc"
         d="M -0.6188681,0.41084849 H 0.64487492 V 0.15478048 H -0.6188681 Z" />
      <path
         id="path21"
         style="font-weight:bold;font-size:2.371px;font-family:'Proxima Nova';dominant-baseline:middle;text-anchor:middle;fill:#0044cc"
         d="m 0.83396214,0.6479485 c 0.135147,0.147002 0.33431096,0.2371 0.60934706,0.2371 0.381731,0 0.633057,-0.211019 0.633057,-0.54533001 0,-0.32008501 -0.239471,-0.50976501 -0.507394,-0.50976501 -0.144631,0 -0.272665,0.056904 -0.3556501,0.130405 v -0.39595701 h 0.7563491 v -0.289262 H 0.88375314 v 0.90335101 l 0.23472896,0.064017 c 0.09484,-0.090098 0.2015351,-0.13040501 0.3319401,-0.13040501 0.180196,0 0.28452,0.097211 0.28452,0.24184201 0,0.130405 -0.106695,0.2371 -0.294004,0.2371 -0.16597,0 -0.3129721,-0.059275 -0.4220381,-0.170712 z" />
    </g>
  </g>
</svg>
