<?xml version="1.0" encoding="UTF-8" standalone="no"?>
<svg
   xmlns:dc="http://purl.org/dc/elements/1.1/"
   xmlns:cc="http://creativecommons.org/ns#"
   xmlns:rdf="http://www.w3.org/1999/02/22-rdf-syntax-ns#"
   xmlns:svg="http://www.w3.org/2000/svg"
   xmlns="http://www.w3.org/2000/svg"
   id="svg8"
   viewBox="0 0 8.000 3.580"
   height="3.580mm"
   width="8.000mm"
   version="1.1">
  <metadata
     id="metadata14">
    <rdf:RDF>
      <cc:Work
         rdf:about="">
        <dc:format>image/svg+xml</dc:format>
        <dc:type
           rdf:resource="http://purl.org/dc/dcmitype/StillImage" />
      </cc:Work>
    </rdf:RDF>
  </metadata>
  <defs
     id="defs12" />
  <g
     id="g6"
     transform="translate(4,1.79)">
    <path
       id="rect2"
       d="m -3.5,-1.79 h 7 c 0.277,0 0.5,0.223 0.5,0.5 v 2.58 c 0,0.277 -0.223,0.5 -0.5,0.5 h -7 C -3.777,1.79 -4,1.567 -4,1.29 v -2.58 c 0,-0.277 0.223,-0.5 0.5,-0.5 z"
       style="fill:#0044cc;stroke:none" />
    <g
       id="text4"
       style="font-weight:bold;font-size:2.37100005px;font-family:'Proxima Nova';dominant-baseline:middle;text-anchor:middle;fill:#faf7f0"
       aria-label="±2">
      <path
         id="path17"
         style="font-weight:bold;font-size:2.37100005px;font-family:'Proxima Nova';dominant-baseline:middle;text-anchor:middle;fill:#faf7f0"
         d="m -0.60640179,0.08365048 h 0.42440901 v -0.184938 h -0.42440901 v -0.46708701 h -0.206277 v 0.46708701 H -1.2394588 v 0.184938 h 0.42678001 v 0.48368401 h 0.206277 z M -1.2394588,0.8565965 h 1.05746602 V 0.6716585 H -1.2394588 Z" />
      <path
         id="path19"
         style="font-weight:bold;font-size:2.37100005px;font-family:'Proxima Nova';dominant-baseline:middle;text-anchor:middle;fill:#faf7f0"
         d="M -0.00201905,0.8565965 H 1.188223 V 0.56022149 H 0.52908497 c 0.424409,-0.298746 0.64728303,-0.53347501 0.64728303,-0.80376901 0,-0.31534301 -0.26792303,-0.50502302 -0.60460503,-0.50502302 -0.22050301,0 -0.45523201,0.080614 -0.60934702,0.25843901 l 0.19205101,0.22287401 c 0.106695,-0.11143701 0.244213,-0.18256701 0.42203801,-0.18256701 0.132776,0 0.258439,0.068759 0.258439,0.20627701 0,0.194422 -0.18968,0.358021 -0.83696302,0.83459201 z" />
    </g>
  </g>
</svg>
