<?xml version="1.0" encoding="UTF-8" standalone="no"?>
<svg
   xmlns:dc="http://purl.org/dc/elements/1.1/"
   xmlns:cc="http://creativecommons.org/ns#"
   xmlns:rdf="http://www.w3.org/1999/02/22-rdf-syntax-ns#"
   xmlns:svg="http://www.w3.org/2000/svg"
   xmlns="http://www.w3.org/2000/svg"
   id="svg8"
   viewBox="0 0 8.000 3.580"
   height="3.580mm"
   width="8.000mm"
   version="1.1">
  <metadata
     id="metadata14">
    <rdf:RDF>
      <cc:Work
         rdf:about="">
        <dc:format>image/svg+xml</dc:format>
        <dc:type
           rdf:resource="http://purl.org/dc/dcmitype/StillImage" />
      </cc:Work>
    </rdf:RDF>
  </metadata>
  <defs
     id="defs12" />
  <g
     id="g6"
     transform="translate(4,1.79)">
    <path
       id="rect2"
       d="m -3.5,-1.79 h 7 c 0.277,0 0.5,0.223 0.5,0.5 v 2.58 c 0,0.277 -0.223,0.5 -0.5,0.5 h -7 C -3.777,1.79 -4,1.567 -4,1.29 v -2.58 c 0,-0.277 0.223,-0.5 0.5,-0.5 z"
       style="fill:#0044cc;stroke:none" />
    <g
       id="text4"
       style="font-weight:bold;font-size:2.37100005px;font-family:'Proxima Nova';dominant-baseline:middle;text-anchor:middle;fill:#faf7f0"
       aria-label="0–1">
      <path
         id="path17"
         style="font-weight:bold;font-size:2.37100005px;font-family:'Proxima Nova';dominant-baseline:middle;text-anchor:middle;fill:#faf7f0"
         d="m -1.8435081,0.06705348 c 0,0.40781201 0.201535,0.81799502 0.654396,0.81799502 0.45049001,0 0.65439602,-0.41018301 0.65439602,-0.81799502 0,-0.40781201 -0.20390601,-0.81562402 -0.65439602,-0.81562402 -0.452861,0 -0.654396,0.40781201 -0.654396,0.81562402 z m 0.96499701,0 c 0,0.29163301 -0.085356,0.51924901 -0.31060101,0.51924901 -0.227616,0 -0.312972,-0.227616 -0.312972,-0.51924901 0,-0.291633 0.085356,-0.51687801 0.312972,-0.51687801 0.22524501,0 0.31060101,0.22524501 0.31060101,0.51687801 z" />
      <path
         id="path19"
         style="font-weight:bold;font-size:2.37100005px;font-family:'Proxima Nova';dominant-baseline:middle;text-anchor:middle;fill:#faf7f0"
         d="M -0.3850097,0.41084849 H 0.87873333 V 0.15478048 H -0.3850097 Z" />
      <path
         id="path21"
         style="font-weight:bold;font-size:2.37100005px;font-family:'Proxima Nova';dominant-baseline:middle;text-anchor:middle;fill:#faf7f0"
         d="m 1.4305836,0.8565965 h 0.339053 v -1.58145703 h -0.294004 l -0.49791006,0.50028101 0.19205096,0.201535 0.2608101,-0.26792301 z" />
    </g>
  </g>
</svg>
