<?xml version="1.0" encoding="UTF-8" standalone="no"?>
<svg
   xmlns:dc="http://purl.org/dc/elements/1.1/"
   xmlns:cc="http://creativecommons.org/ns#"
   xmlns:rdf="http://www.w3.org/1999/02/22-rdf-syntax-ns#"
   xmlns:svg="http://www.w3.org/2000/svg"
   xmlns="http://www.w3.org/2000/svg"
   id="svg10"
   viewBox="0 0 6.000 8.580"
   height="8.580mm"
   width="6.000mm"
   version="1.1">
  <metadata
     id="metadata16">
    <rdf:RDF>
      <cc:Work
         rdf:about="">
        <dc:format>image/svg+xml</dc:format>
        <dc:type
           rdf:resource="http://purl.org/dc/dcmitype/StillImage" />
      </cc:Work>
    </rdf:RDF>
  </metadata>
  <defs
     id="defs14" />
  <g
     id="g8"
     transform="translate(3,5.58)">
    <g
       id="g4"
       transform="translate(0,-4)">
      <g
         id="text2"
         style="font-weight:bold;font-size:2.37100005px;font-family:'Proxima Nova';dominant-baseline:alphabetic;text-anchor:middle;fill:#0044cc"
         aria-label="0–2">
        <path
           id="path18"
           style="font-weight:bold;font-size:2.37100005px;font-family:'Proxima Nova';dominant-baseline:alphabetic;text-anchor:middle;fill:#0044cc"
           d="m -2.0681048,-0.78954302 c 0,0.40781201 0.201535,0.81799502 0.654396,0.81799502 0.45049003,0 0.65439603,-0.41018301 0.65439603,-0.81799502 0,-0.40781198 -0.203906,-0.81562398 -0.65439603,-0.81562398 -0.452861,0 -0.654396,0.407812 -0.654396,0.81562398 z m 0.964997,0 c 0,0.29163301 -0.085356,0.51924901 -0.310601,0.51924901 -0.227616,0 -0.312972,-0.227616 -0.312972,-0.51924901 0,-0.29163298 0.085356,-0.51687798 0.312972,-0.51687798 0.225245,0 0.310601,0.225245 0.310601,0.51687798 z" />
        <path
           id="path20"
           style="font-weight:bold;font-size:2.37100005px;font-family:'Proxima Nova';dominant-baseline:alphabetic;text-anchor:middle;fill:#0044cc"
           d="M -0.60960638,-0.44574801 H 0.65413664 V -0.70181602 H -0.60960638 Z" />
        <path
           id="path22"
           style="font-weight:bold;font-size:2.37100005px;font-family:'Proxima Nova';dominant-baseline:alphabetic;text-anchor:middle;fill:#0044cc"
           d="M 0.83848186,0 H 2.0287239 v -0.29637501 h -0.644912 c 0.410183,-0.298746 0.633057,-0.53347501 0.633057,-0.80376899 0,-0.315343 -0.267923,-0.505023 -0.604605,-0.505023 -0.220503,0 -0.45523204,0.080614 -0.60934704,0.258439 l 0.192051,0.222874 C 1.1016629,-1.235291 1.2391809,-1.306421 1.4193769,-1.306421 c 0.130405,0 0.256068,0.068759 0.256068,0.206277 0,0.19442198 -0.18968,0.35802098 -0.83696304,0.83459199 z" />
      </g>
    </g>
    <path
       id="circle6"
       d="M 2.5,0 A 2.5,2.5 0 0 1 0,2.5 2.5,2.5 0 0 1 -2.5,0 2.5,2.5 0 0 1 0,-2.5 2.5,2.5 0 0 1 2.5,0 Z"
       style="fill:#0044cc;stroke:#0044cc;stroke-width:1" />
  </g>
</svg>
