<?xml version="1.0" encoding="UTF-8" standalone="no"?>
<svg
   xmlns:dc="http://purl.org/dc/elements/1.1/"
   xmlns:cc="http://creativecommons.org/ns#"
   xmlns:rdf="http://www.w3.org/1999/02/22-rdf-syntax-ns#"
   xmlns:svg="http://www.w3.org/2000/svg"
   xmlns="http://www.w3.org/2000/svg"
   id="svg14"
   viewBox="0 0 8.000 11.161"
   height="11.161mm"
   width="8.000mm"
   version="1.1">
  <metadata
     id="metadata20">
    <rdf:RDF>
      <cc:Work
         rdf:about="">
        <dc:format>image/svg+xml</dc:format>
        <dc:type
           rdf:resource="http://purl.org/dc/dcmitype/StillImage" />
      </cc:Work>
    </rdf:RDF>
  </metadata>
  <defs
     id="defs18" />
  <g
     id="g12"
     transform="translate(4,5.58)">
    <g
       id="g4"
       transform="translate(0,-4)">
      <g
         id="text2"
         style="font-weight:bold;font-size:2.37100005px;font-family:'Proxima Nova';dominant-baseline:alphabetic;text-anchor:middle;fill:#0044cc"
         aria-label="±10">
        <path
           id="path22"
           style="font-weight:bold;font-size:2.37100005px;font-family:'Proxima Nova';dominant-baseline:alphabetic;text-anchor:middle;fill:#0044cc"
           d="m -1.1157963,-0.77294602 h 0.42440898 v -0.184938 H -1.1157963 V -1.424971 h -0.206277 v 0.46708698 h -0.42678 v 0.184938 h 0.42678 v 0.48368401 h 0.206277 z M -1.7488533,0 h 1.05746598 V -0.184938 H -1.7488533 Z" />
        <path
           id="path24"
           style="font-weight:bold;font-size:2.37100005px;font-family:'Proxima Nova';dominant-baseline:alphabetic;text-anchor:middle;fill:#0044cc"
           d="m -0.14390858,0 h 0.33905301 v -1.581457 h -0.29400401 l -0.49791001,0.500281 0.192051,0.20153498 0.26081001,-0.26792298 z" />
        <path
           id="path26"
           style="font-weight:bold;font-size:2.37100005px;font-family:'Proxima Nova';dominant-baseline:alphabetic;text-anchor:middle;fill:#0044cc"
           d="m 0.43024395,-0.78954302 c 0,0.40781201 0.201535,0.81799502 0.65439605,0.81799502 0.45049,0 0.654396,-0.41018301 0.654396,-0.81799502 0,-0.40781198 -0.203906,-0.81562398 -0.654396,-0.81562398 -0.45286105,0 -0.65439605,0.407812 -0.65439605,0.81562398 z m 0.96499705,0 c 0,0.29163301 -0.085356,0.51924901 -0.310601,0.51924901 -0.22761604,0 -0.31297205,-0.227616 -0.31297205,-0.51924901 0,-0.29163298 0.085356,-0.51687798 0.31297205,-0.51687798 0.225245,0 0.310601,0.225245 0.310601,0.51687798 z" />
      </g>
    </g>
    <path
       id="circle6"
       d="M 2.5,0 A 2.5,2.5 0 0 1 0,2.5 2.5,2.5 0 0 1 -2.5,0 2.5,2.5 0 0 1 0,-2.5 2.5,2.5 0 0 1 2.5,0 Z"
       style="fill:#0044cc;stroke:#0044cc;stroke-width:1" />
    <path
       id="line8"
       d="m -0.75,0 h 1.5"
       style="stroke:#faf7f0;stroke-width:0.49000001;stroke-linecap:round" />
    <path
       id="line10"
       d="m 0,-0.75 v 1.5"
       style="stroke:#faf7f0;stroke-width:0.49000001;stroke-linecap:round" />
  </g>
</svg>
