<?xml version="1.0" encoding="UTF-8" standalone="no"?>
<svg
   xmlns:dc="http://purl.org/dc/elements/1.1/"
   xmlns:cc="http://creativecommons.org/ns#"
   xmlns:rdf="http://www.w3.org/1999/02/22-rdf-syntax-ns#"
   xmlns:svg="http://www.w3.org/2000/svg"
   xmlns="http://www.w3.org/2000/svg"
   id="svg14"
   viewBox="0 0 8.000 11.161"
   height="11.161mm"
   width="8.000mm"
   version="1.1">
  <metadata
     id="metadata20">
    <rdf:RDF>
      <cc:Work
         rdf:about="">
        <dc:format>image/svg+xml</dc:format>
        <dc:type
           rdf:resource="http://purl.org/dc/dcmitype/StillImage" />
      </cc:Work>
    </rdf:RDF>
  </metadata>
  <defs
     id="defs18" />
  <g
     id="g12"
     transform="translate(4,5.58)">
    <g
       id="g4"
       transform="translate(0,-4)">
      <g
         id="text2"
         style="font-weight:bold;font-size:2.37100005px;font-family:'Proxima Nova';dominant-baseline:alphabetic;text-anchor:middle;fill:#0044cc"
         aria-label="±2">
        <path
           id="path22"
           style="font-weight:bold;font-size:2.37100005px;font-family:'Proxima Nova';dominant-baseline:alphabetic;text-anchor:middle;fill:#0044cc"
           d="m -0.60640179,-0.77294602 h 0.42440901 v -0.184938 H -0.60640179 V -1.424971 h -0.206277 v 0.46708698 H -1.2394588 v 0.184938 h 0.42678001 v 0.48368401 h 0.206277 z M -1.2394588,0 h 1.05746602 V -0.184938 H -1.2394588 Z" />
        <path
           id="path24"
           style="font-weight:bold;font-size:2.37100005px;font-family:'Proxima Nova';dominant-baseline:alphabetic;text-anchor:middle;fill:#0044cc"
           d="M -0.00201905,0 H 1.188223 V -0.29637501 H 0.52908497 c 0.424409,-0.298746 0.64728303,-0.53347501 0.64728303,-0.80376899 0,-0.315343 -0.26792303,-0.505023 -0.60460503,-0.505023 -0.22050301,0 -0.45523201,0.080614 -0.60934702,0.258439 l 0.19205101,0.222874 c 0.106695,-0.111437 0.244213,-0.182567 0.42203801,-0.182567 0.132776,0 0.258439,0.068759 0.258439,0.206277 0,0.19442198 -0.18968,0.35802098 -0.83696302,0.83459199 z" />
      </g>
    </g>
    <path
       id="circle6"
       d="M 2.5,0 A 2.5,2.5 0 0 1 0,2.5 2.5,2.5 0 0 1 -2.5,0 2.5,2.5 0 0 1 0,-2.5 2.5,2.5 0 0 1 2.5,0 Z"
       style="fill:#0044cc;stroke:#0044cc;stroke-width:1" />
    <path
       id="line8"
       d="m -0.75,0 h 1.5"
       style="stroke:#faf7f0;stroke-width:0.49000001;stroke-linecap:round" />
    <path
       id="line10"
       d="m 0,-0.75 v 1.5"
       style="stroke:#faf7f0;stroke-width:0.49000001;stroke-linecap:round" />
  </g>
</svg>
