<?xml version="1.0" encoding="UTF-8" standalone="no"?>
<svg
   xmlns:dc="http://purl.org/dc/elements/1.1/"
   xmlns:cc="http://creativecommons.org/ns#"
   xmlns:rdf="http://www.w3.org/1999/02/22-rdf-syntax-ns#"
   xmlns:svg="http://www.w3.org/2000/svg"
   xmlns="http://www.w3.org/2000/svg"
   id="svg10"
   viewBox="0 0 6.000 11.161"
   height="11.161mm"
   width="6.000mm"
   version="1.1">
  <metadata
     id="metadata16">
    <rdf:RDF>
      <cc:Work
         rdf:about="">
        <dc:format>image/svg+xml</dc:format>
        <dc:type
           rdf:resource="http://purl.org/dc/dcmitype/StillImage" />
      </cc:Work>
    </rdf:RDF>
  </metadata>
  <defs
     id="defs14" />
  <g
     id="g8"
     transform="translate(3,5.58)">
    <g
       id="g4"
       transform="translate(0,-4)">
      <g
         id="text2"
         style="font-weight:bold;font-size:2.37100005px;font-family:'Proxima Nova';dominant-baseline:alphabetic;text-anchor:middle;fill:#0044cc"
         aria-label="0–1">
        <path
           id="path18"
           style="font-weight:bold;font-size:2.37100005px;font-family:'Proxima Nova';dominant-baseline:alphabetic;text-anchor:middle;fill:#0044cc"
           d="m -1.8435081,-0.78954302 c 0,0.40781201 0.201535,0.81799502 0.654396,0.81799502 0.45049001,0 0.65439602,-0.41018301 0.65439602,-0.81799502 0,-0.40781198 -0.20390601,-0.81562398 -0.65439602,-0.81562398 -0.452861,0 -0.654396,0.407812 -0.654396,0.81562398 z m 0.96499701,0 c 0,0.29163301 -0.085356,0.51924901 -0.31060101,0.51924901 -0.227616,0 -0.312972,-0.227616 -0.312972,-0.51924901 0,-0.29163298 0.085356,-0.51687798 0.312972,-0.51687798 0.22524501,0 0.31060101,0.225245 0.31060101,0.51687798 z" />
        <path
           id="path20"
           style="font-weight:bold;font-size:2.37100005px;font-family:'Proxima Nova';dominant-baseline:alphabetic;text-anchor:middle;fill:#0044cc"
           d="M -0.3850097,-0.44574801 H 0.87873333 V -0.70181602 H -0.3850097 Z" />
        <path
           id="path22"
           style="font-weight:bold;font-size:2.37100005px;font-family:'Proxima Nova';dominant-baseline:alphabetic;text-anchor:middle;fill:#0044cc"
           d="m 1.4329546,0 h 0.336682 V -1.581457 H 1.4756326 L 0.97772254,-1.081176 1.1697735,-0.87964102 1.4329546,-1.147564 Z" />
      </g>
    </g>
    <path
       id="circle6"
       d="M 2.5,0 A 2.5,2.5 0 0 1 0,2.5 2.5,2.5 0 0 1 -2.5,0 2.5,2.5 0 0 1 0,-2.5 2.5,2.5 0 0 1 2.5,0 Z"
       style="fill:#0044cc;stroke:#0044cc;stroke-width:1" />
  </g>
</svg>
