<?xml version="1.0" encoding="UTF-8" standalone="no"?>
<svg
   xmlns:dc="http://purl.org/dc/elements/1.1/"
   xmlns:cc="http://creativecommons.org/ns#"
   xmlns:rdf="http://www.w3.org/1999/02/22-rdf-syntax-ns#"
   xmlns:svg="http://www.w3.org/2000/svg"
   xmlns="http://www.w3.org/2000/svg"
   id="svg8"
   viewBox="0 0 9.000 3.580"
   height="3.580mm"
   width="9.000mm"
   version="1.1">
  <metadata
     id="metadata14">
    <rdf:RDF>
      <cc:Work
         rdf:about="">
        <dc:format>image/svg+xml</dc:format>
        <dc:type
           rdf:resource="http://purl.org/dc/dcmitype/StillImage" />
      </cc:Work>
    </rdf:RDF>
  </metadata>
  <defs
     id="defs12" />
  <g
     id="g6"
     transform="translate(4.5,1.79)">
    <path
       d="m -4,-1.79 h 8 c 0.277,0 0.5,0.223 0.5,0.5 v 2.58 c 0,0.277 -0.223,0.5 -0.5,0.5 h -8 c -0.277,0 -0.5,-0.223 -0.5,-0.5 v -2.58 c 0,-0.277 0.223,-0.5 0.5,-0.5 z"
       style="fill:#efedeb;stroke:#331a00;stroke-width:0.25"
       id="rect2" />
    <g
       style="font-weight:bold;font-size:2.371px;font-family:'Proxima Nova';dominant-baseline:middle;text-anchor:middle;fill:#331a00"
       id="text4"
       aria-label="AUX">
      <path
         id="path17"
         style="font-weight:bold;font-size:2.371px;font-family:'Proxima Nova';dominant-baseline:middle;text-anchor:middle;fill:#331a00"
         d="m -1.1628273,0.8565965 h 0.36750497 L -1.4046693,-0.72486053 h -0.4220381 l -0.611718,1.58145703 h 0.369876 l 0.099582,-0.27266501 h 0.7065581 z m -0.452861,-1.28982403 0.26081,0.72552602 h -0.5239911 z" />
      <path
         id="path19"
         style="font-weight:bold;font-size:2.371px;font-family:'Proxima Nova';dominant-baseline:middle;text-anchor:middle;fill:#331a00"
         d="m -0.72800813,0.22591049 c 0,0.388844 0.225245,0.65913801 0.70892901,0.65913801 0.47894201,0 0.70418702,-0.26792301 0.70418702,-0.66150901 V -0.72486053 H 0.34368389 v 0.93891602 c 0,0.220503 -0.120921,0.372247 -0.36276301,0.372247 -0.246584,0 -0.367505,-0.151744 -0.367505,-0.372247 v -0.93891602 h -0.34142401 z" />
      <path
         id="path21"
         style="font-weight:bold;font-size:2.371px;font-family:'Proxima Nova';dominant-baseline:middle;text-anchor:middle;fill:#331a00"
         d="m 2.0306874,0.8565965 h 0.40307 l -0.573782,-0.81325302 0.538217,-0.76820401 h -0.405441 l -0.358021,0.54058801 -0.362763,-0.54058801 h -0.400699 l 0.538217,0.77057501 -0.573782,0.81088202 h 0.400699 l 0.398328,-0.57852401 z" />
    </g>
  </g>
</svg>
