<?xml version="1.0" encoding="UTF-8" standalone="no"?>
<svg
   xmlns:dc="http://purl.org/dc/elements/1.1/"
   xmlns:cc="http://creativecommons.org/ns#"
   xmlns:rdf="http://www.w3.org/1999/02/22-rdf-syntax-ns#"
   xmlns:svg="http://www.w3.org/2000/svg"
   xmlns="http://www.w3.org/2000/svg"
   id="svg350"
   height="379.429"
   width="165.000"
   version="1.1">
  <metadata
     id="metadata356">
    <rdf:RDF>
      <cc:Work
         rdf:about="">
        <dc:format>image/svg+xml</dc:format>
        <dc:type
           rdf:resource="http://purl.org/dc/dcmitype/StillImage" />
      </cc:Work>
    </rdf:RDF>
  </metadata>
  <defs
     id="defs354" />
  <g
     id="g348"
     transform="scale(2.953)">
    <path
       id="rect2"
       d="M 0,0 H 55.880001 V 128.5 H 0 Z"
       style="fill:#f7f2fc;stroke:#7f00ff;stroke-width:1" />
    <g
       id="g6"
       transform="translate(27.94,9)">
      <g
         id="text4"
         style="font-weight:bold;font-size:4.06400013px;font-family:'Proxima Nova';dominant-baseline:alphabetic;text-anchor:middle;fill:#7f00ff"
         aria-label="BLOSSOM">
        <path
           id="path359"
           style="font-weight:bold;font-size:4.06400013px;font-family:'Proxima Nova';dominant-baseline:alphabetic;text-anchor:middle;fill:#7f00ff"
           d="m -9.37187,0 h 1.471168 c 0.516128,0 0.788416,-0.32512001 0.788416,-0.73152002 0,-0.34137598 -0.231648,-0.62179198 -0.520192,-0.66649598 0.256032,-0.052832 0.46736,-0.2804161 0.46736,-0.6217921 0,-0.361696 -0.26416,-0.69088 -0.780288,-0.69088 H -9.37187 Z m 0.577088,-1.6256001 v -0.58928 h 0.723392 c 0.195072,0 0.316992,0.125984 0.316992,0.296672 0,0.170688 -0.12192,0.292608 -0.316992,0.292608 z m 0,1.12572808 V -1.129792 h 0.743712 c 0.227584,0 0.349504,0.14630397 0.349504,0.31699197 0,0.19507201 -0.130048,0.31292801 -0.349504,0.31292801 z" />
        <path
           id="path361"
           style="font-weight:bold;font-size:4.06400013px;font-family:'Proxima Nova';dominant-baseline:alphabetic;text-anchor:middle;fill:#7f00ff"
           d="m -6.6810575,0 h 1.7231361 v -0.50800002 h -1.146048 V -2.7106881 h -0.5770881 z" />
        <path
           id="path363"
           style="font-weight:bold;font-size:4.06400013px;font-family:'Proxima Nova';dominant-baseline:alphabetic;text-anchor:middle;fill:#7f00ff"
           d="m -4.7949803,-1.353312 c 0,0.81686398 0.5974081,1.40208 1.4142721,1.40208 0.820928,0 1.418336,-0.58521602 1.418336,-1.40208 0,-0.8168641 -0.597408,-1.4020801 -1.418336,-1.4020801 -0.816864,0 -1.4142721,0.585216 -1.4142721,1.4020801 z m 2.2392641,0 c 0,0.50393597 -0.32512,0.89001599 -0.824992,0.89001599 -0.499872,0 -0.820928,-0.38608002 -0.820928,-0.89001599 0,-0.5080001 0.321056,-0.8900161 0.820928,-0.8900161 0.499872,0 0.824992,0.382016 0.824992,0.8900161 z" />
        <path
           id="path365"
           style="font-weight:bold;font-size:4.06400013px;font-family:'Proxima Nova';dominant-baseline:alphabetic;text-anchor:middle;fill:#7f00ff"
           d="m -1.7363125,-0.38201601 c 0.251968,0.25603201 0.625856,0.43078401 1.14604806,0.43078401 0.73152002,0 1.08508803,-0.37388801 1.08508803,-0.86969603 0,-0.61366397 -0.56896002,-0.74777607 -1.01600003,-0.85344007 -0.29260801,-0.069088 -0.54051206,-0.125984 -0.54051206,-0.300736 0,-0.16256 0.13817605,-0.272288 0.38608006,-0.272288 0.276352,0 0.56896001,0.093472 0.78841602,0.296672 l 0.32105601,-0.422656 c -0.26822401,-0.247904 -0.62585602,-0.377952 -1.05664003,-0.377952 -0.63804806,0 -1.02819206,0.373888 -1.02819206,0.824992 0,0.6177281 0.56896,0.7396481 1.01193606,0.8412481 0.29667201,0.073152 0.54864001,0.13004797 0.54864001,0.32918398 0,0.154432 -0.154432,0.30073601 -0.47142401,0.30073601 -0.37388801,0 -0.67056006,-0.16662401 -0.86156806,-0.36576002 z" />
        <path
           id="path367"
           style="font-weight:bold;font-size:4.06400013px;font-family:'Proxima Nova';dominant-baseline:alphabetic;text-anchor:middle;fill:#7f00ff"
           d="M 0.70049992,-0.38201601 C 0.95246793,-0.125984 1.3263559,0.048768 1.846548,0.048768 c 0.73152,0 1.085088,-0.37388801 1.085088,-0.86969603 0,-0.61366397 -0.56896,-0.74777607 -1.016,-0.85344007 -0.292608,-0.069088 -0.5405121,-0.125984 -0.5405121,-0.300736 0,-0.16256 0.138176,-0.272288 0.3860801,-0.272288 0.276352,0 0.56896,0.093472 0.788416,0.296672 l 0.321056,-0.422656 c -0.268224,-0.247904 -0.625856,-0.377952 -1.05664,-0.377952 -0.6380481,0 -1.02819208,0.373888 -1.02819208,0.824992 0,0.6177281 0.56895998,0.7396481 1.01193608,0.8412481 0.296672,0.073152 0.54864,0.13004797 0.54864,0.32918398 0,0.154432 -0.154432,0.30073601 -0.471424,0.30073601 -0.3738881,0 -0.6705601,-0.16662401 -0.8615681,-0.36576002 z" />
        <path
           id="path369"
           style="font-weight:bold;font-size:4.06400013px;font-family:'Proxima Nova';dominant-baseline:alphabetic;text-anchor:middle;fill:#7f00ff"
           d="m 3.1901443,-1.353312 c 0,0.81686398 0.597408,1.40208 1.4142721,1.40208 0.820928,0 1.418336,-0.58521602 1.418336,-1.40208 0,-0.8168641 -0.597408,-1.4020801 -1.418336,-1.4020801 -0.8168641,0 -1.4142721,0.585216 -1.4142721,1.4020801 z m 2.2392641,0 c 0,0.50393597 -0.32512,0.89001599 -0.824992,0.89001599 -0.499872,0 -0.8209281,-0.38608002 -0.8209281,-0.89001599 0,-0.5080001 0.3210561,-0.8900161 0.8209281,-0.8900161 0.499872,0 0.824992,0.382016 0.824992,0.8900161 z" />
        <path
           id="path371"
           style="font-weight:bold;font-size:4.06400013px;font-family:'Proxima Nova';dominant-baseline:alphabetic;text-anchor:middle;fill:#7f00ff"
           d="M 8.7888131,0 H 9.3699652 V -2.7106881 H 8.5571651 L 7.8987971,-1.072896 7.2404291,-2.7106881 H 6.4316931 V 0 h 0.577088 V -1.8978881 L 7.7728131,0 h 0.251968 l 0.764032,-1.8978881 z" />
      </g>
    </g>
    <g
       id="g10"
       transform="translate(27.94,119.5)">
      <g
         id="text8"
         style="font-weight:bold;font-size:4.06400013px;font-family:'Proxima Nova';dominant-baseline:hanging;text-anchor:middle;fill:#7f00ff"
         aria-label="DHE">
        <path
           id="path374"
           style="font-weight:bold;font-size:4.06400013px;font-family:'Proxima Nova';dominant-baseline:hanging;text-anchor:middle;fill:#7f00ff"
           d="m -3.8632449,2.5684481 h 1.0688321 c 0.849376,0 1.438656,-0.5364481 1.438656,-1.3533121 0,-0.816864 -0.58928,-1.35737602 -1.438656,-1.35737602 h -1.0688321 z m 0.577088,-0.508 V 0.36576 h 0.4917441 c 0.556768,0 0.849376,0.36982401 0.849376,0.849376 0,0.459232 -0.312928,0.8453121 -0.849376,0.8453121 z" />
        <path
           id="path376"
           style="font-weight:bold;font-size:4.06400013px;font-family:'Proxima Nova';dominant-baseline:hanging;text-anchor:middle;fill:#7f00ff"
           d="M 0.91500319,2.5684481 H 1.4961552 V -0.14224002 H 0.91500319 V 0.92252801 H -0.36515685 V -0.14224002 H -0.94224487 V 2.5684481 h 0.57708802 V 1.430528 h 1.28016004 z" />
        <path
           id="path378"
           style="font-weight:bold;font-size:4.06400013px;font-family:'Proxima Nova';dominant-baseline:hanging;text-anchor:middle;fill:#7f00ff"
           d="m 2.0263802,2.5684481 h 1.9182081 v -0.508 H 2.6034682 V 1.446784 H 3.9161403 V 0.93878401 H 2.6034682 V 0.36576 H 3.9445883 V -0.14224002 H 2.0263802 Z" />
      </g>
    </g>
    <path
       id="line12"
       d="M 7.9829998,25 H 34.591999"
       style="stroke-width:0.34999999" />
    <g
       id="g16"
       transform="translate(7.983,19.8)">
      <g
         id="text14"
         style="font-weight:bold;font-size:3.0480001px;font-family:'Proxima Nova';dominant-baseline:alphabetic;text-anchor:middle;fill:#7f00ff"
         aria-label="cv">
        <path
           id="path382"
           style="font-weight:bold;font-size:3.0480001px;font-family:'Proxima Nova';dominant-baseline:alphabetic;text-anchor:middle;fill:#7f00ff"
           d="m -1.4443234,-0.73761602 c 0,0.45415201 0.326136,0.77419202 0.780288,0.77419202 0.30175201,0 0.48463202,-0.131064 0.58216802,-0.26822401 l -0.25298401,-0.234696 c -0.070104,0.097536 -0.176784,0.158496 -0.31089601,0.158496 -0.234696,0 -0.399288,-0.17373601 -0.399288,-0.42976801 0,-0.25603201 0.164592,-0.42671998 0.399288,-0.42671998 0.13411201,0 0.24079201,0.054864 0.31089601,0.158496 l 0.25298401,-0.237744 c -0.097536,-0.134112 -0.28041601,-0.265176 -0.58216802,-0.265176 -0.454152,0 -0.780288,0.32004 -0.780288,0.77114398 z" />
        <path
           id="path384"
           style="font-weight:bold;font-size:3.0480001px;font-family:'Proxima Nova';dominant-baseline:alphabetic;text-anchor:middle;fill:#7f00ff"
           d="M 0.54921157,0 H 0.96678758 L 1.5580996,-1.472184 H 1.1405236 L 0.75647558,-0.44805601 0.37242756,-1.472184 h -0.41452801 z" />
      </g>
    </g>
    <g
       id="g22"
       transform="translate(21.288,20.5)">
      <g
         id="text20"
         style="font-weight:bold;font-size:3.0480001px;font-family:'Proxima Nova';dominant-baseline:alphabetic;text-anchor:middle;fill:#7f00ff"
         aria-label="-  +">
        <path
           id="path387"
           style="font-size:larger"
           d="m -2.2977159,-0.68762883 h 0.8778241 V -1.0826496 h -0.8778241 z" />
        <path
           id="path389"
           style="font-size:larger"
           d="M 1.6470061,-1.0899648 H 2.3017165 V -1.3789153 H 1.6470061 v -0.713232 H 1.3287949 v 0.713232 H 0.67042687 v 0.2889505 H 1.3287949 v 0.74249278 h 0.3182112 z" />
      </g>
    </g>
    <g
       id="g26"
       transform="translate(34.592,17.65)">
      <g
         id="text24"
         style="font-weight:bold;font-size:3.0480001px;font-family:'Proxima Nova';dominant-baseline:alphabetic;text-anchor:middle;fill:#7f00ff"
         aria-label="SPIN">
        <path
           id="path392"
           style="font-weight:bold;font-size:3.0480001px;font-family:'Proxima Nova';dominant-baseline:alphabetic;text-anchor:middle;fill:#7f00ff"
           d="m -3.3262968,-0.28651201 c 0.188976,0.19202401 0.469392,0.32308801 0.859536,0.32308801 0.5486401,0 0.8138161,-0.28041601 0.8138161,-0.65227202 0,-0.46024798 -0.4267201,-0.56083198 -0.7620001,-0.64007998 -0.219456,-0.051816 -0.405384,-0.094488 -0.405384,-0.225552 0,-0.1219201 0.103632,-0.2042161 0.28956,-0.2042161 0.207264,0 0.42672,0.070104 0.5913121,0.2225041 l 0.240792,-0.3169921 c -0.201168,-0.185928 -0.4693921,-0.283464 -0.7924801,-0.283464 -0.478536,0 -0.771144,0.280416 -0.771144,0.6187441 0,0.46329597 0.42672,0.55473597 0.758952,0.63093597 0.222504,0.054864 0.41148,0.097536 0.41148,0.24688801 0,0.11582401 -0.115824,0.22555201 -0.353568,0.22555201 -0.280416,0 -0.50292,-0.124968 -0.646176,-0.27432001 z" />
        <path
           id="path394"
           style="font-weight:bold;font-size:3.0480001px;font-family:'Proxima Nova';dominant-baseline:alphabetic;text-anchor:middle;fill:#7f00ff"
           d="m -1.3615274,0 h 0.43281604 v -0.72237602 h 0.51816002 c 0.43891201,0 0.68275202,-0.30175198 0.68275202,-0.65531998 0,-0.3566161 -0.24079201,-0.6553201 -0.68275202,-0.6553201 H -1.3615274 Z m 1.19176807,-1.377696 c 0,0.16764 -0.12801601,0.27432 -0.29870401,0.27432 h -0.46024802 v -0.5486401 h 0.46024802 c 0.170688,0 0.29870401,0.1036321 0.29870401,0.2743201 z" />
        <path
           id="path396"
           style="font-weight:bold;font-size:3.0480001px;font-family:'Proxima Nova';dominant-baseline:alphabetic;text-anchor:middle;fill:#7f00ff"
           d="M 0.53751965,0 H 0.97033566 V -2.0330161 H 0.53751965 Z" />
        <path
           id="path398"
           style="font-weight:bold;font-size:3.0480001px;font-family:'Proxima Nova';dominant-baseline:alphabetic;text-anchor:middle;fill:#7f00ff"
           d="m 2.7730371,0 h 0.417576 v -2.0330161 h -0.432816 v 1.27711208 L 1.8159651,-2.0330161 H 1.3709571 V 0 h 0.432816 v -1.32588 z" />
      </g>
    </g>
    <path
       id="line28"
       d="M 7.9829998,43.5 H 47.896999"
       style="stroke-width:0.34999999" />
    <g
       id="g32"
       transform="translate(7.983,38.3)">
      <g
         id="text30"
         style="font-weight:bold;font-size:3.0480001px;font-family:'Proxima Nova';dominant-baseline:alphabetic;text-anchor:middle;fill:#7f00ff"
         aria-label="cv">
        <path
           id="path402"
           style="font-weight:bold;font-size:3.0480001px;font-family:'Proxima Nova';dominant-baseline:alphabetic;text-anchor:middle;fill:#7f00ff"
           d="m -1.4443234,-0.73761602 c 0,0.45415201 0.326136,0.77419202 0.780288,0.77419202 0.30175201,0 0.48463202,-0.131064 0.58216802,-0.26822401 l -0.25298401,-0.234696 c -0.070104,0.097536 -0.176784,0.158496 -0.31089601,0.158496 -0.234696,0 -0.399288,-0.17373601 -0.399288,-0.42976801 0,-0.25603201 0.164592,-0.42671998 0.399288,-0.42671998 0.13411201,0 0.24079201,0.054864 0.31089601,0.158496 l 0.25298401,-0.237744 c -0.097536,-0.134112 -0.28041601,-0.265176 -0.58216802,-0.265176 -0.454152,0 -0.780288,0.32004 -0.780288,0.77114398 z" />
        <path
           id="path404"
           style="font-weight:bold;font-size:3.0480001px;font-family:'Proxima Nova';dominant-baseline:alphabetic;text-anchor:middle;fill:#7f00ff"
           d="M 0.54921157,0 H 0.96678758 L 1.5580996,-1.472184 H 1.1405236 L 0.75647558,-0.44805601 0.37242756,-1.472184 h -0.41452801 z" />
      </g>
    </g>
    <g
       id="g38"
       transform="translate(21.288,39)">
      <g
         id="text36"
         style="font-weight:bold;font-size:3.0480001px;font-family:'Proxima Nova';dominant-baseline:alphabetic;text-anchor:middle;fill:#7f00ff"
         aria-label="-  +">
        <path
           id="path407"
           style="font-size:larger"
           d="m -2.2977159,-0.68762883 h 0.8778241 V -1.0826496 h -0.8778241 z" />
        <path
           id="path409"
           style="font-size:larger"
           d="M 1.6470061,-1.0899648 H 2.3017165 V -1.3789153 H 1.6470061 v -0.713232 H 1.3287949 v 0.713232 H 0.67042687 v 0.2889505 H 1.3287949 v 0.74249278 h 0.3182112 z" />
      </g>
    </g>
    <g
       id="g42"
       transform="translate(34.592,36.15)">
      <g
         id="text40"
         style="font-weight:bold;font-size:3.0480001px;font-family:'Proxima Nova';dominant-baseline:alphabetic;text-anchor:middle;fill:#7f00ff"
         aria-label="BOUNCE">
        <path
           id="path412"
           style="font-weight:bold;font-size:3.0480001px;font-family:'Proxima Nova';dominant-baseline:alphabetic;text-anchor:middle;fill:#7f00ff"
           d="m -6.1389103,0 h 1.103376 c 0.387096,0 0.591312,-0.24384001 0.591312,-0.54864002 0,-0.25603201 -0.173736,-0.46634398 -0.390144,-0.49987198 0.192024,-0.039624 0.35052,-0.210312 0.35052,-0.466344 0,-0.2712721 -0.19812,-0.5181601 -0.585216,-0.5181601 h -1.069848 z m 0.432816,-1.2192 v -0.4419601 h 0.542544 c 0.146304,0 0.237744,0.094488 0.237744,0.2225041 0,0.128016 -0.09144,0.219456 -0.237744,0.219456 z m 0,0.84429599 v -0.47244002 h 0.557784 c 0.170688,0 0.262128,0.10972801 0.262128,0.23774401 0,0.14630401 -0.097536,0.23469601 -0.262128,0.23469601 z" />
        <path
           id="path414"
           style="font-weight:bold;font-size:3.0480001px;font-family:'Proxima Nova';dominant-baseline:alphabetic;text-anchor:middle;fill:#7f00ff"
           d="m -4.218337,-1.014984 c 0,0.61264799 0.448056,1.05156 1.060704,1.05156 0.6156961,0 1.0637521,-0.43891201 1.0637521,-1.05156 0,-0.6126481 -0.448056,-1.0515601 -1.0637521,-1.0515601 -0.612648,0 -1.060704,0.438912 -1.060704,1.0515601 z m 1.6794481,0 c 0,0.37795198 -0.2438401,0.66751199 -0.6187441,0.66751199 -0.374904,0 -0.615696,-0.28956001 -0.615696,-0.66751199 0,-0.381 0.240792,-0.6675121 0.615696,-0.6675121 0.374904,0 0.6187441,0.2865121 0.6187441,0.6675121 z" />
        <path
           id="path416"
           style="font-weight:bold;font-size:3.0480001px;font-family:'Proxima Nova';dominant-baseline:alphabetic;text-anchor:middle;fill:#7f00ff"
           d="m -1.7871762,-0.81076803 c 0,0.49987202 0.298704,0.84734403 0.91744807,0.84734403 0.61874402,0 0.91744803,-0.34442401 0.91744803,-0.85039203 V -2.0330161 h -0.44196002 v 1.20700807 c 0,0.28346401 -0.161544,0.47853602 -0.47548801,0.47853602 -0.31394397,0 -0.47853597,-0.19507201 -0.47853597,-0.47853602 V -2.0330161 h -0.4389121 z" />
        <path
           id="path418"
           style="font-weight:bold;font-size:3.0480001px;font-family:'Proxima Nova';dominant-baseline:alphabetic;text-anchor:middle;fill:#7f00ff"
           d="m 1.8473258,0 h 0.417576 v -2.0330161 h -0.432816 v 1.27711208 L 0.89025373,-2.0330161 H 0.44524572 V 0 h 0.43281601 v -1.32588 z" />
        <path
           id="path420"
           style="font-weight:bold;font-size:3.0480001px;font-family:'Proxima Nova';dominant-baseline:alphabetic;text-anchor:middle;fill:#7f00ff"
           d="m 3.650266,0.036576 c 0.448056,0 0.704088,-0.24688801 0.850392,-0.49987201 L 4.128802,-0.64312802 c -0.085344,0.16764 -0.268224,0.29565601 -0.478536,0.29565601 -0.3688081,0 -0.6370321,-0.28346401 -0.6370321,-0.66751199 0,-0.384048 0.268224,-0.6675121 0.6370321,-0.6675121 0.210312,0 0.393192,0.1310641 0.478536,0.2956561 l 0.371856,-0.1828801 c -0.143256,-0.252984 -0.402336,-0.496824 -0.850392,-0.496824 -0.6096001,0 -1.0820401,0.42672 -1.0820401,1.0515601 0,0.62483999 0.47244,1.05156 1.0820401,1.05156 z" />
        <path
           id="path422"
           style="font-weight:bold;font-size:3.0480001px;font-family:'Proxima Nova';dominant-baseline:alphabetic;text-anchor:middle;fill:#7f00ff"
           d="M 4.7612619,0 H 6.199918 V -0.38100001 H 5.1940779 V -0.84124803 H 6.178582 V -1.222248 H 5.1940779 V -1.6520161 H 6.199918 v -0.381 H 4.7612619 Z" />
      </g>
    </g>
    <g
       id="g46"
       transform="translate(47.897,47.5)">
      <g
         id="text44"
         style="font-weight:bold;font-size:2.37100005px;font-family:'Proxima Nova';dominant-baseline:hanging;text-anchor:middle;fill:#7f00ff"
         aria-label="LOCK">
        <path
           id="path425"
           style="font-weight:bold;font-size:2.37100005px;font-family:'Proxima Nova';dominant-baseline:hanging;text-anchor:middle;fill:#7f00ff"
           d="m -2.909143,1.498472 h 1.0053041 V 1.202097 H -2.572461 v -1.28508206 h -0.336682 z" />
        <path
           id="path427"
           style="font-weight:bold;font-size:2.37100005px;font-family:'Proxima Nova';dominant-baseline:hanging;text-anchor:middle;fill:#7f00ff"
           d="m -1.8087767,0.70892896 c 0,0.47657104 0.348537,0.81799504 0.82510805,0.81799504 0.47894201,0 0.82747901,-0.341424 0.82747901,-0.81799504 0,-0.47657101 -0.348537,-0.81799502 -0.82747901,-0.81799502 -0.47657105,0 -0.82510805,0.34142401 -0.82510805,0.81799502 z m 1.30642106,0 c 0,0.29400404 -0.18968001,0.51924904 -0.48131301,0.51924904 -0.29163305,0 -0.47894205,-0.225245 -0.47894205,-0.51924904 0,-0.29637501 0.187309,-0.51924901 0.47894205,-0.51924901 0.291633,0 0.48131301,0.222874 0.48131301,0.51924901 z" />
        <path
           id="path429"
           style="font-weight:bold;font-size:2.37100005px;font-family:'Proxima Nova';dominant-baseline:hanging;text-anchor:middle;fill:#7f00ff"
           d="m 0.84822523,1.526924 c 0.34853697,0 0.54770097,-0.192051 0.66150897,-0.388844 L 1.2204722,0.99819096 C 1.1540842,1.128596 1.0118242,1.228178 0.84822523,1.228178 c -0.286891,0 -0.49553901,-0.220503 -0.49553901,-0.51924904 0,-0.29874601 0.20864801,-0.51924901 0.49553901,-0.51924901 0.16359897,0 0.30585897,0.101953 0.37224697,0.229987 l 0.289262,-0.14226 c -0.111437,-0.19679301 -0.312972,-0.38647301 -0.66150897,-0.38647301 -0.47420001,0 -0.84170501,0.33194001 -0.84170501,0.81799502 0,0.48605504 0.367505,0.81799504 0.84170501,0.81799504 z" />
        <path
           id="path431"
           style="font-weight:bold;font-size:2.37100005px;font-family:'Proxima Nova';dominant-baseline:hanging;text-anchor:middle;fill:#7f00ff"
           d="m 2.6513708,1.498472 h 0.414925 L 2.3953028,0.65913796 3.0236178,-0.08298506 H 2.6086928 L 2.0491368,0.62357296 V -0.08298506 H 1.7124548 V 1.498472 h 0.336682 V 1.012417 l 0.123292,-0.14700204 z" />
      </g>
    </g>
    <g
       id="g50"
       transform="translate(47.897,39.5)">
      <g
         id="text48"
         style="font-weight:bold;font-size:2.37100005px;font-family:'Proxima Nova';dominant-baseline:alphabetic;text-anchor:middle;fill:#7f00ff"
         aria-label="FREE">
        <path
           id="path434"
           style="font-weight:bold;font-size:2.37100005px;font-family:'Proxima Nova';dominant-baseline:alphabetic;text-anchor:middle;fill:#7f00ff"
           d="m -2.6660228,0 h 0.336682 v -0.65439601 h 0.765833 v -0.29637501 h -0.765833 V -1.285082 h 0.78243 v -0.296375 h -1.119112 z" />
        <path
           id="path436"
           style="font-weight:bold;font-size:2.37100005px;font-family:'Proxima Nova';dominant-baseline:alphabetic;text-anchor:middle;fill:#7f00ff"
           d="m -0.41994483,0 h 0.38647301 l -0.35565001,-0.60223401 c 0.17071201,-0.040307 0.34616601,-0.18968001 0.34616601,-0.46945799 0,-0.294004 -0.20153501,-0.509765 -0.53110401,-0.509765 H -1.3138118 V 0 h 0.33668196 v -0.56192701 h 0.246584 z m 0.033194,-1.071692 c 0,0.13277598 -0.101953,0.21338998 -0.2371,0.21338998 H -0.97712984 V -1.285082 h 0.35327901 c 0.135147,0 0.2371,0.080614 0.2371,0.21339 z" />
        <path
           id="path438"
           style="font-weight:bold;font-size:2.37100005px;font-family:'Proxima Nova';dominant-baseline:alphabetic;text-anchor:middle;fill:#7f00ff"
           d="M 0.20974105,0 H 1.3288531 V -0.29637501 H 0.54642305 v -0.358021 H 1.3122561 V -0.95077102 H 0.54642305 V -1.285082 H 1.3288531 V -1.581457 H 0.20974105 Z" />
        <path
           id="path440"
           style="font-weight:bold;font-size:2.37100005px;font-family:'Proxima Nova';dominant-baseline:alphabetic;text-anchor:middle;fill:#7f00ff"
           d="m 1.5943679,0 h 1.119112 v -0.29637501 h -0.78243 v -0.358021 h 0.765833 V -0.95077102 H 1.9310499 V -1.285082 h 0.78243 v -0.296375 h -1.119112 z" />
      </g>
    </g>
    <path
       id="line52"
       d="M 7.9829998,62 H 34.591999"
       style="stroke-width:0.34999999" />
    <g
       id="g56"
       transform="translate(7.983,56.8)">
      <g
         id="text54"
         style="font-weight:bold;font-size:3.0480001px;font-family:'Proxima Nova';dominant-baseline:alphabetic;text-anchor:middle;fill:#7f00ff"
         aria-label="cv">
        <path
           id="path444"
           style="font-weight:bold;font-size:3.0480001px;font-family:'Proxima Nova';dominant-baseline:alphabetic;text-anchor:middle;fill:#7f00ff"
           d="m -1.4443234,-0.73761602 c 0,0.45415201 0.326136,0.77419202 0.780288,0.77419202 0.30175201,0 0.48463202,-0.131064 0.58216802,-0.26822401 l -0.25298401,-0.234696 c -0.070104,0.097536 -0.176784,0.158496 -0.31089601,0.158496 -0.234696,0 -0.399288,-0.17373601 -0.399288,-0.42976801 0,-0.25603201 0.164592,-0.42671998 0.399288,-0.42671998 0.13411201,0 0.24079201,0.054864 0.31089601,0.158496 l 0.25298401,-0.237744 c -0.097536,-0.134112 -0.28041601,-0.265176 -0.58216802,-0.265176 -0.454152,0 -0.780288,0.32004 -0.780288,0.77114398 z" />
        <path
           id="path446"
           style="font-weight:bold;font-size:3.0480001px;font-family:'Proxima Nova';dominant-baseline:alphabetic;text-anchor:middle;fill:#7f00ff"
           d="M 0.54921157,0 H 0.96678758 L 1.5580996,-1.472184 H 1.1405236 L 0.75647558,-0.44805601 0.37242756,-1.472184 h -0.41452801 z" />
      </g>
    </g>
    <g
       id="g62"
       transform="translate(21.288,57.5)">
      <g
         id="text60"
         style="font-weight:bold;font-size:3.0480001px;font-family:'Proxima Nova';dominant-baseline:alphabetic;text-anchor:middle;fill:#7f00ff"
         aria-label="-  +">
        <path
           id="path449"
           style="font-size:larger"
           d="m -2.2977159,-0.68762883 h 0.8778241 V -1.0826496 h -0.8778241 z" />
        <path
           id="path451"
           style="font-size:larger"
           d="M 1.6470061,-1.0899648 H 2.3017165 V -1.3789153 H 1.6470061 v -0.713232 H 1.3287949 v 0.713232 H 0.67042687 v 0.2889505 H 1.3287949 v 0.74249278 h 0.3182112 z" />
      </g>
    </g>
    <g
       id="g66"
       transform="translate(34.592,54.65)">
      <g
         id="text64"
         style="font-weight:bold;font-size:3.0480001px;font-family:'Proxima Nova';dominant-baseline:alphabetic;text-anchor:middle;fill:#7f00ff"
         aria-label="DEPTH">
        <path
           id="path454"
           style="font-weight:bold;font-size:3.0480001px;font-family:'Proxima Nova';dominant-baseline:alphabetic;text-anchor:middle;fill:#7f00ff"
           d="m -4.7339728,0 h 0.801624 c 0.6370321,0 1.0789921,-0.40233601 1.0789921,-1.014984 0,-0.6126481 -0.44196,-1.0180321 -1.0789921,-1.0180321 h -0.801624 z m 0.432816,-0.38100001 V -1.6520161 h 0.368808 c 0.4175761,0 0.6370321,0.2773681 0.6370321,0.6370321 0,0.34442398 -0.234696,0.63398399 -0.6370321,0.63398399 z" />
        <path
           id="path456"
           style="font-weight:bold;font-size:3.0480001px;font-family:'Proxima Nova';dominant-baseline:alphabetic;text-anchor:middle;fill:#7f00ff"
           d="m -2.5432227,0 h 1.4386561 v -0.38100001 h -1.00584 v -0.46024802 h 0.984504 V -1.222248 h -0.984504 v -0.4297681 h 1.00584 v -0.381 h -1.4386561 z" />
        <path
           id="path458"
           style="font-weight:bold;font-size:3.0480001px;font-family:'Proxima Nova';dominant-baseline:alphabetic;text-anchor:middle;fill:#7f00ff"
           d="m -0.76323818,0 h 0.43281601 v -0.72237602 h 0.51816002 c 0.43891201,0 0.68275202,-0.30175198 0.68275202,-0.65531998 0,-0.3566161 -0.24079201,-0.6553201 -0.68275202,-0.6553201 h -0.95097603 z m 1.19176804,-1.377696 c 0,0.16764 -0.12801601,0.27432 -0.29870401,0.27432 h -0.46024802 v -0.5486401 h 0.46024802 c 0.170688,0 0.29870401,0.1036321 0.29870401,0.2743201 z" />
        <path
           id="path460"
           style="font-weight:bold;font-size:3.0480001px;font-family:'Proxima Nova';dominant-baseline:alphabetic;text-anchor:middle;fill:#7f00ff"
           d="m 1.6052007,0 h 0.435864 v -1.6520161 h 0.5913121 v -0.381 H 1.0108407 v 0.381 h 0.59436 z" />
        <path
           id="path462"
           style="font-weight:bold;font-size:3.0480001px;font-family:'Proxima Nova';dominant-baseline:alphabetic;text-anchor:middle;fill:#7f00ff"
           d="m 4.3027759,0 h 0.435864 V -2.0330161 H 4.3027759 V -1.23444 h -0.96012 V -2.0330161 H 2.9098399 V 0 h 0.432816 v -0.85344003 h 0.96012 z" />
      </g>
    </g>
    <path
       id="line68"
       d="M 7.9829998,80.5 H 34.591999"
       style="stroke-width:0.34999999" />
    <g
       id="g72"
       transform="translate(7.983,75.3)">
      <g
         id="text70"
         style="font-weight:bold;font-size:3.0480001px;font-family:'Proxima Nova';dominant-baseline:alphabetic;text-anchor:middle;fill:#7f00ff"
         aria-label="cv">
        <path
           id="path466"
           style="font-weight:bold;font-size:3.0480001px;font-family:'Proxima Nova';dominant-baseline:alphabetic;text-anchor:middle;fill:#7f00ff"
           d="m -1.4443234,-0.73761602 c 0,0.45415201 0.326136,0.77419202 0.780288,0.77419202 0.30175201,0 0.48463202,-0.131064 0.58216802,-0.26822401 l -0.25298401,-0.234696 c -0.070104,0.097536 -0.176784,0.158496 -0.31089601,0.158496 -0.234696,0 -0.399288,-0.17373601 -0.399288,-0.42976801 0,-0.25603201 0.164592,-0.42671998 0.399288,-0.42671998 0.13411201,0 0.24079201,0.054864 0.31089601,0.158496 l 0.25298401,-0.237744 c -0.097536,-0.134112 -0.28041601,-0.265176 -0.58216802,-0.265176 -0.454152,0 -0.780288,0.32004 -0.780288,0.77114398 z" />
        <path
           id="path468"
           style="font-weight:bold;font-size:3.0480001px;font-family:'Proxima Nova';dominant-baseline:alphabetic;text-anchor:middle;fill:#7f00ff"
           d="M 0.54921157,0 H 0.96678758 L 1.5580996,-1.472184 H 1.1405236 L 0.75647558,-0.44805601 0.37242756,-1.472184 h -0.41452801 z" />
      </g>
    </g>
    <g
       id="g78"
       transform="translate(21.288,76)">
      <g
         id="text76"
         style="font-weight:bold;font-size:3.0480001px;font-family:'Proxima Nova';dominant-baseline:alphabetic;text-anchor:middle;fill:#7f00ff"
         aria-label="-  +">
        <path
           id="path471"
           style="font-size:larger"
           d="m -2.2977159,-0.68762883 h 0.8778241 V -1.0826496 h -0.8778241 z" />
        <path
           id="path473"
           style="font-size:larger"
           d="M 1.6470061,-1.0899648 H 2.3017165 V -1.3789153 H 1.6470061 v -0.713232 H 1.3287949 v 0.713232 H 0.67042687 v 0.2889505 H 1.3287949 v 0.74249278 h 0.3182112 z" />
      </g>
    </g>
    <g
       id="g82"
       transform="translate(34.592,73.15)">
      <g
         id="text80"
         style="font-weight:bold;font-size:3.0480001px;font-family:'Proxima Nova';dominant-baseline:alphabetic;text-anchor:middle;fill:#7f00ff"
         aria-label="PHASE">
        <path
           id="path476"
           style="font-weight:bold;font-size:3.0480001px;font-family:'Proxima Nova';dominant-baseline:alphabetic;text-anchor:middle;fill:#7f00ff"
           d="m -4.6952775,0 h 0.4328161 v -0.72237602 h 0.51816 c 0.438912,0 0.682752,-0.30175198 0.682752,-0.65531998 0,-0.3566161 -0.240792,-0.6553201 -0.682752,-0.6553201 h -0.9509761 z m 1.1917681,-1.377696 c 0,0.16764 -0.128016,0.27432 -0.298704,0.27432 h -0.460248 v -0.5486401 h 0.460248 c 0.170688,0 0.298704,0.1036321 0.298704,0.2743201 z" />
        <path
           id="path478"
           style="font-weight:bold;font-size:3.0480001px;font-family:'Proxima Nova';dominant-baseline:alphabetic;text-anchor:middle;fill:#7f00ff"
           d="m -1.4032945,0 h 0.43586399 V -2.0330161 H -1.4032945 V -1.23444 h -0.9601201 v -0.7985761 h -0.432816 V 0 h 0.432816 v -0.85344003 h 0.9601201 z" />
        <path
           id="path480"
           style="font-weight:bold;font-size:3.0480001px;font-family:'Proxima Nova';dominant-baseline:alphabetic;text-anchor:middle;fill:#7f00ff"
           d="M 0.83231852,0 H 1.3260945 L 0.54275851,-2.0330161 H 2.1449365e-4 L -0.78616953,0 h 0.49377601 l 0.12801601,-0.34442401 H 0.70735052 Z M 0.2714865,-1.6002001 0.58847851,-0.72542402 h -0.63398402 z" />
        <path
           id="path482"
           style="font-weight:bold;font-size:3.0480001px;font-family:'Proxima Nova';dominant-baseline:alphabetic;text-anchor:middle;fill:#7f00ff"
           d="M 1.3528595,-0.28651201 C 1.5418356,-0.094488 1.8222516,0.036576 2.2123956,0.036576 c 0.54864,0 0.813816,-0.28041601 0.813816,-0.65227202 0,-0.46024798 -0.42672,-0.56083198 -0.762,-0.64007998 -0.219456,-0.051816 -0.405384,-0.094488 -0.405384,-0.225552 0,-0.1219201 0.103632,-0.2042161 0.28956,-0.2042161 0.207264,0 0.42672,0.070104 0.591312,0.2225041 l 0.240792,-0.3169921 c -0.201168,-0.185928 -0.469392,-0.283464 -0.79248,-0.283464 -0.478536,0 -0.7711441,0.280416 -0.7711441,0.6187441 0,0.46329597 0.4267201,0.55473597 0.7589521,0.63093597 0.222504,0.054864 0.41148,0.097536 0.41148,0.24688801 0,0.11582401 -0.115824,0.22555201 -0.353568,0.22555201 -0.280416,0 -0.50292,-0.124968 -0.646176,-0.27432001 z" />
        <path
           id="path484"
           style="font-weight:bold;font-size:3.0480001px;font-family:'Proxima Nova';dominant-baseline:alphabetic;text-anchor:middle;fill:#7f00ff"
           d="M 3.3176286,0 H 4.7562847 V -0.38100001 H 3.7504446 V -0.84124803 H 4.7349487 V -1.222248 H 3.7504446 v -0.4297681 h 1.0058401 v -0.381 H 3.3176286 Z" />
      </g>
    </g>
    <path
       id="line84"
       d="M 7.9829998,97 H 47.896999"
       style="stroke-width:0.34999999" />
    <g
       id="g88"
       transform="translate(7.983,91.8)">
      <g
         id="text86"
         style="font-weight:bold;font-size:3.0480001px;font-family:'Proxima Nova';dominant-baseline:alphabetic;text-anchor:middle;fill:#7f00ff"
         aria-label="cv">
        <path
           id="path488"
           style="font-weight:bold;font-size:3.0480001px;font-family:'Proxima Nova';dominant-baseline:alphabetic;text-anchor:middle;fill:#7f00ff"
           d="m -1.4443234,-0.73761602 c 0,0.45415201 0.326136,0.77419202 0.780288,0.77419202 0.30175201,0 0.48463202,-0.131064 0.58216802,-0.26822401 l -0.25298401,-0.234696 c -0.070104,0.097536 -0.176784,0.158496 -0.31089601,0.158496 -0.234696,0 -0.399288,-0.17373601 -0.399288,-0.42976801 0,-0.25603201 0.164592,-0.42671998 0.399288,-0.42671998 0.13411201,0 0.24079201,0.054864 0.31089601,0.158496 l 0.25298401,-0.237744 c -0.097536,-0.134112 -0.28041601,-0.265176 -0.58216802,-0.265176 -0.454152,0 -0.780288,0.32004 -0.780288,0.77114398 z" />
        <path
           id="path490"
           style="font-weight:bold;font-size:3.0480001px;font-family:'Proxima Nova';dominant-baseline:alphabetic;text-anchor:middle;fill:#7f00ff"
           d="M 0.54921157,0 H 0.96678758 L 1.5580996,-1.472184 H 1.1405236 L 0.75647558,-0.44805601 0.37242756,-1.472184 h -0.41452801 z" />
      </g>
    </g>
    <g
       id="g92"
       transform="translate(21.288,91.8)">
      <g
         id="text90"
         style="font-weight:bold;font-size:2.37100005px;font-family:'Proxima Nova';dominant-baseline:alphabetic;text-anchor:middle;fill:#7f00ff"
         aria-label="GAIN">
        <path
           id="path493"
           style="font-weight:bold;font-size:2.37100005px;font-family:'Proxima Nova';dominant-baseline:alphabetic;text-anchor:middle;fill:#7f00ff"
           d="m -2.7627337,-0.78954302 c 0,0.49791001 0.37936,0.82036602 0.841705,0.82036602 0.286891,0 0.512136,-0.11855 0.673364,-0.29874601 v -0.60697601 h -0.753978 v 0.29400401 h 0.417296 v 0.18968 c -0.064017,0.059275 -0.196793,0.120921 -0.336682,0.120921 -0.286891,0 -0.495539,-0.220503 -0.495539,-0.51924901 0,-0.29874598 0.208648,-0.51924898 0.495539,-0.51924898 0.168341,0 0.303488,0.09484 0.374618,0.206277 l 0.279778,-0.151744 c -0.11855,-0.187309 -0.324827,-0.353279 -0.654396,-0.353279 -0.462345,0 -0.841705,0.317714 -0.841705,0.81799498 z" />
        <path
           id="path495"
           style="font-weight:bold;font-size:2.37100005px;font-family:'Proxima Nova';dominant-baseline:alphabetic;text-anchor:middle;fill:#7f00ff"
           d="M 0.09406206,0 H 0.47816407 L -0.13118295,-1.581457 H -0.55322096 L -1.164939,0 h 0.38410204 l 0.099582,-0.26792301 h 0.67810602 z m -0.43626401,-1.244775 0.246584,0.68047699 h -0.49316801 z" />
        <path
           id="path497"
           style="font-weight:bold;font-size:2.37100005px;font-family:'Proxima Nova';dominant-baseline:alphabetic;text-anchor:middle;fill:#7f00ff"
           d="m 0.62420301,0 h 0.336682 v -1.581457 h -0.336682 z" />
        <path
           id="path499"
           style="font-weight:bold;font-size:2.37100005px;font-family:'Proxima Nova';dominant-baseline:alphabetic;text-anchor:middle;fill:#7f00ff"
           d="m 2.3631832,0 h 0.324827 v -1.581457 h -0.336682 v 0.99344899 L 1.6186892,-1.581457 H 1.2725232 V 0 h 0.336682 v -1.031385 z" />
      </g>
    </g>
    <g
       id="g96"
       transform="translate(34.592,101)">
      <g
         id="text94"
         style="font-weight:bold;font-size:2.37100005px;font-family:'Proxima Nova';dominant-baseline:hanging;text-anchor:middle;fill:#7f00ff"
         aria-label="BI">
        <path
           id="path502"
           style="font-weight:bold;font-size:2.37100005px;font-family:'Proxima Nova';dominant-baseline:hanging;text-anchor:middle;fill:#7f00ff"
           d="m -0.95260484,1.498472 h 0.85830202 c 0.301117,0 0.45997401,-0.18968 0.45997401,-0.42678 0,-0.19916404 -0.13514701,-0.36276304 -0.30348801,-0.38884404 0.149373,-0.030823 0.27266501,-0.16359901 0.27266501,-0.36276301 0,-0.211019 -0.15411501,-0.40307001 -0.45523201,-0.40307001 h -0.83222102 z m 0.33668201,-0.94840005 v -0.343795 h 0.42203801 c 0.113808,0 0.184938,0.073501 0.184938,0.173083 0,0.099582 -0.07113,0.170712 -0.184938,0.170712 z m 0,0.65676705 V 0.83933396 h 0.43389301 c 0.132776,0 0.203906,0.085356 0.203906,0.18493804 0,0.113808 -0.075872,0.182567 -0.203906,0.182567 z" />
        <path
           id="path504"
           style="font-weight:bold;font-size:2.37100005px;font-family:'Proxima Nova';dominant-baseline:hanging;text-anchor:middle;fill:#7f00ff"
           d="M 0.61725657,1.498472 H 0.95393858 V -0.08298506 H 0.61725657 Z" />
      </g>
    </g>
    <g
       id="g100"
       transform="translate(34.592,93)">
      <g
         id="text98"
         style="font-weight:bold;font-size:2.37100005px;font-family:'Proxima Nova';dominant-baseline:alphabetic;text-anchor:middle;fill:#7f00ff"
         aria-label="UNI">
        <path
           id="path507"
           style="font-weight:bold;font-size:2.37100005px;font-family:'Proxima Nova';dominant-baseline:alphabetic;text-anchor:middle;fill:#7f00ff"
           d="m -1.8996156,-0.63068601 c 0,0.388844 0.232358,0.65913801 0.713671,0.65913801 0.48131302,0 0.71367103,-0.26792301 0.71367103,-0.66150901 V -1.581457 h -0.34379501 v 0.93891599 c 0,0.220503 -0.125663,0.372247 -0.36987602,0.372247 -0.244213,0 -0.372247,-0.151744 -0.372247,-0.372247 V -1.581457 h -0.341424 z" />
        <path
           id="path509"
           style="font-weight:bold;font-size:2.37100005px;font-family:'Proxima Nova';dominant-baseline:alphabetic;text-anchor:middle;fill:#7f00ff"
           d="M 0.92761669,0 H 1.2524437 V -1.581457 H 0.91576169 v 0.99344899 L 0.18312267,-1.581457 H -0.16304334 V 0 h 0.33668201 v -1.031385 z" />
        <path
           id="path511"
           style="font-weight:bold;font-size:2.37100005px;font-family:'Proxima Nova';dominant-baseline:alphabetic;text-anchor:middle;fill:#7f00ff"
           d="m 1.5642673,0 h 0.336682 v -1.581457 h -0.336682 z" />
      </g>
    </g>
    <path
       id="rect102"
       d="m 43.696999,90.470001 h 8.399999 c 0.554,0 1,0.446 1,1 V 102.45 c 0,0.554 -0.446,1 -1,1 h -8.399999 c -0.554,0 -1,-0.446 -1,-1 V 91.470001 c 0,-0.554 0.446,-1 1,-1 z"
       style="fill:#7f00ff;stroke:#7f00ff;stroke-width:0.34999999" />
    <g
       id="g106"
       transform="translate(47.897,93.05)">
      <g
         id="text104"
         style="font-weight:bold;font-size:2.37100005px;font-family:'Proxima Nova';dominant-baseline:alphabetic;text-anchor:middle;fill:#f7f2fc"
         aria-label="X OUT">
        <path
           id="path515"
           style="font-weight:bold;font-size:2.37100005px;font-family:'Proxima Nova';dominant-baseline:alphabetic;text-anchor:middle;fill:#f7f2fc"
           d="m -2.3732599,0 h 0.40307 l -0.573782,-0.81325302 0.538217,-0.76820398 h -0.405441 l -0.358021,0.540588 -0.362763,-0.540588 h -0.400699 l 0.538217,0.77057498 L -3.5682439,0 h 0.400699 l 0.398328,-0.57852401 z" />
        <path
           id="path517"
           style="font-weight:bold;font-size:2.37100005px;font-family:'Proxima Nova';dominant-baseline:alphabetic;text-anchor:middle;fill:#f7f2fc"
           d="m -1.2901204,-0.78954302 c 0,0.47657101 0.34853702,0.81799502 0.82510803,0.81799502 0.47894201,0 0.82747902,-0.34142401 0.82747902,-0.81799502 0,-0.47657098 -0.34853701,-0.81799498 -0.82747902,-0.81799498 -0.47657101,0 -0.82510803,0.341424 -0.82510803,0.81799498 z m 1.30642104,0 c 0,0.29400401 -0.18968,0.51924901 -0.48131301,0.51924901 -0.29163301,0 -0.47894201,-0.225245 -0.47894201,-0.51924901 0,-0.29637498 0.187309,-0.51924898 0.47894201,-0.51924898 0.29163301,0 0.48131301,0.222874 0.48131301,0.51924898 z" />
        <path
           id="path519"
           style="font-weight:bold;font-size:2.37100005px;font-family:'Proxima Nova';dominant-baseline:alphabetic;text-anchor:middle;fill:#f7f2fc"
           d="m 0.6010485,-0.63068601 c 0,0.388844 0.23235801,0.65913801 0.713671,0.65913801 0.481313,0 0.713671,-0.26792301 0.713671,-0.66150901 V -1.581457 h -0.343795 v 0.93891599 c 0,0.220503 -0.125663,0.372247 -0.369876,0.372247 -0.244213,0 -0.37224699,-0.151744 -0.37224699,-0.372247 V -1.581457 H 0.6010485 Z" />
        <path
           id="path521"
           style="font-weight:bold;font-size:2.37100005px;font-family:'Proxima Nova';dominant-baseline:alphabetic;text-anchor:middle;fill:#f7f2fc"
           d="m 2.7027548,0 h 0.339053 v -1.285082 h 0.459974 v -0.296375 h -1.261372 v 0.296375 h 0.462345 z" />
      </g>
    </g>
    <g
       id="g110"
       transform="translate(47.897,93.05)">
      <g
         id="text108"
         style="font-weight:bold;font-size:2.37100005px;font-family:'Proxima Nova';dominant-baseline:alphabetic;text-anchor:middle;fill:#f7f2fc"
         aria-label="X OUT">
        <path
           id="path524"
           style="font-weight:bold;font-size:2.37100005px;font-family:'Proxima Nova';dominant-baseline:alphabetic;text-anchor:middle;fill:#f7f2fc"
           d="m -2.3732599,0 h 0.40307 l -0.573782,-0.81325302 0.538217,-0.76820398 h -0.405441 l -0.358021,0.540588 -0.362763,-0.540588 h -0.400699 l 0.538217,0.77057498 L -3.5682439,0 h 0.400699 l 0.398328,-0.57852401 z" />
        <path
           id="path526"
           style="font-weight:bold;font-size:2.37100005px;font-family:'Proxima Nova';dominant-baseline:alphabetic;text-anchor:middle;fill:#f7f2fc"
           d="m -1.2901204,-0.78954302 c 0,0.47657101 0.34853702,0.81799502 0.82510803,0.81799502 0.47894201,0 0.82747902,-0.34142401 0.82747902,-0.81799502 0,-0.47657098 -0.34853701,-0.81799498 -0.82747902,-0.81799498 -0.47657101,0 -0.82510803,0.341424 -0.82510803,0.81799498 z m 1.30642104,0 c 0,0.29400401 -0.18968,0.51924901 -0.48131301,0.51924901 -0.29163301,0 -0.47894201,-0.225245 -0.47894201,-0.51924901 0,-0.29637498 0.187309,-0.51924898 0.47894201,-0.51924898 0.29163301,0 0.48131301,0.222874 0.48131301,0.51924898 z" />
        <path
           id="path528"
           style="font-weight:bold;font-size:2.37100005px;font-family:'Proxima Nova';dominant-baseline:alphabetic;text-anchor:middle;fill:#f7f2fc"
           d="m 0.6010485,-0.63068601 c 0,0.388844 0.23235801,0.65913801 0.713671,0.65913801 0.481313,0 0.713671,-0.26792301 0.713671,-0.66150901 V -1.581457 h -0.343795 v 0.93891599 c 0,0.220503 -0.125663,0.372247 -0.369876,0.372247 -0.244213,0 -0.37224699,-0.151744 -0.37224699,-0.372247 V -1.581457 H 0.6010485 Z" />
        <path
           id="path530"
           style="font-weight:bold;font-size:2.37100005px;font-family:'Proxima Nova';dominant-baseline:alphabetic;text-anchor:middle;fill:#f7f2fc"
           d="m 2.7027548,0 h 0.339053 v -1.285082 h 0.459974 v -0.296375 h -1.261372 v 0.296375 h 0.462345 z" />
      </g>
    </g>
    <path
       id="line112"
       d="M 7.9829998,112 H 47.896999"
       style="stroke-width:0.34999999" />
    <g
       id="g116"
       transform="translate(7.983,106.8)">
      <g
         id="text114"
         style="font-weight:bold;font-size:3.0480001px;font-family:'Proxima Nova';dominant-baseline:alphabetic;text-anchor:middle;fill:#7f00ff"
         aria-label="cv">
        <path
           id="path534"
           style="font-weight:bold;font-size:3.0480001px;font-family:'Proxima Nova';dominant-baseline:alphabetic;text-anchor:middle;fill:#7f00ff"
           d="m -1.4443234,-0.73761602 c 0,0.45415201 0.326136,0.77419202 0.780288,0.77419202 0.30175201,0 0.48463202,-0.131064 0.58216802,-0.26822401 l -0.25298401,-0.234696 c -0.070104,0.097536 -0.176784,0.158496 -0.31089601,0.158496 -0.234696,0 -0.399288,-0.17373601 -0.399288,-0.42976801 0,-0.25603201 0.164592,-0.42671998 0.399288,-0.42671998 0.13411201,0 0.24079201,0.054864 0.31089601,0.158496 l 0.25298401,-0.237744 c -0.097536,-0.134112 -0.28041601,-0.265176 -0.58216802,-0.265176 -0.454152,0 -0.780288,0.32004 -0.780288,0.77114398 z" />
        <path
           id="path536"
           style="font-weight:bold;font-size:3.0480001px;font-family:'Proxima Nova';dominant-baseline:alphabetic;text-anchor:middle;fill:#7f00ff"
           d="M 0.54921157,0 H 0.96678758 L 1.5580996,-1.472184 H 1.1405236 L 0.75647558,-0.44805601 0.37242756,-1.472184 h -0.41452801 z" />
      </g>
    </g>
    <g
       id="g120"
       transform="translate(21.288,106.8)">
      <g
         id="text118"
         style="font-weight:bold;font-size:2.37100005px;font-family:'Proxima Nova';dominant-baseline:alphabetic;text-anchor:middle;fill:#7f00ff"
         aria-label="GAIN">
        <path
           id="path539"
           style="font-weight:bold;font-size:2.37100005px;font-family:'Proxima Nova';dominant-baseline:alphabetic;text-anchor:middle;fill:#7f00ff"
           d="m -2.7627337,-0.78954302 c 0,0.49791001 0.37936,0.82036602 0.841705,0.82036602 0.286891,0 0.512136,-0.11855 0.673364,-0.29874601 v -0.60697601 h -0.753978 v 0.29400401 h 0.417296 v 0.18968 c -0.064017,0.059275 -0.196793,0.120921 -0.336682,0.120921 -0.286891,0 -0.495539,-0.220503 -0.495539,-0.51924901 0,-0.29874598 0.208648,-0.51924898 0.495539,-0.51924898 0.168341,0 0.303488,0.09484 0.374618,0.206277 l 0.279778,-0.151744 c -0.11855,-0.187309 -0.324827,-0.353279 -0.654396,-0.353279 -0.462345,0 -0.841705,0.317714 -0.841705,0.81799498 z" />
        <path
           id="path541"
           style="font-weight:bold;font-size:2.37100005px;font-family:'Proxima Nova';dominant-baseline:alphabetic;text-anchor:middle;fill:#7f00ff"
           d="M 0.09406206,0 H 0.47816407 L -0.13118295,-1.581457 H -0.55322096 L -1.164939,0 h 0.38410204 l 0.099582,-0.26792301 h 0.67810602 z m -0.43626401,-1.244775 0.246584,0.68047699 h -0.49316801 z" />
        <path
           id="path543"
           style="font-weight:bold;font-size:2.37100005px;font-family:'Proxima Nova';dominant-baseline:alphabetic;text-anchor:middle;fill:#7f00ff"
           d="m 0.62420301,0 h 0.336682 v -1.581457 h -0.336682 z" />
        <path
           id="path545"
           style="font-weight:bold;font-size:2.37100005px;font-family:'Proxima Nova';dominant-baseline:alphabetic;text-anchor:middle;fill:#7f00ff"
           d="m 2.3631832,0 h 0.324827 v -1.581457 h -0.336682 v 0.99344899 L 1.6186892,-1.581457 H 1.2725232 V 0 h 0.336682 v -1.031385 z" />
      </g>
    </g>
    <g
       id="g124"
       transform="translate(34.592,116)">
      <g
         id="text122"
         style="font-weight:bold;font-size:2.37100005px;font-family:'Proxima Nova';dominant-baseline:hanging;text-anchor:middle;fill:#7f00ff"
         aria-label="BI">
        <path
           id="path548"
           style="font-weight:bold;font-size:2.37100005px;font-family:'Proxima Nova';dominant-baseline:hanging;text-anchor:middle;fill:#7f00ff"
           d="m -0.95260484,1.498472 h 0.85830202 c 0.301117,0 0.45997401,-0.18968 0.45997401,-0.42678 0,-0.19916404 -0.13514701,-0.36276304 -0.30348801,-0.38884404 0.149373,-0.030823 0.27266501,-0.16359901 0.27266501,-0.36276301 0,-0.211019 -0.15411501,-0.40307001 -0.45523201,-0.40307001 h -0.83222102 z m 0.33668201,-0.94840005 v -0.343795 h 0.42203801 c 0.113808,0 0.184938,0.073501 0.184938,0.173083 0,0.099582 -0.07113,0.170712 -0.184938,0.170712 z m 0,0.65676705 V 0.83933396 h 0.43389301 c 0.132776,0 0.203906,0.085356 0.203906,0.18493804 0,0.113808 -0.075872,0.182567 -0.203906,0.182567 z" />
        <path
           id="path550"
           style="font-weight:bold;font-size:2.37100005px;font-family:'Proxima Nova';dominant-baseline:hanging;text-anchor:middle;fill:#7f00ff"
           d="M 0.61725657,1.498472 H 0.95393858 V -0.08298506 H 0.61725657 Z" />
      </g>
    </g>
    <g
       id="g128"
       transform="translate(34.592,108)">
      <g
         id="text126"
         style="font-weight:bold;font-size:2.37100005px;font-family:'Proxima Nova';dominant-baseline:alphabetic;text-anchor:middle;fill:#7f00ff"
         aria-label="UNI">
        <path
           id="path553"
           style="font-weight:bold;font-size:2.37100005px;font-family:'Proxima Nova';dominant-baseline:alphabetic;text-anchor:middle;fill:#7f00ff"
           d="m -1.8996156,-0.63068601 c 0,0.388844 0.232358,0.65913801 0.713671,0.65913801 0.48131302,0 0.71367103,-0.26792301 0.71367103,-0.66150901 V -1.581457 h -0.34379501 v 0.93891599 c 0,0.220503 -0.125663,0.372247 -0.36987602,0.372247 -0.244213,0 -0.372247,-0.151744 -0.372247,-0.372247 V -1.581457 h -0.341424 z" />
        <path
           id="path555"
           style="font-weight:bold;font-size:2.37100005px;font-family:'Proxima Nova';dominant-baseline:alphabetic;text-anchor:middle;fill:#7f00ff"
           d="M 0.92761669,0 H 1.2524437 V -1.581457 H 0.91576169 v 0.99344899 L 0.18312267,-1.581457 H -0.16304334 V 0 h 0.33668201 v -1.031385 z" />
        <path
           id="path557"
           style="font-weight:bold;font-size:2.37100005px;font-family:'Proxima Nova';dominant-baseline:alphabetic;text-anchor:middle;fill:#7f00ff"
           d="m 1.5642673,0 h 0.336682 v -1.581457 h -0.336682 z" />
      </g>
    </g>
    <path
       id="rect130"
       d="m 43.696999,105.47 h 8.399999 c 0.554,0 1,0.446 1,1 v 10.98 c 0,0.554 -0.446,1 -1,1 h -8.399999 c -0.554,0 -1,-0.446 -1,-1 v -10.98 c 0,-0.554 0.446,-1 1,-1 z"
       style="fill:#7f00ff;stroke:#7f00ff;stroke-width:0.34999999" />
    <g
       id="g134"
       transform="translate(47.897,108.05)">
      <g
         id="text132"
         style="font-weight:bold;font-size:2.37100005px;font-family:'Proxima Nova';dominant-baseline:alphabetic;text-anchor:middle;fill:#f7f2fc"
         aria-label="Y OUT">
        <path
           id="path561"
           style="font-weight:bold;font-size:2.37100005px;font-family:'Proxima Nova';dominant-baseline:alphabetic;text-anchor:middle;fill:#f7f2fc"
           d="m -2.9358538,0 h 0.336682 V -0.64728301 L -1.9945667,-1.581457 h -0.3841021 l -0.388844,0.63542798 -0.393586,-0.63542798 h -0.384102 l 0.609347,0.93417399 z" />
        <path
           id="path563"
           style="font-weight:bold;font-size:2.37100005px;font-family:'Proxima Nova';dominant-baseline:alphabetic;text-anchor:middle;fill:#f7f2fc"
           d="m -1.3179056,-0.78954302 c 0,0.47657101 0.34853701,0.81799502 0.82510802,0.81799502 0.47894201,0 0.82747902,-0.34142401 0.82747902,-0.81799502 0,-0.47657098 -0.34853701,-0.81799498 -0.82747902,-0.81799498 -0.47657101,0 -0.82510802,0.341424 -0.82510802,0.81799498 z m 1.30642103,0 c 0,0.29400401 -0.18968,0.51924901 -0.48131301,0.51924901 -0.291633,0 -0.47894201,-0.225245 -0.47894201,-0.51924901 0,-0.29637498 0.18730901,-0.51924898 0.47894201,-0.51924898 0.29163301,0 0.48131301,0.222874 0.48131301,0.51924898 z" />
        <path
           id="path565"
           style="font-weight:bold;font-size:2.37100005px;font-family:'Proxima Nova';dominant-baseline:alphabetic;text-anchor:middle;fill:#f7f2fc"
           d="m 0.5732633,-0.63068601 c 0,0.388844 0.232358,0.65913801 0.713671,0.65913801 0.481313,0 0.713671,-0.26792301 0.713671,-0.66150901 V -1.581457 h -0.343795 v 0.93891599 c 0,0.220503 -0.125663,0.372247 -0.369876,0.372247 -0.244213,0 -0.372247,-0.151744 -0.372247,-0.372247 V -1.581457 h -0.341424 z" />
        <path
           id="path567"
           style="font-weight:bold;font-size:2.37100005px;font-family:'Proxima Nova';dominant-baseline:alphabetic;text-anchor:middle;fill:#f7f2fc"
           d="m 2.6749693,0 h 0.339053 v -1.285082 h 0.459974 v -0.296375 h -1.261372 v 0.296375 h 0.462345 z" />
      </g>
    </g>
    <g
       id="g138"
       transform="translate(47.897,108.05)">
      <g
         id="text136"
         style="font-weight:bold;font-size:2.37100005px;font-family:'Proxima Nova';dominant-baseline:alphabetic;text-anchor:middle;fill:#f7f2fc"
         aria-label="Y OUT">
        <path
           id="path570"
           style="font-weight:bold;font-size:2.37100005px;font-family:'Proxima Nova';dominant-baseline:alphabetic;text-anchor:middle;fill:#f7f2fc"
           d="m -2.9358538,0 h 0.336682 V -0.64728301 L -1.9945667,-1.581457 h -0.3841021 l -0.388844,0.63542798 -0.393586,-0.63542798 h -0.384102 l 0.609347,0.93417399 z" />
        <path
           id="path572"
           style="font-weight:bold;font-size:2.37100005px;font-family:'Proxima Nova';dominant-baseline:alphabetic;text-anchor:middle;fill:#f7f2fc"
           d="m -1.3179056,-0.78954302 c 0,0.47657101 0.34853701,0.81799502 0.82510802,0.81799502 0.47894201,0 0.82747902,-0.34142401 0.82747902,-0.81799502 0,-0.47657098 -0.34853701,-0.81799498 -0.82747902,-0.81799498 -0.47657101,0 -0.82510802,0.341424 -0.82510802,0.81799498 z m 1.30642103,0 c 0,0.29400401 -0.18968,0.51924901 -0.48131301,0.51924901 -0.291633,0 -0.47894201,-0.225245 -0.47894201,-0.51924901 0,-0.29637498 0.18730901,-0.51924898 0.47894201,-0.51924898 0.29163301,0 0.48131301,0.222874 0.48131301,0.51924898 z" />
        <path
           id="path574"
           style="font-weight:bold;font-size:2.37100005px;font-family:'Proxima Nova';dominant-baseline:alphabetic;text-anchor:middle;fill:#f7f2fc"
           d="m 0.5732633,-0.63068601 c 0,0.388844 0.232358,0.65913801 0.713671,0.65913801 0.481313,0 0.713671,-0.26792301 0.713671,-0.66150901 V -1.581457 h -0.343795 v 0.93891599 c 0,0.220503 -0.125663,0.372247 -0.369876,0.372247 -0.244213,0 -0.372247,-0.151744 -0.372247,-0.372247 V -1.581457 h -0.341424 z" />
        <path
           id="path576"
           style="font-weight:bold;font-size:2.37100005px;font-family:'Proxima Nova';dominant-baseline:alphabetic;text-anchor:middle;fill:#f7f2fc"
           d="m 2.6749693,0 h 0.339053 v -1.285082 h 0.459974 v -0.296375 h -1.261372 v 0.296375 h 0.462345 z" />
      </g>
    </g>
    <g
       id="g148"
       transform="translate(7.983,25)">
      <g
         style="fill:#f7f2fc;stroke:#7f00ff;stroke-width:0.20999999"
         id="g146">
        <path
           id="circle140"
           d="M 4.0949998,0 A 4.0949998,4.0949998 0 0 1 0,4.0949998 4.0949998,4.0949998 0 0 1 -4.0949998,0 4.0949998,4.0949998 0 0 1 0,-4.0949998 4.0949998,4.0949998 0 0 1 4.0949998,0 Z"
           style="" />
        <path
           id="circle142"
           d="M 2.925,0 A 2.925,2.925 0 0 1 0,2.925 2.925,2.925 0 0 1 -2.925,0 2.925,2.925 0 0 1 0,-2.925 2.925,2.925 0 0 1 2.925,0 Z"
           style="" />
        <path
           id="circle144"
           d="M 1.755,0 A 1.755,1.755 0 0 1 0,1.755 1.755,1.755 0 0 1 -1.755,0 1.755,1.755 0 0 1 0,-1.755 1.755,1.755 0 0 1 1.755,0 Z"
           style="fill:#7f00ff" />
      </g>
    </g>
    <g
       id="g156"
       transform="translate(21.288,25)">
      <g
         style="fill:#7f00ff;stroke:#f7f2fc"
         id="g154">
        <path
           id="circle150"
           d="M 3.5,0 A 3.5,3.5 0 0 1 0,3.5 3.5,3.5 0 0 1 -3.5,0 3.5,3.5 0 0 1 0,-3.5 3.5,3.5 0 0 1 3.5,0 Z"
           style="stroke:none" />
        <path
           id="line152"
           d="M 0,0 V -3.062"
           style="stroke-width:0.43799999;stroke-linecap:round" />
      </g>
    </g>
    <g
       id="g164"
       transform="translate(34.592,25)">
      <g
         style="fill:#7f00ff;stroke:#f7f2fc"
         id="g162">
        <path
           id="circle158"
           d="M 6.3499999,0 A 6.3499999,6.3499999 0 0 1 0,6.3499999 6.3499999,6.3499999 0 0 1 -6.3499999,0 6.3499999,6.3499999 0 0 1 0,-6.3499999 6.3499999,6.3499999 0 0 1 6.3499999,0 Z"
           style="stroke:none" />
        <path
           id="line160"
           d="M 0,0 V -5.5560002"
           style="stroke-width:0.79400003;stroke-linecap:round" />
      </g>
    </g>
    <g
       id="g174"
       transform="translate(7.983,43.5)">
      <g
         style="fill:#f7f2fc;stroke:#7f00ff;stroke-width:0.20999999"
         id="g172">
        <path
           id="circle166"
           d="M 4.0949998,0 A 4.0949998,4.0949998 0 0 1 0,4.0949998 4.0949998,4.0949998 0 0 1 -4.0949998,0 4.0949998,4.0949998 0 0 1 0,-4.0949998 4.0949998,4.0949998 0 0 1 4.0949998,0 Z"
           style="" />
        <path
           id="circle168"
           d="M 2.925,0 A 2.925,2.925 0 0 1 0,2.925 2.925,2.925 0 0 1 -2.925,0 2.925,2.925 0 0 1 0,-2.925 2.925,2.925 0 0 1 2.925,0 Z"
           style="" />
        <path
           id="circle170"
           d="M 1.755,0 A 1.755,1.755 0 0 1 0,1.755 1.755,1.755 0 0 1 -1.755,0 1.755,1.755 0 0 1 0,-1.755 1.755,1.755 0 0 1 1.755,0 Z"
           style="fill:#7f00ff" />
      </g>
    </g>
    <g
       id="g182"
       transform="translate(21.288,43.5)">
      <g
         style="fill:#7f00ff;stroke:#f7f2fc"
         id="g180">
        <path
           id="circle176"
           d="M 3.5,0 A 3.5,3.5 0 0 1 0,3.5 3.5,3.5 0 0 1 -3.5,0 3.5,3.5 0 0 1 0,-3.5 3.5,3.5 0 0 1 3.5,0 Z"
           style="stroke:none" />
        <path
           id="line178"
           d="M 0,0 V -3.062"
           style="stroke-width:0.43799999;stroke-linecap:round" />
      </g>
    </g>
    <g
       id="g190"
       transform="translate(34.592,43.5)">
      <g
         style="fill:#7f00ff;stroke:#f7f2fc"
         id="g188">
        <path
           id="circle184"
           d="M 6.3499999,0 A 6.3499999,6.3499999 0 0 1 0,6.3499999 6.3499999,6.3499999 0 0 1 -6.3499999,0 6.3499999,6.3499999 0 0 1 0,-6.3499999 6.3499999,6.3499999 0 0 1 6.3499999,0 Z"
           style="stroke:none" />
        <path
           id="line186"
           d="M 0,0 V -5.5560002"
           style="stroke-width:0.79400003;stroke-linecap:round" />
      </g>
    </g>
    <g
       id="g206"
       transform="translate(47.897,43.5)">
      <path
         id="rect192"
         d="m -1.124,-2.812 h 2.249 c 0.104152,0 0.188,0.083848 0.188,0.188 v 5.249 c 0,0.104152 -0.083848,0.188 -0.188,0.188 h -2.249 c -0.104152,0 -0.188,-0.083848 -0.188,-0.188 v -5.249 c 0,-0.104152 0.083848,-0.188 0.188,-0.188 z"
         style="fill:#f7f2fc;stroke:#7f00ff;stroke-width:0.375" />
      <g
         id="g204"
         transform="translate(0,-1.25)">
        <path
           id="line194"
           d="M -0.81199998,-1 H 0.81199998"
           style="fill:#f7f2fc;stroke:#7f00ff;stroke-width:0.25;stroke-linecap:round" />
        <path
           id="line196"
           d="M -0.81199998,-0.5 H 0.81199998"
           style="fill:#f7f2fc;stroke:#7f00ff;stroke-width:0.25;stroke-linecap:round" />
        <path
           id="line198"
           d="M -0.81199998,0 H 0.81199998"
           style="fill:#f7f2fc;stroke:#7f00ff;stroke-width:0.25;stroke-linecap:round" />
        <path
           id="line200"
           d="M -0.81199998,0.5 H 0.81199998"
           style="fill:#f7f2fc;stroke:#7f00ff;stroke-width:0.25;stroke-linecap:round" />
        <path
           id="line202"
           d="M -0.81199998,1 H 0.81199998"
           style="fill:#f7f2fc;stroke:#7f00ff;stroke-width:0.25;stroke-linecap:round" />
      </g>
    </g>
    <g
       id="g216"
       transform="translate(7.983,62)">
      <g
         style="fill:#f7f2fc;stroke:#7f00ff;stroke-width:0.20999999"
         id="g214">
        <path
           id="circle208"
           d="M 4.0949998,0 A 4.0949998,4.0949998 0 0 1 0,4.0949998 4.0949998,4.0949998 0 0 1 -4.0949998,0 4.0949998,4.0949998 0 0 1 0,-4.0949998 4.0949998,4.0949998 0 0 1 4.0949998,0 Z"
           style="" />
        <path
           id="circle210"
           d="M 2.925,0 A 2.925,2.925 0 0 1 0,2.925 2.925,2.925 0 0 1 -2.925,0 2.925,2.925 0 0 1 0,-2.925 2.925,2.925 0 0 1 2.925,0 Z"
           style="" />
        <path
           id="circle212"
           d="M 1.755,0 A 1.755,1.755 0 0 1 0,1.755 1.755,1.755 0 0 1 -1.755,0 1.755,1.755 0 0 1 0,-1.755 1.755,1.755 0 0 1 1.755,0 Z"
           style="fill:#7f00ff" />
      </g>
    </g>
    <g
       id="g224"
       transform="translate(21.288,62)">
      <g
         style="fill:#7f00ff;stroke:#f7f2fc"
         id="g222">
        <path
           id="circle218"
           d="M 3.5,0 A 3.5,3.5 0 0 1 0,3.5 3.5,3.5 0 0 1 -3.5,0 3.5,3.5 0 0 1 0,-3.5 3.5,3.5 0 0 1 3.5,0 Z"
           style="stroke:none" />
        <path
           id="line220"
           d="M 0,0 V -3.062"
           style="stroke-width:0.43799999;stroke-linecap:round" />
      </g>
    </g>
    <g
       id="g232"
       transform="translate(34.592,62)">
      <g
         style="fill:#7f00ff;stroke:#f7f2fc"
         id="g230">
        <path
           id="circle226"
           d="M 6.3499999,0 A 6.3499999,6.3499999 0 0 1 0,6.3499999 6.3499999,6.3499999 0 0 1 -6.3499999,0 6.3499999,6.3499999 0 0 1 0,-6.3499999 6.3499999,6.3499999 0 0 1 6.3499999,0 Z"
           style="stroke:none" />
        <path
           id="line228"
           d="M 0,0 V -5.5560002"
           style="stroke-width:0.79400003;stroke-linecap:round" />
      </g>
    </g>
    <g
       id="g242"
       transform="translate(7.983,80.5)">
      <g
         style="fill:#f7f2fc;stroke:#7f00ff;stroke-width:0.20999999"
         id="g240">
        <path
           id="circle234"
           d="M 4.0949998,0 A 4.0949998,4.0949998 0 0 1 0,4.0949998 4.0949998,4.0949998 0 0 1 -4.0949998,0 4.0949998,4.0949998 0 0 1 0,-4.0949998 4.0949998,4.0949998 0 0 1 4.0949998,0 Z"
           style="" />
        <path
           id="circle236"
           d="M 2.925,0 A 2.925,2.925 0 0 1 0,2.925 2.925,2.925 0 0 1 -2.925,0 2.925,2.925 0 0 1 0,-2.925 2.925,2.925 0 0 1 2.925,0 Z"
           style="" />
        <path
           id="circle238"
           d="M 1.755,0 A 1.755,1.755 0 0 1 0,1.755 1.755,1.755 0 0 1 -1.755,0 1.755,1.755 0 0 1 0,-1.755 1.755,1.755 0 0 1 1.755,0 Z"
           style="fill:#7f00ff" />
      </g>
    </g>
    <g
       id="g250"
       transform="translate(21.288,80.5)">
      <g
         style="fill:#7f00ff;stroke:#f7f2fc"
         id="g248">
        <path
           id="circle244"
           d="M 3.5,0 A 3.5,3.5 0 0 1 0,3.5 3.5,3.5 0 0 1 -3.5,0 3.5,3.5 0 0 1 0,-3.5 3.5,3.5 0 0 1 3.5,0 Z"
           style="stroke:none" />
        <path
           id="line246"
           d="M 0,0 V -3.062"
           style="stroke-width:0.43799999;stroke-linecap:round" />
      </g>
    </g>
    <g
       id="g258"
       transform="translate(34.592,80.5)">
      <g
         style="fill:#7f00ff;stroke:#f7f2fc"
         id="g256">
        <path
           id="circle252"
           d="M 6.3499999,0 A 6.3499999,6.3499999 0 0 1 0,6.3499999 6.3499999,6.3499999 0 0 1 -6.3499999,0 6.3499999,6.3499999 0 0 1 0,-6.3499999 6.3499999,6.3499999 0 0 1 6.3499999,0 Z"
           style="stroke:none" />
        <path
           id="line254"
           d="M 0,0 V -5.5560002"
           style="stroke-width:0.79400003;stroke-linecap:round" />
      </g>
    </g>
    <g
       id="g268"
       transform="translate(7.983,97)">
      <g
         style="fill:#f7f2fc;stroke:#7f00ff;stroke-width:0.20999999"
         id="g266">
        <path
           id="circle260"
           d="M 4.0949998,0 A 4.0949998,4.0949998 0 0 1 0,4.0949998 4.0949998,4.0949998 0 0 1 -4.0949998,0 4.0949998,4.0949998 0 0 1 0,-4.0949998 4.0949998,4.0949998 0 0 1 4.0949998,0 Z"
           style="" />
        <path
           id="circle262"
           d="M 2.925,0 A 2.925,2.925 0 0 1 0,2.925 2.925,2.925 0 0 1 -2.925,0 2.925,2.925 0 0 1 0,-2.925 2.925,2.925 0 0 1 2.925,0 Z"
           style="" />
        <path
           id="circle264"
           d="M 1.755,0 A 1.755,1.755 0 0 1 0,1.755 1.755,1.755 0 0 1 -1.755,0 1.755,1.755 0 0 1 0,-1.755 1.755,1.755 0 0 1 1.755,0 Z"
           style="fill:#7f00ff" />
      </g>
    </g>
    <g
       id="g276"
       transform="translate(21.288,97)">
      <g
         style="fill:#7f00ff;stroke:#f7f2fc"
         id="g274">
        <path
           id="circle270"
           d="M 4.1999998,0 A 4.1999998,4.1999998 0 0 1 0,4.1999998 4.1999998,4.1999998 0 0 1 -4.1999998,0 4.1999998,4.1999998 0 0 1 0,-4.1999998 4.1999998,4.1999998 0 0 1 4.1999998,0 Z"
           style="stroke:none" />
        <path
           id="line272"
           d="M 0,0 V -3.675"
           style="stroke-width:0.52499998;stroke-linecap:round" />
      </g>
    </g>
    <g
       id="g292"
       transform="translate(34.592,97)">
      <path
         id="rect278"
         d="m -1.124,-2.812 h 2.249 c 0.104152,0 0.188,0.083848 0.188,0.188 v 5.249 c 0,0.104152 -0.083848,0.188 -0.188,0.188 h -2.249 c -0.104152,0 -0.188,-0.083848 -0.188,-0.188 v -5.249 c 0,-0.104152 0.083848,-0.188 0.188,-0.188 z"
         style="fill:#f7f2fc;stroke:#7f00ff;stroke-width:0.375" />
      <g
         id="g290"
         transform="translate(0,1.25)">
        <path
           id="line280"
           d="M -0.81199998,-1 H 0.81199998"
           style="fill:#f7f2fc;stroke:#7f00ff;stroke-width:0.25;stroke-linecap:round" />
        <path
           id="line282"
           d="M -0.81199998,-0.5 H 0.81199998"
           style="fill:#f7f2fc;stroke:#7f00ff;stroke-width:0.25;stroke-linecap:round" />
        <path
           id="line284"
           d="M -0.81199998,0 H 0.81199998"
           style="fill:#f7f2fc;stroke:#7f00ff;stroke-width:0.25;stroke-linecap:round" />
        <path
           id="line286"
           d="M -0.81199998,0.5 H 0.81199998"
           style="fill:#f7f2fc;stroke:#7f00ff;stroke-width:0.25;stroke-linecap:round" />
        <path
           id="line288"
           d="M -0.81199998,1 H 0.81199998"
           style="fill:#f7f2fc;stroke:#7f00ff;stroke-width:0.25;stroke-linecap:round" />
      </g>
    </g>
    <g
       id="g302"
       transform="translate(47.897,98.25)">
      <g
         style="fill:#f7f2fc;stroke:#7f00ff;stroke-width:0.20999999"
         id="g300">
        <path
           id="circle294"
           d="M 4.0949998,0 A 4.0949998,4.0949998 0 0 1 0,4.0949998 4.0949998,4.0949998 0 0 1 -4.0949998,0 4.0949998,4.0949998 0 0 1 0,-4.0949998 4.0949998,4.0949998 0 0 1 4.0949998,0 Z"
           style="" />
        <path
           id="circle296"
           d="M 2.925,0 A 2.925,2.925 0 0 1 0,2.925 2.925,2.925 0 0 1 -2.925,0 2.925,2.925 0 0 1 0,-2.925 2.925,2.925 0 0 1 2.925,0 Z"
           style="" />
        <path
           id="circle298"
           d="M 1.755,0 A 1.755,1.755 0 0 1 0,1.755 1.755,1.755 0 0 1 -1.755,0 1.755,1.755 0 0 1 0,-1.755 1.755,1.755 0 0 1 1.755,0 Z"
           style="fill:#7f00ff" />
      </g>
    </g>
    <g
       id="g312"
       transform="translate(7.983,112)">
      <g
         style="fill:#f7f2fc;stroke:#7f00ff;stroke-width:0.20999999"
         id="g310">
        <path
           id="circle304"
           d="M 4.0949998,0 A 4.0949998,4.0949998 0 0 1 0,4.0949998 4.0949998,4.0949998 0 0 1 -4.0949998,0 4.0949998,4.0949998 0 0 1 0,-4.0949998 4.0949998,4.0949998 0 0 1 4.0949998,0 Z"
           style="" />
        <path
           id="circle306"
           d="M 2.925,0 A 2.925,2.925 0 0 1 0,2.925 2.925,2.925 0 0 1 -2.925,0 2.925,2.925 0 0 1 0,-2.925 2.925,2.925 0 0 1 2.925,0 Z"
           style="" />
        <path
           id="circle308"
           d="M 1.755,0 A 1.755,1.755 0 0 1 0,1.755 1.755,1.755 0 0 1 -1.755,0 1.755,1.755 0 0 1 0,-1.755 1.755,1.755 0 0 1 1.755,0 Z"
           style="fill:#7f00ff" />
      </g>
    </g>
    <g
       id="g320"
       transform="translate(21.288,112)">
      <g
         style="fill:#7f00ff;stroke:#f7f2fc"
         id="g318">
        <path
           id="circle314"
           d="M 4.1999998,0 A 4.1999998,4.1999998 0 0 1 0,4.1999998 4.1999998,4.1999998 0 0 1 -4.1999998,0 4.1999998,4.1999998 0 0 1 0,-4.1999998 4.1999998,4.1999998 0 0 1 4.1999998,0 Z"
           style="stroke:none" />
        <path
           id="line316"
           d="M 0,0 V -3.675"
           style="stroke-width:0.52499998;stroke-linecap:round" />
      </g>
    </g>
    <g
       id="g336"
       transform="translate(34.592,112)">
      <path
         id="rect322"
         d="m -1.124,-2.812 h 2.249 c 0.104152,0 0.188,0.083848 0.188,0.188 v 5.249 c 0,0.104152 -0.083848,0.188 -0.188,0.188 h -2.249 c -0.104152,0 -0.188,-0.083848 -0.188,-0.188 v -5.249 c 0,-0.104152 0.083848,-0.188 0.188,-0.188 z"
         style="fill:#f7f2fc;stroke:#7f00ff;stroke-width:0.375" />
      <g
         id="g334"
         transform="translate(0,1.25)">
        <path
           id="line324"
           d="M -0.81199998,-1 H 0.81199998"
           style="fill:#f7f2fc;stroke:#7f00ff;stroke-width:0.25;stroke-linecap:round" />
        <path
           id="line326"
           d="M -0.81199998,-0.5 H 0.81199998"
           style="fill:#f7f2fc;stroke:#7f00ff;stroke-width:0.25;stroke-linecap:round" />
        <path
           id="line328"
           d="M -0.81199998,0 H 0.81199998"
           style="fill:#f7f2fc;stroke:#7f00ff;stroke-width:0.25;stroke-linecap:round" />
        <path
           id="line330"
           d="M -0.81199998,0.5 H 0.81199998"
           style="fill:#f7f2fc;stroke:#7f00ff;stroke-width:0.25;stroke-linecap:round" />
        <path
           id="line332"
           d="M -0.81199998,1 H 0.81199998"
           style="fill:#f7f2fc;stroke:#7f00ff;stroke-width:0.25;stroke-linecap:round" />
      </g>
    </g>
    <g
       id="g346"
       transform="translate(47.897,113.25)">
      <g
         style="fill:#f7f2fc;stroke:#7f00ff;stroke-width:0.20999999"
         id="g344">
        <path
           id="circle338"
           d="M 4.0949998,0 A 4.0949998,4.0949998 0 0 1 0,4.0949998 4.0949998,4.0949998 0 0 1 -4.0949998,0 4.0949998,4.0949998 0 0 1 0,-4.0949998 4.0949998,4.0949998 0 0 1 4.0949998,0 Z"
           style="" />
        <path
           id="circle340"
           d="M 2.925,0 A 2.925,2.925 0 0 1 0,2.925 2.925,2.925 0 0 1 -2.925,0 2.925,2.925 0 0 1 0,-2.925 2.925,2.925 0 0 1 2.925,0 Z"
           style="" />
        <path
           id="circle342"
           d="M 1.755,0 A 1.755,1.755 0 0 1 0,1.755 1.755,1.755 0 0 1 -1.755,0 1.755,1.755 0 0 1 0,-1.755 1.755,1.755 0 0 1 1.755,0 Z"
           style="fill:#7f00ff" />
      </g>
    </g>
  </g>
</svg>
