<?xml version="1.0" encoding="UTF-8" standalone="no"?>
<svg xmlns="http://www.w3.org/2000/svg" xmlns:svg="http://www.w3.org/2000/svg" version="1.1" viewBox="0.000000 0.000000 40.640000 128.500000" height="128.500000mm" width="40.640000mm">
  <defs/>
  <g>
    <rect x="0.25" y="0.25" width="40.14" height="128" fill="#fff0f0" stroke="#990000" stroke-width="0.5"/>
    <g style="font-weight:bold;font-size:4.064px;font-family:'Proxima Nova';dominant-baseline:alphabetic;text-anchor:middle;fill:#990000">
      <path d="m 4.5068482,9 h 1.471168 c 0.5161281,0 0.7884161,-0.32512 0.7884161,-0.73152 0,-0.341376 -0.231648,-0.621792 -0.5201921,-0.666496 0.2560321,-0.052832 0.4673601,-0.2804161 0.4673601,-0.6217921 0,-0.361696 -0.26416,-0.69088 -0.7802881,-0.69088 h -1.426464 z m 0.577088,-1.6215361 v -0.597408 h 0.723392 c 0.195072,0 0.316992,0.130048 0.316992,0.296672 0,0.174752 -0.12192,0.300736 -0.316992,0.300736 z m 0,1.1297921 V 7.870208 h 0.743712 c 0.227584,0 0.349504,0.146304 0.349504,0.316992 0,0.195072 -0.130048,0.321056 -0.349504,0.321056 z" style="font-weight:bold;font-size:4.064px;font-family:'Proxima Nova';dominant-baseline:alphabetic;text-anchor:middle;fill:#990000"/>
      <path d="m 7.0676128,7.646688 c 0,0.816864 0.597408,1.40208 1.414272,1.40208 0.820928,0 1.4183361,-0.585216 1.4183361,-1.40208 0,-0.8168641 -0.5974081,-1.4020801 -1.4183361,-1.4020801 -0.816864,0 -1.414272,0.585216 -1.414272,1.4020801 z m 2.239264,0 c 0,0.503936 -0.32512,0.890016 -0.824992,0.890016 -0.499872,0 -0.820928,-0.38608 -0.820928,-0.890016 0,-0.5080001 0.321056,-0.8900161 0.820928,-0.8900161 0.499872,0 0.824992,0.382016 0.824992,0.8900161 z" style="font-weight:bold;font-size:4.064px;font-family:'Proxima Nova';dominant-baseline:alphabetic;text-anchor:middle;fill:#990000"/>
      <path d="m 10.179113,7.646688 c 0,0.816864 0.597408,1.40208 1.414272,1.40208 0.820928,0 1.418336,-0.585216 1.418336,-1.40208 0,-0.8168641 -0.597408,-1.4020801 -1.418336,-1.4020801 -0.816864,0 -1.414272,0.585216 -1.414272,1.4020801 z m 2.239264,0 c 0,0.503936 -0.32512,0.890016 -0.824992,0.890016 -0.499872,0 -0.820928,-0.38608 -0.820928,-0.890016 0,-0.5080001 0.321056,-0.8900161 0.820928,-0.8900161 0.499872,0 0.824992,0.382016 0.824992,0.8900161 z" style="font-weight:bold;font-size:4.064px;font-family:'Proxima Nova';dominant-baseline:alphabetic;text-anchor:middle;fill:#990000"/>
      <path d="m 13.233717,8.617984 c 0.256032,0.256032 0.62992,0.430784 1.150112,0.430784 0.73152,0 1.085088,-0.373888 1.085088,-0.869696 0,-0.601472 -0.56896,-0.735584 -1.016,-0.8371841 -0.312928,-0.073152 -0.540512,-0.130048 -0.540512,-0.312928 0,-0.16256 0.138176,-0.276352 0.398272,-0.276352 0.26416,0 0.556768,0.093472 0.776224,0.296672 l 0.321056,-0.422656 c -0.268224,-0.247904 -0.625856,-0.377952 -1.05664,-0.377952 -0.638048,0 -1.028192,0.36576 -1.028192,0.816864 0,0.6055361 0.56896,0.7274561 1.011936,0.8290561 0.312928,0.073152 0.54864,0.14224 0.54864,0.34544 0,0.154432 -0.154432,0.3048 -0.471424,0.3048 -0.373888,0 -0.67056,-0.166624 -0.861568,-0.36576 z" style="font-weight:bold;font-size:4.064px;font-family:'Proxima Nova';dominant-baseline:alphabetic;text-anchor:middle;fill:#990000"/>
      <path d="m 16.45158,9 h 0.581152 V 6.7973119 h 0.788416 v -0.508 h -2.162049 v 0.508 h 0.792481 z" style="font-weight:bold;font-size:4.064px;font-family:'Proxima Nova';dominant-baseline:alphabetic;text-anchor:middle;fill:#990000"/>
      <path d="m 18.191098,9 h 1.918208 V 8.500128 h -1.34112 v -0.62992 h 1.312672 V 7.3743999 h -1.312672 v -0.58928 h 1.34112 v -0.495808 h -1.918208 z" style="font-weight:bold;font-size:4.064px;font-family:'Proxima Nova';dominant-baseline:alphabetic;text-anchor:middle;fill:#990000"/>
      <path d="m 22.09654,9 h 0.662432 l -0.6096,-1.032256 c 0.292608,-0.069088 0.593344,-0.32512 0.593344,-0.8046721 0,-0.503936 -0.34544,-0.87376 -0.910336,-0.87376 H 20.564412 V 9 H 21.1415 V 8.028704 h 0.422656 z m 0.0569,-1.8409921 c 0,0.227584 -0.174752,0.3738881 -0.4064,0.3738881 H 21.1415 V 6.7851199 h 0.605536 c 0.231648,0 0.4064,0.146304 0.4064,0.373888 z" style="font-weight:bold;font-size:4.064px;font-family:'Proxima Nova';dominant-baseline:alphabetic;text-anchor:middle;fill:#990000"/>
      <path d="m 24.028717,8.617984 c 0.256032,0.256032 0.62992,0.430784 1.150112,0.430784 0.73152,0 1.085088,-0.373888 1.085088,-0.869696 0,-0.601472 -0.56896,-0.735584 -1.016,-0.8371841 -0.312928,-0.073152 -0.540512,-0.130048 -0.540512,-0.312928 0,-0.16256 0.138176,-0.276352 0.398272,-0.276352 0.26416,0 0.556768,0.093472 0.776224,0.296672 l 0.321056,-0.422656 c -0.268224,-0.247904 -0.625856,-0.377952 -1.05664,-0.377952 -0.638048,0 -1.028192,0.36576 -1.028192,0.816864 0,0.6055361 0.56896,0.7274561 1.011936,0.8290561 0.312928,0.073152 0.54864,0.14224 0.54864,0.34544 0,0.154432 -0.154432,0.3048 -0.471424,0.3048 -0.373888,0 -0.67056,-0.166624 -0.861568,-0.36576 z" style="font-weight:bold;font-size:4.064px;font-family:'Proxima Nova';dominant-baseline:alphabetic;text-anchor:middle;fill:#990000"/>
      <path d="m 27.246581,9 h 0.581152 V 6.7973119 h 0.788416 v -0.508 h -2.162048 v 0.508 h 0.79248 z" style="font-weight:bold;font-size:4.064px;font-family:'Proxima Nova';dominant-baseline:alphabetic;text-anchor:middle;fill:#990000"/>
      <path d="m 30.62205,9 h 0.62992 L 30.207522,6.2893119 H 29.48413 L 28.435618,9 h 0.633984 L 29.24029,8.53264 h 1.211072 z m -0.776224,-2.2108161 0.44704,1.2435841 h -0.898144 z" style="font-weight:bold;font-size:4.064px;font-family:'Proxima Nova';dominant-baseline:alphabetic;text-anchor:middle;fill:#990000"/>
      <path d="m 31.237301,7.646688 c 0,0.85344 0.65024,1.406144 1.44272,1.406144 0.491744,0 0.877824,-0.2032 1.154176,-0.512064 v -1.03632 h -1.292352 v 0.495808 h 0.723392 V 8.32944 c -0.117856,0.105664 -0.337312,0.207264 -0.585216,0.207264 -0.491744,0 -0.849376,-0.377952 -0.849376,-0.890016 0,-0.5120641 0.357632,-0.8900161 0.849376,-0.8900161 0.28448,0 0.516128,0.150368 0.642112,0.341376 l 0.479552,-0.260096 c -0.207264,-0.321056 -0.560832,-0.593344 -1.121664,-0.593344 -0.79248,0 -1.44272,0.544576 -1.44272,1.4020801 z" style="font-weight:bold;font-size:4.064px;font-family:'Proxima Nova';dominant-baseline:alphabetic;text-anchor:middle;fill:#990000"/>
      <path d="m 34.296286,9 h 1.918208 V 8.500128 h -1.34112 v -0.62992 h 1.312672 V 7.3743999 h -1.312672 v -0.58928 h 1.34112 v -0.495808 h -1.918208 z" style="font-weight:bold;font-size:4.064px;font-family:'Proxima Nova';dominant-baseline:alphabetic;text-anchor:middle;fill:#990000"/>
    </g>
    <g style="font-weight:bold;font-size:4.064px;font-family:'Proxima Nova';dominant-baseline:hanging;text-anchor:middle;fill:#990000">
      <path d="m 16.456755,122.2581 h 1.068832 c 0.849376,0 1.438656,-0.53645 1.438656,-1.35331 0,-0.81687 -0.58928,-1.35738 -1.438656,-1.35738 h -1.068832 z m 0.577088,-0.508 v -1.69469 h 0.491744 c 0.556768,0 0.849376,0.36983 0.849376,0.84938 0,0.45923 -0.312928,0.84531 -0.849376,0.84531 z" style="font-weight:bold;font-size:4.064px;font-family:'Proxima Nova';dominant-baseline:hanging;text-anchor:middle;fill:#990000"/>
      <path d="m 21.235003,122.2581 h 0.581152 v -2.71069 h -0.581152 v 1.06477 h -1.28016 v -1.06477 h -0.577088 v 2.71069 h 0.577088 v -1.13792 h 1.28016 z" style="font-weight:bold;font-size:4.064px;font-family:'Proxima Nova';dominant-baseline:hanging;text-anchor:middle;fill:#990000"/>
      <path d="m 22.34638,122.2581 h 1.918208 v -0.49987 h -1.34112 v -0.62992 h 1.312672 v -0.49581 h -1.312672 v -0.58928 h 1.34112 v -0.49581 H 22.34638 Z" style="font-weight:bold;font-size:4.064px;font-family:'Proxima Nova';dominant-baseline:hanging;text-anchor:middle;fill:#990000"/>
    </g>
    <line x1="7.1066666666666665" y1="25" x2="33.53333333333333" y2="25" stroke="#990000" stroke-width="0.35"/>
    <g style="font-weight:bold;font-size:2.37067px;font-family:'Proxima Nova';dominant-baseline:alphabetic;text-anchor:middle;fill:#990000">
      <path d="m 6.3964296,19.828447 c 0.3603414,0 0.5594774,-0.192024 0.6732694,-0.388789 L 6.7804776,19.299789 c -0.066379,0.130386 -0.2086186,0.229954 -0.384048,0.229954 -0.2749973,0 -0.483616,-0.220472 -0.483616,-0.519176 0,-0.298704 0.2086187,-0.519176 0.483616,-0.519176 0.1754294,0 0.3176694,0.101939 0.384048,0.229955 L 7.069699,18.579106 C 6.9582776,18.382341 6.756771,18.192687 6.3964296,18.192687 c -0.46228,0 -0.8297333,0.331894 -0.8297333,0.81788 0,0.485987 0.3674533,0.81788 0.8297333,0.81788 z" style="font-weight:bold;font-size:2.37067px;font-family:'Proxima Nova';dominant-baseline:alphabetic;text-anchor:middle;fill:#990000"/>
      <path d="M 7.7064452,19.799999 H 8.1284239 L 8.7376852,18.218765 H 8.3536372 L 7.9174345,19.434917 7.4788612,18.218765 h -0.384048 z" style="font-weight:bold;font-size:2.37067px;font-family:'Proxima Nova';dominant-baseline:alphabetic;text-anchor:middle;fill:#990000"/>
    </g>
    <g style="font-weight:bold;font-size:3.048px;font-family:'Proxima Nova';dominant-baseline:alphabetic;text-anchor:middle;fill:#990000">
      <path d="m 16.103949,17.65 h 1.292352 v -0.381 h -0.859536 v -1.652016 h -0.432816 z" style="font-weight:bold;font-size:3.048px;font-family:'Proxima Nova';dominant-baseline:alphabetic;text-anchor:middle;fill:#990000"/>
      <path d="m 17.699386,17.65 h 1.438656 v -0.374904 h -1.00584 v -0.47244 h 0.984504 V 16.4308 h -0.984504 v -0.44196 h 1.00584 v -0.371856 h -1.438656 z" style="font-weight:bold;font-size:3.048px;font-family:'Proxima Nova';dominant-baseline:alphabetic;text-anchor:middle;fill:#990000"/>
      <path d="m 20.049347,17.65 h 0.542544 l 0.783336,-2.033016 h -0.493776 l -0.560832,1.563624 -0.56388,-1.563624 h -0.493776 z" style="font-weight:bold;font-size:3.048px;font-family:'Proxima Nova';dominant-baseline:alphabetic;text-anchor:middle;fill:#990000"/>
      <path d="m 21.562965,17.65 h 1.438656 v -0.374904 h -1.00584 v -0.47244 h 0.984504 V 16.4308 h -0.984504 v -0.44196 h 1.00584 v -0.371856 h -1.438656 z" style="font-weight:bold;font-size:3.048px;font-family:'Proxima Nova';dominant-baseline:alphabetic;text-anchor:middle;fill:#990000"/>
      <path d="m 23.342949,17.65 h 1.292352 v -0.381 h -0.859536 v -1.652016 h -0.432816 z" style="font-weight:bold;font-size:3.048px;font-family:'Proxima Nova';dominant-baseline:alphabetic;text-anchor:middle;fill:#990000"/>
    </g>
    <g style="font-weight:bold;font-size:2.37067px;font-family:'Proxima Nova';dominant-baseline:hanging;text-anchor:middle;fill:#990000">
      <path d="m 32.580862,30.608893 h 0.858181 c 0.301075,0 0.45991,-0.189653 0.45991,-0.42672 0,-0.199136 -0.135128,-0.362712 -0.303446,-0.388789 0.149352,-0.03082 0.272627,-0.163576 0.272627,-0.362712 0,-0.210989 -0.154093,-0.403013 -0.455168,-0.403013 h -0.832104 z m 0.336635,-0.945896 v -0.348488 h 0.421978 c 0.113792,0 0.184912,0.07586 0.184912,0.173059 0,0.101939 -0.07112,0.175429 -0.184912,0.175429 z m 0,0.659046 v -0.372195 h 0.433832 c 0.132757,0 0.203877,0.08534 0.203877,0.184912 0,0.113792 -0.07586,0.187283 -0.203877,0.187283 z" style="font-weight:bold;font-size:2.37067px;font-family:'Proxima Nova';dominant-baseline:hanging;text-anchor:middle;fill:#990000"/>
      <path d="m 34.150503,30.608893 h 0.336634 v -1.581234 h -0.336634 z" style="font-weight:bold;font-size:2.37067px;font-family:'Proxima Nova';dominant-baseline:hanging;text-anchor:middle;fill:#990000"/>
    </g>
    <g style="font-weight:bold;font-size:2.37067px;font-family:'Proxima Nova';dominant-baseline:alphabetic;text-anchor:middle;fill:#990000">
      <path d="m 31.638614,20.369403 c 0,0.388789 0.225214,0.659045 0.70883,0.659045 0.478875,0 0.704088,-0.267885 0.704088,-0.661416 v -0.948267 h -0.341376 v 0.938784 c 0,0.220472 -0.120904,0.372195 -0.362712,0.372195 -0.24655,0 -0.367454,-0.151723 -0.367454,-0.372195 v -0.938784 h -0.341376 z" style="font-weight:bold;font-size:2.37067px;font-family:'Proxima Nova';dominant-baseline:alphabetic;text-anchor:middle;fill:#990000"/>
      <path d="m 34.456189,21 h 0.324781 v -1.581235 h -0.336634 v 1.024128 L 33.7118,19.418765 H 33.365682 V 21 h 0.336635 v -1.062059 z" style="font-weight:bold;font-size:2.37067px;font-family:'Proxima Nova';dominant-baseline:alphabetic;text-anchor:middle;fill:#990000"/>
      <path d="m 35.09275,21 h 0.336635 V 19.418765 H 35.09275 Z" style="font-weight:bold;font-size:2.37067px;font-family:'Proxima Nova';dominant-baseline:alphabetic;text-anchor:middle;fill:#990000"/>
    </g>
    <line x1="7.1066666666666665" y1="43.5" x2="33.53333333333333" y2="43.5" stroke="#990000" stroke-width="0.35"/>
    <g style="font-weight:bold;font-size:2.37067px;font-family:'Proxima Nova';dominant-baseline:alphabetic;text-anchor:middle;fill:#990000">
      <path d="m 6.3964296,38.328447 c 0.3603414,0 0.5594774,-0.192024 0.6732694,-0.388789 L 6.7804776,37.799789 c -0.066379,0.130386 -0.2086186,0.229954 -0.384048,0.229954 -0.2749973,0 -0.483616,-0.220472 -0.483616,-0.519176 0,-0.298704 0.2086187,-0.519176 0.483616,-0.519176 0.1754294,0 0.3176694,0.101939 0.384048,0.229955 L 7.069699,37.079106 C 6.9582776,36.882341 6.756771,36.692687 6.3964296,36.692687 c -0.46228,0 -0.8297333,0.331894 -0.8297333,0.81788 0,0.485987 0.3674533,0.81788 0.8297333,0.81788 z" style="font-weight:bold;font-size:2.37067px;font-family:'Proxima Nova';dominant-baseline:alphabetic;text-anchor:middle;fill:#990000"/>
      <path d="M 7.7064452,38.299999 H 8.1284239 L 8.7376852,36.718765 H 8.3536372 L 7.9174345,37.934917 7.4788612,36.718765 h -0.384048 z" style="font-weight:bold;font-size:2.37067px;font-family:'Proxima Nova';dominant-baseline:alphabetic;text-anchor:middle;fill:#990000"/>
    </g>
    <g style="font-weight:bold;font-size:3.048px;font-family:'Proxima Nova';dominant-baseline:alphabetic;text-anchor:middle;fill:#990000">
      <path d="m 16.436228,36.186578 c 0.463296,0 0.719328,-0.246888 0.865632,-0.499872 l -0.371856,-0.179832 c -0.08534,0.16764 -0.268224,0.295656 -0.493776,0.295656 -0.353568,0 -0.621792,-0.283464 -0.621792,-0.667513 0,-0.384048 0.268224,-0.667512 0.621792,-0.667512 0.225552,0 0.408432,0.131064 0.493776,0.295656 l 0.371856,-0.18288 c -0.143256,-0.252984 -0.402336,-0.496824 -0.865632,-0.496824 -0.59436,0 -1.0668,0.42672 -1.0668,1.05156 0,0.624841 0.47244,1.051561 1.0668,1.051561 z" style="font-weight:bold;font-size:3.048px;font-family:'Proxima Nova';dominant-baseline:alphabetic;text-anchor:middle;fill:#990000"/>
      <path d="m 17.562464,35.339234 c 0,0.499872 0.28956,0.847344 0.911352,0.847344 0.615696,0 0.905256,-0.344424 0.905256,-0.850393 v -1.2192 H 18.94016 v 1.207008 c 0,0.283465 -0.155448,0.478537 -0.466344,0.478537 -0.316992,0 -0.47244,-0.195072 -0.47244,-0.478537 v -1.207008 h -0.438912 z" style="font-weight:bold;font-size:3.048px;font-family:'Proxima Nova';dominant-baseline:alphabetic;text-anchor:middle;fill:#990000"/>
      <path d="M 20.932076,36.150002 H 21.4289 L 20.9717,35.37581 c 0.219456,-0.05182 0.445008,-0.243841 0.445008,-0.603505 0,-0.377952 -0.25908,-0.65532 -0.682752,-0.65532 H 19.78298 v 2.033017 h 0.432816 V 35.42153 h 0.316992 z m 0.04267,-1.380745 c 0,0.170688 -0.131064,0.280416 -0.3048,0.280416 h -0.454152 v -0.560832 h 0.454152 c 0.173736,0 0.3048,0.109728 0.3048,0.280416 z" style="font-weight:bold;font-size:3.048px;font-family:'Proxima Nova';dominant-baseline:alphabetic;text-anchor:middle;fill:#990000"/>
      <path d="m 22.281769,36.150002 h 0.542544 l 0.783336,-2.033017 h -0.493776 l -0.560832,1.563625 -0.56388,-1.563625 h -0.493776 z" style="font-weight:bold;font-size:3.048px;font-family:'Proxima Nova';dominant-baseline:alphabetic;text-anchor:middle;fill:#990000"/>
      <path d="m 23.795387,36.150002 h 1.438656 v -0.374904 h -1.00584 v -0.472441 h 0.984504 v -0.371856 h -0.984504 v -0.44196 h 1.00584 v -0.371856 h -1.438656 z" style="font-weight:bold;font-size:3.048px;font-family:'Proxima Nova';dominant-baseline:alphabetic;text-anchor:middle;fill:#990000"/>
    </g>
    <g style="font-weight:bold;font-size:2.37067px;font-family:'Proxima Nova';dominant-baseline:hanging;text-anchor:middle;fill:#990000">
      <path d="m 32.971096,48.983246 c 0.113792,0.111421 0.263144,0.154093 0.424349,0.154093 0.324782,0 0.557107,-0.173058 0.557107,-0.547624 v -1.062058 h -0.336635 v 1.057317 c 0,0.154093 -0.0972,0.253661 -0.246549,0.253661 -0.109051,0 -0.189653,-0.05452 -0.251291,-0.113792 z" style="font-weight:bold;font-size:2.37067px;font-family:'Proxima Nova';dominant-baseline:hanging;text-anchor:middle;fill:#990000"/>
    </g>
    <g style="font-weight:bold;font-size:2.37067px;font-family:'Proxima Nova';dominant-baseline:alphabetic;text-anchor:middle;fill:#990000">
      <path d="m 32.870009,39.277157 c 0.149352,0.149352 0.367454,0.251291 0.670899,0.251291 0.42672,0 0.632968,-0.218101 0.632968,-0.507323 0,-0.350858 -0.331893,-0.42909 -0.592667,-0.488357 -0.182541,-0.04267 -0.315298,-0.07586 -0.315298,-0.182541 0,-0.09483 0.0806,-0.161206 0.232325,-0.161206 0.154093,0 0.324781,0.05453 0.452797,0.173059 l 0.187283,-0.246549 c -0.156464,-0.144611 -0.365083,-0.220472 -0.616373,-0.220472 -0.372195,0 -0.599779,0.21336 -0.599779,0.476504 0,0.353229 0.331893,0.424349 0.590296,0.483616 0.182541,0.04267 0.32004,0.08297 0.32004,0.201506 0,0.09009 -0.09009,0.1778 -0.274997,0.1778 -0.218102,0 -0.39116,-0.0972 -0.502582,-0.21336 z" style="font-weight:bold;font-size:2.37067px;font-family:'Proxima Nova';dominant-baseline:alphabetic;text-anchor:middle;fill:#990000"/>
    </g>
    <line x1="7.1066666666666665" y1="62" x2="33.53333333333333" y2="62" stroke="#990000" stroke-width="0.35"/>
    <g style="font-weight:bold;font-size:2.37067px;font-family:'Proxima Nova';dominant-baseline:alphabetic;text-anchor:middle;fill:#990000">
      <path d="m 6.3964296,56.828447 c 0.3603414,0 0.5594774,-0.192024 0.6732694,-0.388789 L 6.7804776,56.299789 c -0.066379,0.130386 -0.2086186,0.229954 -0.384048,0.229954 -0.2749973,0 -0.483616,-0.220472 -0.483616,-0.519176 0,-0.298704 0.2086187,-0.519176 0.483616,-0.519176 0.1754294,0 0.3176694,0.101939 0.384048,0.229955 L 7.069699,55.579106 C 6.9582776,55.382341 6.756771,55.192687 6.3964296,55.192687 c -0.46228,0 -0.8297333,0.331894 -0.8297333,0.81788 0,0.485987 0.3674533,0.81788 0.8297333,0.81788 z" style="font-weight:bold;font-size:2.37067px;font-family:'Proxima Nova';dominant-baseline:alphabetic;text-anchor:middle;fill:#990000"/>
      <path d="M 7.7064452,56.799999 H 8.1284239 L 8.7376852,55.218765 H 8.3536372 L 7.9174345,56.434917 7.4788612,55.218765 h -0.384048 z" style="font-weight:bold;font-size:2.37067px;font-family:'Proxima Nova';dominant-baseline:alphabetic;text-anchor:middle;fill:#990000"/>
    </g>
    <g style="font-weight:bold;font-size:3.048px;font-family:'Proxima Nova';dominant-baseline:alphabetic;text-anchor:middle;fill:#990000">
      <path d="m 12.811871,54.650002 h 0.801624 c 0.637032,0 1.078992,-0.402336 1.078992,-1.014985 0,-0.612648 -0.44196,-1.018032 -1.078992,-1.018032 h -0.801624 z m 0.432816,-0.381 v -1.271017 h 0.368808 c 0.417576,0 0.637032,0.277368 0.637032,0.637032 0,0.344425 -0.234696,0.633985 -0.637032,0.633985 z" style="font-weight:bold;font-size:3.048px;font-family:'Proxima Nova';dominant-baseline:alphabetic;text-anchor:middle;fill:#990000"/>
      <path d="m 15.002621,53.839234 c 0,0.499872 0.28956,0.847344 0.911352,0.847344 0.615696,0 0.905256,-0.344424 0.905256,-0.850393 v -1.2192 h -0.438912 v 1.207008 c 0,0.283465 -0.155448,0.478537 -0.466344,0.478537 -0.316992,0 -0.47244,-0.195072 -0.47244,-0.478537 v -1.207008 h -0.438912 z" style="font-weight:bold;font-size:3.048px;font-family:'Proxima Nova';dominant-baseline:alphabetic;text-anchor:middle;fill:#990000"/>
      <path d="m 18.372232,54.650002 h 0.496824 l -0.4572,-0.774192 c 0.219456,-0.05182 0.445008,-0.243841 0.445008,-0.603505 0,-0.377952 -0.25908,-0.65532 -0.682752,-0.65532 h -0.950976 v 2.033017 h 0.432816 V 53.92153 h 0.316992 z m 0.04267,-1.380745 c 0,0.170688 -0.131064,0.280416 -0.3048,0.280416 h -0.454152 v -0.560832 h 0.454152 c 0.173736,0 0.3048,0.109728 0.3048,0.280416 z" style="font-weight:bold;font-size:3.048px;font-family:'Proxima Nova';dominant-baseline:alphabetic;text-anchor:middle;fill:#990000"/>
      <path d="m 20.605131,54.650002 h 0.47244 l -0.783336,-2.033017 h -0.542544 l -0.786384,2.033017 h 0.475488 l 0.128016,-0.35052 h 0.908304 z m -0.582168,-1.658113 0.33528,0.932689 h -0.673608 z" style="font-weight:bold;font-size:3.048px;font-family:'Proxima Nova';dominant-baseline:alphabetic;text-anchor:middle;fill:#990000"/>
      <path d="m 21.538247,54.650002 h 0.435864 v -1.652017 h 0.591312 v -0.381 h -1.621536 v 0.381 h 0.59436 z" style="font-weight:bold;font-size:3.048px;font-family:'Proxima Nova';dominant-baseline:alphabetic;text-anchor:middle;fill:#990000"/>
      <path d="m 22.842887,54.650002 h 0.432816 v -2.033017 h -0.432816 z" style="font-weight:bold;font-size:3.048px;font-family:'Proxima Nova';dominant-baseline:alphabetic;text-anchor:middle;fill:#990000"/>
      <path d="m 23.578788,53.635017 c 0,0.612649 0.448056,1.051561 1.060704,1.051561 0.615696,0 1.063752,-0.438912 1.063752,-1.051561 0,-0.612648 -0.448056,-1.05156 -1.063752,-1.05156 -0.612648,0 -1.060704,0.438912 -1.060704,1.05156 z m 1.679448,0 c 0,0.377953 -0.24384,0.667513 -0.618744,0.667513 -0.374904,0 -0.615696,-0.28956 -0.615696,-0.667513 0,-0.381 0.240792,-0.667512 0.615696,-0.667512 0.374904,0 0.618744,0.286512 0.618744,0.667512 z" style="font-weight:bold;font-size:3.048px;font-family:'Proxima Nova';dominant-baseline:alphabetic;text-anchor:middle;fill:#990000"/>
      <path d="m 27.412029,54.650002 h 0.417576 v -2.033017 h -0.432816 v 1.316737 l -0.941832,-1.316737 h -0.445008 v 2.033017 h 0.432816 v -1.365505 z" style="font-weight:bold;font-size:3.048px;font-family:'Proxima Nova';dominant-baseline:alphabetic;text-anchor:middle;fill:#990000"/>
    </g>
    <g style="font-weight:bold;font-size:2.37067px;font-family:'Proxima Nova';dominant-baseline:hanging;text-anchor:middle;fill:#990000">
      <path d="m 33.526036,69.108895 h 0.339005 V 67.52766 h -0.293963 l -0.49784,0.500211 0.192024,0.201507 0.260774,-0.267886 z" style="font-weight:bold;font-size:2.37067px;font-family:'Proxima Nova';dominant-baseline:hanging;text-anchor:middle;fill:#990000"/>
    </g>
    <g style="font-weight:bold;font-size:2.37067px;font-family:'Proxima Nova';dominant-baseline:alphabetic;text-anchor:middle;fill:#990000">
      <path d="m 32.05826,56.5 h 0.339005 v -1.581235 h -0.293963 l -0.49784,0.500211 0.192024,0.201507 0.260774,-0.267886 z" style="font-weight:bold;font-size:2.37067px;font-family:'Proxima Nova';dominant-baseline:alphabetic;text-anchor:middle;fill:#990000"/>
      <path d="m 32.632331,55.710568 c 0,0.407755 0.201507,0.81788 0.654304,0.81788 0.450427,0 0.654304,-0.410125 0.654304,-0.81788 0,-0.407755 -0.203877,-0.815509 -0.654304,-0.815509 -0.452797,0 -0.654304,0.407754 -0.654304,0.815509 z m 0.964862,0 c 0,0.291592 -0.08534,0.519176 -0.310558,0.519176 -0.227584,0 -0.312928,-0.227584 -0.312928,-0.519176 0,-0.291592 0.08534,-0.516805 0.312928,-0.516805 0.225214,0 0.310558,0.225213 0.310558,0.516805 z" style="font-weight:bold;font-size:2.37067px;font-family:'Proxima Nova';dominant-baseline:alphabetic;text-anchor:middle;fill:#990000"/>
      <path d="m 34.100107,55.710568 c 0,0.407755 0.201507,0.81788 0.654304,0.81788 0.450427,0 0.654304,-0.410125 0.654304,-0.81788 0,-0.407755 -0.203877,-0.815509 -0.654304,-0.815509 -0.452797,0 -0.654304,0.407754 -0.654304,0.815509 z m 0.964862,0 c 0,0.291592 -0.08534,0.519176 -0.310558,0.519176 -0.227584,0 -0.312928,-0.227584 -0.312928,-0.519176 0,-0.291592 0.08534,-0.516805 0.312928,-0.516805 0.225214,0 0.310558,0.225213 0.310558,0.516805 z" style="font-weight:bold;font-size:2.37067px;font-family:'Proxima Nova';dominant-baseline:alphabetic;text-anchor:middle;fill:#990000"/>
    </g>
    <g style="font-weight:bold;font-size:2.37067px;font-family:'Proxima Nova';dominant-baseline:middle;fill:#990000">
      <path d="m 36.512208,62.856997 h 0.339005 V 61.275762 H 36.55725 l -0.49784,0.500211 0.192024,0.201507 0.260774,-0.267886 z" style="font-weight:bold;font-size:2.37067px;font-family:'Proxima Nova';dominant-baseline:middle;fill:#990000"/>
      <path d="m 37.086279,62.067565 c 0,0.407755 0.201507,0.81788 0.654304,0.81788 0.450427,0 0.654304,-0.410125 0.654304,-0.81788 0,-0.407755 -0.203877,-0.815509 -0.654304,-0.815509 -0.452797,0 -0.654304,0.407754 -0.654304,0.815509 z m 0.964862,0 c 0,0.291592 -0.08534,0.519176 -0.310558,0.519176 -0.227584,0 -0.312928,-0.227584 -0.312928,-0.519176 0,-0.291592 0.08534,-0.516805 0.312928,-0.516805 0.225214,0 0.310558,0.225213 0.310558,0.516805 z" style="font-weight:bold;font-size:2.37067px;font-family:'Proxima Nova';dominant-baseline:middle;fill:#990000"/>
    </g>
    <rect x="1.9066666666666663" y="74.21955555555556" width="17.4" height="12.980444444444444" rx="1" ry="1" fill="#fff0f0" stroke="#990000" stroke-width="0.35"/>
    <g style="font-weight:bold;font-size:2.37067px;font-family:'Proxima Nova';dominant-baseline:alphabetic;text-anchor:middle;fill:#990000">
      <path d="m 3.5890601,76.800003 h 0.6234854 c 0.4954693,0 0.839216,-0.312928 0.839216,-0.789432 0,-0.476504 -0.3437467,-0.791803 -0.839216,-0.791803 H 3.5890601 Z M 3.9256948,76.50367 v -0.988568 h 0.2868507 c 0.3247813,0 0.4954693,0.21573 0.4954693,0.495469 0,0.267885 -0.1825413,0.493099 -0.4954693,0.493099 z" style="font-weight:bold;font-size:2.37067px;font-family:'Proxima Nova';dominant-baseline:alphabetic;text-anchor:middle;fill:#990000"/>
      <path d="m 5.2929768,76.800003 h 1.1189547 v -0.291592 h -0.78232 V 76.140958 H 6.3953368 V 75.851736 H 5.6296115 V 75.50799 h 0.78232 V 75.218768 H 5.2929768 Z" style="font-weight:bold;font-size:2.37067px;font-family:'Proxima Nova';dominant-baseline:alphabetic;text-anchor:middle;fill:#990000"/>
      <path d="M 6.677409,76.800003 H 7.0140437 V 76.140958 H 7.779769 V 75.851736 H 7.0140437 V 75.50799 h 0.78232 V 75.218768 H 6.677409 Z" style="font-weight:bold;font-size:2.37067px;font-family:'Proxima Nova';dominant-baseline:alphabetic;text-anchor:middle;fill:#990000"/>
      <path d="m 8.0294297,76.800003 h 1.1189547 v -0.291592 h -0.78232 V 76.140958 H 9.1317898 V 75.851736 H 8.3660644 V 75.50799 h 0.78232 V 75.218768 H 8.0294297 Z" style="font-weight:bold;font-size:2.37067px;font-family:'Proxima Nova';dominant-baseline:alphabetic;text-anchor:middle;fill:#990000"/>
      <path d="m 10.307604,76.800003 h 0.386419 l -0.3556,-0.602149 c 0.170688,-0.0403 0.346117,-0.189654 0.346117,-0.469392 0,-0.293963 -0.201507,-0.509694 -0.531029,-0.509694 H 9.4138625 v 1.581235 h 0.3366347 v -0.566589 h 0.2465494 z m 0.03319,-1.073912 c 0,0.132757 -0.101938,0.218101 -0.237066,0.218101 H 9.7504972 V 75.50799 h 0.3532298 c 0.135128,0 0.237066,0.08534 0.237066,0.218101 z" style="font-weight:bold;font-size:2.37067px;font-family:'Proxima Nova';dominant-baseline:alphabetic;text-anchor:middle;fill:#990000"/>
    </g>
    <rect x="21.333333333333332" y="74.21955555555556" width="17.4" height="12.980444444444444" rx="1" ry="1" fill="#990000" stroke="#990000" stroke-width="0.35"/>
    <g style="font-weight:bold;font-size:2.37067px;font-family:'Proxima Nova';dominant-baseline:alphabetic;text-anchor:middle;fill:#fff0f0">
      <path d="m 30.694533,76.800003 h 0.367454 l -0.609262,-1.581235 h -0.421978 l -0.611632,1.581235 h 0.369824 l 0.09957,-0.272627 h 0.706458 z m -0.452797,-1.289643 0.260773,0.725424 h -0.523917 z" style="font-weight:bold;font-size:2.37067px;font-family:'Proxima Nova';dominant-baseline:alphabetic;text-anchor:middle;fill:#fff0f0"/>
      <path d="m 31.883164,76.828451 c 0.360341,0 0.559477,-0.192024 0.673269,-0.388789 l -0.289221,-0.13987 c -0.06638,0.130387 -0.208619,0.229955 -0.384048,0.229955 -0.274998,0 -0.483616,-0.220472 -0.483616,-0.519176 0,-0.298704 0.208618,-0.519176 0.483616,-0.519176 0.175429,0 0.317669,0.101939 0.384048,0.229955 l 0.289221,-0.14224 c -0.111421,-0.196766 -0.312928,-0.386419 -0.673269,-0.386419 -0.46228,0 -0.829734,0.331893 -0.829734,0.81788 0,0.485987 0.367454,0.81788 0.829734,0.81788 z" style="font-weight:bold;font-size:2.37067px;font-family:'Proxima Nova';dominant-baseline:alphabetic;text-anchor:middle;fill:#fff0f0"/>
      <path d="m 33.124208,76.800003 h 0.339005 v -1.284901 h 0.459909 v -0.296334 h -1.261194 v 0.296334 h 0.46228 z" style="font-weight:bold;font-size:2.37067px;font-family:'Proxima Nova';dominant-baseline:alphabetic;text-anchor:middle;fill:#fff0f0"/>
      <path d="m 34.138927,76.800003 h 0.336634 v -1.581235 h -0.336634 z" style="font-weight:bold;font-size:2.37067px;font-family:'Proxima Nova';dominant-baseline:alphabetic;text-anchor:middle;fill:#fff0f0"/>
      <path d="m 35.230471,76.800003 h 0.421979 l 0.609261,-1.581235 H 35.877663 L 35.44146,76.43492 35.002887,75.218768 h -0.384048 z" style="font-weight:bold;font-size:2.37067px;font-family:'Proxima Nova';dominant-baseline:alphabetic;text-anchor:middle;fill:#fff0f0"/>
      <path d="m 36.407729,76.800003 h 1.118955 v -0.291592 h -0.78232 v -0.367453 h 0.765725 V 75.851736 H 36.744364 V 75.50799 h 0.78232 v -0.289222 h -1.118955 z" style="font-weight:bold;font-size:2.37067px;font-family:'Proxima Nova';dominant-baseline:alphabetic;text-anchor:middle;fill:#fff0f0"/>
    </g>
    <rect x="1.9066666666666663" y="89.21955555555556" width="17.4" height="12.980444444444444" rx="1" ry="1" fill="#fff0f0" stroke="#990000" stroke-width="0.35"/>
    <g style="font-weight:bold;font-size:2.37067px;font-family:'Proxima Nova';dominant-baseline:alphabetic;text-anchor:middle;fill:#990000">
      <path d="M 4.9982548,91.800003 H 5.3372602 V 90.515102 H 5.7971695 V 90.218768 H 4.5359748 v 0.296334 h 0.46228 z" style="font-weight:bold;font-size:2.37067px;font-family:'Proxima Nova';dominant-baseline:alphabetic;text-anchor:middle;fill:#990000"/>
      <path d="m 6.9067156,91.800003 h 0.3864187 l -0.3556,-0.602149 c 0.170688,-0.0403 0.3461173,-0.189654 0.3461173,-0.469392 0,-0.293963 -0.2015066,-0.509694 -0.5310293,-0.509694 h -0.739648 v 1.581235 h 0.3366346 v -0.566589 h 0.2465494 z m 0.033189,-1.073912 c 0,0.132757 -0.1019387,0.218101 -0.2370667,0.218101 H 6.3496089 V 90.50799 h 0.3532294 c 0.135128,0 0.2370667,0.08534 0.2370667,0.218101 z" style="font-weight:bold;font-size:2.37067px;font-family:'Proxima Nova';dominant-baseline:alphabetic;text-anchor:middle;fill:#990000"/>
      <path d="M 7.5363127,91.800003 H 7.8729474 V 90.218768 H 7.5363127 Z" style="font-weight:bold;font-size:2.37067px;font-family:'Proxima Nova';dominant-baseline:alphabetic;text-anchor:middle;fill:#990000"/>
      <path d="m 8.1086807,91.010571 c 0,0.49784 0.3793067,0.820251 0.8415867,0.820251 0.2868507,0 0.512064,-0.118534 0.6732694,-0.298704 v -0.60452 H 8.8696647 v 0.289221 h 0.4219787 v 0.192024 c -0.068749,0.06164 -0.1967653,0.120904 -0.341376,0.120904 -0.2868507,0 -0.4954693,-0.220472 -0.4954693,-0.519176 0,-0.298704 0.2086186,-0.519176 0.4954693,-0.519176 0.1659467,0 0.3010747,0.08772 0.3745654,0.199136 l 0.2797386,-0.151723 c -0.120904,-0.187282 -0.327152,-0.346117 -0.654304,-0.346117 -0.46228,0 -0.8415867,0.317669 -0.8415867,0.81788 z" style="font-weight:bold;font-size:2.37067px;font-family:'Proxima Nova';dominant-baseline:alphabetic;text-anchor:middle;fill:#990000"/>
    </g>
    <rect x="21.333333333333332" y="89.21955555555556" width="17.4" height="12.980444444444444" rx="1" ry="1" fill="#990000" stroke="#990000" stroke-width="0.35"/>
    <g style="font-weight:bold;font-size:2.37067px;font-family:'Proxima Nova';dominant-baseline:alphabetic;text-anchor:middle;fill:#fff0f0">
      <path d="m 31.275143,91.800003 h 1.118955 v -0.291592 h -0.78232 v -0.367453 h 0.765725 V 90.851736 H 31.611778 V 90.50799 h 0.78232 v -0.289222 h -1.118955 z" style="font-weight:bold;font-size:2.37067px;font-family:'Proxima Nova';dominant-baseline:alphabetic;text-anchor:middle;fill:#fff0f0"/>
      <path d="m 32.583714,91.010571 c 0,0.476504 0.348488,0.81788 0.824992,0.81788 0.478875,0 0.827363,-0.341376 0.827363,-0.81788 0,-0.476504 -0.348488,-0.81788 -0.827363,-0.81788 -0.476504,0 -0.824992,0.341376 -0.824992,0.81788 z m 1.306237,0 c 0,0.293963 -0.189653,0.519176 -0.481245,0.519176 -0.291592,0 -0.478875,-0.225213 -0.478875,-0.519176 0,-0.296333 0.187283,-0.519176 0.478875,-0.519176 0.291592,0 0.481245,0.222843 0.481245,0.519176 z" style="font-weight:bold;font-size:2.37067px;font-family:'Proxima Nova';dominant-baseline:alphabetic;text-anchor:middle;fill:#fff0f0"/>
      <path d="m 35.228489,91.828451 c 0.360342,0 0.559478,-0.192024 0.67327,-0.388789 l -0.289222,-0.13987 c -0.06638,0.130387 -0.208618,0.229955 -0.384048,0.229955 -0.274997,0 -0.483616,-0.220472 -0.483616,-0.519176 0,-0.298704 0.208619,-0.519176 0.483616,-0.519176 0.17543,0 0.31767,0.101939 0.384048,0.229955 l 0.289222,-0.14224 c -0.111422,-0.196766 -0.312928,-0.386419 -0.67327,-0.386419 -0.46228,0 -0.829733,0.331893 -0.829733,0.81788 0,0.485987 0.367453,0.81788 0.829733,0.81788 z" style="font-weight:bold;font-size:2.37067px;font-family:'Proxima Nova';dominant-baseline:alphabetic;text-anchor:middle;fill:#fff0f0"/>
    </g>
    <rect x="1.9066666666666663" y="104.21955555555556" width="10.4" height="12.980444444444444" rx="1" ry="1" fill="#fff0f0" stroke="#990000" stroke-width="0.35"/>
    <g style="font-weight:bold;font-size:2.37067px;font-family:'Proxima Nova';dominant-baseline:alphabetic;text-anchor:middle;fill:#990000">
      <path d="m 6.0754821,106.8 h 0.3366347 v -1.58123 H 6.0754821 Z" style="font-weight:bold;font-size:2.37067px;font-family:'Proxima Nova';dominant-baseline:alphabetic;text-anchor:middle;fill:#990000"/>
      <path d="m 7.814218,106.8 h 0.3247813 v -1.58123 H 7.8023646 v 1.02413 l -0.732536,-1.02413 H 6.7237113 V 106.8 H 7.060346 v -1.06206 z" style="font-weight:bold;font-size:2.37067px;font-family:'Proxima Nova';dominant-baseline:alphabetic;text-anchor:middle;fill:#990000"/>
    </g>
    <rect x="28.333333333333332" y="104.21955555555556" width="10.4" height="12.980444444444444" rx="1" ry="1" fill="#990000" stroke="#990000" stroke-width="0.35"/>
    <g style="font-weight:bold;font-size:2.37067px;font-family:'Proxima Nova';dominant-baseline:alphabetic;text-anchor:middle;fill:#fff0f0">
      <path d="m 31.15298,106.01057 c 0,0.47651 0.348488,0.81788 0.824992,0.81788 0.478874,0 0.827362,-0.34137 0.827362,-0.81788 0,-0.4765 -0.348488,-0.81788 -0.827362,-0.81788 -0.476504,0 -0.824992,0.34138 -0.824992,0.81788 z m 1.306237,0 c 0,0.29396 -0.189653,0.51918 -0.481245,0.51918 -0.291592,0 -0.478875,-0.22522 -0.478875,-0.51918 0,-0.29633 0.187283,-0.51917 0.478875,-0.51917 0.291592,0 0.481245,0.22284 0.481245,0.51917 z" style="font-weight:bold;font-size:2.37067px;font-family:'Proxima Nova';dominant-baseline:alphabetic;text-anchor:middle;fill:#fff0f0"/>
      <path d="m 33.043883,106.16941 c 0,0.38879 0.225213,0.65904 0.708829,0.65904 0.478875,0 0.704088,-0.26788 0.704088,-0.66141 v -0.94827 h -0.341376 v 0.93878 c 0,0.22047 -0.120904,0.3722 -0.362712,0.3722 -0.246549,0 -0.367453,-0.15173 -0.367453,-0.3722 v -0.93878 h -0.341376 z" style="font-weight:bold;font-size:2.37067px;font-family:'Proxima Nova';dominant-baseline:alphabetic;text-anchor:middle;fill:#fff0f0"/>
      <path d="m 35.136033,106.8 h 0.339006 v -1.2849 h 0.459909 v -0.29633 h -1.261195 v 0.29633 h 0.46228 z" style="font-weight:bold;font-size:2.37067px;font-family:'Proxima Nova';dominant-baseline:alphabetic;text-anchor:middle;fill:#fff0f0"/>
    </g>
  </g>
  <g>
    <g transform="translate(7.106667 25.000000)">
      <circle r="4.2" fill="#990000" stroke="none"/>
      <circle r="3.5" fill="none" stroke="#fff0f0" stroke-width="0.95"/>
      <circle r="2.325" fill="none" stroke="#fff0f0" stroke-width="0.95"/>
    </g>
    <g transform="translate(20.320000 25.000000)">
      <circle r="6.35" fill="#990000"/>
      <line y2="-5.5562499999999995" stroke="#fff0f0" stroke-width="0.79375" stroke-linecap="round"/>
    </g>
    <g transform="translate(33.533333 25.000000)">
      <rect x="-1.3125" y="-2.8125" width="2.625" height="5.625" rx="0.1875" ry="0.1875" fill="#fff0f0" stroke="#990000" stroke-width="0.375"/>
      <g transform="translate(0.000000 1.250000)">
        <line x1="-0.8125" y1="-1" x2="0.8125" y2="-1" stroke="#990000" stroke-width="0.25" stroke-linecap="round"/>
        <line x1="-0.8125" y1="-0.5" x2="0.8125" y2="-0.5" stroke="#990000" stroke-width="0.25" stroke-linecap="round"/>
        <line x1="-0.8125" x2="0.8125" stroke="#990000" stroke-width="0.25" stroke-linecap="round"/>
        <line x1="-0.8125" y1="0.5" x2="0.8125" y2="0.5" stroke="#990000" stroke-width="0.25" stroke-linecap="round"/>
        <line x1="-0.8125" y1="1" x2="0.8125" y2="1" stroke="#990000" stroke-width="0.25" stroke-linecap="round"/>
      </g>
    </g>
    <g transform="translate(7.106667 43.500000)">
      <circle r="4.2" fill="#990000" stroke="none"/>
      <circle r="3.5" fill="none" stroke="#fff0f0" stroke-width="0.95"/>
      <circle r="2.325" fill="none" stroke="#fff0f0" stroke-width="0.95"/>
    </g>
    <g transform="translate(20.320000 43.500000)">
      <circle r="6.35" fill="#990000"/>
      <line y2="-5.5562499999999995" stroke="#fff0f0" stroke-width="0.79375" stroke-linecap="round"/>
    </g>
    <g transform="translate(33.533333 43.500000)">
      <rect x="-1.3125" y="-2.8125" width="2.625" height="5.625" rx="0.1875" ry="0.1875" fill="#fff0f0" stroke="#990000" stroke-width="0.375"/>
      <g transform="translate(0.000000 1.250000)">
        <line x1="-0.8125" y1="-1" x2="0.8125" y2="-1" stroke="#990000" stroke-width="0.25" stroke-linecap="round"/>
        <line x1="-0.8125" y1="-0.5" x2="0.8125" y2="-0.5" stroke="#990000" stroke-width="0.25" stroke-linecap="round"/>
        <line x1="-0.8125" x2="0.8125" stroke="#990000" stroke-width="0.25" stroke-linecap="round"/>
        <line x1="-0.8125" y1="0.5" x2="0.8125" y2="0.5" stroke="#990000" stroke-width="0.25" stroke-linecap="round"/>
        <line x1="-0.8125" y1="1" x2="0.8125" y2="1" stroke="#990000" stroke-width="0.25" stroke-linecap="round"/>
      </g>
    </g>
    <g transform="translate(7.106667 62.000000)">
      <circle r="4.2" fill="#990000" stroke="none"/>
      <circle r="3.5" fill="none" stroke="#fff0f0" stroke-width="0.95"/>
      <circle r="2.325" fill="none" stroke="#fff0f0" stroke-width="0.95"/>
    </g>
    <g transform="translate(20.320000 62.000000)">
      <circle r="6.35" fill="#990000"/>
      <line y2="-5.5562499999999995" stroke="#fff0f0" stroke-width="0.79375" stroke-linecap="round"/>
    </g>
    <g transform="translate(33.533333 62.000000)">
      <rect x="-1.3125" y="-4.3125" width="2.625" height="8.625" rx="0.1875" ry="0.1875" fill="#fff0f0" stroke="#990000" stroke-width="0.375"/>
      <g transform="translate(0.000000 0.000000)">
        <line x1="-0.8125" y1="-1" x2="0.8125" y2="-1" stroke="#990000" stroke-width="0.25" stroke-linecap="round"/>
        <line x1="-0.8125" y1="-0.5" x2="0.8125" y2="-0.5" stroke="#990000" stroke-width="0.25" stroke-linecap="round"/>
        <line x1="-0.8125" x2="0.8125" stroke="#990000" stroke-width="0.25" stroke-linecap="round"/>
        <line x1="-0.8125" y1="0.5" x2="0.8125" y2="0.5" stroke="#990000" stroke-width="0.25" stroke-linecap="round"/>
        <line x1="-0.8125" y1="1" x2="0.8125" y2="1" stroke="#990000" stroke-width="0.25" stroke-linecap="round"/>
      </g>
    </g>
    <g transform="translate(7.106667 82.000000)">
      <circle r="4.2" fill="#990000" stroke="none"/>
      <circle r="3.5" fill="none" stroke="#fff0f0" stroke-width="0.95"/>
      <circle r="2.325" fill="none" stroke="#fff0f0" stroke-width="0.95"/>
    </g>
    <circle cx="15.306666666666665" cy="82" r="2.5" fill="#990000" stroke="#990000" stroke-width="1"/>
    <g transform="translate(33.533333 82.000000)">
      <circle r="4.2" fill="#990000" stroke="none"/>
      <circle r="3.5" fill="none" stroke="#fff0f0" stroke-width="0.95"/>
      <circle r="2.325" fill="none" stroke="#fff0f0" stroke-width="0.95"/>
    </g>
    <circle cx="25.333333333333332" cy="82" r="2.5" fill="#fff0f0" stroke="#fff0f0" stroke-width="1"/>
    <g transform="translate(7.106667 97.000000)">
      <circle r="4.2" fill="#990000" stroke="none"/>
      <circle r="3.5" fill="none" stroke="#fff0f0" stroke-width="0.95"/>
      <circle r="2.325" fill="none" stroke="#fff0f0" stroke-width="0.95"/>
    </g>
    <circle cx="15.306666666666665" cy="97" r="2.5" fill="#990000" stroke="#990000" stroke-width="1"/>
    <g transform="translate(33.533333 97.000000)">
      <circle r="4.2" fill="#990000" stroke="none"/>
      <circle r="3.5" fill="none" stroke="#fff0f0" stroke-width="0.95"/>
      <circle r="2.325" fill="none" stroke="#fff0f0" stroke-width="0.95"/>
    </g>
    <circle cx="25.333333333333332" cy="97" r="2.5" fill="#fff0f0" stroke="#fff0f0" stroke-width="1"/>
    <g transform="translate(7.106667 112.000000)">
      <circle r="4.2" fill="#990000" stroke="none"/>
      <circle r="3.5" fill="none" stroke="#fff0f0" stroke-width="0.95"/>
      <circle r="2.325" fill="none" stroke="#fff0f0" stroke-width="0.95"/>
    </g>
    <g transform="translate(33.533333 112.000000)">
      <circle r="4.2" fill="#990000" stroke="none"/>
      <circle r="3.5" fill="none" stroke="#fff0f0" stroke-width="0.95"/>
      <circle r="2.325" fill="none" stroke="#fff0f0" stroke-width="0.95"/>
    </g>
  </g>
</svg>
