<?xml version="1.0" encoding="UTF-8" standalone="no"?>
<svg
   xmlns:dc="http://purl.org/dc/elements/1.1/"
   xmlns:cc="http://creativecommons.org/ns#"
   xmlns:rdf="http://www.w3.org/1999/02/22-rdf-syntax-ns#"
   xmlns:svg="http://www.w3.org/2000/svg"
   xmlns="http://www.w3.org/2000/svg"
   id="svg182"
   height="379.429"
   width="75.000"
   version="1.1">
  <metadata
     id="metadata188">
    <rdf:RDF>
      <cc:Work
         rdf:about="">
        <dc:format>image/svg+xml</dc:format>
        <dc:type
           rdf:resource="http://purl.org/dc/dcmitype/StillImage" />
      </cc:Work>
    </rdf:RDF>
  </metadata>
  <defs
     id="defs186" />
  <g
     id="g180"
     transform="scale(2.953)">
    <path
       d="m 1,0 h 23.4 c 0.554,0 1,0.446 1,1 v 126.5 c 0,0.554 -0.446,1 -1,1 H 1 c -0.554,0 -1,-0.446 -1,-1 V 1 C 0,0.446 0.446,0 1,0 Z"
       style="fill:#f0ffff;stroke:#009999;stroke-width:1"
       id="rect2" />
    <g
       id="g6"
       transform="translate(12.7,9)">
      <g
         style="font-weight:bold;font-size:4.064px;font-family:'Proxima Nova';dominant-baseline:alphabetic;text-anchor:middle;fill:#009999"
         id="text4"
         aria-label="CUBIC">
        <path
           id="path191"
           style="font-weight:bold;font-size:4.064px;font-family:'Proxima Nova';dominant-baseline:alphabetic;text-anchor:middle;fill:#009999"
           d="m -4.6147991,0.048768 c 0.617728,0 0.959104,-0.32918401 1.154176,-0.66649602 l -0.495808,-0.23977601 c -0.113792,0.22352001 -0.357632,0.39420802 -0.658368,0.39420802 -0.4714241,0 -0.8290561,-0.37795202 -0.8290561,-0.89001599 0,-0.5120641 0.357632,-0.8900161 0.8290561,-0.8900161 0.300736,0 0.544576,0.174752 0.658368,0.394208 l 0.495808,-0.24384 c -0.191008,-0.337312 -0.536448,-0.662432 -1.154176,-0.662432 -0.7924801,0 -1.4224001,0.56896 -1.4224001,1.4020801 0,0.83311998 0.62992,1.40208 1.4224001,1.40208 z" />
        <path
           id="path193"
           style="font-weight:bold;font-size:4.064px;font-family:'Proxima Nova';dominant-baseline:alphabetic;text-anchor:middle;fill:#009999"
           d="m -3.113151,-1.081024 c 0,0.66649599 0.38608,1.129792 1.215136,1.129792 0.820928,0 1.20700804,-0.45923201 1.20700804,-1.133856 V -2.7106881 H -1.276223 v 1.6093441 c 0,0.37795198 -0.207264,0.63804799 -0.621792,0.63804799 -0.422656,0 -0.62992,-0.26009601 -0.62992,-0.63804799 v -1.6093441 h -0.585216 z" />
        <path
           id="path195"
           style="font-weight:bold;font-size:4.064px;font-family:'Proxima Nova';dominant-baseline:alphabetic;text-anchor:middle;fill:#009999"
           d="m -0.1524634,0 h 1.471168 c 0.5161281,0 0.7884161,-0.32512001 0.7884161,-0.73152002 0,-0.34137598 -0.231648,-0.62179198 -0.520192,-0.66649598 0.256032,-0.052832 0.46736,-0.2804161 0.46736,-0.6217921 0,-0.361696 -0.26416,-0.69088 -0.7802881,-0.69088 h -1.426464 z m 0.57708802,-1.6215361 v -0.597408 H 1.1480166 c 0.195072,0 0.316992,0.130048 0.316992,0.296672 0,0.174752 -0.12192,0.300736 -0.316992,0.300736 z m 0,1.12979208 V -1.129792 H 1.1683366 c 0.227584,0 0.3495041,0.14630397 0.3495041,0.31699197 0,0.19507201 -0.1300481,0.32105601 -0.3495041,0.32105601 z" />
        <path
           id="path197"
           style="font-weight:bold;font-size:4.064px;font-family:'Proxima Nova';dominant-baseline:alphabetic;text-anchor:middle;fill:#009999"
           d="m 2.5383492,0 h 0.577088 v -2.7106881 h -0.577088 z" />
        <path
           id="path199"
           style="font-weight:bold;font-size:4.064px;font-family:'Proxima Nova';dominant-baseline:alphabetic;text-anchor:middle;fill:#009999"
           d="m 4.9419512,0.048768 c 0.617728,0 0.959104,-0.32918401 1.154176,-0.66649602 l -0.495808,-0.23977601 c -0.113792,0.22352001 -0.357632,0.39420802 -0.658368,0.39420802 -0.4714241,0 -0.8290561,-0.37795202 -0.8290561,-0.89001599 0,-0.5120641 0.357632,-0.8900161 0.8290561,-0.8900161 0.300736,0 0.544576,0.174752 0.658368,0.394208 l 0.495808,-0.24384 c -0.191008,-0.337312 -0.536448,-0.662432 -1.154176,-0.662432 -0.7924801,0 -1.4224001,0.56896 -1.4224001,1.4020801 0,0.83311998 0.62992,1.40208 1.4224001,1.40208 z" />
      </g>
    </g>
    <g
       id="g10"
       transform="translate(12.7,119.5)">
      <g
         style="font-weight:bold;font-size:4.064px;font-family:'Proxima Nova';dominant-baseline:hanging;text-anchor:middle;fill:#009999"
         id="text8"
         aria-label="DHE">
        <path
           id="path202"
           style="font-weight:bold;font-size:4.064px;font-family:'Proxima Nova';dominant-baseline:hanging;text-anchor:middle;fill:#009999"
           d="m -3.8632449,2.7584481 h 1.0688321 c 0.849376,0 1.438656,-0.5364481 1.438656,-1.3533121 0,-0.816864 -0.58928,-1.35737602 -1.438656,-1.35737602 H -3.8632449 Z M -3.2861569,2.250448 V 0.55575999 h 0.4917441 c 0.556768,0 0.849376,0.36982402 0.849376,0.84937601 0,0.459232 -0.312928,0.845312 -0.849376,0.845312 z" />
        <path
           id="path204"
           style="font-weight:bold;font-size:4.064px;font-family:'Proxima Nova';dominant-baseline:hanging;text-anchor:middle;fill:#009999"
           d="M 0.91500319,2.7584481 H 1.4961552 V 0.04775998 H 0.91500319 V 1.112528 H -0.36515685 V 0.04775998 H -0.94224487 V 2.7584481 h 0.57708802 V 1.620528 h 1.28016004 z" />
        <path
           id="path206"
           style="font-weight:bold;font-size:4.064px;font-family:'Proxima Nova';dominant-baseline:hanging;text-anchor:middle;fill:#009999"
           d="M 2.0263802,2.7584481 H 3.9445883 V 2.258576 H 2.6034682 V 1.628656 H 3.9161403 V 1.132848 H 2.6034682 V 0.54356799 H 3.9445883 V 0.04775998 H 2.0263802 Z" />
      </g>
    </g>
    <g
       id="g14"
       transform="translate(6.683,14.8)">
      <g
         style="font-weight:bold;font-size:2.371px;font-family:'Proxima Nova';dominant-baseline:alphabetic;text-anchor:middle;fill:#009999"
         id="text12"
         aria-label="CV">
        <path
           id="path209"
           style="font-weight:bold;font-size:2.371px;font-family:'Proxima Nova';dominant-baseline:alphabetic;text-anchor:middle;fill:#009999"
           d="m -0.7103368,0.028452 c 0.36039201,0 0.55955602,-0.192051 0.67336402,-0.38884401 l -0.28926201,-0.139889 c -0.066388,0.130405 -0.208648,0.229987 -0.38410201,0.229987 -0.275036,0 -0.483684,-0.220503 -0.483684,-0.51924901 0,-0.29874598 0.208648,-0.51924898 0.483684,-0.51924898 0.17545401,0 0.31771401,0.101953 0.38410201,0.229987 l 0.28926201,-0.14226 c -0.111437,-0.196793 -0.31297201,-0.386473 -0.67336402,-0.386473 -0.462345,0 -0.82985,0.33194 -0.82985,0.81799498 0,0.48605501 0.367505,0.81799502 0.82985,0.81799502 z" />
        <path
           id="path211"
           style="font-weight:bold;font-size:2.371px;font-family:'Proxima Nova';dominant-baseline:alphabetic;text-anchor:middle;fill:#009999"
           d="M 0.59986305,0 H 1.0219011 l 0.609347,-1.581457 H 1.2471461 L 0.81088205,-0.36513401 0.37224704,-1.581457 h -0.384102 z" />
      </g>
    </g>
    <g
       id="g20"
       transform="translate(18.717,14.8)">
      <g
         style="font-weight:bold;font-size:2.371px;font-family:'Proxima Nova';dominant-baseline:alphabetic;text-anchor:middle;fill:#009999"
         id="text18"
         aria-label="X3">
        <path
           id="path214"
           style="font-weight:bold;font-size:2.371px;font-family:'Proxima Nova';dominant-baseline:alphabetic;text-anchor:middle;fill:#009999"
           d="M -0.3009503,0 H 0.10211971 L -0.4716623,-0.81325302 0.06655471,-1.581457 H -0.3388863 l -0.358021,0.540588 -0.362763,-0.540588 h -0.400699 L -0.92215231,-0.81088202 -1.4959343,0 h 0.400699 l 0.398328,-0.57852401 z" />
        <path
           id="path216"
           style="baseline-shift:super"
           d="m 0.14235262,-1.173645 c 0.11617901,0.14226 0.33194001,0.25369698 0.62357302,0.25369698 0.37935996,0 0.62357306,-0.19205098 0.62357306,-0.46471598 0,-0.2371 -0.2086481,-0.362763 -0.3698761,-0.37936 0.175454,-0.030823 0.346166,-0.161228 0.346166,-0.360392 0,-0.2631811 -0.227616,-0.4291511 -0.59749196,-0.4291511 -0.27740701,0 -0.47657101,0.106695 -0.60460502,0.251326 l 0.16597001,0.2086481 c 0.111437,-0.106695 0.248955,-0.16597 0.40307001,-0.16597 0.16597,0 0.29400396,0.064017 0.29400396,0.18968 0,0.11855 -0.11617896,0.175454 -0.29163296,0.175454 -0.061646,0 -0.16834101,0 -0.19679301,-0.00237 v 0.294004 c 0.02371,-0.00237 0.130405,-0.00237 0.19679301,-0.00237 0.220503,0 0.31771396,0.059275 0.31771396,0.187309 0,0.120921 -0.10669496,0.203906 -0.29874596,0.203906 -0.15411501,0 -0.32719801,-0.066388 -0.43626401,-0.180196 z" />
      </g>
    </g>
    <g
       id="g24"
       transform="translate(6.683,29.8)">
      <g
         style="font-weight:bold;font-size:2.371px;font-family:'Proxima Nova';dominant-baseline:alphabetic;text-anchor:middle;fill:#009999"
         id="text22"
         aria-label="CV">
        <path
           id="path219"
           style="font-weight:bold;font-size:2.371px;font-family:'Proxima Nova';dominant-baseline:alphabetic;text-anchor:middle;fill:#009999"
           d="m -0.7103368,0.028452 c 0.36039201,0 0.55955602,-0.192051 0.67336402,-0.38884401 l -0.28926201,-0.139889 c -0.066388,0.130405 -0.208648,0.229987 -0.38410201,0.229987 -0.275036,0 -0.483684,-0.220503 -0.483684,-0.51924901 0,-0.29874598 0.208648,-0.51924898 0.483684,-0.51924898 0.17545401,0 0.31771401,0.101953 0.38410201,0.229987 l 0.28926201,-0.14226 c -0.111437,-0.196793 -0.31297201,-0.386473 -0.67336402,-0.386473 -0.462345,0 -0.82985,0.33194 -0.82985,0.81799498 0,0.48605501 0.367505,0.81799502 0.82985,0.81799502 z" />
        <path
           id="path221"
           style="font-weight:bold;font-size:2.371px;font-family:'Proxima Nova';dominant-baseline:alphabetic;text-anchor:middle;fill:#009999"
           d="M 0.59986305,0 H 1.0219011 l 0.609347,-1.581457 H 1.2471461 L 0.81088205,-0.36513401 0.37224704,-1.581457 h -0.384102 z" />
      </g>
    </g>
    <g
       id="g30"
       transform="translate(18.717,29.8)">
      <g
         style="font-weight:bold;font-size:2.371px;font-family:'Proxima Nova';dominant-baseline:alphabetic;text-anchor:middle;fill:#009999"
         id="text28"
         aria-label="X2">
        <path
           id="path224"
           style="font-weight:bold;font-size:2.371px;font-family:'Proxima Nova';dominant-baseline:alphabetic;text-anchor:middle;fill:#009999"
           d="m -0.31484287,0 h 0.40307 L -0.48555488,-0.81325302 0.05266213,-1.581457 h -0.405441 l -0.35802101,0.540588 -0.36276302,-0.540588 h -0.400699 L -0.93604489,-0.81088202 -1.5098269,0 h 0.400699 l 0.39832802,-0.57852401 z" />
        <path
           id="path226"
           style="baseline-shift:super"
           d="M 0.19247705,-0.94840002 H 1.3827191 V -1.244775 H 0.72358106 C 1.1479901,-1.543521 1.3708641,-1.77825 1.3708641,-2.048544 c 0,-0.3153431 -0.267923,-0.5050231 -0.60460504,-0.5050231 -0.22050301,0 -0.45523201,0.080614 -0.60934701,0.2584391 l 0.192051,0.222874 c 0.106695,-0.111437 0.244213,-0.182567 0.42203801,-0.182567 0.132776,0 0.25843904,0.068759 0.25843904,0.206277 0,0.194422 -0.18968004,0.358021 -0.83696305,0.834592 z" />
      </g>
    </g>
    <g
       id="g34"
       transform="translate(6.683,44.8)">
      <g
         style="font-weight:bold;font-size:2.371px;font-family:'Proxima Nova';dominant-baseline:alphabetic;text-anchor:middle;fill:#009999"
         id="text32"
         aria-label="CV">
        <path
           id="path229"
           style="font-weight:bold;font-size:2.371px;font-family:'Proxima Nova';dominant-baseline:alphabetic;text-anchor:middle;fill:#009999"
           d="m -0.7103368,0.028452 c 0.36039201,0 0.55955602,-0.192051 0.67336402,-0.38884401 l -0.28926201,-0.139889 c -0.066388,0.130405 -0.208648,0.229987 -0.38410201,0.229987 -0.275036,0 -0.483684,-0.220503 -0.483684,-0.51924901 0,-0.29874598 0.208648,-0.51924898 0.483684,-0.51924898 0.17545401,0 0.31771401,0.101953 0.38410201,0.229987 l 0.28926201,-0.14226 c -0.111437,-0.196793 -0.31297201,-0.386473 -0.67336402,-0.386473 -0.462345,0 -0.82985,0.33194 -0.82985,0.81799498 0,0.48605501 0.367505,0.81799502 0.82985,0.81799502 z" />
        <path
           id="path231"
           style="font-weight:bold;font-size:2.371px;font-family:'Proxima Nova';dominant-baseline:alphabetic;text-anchor:middle;fill:#009999"
           d="M 0.59986305,0 H 1.0219011 l 0.609347,-1.581457 H 1.2471461 L 0.81088205,-0.36513401 0.37224704,-1.581457 h -0.384102 z" />
      </g>
    </g>
    <g
       id="g40"
       transform="translate(18.717,44.8)">
      <g
         style="font-weight:bold;font-size:2.371px;font-family:'Proxima Nova';dominant-baseline:alphabetic;text-anchor:middle;fill:#009999"
         id="text38"
         aria-label="X1">
        <path
           id="path234"
           style="font-weight:bold;font-size:2.371px;font-family:'Proxima Nova';dominant-baseline:alphabetic;text-anchor:middle;fill:#009999"
           d="M -0.09024619,0 H 0.31282382 L -0.26095819,-0.81325302 0.27725882,-1.581457 H -0.12818219 L -0.4862032,-1.040869 -0.84896621,-1.581457 H -1.2496652 l 0.538217,0.77057498 L -1.2852302,0 h 0.40069899 l 0.39832801,-0.57852401 z" />
        <path
           id="path236"
           style="baseline-shift:super"
           d="M 0.78457874,-0.94840002 H 1.1236317 V -2.5298571 H 0.82962774 l -0.49791001,0.5002811 0.192051,0.201535 0.26081001,-0.267923 z" />
      </g>
    </g>
    <g
       id="g44"
       transform="translate(6.683,59.8)">
      <g
         style="font-weight:bold;font-size:2.371px;font-family:'Proxima Nova';dominant-baseline:alphabetic;text-anchor:middle;fill:#009999"
         id="text42"
         aria-label="CV">
        <path
           id="path239"
           style="font-weight:bold;font-size:2.371px;font-family:'Proxima Nova';dominant-baseline:alphabetic;text-anchor:middle;fill:#009999"
           d="m -0.7103368,0.028452 c 0.36039201,0 0.55955602,-0.192051 0.67336402,-0.38884401 l -0.28926201,-0.139889 c -0.066388,0.130405 -0.208648,0.229987 -0.38410201,0.229987 -0.275036,0 -0.483684,-0.220503 -0.483684,-0.51924901 0,-0.29874598 0.208648,-0.51924898 0.483684,-0.51924898 0.17545401,0 0.31771401,0.101953 0.38410201,0.229987 l 0.28926201,-0.14226 c -0.111437,-0.196793 -0.31297201,-0.386473 -0.67336402,-0.386473 -0.462345,0 -0.82985,0.33194 -0.82985,0.81799498 0,0.48605501 0.367505,0.81799502 0.82985,0.81799502 z" />
        <path
           id="path241"
           style="font-weight:bold;font-size:2.371px;font-family:'Proxima Nova';dominant-baseline:alphabetic;text-anchor:middle;fill:#009999"
           d="M 0.59986305,0 H 1.0219011 l 0.609347,-1.581457 H 1.2471461 L 0.81088205,-0.36513401 0.37224704,-1.581457 h -0.384102 z" />
      </g>
    </g>
    <g
       id="g50"
       transform="translate(18.717,59.8)">
      <g
         style="font-weight:bold;font-size:2.371px;font-family:'Proxima Nova';dominant-baseline:alphabetic;text-anchor:middle;fill:#009999"
         id="text48"
         aria-label="X0">
        <path
           id="path244"
           style="font-weight:bold;font-size:2.371px;font-family:'Proxima Nova';dominant-baseline:alphabetic;text-anchor:middle;fill:#009999"
           d="M -0.33799717,0 H 0.06507284 L -0.50870918,-0.81325302 0.02950784,-1.581457 h -0.40544101 l -0.35802101,0.540588 -0.36276302,-0.540588 h -0.400699 L -0.95919918,-0.81088202 -1.5329812,0 h 0.400699 l 0.39832802,-0.57852401 z" />
        <path
           id="path246"
           style="baseline-shift:super"
           d="m 0.13849975,-1.737943 c 0,0.407812 0.201535,0.81799498 0.65439601,0.81799498 0.45049004,0 0.65439604,-0.41018298 0.65439604,-0.81799498 0,-0.407812 -0.203906,-0.8156241 -0.65439604,-0.8156241 -0.45286101,0 -0.65439601,0.4078121 -0.65439601,0.8156241 z m 0.96499705,0 c 0,0.291633 -0.085356,0.519249 -0.31060104,0.519249 -0.227616,0 -0.312972,-0.227616 -0.312972,-0.519249 0,-0.291633 0.085356,-0.516878 0.312972,-0.516878 0.22524504,0 0.31060104,0.225245 0.31060104,0.516878 z" />
      </g>
    </g>
    <g
       id="g54"
       transform="translate(6.683,76.8)">
      <g
         style="font-weight:bold;font-size:2.371px;font-family:'Proxima Nova';dominant-baseline:alphabetic;text-anchor:middle;fill:#009999"
         id="text52"
         aria-label="IN">
        <path
           id="path249"
           style="font-weight:bold;font-size:2.371px;font-family:'Proxima Nova';dominant-baseline:alphabetic;text-anchor:middle;fill:#009999"
           d="m -1.0313295,0 h 0.33668206 V -1.581457 H -1.0313295 Z" />
        <path
           id="path251"
           style="font-weight:bold;font-size:2.371px;font-family:'Proxima Nova';dominant-baseline:alphabetic;text-anchor:middle;fill:#009999"
           d="M 0.70765089,0 H 1.0324779 V -1.581457 H 0.69579589 v 1.02427199 L -0.03684313,-1.581457 h -0.346166 V 0 h 0.336682 v -1.062208 z" />
      </g>
    </g>
    <g
       id="g58"
       transform="translate(18.717,76.8)">
      <g
         style="font-weight:bold;font-size:2.371px;font-family:'Proxima Nova';dominant-baseline:alphabetic;text-anchor:middle;fill:#009999"
         id="text56"
         aria-label="OUT">
        <path
           id="path254"
           style="font-weight:bold;font-size:2.371px;font-family:'Proxima Nova';dominant-baseline:alphabetic;text-anchor:middle;fill:#009999"
           d="m -2.3806878,-0.78954302 c 0,0.47657101 0.348537,0.81799502 0.825108,0.81799502 0.478942,0 0.82747903,-0.34142401 0.82747903,-0.81799502 0,-0.47657098 -0.34853703,-0.81799498 -0.82747903,-0.81799498 -0.476571,0 -0.825108,0.341424 -0.825108,0.81799498 z m 1.306421,0 c 0,0.29400401 -0.18968,0.51924901 -0.481313,0.51924901 -0.291633,0 -0.478942,-0.225245 -0.478942,-0.51924901 0,-0.29637498 0.187309,-0.51924898 0.478942,-0.51924898 0.291633,0 0.481313,0.222874 0.481313,0.51924898 z" />
        <path
           id="path256"
           style="font-weight:bold;font-size:2.371px;font-family:'Proxima Nova';dominant-baseline:alphabetic;text-anchor:middle;fill:#009999"
           d="m -0.48951892,-0.63068601 c 0,0.388844 0.22524501,0.65913801 0.70892902,0.65913801 0.47894201,0 0.70418701,-0.26792301 0.70418701,-0.66150901 V -1.581457 H 0.5821731 v 0.93891599 c 0,0.220503 -0.120921,0.372247 -0.362763,0.372247 -0.24658401,0 -0.36750501,-0.151744 -0.36750501,-0.372247 V -1.581457 h -0.34142401 z" />
        <path
           id="path258"
           style="font-weight:bold;font-size:2.371px;font-family:'Proxima Nova';dominant-baseline:alphabetic;text-anchor:middle;fill:#009999"
           d="m 1.6029255,0 h 0.339053 v -1.285082 h 0.459974 v -0.296375 h -1.261372 v 0.296375 h 0.462345 z" />
      </g>
    </g>
    <g
       id="g62"
       transform="translate(6.683,91.8)">
      <g
         style="font-weight:bold;font-size:2.371px;font-family:'Proxima Nova';dominant-baseline:alphabetic;text-anchor:middle;fill:#009999"
         id="text60"
         aria-label="CV">
        <path
           id="path261"
           style="font-weight:bold;font-size:2.371px;font-family:'Proxima Nova';dominant-baseline:alphabetic;text-anchor:middle;fill:#009999"
           d="m -0.7103368,0.028452 c 0.36039201,0 0.55955602,-0.192051 0.67336402,-0.38884401 l -0.28926201,-0.139889 c -0.066388,0.130405 -0.208648,0.229987 -0.38410201,0.229987 -0.275036,0 -0.483684,-0.220503 -0.483684,-0.51924901 0,-0.29874598 0.208648,-0.51924898 0.483684,-0.51924898 0.17545401,0 0.31771401,0.101953 0.38410201,0.229987 l 0.28926201,-0.14226 c -0.111437,-0.196793 -0.31297201,-0.386473 -0.67336402,-0.386473 -0.462345,0 -0.82985,0.33194 -0.82985,0.81799498 0,0.48605501 0.367505,0.81799502 0.82985,0.81799502 z" />
        <path
           id="path263"
           style="font-weight:bold;font-size:2.371px;font-family:'Proxima Nova';dominant-baseline:alphabetic;text-anchor:middle;fill:#009999"
           d="M 0.59986305,0 H 1.0219011 l 0.609347,-1.581457 H 1.2471461 L 0.81088205,-0.36513401 0.37224704,-1.581457 h -0.384102 z" />
      </g>
    </g>
    <g
       id="g66"
       transform="translate(18.717,91.8)">
      <g
         style="font-weight:bold;font-size:2.371px;font-family:'Proxima Nova';dominant-baseline:alphabetic;text-anchor:middle;fill:#009999"
         id="text64"
         aria-label="CV">
        <path
           id="path266"
           style="font-weight:bold;font-size:2.371px;font-family:'Proxima Nova';dominant-baseline:alphabetic;text-anchor:middle;fill:#009999"
           d="m -0.7103368,0.028452 c 0.36039201,0 0.55955602,-0.192051 0.67336402,-0.38884401 l -0.28926201,-0.139889 c -0.066388,0.130405 -0.208648,0.229987 -0.38410201,0.229987 -0.275036,0 -0.483684,-0.220503 -0.483684,-0.51924901 0,-0.29874598 0.208648,-0.51924898 0.483684,-0.51924898 0.17545401,0 0.31771401,0.101953 0.38410201,0.229987 l 0.28926201,-0.14226 c -0.111437,-0.196793 -0.31297201,-0.386473 -0.67336402,-0.386473 -0.462345,0 -0.82985,0.33194 -0.82985,0.81799498 0,0.48605501 0.367505,0.81799502 0.82985,0.81799502 z" />
        <path
           id="path268"
           style="font-weight:bold;font-size:2.371px;font-family:'Proxima Nova';dominant-baseline:alphabetic;text-anchor:middle;fill:#009999"
           d="M 0.59986305,0 H 1.0219011 l 0.609347,-1.581457 H 1.2471461 L 0.81088205,-0.36513401 0.37224704,-1.581457 h -0.384102 z" />
      </g>
    </g>
    <path
       d="m 2.483,104.22 h 8.4 c 0.554,0 1,0.446 1,1 v 10.98 c 0,0.554 -0.446,1 -1,1 h -8.4 c -0.554,0 -1,-0.446 -1,-1 v -10.98 c 0,-0.554 0.446,-1 1,-1 z"
       style="fill:#f0ffff;stroke:#009999;stroke-width:0.35"
       id="rect68" />
    <g
       id="g72"
       transform="translate(6.683,106.8)">
      <g
         style="font-weight:bold;font-size:2.371px;font-family:'Proxima Nova';dominant-baseline:alphabetic;text-anchor:middle;fill:#009999"
         id="text70"
         aria-label="IN">
        <path
           id="path272"
           style="font-weight:bold;font-size:2.371px;font-family:'Proxima Nova';dominant-baseline:alphabetic;text-anchor:middle;fill:#009999"
           d="m -1.0313295,0 h 0.33668206 V -1.581457 H -1.0313295 Z" />
        <path
           id="path274"
           style="font-weight:bold;font-size:2.371px;font-family:'Proxima Nova';dominant-baseline:alphabetic;text-anchor:middle;fill:#009999"
           d="M 0.70765089,0 H 1.0324779 V -1.581457 H 0.69579589 v 1.02427199 L -0.03684313,-1.581457 h -0.346166 V 0 h 0.336682 v -1.062208 z" />
      </g>
    </g>
    <path
       d="m 14.517,104.22 h 8.4 c 0.554,0 1,0.446 1,1 v 10.98 c 0,0.554 -0.446,1 -1,1 h -8.4 c -0.554,0 -1,-0.446 -1,-1 v -10.98 c 0,-0.554 0.446,-1 1,-1 z"
       style="fill:#009999;stroke:#009999;stroke-width:0.35"
       id="rect74" />
    <g
       id="g78"
       transform="translate(18.717,106.8)">
      <g
         style="font-weight:bold;font-size:2.371px;font-family:'Proxima Nova';dominant-baseline:alphabetic;text-anchor:middle;fill:#f0ffff"
         id="text76"
         aria-label="OUT">
        <path
           id="path278"
           style="font-weight:bold;font-size:2.371px;font-family:'Proxima Nova';dominant-baseline:alphabetic;text-anchor:middle;fill:#f0ffff"
           d="m -2.3806878,-0.78954302 c 0,0.47657101 0.348537,0.81799502 0.825108,0.81799502 0.478942,0 0.82747903,-0.34142401 0.82747903,-0.81799502 0,-0.47657098 -0.34853703,-0.81799498 -0.82747903,-0.81799498 -0.476571,0 -0.825108,0.341424 -0.825108,0.81799498 z m 1.306421,0 c 0,0.29400401 -0.18968,0.51924901 -0.481313,0.51924901 -0.291633,0 -0.478942,-0.225245 -0.478942,-0.51924901 0,-0.29637498 0.187309,-0.51924898 0.478942,-0.51924898 0.291633,0 0.481313,0.222874 0.481313,0.51924898 z" />
        <path
           id="path280"
           style="font-weight:bold;font-size:2.371px;font-family:'Proxima Nova';dominant-baseline:alphabetic;text-anchor:middle;fill:#f0ffff"
           d="m -0.48951892,-0.63068601 c 0,0.388844 0.22524501,0.65913801 0.70892902,0.65913801 0.47894201,0 0.70418701,-0.26792301 0.70418701,-0.66150901 V -1.581457 H 0.5821731 v 0.93891599 c 0,0.220503 -0.120921,0.372247 -0.362763,0.372247 -0.24658401,0 -0.36750501,-0.151744 -0.36750501,-0.372247 V -1.581457 h -0.34142401 z" />
        <path
           id="path282"
           style="font-weight:bold;font-size:2.371px;font-family:'Proxima Nova';dominant-baseline:alphabetic;text-anchor:middle;fill:#f0ffff"
           d="m 1.6029255,0 h 0.339053 v -1.285082 h 0.459974 v -0.296375 h -1.261372 v 0.296375 h 0.462345 z" />
      </g>
    </g>
    <g
       id="g86"
       transform="translate(6.683,20)">
      <path
         d="M 4.1999998,0 A 4.1999998,4.1999998 0 0 1 0,4.1999998 4.1999998,4.1999998 0 0 1 -4.1999998,0 4.1999998,4.1999998 0 0 1 0,-4.1999998 4.1999998,4.1999998 0 0 1 4.1999998,0"
         style="fill:#009999;stroke:none;stroke-width:0"
         id="circle80" />
      <path
         d="M 3.5,0 A 3.5,3.5 0 0 1 0,3.5 3.5,3.5 0 0 1 -3.5,0 3.5,3.5 0 0 1 0,-3.5 3.5,3.5 0 0 1 3.5,0"
         style="fill:none;stroke:#f0ffff;stroke-width:0.95"
         id="circle82" />
      <path
         d="M 2.325,0 A 2.325,2.325 0 0 1 0,2.325 2.325,2.325 0 0 1 -2.325,0 2.325,2.325 0 0 1 0,-2.325 2.325,2.325 0 0 1 2.325,0"
         style="fill:none;stroke:#f0ffff;stroke-width:0.95"
         id="circle84" />
    </g>
    <g
       id="g92"
       transform="translate(18.717,20)">
      <path
         d="M 4.1999998,0 A 4.1999998,4.1999998 0 0 1 0,4.1999998 4.1999998,4.1999998 0 0 1 -4.1999998,0 4.1999998,4.1999998 0 0 1 0,-4.1999998 4.1999998,4.1999998 0 0 1 4.1999998,0"
         style="fill:#009999;stroke:none;stroke-width:0"
         id="circle88" />
      <path
         d="M 0,0 V -3.675"
         style="stroke:#f0ffff;stroke-width:0.525;stroke-linecap:round"
         id="line90" />
    </g>
    <g
       id="g100"
       transform="translate(6.683,35)">
      <path
         d="M 4.1999998,0 A 4.1999998,4.1999998 0 0 1 0,4.1999998 4.1999998,4.1999998 0 0 1 -4.1999998,0 4.1999998,4.1999998 0 0 1 0,-4.1999998 4.1999998,4.1999998 0 0 1 4.1999998,0"
         style="fill:#009999;stroke:none;stroke-width:0"
         id="circle94" />
      <path
         d="M 3.5,0 A 3.5,3.5 0 0 1 0,3.5 3.5,3.5 0 0 1 -3.5,0 3.5,3.5 0 0 1 0,-3.5 3.5,3.5 0 0 1 3.5,0"
         style="fill:none;stroke:#f0ffff;stroke-width:0.95"
         id="circle96" />
      <path
         d="M 2.325,0 A 2.325,2.325 0 0 1 0,2.325 2.325,2.325 0 0 1 -2.325,0 2.325,2.325 0 0 1 0,-2.325 2.325,2.325 0 0 1 2.325,0"
         style="fill:none;stroke:#f0ffff;stroke-width:0.95"
         id="circle98" />
    </g>
    <g
       id="g106"
       transform="translate(18.717,35)">
      <path
         d="M 4.1999998,0 A 4.1999998,4.1999998 0 0 1 0,4.1999998 4.1999998,4.1999998 0 0 1 -4.1999998,0 4.1999998,4.1999998 0 0 1 0,-4.1999998 4.1999998,4.1999998 0 0 1 4.1999998,0"
         style="fill:#009999;stroke:none;stroke-width:0"
         id="circle102" />
      <path
         d="M 0,0 V -3.675"
         style="stroke:#f0ffff;stroke-width:0.525;stroke-linecap:round"
         id="line104" />
    </g>
    <g
       id="g114"
       transform="translate(6.683,50)">
      <path
         d="M 4.1999998,0 A 4.1999998,4.1999998 0 0 1 0,4.1999998 4.1999998,4.1999998 0 0 1 -4.1999998,0 4.1999998,4.1999998 0 0 1 0,-4.1999998 4.1999998,4.1999998 0 0 1 4.1999998,0"
         style="fill:#009999;stroke:none;stroke-width:0"
         id="circle108" />
      <path
         d="M 3.5,0 A 3.5,3.5 0 0 1 0,3.5 3.5,3.5 0 0 1 -3.5,0 3.5,3.5 0 0 1 0,-3.5 3.5,3.5 0 0 1 3.5,0"
         style="fill:none;stroke:#f0ffff;stroke-width:0.95"
         id="circle110" />
      <path
         d="M 2.325,0 A 2.325,2.325 0 0 1 0,2.325 2.325,2.325 0 0 1 -2.325,0 2.325,2.325 0 0 1 0,-2.325 2.325,2.325 0 0 1 2.325,0"
         style="fill:none;stroke:#f0ffff;stroke-width:0.95"
         id="circle112" />
    </g>
    <g
       id="g120"
       transform="translate(18.717,50)">
      <path
         d="M 4.1999998,0 A 4.1999998,4.1999998 0 0 1 0,4.1999998 4.1999998,4.1999998 0 0 1 -4.1999998,0 4.1999998,4.1999998 0 0 1 0,-4.1999998 4.1999998,4.1999998 0 0 1 4.1999998,0"
         style="fill:#009999;stroke:none;stroke-width:0"
         id="circle116" />
      <path
         d="M 0,0 V -3.675"
         style="stroke:#f0ffff;stroke-width:0.525;stroke-linecap:round"
         id="line118" />
    </g>
    <g
       id="g128"
       transform="translate(6.683,65)">
      <path
         d="M 4.1999998,0 A 4.1999998,4.1999998 0 0 1 0,4.1999998 4.1999998,4.1999998 0 0 1 -4.1999998,0 4.1999998,4.1999998 0 0 1 0,-4.1999998 4.1999998,4.1999998 0 0 1 4.1999998,0"
         style="fill:#009999;stroke:none;stroke-width:0"
         id="circle122" />
      <path
         d="M 3.5,0 A 3.5,3.5 0 0 1 0,3.5 3.5,3.5 0 0 1 -3.5,0 3.5,3.5 0 0 1 0,-3.5 3.5,3.5 0 0 1 3.5,0"
         style="fill:none;stroke:#f0ffff;stroke-width:0.95"
         id="circle124" />
      <path
         d="M 2.325,0 A 2.325,2.325 0 0 1 0,2.325 2.325,2.325 0 0 1 -2.325,0 2.325,2.325 0 0 1 0,-2.325 2.325,2.325 0 0 1 2.325,0"
         style="fill:none;stroke:#f0ffff;stroke-width:0.95"
         id="circle126" />
    </g>
    <g
       id="g134"
       transform="translate(18.717,65)">
      <path
         d="M 4.1999998,0 A 4.1999998,4.1999998 0 0 1 0,4.1999998 4.1999998,4.1999998 0 0 1 -4.1999998,0 4.1999998,4.1999998 0 0 1 0,-4.1999998 4.1999998,4.1999998 0 0 1 4.1999998,0"
         style="fill:#009999;stroke:none;stroke-width:0"
         id="circle130" />
      <path
         d="M 0,0 V -3.675"
         style="stroke:#f0ffff;stroke-width:0.525;stroke-linecap:round"
         id="line132" />
    </g>
    <g
       id="g140"
       transform="translate(6.683,82)">
      <path
         d="M 4.1999998,0 A 4.1999998,4.1999998 0 0 1 0,4.1999998 4.1999998,4.1999998 0 0 1 -4.1999998,0 4.1999998,4.1999998 0 0 1 0,-4.1999998 4.1999998,4.1999998 0 0 1 4.1999998,0"
         style="fill:#009999;stroke:none;stroke-width:0"
         id="circle136" />
      <path
         d="M 0,0 V -3.675"
         style="stroke:#f0ffff;stroke-width:0.525;stroke-linecap:round"
         id="line138" />
    </g>
    <g
       id="g146"
       transform="translate(18.717,82)">
      <path
         d="M 4.1999998,0 A 4.1999998,4.1999998 0 0 1 0,4.1999998 4.1999998,4.1999998 0 0 1 -4.1999998,0 4.1999998,4.1999998 0 0 1 0,-4.1999998 4.1999998,4.1999998 0 0 1 4.1999998,0"
         style="fill:#009999;stroke:none;stroke-width:0"
         id="circle142" />
      <path
         d="M 0,0 V -3.675"
         style="stroke:#f0ffff;stroke-width:0.525;stroke-linecap:round"
         id="line144" />
    </g>
    <g
       id="g154"
       transform="translate(6.683,97)">
      <path
         d="M 4.1999998,0 A 4.1999998,4.1999998 0 0 1 0,4.1999998 4.1999998,4.1999998 0 0 1 -4.1999998,0 4.1999998,4.1999998 0 0 1 0,-4.1999998 4.1999998,4.1999998 0 0 1 4.1999998,0"
         style="fill:#009999;stroke:none;stroke-width:0"
         id="circle148" />
      <path
         d="M 3.5,0 A 3.5,3.5 0 0 1 0,3.5 3.5,3.5 0 0 1 -3.5,0 3.5,3.5 0 0 1 0,-3.5 3.5,3.5 0 0 1 3.5,0"
         style="fill:none;stroke:#f0ffff;stroke-width:0.95"
         id="circle150" />
      <path
         d="M 2.325,0 A 2.325,2.325 0 0 1 0,2.325 2.325,2.325 0 0 1 -2.325,0 2.325,2.325 0 0 1 0,-2.325 2.325,2.325 0 0 1 2.325,0"
         style="fill:none;stroke:#f0ffff;stroke-width:0.95"
         id="circle152" />
    </g>
    <g
       id="g162"
       transform="translate(18.717,97)">
      <path
         d="M 4.1999998,0 A 4.1999998,4.1999998 0 0 1 0,4.1999998 4.1999998,4.1999998 0 0 1 -4.1999998,0 4.1999998,4.1999998 0 0 1 0,-4.1999998 4.1999998,4.1999998 0 0 1 4.1999998,0"
         style="fill:#009999;stroke:none;stroke-width:0"
         id="circle156" />
      <path
         d="M 3.5,0 A 3.5,3.5 0 0 1 0,3.5 3.5,3.5 0 0 1 -3.5,0 3.5,3.5 0 0 1 0,-3.5 3.5,3.5 0 0 1 3.5,0"
         style="fill:none;stroke:#f0ffff;stroke-width:0.95"
         id="circle158" />
      <path
         d="M 2.325,0 A 2.325,2.325 0 0 1 0,2.325 2.325,2.325 0 0 1 -2.325,0 2.325,2.325 0 0 1 0,-2.325 2.325,2.325 0 0 1 2.325,0"
         style="fill:none;stroke:#f0ffff;stroke-width:0.95"
         id="circle160" />
    </g>
    <g
       id="g170"
       transform="translate(6.683,112)">
      <path
         d="M 4.1999998,0 A 4.1999998,4.1999998 0 0 1 0,4.1999998 4.1999998,4.1999998 0 0 1 -4.1999998,0 4.1999998,4.1999998 0 0 1 0,-4.1999998 4.1999998,4.1999998 0 0 1 4.1999998,0"
         style="fill:#009999;stroke:none;stroke-width:0"
         id="circle164" />
      <path
         d="M 3.5,0 A 3.5,3.5 0 0 1 0,3.5 3.5,3.5 0 0 1 -3.5,0 3.5,3.5 0 0 1 0,-3.5 3.5,3.5 0 0 1 3.5,0"
         style="fill:none;stroke:#f0ffff;stroke-width:0.95"
         id="circle166" />
      <path
         d="M 2.325,0 A 2.325,2.325 0 0 1 0,2.325 2.325,2.325 0 0 1 -2.325,0 2.325,2.325 0 0 1 0,-2.325 2.325,2.325 0 0 1 2.325,0"
         style="fill:none;stroke:#f0ffff;stroke-width:0.95"
         id="circle168" />
    </g>
    <g
       id="g178"
       transform="translate(18.717,112)">
      <path
         d="M 4.1999998,0 A 4.1999998,4.1999998 0 0 1 0,4.1999998 4.1999998,4.1999998 0 0 1 -4.1999998,0 4.1999998,4.1999998 0 0 1 0,-4.1999998 4.1999998,4.1999998 0 0 1 4.1999998,0"
         style="fill:#009999;stroke:none;stroke-width:0"
         id="circle172" />
      <path
         d="M 3.5,0 A 3.5,3.5 0 0 1 0,3.5 3.5,3.5 0 0 1 -3.5,0 3.5,3.5 0 0 1 0,-3.5 3.5,3.5 0 0 1 3.5,0"
         style="fill:none;stroke:#f0ffff;stroke-width:0.95"
         id="circle174" />
      <path
         d="M 2.325,0 A 2.325,2.325 0 0 1 0,2.325 2.325,2.325 0 0 1 -2.325,0 2.325,2.325 0 0 1 0,-2.325 2.325,2.325 0 0 1 2.325,0"
         style="fill:none;stroke:#f0ffff;stroke-width:0.95"
         id="circle176" />
    </g>
  </g>
</svg>
