<?xml version="1.0" encoding="UTF-8" standalone="no"?>
<svg xmlns="http://www.w3.org/2000/svg" xmlns:svg="http://www.w3.org/2000/svg" version="1.1" viewBox="0.000000 0.000000 111.760000 128.500000" height="128.500000mm" width="111.760000mm">
  <defs/>
  <g>
    <rect x="0.25" y="0.25" width="111.26" height="128" fill="#efedeb" stroke="#18191c" stroke-width="0.5"/>
    <g style="font-weight:bold;font-size:4.064px;font-family:'Proxima Nova';dominant-baseline:alphabetic;text-anchor:middle;fill:#18191c">
      <path d="m 36.449858,9.048768 c 0.617728,0 0.959104,-0.329184 1.154176,-0.666496 L 37.108226,8.142496 c -0.113792,0.22352 -0.357632,0.394208 -0.658368,0.394208 -0.471424,0 -0.829056,-0.377952 -0.829056,-0.890016 0,-0.5120641 0.357632,-0.8900161 0.829056,-0.8900161 0.300736,0 0.544576,0.174752 0.658368,0.394208 l 0.495808,-0.24384 c -0.191008,-0.337312 -0.536448,-0.662432 -1.154176,-0.662432 -0.79248,0 -1.4224,0.56896 -1.4224,1.4020801 0,0.83312 0.62992,1.40208 1.4224,1.40208 z" style="font-weight:bold;font-size:4.064px;font-family:'Proxima Nova';dominant-baseline:alphabetic;text-anchor:middle;fill:#18191c"/>
      <path d="m 37.951506,7.918976 c 0,0.666496 0.38608,1.129792 1.215136,1.129792 0.820928,0 1.207008,-0.459232 1.207008,-1.133856 V 6.2893119 H 39.788434 V 7.898656 c 0,0.377952 -0.207264,0.638048 -0.621792,0.638048 -0.422656,0 -0.62992,-0.260096 -0.62992,-0.638048 V 6.2893119 h -0.585216 z" style="font-weight:bold;font-size:4.064px;font-family:'Proxima Nova';dominant-baseline:alphabetic;text-anchor:middle;fill:#18191c"/>
      <path d="m 42.444321,9 h 0.662433 L 42.497153,7.967744 c 0.292609,-0.069088 0.593345,-0.32512 0.593345,-0.8046721 0,-0.503936 -0.34544,-0.87376 -0.910337,-0.87376 H 40.912193 V 9 h 0.577088 V 8.028704 h 0.422656 z m 0.0569,-1.8409921 c 0,0.227584 -0.174752,0.3738881 -0.4064,0.3738881 H 41.489281 V 6.7851199 h 0.605536 c 0.231648,0 0.4064,0.146304 0.4064,0.373888 z" style="font-weight:bold;font-size:4.064px;font-family:'Proxima Nova';dominant-baseline:alphabetic;text-anchor:middle;fill:#18191c"/>
      <path d="m 44.243912,9 h 0.723392 L 46.011752,6.2893119 H 45.353384 L 44.605608,8.374144 43.853768,6.2893119 H 43.1954 Z" style="font-weight:bold;font-size:4.064px;font-family:'Proxima Nova';dominant-baseline:alphabetic;text-anchor:middle;fill:#18191c"/>
      <path d="m 46.262068,9 h 1.918208 V 8.500128 h -1.34112 v -0.62992 h 1.312672 V 7.3743999 h -1.312672 v -0.58928 h 1.34112 v -0.495808 h -1.918208 z" style="font-weight:bold;font-size:4.064px;font-family:'Proxima Nova';dominant-baseline:alphabetic;text-anchor:middle;fill:#18191c"/>
      <path d="m 49.488249,8.617984 c 0.256032,0.256032 0.62992,0.430784 1.150112,0.430784 0.731521,0 1.085089,-0.373888 1.085089,-0.869696 0,-0.601472 -0.56896,-0.735584 -1.016001,-0.8371841 -0.312928,-0.073152 -0.540512,-0.130048 -0.540512,-0.312928 0,-0.16256 0.138176,-0.276352 0.398272,-0.276352 0.26416,0 0.556769,0.093472 0.776225,0.296672 l 0.321056,-0.422656 c -0.268224,-0.247904 -0.625857,-0.377952 -1.056641,-0.377952 -0.638048,0 -1.028192,0.36576 -1.028192,0.816864 0,0.6055361 0.56896,0.7274561 1.011936,0.8290561 0.312928,0.073152 0.548641,0.14224 0.548641,0.34544 0,0.154432 -0.154433,0.3048 -0.471425,0.3048 -0.373888,0 -0.67056,-0.166624 -0.861568,-0.36576 z" style="font-weight:bold;font-size:4.064px;font-family:'Proxima Nova';dominant-baseline:alphabetic;text-anchor:middle;fill:#18191c"/>
      <path d="m 52.112006,9 h 1.918208 V 8.500128 h -1.34112 v -0.62992 h 1.312672 V 7.3743999 h -1.312672 v -0.58928 h 1.34112 v -0.495808 h -1.918208 z" style="font-weight:bold;font-size:4.064px;font-family:'Proxima Nova';dominant-baseline:alphabetic;text-anchor:middle;fill:#18191c"/>
      <path d="m 57.187878,7.646688 c 0,-0.8168641 -0.597408,-1.4020801 -1.418336,-1.4020801 -0.816864,0 -1.414272,0.585216 -1.414272,1.4020801 0,0.816864 0.597408,1.40208 1.414272,1.40208 0.235712,0 0.455168,-0.048768 0.646176,-0.138176 L 56.63111,9.166624 57.033446,8.83744 56.83431,8.605792 c 0.22352,-0.24384 0.353568,-0.577088 0.353568,-0.959104 z m -1.418336,0.890016 c -0.499872,0 -0.820928,-0.38608 -0.820928,-0.890016 0,-0.5080001 0.321056,-0.8900161 0.820928,-0.8900161 0.499872,0 0.824992,0.382016 0.824992,0.8900161 0,0.195072 -0.04877,0.373888 -0.138176,0.516128 L 56.147494,7.80112 55.745158,8.12624 56.054022,8.487936 c -0.08534,0.032512 -0.18288,0.048768 -0.28448,0.048768 z" style="font-weight:bold;font-size:4.064px;font-family:'Proxima Nova';dominant-baseline:alphabetic;text-anchor:middle;fill:#18191c"/>
      <path d="m 57.59682,7.918976 c 0,0.666496 0.38608,1.129792 1.215136,1.129792 0.820928,0 1.207008,-0.459232 1.207008,-1.133856 V 6.2893119 H 59.433748 V 7.898656 c 0,0.377952 -0.207264,0.638048 -0.621792,0.638048 -0.422656,0 -0.62992,-0.260096 -0.62992,-0.638048 V 6.2893119 H 57.59682 Z" style="font-weight:bold;font-size:4.064px;font-family:'Proxima Nova';dominant-baseline:alphabetic;text-anchor:middle;fill:#18191c"/>
      <path d="m 60.557507,9 h 1.918208 V 8.500128 h -1.34112 v -0.62992 h 1.312672 V 7.3743999 h -1.312672 v -0.58928 h 1.34112 v -0.495808 h -1.918208 z" style="font-weight:bold;font-size:4.064px;font-family:'Proxima Nova';dominant-baseline:alphabetic;text-anchor:middle;fill:#18191c"/>
      <path d="m 64.800259,9 h 0.556768 V 6.2893119 H 64.779939 V 8.04496 L 63.524163,6.2893119 H 62.930819 V 9 h 0.577088 V 7.1793279 Z" style="font-weight:bold;font-size:4.064px;font-family:'Proxima Nova';dominant-baseline:alphabetic;text-anchor:middle;fill:#18191c"/>
      <path d="m 67.183859,9.048768 c 0.617728,0 0.959104,-0.329184 1.154176,-0.666496 L 67.842227,8.142496 c -0.113792,0.22352 -0.357632,0.394208 -0.658368,0.394208 -0.471424,0 -0.829056,-0.377952 -0.829056,-0.890016 0,-0.5120641 0.357632,-0.8900161 0.829056,-0.8900161 0.300736,0 0.544576,0.174752 0.658368,0.394208 l 0.495808,-0.24384 c -0.191008,-0.337312 -0.536448,-0.662432 -1.154176,-0.662432 -0.79248,0 -1.4224,0.56896 -1.4224,1.4020801 0,0.83312 0.62992,1.40208 1.4224,1.40208 z" style="font-weight:bold;font-size:4.064px;font-family:'Proxima Nova';dominant-baseline:alphabetic;text-anchor:middle;fill:#18191c"/>
      <path d="m 68.685506,9 h 1.918208 V 8.500128 h -1.34112 v -0.62992 h 1.312672 V 7.3743999 h -1.312672 v -0.58928 h 1.34112 v -0.495808 h -1.918208 z" style="font-weight:bold;font-size:4.064px;font-family:'Proxima Nova';dominant-baseline:alphabetic;text-anchor:middle;fill:#18191c"/>
      <path d="M 72.590947,9 H 73.25338 L 72.643779,7.967744 c 0.292608,-0.069088 0.593345,-0.32512 0.593345,-0.8046721 0,-0.503936 -0.345441,-0.87376 -0.910337,-0.87376 H 71.058819 V 9 h 0.577088 V 8.028704 h 0.422656 z m 0.0569,-1.8409921 c 0,0.227584 -0.174752,0.3738881 -0.4064,0.3738881 H 71.635907 V 6.7851199 h 0.605536 c 0.231648,0 0.4064,0.146304 0.4064,0.373888 z" style="font-weight:bold;font-size:4.064px;font-family:'Proxima Nova';dominant-baseline:alphabetic;text-anchor:middle;fill:#18191c"/>
      <path d="m 75.83986,9 h 0.577088 V 8.439168 h 0.349504 v -0.508 H 76.416948 V 6.2893119 H 75.620404 L 74.543444,7.984 v 0.455168 h 1.296416 z m 0,-2.1986241 V 7.931168 h -0.73152 z" style="font-weight:bold;font-size:4.064px;font-family:'Proxima Nova';dominant-baseline:alphabetic;text-anchor:middle;fill:#18191c"/>
    </g>
    <g style="font-weight:bold;font-size:4.064px;font-family:'Proxima Nova';dominant-baseline:hanging;text-anchor:middle;fill:#18191c">
      <path d="m 52.016756,122.2581 h 1.068832 c 0.849376,0 1.438656,-0.53645 1.438656,-1.35331 0,-0.81687 -0.58928,-1.35738 -1.438656,-1.35738 h -1.068832 z m 0.577088,-0.508 v -1.69469 h 0.491744 c 0.556768,0 0.849376,0.36983 0.849376,0.84938 0,0.45923 -0.312928,0.84531 -0.849376,0.84531 z" style="font-weight:bold;font-size:4.064px;font-family:'Proxima Nova';dominant-baseline:hanging;text-anchor:middle;fill:#18191c"/>
      <path d="m 56.795004,122.2581 h 0.581152 v -2.71069 h -0.581152 v 1.06477 h -1.28016 v -1.06477 h -0.577088 v 2.71069 h 0.577088 v -1.13792 h 1.28016 z" style="font-weight:bold;font-size:4.064px;font-family:'Proxima Nova';dominant-baseline:hanging;text-anchor:middle;fill:#18191c"/>
      <path d="m 57.906381,122.2581 h 1.918208 v -0.49987 h -1.34112 v -0.62992 h 1.312672 v -0.49581 h -1.312672 v -0.58928 h 1.34112 v -0.49581 h -1.918208 z" style="font-weight:bold;font-size:4.064px;font-family:'Proxima Nova';dominant-baseline:hanging;text-anchor:middle;fill:#18191c"/>
    </g>
    <rect x="4.96" y="26.509555555555554" width="17.4" height="12.980444444444444" rx="1" ry="1" fill="#efedeb" stroke="#18191c" stroke-width="0.35"/>
    <g style="font-weight:bold;font-size:2.37067px;font-family:'Proxima Nova';dominant-baseline:alphabetic;text-anchor:middle;fill:#18191c">
      <path d="m 8.7214682,29.09 h 0.3864186 l -0.3556,-0.602149 c 0.170688,-0.0403 0.3461174,-0.189654 0.3461174,-0.469392 0,-0.293963 -0.2015067,-0.509694 -0.5310294,-0.509694 H 7.8277268 V 29.09 h 0.3366347 v -0.566589 h 0.2465493 z m 0.033189,-1.073912 c 0,0.132757 -0.1019387,0.218101 -0.2370667,0.218101 H 8.1643615 v -0.436202 h 0.3532293 c 0.135128,0 0.2370667,0.08534 0.2370667,0.218101 z" style="font-weight:bold;font-size:2.37067px;font-family:'Proxima Nova';dominant-baseline:alphabetic;text-anchor:middle;fill:#18191c"/>
      <path d="m 9.3510654,28.459403 c 0,0.388789 0.2252133,0.659045 0.7088296,0.659045 0.478874,0 0.704088,-0.267885 0.704088,-0.661416 v -0.948267 h -0.341376 v 0.938784 c 0,0.220472 -0.120904,0.372195 -0.362712,0.372195 -0.2465496,0 -0.3674536,-0.151723 -0.3674536,-0.372195 v -0.938784 h -0.341376 z" style="font-weight:bold;font-size:2.37067px;font-family:'Proxima Nova';dominant-baseline:alphabetic;text-anchor:middle;fill:#18191c"/>
      <path d="m 12.16864,29.09 h 0.324781 v -1.581235 h -0.336635 v 1.024128 L 11.42425,27.508765 H 11.078133 V 29.09 h 0.336635 v -1.062059 z" style="font-weight:bold;font-size:2.37067px;font-family:'Proxima Nova';dominant-baseline:alphabetic;text-anchor:middle;fill:#18191c"/>
    </g>
    <rect x="4.96" y="81.37205555555556" width="17.4" height="12.980444444444444" rx="1" ry="1" fill="#efedeb" stroke="#18191c" stroke-width="0.35"/>
    <g style="font-weight:bold;font-size:2.37067px;font-family:'Proxima Nova';dominant-baseline:alphabetic;text-anchor:middle;fill:#18191c">
      <path d="m 7.2795842,83.163067 c 0,0.49784 0.3793067,0.820251 0.8415867,0.820251 0.2868507,0 0.512064,-0.118533 0.6732693,-0.298704 v -0.60452 h -0.753872 v 0.289221 h 0.4219787 v 0.192024 c -0.068749,0.06164 -0.1967653,0.120904 -0.341376,0.120904 -0.2868507,0 -0.4954694,-0.220472 -0.4954694,-0.519176 0,-0.298704 0.2086187,-0.519176 0.4954694,-0.519176 0.1659467,0 0.3010747,0.08772 0.3745653,0.199136 l 0.2797387,-0.151722 c -0.120904,-0.187283 -0.327152,-0.346118 -0.654304,-0.346118 -0.46228,0 -0.8415867,0.31767 -0.8415867,0.81788 z" style="font-weight:bold;font-size:2.37067px;font-family:'Proxima Nova';dominant-baseline:alphabetic;text-anchor:middle;fill:#18191c"/>
      <path d="m 10.152573,83.952499 h 0.367453 L 9.9107649,82.371265 H 9.4887863 l -0.6116321,1.581234 h 0.369824 l 0.099568,-0.272626 H 10.053005 Z M 9.6997756,82.662857 9.9605489,83.388281 H 9.4366316 Z" style="font-weight:bold;font-size:2.37067px;font-family:'Proxima Nova';dominant-baseline:alphabetic;text-anchor:middle;fill:#18191c"/>
      <path d="m 10.87833,83.952499 h 0.339006 v -1.284901 h 0.459909 V 82.371265 H 10.41605 v 0.296333 h 0.46228 z" style="font-weight:bold;font-size:2.37067px;font-family:'Proxima Nova';dominant-baseline:alphabetic;text-anchor:middle;fill:#18191c"/>
      <path d="m 11.89305,83.952499 h 1.118955 v -0.291592 h -0.78232 v -0.367453 h 0.765725 v -0.289221 h -0.765725 v -0.343747 h 0.78232 V 82.371265 H 11.89305 Z" style="font-weight:bold;font-size:2.37067px;font-family:'Proxima Nova';dominant-baseline:alphabetic;text-anchor:middle;fill:#18191c"/>
    </g>
    <g style="font-weight:bold;font-size:2.37067px;font-family:'Proxima Nova';dominant-baseline:alphabetic;text-anchor:middle;fill:#18191c">
      <path d="m 5.6261529,65.442158 c 0.149352,0.149352 0.3674533,0.251291 0.6708986,0.251291 0.4267201,0 0.6329681,-0.218101 0.6329681,-0.507323 0,-0.350858 -0.3318934,-0.42909 -0.5926667,-0.488357 -0.1825414,-0.04267 -0.3152987,-0.07586 -0.3152987,-0.182541 0,-0.09483 0.080603,-0.161206 0.2323253,-0.161206 0.1540934,0 0.3247814,0.05453 0.4527974,0.173059 L 6.8944596,64.280532 C 6.7379956,64.135921 6.5293769,64.06006 6.2780862,64.06006 c -0.3721947,0 -0.5997787,0.21336 -0.5997787,0.476504 0,0.353229 0.3318934,0.424349 0.590296,0.483616 0.1825414,0.04267 0.3200401,0.08297 0.3200401,0.201506 0,0.09009 -0.090085,0.1778 -0.2749974,0.1778 -0.2181013,0 -0.39116,-0.0972 -0.5025813,-0.21336 z" style="font-weight:bold;font-size:2.37067px;font-family:'Proxima Nova';dominant-baseline:alphabetic;text-anchor:middle;fill:#18191c"/>
      <path d="M 7.5032394,65.665001 H 7.8422447 V 64.3801 H 8.302154 V 64.083766 H 7.0409593 V 64.3801 h 0.4622801 z" style="font-weight:bold;font-size:2.37067px;font-family:'Proxima Nova';dominant-baseline:alphabetic;text-anchor:middle;fill:#18191c"/>
      <path d="M 9.4722633,65.665001 H 9.8397166 L 9.2304553,64.083766 H 8.8084766 l -0.611632,1.581235 h 0.369824 l 0.099568,-0.272627 H 9.3726953 Z M 9.0194659,64.375358 9.2802393,65.100782 H 8.7563219 Z" style="font-weight:bold;font-size:2.37067px;font-family:'Proxima Nova';dominant-baseline:alphabetic;text-anchor:middle;fill:#18191c"/>
      <path d="m 10.879476,65.665001 h 0.386419 l -0.3556,-0.602149 c 0.170688,-0.0403 0.346117,-0.189654 0.346117,-0.469392 0,-0.293963 -0.201507,-0.509694 -0.531029,-0.509694 H 9.9857347 v 1.581235 h 0.3366343 v -0.566589 h 0.24655 z m 0.03319,-1.073912 c 0,0.132757 -0.101938,0.218101 -0.237066,0.218101 h -0.35323 v -0.436202 h 0.35323 c 0.135128,0 0.237066,0.08534 0.237066,0.218101 z" style="font-weight:bold;font-size:2.37067px;font-family:'Proxima Nova';dominant-baseline:alphabetic;text-anchor:middle;fill:#18191c"/>
      <path d="m 11.851005,65.665001 h 0.339006 V 64.3801 H 12.64992 V 64.083766 H 11.388725 V 64.3801 h 0.46228 z" style="font-weight:bold;font-size:2.37067px;font-family:'Proxima Nova';dominant-baseline:alphabetic;text-anchor:middle;fill:#18191c"/>
    </g>
    <g style="font-weight:bold;font-size:2.37067px;font-family:'Proxima Nova';dominant-baseline:alphabetic;text-anchor:middle;fill:#18191c">
      <path d="m 16.420665,65.665001 h 1.005163 V 65.368668 H 16.7573 v -1.284902 h -0.336635 z" style="font-weight:bold;font-size:2.37067px;font-family:'Proxima Nova';dominant-baseline:alphabetic;text-anchor:middle;fill:#18191c"/>
      <path d="m 17.661561,65.665001 h 1.118955 v -0.291592 h -0.78232 v -0.367453 h 0.765725 v -0.289222 h -0.765725 v -0.343746 h 0.78232 v -0.289222 h -1.118955 z" style="font-weight:bold;font-size:2.37067px;font-family:'Proxima Nova';dominant-baseline:alphabetic;text-anchor:middle;fill:#18191c"/>
      <path d="m 20.1365,65.665001 h 0.324781 v -1.581235 h -0.336634 v 1.024128 l -0.732536,-1.024128 h -0.346118 v 1.581235 h 0.336635 v -1.062059 z" style="font-weight:bold;font-size:2.37067px;font-family:'Proxima Nova';dominant-baseline:alphabetic;text-anchor:middle;fill:#18191c"/>
    </g>
    <line x1="9.144" y1="70.865" x2="18.4404" y2="70.865" stroke="#18191c" stroke-width="0.35"/>
    <rect x="4.96" y="44.79705555555556" width="17.4" height="12.980444444444444" rx="1" ry="1" fill="#efedeb" stroke="#18191c" stroke-width="0.35"/>
    <g style="font-weight:bold;font-size:2.37067px;font-family:'Proxima Nova';dominant-baseline:alphabetic;text-anchor:middle;fill:#18191c">
      <path d="M 7.1748674,47.377499 H 8.1800301 V 47.081165 H 7.5115021 V 45.796264 H 7.1748674 Z" style="font-weight:bold;font-size:2.37067px;font-family:'Proxima Nova';dominant-baseline:alphabetic;text-anchor:middle;fill:#18191c"/>
      <path d="m 8.275079,46.588067 c 0,0.476504 0.348488,0.81788 0.824992,0.81788 0.4788747,0 0.8273627,-0.341376 0.8273627,-0.81788 0,-0.476504 -0.348488,-0.81788 -0.8273627,-0.81788 -0.476504,0 -0.824992,0.341376 -0.824992,0.81788 z m 1.3062374,0 c 0,0.293962 -0.1896533,0.519176 -0.4812454,0.519176 -0.291592,0 -0.4788746,-0.225214 -0.4788746,-0.519176 0,-0.296334 0.1872826,-0.519176 0.4788746,-0.519176 0.2915921,0 0.4812454,0.222842 0.4812454,0.519176 z" style="font-weight:bold;font-size:2.37067px;font-family:'Proxima Nova';dominant-baseline:alphabetic;text-anchor:middle;fill:#18191c"/>
      <path d="m 10.090121,46.588067 c 0,0.476504 0.348488,0.81788 0.824992,0.81788 0.478874,0 0.827362,-0.341376 0.827362,-0.81788 0,-0.476504 -0.348488,-0.81788 -0.827362,-0.81788 -0.476504,0 -0.824992,0.341376 -0.824992,0.81788 z m 1.306237,0 c 0,0.293962 -0.189653,0.519176 -0.481245,0.519176 -0.291592,0 -0.478875,-0.225214 -0.478875,-0.519176 0,-0.296334 0.187283,-0.519176 0.478875,-0.519176 0.291592,0 0.481245,0.222842 0.481245,0.519176 z" style="font-weight:bold;font-size:2.37067px;font-family:'Proxima Nova';dominant-baseline:alphabetic;text-anchor:middle;fill:#18191c"/>
      <path d="m 11.981024,47.377499 h 0.336635 v -0.56659 h 0.403013 c 0.341376,0 0.531029,-0.229954 0.531029,-0.504952 0,-0.277368 -0.187282,-0.509693 -0.531029,-0.509693 h -0.739648 z m 0.926931,-1.073912 c 0,0.132757 -0.09957,0.218101 -0.232326,0.218101 h -0.35797 v -0.436203 h 0.35797 c 0.132758,0 0.232326,0.08772 0.232326,0.218102 z" style="font-weight:bold;font-size:2.37067px;font-family:'Proxima Nova';dominant-baseline:alphabetic;text-anchor:middle;fill:#18191c"/>
    </g>
    <rect x="4.96" y="99.65955555555556" width="17.4" height="12.980444444444444" rx="1" ry="1" fill="#efedeb" stroke="#18191c" stroke-width="0.35"/>
    <g style="font-weight:bold;font-size:2.37067px;font-family:'Proxima Nova';dominant-baseline:alphabetic;text-anchor:middle;fill:#18191c">
      <path d="m 7.6634655,102.24 h 0.3864187 l -0.3556,-0.60215 c 0.170688,-0.0403 0.3461173,-0.18965 0.3461173,-0.46939 0,-0.29397 -0.2015066,-0.5097 -0.5310293,-0.5097 H 6.7697242 V 102.24 h 0.3366346 v -0.56659 h 0.2465494 z m 0.033189,-1.07391 c 0,0.13275 -0.1019387,0.2181 -0.2370667,0.2181 H 7.1063588 v -0.43621 h 0.3532294 c 0.135128,0 0.2370667,0.0854 0.2370667,0.21811 z" style="font-weight:bold;font-size:2.37067px;font-family:'Proxima Nova';dominant-baseline:alphabetic;text-anchor:middle;fill:#18191c"/>
      <path d="m 8.2930627,102.24 h 1.1189547 v -0.29159 h -0.78232 v -0.36746 h 0.7657253 v -0.28922 H 8.6296974 v -0.34375 h 0.78232 v -0.28922 H 8.2930627 Z" style="font-weight:bold;font-size:2.37067px;font-family:'Proxima Nova';dominant-baseline:alphabetic;text-anchor:middle;fill:#18191c"/>
      <path d="m 9.5684444,102.01716 c 0.149352,0.14935 0.3674533,0.25129 0.6708986,0.25129 0.42672,0 0.632968,-0.21811 0.632968,-0.50733 0,-0.35086 -0.331893,-0.42909 -0.592667,-0.48835 -0.182541,-0.0427 -0.3152983,-0.0759 -0.3152983,-0.18255 0,-0.0948 0.080602,-0.1612 0.2323253,-0.1612 0.154093,0 0.324781,0.0545 0.452797,0.17306 l 0.187283,-0.24655 c -0.156464,-0.14461 -0.365083,-0.22047 -0.616373,-0.22047 -0.372195,0 -0.599779,0.21336 -0.599779,0.4765 0,0.35323 0.3318934,0.42435 0.590296,0.48362 0.182541,0.0427 0.32004,0.083 0.32004,0.2015 0,0.0901 -0.09009,0.1778 -0.274997,0.1778 -0.218102,0 -0.3911603,-0.0972 -0.5025816,-0.21336 z" style="font-weight:bold;font-size:2.37067px;font-family:'Proxima Nova';dominant-baseline:alphabetic;text-anchor:middle;fill:#18191c"/>
      <path d="m 11.098969,102.24 h 1.118954 v -0.29159 h -0.78232 v -0.36746 h 0.765726 v -0.28922 h -0.765726 v -0.34375 h 0.78232 v -0.28922 h -1.118954 z" style="font-weight:bold;font-size:2.37067px;font-family:'Proxima Nova';dominant-baseline:alphabetic;text-anchor:middle;fill:#18191c"/>
      <path d="m 12.848484,102.24 h 0.339006 v -1.2849 h 0.459909 v -0.29634 h -1.261195 v 0.29634 h 0.46228 z" style="font-weight:bold;font-size:2.37067px;font-family:'Proxima Nova';dominant-baseline:alphabetic;text-anchor:middle;fill:#18191c"/>
    </g>
    <g style="font-weight:bold;font-size:3.048px;font-family:'Proxima Nova';dominant-baseline:middle;text-anchor:end;fill:#18191c">
      <path d="m 28.668711,28.585667 c 0,0.64008 0.48768,1.054608 1.08204,1.054608 0.368808,0 0.658368,-0.1524 0.865632,-0.384048 v -0.77724 h -0.969264 v 0.371856 h 0.542544 v 0.246888 c -0.08839,0.07925 -0.252984,0.155448 -0.438912,0.155448 -0.368808,0 -0.637032,-0.283464 -0.637032,-0.667512 0,-0.384048 0.268224,-0.667512 0.637032,-0.667512 0.21336,0 0.387096,0.112776 0.481584,0.256032 l 0.359664,-0.195072 c -0.155448,-0.240792 -0.420624,-0.445008 -0.841248,-0.445008 -0.59436,0 -1.08204,0.408432 -1.08204,1.05156 z" style="font-weight:bold;font-size:3.048px;font-family:'Proxima Nova';dominant-baseline:middle;text-anchor:end;fill:#18191c"/>
      <path d="m 30.96295,29.600651 h 1.438656 v -0.374904 h -1.00584 v -0.47244 h 0.984504 v -0.371856 h -0.984504 v -0.44196 h 1.00584 V 27.567635 H 30.96295 Z" style="font-weight:bold;font-size:3.048px;font-family:'Proxima Nova';dominant-baseline:middle;text-anchor:end;fill:#18191c"/>
      <path d="m 34.145015,29.600651 h 0.417576 v -2.033016 h -0.432816 v 1.316736 l -0.941832,-1.316736 h -0.445008 v 2.033016 h 0.432816 v -1.365504 z" style="font-weight:bold;font-size:3.048px;font-family:'Proxima Nova';dominant-baseline:middle;text-anchor:end;fill:#18191c"/>
      <path d="m 34.963451,29.600651 h 1.438656 v -0.374904 h -1.00584 v -0.47244 h 0.984504 v -0.371856 h -0.984504 v -0.44196 h 1.00584 v -0.371856 h -1.438656 z" style="font-weight:bold;font-size:3.048px;font-family:'Proxima Nova';dominant-baseline:middle;text-anchor:end;fill:#18191c"/>
      <path d="m 37.892531,29.600651 h 0.496824 l -0.4572,-0.774192 c 0.219456,-0.05182 0.445008,-0.24384 0.445008,-0.603504 0,-0.377952 -0.25908,-0.65532 -0.682752,-0.65532 h -0.950976 v 2.033016 h 0.432816 v -0.728472 h 0.316992 z m 0.04267,-1.380744 c 0,0.170688 -0.131064,0.280416 -0.3048,0.280416 h -0.454152 v -0.560832 h 0.454152 c 0.173736,0 0.3048,0.109728 0.3048,0.280416 z" style="font-weight:bold;font-size:3.048px;font-family:'Proxima Nova';dominant-baseline:middle;text-anchor:end;fill:#18191c"/>
      <path d="m 40.125429,29.600651 h 0.47244 l -0.783336,-2.033016 h -0.542544 l -0.786384,2.033016 h 0.475488 l 0.128016,-0.35052 h 0.908304 z m -0.582168,-1.658112 0.33528,0.932688 h -0.673608 z" style="font-weight:bold;font-size:3.048px;font-family:'Proxima Nova';dominant-baseline:middle;text-anchor:end;fill:#18191c"/>
      <path d="m 41.058545,29.600651 h 0.435865 v -1.652016 h 0.591312 v -0.381 h -1.621537 v 0.381 h 0.59436 z" style="font-weight:bold;font-size:3.048px;font-family:'Proxima Nova';dominant-baseline:middle;text-anchor:end;fill:#18191c"/>
      <path d="m 42.363185,29.600651 h 1.438656 v -0.374904 h -1.00584 v -0.47244 h 0.984504 v -0.371856 h -0.984504 v -0.44196 h 1.00584 v -0.371856 h -1.438656 z" style="font-weight:bold;font-size:3.048px;font-family:'Proxima Nova';dominant-baseline:middle;text-anchor:end;fill:#18191c"/>
    </g>
    <g style="font-weight:bold;font-size:3.048px;font-family:'Proxima Nova';dominant-baseline:middle;text-anchor:end;fill:#18191c">
      <path d="M 31.23146,37.931851 H 31.7039 L 30.920564,35.898835 H 30.37802 l -0.786384,2.033016 h 0.475488 l 0.128016,-0.35052 h 0.908304 z m -0.582168,-1.658112 0.33528,0.932688 h -0.673608 z" style="font-weight:bold;font-size:3.048px;font-family:'Proxima Nova';dominant-baseline:middle;text-anchor:end;fill:#18191c"/>
      <path d="m 31.891638,37.931851 h 0.801624 c 0.637032,0 1.078992,-0.402336 1.078992,-1.014984 0,-0.612648 -0.44196,-1.018032 -1.078992,-1.018032 h -0.801624 z m 0.432816,-0.381 v -1.271016 h 0.368808 c 0.417576,0 0.637032,0.277368 0.637032,0.637032 0,0.344424 -0.234696,0.633984 -0.637032,0.633984 z" style="font-weight:bold;font-size:3.048px;font-family:'Proxima Nova';dominant-baseline:middle;text-anchor:end;fill:#18191c"/>
      <path d="m 34.592833,37.931851 h 0.542544 l 0.783336,-2.033016 h -0.493776 l -0.560832,1.563624 -0.56388,-1.563624 h -0.493776 z" style="font-weight:bold;font-size:3.048px;font-family:'Proxima Nova';dominant-baseline:middle;text-anchor:end;fill:#18191c"/>
      <path d="m 37.386991,37.931851 h 0.47244 l -0.783336,-2.033016 h -0.542544 l -0.786384,2.033016 h 0.475488 l 0.128016,-0.35052 h 0.908304 z m -0.582168,-1.658112 0.33528,0.932688 h -0.673608 z" style="font-weight:bold;font-size:3.048px;font-family:'Proxima Nova';dominant-baseline:middle;text-anchor:end;fill:#18191c"/>
      <path d="m 39.449249,37.931851 h 0.417576 v -2.033016 h -0.432816 v 1.316736 l -0.941832,-1.316736 h -0.445008 v 2.033016 h 0.432816 v -1.365504 z" style="font-weight:bold;font-size:3.048px;font-family:'Proxima Nova';dominant-baseline:middle;text-anchor:end;fill:#18191c"/>
      <path d="m 41.236949,37.968427 c 0.463296,0 0.719328,-0.246888 0.865632,-0.499872 l -0.371856,-0.179832 c -0.08534,0.16764 -0.268224,0.295656 -0.493776,0.295656 -0.353568,0 -0.621792,-0.283464 -0.621792,-0.667512 0,-0.384048 0.268224,-0.667512 0.621792,-0.667512 0.225552,0 0.408432,0.131064 0.493776,0.295656 l 0.371856,-0.18288 c -0.143256,-0.252984 -0.402336,-0.496824 -0.865632,-0.496824 -0.59436,0 -1.0668,0.42672 -1.0668,1.05156 0,0.62484 0.47244,1.05156 1.0668,1.05156 z" style="font-weight:bold;font-size:3.048px;font-family:'Proxima Nova';dominant-baseline:middle;text-anchor:end;fill:#18191c"/>
      <path d="m 42.363185,37.931851 h 1.438656 v -0.374904 h -1.00584 v -0.47244 h 0.984504 v -0.371856 h -0.984504 v -0.44196 h 1.00584 v -0.371856 h -1.438656 z" style="font-weight:bold;font-size:3.048px;font-family:'Proxima Nova';dominant-baseline:middle;text-anchor:end;fill:#18191c"/>
    </g>
    <g style="font-weight:bold;font-size:3.048px;font-family:'Proxima Nova';dominant-baseline:middle;text-anchor:end;fill:#18191c">
      <path d="m 35.308732,50.631852 h 1.292352 v -0.381 h -0.859536 v -1.652016 h -0.432816 z" style="font-weight:bold;font-size:3.048px;font-family:'Proxima Nova';dominant-baseline:middle;text-anchor:end;fill:#18191c"/>
      <path d="m 36.904169,50.631852 h 1.438656 v -0.374904 h -1.00584 v -0.47244 h 0.984504 v -0.371856 h -0.984504 v -0.44196 h 1.00584 v -0.371856 h -1.438656 z" style="font-weight:bold;font-size:3.048px;font-family:'Proxima Nova';dominant-baseline:middle;text-anchor:end;fill:#18191c"/>
      <path d="m 39.25413,50.631852 h 0.542544 l 0.783336,-2.033016 h -0.493776 l -0.560832,1.563624 -0.56388,-1.563624 h -0.493776 z" style="font-weight:bold;font-size:3.048px;font-family:'Proxima Nova';dominant-baseline:middle;text-anchor:end;fill:#18191c"/>
      <path d="m 40.767747,50.631852 h 1.438656 v -0.374904 h -1.00584 v -0.47244 h 0.984504 v -0.371856 h -0.984504 v -0.44196 h 1.00584 v -0.371856 h -1.438656 z" style="font-weight:bold;font-size:3.048px;font-family:'Proxima Nova';dominant-baseline:middle;text-anchor:end;fill:#18191c"/>
      <path d="m 42.547732,50.631852 h 1.292352 v -0.381 h -0.859536 v -1.652016 h -0.432816 z" style="font-weight:bold;font-size:3.048px;font-family:'Proxima Nova';dominant-baseline:middle;text-anchor:end;fill:#18191c"/>
    </g>
    <g style="font-weight:bold;font-size:3.048px;font-family:'Proxima Nova';dominant-baseline:middle;text-anchor:end;fill:#18191c">
      <path d="m 34.186258,65.585337 c 0.192024,0.192024 0.47244,0.323088 0.862584,0.323088 0.54864,0 0.813816,-0.280416 0.813816,-0.652272 0,-0.451104 -0.42672,-0.551688 -0.762,-0.627888 -0.234696,-0.05486 -0.405384,-0.09754 -0.405384,-0.234696 0,-0.12192 0.103632,-0.207264 0.298704,-0.207264 0.19812,0 0.417576,0.0701 0.582168,0.222504 l 0.240792,-0.316992 c -0.201168,-0.185928 -0.469392,-0.283464 -0.79248,-0.283464 -0.478536,0 -0.771144,0.27432 -0.771144,0.612648 0,0.454152 0.42672,0.545592 0.758952,0.621792 0.234696,0.05486 0.41148,0.10668 0.41148,0.25908 0,0.115824 -0.115824,0.2286 -0.353568,0.2286 -0.280416,0 -0.50292,-0.124968 -0.646176,-0.27432 z" style="font-weight:bold;font-size:3.048px;font-family:'Proxima Nova';dominant-baseline:middle;text-anchor:end;fill:#18191c"/>
      <path d="m 37.547011,65.871849 h 0.435864 v -2.033016 h -0.435864 v 0.798576 h -0.96012 v -0.798576 h -0.432816 v 2.033016 h 0.432816 v -0.85344 h 0.96012 z" style="font-weight:bold;font-size:3.048px;font-family:'Proxima Nova';dominant-baseline:middle;text-anchor:end;fill:#18191c"/>
      <path d="M 39.80396,65.871849 H 40.2764 L 39.493064,63.838833 H 38.95052 l -0.786384,2.033016 h 0.475488 l 0.128016,-0.35052 h 0.908304 z m -0.582168,-1.658112 0.33528,0.932688 h -0.673608 z" style="font-weight:bold;font-size:3.048px;font-family:'Proxima Nova';dominant-baseline:middle;text-anchor:end;fill:#18191c"/>
      <path d="m 40.464138,65.871849 h 0.432816 v -0.728472 h 0.51816 c 0.438912,0 0.682752,-0.295656 0.682752,-0.649224 0,-0.356616 -0.240792,-0.65532 -0.682752,-0.65532 h -0.950976 z m 1.191768,-1.380744 c 0,0.170688 -0.128016,0.280416 -0.298704,0.280416 h -0.460248 v -0.560832 h 0.460248 c 0.170688,0 0.298704,0.112776 0.298704,0.280416 z" style="font-weight:bold;font-size:3.048px;font-family:'Proxima Nova';dominant-baseline:middle;text-anchor:end;fill:#18191c"/>
      <path d="m 42.363185,65.871849 h 1.438656 v -0.374904 h -1.00584 v -0.47244 h 0.984504 v -0.371856 h -0.984504 v -0.44196 h 1.00584 v -0.371856 h -1.438656 z" style="font-weight:bold;font-size:3.048px;font-family:'Proxima Nova';dominant-baseline:middle;text-anchor:end;fill:#18191c"/>
    </g>
    <g style="font-weight:bold;font-size:3.048px;font-family:'Proxima Nova';dominant-baseline:middle;text-anchor:end;fill:#18191c">
      <path d="m 35.004027,77.338426 c 0.463296,0 0.719328,-0.246888 0.865632,-0.499872 l -0.371856,-0.179832 c -0.08534,0.16764 -0.268224,0.295656 -0.493776,0.295656 -0.353568,0 -0.621792,-0.283464 -0.621792,-0.667512 0,-0.384048 0.268224,-0.667512 0.621792,-0.667512 0.225552,0 0.408432,0.131064 0.493776,0.295656 l 0.371856,-0.18288 c -0.143256,-0.252984 -0.402336,-0.496824 -0.865632,-0.496824 -0.59436,0 -1.0668,0.42672 -1.0668,1.05156 0,0.62484 0.47244,1.05156 1.0668,1.05156 z" style="font-weight:bold;font-size:3.048px;font-family:'Proxima Nova';dominant-baseline:middle;text-anchor:end;fill:#18191c"/>
      <path d="m 36.130263,76.491082 c 0,0.499872 0.28956,0.847344 0.911352,0.847344 0.615696,0 0.905256,-0.344424 0.905256,-0.850392 v -1.2192 h -0.438912 v 1.207008 c 0,0.283464 -0.155448,0.478536 -0.466344,0.478536 -0.316992,0 -0.47244,-0.195072 -0.47244,-0.478536 v -1.207008 h -0.438912 z" style="font-weight:bold;font-size:3.048px;font-family:'Proxima Nova';dominant-baseline:middle;text-anchor:end;fill:#18191c"/>
      <path d="m 39.499875,77.30185 h 0.496824 l -0.4572,-0.774192 c 0.219456,-0.05182 0.445008,-0.24384 0.445008,-0.603504 0,-0.377952 -0.25908,-0.65532 -0.682752,-0.65532 h -0.950977 v 2.033016 h 0.432817 v -0.728472 h 0.316992 z m 0.04267,-1.380744 c 0,0.170688 -0.131064,0.280416 -0.3048,0.280416 H 38.783595 V 75.64069 h 0.454152 c 0.173736,0 0.3048,0.109728 0.3048,0.280416 z" style="font-weight:bold;font-size:3.048px;font-family:'Proxima Nova';dominant-baseline:middle;text-anchor:end;fill:#18191c"/>
      <path d="m 40.849567,77.30185 h 0.542544 l 0.783336,-2.033016 h -0.493776 l -0.560832,1.563624 -0.56388,-1.563624 h -0.493776 z" style="font-weight:bold;font-size:3.048px;font-family:'Proxima Nova';dominant-baseline:middle;text-anchor:end;fill:#18191c"/>
      <path d="m 42.363185,77.30185 h 1.438656 v -0.374904 h -1.00584 v -0.47244 h 0.984504 V 76.08265 h -0.984504 v -0.44196 h 1.00584 v -0.371856 h -1.438656 z" style="font-weight:bold;font-size:3.048px;font-family:'Proxima Nova';dominant-baseline:middle;text-anchor:end;fill:#18191c"/>
    </g>
    <g style="font-weight:bold;font-size:3.048px;font-family:'Proxima Nova';dominant-baseline:middle;text-anchor:end;fill:#18191c">
      <path d="m 28.724575,92.541855 h 0.801624 c 0.637032,0 1.078992,-0.402336 1.078992,-1.014984 0,-0.612648 -0.44196,-1.018032 -1.078992,-1.018032 h -0.801624 z m 0.432816,-0.381 v -1.271016 h 0.368808 c 0.417576,0 0.637032,0.277368 0.637032,0.637032 0,0.344424 -0.234696,0.633984 -0.637032,0.633984 z" style="font-weight:bold;font-size:3.048px;font-family:'Proxima Nova';dominant-baseline:middle;text-anchor:end;fill:#18191c"/>
      <path d="m 30.915325,91.731087 c 0,0.499872 0.28956,0.847344 0.911352,0.847344 0.615696,0 0.905256,-0.344424 0.905256,-0.850392 v -1.2192 h -0.438912 v 1.207008 c 0,0.283464 -0.155448,0.478536 -0.466344,0.478536 -0.316992,0 -0.47244,-0.195072 -0.47244,-0.478536 v -1.207008 h -0.438912 z" style="font-weight:bold;font-size:3.048px;font-family:'Proxima Nova';dominant-baseline:middle;text-anchor:end;fill:#18191c"/>
      <path d="m 34.284937,92.541855 h 0.496824 l -0.4572,-0.774192 c 0.219456,-0.05182 0.445008,-0.24384 0.445008,-0.603504 0,-0.377952 -0.25908,-0.65532 -0.682752,-0.65532 h -0.950976 v 2.033016 h 0.432816 v -0.728472 h 0.316992 z m 0.04267,-1.380744 c 0,0.170688 -0.131064,0.280416 -0.3048,0.280416 h -0.454152 v -0.560832 h 0.454152 c 0.173736,0 0.3048,0.109728 0.3048,0.280416 z" style="font-weight:bold;font-size:3.048px;font-family:'Proxima Nova';dominant-baseline:middle;text-anchor:end;fill:#18191c"/>
      <path d="m 36.517835,92.541855 h 0.47244 l -0.783336,-2.033016 h -0.542544 l -0.786384,2.033016 h 0.475488 l 0.128016,-0.35052 h 0.908304 z m -0.582168,-1.658112 0.33528,0.932688 h -0.673608 z" style="font-weight:bold;font-size:3.048px;font-family:'Proxima Nova';dominant-baseline:middle;text-anchor:end;fill:#18191c"/>
      <path d="m 37.450952,92.541855 h 0.435864 v -1.652016 h 0.591312 v -0.381 h -1.621536 v 0.381 h 0.59436 z" style="font-weight:bold;font-size:3.048px;font-family:'Proxima Nova';dominant-baseline:middle;text-anchor:end;fill:#18191c"/>
      <path d="m 38.755591,92.541855 h 0.432816 v -2.033016 h -0.432816 z" style="font-weight:bold;font-size:3.048px;font-family:'Proxima Nova';dominant-baseline:middle;text-anchor:end;fill:#18191c"/>
      <path d="m 39.491492,91.526871 c 0,0.612648 0.448056,1.05156 1.060704,1.05156 0.615696,0 1.063752,-0.438912 1.063752,-1.05156 0,-0.612648 -0.448056,-1.05156 -1.063752,-1.05156 -0.612648,0 -1.060704,0.438912 -1.060704,1.05156 z m 1.679448,0 c 0,0.377952 -0.24384,0.667512 -0.618744,0.667512 -0.374904,0 -0.615696,-0.28956 -0.615696,-0.667512 0,-0.381 0.240792,-0.667512 0.615696,-0.667512 0.374904,0 0.618744,0.286512 0.618744,0.667512 z" style="font-weight:bold;font-size:3.048px;font-family:'Proxima Nova';dominant-baseline:middle;text-anchor:end;fill:#18191c"/>
      <path d="m 43.324733,92.541855 h 0.417576 v -2.033016 h -0.432816 v 1.316736 l -0.941832,-1.316736 h -0.445008 v 2.033016 h 0.432816 v -1.365504 z" style="font-weight:bold;font-size:3.048px;font-family:'Proxima Nova';dominant-baseline:middle;text-anchor:end;fill:#18191c"/>
    </g>
    <g style="font-weight:bold;font-size:3.048px;font-family:'Proxima Nova';dominant-baseline:middle;text-anchor:end;fill:#18191c">
      <path d="m 30.474794,109.64185 h 1.438656 v -0.3749 h -1.00584 v -0.47244 h 0.984504 v -0.37186 H 30.90761 v -0.44196 h 1.00584 v -0.37185 h -1.438656 z" style="font-weight:bold;font-size:3.048px;font-family:'Proxima Nova';dominant-baseline:middle;text-anchor:end;fill:#18191c"/>
      <path d="m 33.656858,109.64185 h 0.417576 v -2.03301 h -0.432816 v 1.31673 l -0.941832,-1.31673 h -0.445008 v 2.03301 h 0.432816 v -1.3655 z" style="font-weight:bold;font-size:3.048px;font-family:'Proxima Nova';dominant-baseline:middle;text-anchor:end;fill:#18191c"/>
      <path d="m 35.89871,109.64185 h 0.47244 l -0.783336,-2.03301 H 35.04527 l -0.786384,2.03301 h 0.475488 l 0.128016,-0.35052 h 0.908304 z m -0.582168,-1.65811 0.33528,0.93269 h -0.673608 z" style="font-weight:bold;font-size:3.048px;font-family:'Proxima Nova';dominant-baseline:middle;text-anchor:end;fill:#18191c"/>
      <path d="m 36.558888,109.64185 h 1.103376 c 0.387096,0 0.591312,-0.24384 0.591312,-0.54864 0,-0.25603 -0.173736,-0.46634 -0.390144,-0.49987 0.192024,-0.0396 0.35052,-0.21031 0.35052,-0.46634 0,-0.27127 -0.19812,-0.51816 -0.585216,-0.51816 h -1.069848 z m 0.432816,-1.21615 v -0.44805 h 0.542544 c 0.146304,0 0.237744,0.0975 0.237744,0.2225 0,0.13106 -0.09144,0.22555 -0.237744,0.22555 z m 0,0.84735 v -0.47854 h 0.557784 c 0.170688,0 0.262128,0.10973 0.262128,0.23774 0,0.14631 -0.09754,0.2408 -0.262128,0.2408 z" style="font-weight:bold;font-size:3.048px;font-family:'Proxima Nova';dominant-baseline:middle;text-anchor:end;fill:#18191c"/>
      <path d="m 38.576997,109.64185 h 1.292352 v -0.381 h -0.859536 v -1.65201 h -0.432816 z" style="font-weight:bold;font-size:3.048px;font-family:'Proxima Nova';dominant-baseline:middle;text-anchor:end;fill:#18191c"/>
      <path d="m 40.172435,109.64185 h 1.438656 v -0.3749 h -1.00584 v -0.47244 h 0.984504 v -0.37186 h -0.984504 v -0.44196 h 1.00584 v -0.37185 h -1.438656 z" style="font-weight:bold;font-size:3.048px;font-family:'Proxima Nova';dominant-baseline:middle;text-anchor:end;fill:#18191c"/>
      <path d="m 41.952419,109.64185 h 0.801624 c 0.637032,0 1.078992,-0.40233 1.078992,-1.01498 0,-0.61265 -0.44196,-1.01803 -1.078992,-1.01803 h -0.801624 z m 0.432816,-0.381 v -1.27101 h 0.368808 c 0.417576,0 0.637032,0.27737 0.637032,0.63703 0,0.34442 -0.234696,0.63398 -0.637032,0.63398 z" style="font-weight:bold;font-size:3.048px;font-family:'Proxima Nova';dominant-baseline:middle;text-anchor:end;fill:#18191c"/>
    </g>
    <line x1="45.085" y1="26.67" x2="45.085" y2="116.84" stroke="#18191c" stroke-width="0.35"/>
    <circle cx="50.8" cy="21.408" r="1.088" fill="#18191c" stroke="#18191c" stroke-width="0.35"/>
    <g style="font-weight:bold;font-size:3.048px;font-family:'Proxima Nova';dominant-baseline:alphabetic;text-anchor:middle;fill:#18191c">
      <path d="m 50.790617,17.780001 h 0.435864 v -2.033016 h -0.377952 l -0.64008,0.643128 0.246888,0.25908 0.33528,-0.344424 z" style="font-weight:bold;font-size:3.048px;font-family:'Proxima Nova';dominant-baseline:alphabetic;text-anchor:middle;fill:#18191c"/>
    </g>
    <g style="font-weight:bold;font-size:2.37067px;font-family:'Proxima Nova';dominant-baseline:hanging;text-anchor:middle;fill:#18191c">
      <path d="m 50.237762,70.253246 c 0.113792,0.111422 0.263144,0.154094 0.42435,0.154094 0.324781,0 0.557106,-0.173059 0.557106,-0.547624 v -1.062059 h -0.336634 v 1.057317 c 0,0.154094 -0.0972,0.253662 -0.24655,0.253662 -0.10905,0 -0.189653,-0.05453 -0.25129,-0.113792 z" style="font-weight:bold;font-size:2.37067px;font-family:'Proxima Nova';dominant-baseline:hanging;text-anchor:middle;fill:#18191c"/>
    </g>
    <g style="font-weight:bold;font-size:2.37067px;font-family:'Proxima Nova';dominant-baseline:alphabetic;text-anchor:middle;fill:#18191c">
      <path d="m 50.136676,60.547158 c 0.149352,0.149352 0.367453,0.25129 0.670898,0.25129 0.42672,0 0.632968,-0.218101 0.632968,-0.507322 0,-0.350859 -0.331893,-0.429091 -0.592666,-0.488358 -0.182542,-0.04267 -0.315299,-0.07586 -0.315299,-0.182541 0,-0.09483 0.0806,-0.161205 0.232325,-0.161205 0.154094,0 0.324782,0.05453 0.452798,0.173058 l 0.187282,-0.246549 C 51.248518,59.24092 51.0399,59.165059 50.788609,59.165059 c -0.372195,0 -0.599779,0.21336 -0.599779,0.476504 0,0.353229 0.331894,0.424349 0.590296,0.483616 0.182542,0.04267 0.32004,0.08297 0.32004,0.201507 0,0.09008 -0.09008,0.1778 -0.274997,0.1778 -0.218101,0 -0.39116,-0.0972 -0.502581,-0.21336 z" style="font-weight:bold;font-size:2.37067px;font-family:'Proxima Nova';dominant-baseline:alphabetic;text-anchor:middle;fill:#18191c"/>
    </g>
    <line x1="50.8" y1="104.44" x2="50.8" y2="112.64" stroke="#18191c" stroke-width="0.35"/>
    <line x1="56.515" y1="26.67" x2="56.515" y2="116.84" stroke="#18191c" stroke-width="0.35"/>
    <circle cx="62.230000000000004" cy="21.408" r="1.088" fill="#18191c" stroke="#18191c" stroke-width="0.35"/>
    <g style="font-weight:bold;font-size:3.048px;font-family:'Proxima Nova';dominant-baseline:alphabetic;text-anchor:middle;fill:#18191c">
      <path d="m 61.459451,17.780001 h 1.530096 v -0.381 h -0.847344 c 0.545592,-0.384048 0.832104,-0.6858 0.832104,-1.033272 0,-0.405384 -0.344424,-0.649224 -0.77724,-0.649224 -0.283464,0 -0.585216,0.103632 -0.783336,0.332232 l 0.246888,0.286512 c 0.13716,-0.143256 0.313944,-0.234696 0.542544,-0.234696 0.170688,0 0.332232,0.08839 0.332232,0.265176 0,0.249936 -0.24384,0.460248 -1.075944,1.072896 z" style="font-weight:bold;font-size:3.048px;font-family:'Proxima Nova';dominant-baseline:alphabetic;text-anchor:middle;fill:#18191c"/>
    </g>
    <g style="font-weight:bold;font-size:2.37067px;font-family:'Proxima Nova';dominant-baseline:hanging;text-anchor:middle;fill:#18191c">
      <path d="m 61.667763,70.253246 c 0.113792,0.111422 0.263144,0.154094 0.424349,0.154094 0.324781,0 0.557107,-0.173059 0.557107,-0.547624 v -1.062059 h -0.336635 v 1.057317 c 0,0.154094 -0.0972,0.253662 -0.246549,0.253662 -0.109051,0 -0.189654,-0.05453 -0.251291,-0.113792 z" style="font-weight:bold;font-size:2.37067px;font-family:'Proxima Nova';dominant-baseline:hanging;text-anchor:middle;fill:#18191c"/>
    </g>
    <g style="font-weight:bold;font-size:2.37067px;font-family:'Proxima Nova';dominant-baseline:alphabetic;text-anchor:middle;fill:#18191c">
      <path d="m 61.566676,60.547158 c 0.149352,0.149352 0.367453,0.25129 0.670899,0.25129 0.42672,0 0.632968,-0.218101 0.632968,-0.507322 0,-0.350859 -0.331894,-0.429091 -0.592667,-0.488358 -0.182541,-0.04267 -0.315299,-0.07586 -0.315299,-0.182541 0,-0.09483 0.0806,-0.161205 0.232326,-0.161205 0.154093,0 0.324781,0.05453 0.452797,0.173058 l 0.187283,-0.246549 C 62.678519,59.24092 62.4699,59.165059 62.218609,59.165059 c -0.372194,0 -0.599778,0.21336 -0.599778,0.476504 0,0.353229 0.331893,0.424349 0.590296,0.483616 0.182541,0.04267 0.32004,0.08297 0.32004,0.201507 0,0.09008 -0.09009,0.1778 -0.274998,0.1778 -0.218101,0 -0.39116,-0.0972 -0.502581,-0.21336 z" style="font-weight:bold;font-size:2.37067px;font-family:'Proxima Nova';dominant-baseline:alphabetic;text-anchor:middle;fill:#18191c"/>
    </g>
    <line x1="62.230000000000004" y1="104.44" x2="62.230000000000004" y2="112.64" stroke="#18191c" stroke-width="0.35"/>
    <line x1="67.945" y1="26.67" x2="67.945" y2="116.84" stroke="#18191c" stroke-width="0.35"/>
    <circle cx="73.66" cy="21.408" r="1.088" fill="#18191c" stroke="#18191c" stroke-width="0.35"/>
    <g style="font-weight:bold;font-size:3.048px;font-family:'Proxima Nova';dominant-baseline:alphabetic;text-anchor:middle;fill:#18191c">
      <path d="m 72.825018,17.490441 c 0.149352,0.18288 0.42672,0.326136 0.801624,0.326136 0.48768,0 0.801624,-0.246888 0.801624,-0.597408 0,-0.3048 -0.268224,-0.466344 -0.475488,-0.48768 0.225552,-0.03962 0.445008,-0.207264 0.445008,-0.463296 0,-0.338328 -0.292608,-0.551688 -0.768096,-0.551688 -0.356616,0 -0.612648,0.13716 -0.77724,0.323088 l 0.21336,0.268224 c 0.143256,-0.13716 0.32004,-0.21336 0.51816,-0.21336 0.21336,0 0.377952,0.0823 0.377952,0.24384 0,0.1524 -0.149352,0.225552 -0.374904,0.225552 -0.07925,0 -0.216408,0 -0.252984,-0.003 v 0.377952 c 0.03048,-0.003 0.16764,-0.003 0.252984,-0.003 0.283464,0 0.408432,0.0762 0.408432,0.240792 0,0.155448 -0.13716,0.262128 -0.384048,0.262128 -0.19812,0 -0.420624,-0.08534 -0.560832,-0.231648 z" style="font-weight:bold;font-size:3.048px;font-family:'Proxima Nova';dominant-baseline:alphabetic;text-anchor:middle;fill:#18191c"/>
    </g>
    <g style="font-weight:bold;font-size:2.37067px;font-family:'Proxima Nova';dominant-baseline:hanging;text-anchor:middle;fill:#18191c">
      <path d="m 73.097767,70.253246 c 0.113792,0.111422 0.263144,0.154094 0.424349,0.154094 0.324781,0 0.557107,-0.173059 0.557107,-0.547624 v -1.062059 h -0.336635 v 1.057317 c 0,0.154094 -0.0972,0.253662 -0.246549,0.253662 -0.109051,0 -0.189654,-0.05453 -0.251291,-0.113792 z" style="font-weight:bold;font-size:2.37067px;font-family:'Proxima Nova';dominant-baseline:hanging;text-anchor:middle;fill:#18191c"/>
    </g>
    <g style="font-weight:bold;font-size:2.37067px;font-family:'Proxima Nova';dominant-baseline:alphabetic;text-anchor:middle;fill:#18191c">
      <path d="m 72.99668,60.547158 c 0.149352,0.149352 0.367453,0.25129 0.670899,0.25129 0.42672,0 0.632968,-0.218101 0.632968,-0.507322 0,-0.350859 -0.331894,-0.429091 -0.592667,-0.488358 -0.182541,-0.04267 -0.315299,-0.07586 -0.315299,-0.182541 0,-0.09483 0.0806,-0.161205 0.232326,-0.161205 0.154093,0 0.324781,0.05453 0.452797,0.173058 l 0.187283,-0.246549 c -0.156464,-0.144611 -0.365083,-0.220472 -0.616374,-0.220472 -0.372194,0 -0.599778,0.21336 -0.599778,0.476504 0,0.353229 0.331893,0.424349 0.590296,0.483616 0.182541,0.04267 0.32004,0.08297 0.32004,0.201507 0,0.09008 -0.09009,0.1778 -0.274998,0.1778 -0.218101,0 -0.39116,-0.0972 -0.502581,-0.21336 z" style="font-weight:bold;font-size:2.37067px;font-family:'Proxima Nova';dominant-baseline:alphabetic;text-anchor:middle;fill:#18191c"/>
    </g>
    <line x1="73.66" y1="104.44" x2="73.66" y2="112.64" stroke="#18191c" stroke-width="0.35"/>
    <line x1="79.375" y1="26.67" x2="79.375" y2="116.84" stroke="#18191c" stroke-width="0.35"/>
    <circle cx="85.09" cy="21.408" r="1.088" fill="#18191c" stroke="#18191c" stroke-width="0.35"/>
    <g style="font-weight:bold;font-size:3.048px;font-family:'Proxima Nova';dominant-baseline:alphabetic;text-anchor:middle;fill:#18191c">
      <path d="m 85.22768,17.780001 h 0.432816 v -0.420624 h 0.262128 v -0.381 h -0.262128 v -1.231392 h -0.597408 l -0.80772,1.271016 v 0.341376 h 0.972312 z m 0,-1.648968 v 0.847344 h -0.54864 z" style="font-weight:bold;font-size:3.048px;font-family:'Proxima Nova';dominant-baseline:alphabetic;text-anchor:middle;fill:#18191c"/>
    </g>
    <g style="font-weight:bold;font-size:2.37067px;font-family:'Proxima Nova';dominant-baseline:hanging;text-anchor:middle;fill:#18191c">
      <path d="m 84.527759,70.253246 c 0.113792,0.111422 0.263144,0.154094 0.42435,0.154094 0.324781,0 0.557106,-0.173059 0.557106,-0.547624 v -1.062059 h -0.336634 v 1.057317 c 0,0.154094 -0.0972,0.253662 -0.24655,0.253662 -0.10905,0 -0.189653,-0.05453 -0.25129,-0.113792 z" style="font-weight:bold;font-size:2.37067px;font-family:'Proxima Nova';dominant-baseline:hanging;text-anchor:middle;fill:#18191c"/>
    </g>
    <g style="font-weight:bold;font-size:2.37067px;font-family:'Proxima Nova';dominant-baseline:alphabetic;text-anchor:middle;fill:#18191c">
      <path d="m 84.426673,60.547158 c 0.149352,0.149352 0.367453,0.25129 0.670898,0.25129 0.42672,0 0.632968,-0.218101 0.632968,-0.507322 0,-0.350859 -0.331893,-0.429091 -0.592666,-0.488358 -0.182542,-0.04267 -0.315299,-0.07586 -0.315299,-0.182541 0,-0.09483 0.0806,-0.161205 0.232325,-0.161205 0.154094,0 0.324782,0.05453 0.452798,0.173058 l 0.187282,-0.246549 c -0.156464,-0.144611 -0.365082,-0.220472 -0.616373,-0.220472 -0.372195,0 -0.599779,0.21336 -0.599779,0.476504 0,0.353229 0.331894,0.424349 0.590296,0.483616 0.182542,0.04267 0.32004,0.08297 0.32004,0.201507 0,0.09008 -0.09009,0.1778 -0.274997,0.1778 -0.218101,0 -0.39116,-0.0972 -0.502581,-0.21336 z" style="font-weight:bold;font-size:2.37067px;font-family:'Proxima Nova';dominant-baseline:alphabetic;text-anchor:middle;fill:#18191c"/>
    </g>
    <line x1="85.09" y1="104.44" x2="85.09" y2="112.64" stroke="#18191c" stroke-width="0.35"/>
    <line x1="90.805" y1="26.67" x2="90.805" y2="116.84" stroke="#18191c" stroke-width="0.35"/>
    <line x1="90.805" y1="49.53" x2="101.6" y2="49.53" stroke="#18191c" stroke-width="0.35"/>
    <g style="font-weight:bold;font-size:2.37067px;font-family:'Proxima Nova';dominant-baseline:hanging;text-anchor:middle;fill:#18191c">
      <path d="m 100.64753,55.138894 h 0.85818 c 0.30107,0 0.45991,-0.189653 0.45991,-0.42672 0,-0.199136 -0.13513,-0.362712 -0.30345,-0.388789 0.14935,-0.03082 0.27263,-0.163576 0.27263,-0.362712 0,-0.21099 -0.15409,-0.403014 -0.45517,-0.403014 h -0.8321 z m 0.33663,-0.945896 V 53.84451 h 0.42198 c 0.11379,0 0.18491,0.07586 0.18491,0.173059 0,0.101938 -0.0711,0.175429 -0.18491,0.175429 z m 0,0.659045 v -0.372194 h 0.43383 c 0.13276,0 0.20388,0.08534 0.20388,0.184912 0,0.113792 -0.0759,0.187282 -0.20388,0.187282 z" style="font-weight:bold;font-size:2.37067px;font-family:'Proxima Nova';dominant-baseline:hanging;text-anchor:middle;fill:#18191c"/>
      <path d="m 102.21717,55.138894 h 0.33663 v -1.581235 h -0.33663 z" style="font-weight:bold;font-size:2.37067px;font-family:'Proxima Nova';dominant-baseline:hanging;text-anchor:middle;fill:#18191c"/>
    </g>
    <g style="font-weight:bold;font-size:2.37067px;font-family:'Proxima Nova';dominant-baseline:alphabetic;text-anchor:middle;fill:#18191c">
      <path d="m 99.70528,44.899401 c 0,0.38879 0.225213,0.659046 0.70883,0.659046 0.47887,0 0.70409,-0.267886 0.70409,-0.661416 v -0.948267 h -0.34138 v 0.938784 c 0,0.220472 -0.1209,0.372195 -0.36271,0.372195 -0.24655,0 -0.36745,-0.151723 -0.36745,-0.372195 v -0.938784 h -0.34138 z" style="font-weight:bold;font-size:2.37067px;font-family:'Proxima Nova';dominant-baseline:alphabetic;text-anchor:middle;fill:#18191c"/>
      <path d="m 102.52285,45.529999 h 0.32479 V 43.948764 H 102.511 v 1.024128 l -0.73253,-1.024128 h -0.34612 v 1.581235 h 0.33663 V 44.46794 Z" style="font-weight:bold;font-size:2.37067px;font-family:'Proxima Nova';dominant-baseline:alphabetic;text-anchor:middle;fill:#18191c"/>
      <path d="m 103.15942,45.529999 h 0.33663 v -1.581235 h -0.33663 z" style="font-weight:bold;font-size:2.37067px;font-family:'Proxima Nova';dominant-baseline:alphabetic;text-anchor:middle;fill:#18191c"/>
    </g>
    <line x1="90.805" y1="91.44" x2="101.6" y2="91.44" stroke="#18191c" stroke-width="0.35"/>
    <g style="font-weight:bold;font-size:2.37067px;font-family:'Proxima Nova';dominant-baseline:hanging;text-anchor:middle;fill:#18191c">
      <path d="m 101.5927,98.54889 h 0.33901 v -1.581235 h -0.29397 l -0.49784,0.500211 0.19203,0.201507 0.26077,-0.267886 z" style="font-weight:bold;font-size:2.37067px;font-family:'Proxima Nova';dominant-baseline:hanging;text-anchor:middle;fill:#18191c"/>
    </g>
    <g style="font-weight:bold;font-size:2.37067px;font-family:'Proxima Nova';dominant-baseline:alphabetic;text-anchor:middle;fill:#18191c">
      <path d="m 100.12493,85.940002 h 0.339 v -1.581234 h -0.29396 l -0.497842,0.50021 0.192024,0.201507 0.260778,-0.267885 z" style="font-weight:bold;font-size:2.37067px;font-family:'Proxima Nova';dominant-baseline:alphabetic;text-anchor:middle;fill:#18191c"/>
      <path d="m 100.699,85.15057 c 0,0.407755 0.2015,0.81788 0.6543,0.81788 0.45043,0 0.65431,-0.410125 0.65431,-0.81788 0,-0.407754 -0.20388,-0.815509 -0.65431,-0.815509 -0.4528,0 -0.6543,0.407755 -0.6543,0.815509 z m 0.96486,0 c 0,0.291592 -0.0854,0.519176 -0.31056,0.519176 -0.22758,0 -0.31293,-0.227584 -0.31293,-0.519176 0,-0.291592 0.0854,-0.516805 0.31293,-0.516805 0.22521,0 0.31056,0.225213 0.31056,0.516805 z" style="font-weight:bold;font-size:2.37067px;font-family:'Proxima Nova';dominant-baseline:alphabetic;text-anchor:middle;fill:#18191c"/>
      <path d="m 102.16677,85.15057 c 0,0.407755 0.20151,0.81788 0.65431,0.81788 0.45042,0 0.6543,-0.410125 0.6543,-0.81788 0,-0.407754 -0.20388,-0.815509 -0.6543,-0.815509 -0.4528,0 -0.65431,0.407755 -0.65431,0.815509 z m 0.96486,0 c 0,0.291592 -0.0853,0.519176 -0.31055,0.519176 -0.22759,0 -0.31293,-0.227584 -0.31293,-0.519176 0,-0.291592 0.0853,-0.516805 0.31293,-0.516805 0.22521,0 0.31055,0.225213 0.31055,0.516805 z" style="font-weight:bold;font-size:2.37067px;font-family:'Proxima Nova';dominant-baseline:alphabetic;text-anchor:middle;fill:#18191c"/>
    </g>
    <g style="font-weight:bold;font-size:2.37067px;font-family:'Proxima Nova';dominant-baseline:middle;fill:#18191c">
      <path d="m 104.57887,92.296996 h 0.33901 v -1.581235 h -0.29396 l -0.49784,0.500211 0.19202,0.201506 0.26077,-0.267885 z" style="font-weight:bold;font-size:2.37067px;font-family:'Proxima Nova';dominant-baseline:middle;fill:#18191c"/>
      <path d="m 105.15294,91.507564 c 0,0.407754 0.20151,0.81788 0.65431,0.81788 0.45043,0 0.6543,-0.410126 0.6543,-0.81788 0,-0.407755 -0.20387,-0.81551 -0.6543,-0.81551 -0.4528,0 -0.65431,0.407755 -0.65431,0.81551 z m 0.96487,0 c 0,0.291592 -0.0854,0.519176 -0.31056,0.519176 -0.22759,0 -0.31293,-0.227584 -0.31293,-0.519176 0,-0.291592 0.0853,-0.516806 0.31293,-0.516806 0.22521,0 0.31056,0.225214 0.31056,0.516806 z" style="font-weight:bold;font-size:2.37067px;font-family:'Proxima Nova';dominant-baseline:middle;fill:#18191c"/>
    </g>
    <rect x="96.39999999999999" y="26.509555555555554" width="10.4" height="12.980444444444444" rx="1" ry="1" fill="#efedeb" stroke="#18191c" stroke-width="0.35"/>
    <g style="font-weight:bold;font-size:2.37067px;font-family:'Proxima Nova';dominant-baseline:alphabetic;text-anchor:middle;fill:#18191c">
      <path d="m 100.56881,29.09 h 0.33664 v -1.581235 h -0.33664 z" style="font-weight:bold;font-size:2.37067px;font-family:'Proxima Nova';dominant-baseline:alphabetic;text-anchor:middle;fill:#18191c"/>
      <path d="m 102.30755,29.09 h 0.32478 v -1.581235 h -0.33663 v 1.024128 l -0.73254,-1.024128 h -0.34612 V 29.09 h 0.33664 v -1.062059 z" style="font-weight:bold;font-size:2.37067px;font-family:'Proxima Nova';dominant-baseline:alphabetic;text-anchor:middle;fill:#18191c"/>
    </g>
    <rect x="96.39999999999999" y="103.85955555555556" width="10.4" height="12.980444444444444" rx="1" ry="1" fill="#18191c" stroke="#18191c" stroke-width="0.35"/>
    <g style="font-weight:bold;font-size:2.37067px;font-family:'Proxima Nova';dominant-baseline:alphabetic;text-anchor:middle;fill:#efedeb">
      <path d="m 99.219645,105.65057 c 0,0.4765 0.348488,0.81788 0.824995,0.81788 0.47887,0 0.82736,-0.34138 0.82736,-0.81788 0,-0.4765 -0.34849,-0.81788 -0.82736,-0.81788 -0.476507,0 -0.824995,0.34138 -0.824995,0.81788 z m 1.306235,0 c 0,0.29396 -0.18965,0.51918 -0.48124,0.51918 -0.291595,0 -0.478877,-0.22522 -0.478877,-0.51918 0,-0.29633 0.187282,-0.51918 0.478877,-0.51918 0.29159,0 0.48124,0.22285 0.48124,0.51918 z" style="font-weight:bold;font-size:2.37067px;font-family:'Proxima Nova';dominant-baseline:alphabetic;text-anchor:middle;fill:#efedeb"/>
      <path d="m 101.11055,105.80941 c 0,0.38878 0.22521,0.65904 0.70883,0.65904 0.47887,0 0.70409,-0.26788 0.70409,-0.66142 v -0.94826 h -0.34138 v 0.93878 c 0,0.22047 -0.1209,0.3722 -0.36271,0.3722 -0.24655,0 -0.36746,-0.15173 -0.36746,-0.3722 v -0.93878 h -0.34137 z" style="font-weight:bold;font-size:2.37067px;font-family:'Proxima Nova';dominant-baseline:alphabetic;text-anchor:middle;fill:#efedeb"/>
      <path d="m 103.2027,106.44 h 0.339 v -1.2849 h 0.45991 v -0.29633 h -1.26119 v 0.29633 h 0.46228 z" style="font-weight:bold;font-size:2.37067px;font-family:'Proxima Nova';dominant-baseline:alphabetic;text-anchor:middle;fill:#efedeb"/>
    </g>
  </g>
  <g>
    <g transform="translate(10.160000 34.290000)">
      <circle r="4.2" fill="#18191c" stroke="none"/>
      <circle r="3.5" fill="none" stroke="#efedeb" stroke-width="0.95"/>
      <circle r="2.325" fill="none" stroke="#efedeb" stroke-width="0.95"/>
    </g>
    <circle cx="18.36" cy="34.29" r="2.5" fill="#18191c" stroke="#18191c" stroke-width="1"/>
    <g transform="translate(10.160000 89.152500)">
      <circle r="4.2" fill="#18191c" stroke="none"/>
      <circle r="3.5" fill="none" stroke="#efedeb" stroke-width="0.95"/>
      <circle r="2.325" fill="none" stroke="#efedeb" stroke-width="0.95"/>
    </g>
    <circle cx="18.36" cy="89.1525" r="2.5" fill="#18191c" stroke="#18191c" stroke-width="1"/>
    <g transform="translate(9.144000 70.865000)">
      <circle r="4.2" fill="#18191c"/>
      <line y2="-3.6750000000000003" stroke="#efedeb" stroke-width="0.525" stroke-linecap="round"/>
    </g>
    <g transform="translate(18.440400 70.865000)">
      <circle r="4.2" fill="#18191c"/>
      <line y2="-3.6750000000000003" stroke="#efedeb" stroke-width="0.525" stroke-linecap="round"/>
    </g>
    <g transform="translate(10.160000 52.577500)">
      <circle r="4.2" fill="#18191c" stroke="none"/>
      <circle r="3.5" fill="none" stroke="#efedeb" stroke-width="0.95"/>
      <circle r="2.325" fill="none" stroke="#efedeb" stroke-width="0.95"/>
    </g>
    <circle cx="18.36" cy="52.5775" r="2.5" fill="#18191c" stroke="#18191c" stroke-width="1"/>
    <g transform="translate(10.160000 107.440000)">
      <circle r="4.2" fill="#18191c" stroke="none"/>
      <circle r="3.5" fill="none" stroke="#efedeb" stroke-width="0.95"/>
      <circle r="2.325" fill="none" stroke="#efedeb" stroke-width="0.95"/>
    </g>
    <circle cx="18.36" cy="107.44" r="2.5" fill="#18191c" stroke="#18191c" stroke-width="1"/>
    <g transform="translate(50.800000 28.498800)">
      <rect x="-4.5" y="-1.7902222222222222" width="9" height="3.5804444444444443" rx="0.5" ry="0.5" fill="#efedeb" stroke="#18191c" stroke-width="0.25"/>
      <g style="font-weight:bold;font-size:2.37067px;font-family:'Proxima Nova';dominant-baseline:middle;text-anchor:middle;fill:#18191c">
        <path d="m -3.020711,0.88544403 c 0.3603414,0 0.5594774,-0.19202401 0.6732694,-0.38878935 L -2.636663,0.35678535 c -0.066379,0.13038667 -0.2086186,0.22995467 -0.384048,0.22995467 -0.2749973,0 -0.483616,-0.22047201 -0.483616,-0.51917602 0,-0.29870401 0.2086187,-0.51917601 0.483616,-0.51917601 0.1754294,0 0.3176694,0.10193867 0.384048,0.22995467 l 0.2892214,-0.14224 c -0.1114214,-0.19676534 -0.312928,-0.38641868 -0.6732694,-0.38641868 -0.46228,0 -0.8297333,0.33189334 -0.8297333,0.81788002 0,0.48598669 0.3674533,0.81788003 0.8297333,0.81788003 z" style="font-weight:bold;font-size:2.37067px;font-family:'Proxima Nova';dominant-baseline:middle;text-anchor:middle;fill:#18191c"/>
        <path d="m -2.1447497,0.22639868 c 0,0.38878934 0.2252134,0.65904535 0.7088294,0.65904535 0.47887468,0 0.70408802,-0.26788534 0.70408802,-0.66141602 v -0.9482667 H -1.0732083 v 0.93878403 c 0,0.22047201 -0.120904,0.37219468 -0.362712,0.37219468 -0.2465493,0 -0.3674533,-0.15172267 -0.3674533,-0.37219468 v -0.93878403 h -0.3413761 z" style="font-weight:bold;font-size:2.37067px;font-family:'Proxima Nova';dominant-baseline:middle;text-anchor:middle;fill:#18191c"/>
        <path d="M 0.47605954,0.85699603 H 0.86247821 L 0.5068782,0.25484668 c 0.17068801,-0.0403013 0.34611735,-0.18965334 0.34611735,-0.46939202 0,-0.29396267 -0.20150668,-0.50969335 -0.53102935,-0.50969335 h -0.73964803 v 1.58123472 h 0.33663468 V 0.29040668 H 0.16550219 Z M 0.50924887,-0.216916 c 0,0.13275733 -0.10193867,0.21810134 -0.23706667,0.21810134 H -0.08104715 V -0.43501734 H 0.2721822 c 0.135128,0 0.23706667,0.085344 0.23706667,0.21810134 z" style="font-weight:bold;font-size:2.37067px;font-family:'Proxima Nova';dominant-baseline:middle;text-anchor:middle;fill:#18191c"/>
        <path d="M 1.5258203,0.85699603 H 1.9477989 L 2.5570603,-0.72423869 H 2.1730123 L 1.7368096,0.49191335 1.2982362,-0.72423869 H 0.91418823 Z" style="font-weight:bold;font-size:2.37067px;font-family:'Proxima Nova';dominant-baseline:middle;text-anchor:middle;fill:#18191c"/>
        <path d="M 2.7030786,0.85699603 H 3.8220333 V 0.56540402 h -0.78232 V 0.19795068 H 3.8054386 V -0.09127067 H 3.0397133 v -0.34374667 h 0.78232 V -0.72423869 H 2.7030786 Z" style="font-weight:bold;font-size:2.37067px;font-family:'Proxima Nova';dominant-baseline:middle;text-anchor:middle;fill:#18191c"/>
      </g>
    </g>
    <g transform="translate(50.800000 36.830000)">
      <rect x="-4.5" y="-1.7902222222222222" width="9" height="3.5804444444444443" rx="0.5" ry="0.5" fill="#efedeb" stroke="#18191c" stroke-width="0.25"/>
      <g style="font-weight:bold;font-size:2.37067px;font-family:'Proxima Nova';dominant-baseline:middle;text-anchor:middle;fill:#18191c">
        <path d="m -2.1987008,0.85699603 h 0.3390053 v -1.28490137 h 0.4599094 v -0.29633335 h -1.2611947 v 0.29633335 h 0.46228 z" style="font-weight:bold;font-size:2.37067px;font-family:'Proxima Nova';dominant-baseline:middle;text-anchor:middle;fill:#18191c"/>
        <path d="m -1.1839814,0.85699603 h 0.33663471 V -0.72423869 H -1.1839814 Z" style="font-weight:bold;font-size:2.37067px;font-family:'Proxima Nova';dominant-baseline:middle;text-anchor:middle;fill:#18191c"/>
        <path d="M 0.83923458,0.85699603 H 1.1782399 V -0.72423869 H 0.70410658 L 0.32005857,0.26195868 -0.06398945,-0.72423869 h -0.47176268 v 1.58123472 h 0.33663468 V -0.28092401 L 0.2465679,0.85699603 h 0.14698133 l 0.44568535,-1.13792004 z" style="font-weight:bold;font-size:2.37067px;font-family:'Proxima Nova';dominant-baseline:middle;text-anchor:middle;fill:#18191c"/>
        <path d="M 1.4922792,0.85699603 H 2.6112339 V 0.56540402 h -0.78232 V 0.19795068 H 2.5946393 V -0.09127067 H 1.8289139 v -0.34374667 h 0.78232 V -0.72423869 H 1.4922792 Z" style="font-weight:bold;font-size:2.37067px;font-family:'Proxima Nova';dominant-baseline:middle;text-anchor:middle;fill:#18191c"/>
      </g>
    </g>
    <g transform="translate(50.800000 64.770000)">
      <rect x="-1.3125" y="-2.8125" width="2.625" height="5.625" rx="0.1875" ry="0.1875" fill="#efedeb" stroke="#18191c" stroke-width="0.375"/>
      <g transform="translate(0.000000 1.250000)">
        <line x1="-0.8125" y1="-1" x2="0.8125" y2="-1" stroke="#18191c" stroke-width="0.25" stroke-linecap="round"/>
        <line x1="-0.8125" y1="-0.5" x2="0.8125" y2="-0.5" stroke="#18191c" stroke-width="0.25" stroke-linecap="round"/>
        <line x1="-0.8125" x2="0.8125" stroke="#18191c" stroke-width="0.25" stroke-linecap="round"/>
        <line x1="-0.8125" y1="0.5" x2="0.8125" y2="0.5" stroke="#18191c" stroke-width="0.25" stroke-linecap="round"/>
        <line x1="-0.8125" y1="1" x2="0.8125" y2="1" stroke="#18191c" stroke-width="0.25" stroke-linecap="round"/>
      </g>
    </g>
    <g transform="translate(50.800000 76.200000)">
      <circle r="4.2" fill="#18191c"/>
      <line y2="-3.6750000000000003" stroke="#efedeb" stroke-width="0.525" stroke-linecap="round"/>
    </g>
    <g transform="translate(50.800000 49.530000)">
      <circle r="4.2" fill="#18191c"/>
      <line y2="-3.6750000000000003" stroke="#efedeb" stroke-width="0.525" stroke-linecap="round"/>
    </g>
    <g transform="translate(50.800000 91.440000)">
      <circle r="4.2" fill="#18191c"/>
      <line y2="-3.6750000000000003" stroke="#efedeb" stroke-width="0.525" stroke-linecap="round"/>
    </g>
    <circle cx="50.8" cy="104.44" r="2.5" fill="#18191c" stroke="#18191c" stroke-width="1"/>
    <g transform="translate(50.800000 112.640000)">
      <circle r="4.2" fill="#18191c" stroke="none"/>
      <circle r="3.5" fill="none" stroke="#efedeb" stroke-width="0.95"/>
      <circle r="2.325" fill="none" stroke="#efedeb" stroke-width="0.95"/>
    </g>
    <g transform="translate(62.230000 28.498800)">
      <rect x="-4.5" y="-1.7902222222222222" width="9" height="3.5804444444444443" rx="0.5" ry="0.5" fill="#efedeb" stroke="#18191c" stroke-width="0.25"/>
      <g style="font-weight:bold;font-size:2.37067px;font-family:'Proxima Nova';dominant-baseline:middle;text-anchor:middle;fill:#18191c">
        <path d="m -3.020711,0.88544403 c 0.3603414,0 0.5594774,-0.19202401 0.6732694,-0.38878935 L -2.636663,0.35678535 c -0.066379,0.13038667 -0.2086186,0.22995467 -0.384048,0.22995467 -0.2749973,0 -0.483616,-0.22047201 -0.483616,-0.51917602 0,-0.29870401 0.2086187,-0.51917601 0.483616,-0.51917601 0.1754294,0 0.3176694,0.10193867 0.384048,0.22995467 l 0.2892214,-0.14224 c -0.1114214,-0.19676534 -0.312928,-0.38641868 -0.6732694,-0.38641868 -0.46228,0 -0.8297333,0.33189334 -0.8297333,0.81788002 0,0.48598669 0.3674533,0.81788003 0.8297333,0.81788003 z" style="font-weight:bold;font-size:2.37067px;font-family:'Proxima Nova';dominant-baseline:middle;text-anchor:middle;fill:#18191c"/>
        <path d="m -2.1447497,0.22639868 c 0,0.38878934 0.2252134,0.65904535 0.7088294,0.65904535 0.47887468,0 0.70408802,-0.26788534 0.70408802,-0.66141602 v -0.9482667 H -1.0732083 v 0.93878403 c 0,0.22047201 -0.120904,0.37219468 -0.362712,0.37219468 -0.2465493,0 -0.3674533,-0.15172267 -0.3674533,-0.37219468 v -0.93878403 h -0.3413761 z" style="font-weight:bold;font-size:2.37067px;font-family:'Proxima Nova';dominant-baseline:middle;text-anchor:middle;fill:#18191c"/>
        <path d="M 0.47605954,0.85699603 H 0.86247821 L 0.5068782,0.25484668 c 0.17068801,-0.0403013 0.34611735,-0.18965334 0.34611735,-0.46939202 0,-0.29396267 -0.20150668,-0.50969335 -0.53102935,-0.50969335 h -0.73964803 v 1.58123472 h 0.33663468 V 0.29040668 H 0.16550219 Z M 0.50924887,-0.216916 c 0,0.13275733 -0.10193867,0.21810134 -0.23706667,0.21810134 H -0.08104715 V -0.43501734 H 0.2721822 c 0.135128,0 0.23706667,0.085344 0.23706667,0.21810134 z" style="font-weight:bold;font-size:2.37067px;font-family:'Proxima Nova';dominant-baseline:middle;text-anchor:middle;fill:#18191c"/>
        <path d="M 1.5258203,0.85699603 H 1.9477989 L 2.5570603,-0.72423869 H 2.1730123 L 1.7368096,0.49191335 1.2982362,-0.72423869 H 0.91418823 Z" style="font-weight:bold;font-size:2.37067px;font-family:'Proxima Nova';dominant-baseline:middle;text-anchor:middle;fill:#18191c"/>
        <path d="M 2.7030786,0.85699603 H 3.8220333 V 0.56540402 h -0.78232 V 0.19795068 H 3.8054386 V -0.09127067 H 3.0397133 v -0.34374667 h 0.78232 V -0.72423869 H 2.7030786 Z" style="font-weight:bold;font-size:2.37067px;font-family:'Proxima Nova';dominant-baseline:middle;text-anchor:middle;fill:#18191c"/>
      </g>
    </g>
    <g transform="translate(62.230000 36.830000)">
      <rect x="-4.5" y="-1.7902222222222222" width="9" height="3.5804444444444443" rx="0.5" ry="0.5" fill="#efedeb" stroke="#18191c" stroke-width="0.25"/>
      <g style="font-weight:bold;font-size:2.37067px;font-family:'Proxima Nova';dominant-baseline:middle;text-anchor:middle;fill:#18191c">
        <path d="m -2.1987008,0.85699603 h 0.3390053 v -1.28490137 h 0.4599094 v -0.29633335 h -1.2611947 v 0.29633335 h 0.46228 z" style="font-weight:bold;font-size:2.37067px;font-family:'Proxima Nova';dominant-baseline:middle;text-anchor:middle;fill:#18191c"/>
        <path d="m -1.1839814,0.85699603 h 0.33663471 V -0.72423869 H -1.1839814 Z" style="font-weight:bold;font-size:2.37067px;font-family:'Proxima Nova';dominant-baseline:middle;text-anchor:middle;fill:#18191c"/>
        <path d="M 0.83923458,0.85699603 H 1.1782399 V -0.72423869 H 0.70410658 L 0.32005857,0.26195868 -0.06398945,-0.72423869 h -0.47176268 v 1.58123472 h 0.33663468 V -0.28092401 L 0.2465679,0.85699603 h 0.14698133 l 0.44568535,-1.13792004 z" style="font-weight:bold;font-size:2.37067px;font-family:'Proxima Nova';dominant-baseline:middle;text-anchor:middle;fill:#18191c"/>
        <path d="M 1.4922792,0.85699603 H 2.6112339 V 0.56540402 h -0.78232 V 0.19795068 H 2.5946393 V -0.09127067 H 1.8289139 v -0.34374667 h 0.78232 V -0.72423869 H 1.4922792 Z" style="font-weight:bold;font-size:2.37067px;font-family:'Proxima Nova';dominant-baseline:middle;text-anchor:middle;fill:#18191c"/>
      </g>
    </g>
    <g transform="translate(62.230000 64.770000)">
      <rect x="-1.3125" y="-2.8125" width="2.625" height="5.625" rx="0.1875" ry="0.1875" fill="#efedeb" stroke="#18191c" stroke-width="0.375"/>
      <g transform="translate(0.000000 1.250000)">
        <line x1="-0.8125" y1="-1" x2="0.8125" y2="-1" stroke="#18191c" stroke-width="0.25" stroke-linecap="round"/>
        <line x1="-0.8125" y1="-0.5" x2="0.8125" y2="-0.5" stroke="#18191c" stroke-width="0.25" stroke-linecap="round"/>
        <line x1="-0.8125" x2="0.8125" stroke="#18191c" stroke-width="0.25" stroke-linecap="round"/>
        <line x1="-0.8125" y1="0.5" x2="0.8125" y2="0.5" stroke="#18191c" stroke-width="0.25" stroke-linecap="round"/>
        <line x1="-0.8125" y1="1" x2="0.8125" y2="1" stroke="#18191c" stroke-width="0.25" stroke-linecap="round"/>
      </g>
    </g>
    <g transform="translate(62.230000 76.200000)">
      <circle r="4.2" fill="#18191c"/>
      <line y2="-3.6750000000000003" stroke="#efedeb" stroke-width="0.525" stroke-linecap="round"/>
    </g>
    <g transform="translate(62.230000 49.530000)">
      <circle r="4.2" fill="#18191c"/>
      <line y2="-3.6750000000000003" stroke="#efedeb" stroke-width="0.525" stroke-linecap="round"/>
    </g>
    <g transform="translate(62.230000 91.440000)">
      <circle r="4.2" fill="#18191c"/>
      <line y2="-3.6750000000000003" stroke="#efedeb" stroke-width="0.525" stroke-linecap="round"/>
    </g>
    <circle cx="62.230000000000004" cy="104.44" r="2.5" fill="#18191c" stroke="#18191c" stroke-width="1"/>
    <g transform="translate(62.230000 112.640000)">
      <circle r="4.2" fill="#18191c" stroke="none"/>
      <circle r="3.5" fill="none" stroke="#efedeb" stroke-width="0.95"/>
      <circle r="2.325" fill="none" stroke="#efedeb" stroke-width="0.95"/>
    </g>
    <g transform="translate(73.660000 28.498800)">
      <rect x="-4.5" y="-1.7902222222222222" width="9" height="3.5804444444444443" rx="0.5" ry="0.5" fill="#efedeb" stroke="#18191c" stroke-width="0.25"/>
      <g style="font-weight:bold;font-size:2.37067px;font-family:'Proxima Nova';dominant-baseline:middle;text-anchor:middle;fill:#18191c">
        <path d="m -3.020711,0.88544403 c 0.3603414,0 0.5594774,-0.19202401 0.6732694,-0.38878935 L -2.636663,0.35678535 c -0.066379,0.13038667 -0.2086186,0.22995467 -0.384048,0.22995467 -0.2749973,0 -0.483616,-0.22047201 -0.483616,-0.51917602 0,-0.29870401 0.2086187,-0.51917601 0.483616,-0.51917601 0.1754294,0 0.3176694,0.10193867 0.384048,0.22995467 l 0.2892214,-0.14224 c -0.1114214,-0.19676534 -0.312928,-0.38641868 -0.6732694,-0.38641868 -0.46228,0 -0.8297333,0.33189334 -0.8297333,0.81788002 0,0.48598669 0.3674533,0.81788003 0.8297333,0.81788003 z" style="font-weight:bold;font-size:2.37067px;font-family:'Proxima Nova';dominant-baseline:middle;text-anchor:middle;fill:#18191c"/>
        <path d="m -2.1447497,0.22639868 c 0,0.38878934 0.2252134,0.65904535 0.7088294,0.65904535 0.47887468,0 0.70408802,-0.26788534 0.70408802,-0.66141602 v -0.9482667 H -1.0732083 v 0.93878403 c 0,0.22047201 -0.120904,0.37219468 -0.362712,0.37219468 -0.2465493,0 -0.3674533,-0.15172267 -0.3674533,-0.37219468 v -0.93878403 h -0.3413761 z" style="font-weight:bold;font-size:2.37067px;font-family:'Proxima Nova';dominant-baseline:middle;text-anchor:middle;fill:#18191c"/>
        <path d="M 0.47605954,0.85699603 H 0.86247821 L 0.5068782,0.25484668 c 0.17068801,-0.0403013 0.34611735,-0.18965334 0.34611735,-0.46939202 0,-0.29396267 -0.20150668,-0.50969335 -0.53102935,-0.50969335 h -0.73964803 v 1.58123472 h 0.33663468 V 0.29040668 H 0.16550219 Z M 0.50924887,-0.216916 c 0,0.13275733 -0.10193867,0.21810134 -0.23706667,0.21810134 H -0.08104715 V -0.43501734 H 0.2721822 c 0.135128,0 0.23706667,0.085344 0.23706667,0.21810134 z" style="font-weight:bold;font-size:2.37067px;font-family:'Proxima Nova';dominant-baseline:middle;text-anchor:middle;fill:#18191c"/>
        <path d="M 1.5258203,0.85699603 H 1.9477989 L 2.5570603,-0.72423869 H 2.1730123 L 1.7368096,0.49191335 1.2982362,-0.72423869 H 0.91418823 Z" style="font-weight:bold;font-size:2.37067px;font-family:'Proxima Nova';dominant-baseline:middle;text-anchor:middle;fill:#18191c"/>
        <path d="M 2.7030786,0.85699603 H 3.8220333 V 0.56540402 h -0.78232 V 0.19795068 H 3.8054386 V -0.09127067 H 3.0397133 v -0.34374667 h 0.78232 V -0.72423869 H 2.7030786 Z" style="font-weight:bold;font-size:2.37067px;font-family:'Proxima Nova';dominant-baseline:middle;text-anchor:middle;fill:#18191c"/>
      </g>
    </g>
    <g transform="translate(73.660000 36.830000)">
      <rect x="-4.5" y="-1.7902222222222222" width="9" height="3.5804444444444443" rx="0.5" ry="0.5" fill="#efedeb" stroke="#18191c" stroke-width="0.25"/>
      <g style="font-weight:bold;font-size:2.37067px;font-family:'Proxima Nova';dominant-baseline:middle;text-anchor:middle;fill:#18191c">
        <path d="m -2.1987008,0.85699603 h 0.3390053 v -1.28490137 h 0.4599094 v -0.29633335 h -1.2611947 v 0.29633335 h 0.46228 z" style="font-weight:bold;font-size:2.37067px;font-family:'Proxima Nova';dominant-baseline:middle;text-anchor:middle;fill:#18191c"/>
        <path d="m -1.1839814,0.85699603 h 0.33663471 V -0.72423869 H -1.1839814 Z" style="font-weight:bold;font-size:2.37067px;font-family:'Proxima Nova';dominant-baseline:middle;text-anchor:middle;fill:#18191c"/>
        <path d="M 0.83923458,0.85699603 H 1.1782399 V -0.72423869 H 0.70410658 L 0.32005857,0.26195868 -0.06398945,-0.72423869 h -0.47176268 v 1.58123472 h 0.33663468 V -0.28092401 L 0.2465679,0.85699603 h 0.14698133 l 0.44568535,-1.13792004 z" style="font-weight:bold;font-size:2.37067px;font-family:'Proxima Nova';dominant-baseline:middle;text-anchor:middle;fill:#18191c"/>
        <path d="M 1.4922792,0.85699603 H 2.6112339 V 0.56540402 h -0.78232 V 0.19795068 H 2.5946393 V -0.09127067 H 1.8289139 v -0.34374667 h 0.78232 V -0.72423869 H 1.4922792 Z" style="font-weight:bold;font-size:2.37067px;font-family:'Proxima Nova';dominant-baseline:middle;text-anchor:middle;fill:#18191c"/>
      </g>
    </g>
    <g transform="translate(73.660000 64.770000)">
      <rect x="-1.3125" y="-2.8125" width="2.625" height="5.625" rx="0.1875" ry="0.1875" fill="#efedeb" stroke="#18191c" stroke-width="0.375"/>
      <g transform="translate(0.000000 1.250000)">
        <line x1="-0.8125" y1="-1" x2="0.8125" y2="-1" stroke="#18191c" stroke-width="0.25" stroke-linecap="round"/>
        <line x1="-0.8125" y1="-0.5" x2="0.8125" y2="-0.5" stroke="#18191c" stroke-width="0.25" stroke-linecap="round"/>
        <line x1="-0.8125" x2="0.8125" stroke="#18191c" stroke-width="0.25" stroke-linecap="round"/>
        <line x1="-0.8125" y1="0.5" x2="0.8125" y2="0.5" stroke="#18191c" stroke-width="0.25" stroke-linecap="round"/>
        <line x1="-0.8125" y1="1" x2="0.8125" y2="1" stroke="#18191c" stroke-width="0.25" stroke-linecap="round"/>
      </g>
    </g>
    <g transform="translate(73.660000 76.200000)">
      <circle r="4.2" fill="#18191c"/>
      <line y2="-3.6750000000000003" stroke="#efedeb" stroke-width="0.525" stroke-linecap="round"/>
    </g>
    <g transform="translate(73.660000 49.530000)">
      <circle r="4.2" fill="#18191c"/>
      <line y2="-3.6750000000000003" stroke="#efedeb" stroke-width="0.525" stroke-linecap="round"/>
    </g>
    <g transform="translate(73.660000 91.440000)">
      <circle r="4.2" fill="#18191c"/>
      <line y2="-3.6750000000000003" stroke="#efedeb" stroke-width="0.525" stroke-linecap="round"/>
    </g>
    <circle cx="73.66" cy="104.44" r="2.5" fill="#18191c" stroke="#18191c" stroke-width="1"/>
    <g transform="translate(73.660000 112.640000)">
      <circle r="4.2" fill="#18191c" stroke="none"/>
      <circle r="3.5" fill="none" stroke="#efedeb" stroke-width="0.95"/>
      <circle r="2.325" fill="none" stroke="#efedeb" stroke-width="0.95"/>
    </g>
    <g transform="translate(85.090000 28.498800)">
      <rect x="-4.5" y="-1.7902222222222222" width="9" height="3.5804444444444443" rx="0.5" ry="0.5" fill="#efedeb" stroke="#18191c" stroke-width="0.25"/>
      <g style="font-weight:bold;font-size:2.37067px;font-family:'Proxima Nova';dominant-baseline:middle;text-anchor:middle;fill:#18191c">
        <path d="m -3.020711,0.88544403 c 0.3603414,0 0.5594774,-0.19202401 0.6732694,-0.38878935 L -2.636663,0.35678535 c -0.066379,0.13038667 -0.2086186,0.22995467 -0.384048,0.22995467 -0.2749973,0 -0.483616,-0.22047201 -0.483616,-0.51917602 0,-0.29870401 0.2086187,-0.51917601 0.483616,-0.51917601 0.1754294,0 0.3176694,0.10193867 0.384048,0.22995467 l 0.2892214,-0.14224 c -0.1114214,-0.19676534 -0.312928,-0.38641868 -0.6732694,-0.38641868 -0.46228,0 -0.8297333,0.33189334 -0.8297333,0.81788002 0,0.48598669 0.3674533,0.81788003 0.8297333,0.81788003 z" style="font-weight:bold;font-size:2.37067px;font-family:'Proxima Nova';dominant-baseline:middle;text-anchor:middle;fill:#18191c"/>
        <path d="m -2.1447497,0.22639868 c 0,0.38878934 0.2252134,0.65904535 0.7088294,0.65904535 0.47887468,0 0.70408802,-0.26788534 0.70408802,-0.66141602 v -0.9482667 H -1.0732083 v 0.93878403 c 0,0.22047201 -0.120904,0.37219468 -0.362712,0.37219468 -0.2465493,0 -0.3674533,-0.15172267 -0.3674533,-0.37219468 v -0.93878403 h -0.3413761 z" style="font-weight:bold;font-size:2.37067px;font-family:'Proxima Nova';dominant-baseline:middle;text-anchor:middle;fill:#18191c"/>
        <path d="M 0.47605954,0.85699603 H 0.86247821 L 0.5068782,0.25484668 c 0.17068801,-0.0403013 0.34611735,-0.18965334 0.34611735,-0.46939202 0,-0.29396267 -0.20150668,-0.50969335 -0.53102935,-0.50969335 h -0.73964803 v 1.58123472 h 0.33663468 V 0.29040668 H 0.16550219 Z M 0.50924887,-0.216916 c 0,0.13275733 -0.10193867,0.21810134 -0.23706667,0.21810134 H -0.08104715 V -0.43501734 H 0.2721822 c 0.135128,0 0.23706667,0.085344 0.23706667,0.21810134 z" style="font-weight:bold;font-size:2.37067px;font-family:'Proxima Nova';dominant-baseline:middle;text-anchor:middle;fill:#18191c"/>
        <path d="M 1.5258203,0.85699603 H 1.9477989 L 2.5570603,-0.72423869 H 2.1730123 L 1.7368096,0.49191335 1.2982362,-0.72423869 H 0.91418823 Z" style="font-weight:bold;font-size:2.37067px;font-family:'Proxima Nova';dominant-baseline:middle;text-anchor:middle;fill:#18191c"/>
        <path d="M 2.7030786,0.85699603 H 3.8220333 V 0.56540402 h -0.78232 V 0.19795068 H 3.8054386 V -0.09127067 H 3.0397133 v -0.34374667 h 0.78232 V -0.72423869 H 2.7030786 Z" style="font-weight:bold;font-size:2.37067px;font-family:'Proxima Nova';dominant-baseline:middle;text-anchor:middle;fill:#18191c"/>
      </g>
    </g>
    <g transform="translate(85.090000 36.830000)">
      <rect x="-4.5" y="-1.7902222222222222" width="9" height="3.5804444444444443" rx="0.5" ry="0.5" fill="#efedeb" stroke="#18191c" stroke-width="0.25"/>
      <g style="font-weight:bold;font-size:2.37067px;font-family:'Proxima Nova';dominant-baseline:middle;text-anchor:middle;fill:#18191c">
        <path d="m -2.1987008,0.85699603 h 0.3390053 v -1.28490137 h 0.4599094 v -0.29633335 h -1.2611947 v 0.29633335 h 0.46228 z" style="font-weight:bold;font-size:2.37067px;font-family:'Proxima Nova';dominant-baseline:middle;text-anchor:middle;fill:#18191c"/>
        <path d="m -1.1839814,0.85699603 h 0.33663471 V -0.72423869 H -1.1839814 Z" style="font-weight:bold;font-size:2.37067px;font-family:'Proxima Nova';dominant-baseline:middle;text-anchor:middle;fill:#18191c"/>
        <path d="M 0.83923458,0.85699603 H 1.1782399 V -0.72423869 H 0.70410658 L 0.32005857,0.26195868 -0.06398945,-0.72423869 h -0.47176268 v 1.58123472 h 0.33663468 V -0.28092401 L 0.2465679,0.85699603 h 0.14698133 l 0.44568535,-1.13792004 z" style="font-weight:bold;font-size:2.37067px;font-family:'Proxima Nova';dominant-baseline:middle;text-anchor:middle;fill:#18191c"/>
        <path d="M 1.4922792,0.85699603 H 2.6112339 V 0.56540402 h -0.78232 V 0.19795068 H 2.5946393 V -0.09127067 H 1.8289139 v -0.34374667 h 0.78232 V -0.72423869 H 1.4922792 Z" style="font-weight:bold;font-size:2.37067px;font-family:'Proxima Nova';dominant-baseline:middle;text-anchor:middle;fill:#18191c"/>
      </g>
    </g>
    <g transform="translate(85.090000 64.770000)">
      <rect x="-1.3125" y="-2.8125" width="2.625" height="5.625" rx="0.1875" ry="0.1875" fill="#efedeb" stroke="#18191c" stroke-width="0.375"/>
      <g transform="translate(0.000000 1.250000)">
        <line x1="-0.8125" y1="-1" x2="0.8125" y2="-1" stroke="#18191c" stroke-width="0.25" stroke-linecap="round"/>
        <line x1="-0.8125" y1="-0.5" x2="0.8125" y2="-0.5" stroke="#18191c" stroke-width="0.25" stroke-linecap="round"/>
        <line x1="-0.8125" x2="0.8125" stroke="#18191c" stroke-width="0.25" stroke-linecap="round"/>
        <line x1="-0.8125" y1="0.5" x2="0.8125" y2="0.5" stroke="#18191c" stroke-width="0.25" stroke-linecap="round"/>
        <line x1="-0.8125" y1="1" x2="0.8125" y2="1" stroke="#18191c" stroke-width="0.25" stroke-linecap="round"/>
      </g>
    </g>
    <g transform="translate(85.090000 76.200000)">
      <circle r="4.2" fill="#18191c"/>
      <line y2="-3.6750000000000003" stroke="#efedeb" stroke-width="0.525" stroke-linecap="round"/>
    </g>
    <g transform="translate(85.090000 49.530000)">
      <circle r="4.2" fill="#18191c"/>
      <line y2="-3.6750000000000003" stroke="#efedeb" stroke-width="0.525" stroke-linecap="round"/>
    </g>
    <g transform="translate(85.090000 91.440000)">
      <circle r="4.2" fill="#18191c"/>
      <line y2="-3.6750000000000003" stroke="#efedeb" stroke-width="0.525" stroke-linecap="round"/>
    </g>
    <circle cx="85.09" cy="104.44" r="2.5" fill="#18191c" stroke="#18191c" stroke-width="1"/>
    <g transform="translate(85.090000 112.640000)">
      <circle r="4.2" fill="#18191c" stroke="none"/>
      <circle r="3.5" fill="none" stroke="#efedeb" stroke-width="0.95"/>
      <circle r="2.325" fill="none" stroke="#efedeb" stroke-width="0.95"/>
    </g>
    <g transform="translate(47.388000 21.408000)">
      <line y1="-2.176" x2="-1.088" y2="-2.176" stroke="#18191c" stroke-width="0.35" stroke-linecap="round"/>
      <line x1="-1.088" y1="2.176" x2="-1.088" y2="-2.176" stroke="#18191c" stroke-width="0.35" stroke-linecap="round"/>
      <line x2="1.088" stroke="none" stroke-width="0.35" stroke-linecap="round"/>
      <line y1="2.176" x2="-1.088" y2="2.176" stroke="#18191c" stroke-width="0.35" stroke-linecap="round"/>
    </g>
    <g transform="translate(88.502000 21.408000)">
      <line y1="-2.176" x2="1.088" y2="-2.176" stroke="#18191c" stroke-width="0.35" stroke-linecap="round"/>
      <line x1="1.088" y1="2.176" x2="1.088" y2="-2.176" stroke="#18191c" stroke-width="0.35" stroke-linecap="round"/>
      <line x2="-1.088" stroke="none" stroke-width="0.35" stroke-linecap="round"/>
      <line y1="2.176" x2="1.088" y2="2.176" stroke="#18191c" stroke-width="0.35" stroke-linecap="round"/>
    </g>
    <g transform="translate(101.600000 49.530000)">
      <rect x="-1.3125" y="-2.8125" width="2.625" height="5.625" rx="0.1875" ry="0.1875" fill="#efedeb" stroke="#18191c" stroke-width="0.375"/>
      <g transform="translate(0.000000 -1.250000)">
        <line x1="-0.8125" y1="-1" x2="0.8125" y2="-1" stroke="#18191c" stroke-width="0.25" stroke-linecap="round"/>
        <line x1="-0.8125" y1="-0.5" x2="0.8125" y2="-0.5" stroke="#18191c" stroke-width="0.25" stroke-linecap="round"/>
        <line x1="-0.8125" x2="0.8125" stroke="#18191c" stroke-width="0.25" stroke-linecap="round"/>
        <line x1="-0.8125" y1="0.5" x2="0.8125" y2="0.5" stroke="#18191c" stroke-width="0.25" stroke-linecap="round"/>
        <line x1="-0.8125" y1="1" x2="0.8125" y2="1" stroke="#18191c" stroke-width="0.25" stroke-linecap="round"/>
      </g>
    </g>
    <g transform="translate(101.600000 91.440000)">
      <rect x="-1.3125" y="-4.3125" width="2.625" height="8.625" rx="0.1875" ry="0.1875" fill="#efedeb" stroke="#18191c" stroke-width="0.375"/>
      <g transform="translate(0.000000 0.000000)">
        <line x1="-0.8125" y1="-1" x2="0.8125" y2="-1" stroke="#18191c" stroke-width="0.25" stroke-linecap="round"/>
        <line x1="-0.8125" y1="-0.5" x2="0.8125" y2="-0.5" stroke="#18191c" stroke-width="0.25" stroke-linecap="round"/>
        <line x1="-0.8125" x2="0.8125" stroke="#18191c" stroke-width="0.25" stroke-linecap="round"/>
        <line x1="-0.8125" y1="0.5" x2="0.8125" y2="0.5" stroke="#18191c" stroke-width="0.25" stroke-linecap="round"/>
        <line x1="-0.8125" y1="1" x2="0.8125" y2="1" stroke="#18191c" stroke-width="0.25" stroke-linecap="round"/>
      </g>
    </g>
    <g transform="translate(101.600000 34.290000)">
      <circle r="4.2" fill="#18191c" stroke="none"/>
      <circle r="3.5" fill="none" stroke="#efedeb" stroke-width="0.95"/>
      <circle r="2.325" fill="none" stroke="#efedeb" stroke-width="0.95"/>
    </g>
    <g transform="translate(101.600000 111.640000)">
      <circle r="4.2" fill="#18191c" stroke="none"/>
      <circle r="3.5" fill="none" stroke="#efedeb" stroke-width="0.95"/>
      <circle r="2.325" fill="none" stroke="#efedeb" stroke-width="0.95"/>
    </g>
  </g>
</svg>
