<?xml version="1.0" encoding="UTF-8" standalone="no"?>
<svg
   xmlns:dc="http://purl.org/dc/elements/1.1/"
   xmlns:cc="http://creativecommons.org/ns#"
   xmlns:rdf="http://www.w3.org/1999/02/22-rdf-syntax-ns#"
   xmlns:svg="http://www.w3.org/2000/svg"
   xmlns="http://www.w3.org/2000/svg"
   id="svg422"
   height="379.429"
   width="135.000"
   version="1.1">
  <metadata
     id="metadata428">
    <rdf:RDF>
      <cc:Work
         rdf:about="">
        <dc:format>image/svg+xml</dc:format>
        <dc:type
           rdf:resource="http://purl.org/dc/dcmitype/StillImage" />
      </cc:Work>
    </rdf:RDF>
  </metadata>
  <defs
     id="defs426" />
  <g
     id="g420"
     transform="scale(2.953)">
    <path
       id="rect2"
       d="M 0,0 H 45.720001 V 128.5 H 0 Z"
       style="fill:#f0f0ff;stroke:#000099;stroke-width:1" />
    <g
       id="g6"
       transform="translate(22.86,9)">
      <g
         id="text4"
         style="font-weight:bold;font-size:4.06400013px;font-family:'Proxima Nova';dominant-baseline:alphabetic;text-anchor:middle;fill:#000099"
         aria-label="FLOGIC">
        <path
           id="path431"
           style="font-weight:bold;font-size:4.06400013px;font-family:'Proxima Nova';dominant-baseline:alphabetic;text-anchor:middle;fill:#000099"
           d="m -6.8715575,0 h 0.577088 v -1.121664 h 1.3126721 v -0.5080001 h -1.3126721 v -0.573024 h 1.3411201 v -0.508 h -1.9182081 z" />
        <path
           id="path433"
           style="font-weight:bold;font-size:4.06400013px;font-family:'Proxima Nova';dominant-baseline:alphabetic;text-anchor:middle;fill:#000099"
           d="m -4.5538075,0 h 1.7231361 V -0.50800002 H -3.9767195 V -2.7106881 h -0.577088 z" />
        <path
           id="path435"
           style="font-weight:bold;font-size:4.06400013px;font-family:'Proxima Nova';dominant-baseline:alphabetic;text-anchor:middle;fill:#000099"
           d="m -2.6677308,-1.353312 c 0,0.81686398 0.597408,1.40208 1.4142721,1.40208 0.820928,0 1.41833602,-0.58521602 1.41833602,-1.40208 0,-0.8168641 -0.59740802,-1.4020801 -1.41833602,-1.4020801 -0.8168641,0 -1.4142721,0.585216 -1.4142721,1.4020801 z m 2.2392641,0 c 0,0.50393597 -0.32512001,0.89001599 -0.824992,0.89001599 -0.499872,0 -0.8209281,-0.38608002 -0.8209281,-0.89001599 0,-0.5080001 0.3210561,-0.8900161 0.8209281,-0.8900161 0.49987199,0 0.824992,0.382016 0.824992,0.8900161 z" />
        <path
           id="path437"
           style="font-weight:bold;font-size:4.06400013px;font-family:'Proxima Nova';dominant-baseline:alphabetic;text-anchor:middle;fill:#000099"
           d="m 0.44376949,-1.353312 c 0,0.85343998 0.65024001,1.406144 1.44272001,1.406144 0.4917441,0 0.8778241,-0.2032 1.1541761,-0.51206401 V -1.499616 H 1.7483135 v 0.50393597 h 0.7152641 v 0.32512001 c -0.109728,0.1016 -0.3373121,0.20726401 -0.5770881,0.20726401 -0.491744,0 -0.849376,-0.37795202 -0.849376,-0.89001599 0,-0.5120641 0.357632,-0.8900161 0.849376,-0.8900161 0.288544,0 0.5201921,0.16256 0.6421121,0.353568 l 0.479552,-0.260096 c -0.2032,-0.321056 -0.556768,-0.605536 -1.1216641,-0.605536 -0.79248,0 -1.44272001,0.544576 -1.44272001,1.4020801 z" />
        <path
           id="path439"
           style="font-weight:bold;font-size:4.06400013px;font-family:'Proxima Nova';dominant-baseline:alphabetic;text-anchor:middle;fill:#000099"
           d="m 3.5027549,0 h 0.577088 v -2.7106881 h -0.577088 z" />
        <path
           id="path441"
           style="font-weight:bold;font-size:4.06400013px;font-family:'Proxima Nova';dominant-baseline:alphabetic;text-anchor:middle;fill:#000099"
           d="m 5.9266769,0.048768 c 0.597408,0 0.938784,-0.32918401 1.133856,-0.66649602 l -0.495808,-0.23977601 c -0.113792,0.22352001 -0.357632,0.39420802 -0.638048,0.39420802 -0.491744,0 -0.849376,-0.37795202 -0.849376,-0.89001599 0,-0.5120641 0.357632,-0.8900161 0.849376,-0.8900161 0.280416,0 0.524256,0.174752 0.638048,0.394208 l 0.495808,-0.24384 c -0.191008,-0.337312 -0.536448,-0.662432 -1.133856,-0.662432 -0.8128,0 -1.44272,0.56896 -1.44272,1.4020801 0,0.83311998 0.62992,1.40208 1.44272,1.40208 z" />
      </g>
    </g>
    <g
       id="g10"
       transform="translate(22.86,119.5)">
      <g
         id="text8"
         style="font-weight:bold;font-size:4.06400013px;font-family:'Proxima Nova';dominant-baseline:hanging;text-anchor:middle;fill:#000099"
         aria-label="DHE">
        <path
           id="path444"
           style="font-weight:bold;font-size:4.06400013px;font-family:'Proxima Nova';dominant-baseline:hanging;text-anchor:middle;fill:#000099"
           d="m -3.8632449,2.5684481 h 1.0688321 c 0.849376,0 1.438656,-0.5364481 1.438656,-1.3533121 0,-0.816864 -0.58928,-1.35737602 -1.438656,-1.35737602 h -1.0688321 z m 0.577088,-0.508 V 0.36576 h 0.4917441 c 0.556768,0 0.849376,0.36982401 0.849376,0.849376 0,0.459232 -0.312928,0.8453121 -0.849376,0.8453121 z" />
        <path
           id="path446"
           style="font-weight:bold;font-size:4.06400013px;font-family:'Proxima Nova';dominant-baseline:hanging;text-anchor:middle;fill:#000099"
           d="M 0.91500319,2.5684481 H 1.4961552 V -0.14224002 H 0.91500319 V 0.92252801 H -0.36515685 V -0.14224002 H -0.94224487 V 2.5684481 h 0.57708802 V 1.430528 h 1.28016004 z" />
        <path
           id="path448"
           style="font-weight:bold;font-size:4.06400013px;font-family:'Proxima Nova';dominant-baseline:hanging;text-anchor:middle;fill:#000099"
           d="m 2.0263802,2.5684481 h 1.9182081 v -0.508 H 2.6034682 V 1.446784 H 3.9161403 V 0.93878401 H 2.6034682 V 0.36576 H 3.9445883 V -0.14224002 H 2.0263802 Z" />
      </g>
    </g>
    <g
       id="g14"
       transform="translate(7.62,17.66)">
      <g
         id="text12"
         style="font-weight:bold;font-size:3.0480001px;font-family:'Proxima Nova';dominant-baseline:alphabetic;text-anchor:middle;fill:#000099"
         aria-label="A">
        <path
           id="path451"
           style="font-weight:bold;font-size:3.0480001px;font-family:'Proxima Nova';dominant-baseline:alphabetic;text-anchor:middle;fill:#000099"
           d="M 0.56145114,0 H 1.0552272 L 0.27189113,-2.0330161 H -0.27065288 L -1.0570369,0 h 0.49377601 l 0.128016,-0.34442401 H 0.43648314 Z M 6.1912502e-4,-1.6002001 0.31761114,-0.72542402 h -0.63398403 z" />
      </g>
    </g>
    <g
       id="g18"
       transform="translate(16.51,18.86)">
      <g
         id="text16"
         style="font-weight:bold;font-size:2.37100005px;font-family:'Proxima Nova';dominant-baseline:alphabetic;text-anchor:middle;fill:#000099"
         aria-label="¬">
        <path
           id="path454"
           style="font-weight:bold;font-size:2.37100005px;font-family:'Proxima Nova';dominant-baseline:alphabetic;text-anchor:middle;fill:#000099"
           d="M 0.51495157,-0.47657101 V -1.109628 h -1.05746602 v 0.18967998 h 0.86541502 v 0.44337701 z" />
      </g>
    </g>
    <g
       id="g22"
       transform="translate(29.21,18.86)">
      <g
         id="text20"
         style="font-weight:bold;font-size:2.37100005px;font-family:'Proxima Nova';dominant-baseline:alphabetic;text-anchor:middle;fill:#000099"
         aria-label="¬">
        <path
           id="path457"
           style="font-weight:bold;font-size:2.37100005px;font-family:'Proxima Nova';dominant-baseline:alphabetic;text-anchor:middle;fill:#000099"
           d="M 0.51495157,-0.47657101 V -1.109628 h -1.05746602 v 0.18967998 h 0.86541502 v 0.44337701 z" />
      </g>
    </g>
    <g
       id="g26"
       transform="translate(38.1,17.66)">
      <g
         id="text24"
         style="font-weight:bold;font-size:3.0480001px;font-family:'Proxima Nova';dominant-baseline:alphabetic;text-anchor:middle;fill:#000099"
         aria-label="B">
        <path
           id="path460"
           style="font-weight:bold;font-size:3.0480001px;font-family:'Proxima Nova';dominant-baseline:alphabetic;text-anchor:middle;fill:#000099"
           d="m -0.80788671,0 h 1.10337603 c 0.38709601,0 0.59131202,-0.24384001 0.59131202,-0.54864002 0,-0.25603201 -0.173736,-0.46634398 -0.39014401,-0.49987198 0.192024,-0.039624 0.35052001,-0.210312 0.35052001,-0.466344 0,-0.2712721 -0.19812001,-0.5181601 -0.58521602,-0.5181601 h -1.06984803 z m 0.43281601,-1.2192 v -0.4419601 h 0.54254402 c 0.146304,0 0.23774401,0.094488 0.23774401,0.2225041 0,0.128016 -0.09144,0.219456 -0.23774401,0.219456 z m 0,0.84429599 v -0.47244002 h 0.55778402 c 0.170688,0 0.26212801,0.10972801 0.26212801,0.23774401 0,0.14630401 -0.097536,0.23469601 -0.26212801,0.23469601 z" />
      </g>
    </g>
    <path
       id="rect28"
       d="M 3.4200001,30.32 H 11.82 c 0.554,0 1,0.446 1,1 v 10.979999 c 0,0.554 -0.446,1 -1,1 H 3.4200001 c -0.554,0 -1,-0.446 -1,-1 V 31.32 c 0,-0.554 0.446,-1 1,-1 z"
       style="fill:#000099;stroke:#000099;stroke-width:0.34999999" />
    <g
       id="g32"
       transform="translate(7.62,32.9)">
      <g
         id="text30"
         style="font-weight:bold;font-size:2.37100005px;font-family:'Proxima Nova';dominant-baseline:alphabetic;text-anchor:middle;fill:#f0f0ff"
         aria-label="A∧B">
        <path
           id="path464"
           style="font-weight:bold;font-size:2.37100005px;font-family:'Proxima Nova';dominant-baseline:alphabetic;text-anchor:middle;fill:#f0f0ff"
           d="m -1.0127134,0 h 0.38410201 L -1.2379584,-1.581457 h -0.422038 L -2.2717144,0 h 0.384102 l 0.099582,-0.26792301 h 0.678106 z m -0.436264,-1.244775 0.246584,0.68047699 h -0.493168 z" />
        <path
           id="path466"
           style="font-weight:bold;font-size:2.37100005px;font-family:'Proxima Nova';dominant-baseline:alphabetic;text-anchor:middle;fill:#f0f0ff"
           d="M 0.64600493,0 H 0.43993169 L 0.02662748,-1.1148794 -0.38551902,0 h -0.20607324 l 0.5221294,-1.3464224 h 0.19333839 z" />
        <path
           id="path468"
           style="font-weight:bold;font-size:2.37100005px;font-family:'Proxima Nova';dominant-baseline:alphabetic;text-anchor:middle;fill:#f0f0ff"
           d="M 0.84648405,0 H 1.7047861 c 0.301117,0 0.459974,-0.18968 0.459974,-0.42678001 0,-0.199164 -0.135147,-0.36276301 -0.303488,-0.38884401 0.149373,-0.030823 0.272665,-0.163599 0.272665,-0.36276298 0,-0.211019 -0.154115,-0.40307 -0.455232,-0.40307 H 0.84648405 Z M 1.1831661,-0.94840002 V -1.292195 h 0.422038 c 0.113808,0 0.184938,0.073501 0.184938,0.173083 0,0.099582 -0.07113,0.17071198 -0.184938,0.17071198 z m 0,0.65676701 v -0.367505 h 0.433893 c 0.132776,0 0.203906,0.085356 0.203906,0.184938 0,0.113808 -0.075872,0.182567 -0.203906,0.182567 z" />
      </g>
    </g>
    <g
       id="g36"
       transform="translate(7.62,32.9)">
      <g
         id="text34"
         style="font-weight:bold;font-size:2.37100005px;font-family:'Proxima Nova';dominant-baseline:alphabetic;text-anchor:middle;fill:#f0f0ff"
         aria-label="A∧B">
        <path
           id="path471"
           style="font-weight:bold;font-size:2.37100005px;font-family:'Proxima Nova';dominant-baseline:alphabetic;text-anchor:middle;fill:#f0f0ff"
           d="m -1.0127134,0 h 0.38410201 L -1.2379584,-1.581457 h -0.422038 L -2.2717144,0 h 0.384102 l 0.099582,-0.26792301 h 0.678106 z m -0.436264,-1.244775 0.246584,0.68047699 h -0.493168 z" />
        <path
           id="path473"
           style="font-weight:bold;font-size:2.37100005px;font-family:'Proxima Nova';dominant-baseline:alphabetic;text-anchor:middle;fill:#f0f0ff"
           d="M 0.64600493,0 H 0.43993169 L 0.02662748,-1.1148794 -0.38551902,0 h -0.20607324 l 0.5221294,-1.3464224 h 0.19333839 z" />
        <path
           id="path475"
           style="font-weight:bold;font-size:2.37100005px;font-family:'Proxima Nova';dominant-baseline:alphabetic;text-anchor:middle;fill:#f0f0ff"
           d="M 0.84648405,0 H 1.7047861 c 0.301117,0 0.459974,-0.18968 0.459974,-0.42678001 0,-0.199164 -0.135147,-0.36276301 -0.303488,-0.38884401 0.149373,-0.030823 0.272665,-0.163599 0.272665,-0.36276298 0,-0.211019 -0.154115,-0.40307 -0.455232,-0.40307 H 0.84648405 Z M 1.1831661,-0.94840002 V -1.292195 h 0.422038 c 0.113808,0 0.184938,0.073501 0.184938,0.173083 0,0.099582 -0.07113,0.17071198 -0.184938,0.17071198 z m 0,0.65676701 v -0.367505 h 0.433893 c 0.132776,0 0.203906,0.085356 0.203906,0.184938 0,0.113808 -0.075872,0.182567 -0.203906,0.182567 z" />
      </g>
    </g>
    <path
       id="rect38"
       d="m 12.31,30.32 h 8.4 c 0.554,0 1,0.446 1,1 v 10.979999 c 0,0.554 -0.446,1 -1,1 h -8.4 c -0.554,0 -1,-0.446 -1,-1 V 31.32 c 0,-0.554 0.446,-1 1,-1 z"
       style="fill:#000099;stroke:#000099;stroke-width:0.34999999" />
    <g
       id="g42"
       transform="translate(16.51,32.9)">
      <g
         id="text40"
         style="font-weight:bold;font-size:2.37100005px;font-family:'Proxima Nova';dominant-baseline:alphabetic;text-anchor:middle;fill:#f0f0ff"
         aria-label="¬">
        <path
           id="path479"
           style="font-weight:bold;font-size:2.37100005px;font-family:'Proxima Nova';dominant-baseline:alphabetic;text-anchor:middle;fill:#f0f0ff"
           d="M 0.51495157,-0.47657101 V -1.109628 h -1.05746602 v 0.18967998 h 0.86541502 v 0.44337701 z" />
      </g>
    </g>
    <g
       id="g46"
       transform="translate(16.51,32.9)">
      <g
         id="text44"
         style="font-weight:bold;font-size:2.37100005px;font-family:'Proxima Nova';dominant-baseline:alphabetic;text-anchor:middle;fill:#f0f0ff"
         aria-label="¬">
        <path
           id="path482"
           style="font-weight:bold;font-size:2.37100005px;font-family:'Proxima Nova';dominant-baseline:alphabetic;text-anchor:middle;fill:#f0f0ff"
           d="M 0.51495157,-0.47657101 V -1.109628 h -1.05746602 v 0.18967998 h 0.86541502 v 0.44337701 z" />
      </g>
    </g>
    <path
       id="rect48"
       d="m 25.01,30.32 h 8.4 c 0.554,0 1,0.446 1,1 v 10.979999 c 0,0.554 -0.446,1 -1,1 h -8.4 c -0.554,0 -1,-0.446 -1,-1 V 31.32 c 0,-0.554 0.446,-1 1,-1 z"
       style="fill:#000099;stroke:#000099;stroke-width:0.34999999" />
    <g
       id="g52"
       transform="translate(29.21,32.9)">
      <g
         id="text50"
         style="font-weight:bold;font-size:2.37100005px;font-family:'Proxima Nova';dominant-baseline:alphabetic;text-anchor:middle;fill:#f0f0ff"
         aria-label="¬">
        <path
           id="path486"
           style="font-weight:bold;font-size:2.37100005px;font-family:'Proxima Nova';dominant-baseline:alphabetic;text-anchor:middle;fill:#f0f0ff"
           d="M 0.51495157,-0.47657101 V -1.109628 h -1.05746602 v 0.18967998 h 0.86541502 v 0.44337701 z" />
      </g>
    </g>
    <g
       id="g56"
       transform="translate(29.21,32.9)">
      <g
         id="text54"
         style="font-weight:bold;font-size:2.37100005px;font-family:'Proxima Nova';dominant-baseline:alphabetic;text-anchor:middle;fill:#f0f0ff"
         aria-label="¬">
        <path
           id="path489"
           style="font-weight:bold;font-size:2.37100005px;font-family:'Proxima Nova';dominant-baseline:alphabetic;text-anchor:middle;fill:#f0f0ff"
           d="M 0.51495157,-0.47657101 V -1.109628 h -1.05746602 v 0.18967998 h 0.86541502 v 0.44337701 z" />
      </g>
    </g>
    <path
       id="rect58"
       d="m 33.900002,30.32 h 8.399999 c 0.554,0 1,0.446 1,1 v 10.979999 c 0,0.554 -0.446,1 -1,1 h -8.399999 c -0.554,0 -1,-0.446 -1,-1 V 31.32 c 0,-0.554 0.446,-1 1,-1 z"
       style="fill:#000099;stroke:#000099;stroke-width:0.34999999" />
    <g
       id="g62"
       transform="translate(38.1,32.9)">
      <g
         id="text60"
         style="font-weight:bold;font-size:2.37100005px;font-family:'Proxima Nova';dominant-baseline:alphabetic;text-anchor:middle;fill:#f0f0ff"
         aria-label="A∨B">
        <path
           id="path493"
           style="font-weight:bold;font-size:2.37100005px;font-family:'Proxima Nova';dominant-baseline:alphabetic;text-anchor:middle;fill:#f0f0ff"
           d="m -1.0127134,0 h 0.38410201 L -1.2379584,-1.581457 h -0.422038 L -2.2717144,0 h 0.384102 l 0.099582,-0.26792301 h 0.678106 z m -0.436264,-1.244775 0.246584,0.68047699 h -0.493168 z" />
        <path
           id="path495"
           style="font-weight:bold;font-size:2.37100005px;font-family:'Proxima Nova';dominant-baseline:alphabetic;text-anchor:middle;fill:#f0f0ff"
           d="M 0.64600493,-1.3464224 0.12387553,0 h -0.19333839 l -0.5221294,-1.3464224 h 0.20607324 l 0.4121465,1.11372171 0.41330421,-1.11372171 z" />
        <path
           id="path497"
           style="font-weight:bold;font-size:2.37100005px;font-family:'Proxima Nova';dominant-baseline:alphabetic;text-anchor:middle;fill:#f0f0ff"
           d="M 0.84648405,0 H 1.7047861 c 0.301117,0 0.459974,-0.18968 0.459974,-0.42678001 0,-0.199164 -0.135147,-0.36276301 -0.303488,-0.38884401 0.149373,-0.030823 0.272665,-0.163599 0.272665,-0.36276298 0,-0.211019 -0.154115,-0.40307 -0.455232,-0.40307 H 0.84648405 Z M 1.1831661,-0.94840002 V -1.292195 h 0.422038 c 0.113808,0 0.184938,0.073501 0.184938,0.173083 0,0.099582 -0.07113,0.17071198 -0.184938,0.17071198 z m 0,0.65676701 v -0.367505 h 0.433893 c 0.132776,0 0.203906,0.085356 0.203906,0.184938 0,0.113808 -0.075872,0.182567 -0.203906,0.182567 z" />
      </g>
    </g>
    <g
       id="g66"
       transform="translate(38.1,32.9)">
      <g
         id="text64"
         style="font-weight:bold;font-size:2.37100005px;font-family:'Proxima Nova';dominant-baseline:alphabetic;text-anchor:middle;fill:#f0f0ff"
         aria-label="A∨B">
        <path
           id="path500"
           style="font-weight:bold;font-size:2.37100005px;font-family:'Proxima Nova';dominant-baseline:alphabetic;text-anchor:middle;fill:#f0f0ff"
           d="m -1.0127134,0 h 0.38410201 L -1.2379584,-1.581457 h -0.422038 L -2.2717144,0 h 0.384102 l 0.099582,-0.26792301 h 0.678106 z m -0.436264,-1.244775 0.246584,0.68047699 h -0.493168 z" />
        <path
           id="path502"
           style="font-weight:bold;font-size:2.37100005px;font-family:'Proxima Nova';dominant-baseline:alphabetic;text-anchor:middle;fill:#f0f0ff"
           d="M 0.64600493,-1.3464224 0.12387553,0 h -0.19333839 l -0.5221294,-1.3464224 h 0.20607324 l 0.4121465,1.11372171 0.41330421,-1.11372171 z" />
        <path
           id="path504"
           style="font-weight:bold;font-size:2.37100005px;font-family:'Proxima Nova';dominant-baseline:alphabetic;text-anchor:middle;fill:#f0f0ff"
           d="M 0.84648405,0 H 1.7047861 c 0.301117,0 0.459974,-0.18968 0.459974,-0.42678001 0,-0.199164 -0.135147,-0.36276301 -0.303488,-0.38884401 0.149373,-0.030823 0.272665,-0.163599 0.272665,-0.36276298 0,-0.211019 -0.154115,-0.40307 -0.455232,-0.40307 H 0.84648405 Z M 1.1831661,-0.94840002 V -1.292195 h 0.422038 c 0.113808,0 0.184938,0.073501 0.184938,0.173083 0,0.099582 -0.07113,0.17071198 -0.184938,0.17071198 z m 0,0.65676701 v -0.367505 h 0.433893 c 0.132776,0 0.203906,0.085356 0.203906,0.184938 0,0.113808 -0.075872,0.182567 -0.203906,0.182567 z" />
      </g>
    </g>
    <path
       id="rect68"
       d="m 12.31,45.560001 h 8.4 c 0.554,0 1,0.446 1,1 v 10.98 c 0,0.554 -0.446,1 -1,1 h -8.4 c -0.554,0 -1,-0.446 -1,-1 v -10.98 c 0,-0.554 0.446,-1 1,-1 z"
       style="fill:#000099;stroke:#000099;stroke-width:0.34999999" />
    <g
       id="g72"
       transform="translate(16.51,48.14)">
      <g
         id="text70"
         style="font-weight:bold;font-size:2.37100005px;font-family:'Proxima Nova';dominant-baseline:alphabetic;text-anchor:middle;fill:#f0f0ff"
         aria-label="¬">
        <path
           id="path508"
           style="font-weight:bold;font-size:2.37100005px;font-family:'Proxima Nova';dominant-baseline:alphabetic;text-anchor:middle;fill:#f0f0ff"
           d="M 0.51495157,-0.47657101 V -1.109628 h -1.05746602 v 0.18967998 h 0.86541502 v 0.44337701 z" />
      </g>
    </g>
    <g
       id="g76"
       transform="translate(16.51,48.14)">
      <g
         id="text74"
         style="font-weight:bold;font-size:2.37100005px;font-family:'Proxima Nova';dominant-baseline:alphabetic;text-anchor:middle;fill:#f0f0ff"
         aria-label="¬">
        <path
           id="path511"
           style="font-weight:bold;font-size:2.37100005px;font-family:'Proxima Nova';dominant-baseline:alphabetic;text-anchor:middle;fill:#f0f0ff"
           d="M 0.51495157,-0.47657101 V -1.109628 h -1.05746602 v 0.18967998 h 0.86541502 v 0.44337701 z" />
      </g>
    </g>
    <path
       id="rect78"
       d="M 3.4200001,45.560001 H 11.82 c 0.554,0 1,0.446 1,1 v 10.98 c 0,0.554 -0.446,1 -1,1 H 3.4200001 c -0.554,0 -1,-0.446 -1,-1 v -10.98 c 0,-0.554 0.446,-1 1,-1 z"
       style="fill:#000099;stroke:#000099;stroke-width:0.34999999" />
    <g
       id="g82"
       transform="translate(7.62,48.14)">
      <g
         id="text80"
         style="font-weight:bold;font-size:2.37100005px;font-family:'Proxima Nova';dominant-baseline:alphabetic;text-anchor:middle;fill:#f0f0ff"
         aria-label="p(A⋂B)">
        <path
           id="path515"
           style="font-weight:bold;font-size:2.37100005px;font-family:'Proxima Nova';dominant-baseline:alphabetic;text-anchor:middle;fill:#f0f0ff"
           d="M -3.207889,0.43626401 V -0.147002 c 0.092469,0.11855 0.218132,0.175454 0.353279,0.175454 0.294004,0 0.507394,-0.220503 0.507394,-0.60223401 0,-0.38173101 -0.21339,-0.59986299 -0.507394,-0.59986299 -0.139889,0 -0.265552,0.061646 -0.353279,0.173083 v -0.144631 h -0.301117 v 1.58145701 z m 0.547701,-1.01004602 c 0,0.199164 -0.116179,0.334311 -0.289262,0.334311 -0.097211,0 -0.208648,-0.059275 -0.258439,-0.130405 v -0.40544101 c 0.049791,-0.073501 0.161228,-0.130405 0.258439,-0.130405 0.173083,0 0.289262,0.135147 0.289262,0.33194001 z" />
        <path
           id="path517"
           style="font-weight:bold;font-size:2.37100005px;font-family:'Proxima Nova';dominant-baseline:alphabetic;text-anchor:middle;fill:#f0f0ff"
           d="m -1.7972922,0.47182901 0.18968,-0.147002 c -0.158857,-0.28452001 -0.239471,-0.54533001 -0.239471,-0.90098002 0,-0.35565001 0.080614,-0.61645999 0.239471,-0.90572199 l -0.18968,-0.14226 c -0.229987,0.26081 -0.374618,0.66625098 -0.374618,1.04798199 0,0.38173101 0.144631,0.78954301 0.374618,1.04798202 z" />
        <path
           id="path519"
           style="font-weight:bold;font-size:2.37100005px;font-family:'Proxima Nova';dominant-baseline:alphabetic;text-anchor:middle;fill:#f0f0ff"
           d="M -0.31808449,0 H 0.06601752 L -0.54332949,-1.581457 H -0.9653675 L -1.5770855,0 h 0.384102 l 0.099582,-0.26792301 h 0.67810601 z m -0.43626401,-1.244775 0.24658401,0.68047699 H -1.0009325 Z" />
        <path
           id="path521"
           style="font-weight:bold;font-size:2.37100005px;font-family:'Proxima Nova';dominant-baseline:alphabetic;text-anchor:middle;fill:#f0f0ff"
           d="M 1.2700131,0 H 1.075517 v -0.81618898 q 0,-0.11924463 -0.0960903,-0.22806982 -0.0949326,-0.1099829 -0.25817041,-0.1099829 -0.15397608,0 -0.25353956,0.1088252 -0.0995635,0.10766746 -0.0995635,0.23270066 V 0 h -0.1944961 v -0.80576955 q 0,-0.20375785 0.1551338,-0.37162645 0.15513379,-0.1690264 0.39246534,-0.1690264 0.23848926,0 0.39362303,0.1678687 0.1551338,0.1667109 0.1551338,0.37509958 z" />
        <path
           id="path523"
           style="font-weight:bold;font-size:2.37100005px;font-family:'Proxima Nova';dominant-baseline:alphabetic;text-anchor:middle;fill:#f0f0ff"
           d="m 1.541113,0 h 0.858302 c 0.301117,0 0.459974,-0.18968 0.459974,-0.42678001 0,-0.199164 -0.135147,-0.36276301 -0.303488,-0.38884401 0.149373,-0.030823 0.272665,-0.163599 0.272665,-0.36276298 0,-0.211019 -0.154115,-0.40307 -0.455232,-0.40307 H 1.541113 Z M 1.877795,-0.94840002 V -1.292195 h 0.422038 c 0.113808,0 0.184938,0.073501 0.184938,0.173083 0,0.099582 -0.07113,0.17071198 -0.184938,0.17071198 z m 0,0.65676701 v -0.367505 h 0.433893 c 0.132776,0 0.203906,0.085356 0.203906,0.184938 0,0.113808 -0.075872,0.182567 -0.203906,0.182567 z" />
        <path
           id="path525"
           style="font-weight:bold;font-size:2.37100005px;font-family:'Proxima Nova';dominant-baseline:alphabetic;text-anchor:middle;fill:#f0f0ff"
           d="m 3.2366374,-0.57615301 c 0,0.35565001 -0.078243,0.61646001 -0.241842,0.90098002 l 0.18968,0.147002 c 0.232358,-0.25843901 0.37936,-0.66625101 0.37936,-1.04798202 0,-0.38173101 -0.147002,-0.78717199 -0.37936,-1.04798199 l -0.18968,0.14226 c 0.163599,0.289262 0.241842,0.55007198 0.241842,0.90572199 z" />
      </g>
    </g>
    <g
       id="g86"
       transform="translate(7.62,48.14)">
      <g
         id="text84"
         style="font-weight:bold;font-size:2.37100005px;font-family:'Proxima Nova';dominant-baseline:alphabetic;text-anchor:middle;fill:#f0f0ff"
         aria-label="p(A⋂B)">
        <path
           id="path528"
           style="font-weight:bold;font-size:2.37100005px;font-family:'Proxima Nova';dominant-baseline:alphabetic;text-anchor:middle;fill:#f0f0ff"
           d="M -3.207889,0.43626401 V -0.147002 c 0.092469,0.11855 0.218132,0.175454 0.353279,0.175454 0.294004,0 0.507394,-0.220503 0.507394,-0.60223401 0,-0.38173101 -0.21339,-0.59986299 -0.507394,-0.59986299 -0.139889,0 -0.265552,0.061646 -0.353279,0.173083 v -0.144631 h -0.301117 v 1.58145701 z m 0.547701,-1.01004602 c 0,0.199164 -0.116179,0.334311 -0.289262,0.334311 -0.097211,0 -0.208648,-0.059275 -0.258439,-0.130405 v -0.40544101 c 0.049791,-0.073501 0.161228,-0.130405 0.258439,-0.130405 0.173083,0 0.289262,0.135147 0.289262,0.33194001 z" />
        <path
           id="path530"
           style="font-weight:bold;font-size:2.37100005px;font-family:'Proxima Nova';dominant-baseline:alphabetic;text-anchor:middle;fill:#f0f0ff"
           d="m -1.7972922,0.47182901 0.18968,-0.147002 c -0.158857,-0.28452001 -0.239471,-0.54533001 -0.239471,-0.90098002 0,-0.35565001 0.080614,-0.61645999 0.239471,-0.90572199 l -0.18968,-0.14226 c -0.229987,0.26081 -0.374618,0.66625098 -0.374618,1.04798199 0,0.38173101 0.144631,0.78954301 0.374618,1.04798202 z" />
        <path
           id="path532"
           style="font-weight:bold;font-size:2.37100005px;font-family:'Proxima Nova';dominant-baseline:alphabetic;text-anchor:middle;fill:#f0f0ff"
           d="M -0.31808449,0 H 0.06601752 L -0.54332949,-1.581457 H -0.9653675 L -1.5770855,0 h 0.384102 l 0.099582,-0.26792301 h 0.67810601 z m -0.43626401,-1.244775 0.24658401,0.68047699 H -1.0009325 Z" />
        <path
           id="path534"
           style="font-weight:bold;font-size:2.37100005px;font-family:'Proxima Nova';dominant-baseline:alphabetic;text-anchor:middle;fill:#f0f0ff"
           d="M 1.2700131,0 H 1.075517 v -0.81618898 q 0,-0.11924463 -0.0960903,-0.22806982 -0.0949326,-0.1099829 -0.25817041,-0.1099829 -0.15397608,0 -0.25353956,0.1088252 -0.0995635,0.10766746 -0.0995635,0.23270066 V 0 h -0.1944961 v -0.80576955 q 0,-0.20375785 0.1551338,-0.37162645 0.15513379,-0.1690264 0.39246534,-0.1690264 0.23848926,0 0.39362303,0.1678687 0.1551338,0.1667109 0.1551338,0.37509958 z" />
        <path
           id="path536"
           style="font-weight:bold;font-size:2.37100005px;font-family:'Proxima Nova';dominant-baseline:alphabetic;text-anchor:middle;fill:#f0f0ff"
           d="m 1.541113,0 h 0.858302 c 0.301117,0 0.459974,-0.18968 0.459974,-0.42678001 0,-0.199164 -0.135147,-0.36276301 -0.303488,-0.38884401 0.149373,-0.030823 0.272665,-0.163599 0.272665,-0.36276298 0,-0.211019 -0.154115,-0.40307 -0.455232,-0.40307 H 1.541113 Z M 1.877795,-0.94840002 V -1.292195 h 0.422038 c 0.113808,0 0.184938,0.073501 0.184938,0.173083 0,0.099582 -0.07113,0.17071198 -0.184938,0.17071198 z m 0,0.65676701 v -0.367505 h 0.433893 c 0.132776,0 0.203906,0.085356 0.203906,0.184938 0,0.113808 -0.075872,0.182567 -0.203906,0.182567 z" />
        <path
           id="path538"
           style="font-weight:bold;font-size:2.37100005px;font-family:'Proxima Nova';dominant-baseline:alphabetic;text-anchor:middle;fill:#f0f0ff"
           d="m 3.2366374,-0.57615301 c 0,0.35565001 -0.078243,0.61646001 -0.241842,0.90098002 l 0.18968,0.147002 c 0.232358,-0.25843901 0.37936,-0.66625101 0.37936,-1.04798202 0,-0.38173101 -0.147002,-0.78717199 -0.37936,-1.04798199 l -0.18968,0.14226 c 0.163599,0.289262 0.241842,0.55007198 0.241842,0.90572199 z" />
      </g>
    </g>
    <path
       id="rect88"
       d="m 25.01,45.560001 h 8.4 c 0.554,0 1,0.446 1,1 v 10.98 c 0,0.554 -0.446,1 -1,1 h -8.4 c -0.554,0 -1,-0.446 -1,-1 v -10.98 c 0,-0.554 0.446,-1 1,-1 z"
       style="fill:#000099;stroke:#000099;stroke-width:0.34999999" />
    <g
       id="g92"
       transform="translate(29.21,48.14)">
      <g
         id="text90"
         style="font-weight:bold;font-size:2.37100005px;font-family:'Proxima Nova';dominant-baseline:alphabetic;text-anchor:middle;fill:#f0f0ff"
         aria-label="¬">
        <path
           id="path542"
           style="font-weight:bold;font-size:2.37100005px;font-family:'Proxima Nova';dominant-baseline:alphabetic;text-anchor:middle;fill:#f0f0ff"
           d="M 0.51495157,-0.47657101 V -1.109628 h -1.05746602 v 0.18967998 h 0.86541502 v 0.44337701 z" />
      </g>
    </g>
    <g
       id="g96"
       transform="translate(29.21,48.14)">
      <g
         id="text94"
         style="font-weight:bold;font-size:2.37100005px;font-family:'Proxima Nova';dominant-baseline:alphabetic;text-anchor:middle;fill:#f0f0ff"
         aria-label="¬">
        <path
           id="path545"
           style="font-weight:bold;font-size:2.37100005px;font-family:'Proxima Nova';dominant-baseline:alphabetic;text-anchor:middle;fill:#f0f0ff"
           d="M 0.51495157,-0.47657101 V -1.109628 h -1.05746602 v 0.18967998 h 0.86541502 v 0.44337701 z" />
      </g>
    </g>
    <path
       id="rect98"
       d="m 33.900002,45.560001 h 8.399999 c 0.554,0 1,0.446 1,1 v 10.98 c 0,0.554 -0.446,1 -1,1 h -8.399999 c -0.554,0 -1,-0.446 -1,-1 v -10.98 c 0,-0.554 0.446,-1 1,-1 z"
       style="fill:#000099;stroke:#000099;stroke-width:0.34999999" />
    <g
       id="g102"
       transform="translate(38.1,48.14)">
      <g
         id="text100"
         style="font-weight:bold;font-size:2.37100005px;font-family:'Proxima Nova';dominant-baseline:alphabetic;text-anchor:middle;fill:#f0f0ff"
         aria-label="p(A⋃B)">
        <path
           id="path549"
           style="font-weight:bold;font-size:2.37100005px;font-family:'Proxima Nova';dominant-baseline:alphabetic;text-anchor:middle;fill:#f0f0ff"
           d="M -3.207889,0.43626401 V -0.147002 c 0.092469,0.11855 0.218132,0.175454 0.353279,0.175454 0.294004,0 0.507394,-0.220503 0.507394,-0.60223401 0,-0.38173101 -0.21339,-0.59986299 -0.507394,-0.59986299 -0.139889,0 -0.265552,0.061646 -0.353279,0.173083 v -0.144631 h -0.301117 v 1.58145701 z m 0.547701,-1.01004602 c 0,0.199164 -0.116179,0.334311 -0.289262,0.334311 -0.097211,0 -0.208648,-0.059275 -0.258439,-0.130405 v -0.40544101 c 0.049791,-0.073501 0.161228,-0.130405 0.258439,-0.130405 0.173083,0 0.289262,0.135147 0.289262,0.33194001 z" />
        <path
           id="path551"
           style="font-weight:bold;font-size:2.37100005px;font-family:'Proxima Nova';dominant-baseline:alphabetic;text-anchor:middle;fill:#f0f0ff"
           d="m -1.7972922,0.47182901 0.18968,-0.147002 c -0.158857,-0.28452001 -0.239471,-0.54533001 -0.239471,-0.90098002 0,-0.35565001 0.080614,-0.61645999 0.239471,-0.90572199 l -0.18968,-0.14226 c -0.229987,0.26081 -0.374618,0.66625098 -0.374618,1.04798199 0,0.38173101 0.144631,0.78954301 0.374618,1.04798202 z" />
        <path
           id="path553"
           style="font-weight:bold;font-size:2.37100005px;font-family:'Proxima Nova';dominant-baseline:alphabetic;text-anchor:middle;fill:#f0f0ff"
           d="M -0.31808449,0 H 0.06601752 L -0.54332949,-1.581457 H -0.9653675 L -1.5770855,0 h 0.384102 l 0.099582,-0.26792301 h 0.67810601 z m -0.43626401,-1.244775 0.24658401,0.68047699 H -1.0009325 Z" />
        <path
           id="path555"
           style="font-weight:bold;font-size:2.37100005px;font-family:'Proxima Nova';dominant-baseline:alphabetic;text-anchor:middle;fill:#f0f0ff"
           d="m 1.2700131,-0.54296827 q 0,0.20838867 -0.1551338,0.37625733 Q 0.95974553,0 0.72125627,0 0.48392472,0 0.32879093,-0.16786866 0.17365713,-0.33689503 0.17365713,-0.54065284 V -1.3464224 h 0.1944961 v 0.81271585 q 0,0.1250332 0.0995635,0.2338584 0.0995635,0.10766748 0.25353956,0.10766748 0.15744922,0 0.25585498,-0.10650977 Q 1.075517,-0.40635792 1.075517,-0.53139112 V -1.3464224 h 0.1944961 z" />
        <path
           id="path557"
           style="font-weight:bold;font-size:2.37100005px;font-family:'Proxima Nova';dominant-baseline:alphabetic;text-anchor:middle;fill:#f0f0ff"
           d="m 1.541113,0 h 0.858302 c 0.301117,0 0.459974,-0.18968 0.459974,-0.42678001 0,-0.199164 -0.135147,-0.36276301 -0.303488,-0.38884401 0.149373,-0.030823 0.272665,-0.163599 0.272665,-0.36276298 0,-0.211019 -0.154115,-0.40307 -0.455232,-0.40307 H 1.541113 Z M 1.877795,-0.94840002 V -1.292195 h 0.422038 c 0.113808,0 0.184938,0.073501 0.184938,0.173083 0,0.099582 -0.07113,0.17071198 -0.184938,0.17071198 z m 0,0.65676701 v -0.367505 h 0.433893 c 0.132776,0 0.203906,0.085356 0.203906,0.184938 0,0.113808 -0.075872,0.182567 -0.203906,0.182567 z" />
        <path
           id="path559"
           style="font-weight:bold;font-size:2.37100005px;font-family:'Proxima Nova';dominant-baseline:alphabetic;text-anchor:middle;fill:#f0f0ff"
           d="m 3.2366374,-0.57615301 c 0,0.35565001 -0.078243,0.61646001 -0.241842,0.90098002 l 0.18968,0.147002 c 0.232358,-0.25843901 0.37936,-0.66625101 0.37936,-1.04798202 0,-0.38173101 -0.147002,-0.78717199 -0.37936,-1.04798199 l -0.18968,0.14226 c 0.163599,0.289262 0.241842,0.55007198 0.241842,0.90572199 z" />
      </g>
    </g>
    <g
       id="g106"
       transform="translate(38.1,48.14)">
      <g
         id="text104"
         style="font-weight:bold;font-size:2.37100005px;font-family:'Proxima Nova';dominant-baseline:alphabetic;text-anchor:middle;fill:#f0f0ff"
         aria-label="p(A⋃B)">
        <path
           id="path562"
           style="font-weight:bold;font-size:2.37100005px;font-family:'Proxima Nova';dominant-baseline:alphabetic;text-anchor:middle;fill:#f0f0ff"
           d="M -3.207889,0.43626401 V -0.147002 c 0.092469,0.11855 0.218132,0.175454 0.353279,0.175454 0.294004,0 0.507394,-0.220503 0.507394,-0.60223401 0,-0.38173101 -0.21339,-0.59986299 -0.507394,-0.59986299 -0.139889,0 -0.265552,0.061646 -0.353279,0.173083 v -0.144631 h -0.301117 v 1.58145701 z m 0.547701,-1.01004602 c 0,0.199164 -0.116179,0.334311 -0.289262,0.334311 -0.097211,0 -0.208648,-0.059275 -0.258439,-0.130405 v -0.40544101 c 0.049791,-0.073501 0.161228,-0.130405 0.258439,-0.130405 0.173083,0 0.289262,0.135147 0.289262,0.33194001 z" />
        <path
           id="path564"
           style="font-weight:bold;font-size:2.37100005px;font-family:'Proxima Nova';dominant-baseline:alphabetic;text-anchor:middle;fill:#f0f0ff"
           d="m -1.7972922,0.47182901 0.18968,-0.147002 c -0.158857,-0.28452001 -0.239471,-0.54533001 -0.239471,-0.90098002 0,-0.35565001 0.080614,-0.61645999 0.239471,-0.90572199 l -0.18968,-0.14226 c -0.229987,0.26081 -0.374618,0.66625098 -0.374618,1.04798199 0,0.38173101 0.144631,0.78954301 0.374618,1.04798202 z" />
        <path
           id="path566"
           style="font-weight:bold;font-size:2.37100005px;font-family:'Proxima Nova';dominant-baseline:alphabetic;text-anchor:middle;fill:#f0f0ff"
           d="M -0.31808449,0 H 0.06601752 L -0.54332949,-1.581457 H -0.9653675 L -1.5770855,0 h 0.384102 l 0.099582,-0.26792301 h 0.67810601 z m -0.43626401,-1.244775 0.24658401,0.68047699 H -1.0009325 Z" />
        <path
           id="path568"
           style="font-weight:bold;font-size:2.37100005px;font-family:'Proxima Nova';dominant-baseline:alphabetic;text-anchor:middle;fill:#f0f0ff"
           d="m 1.2700131,-0.54296827 q 0,0.20838867 -0.1551338,0.37625733 Q 0.95974553,0 0.72125627,0 0.48392472,0 0.32879093,-0.16786866 0.17365713,-0.33689503 0.17365713,-0.54065284 V -1.3464224 h 0.1944961 v 0.81271585 q 0,0.1250332 0.0995635,0.2338584 0.0995635,0.10766748 0.25353956,0.10766748 0.15744922,0 0.25585498,-0.10650977 Q 1.075517,-0.40635792 1.075517,-0.53139112 V -1.3464224 h 0.1944961 z" />
        <path
           id="path570"
           style="font-weight:bold;font-size:2.37100005px;font-family:'Proxima Nova';dominant-baseline:alphabetic;text-anchor:middle;fill:#f0f0ff"
           d="m 1.541113,0 h 0.858302 c 0.301117,0 0.459974,-0.18968 0.459974,-0.42678001 0,-0.199164 -0.135147,-0.36276301 -0.303488,-0.38884401 0.149373,-0.030823 0.272665,-0.163599 0.272665,-0.36276298 0,-0.211019 -0.154115,-0.40307 -0.455232,-0.40307 H 1.541113 Z M 1.877795,-0.94840002 V -1.292195 h 0.422038 c 0.113808,0 0.184938,0.073501 0.184938,0.173083 0,0.099582 -0.07113,0.17071198 -0.184938,0.17071198 z m 0,0.65676701 v -0.367505 h 0.433893 c 0.132776,0 0.203906,0.085356 0.203906,0.184938 0,0.113808 -0.075872,0.182567 -0.203906,0.182567 z" />
        <path
           id="path572"
           style="font-weight:bold;font-size:2.37100005px;font-family:'Proxima Nova';dominant-baseline:alphabetic;text-anchor:middle;fill:#f0f0ff"
           d="m 3.2366374,-0.57615301 c 0,0.35565001 -0.078243,0.61646001 -0.241842,0.90098002 l 0.18968,0.147002 c 0.232358,-0.25843901 0.37936,-0.66625101 0.37936,-1.04798202 0,-0.38173101 -0.147002,-0.78717199 -0.37936,-1.04798199 l -0.18968,0.14226 c 0.163599,0.289262 0.241842,0.55007198 0.241842,0.90572199 z" />
      </g>
    </g>
    <g
       id="g110"
       transform="translate(7.62,68.46)">
      <g
         id="text108"
         style="font-weight:bold;font-size:3.0480001px;font-family:'Proxima Nova';dominant-baseline:alphabetic;text-anchor:middle;fill:#000099"
         aria-label="C">
        <path
           id="path575"
           style="font-weight:bold;font-size:3.0480001px;font-family:'Proxima Nova';dominant-baseline:alphabetic;text-anchor:middle;fill:#000099"
           d="m 0.137922,0.036576 c 0.44805602,0 0.70408803,-0.24688801 0.85039203,-0.49987201 L 0.61645802,-0.64312802 c -0.085344,0.16764 -0.26822401,0.29565601 -0.47853602,0.29565601 -0.36880801,0 -0.63703202,-0.28346401 -0.63703202,-0.66751199 0,-0.384048 0.26822401,-0.6675121 0.63703202,-0.6675121 0.21031201,0 0.39319202,0.1310641 0.47853602,0.2956561 l 0.37185601,-0.1828801 c -0.143256,-0.252984 -0.40233601,-0.496824 -0.85039203,-0.496824 -0.60960002,0 -1.08204003,0.42672 -1.08204003,1.0515601 0,0.62483999 0.47244001,1.05156 1.08204003,1.05156 z" />
      </g>
    </g>
    <g
       id="g114"
       transform="translate(16.51,69.66)">
      <g
         id="text112"
         style="font-weight:bold;font-size:2.37100005px;font-family:'Proxima Nova';dominant-baseline:alphabetic;text-anchor:middle;fill:#000099"
         aria-label="¬">
        <path
           id="path578"
           style="font-weight:bold;font-size:2.37100005px;font-family:'Proxima Nova';dominant-baseline:alphabetic;text-anchor:middle;fill:#000099"
           d="M 0.51495157,-0.47657101 V -1.109628 h -1.05746602 v 0.18967998 h 0.86541502 v 0.44337701 z" />
      </g>
    </g>
    <g
       id="g118"
       transform="translate(29.21,69.66)">
      <g
         id="text116"
         style="font-weight:bold;font-size:2.37100005px;font-family:'Proxima Nova';dominant-baseline:alphabetic;text-anchor:middle;fill:#000099"
         aria-label="¬">
        <path
           id="path581"
           style="font-weight:bold;font-size:2.37100005px;font-family:'Proxima Nova';dominant-baseline:alphabetic;text-anchor:middle;fill:#000099"
           d="M 0.51495157,-0.47657101 V -1.109628 h -1.05746602 v 0.18967998 h 0.86541502 v 0.44337701 z" />
      </g>
    </g>
    <g
       id="g122"
       transform="translate(38.1,68.46)">
      <g
         id="text120"
         style="font-weight:bold;font-size:3.0480001px;font-family:'Proxima Nova';dominant-baseline:alphabetic;text-anchor:middle;fill:#000099"
         aria-label="D">
        <path
           id="path584"
           style="font-weight:bold;font-size:3.0480001px;font-family:'Proxima Nova';dominant-baseline:alphabetic;text-anchor:middle;fill:#000099"
           d="M -0.89420703,0 H -0.092583 c 0.63703202,0 1.07899203,-0.40233601 1.07899203,-1.014984 0,-0.6126481 -0.44196001,-1.0180321 -1.07899203,-1.0180321 h -0.80162403 z m 0.43281602,-0.38100001 V -1.6520161 H -0.092583 c 0.41757601,0 0.63703202,0.2773681 0.63703202,0.6370321 0,0.34442398 -0.23469601,0.63398399 -0.63703202,0.63398399 z" />
      </g>
    </g>
    <path
       id="rect124"
       d="M 3.4200001,81.120003 H 11.82 c 0.554,0 1,0.446 1,1 v 10.979999 c 0,0.554 -0.446,1 -1,1 H 3.4200001 c -0.554,0 -1,-0.446 -1,-1 V 82.120003 c 0,-0.554 0.446,-1 1,-1 z"
       style="fill:#000099;stroke:#000099;stroke-width:0.34999999" />
    <g
       id="g128"
       transform="translate(7.62,83.7)">
      <g
         id="text126"
         style="font-weight:bold;font-size:2.37100005px;font-family:'Proxima Nova';dominant-baseline:alphabetic;text-anchor:middle;fill:#f0f0ff"
         aria-label="C∧D">
        <path
           id="path588"
           style="font-weight:bold;font-size:2.37100005px;font-family:'Proxima Nova';dominant-baseline:alphabetic;text-anchor:middle;fill:#f0f0ff"
           d="m -1.4093187,0.028452 c 0.348537,0 0.54770099,-0.192051 0.66150899,-0.38884401 l -0.28926199,-0.139889 c -0.066388,0.130405 -0.208648,0.229987 -0.372247,0.229987 -0.286891,0 -0.495539,-0.220503 -0.495539,-0.51924901 0,-0.29874598 0.208648,-0.51924898 0.495539,-0.51924898 0.163599,0 0.305859,0.101953 0.372247,0.229987 l 0.28926199,-0.14226 c -0.111437,-0.196793 -0.31297199,-0.386473 -0.66150899,-0.386473 -0.4742,0 -0.841705,0.33194 -0.841705,0.81799498 0,0.48605501 0.367505,0.81799502 0.841705,0.81799502 z" />
        <path
           id="path590"
           style="font-weight:bold;font-size:2.37100005px;font-family:'Proxima Nova';dominant-baseline:alphabetic;text-anchor:middle;fill:#f0f0ff"
           d="M 0.58348834,0 H 0.37741509 L -0.03588912,-1.1148794 -0.44803561,0 h -0.20607325 l 0.52212941,-1.3464224 h 0.19333838 z" />
        <path
           id="path592"
           style="font-weight:bold;font-size:2.37100005px;font-family:'Proxima Nova';dominant-baseline:alphabetic;text-anchor:middle;fill:#f0f0ff"
           d="M 0.78396758,0 H 1.4075406 c 0.495539,0 0.839334,-0.31297201 0.839334,-0.78954302 0,-0.47657098 -0.343795,-0.79191398 -0.839334,-0.79191398 H 0.78396758 Z M 1.1206496,-0.29637501 V -1.285082 h 0.286891 c 0.324827,0 0.495539,0.215761 0.495539,0.49553898 0,0.26792301 -0.182567,0.49316801 -0.495539,0.49316801 z" />
      </g>
    </g>
    <g
       id="g132"
       transform="translate(7.62,83.7)">
      <g
         id="text130"
         style="font-weight:bold;font-size:2.37100005px;font-family:'Proxima Nova';dominant-baseline:alphabetic;text-anchor:middle;fill:#f0f0ff"
         aria-label="C∧D">
        <path
           id="path595"
           style="font-weight:bold;font-size:2.37100005px;font-family:'Proxima Nova';dominant-baseline:alphabetic;text-anchor:middle;fill:#f0f0ff"
           d="m -1.4093187,0.028452 c 0.348537,0 0.54770099,-0.192051 0.66150899,-0.38884401 l -0.28926199,-0.139889 c -0.066388,0.130405 -0.208648,0.229987 -0.372247,0.229987 -0.286891,0 -0.495539,-0.220503 -0.495539,-0.51924901 0,-0.29874598 0.208648,-0.51924898 0.495539,-0.51924898 0.163599,0 0.305859,0.101953 0.372247,0.229987 l 0.28926199,-0.14226 c -0.111437,-0.196793 -0.31297199,-0.386473 -0.66150899,-0.386473 -0.4742,0 -0.841705,0.33194 -0.841705,0.81799498 0,0.48605501 0.367505,0.81799502 0.841705,0.81799502 z" />
        <path
           id="path597"
           style="font-weight:bold;font-size:2.37100005px;font-family:'Proxima Nova';dominant-baseline:alphabetic;text-anchor:middle;fill:#f0f0ff"
           d="M 0.58348834,0 H 0.37741509 L -0.03588912,-1.1148794 -0.44803561,0 h -0.20607325 l 0.52212941,-1.3464224 h 0.19333838 z" />
        <path
           id="path599"
           style="font-weight:bold;font-size:2.37100005px;font-family:'Proxima Nova';dominant-baseline:alphabetic;text-anchor:middle;fill:#f0f0ff"
           d="M 0.78396758,0 H 1.4075406 c 0.495539,0 0.839334,-0.31297201 0.839334,-0.78954302 0,-0.47657098 -0.343795,-0.79191398 -0.839334,-0.79191398 H 0.78396758 Z M 1.1206496,-0.29637501 V -1.285082 h 0.286891 c 0.324827,0 0.495539,0.215761 0.495539,0.49553898 0,0.26792301 -0.182567,0.49316801 -0.495539,0.49316801 z" />
      </g>
    </g>
    <path
       id="rect134"
       d="m 12.31,81.120003 h 8.4 c 0.554,0 1,0.446 1,1 v 10.979999 c 0,0.554 -0.446,1 -1,1 h -8.4 c -0.554,0 -1,-0.446 -1,-1 V 82.120003 c 0,-0.554 0.446,-1 1,-1 z"
       style="fill:#000099;stroke:#000099;stroke-width:0.34999999" />
    <g
       id="g138"
       transform="translate(16.51,83.7)">
      <g
         id="text136"
         style="font-weight:bold;font-size:2.37100005px;font-family:'Proxima Nova';dominant-baseline:alphabetic;text-anchor:middle;fill:#f0f0ff"
         aria-label="¬">
        <path
           id="path603"
           style="font-weight:bold;font-size:2.37100005px;font-family:'Proxima Nova';dominant-baseline:alphabetic;text-anchor:middle;fill:#f0f0ff"
           d="M 0.51495157,-0.47657101 V -1.109628 h -1.05746602 v 0.18967998 h 0.86541502 v 0.44337701 z" />
      </g>
    </g>
    <g
       id="g142"
       transform="translate(16.51,83.7)">
      <g
         id="text140"
         style="font-weight:bold;font-size:2.37100005px;font-family:'Proxima Nova';dominant-baseline:alphabetic;text-anchor:middle;fill:#f0f0ff"
         aria-label="¬">
        <path
           id="path606"
           style="font-weight:bold;font-size:2.37100005px;font-family:'Proxima Nova';dominant-baseline:alphabetic;text-anchor:middle;fill:#f0f0ff"
           d="M 0.51495157,-0.47657101 V -1.109628 h -1.05746602 v 0.18967998 h 0.86541502 v 0.44337701 z" />
      </g>
    </g>
    <path
       id="rect144"
       d="m 25.01,81.120003 h 8.4 c 0.554,0 1,0.446 1,1 v 10.979999 c 0,0.554 -0.446,1 -1,1 h -8.4 c -0.554,0 -1,-0.446 -1,-1 V 82.120003 c 0,-0.554 0.446,-1 1,-1 z"
       style="fill:#000099;stroke:#000099;stroke-width:0.34999999" />
    <g
       id="g148"
       transform="translate(29.21,83.7)">
      <g
         id="text146"
         style="font-weight:bold;font-size:2.37100005px;font-family:'Proxima Nova';dominant-baseline:alphabetic;text-anchor:middle;fill:#f0f0ff"
         aria-label="¬">
        <path
           id="path610"
           style="font-weight:bold;font-size:2.37100005px;font-family:'Proxima Nova';dominant-baseline:alphabetic;text-anchor:middle;fill:#f0f0ff"
           d="M 0.51495157,-0.47657101 V -1.109628 h -1.05746602 v 0.18967998 h 0.86541502 v 0.44337701 z" />
      </g>
    </g>
    <g
       id="g152"
       transform="translate(29.21,83.7)">
      <g
         id="text150"
         style="font-weight:bold;font-size:2.37100005px;font-family:'Proxima Nova';dominant-baseline:alphabetic;text-anchor:middle;fill:#f0f0ff"
         aria-label="¬">
        <path
           id="path613"
           style="font-weight:bold;font-size:2.37100005px;font-family:'Proxima Nova';dominant-baseline:alphabetic;text-anchor:middle;fill:#f0f0ff"
           d="M 0.51495157,-0.47657101 V -1.109628 h -1.05746602 v 0.18967998 h 0.86541502 v 0.44337701 z" />
      </g>
    </g>
    <path
       id="rect154"
       d="m 33.900002,81.120003 h 8.399999 c 0.554,0 1,0.446 1,1 v 10.979999 c 0,0.554 -0.446,1 -1,1 h -8.399999 c -0.554,0 -1,-0.446 -1,-1 V 82.120003 c 0,-0.554 0.446,-1 1,-1 z"
       style="fill:#000099;stroke:#000099;stroke-width:0.34999999" />
    <g
       id="g158"
       transform="translate(38.1,83.7)">
      <g
         id="text156"
         style="font-weight:bold;font-size:2.37100005px;font-family:'Proxima Nova';dominant-baseline:alphabetic;text-anchor:middle;fill:#f0f0ff"
         aria-label="C∨D">
        <path
           id="path617"
           style="font-weight:bold;font-size:2.37100005px;font-family:'Proxima Nova';dominant-baseline:alphabetic;text-anchor:middle;fill:#f0f0ff"
           d="m -1.4093187,0.028452 c 0.348537,0 0.54770099,-0.192051 0.66150899,-0.38884401 l -0.28926199,-0.139889 c -0.066388,0.130405 -0.208648,0.229987 -0.372247,0.229987 -0.286891,0 -0.495539,-0.220503 -0.495539,-0.51924901 0,-0.29874598 0.208648,-0.51924898 0.495539,-0.51924898 0.163599,0 0.305859,0.101953 0.372247,0.229987 l 0.28926199,-0.14226 c -0.111437,-0.196793 -0.31297199,-0.386473 -0.66150899,-0.386473 -0.4742,0 -0.841705,0.33194 -0.841705,0.81799498 0,0.48605501 0.367505,0.81799502 0.841705,0.81799502 z" />
        <path
           id="path619"
           style="font-weight:bold;font-size:2.37100005px;font-family:'Proxima Nova';dominant-baseline:alphabetic;text-anchor:middle;fill:#f0f0ff"
           d="M 0.58348834,-1.3464224 0.06135893,0 h -0.19333838 l -0.52212941,-1.3464224 h 0.20607325 l 0.41214649,1.11372171 0.41330421,-1.11372171 z" />
        <path
           id="path621"
           style="font-weight:bold;font-size:2.37100005px;font-family:'Proxima Nova';dominant-baseline:alphabetic;text-anchor:middle;fill:#f0f0ff"
           d="M 0.78396758,0 H 1.4075406 c 0.495539,0 0.839334,-0.31297201 0.839334,-0.78954302 0,-0.47657098 -0.343795,-0.79191398 -0.839334,-0.79191398 H 0.78396758 Z M 1.1206496,-0.29637501 V -1.285082 h 0.286891 c 0.324827,0 0.495539,0.215761 0.495539,0.49553898 0,0.26792301 -0.182567,0.49316801 -0.495539,0.49316801 z" />
      </g>
    </g>
    <g
       id="g162"
       transform="translate(38.1,83.7)">
      <g
         id="text160"
         style="font-weight:bold;font-size:2.37100005px;font-family:'Proxima Nova';dominant-baseline:alphabetic;text-anchor:middle;fill:#f0f0ff"
         aria-label="C∨D">
        <path
           id="path624"
           style="font-weight:bold;font-size:2.37100005px;font-family:'Proxima Nova';dominant-baseline:alphabetic;text-anchor:middle;fill:#f0f0ff"
           d="m -1.4093187,0.028452 c 0.348537,0 0.54770099,-0.192051 0.66150899,-0.38884401 l -0.28926199,-0.139889 c -0.066388,0.130405 -0.208648,0.229987 -0.372247,0.229987 -0.286891,0 -0.495539,-0.220503 -0.495539,-0.51924901 0,-0.29874598 0.208648,-0.51924898 0.495539,-0.51924898 0.163599,0 0.305859,0.101953 0.372247,0.229987 l 0.28926199,-0.14226 c -0.111437,-0.196793 -0.31297199,-0.386473 -0.66150899,-0.386473 -0.4742,0 -0.841705,0.33194 -0.841705,0.81799498 0,0.48605501 0.367505,0.81799502 0.841705,0.81799502 z" />
        <path
           id="path626"
           style="font-weight:bold;font-size:2.37100005px;font-family:'Proxima Nova';dominant-baseline:alphabetic;text-anchor:middle;fill:#f0f0ff"
           d="M 0.58348834,-1.3464224 0.06135893,0 h -0.19333838 l -0.52212941,-1.3464224 h 0.20607325 l 0.41214649,1.11372171 0.41330421,-1.11372171 z" />
        <path
           id="path628"
           style="font-weight:bold;font-size:2.37100005px;font-family:'Proxima Nova';dominant-baseline:alphabetic;text-anchor:middle;fill:#f0f0ff"
           d="M 0.78396758,0 H 1.4075406 c 0.495539,0 0.839334,-0.31297201 0.839334,-0.78954302 0,-0.47657098 -0.343795,-0.79191398 -0.839334,-0.79191398 H 0.78396758 Z M 1.1206496,-0.29637501 V -1.285082 h 0.286891 c 0.324827,0 0.495539,0.215761 0.495539,0.49553898 0,0.26792301 -0.182567,0.49316801 -0.495539,0.49316801 z" />
      </g>
    </g>
    <path
       id="rect164"
       d="m 12.31,96.360001 h 8.4 c 0.554,0 1,0.446 1,1 V 108.34 c 0,0.554 -0.446,1 -1,1 h -8.4 c -0.554,0 -1,-0.446 -1,-1 V 97.360001 c 0,-0.554 0.446,-1 1,-1 z"
       style="fill:#000099;stroke:#000099;stroke-width:0.34999999" />
    <g
       id="g168"
       transform="translate(16.51,98.94)">
      <g
         id="text166"
         style="font-weight:bold;font-size:2.37100005px;font-family:'Proxima Nova';dominant-baseline:alphabetic;text-anchor:middle;fill:#f0f0ff"
         aria-label="¬">
        <path
           id="path632"
           style="font-weight:bold;font-size:2.37100005px;font-family:'Proxima Nova';dominant-baseline:alphabetic;text-anchor:middle;fill:#f0f0ff"
           d="M 0.51495157,-0.47657101 V -1.109628 h -1.05746602 v 0.18967998 h 0.86541502 v 0.44337701 z" />
      </g>
    </g>
    <g
       id="g172"
       transform="translate(16.51,98.94)">
      <g
         id="text170"
         style="font-weight:bold;font-size:2.37100005px;font-family:'Proxima Nova';dominant-baseline:alphabetic;text-anchor:middle;fill:#f0f0ff"
         aria-label="¬">
        <path
           id="path635"
           style="font-weight:bold;font-size:2.37100005px;font-family:'Proxima Nova';dominant-baseline:alphabetic;text-anchor:middle;fill:#f0f0ff"
           d="M 0.51495157,-0.47657101 V -1.109628 h -1.05746602 v 0.18967998 h 0.86541502 v 0.44337701 z" />
      </g>
    </g>
    <path
       id="rect174"
       d="M 3.4200001,96.360001 H 11.82 c 0.554,0 1,0.446 1,1 V 108.34 c 0,0.554 -0.446,1 -1,1 H 3.4200001 c -0.554,0 -1,-0.446 -1,-1 V 97.360001 c 0,-0.554 0.446,-1 1,-1 z"
       style="fill:#000099;stroke:#000099;stroke-width:0.34999999" />
    <g
       id="g178"
       transform="translate(7.62,98.94)">
      <g
         id="text176"
         style="font-weight:bold;font-size:2.37100005px;font-family:'Proxima Nova';dominant-baseline:alphabetic;text-anchor:middle;fill:#f0f0ff"
         aria-label="p(C⋂D)">
        <path
           id="path639"
           style="font-weight:bold;font-size:2.37100005px;font-family:'Proxima Nova';dominant-baseline:alphabetic;text-anchor:middle;fill:#f0f0ff"
           d="M -3.2796673,0.43626401 V -0.147002 c 0.092469,0.11855 0.218132,0.175454 0.353279,0.175454 0.294004,0 0.507394,-0.220503 0.507394,-0.60223401 0,-0.38173101 -0.21339,-0.59986299 -0.507394,-0.59986299 -0.139889,0 -0.265552,0.061646 -0.353279,0.173083 v -0.144631 h -0.301117 v 1.58145701 z m 0.547701,-1.01004602 c 0,0.199164 -0.116179,0.334311 -0.289262,0.334311 -0.097211,0 -0.208648,-0.059275 -0.258439,-0.130405 v -0.40544101 c 0.049791,-0.073501 0.161228,-0.130405 0.258439,-0.130405 0.173083,0 0.289262,0.135147 0.289262,0.33194001 z" />
        <path
           id="path641"
           style="font-weight:bold;font-size:2.37100005px;font-family:'Proxima Nova';dominant-baseline:alphabetic;text-anchor:middle;fill:#f0f0ff"
           d="m -1.8690705,0.47182901 0.18968,-0.147002 c -0.158857,-0.28452001 -0.239471,-0.54533001 -0.239471,-0.90098002 0,-0.35565001 0.080614,-0.61645999 0.239471,-0.90572199 l -0.18968,-0.14226 c -0.229987,0.26081 -0.374618,0.66625098 -0.374618,1.04798199 0,0.38173101 0.144631,0.78954301 0.374618,1.04798202 z" />
        <path
           id="path643"
           style="font-weight:bold;font-size:2.37100005px;font-family:'Proxima Nova';dominant-baseline:alphabetic;text-anchor:middle;fill:#f0f0ff"
           d="m -0.71468982,0.028452 c 0.34853701,0 0.54770101,-0.192051 0.66150902,-0.38884401 l -0.28926201,-0.139889 c -0.066388,0.130405 -0.208648,0.229987 -0.37224701,0.229987 -0.28689098,0 -0.49553898,-0.220503 -0.49553898,-0.51924901 0,-0.29874598 0.208648,-0.51924898 0.49553898,-0.51924898 0.16359901,0 0.30585901,0.101953 0.37224701,0.229987 l 0.28926201,-0.14226 c -0.11143701,-0.196793 -0.31297201,-0.386473 -0.66150902,-0.386473 -0.47419998,0 -0.84170498,0.33194 -0.84170498,0.81799498 0,0.48605501 0.367505,0.81799502 0.84170498,0.81799502 z" />
        <path
           id="path645"
           style="font-weight:bold;font-size:2.37100005px;font-family:'Proxima Nova';dominant-baseline:alphabetic;text-anchor:middle;fill:#f0f0ff"
           d="M 1.2074966,0 H 1.0130005 v -0.81618898 q 0,-0.11924463 -0.0960903,-0.22806982 -0.0949326,-0.1099829 -0.25817042,-0.1099829 -0.15397608,0 -0.25353955,0.1088252 -0.0995635,0.10766746 -0.0995635,0.23270066 V 0 h -0.1944961 v -0.80576955 q 0,-0.20375785 0.15513379,-0.37162645 0.15513379,-0.1690264 0.39246534,-0.1690264 0.23848927,0 0.39362301,0.1678687 0.1551338,0.1667109 0.1551338,0.37509958 z" />
        <path
           id="path647"
           style="font-weight:bold;font-size:2.37100005px;font-family:'Proxima Nova';dominant-baseline:alphabetic;text-anchor:middle;fill:#f0f0ff"
           d="m 1.4785962,0 h 0.6235731 c 0.495539,0 0.839334,-0.31297201 0.839334,-0.78954302 0,-0.47657098 -0.343795,-0.79191398 -0.839334,-0.79191398 H 1.4785962 Z M 1.8152783,-0.29637501 V -1.285082 h 0.286891 c 0.324827,0 0.495539,0.215761 0.495539,0.49553898 0,0.26792301 -0.182567,0.49316801 -0.495539,0.49316801 z" />
        <path
           id="path649"
           style="font-weight:bold;font-size:2.37100005px;font-family:'Proxima Nova';dominant-baseline:alphabetic;text-anchor:middle;fill:#f0f0ff"
           d="m 3.3084156,-0.57615301 c 0,0.35565001 -0.078243,0.61646001 -0.241842,0.90098002 l 0.18968,0.147002 C 3.4886117,0.21339 3.6356137,-0.194422 3.6356137,-0.57615301 c 0,-0.38173101 -0.147002,-0.78717199 -0.3793601,-1.04798199 l -0.18968,0.14226 c 0.163599,0.289262 0.241842,0.55007198 0.241842,0.90572199 z" />
      </g>
    </g>
    <g
       id="g182"
       transform="translate(7.62,98.94)">
      <g
         id="text180"
         style="font-weight:bold;font-size:2.37100005px;font-family:'Proxima Nova';dominant-baseline:alphabetic;text-anchor:middle;fill:#f0f0ff"
         aria-label="p(C⋂D)">
        <path
           id="path652"
           style="font-weight:bold;font-size:2.37100005px;font-family:'Proxima Nova';dominant-baseline:alphabetic;text-anchor:middle;fill:#f0f0ff"
           d="M -3.2796673,0.43626401 V -0.147002 c 0.092469,0.11855 0.218132,0.175454 0.353279,0.175454 0.294004,0 0.507394,-0.220503 0.507394,-0.60223401 0,-0.38173101 -0.21339,-0.59986299 -0.507394,-0.59986299 -0.139889,0 -0.265552,0.061646 -0.353279,0.173083 v -0.144631 h -0.301117 v 1.58145701 z m 0.547701,-1.01004602 c 0,0.199164 -0.116179,0.334311 -0.289262,0.334311 -0.097211,0 -0.208648,-0.059275 -0.258439,-0.130405 v -0.40544101 c 0.049791,-0.073501 0.161228,-0.130405 0.258439,-0.130405 0.173083,0 0.289262,0.135147 0.289262,0.33194001 z" />
        <path
           id="path654"
           style="font-weight:bold;font-size:2.37100005px;font-family:'Proxima Nova';dominant-baseline:alphabetic;text-anchor:middle;fill:#f0f0ff"
           d="m -1.8690705,0.47182901 0.18968,-0.147002 c -0.158857,-0.28452001 -0.239471,-0.54533001 -0.239471,-0.90098002 0,-0.35565001 0.080614,-0.61645999 0.239471,-0.90572199 l -0.18968,-0.14226 c -0.229987,0.26081 -0.374618,0.66625098 -0.374618,1.04798199 0,0.38173101 0.144631,0.78954301 0.374618,1.04798202 z" />
        <path
           id="path656"
           style="font-weight:bold;font-size:2.37100005px;font-family:'Proxima Nova';dominant-baseline:alphabetic;text-anchor:middle;fill:#f0f0ff"
           d="m -0.71468982,0.028452 c 0.34853701,0 0.54770101,-0.192051 0.66150902,-0.38884401 l -0.28926201,-0.139889 c -0.066388,0.130405 -0.208648,0.229987 -0.37224701,0.229987 -0.28689098,0 -0.49553898,-0.220503 -0.49553898,-0.51924901 0,-0.29874598 0.208648,-0.51924898 0.49553898,-0.51924898 0.16359901,0 0.30585901,0.101953 0.37224701,0.229987 l 0.28926201,-0.14226 c -0.11143701,-0.196793 -0.31297201,-0.386473 -0.66150902,-0.386473 -0.47419998,0 -0.84170498,0.33194 -0.84170498,0.81799498 0,0.48605501 0.367505,0.81799502 0.84170498,0.81799502 z" />
        <path
           id="path658"
           style="font-weight:bold;font-size:2.37100005px;font-family:'Proxima Nova';dominant-baseline:alphabetic;text-anchor:middle;fill:#f0f0ff"
           d="M 1.2074966,0 H 1.0130005 v -0.81618898 q 0,-0.11924463 -0.0960903,-0.22806982 -0.0949326,-0.1099829 -0.25817042,-0.1099829 -0.15397608,0 -0.25353955,0.1088252 -0.0995635,0.10766746 -0.0995635,0.23270066 V 0 h -0.1944961 v -0.80576955 q 0,-0.20375785 0.15513379,-0.37162645 0.15513379,-0.1690264 0.39246534,-0.1690264 0.23848927,0 0.39362301,0.1678687 0.1551338,0.1667109 0.1551338,0.37509958 z" />
        <path
           id="path660"
           style="font-weight:bold;font-size:2.37100005px;font-family:'Proxima Nova';dominant-baseline:alphabetic;text-anchor:middle;fill:#f0f0ff"
           d="m 1.4785962,0 h 0.6235731 c 0.495539,0 0.839334,-0.31297201 0.839334,-0.78954302 0,-0.47657098 -0.343795,-0.79191398 -0.839334,-0.79191398 H 1.4785962 Z M 1.8152783,-0.29637501 V -1.285082 h 0.286891 c 0.324827,0 0.495539,0.215761 0.495539,0.49553898 0,0.26792301 -0.182567,0.49316801 -0.495539,0.49316801 z" />
        <path
           id="path662"
           style="font-weight:bold;font-size:2.37100005px;font-family:'Proxima Nova';dominant-baseline:alphabetic;text-anchor:middle;fill:#f0f0ff"
           d="m 3.3084156,-0.57615301 c 0,0.35565001 -0.078243,0.61646001 -0.241842,0.90098002 l 0.18968,0.147002 C 3.4886117,0.21339 3.6356137,-0.194422 3.6356137,-0.57615301 c 0,-0.38173101 -0.147002,-0.78717199 -0.3793601,-1.04798199 l -0.18968,0.14226 c 0.163599,0.289262 0.241842,0.55007198 0.241842,0.90572199 z" />
      </g>
    </g>
    <path
       id="rect184"
       d="m 25.01,96.360001 h 8.4 c 0.554,0 1,0.446 1,1 V 108.34 c 0,0.554 -0.446,1 -1,1 h -8.4 c -0.554,0 -1,-0.446 -1,-1 V 97.360001 c 0,-0.554 0.446,-1 1,-1 z"
       style="fill:#000099;stroke:#000099;stroke-width:0.34999999" />
    <g
       id="g188"
       transform="translate(29.21,98.94)">
      <g
         id="text186"
         style="font-weight:bold;font-size:2.37100005px;font-family:'Proxima Nova';dominant-baseline:alphabetic;text-anchor:middle;fill:#f0f0ff"
         aria-label="¬">
        <path
           id="path666"
           style="font-weight:bold;font-size:2.37100005px;font-family:'Proxima Nova';dominant-baseline:alphabetic;text-anchor:middle;fill:#f0f0ff"
           d="M 0.51495157,-0.47657101 V -1.109628 h -1.05746602 v 0.18967998 h 0.86541502 v 0.44337701 z" />
      </g>
    </g>
    <g
       id="g192"
       transform="translate(29.21,98.94)">
      <g
         id="text190"
         style="font-weight:bold;font-size:2.37100005px;font-family:'Proxima Nova';dominant-baseline:alphabetic;text-anchor:middle;fill:#f0f0ff"
         aria-label="¬">
        <path
           id="path669"
           style="font-weight:bold;font-size:2.37100005px;font-family:'Proxima Nova';dominant-baseline:alphabetic;text-anchor:middle;fill:#f0f0ff"
           d="M 0.51495157,-0.47657101 V -1.109628 h -1.05746602 v 0.18967998 h 0.86541502 v 0.44337701 z" />
      </g>
    </g>
    <path
       id="rect194"
       d="m 33.900002,96.360001 h 8.399999 c 0.554,0 1,0.446 1,1 V 108.34 c 0,0.554 -0.446,1 -1,1 h -8.399999 c -0.554,0 -1,-0.446 -1,-1 V 97.360001 c 0,-0.554 0.446,-1 1,-1 z"
       style="fill:#000099;stroke:#000099;stroke-width:0.34999999" />
    <g
       id="g198"
       transform="translate(38.1,98.94)">
      <g
         id="text196"
         style="font-weight:bold;font-size:2.37100005px;font-family:'Proxima Nova';dominant-baseline:alphabetic;text-anchor:middle;fill:#f0f0ff"
         aria-label="p(C⋃D)">
        <path
           id="path673"
           style="font-weight:bold;font-size:2.37100005px;font-family:'Proxima Nova';dominant-baseline:alphabetic;text-anchor:middle;fill:#f0f0ff"
           d="M -3.2796673,0.43626401 V -0.147002 c 0.092469,0.11855 0.218132,0.175454 0.353279,0.175454 0.294004,0 0.507394,-0.220503 0.507394,-0.60223401 0,-0.38173101 -0.21339,-0.59986299 -0.507394,-0.59986299 -0.139889,0 -0.265552,0.061646 -0.353279,0.173083 v -0.144631 h -0.301117 v 1.58145701 z m 0.547701,-1.01004602 c 0,0.199164 -0.116179,0.334311 -0.289262,0.334311 -0.097211,0 -0.208648,-0.059275 -0.258439,-0.130405 v -0.40544101 c 0.049791,-0.073501 0.161228,-0.130405 0.258439,-0.130405 0.173083,0 0.289262,0.135147 0.289262,0.33194001 z" />
        <path
           id="path675"
           style="font-weight:bold;font-size:2.37100005px;font-family:'Proxima Nova';dominant-baseline:alphabetic;text-anchor:middle;fill:#f0f0ff"
           d="m -1.8690705,0.47182901 0.18968,-0.147002 c -0.158857,-0.28452001 -0.239471,-0.54533001 -0.239471,-0.90098002 0,-0.35565001 0.080614,-0.61645999 0.239471,-0.90572199 l -0.18968,-0.14226 c -0.229987,0.26081 -0.374618,0.66625098 -0.374618,1.04798199 0,0.38173101 0.144631,0.78954301 0.374618,1.04798202 z" />
        <path
           id="path677"
           style="font-weight:bold;font-size:2.37100005px;font-family:'Proxima Nova';dominant-baseline:alphabetic;text-anchor:middle;fill:#f0f0ff"
           d="m -0.71468982,0.028452 c 0.34853701,0 0.54770101,-0.192051 0.66150902,-0.38884401 l -0.28926201,-0.139889 c -0.066388,0.130405 -0.208648,0.229987 -0.37224701,0.229987 -0.28689098,0 -0.49553898,-0.220503 -0.49553898,-0.51924901 0,-0.29874598 0.208648,-0.51924898 0.49553898,-0.51924898 0.16359901,0 0.30585901,0.101953 0.37224701,0.229987 l 0.28926201,-0.14226 c -0.11143701,-0.196793 -0.31297201,-0.386473 -0.66150902,-0.386473 -0.47419998,0 -0.84170498,0.33194 -0.84170498,0.81799498 0,0.48605501 0.367505,0.81799502 0.84170498,0.81799502 z" />
        <path
           id="path679"
           style="font-weight:bold;font-size:2.37100005px;font-family:'Proxima Nova';dominant-baseline:alphabetic;text-anchor:middle;fill:#f0f0ff"
           d="m 1.2074966,-0.54296827 q 0,0.20838867 -0.1551338,0.37625733 Q 0.89722906,0 0.65873979,0 0.42140824,0 0.26627445,-0.16786866 0.11114066,-0.33689503 0.11114066,-0.54065284 V -1.3464224 h 0.1944961 v 0.81271585 q 0,0.1250332 0.0995635,0.2338584 0.0995635,0.10766748 0.25353955,0.10766748 0.15744922,0 0.25585499,-0.10650977 0.0984057,-0.10766748 0.0984057,-0.23270068 V -1.3464224 h 0.1944961 z" />
        <path
           id="path681"
           style="font-weight:bold;font-size:2.37100005px;font-family:'Proxima Nova';dominant-baseline:alphabetic;text-anchor:middle;fill:#f0f0ff"
           d="m 1.4785962,0 h 0.6235731 c 0.495539,0 0.839334,-0.31297201 0.839334,-0.78954302 0,-0.47657098 -0.343795,-0.79191398 -0.839334,-0.79191398 H 1.4785962 Z M 1.8152783,-0.29637501 V -1.285082 h 0.286891 c 0.324827,0 0.495539,0.215761 0.495539,0.49553898 0,0.26792301 -0.182567,0.49316801 -0.495539,0.49316801 z" />
        <path
           id="path683"
           style="font-weight:bold;font-size:2.37100005px;font-family:'Proxima Nova';dominant-baseline:alphabetic;text-anchor:middle;fill:#f0f0ff"
           d="m 3.3084156,-0.57615301 c 0,0.35565001 -0.078243,0.61646001 -0.241842,0.90098002 l 0.18968,0.147002 C 3.4886117,0.21339 3.6356137,-0.194422 3.6356137,-0.57615301 c 0,-0.38173101 -0.147002,-0.78717199 -0.3793601,-1.04798199 l -0.18968,0.14226 c 0.163599,0.289262 0.241842,0.55007198 0.241842,0.90572199 z" />
      </g>
    </g>
    <g
       id="g202"
       transform="translate(38.1,98.94)">
      <g
         id="text200"
         style="font-weight:bold;font-size:2.37100005px;font-family:'Proxima Nova';dominant-baseline:alphabetic;text-anchor:middle;fill:#f0f0ff"
         aria-label="p(C⋃D)">
        <path
           id="path686"
           style="font-weight:bold;font-size:2.37100005px;font-family:'Proxima Nova';dominant-baseline:alphabetic;text-anchor:middle;fill:#f0f0ff"
           d="M -3.2796673,0.43626401 V -0.147002 c 0.092469,0.11855 0.218132,0.175454 0.353279,0.175454 0.294004,0 0.507394,-0.220503 0.507394,-0.60223401 0,-0.38173101 -0.21339,-0.59986299 -0.507394,-0.59986299 -0.139889,0 -0.265552,0.061646 -0.353279,0.173083 v -0.144631 h -0.301117 v 1.58145701 z m 0.547701,-1.01004602 c 0,0.199164 -0.116179,0.334311 -0.289262,0.334311 -0.097211,0 -0.208648,-0.059275 -0.258439,-0.130405 v -0.40544101 c 0.049791,-0.073501 0.161228,-0.130405 0.258439,-0.130405 0.173083,0 0.289262,0.135147 0.289262,0.33194001 z" />
        <path
           id="path688"
           style="font-weight:bold;font-size:2.37100005px;font-family:'Proxima Nova';dominant-baseline:alphabetic;text-anchor:middle;fill:#f0f0ff"
           d="m -1.8690705,0.47182901 0.18968,-0.147002 c -0.158857,-0.28452001 -0.239471,-0.54533001 -0.239471,-0.90098002 0,-0.35565001 0.080614,-0.61645999 0.239471,-0.90572199 l -0.18968,-0.14226 c -0.229987,0.26081 -0.374618,0.66625098 -0.374618,1.04798199 0,0.38173101 0.144631,0.78954301 0.374618,1.04798202 z" />
        <path
           id="path690"
           style="font-weight:bold;font-size:2.37100005px;font-family:'Proxima Nova';dominant-baseline:alphabetic;text-anchor:middle;fill:#f0f0ff"
           d="m -0.71468982,0.028452 c 0.34853701,0 0.54770101,-0.192051 0.66150902,-0.38884401 l -0.28926201,-0.139889 c -0.066388,0.130405 -0.208648,0.229987 -0.37224701,0.229987 -0.28689098,0 -0.49553898,-0.220503 -0.49553898,-0.51924901 0,-0.29874598 0.208648,-0.51924898 0.49553898,-0.51924898 0.16359901,0 0.30585901,0.101953 0.37224701,0.229987 l 0.28926201,-0.14226 c -0.11143701,-0.196793 -0.31297201,-0.386473 -0.66150902,-0.386473 -0.47419998,0 -0.84170498,0.33194 -0.84170498,0.81799498 0,0.48605501 0.367505,0.81799502 0.84170498,0.81799502 z" />
        <path
           id="path692"
           style="font-weight:bold;font-size:2.37100005px;font-family:'Proxima Nova';dominant-baseline:alphabetic;text-anchor:middle;fill:#f0f0ff"
           d="m 1.2074966,-0.54296827 q 0,0.20838867 -0.1551338,0.37625733 Q 0.89722906,0 0.65873979,0 0.42140824,0 0.26627445,-0.16786866 0.11114066,-0.33689503 0.11114066,-0.54065284 V -1.3464224 h 0.1944961 v 0.81271585 q 0,0.1250332 0.0995635,0.2338584 0.0995635,0.10766748 0.25353955,0.10766748 0.15744922,0 0.25585499,-0.10650977 0.0984057,-0.10766748 0.0984057,-0.23270068 V -1.3464224 h 0.1944961 z" />
        <path
           id="path694"
           style="font-weight:bold;font-size:2.37100005px;font-family:'Proxima Nova';dominant-baseline:alphabetic;text-anchor:middle;fill:#f0f0ff"
           d="m 1.4785962,0 h 0.6235731 c 0.495539,0 0.839334,-0.31297201 0.839334,-0.78954302 0,-0.47657098 -0.343795,-0.79191398 -0.839334,-0.79191398 H 1.4785962 Z M 1.8152783,-0.29637501 V -1.285082 h 0.286891 c 0.324827,0 0.495539,0.215761 0.495539,0.49553898 0,0.26792301 -0.182567,0.49316801 -0.495539,0.49316801 z" />
        <path
           id="path696"
           style="font-weight:bold;font-size:2.37100005px;font-family:'Proxima Nova';dominant-baseline:alphabetic;text-anchor:middle;fill:#f0f0ff"
           d="m 3.3084156,-0.57615301 c 0,0.35565001 -0.078243,0.61646001 -0.241842,0.90098002 l 0.18968,0.147002 C 3.4886117,0.21339 3.6356137,-0.194422 3.6356137,-0.57615301 c 0,-0.38173101 -0.147002,-0.78717199 -0.3793601,-1.04798199 l -0.18968,0.14226 c 0.163599,0.289262 0.241842,0.55007198 0.241842,0.90572199 z" />
      </g>
    </g>
    <g
       id="g212"
       transform="translate(7.62,22.86)">
      <g
         style="fill:#f0f0ff;stroke:#000099;stroke-width:0.20999999"
         id="g210">
        <path
           id="circle204"
           d="M 4.0949998,0 A 4.0949998,4.0949998 0 0 1 0,4.0949998 4.0949998,4.0949998 0 0 1 -4.0949998,0 4.0949998,4.0949998 0 0 1 0,-4.0949998 4.0949998,4.0949998 0 0 1 4.0949998,0 Z"
           style="" />
        <path
           id="circle206"
           d="M 2.925,0 A 2.925,2.925 0 0 1 0,2.925 2.925,2.925 0 0 1 -2.925,0 2.925,2.925 0 0 1 0,-2.925 2.925,2.925 0 0 1 2.925,0 Z"
           style="" />
        <path
           id="circle208"
           d="M 1.755,0 A 1.755,1.755 0 0 1 0,1.755 1.755,1.755 0 0 1 -1.755,0 1.755,1.755 0 0 1 0,-1.755 1.755,1.755 0 0 1 1.755,0 Z"
           style="fill:#000099" />
      </g>
    </g>
    <g
       id="g216"
       transform="translate(16.51,22.86)">
      <path
         id="circle214"
         d="M 2.5,0 A 2.5,2.5 0 0 1 0,2.5 2.5,2.5 0 0 1 -2.5,0 2.5,2.5 0 0 1 0,-2.5 2.5,2.5 0 0 1 2.5,0 Z"
         style="fill:#000099;stroke:#000099;stroke-width:1" />
    </g>
    <g
       id="g220"
       transform="translate(29.21,22.86)">
      <path
         id="circle218"
         d="M 2.5,0 A 2.5,2.5 0 0 1 0,2.5 2.5,2.5 0 0 1 -2.5,0 2.5,2.5 0 0 1 0,-2.5 2.5,2.5 0 0 1 2.5,0 Z"
         style="fill:#000099;stroke:#000099;stroke-width:1" />
    </g>
    <g
       id="g230"
       transform="translate(38.1,22.86)">
      <g
         style="fill:#f0f0ff;stroke:#000099;stroke-width:0.20999999"
         id="g228">
        <path
           id="circle222"
           d="M 4.0949998,0 A 4.0949998,4.0949998 0 0 1 0,4.0949998 4.0949998,4.0949998 0 0 1 -4.0949998,0 4.0949998,4.0949998 0 0 1 0,-4.0949998 4.0949998,4.0949998 0 0 1 4.0949998,0 Z"
           style="" />
        <path
           id="circle224"
           d="M 2.925,0 A 2.925,2.925 0 0 1 0,2.925 2.925,2.925 0 0 1 -2.925,0 2.925,2.925 0 0 1 0,-2.925 2.925,2.925 0 0 1 2.925,0 Z"
           style="" />
        <path
           id="circle226"
           d="M 1.755,0 A 1.755,1.755 0 0 1 0,1.755 1.755,1.755 0 0 1 -1.755,0 1.755,1.755 0 0 1 0,-1.755 1.755,1.755 0 0 1 1.755,0 Z"
           style="fill:#000099" />
      </g>
    </g>
    <g
       id="g240"
       transform="translate(7.62,38.1)">
      <g
         style="fill:#f0f0ff;stroke:#000099;stroke-width:0.20999999"
         id="g238">
        <path
           id="circle232"
           d="M 4.0949998,0 A 4.0949998,4.0949998 0 0 1 0,4.0949998 4.0949998,4.0949998 0 0 1 -4.0949998,0 4.0949998,4.0949998 0 0 1 0,-4.0949998 4.0949998,4.0949998 0 0 1 4.0949998,0 Z"
           style="" />
        <path
           id="circle234"
           d="M 2.925,0 A 2.925,2.925 0 0 1 0,2.925 2.925,2.925 0 0 1 -2.925,0 2.925,2.925 0 0 1 0,-2.925 2.925,2.925 0 0 1 2.925,0 Z"
           style="" />
        <path
           id="circle236"
           d="M 1.755,0 A 1.755,1.755 0 0 1 0,1.755 1.755,1.755 0 0 1 -1.755,0 1.755,1.755 0 0 1 0,-1.755 1.755,1.755 0 0 1 1.755,0 Z"
           style="fill:#000099" />
      </g>
    </g>
    <g
       id="g250"
       transform="translate(16.51,38.1)">
      <g
         style="fill:#f0f0ff;stroke:#000099;stroke-width:0.20999999"
         id="g248">
        <path
           id="circle242"
           d="M 4.0949998,0 A 4.0949998,4.0949998 0 0 1 0,4.0949998 4.0949998,4.0949998 0 0 1 -4.0949998,0 4.0949998,4.0949998 0 0 1 0,-4.0949998 4.0949998,4.0949998 0 0 1 4.0949998,0 Z"
           style="" />
        <path
           id="circle244"
           d="M 2.925,0 A 2.925,2.925 0 0 1 0,2.925 2.925,2.925 0 0 1 -2.925,0 2.925,2.925 0 0 1 0,-2.925 2.925,2.925 0 0 1 2.925,0 Z"
           style="" />
        <path
           id="circle246"
           d="M 1.755,0 A 1.755,1.755 0 0 1 0,1.755 1.755,1.755 0 0 1 -1.755,0 1.755,1.755 0 0 1 0,-1.755 1.755,1.755 0 0 1 1.755,0 Z"
           style="fill:#000099" />
      </g>
    </g>
    <g
       id="g260"
       transform="translate(29.21,38.1)">
      <g
         style="fill:#f0f0ff;stroke:#000099;stroke-width:0.20999999"
         id="g258">
        <path
           id="circle252"
           d="M 4.0949998,0 A 4.0949998,4.0949998 0 0 1 0,4.0949998 4.0949998,4.0949998 0 0 1 -4.0949998,0 4.0949998,4.0949998 0 0 1 0,-4.0949998 4.0949998,4.0949998 0 0 1 4.0949998,0 Z"
           style="" />
        <path
           id="circle254"
           d="M 2.925,0 A 2.925,2.925 0 0 1 0,2.925 2.925,2.925 0 0 1 -2.925,0 2.925,2.925 0 0 1 0,-2.925 2.925,2.925 0 0 1 2.925,0 Z"
           style="" />
        <path
           id="circle256"
           d="M 1.755,0 A 1.755,1.755 0 0 1 0,1.755 1.755,1.755 0 0 1 -1.755,0 1.755,1.755 0 0 1 0,-1.755 1.755,1.755 0 0 1 1.755,0 Z"
           style="fill:#000099" />
      </g>
    </g>
    <g
       id="g270"
       transform="translate(38.1,38.1)">
      <g
         style="fill:#f0f0ff;stroke:#000099;stroke-width:0.20999999"
         id="g268">
        <path
           id="circle262"
           d="M 4.0949998,0 A 4.0949998,4.0949998 0 0 1 0,4.0949998 4.0949998,4.0949998 0 0 1 -4.0949998,0 4.0949998,4.0949998 0 0 1 0,-4.0949998 4.0949998,4.0949998 0 0 1 4.0949998,0 Z"
           style="" />
        <path
           id="circle264"
           d="M 2.925,0 A 2.925,2.925 0 0 1 0,2.925 2.925,2.925 0 0 1 -2.925,0 2.925,2.925 0 0 1 0,-2.925 2.925,2.925 0 0 1 2.925,0 Z"
           style="" />
        <path
           id="circle266"
           d="M 1.755,0 A 1.755,1.755 0 0 1 0,1.755 1.755,1.755 0 0 1 -1.755,0 1.755,1.755 0 0 1 0,-1.755 1.755,1.755 0 0 1 1.755,0 Z"
           style="fill:#000099" />
      </g>
    </g>
    <g
       id="g280"
       transform="translate(16.51,53.34)">
      <g
         style="fill:#f0f0ff;stroke:#000099;stroke-width:0.20999999"
         id="g278">
        <path
           id="circle272"
           d="M 4.0949998,0 A 4.0949998,4.0949998 0 0 1 0,4.0949998 4.0949998,4.0949998 0 0 1 -4.0949998,0 4.0949998,4.0949998 0 0 1 0,-4.0949998 4.0949998,4.0949998 0 0 1 4.0949998,0 Z"
           style="" />
        <path
           id="circle274"
           d="M 2.925,0 A 2.925,2.925 0 0 1 0,2.925 2.925,2.925 0 0 1 -2.925,0 2.925,2.925 0 0 1 0,-2.925 2.925,2.925 0 0 1 2.925,0 Z"
           style="" />
        <path
           id="circle276"
           d="M 1.755,0 A 1.755,1.755 0 0 1 0,1.755 1.755,1.755 0 0 1 -1.755,0 1.755,1.755 0 0 1 0,-1.755 1.755,1.755 0 0 1 1.755,0 Z"
           style="fill:#000099" />
      </g>
    </g>
    <g
       id="g290"
       transform="translate(7.62,53.34)">
      <g
         style="fill:#f0f0ff;stroke:#000099;stroke-width:0.20999999"
         id="g288">
        <path
           id="circle282"
           d="M 4.0949998,0 A 4.0949998,4.0949998 0 0 1 0,4.0949998 4.0949998,4.0949998 0 0 1 -4.0949998,0 4.0949998,4.0949998 0 0 1 0,-4.0949998 4.0949998,4.0949998 0 0 1 4.0949998,0 Z"
           style="" />
        <path
           id="circle284"
           d="M 2.925,0 A 2.925,2.925 0 0 1 0,2.925 2.925,2.925 0 0 1 -2.925,0 2.925,2.925 0 0 1 0,-2.925 2.925,2.925 0 0 1 2.925,0 Z"
           style="" />
        <path
           id="circle286"
           d="M 1.755,0 A 1.755,1.755 0 0 1 0,1.755 1.755,1.755 0 0 1 -1.755,0 1.755,1.755 0 0 1 0,-1.755 1.755,1.755 0 0 1 1.755,0 Z"
           style="fill:#000099" />
      </g>
    </g>
    <g
       id="g300"
       transform="translate(29.21,53.34)">
      <g
         style="fill:#f0f0ff;stroke:#000099;stroke-width:0.20999999"
         id="g298">
        <path
           id="circle292"
           d="M 4.0949998,0 A 4.0949998,4.0949998 0 0 1 0,4.0949998 4.0949998,4.0949998 0 0 1 -4.0949998,0 4.0949998,4.0949998 0 0 1 0,-4.0949998 4.0949998,4.0949998 0 0 1 4.0949998,0 Z"
           style="" />
        <path
           id="circle294"
           d="M 2.925,0 A 2.925,2.925 0 0 1 0,2.925 2.925,2.925 0 0 1 -2.925,0 2.925,2.925 0 0 1 0,-2.925 2.925,2.925 0 0 1 2.925,0 Z"
           style="" />
        <path
           id="circle296"
           d="M 1.755,0 A 1.755,1.755 0 0 1 0,1.755 1.755,1.755 0 0 1 -1.755,0 1.755,1.755 0 0 1 0,-1.755 1.755,1.755 0 0 1 1.755,0 Z"
           style="fill:#000099" />
      </g>
    </g>
    <g
       id="g310"
       transform="translate(38.1,53.34)">
      <g
         style="fill:#f0f0ff;stroke:#000099;stroke-width:0.20999999"
         id="g308">
        <path
           id="circle302"
           d="M 4.0949998,0 A 4.0949998,4.0949998 0 0 1 0,4.0949998 4.0949998,4.0949998 0 0 1 -4.0949998,0 4.0949998,4.0949998 0 0 1 0,-4.0949998 4.0949998,4.0949998 0 0 1 4.0949998,0 Z"
           style="" />
        <path
           id="circle304"
           d="M 2.925,0 A 2.925,2.925 0 0 1 0,2.925 2.925,2.925 0 0 1 -2.925,0 2.925,2.925 0 0 1 0,-2.925 2.925,2.925 0 0 1 2.925,0 Z"
           style="" />
        <path
           id="circle306"
           d="M 1.755,0 A 1.755,1.755 0 0 1 0,1.755 1.755,1.755 0 0 1 -1.755,0 1.755,1.755 0 0 1 0,-1.755 1.755,1.755 0 0 1 1.755,0 Z"
           style="fill:#000099" />
      </g>
    </g>
    <g
       id="g320"
       transform="translate(7.62,73.66)">
      <g
         style="fill:#f0f0ff;stroke:#000099;stroke-width:0.20999999"
         id="g318">
        <path
           id="circle312"
           d="M 4.0949998,0 A 4.0949998,4.0949998 0 0 1 0,4.0949998 4.0949998,4.0949998 0 0 1 -4.0949998,0 4.0949998,4.0949998 0 0 1 0,-4.0949998 4.0949998,4.0949998 0 0 1 4.0949998,0 Z"
           style="" />
        <path
           id="circle314"
           d="M 2.925,0 A 2.925,2.925 0 0 1 0,2.925 2.925,2.925 0 0 1 -2.925,0 2.925,2.925 0 0 1 0,-2.925 2.925,2.925 0 0 1 2.925,0 Z"
           style="" />
        <path
           id="circle316"
           d="M 1.755,0 A 1.755,1.755 0 0 1 0,1.755 1.755,1.755 0 0 1 -1.755,0 1.755,1.755 0 0 1 0,-1.755 1.755,1.755 0 0 1 1.755,0 Z"
           style="fill:#000099" />
      </g>
    </g>
    <g
       id="g324"
       transform="translate(16.51,73.66)">
      <path
         id="circle322"
         d="M 2.5,0 A 2.5,2.5 0 0 1 0,2.5 2.5,2.5 0 0 1 -2.5,0 2.5,2.5 0 0 1 0,-2.5 2.5,2.5 0 0 1 2.5,0 Z"
         style="fill:#000099;stroke:#000099;stroke-width:1" />
    </g>
    <g
       id="g328"
       transform="translate(29.21,73.66)">
      <path
         id="circle326"
         d="M 2.5,0 A 2.5,2.5 0 0 1 0,2.5 2.5,2.5 0 0 1 -2.5,0 2.5,2.5 0 0 1 0,-2.5 2.5,2.5 0 0 1 2.5,0 Z"
         style="fill:#000099;stroke:#000099;stroke-width:1" />
    </g>
    <g
       id="g338"
       transform="translate(38.1,73.66)">
      <g
         style="fill:#f0f0ff;stroke:#000099;stroke-width:0.20999999"
         id="g336">
        <path
           id="circle330"
           d="M 4.0949998,0 A 4.0949998,4.0949998 0 0 1 0,4.0949998 4.0949998,4.0949998 0 0 1 -4.0949998,0 4.0949998,4.0949998 0 0 1 0,-4.0949998 4.0949998,4.0949998 0 0 1 4.0949998,0 Z"
           style="" />
        <path
           id="circle332"
           d="M 2.925,0 A 2.925,2.925 0 0 1 0,2.925 2.925,2.925 0 0 1 -2.925,0 2.925,2.925 0 0 1 0,-2.925 2.925,2.925 0 0 1 2.925,0 Z"
           style="" />
        <path
           id="circle334"
           d="M 1.755,0 A 1.755,1.755 0 0 1 0,1.755 1.755,1.755 0 0 1 -1.755,0 1.755,1.755 0 0 1 0,-1.755 1.755,1.755 0 0 1 1.755,0 Z"
           style="fill:#000099" />
      </g>
    </g>
    <g
       id="g348"
       transform="translate(7.62,88.9)">
      <g
         style="fill:#f0f0ff;stroke:#000099;stroke-width:0.20999999"
         id="g346">
        <path
           id="circle340"
           d="M 4.0949998,0 A 4.0949998,4.0949998 0 0 1 0,4.0949998 4.0949998,4.0949998 0 0 1 -4.0949998,0 4.0949998,4.0949998 0 0 1 0,-4.0949998 4.0949998,4.0949998 0 0 1 4.0949998,0 Z"
           style="" />
        <path
           id="circle342"
           d="M 2.925,0 A 2.925,2.925 0 0 1 0,2.925 2.925,2.925 0 0 1 -2.925,0 2.925,2.925 0 0 1 0,-2.925 2.925,2.925 0 0 1 2.925,0 Z"
           style="" />
        <path
           id="circle344"
           d="M 1.755,0 A 1.755,1.755 0 0 1 0,1.755 1.755,1.755 0 0 1 -1.755,0 1.755,1.755 0 0 1 0,-1.755 1.755,1.755 0 0 1 1.755,0 Z"
           style="fill:#000099" />
      </g>
    </g>
    <g
       id="g358"
       transform="translate(16.51,88.9)">
      <g
         style="fill:#f0f0ff;stroke:#000099;stroke-width:0.20999999"
         id="g356">
        <path
           id="circle350"
           d="M 4.0949998,0 A 4.0949998,4.0949998 0 0 1 0,4.0949998 4.0949998,4.0949998 0 0 1 -4.0949998,0 4.0949998,4.0949998 0 0 1 0,-4.0949998 4.0949998,4.0949998 0 0 1 4.0949998,0 Z"
           style="" />
        <path
           id="circle352"
           d="M 2.925,0 A 2.925,2.925 0 0 1 0,2.925 2.925,2.925 0 0 1 -2.925,0 2.925,2.925 0 0 1 0,-2.925 2.925,2.925 0 0 1 2.925,0 Z"
           style="" />
        <path
           id="circle354"
           d="M 1.755,0 A 1.755,1.755 0 0 1 0,1.755 1.755,1.755 0 0 1 -1.755,0 1.755,1.755 0 0 1 0,-1.755 1.755,1.755 0 0 1 1.755,0 Z"
           style="fill:#000099" />
      </g>
    </g>
    <g
       id="g368"
       transform="translate(29.21,88.9)">
      <g
         style="fill:#f0f0ff;stroke:#000099;stroke-width:0.20999999"
         id="g366">
        <path
           id="circle360"
           d="M 4.0949998,0 A 4.0949998,4.0949998 0 0 1 0,4.0949998 4.0949998,4.0949998 0 0 1 -4.0949998,0 4.0949998,4.0949998 0 0 1 0,-4.0949998 4.0949998,4.0949998 0 0 1 4.0949998,0 Z"
           style="" />
        <path
           id="circle362"
           d="M 2.925,0 A 2.925,2.925 0 0 1 0,2.925 2.925,2.925 0 0 1 -2.925,0 2.925,2.925 0 0 1 0,-2.925 2.925,2.925 0 0 1 2.925,0 Z"
           style="" />
        <path
           id="circle364"
           d="M 1.755,0 A 1.755,1.755 0 0 1 0,1.755 1.755,1.755 0 0 1 -1.755,0 1.755,1.755 0 0 1 0,-1.755 1.755,1.755 0 0 1 1.755,0 Z"
           style="fill:#000099" />
      </g>
    </g>
    <g
       id="g378"
       transform="translate(38.1,88.9)">
      <g
         style="fill:#f0f0ff;stroke:#000099;stroke-width:0.20999999"
         id="g376">
        <path
           id="circle370"
           d="M 4.0949998,0 A 4.0949998,4.0949998 0 0 1 0,4.0949998 4.0949998,4.0949998 0 0 1 -4.0949998,0 4.0949998,4.0949998 0 0 1 0,-4.0949998 4.0949998,4.0949998 0 0 1 4.0949998,0 Z"
           style="" />
        <path
           id="circle372"
           d="M 2.925,0 A 2.925,2.925 0 0 1 0,2.925 2.925,2.925 0 0 1 -2.925,0 2.925,2.925 0 0 1 0,-2.925 2.925,2.925 0 0 1 2.925,0 Z"
           style="" />
        <path
           id="circle374"
           d="M 1.755,0 A 1.755,1.755 0 0 1 0,1.755 1.755,1.755 0 0 1 -1.755,0 1.755,1.755 0 0 1 0,-1.755 1.755,1.755 0 0 1 1.755,0 Z"
           style="fill:#000099" />
      </g>
    </g>
    <g
       id="g388"
       transform="translate(16.51,104.14)">
      <g
         style="fill:#f0f0ff;stroke:#000099;stroke-width:0.20999999"
         id="g386">
        <path
           id="circle380"
           d="M 4.0949998,0 A 4.0949998,4.0949998 0 0 1 0,4.0949998 4.0949998,4.0949998 0 0 1 -4.0949998,0 4.0949998,4.0949998 0 0 1 0,-4.0949998 4.0949998,4.0949998 0 0 1 4.0949998,0 Z"
           style="" />
        <path
           id="circle382"
           d="M 2.925,0 A 2.925,2.925 0 0 1 0,2.925 2.925,2.925 0 0 1 -2.925,0 2.925,2.925 0 0 1 0,-2.925 2.925,2.925 0 0 1 2.925,0 Z"
           style="" />
        <path
           id="circle384"
           d="M 1.755,0 A 1.755,1.755 0 0 1 0,1.755 1.755,1.755 0 0 1 -1.755,0 1.755,1.755 0 0 1 0,-1.755 1.755,1.755 0 0 1 1.755,0 Z"
           style="fill:#000099" />
      </g>
    </g>
    <g
       id="g398"
       transform="translate(7.62,104.14)">
      <g
         style="fill:#f0f0ff;stroke:#000099;stroke-width:0.20999999"
         id="g396">
        <path
           id="circle390"
           d="M 4.0949998,0 A 4.0949998,4.0949998 0 0 1 0,4.0949998 4.0949998,4.0949998 0 0 1 -4.0949998,0 4.0949998,4.0949998 0 0 1 0,-4.0949998 4.0949998,4.0949998 0 0 1 4.0949998,0 Z"
           style="" />
        <path
           id="circle392"
           d="M 2.925,0 A 2.925,2.925 0 0 1 0,2.925 2.925,2.925 0 0 1 -2.925,0 2.925,2.925 0 0 1 0,-2.925 2.925,2.925 0 0 1 2.925,0 Z"
           style="" />
        <path
           id="circle394"
           d="M 1.755,0 A 1.755,1.755 0 0 1 0,1.755 1.755,1.755 0 0 1 -1.755,0 1.755,1.755 0 0 1 0,-1.755 1.755,1.755 0 0 1 1.755,0 Z"
           style="fill:#000099" />
      </g>
    </g>
    <g
       id="g408"
       transform="translate(29.21,104.14)">
      <g
         style="fill:#f0f0ff;stroke:#000099;stroke-width:0.20999999"
         id="g406">
        <path
           id="circle400"
           d="M 4.0949998,0 A 4.0949998,4.0949998 0 0 1 0,4.0949998 4.0949998,4.0949998 0 0 1 -4.0949998,0 4.0949998,4.0949998 0 0 1 0,-4.0949998 4.0949998,4.0949998 0 0 1 4.0949998,0 Z"
           style="" />
        <path
           id="circle402"
           d="M 2.925,0 A 2.925,2.925 0 0 1 0,2.925 2.925,2.925 0 0 1 -2.925,0 2.925,2.925 0 0 1 0,-2.925 2.925,2.925 0 0 1 2.925,0 Z"
           style="" />
        <path
           id="circle404"
           d="M 1.755,0 A 1.755,1.755 0 0 1 0,1.755 1.755,1.755 0 0 1 -1.755,0 1.755,1.755 0 0 1 0,-1.755 1.755,1.755 0 0 1 1.755,0 Z"
           style="fill:#000099" />
      </g>
    </g>
    <g
       id="g418"
       transform="translate(38.1,104.14)">
      <g
         style="fill:#f0f0ff;stroke:#000099;stroke-width:0.20999999"
         id="g416">
        <path
           id="circle410"
           d="M 4.0949998,0 A 4.0949998,4.0949998 0 0 1 0,4.0949998 4.0949998,4.0949998 0 0 1 -4.0949998,0 4.0949998,4.0949998 0 0 1 0,-4.0949998 4.0949998,4.0949998 0 0 1 4.0949998,0 Z"
           style="" />
        <path
           id="circle412"
           d="M 2.925,0 A 2.925,2.925 0 0 1 0,2.925 2.925,2.925 0 0 1 -2.925,0 2.925,2.925 0 0 1 0,-2.925 2.925,2.925 0 0 1 2.925,0 Z"
           style="" />
        <path
           id="circle414"
           d="M 1.755,0 A 1.755,1.755 0 0 1 0,1.755 1.755,1.755 0 0 1 -1.755,0 1.755,1.755 0 0 1 0,-1.755 1.755,1.755 0 0 1 1.755,0 Z"
           style="fill:#000099" />
      </g>
    </g>
  </g>
</svg>
