<?xml version="1.0" encoding="UTF-8" standalone="no"?>
<svg
   xmlns:dc="http://purl.org/dc/elements/1.1/"
   xmlns:cc="http://creativecommons.org/ns#"
   xmlns:rdf="http://www.w3.org/1999/02/22-rdf-syntax-ns#"
   xmlns:svg="http://www.w3.org/2000/svg"
   xmlns="http://www.w3.org/2000/svg"
   id="svg422"
   height="379.429"
   width="135.000"
   version="1.1">
  <metadata
     id="metadata428">
    <rdf:RDF>
      <cc:Work
         rdf:about="">
        <dc:format>image/svg+xml</dc:format>
        <dc:type
           rdf:resource="http://purl.org/dc/dcmitype/StillImage" />
      </cc:Work>
    </rdf:RDF>
  </metadata>
  <defs
     id="defs426" />
  <g
     id="g420"
     transform="scale(2.953)">
    <path
       id="rect2"
       d="M 0,0 H 45.720001 V 128.5 H 0 Z"
       style="fill:#f0f0ff;stroke:#000099;stroke-width:1" />
    <g
       id="g6"
       transform="translate(22.86,9)">
      <g
         id="text4"
         style="font-weight:bold;font-size:4.06400013px;font-family:'Proxima Nova';dominant-baseline:alphabetic;text-anchor:middle;fill:#000099"
         aria-label="FLOGIC">
        <path
           id="path431"
           style="font-weight:bold;font-size:4.06400013px;font-family:'Proxima Nova';dominant-baseline:alphabetic;text-anchor:middle;fill:#000099"
           d="m -6.8715575,0 h 0.577088 v -1.121664 h 1.3126721 v -0.5080001 h -1.3126721 v -0.573024 h 1.3411201 v -0.508 h -1.9182081 z" />
        <path
           id="path433"
           style="font-weight:bold;font-size:4.06400013px;font-family:'Proxima Nova';dominant-baseline:alphabetic;text-anchor:middle;fill:#000099"
           d="m -4.5538075,0 h 1.7231361 V -0.50800002 H -3.9767195 V -2.7106881 h -0.577088 z" />
        <path
           id="path435"
           style="font-weight:bold;font-size:4.06400013px;font-family:'Proxima Nova';dominant-baseline:alphabetic;text-anchor:middle;fill:#000099"
           d="m -2.6677308,-1.353312 c 0,0.81686398 0.597408,1.40208 1.4142721,1.40208 0.820928,0 1.41833602,-0.58521602 1.41833602,-1.40208 0,-0.8168641 -0.59740802,-1.4020801 -1.41833602,-1.4020801 -0.8168641,0 -1.4142721,0.585216 -1.4142721,1.4020801 z m 2.2392641,0 c 0,0.50393597 -0.32512001,0.89001599 -0.824992,0.89001599 -0.499872,0 -0.8209281,-0.38608002 -0.8209281,-0.89001599 0,-0.5080001 0.3210561,-0.8900161 0.8209281,-0.8900161 0.49987199,0 0.824992,0.382016 0.824992,0.8900161 z" />
        <path
           id="path437"
           style="font-weight:bold;font-size:4.06400013px;font-family:'Proxima Nova';dominant-baseline:alphabetic;text-anchor:middle;fill:#000099"
           d="m 0.44376949,-1.353312 c 0,0.85343998 0.65024001,1.406144 1.44272001,1.406144 0.4917441,0 0.8778241,-0.2032 1.1541761,-0.51206401 V -1.499616 H 1.7483135 v 0.50393597 h 0.7152641 v 0.32512001 c -0.109728,0.1016 -0.3373121,0.20726401 -0.5770881,0.20726401 -0.491744,0 -0.849376,-0.37795202 -0.849376,-0.89001599 0,-0.5120641 0.357632,-0.8900161 0.849376,-0.8900161 0.288544,0 0.5201921,0.16256 0.6421121,0.353568 l 0.479552,-0.260096 c -0.2032,-0.321056 -0.556768,-0.605536 -1.1216641,-0.605536 -0.79248,0 -1.44272001,0.544576 -1.44272001,1.4020801 z" />
        <path
           id="path439"
           style="font-weight:bold;font-size:4.06400013px;font-family:'Proxima Nova';dominant-baseline:alphabetic;text-anchor:middle;fill:#000099"
           d="m 3.5027549,0 h 0.577088 v -2.7106881 h -0.577088 z" />
        <path
           id="path441"
           style="font-weight:bold;font-size:4.06400013px;font-family:'Proxima Nova';dominant-baseline:alphabetic;text-anchor:middle;fill:#000099"
           d="m 5.9266769,0.048768 c 0.597408,0 0.938784,-0.32918401 1.133856,-0.66649602 l -0.495808,-0.23977601 c -0.113792,0.22352001 -0.357632,0.39420802 -0.638048,0.39420802 -0.491744,0 -0.849376,-0.37795202 -0.849376,-0.89001599 0,-0.5120641 0.357632,-0.8900161 0.849376,-0.8900161 0.280416,0 0.524256,0.174752 0.638048,0.394208 l 0.495808,-0.24384 c -0.191008,-0.337312 -0.536448,-0.662432 -1.133856,-0.662432 -0.8128,0 -1.44272,0.56896 -1.44272,1.4020801 0,0.83311998 0.62992,1.40208 1.44272,1.40208 z" />
      </g>
    </g>
    <g
       id="g10"
       transform="translate(22.86,119.5)">
      <g
         id="text8"
         style="font-weight:bold;font-size:4.06400013px;font-family:'Proxima Nova';dominant-baseline:hanging;text-anchor:middle;fill:#000099"
         aria-label="DHE">
        <path
           id="path444"
           style="font-weight:bold;font-size:4.06400013px;font-family:'Proxima Nova';dominant-baseline:hanging;text-anchor:middle;fill:#000099"
           d="m -3.8632449,2.5684481 h 1.0688321 c 0.849376,0 1.438656,-0.5364481 1.438656,-1.3533121 0,-0.816864 -0.58928,-1.35737602 -1.438656,-1.35737602 h -1.0688321 z m 0.577088,-0.508 V 0.36576 h 0.4917441 c 0.556768,0 0.849376,0.36982401 0.849376,0.849376 0,0.459232 -0.312928,0.8453121 -0.849376,0.8453121 z" />
        <path
           id="path446"
           style="font-weight:bold;font-size:4.06400013px;font-family:'Proxima Nova';dominant-baseline:hanging;text-anchor:middle;fill:#000099"
           d="M 0.91500319,2.5684481 H 1.4961552 V -0.14224002 H 0.91500319 V 0.92252801 H -0.36515685 V -0.14224002 H -0.94224487 V 2.5684481 h 0.57708802 V 1.430528 h 1.28016004 z" />
        <path
           id="path448"
           style="font-weight:bold;font-size:4.06400013px;font-family:'Proxima Nova';dominant-baseline:hanging;text-anchor:middle;fill:#000099"
           d="m 2.0263802,2.5684481 h 1.9182081 v -0.508 H 2.6034682 V 1.446784 H 3.9161403 V 0.93878401 H 2.6034682 V 0.36576 H 3.9445883 V -0.14224002 H 2.0263802 Z" />
      </g>
    </g>
    <g
       id="g14"
       transform="translate(7.62,17.66)">
      <g
         id="text12"
         style="font-weight:bold;font-size:3.0480001px;font-family:'Proxima Nova';dominant-baseline:alphabetic;text-anchor:middle;fill:#000099"
         aria-label="A">
        <path
           id="path451"
           style="font-weight:bold;font-size:3.0480001px;font-family:'Proxima Nova';dominant-baseline:alphabetic;text-anchor:middle;fill:#000099"
           d="M 0.56145114,0 H 1.0552272 L 0.27189113,-2.0330161 H -0.27065288 L -1.0570369,0 h 0.49377601 l 0.128016,-0.34442401 H 0.43648314 Z M 6.1912502e-4,-1.6002001 0.31761114,-0.72542402 h -0.63398403 z" />
      </g>
    </g>
    <g
       id="g18"
       transform="translate(16.51,18.86)">
      <g
         id="text16"
         style="font-weight:bold;font-size:2.37100005px;font-family:'Proxima Nova';dominant-baseline:alphabetic;text-anchor:middle;fill:#000099"
         aria-label="¬">
        <path
           id="path454"
           style="font-weight:bold;font-size:2.37100005px;font-family:'Proxima Nova';dominant-baseline:alphabetic;text-anchor:middle;fill:#000099"
           d="M 0.51495157,-0.47657101 V -1.109628 h -1.05746602 v 0.18967998 h 0.86541502 v 0.44337701 z" />
      </g>
    </g>
    <g
       id="g22"
       transform="translate(29.21,18.86)">
      <g
         id="text20"
         style="font-weight:bold;font-size:2.37100005px;font-family:'Proxima Nova';dominant-baseline:alphabetic;text-anchor:middle;fill:#000099"
         aria-label="¬">
        <path
           id="path457"
           style="font-weight:bold;font-size:2.37100005px;font-family:'Proxima Nova';dominant-baseline:alphabetic;text-anchor:middle;fill:#000099"
           d="M 0.51495157,-0.47657101 V -1.109628 h -1.05746602 v 0.18967998 h 0.86541502 v 0.44337701 z" />
      </g>
    </g>
    <g
       id="g26"
       transform="translate(38.1,17.66)">
      <g
         id="text24"
         style="font-weight:bold;font-size:3.0480001px;font-family:'Proxima Nova';dominant-baseline:alphabetic;text-anchor:middle;fill:#000099"
         aria-label="B">
        <path
           id="path460"
           style="font-weight:bold;font-size:3.0480001px;font-family:'Proxima Nova';dominant-baseline:alphabetic;text-anchor:middle;fill:#000099"
           d="m -0.80788671,0 h 1.10337603 c 0.38709601,0 0.59131202,-0.24384001 0.59131202,-0.54864002 0,-0.25603201 -0.173736,-0.46634398 -0.39014401,-0.49987198 0.192024,-0.039624 0.35052001,-0.210312 0.35052001,-0.466344 0,-0.2712721 -0.19812001,-0.5181601 -0.58521602,-0.5181601 h -1.06984803 z m 0.43281601,-1.2192 v -0.4419601 h 0.54254402 c 0.146304,0 0.23774401,0.094488 0.23774401,0.2225041 0,0.128016 -0.09144,0.219456 -0.23774401,0.219456 z m 0,0.84429599 v -0.47244002 h 0.55778402 c 0.170688,0 0.26212801,0.10972801 0.26212801,0.23774401 0,0.14630401 -0.097536,0.23469601 -0.26212801,0.23469601 z" />
      </g>
    </g>
    <path
       id="rect28"
       d="M 3.4200001,30.32 H 11.82 c 0.554,0 1,0.446 1,1 v 10.979999 c 0,0.554 -0.446,1 -1,1 H 3.4200001 c -0.554,0 -1,-0.446 -1,-1 V 31.32 c 0,-0.554 0.446,-1 1,-1 z"
       style="fill:#000099;stroke:#000099;stroke-width:0.34999999" />
    <g
       id="g32"
       transform="translate(7.62,32.9)">
      <g
         id="text30"
         style="font-weight:bold;font-size:2.37100005px;font-family:'Proxima Nova';dominant-baseline:alphabetic;text-anchor:middle;fill:#f0f0ff"
         aria-label="MAX">
        <path
           id="path464"
           style="font-weight:bold;font-size:2.37100005px;font-family:'Proxima Nova';dominant-baseline:alphabetic;text-anchor:middle;fill:#f0f0ff"
           d="m -1.0847696,0 h 0.33905304 V -1.581457 H -1.2199166 l -0.384102,0.95551299 -0.384102,-0.95551299 h -0.471829 V 0 h 0.336682 V -1.107257 L -1.6775196,0 h 0.147002 l 0.445748,-1.107257 z" />
        <path
           id="path466"
           style="font-weight:bold;font-size:2.37100005px;font-family:'Proxima Nova';dominant-baseline:alphabetic;text-anchor:middle;fill:#f0f0ff"
           d="M 0.65902692,0 H 1.0431289 L 0.43378192,-1.581457 H 0.01174391 L -0.59997411,0 h 0.38410201 l 0.099582,-0.26792301 h 0.67810602 z m -0.43626401,-1.244775 0.24658401,0.68047699 h -0.49316801 z" />
        <path
           id="path468"
           style="font-weight:bold;font-size:2.37100005px;font-family:'Proxima Nova';dominant-baseline:alphabetic;text-anchor:middle;fill:#f0f0ff"
           d="m 2.2205529,0 h 0.40307 L 2.0498409,-0.81325302 2.5880579,-1.581457 h -0.405441 l -0.358021,0.540588 -0.362763,-0.540588 H 1.0611339 L 1.5993509,-0.81088202 1.0255689,0 h 0.400699 l 0.398328,-0.57852401 z" />
      </g>
    </g>
    <g
       id="g36"
       transform="translate(7.62,32.9)">
      <g
         id="text34"
         style="font-weight:bold;font-size:2.37100005px;font-family:'Proxima Nova';dominant-baseline:alphabetic;text-anchor:middle;fill:#f0f0ff"
         aria-label="MAX">
        <path
           id="path471"
           style="font-weight:bold;font-size:2.37100005px;font-family:'Proxima Nova';dominant-baseline:alphabetic;text-anchor:middle;fill:#f0f0ff"
           d="m -1.0847696,0 h 0.33905304 V -1.581457 H -1.2199166 l -0.384102,0.95551299 -0.384102,-0.95551299 h -0.471829 V 0 h 0.336682 V -1.107257 L -1.6775196,0 h 0.147002 l 0.445748,-1.107257 z" />
        <path
           id="path473"
           style="font-weight:bold;font-size:2.37100005px;font-family:'Proxima Nova';dominant-baseline:alphabetic;text-anchor:middle;fill:#f0f0ff"
           d="M 0.65902692,0 H 1.0431289 L 0.43378192,-1.581457 H 0.01174391 L -0.59997411,0 h 0.38410201 l 0.099582,-0.26792301 h 0.67810602 z m -0.43626401,-1.244775 0.24658401,0.68047699 h -0.49316801 z" />
        <path
           id="path475"
           style="font-weight:bold;font-size:2.37100005px;font-family:'Proxima Nova';dominant-baseline:alphabetic;text-anchor:middle;fill:#f0f0ff"
           d="m 2.2205529,0 h 0.40307 L 2.0498409,-0.81325302 2.5880579,-1.581457 h -0.405441 l -0.358021,0.540588 -0.362763,-0.540588 H 1.0611339 L 1.5993509,-0.81088202 1.0255689,0 h 0.400699 l 0.398328,-0.57852401 z" />
      </g>
    </g>
    <path
       id="rect38"
       d="m 12.31,30.32 h 8.4 c 0.554,0 1,0.446 1,1 v 10.979999 c 0,0.554 -0.446,1 -1,1 h -8.4 c -0.554,0 -1,-0.446 -1,-1 V 31.32 c 0,-0.554 0.446,-1 1,-1 z"
       style="fill:#000099;stroke:#000099;stroke-width:0.34999999" />
    <g
       id="g42"
       transform="translate(16.51,32.9)">
      <g
         id="text40"
         style="font-weight:bold;font-size:2.37100005px;font-family:'Proxima Nova';dominant-baseline:alphabetic;text-anchor:middle;fill:#f0f0ff"
         aria-label="¬MAX">
        <path
           id="path479"
           style="font-weight:bold;font-size:2.37100005px;font-family:'Proxima Nova';dominant-baseline:alphabetic;text-anchor:middle;fill:#f0f0ff"
           d="M -2.101484,-0.47657101 V -1.109628 h -1.0574661 v 0.18967998 h 0.8654151 v 0.44337701 z" />
        <path
           id="path481"
           style="font-weight:bold;font-size:2.37100005px;font-family:'Proxima Nova';dominant-baseline:alphabetic;text-anchor:middle;fill:#f0f0ff"
           d="m -0.47349609,0 h 0.33905301 V -1.581457 H -0.60864309 L -0.9927451,-0.62594401 -1.3768471,-1.581457 h -0.471829 V 0 h 0.336682 V -1.107257 L -1.0662461,0 h 0.147002 l 0.44574801,-1.107257 z" />
        <path
           id="path483"
           style="font-weight:bold;font-size:2.37100005px;font-family:'Proxima Nova';dominant-baseline:alphabetic;text-anchor:middle;fill:#f0f0ff"
           d="m 1.2703005,0 h 0.384102 L 1.0450555,-1.581457 H 0.62301751 L 0.0112995,0 h 0.38410201 l 0.099582,-0.26792301 H 1.1730895 Z M 0.83403652,-1.244775 1.0806205,-0.56429801 H 0.58745251 Z" />
        <path
           id="path485"
           style="font-weight:bold;font-size:2.37100005px;font-family:'Proxima Nova';dominant-baseline:alphabetic;text-anchor:middle;fill:#f0f0ff"
           d="m 2.831826,0 h 0.40307 L 2.661114,-0.81325302 3.199331,-1.581457 H 2.79389 L 2.435869,-1.040869 2.073106,-1.581457 H 1.672407 L 2.210624,-0.81088202 1.636842,0 h 0.400699 l 0.398328,-0.57852401 z" />
      </g>
    </g>
    <g
       id="g46"
       transform="translate(16.51,32.9)">
      <g
         id="text44"
         style="font-weight:bold;font-size:2.37100005px;font-family:'Proxima Nova';dominant-baseline:alphabetic;text-anchor:middle;fill:#f0f0ff"
         aria-label="¬MAX">
        <path
           id="path488"
           style="font-weight:bold;font-size:2.37100005px;font-family:'Proxima Nova';dominant-baseline:alphabetic;text-anchor:middle;fill:#f0f0ff"
           d="M -2.101484,-0.47657101 V -1.109628 h -1.0574661 v 0.18967998 h 0.8654151 v 0.44337701 z" />
        <path
           id="path490"
           style="font-weight:bold;font-size:2.37100005px;font-family:'Proxima Nova';dominant-baseline:alphabetic;text-anchor:middle;fill:#f0f0ff"
           d="m -0.47349609,0 h 0.33905301 V -1.581457 H -0.60864309 L -0.9927451,-0.62594401 -1.3768471,-1.581457 h -0.471829 V 0 h 0.336682 V -1.107257 L -1.0662461,0 h 0.147002 l 0.44574801,-1.107257 z" />
        <path
           id="path492"
           style="font-weight:bold;font-size:2.37100005px;font-family:'Proxima Nova';dominant-baseline:alphabetic;text-anchor:middle;fill:#f0f0ff"
           d="m 1.2703005,0 h 0.384102 L 1.0450555,-1.581457 H 0.62301751 L 0.0112995,0 h 0.38410201 l 0.099582,-0.26792301 H 1.1730895 Z M 0.83403652,-1.244775 1.0806205,-0.56429801 H 0.58745251 Z" />
        <path
           id="path494"
           style="font-weight:bold;font-size:2.37100005px;font-family:'Proxima Nova';dominant-baseline:alphabetic;text-anchor:middle;fill:#f0f0ff"
           d="m 2.831826,0 h 0.40307 L 2.661114,-0.81325302 3.199331,-1.581457 H 2.79389 L 2.435869,-1.040869 2.073106,-1.581457 H 1.672407 L 2.210624,-0.81088202 1.636842,0 h 0.400699 l 0.398328,-0.57852401 z" />
      </g>
    </g>
    <path
       id="rect48"
       d="m 25.01,30.32 h 8.4 c 0.554,0 1,0.446 1,1 v 10.979999 c 0,0.554 -0.446,1 -1,1 h -8.4 c -0.554,0 -1,-0.446 -1,-1 V 31.32 c 0,-0.554 0.446,-1 1,-1 z"
       style="fill:#000099;stroke:#000099;stroke-width:0.34999999" />
    <g
       id="g52"
       transform="translate(29.21,32.9)">
      <g
         id="text50"
         style="font-weight:bold;font-size:2.37100005px;font-family:'Proxima Nova';dominant-baseline:alphabetic;text-anchor:middle;fill:#f0f0ff"
         aria-label="MIN">
        <path
           id="path498"
           style="font-weight:bold;font-size:2.37100005px;font-family:'Proxima Nova';dominant-baseline:alphabetic;text-anchor:middle;fill:#f0f0ff"
           d="m -0.67030765,0 h 0.33905301 V -1.581457 H -0.80545465 L -1.1895567,-0.62594401 -1.5736587,-1.581457 h -0.471829 V 0 h 0.336682 V -1.107257 L -1.2630577,0 h 0.147002 l 0.44574805,-1.107257 z" />
        <path
           id="path500"
           style="font-weight:bold;font-size:2.37100005px;font-family:'Proxima Nova';dominant-baseline:alphabetic;text-anchor:middle;fill:#f0f0ff"
           d="M -0.01717118,0 H 0.31951083 V -1.581457 H -0.01717118 Z" />
        <path
           id="path502"
           style="font-weight:bold;font-size:2.37100005px;font-family:'Proxima Nova';dominant-baseline:alphabetic;text-anchor:middle;fill:#f0f0ff"
           d="M 1.721809,0 H 2.046636 V -1.581457 H 1.709954 v 0.99344899 L 0.97731503,-1.581457 H 0.63114902 V 0 h 0.33668201 v -1.031385 z" />
      </g>
    </g>
    <g
       id="g56"
       transform="translate(29.21,32.9)">
      <g
         id="text54"
         style="font-weight:bold;font-size:2.37100005px;font-family:'Proxima Nova';dominant-baseline:alphabetic;text-anchor:middle;fill:#f0f0ff"
         aria-label="MIN">
        <path
           id="path505"
           style="font-weight:bold;font-size:2.37100005px;font-family:'Proxima Nova';dominant-baseline:alphabetic;text-anchor:middle;fill:#f0f0ff"
           d="m -0.67030765,0 h 0.33905301 V -1.581457 H -0.80545465 L -1.1895567,-0.62594401 -1.5736587,-1.581457 h -0.471829 V 0 h 0.336682 V -1.107257 L -1.2630577,0 h 0.147002 l 0.44574805,-1.107257 z" />
        <path
           id="path507"
           style="font-weight:bold;font-size:2.37100005px;font-family:'Proxima Nova';dominant-baseline:alphabetic;text-anchor:middle;fill:#f0f0ff"
           d="M -0.01717118,0 H 0.31951083 V -1.581457 H -0.01717118 Z" />
        <path
           id="path509"
           style="font-weight:bold;font-size:2.37100005px;font-family:'Proxima Nova';dominant-baseline:alphabetic;text-anchor:middle;fill:#f0f0ff"
           d="M 1.721809,0 H 2.046636 V -1.581457 H 1.709954 v 0.99344899 L 0.97731503,-1.581457 H 0.63114902 V 0 h 0.33668201 v -1.031385 z" />
      </g>
    </g>
    <path
       id="rect58"
       d="m 33.900002,30.32 h 8.399999 c 0.554,0 1,0.446 1,1 v 10.979999 c 0,0.554 -0.446,1 -1,1 h -8.399999 c -0.554,0 -1,-0.446 -1,-1 V 31.32 c 0,-0.554 0.446,-1 1,-1 z"
       style="fill:#000099;stroke:#000099;stroke-width:0.34999999" />
    <g
       id="g62"
       transform="translate(38.1,32.9)">
      <g
         id="text60"
         style="font-weight:bold;font-size:2.37100005px;font-family:'Proxima Nova';dominant-baseline:alphabetic;text-anchor:middle;fill:#f0f0ff"
         aria-label="¬MIN">
        <path
           id="path513"
           style="font-weight:bold;font-size:2.37100005px;font-family:'Proxima Nova';dominant-baseline:alphabetic;text-anchor:middle;fill:#f0f0ff"
           d="M -1.6870221,-0.47657101 V -1.109628 h -1.057466 v 0.18967998 h 0.865415 v 0.44337701 z" />
        <path
           id="path515"
           style="font-weight:bold;font-size:2.37100005px;font-family:'Proxima Nova';dominant-baseline:alphabetic;text-anchor:middle;fill:#f0f0ff"
           d="m -0.05903416,0 h 0.339053 v -1.581457 h -0.47420001 l -0.384102,0.95551299 L -0.96238518,-1.581457 H -1.4342142 V 0 h 0.336682 V -1.107257 L -0.65178418,0 h 0.14700201 l 0.44574801,-1.107257 z" />
        <path
           id="path517"
           style="font-weight:bold;font-size:2.37100005px;font-family:'Proxima Nova';dominant-baseline:alphabetic;text-anchor:middle;fill:#f0f0ff"
           d="M 0.59410242,0 H 0.93078443 V -1.581457 H 0.59410242 Z" />
        <path
           id="path519"
           style="font-weight:bold;font-size:2.37100005px;font-family:'Proxima Nova';dominant-baseline:alphabetic;text-anchor:middle;fill:#f0f0ff"
           d="M 2.3330826,0 H 2.6579097 V -1.581457 H 2.3212276 v 0.99344899 L 1.5885886,-1.581457 H 1.2424226 V 0 h 0.336682 v -1.031385 z" />
      </g>
    </g>
    <g
       id="g66"
       transform="translate(38.1,32.9)">
      <g
         id="text64"
         style="font-weight:bold;font-size:2.37100005px;font-family:'Proxima Nova';dominant-baseline:alphabetic;text-anchor:middle;fill:#f0f0ff"
         aria-label="¬MIN">
        <path
           id="path522"
           style="font-weight:bold;font-size:2.37100005px;font-family:'Proxima Nova';dominant-baseline:alphabetic;text-anchor:middle;fill:#f0f0ff"
           d="M -1.6870221,-0.47657101 V -1.109628 h -1.057466 v 0.18967998 h 0.865415 v 0.44337701 z" />
        <path
           id="path524"
           style="font-weight:bold;font-size:2.37100005px;font-family:'Proxima Nova';dominant-baseline:alphabetic;text-anchor:middle;fill:#f0f0ff"
           d="m -0.05903416,0 h 0.339053 v -1.581457 h -0.47420001 l -0.384102,0.95551299 L -0.96238518,-1.581457 H -1.4342142 V 0 h 0.336682 V -1.107257 L -0.65178418,0 h 0.14700201 l 0.44574801,-1.107257 z" />
        <path
           id="path526"
           style="font-weight:bold;font-size:2.37100005px;font-family:'Proxima Nova';dominant-baseline:alphabetic;text-anchor:middle;fill:#f0f0ff"
           d="M 0.59410242,0 H 0.93078443 V -1.581457 H 0.59410242 Z" />
        <path
           id="path528"
           style="font-weight:bold;font-size:2.37100005px;font-family:'Proxima Nova';dominant-baseline:alphabetic;text-anchor:middle;fill:#f0f0ff"
           d="M 2.3330826,0 H 2.6579097 V -1.581457 H 2.3212276 v 0.99344899 L 1.5885886,-1.581457 H 1.2424226 V 0 h 0.336682 v -1.031385 z" />
      </g>
    </g>
    <path
       id="rect68"
       d="M 3.4200001,45.560001 H 11.82 c 0.554,0 1,0.446 1,1 v 10.98 c 0,0.554 -0.446,1 -1,1 H 3.4200001 c -0.554,0 -1,-0.446 -1,-1 v -10.98 c 0,-0.554 0.446,-1 1,-1 z"
       style="fill:#000099;stroke:#000099;stroke-width:0.34999999" />
    <g
       id="g72"
       transform="translate(7.62,48.14)">
      <g
         id="text70"
         style="font-weight:bold;font-size:2.37100005px;font-family:'Proxima Nova';dominant-baseline:alphabetic;text-anchor:middle;fill:#f0f0ff"
         aria-label="AND">
        <path
           id="path532"
           style="font-weight:bold;font-size:2.37100005px;font-family:'Proxima Nova';dominant-baseline:alphabetic;text-anchor:middle;fill:#f0f0ff"
           d="m -1.2789878,0 h 0.38410199 L -1.5042328,-1.581457 h -0.422038 L -2.5379888,0 h 0.384102 l 0.099582,-0.26792301 h 0.678106 z m -0.436264,-1.244775 0.246584,0.68047699 h -0.493168 z" />
        <path
           id="path534"
           style="font-weight:bold;font-size:2.37100005px;font-family:'Proxima Nova';dominant-baseline:alphabetic;text-anchor:middle;fill:#f0f0ff"
           d="m 0.34181304,0 h 0.324827 v -1.581457 h -0.336682 v 0.99344899 L -0.40268098,-1.581457 H -0.74884699 V 0 h 0.33668201 v -1.031385 z" />
        <path
           id="path536"
           style="font-weight:bold;font-size:2.37100005px;font-family:'Proxima Nova';dominant-baseline:alphabetic;text-anchor:middle;fill:#f0f0ff"
           d="M 0.97846355,0 H 1.6020366 c 0.495539,0 0.839334,-0.31297201 0.839334,-0.78954302 0,-0.47657098 -0.343795,-0.79191398 -0.839334,-0.79191398 H 0.97846355 Z M 1.3151456,-0.29637501 V -1.285082 h 0.286891 c 0.324827,0 0.495539,0.215761 0.495539,0.49553898 0,0.26792301 -0.182567,0.49316801 -0.495539,0.49316801 z" />
      </g>
    </g>
    <g
       id="g76"
       transform="translate(7.62,48.14)">
      <g
         id="text74"
         style="font-weight:bold;font-size:2.37100005px;font-family:'Proxima Nova';dominant-baseline:alphabetic;text-anchor:middle;fill:#f0f0ff"
         aria-label="AND">
        <path
           id="path539"
           style="font-weight:bold;font-size:2.37100005px;font-family:'Proxima Nova';dominant-baseline:alphabetic;text-anchor:middle;fill:#f0f0ff"
           d="m -1.2789878,0 h 0.38410199 L -1.5042328,-1.581457 h -0.422038 L -2.5379888,0 h 0.384102 l 0.099582,-0.26792301 h 0.678106 z m -0.436264,-1.244775 0.246584,0.68047699 h -0.493168 z" />
        <path
           id="path541"
           style="font-weight:bold;font-size:2.37100005px;font-family:'Proxima Nova';dominant-baseline:alphabetic;text-anchor:middle;fill:#f0f0ff"
           d="m 0.34181304,0 h 0.324827 v -1.581457 h -0.336682 v 0.99344899 L -0.40268098,-1.581457 H -0.74884699 V 0 h 0.33668201 v -1.031385 z" />
        <path
           id="path543"
           style="font-weight:bold;font-size:2.37100005px;font-family:'Proxima Nova';dominant-baseline:alphabetic;text-anchor:middle;fill:#f0f0ff"
           d="M 0.97846355,0 H 1.6020366 c 0.495539,0 0.839334,-0.31297201 0.839334,-0.78954302 0,-0.47657098 -0.343795,-0.79191398 -0.839334,-0.79191398 H 0.97846355 Z M 1.3151456,-0.29637501 V -1.285082 h 0.286891 c 0.324827,0 0.495539,0.215761 0.495539,0.49553898 0,0.26792301 -0.182567,0.49316801 -0.495539,0.49316801 z" />
      </g>
    </g>
    <path
       id="rect78"
       d="m 12.31,45.560001 h 8.4 c 0.554,0 1,0.446 1,1 v 10.98 c 0,0.554 -0.446,1 -1,1 h -8.4 c -0.554,0 -1,-0.446 -1,-1 v -10.98 c 0,-0.554 0.446,-1 1,-1 z"
       style="fill:#000099;stroke:#000099;stroke-width:0.34999999" />
    <g
       id="g82"
       transform="translate(16.51,48.14)">
      <g
         id="text80"
         style="font-weight:bold;font-size:2.37100005px;font-family:'Proxima Nova';dominant-baseline:alphabetic;text-anchor:middle;fill:#f0f0ff"
         aria-label="¬AND">
        <path
           id="path547"
           style="font-weight:bold;font-size:2.37100005px;font-family:'Proxima Nova';dominant-baseline:alphabetic;text-anchor:middle;fill:#f0f0ff"
           d="M -2.0111823,-0.47657101 V -1.109628 h -1.057466 v 0.18967998 h 0.865415 v 0.44337701 z" />
        <path
           id="path549"
           style="font-weight:bold;font-size:2.37100005px;font-family:'Proxima Nova';dominant-baseline:alphabetic;text-anchor:middle;fill:#f0f0ff"
           d="m -0.66771433,0 h 0.38410201 L -0.89295934,-1.581457 H -1.3149973 L -1.9267154,0 h 0.384102 l 0.099582,-0.26792301 h 0.67810597 z m -0.43626397,-1.244775 0.24658396,0.68047699 H -1.3505623 Z" />
        <path
           id="path551"
           style="font-weight:bold;font-size:2.37100005px;font-family:'Proxima Nova';dominant-baseline:alphabetic;text-anchor:middle;fill:#f0f0ff"
           d="M 0.95308652,0 H 1.2779135 V -1.581457 H 0.94123152 v 0.99344899 L 0.2085925,-1.581457 h -0.346166 V 0 h 0.336682 v -1.031385 z" />
        <path
           id="path553"
           style="font-weight:bold;font-size:2.37100005px;font-family:'Proxima Nova';dominant-baseline:alphabetic;text-anchor:middle;fill:#f0f0ff"
           d="m 1.5897369,0 h 0.623573 c 0.495539,0 0.839334,-0.31297201 0.839334,-0.78954302 0,-0.47657098 -0.343795,-0.79191398 -0.839334,-0.79191398 h -0.623573 z m 0.336682,-0.29637501 V -1.285082 h 0.286891 c 0.324827,0 0.495539,0.215761 0.495539,0.49553898 0,0.26792301 -0.182567,0.49316801 -0.495539,0.49316801 z" />
      </g>
    </g>
    <g
       id="g86"
       transform="translate(16.51,48.14)">
      <g
         id="text84"
         style="font-weight:bold;font-size:2.37100005px;font-family:'Proxima Nova';dominant-baseline:alphabetic;text-anchor:middle;fill:#f0f0ff"
         aria-label="¬AND">
        <path
           id="path556"
           style="font-weight:bold;font-size:2.37100005px;font-family:'Proxima Nova';dominant-baseline:alphabetic;text-anchor:middle;fill:#f0f0ff"
           d="M -2.0111823,-0.47657101 V -1.109628 h -1.057466 v 0.18967998 h 0.865415 v 0.44337701 z" />
        <path
           id="path558"
           style="font-weight:bold;font-size:2.37100005px;font-family:'Proxima Nova';dominant-baseline:alphabetic;text-anchor:middle;fill:#f0f0ff"
           d="m -0.66771433,0 h 0.38410201 L -0.89295934,-1.581457 H -1.3149973 L -1.9267154,0 h 0.384102 l 0.099582,-0.26792301 h 0.67810597 z m -0.43626397,-1.244775 0.24658396,0.68047699 H -1.3505623 Z" />
        <path
           id="path560"
           style="font-weight:bold;font-size:2.37100005px;font-family:'Proxima Nova';dominant-baseline:alphabetic;text-anchor:middle;fill:#f0f0ff"
           d="M 0.95308652,0 H 1.2779135 V -1.581457 H 0.94123152 v 0.99344899 L 0.2085925,-1.581457 h -0.346166 V 0 h 0.336682 v -1.031385 z" />
        <path
           id="path562"
           style="font-weight:bold;font-size:2.37100005px;font-family:'Proxima Nova';dominant-baseline:alphabetic;text-anchor:middle;fill:#f0f0ff"
           d="m 1.5897369,0 h 0.623573 c 0.495539,0 0.839334,-0.31297201 0.839334,-0.78954302 0,-0.47657098 -0.343795,-0.79191398 -0.839334,-0.79191398 h -0.623573 z m 0.336682,-0.29637501 V -1.285082 h 0.286891 c 0.324827,0 0.495539,0.215761 0.495539,0.49553898 0,0.26792301 -0.182567,0.49316801 -0.495539,0.49316801 z" />
      </g>
    </g>
    <path
       id="rect88"
       d="m 25.01,45.560001 h 8.4 c 0.554,0 1,0.446 1,1 v 10.98 c 0,0.554 -0.446,1 -1,1 h -8.4 c -0.554,0 -1,-0.446 -1,-1 v -10.98 c 0,-0.554 0.446,-1 1,-1 z"
       style="fill:#000099;stroke:#000099;stroke-width:0.34999999" />
    <g
       id="g92"
       transform="translate(29.21,48.14)">
      <g
         id="text90"
         style="font-weight:bold;font-size:2.37100005px;font-family:'Proxima Nova';dominant-baseline:alphabetic;text-anchor:middle;fill:#f0f0ff"
         aria-label="OR">
        <path
           id="path566"
           style="font-weight:bold;font-size:2.37100005px;font-family:'Proxima Nova';dominant-baseline:alphabetic;text-anchor:middle;fill:#f0f0ff"
           d="m -1.5888108,-0.78954302 c 0,0.47657101 0.348537,0.81799502 0.82510798,0.81799502 0.47894201,0 0.82747902,-0.34142401 0.82747902,-0.81799502 0,-0.47657098 -0.34853701,-0.81799498 -0.82747902,-0.81799498 -0.47657098,0 -0.82510798,0.341424 -0.82510798,0.81799498 z m 1.30642099,0 c 0,0.29400401 -0.18968,0.51924901 -0.48131301,0.51924901 -0.29163298,0 -0.47894198,-0.225245 -0.47894198,-0.51924901 0,-0.29637498 0.187309,-0.51924898 0.47894198,-0.51924898 0.29163301,0 0.48131301,0.222874 0.48131301,0.51924898 z" />
        <path
           id="path568"
           style="font-weight:bold;font-size:2.37100005px;font-family:'Proxima Nova';dominant-baseline:alphabetic;text-anchor:middle;fill:#f0f0ff"
           d="m 1.1962251,0 h 0.386473 l -0.35565,-0.60223401 c 0.170712,-0.040307 0.346166,-0.18968001 0.346166,-0.46945799 0,-0.294004 -0.201535,-0.509765 -0.531104,-0.509765 H 0.30235805 V 0 h 0.33668201 v -0.56192701 h 0.246584 z m 0.033194,-1.071692 c 0,0.13277598 -0.101953,0.21338998 -0.23710003,0.21338998 H 0.63904006 V -1.285082 h 0.35327901 c 0.13514703,0 0.23710003,0.080614 0.23710003,0.21339 z" />
      </g>
    </g>
    <g
       id="g96"
       transform="translate(29.21,48.14)">
      <g
         id="text94"
         style="font-weight:bold;font-size:2.37100005px;font-family:'Proxima Nova';dominant-baseline:alphabetic;text-anchor:middle;fill:#f0f0ff"
         aria-label="OR">
        <path
           id="path571"
           style="font-weight:bold;font-size:2.37100005px;font-family:'Proxima Nova';dominant-baseline:alphabetic;text-anchor:middle;fill:#f0f0ff"
           d="m -1.5888108,-0.78954302 c 0,0.47657101 0.348537,0.81799502 0.82510798,0.81799502 0.47894201,0 0.82747902,-0.34142401 0.82747902,-0.81799502 0,-0.47657098 -0.34853701,-0.81799498 -0.82747902,-0.81799498 -0.47657098,0 -0.82510798,0.341424 -0.82510798,0.81799498 z m 1.30642099,0 c 0,0.29400401 -0.18968,0.51924901 -0.48131301,0.51924901 -0.29163298,0 -0.47894198,-0.225245 -0.47894198,-0.51924901 0,-0.29637498 0.187309,-0.51924898 0.47894198,-0.51924898 0.29163301,0 0.48131301,0.222874 0.48131301,0.51924898 z" />
        <path
           id="path573"
           style="font-weight:bold;font-size:2.37100005px;font-family:'Proxima Nova';dominant-baseline:alphabetic;text-anchor:middle;fill:#f0f0ff"
           d="m 1.1962251,0 h 0.386473 l -0.35565,-0.60223401 c 0.170712,-0.040307 0.346166,-0.18968001 0.346166,-0.46945799 0,-0.294004 -0.201535,-0.509765 -0.531104,-0.509765 H 0.30235805 V 0 h 0.33668201 v -0.56192701 h 0.246584 z m 0.033194,-1.071692 c 0,0.13277598 -0.101953,0.21338998 -0.23710003,0.21338998 H 0.63904006 V -1.285082 h 0.35327901 c 0.13514703,0 0.23710003,0.080614 0.23710003,0.21339 z" />
      </g>
    </g>
    <path
       id="rect98"
       d="m 33.900002,45.560001 h 8.399999 c 0.554,0 1,0.446 1,1 v 10.98 c 0,0.554 -0.446,1 -1,1 h -8.399999 c -0.554,0 -1,-0.446 -1,-1 v -10.98 c 0,-0.554 0.446,-1 1,-1 z"
       style="fill:#000099;stroke:#000099;stroke-width:0.34999999" />
    <g
       id="g102"
       transform="translate(38.1,48.14)">
      <g
         id="text100"
         style="font-weight:bold;font-size:2.37100005px;font-family:'Proxima Nova';dominant-baseline:alphabetic;text-anchor:middle;fill:#f0f0ff"
         aria-label="¬OR">
        <path
           id="path577"
           style="font-weight:bold;font-size:2.37100005px;font-family:'Proxima Nova';dominant-baseline:alphabetic;text-anchor:middle;fill:#f0f0ff"
           d="M -1.1544733,-0.47657101 V -1.109628 h -1.057466 v 0.18967998 h 0.865415 v 0.44337701 z" />
        <path
           id="path579"
           style="font-weight:bold;font-size:2.37100005px;font-family:'Proxima Nova';dominant-baseline:alphabetic;text-anchor:middle;fill:#f0f0ff"
           d="m -0.97753735,-0.78954302 c 0,0.47657101 0.348537,0.81799502 0.82510801,0.81799502 0.47894201,0 0.82747902,-0.34142401 0.82747902,-0.81799502 0,-0.47657098 -0.34853701,-0.81799498 -0.82747902,-0.81799498 -0.47657101,0 -0.82510801,0.341424 -0.82510801,0.81799498 z m 1.30642102,0 c 0,0.29400401 -0.18968,0.51924901 -0.48131301,0.51924901 -0.291633,0 -0.47894201,-0.225245 -0.47894201,-0.51924901 0,-0.29637498 0.18730901,-0.51924898 0.47894201,-0.51924898 0.29163301,0 0.48131301,0.222874 0.48131301,0.51924898 z" />
        <path
           id="path581"
           style="font-weight:bold;font-size:2.37100005px;font-family:'Proxima Nova';dominant-baseline:alphabetic;text-anchor:middle;fill:#f0f0ff"
           d="m 1.8074984,0 h 0.386473 l -0.35565,-0.60223401 c 0.170712,-0.040307 0.346166,-0.18968001 0.346166,-0.46945799 0,-0.294004 -0.201535,-0.509765 -0.531104,-0.509765 H 0.91363142 V 0 H 1.2503134 v -0.56192701 h 0.246584 z m 0.033194,-1.071692 c 0,0.13277598 -0.101953,0.21338998 -0.2371,0.21338998 H 1.2503134 V -1.285082 h 0.353279 c 0.135147,0 0.2371,0.080614 0.2371,0.21339 z" />
      </g>
    </g>
    <g
       id="g106"
       transform="translate(38.1,48.14)">
      <g
         id="text104"
         style="font-weight:bold;font-size:2.37100005px;font-family:'Proxima Nova';dominant-baseline:alphabetic;text-anchor:middle;fill:#f0f0ff"
         aria-label="¬OR">
        <path
           id="path584"
           style="font-weight:bold;font-size:2.37100005px;font-family:'Proxima Nova';dominant-baseline:alphabetic;text-anchor:middle;fill:#f0f0ff"
           d="M -1.1544733,-0.47657101 V -1.109628 h -1.057466 v 0.18967998 h 0.865415 v 0.44337701 z" />
        <path
           id="path586"
           style="font-weight:bold;font-size:2.37100005px;font-family:'Proxima Nova';dominant-baseline:alphabetic;text-anchor:middle;fill:#f0f0ff"
           d="m -0.97753735,-0.78954302 c 0,0.47657101 0.348537,0.81799502 0.82510801,0.81799502 0.47894201,0 0.82747902,-0.34142401 0.82747902,-0.81799502 0,-0.47657098 -0.34853701,-0.81799498 -0.82747902,-0.81799498 -0.47657101,0 -0.82510801,0.341424 -0.82510801,0.81799498 z m 1.30642102,0 c 0,0.29400401 -0.18968,0.51924901 -0.48131301,0.51924901 -0.291633,0 -0.47894201,-0.225245 -0.47894201,-0.51924901 0,-0.29637498 0.18730901,-0.51924898 0.47894201,-0.51924898 0.29163301,0 0.48131301,0.222874 0.48131301,0.51924898 z" />
        <path
           id="path588"
           style="font-weight:bold;font-size:2.37100005px;font-family:'Proxima Nova';dominant-baseline:alphabetic;text-anchor:middle;fill:#f0f0ff"
           d="m 1.8074984,0 h 0.386473 l -0.35565,-0.60223401 c 0.170712,-0.040307 0.346166,-0.18968001 0.346166,-0.46945799 0,-0.294004 -0.201535,-0.509765 -0.531104,-0.509765 H 0.91363142 V 0 H 1.2503134 v -0.56192701 h 0.246584 z m 0.033194,-1.071692 c 0,0.13277598 -0.101953,0.21338998 -0.2371,0.21338998 H 1.2503134 V -1.285082 h 0.353279 c 0.135147,0 0.2371,0.080614 0.2371,0.21339 z" />
      </g>
    </g>
    <g
       id="g110"
       transform="translate(7.62,68.46)">
      <g
         id="text108"
         style="font-weight:bold;font-size:3.0480001px;font-family:'Proxima Nova';dominant-baseline:alphabetic;text-anchor:middle;fill:#000099"
         aria-label="A">
        <path
           id="path591"
           style="font-weight:bold;font-size:3.0480001px;font-family:'Proxima Nova';dominant-baseline:alphabetic;text-anchor:middle;fill:#000099"
           d="M 0.56145114,0 H 1.0552272 L 0.27189113,-2.0330161 H -0.27065288 L -1.0570369,0 h 0.49377601 l 0.128016,-0.34442401 H 0.43648314 Z M 6.1912502e-4,-1.6002001 0.31761114,-0.72542402 h -0.63398403 z" />
      </g>
    </g>
    <g
       id="g114"
       transform="translate(16.51,69.66)">
      <g
         id="text112"
         style="font-weight:bold;font-size:2.37100005px;font-family:'Proxima Nova';dominant-baseline:alphabetic;text-anchor:middle;fill:#000099"
         aria-label="¬">
        <path
           id="path594"
           style="font-weight:bold;font-size:2.37100005px;font-family:'Proxima Nova';dominant-baseline:alphabetic;text-anchor:middle;fill:#000099"
           d="M 0.51495157,-0.47657101 V -1.109628 h -1.05746602 v 0.18967998 h 0.86541502 v 0.44337701 z" />
      </g>
    </g>
    <g
       id="g118"
       transform="translate(29.21,69.66)">
      <g
         id="text116"
         style="font-weight:bold;font-size:2.37100005px;font-family:'Proxima Nova';dominant-baseline:alphabetic;text-anchor:middle;fill:#000099"
         aria-label="¬">
        <path
           id="path597"
           style="font-weight:bold;font-size:2.37100005px;font-family:'Proxima Nova';dominant-baseline:alphabetic;text-anchor:middle;fill:#000099"
           d="M 0.51495157,-0.47657101 V -1.109628 h -1.05746602 v 0.18967998 h 0.86541502 v 0.44337701 z" />
      </g>
    </g>
    <g
       id="g122"
       transform="translate(38.1,68.46)">
      <g
         id="text120"
         style="font-weight:bold;font-size:3.0480001px;font-family:'Proxima Nova';dominant-baseline:alphabetic;text-anchor:middle;fill:#000099"
         aria-label="B">
        <path
           id="path600"
           style="font-weight:bold;font-size:3.0480001px;font-family:'Proxima Nova';dominant-baseline:alphabetic;text-anchor:middle;fill:#000099"
           d="m -0.80788671,0 h 1.10337603 c 0.38709601,0 0.59131202,-0.24384001 0.59131202,-0.54864002 0,-0.25603201 -0.173736,-0.46634398 -0.39014401,-0.49987198 0.192024,-0.039624 0.35052001,-0.210312 0.35052001,-0.466344 0,-0.2712721 -0.19812001,-0.5181601 -0.58521602,-0.5181601 h -1.06984803 z m 0.43281601,-1.2192 v -0.4419601 h 0.54254402 c 0.146304,0 0.23774401,0.094488 0.23774401,0.2225041 0,0.128016 -0.09144,0.219456 -0.23774401,0.219456 z m 0,0.84429599 v -0.47244002 h 0.55778402 c 0.170688,0 0.26212801,0.10972801 0.26212801,0.23774401 0,0.14630401 -0.097536,0.23469601 -0.26212801,0.23469601 z" />
      </g>
    </g>
    <path
       id="rect124"
       d="M 3.4200001,81.120003 H 11.82 c 0.554,0 1,0.446 1,1 v 10.979999 c 0,0.554 -0.446,1 -1,1 H 3.4200001 c -0.554,0 -1,-0.446 -1,-1 V 82.120003 c 0,-0.554 0.446,-1 1,-1 z"
       style="fill:#000099;stroke:#000099;stroke-width:0.34999999" />
    <g
       id="g128"
       transform="translate(7.62,83.7)">
      <g
         id="text126"
         style="font-weight:bold;font-size:2.37100005px;font-family:'Proxima Nova';dominant-baseline:alphabetic;text-anchor:middle;fill:#f0f0ff"
         aria-label="MAX">
        <path
           id="path604"
           style="font-weight:bold;font-size:2.37100005px;font-family:'Proxima Nova';dominant-baseline:alphabetic;text-anchor:middle;fill:#f0f0ff"
           d="m -1.0847696,0 h 0.33905304 V -1.581457 H -1.2199166 l -0.384102,0.95551299 -0.384102,-0.95551299 h -0.471829 V 0 h 0.336682 V -1.107257 L -1.6775196,0 h 0.147002 l 0.445748,-1.107257 z" />
        <path
           id="path606"
           style="font-weight:bold;font-size:2.37100005px;font-family:'Proxima Nova';dominant-baseline:alphabetic;text-anchor:middle;fill:#f0f0ff"
           d="M 0.65902692,0 H 1.0431289 L 0.43378192,-1.581457 H 0.01174391 L -0.59997411,0 h 0.38410201 l 0.099582,-0.26792301 h 0.67810602 z m -0.43626401,-1.244775 0.24658401,0.68047699 h -0.49316801 z" />
        <path
           id="path608"
           style="font-weight:bold;font-size:2.37100005px;font-family:'Proxima Nova';dominant-baseline:alphabetic;text-anchor:middle;fill:#f0f0ff"
           d="m 2.2205529,0 h 0.40307 L 2.0498409,-0.81325302 2.5880579,-1.581457 h -0.405441 l -0.358021,0.540588 -0.362763,-0.540588 H 1.0611339 L 1.5993509,-0.81088202 1.0255689,0 h 0.400699 l 0.398328,-0.57852401 z" />
      </g>
    </g>
    <g
       id="g132"
       transform="translate(7.62,83.7)">
      <g
         id="text130"
         style="font-weight:bold;font-size:2.37100005px;font-family:'Proxima Nova';dominant-baseline:alphabetic;text-anchor:middle;fill:#f0f0ff"
         aria-label="MAX">
        <path
           id="path611"
           style="font-weight:bold;font-size:2.37100005px;font-family:'Proxima Nova';dominant-baseline:alphabetic;text-anchor:middle;fill:#f0f0ff"
           d="m -1.0847696,0 h 0.33905304 V -1.581457 H -1.2199166 l -0.384102,0.95551299 -0.384102,-0.95551299 h -0.471829 V 0 h 0.336682 V -1.107257 L -1.6775196,0 h 0.147002 l 0.445748,-1.107257 z" />
        <path
           id="path613"
           style="font-weight:bold;font-size:2.37100005px;font-family:'Proxima Nova';dominant-baseline:alphabetic;text-anchor:middle;fill:#f0f0ff"
           d="M 0.65902692,0 H 1.0431289 L 0.43378192,-1.581457 H 0.01174391 L -0.59997411,0 h 0.38410201 l 0.099582,-0.26792301 h 0.67810602 z m -0.43626401,-1.244775 0.24658401,0.68047699 h -0.49316801 z" />
        <path
           id="path615"
           style="font-weight:bold;font-size:2.37100005px;font-family:'Proxima Nova';dominant-baseline:alphabetic;text-anchor:middle;fill:#f0f0ff"
           d="m 2.2205529,0 h 0.40307 L 2.0498409,-0.81325302 2.5880579,-1.581457 h -0.405441 l -0.358021,0.540588 -0.362763,-0.540588 H 1.0611339 L 1.5993509,-0.81088202 1.0255689,0 h 0.400699 l 0.398328,-0.57852401 z" />
      </g>
    </g>
    <path
       id="rect134"
       d="m 12.31,81.120003 h 8.4 c 0.554,0 1,0.446 1,1 v 10.979999 c 0,0.554 -0.446,1 -1,1 h -8.4 c -0.554,0 -1,-0.446 -1,-1 V 82.120003 c 0,-0.554 0.446,-1 1,-1 z"
       style="fill:#000099;stroke:#000099;stroke-width:0.34999999" />
    <g
       id="g138"
       transform="translate(16.51,83.7)">
      <g
         id="text136"
         style="font-weight:bold;font-size:2.37100005px;font-family:'Proxima Nova';dominant-baseline:alphabetic;text-anchor:middle;fill:#f0f0ff"
         aria-label="¬MAX">
        <path
           id="path619"
           style="font-weight:bold;font-size:2.37100005px;font-family:'Proxima Nova';dominant-baseline:alphabetic;text-anchor:middle;fill:#f0f0ff"
           d="M -2.101484,-0.47657101 V -1.109628 h -1.0574661 v 0.18967998 h 0.8654151 v 0.44337701 z" />
        <path
           id="path621"
           style="font-weight:bold;font-size:2.37100005px;font-family:'Proxima Nova';dominant-baseline:alphabetic;text-anchor:middle;fill:#f0f0ff"
           d="m -0.47349609,0 h 0.33905301 V -1.581457 H -0.60864309 L -0.9927451,-0.62594401 -1.3768471,-1.581457 h -0.471829 V 0 h 0.336682 V -1.107257 L -1.0662461,0 h 0.147002 l 0.44574801,-1.107257 z" />
        <path
           id="path623"
           style="font-weight:bold;font-size:2.37100005px;font-family:'Proxima Nova';dominant-baseline:alphabetic;text-anchor:middle;fill:#f0f0ff"
           d="m 1.2703005,0 h 0.384102 L 1.0450555,-1.581457 H 0.62301751 L 0.0112995,0 h 0.38410201 l 0.099582,-0.26792301 H 1.1730895 Z M 0.83403652,-1.244775 1.0806205,-0.56429801 H 0.58745251 Z" />
        <path
           id="path625"
           style="font-weight:bold;font-size:2.37100005px;font-family:'Proxima Nova';dominant-baseline:alphabetic;text-anchor:middle;fill:#f0f0ff"
           d="m 2.831826,0 h 0.40307 L 2.661114,-0.81325302 3.199331,-1.581457 H 2.79389 L 2.435869,-1.040869 2.073106,-1.581457 H 1.672407 L 2.210624,-0.81088202 1.636842,0 h 0.400699 l 0.398328,-0.57852401 z" />
      </g>
    </g>
    <g
       id="g142"
       transform="translate(16.51,83.7)">
      <g
         id="text140"
         style="font-weight:bold;font-size:2.37100005px;font-family:'Proxima Nova';dominant-baseline:alphabetic;text-anchor:middle;fill:#f0f0ff"
         aria-label="¬MAX">
        <path
           id="path628"
           style="font-weight:bold;font-size:2.37100005px;font-family:'Proxima Nova';dominant-baseline:alphabetic;text-anchor:middle;fill:#f0f0ff"
           d="M -2.101484,-0.47657101 V -1.109628 h -1.0574661 v 0.18967998 h 0.8654151 v 0.44337701 z" />
        <path
           id="path630"
           style="font-weight:bold;font-size:2.37100005px;font-family:'Proxima Nova';dominant-baseline:alphabetic;text-anchor:middle;fill:#f0f0ff"
           d="m -0.47349609,0 h 0.33905301 V -1.581457 H -0.60864309 L -0.9927451,-0.62594401 -1.3768471,-1.581457 h -0.471829 V 0 h 0.336682 V -1.107257 L -1.0662461,0 h 0.147002 l 0.44574801,-1.107257 z" />
        <path
           id="path632"
           style="font-weight:bold;font-size:2.37100005px;font-family:'Proxima Nova';dominant-baseline:alphabetic;text-anchor:middle;fill:#f0f0ff"
           d="m 1.2703005,0 h 0.384102 L 1.0450555,-1.581457 H 0.62301751 L 0.0112995,0 h 0.38410201 l 0.099582,-0.26792301 H 1.1730895 Z M 0.83403652,-1.244775 1.0806205,-0.56429801 H 0.58745251 Z" />
        <path
           id="path634"
           style="font-weight:bold;font-size:2.37100005px;font-family:'Proxima Nova';dominant-baseline:alphabetic;text-anchor:middle;fill:#f0f0ff"
           d="m 2.831826,0 h 0.40307 L 2.661114,-0.81325302 3.199331,-1.581457 H 2.79389 L 2.435869,-1.040869 2.073106,-1.581457 H 1.672407 L 2.210624,-0.81088202 1.636842,0 h 0.400699 l 0.398328,-0.57852401 z" />
      </g>
    </g>
    <path
       id="rect144"
       d="m 25.01,81.120003 h 8.4 c 0.554,0 1,0.446 1,1 v 10.979999 c 0,0.554 -0.446,1 -1,1 h -8.4 c -0.554,0 -1,-0.446 -1,-1 V 82.120003 c 0,-0.554 0.446,-1 1,-1 z"
       style="fill:#000099;stroke:#000099;stroke-width:0.34999999" />
    <g
       id="g148"
       transform="translate(29.21,83.7)">
      <g
         id="text146"
         style="font-weight:bold;font-size:2.37100005px;font-family:'Proxima Nova';dominant-baseline:alphabetic;text-anchor:middle;fill:#f0f0ff"
         aria-label="MIN">
        <path
           id="path638"
           style="font-weight:bold;font-size:2.37100005px;font-family:'Proxima Nova';dominant-baseline:alphabetic;text-anchor:middle;fill:#f0f0ff"
           d="m -0.67030765,0 h 0.33905301 V -1.581457 H -0.80545465 L -1.1895567,-0.62594401 -1.5736587,-1.581457 h -0.471829 V 0 h 0.336682 V -1.107257 L -1.2630577,0 h 0.147002 l 0.44574805,-1.107257 z" />
        <path
           id="path640"
           style="font-weight:bold;font-size:2.37100005px;font-family:'Proxima Nova';dominant-baseline:alphabetic;text-anchor:middle;fill:#f0f0ff"
           d="M -0.01717118,0 H 0.31951083 V -1.581457 H -0.01717118 Z" />
        <path
           id="path642"
           style="font-weight:bold;font-size:2.37100005px;font-family:'Proxima Nova';dominant-baseline:alphabetic;text-anchor:middle;fill:#f0f0ff"
           d="M 1.721809,0 H 2.046636 V -1.581457 H 1.709954 v 0.99344899 L 0.97731503,-1.581457 H 0.63114902 V 0 h 0.33668201 v -1.031385 z" />
      </g>
    </g>
    <g
       id="g152"
       transform="translate(29.21,83.7)">
      <g
         id="text150"
         style="font-weight:bold;font-size:2.37100005px;font-family:'Proxima Nova';dominant-baseline:alphabetic;text-anchor:middle;fill:#f0f0ff"
         aria-label="MIN">
        <path
           id="path645"
           style="font-weight:bold;font-size:2.37100005px;font-family:'Proxima Nova';dominant-baseline:alphabetic;text-anchor:middle;fill:#f0f0ff"
           d="m -0.67030765,0 h 0.33905301 V -1.581457 H -0.80545465 L -1.1895567,-0.62594401 -1.5736587,-1.581457 h -0.471829 V 0 h 0.336682 V -1.107257 L -1.2630577,0 h 0.147002 l 0.44574805,-1.107257 z" />
        <path
           id="path647"
           style="font-weight:bold;font-size:2.37100005px;font-family:'Proxima Nova';dominant-baseline:alphabetic;text-anchor:middle;fill:#f0f0ff"
           d="M -0.01717118,0 H 0.31951083 V -1.581457 H -0.01717118 Z" />
        <path
           id="path649"
           style="font-weight:bold;font-size:2.37100005px;font-family:'Proxima Nova';dominant-baseline:alphabetic;text-anchor:middle;fill:#f0f0ff"
           d="M 1.721809,0 H 2.046636 V -1.581457 H 1.709954 v 0.99344899 L 0.97731503,-1.581457 H 0.63114902 V 0 h 0.33668201 v -1.031385 z" />
      </g>
    </g>
    <path
       id="rect154"
       d="m 33.900002,81.120003 h 8.399999 c 0.554,0 1,0.446 1,1 v 10.979999 c 0,0.554 -0.446,1 -1,1 h -8.399999 c -0.554,0 -1,-0.446 -1,-1 V 82.120003 c 0,-0.554 0.446,-1 1,-1 z"
       style="fill:#000099;stroke:#000099;stroke-width:0.34999999" />
    <g
       id="g158"
       transform="translate(38.1,83.7)">
      <g
         id="text156"
         style="font-weight:bold;font-size:2.37100005px;font-family:'Proxima Nova';dominant-baseline:alphabetic;text-anchor:middle;fill:#f0f0ff"
         aria-label="¬MIN">
        <path
           id="path653"
           style="font-weight:bold;font-size:2.37100005px;font-family:'Proxima Nova';dominant-baseline:alphabetic;text-anchor:middle;fill:#f0f0ff"
           d="M -1.6870221,-0.47657101 V -1.109628 h -1.057466 v 0.18967998 h 0.865415 v 0.44337701 z" />
        <path
           id="path655"
           style="font-weight:bold;font-size:2.37100005px;font-family:'Proxima Nova';dominant-baseline:alphabetic;text-anchor:middle;fill:#f0f0ff"
           d="m -0.05903416,0 h 0.339053 v -1.581457 h -0.47420001 l -0.384102,0.95551299 L -0.96238518,-1.581457 H -1.4342142 V 0 h 0.336682 V -1.107257 L -0.65178418,0 h 0.14700201 l 0.44574801,-1.107257 z" />
        <path
           id="path657"
           style="font-weight:bold;font-size:2.37100005px;font-family:'Proxima Nova';dominant-baseline:alphabetic;text-anchor:middle;fill:#f0f0ff"
           d="M 0.59410242,0 H 0.93078443 V -1.581457 H 0.59410242 Z" />
        <path
           id="path659"
           style="font-weight:bold;font-size:2.37100005px;font-family:'Proxima Nova';dominant-baseline:alphabetic;text-anchor:middle;fill:#f0f0ff"
           d="M 2.3330826,0 H 2.6579097 V -1.581457 H 2.3212276 v 0.99344899 L 1.5885886,-1.581457 H 1.2424226 V 0 h 0.336682 v -1.031385 z" />
      </g>
    </g>
    <g
       id="g162"
       transform="translate(38.1,83.7)">
      <g
         id="text160"
         style="font-weight:bold;font-size:2.37100005px;font-family:'Proxima Nova';dominant-baseline:alphabetic;text-anchor:middle;fill:#f0f0ff"
         aria-label="¬MIN">
        <path
           id="path662"
           style="font-weight:bold;font-size:2.37100005px;font-family:'Proxima Nova';dominant-baseline:alphabetic;text-anchor:middle;fill:#f0f0ff"
           d="M -1.6870221,-0.47657101 V -1.109628 h -1.057466 v 0.18967998 h 0.865415 v 0.44337701 z" />
        <path
           id="path664"
           style="font-weight:bold;font-size:2.37100005px;font-family:'Proxima Nova';dominant-baseline:alphabetic;text-anchor:middle;fill:#f0f0ff"
           d="m -0.05903416,0 h 0.339053 v -1.581457 h -0.47420001 l -0.384102,0.95551299 L -0.96238518,-1.581457 H -1.4342142 V 0 h 0.336682 V -1.107257 L -0.65178418,0 h 0.14700201 l 0.44574801,-1.107257 z" />
        <path
           id="path666"
           style="font-weight:bold;font-size:2.37100005px;font-family:'Proxima Nova';dominant-baseline:alphabetic;text-anchor:middle;fill:#f0f0ff"
           d="M 0.59410242,0 H 0.93078443 V -1.581457 H 0.59410242 Z" />
        <path
           id="path668"
           style="font-weight:bold;font-size:2.37100005px;font-family:'Proxima Nova';dominant-baseline:alphabetic;text-anchor:middle;fill:#f0f0ff"
           d="M 2.3330826,0 H 2.6579097 V -1.581457 H 2.3212276 v 0.99344899 L 1.5885886,-1.581457 H 1.2424226 V 0 h 0.336682 v -1.031385 z" />
      </g>
    </g>
    <path
       id="rect164"
       d="M 3.4200001,96.360001 H 11.82 c 0.554,0 1,0.446 1,1 V 108.34 c 0,0.554 -0.446,1 -1,1 H 3.4200001 c -0.554,0 -1,-0.446 -1,-1 V 97.360001 c 0,-0.554 0.446,-1 1,-1 z"
       style="fill:#000099;stroke:#000099;stroke-width:0.34999999" />
    <g
       id="g168"
       transform="translate(7.62,98.94)">
      <g
         id="text166"
         style="font-weight:bold;font-size:2.37100005px;font-family:'Proxima Nova';dominant-baseline:alphabetic;text-anchor:middle;fill:#f0f0ff"
         aria-label="AND">
        <path
           id="path672"
           style="font-weight:bold;font-size:2.37100005px;font-family:'Proxima Nova';dominant-baseline:alphabetic;text-anchor:middle;fill:#f0f0ff"
           d="m -1.2789878,0 h 0.38410199 L -1.5042328,-1.581457 h -0.422038 L -2.5379888,0 h 0.384102 l 0.099582,-0.26792301 h 0.678106 z m -0.436264,-1.244775 0.246584,0.68047699 h -0.493168 z" />
        <path
           id="path674"
           style="font-weight:bold;font-size:2.37100005px;font-family:'Proxima Nova';dominant-baseline:alphabetic;text-anchor:middle;fill:#f0f0ff"
           d="m 0.34181304,0 h 0.324827 v -1.581457 h -0.336682 v 0.99344899 L -0.40268098,-1.581457 H -0.74884699 V 0 h 0.33668201 v -1.031385 z" />
        <path
           id="path676"
           style="font-weight:bold;font-size:2.37100005px;font-family:'Proxima Nova';dominant-baseline:alphabetic;text-anchor:middle;fill:#f0f0ff"
           d="M 0.97846355,0 H 1.6020366 c 0.495539,0 0.839334,-0.31297201 0.839334,-0.78954302 0,-0.47657098 -0.343795,-0.79191398 -0.839334,-0.79191398 H 0.97846355 Z M 1.3151456,-0.29637501 V -1.285082 h 0.286891 c 0.324827,0 0.495539,0.215761 0.495539,0.49553898 0,0.26792301 -0.182567,0.49316801 -0.495539,0.49316801 z" />
      </g>
    </g>
    <g
       id="g172"
       transform="translate(7.62,98.94)">
      <g
         id="text170"
         style="font-weight:bold;font-size:2.37100005px;font-family:'Proxima Nova';dominant-baseline:alphabetic;text-anchor:middle;fill:#f0f0ff"
         aria-label="AND">
        <path
           id="path679"
           style="font-weight:bold;font-size:2.37100005px;font-family:'Proxima Nova';dominant-baseline:alphabetic;text-anchor:middle;fill:#f0f0ff"
           d="m -1.2789878,0 h 0.38410199 L -1.5042328,-1.581457 h -0.422038 L -2.5379888,0 h 0.384102 l 0.099582,-0.26792301 h 0.678106 z m -0.436264,-1.244775 0.246584,0.68047699 h -0.493168 z" />
        <path
           id="path681"
           style="font-weight:bold;font-size:2.37100005px;font-family:'Proxima Nova';dominant-baseline:alphabetic;text-anchor:middle;fill:#f0f0ff"
           d="m 0.34181304,0 h 0.324827 v -1.581457 h -0.336682 v 0.99344899 L -0.40268098,-1.581457 H -0.74884699 V 0 h 0.33668201 v -1.031385 z" />
        <path
           id="path683"
           style="font-weight:bold;font-size:2.37100005px;font-family:'Proxima Nova';dominant-baseline:alphabetic;text-anchor:middle;fill:#f0f0ff"
           d="M 0.97846355,0 H 1.6020366 c 0.495539,0 0.839334,-0.31297201 0.839334,-0.78954302 0,-0.47657098 -0.343795,-0.79191398 -0.839334,-0.79191398 H 0.97846355 Z M 1.3151456,-0.29637501 V -1.285082 h 0.286891 c 0.324827,0 0.495539,0.215761 0.495539,0.49553898 0,0.26792301 -0.182567,0.49316801 -0.495539,0.49316801 z" />
      </g>
    </g>
    <path
       id="rect174"
       d="m 12.31,96.360001 h 8.4 c 0.554,0 1,0.446 1,1 V 108.34 c 0,0.554 -0.446,1 -1,1 h -8.4 c -0.554,0 -1,-0.446 -1,-1 V 97.360001 c 0,-0.554 0.446,-1 1,-1 z"
       style="fill:#000099;stroke:#000099;stroke-width:0.34999999" />
    <g
       id="g178"
       transform="translate(16.51,98.94)">
      <g
         id="text176"
         style="font-weight:bold;font-size:2.37100005px;font-family:'Proxima Nova';dominant-baseline:alphabetic;text-anchor:middle;fill:#f0f0ff"
         aria-label="¬AND">
        <path
           id="path687"
           style="font-weight:bold;font-size:2.37100005px;font-family:'Proxima Nova';dominant-baseline:alphabetic;text-anchor:middle;fill:#f0f0ff"
           d="M -2.0111823,-0.47657101 V -1.109628 h -1.057466 v 0.18967998 h 0.865415 v 0.44337701 z" />
        <path
           id="path689"
           style="font-weight:bold;font-size:2.37100005px;font-family:'Proxima Nova';dominant-baseline:alphabetic;text-anchor:middle;fill:#f0f0ff"
           d="m -0.66771433,0 h 0.38410201 L -0.89295934,-1.581457 H -1.3149973 L -1.9267154,0 h 0.384102 l 0.099582,-0.26792301 h 0.67810597 z m -0.43626397,-1.244775 0.24658396,0.68047699 H -1.3505623 Z" />
        <path
           id="path691"
           style="font-weight:bold;font-size:2.37100005px;font-family:'Proxima Nova';dominant-baseline:alphabetic;text-anchor:middle;fill:#f0f0ff"
           d="M 0.95308652,0 H 1.2779135 V -1.581457 H 0.94123152 v 0.99344899 L 0.2085925,-1.581457 h -0.346166 V 0 h 0.336682 v -1.031385 z" />
        <path
           id="path693"
           style="font-weight:bold;font-size:2.37100005px;font-family:'Proxima Nova';dominant-baseline:alphabetic;text-anchor:middle;fill:#f0f0ff"
           d="m 1.5897369,0 h 0.623573 c 0.495539,0 0.839334,-0.31297201 0.839334,-0.78954302 0,-0.47657098 -0.343795,-0.79191398 -0.839334,-0.79191398 h -0.623573 z m 0.336682,-0.29637501 V -1.285082 h 0.286891 c 0.324827,0 0.495539,0.215761 0.495539,0.49553898 0,0.26792301 -0.182567,0.49316801 -0.495539,0.49316801 z" />
      </g>
    </g>
    <g
       id="g182"
       transform="translate(16.51,98.94)">
      <g
         id="text180"
         style="font-weight:bold;font-size:2.37100005px;font-family:'Proxima Nova';dominant-baseline:alphabetic;text-anchor:middle;fill:#f0f0ff"
         aria-label="¬AND">
        <path
           id="path696"
           style="font-weight:bold;font-size:2.37100005px;font-family:'Proxima Nova';dominant-baseline:alphabetic;text-anchor:middle;fill:#f0f0ff"
           d="M -2.0111823,-0.47657101 V -1.109628 h -1.057466 v 0.18967998 h 0.865415 v 0.44337701 z" />
        <path
           id="path698"
           style="font-weight:bold;font-size:2.37100005px;font-family:'Proxima Nova';dominant-baseline:alphabetic;text-anchor:middle;fill:#f0f0ff"
           d="m -0.66771433,0 h 0.38410201 L -0.89295934,-1.581457 H -1.3149973 L -1.9267154,0 h 0.384102 l 0.099582,-0.26792301 h 0.67810597 z m -0.43626397,-1.244775 0.24658396,0.68047699 H -1.3505623 Z" />
        <path
           id="path700"
           style="font-weight:bold;font-size:2.37100005px;font-family:'Proxima Nova';dominant-baseline:alphabetic;text-anchor:middle;fill:#f0f0ff"
           d="M 0.95308652,0 H 1.2779135 V -1.581457 H 0.94123152 v 0.99344899 L 0.2085925,-1.581457 h -0.346166 V 0 h 0.336682 v -1.031385 z" />
        <path
           id="path702"
           style="font-weight:bold;font-size:2.37100005px;font-family:'Proxima Nova';dominant-baseline:alphabetic;text-anchor:middle;fill:#f0f0ff"
           d="m 1.5897369,0 h 0.623573 c 0.495539,0 0.839334,-0.31297201 0.839334,-0.78954302 0,-0.47657098 -0.343795,-0.79191398 -0.839334,-0.79191398 h -0.623573 z m 0.336682,-0.29637501 V -1.285082 h 0.286891 c 0.324827,0 0.495539,0.215761 0.495539,0.49553898 0,0.26792301 -0.182567,0.49316801 -0.495539,0.49316801 z" />
      </g>
    </g>
    <path
       id="rect184"
       d="m 25.01,96.360001 h 8.4 c 0.554,0 1,0.446 1,1 V 108.34 c 0,0.554 -0.446,1 -1,1 h -8.4 c -0.554,0 -1,-0.446 -1,-1 V 97.360001 c 0,-0.554 0.446,-1 1,-1 z"
       style="fill:#000099;stroke:#000099;stroke-width:0.34999999" />
    <g
       id="g188"
       transform="translate(29.21,98.94)">
      <g
         id="text186"
         style="font-weight:bold;font-size:2.37100005px;font-family:'Proxima Nova';dominant-baseline:alphabetic;text-anchor:middle;fill:#f0f0ff"
         aria-label="OR">
        <path
           id="path706"
           style="font-weight:bold;font-size:2.37100005px;font-family:'Proxima Nova';dominant-baseline:alphabetic;text-anchor:middle;fill:#f0f0ff"
           d="m -1.5888108,-0.78954302 c 0,0.47657101 0.348537,0.81799502 0.82510798,0.81799502 0.47894201,0 0.82747902,-0.34142401 0.82747902,-0.81799502 0,-0.47657098 -0.34853701,-0.81799498 -0.82747902,-0.81799498 -0.47657098,0 -0.82510798,0.341424 -0.82510798,0.81799498 z m 1.30642099,0 c 0,0.29400401 -0.18968,0.51924901 -0.48131301,0.51924901 -0.29163298,0 -0.47894198,-0.225245 -0.47894198,-0.51924901 0,-0.29637498 0.187309,-0.51924898 0.47894198,-0.51924898 0.29163301,0 0.48131301,0.222874 0.48131301,0.51924898 z" />
        <path
           id="path708"
           style="font-weight:bold;font-size:2.37100005px;font-family:'Proxima Nova';dominant-baseline:alphabetic;text-anchor:middle;fill:#f0f0ff"
           d="m 1.1962251,0 h 0.386473 l -0.35565,-0.60223401 c 0.170712,-0.040307 0.346166,-0.18968001 0.346166,-0.46945799 0,-0.294004 -0.201535,-0.509765 -0.531104,-0.509765 H 0.30235805 V 0 h 0.33668201 v -0.56192701 h 0.246584 z m 0.033194,-1.071692 c 0,0.13277598 -0.101953,0.21338998 -0.23710003,0.21338998 H 0.63904006 V -1.285082 h 0.35327901 c 0.13514703,0 0.23710003,0.080614 0.23710003,0.21339 z" />
      </g>
    </g>
    <g
       id="g192"
       transform="translate(29.21,98.94)">
      <g
         id="text190"
         style="font-weight:bold;font-size:2.37100005px;font-family:'Proxima Nova';dominant-baseline:alphabetic;text-anchor:middle;fill:#f0f0ff"
         aria-label="OR">
        <path
           id="path711"
           style="font-weight:bold;font-size:2.37100005px;font-family:'Proxima Nova';dominant-baseline:alphabetic;text-anchor:middle;fill:#f0f0ff"
           d="m -1.5888108,-0.78954302 c 0,0.47657101 0.348537,0.81799502 0.82510798,0.81799502 0.47894201,0 0.82747902,-0.34142401 0.82747902,-0.81799502 0,-0.47657098 -0.34853701,-0.81799498 -0.82747902,-0.81799498 -0.47657098,0 -0.82510798,0.341424 -0.82510798,0.81799498 z m 1.30642099,0 c 0,0.29400401 -0.18968,0.51924901 -0.48131301,0.51924901 -0.29163298,0 -0.47894198,-0.225245 -0.47894198,-0.51924901 0,-0.29637498 0.187309,-0.51924898 0.47894198,-0.51924898 0.29163301,0 0.48131301,0.222874 0.48131301,0.51924898 z" />
        <path
           id="path713"
           style="font-weight:bold;font-size:2.37100005px;font-family:'Proxima Nova';dominant-baseline:alphabetic;text-anchor:middle;fill:#f0f0ff"
           d="m 1.1962251,0 h 0.386473 l -0.35565,-0.60223401 c 0.170712,-0.040307 0.346166,-0.18968001 0.346166,-0.46945799 0,-0.294004 -0.201535,-0.509765 -0.531104,-0.509765 H 0.30235805 V 0 h 0.33668201 v -0.56192701 h 0.246584 z m 0.033194,-1.071692 c 0,0.13277598 -0.101953,0.21338998 -0.23710003,0.21338998 H 0.63904006 V -1.285082 h 0.35327901 c 0.13514703,0 0.23710003,0.080614 0.23710003,0.21339 z" />
      </g>
    </g>
    <path
       id="rect194"
       d="m 33.900002,96.360001 h 8.399999 c 0.554,0 1,0.446 1,1 V 108.34 c 0,0.554 -0.446,1 -1,1 h -8.399999 c -0.554,0 -1,-0.446 -1,-1 V 97.360001 c 0,-0.554 0.446,-1 1,-1 z"
       style="fill:#000099;stroke:#000099;stroke-width:0.34999999" />
    <g
       id="g198"
       transform="translate(38.1,98.94)">
      <g
         id="text196"
         style="font-weight:bold;font-size:2.37100005px;font-family:'Proxima Nova';dominant-baseline:alphabetic;text-anchor:middle;fill:#f0f0ff"
         aria-label="¬OR">
        <path
           id="path717"
           style="font-weight:bold;font-size:2.37100005px;font-family:'Proxima Nova';dominant-baseline:alphabetic;text-anchor:middle;fill:#f0f0ff"
           d="M -1.1544733,-0.47657101 V -1.109628 h -1.057466 v 0.18967998 h 0.865415 v 0.44337701 z" />
        <path
           id="path719"
           style="font-weight:bold;font-size:2.37100005px;font-family:'Proxima Nova';dominant-baseline:alphabetic;text-anchor:middle;fill:#f0f0ff"
           d="m -0.97753735,-0.78954302 c 0,0.47657101 0.348537,0.81799502 0.82510801,0.81799502 0.47894201,0 0.82747902,-0.34142401 0.82747902,-0.81799502 0,-0.47657098 -0.34853701,-0.81799498 -0.82747902,-0.81799498 -0.47657101,0 -0.82510801,0.341424 -0.82510801,0.81799498 z m 1.30642102,0 c 0,0.29400401 -0.18968,0.51924901 -0.48131301,0.51924901 -0.291633,0 -0.47894201,-0.225245 -0.47894201,-0.51924901 0,-0.29637498 0.18730901,-0.51924898 0.47894201,-0.51924898 0.29163301,0 0.48131301,0.222874 0.48131301,0.51924898 z" />
        <path
           id="path721"
           style="font-weight:bold;font-size:2.37100005px;font-family:'Proxima Nova';dominant-baseline:alphabetic;text-anchor:middle;fill:#f0f0ff"
           d="m 1.8074984,0 h 0.386473 l -0.35565,-0.60223401 c 0.170712,-0.040307 0.346166,-0.18968001 0.346166,-0.46945799 0,-0.294004 -0.201535,-0.509765 -0.531104,-0.509765 H 0.91363142 V 0 H 1.2503134 v -0.56192701 h 0.246584 z m 0.033194,-1.071692 c 0,0.13277598 -0.101953,0.21338998 -0.2371,0.21338998 H 1.2503134 V -1.285082 h 0.353279 c 0.135147,0 0.2371,0.080614 0.2371,0.21339 z" />
      </g>
    </g>
    <g
       id="g202"
       transform="translate(38.1,98.94)">
      <g
         id="text200"
         style="font-weight:bold;font-size:2.37100005px;font-family:'Proxima Nova';dominant-baseline:alphabetic;text-anchor:middle;fill:#f0f0ff"
         aria-label="¬OR">
        <path
           id="path724"
           style="font-weight:bold;font-size:2.37100005px;font-family:'Proxima Nova';dominant-baseline:alphabetic;text-anchor:middle;fill:#f0f0ff"
           d="M -1.1544733,-0.47657101 V -1.109628 h -1.057466 v 0.18967998 h 0.865415 v 0.44337701 z" />
        <path
           id="path726"
           style="font-weight:bold;font-size:2.37100005px;font-family:'Proxima Nova';dominant-baseline:alphabetic;text-anchor:middle;fill:#f0f0ff"
           d="m -0.97753735,-0.78954302 c 0,0.47657101 0.348537,0.81799502 0.82510801,0.81799502 0.47894201,0 0.82747902,-0.34142401 0.82747902,-0.81799502 0,-0.47657098 -0.34853701,-0.81799498 -0.82747902,-0.81799498 -0.47657101,0 -0.82510801,0.341424 -0.82510801,0.81799498 z m 1.30642102,0 c 0,0.29400401 -0.18968,0.51924901 -0.48131301,0.51924901 -0.291633,0 -0.47894201,-0.225245 -0.47894201,-0.51924901 0,-0.29637498 0.18730901,-0.51924898 0.47894201,-0.51924898 0.29163301,0 0.48131301,0.222874 0.48131301,0.51924898 z" />
        <path
           id="path728"
           style="font-weight:bold;font-size:2.37100005px;font-family:'Proxima Nova';dominant-baseline:alphabetic;text-anchor:middle;fill:#f0f0ff"
           d="m 1.8074984,0 h 0.386473 l -0.35565,-0.60223401 c 0.170712,-0.040307 0.346166,-0.18968001 0.346166,-0.46945799 0,-0.294004 -0.201535,-0.509765 -0.531104,-0.509765 H 0.91363142 V 0 H 1.2503134 v -0.56192701 h 0.246584 z m 0.033194,-1.071692 c 0,0.13277598 -0.101953,0.21338998 -0.2371,0.21338998 H 1.2503134 V -1.285082 h 0.353279 c 0.135147,0 0.2371,0.080614 0.2371,0.21339 z" />
      </g>
    </g>
    <g
       id="g212"
       transform="translate(7.62,22.86)">
      <g
         style="fill:#f0f0ff;stroke:#000099;stroke-width:0.20999999"
         id="g210">
        <path
           id="circle204"
           d="M 4.0949998,0 A 4.0949998,4.0949998 0 0 1 0,4.0949998 4.0949998,4.0949998 0 0 1 -4.0949998,0 4.0949998,4.0949998 0 0 1 0,-4.0949998 4.0949998,4.0949998 0 0 1 4.0949998,0 Z"
           style="" />
        <path
           id="circle206"
           d="M 2.925,0 A 2.925,2.925 0 0 1 0,2.925 2.925,2.925 0 0 1 -2.925,0 2.925,2.925 0 0 1 0,-2.925 2.925,2.925 0 0 1 2.925,0 Z"
           style="" />
        <path
           id="circle208"
           d="M 1.755,0 A 1.755,1.755 0 0 1 0,1.755 1.755,1.755 0 0 1 -1.755,0 1.755,1.755 0 0 1 0,-1.755 1.755,1.755 0 0 1 1.755,0 Z"
           style="fill:#000099" />
      </g>
    </g>
    <g
       id="g216"
       transform="translate(16.51,22.86)">
      <path
         id="circle214"
         d="M 2.5,0 A 2.5,2.5 0 0 1 0,2.5 2.5,2.5 0 0 1 -2.5,0 2.5,2.5 0 0 1 0,-2.5 2.5,2.5 0 0 1 2.5,0 Z"
         style="fill:#000099;stroke:#000099;stroke-width:1" />
    </g>
    <g
       id="g220"
       transform="translate(29.21,22.86)">
      <path
         id="circle218"
         d="M 2.5,0 A 2.5,2.5 0 0 1 0,2.5 2.5,2.5 0 0 1 -2.5,0 2.5,2.5 0 0 1 0,-2.5 2.5,2.5 0 0 1 2.5,0 Z"
         style="fill:#000099;stroke:#000099;stroke-width:1" />
    </g>
    <g
       id="g230"
       transform="translate(38.1,22.86)">
      <g
         style="fill:#f0f0ff;stroke:#000099;stroke-width:0.20999999"
         id="g228">
        <path
           id="circle222"
           d="M 4.0949998,0 A 4.0949998,4.0949998 0 0 1 0,4.0949998 4.0949998,4.0949998 0 0 1 -4.0949998,0 4.0949998,4.0949998 0 0 1 0,-4.0949998 4.0949998,4.0949998 0 0 1 4.0949998,0 Z"
           style="" />
        <path
           id="circle224"
           d="M 2.925,0 A 2.925,2.925 0 0 1 0,2.925 2.925,2.925 0 0 1 -2.925,0 2.925,2.925 0 0 1 0,-2.925 2.925,2.925 0 0 1 2.925,0 Z"
           style="" />
        <path
           id="circle226"
           d="M 1.755,0 A 1.755,1.755 0 0 1 0,1.755 1.755,1.755 0 0 1 -1.755,0 1.755,1.755 0 0 1 0,-1.755 1.755,1.755 0 0 1 1.755,0 Z"
           style="fill:#000099" />
      </g>
    </g>
    <g
       id="g240"
       transform="translate(7.62,38.1)">
      <g
         style="fill:#f0f0ff;stroke:#000099;stroke-width:0.20999999"
         id="g238">
        <path
           id="circle232"
           d="M 4.0949998,0 A 4.0949998,4.0949998 0 0 1 0,4.0949998 4.0949998,4.0949998 0 0 1 -4.0949998,0 4.0949998,4.0949998 0 0 1 0,-4.0949998 4.0949998,4.0949998 0 0 1 4.0949998,0 Z"
           style="" />
        <path
           id="circle234"
           d="M 2.925,0 A 2.925,2.925 0 0 1 0,2.925 2.925,2.925 0 0 1 -2.925,0 2.925,2.925 0 0 1 0,-2.925 2.925,2.925 0 0 1 2.925,0 Z"
           style="" />
        <path
           id="circle236"
           d="M 1.755,0 A 1.755,1.755 0 0 1 0,1.755 1.755,1.755 0 0 1 -1.755,0 1.755,1.755 0 0 1 0,-1.755 1.755,1.755 0 0 1 1.755,0 Z"
           style="fill:#000099" />
      </g>
    </g>
    <g
       id="g250"
       transform="translate(16.51,38.1)">
      <g
         style="fill:#f0f0ff;stroke:#000099;stroke-width:0.20999999"
         id="g248">
        <path
           id="circle242"
           d="M 4.0949998,0 A 4.0949998,4.0949998 0 0 1 0,4.0949998 4.0949998,4.0949998 0 0 1 -4.0949998,0 4.0949998,4.0949998 0 0 1 0,-4.0949998 4.0949998,4.0949998 0 0 1 4.0949998,0 Z"
           style="" />
        <path
           id="circle244"
           d="M 2.925,0 A 2.925,2.925 0 0 1 0,2.925 2.925,2.925 0 0 1 -2.925,0 2.925,2.925 0 0 1 0,-2.925 2.925,2.925 0 0 1 2.925,0 Z"
           style="" />
        <path
           id="circle246"
           d="M 1.755,0 A 1.755,1.755 0 0 1 0,1.755 1.755,1.755 0 0 1 -1.755,0 1.755,1.755 0 0 1 0,-1.755 1.755,1.755 0 0 1 1.755,0 Z"
           style="fill:#000099" />
      </g>
    </g>
    <g
       id="g260"
       transform="translate(29.21,38.1)">
      <g
         style="fill:#f0f0ff;stroke:#000099;stroke-width:0.20999999"
         id="g258">
        <path
           id="circle252"
           d="M 4.0949998,0 A 4.0949998,4.0949998 0 0 1 0,4.0949998 4.0949998,4.0949998 0 0 1 -4.0949998,0 4.0949998,4.0949998 0 0 1 0,-4.0949998 4.0949998,4.0949998 0 0 1 4.0949998,0 Z"
           style="" />
        <path
           id="circle254"
           d="M 2.925,0 A 2.925,2.925 0 0 1 0,2.925 2.925,2.925 0 0 1 -2.925,0 2.925,2.925 0 0 1 0,-2.925 2.925,2.925 0 0 1 2.925,0 Z"
           style="" />
        <path
           id="circle256"
           d="M 1.755,0 A 1.755,1.755 0 0 1 0,1.755 1.755,1.755 0 0 1 -1.755,0 1.755,1.755 0 0 1 0,-1.755 1.755,1.755 0 0 1 1.755,0 Z"
           style="fill:#000099" />
      </g>
    </g>
    <g
       id="g270"
       transform="translate(38.1,38.1)">
      <g
         style="fill:#f0f0ff;stroke:#000099;stroke-width:0.20999999"
         id="g268">
        <path
           id="circle262"
           d="M 4.0949998,0 A 4.0949998,4.0949998 0 0 1 0,4.0949998 4.0949998,4.0949998 0 0 1 -4.0949998,0 4.0949998,4.0949998 0 0 1 0,-4.0949998 4.0949998,4.0949998 0 0 1 4.0949998,0 Z"
           style="" />
        <path
           id="circle264"
           d="M 2.925,0 A 2.925,2.925 0 0 1 0,2.925 2.925,2.925 0 0 1 -2.925,0 2.925,2.925 0 0 1 0,-2.925 2.925,2.925 0 0 1 2.925,0 Z"
           style="" />
        <path
           id="circle266"
           d="M 1.755,0 A 1.755,1.755 0 0 1 0,1.755 1.755,1.755 0 0 1 -1.755,0 1.755,1.755 0 0 1 0,-1.755 1.755,1.755 0 0 1 1.755,0 Z"
           style="fill:#000099" />
      </g>
    </g>
    <g
       id="g280"
       transform="translate(7.62,53.34)">
      <g
         style="fill:#f0f0ff;stroke:#000099;stroke-width:0.20999999"
         id="g278">
        <path
           id="circle272"
           d="M 4.0949998,0 A 4.0949998,4.0949998 0 0 1 0,4.0949998 4.0949998,4.0949998 0 0 1 -4.0949998,0 4.0949998,4.0949998 0 0 1 0,-4.0949998 4.0949998,4.0949998 0 0 1 4.0949998,0 Z"
           style="" />
        <path
           id="circle274"
           d="M 2.925,0 A 2.925,2.925 0 0 1 0,2.925 2.925,2.925 0 0 1 -2.925,0 2.925,2.925 0 0 1 0,-2.925 2.925,2.925 0 0 1 2.925,0 Z"
           style="" />
        <path
           id="circle276"
           d="M 1.755,0 A 1.755,1.755 0 0 1 0,1.755 1.755,1.755 0 0 1 -1.755,0 1.755,1.755 0 0 1 0,-1.755 1.755,1.755 0 0 1 1.755,0 Z"
           style="fill:#000099" />
      </g>
    </g>
    <g
       id="g290"
       transform="translate(16.51,53.34)">
      <g
         style="fill:#f0f0ff;stroke:#000099;stroke-width:0.20999999"
         id="g288">
        <path
           id="circle282"
           d="M 4.0949998,0 A 4.0949998,4.0949998 0 0 1 0,4.0949998 4.0949998,4.0949998 0 0 1 -4.0949998,0 4.0949998,4.0949998 0 0 1 0,-4.0949998 4.0949998,4.0949998 0 0 1 4.0949998,0 Z"
           style="" />
        <path
           id="circle284"
           d="M 2.925,0 A 2.925,2.925 0 0 1 0,2.925 2.925,2.925 0 0 1 -2.925,0 2.925,2.925 0 0 1 0,-2.925 2.925,2.925 0 0 1 2.925,0 Z"
           style="" />
        <path
           id="circle286"
           d="M 1.755,0 A 1.755,1.755 0 0 1 0,1.755 1.755,1.755 0 0 1 -1.755,0 1.755,1.755 0 0 1 0,-1.755 1.755,1.755 0 0 1 1.755,0 Z"
           style="fill:#000099" />
      </g>
    </g>
    <g
       id="g300"
       transform="translate(29.21,53.34)">
      <g
         style="fill:#f0f0ff;stroke:#000099;stroke-width:0.20999999"
         id="g298">
        <path
           id="circle292"
           d="M 4.0949998,0 A 4.0949998,4.0949998 0 0 1 0,4.0949998 4.0949998,4.0949998 0 0 1 -4.0949998,0 4.0949998,4.0949998 0 0 1 0,-4.0949998 4.0949998,4.0949998 0 0 1 4.0949998,0 Z"
           style="" />
        <path
           id="circle294"
           d="M 2.925,0 A 2.925,2.925 0 0 1 0,2.925 2.925,2.925 0 0 1 -2.925,0 2.925,2.925 0 0 1 0,-2.925 2.925,2.925 0 0 1 2.925,0 Z"
           style="" />
        <path
           id="circle296"
           d="M 1.755,0 A 1.755,1.755 0 0 1 0,1.755 1.755,1.755 0 0 1 -1.755,0 1.755,1.755 0 0 1 0,-1.755 1.755,1.755 0 0 1 1.755,0 Z"
           style="fill:#000099" />
      </g>
    </g>
    <g
       id="g310"
       transform="translate(38.1,53.34)">
      <g
         style="fill:#f0f0ff;stroke:#000099;stroke-width:0.20999999"
         id="g308">
        <path
           id="circle302"
           d="M 4.0949998,0 A 4.0949998,4.0949998 0 0 1 0,4.0949998 4.0949998,4.0949998 0 0 1 -4.0949998,0 4.0949998,4.0949998 0 0 1 0,-4.0949998 4.0949998,4.0949998 0 0 1 4.0949998,0 Z"
           style="" />
        <path
           id="circle304"
           d="M 2.925,0 A 2.925,2.925 0 0 1 0,2.925 2.925,2.925 0 0 1 -2.925,0 2.925,2.925 0 0 1 0,-2.925 2.925,2.925 0 0 1 2.925,0 Z"
           style="" />
        <path
           id="circle306"
           d="M 1.755,0 A 1.755,1.755 0 0 1 0,1.755 1.755,1.755 0 0 1 -1.755,0 1.755,1.755 0 0 1 0,-1.755 1.755,1.755 0 0 1 1.755,0 Z"
           style="fill:#000099" />
      </g>
    </g>
    <g
       id="g320"
       transform="translate(7.62,73.66)">
      <g
         style="fill:#f0f0ff;stroke:#000099;stroke-width:0.20999999"
         id="g318">
        <path
           id="circle312"
           d="M 4.0949998,0 A 4.0949998,4.0949998 0 0 1 0,4.0949998 4.0949998,4.0949998 0 0 1 -4.0949998,0 4.0949998,4.0949998 0 0 1 0,-4.0949998 4.0949998,4.0949998 0 0 1 4.0949998,0 Z"
           style="" />
        <path
           id="circle314"
           d="M 2.925,0 A 2.925,2.925 0 0 1 0,2.925 2.925,2.925 0 0 1 -2.925,0 2.925,2.925 0 0 1 0,-2.925 2.925,2.925 0 0 1 2.925,0 Z"
           style="" />
        <path
           id="circle316"
           d="M 1.755,0 A 1.755,1.755 0 0 1 0,1.755 1.755,1.755 0 0 1 -1.755,0 1.755,1.755 0 0 1 0,-1.755 1.755,1.755 0 0 1 1.755,0 Z"
           style="fill:#000099" />
      </g>
    </g>
    <g
       id="g324"
       transform="translate(16.51,73.66)">
      <path
         id="circle322"
         d="M 2.5,0 A 2.5,2.5 0 0 1 0,2.5 2.5,2.5 0 0 1 -2.5,0 2.5,2.5 0 0 1 0,-2.5 2.5,2.5 0 0 1 2.5,0 Z"
         style="fill:#000099;stroke:#000099;stroke-width:1" />
    </g>
    <g
       id="g328"
       transform="translate(29.21,73.66)">
      <path
         id="circle326"
         d="M 2.5,0 A 2.5,2.5 0 0 1 0,2.5 2.5,2.5 0 0 1 -2.5,0 2.5,2.5 0 0 1 0,-2.5 2.5,2.5 0 0 1 2.5,0 Z"
         style="fill:#000099;stroke:#000099;stroke-width:1" />
    </g>
    <g
       id="g338"
       transform="translate(38.1,73.66)">
      <g
         style="fill:#f0f0ff;stroke:#000099;stroke-width:0.20999999"
         id="g336">
        <path
           id="circle330"
           d="M 4.0949998,0 A 4.0949998,4.0949998 0 0 1 0,4.0949998 4.0949998,4.0949998 0 0 1 -4.0949998,0 4.0949998,4.0949998 0 0 1 0,-4.0949998 4.0949998,4.0949998 0 0 1 4.0949998,0 Z"
           style="" />
        <path
           id="circle332"
           d="M 2.925,0 A 2.925,2.925 0 0 1 0,2.925 2.925,2.925 0 0 1 -2.925,0 2.925,2.925 0 0 1 0,-2.925 2.925,2.925 0 0 1 2.925,0 Z"
           style="" />
        <path
           id="circle334"
           d="M 1.755,0 A 1.755,1.755 0 0 1 0,1.755 1.755,1.755 0 0 1 -1.755,0 1.755,1.755 0 0 1 0,-1.755 1.755,1.755 0 0 1 1.755,0 Z"
           style="fill:#000099" />
      </g>
    </g>
    <g
       id="g348"
       transform="translate(7.62,88.9)">
      <g
         style="fill:#f0f0ff;stroke:#000099;stroke-width:0.20999999"
         id="g346">
        <path
           id="circle340"
           d="M 4.0949998,0 A 4.0949998,4.0949998 0 0 1 0,4.0949998 4.0949998,4.0949998 0 0 1 -4.0949998,0 4.0949998,4.0949998 0 0 1 0,-4.0949998 4.0949998,4.0949998 0 0 1 4.0949998,0 Z"
           style="" />
        <path
           id="circle342"
           d="M 2.925,0 A 2.925,2.925 0 0 1 0,2.925 2.925,2.925 0 0 1 -2.925,0 2.925,2.925 0 0 1 0,-2.925 2.925,2.925 0 0 1 2.925,0 Z"
           style="" />
        <path
           id="circle344"
           d="M 1.755,0 A 1.755,1.755 0 0 1 0,1.755 1.755,1.755 0 0 1 -1.755,0 1.755,1.755 0 0 1 0,-1.755 1.755,1.755 0 0 1 1.755,0 Z"
           style="fill:#000099" />
      </g>
    </g>
    <g
       id="g358"
       transform="translate(16.51,88.9)">
      <g
         style="fill:#f0f0ff;stroke:#000099;stroke-width:0.20999999"
         id="g356">
        <path
           id="circle350"
           d="M 4.0949998,0 A 4.0949998,4.0949998 0 0 1 0,4.0949998 4.0949998,4.0949998 0 0 1 -4.0949998,0 4.0949998,4.0949998 0 0 1 0,-4.0949998 4.0949998,4.0949998 0 0 1 4.0949998,0 Z"
           style="" />
        <path
           id="circle352"
           d="M 2.925,0 A 2.925,2.925 0 0 1 0,2.925 2.925,2.925 0 0 1 -2.925,0 2.925,2.925 0 0 1 0,-2.925 2.925,2.925 0 0 1 2.925,0 Z"
           style="" />
        <path
           id="circle354"
           d="M 1.755,0 A 1.755,1.755 0 0 1 0,1.755 1.755,1.755 0 0 1 -1.755,0 1.755,1.755 0 0 1 0,-1.755 1.755,1.755 0 0 1 1.755,0 Z"
           style="fill:#000099" />
      </g>
    </g>
    <g
       id="g368"
       transform="translate(29.21,88.9)">
      <g
         style="fill:#f0f0ff;stroke:#000099;stroke-width:0.20999999"
         id="g366">
        <path
           id="circle360"
           d="M 4.0949998,0 A 4.0949998,4.0949998 0 0 1 0,4.0949998 4.0949998,4.0949998 0 0 1 -4.0949998,0 4.0949998,4.0949998 0 0 1 0,-4.0949998 4.0949998,4.0949998 0 0 1 4.0949998,0 Z"
           style="" />
        <path
           id="circle362"
           d="M 2.925,0 A 2.925,2.925 0 0 1 0,2.925 2.925,2.925 0 0 1 -2.925,0 2.925,2.925 0 0 1 0,-2.925 2.925,2.925 0 0 1 2.925,0 Z"
           style="" />
        <path
           id="circle364"
           d="M 1.755,0 A 1.755,1.755 0 0 1 0,1.755 1.755,1.755 0 0 1 -1.755,0 1.755,1.755 0 0 1 0,-1.755 1.755,1.755 0 0 1 1.755,0 Z"
           style="fill:#000099" />
      </g>
    </g>
    <g
       id="g378"
       transform="translate(38.1,88.9)">
      <g
         style="fill:#f0f0ff;stroke:#000099;stroke-width:0.20999999"
         id="g376">
        <path
           id="circle370"
           d="M 4.0949998,0 A 4.0949998,4.0949998 0 0 1 0,4.0949998 4.0949998,4.0949998 0 0 1 -4.0949998,0 4.0949998,4.0949998 0 0 1 0,-4.0949998 4.0949998,4.0949998 0 0 1 4.0949998,0 Z"
           style="" />
        <path
           id="circle372"
           d="M 2.925,0 A 2.925,2.925 0 0 1 0,2.925 2.925,2.925 0 0 1 -2.925,0 2.925,2.925 0 0 1 0,-2.925 2.925,2.925 0 0 1 2.925,0 Z"
           style="" />
        <path
           id="circle374"
           d="M 1.755,0 A 1.755,1.755 0 0 1 0,1.755 1.755,1.755 0 0 1 -1.755,0 1.755,1.755 0 0 1 0,-1.755 1.755,1.755 0 0 1 1.755,0 Z"
           style="fill:#000099" />
      </g>
    </g>
    <g
       id="g388"
       transform="translate(7.62,104.14)">
      <g
         style="fill:#f0f0ff;stroke:#000099;stroke-width:0.20999999"
         id="g386">
        <path
           id="circle380"
           d="M 4.0949998,0 A 4.0949998,4.0949998 0 0 1 0,4.0949998 4.0949998,4.0949998 0 0 1 -4.0949998,0 4.0949998,4.0949998 0 0 1 0,-4.0949998 4.0949998,4.0949998 0 0 1 4.0949998,0 Z"
           style="" />
        <path
           id="circle382"
           d="M 2.925,0 A 2.925,2.925 0 0 1 0,2.925 2.925,2.925 0 0 1 -2.925,0 2.925,2.925 0 0 1 0,-2.925 2.925,2.925 0 0 1 2.925,0 Z"
           style="" />
        <path
           id="circle384"
           d="M 1.755,0 A 1.755,1.755 0 0 1 0,1.755 1.755,1.755 0 0 1 -1.755,0 1.755,1.755 0 0 1 0,-1.755 1.755,1.755 0 0 1 1.755,0 Z"
           style="fill:#000099" />
      </g>
    </g>
    <g
       id="g398"
       transform="translate(16.51,104.14)">
      <g
         style="fill:#f0f0ff;stroke:#000099;stroke-width:0.20999999"
         id="g396">
        <path
           id="circle390"
           d="M 4.0949998,0 A 4.0949998,4.0949998 0 0 1 0,4.0949998 4.0949998,4.0949998 0 0 1 -4.0949998,0 4.0949998,4.0949998 0 0 1 0,-4.0949998 4.0949998,4.0949998 0 0 1 4.0949998,0 Z"
           style="" />
        <path
           id="circle392"
           d="M 2.925,0 A 2.925,2.925 0 0 1 0,2.925 2.925,2.925 0 0 1 -2.925,0 2.925,2.925 0 0 1 0,-2.925 2.925,2.925 0 0 1 2.925,0 Z"
           style="" />
        <path
           id="circle394"
           d="M 1.755,0 A 1.755,1.755 0 0 1 0,1.755 1.755,1.755 0 0 1 -1.755,0 1.755,1.755 0 0 1 0,-1.755 1.755,1.755 0 0 1 1.755,0 Z"
           style="fill:#000099" />
      </g>
    </g>
    <g
       id="g408"
       transform="translate(29.21,104.14)">
      <g
         style="fill:#f0f0ff;stroke:#000099;stroke-width:0.20999999"
         id="g406">
        <path
           id="circle400"
           d="M 4.0949998,0 A 4.0949998,4.0949998 0 0 1 0,4.0949998 4.0949998,4.0949998 0 0 1 -4.0949998,0 4.0949998,4.0949998 0 0 1 0,-4.0949998 4.0949998,4.0949998 0 0 1 4.0949998,0 Z"
           style="" />
        <path
           id="circle402"
           d="M 2.925,0 A 2.925,2.925 0 0 1 0,2.925 2.925,2.925 0 0 1 -2.925,0 2.925,2.925 0 0 1 0,-2.925 2.925,2.925 0 0 1 2.925,0 Z"
           style="" />
        <path
           id="circle404"
           d="M 1.755,0 A 1.755,1.755 0 0 1 0,1.755 1.755,1.755 0 0 1 -1.755,0 1.755,1.755 0 0 1 0,-1.755 1.755,1.755 0 0 1 1.755,0 Z"
           style="fill:#000099" />
      </g>
    </g>
    <g
       id="g418"
       transform="translate(38.1,104.14)">
      <g
         style="fill:#f0f0ff;stroke:#000099;stroke-width:0.20999999"
         id="g416">
        <path
           id="circle410"
           d="M 4.0949998,0 A 4.0949998,4.0949998 0 0 1 0,4.0949998 4.0949998,4.0949998 0 0 1 -4.0949998,0 4.0949998,4.0949998 0 0 1 0,-4.0949998 4.0949998,4.0949998 0 0 1 4.0949998,0 Z"
           style="" />
        <path
           id="circle412"
           d="M 2.925,0 A 2.925,2.925 0 0 1 0,2.925 2.925,2.925 0 0 1 -2.925,0 2.925,2.925 0 0 1 0,-2.925 2.925,2.925 0 0 1 2.925,0 Z"
           style="" />
        <path
           id="circle414"
           d="M 1.755,0 A 1.755,1.755 0 0 1 0,1.755 1.755,1.755 0 0 1 -1.755,0 1.755,1.755 0 0 1 0,-1.755 1.755,1.755 0 0 1 1.755,0 Z"
           style="fill:#000099" />
      </g>
    </g>
  </g>
</svg>
