<?xml version="1.0" encoding="UTF-8" standalone="no"?>
<svg xmlns:dc="http://purl.org/dc/elements/1.1/" xmlns:cc="http://creativecommons.org/ns#" xmlns:rdf="http://www.w3.org/1999/02/22-rdf-syntax-ns#" xmlns:svg="http://www.w3.org/2000/svg" xmlns="http://www.w3.org/2000/svg" version="1.1" width="15.240mm" height="128.500mm" viewBox="0 0 15.240 128.500" id="svg80">
  <metadata id="metadata86">
    <rdf:RDF>
      <cc:Work rdf:about="">
        <dc:format>image/svg+xml</dc:format>
        <dc:type rdf:resource="http://purl.org/dc/dcmitype/StillImage"/>
      </cc:Work>
    </rdf:RDF>
  </metadata>
  <defs id="defs84"/>
  <g id="faceplate">
    <rect x="0.250" y="0.250" width="14.740" height="128.000" fill="#faf7f0" stroke="#0044cc" stroke-width="0.500" rx="0.000" ry="0.000" id="rect2"/>
    <g transform="translate(7.620,9.000)" id="g6">
      <g aria-label="FUNC" id="text4" style="font-weight:bold;font-size:4.064px;font-family:'Proxima Nova';dominant-baseline:alphabetic;text-anchor:middle;fill:#0044cc">
        <path d="m -5.2483387,0 h 0.5770881 v -1.129792 h 1.312672 v -0.4958081 h -1.312672 v -0.58928 h 1.34112 v -0.495808 h -1.9182081 z" style="font-weight:bold;font-size:4.064px;font-family:'Proxima Nova';dominant-baseline:alphabetic;text-anchor:middle;fill:#0044cc" id="path88"/>
        <path d="m -2.9305887,-1.081024 c 0,0.66649599 0.38608,1.129792 1.215136,1.129792 0.82092807,0 1.20700809,-0.45923201 1.20700809,-1.133856 V -2.7106881 H -1.0936606 v 1.6093441 c 0,0.37795198 -0.207264,0.63804799 -0.6217921,0.63804799 -0.422656,0 -0.62992,-0.26009601 -0.62992,-0.63804799 v -1.6093441 h -0.585216 z" style="font-weight:bold;font-size:4.064px;font-family:'Proxima Nova';dominant-baseline:alphabetic;text-anchor:middle;fill:#0044cc" id="path90"/>
        <path d="M 1.899539,0 H 2.456307 V -2.7106881 H 1.879219 v 1.75564807 L 0.62344297,-2.7106881 H 0.03009895 V 0 h 0.57708802 v -1.8206721 z" style="font-weight:bold;font-size:4.064px;font-family:'Proxima Nova';dominant-baseline:alphabetic;text-anchor:middle;fill:#0044cc" id="path92"/>
        <path d="m 4.2831386,0.048768 c 0.617728,0 0.9591041,-0.32918401 1.1541761,-0.66649602 L 4.9415066,-0.85750403 c -0.113792,0.22352001 -0.357632,0.39420802 -0.658368,0.39420802 -0.471424,0 -0.829056,-0.37795202 -0.829056,-0.89001599 0,-0.5120641 0.357632,-0.8900161 0.829056,-0.8900161 0.300736,0 0.544576,0.174752 0.658368,0.394208 l 0.4958081,-0.24384 c -0.191008,-0.337312 -0.5364481,-0.662432 -1.1541761,-0.662432 -0.79248,0 -1.4224,0.56896 -1.4224,1.4020801 0,0.83311998 0.62992,1.40208 1.4224,1.40208 z" style="font-weight:bold;font-size:4.064px;font-family:'Proxima Nova';dominant-baseline:alphabetic;text-anchor:middle;fill:#0044cc" id="path94"/>
      </g>
    </g>
    <g transform="translate(7.620,119.500)" id="g10">
      <g aria-label="DHE" id="text8" style="font-weight:bold;font-size:4.064px;font-family:'Proxima Nova';dominant-baseline:hanging;text-anchor:middle;fill:#0044cc">
        <path d="m -3.8632449,2.7584481 h 1.0688321 c 0.849376,0 1.438656,-0.5364481 1.438656,-1.3533121 0,-0.816864 -0.58928,-1.35737602 -1.438656,-1.35737602 H -3.8632449 Z M -3.2861569,2.250448 V 0.55575999 h 0.4917441 c 0.556768,0 0.849376,0.36982402 0.849376,0.84937601 0,0.459232 -0.312928,0.845312 -0.849376,0.845312 z" style="font-weight:bold;font-size:4.064px;font-family:'Proxima Nova';dominant-baseline:hanging;text-anchor:middle;fill:#0044cc" id="path97"/>
        <path d="M 0.91500319,2.7584481 H 1.4961552 V 0.04775998 H 0.91500319 V 1.112528 H -0.36515685 V 0.04775998 H -0.94224487 V 2.7584481 h 0.57708802 V 1.620528 h 1.28016004 z" style="font-weight:bold;font-size:4.064px;font-family:'Proxima Nova';dominant-baseline:hanging;text-anchor:middle;fill:#0044cc" id="path99"/>
        <path d="M 2.0263802,2.7584481 H 3.9445883 V 2.258576 H 2.6034682 V 1.628656 H 3.9161403 V 1.132848 H 2.6034682 V 0.54356799 H 3.9445883 V 0.04775998 H 2.0263802 Z" style="font-weight:bold;font-size:4.064px;font-family:'Proxima Nova';dominant-baseline:hanging;text-anchor:middle;fill:#0044cc" id="path101"/>
      </g>
    </g>
    <rect x="2.420" y="16.470" width="10.400" height="12.980" fill="#faf7f0" stroke="#0044cc" stroke-width="0.350" rx="1.000" ry="1.000" id="rect12"/>
    <g transform="translate(7.620,19.050)" id="g16">
      <g aria-label="IN" id="text14" style="font-weight:bold;font-size:2.371px;font-family:'Proxima Nova';dominant-baseline:alphabetic;text-anchor:middle;fill:#0044cc">
        <path d="m -1.0313295,0 h 0.33668206 V -1.581457 H -1.0313295 Z" style="font-weight:bold;font-size:2.371px;font-family:'Proxima Nova';dominant-baseline:alphabetic;text-anchor:middle;fill:#0044cc" id="path104"/>
        <path d="M 0.70765089,0 H 1.0324779 V -1.581457 H 0.69579589 v 1.02427199 L -0.03684313,-1.581457 h -0.346166 V 0 h 0.336682 v -1.062208 z" style="font-weight:bold;font-size:2.371px;font-family:'Proxima Nova';dominant-baseline:alphabetic;text-anchor:middle;fill:#0044cc" id="path106"/>
      </g>
    </g>
    <g transform="translate(7.620,44.000)" id="g20">
      <g aria-label="ADD" id="text18" style="font-weight:bold;font-size:2.371px;font-family:'Proxima Nova';dominant-baseline:hanging;text-anchor:middle;fill:#0044cc">
        <path d="m -1.2508137,1.609472 h 0.36750504 L -1.4926557,0.02801494 h -0.422038 L -2.5264117,1.609472 h 0.369876 l 0.099582,-0.272665 h 0.706558 z m -0.452861,-1.28982405 0.26081,0.72552605 h -0.523991 z" style="font-weight:bold;font-size:2.371px;font-family:'Proxima Nova';dominant-baseline:hanging;text-anchor:middle;fill:#0044cc" id="path109"/>
        <path d="m -0.73726984,1.609472 h 0.62357301 c 0.49553902,0 0.83933402,-0.312972 0.83933402,-0.78954304 0,-0.47657101 -0.343795,-0.79191402 -0.83933402,-0.79191402 H -0.73726984 Z M -0.40058783,1.313097 V 0.32438995 h 0.286891 c 0.32482701,0 0.49553902,0.215761 0.49553902,0.49553901 0,0.26792304 -0.18256701,0.49316804 -0.49553902,0.49316804 z" style="font-weight:bold;font-size:2.371px;font-family:'Proxima Nova';dominant-baseline:hanging;text-anchor:middle;fill:#0044cc" id="path111"/>
        <path d="M 0.96688644,1.609472 H 1.5904595 c 0.495539,0 0.839334,-0.312972 0.839334,-0.78954304 0,-0.47657101 -0.343795,-0.79191402 -0.839334,-0.79191402 H 0.96688644 Z M 1.3035684,1.313097 V 0.32438995 h 0.2868911 c 0.324827,0 0.495539,0.215761 0.495539,0.49553901 0,0.26792304 -0.182567,0.49316804 -0.495539,0.49316804 z" style="font-weight:bold;font-size:2.371px;font-family:'Proxima Nova';dominant-baseline:hanging;text-anchor:middle;fill:#0044cc" id="path113"/>
      </g>
    </g>
    <g transform="translate(7.620,36.000)" id="g24">
      <g aria-label="MULT" id="text22" style="font-weight:bold;font-size:2.371px;font-family:'Proxima Nova';dominant-baseline:alphabetic;text-anchor:middle;fill:#0044cc">
        <path d="m -1.5385938,0 h 0.339053 v -1.581457 h -0.4742 l -0.384102,0.98633599 -0.384102,-0.98633599 h -0.471829 V 0 h 0.336682 V -1.13808 L -2.1313438,0 h 0.147002 l 0.445748,-1.13808 z" style="font-weight:bold;font-size:2.371px;font-family:'Proxima Nova';dominant-baseline:alphabetic;text-anchor:middle;fill:#0044cc" id="path116"/>
        <path d="m -0.88545733,-0.63068601 c 0,0.388844 0.225245,0.65913801 0.70892901,0.65913801 0.47894201,0 0.70418702,-0.26792301 0.70418702,-0.66150901 V -1.581457 H 0.18623469 v 0.93891599 c 0,0.220503 -0.120921,0.372247 -0.36276301,0.372247 -0.246584,0 -0.367505,-0.151744 -0.367505,-0.372247 V -1.581457 h -0.34142401 z" style="font-weight:bold;font-size:2.371px;font-family:'Proxima Nova';dominant-baseline:alphabetic;text-anchor:middle;fill:#0044cc" id="path118"/>
        <path d="M 0.84185333,0 H 1.8471573 V -0.29637501 H 1.1785353 V -1.581457 H 0.84185333 Z" style="font-weight:bold;font-size:2.371px;font-family:'Proxima Nova';dominant-baseline:alphabetic;text-anchor:middle;fill:#0044cc" id="path120"/>
        <path d="M 2.211884,0 H 2.550937 V -1.285082 H 3.010911 V -1.581457 H 1.749539 v 0.296375 h 0.462345 z" style="font-weight:bold;font-size:2.371px;font-family:'Proxima Nova';dominant-baseline:alphabetic;text-anchor:middle;fill:#0044cc" id="path122"/>
      </g>
    </g>
    <g transform="translate(7.620,49.650)" id="g28">
      <g id="text26" style="font-weight:bold;font-size:3.048px;font-family:'Proxima Nova';dominant-baseline:alphabetic;text-anchor:middle;fill:#0044cc"/>
    </g>
    <rect x="2.420" y="101.470" width="10.400" height="12.980" fill="#0044cc" stroke="#0044cc" stroke-width="0.350" rx="1.000" ry="1.000" id="rect30"/>
    <g transform="translate(7.620,104.050)" id="g34">
      <g aria-label="OUT" id="text32" style="font-weight:bold;font-size:2.371px;font-family:'Proxima Nova';dominant-baseline:alphabetic;text-anchor:middle;fill:#faf7f0">
        <path d="m -2.3806878,-0.78954302 c 0,0.47657101 0.348537,0.81799502 0.825108,0.81799502 0.478942,0 0.82747903,-0.34142401 0.82747903,-0.81799502 0,-0.47657098 -0.34853703,-0.81799498 -0.82747903,-0.81799498 -0.476571,0 -0.825108,0.341424 -0.825108,0.81799498 z m 1.306421,0 c 0,0.29400401 -0.18968,0.51924901 -0.481313,0.51924901 -0.291633,0 -0.478942,-0.225245 -0.478942,-0.51924901 0,-0.29637498 0.187309,-0.51924898 0.478942,-0.51924898 0.291633,0 0.481313,0.222874 0.481313,0.51924898 z" style="font-weight:bold;font-size:2.371px;font-family:'Proxima Nova';dominant-baseline:alphabetic;text-anchor:middle;fill:#faf7f0" id="path126"/>
        <path d="m -0.48951892,-0.63068601 c 0,0.388844 0.22524501,0.65913801 0.70892902,0.65913801 0.47894201,0 0.70418701,-0.26792301 0.70418701,-0.66150901 V -1.581457 H 0.5821731 v 0.93891599 c 0,0.220503 -0.120921,0.372247 -0.362763,0.372247 -0.24658401,0 -0.36750501,-0.151744 -0.36750501,-0.372247 V -1.581457 h -0.34142401 z" style="font-weight:bold;font-size:2.371px;font-family:'Proxima Nova';dominant-baseline:alphabetic;text-anchor:middle;fill:#faf7f0" id="path128"/>
        <path d="m 1.6029255,0 h 0.339053 v -1.285082 h 0.459974 v -0.296375 h -1.261372 v 0.296375 h 0.462345 z" style="font-weight:bold;font-size:2.371px;font-family:'Proxima Nova';dominant-baseline:alphabetic;text-anchor:middle;fill:#faf7f0" id="path130"/>
      </g>
    </g>
  </g>
  <g id="overlay">
    <g transform="translate(7.620,24.250)" id="g43">
      <circle cx="0" cy="0" r="4.200" fill="#0044cc" stroke="none" stroke-width="0" id="circle37"/>
      <circle cx="0" cy="0" r="3.500" fill="none" stroke="#faf7f0" stroke-width="0.950" id="circle39"/>
      <circle cx="0" cy="0" r="2.325" fill="none" stroke="#faf7f0" stroke-width="0.950" id="circle41"/>
    </g>
    <g transform="translate(7.620,40.000)" id="g57">
      <rect x="-1.312" y="-2.812" width="2.625" height="5.625" fill="#faf7f0" stroke="#0044cc" stroke-width="0.375" rx="0.188" ry="0.188" id="rect45"/>
      <line x1="-0.812" y1="0.250" x2="0.812" y2="0.250" stroke="#0044cc" stroke-width="0.250" stroke-linecap="round" id="line47"/>
      <line x1="-0.812" y1="0.750" x2="0.812" y2="0.750" stroke="#0044cc" stroke-width="0.250" stroke-linecap="round" id="line49"/>
      <line x1="-0.812" y1="1.250" x2="0.812" y2="1.250" stroke="#0044cc" stroke-width="0.250" stroke-linecap="round" id="line51"/>
      <line x1="-0.812" y1="1.750" x2="0.812" y2="1.750" stroke="#0044cc" stroke-width="0.250" stroke-linecap="round" id="line53"/>
      <line x1="-0.812" y1="2.250" x2="0.812" y2="2.250" stroke="#0044cc" stroke-width="0.250" stroke-linecap="round" id="line55"/>
    </g>
    <g transform="translate(7.620,57.000)" id="g63">
      <circle cx="0" cy="0" r="6.350" fill="#0044cc" stroke="none" stroke-width="0" id="circle59"/>
      <line x1="0" y1="0" x2="0" y2="-5.556" stroke="#faf7f0" stroke-width="0.794" stroke-linecap="round" id="line61"/>
    </g>
    <g transform="translate(7.620,74.000)" id="g69">
      <rect x="-4.000" y="-1.790" width="8.000" height="3.580" fill="#faf7f0" stroke="#0044cc" stroke-width="0.250" rx="0.500" ry="0.500" id="rect65"/>
      <g aria-label="±5" id="text67" style="font-weight:bold;font-size:2.371px;font-family:'Proxima Nova';dominant-baseline:middle;text-anchor:middle;fill:#0044cc">
        <path d="m -0.61566351,0.08365048 h 0.42440901 v -0.184938 h -0.42440901 v -0.46708701 h -0.206277 v 0.46708701 H -1.2487205 v 0.184938 h 0.42677999 v 0.48368401 h 0.206277 z M -1.2487205,0.8565965 h 1.057466 v -0.184938 h -1.057466 z" style="font-weight:bold;font-size:2.371px;font-family:'Proxima Nova';dominant-baseline:middle;text-anchor:middle;fill:#0044cc" id="path133"/>
        <path d="m -0.00653877,0.6479485 c 0.13514701,0.147002 0.33431101,0.2371 0.60934702,0.2371 0.38173101,0 0.63305705,-0.211019 0.63305705,-0.54533001 0,-0.32008501 -0.23947104,-0.50976501 -0.50739405,-0.50976501 -0.144631,0 -0.27266501,0.056904 -0.35565001,0.130405 V -0.43559853 H 1.1291703 v -0.289262 H 0.04325224 v 0.90335101 l 0.234729,0.064017 c 0.09484,-0.090098 0.20153501,-0.13040501 0.33194001,-0.13040501 0.180196,0 0.28452,0.097211 0.28452,0.24184201 0,0.130405 -0.106695,0.2371 -0.294004,0.2371 -0.16597001,0 -0.31297201,-0.059275 -0.42203801,-0.170712 z" style="font-weight:bold;font-size:2.371px;font-family:'Proxima Nova';dominant-baseline:middle;text-anchor:middle;fill:#0044cc" id="path135"/>
      </g>
    </g>
    <g transform="translate(7.620,109.250)" id="g77">
      <circle cx="0" cy="0" r="4.200" fill="#0044cc" stroke="none" stroke-width="0" id="circle71"/>
      <circle cx="0" cy="0" r="3.500" fill="none" stroke="#faf7f0" stroke-width="0.950" id="circle73"/>
      <circle cx="0" cy="0" r="2.325" fill="none" stroke="#faf7f0" stroke-width="0.950" id="circle75"/>
    </g>
  </g>
</svg>
