<?xml version="1.0" encoding="UTF-8" standalone="no"?>
<svg xmlns="http://www.w3.org/2000/svg" xmlns:svg="http://www.w3.org/2000/svg" version="1.1" viewBox="0.000000 0.000000 15.240000 128.500000" height="128.500000mm" width="15.240000mm">
  <defs/>
  <g>
    <rect x="0.25" y="0.25" width="14.74" height="128" fill="#f0f3fa" stroke="#0044cc" stroke-width="0.5"/>
    <g style="font-weight:bold;font-size:4.064px;font-family:'Proxima Nova';dominant-baseline:alphabetic;text-anchor:middle;fill:#0044cc">
      <path d="m 2.3716612,9 h 0.577088 V 7.870208 H 4.2614213 V 7.3743999 H 2.9487492 v -0.58928 H 4.2898693 V 6.2893119 H 2.3716612 Z" style="font-weight:bold;font-size:4.064px;font-family:'Proxima Nova';dominant-baseline:alphabetic;text-anchor:middle;fill:#0044cc"/>
      <path d="m 4.6894112,7.918976 c 0,0.666496 0.38608,1.129792 1.215136,1.129792 0.8209281,0 1.2070081,-0.459232 1.2070081,-1.133856 V 6.2893119 H 6.5263393 V 7.898656 c 0,0.377952 -0.2072641,0.638048 -0.6217921,0.638048 -0.422656,0 -0.62992,-0.260096 -0.62992,-0.638048 V 6.2893119 h -0.585216 z" style="font-weight:bold;font-size:4.064px;font-family:'Proxima Nova';dominant-baseline:alphabetic;text-anchor:middle;fill:#0044cc"/>
      <path d="M 9.5195389,9 H 10.076307 V 6.2893119 H 9.4992189 V 8.04496 L 8.2434429,6.2893119 H 7.6500988 V 9 H 8.2271869 V 7.1793279 Z" style="font-weight:bold;font-size:4.064px;font-family:'Proxima Nova';dominant-baseline:alphabetic;text-anchor:middle;fill:#0044cc"/>
      <path d="m 11.903139,9.048768 c 0.617728,0 0.959104,-0.329184 1.154176,-0.666496 L 12.561507,8.142496 c -0.113792,0.22352 -0.357632,0.394208 -0.658368,0.394208 -0.471425,0 -0.829057,-0.377952 -0.829057,-0.890016 0,-0.5120641 0.357632,-0.8900161 0.829057,-0.8900161 0.300736,0 0.544576,0.174752 0.658368,0.394208 l 0.495808,-0.24384 c -0.191008,-0.337312 -0.536448,-0.662432 -1.154176,-0.662432 -0.792481,0 -1.422401,0.56896 -1.422401,1.4020801 0,0.83312 0.62992,1.40208 1.422401,1.40208 z" style="font-weight:bold;font-size:4.064px;font-family:'Proxima Nova';dominant-baseline:alphabetic;text-anchor:middle;fill:#0044cc"/>
    </g>
    <g style="font-weight:bold;font-size:4.064px;font-family:'Proxima Nova';dominant-baseline:hanging;text-anchor:middle;fill:#0044cc">
      <path d="m 3.756755,122.2581 h 1.068832 c 0.8493761,0 1.4386561,-0.53645 1.4386561,-1.35331 0,-0.81687 -0.58928,-1.35738 -1.4386561,-1.35738 H 3.756755 Z m 0.577088,-0.508 v -1.69469 h 0.491744 c 0.5567681,0 0.8493761,0.36983 0.8493761,0.84938 0,0.45923 -0.312928,0.84531 -0.8493761,0.84531 z" style="font-weight:bold;font-size:4.064px;font-family:'Proxima Nova';dominant-baseline:hanging;text-anchor:middle;fill:#0044cc"/>
      <path d="m 8.5350031,122.2581 h 0.581152 v -2.71069 h -0.581152 v 1.06477 H 7.254843 v -1.06477 H 6.677755 v 2.71069 h 0.577088 v -1.13792 h 1.2801601 z" style="font-weight:bold;font-size:4.064px;font-family:'Proxima Nova';dominant-baseline:hanging;text-anchor:middle;fill:#0044cc"/>
      <path d="m 9.6463801,122.2581 h 1.9182079 v -0.49987 h -1.34112 v -0.62992 h 1.312672 v -0.49581 h -1.312672 v -0.58928 h 1.34112 v -0.49581 H 9.6463801 Z" style="font-weight:bold;font-size:4.064px;font-family:'Proxima Nova';dominant-baseline:hanging;text-anchor:middle;fill:#0044cc"/>
    </g>
    <rect x="2.42" y="16.469555555555555" width="10.4" height="12.980444444444444" rx="1" ry="1" fill="#f0f3fa" stroke="#0044cc" stroke-width="0.35"/>
    <g style="font-weight:bold;font-size:2.37067px;font-family:'Proxima Nova';dominant-baseline:alphabetic;text-anchor:middle;fill:#0044cc">
      <path d="M 6.5888154,19.049999 H 6.9254501 V 17.468765 H 6.5888154 Z" style="font-weight:bold;font-size:2.37067px;font-family:'Proxima Nova';dominant-baseline:alphabetic;text-anchor:middle;fill:#0044cc"/>
      <path d="M 8.3275513,19.049999 H 8.6523326 V 17.468765 H 8.315698 v 1.024128 L 7.5831619,17.468765 H 7.2370446 v 1.581234 h 0.3366347 v -1.062058 z" style="font-weight:bold;font-size:2.37067px;font-family:'Proxima Nova';dominant-baseline:alphabetic;text-anchor:middle;fill:#0044cc"/>
    </g>
    <g style="font-weight:bold;font-size:2.37067px;font-family:'Proxima Nova';dominant-baseline:hanging;text-anchor:middle;fill:#0044cc">
      <path d="M 6.3693621,45.608891 H 6.7368154 L 6.127554,44.027657 H 5.7055754 l -0.6116321,1.581234 h 0.3698241 l 0.099568,-0.272626 H 6.2697941 Z M 5.9165647,44.319249 6.177338,45.044673 H 5.6534207 Z" style="font-weight:bold;font-size:2.37067px;font-family:'Proxima Nova';dominant-baseline:hanging;text-anchor:middle;fill:#0044cc"/>
      <path d="M 6.8828336,45.608891 H 7.506319 c 0.4954693,0 0.839216,-0.312928 0.839216,-0.789432 0,-0.476504 -0.3437467,-0.791802 -0.839216,-0.791802 H 6.8828336 Z M 7.2194683,45.312558 V 44.32399 H 7.506319 c 0.3247813,0 0.4954693,0.215731 0.4954693,0.495469 0,0.267886 -0.1825413,0.493099 -0.4954693,0.493099 z" style="font-weight:bold;font-size:2.37067px;font-family:'Proxima Nova';dominant-baseline:hanging;text-anchor:middle;fill:#0044cc"/>
      <path d="m 8.5867503,45.608891 h 0.6234853 c 0.4954694,0 0.8392164,-0.312928 0.8392164,-0.789432 0,-0.476504 -0.343747,-0.791802 -0.8392164,-0.791802 H 8.5867503 Z M 8.923385,45.312558 V 44.32399 h 0.2868506 c 0.3247814,0 0.4954694,0.215731 0.4954694,0.495469 0,0.267886 -0.1825414,0.493099 -0.4954694,0.493099 z" style="font-weight:bold;font-size:2.37067px;font-family:'Proxima Nova';dominant-baseline:hanging;text-anchor:middle;fill:#0044cc"/>
    </g>
    <g style="font-weight:bold;font-size:2.37067px;font-family:'Proxima Nova';dominant-baseline:alphabetic;text-anchor:middle;fill:#0044cc">
      <path d="M 6.0816224,36 H 6.4206277 V 34.418765 H 5.9464944 L 5.5624464,35.404963 5.1783983,34.418765 H 4.7066357 V 36 H 5.0432703 V 34.86208 L 5.4889557,36 H 5.635937 l 0.4456854,-1.13792 z" style="font-weight:bold;font-size:2.37067px;font-family:'Proxima Nova';dominant-baseline:alphabetic;text-anchor:middle;fill:#0044cc"/>
      <path d="m 6.734667,35.369403 c 0,0.388789 0.2252134,0.659045 0.7088294,0.659045 0.4788747,0 0.704088,-0.267885 0.704088,-0.661416 v -0.948267 h -0.341376 v 0.938784 c 0,0.220472 -0.120904,0.372195 -0.362712,0.372195 -0.2465494,0 -0.3674534,-0.151723 -0.3674534,-0.372195 V 34.418765 H 6.734667 Z" style="font-weight:bold;font-size:2.37067px;font-family:'Proxima Nova';dominant-baseline:alphabetic;text-anchor:middle;fill:#0044cc"/>
      <path d="M 8.4617347,36 H 9.4668974 V 35.703667 H 8.7983694 V 34.418765 H 8.4617347 Z" style="font-weight:bold;font-size:2.37067px;font-family:'Proxima Nova';dominant-baseline:alphabetic;text-anchor:middle;fill:#0044cc"/>
      <path d="m 9.8315727,36 h 0.3390053 v -1.284901 h 0.459909 V 34.418765 H 9.3692926 v 0.296334 h 0.4622801 z" style="font-weight:bold;font-size:2.37067px;font-family:'Proxima Nova';dominant-baseline:alphabetic;text-anchor:middle;fill:#0044cc"/>
    </g>
    <rect x="2.42" y="101.46955555555556" width="10.4" height="12.980444444444444" rx="1" ry="1" fill="#0044cc" stroke="#0044cc" stroke-width="0.35"/>
    <g style="font-weight:bold;font-size:2.37067px;font-family:'Proxima Nova';dominant-baseline:alphabetic;text-anchor:middle;fill:#f0f3fa">
      <path d="m 5.2396467,103.26057 c 0,0.47651 0.3484881,0.81788 0.8249921,0.81788 0.4788747,0 0.8273627,-0.34137 0.8273627,-0.81788 0,-0.4765 -0.348488,-0.81788 -0.8273627,-0.81788 -0.476504,0 -0.8249921,0.34138 -0.8249921,0.81788 z m 1.3062374,0 c 0,0.29396 -0.1896533,0.51918 -0.4812453,0.51918 -0.291592,0 -0.4788747,-0.22522 -0.4788747,-0.51918 0,-0.29633 0.1872827,-0.51917 0.4788747,-0.51917 0.291592,0 0.4812453,0.22284 0.4812453,0.51917 z" style="font-weight:bold;font-size:2.37067px;font-family:'Proxima Nova';dominant-baseline:alphabetic;text-anchor:middle;fill:#f0f3fa"/>
      <path d="m 7.1305499,103.41941 c 0,0.38879 0.2252133,0.65904 0.7088293,0.65904 0.4788747,0 0.704088,-0.26788 0.704088,-0.66141 v -0.94827 h -0.341376 v 0.93878 c 0,0.22047 -0.120904,0.3722 -0.362712,0.3722 -0.2465493,0 -0.3674533,-0.15173 -0.3674533,-0.3722 v -0.93878 h -0.341376 z" style="font-weight:bold;font-size:2.37067px;font-family:'Proxima Nova';dominant-baseline:alphabetic;text-anchor:middle;fill:#f0f3fa"/>
      <path d="m 9.2227003,104.05 h 0.3390053 v -1.2849 h 0.4599094 v -0.29633 H 8.7604202 v 0.29633 h 0.4622801 z" style="font-weight:bold;font-size:2.37067px;font-family:'Proxima Nova';dominant-baseline:alphabetic;text-anchor:middle;fill:#f0f3fa"/>
    </g>
  </g>
  <g>
    <g transform="translate(7.620000 24.250000)">
      <circle r="4.2" fill="#0044cc" stroke="none"/>
      <circle r="3.5" fill="none" stroke="#f0f3fa" stroke-width="0.95"/>
      <circle r="2.325" fill="none" stroke="#f0f3fa" stroke-width="0.95"/>
    </g>
    <g transform="translate(7.620000 40.000000)">
      <rect x="-1.3125" y="-2.8125" width="2.625" height="5.625" rx="0.1875" ry="0.1875" fill="#f0f3fa" stroke="#0044cc" stroke-width="0.375"/>
      <g transform="translate(0.000000 1.250000)">
        <line x1="-0.8125" y1="-1" x2="0.8125" y2="-1" stroke="#0044cc" stroke-width="0.25" stroke-linecap="round"/>
        <line x1="-0.8125" y1="-0.5" x2="0.8125" y2="-0.5" stroke="#0044cc" stroke-width="0.25" stroke-linecap="round"/>
        <line x1="-0.8125" x2="0.8125" stroke="#0044cc" stroke-width="0.25" stroke-linecap="round"/>
        <line x1="-0.8125" y1="0.5" x2="0.8125" y2="0.5" stroke="#0044cc" stroke-width="0.25" stroke-linecap="round"/>
        <line x1="-0.8125" y1="1" x2="0.8125" y2="1" stroke="#0044cc" stroke-width="0.25" stroke-linecap="round"/>
      </g>
    </g>
    <g transform="translate(7.620000 57.000000)">
      <circle r="6.35" fill="#0044cc"/>
      <line y2="-5.5562499999999995" stroke="#f0f3fa" stroke-width="0.79375" stroke-linecap="round"/>
    </g>
    <g transform="translate(7.620000 74.000000)">
      <rect x="-3.5" y="-1.7902222222222222" width="7" height="3.5804444444444443" rx="0.5" ry="0.5" fill="#f0f3fa" stroke="#0044cc" stroke-width="0.25"/>
      <g style="font-weight:bold;font-size:2.37067px;font-family:'Proxima Nova';dominant-baseline:middle;text-anchor:middle;fill:#0044cc">
        <path d="m -0.61557696,0.08415867 h 0.42434935 v -0.184912 h -0.42434935 v -0.46702135 h -0.206248 v 0.46702135 H -1.248545 v 0.184912 h 0.42672004 v 0.48361602 h 0.206248 z M -1.248545,0.85699603 h 1.05731739 V 0.67208402 H -1.248545 Z" style="font-weight:bold;font-size:2.37067px;font-family:'Proxima Nova';dominant-baseline:middle;text-anchor:middle;fill:#0044cc"/>
        <path d="m -0.00653786,0.64837736 c 0.13512801,0.14698133 0.33426402,0.23706667 0.60926136,0.23706667 0.38167734,0 0.632968,-0.21098934 0.632968,-0.54525335 0,-0.32004001 -0.23943732,-0.50969335 -0.50732267,-0.50969335 -0.14461067,0 -0.27262667,0.056896 -0.35560001,0.13038667 V -0.43501734 H 1.1290115 V -0.72423869 H 0.04324615 v 0.90322403 l 0.234696,0.064008 c 0.0948267,-0.0900853 0.20150668,-0.13038667 0.33189335,-0.13038667 0.18017067,0 0.28448001,0.0971973 0.28448001,0.24180801 0,0.13038667 -0.10668001,0.23706667 -0.29396268,0.23706667 -0.16594667,0 -0.31292801,-0.0592667 -0.42197868,-0.170688 z" style="font-weight:bold;font-size:2.37067px;font-family:'Proxima Nova';dominant-baseline:middle;text-anchor:middle;fill:#0044cc"/>
      </g>
    </g>
    <g transform="translate(7.620000 109.250000)">
      <circle r="4.2" fill="#0044cc" stroke="none"/>
      <circle r="3.5" fill="none" stroke="#f0f3fa" stroke-width="0.95"/>
      <circle r="2.325" fill="none" stroke="#f0f3fa" stroke-width="0.95"/>
    </g>
  </g>
</svg>
