<?xml version="1.0" encoding="UTF-8" standalone="no"?>
<svg
   xmlns:dc="http://purl.org/dc/elements/1.1/"
   xmlns:cc="http://creativecommons.org/ns#"
   xmlns:rdf="http://www.w3.org/1999/02/22-rdf-syntax-ns#"
   xmlns:svg="http://www.w3.org/2000/svg"
   xmlns="http://www.w3.org/2000/svg"
   id="svg94"
   height="379.429"
   width="45.000"
   version="1.1">
  <metadata
     id="metadata100">
    <rdf:RDF>
      <cc:Work
         rdf:about="">
        <dc:format>image/svg+xml</dc:format>
        <dc:type
           rdf:resource="http://purl.org/dc/dcmitype/StillImage" />
      </cc:Work>
    </rdf:RDF>
  </metadata>
  <defs
     id="defs98" />
  <g
     id="g92"
     transform="scale(2.953)">
    <path
       id="rect2"
       d="M 0,0 H 15.24 V 128.5 H 0 Z"
       style="fill:#faf7f0;stroke:#0044cc;stroke-width:1" />
    <g
       id="g6"
       transform="translate(7.62,9)">
      <g
         id="text4"
         style="font-weight:bold;font-size:4.06400013px;font-family:'Proxima Nova';dominant-baseline:alphabetic;text-anchor:middle;fill:#0044cc"
         aria-label="FUNC">
        <path
           id="path103"
           style="font-weight:bold;font-size:4.06400013px;font-family:'Proxima Nova';dominant-baseline:alphabetic;text-anchor:middle;fill:#0044cc"
           d="m -5.2562762,0 h 0.5770881 v -1.121664 h 1.312672 v -0.5080001 h -1.312672 v -0.573024 h 1.34112 v -0.508 h -1.9182081 z" />
        <path
           id="path105"
           style="font-weight:bold;font-size:4.06400013px;font-family:'Proxima Nova';dominant-baseline:alphabetic;text-anchor:middle;fill:#0044cc"
           d="m -2.9385262,-1.081024 c 0,0.66649599 0.398272,1.129792 1.223264,1.129792 0.82499207,0 1.22326409,-0.45923201 1.22326409,-1.133856 V -2.7106881 H -1.0812781 v 1.6093441 c 0,0.37795198 -0.215392,0.63804799 -0.6339841,0.63804799 -0.418592,0 -0.638048,-0.26009601 -0.638048,-0.63804799 v -1.6093441 h -0.585216 z" />
        <path
           id="path107"
           style="font-weight:bold;font-size:4.06400013px;font-family:'Proxima Nova';dominant-baseline:alphabetic;text-anchor:middle;fill:#0044cc"
           d="m 1.9074764,0 h 0.556768 V -2.7106881 H 1.8871564 V -1.007872 L 0.63138033,-2.7106881 H 0.03803631 V 0 h 0.57708802 v -1.7678401 z" />
        <path
           id="path109"
           style="font-weight:bold;font-size:4.06400013px;font-family:'Proxima Nova';dominant-baseline:alphabetic;text-anchor:middle;fill:#0044cc"
           d="m 4.311396,0.048768 c 0.597408,0 0.938784,-0.32918401 1.133856,-0.66649602 L 4.949444,-0.85750403 c -0.113792,0.22352001 -0.357632,0.39420802 -0.638048,0.39420802 -0.491744,0 -0.849376,-0.37795202 -0.849376,-0.89001599 0,-0.5120641 0.357632,-0.8900161 0.849376,-0.8900161 0.280416,0 0.524256,0.174752 0.638048,0.394208 l 0.495808,-0.24384 c -0.191008,-0.337312 -0.536448,-0.662432 -1.133856,-0.662432 -0.8128,0 -1.4427201,0.56896 -1.4427201,1.4020801 0,0.83311998 0.6299201,1.40208 1.4427201,1.40208 z" />
      </g>
    </g>
    <g
       id="g10"
       transform="translate(7.62,119.5)">
      <g
         id="text8"
         style="font-weight:bold;font-size:4.06400013px;font-family:'Proxima Nova';dominant-baseline:hanging;text-anchor:middle;fill:#0044cc"
         aria-label="DHE">
        <path
           id="path112"
           style="font-weight:bold;font-size:4.06400013px;font-family:'Proxima Nova';dominant-baseline:hanging;text-anchor:middle;fill:#0044cc"
           d="m -3.8632449,2.5684481 h 1.0688321 c 0.849376,0 1.438656,-0.5364481 1.438656,-1.3533121 0,-0.816864 -0.58928,-1.35737602 -1.438656,-1.35737602 h -1.0688321 z m 0.577088,-0.508 V 0.36576 h 0.4917441 c 0.556768,0 0.849376,0.36982401 0.849376,0.849376 0,0.459232 -0.312928,0.8453121 -0.849376,0.8453121 z" />
        <path
           id="path114"
           style="font-weight:bold;font-size:4.06400013px;font-family:'Proxima Nova';dominant-baseline:hanging;text-anchor:middle;fill:#0044cc"
           d="M 0.91500319,2.5684481 H 1.4961552 V -0.14224002 H 0.91500319 V 0.92252801 H -0.36515685 V -0.14224002 H -0.94224487 V 2.5684481 h 0.57708802 V 1.430528 h 1.28016004 z" />
        <path
           id="path116"
           style="font-weight:bold;font-size:4.06400013px;font-family:'Proxima Nova';dominant-baseline:hanging;text-anchor:middle;fill:#0044cc"
           d="m 2.0263802,2.5684481 h 1.9182081 v -0.508 H 2.6034682 V 1.446784 H 3.9161403 V 0.93878401 H 2.6034682 V 0.36576 H 3.9445883 V -0.14224002 H 2.0263802 Z" />
      </g>
    </g>
    <path
       id="rect12"
       d="M 3.4200001,16.469999 H 11.82 c 0.554,0 1,0.446 1,1 v 10.98 c 0,0.554 -0.446,1 -1,1 H 3.4200001 c -0.554,0 -1,-0.446 -1,-1 v -10.98 c 0,-0.554 0.446,-1 1,-1 z"
       style="fill:#faf7f0;stroke:#0044cc;stroke-width:0.34999999" />
    <g
       id="g16"
       transform="translate(7.62,19.05)">
      <g
         id="text14"
         style="font-weight:bold;font-size:2.37100005px;font-family:'Proxima Nova';dominant-baseline:alphabetic;text-anchor:middle;fill:#0044cc"
         aria-label="IN">
        <path
           id="path120"
           style="font-weight:bold;font-size:2.37100005px;font-family:'Proxima Nova';dominant-baseline:alphabetic;text-anchor:middle;fill:#0044cc"
           d="m -1.0313295,0 h 0.33668206 V -1.581457 H -1.0313295 Z" />
        <path
           id="path122"
           style="font-weight:bold;font-size:2.37100005px;font-family:'Proxima Nova';dominant-baseline:alphabetic;text-anchor:middle;fill:#0044cc"
           d="M 0.70765089,0 H 1.0324779 V -1.581457 H 0.69579589 v 0.99344899 L -0.03684313,-1.581457 h -0.346166 V 0 h 0.336682 v -1.031385 z" />
      </g>
    </g>
    <g
       id="g20"
       transform="translate(7.62,44)">
      <g
         id="text18"
         style="font-weight:bold;font-size:2.37100005px;font-family:'Proxima Nova';dominant-baseline:hanging;text-anchor:middle;fill:#0044cc"
         aria-label="ADD">
        <path
           id="path125"
           style="font-weight:bold;font-size:2.37100005px;font-family:'Proxima Nova';dominant-baseline:hanging;text-anchor:middle;fill:#0044cc"
           d="m -1.2674107,1.498472 h 0.38410204 L -1.4926557,-0.08298506 h -0.422038 L -2.5264117,1.498472 h 0.384102 l 0.099582,-0.267923 h 0.678106 z m -0.436264,-1.24477505 0.246584,0.68047701 h -0.493168 z" />
        <path
           id="path127"
           style="font-weight:bold;font-size:2.37100005px;font-family:'Proxima Nova';dominant-baseline:hanging;text-anchor:middle;fill:#0044cc"
           d="m -0.73726984,1.498472 h 0.62357301 c 0.49553902,0 0.83933402,-0.312972 0.83933402,-0.78954304 0,-0.47657101 -0.343795,-0.79191402 -0.83933402,-0.79191402 H -0.73726984 Z M -0.40058783,1.202097 V 0.21338995 h 0.286891 c 0.32482701,0 0.49553902,0.215761 0.49553902,0.49553901 0,0.267923 -0.18256701,0.49316804 -0.49553902,0.49316804 z" />
        <path
           id="path129"
           style="font-weight:bold;font-size:2.37100005px;font-family:'Proxima Nova';dominant-baseline:hanging;text-anchor:middle;fill:#0044cc"
           d="M 0.96688644,1.498472 H 1.5904595 c 0.495539,0 0.839334,-0.312972 0.839334,-0.78954304 0,-0.47657101 -0.343795,-0.79191402 -0.839334,-0.79191402 H 0.96688644 Z M 1.3035684,1.202097 V 0.21338995 h 0.2868911 c 0.324827,0 0.495539,0.215761 0.495539,0.49553901 0,0.267923 -0.182567,0.49316804 -0.495539,0.49316804 z" />
      </g>
    </g>
    <g
       id="g24"
       transform="translate(7.62,36)">
      <g
         id="text22"
         style="font-weight:bold;font-size:2.37100005px;font-family:'Proxima Nova';dominant-baseline:alphabetic;text-anchor:middle;fill:#0044cc"
         aria-label="MULT">
        <path
           id="path132"
           style="font-weight:bold;font-size:2.37100005px;font-family:'Proxima Nova';dominant-baseline:alphabetic;text-anchor:middle;fill:#0044cc"
           d="m -1.5432247,0 h 0.339053 v -1.581457 h -0.4742 l -0.384102,0.95551299 -0.384102,-0.95551299 h -0.471829 V 0 h 0.336682 V -1.107257 L -2.1359747,0 h 0.147002 l 0.445748,-1.107257 z" />
        <path
           id="path134"
           style="font-weight:bold;font-size:2.37100005px;font-family:'Proxima Nova';dominant-baseline:alphabetic;text-anchor:middle;fill:#0044cc"
           d="m -0.89008819,-0.63068601 c 0,0.388844 0.232358,0.65913801 0.71367101,0.65913801 0.48131302,0 0.71367102,-0.26792301 0.71367102,-0.66150901 V -1.581457 H 0.19345883 v 0.93891599 c 0,0.220503 -0.125663,0.372247 -0.36987601,0.372247 -0.244213,0 -0.372247,-0.151744 -0.372247,-0.372247 V -1.581457 h -0.34142401 z" />
        <path
           id="path136"
           style="font-weight:bold;font-size:2.37100005px;font-family:'Proxima Nova';dominant-baseline:alphabetic;text-anchor:middle;fill:#0044cc"
           d="M 0.84648408,0 H 1.8517881 V -0.29637501 H 1.1831661 V -1.581457 H 0.84648408 Z" />
        <path
           id="path138"
           style="font-weight:bold;font-size:2.37100005px;font-family:'Proxima Nova';dominant-baseline:alphabetic;text-anchor:middle;fill:#0044cc"
           d="m 2.2165147,0 h 0.339053 v -1.285082 h 0.459974 v -0.296375 h -1.261372 v 0.296375 h 0.462345 z" />
      </g>
    </g>
    <g
       id="g28"
       transform="translate(7.62,49.65)">
      <g
         id="text26"
         style="font-weight:bold;font-size:3.0480001px;font-family:'Proxima Nova';dominant-baseline:alphabetic;text-anchor:middle;fill:#0044cc" />
    </g>
    <path
       id="rect30"
       d="M 3.4200001,101.47 H 11.82 c 0.554,0 1,0.446 1,1 v 10.98 c 0,0.554 -0.446,1 -1,1 H 3.4200001 c -0.554,0 -1,-0.446 -1,-1 v -10.98 c 0,-0.554 0.446,-1 1,-1 z"
       style="fill:#0044cc;stroke:#0044cc;stroke-width:0.34999999" />
    <g
       id="g34"
       transform="translate(7.62,104.05)">
      <g
         id="text32"
         style="font-weight:bold;font-size:2.37100005px;font-family:'Proxima Nova';dominant-baseline:alphabetic;text-anchor:middle;fill:#faf7f0"
         aria-label="OUT">
        <path
           id="path143"
           style="font-weight:bold;font-size:2.37100005px;font-family:'Proxima Nova';dominant-baseline:alphabetic;text-anchor:middle;fill:#faf7f0"
           d="m -2.3853187,-0.78954302 c 0,0.47657101 0.348537,0.81799502 0.825108,0.81799502 0.4789421,0 0.82747907,-0.34142401 0.82747907,-0.81799502 0,-0.47657098 -0.34853697,-0.81799498 -0.82747907,-0.81799498 -0.476571,0 -0.825108,0.341424 -0.825108,0.81799498 z m 1.3064211,0 c 0,0.29400401 -0.18968,0.51924901 -0.4813131,0.51924901 -0.291633,0 -0.478942,-0.225245 -0.478942,-0.51924901 0,-0.29637498 0.187309,-0.51924898 0.478942,-0.51924898 0.2916331,0 0.4813131,0.222874 0.4813131,0.51924898 z" />
        <path
           id="path145"
           style="font-weight:bold;font-size:2.37100005px;font-family:'Proxima Nova';dominant-baseline:alphabetic;text-anchor:middle;fill:#faf7f0"
           d="m -0.49414978,-0.63068601 c 0,0.388844 0.23235801,0.65913801 0.71367102,0.65913801 0.48131301,0 0.71367101,-0.26792301 0.71367101,-0.66150901 V -1.581457 H 0.58939724 v 0.93891599 c 0,0.220503 -0.125663,0.372247 -0.369876,0.372247 -0.24421301,0 -0.37224701,-0.151744 -0.37224701,-0.372247 V -1.581457 h -0.34142401 z" />
        <path
           id="path147"
           style="font-weight:bold;font-size:2.37100005px;font-family:'Proxima Nova';dominant-baseline:alphabetic;text-anchor:middle;fill:#faf7f0"
           d="m 1.6075565,0 h 0.339053 v -1.285082 h 0.459974 v -0.296375 h -1.261372 v 0.296375 h 0.462345 z" />
      </g>
    </g>
    <g
       id="g38"
       transform="translate(7.62,104.05)">
      <g
         id="text36"
         style="font-weight:bold;font-size:2.37100005px;font-family:'Proxima Nova';dominant-baseline:alphabetic;text-anchor:middle;fill:#faf7f0"
         aria-label="OUT">
        <path
           id="path150"
           style="font-weight:bold;font-size:2.37100005px;font-family:'Proxima Nova';dominant-baseline:alphabetic;text-anchor:middle;fill:#faf7f0"
           d="m -2.3853187,-0.78954302 c 0,0.47657101 0.348537,0.81799502 0.825108,0.81799502 0.4789421,0 0.82747907,-0.34142401 0.82747907,-0.81799502 0,-0.47657098 -0.34853697,-0.81799498 -0.82747907,-0.81799498 -0.476571,0 -0.825108,0.341424 -0.825108,0.81799498 z m 1.3064211,0 c 0,0.29400401 -0.18968,0.51924901 -0.4813131,0.51924901 -0.291633,0 -0.478942,-0.225245 -0.478942,-0.51924901 0,-0.29637498 0.187309,-0.51924898 0.478942,-0.51924898 0.2916331,0 0.4813131,0.222874 0.4813131,0.51924898 z" />
        <path
           id="path152"
           style="font-weight:bold;font-size:2.37100005px;font-family:'Proxima Nova';dominant-baseline:alphabetic;text-anchor:middle;fill:#faf7f0"
           d="m -0.49414978,-0.63068601 c 0,0.388844 0.23235801,0.65913801 0.71367102,0.65913801 0.48131301,0 0.71367101,-0.26792301 0.71367101,-0.66150901 V -1.581457 H 0.58939724 v 0.93891599 c 0,0.220503 -0.125663,0.372247 -0.369876,0.372247 -0.24421301,0 -0.37224701,-0.151744 -0.37224701,-0.372247 V -1.581457 h -0.34142401 z" />
        <path
           id="path154"
           style="font-weight:bold;font-size:2.37100005px;font-family:'Proxima Nova';dominant-baseline:alphabetic;text-anchor:middle;fill:#faf7f0"
           d="m 1.6075565,0 h 0.339053 v -1.285082 h 0.459974 v -0.296375 h -1.261372 v 0.296375 h 0.462345 z" />
      </g>
    </g>
    <g
       id="g48"
       transform="translate(7.62,24.25)">
      <g
         style="fill:#faf7f0;stroke:#0044cc;stroke-width:0.20999999"
         id="g46">
        <path
           id="circle40"
           d="M 4.0949998,0 A 4.0949998,4.0949998 0 0 1 0,4.0949998 4.0949998,4.0949998 0 0 1 -4.0949998,0 4.0949998,4.0949998 0 0 1 0,-4.0949998 4.0949998,4.0949998 0 0 1 4.0949998,0 Z"
           style="" />
        <path
           id="circle42"
           d="M 2.925,0 A 2.925,2.925 0 0 1 0,2.925 2.925,2.925 0 0 1 -2.925,0 2.925,2.925 0 0 1 0,-2.925 2.925,2.925 0 0 1 2.925,0 Z"
           style="" />
        <path
           id="circle44"
           d="M 1.755,0 A 1.755,1.755 0 0 1 0,1.755 1.755,1.755 0 0 1 -1.755,0 1.755,1.755 0 0 1 0,-1.755 1.755,1.755 0 0 1 1.755,0 Z"
           style="fill:#0044cc" />
      </g>
    </g>
    <g
       id="g64"
       transform="translate(7.62,40)">
      <path
         id="rect50"
         d="m -1.124,-2.812 h 2.249 c 0.104152,0 0.188,0.083848 0.188,0.188 v 5.249 c 0,0.104152 -0.083848,0.188 -0.188,0.188 h -2.249 c -0.104152,0 -0.188,-0.083848 -0.188,-0.188 v -5.249 c 0,-0.104152 0.083848,-0.188 0.188,-0.188 z"
         style="fill:#faf7f0;stroke:#0044cc;stroke-width:0.375" />
      <g
         id="g62"
         transform="translate(0,1.25)">
        <path
           id="line52"
           d="M -0.81199998,-1 H 0.81199998"
           style="fill:#faf7f0;stroke:#0044cc;stroke-width:0.25;stroke-linecap:round" />
        <path
           id="line54"
           d="M -0.81199998,-0.5 H 0.81199998"
           style="fill:#faf7f0;stroke:#0044cc;stroke-width:0.25;stroke-linecap:round" />
        <path
           id="line56"
           d="M -0.81199998,0 H 0.81199998"
           style="fill:#faf7f0;stroke:#0044cc;stroke-width:0.25;stroke-linecap:round" />
        <path
           id="line58"
           d="M -0.81199998,0.5 H 0.81199998"
           style="fill:#faf7f0;stroke:#0044cc;stroke-width:0.25;stroke-linecap:round" />
        <path
           id="line60"
           d="M -0.81199998,1 H 0.81199998"
           style="fill:#faf7f0;stroke:#0044cc;stroke-width:0.25;stroke-linecap:round" />
      </g>
    </g>
    <g
       id="g72"
       transform="translate(7.62,57)">
      <g
         style="fill:#0044cc;stroke:#faf7f0"
         id="g70">
        <path
           id="circle66"
           d="M 6.3499999,0 A 6.3499999,6.3499999 0 0 1 0,6.3499999 6.3499999,6.3499999 0 0 1 -6.3499999,0 6.3499999,6.3499999 0 0 1 0,-6.3499999 6.3499999,6.3499999 0 0 1 6.3499999,0 Z"
           style="stroke:none" />
        <path
           id="line68"
           d="M 0,0 V -5.5560002"
           style="stroke-width:0.79400003;stroke-linecap:round" />
      </g>
    </g>
    <g
       id="g80"
       transform="translate(7.62,74)">
      <g
         id="g76"
         transform="translate(0,-4)">
        <g
           id="text74"
           style="font-weight:bold;font-size:2.37100005px;font-family:'Proxima Nova';dominant-baseline:alphabetic;text-anchor:middle;fill:#0044cc"
           aria-label="±5">
          <path
             id="path168"
             style="font-weight:bold;font-size:2.37100005px;font-family:'Proxima Nova';dominant-baseline:alphabetic;text-anchor:middle;fill:#0044cc"
             d="m -0.61566351,-0.77294602 h 0.42440901 v -0.184938 H -0.61566351 V -1.424971 h -0.206277 v 0.46708698 H -1.2487205 v 0.184938 h 0.42677999 v 0.48368401 h 0.206277 z M -1.2487205,0 h 1.057466 v -0.184938 h -1.057466 z" />
          <path
             id="path170"
             style="font-weight:bold;font-size:2.37100005px;font-family:'Proxima Nova';dominant-baseline:alphabetic;text-anchor:middle;fill:#0044cc"
             d="m -0.00653877,-0.208648 c 0.13514701,0.147002 0.33431101,0.2371 0.60934702,0.2371 0.38173101,0 0.63305705,-0.211019 0.63305705,-0.54770101 0,-0.32008501 -0.23947104,-0.51213599 -0.50739405,-0.51213599 -0.144631,0 -0.27266501,0.056904 -0.34853701,0.13277598 V -1.285082 H 1.1291703 V -1.581457 H 0.04325224 v 0.90809299 l 0.234729,0.061646 c 0.09484,-0.090098 0.20153501,-0.12803401 0.33194001,-0.12803401 0.180196,0 0.28452,0.09484 0.28452,0.23472901 0,0.128034 -0.106695,0.234729 -0.294004,0.234729 -0.16597001,0 -0.31297201,-0.061646 -0.41966701,-0.173083 z" />
        </g>
      </g>
      <path
         id="circle78"
         d="M 2.5,0 A 2.5,2.5 0 0 1 0,2.5 2.5,2.5 0 0 1 -2.5,0 2.5,2.5 0 0 1 0,-2.5 2.5,2.5 0 0 1 2.5,0 Z"
         style="fill:#0044cc;stroke:#0044cc;stroke-width:1" />
    </g>
    <g
       id="g90"
       transform="translate(7.62,109.25)">
      <g
         style="fill:#faf7f0;stroke:#0044cc;stroke-width:0.20999999"
         id="g88">
        <path
           id="circle82"
           d="M 4.0949998,0 A 4.0949998,4.0949998 0 0 1 0,4.0949998 4.0949998,4.0949998 0 0 1 -4.0949998,0 4.0949998,4.0949998 0 0 1 0,-4.0949998 4.0949998,4.0949998 0 0 1 4.0949998,0 Z"
           style="" />
        <path
           id="circle84"
           d="M 2.925,0 A 2.925,2.925 0 0 1 0,2.925 2.925,2.925 0 0 1 -2.925,0 2.925,2.925 0 0 1 0,-2.925 2.925,2.925 0 0 1 2.925,0 Z"
           style="" />
        <path
           id="circle86"
           d="M 1.755,0 A 1.755,1.755 0 0 1 0,1.755 1.755,1.755 0 0 1 -1.755,0 1.755,1.755 0 0 1 0,-1.755 1.755,1.755 0 0 1 1.755,0 Z"
           style="fill:#0044cc" />
      </g>
    </g>
  </g>
</svg>
