<?xml version="1.0" encoding="UTF-8" standalone="no"?>
<svg
   xmlns:dc="http://purl.org/dc/elements/1.1/"
   xmlns:cc="http://creativecommons.org/ns#"
   xmlns:rdf="http://www.w3.org/1999/02/22-rdf-syntax-ns#"
   xmlns:svg="http://www.w3.org/2000/svg"
   xmlns="http://www.w3.org/2000/svg"
   version="1.1"
   width="45.720mm"
   height="128.500mm"
   viewBox="0 0 45.720 128.500"
   id="svg402">
  <metadata
     id="metadata408">
    <rdf:RDF>
      <cc:Work
         rdf:about="">
        <dc:format>image/svg+xml</dc:format>
        <dc:type
           rdf:resource="http://purl.org/dc/dcmitype/StillImage" />
      </cc:Work>
    </rdf:RDF>
  </metadata>
  <defs
     id="defs406" />
  <rect
     x="0"
     y="0"
     width="45.720"
     height="128.500"
     fill="#f0f0ff"
     stroke="#000099"
     stroke-width="1"
     rx="1.000"
     ry="1.000"
     id="rect2" />
  <g
     transform="translate(22.86,9)"
     id="g6">
    <g
       aria-label="FUZZY LOGIC Z"
       id="text4"
       style="font-weight:bold;font-size:4.064px;font-family:'Proxima Nova';dominant-baseline:alphabetic;text-anchor:middle;fill:#000099">
      <path
         d="m -14.308995,0 h 0.577088 v -1.129792 h 1.312672 v -0.4958081 h -1.312672 v -0.58928 h 1.34112 v -0.495808 h -1.918208 z"
         style="font-weight:bold;font-size:4.064px;font-family:'Proxima Nova';dominant-baseline:alphabetic;text-anchor:middle;fill:#000099"
         id="path410" />
      <path
         d="m -11.991245,-1.081024 c 0,0.66649599 0.38608,1.129792 1.215136,1.129792 0.8209278,0 1.2070078,-0.45923201 1.2070078,-1.133856 v -1.6256001 h -0.5852158 v 1.6093441 c 0,0.37795198 -0.207264,0.63804799 -0.621792,0.63804799 -0.422656,0 -0.62992,-0.26009601 -0.62992,-0.63804799 v -1.6093441 h -0.585216 z"
         style="font-weight:bold;font-size:4.064px;font-family:'Proxima Nova';dominant-baseline:alphabetic;text-anchor:middle;fill:#000099"
         id="path412" />
      <path
         d="m -9.1280936,0 h 2.0645121 v -0.50800002 h -1.3086081 l 1.2801601,-1.73939208 v -0.463296 h -2.0360641 v 0.508 h 1.28016 l -1.28016,1.73532809 z"
         style="font-weight:bold;font-size:4.064px;font-family:'Proxima Nova';dominant-baseline:alphabetic;text-anchor:middle;fill:#000099"
         id="path414" />
      <path
         d="m -6.7230309,0 h 2.064512 v -0.50800002 h -1.308608 l 1.28016,-1.73939208 v -0.463296 h -2.036064 v 0.508 h 1.28016 l -1.28016,1.73532809 z"
         style="font-weight:bold;font-size:4.064px;font-family:'Proxima Nova';dominant-baseline:alphabetic;text-anchor:middle;fill:#000099"
         id="path416" />
      <path
         d="m -3.4645282,0 h 0.577088 v -1.109472 l 1.03632,-1.6012161 h -0.658368 l -0.666496,1.089152 -0.674624,-1.089152 h -0.6583681 l 1.0444481,1.6012161 z"
         style="font-weight:bold;font-size:4.064px;font-family:'Proxima Nova';dominant-baseline:alphabetic;text-anchor:middle;fill:#000099"
         id="path418" />
      <path
         d="M -0.56124492,0 H 1.1618911 V -0.50800002 H 0.01584309 V -2.7106881 h -0.57708801 z"
         style="font-weight:bold;font-size:4.064px;font-family:'Proxima Nova';dominant-baseline:alphabetic;text-anchor:middle;fill:#000099"
         id="path420" />
      <path
         d="m 1.3248328,-1.353312 c 0,0.81686398 0.597408,1.40208 1.414272,1.40208 0.820928,0 1.418336,-0.58521602 1.418336,-1.40208 0,-0.8168641 -0.597408,-1.4020801 -1.418336,-1.4020801 -0.816864,0 -1.414272,0.585216 -1.414272,1.4020801 z m 2.239264,0 c 0,0.50393597 -0.32512,0.89001599 -0.824992,0.89001599 -0.499872,0 -0.820928,-0.38608002 -0.820928,-0.89001599 0,-0.5080001 0.321056,-0.8900161 0.820928,-0.8900161 0.499872,0 0.824992,0.382016 0.824992,0.8900161 z"
         style="font-weight:bold;font-size:4.064px;font-family:'Proxima Nova';dominant-baseline:alphabetic;text-anchor:middle;fill:#000099"
         id="path422" />
      <path
         d="m 4.4363325,-1.353312 c 0,0.85343998 0.6502401,1.406144 1.4427201,1.406144 0.491744,0 0.877824,-0.2032 1.154176,-0.51206401 V -1.495552 h -1.292352 v 0.49580797 h 0.723392 v 0.32918401 c -0.117856,0.105664 -0.337312,0.20726401 -0.585216,0.20726401 -0.491744,0 -0.849376,-0.37795202 -0.849376,-0.89001599 0,-0.5120641 0.357632,-0.8900161 0.849376,-0.8900161 0.28448,0 0.516128,0.150368 0.642112,0.341376 l 0.479552,-0.260096 c -0.207264,-0.321056 -0.560832,-0.593344 -1.121664,-0.593344 -0.79248,0 -1.4427201,0.544576 -1.4427201,1.4020801 z"
         style="font-weight:bold;font-size:4.064px;font-family:'Proxima Nova';dominant-baseline:alphabetic;text-anchor:middle;fill:#000099"
         id="path424" />
      <path
         d="m 7.4953185,0 h 0.577088 v -2.7106881 h -0.577088 z"
         style="font-weight:bold;font-size:4.064px;font-family:'Proxima Nova';dominant-baseline:alphabetic;text-anchor:middle;fill:#000099"
         id="path426" />
      <path
         d="m 9.8989204,0.048768 c 0.6177276,0 0.9591036,-0.32918401 1.1541756,-0.66649602 l -0.495808,-0.23977601 c -0.113792,0.22352001 -0.357632,0.39420802 -0.6583676,0.39420802 -0.471424,0 -0.829056,-0.37795202 -0.829056,-0.89001599 0,-0.5120641 0.357632,-0.8900161 0.829056,-0.8900161 0.3007356,0 0.5445756,0.174752 0.6583676,0.394208 l 0.495808,-0.24384 c -0.191008,-0.337312 -0.536448,-0.662432 -1.1541756,-0.662432 -0.79248,0 -1.4224,0.56896 -1.4224,1.4020801 0,0.83311998 0.62992,1.40208 1.4224,1.40208 z"
         style="font-weight:bold;font-size:4.064px;font-family:'Proxima Nova';dominant-baseline:alphabetic;text-anchor:middle;fill:#000099"
         id="path428" />
      <path
         d="m 12.342845,0 h 2.064512 v -0.50800002 h -1.308608 l 1.28016,-1.73939208 v -0.463296 h -2.036064 v 0.508 h 1.28016 l -1.28016,1.73532809 z"
         style="font-weight:bold;font-size:4.064px;font-family:'Proxima Nova';dominant-baseline:alphabetic;text-anchor:middle;fill:#000099"
         id="path430" />
    </g>
  </g>
  <g
     transform="translate(22.86,119.5)"
     id="g10">
    <g
       aria-label="DHE"
       id="text8"
       style="font-weight:bold;font-size:4.064px;font-family:'Proxima Nova';dominant-baseline:hanging;text-anchor:middle;fill:#000099">
      <path
         d="m -3.8632449,2.7584481 h 1.0688321 c 0.849376,0 1.438656,-0.5364481 1.438656,-1.3533121 0,-0.816864 -0.58928,-1.35737602 -1.438656,-1.35737602 H -3.8632449 Z M -3.2861569,2.250448 V 0.55575999 h 0.4917441 c 0.556768,0 0.849376,0.36982402 0.849376,0.84937601 0,0.459232 -0.312928,0.845312 -0.849376,0.845312 z"
         style="font-weight:bold;font-size:4.064px;font-family:'Proxima Nova';dominant-baseline:hanging;text-anchor:middle;fill:#000099"
         id="path433" />
      <path
         d="M 0.91500319,2.7584481 H 1.4961552 V 0.04775998 H 0.91500319 V 1.112528 H -0.36515685 V 0.04775998 H -0.94224487 V 2.7584481 h 0.57708802 V 1.620528 h 1.28016004 z"
         style="font-weight:bold;font-size:4.064px;font-family:'Proxima Nova';dominant-baseline:hanging;text-anchor:middle;fill:#000099"
         id="path435" />
      <path
         d="M 2.0263802,2.7584481 H 3.9445883 V 2.258576 H 2.6034682 V 1.628656 H 3.9161403 V 1.132848 H 2.6034682 V 0.54356799 H 3.9445883 V 0.04775998 H 2.0263802 Z"
         style="font-weight:bold;font-size:4.064px;font-family:'Proxima Nova';dominant-baseline:hanging;text-anchor:middle;fill:#000099"
         id="path437" />
    </g>
  </g>
  <g
     transform="translate(7.62,15.12)"
     id="g14">
    <g
       aria-label="A"
       id="text12"
       style="font-weight:bold;font-size:2.371px;font-family:'Proxima Nova';dominant-baseline:alphabetic;text-anchor:middle;fill:#000099">
      <path
         d="M 0.45334262,0 H 0.82084763 L 0.21150061,-1.581457 H -0.2105374 L -0.82225541,0 h 0.36987601 l 0.099582,-0.27266501 H 0.35376062 Z M 4.8160939e-4,-1.289824 0.26129162,-0.56429801 H -0.2626994 Z"
         style="font-weight:bold;font-size:2.371px;font-family:'Proxima Nova';dominant-baseline:alphabetic;text-anchor:middle;fill:#000099"
         id="path440" />
    </g>
  </g>
  <g
     transform="translate(15.24,16.32)"
     id="g18">
    <g
       aria-label="¬"
       id="text16"
       style="font-weight:bold;font-size:2.371px;font-family:'Proxima Nova';dominant-baseline:alphabetic;text-anchor:middle;fill:#000099">
      <path
         d="M 0.51495157,-0.47657101 V -1.109628 h -1.05746602 v 0.18967998 h 0.86541502 v 0.44337701 z"
         style="font-weight:bold;font-size:2.371px;font-family:'Proxima Nova';dominant-baseline:alphabetic;text-anchor:middle;fill:#000099"
         id="path443" />
    </g>
  </g>
  <g
     transform="translate(30.48,16.32)"
     id="g22">
    <g
       aria-label="¬"
       id="text20"
       style="font-weight:bold;font-size:2.371px;font-family:'Proxima Nova';dominant-baseline:alphabetic;text-anchor:middle;fill:#000099">
      <path
         d="M 0.51495157,-0.47657101 V -1.109628 h -1.05746602 v 0.18967998 h 0.86541502 v 0.44337701 z"
         style="font-weight:bold;font-size:2.371px;font-family:'Proxima Nova';dominant-baseline:alphabetic;text-anchor:middle;fill:#000099"
         id="path446" />
    </g>
  </g>
  <g
     transform="translate(38.1,15.12)"
     id="g26">
    <g
       aria-label="C"
       id="text24"
       style="font-weight:bold;font-size:2.371px;font-family:'Proxima Nova';dominant-baseline:alphabetic;text-anchor:middle;fill:#000099">
      <path
         d="m 0.09543275,0.028452 c 0.36039201,0 0.55955601,-0.192051 0.67336402,-0.38884401 l -0.28926201,-0.139889 c -0.066388,0.130405 -0.208648,0.229987 -0.38410201,0.229987 -0.275036,0 -0.48368401,-0.220503 -0.48368401,-0.51924901 0,-0.29874598 0.20864801,-0.51924898 0.48368401,-0.51924898 0.17545401,0 0.31771401,0.101953 0.38410201,0.229987 l 0.28926201,-0.14226 C 0.65735976,-1.417858 0.45582476,-1.607538 0.09543275,-1.607538 c -0.46234501,0 -0.82985002,0.33194 -0.82985002,0.81799498 0,0.48605501 0.36750501,0.81799502 0.82985002,0.81799502 z"
         style="font-weight:bold;font-size:2.371px;font-family:'Proxima Nova';dominant-baseline:alphabetic;text-anchor:middle;fill:#000099"
         id="path449" />
    </g>
  </g>
  <g
     transform="translate(22.86,31.94)"
     id="g30">
    <g
       aria-label="BI"
       id="text28"
       style="font-weight:bold;font-size:2.371px;font-family:'Proxima Nova';dominant-baseline:hanging;text-anchor:middle;fill:#000099">
      <path
         d="m -0.95260484,1.609472 h 0.85830202 c 0.301117,0 0.45997401,-0.18968 0.45997401,-0.42678 0,-0.19916404 -0.13514701,-0.36276304 -0.30348801,-0.38884404 0.149373,-0.030823 0.27266501,-0.163599 0.27266501,-0.36276301 0,-0.211019 -0.15411501,-0.40307001 -0.45523201,-0.40307001 H -0.95260484 Z M -0.61592283,0.66344296 V 0.31490595 h 0.42203801 c 0.113808,0 0.184938,0.075872 0.184938,0.173083 0,0.101953 -0.07113,0.17545401 -0.184938,0.17545401 z m 0,0.65913804 V 0.95033396 h 0.43389301 c 0.132776,0 0.203906,0.085356 0.203906,0.18493804 0,0.113808 -0.075872,0.187309 -0.203906,0.187309 z"
         style="font-weight:bold;font-size:2.371px;font-family:'Proxima Nova';dominant-baseline:hanging;text-anchor:middle;fill:#000099"
         id="path452" />
      <path
         d="M 0.61725657,1.609472 H 0.95393858 V 0.02801494 H 0.61725657 Z"
         style="font-weight:bold;font-size:2.371px;font-family:'Proxima Nova';dominant-baseline:hanging;text-anchor:middle;fill:#000099"
         id="path454" />
    </g>
  </g>
  <g
     transform="translate(22.86,23.94)"
     id="g34">
    <g
       aria-label="UNI"
       id="text32"
       style="font-weight:bold;font-size:2.371px;font-family:'Proxima Nova';dominant-baseline:alphabetic;text-anchor:middle;fill:#000099">
      <path
         d="m -1.8949847,-0.63068601 c 0,0.388844 0.225245,0.65913801 0.708929,0.65913801 0.47894198,0 0.70418699,-0.26792301 0.70418699,-0.66150901 V -1.581457 h -0.34142401 v 0.93891599 c 0,0.220503 -0.120921,0.372247 -0.36276298,0.372247 -0.246584,0 -0.367505,-0.151744 -0.367505,-0.372247 V -1.581457 h -0.341424 z"
         style="font-weight:bold;font-size:2.371px;font-family:'Proxima Nova';dominant-baseline:alphabetic;text-anchor:middle;fill:#000099"
         id="path457" />
      <path
         d="M 0.92298582,0 H 1.2478128 V -1.581457 H 0.91113082 v 1.02427199 L 0.1784918,-1.581457 H -0.16767421 V 0 H 0.1690078 v -1.062208 z"
         style="font-weight:bold;font-size:2.371px;font-family:'Proxima Nova';dominant-baseline:alphabetic;text-anchor:middle;fill:#000099"
         id="path459" />
      <path
         d="m 1.5596363,0 h 0.336682 v -1.581457 h -0.336682 z"
         style="font-weight:bold;font-size:2.371px;font-family:'Proxima Nova';dominant-baseline:alphabetic;text-anchor:middle;fill:#000099"
         id="path461" />
    </g>
  </g>
  <g
     transform="translate(7.62,30.36)"
     id="g38">
    <g
       aria-label="B"
       id="text36"
       style="font-weight:bold;font-size:2.371px;font-family:'Proxima Nova';dominant-baseline:alphabetic;text-anchor:middle;fill:#000099">
      <path
         d="m -0.62844468,0 h 0.85830202 c 0.30111701,0 0.45997401,-0.18968 0.45997401,-0.42678001 0,-0.199164 -0.135147,-0.36276301 -0.30348801,-0.38884401 0.14937301,-0.030823 0.27266501,-0.163599 0.27266501,-0.36276298 0,-0.211019 -0.154115,-0.40307 -0.45523201,-0.40307 h -0.83222102 z m 0.33668201,-0.94602902 V -1.294566 h 0.42203801 c 0.113808,0 0.184938,0.075872 0.184938,0.173083 0,0.101953 -0.07113,0.17545398 -0.184938,0.17545398 z m 0,0.65913801 v -0.372247 h 0.43389301 c 0.132776,0 0.203906,0.085356 0.203906,0.184938 0,0.113808 -0.075872,0.187309 -0.203906,0.187309 z"
         style="font-weight:bold;font-size:2.371px;font-family:'Proxima Nova';dominant-baseline:alphabetic;text-anchor:middle;fill:#000099"
         id="path464" />
    </g>
  </g>
  <g
     transform="translate(15.24,31.56)"
     id="g42">
    <g
       aria-label="¬"
       id="text40"
       style="font-weight:bold;font-size:2.371px;font-family:'Proxima Nova';dominant-baseline:alphabetic;text-anchor:middle;fill:#000099">
      <path
         d="M 0.51495157,-0.47657101 V -1.109628 h -1.05746602 v 0.18967998 h 0.86541502 v 0.44337701 z"
         style="font-weight:bold;font-size:2.371px;font-family:'Proxima Nova';dominant-baseline:alphabetic;text-anchor:middle;fill:#000099"
         id="path467" />
    </g>
  </g>
  <g
     transform="translate(30.48,31.56)"
     id="g46">
    <g
       aria-label="¬"
       id="text44"
       style="font-weight:bold;font-size:2.371px;font-family:'Proxima Nova';dominant-baseline:alphabetic;text-anchor:middle;fill:#000099">
      <path
         d="M 0.51495157,-0.47657101 V -1.109628 h -1.05746602 v 0.18967998 h 0.86541502 v 0.44337701 z"
         style="font-weight:bold;font-size:2.371px;font-family:'Proxima Nova';dominant-baseline:alphabetic;text-anchor:middle;fill:#000099"
         id="path470" />
    </g>
  </g>
  <g
     transform="translate(38.1,30.36)"
     id="g50">
    <g
       aria-label="D"
       id="text48"
       style="font-weight:bold;font-size:2.371px;font-family:'Proxima Nova';dominant-baseline:alphabetic;text-anchor:middle;fill:#000099">
      <path
         d="m -0.69559214,0 h 0.62357301 c 0.49553901,0 0.83933402,-0.31297201 0.83933402,-0.78954302 0,-0.47657098 -0.34379501,-0.79191398 -0.83933402,-0.79191398 h -0.62357301 z m 0.33668201,-0.29637501 V -1.285082 h 0.286891 c 0.32482701,0 0.49553901,0.215761 0.49553901,0.49553898 0,0.26792301 -0.182567,0.49316801 -0.49553901,0.49316801 z"
         style="font-weight:bold;font-size:2.371px;font-family:'Proxima Nova';dominant-baseline:alphabetic;text-anchor:middle;fill:#000099"
         id="path473" />
    </g>
  </g>
  <rect
     x="2.420"
     y="43.020"
     width="10.400"
     height="12.980"
     fill="#000099"
     stroke="#000099"
     stroke-width="0.350"
     rx="1.000"
     ry="1.000"
     id="rect52" />
  <g
     transform="translate(7.62,45.6)"
     id="g56">
    <g
       aria-label="AND"
       id="text54"
       style="font-weight:bold;font-size:2.371px;font-family:'Proxima Nova';dominant-baseline:alphabetic;text-anchor:middle;fill:#f0f0ff">
      <path
         d="m -1.2623908,0 h 0.36750499 L -1.5042328,-1.581457 h -0.422038 L -2.5379888,0 h 0.369876 l 0.099582,-0.27266501 h 0.706558 z m -0.452861,-1.289824 0.26081,0.72552599 h -0.523991 z"
         style="font-weight:bold;font-size:2.371px;font-family:'Proxima Nova';dominant-baseline:alphabetic;text-anchor:middle;fill:#f0f0ff"
         id="path476" />
      <path
         d="m 0.34181304,0 h 0.324827 v -1.581457 h -0.336682 v 1.02427199 L -0.40268098,-1.581457 H -0.74884699 V 0 h 0.33668201 v -1.062208 z"
         style="font-weight:bold;font-size:2.371px;font-family:'Proxima Nova';dominant-baseline:alphabetic;text-anchor:middle;fill:#f0f0ff"
         id="path478" />
      <path
         d="M 0.97846355,0 H 1.6020366 c 0.495539,0 0.839334,-0.31297201 0.839334,-0.78954302 0,-0.47657098 -0.343795,-0.79191398 -0.839334,-0.79191398 H 0.97846355 Z M 1.3151456,-0.29637501 V -1.285082 h 0.286891 c 0.324827,0 0.495539,0.215761 0.495539,0.49553898 0,0.26792301 -0.182567,0.49316801 -0.495539,0.49316801 z"
         style="font-weight:bold;font-size:2.371px;font-family:'Proxima Nova';dominant-baseline:alphabetic;text-anchor:middle;fill:#f0f0ff"
         id="path480" />
    </g>
  </g>
  <rect
     x="11.310"
     y="43.020"
     width="10.400"
     height="12.980"
     fill="#000099"
     stroke="#000099"
     stroke-width="0.350"
     rx="1.000"
     ry="1.000"
     id="rect58" />
  <g
     transform="translate(16.51,45.6)"
     id="g62">
    <g
       aria-label="¬"
       id="text60"
       style="font-weight:bold;font-size:2.371px;font-family:'Proxima Nova';dominant-baseline:alphabetic;text-anchor:middle;fill:#f0f0ff">
      <path
         d="M 0.51495157,-0.47657101 V -1.109628 h -1.05746602 v 0.18967998 h 0.86541502 v 0.44337701 z"
         style="font-weight:bold;font-size:2.371px;font-family:'Proxima Nova';dominant-baseline:alphabetic;text-anchor:middle;fill:#f0f0ff"
         id="path483" />
    </g>
  </g>
  <rect
     x="24.010"
     y="43.020"
     width="10.400"
     height="12.980"
     fill="#000099"
     stroke="#000099"
     stroke-width="0.350"
     rx="1.000"
     ry="1.000"
     id="rect64" />
  <g
     transform="translate(29.21,45.6)"
     id="g68">
    <g
       aria-label="¬"
       id="text66"
       style="font-weight:bold;font-size:2.371px;font-family:'Proxima Nova';dominant-baseline:alphabetic;text-anchor:middle;fill:#f0f0ff">
      <path
         d="M 0.51495157,-0.47657101 V -1.109628 h -1.05746602 v 0.18967998 h 0.86541502 v 0.44337701 z"
         style="font-weight:bold;font-size:2.371px;font-family:'Proxima Nova';dominant-baseline:alphabetic;text-anchor:middle;fill:#f0f0ff"
         id="path486" />
    </g>
  </g>
  <rect
     x="32.900"
     y="43.020"
     width="10.400"
     height="12.980"
     fill="#000099"
     stroke="#000099"
     stroke-width="0.350"
     rx="1.000"
     ry="1.000"
     id="rect70" />
  <g
     transform="translate(38.1,45.6)"
     id="g74">
    <g
       aria-label="AND"
       id="text72"
       style="font-weight:bold;font-size:2.371px;font-family:'Proxima Nova';dominant-baseline:alphabetic;text-anchor:middle;fill:#f0f0ff">
      <path
         d="m -1.2623908,0 h 0.36750499 L -1.5042328,-1.581457 h -0.422038 L -2.5379888,0 h 0.369876 l 0.099582,-0.27266501 h 0.706558 z m -0.452861,-1.289824 0.26081,0.72552599 h -0.523991 z"
         style="font-weight:bold;font-size:2.371px;font-family:'Proxima Nova';dominant-baseline:alphabetic;text-anchor:middle;fill:#f0f0ff"
         id="path489" />
      <path
         d="m 0.34181304,0 h 0.324827 v -1.581457 h -0.336682 v 1.02427199 L -0.40268098,-1.581457 H -0.74884699 V 0 h 0.33668201 v -1.062208 z"
         style="font-weight:bold;font-size:2.371px;font-family:'Proxima Nova';dominant-baseline:alphabetic;text-anchor:middle;fill:#f0f0ff"
         id="path491" />
      <path
         d="M 0.97846355,0 H 1.6020366 c 0.495539,0 0.839334,-0.31297201 0.839334,-0.78954302 0,-0.47657098 -0.343795,-0.79191398 -0.839334,-0.79191398 H 0.97846355 Z M 1.3151456,-0.29637501 V -1.285082 h 0.286891 c 0.324827,0 0.495539,0.215761 0.495539,0.49553898 0,0.26792301 -0.182567,0.49316801 -0.495539,0.49316801 z"
         style="font-weight:bold;font-size:2.371px;font-family:'Proxima Nova';dominant-baseline:alphabetic;text-anchor:middle;fill:#f0f0ff"
         id="path493" />
    </g>
  </g>
  <rect
     x="2.420"
     y="58.260"
     width="10.400"
     height="12.980"
     fill="#000099"
     stroke="#000099"
     stroke-width="0.350"
     rx="1.000"
     ry="1.000"
     id="rect76" />
  <g
     transform="translate(7.62,60.84)"
     id="g80">
    <g
       aria-label="OR"
       id="text78"
       style="font-weight:bold;font-size:2.371px;font-family:'Proxima Nova';dominant-baseline:alphabetic;text-anchor:middle;fill:#f0f0ff">
      <path
         d="m -1.5888108,-0.78954302 c 0,0.47657101 0.348537,0.81799502 0.82510798,0.81799502 0.47894201,0 0.82747902,-0.34142401 0.82747902,-0.81799502 0,-0.47657098 -0.34853701,-0.81799498 -0.82747902,-0.81799498 -0.47657098,0 -0.82510798,0.341424 -0.82510798,0.81799498 z m 1.30642099,0 c 0,0.29400401 -0.18968,0.51924901 -0.48131301,0.51924901 -0.29163298,0 -0.47894198,-0.225245 -0.47894198,-0.51924901 0,-0.29637498 0.187309,-0.51924898 0.47894198,-0.51924898 0.29163301,0 0.48131301,0.222874 0.48131301,0.51924898 z"
         style="font-weight:bold;font-size:2.371px;font-family:'Proxima Nova';dominant-baseline:alphabetic;text-anchor:middle;fill:#f0f0ff"
         id="path496" />
      <path
         d="m 1.1962251,0 h 0.386473 l -0.35565,-0.60223401 c 0.170712,-0.040307 0.346166,-0.18968001 0.346166,-0.46945799 0,-0.294004 -0.201535,-0.509765 -0.531104,-0.509765 H 0.30235805 V 0 h 0.33668201 v -0.56666901 h 0.246584 z m 0.033194,-1.074063 c 0,0.13277598 -0.101953,0.21813198 -0.23710003,0.21813198 H 0.63904006 V -1.292195 h 0.35327901 c 0.13514703,0 0.23710003,0.085356 0.23710003,0.218132 z"
         style="font-weight:bold;font-size:2.371px;font-family:'Proxima Nova';dominant-baseline:alphabetic;text-anchor:middle;fill:#f0f0ff"
         id="path498" />
    </g>
  </g>
  <rect
     x="11.310"
     y="58.260"
     width="10.400"
     height="12.980"
     fill="#000099"
     stroke="#000099"
     stroke-width="0.350"
     rx="1.000"
     ry="1.000"
     id="rect82" />
  <g
     transform="translate(16.51,60.84)"
     id="g86">
    <g
       aria-label="¬"
       id="text84"
       style="font-weight:bold;font-size:2.371px;font-family:'Proxima Nova';dominant-baseline:alphabetic;text-anchor:middle;fill:#f0f0ff">
      <path
         d="M 0.51495157,-0.47657101 V -1.109628 h -1.05746602 v 0.18967998 h 0.86541502 v 0.44337701 z"
         style="font-weight:bold;font-size:2.371px;font-family:'Proxima Nova';dominant-baseline:alphabetic;text-anchor:middle;fill:#f0f0ff"
         id="path501" />
    </g>
  </g>
  <rect
     x="24.010"
     y="58.260"
     width="10.400"
     height="12.980"
     fill="#000099"
     stroke="#000099"
     stroke-width="0.350"
     rx="1.000"
     ry="1.000"
     id="rect88" />
  <g
     transform="translate(29.21,60.84)"
     id="g92">
    <g
       aria-label="¬"
       id="text90"
       style="font-weight:bold;font-size:2.371px;font-family:'Proxima Nova';dominant-baseline:alphabetic;text-anchor:middle;fill:#f0f0ff">
      <path
         d="M 0.51495157,-0.47657101 V -1.109628 h -1.05746602 v 0.18967998 h 0.86541502 v 0.44337701 z"
         style="font-weight:bold;font-size:2.371px;font-family:'Proxima Nova';dominant-baseline:alphabetic;text-anchor:middle;fill:#f0f0ff"
         id="path504" />
    </g>
  </g>
  <rect
     x="32.900"
     y="58.260"
     width="10.400"
     height="12.980"
     fill="#000099"
     stroke="#000099"
     stroke-width="0.350"
     rx="1.000"
     ry="1.000"
     id="rect94" />
  <g
     transform="translate(38.1,60.84)"
     id="g98">
    <g
       aria-label="OR"
       id="text96"
       style="font-weight:bold;font-size:2.371px;font-family:'Proxima Nova';dominant-baseline:alphabetic;text-anchor:middle;fill:#f0f0ff">
      <path
         d="m -1.5888108,-0.78954302 c 0,0.47657101 0.348537,0.81799502 0.82510798,0.81799502 0.47894201,0 0.82747902,-0.34142401 0.82747902,-0.81799502 0,-0.47657098 -0.34853701,-0.81799498 -0.82747902,-0.81799498 -0.47657098,0 -0.82510798,0.341424 -0.82510798,0.81799498 z m 1.30642099,0 c 0,0.29400401 -0.18968,0.51924901 -0.48131301,0.51924901 -0.29163298,0 -0.47894198,-0.225245 -0.47894198,-0.51924901 0,-0.29637498 0.187309,-0.51924898 0.47894198,-0.51924898 0.29163301,0 0.48131301,0.222874 0.48131301,0.51924898 z"
         style="font-weight:bold;font-size:2.371px;font-family:'Proxima Nova';dominant-baseline:alphabetic;text-anchor:middle;fill:#f0f0ff"
         id="path507" />
      <path
         d="m 1.1962251,0 h 0.386473 l -0.35565,-0.60223401 c 0.170712,-0.040307 0.346166,-0.18968001 0.346166,-0.46945799 0,-0.294004 -0.201535,-0.509765 -0.531104,-0.509765 H 0.30235805 V 0 h 0.33668201 v -0.56666901 h 0.246584 z m 0.033194,-1.074063 c 0,0.13277598 -0.101953,0.21813198 -0.23710003,0.21813198 H 0.63904006 V -1.292195 h 0.35327901 c 0.13514703,0 0.23710003,0.085356 0.23710003,0.218132 z"
         style="font-weight:bold;font-size:2.371px;font-family:'Proxima Nova';dominant-baseline:alphabetic;text-anchor:middle;fill:#f0f0ff"
         id="path509" />
    </g>
  </g>
  <rect
     x="2.420"
     y="73.500"
     width="10.400"
     height="12.980"
     fill="#000099"
     stroke="#000099"
     stroke-width="0.350"
     rx="1.000"
     ry="1.000"
     id="rect100" />
  <g
     transform="translate(7.62,76.08)"
     id="g104">
    <g
       aria-label="XOR"
       id="text102"
       style="font-weight:bold;font-size:2.371px;font-family:'Proxima Nova';dominant-baseline:alphabetic;text-anchor:middle;fill:#f0f0ff">
      <path
         d="m -1.2386993,0 h 0.40306997 L -1.4094113,-0.81325302 -0.87119433,-1.581457 H -1.2766353 l -0.358021,0.540588 -0.3627631,-0.540588 h -0.400699 l 0.538217,0.77057498 L -2.4336834,0 h 0.400699 l 0.3983281,-0.57852401 z"
         style="font-weight:bold;font-size:2.371px;font-family:'Proxima Nova';dominant-baseline:alphabetic;text-anchor:middle;fill:#f0f0ff"
         id="path512" />
      <path
         d="m -0.83166532,-0.78954302 c 0,0.47657101 0.34853701,0.81799502 0.82510802,0.81799502 0.47894201,0 0.82747902,-0.34142401 0.82747902,-0.81799502 0,-0.47657098 -0.34853701,-0.81799498 -0.82747902,-0.81799498 -0.47657101,0 -0.82510802,0.341424 -0.82510802,0.81799498 z m 1.30642103,0 c 0,0.29400401 -0.18968,0.51924901 -0.48131301,0.51924901 -0.291633,0 -0.47894201,-0.225245 -0.47894201,-0.51924901 0,-0.29637498 0.18730901,-0.51924898 0.47894201,-0.51924898 0.29163301,0 0.48131301,0.222874 0.48131301,0.51924898 z"
         style="font-weight:bold;font-size:2.371px;font-family:'Proxima Nova';dominant-baseline:alphabetic;text-anchor:middle;fill:#f0f0ff"
         id="path514" />
      <path
         d="m 1.9533706,0 h 0.386473 l -0.35565,-0.60223401 c 0.170712,-0.040307 0.346166,-0.18968001 0.346166,-0.46945799 0,-0.294004 -0.201535,-0.509765 -0.531104,-0.509765 H 1.0595036 V 0 h 0.336682 v -0.56666901 h 0.246584 z m 0.033194,-1.074063 c 0,0.13277598 -0.101953,0.21813198 -0.2371,0.21813198 H 1.3961856 V -1.292195 h 0.353279 c 0.135147,0 0.2371,0.085356 0.2371,0.218132 z"
         style="font-weight:bold;font-size:2.371px;font-family:'Proxima Nova';dominant-baseline:alphabetic;text-anchor:middle;fill:#f0f0ff"
         id="path516" />
    </g>
  </g>
  <rect
     x="11.310"
     y="73.500"
     width="10.400"
     height="12.980"
     fill="#000099"
     stroke="#000099"
     stroke-width="0.350"
     rx="1.000"
     ry="1.000"
     id="rect106" />
  <g
     transform="translate(16.51,76.08)"
     id="g110">
    <g
       aria-label="¬"
       id="text108"
       style="font-weight:bold;font-size:2.371px;font-family:'Proxima Nova';dominant-baseline:alphabetic;text-anchor:middle;fill:#f0f0ff">
      <path
         d="M 0.51495157,-0.47657101 V -1.109628 h -1.05746602 v 0.18967998 h 0.86541502 v 0.44337701 z"
         style="font-weight:bold;font-size:2.371px;font-family:'Proxima Nova';dominant-baseline:alphabetic;text-anchor:middle;fill:#f0f0ff"
         id="path519" />
    </g>
  </g>
  <rect
     x="24.010"
     y="73.500"
     width="10.400"
     height="12.980"
     fill="#000099"
     stroke="#000099"
     stroke-width="0.350"
     rx="1.000"
     ry="1.000"
     id="rect112" />
  <g
     transform="translate(29.21,76.08)"
     id="g116">
    <g
       aria-label="¬"
       id="text114"
       style="font-weight:bold;font-size:2.371px;font-family:'Proxima Nova';dominant-baseline:alphabetic;text-anchor:middle;fill:#f0f0ff">
      <path
         d="M 0.51495157,-0.47657101 V -1.109628 h -1.05746602 v 0.18967998 h 0.86541502 v 0.44337701 z"
         style="font-weight:bold;font-size:2.371px;font-family:'Proxima Nova';dominant-baseline:alphabetic;text-anchor:middle;fill:#f0f0ff"
         id="path522" />
    </g>
  </g>
  <rect
     x="32.900"
     y="73.500"
     width="10.400"
     height="12.980"
     fill="#000099"
     stroke="#000099"
     stroke-width="0.350"
     rx="1.000"
     ry="1.000"
     id="rect118" />
  <g
     transform="translate(38.1,76.08)"
     id="g122">
    <g
       aria-label="XOR"
       id="text120"
       style="font-weight:bold;font-size:2.371px;font-family:'Proxima Nova';dominant-baseline:alphabetic;text-anchor:middle;fill:#f0f0ff">
      <path
         d="m -1.2386993,0 h 0.40306997 L -1.4094113,-0.81325302 -0.87119433,-1.581457 H -1.2766353 l -0.358021,0.540588 -0.3627631,-0.540588 h -0.400699 l 0.538217,0.77057498 L -2.4336834,0 h 0.400699 l 0.3983281,-0.57852401 z"
         style="font-weight:bold;font-size:2.371px;font-family:'Proxima Nova';dominant-baseline:alphabetic;text-anchor:middle;fill:#f0f0ff"
         id="path525" />
      <path
         d="m -0.83166532,-0.78954302 c 0,0.47657101 0.34853701,0.81799502 0.82510802,0.81799502 0.47894201,0 0.82747902,-0.34142401 0.82747902,-0.81799502 0,-0.47657098 -0.34853701,-0.81799498 -0.82747902,-0.81799498 -0.47657101,0 -0.82510802,0.341424 -0.82510802,0.81799498 z m 1.30642103,0 c 0,0.29400401 -0.18968,0.51924901 -0.48131301,0.51924901 -0.291633,0 -0.47894201,-0.225245 -0.47894201,-0.51924901 0,-0.29637498 0.18730901,-0.51924898 0.47894201,-0.51924898 0.29163301,0 0.48131301,0.222874 0.48131301,0.51924898 z"
         style="font-weight:bold;font-size:2.371px;font-family:'Proxima Nova';dominant-baseline:alphabetic;text-anchor:middle;fill:#f0f0ff"
         id="path527" />
      <path
         d="m 1.9533706,0 h 0.386473 l -0.35565,-0.60223401 c 0.170712,-0.040307 0.346166,-0.18968001 0.346166,-0.46945799 0,-0.294004 -0.201535,-0.509765 -0.531104,-0.509765 H 1.0595036 V 0 h 0.336682 v -0.56666901 h 0.246584 z m 0.033194,-1.074063 c 0,0.13277598 -0.101953,0.21813198 -0.2371,0.21813198 H 1.3961856 V -1.292195 h 0.353279 c 0.135147,0 0.2371,0.085356 0.2371,0.218132 z"
         style="font-weight:bold;font-size:2.371px;font-family:'Proxima Nova';dominant-baseline:alphabetic;text-anchor:middle;fill:#f0f0ff"
         id="path529" />
    </g>
  </g>
  <rect
     x="2.420"
     y="88.740"
     width="10.400"
     height="12.980"
     fill="#000099"
     stroke="#000099"
     stroke-width="0.350"
     rx="1.000"
     ry="1.000"
     id="rect124" />
  <g
     transform="translate(7.62,91.32)"
     id="g128">
    <g
       aria-label="A ⊲ B"
       id="text126"
       style="font-weight:bold;font-size:2.371px;font-family:'Proxima Nova';dominant-baseline:alphabetic;text-anchor:middle;fill:#f0f0ff">
      <path
         d="M -1.635175,0 H -1.26767 L -1.877017,-1.581457 H -2.299055 L -2.910773,0 h 0.369876 l 0.099582,-0.27266501 h 0.706558 z m -0.452861,-1.289824 0.26081,0.72552599 h -0.523991 z"
         style="font-weight:bold;font-size:2.371px;font-family:'Proxima Nova';dominant-baseline:alphabetic;text-anchor:middle;fill:#f0f0ff"
         id="path532" />
      <path
         d="M -0.54344057,0.054533 0.72504446,-0.67810601 -0.54344057,-1.410745 Z"
         style="font-weight:bold;font-size:2.371px;font-family:'Proxima Nova';dominant-baseline:alphabetic;text-anchor:middle;fill:#f0f0ff"
         id="path534" />
      <path
         d="m 1.4855429,0 h 0.858302 c 0.301117,0 0.459974,-0.18968 0.459974,-0.42678001 0,-0.199164 -0.135147,-0.36276301 -0.303488,-0.38884401 0.149373,-0.030823 0.272665,-0.163599 0.272665,-0.36276298 0,-0.211019 -0.154115,-0.40307 -0.455232,-0.40307 h -0.832221 z m 0.336682,-0.94602902 V -1.294566 h 0.422038 c 0.113808,0 0.184938,0.075872 0.184938,0.173083 0,0.101953 -0.07113,0.17545398 -0.184938,0.17545398 z m 0,0.65913801 v -0.372247 h 0.433893 c 0.132776,0 0.203906,0.085356 0.203906,0.184938 0,0.113808 -0.075872,0.187309 -0.203906,0.187309 z"
         style="font-weight:bold;font-size:2.371px;font-family:'Proxima Nova';dominant-baseline:alphabetic;text-anchor:middle;fill:#f0f0ff"
         id="path536" />
    </g>
  </g>
  <rect
     x="11.310"
     y="88.740"
     width="10.400"
     height="12.980"
     fill="#000099"
     stroke="#000099"
     stroke-width="0.350"
     rx="1.000"
     ry="1.000"
     id="rect130" />
  <g
     transform="translate(16.51,91.32)"
     id="g134">
    <g
       aria-label="¬"
       id="text132"
       style="font-weight:bold;font-size:2.371px;font-family:'Proxima Nova';dominant-baseline:alphabetic;text-anchor:middle;fill:#f0f0ff">
      <path
         d="M 0.51495157,-0.47657101 V -1.109628 h -1.05746602 v 0.18967998 h 0.86541502 v 0.44337701 z"
         style="font-weight:bold;font-size:2.371px;font-family:'Proxima Nova';dominant-baseline:alphabetic;text-anchor:middle;fill:#f0f0ff"
         id="path539" />
    </g>
  </g>
  <rect
     x="24.010"
     y="88.740"
     width="10.400"
     height="12.980"
     fill="#000099"
     stroke="#000099"
     stroke-width="0.350"
     rx="1.000"
     ry="1.000"
     id="rect136" />
  <g
     transform="translate(29.21,91.32)"
     id="g140">
    <g
       aria-label="¬"
       id="text138"
       style="font-weight:bold;font-size:2.371px;font-family:'Proxima Nova';dominant-baseline:alphabetic;text-anchor:middle;fill:#f0f0ff">
      <path
         d="M 0.51495157,-0.47657101 V -1.109628 h -1.05746602 v 0.18967998 h 0.86541502 v 0.44337701 z"
         style="font-weight:bold;font-size:2.371px;font-family:'Proxima Nova';dominant-baseline:alphabetic;text-anchor:middle;fill:#f0f0ff"
         id="path542" />
    </g>
  </g>
  <rect
     x="32.900"
     y="88.740"
     width="10.400"
     height="12.980"
     fill="#000099"
     stroke="#000099"
     stroke-width="0.350"
     rx="1.000"
     ry="1.000"
     id="rect142" />
  <g
     transform="translate(38.1,91.32)"
     id="g146">
    <g
       aria-label="C ⊲ D"
       id="text144"
       style="font-weight:bold;font-size:2.371px;font-family:'Proxima Nova';dominant-baseline:alphabetic;text-anchor:middle;fill:#f0f0ff">
      <path
         d="m -2.0602323,0.028452 c 0.360392,0 0.559556,-0.192051 0.673364,-0.38884401 l -0.289262,-0.139889 c -0.066388,0.130405 -0.208648,0.229987 -0.384102,0.229987 -0.275036,0 -0.483684,-0.220503 -0.483684,-0.51924901 0,-0.29874598 0.208648,-0.51924898 0.483684,-0.51924898 0.175454,0 0.317714,0.101953 0.384102,0.229987 l 0.289262,-0.14226 c -0.111437,-0.196793 -0.312972,-0.386473 -0.673364,-0.386473 -0.462345,0 -0.8298501,0.33194 -0.8298501,0.81799498 0,0.48605501 0.3675051,0.81799502 0.8298501,0.81799502 z"
         style="font-weight:bold;font-size:2.371px;font-family:'Proxima Nova';dominant-baseline:alphabetic;text-anchor:middle;fill:#f0f0ff"
         id="path545" />
      <path
         d="M -0.60595705,0.054533 0.66252798,-0.67810601 -0.60595705,-1.410745 Z"
         style="font-weight:bold;font-size:2.371px;font-family:'Proxima Nova';dominant-baseline:alphabetic;text-anchor:middle;fill:#f0f0ff"
         id="path547" />
      <path
         d="m 1.4230261,0 h 0.6235731 c 0.495539,0 0.839334,-0.31297201 0.839334,-0.78954302 0,-0.47657098 -0.343795,-0.79191398 -0.839334,-0.79191398 H 1.4230261 Z M 1.7597082,-0.29637501 V -1.285082 h 0.286891 c 0.324827,0 0.495539,0.215761 0.495539,0.49553898 0,0.26792301 -0.182567,0.49316801 -0.495539,0.49316801 z"
         style="font-weight:bold;font-size:2.371px;font-family:'Proxima Nova';dominant-baseline:alphabetic;text-anchor:middle;fill:#f0f0ff"
         id="path549" />
    </g>
  </g>
  <rect
     x="2.420"
     y="103.980"
     width="10.400"
     height="12.980"
     fill="#000099"
     stroke="#000099"
     stroke-width="0.350"
     rx="1.000"
     ry="1.000"
     id="rect148" />
  <g
     transform="translate(7.62,106.56)"
     id="g152">
    <g
       aria-label="A ⊳ B"
       id="text150"
       style="font-weight:bold;font-size:2.371px;font-family:'Proxima Nova';dominant-baseline:alphabetic;text-anchor:middle;fill:#f0f0ff">
      <path
         d="M -1.635175,0 H -1.26767 L -1.877017,-1.581457 H -2.299055 L -2.910773,0 h 0.369876 l 0.099582,-0.27266501 h 0.706558 z m -0.452861,-1.289824 0.26081,0.72552599 h -0.523991 z"
         style="font-weight:bold;font-size:2.371px;font-family:'Proxima Nova';dominant-baseline:alphabetic;text-anchor:middle;fill:#f0f0ff"
         id="path552" />
      <path
         d="m 0.59701045,0.054533 v -1.465278 l -1.26848503,0.73263899 z"
         style="font-weight:bold;font-size:2.371px;font-family:'Proxima Nova';dominant-baseline:alphabetic;text-anchor:middle;fill:#f0f0ff"
         id="path554" />
      <path
         d="m 1.4855429,0 h 0.858302 c 0.301117,0 0.459974,-0.18968 0.459974,-0.42678001 0,-0.199164 -0.135147,-0.36276301 -0.303488,-0.38884401 0.149373,-0.030823 0.272665,-0.163599 0.272665,-0.36276298 0,-0.211019 -0.154115,-0.40307 -0.455232,-0.40307 h -0.832221 z m 0.336682,-0.94602902 V -1.294566 h 0.422038 c 0.113808,0 0.184938,0.075872 0.184938,0.173083 0,0.101953 -0.07113,0.17545398 -0.184938,0.17545398 z m 0,0.65913801 v -0.372247 h 0.433893 c 0.132776,0 0.203906,0.085356 0.203906,0.184938 0,0.113808 -0.075872,0.187309 -0.203906,0.187309 z"
         style="font-weight:bold;font-size:2.371px;font-family:'Proxima Nova';dominant-baseline:alphabetic;text-anchor:middle;fill:#f0f0ff"
         id="path556" />
    </g>
  </g>
  <rect
     x="11.310"
     y="103.980"
     width="10.400"
     height="12.980"
     fill="#000099"
     stroke="#000099"
     stroke-width="0.350"
     rx="1.000"
     ry="1.000"
     id="rect154" />
  <g
     transform="translate(16.51,106.56)"
     id="g158">
    <g
       aria-label="¬"
       id="text156"
       style="font-weight:bold;font-size:2.371px;font-family:'Proxima Nova';dominant-baseline:alphabetic;text-anchor:middle;fill:#f0f0ff">
      <path
         d="M 0.51495157,-0.47657101 V -1.109628 h -1.05746602 v 0.18967998 h 0.86541502 v 0.44337701 z"
         style="font-weight:bold;font-size:2.371px;font-family:'Proxima Nova';dominant-baseline:alphabetic;text-anchor:middle;fill:#f0f0ff"
         id="path559" />
    </g>
  </g>
  <rect
     x="24.010"
     y="103.980"
     width="10.400"
     height="12.980"
     fill="#000099"
     stroke="#000099"
     stroke-width="0.350"
     rx="1.000"
     ry="1.000"
     id="rect160" />
  <g
     transform="translate(29.21,106.56)"
     id="g164">
    <g
       aria-label="¬"
       id="text162"
       style="font-weight:bold;font-size:2.371px;font-family:'Proxima Nova';dominant-baseline:alphabetic;text-anchor:middle;fill:#f0f0ff">
      <path
         d="M 0.51495157,-0.47657101 V -1.109628 h -1.05746602 v 0.18967998 h 0.86541502 v 0.44337701 z"
         style="font-weight:bold;font-size:2.371px;font-family:'Proxima Nova';dominant-baseline:alphabetic;text-anchor:middle;fill:#f0f0ff"
         id="path562" />
    </g>
  </g>
  <rect
     x="32.900"
     y="103.980"
     width="10.400"
     height="12.980"
     fill="#000099"
     stroke="#000099"
     stroke-width="0.350"
     rx="1.000"
     ry="1.000"
     id="rect166" />
  <g
     transform="translate(38.1,106.56)"
     id="g170">
    <g
       aria-label="C ⊳ D"
       id="text168"
       style="font-weight:bold;font-size:2.371px;font-family:'Proxima Nova';dominant-baseline:alphabetic;text-anchor:middle;fill:#f0f0ff">
      <path
         d="m -2.0602323,0.028452 c 0.360392,0 0.559556,-0.192051 0.673364,-0.38884401 l -0.289262,-0.139889 c -0.066388,0.130405 -0.208648,0.229987 -0.384102,0.229987 -0.275036,0 -0.483684,-0.220503 -0.483684,-0.51924901 0,-0.29874598 0.208648,-0.51924898 0.483684,-0.51924898 0.175454,0 0.317714,0.101953 0.384102,0.229987 l 0.289262,-0.14226 c -0.111437,-0.196793 -0.312972,-0.386473 -0.673364,-0.386473 -0.462345,0 -0.8298501,0.33194 -0.8298501,0.81799498 0,0.48605501 0.3675051,0.81799502 0.8298501,0.81799502 z"
         style="font-weight:bold;font-size:2.371px;font-family:'Proxima Nova';dominant-baseline:alphabetic;text-anchor:middle;fill:#f0f0ff"
         id="path565" />
      <path
         d="m 0.53449398,0.054533 v -1.465278 l -1.26848503,0.73263899 z"
         style="font-weight:bold;font-size:2.371px;font-family:'Proxima Nova';dominant-baseline:alphabetic;text-anchor:middle;fill:#f0f0ff"
         id="path567" />
      <path
         d="m 1.4230261,0 h 0.6235731 c 0.495539,0 0.839334,-0.31297201 0.839334,-0.78954302 0,-0.47657098 -0.343795,-0.79191398 -0.839334,-0.79191398 H 1.4230261 Z M 1.7597082,-0.29637501 V -1.285082 h 0.286891 c 0.324827,0 0.495539,0.215761 0.495539,0.49553898 0,0.26792301 -0.182567,0.49316801 -0.495539,0.49316801 z"
         style="font-weight:bold;font-size:2.371px;font-family:'Proxima Nova';dominant-baseline:alphabetic;text-anchor:middle;fill:#f0f0ff"
         id="path569" />
    </g>
  </g>
  <g
     transform="translate(7.62,20.32)"
     id="g178">
    <path
       id="circle172"
       style="fill:#000099;stroke:none;stroke-width:0"
       d="M 4.1999998,0 A 4.1999998,4.1999998 0 0 1 0,4.1999998 4.1999998,4.1999998 0 0 1 -4.1999998,0 4.1999998,4.1999998 0 0 1 0,-4.1999998 4.1999998,4.1999998 0 0 1 4.1999998,0 Z" />
    <path
       id="circle174"
       style="fill:none;stroke:#f0f0ff;stroke-width:0.95"
       d="M 3.5,0 A 3.5,3.5 0 0 1 0,3.5 3.5,3.5 0 0 1 -3.5,0 3.5,3.5 0 0 1 0,-3.5 3.5,3.5 0 0 1 3.5,0 Z" />
    <path
       id="circle176"
       style="fill:none;stroke:#f0f0ff;stroke-width:0.95"
       d="M 2.325,0 A 2.325,2.325 0 0 1 0,2.325 2.325,2.325 0 0 1 -2.325,0 2.325,2.325 0 0 1 0,-2.325 2.325,2.325 0 0 1 2.325,0 Z" />
  </g>
  <g
     transform="translate(15.24,20.32)"
     id="g184">
    <path
       id="circle180"
       style="fill:#000099;stroke:none;stroke-width:0"
       d="M 3,0 A 3,3 0 0 1 0,3 3,3 0 0 1 -3,0 3,3 0 0 1 0,-3 3,3 0 0 1 3,0 Z" />
    <path
       id="circle182"
       style="fill:#000099;stroke:none;stroke-width:0"
       d="M 2,0 A 2,2 0 0 1 0,2 2,2 0 0 1 -2,0 2,2 0 0 1 0,-2 2,2 0 0 1 2,0 Z" />
  </g>
  <g
     transform="translate(30.48,20.32)"
     id="g190">
    <path
       id="circle186"
       style="fill:#000099;stroke:none;stroke-width:0"
       d="M 3,0 A 3,3 0 0 1 0,3 3,3 0 0 1 -3,0 3,3 0 0 1 0,-3 3,3 0 0 1 3,0 Z" />
    <path
       id="circle188"
       style="fill:#000099;stroke:none;stroke-width:0"
       d="M 2,0 A 2,2 0 0 1 0,2 2,2 0 0 1 -2,0 2,2 0 0 1 0,-2 2,2 0 0 1 2,0 Z" />
  </g>
  <g
     transform="translate(38.1,20.32)"
     id="g198">
    <path
       id="circle192"
       style="fill:#000099;stroke:none;stroke-width:0"
       d="M 4.1999998,0 A 4.1999998,4.1999998 0 0 1 0,4.1999998 4.1999998,4.1999998 0 0 1 -4.1999998,0 4.1999998,4.1999998 0 0 1 0,-4.1999998 4.1999998,4.1999998 0 0 1 4.1999998,0 Z" />
    <path
       id="circle194"
       style="fill:none;stroke:#f0f0ff;stroke-width:0.95"
       d="M 3.5,0 A 3.5,3.5 0 0 1 0,3.5 3.5,3.5 0 0 1 -3.5,0 3.5,3.5 0 0 1 0,-3.5 3.5,3.5 0 0 1 3.5,0 Z" />
    <path
       id="circle196"
       style="fill:none;stroke:#f0f0ff;stroke-width:0.95"
       d="M 2.325,0 A 2.325,2.325 0 0 1 0,2.325 2.325,2.325 0 0 1 -2.325,0 2.325,2.325 0 0 1 0,-2.325 2.325,2.325 0 0 1 2.325,0 Z" />
  </g>
  <g
     transform="translate(22.86,27.94)"
     id="g212">
    <path
       id="rect200"
       style="fill:#f0f0ff;stroke:#000099;stroke-width:0.375"
       d="m -1.124,-2.812 h 2.249 c 0.104152,0 0.188,0.083848 0.188,0.188 v 5.249 c 0,0.104152 -0.083848,0.188 -0.188,0.188 h -2.249 c -0.104152,0 -0.188,-0.083848 -0.188,-0.188 v -5.249 c 0,-0.104152 0.083848,-0.188 0.188,-0.188 z" />
    <path
       id="line202"
       style="stroke:#000099;stroke-width:0.25;stroke-linecap:round"
       d="M -0.81199998,-2.25 H 0.81199998" />
    <path
       id="line204"
       style="stroke:#000099;stroke-width:0.25;stroke-linecap:round"
       d="M -0.81199998,-1.75 H 0.81199998" />
    <path
       id="line206"
       style="stroke:#000099;stroke-width:0.25;stroke-linecap:round"
       d="M -0.81199998,-1.25 H 0.81199998" />
    <path
       id="line208"
       style="stroke:#000099;stroke-width:0.25;stroke-linecap:round"
       d="M -0.81199998,-0.75 H 0.81199998" />
    <path
       id="line210"
       style="stroke:#000099;stroke-width:0.25;stroke-linecap:round"
       d="M -0.81199998,-0.25 H 0.81199998" />
  </g>
  <g
     transform="translate(7.62,35.56)"
     id="g220">
    <path
       id="circle214"
       style="fill:#000099;stroke:none;stroke-width:0"
       d="M 4.1999998,0 A 4.1999998,4.1999998 0 0 1 0,4.1999998 4.1999998,4.1999998 0 0 1 -4.1999998,0 4.1999998,4.1999998 0 0 1 0,-4.1999998 4.1999998,4.1999998 0 0 1 4.1999998,0 Z" />
    <path
       id="circle216"
       style="fill:none;stroke:#f0f0ff;stroke-width:0.95"
       d="M 3.5,0 A 3.5,3.5 0 0 1 0,3.5 3.5,3.5 0 0 1 -3.5,0 3.5,3.5 0 0 1 0,-3.5 3.5,3.5 0 0 1 3.5,0 Z" />
    <path
       id="circle218"
       style="fill:none;stroke:#f0f0ff;stroke-width:0.95"
       d="M 2.325,0 A 2.325,2.325 0 0 1 0,2.325 2.325,2.325 0 0 1 -2.325,0 2.325,2.325 0 0 1 0,-2.325 2.325,2.325 0 0 1 2.325,0 Z" />
  </g>
  <g
     transform="translate(15.24,35.56)"
     id="g226">
    <path
       id="circle222"
       style="fill:#000099;stroke:none;stroke-width:0"
       d="M 3,0 A 3,3 0 0 1 0,3 3,3 0 0 1 -3,0 3,3 0 0 1 0,-3 3,3 0 0 1 3,0 Z" />
    <path
       id="circle224"
       style="fill:#000099;stroke:none;stroke-width:0"
       d="M 2,0 A 2,2 0 0 1 0,2 2,2 0 0 1 -2,0 2,2 0 0 1 0,-2 2,2 0 0 1 2,0 Z" />
  </g>
  <g
     transform="translate(30.48,35.56)"
     id="g232">
    <path
       id="circle228"
       style="fill:#000099;stroke:none;stroke-width:0"
       d="M 3,0 A 3,3 0 0 1 0,3 3,3 0 0 1 -3,0 3,3 0 0 1 0,-3 3,3 0 0 1 3,0 Z" />
    <path
       id="circle230"
       style="fill:#000099;stroke:none;stroke-width:0"
       d="M 2,0 A 2,2 0 0 1 0,2 2,2 0 0 1 -2,0 2,2 0 0 1 0,-2 2,2 0 0 1 2,0 Z" />
  </g>
  <g
     transform="translate(38.1,35.56)"
     id="g240">
    <path
       id="circle234"
       style="fill:#000099;stroke:none;stroke-width:0"
       d="M 4.1999998,0 A 4.1999998,4.1999998 0 0 1 0,4.1999998 4.1999998,4.1999998 0 0 1 -4.1999998,0 4.1999998,4.1999998 0 0 1 0,-4.1999998 4.1999998,4.1999998 0 0 1 4.1999998,0 Z" />
    <path
       id="circle236"
       style="fill:none;stroke:#f0f0ff;stroke-width:0.95"
       d="M 3.5,0 A 3.5,3.5 0 0 1 0,3.5 3.5,3.5 0 0 1 -3.5,0 3.5,3.5 0 0 1 0,-3.5 3.5,3.5 0 0 1 3.5,0 Z" />
    <path
       id="circle238"
       style="fill:none;stroke:#f0f0ff;stroke-width:0.95"
       d="M 2.325,0 A 2.325,2.325 0 0 1 0,2.325 2.325,2.325 0 0 1 -2.325,0 2.325,2.325 0 0 1 0,-2.325 2.325,2.325 0 0 1 2.325,0 Z" />
  </g>
  <g
     transform="translate(7.62,50.8)"
     id="g248">
    <path
       id="circle242"
       style="fill:#000099;stroke:none;stroke-width:0"
       d="M 4.1999998,0 A 4.1999998,4.1999998 0 0 1 0,4.1999998 4.1999998,4.1999998 0 0 1 -4.1999998,0 4.1999998,4.1999998 0 0 1 0,-4.1999998 4.1999998,4.1999998 0 0 1 4.1999998,0 Z" />
    <path
       id="circle244"
       style="fill:none;stroke:#f0f0ff;stroke-width:0.95"
       d="M 3.5,0 A 3.5,3.5 0 0 1 0,3.5 3.5,3.5 0 0 1 -3.5,0 3.5,3.5 0 0 1 0,-3.5 3.5,3.5 0 0 1 3.5,0 Z" />
    <path
       id="circle246"
       style="fill:none;stroke:#f0f0ff;stroke-width:0.95"
       d="M 2.325,0 A 2.325,2.325 0 0 1 0,2.325 2.325,2.325 0 0 1 -2.325,0 2.325,2.325 0 0 1 0,-2.325 2.325,2.325 0 0 1 2.325,0 Z" />
  </g>
  <g
     transform="translate(16.51,50.8)"
     id="g256">
    <path
       id="circle250"
       style="fill:#000099;stroke:none;stroke-width:0"
       d="M 4.1999998,0 A 4.1999998,4.1999998 0 0 1 0,4.1999998 4.1999998,4.1999998 0 0 1 -4.1999998,0 4.1999998,4.1999998 0 0 1 0,-4.1999998 4.1999998,4.1999998 0 0 1 4.1999998,0 Z" />
    <path
       id="circle252"
       style="fill:none;stroke:#f0f0ff;stroke-width:0.95"
       d="M 3.5,0 A 3.5,3.5 0 0 1 0,3.5 3.5,3.5 0 0 1 -3.5,0 3.5,3.5 0 0 1 0,-3.5 3.5,3.5 0 0 1 3.5,0 Z" />
    <path
       id="circle254"
       style="fill:none;stroke:#f0f0ff;stroke-width:0.95"
       d="M 2.325,0 A 2.325,2.325 0 0 1 0,2.325 2.325,2.325 0 0 1 -2.325,0 2.325,2.325 0 0 1 0,-2.325 2.325,2.325 0 0 1 2.325,0 Z" />
  </g>
  <g
     transform="translate(29.21,50.8)"
     id="g264">
    <path
       id="circle258"
       style="fill:#000099;stroke:none;stroke-width:0"
       d="M 4.1999998,0 A 4.1999998,4.1999998 0 0 1 0,4.1999998 4.1999998,4.1999998 0 0 1 -4.1999998,0 4.1999998,4.1999998 0 0 1 0,-4.1999998 4.1999998,4.1999998 0 0 1 4.1999998,0 Z" />
    <path
       id="circle260"
       style="fill:none;stroke:#f0f0ff;stroke-width:0.95"
       d="M 3.5,0 A 3.5,3.5 0 0 1 0,3.5 3.5,3.5 0 0 1 -3.5,0 3.5,3.5 0 0 1 0,-3.5 3.5,3.5 0 0 1 3.5,0 Z" />
    <path
       id="circle262"
       style="fill:none;stroke:#f0f0ff;stroke-width:0.95"
       d="M 2.325,0 A 2.325,2.325 0 0 1 0,2.325 2.325,2.325 0 0 1 -2.325,0 2.325,2.325 0 0 1 0,-2.325 2.325,2.325 0 0 1 2.325,0 Z" />
  </g>
  <g
     transform="translate(38.1,50.8)"
     id="g272">
    <path
       id="circle266"
       style="fill:#000099;stroke:none;stroke-width:0"
       d="M 4.1999998,0 A 4.1999998,4.1999998 0 0 1 0,4.1999998 4.1999998,4.1999998 0 0 1 -4.1999998,0 4.1999998,4.1999998 0 0 1 0,-4.1999998 4.1999998,4.1999998 0 0 1 4.1999998,0 Z" />
    <path
       id="circle268"
       style="fill:none;stroke:#f0f0ff;stroke-width:0.95"
       d="M 3.5,0 A 3.5,3.5 0 0 1 0,3.5 3.5,3.5 0 0 1 -3.5,0 3.5,3.5 0 0 1 0,-3.5 3.5,3.5 0 0 1 3.5,0 Z" />
    <path
       id="circle270"
       style="fill:none;stroke:#f0f0ff;stroke-width:0.95"
       d="M 2.325,0 A 2.325,2.325 0 0 1 0,2.325 2.325,2.325 0 0 1 -2.325,0 2.325,2.325 0 0 1 0,-2.325 2.325,2.325 0 0 1 2.325,0 Z" />
  </g>
  <g
     transform="translate(7.62,66.04)"
     id="g280">
    <path
       id="circle274"
       style="fill:#000099;stroke:none;stroke-width:0"
       d="M 4.1999998,0 A 4.1999998,4.1999998 0 0 1 0,4.1999998 4.1999998,4.1999998 0 0 1 -4.1999998,0 4.1999998,4.1999998 0 0 1 0,-4.1999998 4.1999998,4.1999998 0 0 1 4.1999998,0 Z" />
    <path
       id="circle276"
       style="fill:none;stroke:#f0f0ff;stroke-width:0.95"
       d="M 3.5,0 A 3.5,3.5 0 0 1 0,3.5 3.5,3.5 0 0 1 -3.5,0 3.5,3.5 0 0 1 0,-3.5 3.5,3.5 0 0 1 3.5,0 Z" />
    <path
       id="circle278"
       style="fill:none;stroke:#f0f0ff;stroke-width:0.95"
       d="M 2.325,0 A 2.325,2.325 0 0 1 0,2.325 2.325,2.325 0 0 1 -2.325,0 2.325,2.325 0 0 1 0,-2.325 2.325,2.325 0 0 1 2.325,0 Z" />
  </g>
  <g
     transform="translate(16.51,66.04)"
     id="g288">
    <path
       id="circle282"
       style="fill:#000099;stroke:none;stroke-width:0"
       d="M 4.1999998,0 A 4.1999998,4.1999998 0 0 1 0,4.1999998 4.1999998,4.1999998 0 0 1 -4.1999998,0 4.1999998,4.1999998 0 0 1 0,-4.1999998 4.1999998,4.1999998 0 0 1 4.1999998,0 Z" />
    <path
       id="circle284"
       style="fill:none;stroke:#f0f0ff;stroke-width:0.95"
       d="M 3.5,0 A 3.5,3.5 0 0 1 0,3.5 3.5,3.5 0 0 1 -3.5,0 3.5,3.5 0 0 1 0,-3.5 3.5,3.5 0 0 1 3.5,0 Z" />
    <path
       id="circle286"
       style="fill:none;stroke:#f0f0ff;stroke-width:0.95"
       d="M 2.325,0 A 2.325,2.325 0 0 1 0,2.325 2.325,2.325 0 0 1 -2.325,0 2.325,2.325 0 0 1 0,-2.325 2.325,2.325 0 0 1 2.325,0 Z" />
  </g>
  <g
     transform="translate(29.21,66.04)"
     id="g296">
    <path
       id="circle290"
       style="fill:#000099;stroke:none;stroke-width:0"
       d="M 4.1999998,0 A 4.1999998,4.1999998 0 0 1 0,4.1999998 4.1999998,4.1999998 0 0 1 -4.1999998,0 4.1999998,4.1999998 0 0 1 0,-4.1999998 4.1999998,4.1999998 0 0 1 4.1999998,0 Z" />
    <path
       id="circle292"
       style="fill:none;stroke:#f0f0ff;stroke-width:0.95"
       d="M 3.5,0 A 3.5,3.5 0 0 1 0,3.5 3.5,3.5 0 0 1 -3.5,0 3.5,3.5 0 0 1 0,-3.5 3.5,3.5 0 0 1 3.5,0 Z" />
    <path
       id="circle294"
       style="fill:none;stroke:#f0f0ff;stroke-width:0.95"
       d="M 2.325,0 A 2.325,2.325 0 0 1 0,2.325 2.325,2.325 0 0 1 -2.325,0 2.325,2.325 0 0 1 0,-2.325 2.325,2.325 0 0 1 2.325,0 Z" />
  </g>
  <g
     transform="translate(38.1,66.04)"
     id="g304">
    <path
       id="circle298"
       style="fill:#000099;stroke:none;stroke-width:0"
       d="M 4.1999998,0 A 4.1999998,4.1999998 0 0 1 0,4.1999998 4.1999998,4.1999998 0 0 1 -4.1999998,0 4.1999998,4.1999998 0 0 1 0,-4.1999998 4.1999998,4.1999998 0 0 1 4.1999998,0 Z" />
    <path
       id="circle300"
       style="fill:none;stroke:#f0f0ff;stroke-width:0.95"
       d="M 3.5,0 A 3.5,3.5 0 0 1 0,3.5 3.5,3.5 0 0 1 -3.5,0 3.5,3.5 0 0 1 0,-3.5 3.5,3.5 0 0 1 3.5,0 Z" />
    <path
       id="circle302"
       style="fill:none;stroke:#f0f0ff;stroke-width:0.95"
       d="M 2.325,0 A 2.325,2.325 0 0 1 0,2.325 2.325,2.325 0 0 1 -2.325,0 2.325,2.325 0 0 1 0,-2.325 2.325,2.325 0 0 1 2.325,0 Z" />
  </g>
  <g
     transform="translate(7.62,81.28)"
     id="g312">
    <path
       id="circle306"
       style="fill:#000099;stroke:none;stroke-width:0"
       d="M 4.1999998,0 A 4.1999998,4.1999998 0 0 1 0,4.1999998 4.1999998,4.1999998 0 0 1 -4.1999998,0 4.1999998,4.1999998 0 0 1 0,-4.1999998 4.1999998,4.1999998 0 0 1 4.1999998,0 Z" />
    <path
       id="circle308"
       style="fill:none;stroke:#f0f0ff;stroke-width:0.95"
       d="M 3.5,0 A 3.5,3.5 0 0 1 0,3.5 3.5,3.5 0 0 1 -3.5,0 3.5,3.5 0 0 1 0,-3.5 3.5,3.5 0 0 1 3.5,0 Z" />
    <path
       id="circle310"
       style="fill:none;stroke:#f0f0ff;stroke-width:0.95"
       d="M 2.325,0 A 2.325,2.325 0 0 1 0,2.325 2.325,2.325 0 0 1 -2.325,0 2.325,2.325 0 0 1 0,-2.325 2.325,2.325 0 0 1 2.325,0 Z" />
  </g>
  <g
     transform="translate(16.51,81.28)"
     id="g320">
    <path
       id="circle314"
       style="fill:#000099;stroke:none;stroke-width:0"
       d="M 4.1999998,0 A 4.1999998,4.1999998 0 0 1 0,4.1999998 4.1999998,4.1999998 0 0 1 -4.1999998,0 4.1999998,4.1999998 0 0 1 0,-4.1999998 4.1999998,4.1999998 0 0 1 4.1999998,0 Z" />
    <path
       id="circle316"
       style="fill:none;stroke:#f0f0ff;stroke-width:0.95"
       d="M 3.5,0 A 3.5,3.5 0 0 1 0,3.5 3.5,3.5 0 0 1 -3.5,0 3.5,3.5 0 0 1 0,-3.5 3.5,3.5 0 0 1 3.5,0 Z" />
    <path
       id="circle318"
       style="fill:none;stroke:#f0f0ff;stroke-width:0.95"
       d="M 2.325,0 A 2.325,2.325 0 0 1 0,2.325 2.325,2.325 0 0 1 -2.325,0 2.325,2.325 0 0 1 0,-2.325 2.325,2.325 0 0 1 2.325,0 Z" />
  </g>
  <g
     transform="translate(29.21,81.28)"
     id="g328">
    <path
       id="circle322"
       style="fill:#000099;stroke:none;stroke-width:0"
       d="M 4.1999998,0 A 4.1999998,4.1999998 0 0 1 0,4.1999998 4.1999998,4.1999998 0 0 1 -4.1999998,0 4.1999998,4.1999998 0 0 1 0,-4.1999998 4.1999998,4.1999998 0 0 1 4.1999998,0 Z" />
    <path
       id="circle324"
       style="fill:none;stroke:#f0f0ff;stroke-width:0.95"
       d="M 3.5,0 A 3.5,3.5 0 0 1 0,3.5 3.5,3.5 0 0 1 -3.5,0 3.5,3.5 0 0 1 0,-3.5 3.5,3.5 0 0 1 3.5,0 Z" />
    <path
       id="circle326"
       style="fill:none;stroke:#f0f0ff;stroke-width:0.95"
       d="M 2.325,0 A 2.325,2.325 0 0 1 0,2.325 2.325,2.325 0 0 1 -2.325,0 2.325,2.325 0 0 1 0,-2.325 2.325,2.325 0 0 1 2.325,0 Z" />
  </g>
  <g
     transform="translate(38.1,81.28)"
     id="g336">
    <path
       id="circle330"
       style="fill:#000099;stroke:none;stroke-width:0"
       d="M 4.1999998,0 A 4.1999998,4.1999998 0 0 1 0,4.1999998 4.1999998,4.1999998 0 0 1 -4.1999998,0 4.1999998,4.1999998 0 0 1 0,-4.1999998 4.1999998,4.1999998 0 0 1 4.1999998,0 Z" />
    <path
       id="circle332"
       style="fill:none;stroke:#f0f0ff;stroke-width:0.95"
       d="M 3.5,0 A 3.5,3.5 0 0 1 0,3.5 3.5,3.5 0 0 1 -3.5,0 3.5,3.5 0 0 1 0,-3.5 3.5,3.5 0 0 1 3.5,0 Z" />
    <path
       id="circle334"
       style="fill:none;stroke:#f0f0ff;stroke-width:0.95"
       d="M 2.325,0 A 2.325,2.325 0 0 1 0,2.325 2.325,2.325 0 0 1 -2.325,0 2.325,2.325 0 0 1 0,-2.325 2.325,2.325 0 0 1 2.325,0 Z" />
  </g>
  <g
     transform="translate(7.62,96.52)"
     id="g344">
    <path
       id="circle338"
       style="fill:#000099;stroke:none;stroke-width:0"
       d="M 4.1999998,0 A 4.1999998,4.1999998 0 0 1 0,4.1999998 4.1999998,4.1999998 0 0 1 -4.1999998,0 4.1999998,4.1999998 0 0 1 0,-4.1999998 4.1999998,4.1999998 0 0 1 4.1999998,0 Z" />
    <path
       id="circle340"
       style="fill:none;stroke:#f0f0ff;stroke-width:0.95"
       d="M 3.5,0 A 3.5,3.5 0 0 1 0,3.5 3.5,3.5 0 0 1 -3.5,0 3.5,3.5 0 0 1 0,-3.5 3.5,3.5 0 0 1 3.5,0 Z" />
    <path
       id="circle342"
       style="fill:none;stroke:#f0f0ff;stroke-width:0.95"
       d="M 2.325,0 A 2.325,2.325 0 0 1 0,2.325 2.325,2.325 0 0 1 -2.325,0 2.325,2.325 0 0 1 0,-2.325 2.325,2.325 0 0 1 2.325,0 Z" />
  </g>
  <g
     transform="translate(16.51,96.52)"
     id="g352">
    <path
       id="circle346"
       style="fill:#000099;stroke:none;stroke-width:0"
       d="M 4.1999998,0 A 4.1999998,4.1999998 0 0 1 0,4.1999998 4.1999998,4.1999998 0 0 1 -4.1999998,0 4.1999998,4.1999998 0 0 1 0,-4.1999998 4.1999998,4.1999998 0 0 1 4.1999998,0 Z" />
    <path
       id="circle348"
       style="fill:none;stroke:#f0f0ff;stroke-width:0.95"
       d="M 3.5,0 A 3.5,3.5 0 0 1 0,3.5 3.5,3.5 0 0 1 -3.5,0 3.5,3.5 0 0 1 0,-3.5 3.5,3.5 0 0 1 3.5,0 Z" />
    <path
       id="circle350"
       style="fill:none;stroke:#f0f0ff;stroke-width:0.95"
       d="M 2.325,0 A 2.325,2.325 0 0 1 0,2.325 2.325,2.325 0 0 1 -2.325,0 2.325,2.325 0 0 1 0,-2.325 2.325,2.325 0 0 1 2.325,0 Z" />
  </g>
  <g
     transform="translate(29.21,96.52)"
     id="g360">
    <path
       id="circle354"
       style="fill:#000099;stroke:none;stroke-width:0"
       d="M 4.1999998,0 A 4.1999998,4.1999998 0 0 1 0,4.1999998 4.1999998,4.1999998 0 0 1 -4.1999998,0 4.1999998,4.1999998 0 0 1 0,-4.1999998 4.1999998,4.1999998 0 0 1 4.1999998,0 Z" />
    <path
       id="circle356"
       style="fill:none;stroke:#f0f0ff;stroke-width:0.95"
       d="M 3.5,0 A 3.5,3.5 0 0 1 0,3.5 3.5,3.5 0 0 1 -3.5,0 3.5,3.5 0 0 1 0,-3.5 3.5,3.5 0 0 1 3.5,0 Z" />
    <path
       id="circle358"
       style="fill:none;stroke:#f0f0ff;stroke-width:0.95"
       d="M 2.325,0 A 2.325,2.325 0 0 1 0,2.325 2.325,2.325 0 0 1 -2.325,0 2.325,2.325 0 0 1 0,-2.325 2.325,2.325 0 0 1 2.325,0 Z" />
  </g>
  <g
     transform="translate(38.1,96.52)"
     id="g368">
    <path
       id="circle362"
       style="fill:#000099;stroke:none;stroke-width:0"
       d="M 4.1999998,0 A 4.1999998,4.1999998 0 0 1 0,4.1999998 4.1999998,4.1999998 0 0 1 -4.1999998,0 4.1999998,4.1999998 0 0 1 0,-4.1999998 4.1999998,4.1999998 0 0 1 4.1999998,0 Z" />
    <path
       id="circle364"
       style="fill:none;stroke:#f0f0ff;stroke-width:0.95"
       d="M 3.5,0 A 3.5,3.5 0 0 1 0,3.5 3.5,3.5 0 0 1 -3.5,0 3.5,3.5 0 0 1 0,-3.5 3.5,3.5 0 0 1 3.5,0 Z" />
    <path
       id="circle366"
       style="fill:none;stroke:#f0f0ff;stroke-width:0.95"
       d="M 2.325,0 A 2.325,2.325 0 0 1 0,2.325 2.325,2.325 0 0 1 -2.325,0 2.325,2.325 0 0 1 0,-2.325 2.325,2.325 0 0 1 2.325,0 Z" />
  </g>
  <g
     transform="translate(7.62,111.76)"
     id="g376">
    <path
       id="circle370"
       style="fill:#000099;stroke:none;stroke-width:0"
       d="M 4.1999998,0 A 4.1999998,4.1999998 0 0 1 0,4.1999998 4.1999998,4.1999998 0 0 1 -4.1999998,0 4.1999998,4.1999998 0 0 1 0,-4.1999998 4.1999998,4.1999998 0 0 1 4.1999998,0 Z" />
    <path
       id="circle372"
       style="fill:none;stroke:#f0f0ff;stroke-width:0.95"
       d="M 3.5,0 A 3.5,3.5 0 0 1 0,3.5 3.5,3.5 0 0 1 -3.5,0 3.5,3.5 0 0 1 0,-3.5 3.5,3.5 0 0 1 3.5,0 Z" />
    <path
       id="circle374"
       style="fill:none;stroke:#f0f0ff;stroke-width:0.95"
       d="M 2.325,0 A 2.325,2.325 0 0 1 0,2.325 2.325,2.325 0 0 1 -2.325,0 2.325,2.325 0 0 1 0,-2.325 2.325,2.325 0 0 1 2.325,0 Z" />
  </g>
  <g
     transform="translate(16.51,111.76)"
     id="g384">
    <path
       id="circle378"
       style="fill:#000099;stroke:none;stroke-width:0"
       d="M 4.1999998,0 A 4.1999998,4.1999998 0 0 1 0,4.1999998 4.1999998,4.1999998 0 0 1 -4.1999998,0 4.1999998,4.1999998 0 0 1 0,-4.1999998 4.1999998,4.1999998 0 0 1 4.1999998,0 Z" />
    <path
       id="circle380"
       style="fill:none;stroke:#f0f0ff;stroke-width:0.95"
       d="M 3.5,0 A 3.5,3.5 0 0 1 0,3.5 3.5,3.5 0 0 1 -3.5,0 3.5,3.5 0 0 1 0,-3.5 3.5,3.5 0 0 1 3.5,0 Z" />
    <path
       id="circle382"
       style="fill:none;stroke:#f0f0ff;stroke-width:0.95"
       d="M 2.325,0 A 2.325,2.325 0 0 1 0,2.325 2.325,2.325 0 0 1 -2.325,0 2.325,2.325 0 0 1 0,-2.325 2.325,2.325 0 0 1 2.325,0 Z" />
  </g>
  <g
     transform="translate(29.21,111.76)"
     id="g392">
    <path
       id="circle386"
       style="fill:#000099;stroke:none;stroke-width:0"
       d="M 4.1999998,0 A 4.1999998,4.1999998 0 0 1 0,4.1999998 4.1999998,4.1999998 0 0 1 -4.1999998,0 4.1999998,4.1999998 0 0 1 0,-4.1999998 4.1999998,4.1999998 0 0 1 4.1999998,0 Z" />
    <path
       id="circle388"
       style="fill:none;stroke:#f0f0ff;stroke-width:0.95"
       d="M 3.5,0 A 3.5,3.5 0 0 1 0,3.5 3.5,3.5 0 0 1 -3.5,0 3.5,3.5 0 0 1 0,-3.5 3.5,3.5 0 0 1 3.5,0 Z" />
    <path
       id="circle390"
       style="fill:none;stroke:#f0f0ff;stroke-width:0.95"
       d="M 2.325,0 A 2.325,2.325 0 0 1 0,2.325 2.325,2.325 0 0 1 -2.325,0 2.325,2.325 0 0 1 0,-2.325 2.325,2.325 0 0 1 2.325,0 Z" />
  </g>
  <g
     transform="translate(38.1,111.76)"
     id="g400">
    <path
       id="circle394"
       style="fill:#000099;stroke:none;stroke-width:0"
       d="M 4.1999998,0 A 4.1999998,4.1999998 0 0 1 0,4.1999998 4.1999998,4.1999998 0 0 1 -4.1999998,0 4.1999998,4.1999998 0 0 1 0,-4.1999998 4.1999998,4.1999998 0 0 1 4.1999998,0 Z" />
    <path
       id="circle396"
       style="fill:none;stroke:#f0f0ff;stroke-width:0.95"
       d="M 3.5,0 A 3.5,3.5 0 0 1 0,3.5 3.5,3.5 0 0 1 -3.5,0 3.5,3.5 0 0 1 0,-3.5 3.5,3.5 0 0 1 3.5,0 Z" />
    <path
       id="circle398"
       style="fill:none;stroke:#f0f0ff;stroke-width:0.95"
       d="M 2.325,0 A 2.325,2.325 0 0 1 0,2.325 2.325,2.325 0 0 1 -2.325,0 2.325,2.325 0 0 1 0,-2.325 2.325,2.325 0 0 1 2.325,0 Z" />
  </g>
</svg>
