<?xml version="1.0" encoding="UTF-8" standalone="no"?>
<svg
   xmlns:dc="http://purl.org/dc/elements/1.1/"
   xmlns:cc="http://creativecommons.org/ns#"
   xmlns:rdf="http://www.w3.org/1999/02/22-rdf-syntax-ns#"
   xmlns:svg="http://www.w3.org/2000/svg"
   xmlns="http://www.w3.org/2000/svg"
   id="svg404"
   height="379.429"
   width="135.000"
   version="1.1">
  <metadata
     id="metadata410">
    <rdf:RDF>
      <cc:Work
         rdf:about="">
        <dc:format>image/svg+xml</dc:format>
        <dc:type
           rdf:resource="http://purl.org/dc/dcmitype/StillImage" />
      </cc:Work>
    </rdf:RDF>
  </metadata>
  <defs
     id="defs408" />
  <g
     id="g402"
     transform="scale(2.953)">
    <path
       d="m 1,0 h 43.720001 c 0.554,0 1,0.446 1,1 v 126.5 c 0,0.554 -0.446,1 -1,1 H 1 c -0.554,0 -1,-0.446 -1,-1 V 1 C 0,0.446 0.446,0 1,0 Z"
       style="fill:#f0f0ff;stroke:#000099;stroke-width:1"
       id="rect2" />
    <g
       id="g6"
       transform="translate(22.86,9)">
      <g
         style="font-weight:bold;font-size:4.064px;font-family:'Proxima Nova';dominant-baseline:alphabetic;text-anchor:middle;fill:#000099"
         id="text4"
         aria-label="FUZZY LOGIC H">
        <path
           id="path413"
           style="font-weight:bold;font-size:4.064px;font-family:'Proxima Nova';dominant-baseline:alphabetic;text-anchor:middle;fill:#000099"
           d="m -14.590776,0 h 0.577088 v -1.129792 h 1.312672 v -0.4958081 h -1.312672 v -0.58928 h 1.34112 v -0.495808 h -1.918208 z" />
        <path
           id="path415"
           style="font-weight:bold;font-size:4.064px;font-family:'Proxima Nova';dominant-baseline:alphabetic;text-anchor:middle;fill:#000099"
           d="m -12.273026,-1.081024 c 0,0.66649599 0.38608,1.129792 1.215136,1.129792 0.820928,0 1.2070076,-0.45923201 1.2070076,-1.133856 v -1.6256001 h -0.5852156 v 1.6093441 c 0,0.37795198 -0.207264,0.63804799 -0.621792,0.63804799 -0.422656,0 -0.62992,-0.26009601 -0.62992,-0.63804799 v -1.6093441 h -0.585216 z" />
        <path
           id="path417"
           style="font-weight:bold;font-size:4.064px;font-family:'Proxima Nova';dominant-baseline:alphabetic;text-anchor:middle;fill:#000099"
           d="m -9.4098749,0 h 2.0645121 v -0.50800002 h -1.308608 l 1.28016,-1.73939208 v -0.463296 h -2.0360641 v 0.508 h 1.2801601 l -1.2801601,1.73532809 z" />
        <path
           id="path419"
           style="font-weight:bold;font-size:4.064px;font-family:'Proxima Nova';dominant-baseline:alphabetic;text-anchor:middle;fill:#000099"
           d="m -7.0048122,0 h 2.0645121 v -0.50800002 h -1.3086081 l 1.2801601,-1.73939208 v -0.463296 h -2.0360641 v 0.508 h 1.2801601 l -1.2801601,1.73532809 z" />
        <path
           id="path421"
           style="font-weight:bold;font-size:4.064px;font-family:'Proxima Nova';dominant-baseline:alphabetic;text-anchor:middle;fill:#000099"
           d="m -3.7463095,0 h 0.577088 v -1.109472 l 1.0363201,-1.6012161 h -0.658368 l -0.6664961,1.089152 -0.674624,-1.089152 h -0.658368 l 1.044448,1.6012161 z" />
        <path
           id="path423"
           style="font-weight:bold;font-size:4.064px;font-family:'Proxima Nova';dominant-baseline:alphabetic;text-anchor:middle;fill:#000099"
           d="M -0.84302618,0 H 0.88010987 V -0.50800002 H -0.26593816 V -2.7106881 h -0.57708802 z" />
        <path
           id="path425"
           style="font-weight:bold;font-size:4.064px;font-family:'Proxima Nova';dominant-baseline:alphabetic;text-anchor:middle;fill:#000099"
           d="m 1.0430515,-1.353312 c 0,0.81686398 0.597408,1.40208 1.414272,1.40208 0.8209281,0 1.4183361,-0.58521602 1.4183361,-1.40208 0,-0.8168641 -0.597408,-1.4020801 -1.4183361,-1.4020801 -0.816864,0 -1.414272,0.585216 -1.414272,1.4020801 z m 2.2392641,0 c 0,0.50393597 -0.32512,0.89001599 -0.8249921,0.89001599 -0.499872,0 -0.820928,-0.38608002 -0.820928,-0.89001599 0,-0.5080001 0.321056,-0.8900161 0.820928,-0.8900161 0.4998721,0 0.8249921,0.382016 0.8249921,0.8900161 z" />
        <path
           id="path427"
           style="font-weight:bold;font-size:4.064px;font-family:'Proxima Nova';dominant-baseline:alphabetic;text-anchor:middle;fill:#000099"
           d="m 4.1545513,-1.353312 c 0,0.85343998 0.65024,1.406144 1.44272,1.406144 0.491744,0 0.8778241,-0.2032 1.1541761,-0.51206401 V -1.495552 H 5.4590953 v 0.49580797 h 0.723392 v 0.32918401 c -0.117856,0.105664 -0.337312,0.20726401 -0.585216,0.20726401 -0.491744,0 -0.849376,-0.37795202 -0.849376,-0.89001599 0,-0.5120641 0.357632,-0.8900161 0.849376,-0.8900161 0.28448,0 0.516128,0.150368 0.642112,0.341376 l 0.4795521,-0.260096 c -0.207264,-0.321056 -0.5608321,-0.593344 -1.1216641,-0.593344 -0.79248,0 -1.44272,0.544576 -1.44272,1.4020801 z" />
        <path
           id="path429"
           style="font-weight:bold;font-size:4.064px;font-family:'Proxima Nova';dominant-baseline:alphabetic;text-anchor:middle;fill:#000099"
           d="m 7.2135372,0 h 0.577088 v -2.7106881 h -0.577088 z" />
        <path
           id="path431"
           style="font-weight:bold;font-size:4.064px;font-family:'Proxima Nova';dominant-baseline:alphabetic;text-anchor:middle;fill:#000099"
           d="m 9.6171392,0.048768 c 0.6177278,0 0.9591038,-0.32918401 1.1541758,-0.66649602 l -0.495808,-0.23977601 c -0.113792,0.22352001 -0.3576318,0.39420802 -0.6583678,0.39420802 -0.4714241,0 -0.8290561,-0.37795202 -0.8290561,-0.89001599 0,-0.5120641 0.357632,-0.8900161 0.8290561,-0.8900161 0.300736,0 0.5445758,0.174752 0.6583678,0.394208 l 0.495808,-0.24384 c -0.191008,-0.337312 -0.536448,-0.662432 -1.1541758,-0.662432 -0.7924801,0 -1.4224001,0.56896 -1.4224001,1.4020801 0,0.83311998 0.62992,1.40208 1.4224001,1.40208 z" />
        <path
           id="path433"
           style="font-weight:bold;font-size:4.064px;font-family:'Proxima Nova';dominant-baseline:alphabetic;text-anchor:middle;fill:#000099"
           d="M 14.015848,0 H 14.597 v -2.7106881 h -0.581152 v 1.064768 h -1.28016 v -1.064768 H 12.1586 V 0 h 0.577088 v -1.13792 h 1.28016 z" />
      </g>
    </g>
    <g
       id="g10"
       transform="translate(22.86,119.5)">
      <g
         style="font-weight:bold;font-size:4.064px;font-family:'Proxima Nova';dominant-baseline:hanging;text-anchor:middle;fill:#000099"
         id="text8"
         aria-label="DHE">
        <path
           id="path436"
           style="font-weight:bold;font-size:4.064px;font-family:'Proxima Nova';dominant-baseline:hanging;text-anchor:middle;fill:#000099"
           d="m -3.8632449,2.7584481 h 1.0688321 c 0.849376,0 1.438656,-0.5364481 1.438656,-1.3533121 0,-0.816864 -0.58928,-1.35737602 -1.438656,-1.35737602 H -3.8632449 Z M -3.2861569,2.250448 V 0.55575999 h 0.4917441 c 0.556768,0 0.849376,0.36982402 0.849376,0.84937601 0,0.459232 -0.312928,0.845312 -0.849376,0.845312 z" />
        <path
           id="path438"
           style="font-weight:bold;font-size:4.064px;font-family:'Proxima Nova';dominant-baseline:hanging;text-anchor:middle;fill:#000099"
           d="M 0.91500319,2.7584481 H 1.4961552 V 0.04775998 H 0.91500319 V 1.112528 H -0.36515685 V 0.04775998 H -0.94224487 V 2.7584481 h 0.57708802 V 1.620528 h 1.28016004 z" />
        <path
           id="path440"
           style="font-weight:bold;font-size:4.064px;font-family:'Proxima Nova';dominant-baseline:hanging;text-anchor:middle;fill:#000099"
           d="M 2.0263802,2.7584481 H 3.9445883 V 2.258576 H 2.6034682 V 1.628656 H 3.9161403 V 1.132848 H 2.6034682 V 0.54356799 H 3.9445883 V 0.04775998 H 2.0263802 Z" />
      </g>
    </g>
    <g
       id="g14"
       transform="translate(7.62,15.12)">
      <g
         style="font-weight:bold;font-size:2.371px;font-family:'Proxima Nova';dominant-baseline:alphabetic;text-anchor:middle;fill:#000099"
         id="text12"
         aria-label="A">
        <path
           id="path443"
           style="font-weight:bold;font-size:2.371px;font-family:'Proxima Nova';dominant-baseline:alphabetic;text-anchor:middle;fill:#000099"
           d="M 0.45334262,0 H 0.82084763 L 0.21150061,-1.581457 H -0.2105374 L -0.82225541,0 h 0.36987601 l 0.099582,-0.27266501 H 0.35376062 Z M 4.8160939e-4,-1.289824 0.26129162,-0.56429801 H -0.2626994 Z" />
      </g>
    </g>
    <g
       id="g18"
       transform="translate(15.24,16.32)">
      <g
         style="font-weight:bold;font-size:2.371px;font-family:'Proxima Nova';dominant-baseline:alphabetic;text-anchor:middle;fill:#000099"
         id="text16"
         aria-label="¬">
        <path
           id="path446"
           style="font-weight:bold;font-size:2.371px;font-family:'Proxima Nova';dominant-baseline:alphabetic;text-anchor:middle;fill:#000099"
           d="M 0.51495157,-0.47657101 V -1.109628 h -1.05746602 v 0.18967998 h 0.86541502 v 0.44337701 z" />
      </g>
    </g>
    <g
       id="g22"
       transform="translate(30.48,16.32)">
      <g
         style="font-weight:bold;font-size:2.371px;font-family:'Proxima Nova';dominant-baseline:alphabetic;text-anchor:middle;fill:#000099"
         id="text20"
         aria-label="¬">
        <path
           id="path449"
           style="font-weight:bold;font-size:2.371px;font-family:'Proxima Nova';dominant-baseline:alphabetic;text-anchor:middle;fill:#000099"
           d="M 0.51495157,-0.47657101 V -1.109628 h -1.05746602 v 0.18967998 h 0.86541502 v 0.44337701 z" />
      </g>
    </g>
    <g
       id="g26"
       transform="translate(38.1,15.12)">
      <g
         style="font-weight:bold;font-size:2.371px;font-family:'Proxima Nova';dominant-baseline:alphabetic;text-anchor:middle;fill:#000099"
         id="text24"
         aria-label="C">
        <path
           id="path452"
           style="font-weight:bold;font-size:2.371px;font-family:'Proxima Nova';dominant-baseline:alphabetic;text-anchor:middle;fill:#000099"
           d="m 0.09543275,0.028452 c 0.36039201,0 0.55955601,-0.192051 0.67336402,-0.38884401 l -0.28926201,-0.139889 c -0.066388,0.130405 -0.208648,0.229987 -0.38410201,0.229987 -0.275036,0 -0.48368401,-0.220503 -0.48368401,-0.51924901 0,-0.29874598 0.20864801,-0.51924898 0.48368401,-0.51924898 0.17545401,0 0.31771401,0.101953 0.38410201,0.229987 l 0.28926201,-0.14226 C 0.65735976,-1.417858 0.45582476,-1.607538 0.09543275,-1.607538 c -0.46234501,0 -0.82985002,0.33194 -0.82985002,0.81799498 0,0.48605501 0.36750501,0.81799502 0.82985002,0.81799502 z" />
      </g>
    </g>
    <g
       id="g30"
       transform="translate(22.86,31.94)">
      <g
         style="font-weight:bold;font-size:2.371px;font-family:'Proxima Nova';dominant-baseline:hanging;text-anchor:middle;fill:#000099"
         id="text28"
         aria-label="BI">
        <path
           id="path455"
           style="font-weight:bold;font-size:2.371px;font-family:'Proxima Nova';dominant-baseline:hanging;text-anchor:middle;fill:#000099"
           d="m -0.95260484,1.609472 h 0.85830202 c 0.301117,0 0.45997401,-0.18968 0.45997401,-0.42678 0,-0.19916404 -0.13514701,-0.36276304 -0.30348801,-0.38884404 0.149373,-0.030823 0.27266501,-0.163599 0.27266501,-0.36276301 0,-0.211019 -0.15411501,-0.40307001 -0.45523201,-0.40307001 H -0.95260484 Z M -0.61592283,0.66344296 V 0.31490595 h 0.42203801 c 0.113808,0 0.184938,0.075872 0.184938,0.173083 0,0.101953 -0.07113,0.17545401 -0.184938,0.17545401 z m 0,0.65913804 V 0.95033396 h 0.43389301 c 0.132776,0 0.203906,0.085356 0.203906,0.18493804 0,0.113808 -0.075872,0.187309 -0.203906,0.187309 z" />
        <path
           id="path457"
           style="font-weight:bold;font-size:2.371px;font-family:'Proxima Nova';dominant-baseline:hanging;text-anchor:middle;fill:#000099"
           d="M 0.61725657,1.609472 H 0.95393858 V 0.02801494 H 0.61725657 Z" />
      </g>
    </g>
    <g
       id="g34"
       transform="translate(22.86,23.94)">
      <g
         style="font-weight:bold;font-size:2.371px;font-family:'Proxima Nova';dominant-baseline:alphabetic;text-anchor:middle;fill:#000099"
         id="text32"
         aria-label="UNI">
        <path
           id="path460"
           style="font-weight:bold;font-size:2.371px;font-family:'Proxima Nova';dominant-baseline:alphabetic;text-anchor:middle;fill:#000099"
           d="m -1.8949847,-0.63068601 c 0,0.388844 0.225245,0.65913801 0.708929,0.65913801 0.47894198,0 0.70418699,-0.26792301 0.70418699,-0.66150901 V -1.581457 h -0.34142401 v 0.93891599 c 0,0.220503 -0.120921,0.372247 -0.36276298,0.372247 -0.246584,0 -0.367505,-0.151744 -0.367505,-0.372247 V -1.581457 h -0.341424 z" />
        <path
           id="path462"
           style="font-weight:bold;font-size:2.371px;font-family:'Proxima Nova';dominant-baseline:alphabetic;text-anchor:middle;fill:#000099"
           d="M 0.92298582,0 H 1.2478128 V -1.581457 H 0.91113082 v 1.02427199 L 0.1784918,-1.581457 H -0.16767421 V 0 H 0.1690078 v -1.062208 z" />
        <path
           id="path464"
           style="font-weight:bold;font-size:2.371px;font-family:'Proxima Nova';dominant-baseline:alphabetic;text-anchor:middle;fill:#000099"
           d="m 1.5596363,0 h 0.336682 v -1.581457 h -0.336682 z" />
      </g>
    </g>
    <g
       id="g38"
       transform="translate(7.62,30.36)">
      <g
         style="font-weight:bold;font-size:2.371px;font-family:'Proxima Nova';dominant-baseline:alphabetic;text-anchor:middle;fill:#000099"
         id="text36"
         aria-label="B">
        <path
           id="path467"
           style="font-weight:bold;font-size:2.371px;font-family:'Proxima Nova';dominant-baseline:alphabetic;text-anchor:middle;fill:#000099"
           d="m -0.62844468,0 h 0.85830202 c 0.30111701,0 0.45997401,-0.18968 0.45997401,-0.42678001 0,-0.199164 -0.135147,-0.36276301 -0.30348801,-0.38884401 0.14937301,-0.030823 0.27266501,-0.163599 0.27266501,-0.36276298 0,-0.211019 -0.154115,-0.40307 -0.45523201,-0.40307 h -0.83222102 z m 0.33668201,-0.94602902 V -1.294566 h 0.42203801 c 0.113808,0 0.184938,0.075872 0.184938,0.173083 0,0.101953 -0.07113,0.17545398 -0.184938,0.17545398 z m 0,0.65913801 v -0.372247 h 0.43389301 c 0.132776,0 0.203906,0.085356 0.203906,0.184938 0,0.113808 -0.075872,0.187309 -0.203906,0.187309 z" />
      </g>
    </g>
    <g
       id="g42"
       transform="translate(15.24,31.56)">
      <g
         style="font-weight:bold;font-size:2.371px;font-family:'Proxima Nova';dominant-baseline:alphabetic;text-anchor:middle;fill:#000099"
         id="text40"
         aria-label="¬">
        <path
           id="path470"
           style="font-weight:bold;font-size:2.371px;font-family:'Proxima Nova';dominant-baseline:alphabetic;text-anchor:middle;fill:#000099"
           d="M 0.51495157,-0.47657101 V -1.109628 h -1.05746602 v 0.18967998 h 0.86541502 v 0.44337701 z" />
      </g>
    </g>
    <g
       id="g46"
       transform="translate(30.48,31.56)">
      <g
         style="font-weight:bold;font-size:2.371px;font-family:'Proxima Nova';dominant-baseline:alphabetic;text-anchor:middle;fill:#000099"
         id="text44"
         aria-label="¬">
        <path
           id="path473"
           style="font-weight:bold;font-size:2.371px;font-family:'Proxima Nova';dominant-baseline:alphabetic;text-anchor:middle;fill:#000099"
           d="M 0.51495157,-0.47657101 V -1.109628 h -1.05746602 v 0.18967998 h 0.86541502 v 0.44337701 z" />
      </g>
    </g>
    <g
       id="g50"
       transform="translate(38.1,30.36)">
      <g
         style="font-weight:bold;font-size:2.371px;font-family:'Proxima Nova';dominant-baseline:alphabetic;text-anchor:middle;fill:#000099"
         id="text48"
         aria-label="D">
        <path
           id="path476"
           style="font-weight:bold;font-size:2.371px;font-family:'Proxima Nova';dominant-baseline:alphabetic;text-anchor:middle;fill:#000099"
           d="m -0.69559214,0 h 0.62357301 c 0.49553901,0 0.83933402,-0.31297201 0.83933402,-0.78954302 0,-0.47657098 -0.34379501,-0.79191398 -0.83933402,-0.79191398 h -0.62357301 z m 0.33668201,-0.29637501 V -1.285082 h 0.286891 c 0.32482701,0 0.49553901,0.215761 0.49553901,0.49553898 0,0.26792301 -0.182567,0.49316801 -0.49553901,0.49316801 z" />
      </g>
    </g>
    <path
       d="M 3.4200001,43.02 H 11.82 c 0.554,0 1,0.446 1,1 V 55 c 0,0.554 -0.446,1 -1,1 H 3.4200001 c -0.554,0 -1,-0.446 -1,-1 V 44.02 c 0,-0.554 0.446,-1 1,-1 z"
       style="fill:#000099;stroke:#000099;stroke-width:0.35"
       id="rect52" />
    <g
       id="g56"
       transform="translate(7.62,45.6)">
      <g
         style="font-weight:bold;font-size:2.371px;font-family:'Proxima Nova';dominant-baseline:alphabetic;text-anchor:middle;fill:#f0f0ff"
         id="text54"
         aria-label="AND">
        <path
           id="path480"
           style="font-weight:bold;font-size:2.371px;font-family:'Proxima Nova';dominant-baseline:alphabetic;text-anchor:middle;fill:#f0f0ff"
           d="m -1.2623908,0 h 0.36750499 L -1.5042328,-1.581457 h -0.422038 L -2.5379888,0 h 0.369876 l 0.099582,-0.27266501 h 0.706558 z m -0.452861,-1.289824 0.26081,0.72552599 h -0.523991 z" />
        <path
           id="path482"
           style="font-weight:bold;font-size:2.371px;font-family:'Proxima Nova';dominant-baseline:alphabetic;text-anchor:middle;fill:#f0f0ff"
           d="m 0.34181304,0 h 0.324827 v -1.581457 h -0.336682 v 1.02427199 L -0.40268098,-1.581457 H -0.74884699 V 0 h 0.33668201 v -1.062208 z" />
        <path
           id="path484"
           style="font-weight:bold;font-size:2.371px;font-family:'Proxima Nova';dominant-baseline:alphabetic;text-anchor:middle;fill:#f0f0ff"
           d="M 0.97846355,0 H 1.6020366 c 0.495539,0 0.839334,-0.31297201 0.839334,-0.78954302 0,-0.47657098 -0.343795,-0.79191398 -0.839334,-0.79191398 H 0.97846355 Z M 1.3151456,-0.29637501 V -1.285082 h 0.286891 c 0.324827,0 0.495539,0.215761 0.495539,0.49553898 0,0.26792301 -0.182567,0.49316801 -0.495539,0.49316801 z" />
      </g>
    </g>
    <path
       d="m 12.31,43.02 h 8.4 c 0.554,0 1,0.446 1,1 V 55 c 0,0.554 -0.446,1 -1,1 h -8.4 c -0.554,0 -1,-0.446 -1,-1 V 44.02 c 0,-0.554 0.446,-1 1,-1 z"
       style="fill:#000099;stroke:#000099;stroke-width:0.35"
       id="rect58" />
    <g
       id="g62"
       transform="translate(16.51,45.6)">
      <g
         style="font-weight:bold;font-size:2.371px;font-family:'Proxima Nova';dominant-baseline:alphabetic;text-anchor:middle;fill:#f0f0ff"
         id="text60"
         aria-label="¬">
        <path
           id="path488"
           style="font-weight:bold;font-size:2.371px;font-family:'Proxima Nova';dominant-baseline:alphabetic;text-anchor:middle;fill:#f0f0ff"
           d="M 0.51495157,-0.47657101 V -1.109628 h -1.05746602 v 0.18967998 h 0.86541502 v 0.44337701 z" />
      </g>
    </g>
    <path
       d="m 25.01,43.02 h 8.4 c 0.554,0 1,0.446 1,1 V 55 c 0,0.554 -0.446,1 -1,1 h -8.4 c -0.554,0 -1,-0.446 -1,-1 V 44.02 c 0,-0.554 0.446,-1 1,-1 z"
       style="fill:#000099;stroke:#000099;stroke-width:0.35"
       id="rect64" />
    <g
       id="g68"
       transform="translate(29.21,45.6)">
      <g
         style="font-weight:bold;font-size:2.371px;font-family:'Proxima Nova';dominant-baseline:alphabetic;text-anchor:middle;fill:#f0f0ff"
         id="text66"
         aria-label="¬">
        <path
           id="path492"
           style="font-weight:bold;font-size:2.371px;font-family:'Proxima Nova';dominant-baseline:alphabetic;text-anchor:middle;fill:#f0f0ff"
           d="M 0.51495157,-0.47657101 V -1.109628 h -1.05746602 v 0.18967998 h 0.86541502 v 0.44337701 z" />
      </g>
    </g>
    <path
       d="m 33.900002,43.02 h 8.399999 c 0.554,0 1,0.446 1,1 V 55 c 0,0.554 -0.446,1 -1,1 h -8.399999 c -0.554,0 -1,-0.446 -1,-1 V 44.02 c 0,-0.554 0.446,-1 1,-1 z"
       style="fill:#000099;stroke:#000099;stroke-width:0.35"
       id="rect70" />
    <g
       id="g74"
       transform="translate(38.1,45.6)">
      <g
         style="font-weight:bold;font-size:2.371px;font-family:'Proxima Nova';dominant-baseline:alphabetic;text-anchor:middle;fill:#f0f0ff"
         id="text72"
         aria-label="AND">
        <path
           id="path496"
           style="font-weight:bold;font-size:2.371px;font-family:'Proxima Nova';dominant-baseline:alphabetic;text-anchor:middle;fill:#f0f0ff"
           d="m -1.2623908,0 h 0.36750499 L -1.5042328,-1.581457 h -0.422038 L -2.5379888,0 h 0.369876 l 0.099582,-0.27266501 h 0.706558 z m -0.452861,-1.289824 0.26081,0.72552599 h -0.523991 z" />
        <path
           id="path498"
           style="font-weight:bold;font-size:2.371px;font-family:'Proxima Nova';dominant-baseline:alphabetic;text-anchor:middle;fill:#f0f0ff"
           d="m 0.34181304,0 h 0.324827 v -1.581457 h -0.336682 v 1.02427199 L -0.40268098,-1.581457 H -0.74884699 V 0 h 0.33668201 v -1.062208 z" />
        <path
           id="path500"
           style="font-weight:bold;font-size:2.371px;font-family:'Proxima Nova';dominant-baseline:alphabetic;text-anchor:middle;fill:#f0f0ff"
           d="M 0.97846355,0 H 1.6020366 c 0.495539,0 0.839334,-0.31297201 0.839334,-0.78954302 0,-0.47657098 -0.343795,-0.79191398 -0.839334,-0.79191398 H 0.97846355 Z M 1.3151456,-0.29637501 V -1.285082 h 0.286891 c 0.324827,0 0.495539,0.215761 0.495539,0.49553898 0,0.26792301 -0.182567,0.49316801 -0.495539,0.49316801 z" />
      </g>
    </g>
    <path
       d="M 3.4200001,58.259998 H 11.82 c 0.554,0 1,0.446 1,1 v 10.98 c 0,0.554 -0.446,1 -1,1 H 3.4200001 c -0.554,0 -1,-0.446 -1,-1 v -10.98 c 0,-0.554 0.446,-1 1,-1 z"
       style="fill:#000099;stroke:#000099;stroke-width:0.35"
       id="rect76" />
    <g
       id="g80"
       transform="translate(7.62,60.84)">
      <g
         style="font-weight:bold;font-size:2.371px;font-family:'Proxima Nova';dominant-baseline:alphabetic;text-anchor:middle;fill:#f0f0ff"
         id="text78"
         aria-label="OR">
        <path
           id="path504"
           style="font-weight:bold;font-size:2.371px;font-family:'Proxima Nova';dominant-baseline:alphabetic;text-anchor:middle;fill:#f0f0ff"
           d="m -1.5888108,-0.78954302 c 0,0.47657101 0.348537,0.81799502 0.82510798,0.81799502 0.47894201,0 0.82747902,-0.34142401 0.82747902,-0.81799502 0,-0.47657098 -0.34853701,-0.81799498 -0.82747902,-0.81799498 -0.47657098,0 -0.82510798,0.341424 -0.82510798,0.81799498 z m 1.30642099,0 c 0,0.29400401 -0.18968,0.51924901 -0.48131301,0.51924901 -0.29163298,0 -0.47894198,-0.225245 -0.47894198,-0.51924901 0,-0.29637498 0.187309,-0.51924898 0.47894198,-0.51924898 0.29163301,0 0.48131301,0.222874 0.48131301,0.51924898 z" />
        <path
           id="path506"
           style="font-weight:bold;font-size:2.371px;font-family:'Proxima Nova';dominant-baseline:alphabetic;text-anchor:middle;fill:#f0f0ff"
           d="m 1.1962251,0 h 0.386473 l -0.35565,-0.60223401 c 0.170712,-0.040307 0.346166,-0.18968001 0.346166,-0.46945799 0,-0.294004 -0.201535,-0.509765 -0.531104,-0.509765 H 0.30235805 V 0 h 0.33668201 v -0.56666901 h 0.246584 z m 0.033194,-1.074063 c 0,0.13277598 -0.101953,0.21813198 -0.23710003,0.21813198 H 0.63904006 V -1.292195 h 0.35327901 c 0.13514703,0 0.23710003,0.085356 0.23710003,0.218132 z" />
      </g>
    </g>
    <path
       d="m 12.31,58.259998 h 8.4 c 0.554,0 1,0.446 1,1 v 10.98 c 0,0.554 -0.446,1 -1,1 h -8.4 c -0.554,0 -1,-0.446 -1,-1 v -10.98 c 0,-0.554 0.446,-1 1,-1 z"
       style="fill:#000099;stroke:#000099;stroke-width:0.35"
       id="rect82" />
    <g
       id="g86"
       transform="translate(16.51,60.84)">
      <g
         style="font-weight:bold;font-size:2.371px;font-family:'Proxima Nova';dominant-baseline:alphabetic;text-anchor:middle;fill:#f0f0ff"
         id="text84"
         aria-label="¬">
        <path
           id="path510"
           style="font-weight:bold;font-size:2.371px;font-family:'Proxima Nova';dominant-baseline:alphabetic;text-anchor:middle;fill:#f0f0ff"
           d="M 0.51495157,-0.47657101 V -1.109628 h -1.05746602 v 0.18967998 h 0.86541502 v 0.44337701 z" />
      </g>
    </g>
    <path
       d="m 25.01,58.259998 h 8.4 c 0.554,0 1,0.446 1,1 v 10.98 c 0,0.554 -0.446,1 -1,1 h -8.4 c -0.554,0 -1,-0.446 -1,-1 v -10.98 c 0,-0.554 0.446,-1 1,-1 z"
       style="fill:#000099;stroke:#000099;stroke-width:0.35"
       id="rect88" />
    <g
       id="g92"
       transform="translate(29.21,60.84)">
      <g
         style="font-weight:bold;font-size:2.371px;font-family:'Proxima Nova';dominant-baseline:alphabetic;text-anchor:middle;fill:#f0f0ff"
         id="text90"
         aria-label="¬">
        <path
           id="path514"
           style="font-weight:bold;font-size:2.371px;font-family:'Proxima Nova';dominant-baseline:alphabetic;text-anchor:middle;fill:#f0f0ff"
           d="M 0.51495157,-0.47657101 V -1.109628 h -1.05746602 v 0.18967998 h 0.86541502 v 0.44337701 z" />
      </g>
    </g>
    <path
       d="m 33.900002,58.259998 h 8.399999 c 0.554,0 1,0.446 1,1 v 10.98 c 0,0.554 -0.446,1 -1,1 h -8.399999 c -0.554,0 -1,-0.446 -1,-1 v -10.98 c 0,-0.554 0.446,-1 1,-1 z"
       style="fill:#000099;stroke:#000099;stroke-width:0.35"
       id="rect94" />
    <g
       id="g98"
       transform="translate(38.1,60.84)">
      <g
         style="font-weight:bold;font-size:2.371px;font-family:'Proxima Nova';dominant-baseline:alphabetic;text-anchor:middle;fill:#f0f0ff"
         id="text96"
         aria-label="OR">
        <path
           id="path518"
           style="font-weight:bold;font-size:2.371px;font-family:'Proxima Nova';dominant-baseline:alphabetic;text-anchor:middle;fill:#f0f0ff"
           d="m -1.5888108,-0.78954302 c 0,0.47657101 0.348537,0.81799502 0.82510798,0.81799502 0.47894201,0 0.82747902,-0.34142401 0.82747902,-0.81799502 0,-0.47657098 -0.34853701,-0.81799498 -0.82747902,-0.81799498 -0.47657098,0 -0.82510798,0.341424 -0.82510798,0.81799498 z m 1.30642099,0 c 0,0.29400401 -0.18968,0.51924901 -0.48131301,0.51924901 -0.29163298,0 -0.47894198,-0.225245 -0.47894198,-0.51924901 0,-0.29637498 0.187309,-0.51924898 0.47894198,-0.51924898 0.29163301,0 0.48131301,0.222874 0.48131301,0.51924898 z" />
        <path
           id="path520"
           style="font-weight:bold;font-size:2.371px;font-family:'Proxima Nova';dominant-baseline:alphabetic;text-anchor:middle;fill:#f0f0ff"
           d="m 1.1962251,0 h 0.386473 l -0.35565,-0.60223401 c 0.170712,-0.040307 0.346166,-0.18968001 0.346166,-0.46945799 0,-0.294004 -0.201535,-0.509765 -0.531104,-0.509765 H 0.30235805 V 0 h 0.33668201 v -0.56666901 h 0.246584 z m 0.033194,-1.074063 c 0,0.13277598 -0.101953,0.21813198 -0.23710003,0.21813198 H 0.63904006 V -1.292195 h 0.35327901 c 0.13514703,0 0.23710003,0.085356 0.23710003,0.218132 z" />
      </g>
    </g>
    <path
       d="M 3.4200001,73.5 H 11.82 c 0.554,0 1,0.446 1,1 v 10.98 c 0,0.554 -0.446,1 -1,1 H 3.4200001 c -0.554,0 -1,-0.446 -1,-1 V 74.5 c 0,-0.554 0.446,-1 1,-1 z"
       style="fill:#000099;stroke:#000099;stroke-width:0.35"
       id="rect100" />
    <g
       id="g104"
       transform="translate(7.62,76.08)">
      <g
         style="font-weight:bold;font-size:2.371px;font-family:'Proxima Nova';dominant-baseline:alphabetic;text-anchor:middle;fill:#f0f0ff"
         id="text102"
         aria-label="XOR">
        <path
           id="path524"
           style="font-weight:bold;font-size:2.371px;font-family:'Proxima Nova';dominant-baseline:alphabetic;text-anchor:middle;fill:#f0f0ff"
           d="m -1.2386993,0 h 0.40306997 L -1.4094113,-0.81325302 -0.87119433,-1.581457 H -1.2766353 l -0.358021,0.540588 -0.3627631,-0.540588 h -0.400699 l 0.538217,0.77057498 L -2.4336834,0 h 0.400699 l 0.3983281,-0.57852401 z" />
        <path
           id="path526"
           style="font-weight:bold;font-size:2.371px;font-family:'Proxima Nova';dominant-baseline:alphabetic;text-anchor:middle;fill:#f0f0ff"
           d="m -0.83166532,-0.78954302 c 0,0.47657101 0.34853701,0.81799502 0.82510802,0.81799502 0.47894201,0 0.82747902,-0.34142401 0.82747902,-0.81799502 0,-0.47657098 -0.34853701,-0.81799498 -0.82747902,-0.81799498 -0.47657101,0 -0.82510802,0.341424 -0.82510802,0.81799498 z m 1.30642103,0 c 0,0.29400401 -0.18968,0.51924901 -0.48131301,0.51924901 -0.291633,0 -0.47894201,-0.225245 -0.47894201,-0.51924901 0,-0.29637498 0.18730901,-0.51924898 0.47894201,-0.51924898 0.29163301,0 0.48131301,0.222874 0.48131301,0.51924898 z" />
        <path
           id="path528"
           style="font-weight:bold;font-size:2.371px;font-family:'Proxima Nova';dominant-baseline:alphabetic;text-anchor:middle;fill:#f0f0ff"
           d="m 1.9533706,0 h 0.386473 l -0.35565,-0.60223401 c 0.170712,-0.040307 0.346166,-0.18968001 0.346166,-0.46945799 0,-0.294004 -0.201535,-0.509765 -0.531104,-0.509765 H 1.0595036 V 0 h 0.336682 v -0.56666901 h 0.246584 z m 0.033194,-1.074063 c 0,0.13277598 -0.101953,0.21813198 -0.2371,0.21813198 H 1.3961856 V -1.292195 h 0.353279 c 0.135147,0 0.2371,0.085356 0.2371,0.218132 z" />
      </g>
    </g>
    <path
       d="m 12.31,73.5 h 8.4 c 0.554,0 1,0.446 1,1 v 10.98 c 0,0.554 -0.446,1 -1,1 h -8.4 c -0.554,0 -1,-0.446 -1,-1 V 74.5 c 0,-0.554 0.446,-1 1,-1 z"
       style="fill:#000099;stroke:#000099;stroke-width:0.35"
       id="rect106" />
    <g
       id="g110"
       transform="translate(16.51,76.08)">
      <g
         style="font-weight:bold;font-size:2.371px;font-family:'Proxima Nova';dominant-baseline:alphabetic;text-anchor:middle;fill:#f0f0ff"
         id="text108"
         aria-label="¬">
        <path
           id="path532"
           style="font-weight:bold;font-size:2.371px;font-family:'Proxima Nova';dominant-baseline:alphabetic;text-anchor:middle;fill:#f0f0ff"
           d="M 0.51495157,-0.47657101 V -1.109628 h -1.05746602 v 0.18967998 h 0.86541502 v 0.44337701 z" />
      </g>
    </g>
    <path
       d="m 25.01,73.5 h 8.4 c 0.554,0 1,0.446 1,1 v 10.98 c 0,0.554 -0.446,1 -1,1 h -8.4 c -0.554,0 -1,-0.446 -1,-1 V 74.5 c 0,-0.554 0.446,-1 1,-1 z"
       style="fill:#000099;stroke:#000099;stroke-width:0.35"
       id="rect112" />
    <g
       id="g116"
       transform="translate(29.21,76.08)">
      <g
         style="font-weight:bold;font-size:2.371px;font-family:'Proxima Nova';dominant-baseline:alphabetic;text-anchor:middle;fill:#f0f0ff"
         id="text114"
         aria-label="¬">
        <path
           id="path536"
           style="font-weight:bold;font-size:2.371px;font-family:'Proxima Nova';dominant-baseline:alphabetic;text-anchor:middle;fill:#f0f0ff"
           d="M 0.51495157,-0.47657101 V -1.109628 h -1.05746602 v 0.18967998 h 0.86541502 v 0.44337701 z" />
      </g>
    </g>
    <path
       d="m 33.900002,73.5 h 8.399999 c 0.554,0 1,0.446 1,1 v 10.98 c 0,0.554 -0.446,1 -1,1 h -8.399999 c -0.554,0 -1,-0.446 -1,-1 V 74.5 c 0,-0.554 0.446,-1 1,-1 z"
       style="fill:#000099;stroke:#000099;stroke-width:0.35"
       id="rect118" />
    <g
       id="g122"
       transform="translate(38.1,76.08)">
      <g
         style="font-weight:bold;font-size:2.371px;font-family:'Proxima Nova';dominant-baseline:alphabetic;text-anchor:middle;fill:#f0f0ff"
         id="text120"
         aria-label="XOR">
        <path
           id="path540"
           style="font-weight:bold;font-size:2.371px;font-family:'Proxima Nova';dominant-baseline:alphabetic;text-anchor:middle;fill:#f0f0ff"
           d="m -1.2386993,0 h 0.40306997 L -1.4094113,-0.81325302 -0.87119433,-1.581457 H -1.2766353 l -0.358021,0.540588 -0.3627631,-0.540588 h -0.400699 l 0.538217,0.77057498 L -2.4336834,0 h 0.400699 l 0.3983281,-0.57852401 z" />
        <path
           id="path542"
           style="font-weight:bold;font-size:2.371px;font-family:'Proxima Nova';dominant-baseline:alphabetic;text-anchor:middle;fill:#f0f0ff"
           d="m -0.83166532,-0.78954302 c 0,0.47657101 0.34853701,0.81799502 0.82510802,0.81799502 0.47894201,0 0.82747902,-0.34142401 0.82747902,-0.81799502 0,-0.47657098 -0.34853701,-0.81799498 -0.82747902,-0.81799498 -0.47657101,0 -0.82510802,0.341424 -0.82510802,0.81799498 z m 1.30642103,0 c 0,0.29400401 -0.18968,0.51924901 -0.48131301,0.51924901 -0.291633,0 -0.47894201,-0.225245 -0.47894201,-0.51924901 0,-0.29637498 0.18730901,-0.51924898 0.47894201,-0.51924898 0.29163301,0 0.48131301,0.222874 0.48131301,0.51924898 z" />
        <path
           id="path544"
           style="font-weight:bold;font-size:2.371px;font-family:'Proxima Nova';dominant-baseline:alphabetic;text-anchor:middle;fill:#f0f0ff"
           d="m 1.9533706,0 h 0.386473 l -0.35565,-0.60223401 c 0.170712,-0.040307 0.346166,-0.18968001 0.346166,-0.46945799 0,-0.294004 -0.201535,-0.509765 -0.531104,-0.509765 H 1.0595036 V 0 h 0.336682 v -0.56666901 h 0.246584 z m 0.033194,-1.074063 c 0,0.13277598 -0.101953,0.21813198 -0.2371,0.21813198 H 1.3961856 V -1.292195 h 0.353279 c 0.135147,0 0.2371,0.085356 0.2371,0.218132 z" />
      </g>
    </g>
    <path
       d="M 3.4200001,88.739998 H 11.82 c 0.554,0 1,0.446 1,1 V 100.72 c 0,0.554 -0.446,1 -1,1 H 3.4200001 c -0.554,0 -1,-0.446 -1,-1 V 89.739998 c 0,-0.554 0.446,-1 1,-1 z"
       style="fill:#000099;stroke:#000099;stroke-width:0.35"
       id="rect124" />
    <g
       id="g128"
       transform="translate(7.62,91.32)">
      <g
         style="font-weight:bold;font-size:2.371px;font-family:'Proxima Nova';dominant-baseline:alphabetic;text-anchor:middle;fill:#f0f0ff"
         id="text126"
         aria-label="A ⊲ B">
        <path
           id="path548"
           style="font-weight:bold;font-size:2.371px;font-family:'Proxima Nova';dominant-baseline:alphabetic;text-anchor:middle;fill:#f0f0ff"
           d="M -1.635175,0 H -1.26767 L -1.877017,-1.581457 H -2.299055 L -2.910773,0 h 0.369876 l 0.099582,-0.27266501 h 0.706558 z m -0.452861,-1.289824 0.26081,0.72552599 h -0.523991 z" />
        <path
           id="path550"
           style="font-weight:bold;font-size:2.371px;font-family:'Proxima Nova';dominant-baseline:alphabetic;text-anchor:middle;fill:#f0f0ff"
           d="M -0.54344057,0.054533 0.72504446,-0.67810601 -0.54344057,-1.410745 Z" />
        <path
           id="path552"
           style="font-weight:bold;font-size:2.371px;font-family:'Proxima Nova';dominant-baseline:alphabetic;text-anchor:middle;fill:#f0f0ff"
           d="m 1.4855429,0 h 0.858302 c 0.301117,0 0.459974,-0.18968 0.459974,-0.42678001 0,-0.199164 -0.135147,-0.36276301 -0.303488,-0.38884401 0.149373,-0.030823 0.272665,-0.163599 0.272665,-0.36276298 0,-0.211019 -0.154115,-0.40307 -0.455232,-0.40307 h -0.832221 z m 0.336682,-0.94602902 V -1.294566 h 0.422038 c 0.113808,0 0.184938,0.075872 0.184938,0.173083 0,0.101953 -0.07113,0.17545398 -0.184938,0.17545398 z m 0,0.65913801 v -0.372247 h 0.433893 c 0.132776,0 0.203906,0.085356 0.203906,0.184938 0,0.113808 -0.075872,0.187309 -0.203906,0.187309 z" />
      </g>
    </g>
    <path
       d="m 12.31,88.739998 h 8.4 c 0.554,0 1,0.446 1,1 V 100.72 c 0,0.554 -0.446,1 -1,1 h -8.4 c -0.554,0 -1,-0.446 -1,-1 V 89.739998 c 0,-0.554 0.446,-1 1,-1 z"
       style="fill:#000099;stroke:#000099;stroke-width:0.35"
       id="rect130" />
    <g
       id="g134"
       transform="translate(16.51,91.32)">
      <g
         style="font-weight:bold;font-size:2.371px;font-family:'Proxima Nova';dominant-baseline:alphabetic;text-anchor:middle;fill:#f0f0ff"
         id="text132"
         aria-label="¬">
        <path
           id="path556"
           style="font-weight:bold;font-size:2.371px;font-family:'Proxima Nova';dominant-baseline:alphabetic;text-anchor:middle;fill:#f0f0ff"
           d="M 0.51495157,-0.47657101 V -1.109628 h -1.05746602 v 0.18967998 h 0.86541502 v 0.44337701 z" />
      </g>
    </g>
    <path
       d="m 25.01,88.739998 h 8.4 c 0.554,0 1,0.446 1,1 V 100.72 c 0,0.554 -0.446,1 -1,1 h -8.4 c -0.554,0 -1,-0.446 -1,-1 V 89.739998 c 0,-0.554 0.446,-1 1,-1 z"
       style="fill:#000099;stroke:#000099;stroke-width:0.35"
       id="rect136" />
    <g
       id="g140"
       transform="translate(29.21,91.32)">
      <g
         style="font-weight:bold;font-size:2.371px;font-family:'Proxima Nova';dominant-baseline:alphabetic;text-anchor:middle;fill:#f0f0ff"
         id="text138"
         aria-label="¬">
        <path
           id="path560"
           style="font-weight:bold;font-size:2.371px;font-family:'Proxima Nova';dominant-baseline:alphabetic;text-anchor:middle;fill:#f0f0ff"
           d="M 0.51495157,-0.47657101 V -1.109628 h -1.05746602 v 0.18967998 h 0.86541502 v 0.44337701 z" />
      </g>
    </g>
    <path
       d="m 33.900002,88.739998 h 8.399999 c 0.554,0 1,0.446 1,1 V 100.72 c 0,0.554 -0.446,1 -1,1 h -8.399999 c -0.554,0 -1,-0.446 -1,-1 V 89.739998 c 0,-0.554 0.446,-1 1,-1 z"
       style="fill:#000099;stroke:#000099;stroke-width:0.35"
       id="rect142" />
    <g
       id="g146"
       transform="translate(38.1,91.32)">
      <g
         style="font-weight:bold;font-size:2.371px;font-family:'Proxima Nova';dominant-baseline:alphabetic;text-anchor:middle;fill:#f0f0ff"
         id="text144"
         aria-label="C ⊲ D">
        <path
           id="path564"
           style="font-weight:bold;font-size:2.371px;font-family:'Proxima Nova';dominant-baseline:alphabetic;text-anchor:middle;fill:#f0f0ff"
           d="m -2.0602323,0.028452 c 0.360392,0 0.559556,-0.192051 0.673364,-0.38884401 l -0.289262,-0.139889 c -0.066388,0.130405 -0.208648,0.229987 -0.384102,0.229987 -0.275036,0 -0.483684,-0.220503 -0.483684,-0.51924901 0,-0.29874598 0.208648,-0.51924898 0.483684,-0.51924898 0.175454,0 0.317714,0.101953 0.384102,0.229987 l 0.289262,-0.14226 c -0.111437,-0.196793 -0.312972,-0.386473 -0.673364,-0.386473 -0.462345,0 -0.8298501,0.33194 -0.8298501,0.81799498 0,0.48605501 0.3675051,0.81799502 0.8298501,0.81799502 z" />
        <path
           id="path566"
           style="font-weight:bold;font-size:2.371px;font-family:'Proxima Nova';dominant-baseline:alphabetic;text-anchor:middle;fill:#f0f0ff"
           d="M -0.60595705,0.054533 0.66252798,-0.67810601 -0.60595705,-1.410745 Z" />
        <path
           id="path568"
           style="font-weight:bold;font-size:2.371px;font-family:'Proxima Nova';dominant-baseline:alphabetic;text-anchor:middle;fill:#f0f0ff"
           d="m 1.4230261,0 h 0.6235731 c 0.495539,0 0.839334,-0.31297201 0.839334,-0.78954302 0,-0.47657098 -0.343795,-0.79191398 -0.839334,-0.79191398 H 1.4230261 Z M 1.7597082,-0.29637501 V -1.285082 h 0.286891 c 0.324827,0 0.495539,0.215761 0.495539,0.49553898 0,0.26792301 -0.182567,0.49316801 -0.495539,0.49316801 z" />
      </g>
    </g>
    <path
       d="M 3.4200001,103.98 H 11.82 c 0.554,0 1,0.446 1,1 v 10.98 c 0,0.554 -0.446,1 -1,1 H 3.4200001 c -0.554,0 -1,-0.446 -1,-1 v -10.98 c 0,-0.554 0.446,-1 1,-1 z"
       style="fill:#000099;stroke:#000099;stroke-width:0.35"
       id="rect148" />
    <g
       id="g152"
       transform="translate(7.62,106.56)">
      <g
         style="font-weight:bold;font-size:2.371px;font-family:'Proxima Nova';dominant-baseline:alphabetic;text-anchor:middle;fill:#f0f0ff"
         id="text150"
         aria-label="A ⊳ B">
        <path
           id="path572"
           style="font-weight:bold;font-size:2.371px;font-family:'Proxima Nova';dominant-baseline:alphabetic;text-anchor:middle;fill:#f0f0ff"
           d="M -1.635175,0 H -1.26767 L -1.877017,-1.581457 H -2.299055 L -2.910773,0 h 0.369876 l 0.099582,-0.27266501 h 0.706558 z m -0.452861,-1.289824 0.26081,0.72552599 h -0.523991 z" />
        <path
           id="path574"
           style="font-weight:bold;font-size:2.371px;font-family:'Proxima Nova';dominant-baseline:alphabetic;text-anchor:middle;fill:#f0f0ff"
           d="m 0.59701045,0.054533 v -1.465278 l -1.26848503,0.73263899 z" />
        <path
           id="path576"
           style="font-weight:bold;font-size:2.371px;font-family:'Proxima Nova';dominant-baseline:alphabetic;text-anchor:middle;fill:#f0f0ff"
           d="m 1.4855429,0 h 0.858302 c 0.301117,0 0.459974,-0.18968 0.459974,-0.42678001 0,-0.199164 -0.135147,-0.36276301 -0.303488,-0.38884401 0.149373,-0.030823 0.272665,-0.163599 0.272665,-0.36276298 0,-0.211019 -0.154115,-0.40307 -0.455232,-0.40307 h -0.832221 z m 0.336682,-0.94602902 V -1.294566 h 0.422038 c 0.113808,0 0.184938,0.075872 0.184938,0.173083 0,0.101953 -0.07113,0.17545398 -0.184938,0.17545398 z m 0,0.65913801 v -0.372247 h 0.433893 c 0.132776,0 0.203906,0.085356 0.203906,0.184938 0,0.113808 -0.075872,0.187309 -0.203906,0.187309 z" />
      </g>
    </g>
    <path
       d="m 12.31,103.98 h 8.4 c 0.554,0 1,0.446 1,1 v 10.98 c 0,0.554 -0.446,1 -1,1 h -8.4 c -0.554,0 -1,-0.446 -1,-1 v -10.98 c 0,-0.554 0.446,-1 1,-1 z"
       style="fill:#000099;stroke:#000099;stroke-width:0.35"
       id="rect154" />
    <g
       id="g158"
       transform="translate(16.51,106.56)">
      <g
         style="font-weight:bold;font-size:2.371px;font-family:'Proxima Nova';dominant-baseline:alphabetic;text-anchor:middle;fill:#f0f0ff"
         id="text156"
         aria-label="¬">
        <path
           id="path580"
           style="font-weight:bold;font-size:2.371px;font-family:'Proxima Nova';dominant-baseline:alphabetic;text-anchor:middle;fill:#f0f0ff"
           d="M 0.51495157,-0.47657101 V -1.109628 h -1.05746602 v 0.18967998 h 0.86541502 v 0.44337701 z" />
      </g>
    </g>
    <path
       d="m 25.01,103.98 h 8.4 c 0.554,0 1,0.446 1,1 v 10.98 c 0,0.554 -0.446,1 -1,1 h -8.4 c -0.554,0 -1,-0.446 -1,-1 v -10.98 c 0,-0.554 0.446,-1 1,-1 z"
       style="fill:#000099;stroke:#000099;stroke-width:0.35"
       id="rect160" />
    <g
       id="g164"
       transform="translate(29.21,106.56)">
      <g
         style="font-weight:bold;font-size:2.371px;font-family:'Proxima Nova';dominant-baseline:alphabetic;text-anchor:middle;fill:#f0f0ff"
         id="text162"
         aria-label="¬">
        <path
           id="path584"
           style="font-weight:bold;font-size:2.371px;font-family:'Proxima Nova';dominant-baseline:alphabetic;text-anchor:middle;fill:#f0f0ff"
           d="M 0.51495157,-0.47657101 V -1.109628 h -1.05746602 v 0.18967998 h 0.86541502 v 0.44337701 z" />
      </g>
    </g>
    <path
       d="m 33.900002,103.98 h 8.399999 c 0.554,0 1,0.446 1,1 v 10.98 c 0,0.554 -0.446,1 -1,1 h -8.399999 c -0.554,0 -1,-0.446 -1,-1 v -10.98 c 0,-0.554 0.446,-1 1,-1 z"
       style="fill:#000099;stroke:#000099;stroke-width:0.35"
       id="rect166" />
    <g
       id="g170"
       transform="translate(38.1,106.56)">
      <g
         style="font-weight:bold;font-size:2.371px;font-family:'Proxima Nova';dominant-baseline:alphabetic;text-anchor:middle;fill:#f0f0ff"
         id="text168"
         aria-label="C ⊳ D">
        <path
           id="path588"
           style="font-weight:bold;font-size:2.371px;font-family:'Proxima Nova';dominant-baseline:alphabetic;text-anchor:middle;fill:#f0f0ff"
           d="m -2.0602323,0.028452 c 0.360392,0 0.559556,-0.192051 0.673364,-0.38884401 l -0.289262,-0.139889 c -0.066388,0.130405 -0.208648,0.229987 -0.384102,0.229987 -0.275036,0 -0.483684,-0.220503 -0.483684,-0.51924901 0,-0.29874598 0.208648,-0.51924898 0.483684,-0.51924898 0.175454,0 0.317714,0.101953 0.384102,0.229987 l 0.289262,-0.14226 c -0.111437,-0.196793 -0.312972,-0.386473 -0.673364,-0.386473 -0.462345,0 -0.8298501,0.33194 -0.8298501,0.81799498 0,0.48605501 0.3675051,0.81799502 0.8298501,0.81799502 z" />
        <path
           id="path590"
           style="font-weight:bold;font-size:2.371px;font-family:'Proxima Nova';dominant-baseline:alphabetic;text-anchor:middle;fill:#f0f0ff"
           d="m 0.53449398,0.054533 v -1.465278 l -1.26848503,0.73263899 z" />
        <path
           id="path592"
           style="font-weight:bold;font-size:2.371px;font-family:'Proxima Nova';dominant-baseline:alphabetic;text-anchor:middle;fill:#f0f0ff"
           d="m 1.4230261,0 h 0.6235731 c 0.495539,0 0.839334,-0.31297201 0.839334,-0.78954302 0,-0.47657098 -0.343795,-0.79191398 -0.839334,-0.79191398 H 1.4230261 Z M 1.7597082,-0.29637501 V -1.285082 h 0.286891 c 0.324827,0 0.495539,0.215761 0.495539,0.49553898 0,0.26792301 -0.182567,0.49316801 -0.495539,0.49316801 z" />
      </g>
    </g>
    <g
       id="g178"
       transform="translate(7.62,20.32)">
      <path
         d="M 4.1999998,0 A 4.1999998,4.1999998 0 0 1 0,4.1999998 4.1999998,4.1999998 0 0 1 -4.1999998,0 4.1999998,4.1999998 0 0 1 0,-4.1999998 4.1999998,4.1999998 0 0 1 4.1999998,0"
         style="fill:#000099;stroke:none;stroke-width:0"
         id="circle172" />
      <path
         d="M 3.5,0 A 3.5,3.5 0 0 1 0,3.5 3.5,3.5 0 0 1 -3.5,0 3.5,3.5 0 0 1 0,-3.5 3.5,3.5 0 0 1 3.5,0"
         style="fill:none;stroke:#f0f0ff;stroke-width:0.95"
         id="circle174" />
      <path
         d="M 2.325,0 A 2.325,2.325 0 0 1 0,2.325 2.325,2.325 0 0 1 -2.325,0 2.325,2.325 0 0 1 0,-2.325 2.325,2.325 0 0 1 2.325,0"
         style="fill:none;stroke:#f0f0ff;stroke-width:0.95"
         id="circle176" />
    </g>
    <g
       id="g184"
       transform="translate(15.24,20.32)">
      <path
         d="M 3,0 A 3,3 0 0 1 0,3 3,3 0 0 1 -3,0 3,3 0 0 1 0,-3 3,3 0 0 1 3,0"
         style="fill:#000099;stroke:none;stroke-width:0"
         id="circle180" />
      <path
         d="M 2,0 A 2,2 0 0 1 0,2 2,2 0 0 1 -2,0 2,2 0 0 1 0,-2 2,2 0 0 1 2,0"
         style="fill:#000099;stroke:none;stroke-width:0"
         id="circle182" />
    </g>
    <g
       id="g190"
       transform="translate(30.48,20.32)">
      <path
         d="M 3,0 A 3,3 0 0 1 0,3 3,3 0 0 1 -3,0 3,3 0 0 1 0,-3 3,3 0 0 1 3,0"
         style="fill:#000099;stroke:none;stroke-width:0"
         id="circle186" />
      <path
         d="M 2,0 A 2,2 0 0 1 0,2 2,2 0 0 1 -2,0 2,2 0 0 1 0,-2 2,2 0 0 1 2,0"
         style="fill:#000099;stroke:none;stroke-width:0"
         id="circle188" />
    </g>
    <g
       id="g198"
       transform="translate(38.1,20.32)">
      <path
         d="M 4.1999998,0 A 4.1999998,4.1999998 0 0 1 0,4.1999998 4.1999998,4.1999998 0 0 1 -4.1999998,0 4.1999998,4.1999998 0 0 1 0,-4.1999998 4.1999998,4.1999998 0 0 1 4.1999998,0"
         style="fill:#000099;stroke:none;stroke-width:0"
         id="circle192" />
      <path
         d="M 3.5,0 A 3.5,3.5 0 0 1 0,3.5 3.5,3.5 0 0 1 -3.5,0 3.5,3.5 0 0 1 0,-3.5 3.5,3.5 0 0 1 3.5,0"
         style="fill:none;stroke:#f0f0ff;stroke-width:0.95"
         id="circle194" />
      <path
         d="M 2.325,0 A 2.325,2.325 0 0 1 0,2.325 2.325,2.325 0 0 1 -2.325,0 2.325,2.325 0 0 1 0,-2.325 2.325,2.325 0 0 1 2.325,0"
         style="fill:none;stroke:#f0f0ff;stroke-width:0.95"
         id="circle196" />
    </g>
    <g
       id="g212"
       transform="translate(22.86,27.94)">
      <path
         d="m -1.124,-2.812 h 2.249 c 0.104152,0 0.188,0.083848 0.188,0.188 v 5.249 c 0,0.104152 -0.083848,0.188 -0.188,0.188 h -2.249 c -0.104152,0 -0.188,-0.083848 -0.188,-0.188 v -5.249 c 0,-0.104152 0.083848,-0.188 0.188,-0.188 z"
         style="fill:#f0f0ff;stroke:#000099;stroke-width:0.375"
         id="rect200" />
      <path
         d="M -0.81199998,-2.25 H 0.81199998"
         style="stroke:#000099;stroke-width:0.25;stroke-linecap:round"
         id="line202" />
      <path
         d="M -0.81199998,-1.75 H 0.81199998"
         style="stroke:#000099;stroke-width:0.25;stroke-linecap:round"
         id="line204" />
      <path
         d="M -0.81199998,-1.25 H 0.81199998"
         style="stroke:#000099;stroke-width:0.25;stroke-linecap:round"
         id="line206" />
      <path
         d="M -0.81199998,-0.75 H 0.81199998"
         style="stroke:#000099;stroke-width:0.25;stroke-linecap:round"
         id="line208" />
      <path
         d="M -0.81199998,-0.25 H 0.81199998"
         style="stroke:#000099;stroke-width:0.25;stroke-linecap:round"
         id="line210" />
    </g>
    <g
       id="g220"
       transform="translate(7.62,35.56)">
      <path
         d="M 4.1999998,0 A 4.1999998,4.1999998 0 0 1 0,4.1999998 4.1999998,4.1999998 0 0 1 -4.1999998,0 4.1999998,4.1999998 0 0 1 0,-4.1999998 4.1999998,4.1999998 0 0 1 4.1999998,0"
         style="fill:#000099;stroke:none;stroke-width:0"
         id="circle214" />
      <path
         d="M 3.5,0 A 3.5,3.5 0 0 1 0,3.5 3.5,3.5 0 0 1 -3.5,0 3.5,3.5 0 0 1 0,-3.5 3.5,3.5 0 0 1 3.5,0"
         style="fill:none;stroke:#f0f0ff;stroke-width:0.95"
         id="circle216" />
      <path
         d="M 2.325,0 A 2.325,2.325 0 0 1 0,2.325 2.325,2.325 0 0 1 -2.325,0 2.325,2.325 0 0 1 0,-2.325 2.325,2.325 0 0 1 2.325,0"
         style="fill:none;stroke:#f0f0ff;stroke-width:0.95"
         id="circle218" />
    </g>
    <g
       id="g226"
       transform="translate(15.24,35.56)">
      <path
         d="M 3,0 A 3,3 0 0 1 0,3 3,3 0 0 1 -3,0 3,3 0 0 1 0,-3 3,3 0 0 1 3,0"
         style="fill:#000099;stroke:none;stroke-width:0"
         id="circle222" />
      <path
         d="M 2,0 A 2,2 0 0 1 0,2 2,2 0 0 1 -2,0 2,2 0 0 1 0,-2 2,2 0 0 1 2,0"
         style="fill:#000099;stroke:none;stroke-width:0"
         id="circle224" />
    </g>
    <g
       id="g232"
       transform="translate(30.48,35.56)">
      <path
         d="M 3,0 A 3,3 0 0 1 0,3 3,3 0 0 1 -3,0 3,3 0 0 1 0,-3 3,3 0 0 1 3,0"
         style="fill:#000099;stroke:none;stroke-width:0"
         id="circle228" />
      <path
         d="M 2,0 A 2,2 0 0 1 0,2 2,2 0 0 1 -2,0 2,2 0 0 1 0,-2 2,2 0 0 1 2,0"
         style="fill:#000099;stroke:none;stroke-width:0"
         id="circle230" />
    </g>
    <g
       id="g240"
       transform="translate(38.1,35.56)">
      <path
         d="M 4.1999998,0 A 4.1999998,4.1999998 0 0 1 0,4.1999998 4.1999998,4.1999998 0 0 1 -4.1999998,0 4.1999998,4.1999998 0 0 1 0,-4.1999998 4.1999998,4.1999998 0 0 1 4.1999998,0"
         style="fill:#000099;stroke:none;stroke-width:0"
         id="circle234" />
      <path
         d="M 3.5,0 A 3.5,3.5 0 0 1 0,3.5 3.5,3.5 0 0 1 -3.5,0 3.5,3.5 0 0 1 0,-3.5 3.5,3.5 0 0 1 3.5,0"
         style="fill:none;stroke:#f0f0ff;stroke-width:0.95"
         id="circle236" />
      <path
         d="M 2.325,0 A 2.325,2.325 0 0 1 0,2.325 2.325,2.325 0 0 1 -2.325,0 2.325,2.325 0 0 1 0,-2.325 2.325,2.325 0 0 1 2.325,0"
         style="fill:none;stroke:#f0f0ff;stroke-width:0.95"
         id="circle238" />
    </g>
    <g
       id="g248"
       transform="translate(7.62,50.8)">
      <path
         d="M 4.1999998,0 A 4.1999998,4.1999998 0 0 1 0,4.1999998 4.1999998,4.1999998 0 0 1 -4.1999998,0 4.1999998,4.1999998 0 0 1 0,-4.1999998 4.1999998,4.1999998 0 0 1 4.1999998,0"
         style="fill:#000099;stroke:none;stroke-width:0"
         id="circle242" />
      <path
         d="M 3.5,0 A 3.5,3.5 0 0 1 0,3.5 3.5,3.5 0 0 1 -3.5,0 3.5,3.5 0 0 1 0,-3.5 3.5,3.5 0 0 1 3.5,0"
         style="fill:none;stroke:#f0f0ff;stroke-width:0.95"
         id="circle244" />
      <path
         d="M 2.325,0 A 2.325,2.325 0 0 1 0,2.325 2.325,2.325 0 0 1 -2.325,0 2.325,2.325 0 0 1 0,-2.325 2.325,2.325 0 0 1 2.325,0"
         style="fill:none;stroke:#f0f0ff;stroke-width:0.95"
         id="circle246" />
    </g>
    <g
       id="g256"
       transform="translate(16.51,50.8)">
      <path
         d="M 4.1999998,0 A 4.1999998,4.1999998 0 0 1 0,4.1999998 4.1999998,4.1999998 0 0 1 -4.1999998,0 4.1999998,4.1999998 0 0 1 0,-4.1999998 4.1999998,4.1999998 0 0 1 4.1999998,0"
         style="fill:#000099;stroke:none;stroke-width:0"
         id="circle250" />
      <path
         d="M 3.5,0 A 3.5,3.5 0 0 1 0,3.5 3.5,3.5 0 0 1 -3.5,0 3.5,3.5 0 0 1 0,-3.5 3.5,3.5 0 0 1 3.5,0"
         style="fill:none;stroke:#f0f0ff;stroke-width:0.95"
         id="circle252" />
      <path
         d="M 2.325,0 A 2.325,2.325 0 0 1 0,2.325 2.325,2.325 0 0 1 -2.325,0 2.325,2.325 0 0 1 0,-2.325 2.325,2.325 0 0 1 2.325,0"
         style="fill:none;stroke:#f0f0ff;stroke-width:0.95"
         id="circle254" />
    </g>
    <g
       id="g264"
       transform="translate(29.21,50.8)">
      <path
         d="M 4.1999998,0 A 4.1999998,4.1999998 0 0 1 0,4.1999998 4.1999998,4.1999998 0 0 1 -4.1999998,0 4.1999998,4.1999998 0 0 1 0,-4.1999998 4.1999998,4.1999998 0 0 1 4.1999998,0"
         style="fill:#000099;stroke:none;stroke-width:0"
         id="circle258" />
      <path
         d="M 3.5,0 A 3.5,3.5 0 0 1 0,3.5 3.5,3.5 0 0 1 -3.5,0 3.5,3.5 0 0 1 0,-3.5 3.5,3.5 0 0 1 3.5,0"
         style="fill:none;stroke:#f0f0ff;stroke-width:0.95"
         id="circle260" />
      <path
         d="M 2.325,0 A 2.325,2.325 0 0 1 0,2.325 2.325,2.325 0 0 1 -2.325,0 2.325,2.325 0 0 1 0,-2.325 2.325,2.325 0 0 1 2.325,0"
         style="fill:none;stroke:#f0f0ff;stroke-width:0.95"
         id="circle262" />
    </g>
    <g
       id="g272"
       transform="translate(38.1,50.8)">
      <path
         d="M 4.1999998,0 A 4.1999998,4.1999998 0 0 1 0,4.1999998 4.1999998,4.1999998 0 0 1 -4.1999998,0 4.1999998,4.1999998 0 0 1 0,-4.1999998 4.1999998,4.1999998 0 0 1 4.1999998,0"
         style="fill:#000099;stroke:none;stroke-width:0"
         id="circle266" />
      <path
         d="M 3.5,0 A 3.5,3.5 0 0 1 0,3.5 3.5,3.5 0 0 1 -3.5,0 3.5,3.5 0 0 1 0,-3.5 3.5,3.5 0 0 1 3.5,0"
         style="fill:none;stroke:#f0f0ff;stroke-width:0.95"
         id="circle268" />
      <path
         d="M 2.325,0 A 2.325,2.325 0 0 1 0,2.325 2.325,2.325 0 0 1 -2.325,0 2.325,2.325 0 0 1 0,-2.325 2.325,2.325 0 0 1 2.325,0"
         style="fill:none;stroke:#f0f0ff;stroke-width:0.95"
         id="circle270" />
    </g>
    <g
       id="g280"
       transform="translate(7.62,66.04)">
      <path
         d="M 4.1999998,0 A 4.1999998,4.1999998 0 0 1 0,4.1999998 4.1999998,4.1999998 0 0 1 -4.1999998,0 4.1999998,4.1999998 0 0 1 0,-4.1999998 4.1999998,4.1999998 0 0 1 4.1999998,0"
         style="fill:#000099;stroke:none;stroke-width:0"
         id="circle274" />
      <path
         d="M 3.5,0 A 3.5,3.5 0 0 1 0,3.5 3.5,3.5 0 0 1 -3.5,0 3.5,3.5 0 0 1 0,-3.5 3.5,3.5 0 0 1 3.5,0"
         style="fill:none;stroke:#f0f0ff;stroke-width:0.95"
         id="circle276" />
      <path
         d="M 2.325,0 A 2.325,2.325 0 0 1 0,2.325 2.325,2.325 0 0 1 -2.325,0 2.325,2.325 0 0 1 0,-2.325 2.325,2.325 0 0 1 2.325,0"
         style="fill:none;stroke:#f0f0ff;stroke-width:0.95"
         id="circle278" />
    </g>
    <g
       id="g288"
       transform="translate(16.51,66.04)">
      <path
         d="M 4.1999998,0 A 4.1999998,4.1999998 0 0 1 0,4.1999998 4.1999998,4.1999998 0 0 1 -4.1999998,0 4.1999998,4.1999998 0 0 1 0,-4.1999998 4.1999998,4.1999998 0 0 1 4.1999998,0"
         style="fill:#000099;stroke:none;stroke-width:0"
         id="circle282" />
      <path
         d="M 3.5,0 A 3.5,3.5 0 0 1 0,3.5 3.5,3.5 0 0 1 -3.5,0 3.5,3.5 0 0 1 0,-3.5 3.5,3.5 0 0 1 3.5,0"
         style="fill:none;stroke:#f0f0ff;stroke-width:0.95"
         id="circle284" />
      <path
         d="M 2.325,0 A 2.325,2.325 0 0 1 0,2.325 2.325,2.325 0 0 1 -2.325,0 2.325,2.325 0 0 1 0,-2.325 2.325,2.325 0 0 1 2.325,0"
         style="fill:none;stroke:#f0f0ff;stroke-width:0.95"
         id="circle286" />
    </g>
    <g
       id="g296"
       transform="translate(29.21,66.04)">
      <path
         d="M 4.1999998,0 A 4.1999998,4.1999998 0 0 1 0,4.1999998 4.1999998,4.1999998 0 0 1 -4.1999998,0 4.1999998,4.1999998 0 0 1 0,-4.1999998 4.1999998,4.1999998 0 0 1 4.1999998,0"
         style="fill:#000099;stroke:none;stroke-width:0"
         id="circle290" />
      <path
         d="M 3.5,0 A 3.5,3.5 0 0 1 0,3.5 3.5,3.5 0 0 1 -3.5,0 3.5,3.5 0 0 1 0,-3.5 3.5,3.5 0 0 1 3.5,0"
         style="fill:none;stroke:#f0f0ff;stroke-width:0.95"
         id="circle292" />
      <path
         d="M 2.325,0 A 2.325,2.325 0 0 1 0,2.325 2.325,2.325 0 0 1 -2.325,0 2.325,2.325 0 0 1 0,-2.325 2.325,2.325 0 0 1 2.325,0"
         style="fill:none;stroke:#f0f0ff;stroke-width:0.95"
         id="circle294" />
    </g>
    <g
       id="g304"
       transform="translate(38.1,66.04)">
      <path
         d="M 4.1999998,0 A 4.1999998,4.1999998 0 0 1 0,4.1999998 4.1999998,4.1999998 0 0 1 -4.1999998,0 4.1999998,4.1999998 0 0 1 0,-4.1999998 4.1999998,4.1999998 0 0 1 4.1999998,0"
         style="fill:#000099;stroke:none;stroke-width:0"
         id="circle298" />
      <path
         d="M 3.5,0 A 3.5,3.5 0 0 1 0,3.5 3.5,3.5 0 0 1 -3.5,0 3.5,3.5 0 0 1 0,-3.5 3.5,3.5 0 0 1 3.5,0"
         style="fill:none;stroke:#f0f0ff;stroke-width:0.95"
         id="circle300" />
      <path
         d="M 2.325,0 A 2.325,2.325 0 0 1 0,2.325 2.325,2.325 0 0 1 -2.325,0 2.325,2.325 0 0 1 0,-2.325 2.325,2.325 0 0 1 2.325,0"
         style="fill:none;stroke:#f0f0ff;stroke-width:0.95"
         id="circle302" />
    </g>
    <g
       id="g312"
       transform="translate(7.62,81.28)">
      <path
         d="M 4.1999998,0 A 4.1999998,4.1999998 0 0 1 0,4.1999998 4.1999998,4.1999998 0 0 1 -4.1999998,0 4.1999998,4.1999998 0 0 1 0,-4.1999998 4.1999998,4.1999998 0 0 1 4.1999998,0"
         style="fill:#000099;stroke:none;stroke-width:0"
         id="circle306" />
      <path
         d="M 3.5,0 A 3.5,3.5 0 0 1 0,3.5 3.5,3.5 0 0 1 -3.5,0 3.5,3.5 0 0 1 0,-3.5 3.5,3.5 0 0 1 3.5,0"
         style="fill:none;stroke:#f0f0ff;stroke-width:0.95"
         id="circle308" />
      <path
         d="M 2.325,0 A 2.325,2.325 0 0 1 0,2.325 2.325,2.325 0 0 1 -2.325,0 2.325,2.325 0 0 1 0,-2.325 2.325,2.325 0 0 1 2.325,0"
         style="fill:none;stroke:#f0f0ff;stroke-width:0.95"
         id="circle310" />
    </g>
    <g
       id="g320"
       transform="translate(16.51,81.28)">
      <path
         d="M 4.1999998,0 A 4.1999998,4.1999998 0 0 1 0,4.1999998 4.1999998,4.1999998 0 0 1 -4.1999998,0 4.1999998,4.1999998 0 0 1 0,-4.1999998 4.1999998,4.1999998 0 0 1 4.1999998,0"
         style="fill:#000099;stroke:none;stroke-width:0"
         id="circle314" />
      <path
         d="M 3.5,0 A 3.5,3.5 0 0 1 0,3.5 3.5,3.5 0 0 1 -3.5,0 3.5,3.5 0 0 1 0,-3.5 3.5,3.5 0 0 1 3.5,0"
         style="fill:none;stroke:#f0f0ff;stroke-width:0.95"
         id="circle316" />
      <path
         d="M 2.325,0 A 2.325,2.325 0 0 1 0,2.325 2.325,2.325 0 0 1 -2.325,0 2.325,2.325 0 0 1 0,-2.325 2.325,2.325 0 0 1 2.325,0"
         style="fill:none;stroke:#f0f0ff;stroke-width:0.95"
         id="circle318" />
    </g>
    <g
       id="g328"
       transform="translate(29.21,81.28)">
      <path
         d="M 4.1999998,0 A 4.1999998,4.1999998 0 0 1 0,4.1999998 4.1999998,4.1999998 0 0 1 -4.1999998,0 4.1999998,4.1999998 0 0 1 0,-4.1999998 4.1999998,4.1999998 0 0 1 4.1999998,0"
         style="fill:#000099;stroke:none;stroke-width:0"
         id="circle322" />
      <path
         d="M 3.5,0 A 3.5,3.5 0 0 1 0,3.5 3.5,3.5 0 0 1 -3.5,0 3.5,3.5 0 0 1 0,-3.5 3.5,3.5 0 0 1 3.5,0"
         style="fill:none;stroke:#f0f0ff;stroke-width:0.95"
         id="circle324" />
      <path
         d="M 2.325,0 A 2.325,2.325 0 0 1 0,2.325 2.325,2.325 0 0 1 -2.325,0 2.325,2.325 0 0 1 0,-2.325 2.325,2.325 0 0 1 2.325,0"
         style="fill:none;stroke:#f0f0ff;stroke-width:0.95"
         id="circle326" />
    </g>
    <g
       id="g336"
       transform="translate(38.1,81.28)">
      <path
         d="M 4.1999998,0 A 4.1999998,4.1999998 0 0 1 0,4.1999998 4.1999998,4.1999998 0 0 1 -4.1999998,0 4.1999998,4.1999998 0 0 1 0,-4.1999998 4.1999998,4.1999998 0 0 1 4.1999998,0"
         style="fill:#000099;stroke:none;stroke-width:0"
         id="circle330" />
      <path
         d="M 3.5,0 A 3.5,3.5 0 0 1 0,3.5 3.5,3.5 0 0 1 -3.5,0 3.5,3.5 0 0 1 0,-3.5 3.5,3.5 0 0 1 3.5,0"
         style="fill:none;stroke:#f0f0ff;stroke-width:0.95"
         id="circle332" />
      <path
         d="M 2.325,0 A 2.325,2.325 0 0 1 0,2.325 2.325,2.325 0 0 1 -2.325,0 2.325,2.325 0 0 1 0,-2.325 2.325,2.325 0 0 1 2.325,0"
         style="fill:none;stroke:#f0f0ff;stroke-width:0.95"
         id="circle334" />
    </g>
    <g
       id="g344"
       transform="translate(7.62,96.52)">
      <path
         d="M 4.1999998,0 A 4.1999998,4.1999998 0 0 1 0,4.1999998 4.1999998,4.1999998 0 0 1 -4.1999998,0 4.1999998,4.1999998 0 0 1 0,-4.1999998 4.1999998,4.1999998 0 0 1 4.1999998,0"
         style="fill:#000099;stroke:none;stroke-width:0"
         id="circle338" />
      <path
         d="M 3.5,0 A 3.5,3.5 0 0 1 0,3.5 3.5,3.5 0 0 1 -3.5,0 3.5,3.5 0 0 1 0,-3.5 3.5,3.5 0 0 1 3.5,0"
         style="fill:none;stroke:#f0f0ff;stroke-width:0.95"
         id="circle340" />
      <path
         d="M 2.325,0 A 2.325,2.325 0 0 1 0,2.325 2.325,2.325 0 0 1 -2.325,0 2.325,2.325 0 0 1 0,-2.325 2.325,2.325 0 0 1 2.325,0"
         style="fill:none;stroke:#f0f0ff;stroke-width:0.95"
         id="circle342" />
    </g>
    <g
       id="g352"
       transform="translate(16.51,96.52)">
      <path
         d="M 4.1999998,0 A 4.1999998,4.1999998 0 0 1 0,4.1999998 4.1999998,4.1999998 0 0 1 -4.1999998,0 4.1999998,4.1999998 0 0 1 0,-4.1999998 4.1999998,4.1999998 0 0 1 4.1999998,0"
         style="fill:#000099;stroke:none;stroke-width:0"
         id="circle346" />
      <path
         d="M 3.5,0 A 3.5,3.5 0 0 1 0,3.5 3.5,3.5 0 0 1 -3.5,0 3.5,3.5 0 0 1 0,-3.5 3.5,3.5 0 0 1 3.5,0"
         style="fill:none;stroke:#f0f0ff;stroke-width:0.95"
         id="circle348" />
      <path
         d="M 2.325,0 A 2.325,2.325 0 0 1 0,2.325 2.325,2.325 0 0 1 -2.325,0 2.325,2.325 0 0 1 0,-2.325 2.325,2.325 0 0 1 2.325,0"
         style="fill:none;stroke:#f0f0ff;stroke-width:0.95"
         id="circle350" />
    </g>
    <g
       id="g360"
       transform="translate(29.21,96.52)">
      <path
         d="M 4.1999998,0 A 4.1999998,4.1999998 0 0 1 0,4.1999998 4.1999998,4.1999998 0 0 1 -4.1999998,0 4.1999998,4.1999998 0 0 1 0,-4.1999998 4.1999998,4.1999998 0 0 1 4.1999998,0"
         style="fill:#000099;stroke:none;stroke-width:0"
         id="circle354" />
      <path
         d="M 3.5,0 A 3.5,3.5 0 0 1 0,3.5 3.5,3.5 0 0 1 -3.5,0 3.5,3.5 0 0 1 0,-3.5 3.5,3.5 0 0 1 3.5,0"
         style="fill:none;stroke:#f0f0ff;stroke-width:0.95"
         id="circle356" />
      <path
         d="M 2.325,0 A 2.325,2.325 0 0 1 0,2.325 2.325,2.325 0 0 1 -2.325,0 2.325,2.325 0 0 1 0,-2.325 2.325,2.325 0 0 1 2.325,0"
         style="fill:none;stroke:#f0f0ff;stroke-width:0.95"
         id="circle358" />
    </g>
    <g
       id="g368"
       transform="translate(38.1,96.52)">
      <path
         d="M 4.1999998,0 A 4.1999998,4.1999998 0 0 1 0,4.1999998 4.1999998,4.1999998 0 0 1 -4.1999998,0 4.1999998,4.1999998 0 0 1 0,-4.1999998 4.1999998,4.1999998 0 0 1 4.1999998,0"
         style="fill:#000099;stroke:none;stroke-width:0"
         id="circle362" />
      <path
         d="M 3.5,0 A 3.5,3.5 0 0 1 0,3.5 3.5,3.5 0 0 1 -3.5,0 3.5,3.5 0 0 1 0,-3.5 3.5,3.5 0 0 1 3.5,0"
         style="fill:none;stroke:#f0f0ff;stroke-width:0.95"
         id="circle364" />
      <path
         d="M 2.325,0 A 2.325,2.325 0 0 1 0,2.325 2.325,2.325 0 0 1 -2.325,0 2.325,2.325 0 0 1 0,-2.325 2.325,2.325 0 0 1 2.325,0"
         style="fill:none;stroke:#f0f0ff;stroke-width:0.95"
         id="circle366" />
    </g>
    <g
       id="g376"
       transform="translate(7.62,111.76)">
      <path
         d="M 4.1999998,0 A 4.1999998,4.1999998 0 0 1 0,4.1999998 4.1999998,4.1999998 0 0 1 -4.1999998,0 4.1999998,4.1999998 0 0 1 0,-4.1999998 4.1999998,4.1999998 0 0 1 4.1999998,0"
         style="fill:#000099;stroke:none;stroke-width:0"
         id="circle370" />
      <path
         d="M 3.5,0 A 3.5,3.5 0 0 1 0,3.5 3.5,3.5 0 0 1 -3.5,0 3.5,3.5 0 0 1 0,-3.5 3.5,3.5 0 0 1 3.5,0"
         style="fill:none;stroke:#f0f0ff;stroke-width:0.95"
         id="circle372" />
      <path
         d="M 2.325,0 A 2.325,2.325 0 0 1 0,2.325 2.325,2.325 0 0 1 -2.325,0 2.325,2.325 0 0 1 0,-2.325 2.325,2.325 0 0 1 2.325,0"
         style="fill:none;stroke:#f0f0ff;stroke-width:0.95"
         id="circle374" />
    </g>
    <g
       id="g384"
       transform="translate(16.51,111.76)">
      <path
         d="M 4.1999998,0 A 4.1999998,4.1999998 0 0 1 0,4.1999998 4.1999998,4.1999998 0 0 1 -4.1999998,0 4.1999998,4.1999998 0 0 1 0,-4.1999998 4.1999998,4.1999998 0 0 1 4.1999998,0"
         style="fill:#000099;stroke:none;stroke-width:0"
         id="circle378" />
      <path
         d="M 3.5,0 A 3.5,3.5 0 0 1 0,3.5 3.5,3.5 0 0 1 -3.5,0 3.5,3.5 0 0 1 0,-3.5 3.5,3.5 0 0 1 3.5,0"
         style="fill:none;stroke:#f0f0ff;stroke-width:0.95"
         id="circle380" />
      <path
         d="M 2.325,0 A 2.325,2.325 0 0 1 0,2.325 2.325,2.325 0 0 1 -2.325,0 2.325,2.325 0 0 1 0,-2.325 2.325,2.325 0 0 1 2.325,0"
         style="fill:none;stroke:#f0f0ff;stroke-width:0.95"
         id="circle382" />
    </g>
    <g
       id="g392"
       transform="translate(29.21,111.76)">
      <path
         d="M 4.1999998,0 A 4.1999998,4.1999998 0 0 1 0,4.1999998 4.1999998,4.1999998 0 0 1 -4.1999998,0 4.1999998,4.1999998 0 0 1 0,-4.1999998 4.1999998,4.1999998 0 0 1 4.1999998,0"
         style="fill:#000099;stroke:none;stroke-width:0"
         id="circle386" />
      <path
         d="M 3.5,0 A 3.5,3.5 0 0 1 0,3.5 3.5,3.5 0 0 1 -3.5,0 3.5,3.5 0 0 1 0,-3.5 3.5,3.5 0 0 1 3.5,0"
         style="fill:none;stroke:#f0f0ff;stroke-width:0.95"
         id="circle388" />
      <path
         d="M 2.325,0 A 2.325,2.325 0 0 1 0,2.325 2.325,2.325 0 0 1 -2.325,0 2.325,2.325 0 0 1 0,-2.325 2.325,2.325 0 0 1 2.325,0"
         style="fill:none;stroke:#f0f0ff;stroke-width:0.95"
         id="circle390" />
    </g>
    <g
       id="g400"
       transform="translate(38.1,111.76)">
      <path
         d="M 4.1999998,0 A 4.1999998,4.1999998 0 0 1 0,4.1999998 4.1999998,4.1999998 0 0 1 -4.1999998,0 4.1999998,4.1999998 0 0 1 0,-4.1999998 4.1999998,4.1999998 0 0 1 4.1999998,0"
         style="fill:#000099;stroke:none;stroke-width:0"
         id="circle394" />
      <path
         d="M 3.5,0 A 3.5,3.5 0 0 1 0,3.5 3.5,3.5 0 0 1 -3.5,0 3.5,3.5 0 0 1 0,-3.5 3.5,3.5 0 0 1 3.5,0"
         style="fill:none;stroke:#f0f0ff;stroke-width:0.95"
         id="circle396" />
      <path
         d="M 2.325,0 A 2.325,2.325 0 0 1 0,2.325 2.325,2.325 0 0 1 -2.325,0 2.325,2.325 0 0 1 0,-2.325 2.325,2.325 0 0 1 2.325,0"
         style="fill:none;stroke:#f0f0ff;stroke-width:0.95"
         id="circle398" />
    </g>
  </g>
</svg>
