<?xml version="1.0" encoding="UTF-8" standalone="no"?>
<svg
   xmlns:dc="http://purl.org/dc/elements/1.1/"
   xmlns:cc="http://creativecommons.org/ns#"
   xmlns:rdf="http://www.w3.org/1999/02/22-rdf-syntax-ns#"
   xmlns:svg="http://www.w3.org/2000/svg"
   xmlns="http://www.w3.org/2000/svg"
   version="1.1"
   width="45.720mm"
   height="128.500mm"
   viewBox="0 0 45.720 128.500"
   id="svg412">
  <metadata
     id="metadata418">
    <rdf:RDF>
      <cc:Work
         rdf:about="">
        <dc:format>image/svg+xml</dc:format>
        <dc:type
           rdf:resource="http://purl.org/dc/dcmitype/StillImage" />
      </cc:Work>
    </rdf:RDF>
  </metadata>
  <defs
     id="defs416" />
  <rect
     x="0"
     y="0"
     width="45.720"
     height="128.500"
     fill="#f0f0ff"
     stroke="#000099"
     stroke-width="1"
     rx="1.000"
     ry="1.000"
     id="rect2" />
  <g
     transform="translate(22.86,9)"
     id="g6">
    <g
       aria-label="GATOR"
       id="text4"
       style="font-weight:bold;font-size:4.064px;font-family:'Proxima Nova';dominant-baseline:alphabetic;text-anchor:middle;fill:#000099">
      <path
         d="m -6.565043,-1.353312 c 0,0.85343998 0.6502401,1.406144 1.4427201,1.406144 0.491744,0 0.877824,-0.2032 1.154176,-0.51206401 V -1.495552 h -1.292352 v 0.49580797 h 0.723392 v 0.32918401 c -0.117856,0.105664 -0.337312,0.20726401 -0.585216,0.20726401 -0.491744,0 -0.849376,-0.37795202 -0.849376,-0.89001599 0,-0.5120641 0.357632,-0.8900161 0.849376,-0.8900161 0.28448,0 0.516128,0.150368 0.642112,0.341376 l 0.479552,-0.260096 c -0.207264,-0.321056 -0.560832,-0.593344 -1.121664,-0.593344 -0.79248,0 -1.4427201,0.544576 -1.4427201,1.4020801 z"
         style="font-weight:bold;font-size:4.064px;font-family:'Proxima Nova';dominant-baseline:alphabetic;text-anchor:middle;fill:#000099"
         id="path420" />
      <path
         d="m -1.6399192,0 h 0.62992 l -1.044448,-2.7106881 h -0.723392 L -3.8263513,0 h 0.6339841 l 0.170688,-0.46736001 h 1.211072 z m -0.776224,-2.2108161 0.44704,1.24358407 h -0.898144 z"
         style="font-weight:bold;font-size:4.064px;font-family:'Proxima Nova';dominant-baseline:alphabetic;text-anchor:middle;fill:#000099"
         id="path422" />
      <path
         d="m -0.39576356,0 h 0.58115202 v -2.2026881 h 0.78841603 v -0.508 H -1.1882436 v 0.508 h 0.79248004 z"
         style="font-weight:bold;font-size:4.064px;font-family:'Proxima Nova';dominant-baseline:alphabetic;text-anchor:middle;fill:#000099"
         id="path424" />
      <path
         d="m 1.1184573,-1.353312 c 0,0.81686398 0.597408,1.40208 1.4142721,1.40208 0.820928,0 1.418336,-0.58521602 1.418336,-1.40208 0,-0.8168641 -0.597408,-1.4020801 -1.418336,-1.4020801 -0.8168641,0 -1.4142721,0.585216 -1.4142721,1.4020801 z m 2.2392641,0 c 0,0.50393597 -0.32512,0.89001599 -0.824992,0.89001599 -0.499872,0 -0.8209281,-0.38608002 -0.8209281,-0.89001599 0,-0.5080001 0.3210561,-0.8900161 0.8209281,-0.8900161 0.499872,0 0.824992,0.382016 0.824992,0.8900161 z"
         style="font-weight:bold;font-size:4.064px;font-family:'Proxima Nova';dominant-baseline:alphabetic;text-anchor:middle;fill:#000099"
         id="path426" />
      <path
         d="m 5.8921332,0 h 0.662432 l -0.6096,-1.032256 c 0.292608,-0.069088 0.593344,-0.32512 0.593344,-0.8046721 0,-0.503936 -0.34544,-0.87376 -0.910336,-0.87376 H 4.3600051 V 0 h 0.577088 v -0.97129603 h 0.4226561 z m 0.056896,-1.8409921 c 0,0.227584 -0.174752,0.3738881 -0.4064,0.3738881 H 4.9370931 v -0.7477761 h 0.6055361 c 0.231648,0 0.4064,0.146304 0.4064,0.373888 z"
         style="font-weight:bold;font-size:4.064px;font-family:'Proxima Nova';dominant-baseline:alphabetic;text-anchor:middle;fill:#000099"
         id="path428" />
    </g>
  </g>
  <g
     transform="translate(22.86,119.5)"
     id="g10">
    <g
       aria-label="DHE"
       id="text8"
       style="font-weight:bold;font-size:4.064px;font-family:'Proxima Nova';dominant-baseline:hanging;text-anchor:middle;fill:#000099">
      <path
         d="m -3.8632449,2.7584481 h 1.0688321 c 0.849376,0 1.438656,-0.5364481 1.438656,-1.3533121 0,-0.816864 -0.58928,-1.35737602 -1.438656,-1.35737602 H -3.8632449 Z M -3.2861569,2.250448 V 0.55575999 h 0.4917441 c 0.556768,0 0.849376,0.36982402 0.849376,0.84937601 0,0.459232 -0.312928,0.845312 -0.849376,0.845312 z"
         style="font-weight:bold;font-size:4.064px;font-family:'Proxima Nova';dominant-baseline:hanging;text-anchor:middle;fill:#000099"
         id="path431" />
      <path
         d="M 0.91500319,2.7584481 H 1.4961552 V 0.04775998 H 0.91500319 V 1.112528 H -0.36515685 V 0.04775998 H -0.94224487 V 2.7584481 h 0.57708802 V 1.620528 h 1.28016004 z"
         style="font-weight:bold;font-size:4.064px;font-family:'Proxima Nova';dominant-baseline:hanging;text-anchor:middle;fill:#000099"
         id="path433" />
      <path
         d="M 2.0263802,2.7584481 H 3.9445883 V 2.258576 H 2.6034682 V 1.628656 H 3.9161403 V 1.132848 H 2.6034682 V 0.54356799 H 3.9445883 V 0.04775998 H 2.0263802 Z"
         style="font-weight:bold;font-size:4.064px;font-family:'Proxima Nova';dominant-baseline:hanging;text-anchor:middle;fill:#000099"
         id="path435" />
    </g>
  </g>
  <g
     transform="translate(7.62,12.58)"
     id="g14">
    <g
       id="text12"
       style="font-weight:bold;font-size:2.371px;font-family:'Proxima Nova';dominant-baseline:alphabetic;text-anchor:middle;fill:#000099" />
  </g>
  <g
     transform="translate(38.1,12.58)"
     id="g18">
    <g
       id="text16"
       style="font-weight:bold;font-size:2.371px;font-family:'Proxima Nova';dominant-baseline:alphabetic;text-anchor:middle;fill:#000099" />
  </g>
  <g
     transform="translate(7.62,21.47)"
     id="g22">
    <g
       id="text20"
       style="font-weight:bold;font-size:2.371px;font-family:'Proxima Nova';dominant-baseline:alphabetic;text-anchor:middle;fill:#000099" />
  </g>
  <g
     transform="translate(38.1,21.47)"
     id="g26">
    <g
       id="text24"
       style="font-weight:bold;font-size:2.371px;font-family:'Proxima Nova';dominant-baseline:alphabetic;text-anchor:middle;fill:#000099" />
  </g>
  <g
     transform="translate(7.62,30.36)"
     id="g30">
    <g
       id="text28"
       style="font-weight:bold;font-size:2.371px;font-family:'Proxima Nova';dominant-baseline:alphabetic;text-anchor:middle;fill:#000099" />
  </g>
  <g
     transform="translate(38.1,30.36)"
     id="g34">
    <g
       id="text32"
       style="font-weight:bold;font-size:2.371px;font-family:'Proxima Nova';dominant-baseline:alphabetic;text-anchor:middle;fill:#000099" />
  </g>
  <g
     transform="translate(7.62,39.25)"
     id="g38">
    <g
       id="text36"
       style="font-weight:bold;font-size:2.371px;font-family:'Proxima Nova';dominant-baseline:alphabetic;text-anchor:middle;fill:#000099" />
  </g>
  <g
     transform="translate(38.1,39.25)"
     id="g42">
    <g
       id="text40"
       style="font-weight:bold;font-size:2.371px;font-family:'Proxima Nova';dominant-baseline:alphabetic;text-anchor:middle;fill:#000099" />
  </g>
  <g
     transform="translate(7.62,48.14)"
     id="g46">
    <g
       id="text44"
       style="font-weight:bold;font-size:2.371px;font-family:'Proxima Nova';dominant-baseline:alphabetic;text-anchor:middle;fill:#000099" />
  </g>
  <g
     transform="translate(38.1,48.14)"
     id="g50">
    <g
       id="text48"
       style="font-weight:bold;font-size:2.371px;font-family:'Proxima Nova';dominant-baseline:alphabetic;text-anchor:middle;fill:#000099" />
  </g>
  <g
     transform="translate(7.62,57.03)"
     id="g54">
    <g
       id="text52"
       style="font-weight:bold;font-size:2.371px;font-family:'Proxima Nova';dominant-baseline:alphabetic;text-anchor:middle;fill:#000099" />
  </g>
  <g
     transform="translate(38.1,57.03)"
     id="g58">
    <g
       id="text56"
       style="font-weight:bold;font-size:2.371px;font-family:'Proxima Nova';dominant-baseline:alphabetic;text-anchor:middle;fill:#000099" />
  </g>
  <g
     transform="translate(7.62,65.92)"
     id="g62">
    <g
       id="text60"
       style="font-weight:bold;font-size:2.371px;font-family:'Proxima Nova';dominant-baseline:alphabetic;text-anchor:middle;fill:#000099" />
  </g>
  <g
     transform="translate(38.1,65.92)"
     id="g66">
    <g
       id="text64"
       style="font-weight:bold;font-size:2.371px;font-family:'Proxima Nova';dominant-baseline:alphabetic;text-anchor:middle;fill:#000099" />
  </g>
  <g
     transform="translate(7.62,74.81)"
     id="g70">
    <g
       id="text68"
       style="font-weight:bold;font-size:2.371px;font-family:'Proxima Nova';dominant-baseline:alphabetic;text-anchor:middle;fill:#000099" />
  </g>
  <g
     transform="translate(38.1,74.81)"
     id="g74">
    <g
       id="text72"
       style="font-weight:bold;font-size:2.371px;font-family:'Proxima Nova';dominant-baseline:alphabetic;text-anchor:middle;fill:#000099" />
  </g>
  <rect
     x="2.420"
     y="87.787"
     width="10.400"
     height="12.980"
     fill="#000099"
     stroke="#000099"
     stroke-width="0.350"
     rx="1.000"
     ry="1.000"
     id="rect76" />
  <g
     transform="translate(7.62,90.368)"
     id="g80">
    <g
       aria-label="AND"
       id="text78"
       style="font-weight:bold;font-size:2.371px;font-family:'Proxima Nova';dominant-baseline:alphabetic;text-anchor:middle;fill:#f0f0ff">
      <path
         d="m -1.2623908,0 h 0.36750499 L -1.5042328,-1.581457 h -0.422038 L -2.5379888,0 h 0.369876 l 0.099582,-0.27266501 h 0.706558 z m -0.452861,-1.289824 0.26081,0.72552599 h -0.523991 z"
         style="font-weight:bold;font-size:2.371px;font-family:'Proxima Nova';dominant-baseline:alphabetic;text-anchor:middle;fill:#f0f0ff"
         id="path454" />
      <path
         d="m 0.34181304,0 h 0.324827 v -1.581457 h -0.336682 v 1.02427199 L -0.40268098,-1.581457 H -0.74884699 V 0 h 0.33668201 v -1.062208 z"
         style="font-weight:bold;font-size:2.371px;font-family:'Proxima Nova';dominant-baseline:alphabetic;text-anchor:middle;fill:#f0f0ff"
         id="path456" />
      <path
         d="M 0.97846355,0 H 1.6020366 c 0.495539,0 0.839334,-0.31297201 0.839334,-0.78954302 0,-0.47657098 -0.343795,-0.79191398 -0.839334,-0.79191398 H 0.97846355 Z M 1.3151456,-0.29637501 V -1.285082 h 0.286891 c 0.324827,0 0.495539,0.215761 0.495539,0.49553898 0,0.26792301 -0.182567,0.49316801 -0.495539,0.49316801 z"
         style="font-weight:bold;font-size:2.371px;font-family:'Proxima Nova';dominant-baseline:alphabetic;text-anchor:middle;fill:#f0f0ff"
         id="path458" />
    </g>
  </g>
  <rect
     x="11.310"
     y="87.787"
     width="10.400"
     height="12.980"
     fill="#000099"
     stroke="#000099"
     stroke-width="0.350"
     rx="1.000"
     ry="1.000"
     id="rect82" />
  <g
     transform="translate(16.51,90.368)"
     id="g86">
    <g
       aria-label="NAND"
       id="text84"
       style="font-weight:bold;font-size:2.371px;font-family:'Proxima Nova';dominant-baseline:alphabetic;text-anchor:middle;fill:#f0f0ff">
      <path
         d="m -2.1426431,0 h 0.324827 v -1.581457 h -0.336682 v 1.02427199 L -2.8871371,-1.581457 h -0.346166 V 0 h 0.336682 v -1.062208 z"
         style="font-weight:bold;font-size:2.371px;font-family:'Proxima Nova';dominant-baseline:alphabetic;text-anchor:middle;fill:#f0f0ff"
         id="path461" />
      <path
         d="m -0.39873557,0 h 0.36750501 L -0.64057758,-1.581457 H -1.0626156 L -1.6743336,0 h 0.369876 l 0.099582,-0.27266501 h 0.70655803 z m -0.45286101,-1.289824 0.26081001,0.72552599 H -1.1147776 Z"
         style="font-weight:bold;font-size:2.371px;font-family:'Proxima Nova';dominant-baseline:alphabetic;text-anchor:middle;fill:#f0f0ff"
         id="path463" />
      <path
         d="m 1.2054683,0 h 0.324827 v -1.581457 h -0.336682 v 1.02427199 L 0.46097427,-1.581457 H 0.11480826 V 0 h 0.33668201 v -1.062208 z"
         style="font-weight:bold;font-size:2.371px;font-family:'Proxima Nova';dominant-baseline:alphabetic;text-anchor:middle;fill:#f0f0ff"
         id="path465" />
      <path
         d="m 1.8421187,0 h 0.623573 c 0.495539,0 0.839334,-0.31297201 0.839334,-0.78954302 0,-0.47657098 -0.343795,-0.79191398 -0.839334,-0.79191398 h -0.623573 z m 0.336682,-0.29637501 V -1.285082 h 0.286891 c 0.324827,0 0.495539,0.215761 0.495539,0.49553898 0,0.26792301 -0.182567,0.49316801 -0.495539,0.49316801 z"
         style="font-weight:bold;font-size:2.371px;font-family:'Proxima Nova';dominant-baseline:alphabetic;text-anchor:middle;fill:#f0f0ff"
         id="path467" />
    </g>
  </g>
  <rect
     x="24.010"
     y="87.787"
     width="10.400"
     height="12.980"
     fill="#000099"
     stroke="#000099"
     stroke-width="0.350"
     rx="1.000"
     ry="1.000"
     id="rect88" />
  <g
     transform="translate(29.21,90.368)"
     id="g92">
    <g
       aria-label="OR"
       id="text90"
       style="font-weight:bold;font-size:2.371px;font-family:'Proxima Nova';dominant-baseline:alphabetic;text-anchor:middle;fill:#f0f0ff">
      <path
         d="m -1.5888108,-0.78954302 c 0,0.47657101 0.348537,0.81799502 0.82510798,0.81799502 0.47894201,0 0.82747902,-0.34142401 0.82747902,-0.81799502 0,-0.47657098 -0.34853701,-0.81799498 -0.82747902,-0.81799498 -0.47657098,0 -0.82510798,0.341424 -0.82510798,0.81799498 z m 1.30642099,0 c 0,0.29400401 -0.18968,0.51924901 -0.48131301,0.51924901 -0.29163298,0 -0.47894198,-0.225245 -0.47894198,-0.51924901 0,-0.29637498 0.187309,-0.51924898 0.47894198,-0.51924898 0.29163301,0 0.48131301,0.222874 0.48131301,0.51924898 z"
         style="font-weight:bold;font-size:2.371px;font-family:'Proxima Nova';dominant-baseline:alphabetic;text-anchor:middle;fill:#f0f0ff"
         id="path470" />
      <path
         d="m 1.1962251,0 h 0.386473 l -0.35565,-0.60223401 c 0.170712,-0.040307 0.346166,-0.18968001 0.346166,-0.46945799 0,-0.294004 -0.201535,-0.509765 -0.531104,-0.509765 H 0.30235805 V 0 h 0.33668201 v -0.56666901 h 0.246584 z m 0.033194,-1.074063 c 0,0.13277598 -0.101953,0.21813198 -0.23710003,0.21813198 H 0.63904006 V -1.292195 h 0.35327901 c 0.13514703,0 0.23710003,0.085356 0.23710003,0.218132 z"
         style="font-weight:bold;font-size:2.371px;font-family:'Proxima Nova';dominant-baseline:alphabetic;text-anchor:middle;fill:#f0f0ff"
         id="path472" />
    </g>
  </g>
  <rect
     x="32.900"
     y="87.787"
     width="10.400"
     height="12.980"
     fill="#000099"
     stroke="#000099"
     stroke-width="0.350"
     rx="1.000"
     ry="1.000"
     id="rect94" />
  <g
     transform="translate(38.1,90.368)"
     id="g98">
    <g
       aria-label="NOR"
       id="text96"
       style="font-weight:bold;font-size:2.371px;font-family:'Proxima Nova';dominant-baseline:alphabetic;text-anchor:middle;fill:#f0f0ff">
      <path
         d="m -1.2859341,0 h 0.324827 v -1.581457 h -0.336682 v 1.02427199 L -2.0304281,-1.581457 h -0.346166 V 0 h 0.336682 v -1.062208 z"
         style="font-weight:bold;font-size:2.371px;font-family:'Proxima Nova';dominant-baseline:alphabetic;text-anchor:middle;fill:#f0f0ff"
         id="path475" />
      <path
         d="m -0.72515559,-0.78954302 c 0,0.47657101 0.348537,0.81799502 0.82510801,0.81799502 0.47894202,0 0.82747902,-0.34142401 0.82747902,-0.81799502 0,-0.47657098 -0.348537,-0.81799498 -0.82747902,-0.81799498 -0.47657101,0 -0.82510801,0.341424 -0.82510801,0.81799498 z m 1.30642103,0 c 0,0.29400401 -0.18968001,0.51924901 -0.48131302,0.51924901 -0.291633,0 -0.47894201,-0.225245 -0.47894201,-0.51924901 0,-0.29637498 0.18730901,-0.51924898 0.47894201,-0.51924898 0.29163301,0 0.48131302,0.222874 0.48131302,0.51924898 z"
         style="font-weight:bold;font-size:2.371px;font-family:'Proxima Nova';dominant-baseline:alphabetic;text-anchor:middle;fill:#f0f0ff"
         id="path477" />
      <path
         d="m 2.0598802,0 h 0.386473 l -0.35565,-0.60223401 c 0.170712,-0.040307 0.346166,-0.18968001 0.346166,-0.46945799 0,-0.294004 -0.201535,-0.509765 -0.531104,-0.509765 H 1.1660132 V 0 h 0.336682 v -0.56666901 h 0.246584 z m 0.033194,-1.074063 c 0,0.13277598 -0.101953,0.21813198 -0.2371,0.21813198 H 1.5026952 V -1.292195 h 0.353279 c 0.135147,0 0.2371,0.085356 0.2371,0.218132 z"
         style="font-weight:bold;font-size:2.371px;font-family:'Proxima Nova';dominant-baseline:alphabetic;text-anchor:middle;fill:#f0f0ff"
         id="path479" />
    </g>
  </g>
  <rect
     x="2.420"
     y="101.757"
     width="10.400"
     height="12.980"
     fill="#000099"
     stroke="#000099"
     stroke-width="0.350"
     rx="1.000"
     ry="1.000"
     id="rect100" />
  <g
     transform="translate(7.62,104.338)"
     id="g104">
    <g
       aria-label="EVEN"
       id="text102"
       style="font-weight:bold;font-size:2.371px;font-family:'Proxima Nova';dominant-baseline:alphabetic;text-anchor:middle;fill:#f0f0ff">
      <path
         d="m -2.9021967,0 h 1.119112 v -0.29163301 h -0.78243 v -0.367505 h 0.765833 v -0.28926201 h -0.765833 V -1.292195 h 0.78243 v -0.289262 h -1.119112 z"
         style="font-weight:bold;font-size:2.371px;font-family:'Proxima Nova';dominant-baseline:alphabetic;text-anchor:middle;fill:#f0f0ff"
         id="path482" />
      <path
         d="m -1.0741927,0 h 0.42203802 l 0.60934702,-1.581457 H -0.42690967 L -0.86317368,-0.36513401 -1.3018087,-1.581457 h -0.384102 z"
         style="font-weight:bold;font-size:2.371px;font-family:'Proxima Nova';dominant-baseline:alphabetic;text-anchor:middle;fill:#f0f0ff"
         id="path484" />
      <path
         d="M 0.10323116,0 H 1.2223432 V -0.29163301 H 0.43991316 v -0.367505 H 1.2057462 V -0.94840002 H 0.43991316 V -1.292195 H 1.2223432 V -1.581457 H 0.10323116 Z"
         style="font-weight:bold;font-size:2.371px;font-family:'Proxima Nova';dominant-baseline:alphabetic;text-anchor:middle;fill:#f0f0ff"
         id="path486" />
      <path
         d="M 2.578518,0 H 2.9033451 V -1.581457 H 2.566663 v 1.02427199 L 1.834024,-1.581457 H 1.487858 V 0 H 1.82454 v -1.062208 z"
         style="font-weight:bold;font-size:2.371px;font-family:'Proxima Nova';dominant-baseline:alphabetic;text-anchor:middle;fill:#f0f0ff"
         id="path488" />
    </g>
  </g>
  <rect
     x="11.310"
     y="101.757"
     width="10.400"
     height="12.980"
     fill="#000099"
     stroke="#000099"
     stroke-width="0.350"
     rx="1.000"
     ry="1.000"
     id="rect106" />
  <g
     transform="translate(16.51,104.338)"
     id="g110">
    <g
       aria-label="ODD"
       id="text108"
       style="font-weight:bold;font-size:2.371px;font-family:'Proxima Nova';dominant-baseline:alphabetic;text-anchor:middle;fill:#f0f0ff">
      <path
         d="m -2.5311907,-0.78954302 c 0,0.47657101 0.348537,0.81799502 0.825108,0.81799502 0.478942,0 0.82747899,-0.34142401 0.82747899,-0.81799502 0,-0.47657098 -0.34853699,-0.81799498 -0.82747899,-0.81799498 -0.476571,0 -0.825108,0.341424 -0.825108,0.81799498 z m 1.306421,0 c 0,0.29400401 -0.18968,0.51924901 -0.481313,0.51924901 -0.291633,0 -0.478942,-0.225245 -0.478942,-0.51924901 0,-0.29637498 0.187309,-0.51924898 0.478942,-0.51924898 0.291633,0 0.481313,0.222874 0.481313,0.51924898 z"
         style="font-weight:bold;font-size:2.371px;font-family:'Proxima Nova';dominant-baseline:alphabetic;text-anchor:middle;fill:#f0f0ff"
         id="path491" />
      <path
         d="m -0.64002185,0 h 0.62357301 c 0.49553901,0 0.83933402,-0.31297201 0.83933402,-0.78954302 0,-0.47657098 -0.34379501,-0.79191398 -0.83933402,-0.79191398 h -0.62357301 z m 0.336682,-0.29637501 V -1.285082 h 0.28689101 c 0.32482701,0 0.49553901,0.215761 0.49553901,0.49553898 0,0.26792301 -0.182567,0.49316801 -0.49553901,0.49316801 z"
         style="font-weight:bold;font-size:2.371px;font-family:'Proxima Nova';dominant-baseline:alphabetic;text-anchor:middle;fill:#f0f0ff"
         id="path493" />
      <path
         d="m 1.0641343,0 h 0.623573 c 0.495539,0 0.839334,-0.31297201 0.839334,-0.78954302 0,-0.47657098 -0.343795,-0.79191398 -0.839334,-0.79191398 h -0.623573 z m 0.336682,-0.29637501 V -1.285082 h 0.286891 c 0.324827,0 0.495539,0.215761 0.495539,0.49553898 0,0.26792301 -0.182567,0.49316801 -0.495539,0.49316801 z"
         style="font-weight:bold;font-size:2.371px;font-family:'Proxima Nova';dominant-baseline:alphabetic;text-anchor:middle;fill:#f0f0ff"
         id="path495" />
    </g>
  </g>
  <rect
     x="24.010"
     y="101.757"
     width="10.400"
     height="12.980"
     fill="#000099"
     stroke="#000099"
     stroke-width="0.350"
     rx="1.000"
     ry="1.000"
     id="rect112" />
  <g
     transform="translate(29.21,104.338)"
     id="g116">
    <g
       aria-label="XOR"
       id="text114"
       style="font-weight:bold;font-size:2.371px;font-family:'Proxima Nova';dominant-baseline:alphabetic;text-anchor:middle;fill:#f0f0ff">
      <path
         d="m -1.2386993,0 h 0.40306997 L -1.4094113,-0.81325302 -0.87119433,-1.581457 H -1.2766353 l -0.358021,0.540588 -0.3627631,-0.540588 h -0.400699 l 0.538217,0.77057498 L -2.4336834,0 h 0.400699 l 0.3983281,-0.57852401 z"
         style="font-weight:bold;font-size:2.371px;font-family:'Proxima Nova';dominant-baseline:alphabetic;text-anchor:middle;fill:#f0f0ff"
         id="path498" />
      <path
         d="m -0.83166532,-0.78954302 c 0,0.47657101 0.34853701,0.81799502 0.82510802,0.81799502 0.47894201,0 0.82747902,-0.34142401 0.82747902,-0.81799502 0,-0.47657098 -0.34853701,-0.81799498 -0.82747902,-0.81799498 -0.47657101,0 -0.82510802,0.341424 -0.82510802,0.81799498 z m 1.30642103,0 c 0,0.29400401 -0.18968,0.51924901 -0.48131301,0.51924901 -0.291633,0 -0.47894201,-0.225245 -0.47894201,-0.51924901 0,-0.29637498 0.18730901,-0.51924898 0.47894201,-0.51924898 0.29163301,0 0.48131301,0.222874 0.48131301,0.51924898 z"
         style="font-weight:bold;font-size:2.371px;font-family:'Proxima Nova';dominant-baseline:alphabetic;text-anchor:middle;fill:#f0f0ff"
         id="path500" />
      <path
         d="m 1.9533706,0 h 0.386473 l -0.35565,-0.60223401 c 0.170712,-0.040307 0.346166,-0.18968001 0.346166,-0.46945799 0,-0.294004 -0.201535,-0.509765 -0.531104,-0.509765 H 1.0595036 V 0 h 0.336682 v -0.56666901 h 0.246584 z m 0.033194,-1.074063 c 0,0.13277598 -0.101953,0.21813198 -0.2371,0.21813198 H 1.3961856 V -1.292195 h 0.353279 c 0.135147,0 0.2371,0.085356 0.2371,0.218132 z"
         style="font-weight:bold;font-size:2.371px;font-family:'Proxima Nova';dominant-baseline:alphabetic;text-anchor:middle;fill:#f0f0ff"
         id="path502" />
    </g>
  </g>
  <rect
     x="32.900"
     y="101.757"
     width="10.400"
     height="12.980"
     fill="#000099"
     stroke="#000099"
     stroke-width="0.350"
     rx="1.000"
     ry="1.000"
     id="rect118" />
  <g
     transform="translate(38.1,104.338)"
     id="g122">
    <g
       aria-label="XNOR"
       id="text120"
       style="font-weight:bold;font-size:2.371px;font-family:'Proxima Nova';dominant-baseline:alphabetic;text-anchor:middle;fill:#f0f0ff">
      <path
         d="m -2.1370861,0 h 0.40307 l -0.573782,-0.81325302 0.538217,-0.76820398 h -0.405441 l -0.358021,0.540588 -0.362763,-0.540588 h -0.400699 l 0.538217,0.77057498 L -3.3320701,0 h 0.400699 l 0.398328,-0.57852401 z"
         style="font-weight:bold;font-size:2.371px;font-family:'Proxima Nova';dominant-baseline:alphabetic;text-anchor:middle;fill:#f0f0ff"
         id="path505" />
      <path
         d="m -0.49405713,0 h 0.324827 v -1.581457 h -0.336682 v 1.02427199 L -1.2385511,-1.581457 H -1.5847172 V 0 h 0.3366821 v -1.062208 z"
         style="font-weight:bold;font-size:2.371px;font-family:'Proxima Nova';dominant-baseline:alphabetic;text-anchor:middle;fill:#f0f0ff"
         id="path507" />
      <path
         d="m 0.06672138,-0.78954302 c 0,0.47657101 0.34853701,0.81799502 0.82510802,0.81799502 0.478942,0 0.827479,-0.34142401 0.827479,-0.81799502 0,-0.47657098 -0.348537,-0.81799498 -0.827479,-0.81799498 -0.47657101,0 -0.82510802,0.341424 -0.82510802,0.81799498 z m 1.30642102,0 c 0,0.29400401 -0.18968,0.51924901 -0.481313,0.51924901 -0.29163301,0 -0.47894201,-0.225245 -0.47894201,-0.51924901 0,-0.29637498 0.187309,-0.51924898 0.47894201,-0.51924898 0.291633,0 0.481313,0.222874 0.481313,0.51924898 z"
         style="font-weight:bold;font-size:2.371px;font-family:'Proxima Nova';dominant-baseline:alphabetic;text-anchor:middle;fill:#f0f0ff"
         id="path509" />
      <path
         d="m 2.8517573,0 h 0.386473 l -0.35565,-0.60223401 c 0.170712,-0.040307 0.346166,-0.18968001 0.346166,-0.46945799 0,-0.294004 -0.201535,-0.509765 -0.531104,-0.509765 H 1.9578903 V 0 h 0.336682 v -0.56666901 h 0.246584 z m 0.033194,-1.074063 c 0,0.13277598 -0.101953,0.21813198 -0.2371,0.21813198 H 2.2945723 V -1.292195 h 0.353279 c 0.135147,0 0.2371,0.085356 0.2371,0.218132 z"
         style="font-weight:bold;font-size:2.371px;font-family:'Proxima Nova';dominant-baseline:alphabetic;text-anchor:middle;fill:#f0f0ff"
         id="path511" />
    </g>
  </g>
  <g
     transform="translate(7.62,17.78)"
     id="g130">
    <path
       id="circle124"
       style="fill:#000099;stroke:none;stroke-width:0"
       d="M 4.1999998,0 A 4.1999998,4.1999998 0 0 1 0,4.1999998 4.1999998,4.1999998 0 0 1 -4.1999998,0 4.1999998,4.1999998 0 0 1 0,-4.1999998 4.1999998,4.1999998 0 0 1 4.1999998,0 Z" />
    <path
       id="circle126"
       style="fill:none;stroke:#f0f0ff;stroke-width:0.95"
       d="M 3.5,0 A 3.5,3.5 0 0 1 0,3.5 3.5,3.5 0 0 1 -3.5,0 3.5,3.5 0 0 1 0,-3.5 3.5,3.5 0 0 1 3.5,0 Z" />
    <path
       id="circle128"
       style="fill:none;stroke:#f0f0ff;stroke-width:0.95"
       d="M 2.325,0 A 2.325,2.325 0 0 1 0,2.325 2.325,2.325 0 0 1 -2.325,0 2.325,2.325 0 0 1 0,-2.325 2.325,2.325 0 0 1 2.325,0 Z" />
  </g>
  <g
     transform="translate(16.51,17.78)"
     id="g136">
    <path
       id="circle132"
       style="fill:#000099;stroke:none;stroke-width:0"
       d="M 3,0 A 3,3 0 0 1 0,3 3,3 0 0 1 -3,0 3,3 0 0 1 0,-3 3,3 0 0 1 3,0 Z" />
    <path
       id="circle134"
       style="fill:#000099;stroke:none;stroke-width:0"
       d="M 2,0 A 2,2 0 0 1 0,2 2,2 0 0 1 -2,0 2,2 0 0 1 0,-2 2,2 0 0 1 2,0 Z" />
  </g>
  <g
     transform="translate(29.21,17.78)"
     id="g142">
    <path
       id="circle138"
       style="fill:#000099;stroke:none;stroke-width:0"
       d="M 3,0 A 3,3 0 0 1 0,3 3,3 0 0 1 -3,0 3,3 0 0 1 0,-3 3,3 0 0 1 3,0 Z" />
    <path
       id="circle140"
       style="fill:#000099;stroke:none;stroke-width:0"
       d="M 2,0 A 2,2 0 0 1 0,2 2,2 0 0 1 -2,0 2,2 0 0 1 0,-2 2,2 0 0 1 2,0 Z" />
  </g>
  <g
     transform="translate(38.1,17.78)"
     id="g150">
    <path
       id="circle144"
       style="fill:#000099;stroke:none;stroke-width:0"
       d="M 4.1999998,0 A 4.1999998,4.1999998 0 0 1 0,4.1999998 4.1999998,4.1999998 0 0 1 -4.1999998,0 4.1999998,4.1999998 0 0 1 0,-4.1999998 4.1999998,4.1999998 0 0 1 4.1999998,0 Z" />
    <path
       id="circle146"
       style="fill:none;stroke:#f0f0ff;stroke-width:0.95"
       d="M 3.5,0 A 3.5,3.5 0 0 1 0,3.5 3.5,3.5 0 0 1 -3.5,0 3.5,3.5 0 0 1 0,-3.5 3.5,3.5 0 0 1 3.5,0 Z" />
    <path
       id="circle148"
       style="fill:none;stroke:#f0f0ff;stroke-width:0.95"
       d="M 2.325,0 A 2.325,2.325 0 0 1 0,2.325 2.325,2.325 0 0 1 -2.325,0 2.325,2.325 0 0 1 0,-2.325 2.325,2.325 0 0 1 2.325,0 Z" />
  </g>
  <g
     transform="translate(7.62,26.67)"
     id="g158">
    <path
       id="circle152"
       style="fill:#000099;stroke:none;stroke-width:0"
       d="M 4.1999998,0 A 4.1999998,4.1999998 0 0 1 0,4.1999998 4.1999998,4.1999998 0 0 1 -4.1999998,0 4.1999998,4.1999998 0 0 1 0,-4.1999998 4.1999998,4.1999998 0 0 1 4.1999998,0 Z" />
    <path
       id="circle154"
       style="fill:none;stroke:#f0f0ff;stroke-width:0.95"
       d="M 3.5,0 A 3.5,3.5 0 0 1 0,3.5 3.5,3.5 0 0 1 -3.5,0 3.5,3.5 0 0 1 0,-3.5 3.5,3.5 0 0 1 3.5,0 Z" />
    <path
       id="circle156"
       style="fill:none;stroke:#f0f0ff;stroke-width:0.95"
       d="M 2.325,0 A 2.325,2.325 0 0 1 0,2.325 2.325,2.325 0 0 1 -2.325,0 2.325,2.325 0 0 1 0,-2.325 2.325,2.325 0 0 1 2.325,0 Z" />
  </g>
  <g
     transform="translate(16.51,26.67)"
     id="g164">
    <path
       id="circle160"
       style="fill:#000099;stroke:none;stroke-width:0"
       d="M 3,0 A 3,3 0 0 1 0,3 3,3 0 0 1 -3,0 3,3 0 0 1 0,-3 3,3 0 0 1 3,0 Z" />
    <path
       id="circle162"
       style="fill:#000099;stroke:none;stroke-width:0"
       d="M 2,0 A 2,2 0 0 1 0,2 2,2 0 0 1 -2,0 2,2 0 0 1 0,-2 2,2 0 0 1 2,0 Z" />
  </g>
  <g
     transform="translate(29.21,26.67)"
     id="g170">
    <path
       id="circle166"
       style="fill:#000099;stroke:none;stroke-width:0"
       d="M 3,0 A 3,3 0 0 1 0,3 3,3 0 0 1 -3,0 3,3 0 0 1 0,-3 3,3 0 0 1 3,0 Z" />
    <path
       id="circle168"
       style="fill:#000099;stroke:none;stroke-width:0"
       d="M 2,0 A 2,2 0 0 1 0,2 2,2 0 0 1 -2,0 2,2 0 0 1 0,-2 2,2 0 0 1 2,0 Z" />
  </g>
  <g
     transform="translate(38.1,26.67)"
     id="g178">
    <path
       id="circle172"
       style="fill:#000099;stroke:none;stroke-width:0"
       d="M 4.1999998,0 A 4.1999998,4.1999998 0 0 1 0,4.1999998 4.1999998,4.1999998 0 0 1 -4.1999998,0 4.1999998,4.1999998 0 0 1 0,-4.1999998 4.1999998,4.1999998 0 0 1 4.1999998,0 Z" />
    <path
       id="circle174"
       style="fill:none;stroke:#f0f0ff;stroke-width:0.95"
       d="M 3.5,0 A 3.5,3.5 0 0 1 0,3.5 3.5,3.5 0 0 1 -3.5,0 3.5,3.5 0 0 1 0,-3.5 3.5,3.5 0 0 1 3.5,0 Z" />
    <path
       id="circle176"
       style="fill:none;stroke:#f0f0ff;stroke-width:0.95"
       d="M 2.325,0 A 2.325,2.325 0 0 1 0,2.325 2.325,2.325 0 0 1 -2.325,0 2.325,2.325 0 0 1 0,-2.325 2.325,2.325 0 0 1 2.325,0 Z" />
  </g>
  <g
     transform="translate(7.62,35.56)"
     id="g186">
    <path
       id="circle180"
       style="fill:#000099;stroke:none;stroke-width:0"
       d="M 4.1999998,0 A 4.1999998,4.1999998 0 0 1 0,4.1999998 4.1999998,4.1999998 0 0 1 -4.1999998,0 4.1999998,4.1999998 0 0 1 0,-4.1999998 4.1999998,4.1999998 0 0 1 4.1999998,0 Z" />
    <path
       id="circle182"
       style="fill:none;stroke:#f0f0ff;stroke-width:0.95"
       d="M 3.5,0 A 3.5,3.5 0 0 1 0,3.5 3.5,3.5 0 0 1 -3.5,0 3.5,3.5 0 0 1 0,-3.5 3.5,3.5 0 0 1 3.5,0 Z" />
    <path
       id="circle184"
       style="fill:none;stroke:#f0f0ff;stroke-width:0.95"
       d="M 2.325,0 A 2.325,2.325 0 0 1 0,2.325 2.325,2.325 0 0 1 -2.325,0 2.325,2.325 0 0 1 0,-2.325 2.325,2.325 0 0 1 2.325,0 Z" />
  </g>
  <g
     transform="translate(16.51,35.56)"
     id="g192">
    <path
       id="circle188"
       style="fill:#000099;stroke:none;stroke-width:0"
       d="M 3,0 A 3,3 0 0 1 0,3 3,3 0 0 1 -3,0 3,3 0 0 1 0,-3 3,3 0 0 1 3,0 Z" />
    <path
       id="circle190"
       style="fill:#000099;stroke:none;stroke-width:0"
       d="M 2,0 A 2,2 0 0 1 0,2 2,2 0 0 1 -2,0 2,2 0 0 1 0,-2 2,2 0 0 1 2,0 Z" />
  </g>
  <g
     transform="translate(29.21,35.56)"
     id="g198">
    <path
       id="circle194"
       style="fill:#000099;stroke:none;stroke-width:0"
       d="M 3,0 A 3,3 0 0 1 0,3 3,3 0 0 1 -3,0 3,3 0 0 1 0,-3 3,3 0 0 1 3,0 Z" />
    <path
       id="circle196"
       style="fill:#000099;stroke:none;stroke-width:0"
       d="M 2,0 A 2,2 0 0 1 0,2 2,2 0 0 1 -2,0 2,2 0 0 1 0,-2 2,2 0 0 1 2,0 Z" />
  </g>
  <g
     transform="translate(38.1,35.56)"
     id="g206">
    <path
       id="circle200"
       style="fill:#000099;stroke:none;stroke-width:0"
       d="M 4.1999998,0 A 4.1999998,4.1999998 0 0 1 0,4.1999998 4.1999998,4.1999998 0 0 1 -4.1999998,0 4.1999998,4.1999998 0 0 1 0,-4.1999998 4.1999998,4.1999998 0 0 1 4.1999998,0 Z" />
    <path
       id="circle202"
       style="fill:none;stroke:#f0f0ff;stroke-width:0.95"
       d="M 3.5,0 A 3.5,3.5 0 0 1 0,3.5 3.5,3.5 0 0 1 -3.5,0 3.5,3.5 0 0 1 0,-3.5 3.5,3.5 0 0 1 3.5,0 Z" />
    <path
       id="circle204"
       style="fill:none;stroke:#f0f0ff;stroke-width:0.95"
       d="M 2.325,0 A 2.325,2.325 0 0 1 0,2.325 2.325,2.325 0 0 1 -2.325,0 2.325,2.325 0 0 1 0,-2.325 2.325,2.325 0 0 1 2.325,0 Z" />
  </g>
  <g
     transform="translate(7.62,44.45)"
     id="g214">
    <path
       id="circle208"
       style="fill:#000099;stroke:none;stroke-width:0"
       d="M 4.1999998,0 A 4.1999998,4.1999998 0 0 1 0,4.1999998 4.1999998,4.1999998 0 0 1 -4.1999998,0 4.1999998,4.1999998 0 0 1 0,-4.1999998 4.1999998,4.1999998 0 0 1 4.1999998,0 Z" />
    <path
       id="circle210"
       style="fill:none;stroke:#f0f0ff;stroke-width:0.95"
       d="M 3.5,0 A 3.5,3.5 0 0 1 0,3.5 3.5,3.5 0 0 1 -3.5,0 3.5,3.5 0 0 1 0,-3.5 3.5,3.5 0 0 1 3.5,0 Z" />
    <path
       id="circle212"
       style="fill:none;stroke:#f0f0ff;stroke-width:0.95"
       d="M 2.325,0 A 2.325,2.325 0 0 1 0,2.325 2.325,2.325 0 0 1 -2.325,0 2.325,2.325 0 0 1 0,-2.325 2.325,2.325 0 0 1 2.325,0 Z" />
  </g>
  <g
     transform="translate(16.51,44.45)"
     id="g220">
    <path
       id="circle216"
       style="fill:#000099;stroke:none;stroke-width:0"
       d="M 3,0 A 3,3 0 0 1 0,3 3,3 0 0 1 -3,0 3,3 0 0 1 0,-3 3,3 0 0 1 3,0 Z" />
    <path
       id="circle218"
       style="fill:#000099;stroke:none;stroke-width:0"
       d="M 2,0 A 2,2 0 0 1 0,2 2,2 0 0 1 -2,0 2,2 0 0 1 0,-2 2,2 0 0 1 2,0 Z" />
  </g>
  <g
     transform="translate(29.21,44.45)"
     id="g226">
    <path
       id="circle222"
       style="fill:#000099;stroke:none;stroke-width:0"
       d="M 3,0 A 3,3 0 0 1 0,3 3,3 0 0 1 -3,0 3,3 0 0 1 0,-3 3,3 0 0 1 3,0 Z" />
    <path
       id="circle224"
       style="fill:#000099;stroke:none;stroke-width:0"
       d="M 2,0 A 2,2 0 0 1 0,2 2,2 0 0 1 -2,0 2,2 0 0 1 0,-2 2,2 0 0 1 2,0 Z" />
  </g>
  <g
     transform="translate(38.1,44.45)"
     id="g234">
    <path
       id="circle228"
       style="fill:#000099;stroke:none;stroke-width:0"
       d="M 4.1999998,0 A 4.1999998,4.1999998 0 0 1 0,4.1999998 4.1999998,4.1999998 0 0 1 -4.1999998,0 4.1999998,4.1999998 0 0 1 0,-4.1999998 4.1999998,4.1999998 0 0 1 4.1999998,0 Z" />
    <path
       id="circle230"
       style="fill:none;stroke:#f0f0ff;stroke-width:0.95"
       d="M 3.5,0 A 3.5,3.5 0 0 1 0,3.5 3.5,3.5 0 0 1 -3.5,0 3.5,3.5 0 0 1 0,-3.5 3.5,3.5 0 0 1 3.5,0 Z" />
    <path
       id="circle232"
       style="fill:none;stroke:#f0f0ff;stroke-width:0.95"
       d="M 2.325,0 A 2.325,2.325 0 0 1 0,2.325 2.325,2.325 0 0 1 -2.325,0 2.325,2.325 0 0 1 0,-2.325 2.325,2.325 0 0 1 2.325,0 Z" />
  </g>
  <g
     transform="translate(7.62,53.34)"
     id="g242">
    <path
       id="circle236"
       style="fill:#000099;stroke:none;stroke-width:0"
       d="M 4.1999998,0 A 4.1999998,4.1999998 0 0 1 0,4.1999998 4.1999998,4.1999998 0 0 1 -4.1999998,0 4.1999998,4.1999998 0 0 1 0,-4.1999998 4.1999998,4.1999998 0 0 1 4.1999998,0 Z" />
    <path
       id="circle238"
       style="fill:none;stroke:#f0f0ff;stroke-width:0.95"
       d="M 3.5,0 A 3.5,3.5 0 0 1 0,3.5 3.5,3.5 0 0 1 -3.5,0 3.5,3.5 0 0 1 0,-3.5 3.5,3.5 0 0 1 3.5,0 Z" />
    <path
       id="circle240"
       style="fill:none;stroke:#f0f0ff;stroke-width:0.95"
       d="M 2.325,0 A 2.325,2.325 0 0 1 0,2.325 2.325,2.325 0 0 1 -2.325,0 2.325,2.325 0 0 1 0,-2.325 2.325,2.325 0 0 1 2.325,0 Z" />
  </g>
  <g
     transform="translate(16.51,53.34)"
     id="g248">
    <path
       id="circle244"
       style="fill:#000099;stroke:none;stroke-width:0"
       d="M 3,0 A 3,3 0 0 1 0,3 3,3 0 0 1 -3,0 3,3 0 0 1 0,-3 3,3 0 0 1 3,0 Z" />
    <path
       id="circle246"
       style="fill:#000099;stroke:none;stroke-width:0"
       d="M 2,0 A 2,2 0 0 1 0,2 2,2 0 0 1 -2,0 2,2 0 0 1 0,-2 2,2 0 0 1 2,0 Z" />
  </g>
  <g
     transform="translate(29.21,53.34)"
     id="g254">
    <path
       id="circle250"
       style="fill:#000099;stroke:none;stroke-width:0"
       d="M 3,0 A 3,3 0 0 1 0,3 3,3 0 0 1 -3,0 3,3 0 0 1 0,-3 3,3 0 0 1 3,0 Z" />
    <path
       id="circle252"
       style="fill:#000099;stroke:none;stroke-width:0"
       d="M 2,0 A 2,2 0 0 1 0,2 2,2 0 0 1 -2,0 2,2 0 0 1 0,-2 2,2 0 0 1 2,0 Z" />
  </g>
  <g
     transform="translate(38.1,53.34)"
     id="g262">
    <path
       id="circle256"
       style="fill:#000099;stroke:none;stroke-width:0"
       d="M 4.1999998,0 A 4.1999998,4.1999998 0 0 1 0,4.1999998 4.1999998,4.1999998 0 0 1 -4.1999998,0 4.1999998,4.1999998 0 0 1 0,-4.1999998 4.1999998,4.1999998 0 0 1 4.1999998,0 Z" />
    <path
       id="circle258"
       style="fill:none;stroke:#f0f0ff;stroke-width:0.95"
       d="M 3.5,0 A 3.5,3.5 0 0 1 0,3.5 3.5,3.5 0 0 1 -3.5,0 3.5,3.5 0 0 1 0,-3.5 3.5,3.5 0 0 1 3.5,0 Z" />
    <path
       id="circle260"
       style="fill:none;stroke:#f0f0ff;stroke-width:0.95"
       d="M 2.325,0 A 2.325,2.325 0 0 1 0,2.325 2.325,2.325 0 0 1 -2.325,0 2.325,2.325 0 0 1 0,-2.325 2.325,2.325 0 0 1 2.325,0 Z" />
  </g>
  <g
     transform="translate(7.62,62.23)"
     id="g270">
    <path
       id="circle264"
       style="fill:#000099;stroke:none;stroke-width:0"
       d="M 4.1999998,0 A 4.1999998,4.1999998 0 0 1 0,4.1999998 4.1999998,4.1999998 0 0 1 -4.1999998,0 4.1999998,4.1999998 0 0 1 0,-4.1999998 4.1999998,4.1999998 0 0 1 4.1999998,0 Z" />
    <path
       id="circle266"
       style="fill:none;stroke:#f0f0ff;stroke-width:0.95"
       d="M 3.5,0 A 3.5,3.5 0 0 1 0,3.5 3.5,3.5 0 0 1 -3.5,0 3.5,3.5 0 0 1 0,-3.5 3.5,3.5 0 0 1 3.5,0 Z" />
    <path
       id="circle268"
       style="fill:none;stroke:#f0f0ff;stroke-width:0.95"
       d="M 2.325,0 A 2.325,2.325 0 0 1 0,2.325 2.325,2.325 0 0 1 -2.325,0 2.325,2.325 0 0 1 0,-2.325 2.325,2.325 0 0 1 2.325,0 Z" />
  </g>
  <g
     transform="translate(16.51,62.23)"
     id="g276">
    <path
       id="circle272"
       style="fill:#000099;stroke:none;stroke-width:0"
       d="M 3,0 A 3,3 0 0 1 0,3 3,3 0 0 1 -3,0 3,3 0 0 1 0,-3 3,3 0 0 1 3,0 Z" />
    <path
       id="circle274"
       style="fill:#000099;stroke:none;stroke-width:0"
       d="M 2,0 A 2,2 0 0 1 0,2 2,2 0 0 1 -2,0 2,2 0 0 1 0,-2 2,2 0 0 1 2,0 Z" />
  </g>
  <g
     transform="translate(29.21,62.23)"
     id="g282">
    <path
       id="circle278"
       style="fill:#000099;stroke:none;stroke-width:0"
       d="M 3,0 A 3,3 0 0 1 0,3 3,3 0 0 1 -3,0 3,3 0 0 1 0,-3 3,3 0 0 1 3,0 Z" />
    <path
       id="circle280"
       style="fill:#000099;stroke:none;stroke-width:0"
       d="M 2,0 A 2,2 0 0 1 0,2 2,2 0 0 1 -2,0 2,2 0 0 1 0,-2 2,2 0 0 1 2,0 Z" />
  </g>
  <g
     transform="translate(38.1,62.23)"
     id="g290">
    <path
       id="circle284"
       style="fill:#000099;stroke:none;stroke-width:0"
       d="M 4.1999998,0 A 4.1999998,4.1999998 0 0 1 0,4.1999998 4.1999998,4.1999998 0 0 1 -4.1999998,0 4.1999998,4.1999998 0 0 1 0,-4.1999998 4.1999998,4.1999998 0 0 1 4.1999998,0 Z" />
    <path
       id="circle286"
       style="fill:none;stroke:#f0f0ff;stroke-width:0.95"
       d="M 3.5,0 A 3.5,3.5 0 0 1 0,3.5 3.5,3.5 0 0 1 -3.5,0 3.5,3.5 0 0 1 0,-3.5 3.5,3.5 0 0 1 3.5,0 Z" />
    <path
       id="circle288"
       style="fill:none;stroke:#f0f0ff;stroke-width:0.95"
       d="M 2.325,0 A 2.325,2.325 0 0 1 0,2.325 2.325,2.325 0 0 1 -2.325,0 2.325,2.325 0 0 1 0,-2.325 2.325,2.325 0 0 1 2.325,0 Z" />
  </g>
  <g
     transform="translate(7.62,71.12)"
     id="g298">
    <path
       id="circle292"
       style="fill:#000099;stroke:none;stroke-width:0"
       d="M 4.1999998,0 A 4.1999998,4.1999998 0 0 1 0,4.1999998 4.1999998,4.1999998 0 0 1 -4.1999998,0 4.1999998,4.1999998 0 0 1 0,-4.1999998 4.1999998,4.1999998 0 0 1 4.1999998,0 Z" />
    <path
       id="circle294"
       style="fill:none;stroke:#f0f0ff;stroke-width:0.95"
       d="M 3.5,0 A 3.5,3.5 0 0 1 0,3.5 3.5,3.5 0 0 1 -3.5,0 3.5,3.5 0 0 1 0,-3.5 3.5,3.5 0 0 1 3.5,0 Z" />
    <path
       id="circle296"
       style="fill:none;stroke:#f0f0ff;stroke-width:0.95"
       d="M 2.325,0 A 2.325,2.325 0 0 1 0,2.325 2.325,2.325 0 0 1 -2.325,0 2.325,2.325 0 0 1 0,-2.325 2.325,2.325 0 0 1 2.325,0 Z" />
  </g>
  <g
     transform="translate(16.51,71.12)"
     id="g304">
    <path
       id="circle300"
       style="fill:#000099;stroke:none;stroke-width:0"
       d="M 3,0 A 3,3 0 0 1 0,3 3,3 0 0 1 -3,0 3,3 0 0 1 0,-3 3,3 0 0 1 3,0 Z" />
    <path
       id="circle302"
       style="fill:#000099;stroke:none;stroke-width:0"
       d="M 2,0 A 2,2 0 0 1 0,2 2,2 0 0 1 -2,0 2,2 0 0 1 0,-2 2,2 0 0 1 2,0 Z" />
  </g>
  <g
     transform="translate(29.21,71.12)"
     id="g310">
    <path
       id="circle306"
       style="fill:#000099;stroke:none;stroke-width:0"
       d="M 3,0 A 3,3 0 0 1 0,3 3,3 0 0 1 -3,0 3,3 0 0 1 0,-3 3,3 0 0 1 3,0 Z" />
    <path
       id="circle308"
       style="fill:#000099;stroke:none;stroke-width:0"
       d="M 2,0 A 2,2 0 0 1 0,2 2,2 0 0 1 -2,0 2,2 0 0 1 0,-2 2,2 0 0 1 2,0 Z" />
  </g>
  <g
     transform="translate(38.1,71.12)"
     id="g318">
    <path
       id="circle312"
       style="fill:#000099;stroke:none;stroke-width:0"
       d="M 4.1999998,0 A 4.1999998,4.1999998 0 0 1 0,4.1999998 4.1999998,4.1999998 0 0 1 -4.1999998,0 4.1999998,4.1999998 0 0 1 0,-4.1999998 4.1999998,4.1999998 0 0 1 4.1999998,0 Z" />
    <path
       id="circle314"
       style="fill:none;stroke:#f0f0ff;stroke-width:0.95"
       d="M 3.5,0 A 3.5,3.5 0 0 1 0,3.5 3.5,3.5 0 0 1 -3.5,0 3.5,3.5 0 0 1 0,-3.5 3.5,3.5 0 0 1 3.5,0 Z" />
    <path
       id="circle316"
       style="fill:none;stroke:#f0f0ff;stroke-width:0.95"
       d="M 2.325,0 A 2.325,2.325 0 0 1 0,2.325 2.325,2.325 0 0 1 -2.325,0 2.325,2.325 0 0 1 0,-2.325 2.325,2.325 0 0 1 2.325,0 Z" />
  </g>
  <g
     transform="translate(7.62,80.01)"
     id="g326">
    <path
       id="circle320"
       style="fill:#000099;stroke:none;stroke-width:0"
       d="M 4.1999998,0 A 4.1999998,4.1999998 0 0 1 0,4.1999998 4.1999998,4.1999998 0 0 1 -4.1999998,0 4.1999998,4.1999998 0 0 1 0,-4.1999998 4.1999998,4.1999998 0 0 1 4.1999998,0 Z" />
    <path
       id="circle322"
       style="fill:none;stroke:#f0f0ff;stroke-width:0.95"
       d="M 3.5,0 A 3.5,3.5 0 0 1 0,3.5 3.5,3.5 0 0 1 -3.5,0 3.5,3.5 0 0 1 0,-3.5 3.5,3.5 0 0 1 3.5,0 Z" />
    <path
       id="circle324"
       style="fill:none;stroke:#f0f0ff;stroke-width:0.95"
       d="M 2.325,0 A 2.325,2.325 0 0 1 0,2.325 2.325,2.325 0 0 1 -2.325,0 2.325,2.325 0 0 1 0,-2.325 2.325,2.325 0 0 1 2.325,0 Z" />
  </g>
  <g
     transform="translate(16.51,80.01)"
     id="g332">
    <path
       id="circle328"
       style="fill:#000099;stroke:none;stroke-width:0"
       d="M 3,0 A 3,3 0 0 1 0,3 3,3 0 0 1 -3,0 3,3 0 0 1 0,-3 3,3 0 0 1 3,0 Z" />
    <path
       id="circle330"
       style="fill:#000099;stroke:none;stroke-width:0"
       d="M 2,0 A 2,2 0 0 1 0,2 2,2 0 0 1 -2,0 2,2 0 0 1 0,-2 2,2 0 0 1 2,0 Z" />
  </g>
  <g
     transform="translate(29.21,80.01)"
     id="g338">
    <path
       id="circle334"
       style="fill:#000099;stroke:none;stroke-width:0"
       d="M 3,0 A 3,3 0 0 1 0,3 3,3 0 0 1 -3,0 3,3 0 0 1 0,-3 3,3 0 0 1 3,0 Z" />
    <path
       id="circle336"
       style="fill:#000099;stroke:none;stroke-width:0"
       d="M 2,0 A 2,2 0 0 1 0,2 2,2 0 0 1 -2,0 2,2 0 0 1 0,-2 2,2 0 0 1 2,0 Z" />
  </g>
  <g
     transform="translate(38.1,80.01)"
     id="g346">
    <path
       id="circle340"
       style="fill:#000099;stroke:none;stroke-width:0"
       d="M 4.1999998,0 A 4.1999998,4.1999998 0 0 1 0,4.1999998 4.1999998,4.1999998 0 0 1 -4.1999998,0 4.1999998,4.1999998 0 0 1 0,-4.1999998 4.1999998,4.1999998 0 0 1 4.1999998,0 Z" />
    <path
       id="circle342"
       style="fill:none;stroke:#f0f0ff;stroke-width:0.95"
       d="M 3.5,0 A 3.5,3.5 0 0 1 0,3.5 3.5,3.5 0 0 1 -3.5,0 3.5,3.5 0 0 1 0,-3.5 3.5,3.5 0 0 1 3.5,0 Z" />
    <path
       id="circle344"
       style="fill:none;stroke:#f0f0ff;stroke-width:0.95"
       d="M 2.325,0 A 2.325,2.325 0 0 1 0,2.325 2.325,2.325 0 0 1 -2.325,0 2.325,2.325 0 0 1 0,-2.325 2.325,2.325 0 0 1 2.325,0 Z" />
  </g>
  <g
     transform="translate(7.62,95.568)"
     id="g354">
    <path
       id="circle348"
       style="fill:#000099;stroke:none;stroke-width:0"
       d="M 4.1999998,0 A 4.1999998,4.1999998 0 0 1 0,4.1999998 4.1999998,4.1999998 0 0 1 -4.1999998,0 4.1999998,4.1999998 0 0 1 0,-4.1999998 4.1999998,4.1999998 0 0 1 4.1999998,0 Z" />
    <path
       id="circle350"
       style="fill:none;stroke:#f0f0ff;stroke-width:0.95"
       d="M 3.5,0 A 3.5,3.5 0 0 1 0,3.5 3.5,3.5 0 0 1 -3.5,0 3.5,3.5 0 0 1 0,-3.5 3.5,3.5 0 0 1 3.5,0 Z" />
    <path
       id="circle352"
       style="fill:none;stroke:#f0f0ff;stroke-width:0.95"
       d="M 2.325,0 A 2.325,2.325 0 0 1 0,2.325 2.325,2.325 0 0 1 -2.325,0 2.325,2.325 0 0 1 0,-2.325 2.325,2.325 0 0 1 2.325,0 Z" />
  </g>
  <g
     transform="translate(16.51,95.568)"
     id="g362">
    <path
       id="circle356"
       style="fill:#000099;stroke:none;stroke-width:0"
       d="M 4.1999998,0 A 4.1999998,4.1999998 0 0 1 0,4.1999998 4.1999998,4.1999998 0 0 1 -4.1999998,0 4.1999998,4.1999998 0 0 1 0,-4.1999998 4.1999998,4.1999998 0 0 1 4.1999998,0 Z" />
    <path
       id="circle358"
       style="fill:none;stroke:#f0f0ff;stroke-width:0.95"
       d="M 3.5,0 A 3.5,3.5 0 0 1 0,3.5 3.5,3.5 0 0 1 -3.5,0 3.5,3.5 0 0 1 0,-3.5 3.5,3.5 0 0 1 3.5,0 Z" />
    <path
       id="circle360"
       style="fill:none;stroke:#f0f0ff;stroke-width:0.95"
       d="M 2.325,0 A 2.325,2.325 0 0 1 0,2.325 2.325,2.325 0 0 1 -2.325,0 2.325,2.325 0 0 1 0,-2.325 2.325,2.325 0 0 1 2.325,0 Z" />
  </g>
  <g
     transform="translate(29.21,95.568)"
     id="g370">
    <path
       id="circle364"
       style="fill:#000099;stroke:none;stroke-width:0"
       d="M 4.1999998,0 A 4.1999998,4.1999998 0 0 1 0,4.1999998 4.1999998,4.1999998 0 0 1 -4.1999998,0 4.1999998,4.1999998 0 0 1 0,-4.1999998 4.1999998,4.1999998 0 0 1 4.1999998,0 Z" />
    <path
       id="circle366"
       style="fill:none;stroke:#f0f0ff;stroke-width:0.95"
       d="M 3.5,0 A 3.5,3.5 0 0 1 0,3.5 3.5,3.5 0 0 1 -3.5,0 3.5,3.5 0 0 1 0,-3.5 3.5,3.5 0 0 1 3.5,0 Z" />
    <path
       id="circle368"
       style="fill:none;stroke:#f0f0ff;stroke-width:0.95"
       d="M 2.325,0 A 2.325,2.325 0 0 1 0,2.325 2.325,2.325 0 0 1 -2.325,0 2.325,2.325 0 0 1 0,-2.325 2.325,2.325 0 0 1 2.325,0 Z" />
  </g>
  <g
     transform="translate(38.1,95.568)"
     id="g378">
    <path
       id="circle372"
       style="fill:#000099;stroke:none;stroke-width:0"
       d="M 4.1999998,0 A 4.1999998,4.1999998 0 0 1 0,4.1999998 4.1999998,4.1999998 0 0 1 -4.1999998,0 4.1999998,4.1999998 0 0 1 0,-4.1999998 4.1999998,4.1999998 0 0 1 4.1999998,0 Z" />
    <path
       id="circle374"
       style="fill:none;stroke:#f0f0ff;stroke-width:0.95"
       d="M 3.5,0 A 3.5,3.5 0 0 1 0,3.5 3.5,3.5 0 0 1 -3.5,0 3.5,3.5 0 0 1 0,-3.5 3.5,3.5 0 0 1 3.5,0 Z" />
    <path
       id="circle376"
       style="fill:none;stroke:#f0f0ff;stroke-width:0.95"
       d="M 2.325,0 A 2.325,2.325 0 0 1 0,2.325 2.325,2.325 0 0 1 -2.325,0 2.325,2.325 0 0 1 0,-2.325 2.325,2.325 0 0 1 2.325,0 Z" />
  </g>
  <g
     transform="translate(7.62,109.538)"
     id="g386">
    <path
       id="circle380"
       style="fill:#000099;stroke:none;stroke-width:0"
       d="M 4.1999998,0 A 4.1999998,4.1999998 0 0 1 0,4.1999998 4.1999998,4.1999998 0 0 1 -4.1999998,0 4.1999998,4.1999998 0 0 1 0,-4.1999998 4.1999998,4.1999998 0 0 1 4.1999998,0 Z" />
    <path
       id="circle382"
       style="fill:none;stroke:#f0f0ff;stroke-width:0.95"
       d="M 3.5,0 A 3.5,3.5 0 0 1 0,3.5 3.5,3.5 0 0 1 -3.5,0 3.5,3.5 0 0 1 0,-3.5 3.5,3.5 0 0 1 3.5,0 Z" />
    <path
       id="circle384"
       style="fill:none;stroke:#f0f0ff;stroke-width:0.95"
       d="M 2.325,0 A 2.325,2.325 0 0 1 0,2.325 2.325,2.325 0 0 1 -2.325,0 2.325,2.325 0 0 1 0,-2.325 2.325,2.325 0 0 1 2.325,0 Z" />
  </g>
  <g
     transform="translate(16.51,109.538)"
     id="g394">
    <path
       id="circle388"
       style="fill:#000099;stroke:none;stroke-width:0"
       d="M 4.1999998,0 A 4.1999998,4.1999998 0 0 1 0,4.1999998 4.1999998,4.1999998 0 0 1 -4.1999998,0 4.1999998,4.1999998 0 0 1 0,-4.1999998 4.1999998,4.1999998 0 0 1 4.1999998,0 Z" />
    <path
       id="circle390"
       style="fill:none;stroke:#f0f0ff;stroke-width:0.95"
       d="M 3.5,0 A 3.5,3.5 0 0 1 0,3.5 3.5,3.5 0 0 1 -3.5,0 3.5,3.5 0 0 1 0,-3.5 3.5,3.5 0 0 1 3.5,0 Z" />
    <path
       id="circle392"
       style="fill:none;stroke:#f0f0ff;stroke-width:0.95"
       d="M 2.325,0 A 2.325,2.325 0 0 1 0,2.325 2.325,2.325 0 0 1 -2.325,0 2.325,2.325 0 0 1 0,-2.325 2.325,2.325 0 0 1 2.325,0 Z" />
  </g>
  <g
     transform="translate(29.21,109.538)"
     id="g402">
    <path
       id="circle396"
       style="fill:#000099;stroke:none;stroke-width:0"
       d="M 4.1999998,0 A 4.1999998,4.1999998 0 0 1 0,4.1999998 4.1999998,4.1999998 0 0 1 -4.1999998,0 4.1999998,4.1999998 0 0 1 0,-4.1999998 4.1999998,4.1999998 0 0 1 4.1999998,0 Z" />
    <path
       id="circle398"
       style="fill:none;stroke:#f0f0ff;stroke-width:0.95"
       d="M 3.5,0 A 3.5,3.5 0 0 1 0,3.5 3.5,3.5 0 0 1 -3.5,0 3.5,3.5 0 0 1 0,-3.5 3.5,3.5 0 0 1 3.5,0 Z" />
    <path
       id="circle400"
       style="fill:none;stroke:#f0f0ff;stroke-width:0.95"
       d="M 2.325,0 A 2.325,2.325 0 0 1 0,2.325 2.325,2.325 0 0 1 -2.325,0 2.325,2.325 0 0 1 0,-2.325 2.325,2.325 0 0 1 2.325,0 Z" />
  </g>
  <g
     transform="translate(38.1,109.538)"
     id="g410">
    <path
       id="circle404"
       style="fill:#000099;stroke:none;stroke-width:0"
       d="M 4.1999998,0 A 4.1999998,4.1999998 0 0 1 0,4.1999998 4.1999998,4.1999998 0 0 1 -4.1999998,0 4.1999998,4.1999998 0 0 1 0,-4.1999998 4.1999998,4.1999998 0 0 1 4.1999998,0 Z" />
    <path
       id="circle406"
       style="fill:none;stroke:#f0f0ff;stroke-width:0.95"
       d="M 3.5,0 A 3.5,3.5 0 0 1 0,3.5 3.5,3.5 0 0 1 -3.5,0 3.5,3.5 0 0 1 0,-3.5 3.5,3.5 0 0 1 3.5,0 Z" />
    <path
       id="circle408"
       style="fill:none;stroke:#f0f0ff;stroke-width:0.95"
       d="M 2.325,0 A 2.325,2.325 0 0 1 0,2.325 2.325,2.325 0 0 1 -2.325,0 2.325,2.325 0 0 1 0,-2.325 2.325,2.325 0 0 1 2.325,0 Z" />
  </g>
</svg>
