<?xml version="1.0" encoding="UTF-8" standalone="no"?>
<svg xmlns="http://www.w3.org/2000/svg" xmlns:svg="http://www.w3.org/2000/svg" version="1.1" viewBox="0.000000 0.000000 101.600000 128.500000" height="128.500000mm" width="101.600000mm">
  <defs/>
  <g>
    <rect x="0.25" y="0.25" width="101.1" height="128" fill="#efedeb" stroke="#18191c" stroke-width="0.5"/>
    <g style="font-weight:bold;font-size:4.064px;font-family:'Proxima Nova';dominant-baseline:alphabetic;text-anchor:middle;fill:#18191c">
      <path d="m 37.843935,8.617984 c 0.256032,0.256032 0.62992,0.430784 1.150112,0.430784 0.73152,0 1.085088,-0.373888 1.085088,-0.869696 0,-0.601472 -0.56896,-0.735584 -1.016,-0.8371841 -0.312928,-0.073152 -0.540512,-0.130048 -0.540512,-0.312928 0,-0.16256 0.138176,-0.276352 0.398272,-0.276352 0.26416,0 0.556768,0.093472 0.776224,0.296672 l 0.321056,-0.422656 c -0.268224,-0.247904 -0.625856,-0.377952 -1.05664,-0.377952 -0.638048,0 -1.028192,0.36576 -1.028192,0.816864 0,0.6055361 0.56896,0.7274561 1.011936,0.8290561 0.312928,0.073152 0.54864,0.14224 0.54864,0.34544 0,0.154432 -0.154432,0.3048 -0.471424,0.3048 -0.373888,0 -0.67056,-0.166624 -0.861568,-0.36576 z" style="font-weight:bold;font-size:4.064px;font-family:'Proxima Nova';dominant-baseline:alphabetic;text-anchor:middle;fill:#18191c"/>
      <path d="m 41.760044,9.048768 c 0.617728,0 0.959104,-0.329184 1.154176,-0.666496 L 42.418412,8.142496 c -0.113792,0.22352 -0.357632,0.394208 -0.658368,0.394208 -0.471424,0 -0.829056,-0.377952 -0.829056,-0.890016 0,-0.5120641 0.357632,-0.8900161 0.829056,-0.8900161 0.300736,0 0.544576,0.174752 0.658368,0.394208 l 0.495808,-0.24384 c -0.191008,-0.337312 -0.536448,-0.662432 -1.154176,-0.662432 -0.79248,0 -1.4224,0.56896 -1.4224,1.4020801 0,0.83312 0.62992,1.40208 1.4224,1.40208 z" style="font-weight:bold;font-size:4.064px;font-family:'Proxima Nova';dominant-baseline:alphabetic;text-anchor:middle;fill:#18191c"/>
      <path d="m 45.12783,9 h 0.62992 L 44.713302,6.2893119 H 43.98991 L 42.941398,9 h 0.633984 L 43.74607,8.53264 h 1.211072 z m -0.776224,-2.2108161 0.44704,1.2435841 h -0.898144 z" style="font-weight:bold;font-size:4.064px;font-family:'Proxima Nova';dominant-baseline:alphabetic;text-anchor:middle;fill:#18191c"/>
      <path d="m 47.877507,9 h 0.556768 V 6.2893119 H 47.857187 V 8.04496 L 46.601411,6.2893119 H 46.008067 V 9 h 0.577088 V 7.1793279 Z" style="font-weight:bold;font-size:4.064px;font-family:'Proxima Nova';dominant-baseline:alphabetic;text-anchor:middle;fill:#18191c"/>
      <path d="m 50.838195,9 h 0.556768 V 6.2893119 H 50.817875 V 8.04496 L 49.562099,6.2893119 H 48.968755 V 9 h 0.577088 V 7.1793279 Z" style="font-weight:bold;font-size:4.064px;font-family:'Proxima Nova';dominant-baseline:alphabetic;text-anchor:middle;fill:#18191c"/>
      <path d="M 51.929442,9 H 52.50653 V 6.2893119 h -0.577088 z" style="font-weight:bold;font-size:4.064px;font-family:'Proxima Nova';dominant-baseline:alphabetic;text-anchor:middle;fill:#18191c"/>
      <path d="m 53.040692,9 h 1.471168 c 0.516128,0 0.788416,-0.32512 0.788416,-0.73152 0,-0.341376 -0.231648,-0.621792 -0.520192,-0.666496 0.256032,-0.052832 0.46736,-0.2804161 0.46736,-0.6217921 0,-0.361696 -0.26416,-0.69088 -0.780288,-0.69088 H 53.040692 Z M 53.61778,7.3784639 v -0.597408 h 0.723392 c 0.195072,0 0.316992,0.130048 0.316992,0.296672 0,0.174752 -0.12192,0.300736 -0.316992,0.300736 z m 0,1.1297921 V 7.870208 h 0.743712 c 0.227584,0 0.349504,0.146304 0.349504,0.316992 0,0.195072 -0.130048,0.321056 -0.349504,0.321056 z" style="font-weight:bold;font-size:4.064px;font-family:'Proxima Nova';dominant-baseline:alphabetic;text-anchor:middle;fill:#18191c"/>
      <path d="m 57.629394,9 h 0.62992 L 57.214866,6.2893119 H 56.491473 L 55.442961,9 h 0.633984 l 0.170688,-0.46736 h 1.211073 z M 56.853169,6.7891839 57.30021,8.032768 h -0.898145 z" style="font-weight:bold;font-size:4.064px;font-family:'Proxima Nova';dominant-baseline:alphabetic;text-anchor:middle;fill:#18191c"/>
      <path d="m 58.509629,9 h 1.723136 V 8.492 H 59.086717 V 6.2893119 h -0.577088 z" style="font-weight:bold;font-size:4.064px;font-family:'Proxima Nova';dominant-baseline:alphabetic;text-anchor:middle;fill:#18191c"/>
      <path d="m 62.806484,9 h 0.577088 V 8.439168 h 0.349504 v -0.508 H 63.383572 V 6.2893119 H 62.587028 L 61.510068,7.984 v 0.455168 h 1.296416 z m 0,-2.1986241 V 7.931168 h -0.73152 z" style="font-weight:bold;font-size:4.064px;font-family:'Proxima Nova';dominant-baseline:alphabetic;text-anchor:middle;fill:#18191c"/>
    </g>
    <g style="font-weight:bold;font-size:4.064px;font-family:'Proxima Nova';dominant-baseline:hanging;text-anchor:middle;fill:#18191c">
      <path d="m 46.936754,122.2581 h 1.068832 c 0.849376,0 1.438656,-0.53645 1.438656,-1.35331 0,-0.81687 -0.58928,-1.35738 -1.438656,-1.35738 h -1.068832 z m 0.577088,-0.508 v -1.69469 h 0.491744 c 0.556768,0 0.849376,0.36983 0.849376,0.84938 0,0.45923 -0.312928,0.84531 -0.849376,0.84531 z" style="font-weight:bold;font-size:4.064px;font-family:'Proxima Nova';dominant-baseline:hanging;text-anchor:middle;fill:#18191c"/>
      <path d="m 51.715002,122.2581 h 0.581152 v -2.71069 h -0.581152 v 1.06477 h -1.28016 v -1.06477 h -0.577088 v 2.71069 h 0.577088 v -1.13792 h 1.28016 z" style="font-weight:bold;font-size:4.064px;font-family:'Proxima Nova';dominant-baseline:hanging;text-anchor:middle;fill:#18191c"/>
      <path d="m 52.826379,122.2581 h 1.918208 v -0.49987 h -1.34112 v -0.62992 h 1.312672 v -0.49581 h -1.312672 v -0.58928 h 1.34112 v -0.49581 h -1.918208 z" style="font-weight:bold;font-size:4.064px;font-family:'Proxima Nova';dominant-baseline:hanging;text-anchor:middle;fill:#18191c"/>
    </g>
    <g style="font-weight:bold;font-size:2.37067px;font-family:'Proxima Nova';dominant-baseline:alphabetic;text-anchor:middle;fill:#18191c">
      <path d="m 7.7345645,25.367823 c 0.149352,0.149352 0.3674534,0.251291 0.6708987,0.251291 0.42672,0 0.632968,-0.218102 0.632968,-0.507323 0,-0.350859 -0.3318933,-0.429091 -0.5926666,-0.488357 -0.1825414,-0.04267 -0.3152987,-0.07586 -0.3152987,-0.182542 0,-0.09483 0.080603,-0.161205 0.2323253,-0.161205 0.1540934,0 0.3247814,0.05453 0.4527974,0.173059 l 0.1872826,-0.24655 c -0.156464,-0.14461 -0.3650826,-0.220472 -0.6163733,-0.220472 -0.3721947,0 -0.5997787,0.21336 -0.5997787,0.476504 0,0.35323 0.3318933,0.42435 0.590296,0.483616 0.1825414,0.04267 0.32004,0.08297 0.32004,0.201507 0,0.09008 -0.090085,0.1778 -0.2749973,0.1778 -0.2181014,0 -0.39116,-0.0972 -0.5025814,-0.21336 z" style="font-weight:bold;font-size:2.37067px;font-family:'Proxima Nova';dominant-baseline:alphabetic;text-anchor:middle;fill:#18191c"/>
      <path d="M 9.611651,25.590666 H 9.9506564 V 24.305764 H 10.410566 V 24.009431 H 9.149371 v 0.296333 h 0.46228 z" style="font-weight:bold;font-size:2.37067px;font-family:'Proxima Nova';dominant-baseline:alphabetic;text-anchor:middle;fill:#18191c"/>
      <path d="m 10.626371,25.590666 h 1.118954 v -0.291592 h -0.78232 V 24.93162 h 0.765726 v -0.289221 h -0.765726 v -0.343747 h 0.78232 v -0.289221 h -1.118954 z" style="font-weight:bold;font-size:2.37067px;font-family:'Proxima Nova';dominant-baseline:alphabetic;text-anchor:middle;fill:#18191c"/>
      <path d="m 12.010803,25.590666 h 0.336635 v -0.56659 h 0.403013 c 0.341376,0 0.531029,-0.229954 0.531029,-0.504952 0,-0.277368 -0.187282,-0.509693 -0.531029,-0.509693 h -0.739648 z m 0.926931,-1.073912 c 0,0.132757 -0.09957,0.218101 -0.232326,0.218101 h -0.35797 v -0.436203 h 0.35797 c 0.132758,0 0.232326,0.08771 0.232326,0.218102 z" style="font-weight:bold;font-size:2.37067px;font-family:'Proxima Nova';dominant-baseline:alphabetic;text-anchor:middle;fill:#18191c"/>
      <path d="m 13.378789,25.367823 c 0.149352,0.149352 0.367453,0.251291 0.670898,0.251291 0.42672,0 0.632968,-0.218102 0.632968,-0.507323 0,-0.350859 -0.331893,-0.429091 -0.592666,-0.488357 -0.182542,-0.04267 -0.315299,-0.07586 -0.315299,-0.182542 0,-0.09483 0.0806,-0.161205 0.232325,-0.161205 0.154094,0 0.324782,0.05453 0.452798,0.173059 l 0.187282,-0.24655 c -0.156464,-0.14461 -0.365082,-0.220472 -0.616373,-0.220472 -0.372195,0 -0.599779,0.21336 -0.599779,0.476504 0,0.35323 0.331894,0.42435 0.590296,0.483616 0.182542,0.04267 0.32004,0.08297 0.32004,0.201507 0,0.09008 -0.09009,0.1778 -0.274997,0.1778 -0.218101,0 -0.39116,-0.0972 -0.502581,-0.21336 z" style="font-weight:bold;font-size:2.37067px;font-family:'Proxima Nova';dominant-baseline:alphabetic;text-anchor:middle;fill:#18191c"/>
    </g>
    <rect x="6.019999999999999" y="43.26255555555555" width="10.4" height="12.980444444444444" rx="1" ry="1" fill="#efedeb" stroke="#18191c" stroke-width="0.35"/>
    <g style="font-weight:bold;font-size:2.37067px;font-family:'Proxima Nova';dominant-baseline:alphabetic;text-anchor:middle;fill:#18191c">
      <path d="m 11.673279,45.842999 h 0.367454 l -0.609262,-1.581235 h -0.421979 l -0.611632,1.581235 h 0.369824 l 0.09957,-0.272627 h 0.706459 z m -0.452797,-1.289643 0.260773,0.725424 h -0.523917 z" style="font-weight:bold;font-size:2.37067px;font-family:'Proxima Nova';dominant-baseline:alphabetic;text-anchor:middle;fill:#18191c"/>
    </g>
    <rect x="6.019999999999999" y="63.51488888888889" width="10.4" height="12.980444444444444" rx="1" ry="1" fill="#efedeb" stroke="#18191c" stroke-width="0.35"/>
    <g style="font-weight:bold;font-size:2.37067px;font-family:'Proxima Nova';dominant-baseline:alphabetic;text-anchor:middle;fill:#18191c">
      <path d="m 10.591644,66.095337 h 0.858181 c 0.301075,0 0.45991,-0.189653 0.45991,-0.42672 0,-0.199136 -0.135128,-0.362712 -0.303446,-0.388789 0.149352,-0.03082 0.272627,-0.163576 0.272627,-0.362712 0,-0.21099 -0.154093,-0.403014 -0.455168,-0.403014 h -0.832104 z m 0.336635,-0.945896 v -0.348488 h 0.421978 c 0.113792,0 0.184912,0.07586 0.184912,0.173059 0,0.101938 -0.07112,0.175429 -0.184912,0.175429 z m 0,0.659045 v -0.372194 h 0.433832 c 0.132757,0 0.203877,0.08534 0.203877,0.184912 0,0.113792 -0.07586,0.187282 -0.203877,0.187282 z" style="font-weight:bold;font-size:2.37067px;font-family:'Proxima Nova';dominant-baseline:alphabetic;text-anchor:middle;fill:#18191c"/>
    </g>
    <rect x="6.019999999999999" y="83.76722222222223" width="10.4" height="12.980444444444444" rx="1" ry="1" fill="#efedeb" stroke="#18191c" stroke-width="0.35"/>
    <g style="font-weight:bold;font-size:2.37067px;font-family:'Proxima Nova';dominant-baseline:alphabetic;text-anchor:middle;fill:#18191c">
      <path d="m 11.31542,86.376112 c 0.360341,0 0.559477,-0.192024 0.673269,-0.388789 l -0.289221,-0.13987 c -0.06638,0.130387 -0.208619,0.229955 -0.384048,0.229955 -0.274998,0 -0.483616,-0.220472 -0.483616,-0.519176 0,-0.298704 0.208618,-0.519176 0.483616,-0.519176 0.175429,0 0.317669,0.101939 0.384048,0.229955 l 0.289221,-0.14224 c -0.111421,-0.196766 -0.312928,-0.386419 -0.673269,-0.386419 -0.46228,0 -0.829734,0.331893 -0.829734,0.81788 0,0.485987 0.367454,0.81788 0.829734,0.81788 z" style="font-weight:bold;font-size:2.37067px;font-family:'Proxima Nova';dominant-baseline:alphabetic;text-anchor:middle;fill:#18191c"/>
    </g>
    <rect x="6.019999999999999" y="104.01955555555556" width="10.4" height="12.980444444444444" rx="1" ry="1" fill="#efedeb" stroke="#18191c" stroke-width="0.35"/>
    <g style="font-weight:bold;font-size:2.37067px;font-family:'Proxima Nova';dominant-baseline:alphabetic;text-anchor:middle;fill:#18191c">
      <path d="m 12.012923,105.96798 q 0,0.42829 -0.312539,0.5834 -0.152796,0.0764 -0.318326,0.0764 v 0.43987 h -0.325273 v -0.43987 q -0.163214,0 -0.317169,-0.0764 -0.313696,-0.15627 -0.313696,-0.5834 0,-0.16785 0.07987,-0.31486 0.08334,-0.15164 0.228037,-0.23035 0.144694,-0.0799 0.322957,-0.0799 v -0.43987 h 0.325273 v 0.43987 q 0.386622,0 0.550994,0.31138 0.07987,0.15164 0.07987,0.3137 z m -0.333375,0.0174 q 0,-0.15511 -0.06945,-0.25814 -0.08103,-0.11922 -0.228037,-0.11922 v 0.75472 q 0.147009,0 0.228037,-0.11923 0.06945,-0.10302 0.06945,-0.25813 z m -0.622763,0.37736 v -0.75472 q -0.147009,0 -0.228037,0.11922 -0.06945,0.10303 -0.06945,0.25814 0,0.15511 0.06945,0.25813 0.08103,0.11923 0.228037,0.11923 z" style="font-weight:bold;font-size:2.37067px;font-family:'Proxima Nova';dominant-baseline:alphabetic;text-anchor:middle;fill:#18191c"/>
    </g>
    <g style="font-weight:bold;font-size:3.048px;font-family:'Proxima Nova';dominant-baseline:middle;text-anchor:end;fill:#18191c">
      <path d="m 27.38133,36.646713 q 0,0.550664 -0.401835,0.750093 -0.196454,0.09823 -0.409278,0.09823 V 38.06058 H 26.15201 v -0.565547 q -0.209848,0 -0.407789,-0.09823 -0.403324,-0.200918 -0.403324,-0.750093 0,-0.215801 0.102691,-0.404813 0.107157,-0.194965 0.293192,-0.296168 0.186035,-0.102691 0.41523,-0.102691 v -0.565547 h 0.418207 v 0.565547 q 0.497086,0 0.708422,0.400347 0.102691,0.194965 0.102691,0.403325 z m -0.428625,0.02232 q 0,-0.19943 -0.0893,-0.331887 -0.10418,-0.153293 -0.293192,-0.153293 v 0.97036 q 0.189012,0 0.293192,-0.153293 0.0893,-0.132457 0.0893,-0.331887 z m -0.800695,0.48518 v -0.97036 q -0.189012,0 -0.293191,0.153293 -0.0893,0.132457 -0.0893,0.331887 0,0.19943 0.0893,0.331887 0.104179,0.153293 0.293191,0.153293 z" style="font-weight:bold;font-size:3.048px;font-family:'Proxima Nova';dominant-baseline:middle;text-anchor:end;fill:#18191c"/>
      <path d="M 29.750674,36.175672 H 28.307041 V 35.92564 h 1.443633 z m 0,0.663773 h -1.443633 v -0.250031 h 1.443633 z" style="font-weight:bold;font-size:3.048px;font-family:'Proxima Nova';dominant-baseline:middle;text-anchor:end;fill:#18191c"/>
      <path d="m 30.65649,36.390145 c 0,0.524256 0.25908,1.05156 0.841248,1.05156 0.57912,0 0.841248,-0.527304 0.841248,-1.05156 0,-0.524256 -0.262128,-1.048512 -0.841248,-1.048512 -0.582168,0 -0.841248,0.524256 -0.841248,1.048512 z m 1.240536,0 c 0,0.374904 -0.109728,0.667512 -0.399288,0.667512 -0.292608,0 -0.402336,-0.292608 -0.402336,-0.667512 0,-0.374904 0.109728,-0.664464 0.402336,-0.664464 0.28956,0 0.399288,0.28956 0.399288,0.664464 z" style="font-weight:bold;font-size:3.048px;font-family:'Proxima Nova';dominant-baseline:middle;text-anchor:end;fill:#18191c"/>
    </g>
    <g style="font-weight:bold;font-size:3.048px;font-family:'Proxima Nova';dominant-baseline:middle;text-anchor:end;fill:#18191c">
      <path d="m 28.018315,63.557601 q 0,0.550664 -0.401836,0.750094 -0.196453,0.09823 -0.409277,0.09823 v 0.565547 h -0.418207 v -0.565547 q -0.209848,0 -0.40779,-0.09823 -0.403324,-0.200918 -0.403324,-0.750094 0,-0.2158 0.102692,-0.404812 0.107156,-0.194965 0.293191,-0.296168 0.186035,-0.102692 0.415231,-0.102692 v -0.565546 h 0.418207 v 0.565546 q 0.497086,0 0.708421,0.400348 0.102692,0.194965 0.102692,0.403324 z m -0.428625,0.02233 q 0,-0.19943 -0.0893,-0.331887 -0.10418,-0.153293 -0.293191,-0.153293 v 0.970359 q 0.189011,0 0.293191,-0.153293 0.0893,-0.132457 0.0893,-0.331886 z m -0.800695,0.485179 v -0.970359 q -0.189012,0 -0.293192,0.153293 -0.0893,0.132457 -0.0893,0.331887 0,0.199429 0.0893,0.331886 0.10418,0.153293 0.293192,0.153293 z" style="font-weight:bold;font-size:3.048px;font-family:'Proxima Nova';dominant-baseline:middle;text-anchor:end;fill:#18191c"/>
      <path d="m 30.387659,63.08656 h -1.443633 v -0.250031 h 1.443633 z m 0,0.663774 h -1.443633 v -0.250031 h 1.443633 z" style="font-weight:bold;font-size:3.048px;font-family:'Proxima Nova';dominant-baseline:middle;text-anchor:end;fill:#18191c"/>
      <path d="m 31.805538,64.316018 h 0.435864 V 62.283002 H 31.86345 l -0.64008,0.643128 0.246888,0.25908 0.33528,-0.344424 z" style="font-weight:bold;font-size:3.048px;font-family:'Proxima Nova';dominant-baseline:middle;text-anchor:end;fill:#18191c"/>
    </g>
    <g style="font-weight:bold;font-size:3.048px;font-family:'Proxima Nova';dominant-baseline:middle;text-anchor:end;fill:#18191c">
      <path d="m 22.684255,86.959948 c 0.192024,0.192024 0.47244,0.323088 0.862584,0.323088 0.54864,0 0.813816,-0.280416 0.813816,-0.652272 0,-0.451104 -0.42672,-0.551688 -0.762,-0.627888 -0.234696,-0.05486 -0.405384,-0.09754 -0.405384,-0.234696 0,-0.12192 0.103632,-0.207264 0.298704,-0.207264 0.19812,0 0.417576,0.0701 0.582168,0.222504 l 0.240792,-0.316992 c -0.201168,-0.185928 -0.469392,-0.283464 -0.79248,-0.283464 -0.478536,0 -0.771144,0.27432 -0.771144,0.612648 0,0.454152 0.42672,0.545592 0.758952,0.621792 0.234696,0.05486 0.41148,0.10668 0.41148,0.25908 0,0.115824 -0.115824,0.2286 -0.353568,0.2286 -0.280416,0 -0.50292,-0.124968 -0.646176,-0.27432 z" style="font-weight:bold;font-size:3.048px;font-family:'Proxima Nova';dominant-baseline:middle;text-anchor:end;fill:#18191c"/>
      <path d="m 26.045009,87.24646 h 0.435864 v -2.033016 h -0.435864 v 0.798576 h -0.96012 v -0.798576 h -0.432816 v 2.033016 h 0.432816 v -0.85344 h 0.96012 z" style="font-weight:bold;font-size:3.048px;font-family:'Proxima Nova';dominant-baseline:middle;text-anchor:end;fill:#18191c"/>
      <path d="m 28.301957,87.24646 h 0.47244 l -0.783336,-2.033016 h -0.542544 l -0.786384,2.033016 h 0.475488 l 0.128016,-0.35052 h 0.908304 z m -0.582168,-1.658112 0.33528,0.932688 h -0.673608 z" style="font-weight:bold;font-size:3.048px;font-family:'Proxima Nova';dominant-baseline:middle;text-anchor:end;fill:#18191c"/>
      <path d="m 28.962135,87.24646 h 0.432816 v -0.728472 h 0.51816 c 0.438912,0 0.682752,-0.295656 0.682752,-0.649224 0,-0.356616 -0.240792,-0.65532 -0.682752,-0.65532 h -0.950976 z m 1.191768,-1.380744 c 0,0.170688 -0.128016,0.280416 -0.298704,0.280416 H 29.394951 V 85.5853 h 0.460248 c 0.170688,0 0.298704,0.112776 0.298704,0.280416 z" style="font-weight:bold;font-size:3.048px;font-family:'Proxima Nova';dominant-baseline:middle;text-anchor:end;fill:#18191c"/>
      <path d="m 30.861183,87.24646 h 1.438656 v -0.374904 h -1.00584 v -0.47244 h 0.984504 V 86.02726 H 31.293999 V 85.5853 h 1.00584 v -0.371856 h -1.438656 z" style="font-weight:bold;font-size:3.048px;font-family:'Proxima Nova';dominant-baseline:middle;text-anchor:end;fill:#18191c"/>
    </g>
    <g style="font-weight:bold;font-size:3.048px;font-family:'Proxima Nova';dominant-baseline:middle;text-anchor:end;fill:#18191c">
      <path d="m 27.576676,109.90819 h 0.658368 v -0.25908 h -0.381 v -2.1275 h 0.381 v -0.25908 h -0.658368 z" style="font-weight:bold;font-size:3.048px;font-family:'Proxima Nova';dominant-baseline:middle;text-anchor:end;fill:#18191c"/>
      <path d="m 30.959159,108.57066 q 0,0.55066 -0.401836,0.75009 -0.196453,0.0982 -0.409277,0.0982 v 0.56554 h -0.418208 v -0.56554 q -0.209847,0 -0.407789,-0.0982 -0.403324,-0.20092 -0.403324,-0.75009 0,-0.21581 0.102692,-0.40482 0.107156,-0.19496 0.293191,-0.29617 0.186035,-0.10269 0.41523,-0.10269 v -0.56554 h 0.418208 v 0.56554 q 0.497085,0 0.708421,0.40035 0.102692,0.19497 0.102692,0.40333 z m -0.428625,0.0223 q 0,-0.19943 -0.0893,-0.33189 -0.10418,-0.15329 -0.293191,-0.15329 v 0.97036 q 0.189011,0 0.293191,-0.15329 0.0893,-0.13246 0.0893,-0.33189 z m -0.800696,0.48518 v -0.97036 q -0.189011,0 -0.293191,0.15329 -0.0893,0.13246 -0.0893,0.33189 0,0.19943 0.0893,0.33189 0.10418,0.15329 0.293191,0.15329 z" style="font-weight:bold;font-size:3.048px;font-family:'Proxima Nova';dominant-baseline:middle;text-anchor:end;fill:#18191c"/>
      <path d="M 31.082686,109.38326 Z" style="font-weight:bold;font-size:3.048px;font-family:'Proxima Nova';dominant-baseline:middle;text-anchor:end;fill:#18191c"/>
      <path d="m 31.640518,109.90819 h 0.658368 v -2.64566 h -0.658368 v 0.25908 h 0.381 v 2.1275 h -0.381 z" style="font-weight:bold;font-size:3.048px;font-family:'Proxima Nova';dominant-baseline:middle;text-anchor:end;fill:#18191c"/>
    </g>
    <line x1="33.44" y1="23" x2="33.44" y2="117" stroke="#18191c" stroke-width="0.35"/>
    <line x1="44.87" y1="23" x2="44.87" y2="117" stroke="#18191c" stroke-width="0.35"/>
    <circle cx="39.155" cy="19.736" r="1.088" fill="#18191c" stroke="#18191c" stroke-width="0.35"/>
    <g style="font-weight:bold;font-size:3.048px;font-family:'Proxima Nova';dominant-baseline:alphabetic;text-anchor:middle;fill:#18191c">
      <path d="m 39.145617,16.472 h 0.435864 v -2.033016 h -0.377952 l -0.64008,0.643128 0.246888,0.25908 0.33528,-0.344424 z" style="font-weight:bold;font-size:3.048px;font-family:'Proxima Nova';dominant-baseline:alphabetic;text-anchor:middle;fill:#18191c"/>
    </g>
    <line x1="56.3" y1="23" x2="56.3" y2="117" stroke="#18191c" stroke-width="0.35"/>
    <circle cx="50.584999999999994" cy="19.736" r="1.088" fill="#18191c" stroke="#18191c" stroke-width="0.35"/>
    <g style="font-weight:bold;font-size:3.048px;font-family:'Proxima Nova';dominant-baseline:alphabetic;text-anchor:middle;fill:#18191c">
      <path d="m 49.81445,16.472 h 1.530096 v -0.381 h -0.847344 c 0.545592,-0.384048 0.832104,-0.6858 0.832104,-1.033272 0,-0.405384 -0.344424,-0.649224 -0.77724,-0.649224 -0.283464,0 -0.585216,0.103632 -0.783336,0.332232 l 0.246888,0.286512 c 0.13716,-0.143256 0.313944,-0.234696 0.542544,-0.234696 0.170688,0 0.332232,0.08839 0.332232,0.265176 0,0.249936 -0.24384,0.460248 -1.075944,1.072896 z" style="font-weight:bold;font-size:3.048px;font-family:'Proxima Nova';dominant-baseline:alphabetic;text-anchor:middle;fill:#18191c"/>
    </g>
    <line x1="67.72999999999999" y1="23" x2="67.72999999999999" y2="117" stroke="#18191c" stroke-width="0.35"/>
    <circle cx="62.015" cy="19.736" r="1.088" fill="#18191c" stroke="#18191c" stroke-width="0.35"/>
    <g style="font-weight:bold;font-size:3.048px;font-family:'Proxima Nova';dominant-baseline:alphabetic;text-anchor:middle;fill:#18191c">
      <path d="m 61.180014,16.18244 c 0.149352,0.18288 0.42672,0.326136 0.801624,0.326136 0.48768,0 0.801624,-0.246888 0.801624,-0.597408 0,-0.3048 -0.268224,-0.466344 -0.475488,-0.48768 0.225552,-0.03962 0.445008,-0.207264 0.445008,-0.463296 0,-0.338328 -0.292608,-0.551688 -0.768096,-0.551688 -0.356616,0 -0.612648,0.13716 -0.77724,0.323088 l 0.21336,0.268224 c 0.143256,-0.13716 0.32004,-0.21336 0.51816,-0.21336 0.21336,0 0.377952,0.0823 0.377952,0.24384 0,0.1524 -0.149352,0.225552 -0.374904,0.225552 -0.07925,0 -0.216408,0 -0.252984,-0.003 v 0.377952 c 0.03048,-0.003 0.16764,-0.003 0.252984,-0.003 0.283464,0 0.408432,0.0762 0.408432,0.240792 0,0.155448 -0.13716,0.262128 -0.384048,0.262128 -0.19812,0 -0.420624,-0.08534 -0.560832,-0.231648 z" style="font-weight:bold;font-size:3.048px;font-family:'Proxima Nova';dominant-baseline:alphabetic;text-anchor:middle;fill:#18191c"/>
    </g>
    <line x1="79.16" y1="23" x2="79.16" y2="117" stroke="#18191c" stroke-width="0.35"/>
    <circle cx="73.445" cy="19.736" r="1.088" fill="#18191c" stroke="#18191c" stroke-width="0.35"/>
    <g style="font-weight:bold;font-size:3.048px;font-family:'Proxima Nova';dominant-baseline:alphabetic;text-anchor:middle;fill:#18191c">
      <path d="M 73.582684,16.472 H 74.0155 v -0.420624 h 0.262128 v -0.381 H 74.0155 V 14.438984 H 73.418092 L 72.610372,15.71 v 0.341376 h 0.972312 z m 0,-1.648968 v 0.847344 h -0.54864 z" style="font-weight:bold;font-size:3.048px;font-family:'Proxima Nova';dominant-baseline:alphabetic;text-anchor:middle;fill:#18191c"/>
    </g>
    <g style="font-weight:bold;font-size:2.37067px;font-family:'Proxima Nova';dominant-baseline:hanging;text-anchor:middle;fill:#18191c">
      <path d="m 89.427526,36.39956 h 0.858182 c 0.301074,0 0.459909,-0.189653 0.459909,-0.42672 0,-0.199136 -0.135128,-0.362712 -0.303445,-0.38879 0.149352,-0.03082 0.272626,-0.163576 0.272626,-0.362712 0,-0.210989 -0.154093,-0.403013 -0.455168,-0.403013 h -0.832104 z m 0.336635,-0.945896 v -0.348488 h 0.421979 c 0.113792,0 0.184912,0.07586 0.184912,0.173058 0,0.101939 -0.07112,0.17543 -0.184912,0.17543 z m 0,0.659045 v -0.372194 h 0.433832 c 0.132757,0 0.203877,0.08534 0.203877,0.184912 0,0.113792 -0.07586,0.187282 -0.203877,0.187282 z" style="font-weight:bold;font-size:2.37067px;font-family:'Proxima Nova';dominant-baseline:hanging;text-anchor:middle;fill:#18191c"/>
      <path d="m 90.997167,36.39956 h 0.336635 v -1.581235 h -0.336635 z" style="font-weight:bold;font-size:2.37067px;font-family:'Proxima Nova';dominant-baseline:hanging;text-anchor:middle;fill:#18191c"/>
    </g>
    <g style="font-weight:bold;font-size:2.37067px;font-family:'Proxima Nova';dominant-baseline:alphabetic;text-anchor:middle;fill:#18191c">
      <path d="m 88.485279,26.160069 c 0,0.38879 0.225213,0.659046 0.708829,0.659046 0.478875,0 0.704088,-0.267886 0.704088,-0.661416 V 25.209432 H 89.55682 v 0.938784 c 0,0.220472 -0.120904,0.372195 -0.362712,0.372195 -0.246549,0 -0.367453,-0.151723 -0.367453,-0.372195 v -0.938784 h -0.341376 z" style="font-weight:bold;font-size:2.37067px;font-family:'Proxima Nova';dominant-baseline:alphabetic;text-anchor:middle;fill:#18191c"/>
      <path d="m 91.302853,26.790667 h 0.324782 V 25.209432 H 91.291 v 1.024128 l -0.732536,-1.024128 h -0.346117 v 1.581235 h 0.336634 v -1.062059 z" style="font-weight:bold;font-size:2.37067px;font-family:'Proxima Nova';dominant-baseline:alphabetic;text-anchor:middle;fill:#18191c"/>
      <path d="m 91.939414,26.790667 h 0.336635 v -1.581235 h -0.336635 z" style="font-weight:bold;font-size:2.37067px;font-family:'Proxima Nova';dominant-baseline:alphabetic;text-anchor:middle;fill:#18191c"/>
    </g>
    <rect x="85.17999999999999" y="63.51488888888889" width="10.4" height="12.980444444444444" rx="1" ry="1" fill="#18191c" stroke="#18191c" stroke-width="0.35"/>
    <g style="font-weight:bold;font-size:2.37067px;font-family:'Proxima Nova';dominant-baseline:alphabetic;text-anchor:middle;fill:#efedeb">
      <path d="m 86.570447,65.872494 c 0.149352,0.149352 0.367453,0.251291 0.670899,0.251291 0.42672,0 0.632968,-0.218101 0.632968,-0.507323 0,-0.350858 -0.331894,-0.42909 -0.592667,-0.488357 -0.182541,-0.04267 -0.315299,-0.07586 -0.315299,-0.182541 0,-0.09483 0.0806,-0.161206 0.232326,-0.161206 0.154093,0 0.324781,0.05453 0.452797,0.173059 l 0.187283,-0.246549 c -0.156464,-0.144611 -0.365083,-0.220472 -0.616374,-0.220472 -0.372194,0 -0.599778,0.21336 -0.599778,0.476504 0,0.353229 0.331893,0.424349 0.590296,0.483616 0.182541,0.04267 0.32004,0.08297 0.32004,0.201506 0,0.09009 -0.09009,0.1778 -0.274998,0.1778 -0.218101,0 -0.39116,-0.0972 -0.502581,-0.21336 z" style="font-weight:bold;font-size:2.37067px;font-family:'Proxima Nova';dominant-baseline:alphabetic;text-anchor:middle;fill:#efedeb"/>
      <path d="m 88.447533,66.095337 h 0.339006 v -1.284901 h 0.459909 v -0.296334 h -1.261195 v 0.296334 h 0.46228 z" style="font-weight:bold;font-size:2.37067px;font-family:'Proxima Nova';dominant-baseline:alphabetic;text-anchor:middle;fill:#efedeb"/>
      <path d="m 89.462253,66.095337 h 1.118955 v -0.291592 h -0.78232 v -0.367453 h 0.765725 V 65.14707 h -0.765725 v -0.343746 h 0.78232 v -0.289222 h -1.118955 z" style="font-weight:bold;font-size:2.37067px;font-family:'Proxima Nova';dominant-baseline:alphabetic;text-anchor:middle;fill:#efedeb"/>
      <path d="m 90.846685,66.095337 h 0.336635 v -0.566589 h 0.403013 c 0.341376,0 0.53103,-0.229955 0.53103,-0.504952 0,-0.277368 -0.187283,-0.509694 -0.53103,-0.509694 h -0.739648 z m 0.926931,-1.073912 c 0,0.132757 -0.09957,0.218101 -0.232325,0.218101 H 91.18332 v -0.436202 h 0.357971 c 0.132757,0 0.232325,0.08771 0.232325,0.218101 z" style="font-weight:bold;font-size:2.37067px;font-family:'Proxima Nova';dominant-baseline:alphabetic;text-anchor:middle;fill:#efedeb"/>
      <path d="m 93.352258,66.095337 h 0.225213 l 0.132757,-0.400643 h 0.244179 l 0.05927,-0.192024 h -0.239438 l 0.130387,-0.39353 h 0.237067 l 0.0569,-0.189654 h -0.229955 l 0.137499,-0.405384 h -0.225214 l -0.132757,0.405384 h -0.222843 l 0.132758,-0.405384 h -0.222843 l -0.132757,0.405384 h -0.239438 l -0.05927,0.189654 h 0.232325 l -0.128016,0.39353 h -0.232325 l -0.06164,0.192024 H 93.0417 l -0.135128,0.400643 h 0.222843 l 0.135128,-0.400643 h 0.225213 z m 0.329522,-0.986197 -0.130386,0.39353 h -0.220472 l 0.128016,-0.39353 z" style="font-weight:bold;font-size:2.37067px;font-family:'Proxima Nova';dominant-baseline:alphabetic;text-anchor:middle;fill:#efedeb"/>
    </g>
    <rect x="85.17999999999999" y="83.76722222222223" width="10.4" height="12.980444444444444" rx="1" ry="1" fill="#18191c" stroke="#18191c" stroke-width="0.35"/>
    <g style="font-weight:bold;font-size:2.37067px;font-family:'Proxima Nova';dominant-baseline:alphabetic;text-anchor:middle;fill:#efedeb">
      <path d="m 86.41302,86.124821 c 0.149352,0.149352 0.367453,0.251291 0.670899,0.251291 0.42672,0 0.632968,-0.218101 0.632968,-0.507323 0,-0.350858 -0.331894,-0.42909 -0.592667,-0.488357 -0.182541,-0.04267 -0.315299,-0.07586 -0.315299,-0.182541 0,-0.09483 0.0806,-0.161206 0.232326,-0.161206 0.154093,0 0.324781,0.05453 0.452797,0.173059 l 0.187283,-0.246549 c -0.156464,-0.144611 -0.365083,-0.220473 -0.616374,-0.220473 -0.372194,0 -0.599778,0.213361 -0.599778,0.476505 0,0.353229 0.331893,0.424349 0.590296,0.483616 0.182541,0.04267 0.32004,0.08297 0.32004,0.201506 0,0.09009 -0.09009,0.1778 -0.274998,0.1778 -0.218101,0 -0.39116,-0.0972 -0.502581,-0.21336 z" style="font-weight:bold;font-size:2.37067px;font-family:'Proxima Nova';dominant-baseline:alphabetic;text-anchor:middle;fill:#efedeb"/>
      <path d="m 88.290106,86.347664 h 0.339006 v -1.284901 h 0.459909 v -0.296334 h -1.261195 v 0.296334 h 0.46228 z" style="font-weight:bold;font-size:2.37067px;font-family:'Proxima Nova';dominant-baseline:alphabetic;text-anchor:middle;fill:#efedeb"/>
      <path d="m 89.304826,86.347664 h 1.118955 v -0.291592 h -0.78232 v -0.367453 h 0.765725 v -0.289222 h -0.765725 v -0.343746 h 0.78232 v -0.289222 h -1.118955 z" style="font-weight:bold;font-size:2.37067px;font-family:'Proxima Nova';dominant-baseline:alphabetic;text-anchor:middle;fill:#efedeb"/>
      <path d="m 90.689258,86.347664 h 0.336635 v -0.566589 h 0.403013 c 0.341376,0 0.53103,-0.229955 0.53103,-0.504952 0,-0.277368 -0.187283,-0.509694 -0.53103,-0.509694 h -0.739648 z m 0.926931,-1.073912 c 0,0.132757 -0.09957,0.218101 -0.232325,0.218101 h -0.357971 v -0.436202 h 0.357971 c 0.132757,0 0.232325,0.08771 0.232325,0.218101 z" style="font-weight:bold;font-size:2.37067px;font-family:'Proxima Nova';dominant-baseline:alphabetic;text-anchor:middle;fill:#efedeb"/>
      <path d="m 94.298311,85.71564 q 0,0.428295 -0.312539,0.583407 -0.152797,0.0764 -0.318327,0.0764 v 0.43987 h -0.325272 v -0.43987 q -0.163215,0 -0.317169,-0.0764 -0.313697,-0.15627 -0.313697,-0.583407 0,-0.167845 0.07987,-0.314854 0.08334,-0.151639 0.228038,-0.230353 0.144694,-0.07987 0.322957,-0.07987 v -0.43987 h 0.325272 v 0.43987 q 0.386623,0 0.550995,0.311382 0.07987,0.151639 0.07987,0.313696 z m -0.333375,0.01736 q 0,-0.155112 -0.06945,-0.258134 -0.08103,-0.119228 -0.228038,-0.119228 v 0.754724 q 0.147009,0 0.228038,-0.119228 0.06945,-0.103022 0.06945,-0.258134 z m -0.622763,0.377362 v -0.754724 q -0.147009,0 -0.228038,0.119228 -0.06945,0.103022 -0.06945,0.258134 0,0.155112 0.06945,0.258134 0.08103,0.119228 0.228038,0.119228 z" style="font-weight:bold;font-size:2.37067px;font-family:'Proxima Nova';dominant-baseline:alphabetic;text-anchor:middle;fill:#efedeb"/>
    </g>
    <rect x="85.17999999999999" y="104.01955555555556" width="10.4" height="12.980444444444444" rx="1" ry="1" fill="#18191c" stroke="#18191c" stroke-width="0.35"/>
    <g style="font-weight:bold;font-size:2.37067px;font-family:'Proxima Nova';dominant-baseline:alphabetic;text-anchor:middle;fill:#efedeb">
      <path d="m 87.999644,105.81057 c 0,0.4765 0.348488,0.81788 0.824992,0.81788 0.478875,0 0.827363,-0.34138 0.827363,-0.81788 0,-0.47651 -0.348488,-0.81788 -0.827363,-0.81788 -0.476504,0 -0.824992,0.34137 -0.824992,0.81788 z m 1.306237,0 c 0,0.29396 -0.189653,0.51917 -0.481245,0.51917 -0.291592,0 -0.478875,-0.22521 -0.478875,-0.51917 0,-0.29634 0.187283,-0.51918 0.478875,-0.51918 0.291592,0 0.481245,0.22284 0.481245,0.51918 z" style="font-weight:bold;font-size:2.37067px;font-family:'Proxima Nova';dominant-baseline:alphabetic;text-anchor:middle;fill:#efedeb"/>
      <path d="m 89.890547,105.9694 c 0,0.38879 0.225214,0.65905 0.70883,0.65905 0.478874,0 0.704088,-0.26789 0.704088,-0.66142 v -0.94827 h -0.341376 v 0.93879 c 0,0.22047 -0.120904,0.37219 -0.362712,0.37219 -0.24655,0 -0.367454,-0.15172 -0.367454,-0.37219 v -0.93879 h -0.341376 z" style="font-weight:bold;font-size:2.37067px;font-family:'Proxima Nova';dominant-baseline:alphabetic;text-anchor:middle;fill:#efedeb"/>
      <path d="m 91.982698,106.6 h 0.339005 v -1.2849 h 0.459909 v -0.29634 h -1.261194 v 0.29634 h 0.46228 z" style="font-weight:bold;font-size:2.37067px;font-family:'Proxima Nova';dominant-baseline:alphabetic;text-anchor:middle;fill:#efedeb"/>
    </g>
  </g>
  <g>
    <g transform="translate(11.220000 30.790667)">
      <circle r="4.2" fill="#18191c"/>
      <line y2="-3.6750000000000003" stroke="#efedeb" stroke-width="0.525" stroke-linecap="round"/>
    </g>
    <g transform="translate(11.220000 51.043000)">
      <circle r="4.2" fill="#18191c" stroke="none"/>
      <circle r="3.5" fill="none" stroke="#efedeb" stroke-width="0.95"/>
      <circle r="2.325" fill="none" stroke="#efedeb" stroke-width="0.95"/>
    </g>
    <g transform="translate(11.220000 71.295333)">
      <circle r="4.2" fill="#18191c" stroke="none"/>
      <circle r="3.5" fill="none" stroke="#efedeb" stroke-width="0.95"/>
      <circle r="2.325" fill="none" stroke="#efedeb" stroke-width="0.95"/>
    </g>
    <g transform="translate(11.220000 91.547667)">
      <circle r="4.2" fill="#18191c" stroke="none"/>
      <circle r="3.5" fill="none" stroke="#efedeb" stroke-width="0.95"/>
      <circle r="2.325" fill="none" stroke="#efedeb" stroke-width="0.95"/>
    </g>
    <g transform="translate(11.220000 111.800000)">
      <circle r="4.2" fill="#18191c" stroke="none"/>
      <circle r="3.5" fill="none" stroke="#efedeb" stroke-width="0.95"/>
      <circle r="2.325" fill="none" stroke="#efedeb" stroke-width="0.95"/>
    </g>
    <g transform="translate(39.155000 24.915222)">
      <rect x="-4.2" y="-1.7902222222222222" width="8.4" height="3.5804444444444443" rx="0.5" ry="0.5" fill="#efedeb" stroke="#18191c" stroke-width="0.25"/>
      <g style="font-weight:bold;font-size:2.37067px;font-family:'Proxima Nova';dominant-baseline:middle;text-anchor:middle;fill:#18191c">
        <path d="m -3.0363055,0.63415336 c 0.149352,0.149352 0.3674533,0.25129067 0.6708987,0.25129067 0.42672,0 0.632968,-0.21810134 0.632968,-0.50732268 0,-0.35085868 -0.3318933,-0.42909068 -0.5926667,-0.48835735 -0.1825413,-0.042672 -0.3152987,-0.0758613 -0.3152987,-0.18254134 0,-0.0948267 0.080603,-0.16120534 0.2323254,-0.16120534 0.1540933,0 0.3247813,0.0545253 0.4527973,0.17305867 l 0.1872827,-0.24654934 c -0.156464,-0.14461067 -0.3650827,-0.220472 -0.6163734,-0.220472 -0.3721946,0 -0.5997786,0.21336 -0.5997786,0.47650401 0,0.35322934 0.3318933,0.42434935 0.590296,0.48361602 0.1825413,0.042672 0.32004,0.0829733 0.32004,0.20150667 0,0.0900853 -0.090085,0.1778 -0.2749974,0.1778 -0.2181013,0 -0.39116,-0.0971973 -0.5025813,-0.21336 z" style="font-weight:bold;font-size:2.37067px;font-family:'Proxima Nova';dominant-baseline:middle;text-anchor:middle;fill:#18191c"/>
        <path d="M -0.13079415,0.85699603 H 0.20821119 V -0.72423869 H -0.26592216 L -0.64997017,0.26195868 -1.0340182,-0.72423869 h -0.4717627 v 1.58123472 h 0.3366347 v -1.13792004 l 0.44568536,1.13792004 h 0.14698134 l 0.44568535,-1.13792004 z" style="font-weight:bold;font-size:2.37067px;font-family:'Proxima Nova';dominant-baseline:middle;text-anchor:middle;fill:#18191c"/>
        <path d="M 0.52225049,0.85699603 H 0.85888516 V 0.29040668 H 1.2618985 c 0.341376,0 0.5310294,-0.22995468 0.5310294,-0.50495202 0,-0.27736801 -0.1872827,-0.50969335 -0.5310294,-0.50969335 H 0.52225049 Z M 1.4491812,-0.216916 c 0,0.13275733 -0.099568,0.21810134 -0.2323254,0.21810134 H 0.85888516 V -0.43501734 H 1.2168558 c 0.1327574,0 0.2323254,0.0877147 0.2323254,0.21810134 z" style="font-weight:bold;font-size:2.37067px;font-family:'Proxima Nova';dominant-baseline:middle;text-anchor:middle;fill:#18191c"/>
        <path d="M 1.999287,0.85699603 H 3.0044497 V 0.56066269 H 2.3359216 V -0.72423869 H 1.999287 Z" style="font-weight:bold;font-size:2.37067px;font-family:'Proxima Nova';dominant-baseline:middle;text-anchor:middle;fill:#18191c"/>
      </g>
    </g>
    <g transform="translate(39.155000 28.895667)">
      <rect x="-4.2" y="-1.7902222222222222" width="8.4" height="3.5804444444444443" rx="0.5" ry="0.5" fill="#efedeb" stroke="#18191c" stroke-width="0.25"/>
      <g style="font-weight:bold;font-size:2.37067px;font-family:'Proxima Nova';dominant-baseline:middle;text-anchor:middle;fill:#18191c">
        <path d="m -2.3803531,0.067564 c 0,0.47650402 0.348488,0.81788003 0.824992,0.81788003 0.4788747,0 0.82736268,-0.34137601 0.82736268,-0.81788003 0,-0.47650401 -0.34848798,-0.81788002 -0.82736268,-0.81788002 -0.476504,0 -0.824992,0.34137601 -0.824992,0.81788002 z m 1.3062373,0 c 0,0.29396268 -0.1896533,0.51917602 -0.4812453,0.51917602 -0.291592,0 -0.4788747,-0.22521334 -0.4788747,-0.51917602 0,-0.29633334 0.1872827,-0.51917601 0.4788747,-0.51917601 0.291592,0 0.4812453,0.22284267 0.4812453,0.51917601 z" style="font-weight:bold;font-size:2.37067px;font-family:'Proxima Nova';dominant-baseline:middle;text-anchor:middle;fill:#18191c"/>
        <path d="m -0.48945002,0.22639868 c 0,0.38878934 0.22521334,0.65904535 0.70882935,0.65904535 0.47887469,0 0.70408803,-0.26788534 0.70408803,-0.66141602 v -0.9482667 H 0.58209135 v 0.93878403 c 0,0.22047201 -0.12090401,0.37219468 -0.36271202,0.37219468 -0.24654934,0 -0.36745334,-0.15172267 -0.36745334,-0.37219468 v -0.93878403 h -0.34137601 z" style="font-weight:bold;font-size:2.37067px;font-family:'Proxima Nova';dominant-baseline:middle;text-anchor:middle;fill:#18191c"/>
        <path d="M 1.6027004,0.85699603 H 1.9417057 V -0.42790534 H 2.4016151 V -0.72423869 H 1.1404204 v 0.29633335 h 0.46228 z" style="font-weight:bold;font-size:2.37067px;font-family:'Proxima Nova';dominant-baseline:middle;text-anchor:middle;fill:#18191c"/>
      </g>
    </g>
    <g transform="translate(39.155000 35.160889)">
      <circle r="4.2" fill="#18191c"/>
      <line y2="-3.6750000000000003" stroke="#efedeb" stroke-width="0.525" stroke-linecap="round"/>
    </g>
    <g transform="translate(39.155000 43.710889)">
      <circle r="4.2" fill="#18191c" stroke="none"/>
      <circle r="3.5" fill="none" stroke="#efedeb" stroke-width="0.95"/>
      <circle r="2.325" fill="none" stroke="#efedeb" stroke-width="0.95"/>
    </g>
    <g transform="translate(39.155000 51.826111)">
      <rect x="-4.2" y="-1.7902222222222222" width="8.4" height="3.5804444444444443" rx="0.5" ry="0.5" fill="#efedeb" stroke="#18191c" stroke-width="0.25"/>
      <g style="font-weight:bold;font-size:2.37067px;font-family:'Proxima Nova';dominant-baseline:middle;text-anchor:middle;fill:#18191c">
        <path d="m -3.2705941,0.85699603 h 0.3390054 v -1.28490137 h 0.4599093 v -0.29633335 h -1.2611947 v 0.29633335 h 0.46228 z" style="font-weight:bold;font-size:2.37067px;font-family:'Proxima Nova';dominant-baseline:middle;text-anchor:middle;fill:#18191c"/>
        <path d="m -1.3621333,0.85699603 h 0.38641871 L -1.3313146,0.25484668 c 0.170688,-0.0403013 0.34611734,-0.18965334 0.34611734,-0.46939202 0,-0.29396267 -0.20150664,-0.50969335 -0.53102934,-0.50969335 h -0.739648 V 0.85699603 H -1.91924 V 0.29040668 h 0.2465494 z m 0.033189,-1.07391203 c 0,0.13275733 -0.1019387,0.21810134 -0.2370667,0.21810134 H -1.91924 v -0.43620268 h 0.3532294 c 0.135128,0 0.2370667,0.085344 0.2370667,0.21810134 z" style="font-weight:bold;font-size:2.37067px;font-family:'Proxima Nova';dominant-baseline:middle;text-anchor:middle;fill:#18191c"/>
        <path d="M 0.37456517,0.85699603 H 0.74201852 L 0.13275716,-0.72423869 h -0.42197868 l -0.61163201,1.58123472 h 0.36982401 l 0.099568,-0.27262668 h 0.70645869 z m -0.45279735,-1.28964271 0.26077335,0.72542402 h -0.52391735 z" style="font-weight:bold;font-size:2.37067px;font-family:'Proxima Nova';dominant-baseline:middle;text-anchor:middle;fill:#18191c"/>
        <path d="m 1.5631955,0.88544403 c 0.3603413,0 0.5594773,-0.19202401 0.6732693,-0.38878935 L 1.9472435,0.35678535 c -0.066379,0.13038667 -0.2086187,0.22995467 -0.384048,0.22995467 -0.2749974,0 -0.4836161,-0.22047201 -0.4836161,-0.51917602 0,-0.29870401 0.2086187,-0.51917601 0.4836161,-0.51917601 0.1754293,0 0.3176693,0.10193867 0.384048,0.22995467 l 0.2892213,-0.14224 c -0.1114213,-0.19676534 -0.312928,-0.38641868 -0.6732693,-0.38641868 -0.4622801,0 -0.82973341,0.33189334 -0.82973341,0.81788002 0,0.48598669 0.36745331,0.81788003 0.82973341,0.81788003 z" style="font-weight:bold;font-size:2.37067px;font-family:'Proxima Nova';dominant-baseline:middle;text-anchor:middle;fill:#18191c"/>
        <path d="M 3.3779407,0.85699603 H 3.7928074 L 3.1219087,0.01778 3.7501354,-0.72423869 H 3.3352687 L 2.7757913,-0.01778 V -0.72423869 H 2.4391567 V 0.85699603 H 2.7757913 V 0.37100935 L 2.899066,0.22402801 Z" style="font-weight:bold;font-size:2.37067px;font-family:'Proxima Nova';dominant-baseline:middle;text-anchor:middle;fill:#18191c"/>
      </g>
    </g>
    <g transform="translate(39.155000 55.806556)">
      <rect x="-4.2" y="-1.7902222222222222" width="8.4" height="3.5804444444444443" rx="0.5" ry="0.5" fill="#efedeb" stroke="#18191c" stroke-width="0.25"/>
      <g style="font-weight:bold;font-size:2.37067px;font-family:'Proxima Nova';dominant-baseline:middle;text-anchor:middle;fill:#18191c">
        <path d="M -3.2791507,0.85699603 H -2.273988 V 0.56066269 h -0.668528 v -1.28490138 h -0.3366347 z" style="font-weight:bold;font-size:2.37067px;font-family:'Proxima Nova';dominant-baseline:middle;text-anchor:middle;fill:#18191c"/>
        <path d="m -2.0382548,0.85699603 h 1.11895468 V 0.56540402 H -1.7016201 V 0.19795068 h 0.76572531 V -0.09127067 H -1.7016201 v -0.34374667 h 0.78231998 V -0.72423869 H -2.0382548 Z" style="font-weight:bold;font-size:2.37067px;font-family:'Proxima Nova';dominant-baseline:middle;text-anchor:middle;fill:#18191c"/>
        <path d="M -0.21050794,0.85699603 H 0.21147074 L 0.82073209,-0.72423869 H 0.43668408 L 4.8139686e-4,0.49191335 -0.43809195,-0.72423869 h -0.38404801 z" style="font-weight:bold;font-size:2.37067px;font-family:'Proxima Nova';dominant-baseline:middle;text-anchor:middle;fill:#18191c"/>
        <path d="M 0.96675042,0.85699603 H 2.0857051 V 0.56540402 h -0.78232 V 0.19795068 H 2.0691105 V -0.09127067 H 1.3033851 v -0.34374667 h 0.78232 V -0.72423869 H 0.96675042 Z" style="font-weight:bold;font-size:2.37067px;font-family:'Proxima Nova';dominant-baseline:middle;text-anchor:middle;fill:#18191c"/>
        <path d="M 2.3511827,0.85699603 H 3.3563454 V 0.56066269 H 2.6878174 V -0.72423869 H 2.3511827 Z" style="font-weight:bold;font-size:2.37067px;font-family:'Proxima Nova';dominant-baseline:middle;text-anchor:middle;fill:#18191c"/>
      </g>
    </g>
    <g transform="translate(39.155000 62.071778)">
      <circle r="4.2" fill="#18191c"/>
      <line y2="-3.6750000000000003" stroke="#efedeb" stroke-width="0.525" stroke-linecap="round"/>
    </g>
    <g transform="translate(39.155000 70.621778)">
      <circle r="4.2" fill="#18191c" stroke="none"/>
      <circle r="3.5" fill="none" stroke="#efedeb" stroke-width="0.95"/>
      <circle r="2.325" fill="none" stroke="#efedeb" stroke-width="0.95"/>
    </g>
    <g transform="translate(39.155000 78.737000)">
      <rect x="-4.2" y="-1.7902222222222222" width="8.4" height="3.5804444444444443" rx="0.5" ry="0.5" fill="#efedeb" stroke="#18191c" stroke-width="0.25"/>
      <g style="font-weight:bold;font-size:2.37067px;font-family:'Proxima Nova';dominant-baseline:middle;text-anchor:middle;fill:#18191c">
        <path d="m -0.56223696,0.73135069 c 0.11379201,0.11142134 0.26314401,0.15409334 0.42434935,0.15409334 0.32478135,0 0.55710669,-0.17305867 0.55710669,-0.54762402 v -1.0620587 H 0.0825844 v 1.05731737 c 0,0.15409334 -0.09719734,0.25366134 -0.24654934,0.25366134 -0.10905067,0 -0.18965334,-0.0545253 -0.25129068,-0.113792 z" style="font-weight:bold;font-size:2.37067px;font-family:'Proxima Nova';dominant-baseline:middle;text-anchor:middle;fill:#18191c"/>
      </g>
    </g>
    <g transform="translate(39.155000 85.002222)">
      <circle r="4.2" fill="#18191c"/>
      <line y2="-3.6750000000000003" stroke="#efedeb" stroke-width="0.525" stroke-linecap="round"/>
    </g>
    <g transform="translate(39.155000 93.552222)">
      <circle r="4.2" fill="#18191c" stroke="none"/>
      <circle r="3.5" fill="none" stroke="#efedeb" stroke-width="0.95"/>
      <circle r="2.325" fill="none" stroke="#efedeb" stroke-width="0.95"/>
    </g>
    <g transform="translate(39.155000 103.952222)">
      <circle r="4.2" fill="#18191c"/>
      <line y2="-3.6750000000000003" stroke="#efedeb" stroke-width="0.525" stroke-linecap="round"/>
    </g>
    <g transform="translate(39.155000 112.502222)">
      <circle r="4.2" fill="#18191c" stroke="none"/>
      <circle r="3.5" fill="none" stroke="#efedeb" stroke-width="0.95"/>
      <circle r="2.325" fill="none" stroke="#efedeb" stroke-width="0.95"/>
    </g>
    <g transform="translate(50.585000 24.915222)">
      <rect x="-4.2" y="-1.7902222222222222" width="8.4" height="3.5804444444444443" rx="0.5" ry="0.5" fill="#efedeb" stroke="#18191c" stroke-width="0.25"/>
      <g style="font-weight:bold;font-size:2.37067px;font-family:'Proxima Nova';dominant-baseline:middle;text-anchor:middle;fill:#18191c">
        <path d="m -3.0363055,0.63415336 c 0.149352,0.149352 0.3674533,0.25129067 0.6708987,0.25129067 0.42672,0 0.632968,-0.21810134 0.632968,-0.50732268 0,-0.35085868 -0.3318933,-0.42909068 -0.5926667,-0.48835735 -0.1825413,-0.042672 -0.3152987,-0.0758613 -0.3152987,-0.18254134 0,-0.0948267 0.080603,-0.16120534 0.2323254,-0.16120534 0.1540933,0 0.3247813,0.0545253 0.4527973,0.17305867 l 0.1872827,-0.24654934 c -0.156464,-0.14461067 -0.3650827,-0.220472 -0.6163734,-0.220472 -0.3721946,0 -0.5997786,0.21336 -0.5997786,0.47650401 0,0.35322934 0.3318933,0.42434935 0.590296,0.48361602 0.1825413,0.042672 0.32004,0.0829733 0.32004,0.20150667 0,0.0900853 -0.090085,0.1778 -0.2749974,0.1778 -0.2181013,0 -0.39116,-0.0971973 -0.5025813,-0.21336 z" style="font-weight:bold;font-size:2.37067px;font-family:'Proxima Nova';dominant-baseline:middle;text-anchor:middle;fill:#18191c"/>
        <path d="M -0.13079415,0.85699603 H 0.20821119 V -0.72423869 H -0.26592216 L -0.64997017,0.26195868 -1.0340182,-0.72423869 h -0.4717627 v 1.58123472 h 0.3366347 v -1.13792004 l 0.44568536,1.13792004 h 0.14698134 l 0.44568535,-1.13792004 z" style="font-weight:bold;font-size:2.37067px;font-family:'Proxima Nova';dominant-baseline:middle;text-anchor:middle;fill:#18191c"/>
        <path d="M 0.52225049,0.85699603 H 0.85888516 V 0.29040668 H 1.2618985 c 0.341376,0 0.5310294,-0.22995468 0.5310294,-0.50495202 0,-0.27736801 -0.1872827,-0.50969335 -0.5310294,-0.50969335 H 0.52225049 Z M 1.4491812,-0.216916 c 0,0.13275733 -0.099568,0.21810134 -0.2323254,0.21810134 H 0.85888516 V -0.43501734 H 1.2168558 c 0.1327574,0 0.2323254,0.0877147 0.2323254,0.21810134 z" style="font-weight:bold;font-size:2.37067px;font-family:'Proxima Nova';dominant-baseline:middle;text-anchor:middle;fill:#18191c"/>
        <path d="M 1.999287,0.85699603 H 3.0044497 V 0.56066269 H 2.3359216 V -0.72423869 H 1.999287 Z" style="font-weight:bold;font-size:2.37067px;font-family:'Proxima Nova';dominant-baseline:middle;text-anchor:middle;fill:#18191c"/>
      </g>
    </g>
    <g transform="translate(50.585000 28.895667)">
      <rect x="-4.2" y="-1.7902222222222222" width="8.4" height="3.5804444444444443" rx="0.5" ry="0.5" fill="#efedeb" stroke="#18191c" stroke-width="0.25"/>
      <g style="font-weight:bold;font-size:2.37067px;font-family:'Proxima Nova';dominant-baseline:middle;text-anchor:middle;fill:#18191c">
        <path d="m -2.3803531,0.067564 c 0,0.47650402 0.348488,0.81788003 0.824992,0.81788003 0.4788747,0 0.82736268,-0.34137601 0.82736268,-0.81788003 0,-0.47650401 -0.34848798,-0.81788002 -0.82736268,-0.81788002 -0.476504,0 -0.824992,0.34137601 -0.824992,0.81788002 z m 1.3062373,0 c 0,0.29396268 -0.1896533,0.51917602 -0.4812453,0.51917602 -0.291592,0 -0.4788747,-0.22521334 -0.4788747,-0.51917602 0,-0.29633334 0.1872827,-0.51917601 0.4788747,-0.51917601 0.291592,0 0.4812453,0.22284267 0.4812453,0.51917601 z" style="font-weight:bold;font-size:2.37067px;font-family:'Proxima Nova';dominant-baseline:middle;text-anchor:middle;fill:#18191c"/>
        <path d="m -0.48945002,0.22639868 c 0,0.38878934 0.22521334,0.65904535 0.70882935,0.65904535 0.47887469,0 0.70408803,-0.26788534 0.70408803,-0.66141602 v -0.9482667 H 0.58209135 v 0.93878403 c 0,0.22047201 -0.12090401,0.37219468 -0.36271202,0.37219468 -0.24654934,0 -0.36745334,-0.15172267 -0.36745334,-0.37219468 v -0.93878403 h -0.34137601 z" style="font-weight:bold;font-size:2.37067px;font-family:'Proxima Nova';dominant-baseline:middle;text-anchor:middle;fill:#18191c"/>
        <path d="M 1.6027004,0.85699603 H 1.9417057 V -0.42790534 H 2.4016151 V -0.72423869 H 1.1404204 v 0.29633335 h 0.46228 z" style="font-weight:bold;font-size:2.37067px;font-family:'Proxima Nova';dominant-baseline:middle;text-anchor:middle;fill:#18191c"/>
      </g>
    </g>
    <g transform="translate(50.585000 35.160889)">
      <circle r="4.2" fill="#18191c"/>
      <line y2="-3.6750000000000003" stroke="#efedeb" stroke-width="0.525" stroke-linecap="round"/>
    </g>
    <g transform="translate(50.585000 43.710889)">
      <circle r="4.2" fill="#18191c" stroke="none"/>
      <circle r="3.5" fill="none" stroke="#efedeb" stroke-width="0.95"/>
      <circle r="2.325" fill="none" stroke="#efedeb" stroke-width="0.95"/>
    </g>
    <g transform="translate(50.585000 51.826111)">
      <rect x="-4.2" y="-1.7902222222222222" width="8.4" height="3.5804444444444443" rx="0.5" ry="0.5" fill="#efedeb" stroke="#18191c" stroke-width="0.25"/>
      <g style="font-weight:bold;font-size:2.37067px;font-family:'Proxima Nova';dominant-baseline:middle;text-anchor:middle;fill:#18191c">
        <path d="m -3.2705941,0.85699603 h 0.3390054 v -1.28490137 h 0.4599093 v -0.29633335 h -1.2611947 v 0.29633335 h 0.46228 z" style="font-weight:bold;font-size:2.37067px;font-family:'Proxima Nova';dominant-baseline:middle;text-anchor:middle;fill:#18191c"/>
        <path d="m -1.3621333,0.85699603 h 0.38641871 L -1.3313146,0.25484668 c 0.170688,-0.0403013 0.34611734,-0.18965334 0.34611734,-0.46939202 0,-0.29396267 -0.20150664,-0.50969335 -0.53102934,-0.50969335 h -0.739648 V 0.85699603 H -1.91924 V 0.29040668 h 0.2465494 z m 0.033189,-1.07391203 c 0,0.13275733 -0.1019387,0.21810134 -0.2370667,0.21810134 H -1.91924 v -0.43620268 h 0.3532294 c 0.135128,0 0.2370667,0.085344 0.2370667,0.21810134 z" style="font-weight:bold;font-size:2.37067px;font-family:'Proxima Nova';dominant-baseline:middle;text-anchor:middle;fill:#18191c"/>
        <path d="M 0.37456517,0.85699603 H 0.74201852 L 0.13275716,-0.72423869 h -0.42197868 l -0.61163201,1.58123472 h 0.36982401 l 0.099568,-0.27262668 h 0.70645869 z m -0.45279735,-1.28964271 0.26077335,0.72542402 h -0.52391735 z" style="font-weight:bold;font-size:2.37067px;font-family:'Proxima Nova';dominant-baseline:middle;text-anchor:middle;fill:#18191c"/>
        <path d="m 1.5631955,0.88544403 c 0.3603413,0 0.5594773,-0.19202401 0.6732693,-0.38878935 L 1.9472435,0.35678535 c -0.066379,0.13038667 -0.2086187,0.22995467 -0.384048,0.22995467 -0.2749974,0 -0.4836161,-0.22047201 -0.4836161,-0.51917602 0,-0.29870401 0.2086187,-0.51917601 0.4836161,-0.51917601 0.1754293,0 0.3176693,0.10193867 0.384048,0.22995467 l 0.2892213,-0.14224 c -0.1114213,-0.19676534 -0.312928,-0.38641868 -0.6732693,-0.38641868 -0.4622801,0 -0.82973341,0.33189334 -0.82973341,0.81788002 0,0.48598669 0.36745331,0.81788003 0.82973341,0.81788003 z" style="font-weight:bold;font-size:2.37067px;font-family:'Proxima Nova';dominant-baseline:middle;text-anchor:middle;fill:#18191c"/>
        <path d="M 3.3779407,0.85699603 H 3.7928074 L 3.1219087,0.01778 3.7501354,-0.72423869 H 3.3352687 L 2.7757913,-0.01778 V -0.72423869 H 2.4391567 V 0.85699603 H 2.7757913 V 0.37100935 L 2.899066,0.22402801 Z" style="font-weight:bold;font-size:2.37067px;font-family:'Proxima Nova';dominant-baseline:middle;text-anchor:middle;fill:#18191c"/>
      </g>
    </g>
    <g transform="translate(50.585000 55.806556)">
      <rect x="-4.2" y="-1.7902222222222222" width="8.4" height="3.5804444444444443" rx="0.5" ry="0.5" fill="#efedeb" stroke="#18191c" stroke-width="0.25"/>
      <g style="font-weight:bold;font-size:2.37067px;font-family:'Proxima Nova';dominant-baseline:middle;text-anchor:middle;fill:#18191c">
        <path d="M -3.2791507,0.85699603 H -2.273988 V 0.56066269 h -0.668528 v -1.28490138 h -0.3366347 z" style="font-weight:bold;font-size:2.37067px;font-family:'Proxima Nova';dominant-baseline:middle;text-anchor:middle;fill:#18191c"/>
        <path d="m -2.0382548,0.85699603 h 1.11895468 V 0.56540402 H -1.7016201 V 0.19795068 h 0.76572531 V -0.09127067 H -1.7016201 v -0.34374667 h 0.78231998 V -0.72423869 H -2.0382548 Z" style="font-weight:bold;font-size:2.37067px;font-family:'Proxima Nova';dominant-baseline:middle;text-anchor:middle;fill:#18191c"/>
        <path d="M -0.21050794,0.85699603 H 0.21147074 L 0.82073209,-0.72423869 H 0.43668408 L 4.8139686e-4,0.49191335 -0.43809195,-0.72423869 h -0.38404801 z" style="font-weight:bold;font-size:2.37067px;font-family:'Proxima Nova';dominant-baseline:middle;text-anchor:middle;fill:#18191c"/>
        <path d="M 0.96675042,0.85699603 H 2.0857051 V 0.56540402 h -0.78232 V 0.19795068 H 2.0691105 V -0.09127067 H 1.3033851 v -0.34374667 h 0.78232 V -0.72423869 H 0.96675042 Z" style="font-weight:bold;font-size:2.37067px;font-family:'Proxima Nova';dominant-baseline:middle;text-anchor:middle;fill:#18191c"/>
        <path d="M 2.3511827,0.85699603 H 3.3563454 V 0.56066269 H 2.6878174 V -0.72423869 H 2.3511827 Z" style="font-weight:bold;font-size:2.37067px;font-family:'Proxima Nova';dominant-baseline:middle;text-anchor:middle;fill:#18191c"/>
      </g>
    </g>
    <g transform="translate(50.585000 62.071778)">
      <circle r="4.2" fill="#18191c"/>
      <line y2="-3.6750000000000003" stroke="#efedeb" stroke-width="0.525" stroke-linecap="round"/>
    </g>
    <g transform="translate(50.585000 70.621778)">
      <circle r="4.2" fill="#18191c" stroke="none"/>
      <circle r="3.5" fill="none" stroke="#efedeb" stroke-width="0.95"/>
      <circle r="2.325" fill="none" stroke="#efedeb" stroke-width="0.95"/>
    </g>
    <g transform="translate(50.585000 78.737000)">
      <rect x="-4.2" y="-1.7902222222222222" width="8.4" height="3.5804444444444443" rx="0.5" ry="0.5" fill="#efedeb" stroke="#18191c" stroke-width="0.25"/>
      <g style="font-weight:bold;font-size:2.37067px;font-family:'Proxima Nova';dominant-baseline:middle;text-anchor:middle;fill:#18191c">
        <path d="m -0.56223696,0.73135069 c 0.11379201,0.11142134 0.26314401,0.15409334 0.42434935,0.15409334 0.32478135,0 0.55710669,-0.17305867 0.55710669,-0.54762402 v -1.0620587 H 0.0825844 v 1.05731737 c 0,0.15409334 -0.09719734,0.25366134 -0.24654934,0.25366134 -0.10905067,0 -0.18965334,-0.0545253 -0.25129068,-0.113792 z" style="font-weight:bold;font-size:2.37067px;font-family:'Proxima Nova';dominant-baseline:middle;text-anchor:middle;fill:#18191c"/>
      </g>
    </g>
    <g transform="translate(50.585000 85.002222)">
      <circle r="4.2" fill="#18191c"/>
      <line y2="-3.6750000000000003" stroke="#efedeb" stroke-width="0.525" stroke-linecap="round"/>
    </g>
    <g transform="translate(50.585000 93.552222)">
      <circle r="4.2" fill="#18191c" stroke="none"/>
      <circle r="3.5" fill="none" stroke="#efedeb" stroke-width="0.95"/>
      <circle r="2.325" fill="none" stroke="#efedeb" stroke-width="0.95"/>
    </g>
    <g transform="translate(50.585000 103.952222)">
      <circle r="4.2" fill="#18191c"/>
      <line y2="-3.6750000000000003" stroke="#efedeb" stroke-width="0.525" stroke-linecap="round"/>
    </g>
    <g transform="translate(50.585000 112.502222)">
      <circle r="4.2" fill="#18191c" stroke="none"/>
      <circle r="3.5" fill="none" stroke="#efedeb" stroke-width="0.95"/>
      <circle r="2.325" fill="none" stroke="#efedeb" stroke-width="0.95"/>
    </g>
    <g transform="translate(62.015000 24.915222)">
      <rect x="-4.2" y="-1.7902222222222222" width="8.4" height="3.5804444444444443" rx="0.5" ry="0.5" fill="#efedeb" stroke="#18191c" stroke-width="0.25"/>
      <g style="font-weight:bold;font-size:2.37067px;font-family:'Proxima Nova';dominant-baseline:middle;text-anchor:middle;fill:#18191c">
        <path d="m -3.0363055,0.63415336 c 0.149352,0.149352 0.3674533,0.25129067 0.6708987,0.25129067 0.42672,0 0.632968,-0.21810134 0.632968,-0.50732268 0,-0.35085868 -0.3318933,-0.42909068 -0.5926667,-0.48835735 -0.1825413,-0.042672 -0.3152987,-0.0758613 -0.3152987,-0.18254134 0,-0.0948267 0.080603,-0.16120534 0.2323254,-0.16120534 0.1540933,0 0.3247813,0.0545253 0.4527973,0.17305867 l 0.1872827,-0.24654934 c -0.156464,-0.14461067 -0.3650827,-0.220472 -0.6163734,-0.220472 -0.3721946,0 -0.5997786,0.21336 -0.5997786,0.47650401 0,0.35322934 0.3318933,0.42434935 0.590296,0.48361602 0.1825413,0.042672 0.32004,0.0829733 0.32004,0.20150667 0,0.0900853 -0.090085,0.1778 -0.2749974,0.1778 -0.2181013,0 -0.39116,-0.0971973 -0.5025813,-0.21336 z" style="font-weight:bold;font-size:2.37067px;font-family:'Proxima Nova';dominant-baseline:middle;text-anchor:middle;fill:#18191c"/>
        <path d="M -0.13079415,0.85699603 H 0.20821119 V -0.72423869 H -0.26592216 L -0.64997017,0.26195868 -1.0340182,-0.72423869 h -0.4717627 v 1.58123472 h 0.3366347 v -1.13792004 l 0.44568536,1.13792004 h 0.14698134 l 0.44568535,-1.13792004 z" style="font-weight:bold;font-size:2.37067px;font-family:'Proxima Nova';dominant-baseline:middle;text-anchor:middle;fill:#18191c"/>
        <path d="M 0.52225049,0.85699603 H 0.85888516 V 0.29040668 H 1.2618985 c 0.341376,0 0.5310294,-0.22995468 0.5310294,-0.50495202 0,-0.27736801 -0.1872827,-0.50969335 -0.5310294,-0.50969335 H 0.52225049 Z M 1.4491812,-0.216916 c 0,0.13275733 -0.099568,0.21810134 -0.2323254,0.21810134 H 0.85888516 V -0.43501734 H 1.2168558 c 0.1327574,0 0.2323254,0.0877147 0.2323254,0.21810134 z" style="font-weight:bold;font-size:2.37067px;font-family:'Proxima Nova';dominant-baseline:middle;text-anchor:middle;fill:#18191c"/>
        <path d="M 1.999287,0.85699603 H 3.0044497 V 0.56066269 H 2.3359216 V -0.72423869 H 1.999287 Z" style="font-weight:bold;font-size:2.37067px;font-family:'Proxima Nova';dominant-baseline:middle;text-anchor:middle;fill:#18191c"/>
      </g>
    </g>
    <g transform="translate(62.015000 28.895667)">
      <rect x="-4.2" y="-1.7902222222222222" width="8.4" height="3.5804444444444443" rx="0.5" ry="0.5" fill="#efedeb" stroke="#18191c" stroke-width="0.25"/>
      <g style="font-weight:bold;font-size:2.37067px;font-family:'Proxima Nova';dominant-baseline:middle;text-anchor:middle;fill:#18191c">
        <path d="m -2.3803531,0.067564 c 0,0.47650402 0.348488,0.81788003 0.824992,0.81788003 0.4788747,0 0.82736268,-0.34137601 0.82736268,-0.81788003 0,-0.47650401 -0.34848798,-0.81788002 -0.82736268,-0.81788002 -0.476504,0 -0.824992,0.34137601 -0.824992,0.81788002 z m 1.3062373,0 c 0,0.29396268 -0.1896533,0.51917602 -0.4812453,0.51917602 -0.291592,0 -0.4788747,-0.22521334 -0.4788747,-0.51917602 0,-0.29633334 0.1872827,-0.51917601 0.4788747,-0.51917601 0.291592,0 0.4812453,0.22284267 0.4812453,0.51917601 z" style="font-weight:bold;font-size:2.37067px;font-family:'Proxima Nova';dominant-baseline:middle;text-anchor:middle;fill:#18191c"/>
        <path d="m -0.48945002,0.22639868 c 0,0.38878934 0.22521334,0.65904535 0.70882935,0.65904535 0.47887469,0 0.70408803,-0.26788534 0.70408803,-0.66141602 v -0.9482667 H 0.58209135 v 0.93878403 c 0,0.22047201 -0.12090401,0.37219468 -0.36271202,0.37219468 -0.24654934,0 -0.36745334,-0.15172267 -0.36745334,-0.37219468 v -0.93878403 h -0.34137601 z" style="font-weight:bold;font-size:2.37067px;font-family:'Proxima Nova';dominant-baseline:middle;text-anchor:middle;fill:#18191c"/>
        <path d="M 1.6027004,0.85699603 H 1.9417057 V -0.42790534 H 2.4016151 V -0.72423869 H 1.1404204 v 0.29633335 h 0.46228 z" style="font-weight:bold;font-size:2.37067px;font-family:'Proxima Nova';dominant-baseline:middle;text-anchor:middle;fill:#18191c"/>
      </g>
    </g>
    <g transform="translate(62.015000 35.160889)">
      <circle r="4.2" fill="#18191c"/>
      <line y2="-3.6750000000000003" stroke="#efedeb" stroke-width="0.525" stroke-linecap="round"/>
    </g>
    <g transform="translate(62.015000 43.710889)">
      <circle r="4.2" fill="#18191c" stroke="none"/>
      <circle r="3.5" fill="none" stroke="#efedeb" stroke-width="0.95"/>
      <circle r="2.325" fill="none" stroke="#efedeb" stroke-width="0.95"/>
    </g>
    <g transform="translate(62.015000 51.826111)">
      <rect x="-4.2" y="-1.7902222222222222" width="8.4" height="3.5804444444444443" rx="0.5" ry="0.5" fill="#efedeb" stroke="#18191c" stroke-width="0.25"/>
      <g style="font-weight:bold;font-size:2.37067px;font-family:'Proxima Nova';dominant-baseline:middle;text-anchor:middle;fill:#18191c">
        <path d="m -3.2705941,0.85699603 h 0.3390054 v -1.28490137 h 0.4599093 v -0.29633335 h -1.2611947 v 0.29633335 h 0.46228 z" style="font-weight:bold;font-size:2.37067px;font-family:'Proxima Nova';dominant-baseline:middle;text-anchor:middle;fill:#18191c"/>
        <path d="m -1.3621333,0.85699603 h 0.38641871 L -1.3313146,0.25484668 c 0.170688,-0.0403013 0.34611734,-0.18965334 0.34611734,-0.46939202 0,-0.29396267 -0.20150664,-0.50969335 -0.53102934,-0.50969335 h -0.739648 V 0.85699603 H -1.91924 V 0.29040668 h 0.2465494 z m 0.033189,-1.07391203 c 0,0.13275733 -0.1019387,0.21810134 -0.2370667,0.21810134 H -1.91924 v -0.43620268 h 0.3532294 c 0.135128,0 0.2370667,0.085344 0.2370667,0.21810134 z" style="font-weight:bold;font-size:2.37067px;font-family:'Proxima Nova';dominant-baseline:middle;text-anchor:middle;fill:#18191c"/>
        <path d="M 0.37456517,0.85699603 H 0.74201852 L 0.13275716,-0.72423869 h -0.42197868 l -0.61163201,1.58123472 h 0.36982401 l 0.099568,-0.27262668 h 0.70645869 z m -0.45279735,-1.28964271 0.26077335,0.72542402 h -0.52391735 z" style="font-weight:bold;font-size:2.37067px;font-family:'Proxima Nova';dominant-baseline:middle;text-anchor:middle;fill:#18191c"/>
        <path d="m 1.5631955,0.88544403 c 0.3603413,0 0.5594773,-0.19202401 0.6732693,-0.38878935 L 1.9472435,0.35678535 c -0.066379,0.13038667 -0.2086187,0.22995467 -0.384048,0.22995467 -0.2749974,0 -0.4836161,-0.22047201 -0.4836161,-0.51917602 0,-0.29870401 0.2086187,-0.51917601 0.4836161,-0.51917601 0.1754293,0 0.3176693,0.10193867 0.384048,0.22995467 l 0.2892213,-0.14224 c -0.1114213,-0.19676534 -0.312928,-0.38641868 -0.6732693,-0.38641868 -0.4622801,0 -0.82973341,0.33189334 -0.82973341,0.81788002 0,0.48598669 0.36745331,0.81788003 0.82973341,0.81788003 z" style="font-weight:bold;font-size:2.37067px;font-family:'Proxima Nova';dominant-baseline:middle;text-anchor:middle;fill:#18191c"/>
        <path d="M 3.3779407,0.85699603 H 3.7928074 L 3.1219087,0.01778 3.7501354,-0.72423869 H 3.3352687 L 2.7757913,-0.01778 V -0.72423869 H 2.4391567 V 0.85699603 H 2.7757913 V 0.37100935 L 2.899066,0.22402801 Z" style="font-weight:bold;font-size:2.37067px;font-family:'Proxima Nova';dominant-baseline:middle;text-anchor:middle;fill:#18191c"/>
      </g>
    </g>
    <g transform="translate(62.015000 55.806556)">
      <rect x="-4.2" y="-1.7902222222222222" width="8.4" height="3.5804444444444443" rx="0.5" ry="0.5" fill="#efedeb" stroke="#18191c" stroke-width="0.25"/>
      <g style="font-weight:bold;font-size:2.37067px;font-family:'Proxima Nova';dominant-baseline:middle;text-anchor:middle;fill:#18191c">
        <path d="M -3.2791507,0.85699603 H -2.273988 V 0.56066269 h -0.668528 v -1.28490138 h -0.3366347 z" style="font-weight:bold;font-size:2.37067px;font-family:'Proxima Nova';dominant-baseline:middle;text-anchor:middle;fill:#18191c"/>
        <path d="m -2.0382548,0.85699603 h 1.11895468 V 0.56540402 H -1.7016201 V 0.19795068 h 0.76572531 V -0.09127067 H -1.7016201 v -0.34374667 h 0.78231998 V -0.72423869 H -2.0382548 Z" style="font-weight:bold;font-size:2.37067px;font-family:'Proxima Nova';dominant-baseline:middle;text-anchor:middle;fill:#18191c"/>
        <path d="M -0.21050794,0.85699603 H 0.21147074 L 0.82073209,-0.72423869 H 0.43668408 L 4.8139686e-4,0.49191335 -0.43809195,-0.72423869 h -0.38404801 z" style="font-weight:bold;font-size:2.37067px;font-family:'Proxima Nova';dominant-baseline:middle;text-anchor:middle;fill:#18191c"/>
        <path d="M 0.96675042,0.85699603 H 2.0857051 V 0.56540402 h -0.78232 V 0.19795068 H 2.0691105 V -0.09127067 H 1.3033851 v -0.34374667 h 0.78232 V -0.72423869 H 0.96675042 Z" style="font-weight:bold;font-size:2.37067px;font-family:'Proxima Nova';dominant-baseline:middle;text-anchor:middle;fill:#18191c"/>
        <path d="M 2.3511827,0.85699603 H 3.3563454 V 0.56066269 H 2.6878174 V -0.72423869 H 2.3511827 Z" style="font-weight:bold;font-size:2.37067px;font-family:'Proxima Nova';dominant-baseline:middle;text-anchor:middle;fill:#18191c"/>
      </g>
    </g>
    <g transform="translate(62.015000 62.071778)">
      <circle r="4.2" fill="#18191c"/>
      <line y2="-3.6750000000000003" stroke="#efedeb" stroke-width="0.525" stroke-linecap="round"/>
    </g>
    <g transform="translate(62.015000 70.621778)">
      <circle r="4.2" fill="#18191c" stroke="none"/>
      <circle r="3.5" fill="none" stroke="#efedeb" stroke-width="0.95"/>
      <circle r="2.325" fill="none" stroke="#efedeb" stroke-width="0.95"/>
    </g>
    <g transform="translate(62.015000 78.737000)">
      <rect x="-4.2" y="-1.7902222222222222" width="8.4" height="3.5804444444444443" rx="0.5" ry="0.5" fill="#efedeb" stroke="#18191c" stroke-width="0.25"/>
      <g style="font-weight:bold;font-size:2.37067px;font-family:'Proxima Nova';dominant-baseline:middle;text-anchor:middle;fill:#18191c">
        <path d="m -0.56223696,0.73135069 c 0.11379201,0.11142134 0.26314401,0.15409334 0.42434935,0.15409334 0.32478135,0 0.55710669,-0.17305867 0.55710669,-0.54762402 v -1.0620587 H 0.0825844 v 1.05731737 c 0,0.15409334 -0.09719734,0.25366134 -0.24654934,0.25366134 -0.10905067,0 -0.18965334,-0.0545253 -0.25129068,-0.113792 z" style="font-weight:bold;font-size:2.37067px;font-family:'Proxima Nova';dominant-baseline:middle;text-anchor:middle;fill:#18191c"/>
      </g>
    </g>
    <g transform="translate(62.015000 85.002222)">
      <circle r="4.2" fill="#18191c"/>
      <line y2="-3.6750000000000003" stroke="#efedeb" stroke-width="0.525" stroke-linecap="round"/>
    </g>
    <g transform="translate(62.015000 93.552222)">
      <circle r="4.2" fill="#18191c" stroke="none"/>
      <circle r="3.5" fill="none" stroke="#efedeb" stroke-width="0.95"/>
      <circle r="2.325" fill="none" stroke="#efedeb" stroke-width="0.95"/>
    </g>
    <g transform="translate(62.015000 103.952222)">
      <circle r="4.2" fill="#18191c"/>
      <line y2="-3.6750000000000003" stroke="#efedeb" stroke-width="0.525" stroke-linecap="round"/>
    </g>
    <g transform="translate(62.015000 112.502222)">
      <circle r="4.2" fill="#18191c" stroke="none"/>
      <circle r="3.5" fill="none" stroke="#efedeb" stroke-width="0.95"/>
      <circle r="2.325" fill="none" stroke="#efedeb" stroke-width="0.95"/>
    </g>
    <g transform="translate(73.445000 24.915222)">
      <rect x="-4.2" y="-1.7902222222222222" width="8.4" height="3.5804444444444443" rx="0.5" ry="0.5" fill="#efedeb" stroke="#18191c" stroke-width="0.25"/>
      <g style="font-weight:bold;font-size:2.37067px;font-family:'Proxima Nova';dominant-baseline:middle;text-anchor:middle;fill:#18191c">
        <path d="m -3.0363055,0.63415336 c 0.149352,0.149352 0.3674533,0.25129067 0.6708987,0.25129067 0.42672,0 0.632968,-0.21810134 0.632968,-0.50732268 0,-0.35085868 -0.3318933,-0.42909068 -0.5926667,-0.48835735 -0.1825413,-0.042672 -0.3152987,-0.0758613 -0.3152987,-0.18254134 0,-0.0948267 0.080603,-0.16120534 0.2323254,-0.16120534 0.1540933,0 0.3247813,0.0545253 0.4527973,0.17305867 l 0.1872827,-0.24654934 c -0.156464,-0.14461067 -0.3650827,-0.220472 -0.6163734,-0.220472 -0.3721946,0 -0.5997786,0.21336 -0.5997786,0.47650401 0,0.35322934 0.3318933,0.42434935 0.590296,0.48361602 0.1825413,0.042672 0.32004,0.0829733 0.32004,0.20150667 0,0.0900853 -0.090085,0.1778 -0.2749974,0.1778 -0.2181013,0 -0.39116,-0.0971973 -0.5025813,-0.21336 z" style="font-weight:bold;font-size:2.37067px;font-family:'Proxima Nova';dominant-baseline:middle;text-anchor:middle;fill:#18191c"/>
        <path d="M -0.13079415,0.85699603 H 0.20821119 V -0.72423869 H -0.26592216 L -0.64997017,0.26195868 -1.0340182,-0.72423869 h -0.4717627 v 1.58123472 h 0.3366347 v -1.13792004 l 0.44568536,1.13792004 h 0.14698134 l 0.44568535,-1.13792004 z" style="font-weight:bold;font-size:2.37067px;font-family:'Proxima Nova';dominant-baseline:middle;text-anchor:middle;fill:#18191c"/>
        <path d="M 0.52225049,0.85699603 H 0.85888516 V 0.29040668 H 1.2618985 c 0.341376,0 0.5310294,-0.22995468 0.5310294,-0.50495202 0,-0.27736801 -0.1872827,-0.50969335 -0.5310294,-0.50969335 H 0.52225049 Z M 1.4491812,-0.216916 c 0,0.13275733 -0.099568,0.21810134 -0.2323254,0.21810134 H 0.85888516 V -0.43501734 H 1.2168558 c 0.1327574,0 0.2323254,0.0877147 0.2323254,0.21810134 z" style="font-weight:bold;font-size:2.37067px;font-family:'Proxima Nova';dominant-baseline:middle;text-anchor:middle;fill:#18191c"/>
        <path d="M 1.999287,0.85699603 H 3.0044497 V 0.56066269 H 2.3359216 V -0.72423869 H 1.999287 Z" style="font-weight:bold;font-size:2.37067px;font-family:'Proxima Nova';dominant-baseline:middle;text-anchor:middle;fill:#18191c"/>
      </g>
    </g>
    <g transform="translate(73.445000 28.895667)">
      <rect x="-4.2" y="-1.7902222222222222" width="8.4" height="3.5804444444444443" rx="0.5" ry="0.5" fill="#efedeb" stroke="#18191c" stroke-width="0.25"/>
      <g style="font-weight:bold;font-size:2.37067px;font-family:'Proxima Nova';dominant-baseline:middle;text-anchor:middle;fill:#18191c">
        <path d="m -2.3803531,0.067564 c 0,0.47650402 0.348488,0.81788003 0.824992,0.81788003 0.4788747,0 0.82736268,-0.34137601 0.82736268,-0.81788003 0,-0.47650401 -0.34848798,-0.81788002 -0.82736268,-0.81788002 -0.476504,0 -0.824992,0.34137601 -0.824992,0.81788002 z m 1.3062373,0 c 0,0.29396268 -0.1896533,0.51917602 -0.4812453,0.51917602 -0.291592,0 -0.4788747,-0.22521334 -0.4788747,-0.51917602 0,-0.29633334 0.1872827,-0.51917601 0.4788747,-0.51917601 0.291592,0 0.4812453,0.22284267 0.4812453,0.51917601 z" style="font-weight:bold;font-size:2.37067px;font-family:'Proxima Nova';dominant-baseline:middle;text-anchor:middle;fill:#18191c"/>
        <path d="m -0.48945002,0.22639868 c 0,0.38878934 0.22521334,0.65904535 0.70882935,0.65904535 0.47887469,0 0.70408803,-0.26788534 0.70408803,-0.66141602 v -0.9482667 H 0.58209135 v 0.93878403 c 0,0.22047201 -0.12090401,0.37219468 -0.36271202,0.37219468 -0.24654934,0 -0.36745334,-0.15172267 -0.36745334,-0.37219468 v -0.93878403 h -0.34137601 z" style="font-weight:bold;font-size:2.37067px;font-family:'Proxima Nova';dominant-baseline:middle;text-anchor:middle;fill:#18191c"/>
        <path d="M 1.6027004,0.85699603 H 1.9417057 V -0.42790534 H 2.4016151 V -0.72423869 H 1.1404204 v 0.29633335 h 0.46228 z" style="font-weight:bold;font-size:2.37067px;font-family:'Proxima Nova';dominant-baseline:middle;text-anchor:middle;fill:#18191c"/>
      </g>
    </g>
    <g transform="translate(73.445000 35.160889)">
      <circle r="4.2" fill="#18191c"/>
      <line y2="-3.6750000000000003" stroke="#efedeb" stroke-width="0.525" stroke-linecap="round"/>
    </g>
    <g transform="translate(73.445000 43.710889)">
      <circle r="4.2" fill="#18191c" stroke="none"/>
      <circle r="3.5" fill="none" stroke="#efedeb" stroke-width="0.95"/>
      <circle r="2.325" fill="none" stroke="#efedeb" stroke-width="0.95"/>
    </g>
    <g transform="translate(73.445000 51.826111)">
      <rect x="-4.2" y="-1.7902222222222222" width="8.4" height="3.5804444444444443" rx="0.5" ry="0.5" fill="#efedeb" stroke="#18191c" stroke-width="0.25"/>
      <g style="font-weight:bold;font-size:2.37067px;font-family:'Proxima Nova';dominant-baseline:middle;text-anchor:middle;fill:#18191c">
        <path d="m -3.2705941,0.85699603 h 0.3390054 v -1.28490137 h 0.4599093 v -0.29633335 h -1.2611947 v 0.29633335 h 0.46228 z" style="font-weight:bold;font-size:2.37067px;font-family:'Proxima Nova';dominant-baseline:middle;text-anchor:middle;fill:#18191c"/>
        <path d="m -1.3621333,0.85699603 h 0.38641871 L -1.3313146,0.25484668 c 0.170688,-0.0403013 0.34611734,-0.18965334 0.34611734,-0.46939202 0,-0.29396267 -0.20150664,-0.50969335 -0.53102934,-0.50969335 h -0.739648 V 0.85699603 H -1.91924 V 0.29040668 h 0.2465494 z m 0.033189,-1.07391203 c 0,0.13275733 -0.1019387,0.21810134 -0.2370667,0.21810134 H -1.91924 v -0.43620268 h 0.3532294 c 0.135128,0 0.2370667,0.085344 0.2370667,0.21810134 z" style="font-weight:bold;font-size:2.37067px;font-family:'Proxima Nova';dominant-baseline:middle;text-anchor:middle;fill:#18191c"/>
        <path d="M 0.37456517,0.85699603 H 0.74201852 L 0.13275716,-0.72423869 h -0.42197868 l -0.61163201,1.58123472 h 0.36982401 l 0.099568,-0.27262668 h 0.70645869 z m -0.45279735,-1.28964271 0.26077335,0.72542402 h -0.52391735 z" style="font-weight:bold;font-size:2.37067px;font-family:'Proxima Nova';dominant-baseline:middle;text-anchor:middle;fill:#18191c"/>
        <path d="m 1.5631955,0.88544403 c 0.3603413,0 0.5594773,-0.19202401 0.6732693,-0.38878935 L 1.9472435,0.35678535 c -0.066379,0.13038667 -0.2086187,0.22995467 -0.384048,0.22995467 -0.2749974,0 -0.4836161,-0.22047201 -0.4836161,-0.51917602 0,-0.29870401 0.2086187,-0.51917601 0.4836161,-0.51917601 0.1754293,0 0.3176693,0.10193867 0.384048,0.22995467 l 0.2892213,-0.14224 c -0.1114213,-0.19676534 -0.312928,-0.38641868 -0.6732693,-0.38641868 -0.4622801,0 -0.82973341,0.33189334 -0.82973341,0.81788002 0,0.48598669 0.36745331,0.81788003 0.82973341,0.81788003 z" style="font-weight:bold;font-size:2.37067px;font-family:'Proxima Nova';dominant-baseline:middle;text-anchor:middle;fill:#18191c"/>
        <path d="M 3.3779407,0.85699603 H 3.7928074 L 3.1219087,0.01778 3.7501354,-0.72423869 H 3.3352687 L 2.7757913,-0.01778 V -0.72423869 H 2.4391567 V 0.85699603 H 2.7757913 V 0.37100935 L 2.899066,0.22402801 Z" style="font-weight:bold;font-size:2.37067px;font-family:'Proxima Nova';dominant-baseline:middle;text-anchor:middle;fill:#18191c"/>
      </g>
    </g>
    <g transform="translate(73.445000 55.806556)">
      <rect x="-4.2" y="-1.7902222222222222" width="8.4" height="3.5804444444444443" rx="0.5" ry="0.5" fill="#efedeb" stroke="#18191c" stroke-width="0.25"/>
      <g style="font-weight:bold;font-size:2.37067px;font-family:'Proxima Nova';dominant-baseline:middle;text-anchor:middle;fill:#18191c">
        <path d="M -3.2791507,0.85699603 H -2.273988 V 0.56066269 h -0.668528 v -1.28490138 h -0.3366347 z" style="font-weight:bold;font-size:2.37067px;font-family:'Proxima Nova';dominant-baseline:middle;text-anchor:middle;fill:#18191c"/>
        <path d="m -2.0382548,0.85699603 h 1.11895468 V 0.56540402 H -1.7016201 V 0.19795068 h 0.76572531 V -0.09127067 H -1.7016201 v -0.34374667 h 0.78231998 V -0.72423869 H -2.0382548 Z" style="font-weight:bold;font-size:2.37067px;font-family:'Proxima Nova';dominant-baseline:middle;text-anchor:middle;fill:#18191c"/>
        <path d="M -0.21050794,0.85699603 H 0.21147074 L 0.82073209,-0.72423869 H 0.43668408 L 4.8139686e-4,0.49191335 -0.43809195,-0.72423869 h -0.38404801 z" style="font-weight:bold;font-size:2.37067px;font-family:'Proxima Nova';dominant-baseline:middle;text-anchor:middle;fill:#18191c"/>
        <path d="M 0.96675042,0.85699603 H 2.0857051 V 0.56540402 h -0.78232 V 0.19795068 H 2.0691105 V -0.09127067 H 1.3033851 v -0.34374667 h 0.78232 V -0.72423869 H 0.96675042 Z" style="font-weight:bold;font-size:2.37067px;font-family:'Proxima Nova';dominant-baseline:middle;text-anchor:middle;fill:#18191c"/>
        <path d="M 2.3511827,0.85699603 H 3.3563454 V 0.56066269 H 2.6878174 V -0.72423869 H 2.3511827 Z" style="font-weight:bold;font-size:2.37067px;font-family:'Proxima Nova';dominant-baseline:middle;text-anchor:middle;fill:#18191c"/>
      </g>
    </g>
    <g transform="translate(73.445000 62.071778)">
      <circle r="4.2" fill="#18191c"/>
      <line y2="-3.6750000000000003" stroke="#efedeb" stroke-width="0.525" stroke-linecap="round"/>
    </g>
    <g transform="translate(73.445000 70.621778)">
      <circle r="4.2" fill="#18191c" stroke="none"/>
      <circle r="3.5" fill="none" stroke="#efedeb" stroke-width="0.95"/>
      <circle r="2.325" fill="none" stroke="#efedeb" stroke-width="0.95"/>
    </g>
    <g transform="translate(73.445000 78.737000)">
      <rect x="-4.2" y="-1.7902222222222222" width="8.4" height="3.5804444444444443" rx="0.5" ry="0.5" fill="#efedeb" stroke="#18191c" stroke-width="0.25"/>
      <g style="font-weight:bold;font-size:2.37067px;font-family:'Proxima Nova';dominant-baseline:middle;text-anchor:middle;fill:#18191c">
        <path d="m -0.56223696,0.73135069 c 0.11379201,0.11142134 0.26314401,0.15409334 0.42434935,0.15409334 0.32478135,0 0.55710669,-0.17305867 0.55710669,-0.54762402 v -1.0620587 H 0.0825844 v 1.05731737 c 0,0.15409334 -0.09719734,0.25366134 -0.24654934,0.25366134 -0.10905067,0 -0.18965334,-0.0545253 -0.25129068,-0.113792 z" style="font-weight:bold;font-size:2.37067px;font-family:'Proxima Nova';dominant-baseline:middle;text-anchor:middle;fill:#18191c"/>
      </g>
    </g>
    <g transform="translate(73.445000 85.002222)">
      <circle r="4.2" fill="#18191c"/>
      <line y2="-3.6750000000000003" stroke="#efedeb" stroke-width="0.525" stroke-linecap="round"/>
    </g>
    <g transform="translate(73.445000 93.552222)">
      <circle r="4.2" fill="#18191c" stroke="none"/>
      <circle r="3.5" fill="none" stroke="#efedeb" stroke-width="0.95"/>
      <circle r="2.325" fill="none" stroke="#efedeb" stroke-width="0.95"/>
    </g>
    <g transform="translate(73.445000 103.952222)">
      <circle r="4.2" fill="#18191c"/>
      <line y2="-3.6750000000000003" stroke="#efedeb" stroke-width="0.525" stroke-linecap="round"/>
    </g>
    <g transform="translate(73.445000 112.502222)">
      <circle r="4.2" fill="#18191c" stroke="none"/>
      <circle r="3.5" fill="none" stroke="#efedeb" stroke-width="0.95"/>
      <circle r="2.325" fill="none" stroke="#efedeb" stroke-width="0.95"/>
    </g>
    <g transform="translate(36.043000 19.736000)">
      <line y1="-2.176" x2="-1.088" y2="-2.176" stroke="#18191c" stroke-width="0.35" stroke-linecap="round"/>
      <line x1="-1.088" y1="2.176" x2="-1.088" y2="-2.176" stroke="#18191c" stroke-width="0.35" stroke-linecap="round"/>
      <line x2="1.088" stroke="none" stroke-width="0.35" stroke-linecap="round"/>
      <line y1="2.176" x2="-1.088" y2="2.176" stroke="#18191c" stroke-width="0.35" stroke-linecap="round"/>
    </g>
    <g transform="translate(76.557000 19.736000)">
      <line y1="-2.176" x2="1.088" y2="-2.176" stroke="#18191c" stroke-width="0.35" stroke-linecap="round"/>
      <line x1="1.088" y1="2.176" x2="1.088" y2="-2.176" stroke="#18191c" stroke-width="0.35" stroke-linecap="round"/>
      <line x2="-1.088" stroke="none" stroke-width="0.35" stroke-linecap="round"/>
      <line y1="2.176" x2="1.088" y2="2.176" stroke="#18191c" stroke-width="0.35" stroke-linecap="round"/>
    </g>
    <g transform="translate(90.380000 30.790667)">
      <rect x="-1.3125" y="-2.8125" width="2.625" height="5.625" rx="0.1875" ry="0.1875" fill="#efedeb" stroke="#18191c" stroke-width="0.375"/>
      <g transform="translate(0.000000 -1.250000)">
        <line x1="-0.8125" y1="-1" x2="0.8125" y2="-1" stroke="#18191c" stroke-width="0.25" stroke-linecap="round"/>
        <line x1="-0.8125" y1="-0.5" x2="0.8125" y2="-0.5" stroke="#18191c" stroke-width="0.25" stroke-linecap="round"/>
        <line x1="-0.8125" x2="0.8125" stroke="#18191c" stroke-width="0.25" stroke-linecap="round"/>
        <line x1="-0.8125" y1="0.5" x2="0.8125" y2="0.5" stroke="#18191c" stroke-width="0.25" stroke-linecap="round"/>
        <line x1="-0.8125" y1="1" x2="0.8125" y2="1" stroke="#18191c" stroke-width="0.25" stroke-linecap="round"/>
      </g>
    </g>
    <g transform="translate(90.380000 71.295333)">
      <circle r="4.2" fill="#18191c" stroke="none"/>
      <circle r="3.5" fill="none" stroke="#efedeb" stroke-width="0.95"/>
      <circle r="2.325" fill="none" stroke="#efedeb" stroke-width="0.95"/>
    </g>
    <g transform="translate(90.380000 91.547667)">
      <circle r="4.2" fill="#18191c" stroke="none"/>
      <circle r="3.5" fill="none" stroke="#efedeb" stroke-width="0.95"/>
      <circle r="2.325" fill="none" stroke="#efedeb" stroke-width="0.95"/>
    </g>
    <g transform="translate(90.380000 111.800000)">
      <circle r="4.2" fill="#18191c" stroke="none"/>
      <circle r="3.5" fill="none" stroke="#efedeb" stroke-width="0.95"/>
      <circle r="2.325" fill="none" stroke="#efedeb" stroke-width="0.95"/>
    </g>
  </g>
</svg>
