<?xml version="1.0" encoding="UTF-8" standalone="no"?>
<svg
   xmlns:dc="http://purl.org/dc/elements/1.1/"
   xmlns:cc="http://creativecommons.org/ns#"
   xmlns:rdf="http://www.w3.org/1999/02/22-rdf-syntax-ns#"
   xmlns:svg="http://www.w3.org/2000/svg"
   xmlns="http://www.w3.org/2000/svg"
   id="svg128"
   height="379.429"
   width="75.000"
   version="1.1">
  <metadata
     id="metadata134">
    <rdf:RDF>
      <cc:Work
         rdf:about="">
        <dc:format>image/svg+xml</dc:format>
        <dc:type
           rdf:resource="http://purl.org/dc/dcmitype/StillImage" />
      </cc:Work>
    </rdf:RDF>
  </metadata>
  <defs
     id="defs132" />
  <g
     id="g126"
     transform="scale(2.953)">
    <path
       d="m 1,0 h 23.4 c 0.554,0 1,0.446 1,1 v 126.5 c 0,0.554 -0.446,1 -1,1 H 1 c -0.554,0 -1,-0.446 -1,-1 V 1 C 0,0.446 0.446,0 1,0 Z"
       style="fill:#f0fff0;stroke:#009900;stroke-width:1"
       id="rect2" />
    <g
       id="g6"
       transform="translate(12.7,9)">
      <g
         style="font-weight:bold;font-size:4.064px;font-family:'Proxima Nova';dominant-baseline:alphabetic;text-anchor:middle;fill:#009900"
         id="text4"
         aria-label="STAGE">
        <path
           id="path137"
           style="font-weight:bold;font-size:4.064px;font-family:'Proxima Nova';dominant-baseline:alphabetic;text-anchor:middle;fill:#009900"
           d="m -6.1456889,-0.38201601 c 0.256032,0.25603201 0.62992,0.43078401 1.150112,0.43078401 0.73152,0 1.085088,-0.37388801 1.085088,-0.86969603 0,-0.60147197 -0.56896,-0.73558397 -1.016,-0.83718407 -0.312928,-0.073152 -0.540512,-0.130048 -0.540512,-0.312928 0,-0.16256 0.138176,-0.276352 0.398272,-0.276352 0.26416,0 0.556768,0.093472 0.776224,0.296672 l 0.321056,-0.422656 c -0.268224,-0.247904 -0.625856,-0.377952 -1.05664,-0.377952 -0.638048,0 -1.028192,0.36576 -1.028192,0.816864 0,0.6055361 0.56896,0.7274561 1.011936,0.8290561 0.312928,0.073152 0.54864,0.14223997 0.54864,0.34543998 0,0.154432 -0.154432,0.30480001 -0.471424,0.30480001 -0.373888,0 -0.67056,-0.16662401 -0.861568,-0.36576002 z" />
        <path
           id="path139"
           style="font-weight:bold;font-size:4.064px;font-family:'Proxima Nova';dominant-baseline:alphabetic;text-anchor:middle;fill:#009900"
           d="m -2.9278262,0 h 0.581152 v -2.2026881 h 0.788416 v -0.508 h -2.1620481 v 0.508 h 0.7924801 z" />
        <path
           id="path141"
           style="font-weight:bold;font-size:4.064px;font-family:'Proxima Nova';dominant-baseline:alphabetic;text-anchor:middle;fill:#009900"
           d="M 0.44764322,0 H 1.0775632 L 0.03311521,-2.7106881 H -0.69027682 L -1.7387889,0 h 0.6339841 l 0.17068798,-0.46736001 h 1.21107203 z m -0.77622403,-2.2108161 0.44704002,1.24358407 h -0.89814403 z" />
        <path
           id="path143"
           style="font-weight:bold;font-size:4.064px;font-family:'Proxima Nova';dominant-baseline:alphabetic;text-anchor:middle;fill:#009900"
           d="m 1.0628947,-1.353312 c 0,0.85343998 0.65024,1.406144 1.44272,1.406144 0.491744,0 0.8778241,-0.2032 1.1541761,-0.51206401 V -1.495552 H 2.3674387 v 0.49580797 h 0.723392 v 0.32918401 c -0.117856,0.105664 -0.337312,0.20726401 -0.585216,0.20726401 -0.491744,0 -0.849376,-0.37795202 -0.849376,-0.89001599 0,-0.5120641 0.357632,-0.8900161 0.849376,-0.8900161 0.28448,0 0.516128,0.150368 0.642112,0.341376 l 0.4795521,-0.260096 c -0.207264,-0.321056 -0.5608321,-0.593344 -1.1216641,-0.593344 -0.79248,0 -1.44272,0.544576 -1.44272,1.4020801 z" />
        <path
           id="path145"
           style="font-weight:bold;font-size:4.064px;font-family:'Proxima Nova';dominant-baseline:alphabetic;text-anchor:middle;fill:#009900"
           d="M 4.1218806,0 H 6.0400887 V -0.49987202 H 4.6989686 V -1.129792 H 6.0116407 V -1.6256001 H 4.6989686 v -0.58928 h 1.3411201 v -0.495808 H 4.1218806 Z" />
      </g>
    </g>
    <g
       id="g10"
       transform="translate(12.7,119.5)">
      <g
         style="font-weight:bold;font-size:4.064px;font-family:'Proxima Nova';dominant-baseline:hanging;text-anchor:middle;fill:#009900"
         id="text8"
         aria-label="DHE">
        <path
           id="path148"
           style="font-weight:bold;font-size:4.064px;font-family:'Proxima Nova';dominant-baseline:hanging;text-anchor:middle;fill:#009900"
           d="m -3.8632449,2.7584481 h 1.0688321 c 0.849376,0 1.438656,-0.5364481 1.438656,-1.3533121 0,-0.816864 -0.58928,-1.35737602 -1.438656,-1.35737602 H -3.8632449 Z M -3.2861569,2.250448 V 0.55575999 h 0.4917441 c 0.556768,0 0.849376,0.36982402 0.849376,0.84937601 0,0.459232 -0.312928,0.845312 -0.849376,0.845312 z" />
        <path
           id="path150"
           style="font-weight:bold;font-size:4.064px;font-family:'Proxima Nova';dominant-baseline:hanging;text-anchor:middle;fill:#009900"
           d="M 0.91500319,2.7584481 H 1.4961552 V 0.04775998 H 0.91500319 V 1.112528 H -0.36515685 V 0.04775998 H -0.94224487 V 2.7584481 h 0.57708802 V 1.620528 h 1.28016004 z" />
        <path
           id="path152"
           style="font-weight:bold;font-size:4.064px;font-family:'Proxima Nova';dominant-baseline:hanging;text-anchor:middle;fill:#009900"
           d="M 2.0263802,2.7584481 H 3.9445883 V 2.258576 H 2.6034682 V 1.628656 H 3.9161403 V 1.132848 H 2.6034682 V 0.54356799 H 3.9445883 V 0.04775998 H 2.0263802 Z" />
      </g>
    </g>
    <g
       id="g14"
       transform="translate(12.7,17.65)">
      <g
         style="font-weight:bold;font-size:3.048px;font-family:'Proxima Nova';dominant-baseline:alphabetic;text-anchor:middle;fill:#009900"
         id="text12"
         aria-label="LEVEL">
        <path
           id="path155"
           style="font-weight:bold;font-size:3.048px;font-family:'Proxima Nova';dominant-baseline:alphabetic;text-anchor:middle;fill:#009900"
           d="m -4.2160509,0 h 1.2923521 V -0.38100001 H -3.7832349 V -2.0330161 h -0.432816 z" />
        <path
           id="path157"
           style="font-weight:bold;font-size:3.048px;font-family:'Proxima Nova';dominant-baseline:alphabetic;text-anchor:middle;fill:#009900"
           d="m -2.6206134,0 h 1.4386561 v -0.37490401 h -1.00584 v -0.47244002 h 0.984504 V -1.2192 h -0.984504 v -0.4419601 h 1.00584 v -0.371856 h -1.4386561 z" />
        <path
           id="path159"
           style="font-weight:bold;font-size:3.048px;font-family:'Proxima Nova';dominant-baseline:alphabetic;text-anchor:middle;fill:#009900"
           d="M -0.27065287,0 H 0.27189115 L 1.0552272,-2.0330161 H 0.56145116 L 6.1914318e-4,-0.46939201 -0.56326087,-2.0330161 H -1.0570369 Z" />
        <path
           id="path161"
           style="font-weight:bold;font-size:3.048px;font-family:'Proxima Nova';dominant-baseline:alphabetic;text-anchor:middle;fill:#009900"
           d="M 1.242965,0 H 2.681621 V -0.37490401 H 1.675781 V -0.84734403 H 2.660285 V -1.2192 H 1.675781 v -0.4419601 h 1.00584 v -0.371856 H 1.242965 Z" />
        <path
           id="path163"
           style="font-weight:bold;font-size:3.048px;font-family:'Proxima Nova';dominant-baseline:alphabetic;text-anchor:middle;fill:#009900"
           d="M 3.0229494,0 H 4.3153015 V -0.38100001 H 3.4557654 V -2.0330161 h -0.432816 z" />
      </g>
    </g>
    <g
       id="g18"
       transform="translate(12.7,36.15)">
      <g
         style="font-weight:bold;font-size:3.048px;font-family:'Proxima Nova';dominant-baseline:alphabetic;text-anchor:middle;fill:#009900"
         id="text16"
         aria-label="CURVE">
        <path
           id="path166"
           style="font-weight:bold;font-size:3.048px;font-family:'Proxima Nova';dominant-baseline:alphabetic;text-anchor:middle;fill:#009900"
           d="m -3.8837712,0.036576 c 0.463296,0 0.719328,-0.24688801 0.865632,-0.49987201 l -0.371856,-0.17983201 c -0.085344,0.16764 -0.268224,0.29565601 -0.493776,0.29565601 -0.3535681,0 -0.6217921,-0.28346401 -0.6217921,-0.66751199 0,-0.384048 0.268224,-0.6675121 0.6217921,-0.6675121 0.225552,0 0.408432,0.1310641 0.493776,0.2956561 l 0.371856,-0.1828801 c -0.143256,-0.252984 -0.402336,-0.496824 -0.865632,-0.496824 -0.5943601,0 -1.0668001,0.42672 -1.0668001,1.0515601 0,0.62483999 0.47244,1.05156 1.0668001,1.05156 z" />
        <path
           id="path168"
           style="font-weight:bold;font-size:3.048px;font-family:'Proxima Nova';dominant-baseline:alphabetic;text-anchor:middle;fill:#009900"
           d="m -2.7575353,-0.81076803 c 0,0.49987202 0.28956,0.84734403 0.911352,0.84734403 0.6156961,0 0.90525607,-0.34442401 0.90525607,-0.85039203 V -2.0330161 H -1.3798392 v 1.20700807 c 0,0.28346401 -0.155448,0.47853602 -0.4663441,0.47853602 -0.316992,0 -0.47244,-0.19507201 -0.47244,-0.47853602 V -2.0330161 h -0.438912 z" />
        <path
           id="path170"
           style="font-weight:bold;font-size:3.048px;font-family:'Proxima Nova';dominant-baseline:alphabetic;text-anchor:middle;fill:#009900"
           d="M 0.61207648,0 H 1.1089005 L 0.65170048,-0.77419202 C 0.87115649,-0.82600803 1.0967085,-1.018032 1.0967085,-1.377696 c 0,-0.3779521 -0.25908002,-0.6553201 -0.68275203,-0.6553201 H -0.53701956 V 0 h 0.43281601 v -0.72847202 h 0.31699201 z m 0.042672,-1.380744 c 0,0.170688 -0.13106401,0.280416 -0.30480001,0.280416 h -0.45415202 v -0.5608321 h 0.45415202 c 0.173736,0 0.30480001,0.1097281 0.30480001,0.2804161 z" />
        <path
           id="path172"
           style="font-weight:bold;font-size:3.048px;font-family:'Proxima Nova';dominant-baseline:alphabetic;text-anchor:middle;fill:#009900"
           d="M 1.961769,0 H 2.504313 L 3.287649,-2.0330161 H 2.793873 L 2.233041,-0.46939201 1.669161,-2.0330161 H 1.1753849 Z" />
        <path
           id="path174"
           style="font-weight:bold;font-size:3.048px;font-family:'Proxima Nova';dominant-baseline:alphabetic;text-anchor:middle;fill:#009900"
           d="m 3.4753873,0 h 1.438656 v -0.37490401 h -1.00584 v -0.47244002 h 0.984504 V -1.2192 h -0.984504 v -0.4419601 h 1.00584 v -0.371856 h -1.438656 z" />
      </g>
    </g>
    <g
       id="g22"
       transform="translate(12.7,54.65)">
      <g
         style="font-weight:bold;font-size:3.048px;font-family:'Proxima Nova';dominant-baseline:alphabetic;text-anchor:middle;fill:#009900"
         id="text20"
         aria-label="DURATION">
        <path
           id="path177"
           style="font-weight:bold;font-size:3.048px;font-family:'Proxima Nova';dominant-baseline:alphabetic;text-anchor:middle;fill:#009900"
           d="m -7.5081291,0 h 0.801624 c 0.637032,0 1.078992,-0.40233601 1.078992,-1.014984 0,-0.6126481 -0.44196,-1.0180321 -1.078992,-1.0180321 h -0.801624 z m 0.432816,-0.38100001 V -1.6520161 h 0.368808 c 0.417576,0 0.637032,0.2773681 0.637032,0.6370321 0,0.34442398 -0.234696,0.63398399 -0.637032,0.63398399 z" />
        <path
           id="path179"
           style="font-weight:bold;font-size:3.048px;font-family:'Proxima Nova';dominant-baseline:alphabetic;text-anchor:middle;fill:#009900"
           d="m -5.317379,-0.81076803 c 0,0.49987202 0.28956,0.84734403 0.911352,0.84734403 0.6156961,0 0.9052561,-0.34442401 0.9052561,-0.85039203 V -2.0330161 h -0.438912 v 1.20700807 c 0,0.28346401 -0.1554481,0.47853602 -0.4663441,0.47853602 -0.316992,0 -0.47244,-0.19507201 -0.47244,-0.47853602 V -2.0330161 h -0.438912 z" />
        <path
           id="path181"
           style="font-weight:bold;font-size:3.048px;font-family:'Proxima Nova';dominant-baseline:alphabetic;text-anchor:middle;fill:#009900"
           d="m -1.9477672,0 h 0.496824 l -0.4572,-0.77419202 c 0.219456,-0.051816 0.445008,-0.24383998 0.445008,-0.60350398 0,-0.3779521 -0.25908,-0.6553201 -0.682752,-0.6553201 H -3.0968633 V 0 h 0.432816 v -0.72847202 h 0.3169921 z m 0.042672,-1.380744 c 0,0.170688 -0.131064,0.280416 -0.3048,0.280416 h -0.4541521 v -0.5608321 h 0.4541521 c 0.173736,0 0.3048,0.1097281 0.3048,0.2804161 z" />
        <path
           id="path183"
           style="font-weight:bold;font-size:3.048px;font-family:'Proxima Nova';dominant-baseline:alphabetic;text-anchor:middle;fill:#009900"
           d="M 0.28513089,0 H 0.75757091 L -0.02576512,-2.0330161 H -0.56830914 L -1.3546932,0 h 0.47548805 l 0.12801601,-0.35052001 h 0.90830403 z m -0.58216802,-1.6581121 0.33528001,0.93268808 h -0.67360802 z" />
        <path
           id="path185"
           style="font-weight:bold;font-size:3.048px;font-family:'Proxima Nova';dominant-baseline:alphabetic;text-anchor:middle;fill:#009900"
           d="m 1.2182476,0 h 0.435864 v -1.6520161 h 0.591312 v -0.381 H 0.62388759 v 0.381 H 1.2182476 Z" />
        <path
           id="path187"
           style="font-weight:bold;font-size:3.048px;font-family:'Proxima Nova';dominant-baseline:alphabetic;text-anchor:middle;fill:#009900"
           d="m 2.5228872,0 h 0.432816 v -2.0330161 h -0.432816 z" />
        <path
           id="path189"
           style="font-weight:bold;font-size:3.048px;font-family:'Proxima Nova';dominant-baseline:alphabetic;text-anchor:middle;fill:#009900"
           d="m 3.2587882,-1.014984 c 0,0.61264799 0.448056,1.05156 1.060704,1.05156 0.6156961,0 1.0637521,-0.43891201 1.0637521,-1.05156 0,-0.6126481 -0.448056,-1.0515601 -1.0637521,-1.0515601 -0.612648,0 -1.060704,0.438912 -1.060704,1.0515601 z m 1.6794481,0 c 0,0.37795198 -0.2438401,0.66751199 -0.6187441,0.66751199 -0.374904,0 -0.615696,-0.28956001 -0.615696,-0.66751199 0,-0.381 0.240792,-0.6675121 0.615696,-0.6675121 0.374904,0 0.6187441,0.2865121 0.6187441,0.6675121 z" />
        <path
           id="path191"
           style="font-weight:bold;font-size:3.048px;font-family:'Proxima Nova';dominant-baseline:alphabetic;text-anchor:middle;fill:#009900"
           d="m 7.0920291,0 h 0.417576 v -2.0330161 h -0.432816 v 1.31673608 L 6.1349571,-2.0330161 H 5.689949 V 0 h 0.4328161 v -1.365504 z" />
      </g>
    </g>
    <path
       d="m 2.483,74.220001 h 8.4 c 0.554,0 1,0.446 1,1 v 10.98 c 0,0.554 -0.446,1 -1,1 h -8.4 c -0.554,0 -1,-0.446 -1,-1 v -10.98 c 0,-0.554 0.446,-1 1,-1 z"
       style="fill:#f0fff0;stroke:#009900;stroke-width:0.35"
       id="rect24" />
    <g
       id="g28"
       transform="translate(6.683,76.8)">
      <g
         style="font-weight:bold;font-size:2.371px;font-family:'Proxima Nova';dominant-baseline:alphabetic;text-anchor:middle;fill:#009900"
         id="text26"
         aria-label="DEFER">
        <path
           id="path195"
           style="font-weight:bold;font-size:2.371px;font-family:'Proxima Nova';dominant-baseline:alphabetic;text-anchor:middle;fill:#009900"
           d="m -3.518101,0 h 0.623573 c 0.495539,0 0.839334,-0.31297201 0.839334,-0.78954302 0,-0.47657098 -0.343795,-0.79191398 -0.839334,-0.79191398 h -0.623573 z m 0.336682,-0.29637501 V -1.285082 h 0.286891 c 0.324827,0 0.495539,0.215761 0.495539,0.49553898 0,0.26792301 -0.182567,0.49316801 -0.495539,0.49316801 z" />
        <path
           id="path197"
           style="font-weight:bold;font-size:2.371px;font-family:'Proxima Nova';dominant-baseline:alphabetic;text-anchor:middle;fill:#009900"
           d="m -1.8139447,0 h 1.11911201 V -0.29163301 H -1.4772627 v -0.367505 h 0.76583301 V -0.94840002 H -1.4772627 V -1.292195 h 0.78243001 V -1.581457 H -1.8139447 Z" />
        <path
           id="path199"
           style="font-weight:bold;font-size:2.371px;font-family:'Proxima Nova';dominant-baseline:alphabetic;text-anchor:middle;fill:#009900"
           d="m -0.42931773,0 h 0.33668201 V -0.65913801 H 0.6731973 V -0.94840002 H -0.09263572 V -1.292195 H 0.6897943 v -0.289262 h -1.11911203 z" />
        <path
           id="path201"
           style="font-weight:bold;font-size:2.371px;font-family:'Proxima Nova';dominant-baseline:alphabetic;text-anchor:middle;fill:#009900"
           d="M 0.92289327,0 H 2.0420053 v -0.29163301 h -0.78243 v -0.367505 h 0.765833 V -0.94840002 H 1.2595753 V -1.292195 h 0.78243 V -1.581457 H 0.92289327 Z" />
        <path
           id="path203"
           style="font-weight:bold;font-size:2.371px;font-family:'Proxima Nova';dominant-baseline:alphabetic;text-anchor:middle;fill:#009900"
           d="m 3.2013872,0 h 0.386473 l -0.35565,-0.60223401 c 0.170712,-0.040307 0.346166,-0.18968001 0.346166,-0.46945799 0,-0.294004 -0.201535,-0.509765 -0.531104,-0.509765 H 2.3075201 V 0 h 0.336682 v -0.56666901 h 0.2465841 z m 0.033194,-1.074063 c 0,0.13277598 -0.101953,0.21813198 -0.2371,0.21813198 H 2.6442021 V -1.292195 h 0.3532791 c 0.135147,0 0.2371,0.085356 0.2371,0.218132 z" />
      </g>
    </g>
    <path
       d="m 14.517,74.220001 h 8.4 c 0.554,0 1,0.446 1,1 v 10.98 c 0,0.554 -0.446,1 -1,1 h -8.4 c -0.554,0 -1,-0.446 -1,-1 v -10.98 c 0,-0.554 0.446,-1 1,-1 z"
       style="fill:#009900;stroke:#009900;stroke-width:0.35"
       id="rect30" />
    <g
       id="g34"
       transform="translate(18.717,76.8)">
      <g
         style="font-weight:bold;font-size:2.371px;font-family:'Proxima Nova';dominant-baseline:alphabetic;text-anchor:middle;fill:#f0fff0"
         id="text32"
         aria-label="ACTIVE">
        <path
           id="path207"
           style="font-weight:bold;font-size:2.371px;font-family:'Proxima Nova';dominant-baseline:alphabetic;text-anchor:middle;fill:#f0fff0"
           d="m -2.8391985,0 h 0.367505 l -0.609347,-1.581457 h -0.422038 L -4.1147965,0 h 0.369876 l 0.099582,-0.27266501 h 0.706558 z m -0.452861,-1.289824 0.26081,0.72552599 h -0.523991 z" />
        <path
           id="path209"
           style="font-weight:bold;font-size:2.371px;font-family:'Proxima Nova';dominant-baseline:alphabetic;text-anchor:middle;fill:#f0fff0"
           d="m -1.6504012,0.028452 c 0.360392,0 0.559556,-0.192051 0.67336397,-0.38884401 l -0.28926197,-0.139889 c -0.066388,0.130405 -0.208648,0.229987 -0.384102,0.229987 -0.2750361,0 -0.4836841,-0.220503 -0.4836841,-0.51924901 0,-0.29874598 0.208648,-0.51924898 0.4836841,-0.51924898 0.175454,0 0.317714,0.101953 0.384102,0.229987 l 0.28926197,-0.14226 C -1.0884742,-1.417858 -1.2900092,-1.607538 -1.6504012,-1.607538 c -0.4623451,0 -0.8298501,0.33194 -0.8298501,0.81799498 0,0.48605501 0.367505,0.81799502 0.8298501,0.81799502 z" />
        <path
           id="path211"
           style="font-weight:bold;font-size:2.371px;font-family:'Proxima Nova';dominant-baseline:alphabetic;text-anchor:middle;fill:#f0fff0"
           d="m -0.40918279,0 h 0.339053 V -1.285082 H 0.38984422 V -1.581457 H -0.8715278 v 0.296375 h 0.46234501 z" />
        <path
           id="path213"
           style="font-weight:bold;font-size:2.371px;font-family:'Proxima Nova';dominant-baseline:alphabetic;text-anchor:middle;fill:#f0fff0"
           d="M 0.6056795,0 H 0.94236151 V -1.581457 H 0.6056795 Z" />
        <path
           id="path215"
           style="font-weight:bold;font-size:2.371px;font-family:'Proxima Nova';dominant-baseline:alphabetic;text-anchor:middle;fill:#f0fff0"
           d="m 1.6973767,0 h 0.422038 l 0.609347,-1.581457 H 2.3446597 L 1.9083957,-0.36513401 1.4697607,-1.581457 h -0.384102 z" />
        <path
           id="path217"
           style="font-weight:bold;font-size:2.371px;font-family:'Proxima Nova';dominant-baseline:alphabetic;text-anchor:middle;fill:#f0fff0"
           d="m 2.8748007,0 h 1.119112 v -0.29163301 h -0.78243 v -0.367505 h 0.765833 V -0.94840002 H 3.2114827 V -1.292195 h 0.78243 v -0.289262 h -1.119112 z" />
      </g>
    </g>
    <path
       d="m 2.483,89.220001 h 8.4 c 0.554,0 1,0.446 1,1 V 101.2 c 0,0.554 -0.446,1 -1,1 h -8.4 c -0.554,0 -1,-0.446 -1,-1 V 90.220001 c 0,-0.554 0.446,-1 1,-1 z"
       style="fill:#f0fff0;stroke:#009900;stroke-width:0.35"
       id="rect36" />
    <g
       id="g40"
       transform="translate(6.683,91.8)">
      <g
         style="font-weight:bold;font-size:2.371px;font-family:'Proxima Nova';dominant-baseline:alphabetic;text-anchor:middle;fill:#009900"
         id="text38"
         aria-label="TRIG">
        <path
           id="path221"
           style="font-weight:bold;font-size:2.371px;font-family:'Proxima Nova';dominant-baseline:alphabetic;text-anchor:middle;fill:#009900"
           d="m -2.1087082,0 h 0.339053 v -1.285082 h 0.459974 v -0.296375 h -1.261372 v 0.296375 h 0.462345 z" />
        <path
           id="path223"
           style="font-weight:bold;font-size:2.371px;font-family:'Proxima Nova';dominant-baseline:alphabetic;text-anchor:middle;fill:#009900"
           d="m -0.19997898,0 h 0.38647301 l -0.35565001,-0.60223401 c 0.17071201,-0.040307 0.34616601,-0.18968001 0.34616601,-0.46945799 0,-0.294004 -0.201535,-0.509765 -0.53110401,-0.509765 H -1.093846 V 0 h 0.33668201 v -0.56666901 h 0.246584 z m 0.033194,-1.074063 c 0,0.13277598 -0.101953,0.21813198 -0.2371,0.21813198 H -0.75716399 V -1.292195 h 0.35327901 c 0.135147,0 0.2371,0.085356 0.2371,0.218132 z" />
        <path
           id="path225"
           style="font-weight:bold;font-size:2.371px;font-family:'Proxima Nova';dominant-baseline:alphabetic;text-anchor:middle;fill:#009900"
           d="m 0.42970678,0 h 0.336682 v -1.581457 h -0.336682 z" />
        <path
           id="path227"
           style="font-weight:bold;font-size:2.371px;font-family:'Proxima Nova';dominant-baseline:alphabetic;text-anchor:middle;fill:#009900"
           d="m 1.0021552,-0.78954302 c 0,0.49791001 0.37936,0.82036602 0.841705,0.82036602 0.286891,0 0.512136,-0.11855 0.673364,-0.29874601 v -0.60460501 h -0.753978 v 0.28926201 h 0.422038 v 0.192051 c -0.068759,0.061646 -0.196793,0.120921 -0.341424,0.120921 -0.286891,0 -0.495539,-0.220503 -0.495539,-0.51924901 0,-0.29874598 0.208648,-0.51924898 0.495539,-0.51924898 0.16597,0 0.301117,0.087727 0.374618,0.199164 l 0.279778,-0.151744 c -0.120921,-0.187309 -0.327198,-0.346166 -0.654396,-0.346166 -0.462345,0 -0.841705,0.317714 -0.841705,0.81799498 z" />
      </g>
    </g>
    <path
       d="m 14.517,89.220001 h 8.4 c 0.554,0 1,0.446 1,1 V 101.2 c 0,0.554 -0.446,1 -1,1 h -8.4 c -0.554,0 -1,-0.446 -1,-1 V 90.220001 c 0,-0.554 0.446,-1 1,-1 z"
       style="fill:#009900;stroke:#009900;stroke-width:0.35"
       id="rect42" />
    <g
       id="g46"
       transform="translate(18.717,91.8)">
      <g
         style="font-weight:bold;font-size:2.371px;font-family:'Proxima Nova';dominant-baseline:alphabetic;text-anchor:middle;fill:#f0fff0"
         id="text44"
         aria-label="EOC">
        <path
           id="path231"
           style="font-weight:bold;font-size:2.371px;font-family:'Proxima Nova';dominant-baseline:alphabetic;text-anchor:middle;fill:#f0fff0"
           d="m -2.2585072,0 h 1.119112 v -0.29163301 h -0.78243 v -0.367505 h 0.765833 v -0.28926201 h -0.765833 V -1.292195 h 0.78243 v -0.289262 h -1.119112 z" />
        <path
           id="path233"
           style="font-weight:bold;font-size:2.371px;font-family:'Proxima Nova';dominant-baseline:alphabetic;text-anchor:middle;fill:#f0fff0"
           d="m -0.94975223,-0.78954302 c 0,0.47657101 0.34853701,0.81799502 0.82510802,0.81799502 0.47894201,0 0.82747902,-0.34142401 0.82747902,-0.81799502 0,-0.47657098 -0.34853701,-0.81799498 -0.82747902,-0.81799498 -0.47657101,0 -0.82510802,0.341424 -0.82510802,0.81799498 z m 1.30642103,0 c 0,0.29400401 -0.18968001,0.51924901 -0.48131301,0.51924901 -0.29163301,0 -0.47894201,-0.225245 -0.47894201,-0.51924901 0,-0.29637498 0.187309,-0.51924898 0.47894201,-0.51924898 0.291633,0 0.48131301,0.222874 0.48131301,0.51924898 z" />
        <path
           id="path235"
           style="font-weight:bold;font-size:2.371px;font-family:'Proxima Nova';dominant-baseline:alphabetic;text-anchor:middle;fill:#f0fff0"
           d="m 1.6953948,0.028452 c 0.360392,0 0.559556,-0.192051 0.673364,-0.38884401 l -0.289262,-0.139889 c -0.066388,0.130405 -0.208648,0.229987 -0.384102,0.229987 -0.275036,0 -0.483684,-0.220503 -0.483684,-0.51924901 0,-0.29874598 0.208648,-0.51924898 0.483684,-0.51924898 0.175454,0 0.317714,0.101953 0.384102,0.229987 l 0.289262,-0.14226 c -0.111437,-0.196793 -0.312972,-0.386473 -0.673364,-0.386473 -0.462345,0 -0.82985002,0.33194 -0.82985002,0.81799498 0,0.48605501 0.36750502,0.81799502 0.82985002,0.81799502 z" />
      </g>
    </g>
    <path
       d="m 2.483,104.22 h 8.4 c 0.554,0 1,0.446 1,1 v 10.98 c 0,0.554 -0.446,1 -1,1 h -8.4 c -0.554,0 -1,-0.446 -1,-1 v -10.98 c 0,-0.554 0.446,-1 1,-1 z"
       style="fill:#f0fff0;stroke:#009900;stroke-width:0.35"
       id="rect48" />
    <g
       id="g52"
       transform="translate(6.683,106.8)">
      <g
         style="font-weight:bold;font-size:2.371px;font-family:'Proxima Nova';dominant-baseline:alphabetic;text-anchor:middle;fill:#009900"
         id="text50"
         aria-label="IN">
        <path
           id="path239"
           style="font-weight:bold;font-size:2.371px;font-family:'Proxima Nova';dominant-baseline:alphabetic;text-anchor:middle;fill:#009900"
           d="m -1.0313295,0 h 0.33668206 V -1.581457 H -1.0313295 Z" />
        <path
           id="path241"
           style="font-weight:bold;font-size:2.371px;font-family:'Proxima Nova';dominant-baseline:alphabetic;text-anchor:middle;fill:#009900"
           d="M 0.70765089,0 H 1.0324779 V -1.581457 H 0.69579589 v 1.02427199 L -0.03684313,-1.581457 h -0.346166 V 0 h 0.336682 v -1.062208 z" />
      </g>
    </g>
    <path
       d="m 14.517,104.22 h 8.4 c 0.554,0 1,0.446 1,1 v 10.98 c 0,0.554 -0.446,1 -1,1 h -8.4 c -0.554,0 -1,-0.446 -1,-1 v -10.98 c 0,-0.554 0.446,-1 1,-1 z"
       style="fill:#009900;stroke:#009900;stroke-width:0.35"
       id="rect54" />
    <g
       id="g58"
       transform="translate(18.717,106.8)">
      <g
         style="font-weight:bold;font-size:2.371px;font-family:'Proxima Nova';dominant-baseline:alphabetic;text-anchor:middle;fill:#f0fff0"
         id="text56"
         aria-label="OUT">
        <path
           id="path245"
           style="font-weight:bold;font-size:2.371px;font-family:'Proxima Nova';dominant-baseline:alphabetic;text-anchor:middle;fill:#f0fff0"
           d="m -2.3806878,-0.78954302 c 0,0.47657101 0.348537,0.81799502 0.825108,0.81799502 0.478942,0 0.82747903,-0.34142401 0.82747903,-0.81799502 0,-0.47657098 -0.34853703,-0.81799498 -0.82747903,-0.81799498 -0.476571,0 -0.825108,0.341424 -0.825108,0.81799498 z m 1.306421,0 c 0,0.29400401 -0.18968,0.51924901 -0.481313,0.51924901 -0.291633,0 -0.478942,-0.225245 -0.478942,-0.51924901 0,-0.29637498 0.187309,-0.51924898 0.478942,-0.51924898 0.291633,0 0.481313,0.222874 0.481313,0.51924898 z" />
        <path
           id="path247"
           style="font-weight:bold;font-size:2.371px;font-family:'Proxima Nova';dominant-baseline:alphabetic;text-anchor:middle;fill:#f0fff0"
           d="m -0.48951892,-0.63068601 c 0,0.388844 0.22524501,0.65913801 0.70892902,0.65913801 0.47894201,0 0.70418701,-0.26792301 0.70418701,-0.66150901 V -1.581457 H 0.5821731 v 0.93891599 c 0,0.220503 -0.120921,0.372247 -0.362763,0.372247 -0.24658401,0 -0.36750501,-0.151744 -0.36750501,-0.372247 V -1.581457 h -0.34142401 z" />
        <path
           id="path249"
           style="font-weight:bold;font-size:2.371px;font-family:'Proxima Nova';dominant-baseline:alphabetic;text-anchor:middle;fill:#f0fff0"
           d="m 1.6029255,0 h 0.339053 v -1.285082 h 0.459974 v -0.296375 h -1.261372 v 0.296375 h 0.462345 z" />
      </g>
    </g>
    <g
       id="g64"
       transform="translate(12.7,25)">
      <path
         d="M 6.3499999,0 A 6.3499999,6.3499999 0 0 1 0,6.3499999 6.3499999,6.3499999 0 0 1 -6.3499999,0 6.3499999,6.3499999 0 0 1 0,-6.3499999 6.3499999,6.3499999 0 0 1 6.3499999,0"
         style="fill:#009900;stroke:none;stroke-width:0"
         id="circle60" />
      <path
         d="M 0,0 V -5.5560002"
         style="stroke:#f0fff0;stroke-width:0.794;stroke-linecap:round"
         id="line62" />
    </g>
    <g
       id="g70"
       transform="translate(12.7,43.5)">
      <path
         d="M 6.3499999,0 A 6.3499999,6.3499999 0 0 1 0,6.3499999 6.3499999,6.3499999 0 0 1 -6.3499999,0 6.3499999,6.3499999 0 0 1 0,-6.3499999 6.3499999,6.3499999 0 0 1 6.3499999,0"
         style="fill:#009900;stroke:none;stroke-width:0"
         id="circle66" />
      <path
         d="M 0,0 V -5.5560002"
         style="stroke:#f0fff0;stroke-width:0.794;stroke-linecap:round"
         id="line68" />
    </g>
    <g
       id="g76"
       transform="translate(12.7,62)">
      <path
         d="M 6.3499999,0 A 6.3499999,6.3499999 0 0 1 0,6.3499999 6.3499999,6.3499999 0 0 1 -6.3499999,0 6.3499999,6.3499999 0 0 1 0,-6.3499999 6.3499999,6.3499999 0 0 1 6.3499999,0"
         style="fill:#009900;stroke:none;stroke-width:0"
         id="circle72" />
      <path
         d="M 0,0 V -5.5560002"
         style="stroke:#f0fff0;stroke-width:0.794;stroke-linecap:round"
         id="line74" />
    </g>
    <g
       id="g84"
       transform="translate(6.683,82)">
      <path
         d="M 4.1999998,0 A 4.1999998,4.1999998 0 0 1 0,4.1999998 4.1999998,4.1999998 0 0 1 -4.1999998,0 4.1999998,4.1999998 0 0 1 0,-4.1999998 4.1999998,4.1999998 0 0 1 4.1999998,0"
         style="fill:#009900;stroke:none;stroke-width:0"
         id="circle78" />
      <path
         d="M 3.5,0 A 3.5,3.5 0 0 1 0,3.5 3.5,3.5 0 0 1 -3.5,0 3.5,3.5 0 0 1 0,-3.5 3.5,3.5 0 0 1 3.5,0"
         style="fill:none;stroke:#f0fff0;stroke-width:0.95"
         id="circle80" />
      <path
         d="M 2.325,0 A 2.325,2.325 0 0 1 0,2.325 2.325,2.325 0 0 1 -2.325,0 2.325,2.325 0 0 1 0,-2.325 2.325,2.325 0 0 1 2.325,0"
         style="fill:none;stroke:#f0fff0;stroke-width:0.95"
         id="circle82" />
    </g>
    <g
       id="g92"
       transform="translate(18.717,82)">
      <path
         d="M 4.1999998,0 A 4.1999998,4.1999998 0 0 1 0,4.1999998 4.1999998,4.1999998 0 0 1 -4.1999998,0 4.1999998,4.1999998 0 0 1 0,-4.1999998 4.1999998,4.1999998 0 0 1 4.1999998,0"
         style="fill:#009900;stroke:none;stroke-width:0"
         id="circle86" />
      <path
         d="M 3.5,0 A 3.5,3.5 0 0 1 0,3.5 3.5,3.5 0 0 1 -3.5,0 3.5,3.5 0 0 1 0,-3.5 3.5,3.5 0 0 1 3.5,0"
         style="fill:none;stroke:#f0fff0;stroke-width:0.95"
         id="circle88" />
      <path
         d="M 2.325,0 A 2.325,2.325 0 0 1 0,2.325 2.325,2.325 0 0 1 -2.325,0 2.325,2.325 0 0 1 0,-2.325 2.325,2.325 0 0 1 2.325,0"
         style="fill:none;stroke:#f0fff0;stroke-width:0.95"
         id="circle90" />
    </g>
    <g
       id="g100"
       transform="translate(6.683,97)">
      <path
         d="M 4.1999998,0 A 4.1999998,4.1999998 0 0 1 0,4.1999998 4.1999998,4.1999998 0 0 1 -4.1999998,0 4.1999998,4.1999998 0 0 1 0,-4.1999998 4.1999998,4.1999998 0 0 1 4.1999998,0"
         style="fill:#009900;stroke:none;stroke-width:0"
         id="circle94" />
      <path
         d="M 3.5,0 A 3.5,3.5 0 0 1 0,3.5 3.5,3.5 0 0 1 -3.5,0 3.5,3.5 0 0 1 0,-3.5 3.5,3.5 0 0 1 3.5,0"
         style="fill:none;stroke:#f0fff0;stroke-width:0.95"
         id="circle96" />
      <path
         d="M 2.325,0 A 2.325,2.325 0 0 1 0,2.325 2.325,2.325 0 0 1 -2.325,0 2.325,2.325 0 0 1 0,-2.325 2.325,2.325 0 0 1 2.325,0"
         style="fill:none;stroke:#f0fff0;stroke-width:0.95"
         id="circle98" />
    </g>
    <g
       id="g108"
       transform="translate(18.717,97)">
      <path
         d="M 4.1999998,0 A 4.1999998,4.1999998 0 0 1 0,4.1999998 4.1999998,4.1999998 0 0 1 -4.1999998,0 4.1999998,4.1999998 0 0 1 0,-4.1999998 4.1999998,4.1999998 0 0 1 4.1999998,0"
         style="fill:#009900;stroke:none;stroke-width:0"
         id="circle102" />
      <path
         d="M 3.5,0 A 3.5,3.5 0 0 1 0,3.5 3.5,3.5 0 0 1 -3.5,0 3.5,3.5 0 0 1 0,-3.5 3.5,3.5 0 0 1 3.5,0"
         style="fill:none;stroke:#f0fff0;stroke-width:0.95"
         id="circle104" />
      <path
         d="M 2.325,0 A 2.325,2.325 0 0 1 0,2.325 2.325,2.325 0 0 1 -2.325,0 2.325,2.325 0 0 1 0,-2.325 2.325,2.325 0 0 1 2.325,0"
         style="fill:none;stroke:#f0fff0;stroke-width:0.95"
         id="circle106" />
    </g>
    <g
       id="g116"
       transform="translate(6.683,112)">
      <path
         d="M 4.1999998,0 A 4.1999998,4.1999998 0 0 1 0,4.1999998 4.1999998,4.1999998 0 0 1 -4.1999998,0 4.1999998,4.1999998 0 0 1 0,-4.1999998 4.1999998,4.1999998 0 0 1 4.1999998,0"
         style="fill:#009900;stroke:none;stroke-width:0"
         id="circle110" />
      <path
         d="M 3.5,0 A 3.5,3.5 0 0 1 0,3.5 3.5,3.5 0 0 1 -3.5,0 3.5,3.5 0 0 1 0,-3.5 3.5,3.5 0 0 1 3.5,0"
         style="fill:none;stroke:#f0fff0;stroke-width:0.95"
         id="circle112" />
      <path
         d="M 2.325,0 A 2.325,2.325 0 0 1 0,2.325 2.325,2.325 0 0 1 -2.325,0 2.325,2.325 0 0 1 0,-2.325 2.325,2.325 0 0 1 2.325,0"
         style="fill:none;stroke:#f0fff0;stroke-width:0.95"
         id="circle114" />
    </g>
    <g
       id="g124"
       transform="translate(18.717,112)">
      <path
         d="M 4.1999998,0 A 4.1999998,4.1999998 0 0 1 0,4.1999998 4.1999998,4.1999998 0 0 1 -4.1999998,0 4.1999998,4.1999998 0 0 1 0,-4.1999998 4.1999998,4.1999998 0 0 1 4.1999998,0"
         style="fill:#009900;stroke:none;stroke-width:0"
         id="circle118" />
      <path
         d="M 3.5,0 A 3.5,3.5 0 0 1 0,3.5 3.5,3.5 0 0 1 -3.5,0 3.5,3.5 0 0 1 0,-3.5 3.5,3.5 0 0 1 3.5,0"
         style="fill:none;stroke:#f0fff0;stroke-width:0.95"
         id="circle120" />
      <path
         d="M 2.325,0 A 2.325,2.325 0 0 1 0,2.325 2.325,2.325 0 0 1 -2.325,0 2.325,2.325 0 0 1 0,-2.325 2.325,2.325 0 0 1 2.325,0"
         style="fill:none;stroke:#f0fff0;stroke-width:0.95"
         id="circle122" />
    </g>
  </g>
</svg>
