<?xml version="1.0" encoding="UTF-8" standalone="no"?>
<svg
   xmlns:dc="http://purl.org/dc/elements/1.1/"
   xmlns:cc="http://creativecommons.org/ns#"
   xmlns:rdf="http://www.w3.org/1999/02/22-rdf-syntax-ns#"
   xmlns:svg="http://www.w3.org/2000/svg"
   xmlns="http://www.w3.org/2000/svg"
   id="svg320"
   height="379.429"
   width="135.000"
   version="1.1">
  <metadata
     id="metadata326">
    <rdf:RDF>
      <cc:Work
         rdf:about="">
        <dc:format>image/svg+xml</dc:format>
        <dc:type
           rdf:resource="http://purl.org/dc/dcmitype/StillImage" />
      </cc:Work>
    </rdf:RDF>
  </metadata>
  <defs
     id="defs324" />
  <g
     id="g318"
     transform="scale(2.953)">
    <path
       id="rect2"
       d="M 0,0 H 45.720001 V 128.5 H 0 Z"
       style="fill:#fff7f0;stroke:#994d00;stroke-width:1" />
    <g
       id="g6"
       transform="translate(22.86,9)">
      <g
         id="text4"
         style="font-weight:bold;font-size:4.06400013px;font-family:'Proxima Nova';dominant-baseline:alphabetic;text-anchor:middle;fill:#994d00"
         aria-label="TAPERS">
        <path
           id="path329"
           style="font-weight:bold;font-size:4.06400013px;font-family:'Proxima Nova';dominant-baseline:alphabetic;text-anchor:middle;fill:#994d00"
           d="m -6.523514,0 h 0.5811521 v -2.2026881 h 0.788416 v -0.508 H -7.315994 v 0.508 h 0.79248 z" />
        <path
           id="path331"
           style="font-weight:bold;font-size:4.06400013px;font-family:'Proxima Nova';dominant-baseline:alphabetic;text-anchor:middle;fill:#994d00"
           d="m -3.1764923,0 h 0.6583681 l -1.0444481,-2.7106881 h -0.723392 L -5.3344763,0 h 0.658368 l 0.170688,-0.45923201 h 1.162304 z m -0.747776,-2.1336001 0.422656,1.16636807 h -0.845312 z" />
        <path
           id="path333"
           style="font-weight:bold;font-size:4.06400013px;font-family:'Proxima Nova';dominant-baseline:alphabetic;text-anchor:middle;fill:#994d00"
           d="m -2.2678073,0 h 0.5770881 v -0.96316803 h 0.69087997 c 0.58521602,0 0.91033603,-0.40233597 0.91033603,-0.87376007 0,-0.475488 -0.32105601,-0.87376 -0.91033603,-0.87376 H -2.2678073 Z m 1.58902408,-1.8369281 c 0,0.22352 -0.170688,0.3657601 -0.39827198,0.3657601 h -0.613664 v -0.7315201 h 0.613664 c 0.22758398,0 0.39827198,0.138176 0.39827198,0.36576 z" />
        <path
           id="path335"
           style="font-weight:bold;font-size:4.06400013px;font-family:'Proxima Nova';dominant-baseline:alphabetic;text-anchor:middle;fill:#994d00"
           d="M 0.26425526,0 H 2.1824633 V -0.50800002 H 0.84134328 V -1.121664 H 2.1540153 V -1.6296641 H 0.84134328 v -0.573024 H 2.1824633 v -0.508 H 0.26425526 Z" />
        <path
           id="path337"
           style="font-weight:bold;font-size:4.06400013px;font-family:'Proxima Nova';dominant-baseline:alphabetic;text-anchor:middle;fill:#994d00"
           d="m 4.1696958,0 h 0.662432 l -0.6096,-1.032256 c 0.292608,-0.069088 0.593344,-0.32512 0.593344,-0.8046721 0,-0.503936 -0.34544,-0.87376 -0.910336,-0.87376 H 2.6375677 V 0 h 0.5770881 v -0.96316803 h 0.422656 z m 0.056896,-1.8369281 c 0,0.227584 -0.174752,0.3657601 -0.4064,0.3657601 h -0.605536 v -0.7315201 h 0.605536 c 0.231648,0 0.4064,0.138176 0.4064,0.36576 z" />
        <path
           id="path339"
           style="font-weight:bold;font-size:4.06400013px;font-family:'Proxima Nova';dominant-baseline:alphabetic;text-anchor:middle;fill:#994d00"
           d="M 5.0661255,-0.38201601 C 5.3180935,-0.125984 5.6919815,0.048768 6.2121736,0.048768 c 0.73152,0 1.085088,-0.37388801 1.085088,-0.86969603 0,-0.61366397 -0.56896,-0.74777607 -1.016,-0.85344007 -0.292608,-0.069088 -0.5405121,-0.125984 -0.5405121,-0.300736 0,-0.16256 0.1381761,-0.272288 0.3860801,-0.272288 0.276352,0 0.56896,0.093472 0.788416,0.296672 l 0.321056,-0.422656 c -0.268224,-0.247904 -0.625856,-0.377952 -1.05664,-0.377952 -0.6380481,0 -1.0281921,0.373888 -1.0281921,0.824992 0,0.6177281 0.56896,0.7396481 1.0119361,0.8412481 0.296672,0.073152 0.54864,0.13004797 0.54864,0.32918398 0,0.154432 -0.154432,0.30073601 -0.471424,0.30073601 -0.373888,0 -0.6705601,-0.16662401 -0.8615681,-0.36576002 z" />
      </g>
    </g>
    <g
       id="g10"
       transform="translate(22.86,119.5)">
      <g
         id="text8"
         style="font-weight:bold;font-size:4.06400013px;font-family:'Proxima Nova';dominant-baseline:hanging;text-anchor:middle;fill:#994d00"
         aria-label="DHE">
        <path
           id="path342"
           style="font-weight:bold;font-size:4.06400013px;font-family:'Proxima Nova';dominant-baseline:hanging;text-anchor:middle;fill:#994d00"
           d="m -3.8632449,2.5684481 h 1.0688321 c 0.849376,0 1.438656,-0.5364481 1.438656,-1.3533121 0,-0.816864 -0.58928,-1.35737602 -1.438656,-1.35737602 h -1.0688321 z m 0.577088,-0.508 V 0.36576 h 0.4917441 c 0.556768,0 0.849376,0.36982401 0.849376,0.849376 0,0.459232 -0.312928,0.8453121 -0.849376,0.8453121 z" />
        <path
           id="path344"
           style="font-weight:bold;font-size:4.06400013px;font-family:'Proxima Nova';dominant-baseline:hanging;text-anchor:middle;fill:#994d00"
           d="M 0.91500319,2.5684481 H 1.4961552 V -0.14224002 H 0.91500319 V 0.92252801 H -0.36515685 V -0.14224002 H -0.94224487 V 2.5684481 h 0.57708802 V 1.430528 h 1.28016004 z" />
        <path
           id="path346"
           style="font-weight:bold;font-size:4.06400013px;font-family:'Proxima Nova';dominant-baseline:hanging;text-anchor:middle;fill:#994d00"
           d="m 2.0263802,2.5684481 h 1.9182081 v -0.508 H 2.6034682 V 1.446784 H 3.9161403 V 0.93878401 H 2.6034682 V 0.36576 H 3.9445883 V -0.14224002 H 2.0263802 Z" />
      </g>
    </g>
    <path
       id="line12"
       d="M 9.4770002,24 H 36.243"
       style="stroke-width:0.34999999" />
    <g
       id="g16"
       transform="translate(9.477,18.8)">
      <g
         id="text14"
         style="font-weight:bold;font-size:3.0480001px;font-family:'Proxima Nova';dominant-baseline:alphabetic;text-anchor:middle;fill:#994d00"
         aria-label="cv">
        <path
           id="path350"
           style="font-weight:bold;font-size:3.0480001px;font-family:'Proxima Nova';dominant-baseline:alphabetic;text-anchor:middle;fill:#994d00"
           d="m -1.4443234,-0.73761602 c 0,0.45415201 0.326136,0.77419202 0.780288,0.77419202 0.30175201,0 0.48463202,-0.131064 0.58216802,-0.26822401 l -0.25298401,-0.234696 c -0.070104,0.097536 -0.176784,0.158496 -0.31089601,0.158496 -0.234696,0 -0.399288,-0.17373601 -0.399288,-0.42976801 0,-0.25603201 0.164592,-0.42671998 0.399288,-0.42671998 0.13411201,0 0.24079201,0.054864 0.31089601,0.158496 l 0.25298401,-0.237744 c -0.097536,-0.134112 -0.28041601,-0.265176 -0.58216802,-0.265176 -0.454152,0 -0.780288,0.32004 -0.780288,0.77114398 z" />
        <path
           id="path352"
           style="font-weight:bold;font-size:3.0480001px;font-family:'Proxima Nova';dominant-baseline:alphabetic;text-anchor:middle;fill:#994d00"
           d="M 0.54921157,0 H 0.96678758 L 1.5580996,-1.472184 H 1.1405236 L 0.75647558,-0.44805601 0.37242756,-1.472184 h -0.41452801 z" />
      </g>
    </g>
    <g
       id="g22"
       transform="translate(22.86,19.5)">
      <g
         id="text20"
         style="font-weight:bold;font-size:3.0480001px;font-family:'Proxima Nova';dominant-baseline:alphabetic;text-anchor:middle;fill:#994d00"
         aria-label="-  +">
        <path
           id="path355"
           style="font-size:larger"
           d="m -2.2977159,-0.68762883 h 0.8778241 V -1.0826496 h -0.8778241 z" />
        <path
           id="path357"
           style="font-size:larger"
           d="M 1.6470061,-1.0899648 H 2.3017165 V -1.3789153 H 1.6470061 v -0.713232 H 1.3287949 v 0.713232 H 0.67042687 v 0.2889505 H 1.3287949 v 0.74249278 h 0.3182112 z" />
      </g>
    </g>
    <g
       id="g26"
       transform="translate(36.243,18)">
      <g
         id="text24"
         style="font-weight:bold;font-size:2.37100005px;font-family:'Proxima Nova';dominant-baseline:alphabetic;text-anchor:middle;fill:#994d00"
         aria-label="LEVEL">
        <path
           id="path360"
           style="font-weight:bold;font-size:2.37100005px;font-family:'Proxima Nova';dominant-baseline:alphabetic;text-anchor:middle;fill:#994d00"
           d="m -3.2796117,0 h 1.005304 v -0.29637501 h -0.668622 V -1.581457 h -0.336682 z" />
        <path
           id="path362"
           style="font-weight:bold;font-size:2.37100005px;font-family:'Proxima Nova';dominant-baseline:alphabetic;text-anchor:middle;fill:#994d00"
           d="m -2.0385413,0 h 1.11911199 V -0.29637501 H -1.7018593 v -0.358021 h 0.76583299 V -0.95077102 H -1.7018593 V -1.285082 h 0.78242999 V -1.581457 H -2.0385413 Z" />
        <path
           id="path364"
           style="font-weight:bold;font-size:2.37100005px;font-family:'Proxima Nova';dominant-baseline:alphabetic;text-anchor:middle;fill:#994d00"
           d="M -0.21053734,0 H 0.21150067 L 0.82084768,-1.581457 H 0.43674567 L 4.8166107e-4,-0.36513401 -0.43815335,-1.581457 h -0.38410201 z" />
        <path
           id="path366"
           style="font-weight:bold;font-size:2.37100005px;font-family:'Proxima Nova';dominant-baseline:alphabetic;text-anchor:middle;fill:#994d00"
           d="M 0.96688638,0 H 2.0859984 v -0.29637501 h -0.78243 v -0.358021 h 0.765833 V -0.95077102 H 1.3035684 V -1.285082 h 0.78243 V -1.581457 H 0.96688638 Z" />
        <path
           id="path368"
           style="font-weight:bold;font-size:2.37100005px;font-family:'Proxima Nova';dominant-baseline:alphabetic;text-anchor:middle;fill:#994d00"
           d="m 2.3515137,0 h 1.005304 V -0.29637501 H 2.6881957 V -1.581457 h -0.336682 z" />
      </g>
    </g>
    <path
       id="line28"
       d="M 9.4770002,40 H 36.243"
       style="stroke-width:0.34999999" />
    <g
       id="g32"
       transform="translate(9.477,34.8)">
      <g
         id="text30"
         style="font-weight:bold;font-size:3.0480001px;font-family:'Proxima Nova';dominant-baseline:alphabetic;text-anchor:middle;fill:#994d00"
         aria-label="cv">
        <path
           id="path372"
           style="font-weight:bold;font-size:3.0480001px;font-family:'Proxima Nova';dominant-baseline:alphabetic;text-anchor:middle;fill:#994d00"
           d="m -1.4443234,-0.73761602 c 0,0.45415201 0.326136,0.77419202 0.780288,0.77419202 0.30175201,0 0.48463202,-0.131064 0.58216802,-0.26822401 l -0.25298401,-0.234696 c -0.070104,0.097536 -0.176784,0.158496 -0.31089601,0.158496 -0.234696,0 -0.399288,-0.17373601 -0.399288,-0.42976801 0,-0.25603201 0.164592,-0.42671998 0.399288,-0.42671998 0.13411201,0 0.24079201,0.054864 0.31089601,0.158496 l 0.25298401,-0.237744 c -0.097536,-0.134112 -0.28041601,-0.265176 -0.58216802,-0.265176 -0.454152,0 -0.780288,0.32004 -0.780288,0.77114398 z" />
        <path
           id="path374"
           style="font-weight:bold;font-size:3.0480001px;font-family:'Proxima Nova';dominant-baseline:alphabetic;text-anchor:middle;fill:#994d00"
           d="M 0.54921157,0 H 0.96678758 L 1.5580996,-1.472184 H 1.1405236 L 0.75647558,-0.44805601 0.37242756,-1.472184 h -0.41452801 z" />
      </g>
    </g>
    <g
       id="g38"
       transform="translate(22.86,35.5)">
      <g
         id="text36"
         style="font-weight:bold;font-size:3.0480001px;font-family:'Proxima Nova';dominant-baseline:alphabetic;text-anchor:middle;fill:#994d00"
         aria-label="-  +">
        <path
           id="path377"
           style="font-size:larger"
           d="m -2.2977159,-0.68762883 h 0.8778241 V -1.0826496 h -0.8778241 z" />
        <path
           id="path379"
           style="font-size:larger"
           d="M 1.6470061,-1.0899648 H 2.3017165 V -1.3789153 H 1.6470061 v -0.713232 H 1.3287949 v 0.713232 H 0.67042687 v 0.2889505 H 1.3287949 v 0.74249278 h 0.3182112 z" />
      </g>
    </g>
    <g
       id="g42"
       transform="translate(36.243,34)">
      <g
         id="text40"
         style="font-weight:bold;font-size:2.37100005px;font-family:'Proxima Nova';dominant-baseline:alphabetic;text-anchor:middle;fill:#994d00"
         aria-label="CURVE">
        <path
           id="path382"
           style="font-weight:bold;font-size:2.37100005px;font-family:'Proxima Nova';dominant-baseline:alphabetic;text-anchor:middle;fill:#994d00"
           d="m -3.0139115,0.028452 c 0.348537,0 0.547701,-0.192051 0.661509,-0.38884401 l -0.289262,-0.139889 c -0.066388,0.130405 -0.208648,0.229987 -0.372247,0.229987 -0.286891,0 -0.495539,-0.220503 -0.495539,-0.51924901 0,-0.29874598 0.208648,-0.51924898 0.495539,-0.51924898 0.163599,0 0.305859,0.101953 0.372247,0.229987 l 0.289262,-0.14226 c -0.111437,-0.196793 -0.312972,-0.386473 -0.661509,-0.386473 -0.4742,0 -0.8417051,0.33194 -0.8417051,0.81799498 0,0.48605501 0.3675051,0.81799502 0.8417051,0.81799502 z" />
        <path
           id="path384"
           style="font-weight:bold;font-size:2.37100005px;font-family:'Proxima Nova';dominant-baseline:alphabetic;text-anchor:middle;fill:#994d00"
           d="m -2.149682,-0.63068601 c 0,0.388844 0.232358,0.65913801 0.713671,0.65913801 0.48131306,0 0.71367106,-0.26792301 0.71367106,-0.66150901 V -1.581457 H -1.0661349 v 0.93891599 c 0,0.220503 -0.125663,0.372247 -0.3698761,0.372247 -0.244213,0 -0.372247,-0.151744 -0.372247,-0.372247 V -1.581457 h -0.341424 z" />
        <path
           id="path386"
           style="font-weight:bold;font-size:2.37100005px;font-family:'Proxima Nova';dominant-baseline:alphabetic;text-anchor:middle;fill:#994d00"
           d="M 0.48075731,0 H 0.86723032 L 0.51158031,-0.60223401 c 0.17071201,-0.040307 0.34616601,-0.18968001 0.34616601,-0.46945799 0,-0.294004 -0.201535,-0.509765 -0.53110401,-0.509765 H -0.41310971 V 0 h 0.33668201 v -0.56192701 h 0.24658401 z m 0.033194,-1.071692 c 0,0.13277598 -0.10195301,0.21338998 -0.23710001,0.21338998 H -0.0764277 V -1.285082 h 0.35327901 c 0.135147,0 0.23710001,0.080614 0.23710001,0.21339 z" />
        <path
           id="path388"
           style="font-weight:bold;font-size:2.37100005px;font-family:'Proxima Nova';dominant-baseline:alphabetic;text-anchor:middle;fill:#994d00"
           d="m 1.5306659,0 h 0.422038 L 2.562051,-1.581457 H 2.177949 L 1.7416849,-0.36513401 1.3030499,-1.581457 H 0.91894793 Z" />
        <path
           id="path390"
           style="font-weight:bold;font-size:2.37100005px;font-family:'Proxima Nova';dominant-baseline:alphabetic;text-anchor:middle;fill:#994d00"
           d="M 2.7080894,0 H 3.8272015 V -0.29637501 H 3.0447714 v -0.358021 h 0.765833 V -0.95077102 H 3.0447714 V -1.285082 H 3.8272015 V -1.581457 H 2.7080894 Z" />
      </g>
    </g>
    <g
       id="g46"
       transform="translate(9.477,60)">
      <g
         id="text44"
         style="font-weight:bold;font-size:2.37100005px;font-family:'Proxima Nova';dominant-baseline:hanging;text-anchor:middle;fill:#994d00"
         aria-label="J">
        <path
           id="path393"
           style="font-weight:bold;font-size:2.37100005px;font-family:'Proxima Nova';dominant-baseline:hanging;text-anchor:middle;fill:#994d00"
           d="m -0.562316,1.372809 c 0.113808,0.111437 0.265552,0.154115 0.424409,0.154115 0.32482701,0 0.55718502,-0.173083 0.55718502,-0.54770104 V -0.08298506 H 0.08259601 v 1.05746602 c 0,0.15411504 -0.097211,0.25369704 -0.24658401,0.25369704 -0.109066,0 -0.18968,-0.054533 -0.251326,-0.113808 z" />
      </g>
    </g>
    <g
       id="g50"
       transform="translate(9.477,52)">
      <g
         id="text48"
         style="font-weight:bold;font-size:2.37100005px;font-family:'Proxima Nova';dominant-baseline:alphabetic;text-anchor:middle;fill:#994d00"
         aria-label="S">
        <path
           id="path396"
           style="font-weight:bold;font-size:2.37100005px;font-family:'Proxima Nova';dominant-baseline:alphabetic;text-anchor:middle;fill:#994d00"
           d="m -0.66104593,-0.222874 c 0.147002,0.149373 0.36513401,0.251326 0.66862202,0.251326 0.42678001,0 0.63305701,-0.218132 0.63305701,-0.50739401 0,-0.35802101 -0.33194001,-0.43626401 -0.59275001,-0.49791001 -0.17071201,-0.040307 -0.31534301,-0.073501 -0.31534301,-0.17545398 0,-0.09484 0.080614,-0.158857 0.22524501,-0.158857 0.161228,0 0.33194,0.054533 0.45997401,0.173083 l 0.187309,-0.246584 c -0.156486,-0.144631 -0.36513401,-0.220503 -0.61646001,-0.220503 -0.37224701,0 -0.59986302,0.218132 -0.59986302,0.481313 0,0.36039198 0.33194001,0.43152198 0.59037902,0.49079699 0.173083,0.042678 0.320085,0.075872 0.320085,0.192051 0,0.090098 -0.090098,0.175454 -0.275036,0.175454 -0.21813201,0 -0.39121501,-0.097211 -0.50265201,-0.21339 z" />
      </g>
    </g>
    <g
       id="g54"
       transform="translate(22.86,60)">
      <g
         id="text52"
         style="font-weight:bold;font-size:2.37100005px;font-family:'Proxima Nova';dominant-baseline:hanging;text-anchor:middle;fill:#994d00"
         aria-label="BI">
        <path
           id="path399"
           style="font-weight:bold;font-size:2.37100005px;font-family:'Proxima Nova';dominant-baseline:hanging;text-anchor:middle;fill:#994d00"
           d="m -0.95260484,1.498472 h 0.85830202 c 0.301117,0 0.45997401,-0.18968 0.45997401,-0.42678 0,-0.19916404 -0.13514701,-0.36276304 -0.30348801,-0.38884404 0.149373,-0.030823 0.27266501,-0.16359901 0.27266501,-0.36276301 0,-0.211019 -0.15411501,-0.40307001 -0.45523201,-0.40307001 h -0.83222102 z m 0.33668201,-0.94840005 v -0.343795 h 0.42203801 c 0.113808,0 0.184938,0.073501 0.184938,0.173083 0,0.099582 -0.07113,0.170712 -0.184938,0.170712 z m 0,0.65676705 V 0.83933396 h 0.43389301 c 0.132776,0 0.203906,0.085356 0.203906,0.18493804 0,0.113808 -0.075872,0.182567 -0.203906,0.182567 z" />
        <path
           id="path401"
           style="font-weight:bold;font-size:2.37100005px;font-family:'Proxima Nova';dominant-baseline:hanging;text-anchor:middle;fill:#994d00"
           d="M 0.61725657,1.498472 H 0.95393858 V -0.08298506 H 0.61725657 Z" />
      </g>
    </g>
    <g
       id="g58"
       transform="translate(22.86,52)">
      <g
         id="text56"
         style="font-weight:bold;font-size:2.37100005px;font-family:'Proxima Nova';dominant-baseline:alphabetic;text-anchor:middle;fill:#994d00"
         aria-label="UNI">
        <path
           id="path404"
           style="font-weight:bold;font-size:2.37100005px;font-family:'Proxima Nova';dominant-baseline:alphabetic;text-anchor:middle;fill:#994d00"
           d="m -1.8996156,-0.63068601 c 0,0.388844 0.232358,0.65913801 0.713671,0.65913801 0.48131302,0 0.71367103,-0.26792301 0.71367103,-0.66150901 V -1.581457 h -0.34379501 v 0.93891599 c 0,0.220503 -0.125663,0.372247 -0.36987602,0.372247 -0.244213,0 -0.372247,-0.151744 -0.372247,-0.372247 V -1.581457 h -0.341424 z" />
        <path
           id="path406"
           style="font-weight:bold;font-size:2.37100005px;font-family:'Proxima Nova';dominant-baseline:alphabetic;text-anchor:middle;fill:#994d00"
           d="M 0.92761669,0 H 1.2524437 V -1.581457 H 0.91576169 v 0.99344899 L 0.18312267,-1.581457 H -0.16304334 V 0 h 0.33668201 v -1.031385 z" />
        <path
           id="path408"
           style="font-weight:bold;font-size:2.37100005px;font-family:'Proxima Nova';dominant-baseline:alphabetic;text-anchor:middle;fill:#994d00"
           d="m 1.5642673,0 h 0.336682 v -1.581457 h -0.336682 z" />
      </g>
    </g>
    <path
       id="rect60"
       d="m 32.042999,48.220001 h 8.4 c 0.554,0 1,0.446 1,1 v 10.98 c 0,0.554 -0.446,1 -1,1 h -8.4 c -0.554,0 -1,-0.446 -1,-1 v -10.98 c 0,-0.554 0.446,-1 1,-1 z"
       style="fill:#994d00;stroke:#994d00;stroke-width:0.34999999" />
    <g
       id="g64"
       transform="translate(36.243,50.8)">
      <g
         id="text62"
         style="font-weight:bold;font-size:2.37100005px;font-family:'Proxima Nova';dominant-baseline:alphabetic;text-anchor:middle;fill:#fff7f0"
         aria-label="OUT">
        <path
           id="path412"
           style="font-weight:bold;font-size:2.37100005px;font-family:'Proxima Nova';dominant-baseline:alphabetic;text-anchor:middle;fill:#fff7f0"
           d="m -2.3853187,-0.78954302 c 0,0.47657101 0.348537,0.81799502 0.825108,0.81799502 0.4789421,0 0.82747907,-0.34142401 0.82747907,-0.81799502 0,-0.47657098 -0.34853697,-0.81799498 -0.82747907,-0.81799498 -0.476571,0 -0.825108,0.341424 -0.825108,0.81799498 z m 1.3064211,0 c 0,0.29400401 -0.18968,0.51924901 -0.4813131,0.51924901 -0.291633,0 -0.478942,-0.225245 -0.478942,-0.51924901 0,-0.29637498 0.187309,-0.51924898 0.478942,-0.51924898 0.2916331,0 0.4813131,0.222874 0.4813131,0.51924898 z" />
        <path
           id="path414"
           style="font-weight:bold;font-size:2.37100005px;font-family:'Proxima Nova';dominant-baseline:alphabetic;text-anchor:middle;fill:#fff7f0"
           d="m -0.49414978,-0.63068601 c 0,0.388844 0.23235801,0.65913801 0.71367102,0.65913801 0.48131301,0 0.71367101,-0.26792301 0.71367101,-0.66150901 V -1.581457 H 0.58939724 v 0.93891599 c 0,0.220503 -0.125663,0.372247 -0.369876,0.372247 -0.24421301,0 -0.37224701,-0.151744 -0.37224701,-0.372247 V -1.581457 h -0.34142401 z" />
        <path
           id="path416"
           style="font-weight:bold;font-size:2.37100005px;font-family:'Proxima Nova';dominant-baseline:alphabetic;text-anchor:middle;fill:#fff7f0"
           d="m 1.6075565,0 h 0.339053 v -1.285082 h 0.459974 v -0.296375 h -1.261372 v 0.296375 h 0.462345 z" />
      </g>
    </g>
    <g
       id="g68"
       transform="translate(36.243,50.8)">
      <g
         id="text66"
         style="font-weight:bold;font-size:2.37100005px;font-family:'Proxima Nova';dominant-baseline:alphabetic;text-anchor:middle;fill:#fff7f0"
         aria-label="OUT">
        <path
           id="path419"
           style="font-weight:bold;font-size:2.37100005px;font-family:'Proxima Nova';dominant-baseline:alphabetic;text-anchor:middle;fill:#fff7f0"
           d="m -2.3853187,-0.78954302 c 0,0.47657101 0.348537,0.81799502 0.825108,0.81799502 0.4789421,0 0.82747907,-0.34142401 0.82747907,-0.81799502 0,-0.47657098 -0.34853697,-0.81799498 -0.82747907,-0.81799498 -0.476571,0 -0.825108,0.341424 -0.825108,0.81799498 z m 1.3064211,0 c 0,0.29400401 -0.18968,0.51924901 -0.4813131,0.51924901 -0.291633,0 -0.478942,-0.225245 -0.478942,-0.51924901 0,-0.29637498 0.187309,-0.51924898 0.478942,-0.51924898 0.2916331,0 0.4813131,0.222874 0.4813131,0.51924898 z" />
        <path
           id="path421"
           style="font-weight:bold;font-size:2.37100005px;font-family:'Proxima Nova';dominant-baseline:alphabetic;text-anchor:middle;fill:#fff7f0"
           d="m -0.49414978,-0.63068601 c 0,0.388844 0.23235801,0.65913801 0.71367102,0.65913801 0.48131301,0 0.71367101,-0.26792301 0.71367101,-0.66150901 V -1.581457 H 0.58939724 v 0.93891599 c 0,0.220503 -0.125663,0.372247 -0.369876,0.372247 -0.24421301,0 -0.37224701,-0.151744 -0.37224701,-0.372247 V -1.581457 h -0.34142401 z" />
        <path
           id="path423"
           style="font-weight:bold;font-size:2.37100005px;font-family:'Proxima Nova';dominant-baseline:alphabetic;text-anchor:middle;fill:#fff7f0"
           d="m 1.6075565,0 h 0.339053 v -1.285082 h 0.459974 v -0.296375 h -1.261372 v 0.296375 h 0.462345 z" />
      </g>
    </g>
    <path
       id="line70"
       d="M 0,66 H 45.720001"
       style="stroke-width:0.34999999" />
    <path
       id="line72"
       d="M 9.4770002,76 H 36.243"
       style="stroke-width:0.34999999" />
    <g
       id="g76"
       transform="translate(9.477,70.8)">
      <g
         id="text74"
         style="font-weight:bold;font-size:3.0480001px;font-family:'Proxima Nova';dominant-baseline:alphabetic;text-anchor:middle;fill:#994d00"
         aria-label="cv">
        <path
           id="path428"
           style="font-weight:bold;font-size:3.0480001px;font-family:'Proxima Nova';dominant-baseline:alphabetic;text-anchor:middle;fill:#994d00"
           d="m -1.4443234,-0.73761602 c 0,0.45415201 0.326136,0.77419202 0.780288,0.77419202 0.30175201,0 0.48463202,-0.131064 0.58216802,-0.26822401 l -0.25298401,-0.234696 c -0.070104,0.097536 -0.176784,0.158496 -0.31089601,0.158496 -0.234696,0 -0.399288,-0.17373601 -0.399288,-0.42976801 0,-0.25603201 0.164592,-0.42671998 0.399288,-0.42671998 0.13411201,0 0.24079201,0.054864 0.31089601,0.158496 l 0.25298401,-0.237744 c -0.097536,-0.134112 -0.28041601,-0.265176 -0.58216802,-0.265176 -0.454152,0 -0.780288,0.32004 -0.780288,0.77114398 z" />
        <path
           id="path430"
           style="font-weight:bold;font-size:3.0480001px;font-family:'Proxima Nova';dominant-baseline:alphabetic;text-anchor:middle;fill:#994d00"
           d="M 0.54921157,0 H 0.96678758 L 1.5580996,-1.472184 H 1.1405236 L 0.75647558,-0.44805601 0.37242756,-1.472184 h -0.41452801 z" />
      </g>
    </g>
    <g
       id="g82"
       transform="translate(22.86,71.5)">
      <g
         id="text80"
         style="font-weight:bold;font-size:3.0480001px;font-family:'Proxima Nova';dominant-baseline:alphabetic;text-anchor:middle;fill:#994d00"
         aria-label="-  +">
        <path
           id="path433"
           style="font-size:larger"
           d="m -2.2977159,-0.68762883 h 0.8778241 V -1.0826496 h -0.8778241 z" />
        <path
           id="path435"
           style="font-size:larger"
           d="M 1.6470061,-1.0899648 H 2.3017165 V -1.3789153 H 1.6470061 v -0.713232 H 1.3287949 v 0.713232 H 0.67042687 v 0.2889505 H 1.3287949 v 0.74249278 h 0.3182112 z" />
      </g>
    </g>
    <g
       id="g86"
       transform="translate(36.243,70)">
      <g
         id="text84"
         style="font-weight:bold;font-size:2.37100005px;font-family:'Proxima Nova';dominant-baseline:alphabetic;text-anchor:middle;fill:#994d00"
         aria-label="LEVEL">
        <path
           id="path438"
           style="font-weight:bold;font-size:2.37100005px;font-family:'Proxima Nova';dominant-baseline:alphabetic;text-anchor:middle;fill:#994d00"
           d="m -3.2796117,0 h 1.005304 v -0.29637501 h -0.668622 V -1.581457 h -0.336682 z" />
        <path
           id="path440"
           style="font-weight:bold;font-size:2.37100005px;font-family:'Proxima Nova';dominant-baseline:alphabetic;text-anchor:middle;fill:#994d00"
           d="m -2.0385413,0 h 1.11911199 V -0.29637501 H -1.7018593 v -0.358021 h 0.76583299 V -0.95077102 H -1.7018593 V -1.285082 h 0.78242999 V -1.581457 H -2.0385413 Z" />
        <path
           id="path442"
           style="font-weight:bold;font-size:2.37100005px;font-family:'Proxima Nova';dominant-baseline:alphabetic;text-anchor:middle;fill:#994d00"
           d="M -0.21053734,0 H 0.21150067 L 0.82084768,-1.581457 H 0.43674567 L 4.8166107e-4,-0.36513401 -0.43815335,-1.581457 h -0.38410201 z" />
        <path
           id="path444"
           style="font-weight:bold;font-size:2.37100005px;font-family:'Proxima Nova';dominant-baseline:alphabetic;text-anchor:middle;fill:#994d00"
           d="M 0.96688638,0 H 2.0859984 v -0.29637501 h -0.78243 v -0.358021 h 0.765833 V -0.95077102 H 1.3035684 V -1.285082 h 0.78243 V -1.581457 H 0.96688638 Z" />
        <path
           id="path446"
           style="font-weight:bold;font-size:2.37100005px;font-family:'Proxima Nova';dominant-baseline:alphabetic;text-anchor:middle;fill:#994d00"
           d="m 2.3515137,0 h 1.005304 V -0.29637501 H 2.6881957 V -1.581457 h -0.336682 z" />
      </g>
    </g>
    <path
       id="line88"
       d="M 9.4770002,92 H 36.243"
       style="stroke-width:0.34999999" />
    <g
       id="g92"
       transform="translate(9.477,86.8)">
      <g
         id="text90"
         style="font-weight:bold;font-size:3.0480001px;font-family:'Proxima Nova';dominant-baseline:alphabetic;text-anchor:middle;fill:#994d00"
         aria-label="cv">
        <path
           id="path450"
           style="font-weight:bold;font-size:3.0480001px;font-family:'Proxima Nova';dominant-baseline:alphabetic;text-anchor:middle;fill:#994d00"
           d="m -1.4443234,-0.73761602 c 0,0.45415201 0.326136,0.77419202 0.780288,0.77419202 0.30175201,0 0.48463202,-0.131064 0.58216802,-0.26822401 l -0.25298401,-0.234696 c -0.070104,0.097536 -0.176784,0.158496 -0.31089601,0.158496 -0.234696,0 -0.399288,-0.17373601 -0.399288,-0.42976801 0,-0.25603201 0.164592,-0.42671998 0.399288,-0.42671998 0.13411201,0 0.24079201,0.054864 0.31089601,0.158496 l 0.25298401,-0.237744 c -0.097536,-0.134112 -0.28041601,-0.265176 -0.58216802,-0.265176 -0.454152,0 -0.780288,0.32004 -0.780288,0.77114398 z" />
        <path
           id="path452"
           style="font-weight:bold;font-size:3.0480001px;font-family:'Proxima Nova';dominant-baseline:alphabetic;text-anchor:middle;fill:#994d00"
           d="M 0.54921157,0 H 0.96678758 L 1.5580996,-1.472184 H 1.1405236 L 0.75647558,-0.44805601 0.37242756,-1.472184 h -0.41452801 z" />
      </g>
    </g>
    <g
       id="g98"
       transform="translate(22.86,87.5)">
      <g
         id="text96"
         style="font-weight:bold;font-size:3.0480001px;font-family:'Proxima Nova';dominant-baseline:alphabetic;text-anchor:middle;fill:#994d00"
         aria-label="-  +">
        <path
           id="path455"
           style="font-size:larger"
           d="m -2.2977159,-0.68762883 h 0.8778241 V -1.0826496 h -0.8778241 z" />
        <path
           id="path457"
           style="font-size:larger"
           d="M 1.6470061,-1.0899648 H 2.3017165 V -1.3789153 H 1.6470061 v -0.713232 H 1.3287949 v 0.713232 H 0.67042687 v 0.2889505 H 1.3287949 v 0.74249278 h 0.3182112 z" />
      </g>
    </g>
    <g
       id="g102"
       transform="translate(36.243,86)">
      <g
         id="text100"
         style="font-weight:bold;font-size:2.37100005px;font-family:'Proxima Nova';dominant-baseline:alphabetic;text-anchor:middle;fill:#994d00"
         aria-label="CURVE">
        <path
           id="path460"
           style="font-weight:bold;font-size:2.37100005px;font-family:'Proxima Nova';dominant-baseline:alphabetic;text-anchor:middle;fill:#994d00"
           d="m -3.0139115,0.028452 c 0.348537,0 0.547701,-0.192051 0.661509,-0.38884401 l -0.289262,-0.139889 c -0.066388,0.130405 -0.208648,0.229987 -0.372247,0.229987 -0.286891,0 -0.495539,-0.220503 -0.495539,-0.51924901 0,-0.29874598 0.208648,-0.51924898 0.495539,-0.51924898 0.163599,0 0.305859,0.101953 0.372247,0.229987 l 0.289262,-0.14226 c -0.111437,-0.196793 -0.312972,-0.386473 -0.661509,-0.386473 -0.4742,0 -0.8417051,0.33194 -0.8417051,0.81799498 0,0.48605501 0.3675051,0.81799502 0.8417051,0.81799502 z" />
        <path
           id="path462"
           style="font-weight:bold;font-size:2.37100005px;font-family:'Proxima Nova';dominant-baseline:alphabetic;text-anchor:middle;fill:#994d00"
           d="m -2.149682,-0.63068601 c 0,0.388844 0.232358,0.65913801 0.713671,0.65913801 0.48131306,0 0.71367106,-0.26792301 0.71367106,-0.66150901 V -1.581457 H -1.0661349 v 0.93891599 c 0,0.220503 -0.125663,0.372247 -0.3698761,0.372247 -0.244213,0 -0.372247,-0.151744 -0.372247,-0.372247 V -1.581457 h -0.341424 z" />
        <path
           id="path464"
           style="font-weight:bold;font-size:2.37100005px;font-family:'Proxima Nova';dominant-baseline:alphabetic;text-anchor:middle;fill:#994d00"
           d="M 0.48075731,0 H 0.86723032 L 0.51158031,-0.60223401 c 0.17071201,-0.040307 0.34616601,-0.18968001 0.34616601,-0.46945799 0,-0.294004 -0.201535,-0.509765 -0.53110401,-0.509765 H -0.41310971 V 0 h 0.33668201 v -0.56192701 h 0.24658401 z m 0.033194,-1.071692 c 0,0.13277598 -0.10195301,0.21338998 -0.23710001,0.21338998 H -0.0764277 V -1.285082 h 0.35327901 c 0.135147,0 0.23710001,0.080614 0.23710001,0.21339 z" />
        <path
           id="path466"
           style="font-weight:bold;font-size:2.37100005px;font-family:'Proxima Nova';dominant-baseline:alphabetic;text-anchor:middle;fill:#994d00"
           d="m 1.5306659,0 h 0.422038 L 2.562051,-1.581457 H 2.177949 L 1.7416849,-0.36513401 1.3030499,-1.581457 H 0.91894793 Z" />
        <path
           id="path468"
           style="font-weight:bold;font-size:2.37100005px;font-family:'Proxima Nova';dominant-baseline:alphabetic;text-anchor:middle;fill:#994d00"
           d="M 2.7080894,0 H 3.8272015 V -0.29637501 H 3.0447714 v -0.358021 h 0.765833 V -0.95077102 H 3.0447714 V -1.285082 H 3.8272015 V -1.581457 H 2.7080894 Z" />
      </g>
    </g>
    <g
       id="g106"
       transform="translate(9.477,112)">
      <g
         id="text104"
         style="font-weight:bold;font-size:2.37100005px;font-family:'Proxima Nova';dominant-baseline:hanging;text-anchor:middle;fill:#994d00"
         aria-label="J">
        <path
           id="path471"
           style="font-weight:bold;font-size:2.37100005px;font-family:'Proxima Nova';dominant-baseline:hanging;text-anchor:middle;fill:#994d00"
           d="m -0.562316,1.372809 c 0.113808,0.111437 0.265552,0.154115 0.424409,0.154115 0.32482701,0 0.55718502,-0.173083 0.55718502,-0.54770104 V -0.08298506 H 0.08259601 v 1.05746602 c 0,0.15411504 -0.097211,0.25369704 -0.24658401,0.25369704 -0.109066,0 -0.18968,-0.054533 -0.251326,-0.113808 z" />
      </g>
    </g>
    <g
       id="g110"
       transform="translate(9.477,104)">
      <g
         id="text108"
         style="font-weight:bold;font-size:2.37100005px;font-family:'Proxima Nova';dominant-baseline:alphabetic;text-anchor:middle;fill:#994d00"
         aria-label="S">
        <path
           id="path474"
           style="font-weight:bold;font-size:2.37100005px;font-family:'Proxima Nova';dominant-baseline:alphabetic;text-anchor:middle;fill:#994d00"
           d="m -0.66104593,-0.222874 c 0.147002,0.149373 0.36513401,0.251326 0.66862202,0.251326 0.42678001,0 0.63305701,-0.218132 0.63305701,-0.50739401 0,-0.35802101 -0.33194001,-0.43626401 -0.59275001,-0.49791001 -0.17071201,-0.040307 -0.31534301,-0.073501 -0.31534301,-0.17545398 0,-0.09484 0.080614,-0.158857 0.22524501,-0.158857 0.161228,0 0.33194,0.054533 0.45997401,0.173083 l 0.187309,-0.246584 c -0.156486,-0.144631 -0.36513401,-0.220503 -0.61646001,-0.220503 -0.37224701,0 -0.59986302,0.218132 -0.59986302,0.481313 0,0.36039198 0.33194001,0.43152198 0.59037902,0.49079699 0.173083,0.042678 0.320085,0.075872 0.320085,0.192051 0,0.090098 -0.090098,0.175454 -0.275036,0.175454 -0.21813201,0 -0.39121501,-0.097211 -0.50265201,-0.21339 z" />
      </g>
    </g>
    <g
       id="g114"
       transform="translate(22.86,112)">
      <g
         id="text112"
         style="font-weight:bold;font-size:2.37100005px;font-family:'Proxima Nova';dominant-baseline:hanging;text-anchor:middle;fill:#994d00"
         aria-label="BI">
        <path
           id="path477"
           style="font-weight:bold;font-size:2.37100005px;font-family:'Proxima Nova';dominant-baseline:hanging;text-anchor:middle;fill:#994d00"
           d="m -0.95260484,1.498472 h 0.85830202 c 0.301117,0 0.45997401,-0.18968 0.45997401,-0.42678 0,-0.19916404 -0.13514701,-0.36276304 -0.30348801,-0.38884404 0.149373,-0.030823 0.27266501,-0.16359901 0.27266501,-0.36276301 0,-0.211019 -0.15411501,-0.40307001 -0.45523201,-0.40307001 h -0.83222102 z m 0.33668201,-0.94840005 v -0.343795 h 0.42203801 c 0.113808,0 0.184938,0.073501 0.184938,0.173083 0,0.099582 -0.07113,0.170712 -0.184938,0.170712 z m 0,0.65676705 V 0.83933396 h 0.43389301 c 0.132776,0 0.203906,0.085356 0.203906,0.18493804 0,0.113808 -0.075872,0.182567 -0.203906,0.182567 z" />
        <path
           id="path479"
           style="font-weight:bold;font-size:2.37100005px;font-family:'Proxima Nova';dominant-baseline:hanging;text-anchor:middle;fill:#994d00"
           d="M 0.61725657,1.498472 H 0.95393858 V -0.08298506 H 0.61725657 Z" />
      </g>
    </g>
    <g
       id="g118"
       transform="translate(22.86,104)">
      <g
         id="text116"
         style="font-weight:bold;font-size:2.37100005px;font-family:'Proxima Nova';dominant-baseline:alphabetic;text-anchor:middle;fill:#994d00"
         aria-label="UNI">
        <path
           id="path482"
           style="font-weight:bold;font-size:2.37100005px;font-family:'Proxima Nova';dominant-baseline:alphabetic;text-anchor:middle;fill:#994d00"
           d="m -1.8996156,-0.63068601 c 0,0.388844 0.232358,0.65913801 0.713671,0.65913801 0.48131302,0 0.71367103,-0.26792301 0.71367103,-0.66150901 V -1.581457 h -0.34379501 v 0.93891599 c 0,0.220503 -0.125663,0.372247 -0.36987602,0.372247 -0.244213,0 -0.372247,-0.151744 -0.372247,-0.372247 V -1.581457 h -0.341424 z" />
        <path
           id="path484"
           style="font-weight:bold;font-size:2.37100005px;font-family:'Proxima Nova';dominant-baseline:alphabetic;text-anchor:middle;fill:#994d00"
           d="M 0.92761669,0 H 1.2524437 V -1.581457 H 0.91576169 v 0.99344899 L 0.18312267,-1.581457 H -0.16304334 V 0 h 0.33668201 v -1.031385 z" />
        <path
           id="path486"
           style="font-weight:bold;font-size:2.37100005px;font-family:'Proxima Nova';dominant-baseline:alphabetic;text-anchor:middle;fill:#994d00"
           d="m 1.5642673,0 h 0.336682 v -1.581457 h -0.336682 z" />
      </g>
    </g>
    <path
       id="rect120"
       d="m 32.042999,100.22 h 8.4 c 0.554,0 1,0.446 1,1 v 10.98 c 0,0.554 -0.446,1 -1,1 h -8.4 c -0.554,0 -1,-0.446 -1,-1 v -10.98 c 0,-0.554 0.446,-1 1,-1 z"
       style="fill:#994d00;stroke:#994d00;stroke-width:0.34999999" />
    <g
       id="g124"
       transform="translate(36.243,102.8)">
      <g
         id="text122"
         style="font-weight:bold;font-size:2.37100005px;font-family:'Proxima Nova';dominant-baseline:alphabetic;text-anchor:middle;fill:#fff7f0"
         aria-label="OUT">
        <path
           id="path490"
           style="font-weight:bold;font-size:2.37100005px;font-family:'Proxima Nova';dominant-baseline:alphabetic;text-anchor:middle;fill:#fff7f0"
           d="m -2.3853187,-0.78954302 c 0,0.47657101 0.348537,0.81799502 0.825108,0.81799502 0.4789421,0 0.82747907,-0.34142401 0.82747907,-0.81799502 0,-0.47657098 -0.34853697,-0.81799498 -0.82747907,-0.81799498 -0.476571,0 -0.825108,0.341424 -0.825108,0.81799498 z m 1.3064211,0 c 0,0.29400401 -0.18968,0.51924901 -0.4813131,0.51924901 -0.291633,0 -0.478942,-0.225245 -0.478942,-0.51924901 0,-0.29637498 0.187309,-0.51924898 0.478942,-0.51924898 0.2916331,0 0.4813131,0.222874 0.4813131,0.51924898 z" />
        <path
           id="path492"
           style="font-weight:bold;font-size:2.37100005px;font-family:'Proxima Nova';dominant-baseline:alphabetic;text-anchor:middle;fill:#fff7f0"
           d="m -0.49414978,-0.63068601 c 0,0.388844 0.23235801,0.65913801 0.71367102,0.65913801 0.48131301,0 0.71367101,-0.26792301 0.71367101,-0.66150901 V -1.581457 H 0.58939724 v 0.93891599 c 0,0.220503 -0.125663,0.372247 -0.369876,0.372247 -0.24421301,0 -0.37224701,-0.151744 -0.37224701,-0.372247 V -1.581457 h -0.34142401 z" />
        <path
           id="path494"
           style="font-weight:bold;font-size:2.37100005px;font-family:'Proxima Nova';dominant-baseline:alphabetic;text-anchor:middle;fill:#fff7f0"
           d="m 1.6075565,0 h 0.339053 v -1.285082 h 0.459974 v -0.296375 h -1.261372 v 0.296375 h 0.462345 z" />
      </g>
    </g>
    <g
       id="g128"
       transform="translate(36.243,102.8)">
      <g
         id="text126"
         style="font-weight:bold;font-size:2.37100005px;font-family:'Proxima Nova';dominant-baseline:alphabetic;text-anchor:middle;fill:#fff7f0"
         aria-label="OUT">
        <path
           id="path497"
           style="font-weight:bold;font-size:2.37100005px;font-family:'Proxima Nova';dominant-baseline:alphabetic;text-anchor:middle;fill:#fff7f0"
           d="m -2.3853187,-0.78954302 c 0,0.47657101 0.348537,0.81799502 0.825108,0.81799502 0.4789421,0 0.82747907,-0.34142401 0.82747907,-0.81799502 0,-0.47657098 -0.34853697,-0.81799498 -0.82747907,-0.81799498 -0.476571,0 -0.825108,0.341424 -0.825108,0.81799498 z m 1.3064211,0 c 0,0.29400401 -0.18968,0.51924901 -0.4813131,0.51924901 -0.291633,0 -0.478942,-0.225245 -0.478942,-0.51924901 0,-0.29637498 0.187309,-0.51924898 0.478942,-0.51924898 0.2916331,0 0.4813131,0.222874 0.4813131,0.51924898 z" />
        <path
           id="path499"
           style="font-weight:bold;font-size:2.37100005px;font-family:'Proxima Nova';dominant-baseline:alphabetic;text-anchor:middle;fill:#fff7f0"
           d="m -0.49414978,-0.63068601 c 0,0.388844 0.23235801,0.65913801 0.71367102,0.65913801 0.48131301,0 0.71367101,-0.26792301 0.71367101,-0.66150901 V -1.581457 H 0.58939724 v 0.93891599 c 0,0.220503 -0.125663,0.372247 -0.369876,0.372247 -0.24421301,0 -0.37224701,-0.151744 -0.37224701,-0.372247 V -1.581457 h -0.34142401 z" />
        <path
           id="path501"
           style="font-weight:bold;font-size:2.37100005px;font-family:'Proxima Nova';dominant-baseline:alphabetic;text-anchor:middle;fill:#fff7f0"
           d="m 1.6075565,0 h 0.339053 v -1.285082 h 0.459974 v -0.296375 h -1.261372 v 0.296375 h 0.462345 z" />
      </g>
    </g>
    <g
       id="g138"
       transform="translate(9.477,24)">
      <g
         style="fill:#fff7f0;stroke:#994d00;stroke-width:0.20999999"
         id="g136">
        <path
           id="circle130"
           d="M 4.0949998,0 A 4.0949998,4.0949998 0 0 1 0,4.0949998 4.0949998,4.0949998 0 0 1 -4.0949998,0 4.0949998,4.0949998 0 0 1 0,-4.0949998 4.0949998,4.0949998 0 0 1 4.0949998,0 Z"
           style="" />
        <path
           id="circle132"
           d="M 2.925,0 A 2.925,2.925 0 0 1 0,2.925 2.925,2.925 0 0 1 -2.925,0 2.925,2.925 0 0 1 0,-2.925 2.925,2.925 0 0 1 2.925,0 Z"
           style="" />
        <path
           id="circle134"
           d="M 1.755,0 A 1.755,1.755 0 0 1 0,1.755 1.755,1.755 0 0 1 -1.755,0 1.755,1.755 0 0 1 0,-1.755 1.755,1.755 0 0 1 1.755,0 Z"
           style="fill:#994d00" />
      </g>
    </g>
    <g
       id="g146"
       transform="translate(22.86,24)">
      <g
         style="fill:#994d00;stroke:#fff7f0"
         id="g144">
        <path
           id="circle140"
           d="M 3.5,0 A 3.5,3.5 0 0 1 0,3.5 3.5,3.5 0 0 1 -3.5,0 3.5,3.5 0 0 1 0,-3.5 3.5,3.5 0 0 1 3.5,0 Z"
           style="stroke:none" />
        <path
           id="line142"
           d="M 0,0 V -3.062"
           style="stroke-width:0.43799999;stroke-linecap:round" />
      </g>
    </g>
    <g
       id="g154"
       transform="translate(36.243,24)">
      <g
         style="fill:#994d00;stroke:#fff7f0"
         id="g152">
        <path
           id="circle148"
           d="M 5,0 A 5,5 0 0 1 0,5 5,5 0 0 1 -5,0 5,5 0 0 1 0,-5 5,5 0 0 1 5,0 Z"
           style="stroke:none" />
        <path
           id="line150"
           d="M 0,0 V -4.375"
           style="stroke-width:0.625;stroke-linecap:round" />
      </g>
    </g>
    <g
       id="g164"
       transform="translate(9.477,40)">
      <g
         style="fill:#fff7f0;stroke:#994d00;stroke-width:0.20999999"
         id="g162">
        <path
           id="circle156"
           d="M 4.0949998,0 A 4.0949998,4.0949998 0 0 1 0,4.0949998 4.0949998,4.0949998 0 0 1 -4.0949998,0 4.0949998,4.0949998 0 0 1 0,-4.0949998 4.0949998,4.0949998 0 0 1 4.0949998,0 Z"
           style="" />
        <path
           id="circle158"
           d="M 2.925,0 A 2.925,2.925 0 0 1 0,2.925 2.925,2.925 0 0 1 -2.925,0 2.925,2.925 0 0 1 0,-2.925 2.925,2.925 0 0 1 2.925,0 Z"
           style="" />
        <path
           id="circle160"
           d="M 1.755,0 A 1.755,1.755 0 0 1 0,1.755 1.755,1.755 0 0 1 -1.755,0 1.755,1.755 0 0 1 0,-1.755 1.755,1.755 0 0 1 1.755,0 Z"
           style="fill:#994d00" />
      </g>
    </g>
    <g
       id="g172"
       transform="translate(22.86,40)">
      <g
         style="fill:#994d00;stroke:#fff7f0"
         id="g170">
        <path
           id="circle166"
           d="M 3.5,0 A 3.5,3.5 0 0 1 0,3.5 3.5,3.5 0 0 1 -3.5,0 3.5,3.5 0 0 1 0,-3.5 3.5,3.5 0 0 1 3.5,0 Z"
           style="stroke:none" />
        <path
           id="line168"
           d="M 0,0 V -3.062"
           style="stroke-width:0.43799999;stroke-linecap:round" />
      </g>
    </g>
    <g
       id="g180"
       transform="translate(36.243,40)">
      <g
         style="fill:#994d00;stroke:#fff7f0"
         id="g178">
        <path
           id="circle174"
           d="M 5,0 A 5,5 0 0 1 0,5 5,5 0 0 1 -5,0 5,5 0 0 1 0,-5 5,5 0 0 1 5,0 Z"
           style="stroke:none" />
        <path
           id="line176"
           d="M 0,0 V -4.375"
           style="stroke-width:0.625;stroke-linecap:round" />
      </g>
    </g>
    <g
       id="g196"
       transform="translate(9.477,56)">
      <path
         id="rect182"
         d="m -1.124,-2.812 h 2.249 c 0.104152,0 0.188,0.083848 0.188,0.188 v 5.249 c 0,0.104152 -0.083848,0.188 -0.188,0.188 h -2.249 c -0.104152,0 -0.188,-0.083848 -0.188,-0.188 v -5.249 c 0,-0.104152 0.083848,-0.188 0.188,-0.188 z"
         style="fill:#fff7f0;stroke:#994d00;stroke-width:0.375" />
      <g
         id="g194"
         transform="translate(0,1.25)">
        <path
           id="line184"
           d="M -0.81199998,-1 H 0.81199998"
           style="fill:#fff7f0;stroke:#994d00;stroke-width:0.25;stroke-linecap:round" />
        <path
           id="line186"
           d="M -0.81199998,-0.5 H 0.81199998"
           style="fill:#fff7f0;stroke:#994d00;stroke-width:0.25;stroke-linecap:round" />
        <path
           id="line188"
           d="M -0.81199998,0 H 0.81199998"
           style="fill:#fff7f0;stroke:#994d00;stroke-width:0.25;stroke-linecap:round" />
        <path
           id="line190"
           d="M -0.81199998,0.5 H 0.81199998"
           style="fill:#fff7f0;stroke:#994d00;stroke-width:0.25;stroke-linecap:round" />
        <path
           id="line192"
           d="M -0.81199998,1 H 0.81199998"
           style="fill:#fff7f0;stroke:#994d00;stroke-width:0.25;stroke-linecap:round" />
      </g>
    </g>
    <g
       id="g212"
       transform="translate(22.86,56)">
      <path
         id="rect198"
         d="m -1.124,-2.812 h 2.249 c 0.104152,0 0.188,0.083848 0.188,0.188 v 5.249 c 0,0.104152 -0.083848,0.188 -0.188,0.188 h -2.249 c -0.104152,0 -0.188,-0.083848 -0.188,-0.188 v -5.249 c 0,-0.104152 0.083848,-0.188 0.188,-0.188 z"
         style="fill:#fff7f0;stroke:#994d00;stroke-width:0.375" />
      <g
         id="g210"
         transform="translate(0,1.25)">
        <path
           id="line200"
           d="M -0.81199998,-1 H 0.81199998"
           style="fill:#fff7f0;stroke:#994d00;stroke-width:0.25;stroke-linecap:round" />
        <path
           id="line202"
           d="M -0.81199998,-0.5 H 0.81199998"
           style="fill:#fff7f0;stroke:#994d00;stroke-width:0.25;stroke-linecap:round" />
        <path
           id="line204"
           d="M -0.81199998,0 H 0.81199998"
           style="fill:#fff7f0;stroke:#994d00;stroke-width:0.25;stroke-linecap:round" />
        <path
           id="line206"
           d="M -0.81199998,0.5 H 0.81199998"
           style="fill:#fff7f0;stroke:#994d00;stroke-width:0.25;stroke-linecap:round" />
        <path
           id="line208"
           d="M -0.81199998,1 H 0.81199998"
           style="fill:#fff7f0;stroke:#994d00;stroke-width:0.25;stroke-linecap:round" />
      </g>
    </g>
    <g
       id="g222"
       transform="translate(36.243,56)">
      <g
         style="fill:#fff7f0;stroke:#994d00;stroke-width:0.20999999"
         id="g220">
        <path
           id="circle214"
           d="M 4.0949998,0 A 4.0949998,4.0949998 0 0 1 0,4.0949998 4.0949998,4.0949998 0 0 1 -4.0949998,0 4.0949998,4.0949998 0 0 1 0,-4.0949998 4.0949998,4.0949998 0 0 1 4.0949998,0 Z"
           style="" />
        <path
           id="circle216"
           d="M 2.925,0 A 2.925,2.925 0 0 1 0,2.925 2.925,2.925 0 0 1 -2.925,0 2.925,2.925 0 0 1 0,-2.925 2.925,2.925 0 0 1 2.925,0 Z"
           style="" />
        <path
           id="circle218"
           d="M 1.755,0 A 1.755,1.755 0 0 1 0,1.755 1.755,1.755 0 0 1 -1.755,0 1.755,1.755 0 0 1 0,-1.755 1.755,1.755 0 0 1 1.755,0 Z"
           style="fill:#994d00" />
      </g>
    </g>
    <g
       id="g232"
       transform="translate(9.477,76)">
      <g
         style="fill:#fff7f0;stroke:#994d00;stroke-width:0.20999999"
         id="g230">
        <path
           id="circle224"
           d="M 4.0949998,0 A 4.0949998,4.0949998 0 0 1 0,4.0949998 4.0949998,4.0949998 0 0 1 -4.0949998,0 4.0949998,4.0949998 0 0 1 0,-4.0949998 4.0949998,4.0949998 0 0 1 4.0949998,0 Z"
           style="" />
        <path
           id="circle226"
           d="M 2.925,0 A 2.925,2.925 0 0 1 0,2.925 2.925,2.925 0 0 1 -2.925,0 2.925,2.925 0 0 1 0,-2.925 2.925,2.925 0 0 1 2.925,0 Z"
           style="" />
        <path
           id="circle228"
           d="M 1.755,0 A 1.755,1.755 0 0 1 0,1.755 1.755,1.755 0 0 1 -1.755,0 1.755,1.755 0 0 1 0,-1.755 1.755,1.755 0 0 1 1.755,0 Z"
           style="fill:#994d00" />
      </g>
    </g>
    <g
       id="g240"
       transform="translate(22.86,76)">
      <g
         style="fill:#994d00;stroke:#fff7f0"
         id="g238">
        <path
           id="circle234"
           d="M 3.5,0 A 3.5,3.5 0 0 1 0,3.5 3.5,3.5 0 0 1 -3.5,0 3.5,3.5 0 0 1 0,-3.5 3.5,3.5 0 0 1 3.5,0 Z"
           style="stroke:none" />
        <path
           id="line236"
           d="M 0,0 V -3.062"
           style="stroke-width:0.43799999;stroke-linecap:round" />
      </g>
    </g>
    <g
       id="g248"
       transform="translate(36.243,76)">
      <g
         style="fill:#994d00;stroke:#fff7f0"
         id="g246">
        <path
           id="circle242"
           d="M 5,0 A 5,5 0 0 1 0,5 5,5 0 0 1 -5,0 5,5 0 0 1 0,-5 5,5 0 0 1 5,0 Z"
           style="stroke:none" />
        <path
           id="line244"
           d="M 0,0 V -4.375"
           style="stroke-width:0.625;stroke-linecap:round" />
      </g>
    </g>
    <g
       id="g258"
       transform="translate(9.477,92)">
      <g
         style="fill:#fff7f0;stroke:#994d00;stroke-width:0.20999999"
         id="g256">
        <path
           id="circle250"
           d="M 4.0949998,0 A 4.0949998,4.0949998 0 0 1 0,4.0949998 4.0949998,4.0949998 0 0 1 -4.0949998,0 4.0949998,4.0949998 0 0 1 0,-4.0949998 4.0949998,4.0949998 0 0 1 4.0949998,0 Z"
           style="" />
        <path
           id="circle252"
           d="M 2.925,0 A 2.925,2.925 0 0 1 0,2.925 2.925,2.925 0 0 1 -2.925,0 2.925,2.925 0 0 1 0,-2.925 2.925,2.925 0 0 1 2.925,0 Z"
           style="" />
        <path
           id="circle254"
           d="M 1.755,0 A 1.755,1.755 0 0 1 0,1.755 1.755,1.755 0 0 1 -1.755,0 1.755,1.755 0 0 1 0,-1.755 1.755,1.755 0 0 1 1.755,0 Z"
           style="fill:#994d00" />
      </g>
    </g>
    <g
       id="g266"
       transform="translate(22.86,92)">
      <g
         style="fill:#994d00;stroke:#fff7f0"
         id="g264">
        <path
           id="circle260"
           d="M 3.5,0 A 3.5,3.5 0 0 1 0,3.5 3.5,3.5 0 0 1 -3.5,0 3.5,3.5 0 0 1 0,-3.5 3.5,3.5 0 0 1 3.5,0 Z"
           style="stroke:none" />
        <path
           id="line262"
           d="M 0,0 V -3.062"
           style="stroke-width:0.43799999;stroke-linecap:round" />
      </g>
    </g>
    <g
       id="g274"
       transform="translate(36.243,92)">
      <g
         style="fill:#994d00;stroke:#fff7f0"
         id="g272">
        <path
           id="circle268"
           d="M 5,0 A 5,5 0 0 1 0,5 5,5 0 0 1 -5,0 5,5 0 0 1 0,-5 5,5 0 0 1 5,0 Z"
           style="stroke:none" />
        <path
           id="line270"
           d="M 0,0 V -4.375"
           style="stroke-width:0.625;stroke-linecap:round" />
      </g>
    </g>
    <g
       id="g290"
       transform="translate(9.477,108)">
      <path
         id="rect276"
         d="m -1.124,-2.812 h 2.249 c 0.104152,0 0.188,0.083848 0.188,0.188 v 5.249 c 0,0.104152 -0.083848,0.188 -0.188,0.188 h -2.249 c -0.104152,0 -0.188,-0.083848 -0.188,-0.188 v -5.249 c 0,-0.104152 0.083848,-0.188 0.188,-0.188 z"
         style="fill:#fff7f0;stroke:#994d00;stroke-width:0.375" />
      <g
         id="g288"
         transform="translate(0,1.25)">
        <path
           id="line278"
           d="M -0.81199998,-1 H 0.81199998"
           style="fill:#fff7f0;stroke:#994d00;stroke-width:0.25;stroke-linecap:round" />
        <path
           id="line280"
           d="M -0.81199998,-0.5 H 0.81199998"
           style="fill:#fff7f0;stroke:#994d00;stroke-width:0.25;stroke-linecap:round" />
        <path
           id="line282"
           d="M -0.81199998,0 H 0.81199998"
           style="fill:#fff7f0;stroke:#994d00;stroke-width:0.25;stroke-linecap:round" />
        <path
           id="line284"
           d="M -0.81199998,0.5 H 0.81199998"
           style="fill:#fff7f0;stroke:#994d00;stroke-width:0.25;stroke-linecap:round" />
        <path
           id="line286"
           d="M -0.81199998,1 H 0.81199998"
           style="fill:#fff7f0;stroke:#994d00;stroke-width:0.25;stroke-linecap:round" />
      </g>
    </g>
    <g
       id="g306"
       transform="translate(22.86,108)">
      <path
         id="rect292"
         d="m -1.124,-2.812 h 2.249 c 0.104152,0 0.188,0.083848 0.188,0.188 v 5.249 c 0,0.104152 -0.083848,0.188 -0.188,0.188 h -2.249 c -0.104152,0 -0.188,-0.083848 -0.188,-0.188 v -5.249 c 0,-0.104152 0.083848,-0.188 0.188,-0.188 z"
         style="fill:#fff7f0;stroke:#994d00;stroke-width:0.375" />
      <g
         id="g304"
         transform="translate(0,1.25)">
        <path
           id="line294"
           d="M -0.81199998,-1 H 0.81199998"
           style="fill:#fff7f0;stroke:#994d00;stroke-width:0.25;stroke-linecap:round" />
        <path
           id="line296"
           d="M -0.81199998,-0.5 H 0.81199998"
           style="fill:#fff7f0;stroke:#994d00;stroke-width:0.25;stroke-linecap:round" />
        <path
           id="line298"
           d="M -0.81199998,0 H 0.81199998"
           style="fill:#fff7f0;stroke:#994d00;stroke-width:0.25;stroke-linecap:round" />
        <path
           id="line300"
           d="M -0.81199998,0.5 H 0.81199998"
           style="fill:#fff7f0;stroke:#994d00;stroke-width:0.25;stroke-linecap:round" />
        <path
           id="line302"
           d="M -0.81199998,1 H 0.81199998"
           style="fill:#fff7f0;stroke:#994d00;stroke-width:0.25;stroke-linecap:round" />
      </g>
    </g>
    <g
       id="g316"
       transform="translate(36.243,108)">
      <g
         style="fill:#fff7f0;stroke:#994d00;stroke-width:0.20999999"
         id="g314">
        <path
           id="circle308"
           d="M 4.0949998,0 A 4.0949998,4.0949998 0 0 1 0,4.0949998 4.0949998,4.0949998 0 0 1 -4.0949998,0 4.0949998,4.0949998 0 0 1 0,-4.0949998 4.0949998,4.0949998 0 0 1 4.0949998,0 Z"
           style="" />
        <path
           id="circle310"
           d="M 2.925,0 A 2.925,2.925 0 0 1 0,2.925 2.925,2.925 0 0 1 -2.925,0 2.925,2.925 0 0 1 0,-2.925 2.925,2.925 0 0 1 2.925,0 Z"
           style="" />
        <path
           id="circle312"
           d="M 1.755,0 A 1.755,1.755 0 0 1 0,1.755 1.755,1.755 0 0 1 -1.755,0 1.755,1.755 0 0 1 0,-1.755 1.755,1.755 0 0 1 1.755,0 Z"
           style="fill:#994d00" />
      </g>
    </g>
  </g>
</svg>
