<?xml version="1.0" encoding="UTF-8" standalone="no"?>
<svg xmlns="http://www.w3.org/2000/svg" xmlns:svg="http://www.w3.org/2000/svg" version="1.1" viewBox="0.000000 0.000000 45.720000 128.500000" height="128.500000mm" width="45.720000mm">
  <defs/>
  <g>
    <rect x="0.25" y="0.25" width="45.22" height="128" fill="#fff7f0" stroke="#994d00" stroke-width="0.5"/>
    <g style="font-weight:bold;font-size:4.064px;font-family:'Proxima Nova';dominant-baseline:alphabetic;text-anchor:middle;fill:#994d00">
      <path d="m 16.336487,9 h 0.581152 V 6.7973119 h 0.788416 v -0.508 h -2.162048 v 0.508 h 0.79248 z" style="font-weight:bold;font-size:4.064px;font-family:'Proxima Nova';dominant-baseline:alphabetic;text-anchor:middle;fill:#994d00"/>
      <path d="m 19.711956,9 h 0.62992 L 19.297428,6.2893119 H 18.574036 L 17.525524,9 h 0.633984 l 0.170688,-0.46736 h 1.211072 z m -0.776224,-2.2108161 0.44704,1.2435841 h -0.898144 z" style="font-weight:bold;font-size:4.064px;font-family:'Proxima Nova';dominant-baseline:alphabetic;text-anchor:middle;fill:#994d00"/>
      <path d="m 20.592193,9 h 0.577088 V 8.028704 h 0.69088 c 0.585216,0 0.910336,-0.394208 0.910336,-0.8656321 0,-0.475488 -0.321056,-0.87376 -0.910336,-0.87376 h -1.267968 z m 1.589024,-1.8409921 c 0,0.227584 -0.170688,0.3738881 -0.398272,0.3738881 H 21.169281 V 6.7851199 h 0.613664 c 0.227584,0 0.398272,0.150368 0.398272,0.373888 z" style="font-weight:bold;font-size:4.064px;font-family:'Proxima Nova';dominant-baseline:alphabetic;text-anchor:middle;fill:#994d00"/>
      <path d="m 23.124256,9 h 1.918208 V 8.500128 h -1.34112 v -0.62992 h 1.312672 V 7.3743999 h -1.312672 v -0.58928 h 1.34112 v -0.495808 h -1.918208 z" style="font-weight:bold;font-size:4.064px;font-family:'Proxima Nova';dominant-baseline:alphabetic;text-anchor:middle;fill:#994d00"/>
      <path d="m 27.029696,9 h 0.662432 l -0.6096,-1.032256 c 0.292608,-0.069088 0.593344,-0.32512 0.593344,-0.8046721 0,-0.503936 -0.34544,-0.87376 -0.910336,-0.87376 H 25.497568 V 9 h 0.577088 V 8.028704 h 0.422656 z m 0.0569,-1.8409921 c 0,0.227584 -0.174752,0.3738881 -0.4064,0.3738881 H 26.074656 V 6.7851199 h 0.605536 c 0.231648,0 0.4064,0.146304 0.4064,0.373888 z" style="font-weight:bold;font-size:4.064px;font-family:'Proxima Nova';dominant-baseline:alphabetic;text-anchor:middle;fill:#994d00"/>
      <path d="m 27.922062,8.617984 c 0.256032,0.256032 0.62992,0.430784 1.150112,0.430784 0.73152,0 1.085088,-0.373888 1.085088,-0.869696 0,-0.601472 -0.56896,-0.735584 -1.016,-0.8371841 -0.312928,-0.073152 -0.540512,-0.130048 -0.540512,-0.312928 0,-0.16256 0.138176,-0.276352 0.398272,-0.276352 0.26416,0 0.556768,0.093472 0.776224,0.296672 l 0.321056,-0.422656 c -0.268224,-0.247904 -0.625856,-0.377952 -1.05664,-0.377952 -0.638048,0 -1.028192,0.36576 -1.028192,0.816864 0,0.6055361 0.56896,0.7274561 1.011936,0.8290561 0.312928,0.073152 0.54864,0.14224 0.54864,0.34544 0,0.154432 -0.154432,0.3048 -0.471424,0.3048 -0.373888,0 -0.67056,-0.166624 -0.861568,-0.36576 z" style="font-weight:bold;font-size:4.064px;font-family:'Proxima Nova';dominant-baseline:alphabetic;text-anchor:middle;fill:#994d00"/>
    </g>
    <g style="font-weight:bold;font-size:4.064px;font-family:'Proxima Nova';dominant-baseline:hanging;text-anchor:middle;fill:#994d00">
      <path d="m 18.996756,122.2581 h 1.068832 c 0.849376,0 1.438656,-0.53645 1.438656,-1.35331 0,-0.81687 -0.58928,-1.35738 -1.438656,-1.35738 h -1.068832 z m 0.577088,-0.508 v -1.69469 h 0.491744 c 0.556768,0 0.849376,0.36983 0.849376,0.84938 0,0.45923 -0.312928,0.84531 -0.849376,0.84531 z" style="font-weight:bold;font-size:4.064px;font-family:'Proxima Nova';dominant-baseline:hanging;text-anchor:middle;fill:#994d00"/>
      <path d="m 23.775004,122.2581 h 0.581152 v -2.71069 h -0.581152 v 1.06477 h -1.28016 v -1.06477 h -0.577088 v 2.71069 h 0.577088 v -1.13792 h 1.28016 z" style="font-weight:bold;font-size:4.064px;font-family:'Proxima Nova';dominant-baseline:hanging;text-anchor:middle;fill:#994d00"/>
      <path d="m 24.886381,122.2581 h 1.918208 v -0.49987 h -1.34112 v -0.62992 h 1.312672 v -0.49581 h -1.312672 v -0.58928 h 1.34112 v -0.49581 h -1.918208 z" style="font-weight:bold;font-size:4.064px;font-family:'Proxima Nova';dominant-baseline:hanging;text-anchor:middle;fill:#994d00"/>
    </g>
    <line x1="9.477333333333334" y1="24" x2="36.242666666666665" y2="24" stroke="#994d00" stroke-width="0.35"/>
    <g style="font-weight:bold;font-size:2.37067px;font-family:'Proxima Nova';dominant-baseline:alphabetic;text-anchor:middle;fill:#994d00">
      <path d="m 8.7670961,18.828447 c 0.3603414,0 0.5594774,-0.192024 0.6732694,-0.388789 L 9.1511441,18.299789 c -0.066379,0.130386 -0.2086186,0.229954 -0.384048,0.229954 -0.2749973,0 -0.483616,-0.220472 -0.483616,-0.519176 0,-0.298704 0.2086187,-0.519176 0.483616,-0.519176 0.1754294,0 0.3176694,0.101939 0.384048,0.229955 l 0.2892214,-0.14224 c -0.1114214,-0.196765 -0.312928,-0.386419 -0.6732694,-0.386419 -0.46228,0 -0.8297333,0.331894 -0.8297333,0.81788 0,0.485987 0.3674533,0.81788 0.8297333,0.81788 z" style="font-weight:bold;font-size:2.37067px;font-family:'Proxima Nova';dominant-baseline:alphabetic;text-anchor:middle;fill:#994d00"/>
      <path d="m 10.077112,18.799999 h 0.421978 l 0.609262,-1.581234 h -0.384048 l -0.436203,1.216152 -0.4385733,-1.216152 h -0.384048 z" style="font-weight:bold;font-size:2.37067px;font-family:'Proxima Nova';dominant-baseline:alphabetic;text-anchor:middle;fill:#994d00"/>
    </g>
    <g style="font-weight:bold;font-size:3.048px;font-family:'Proxima Nova';dominant-baseline:alphabetic;text-anchor:middle;fill:#994d00">
      <path d="m 20.963097,18.926976 h 0.73152 v -0.329184 h -0.73152 z" style="font-weight:bold;font-size:3.048px;font-family:'Proxima Nova';dominant-baseline:alphabetic;text-anchor:middle;fill:#994d00"/>
      <path d="m 24.214646,18.591696 h 0.545592 v -0.240792 h -0.545592 v -0.59436 H 23.94947 v 0.59436 h -0.54864 v 0.240792 h 0.54864 v 0.618744 h 0.265176 z" style="font-weight:bold;font-size:3.048px;font-family:'Proxima Nova';dominant-baseline:alphabetic;text-anchor:middle;fill:#994d00"/>
    </g>
    <g style="font-weight:bold;font-size:2.37067px;font-family:'Proxima Nova';dominant-baseline:alphabetic;text-anchor:middle;fill:#994d00">
      <path d="M 32.963517,18 H 33.96868 V 17.703667 H 33.300152 V 16.418765 H 32.963517 Z" style="font-weight:bold;font-size:2.37067px;font-family:'Proxima Nova';dominant-baseline:alphabetic;text-anchor:middle;fill:#994d00"/>
      <path d="m 34.204413,18 h 1.118955 v -0.291592 h -0.78232 v -0.367453 h 0.765725 v -0.289222 h -0.765725 v -0.343746 h 0.78232 v -0.289222 h -1.118955 z" style="font-weight:bold;font-size:2.37067px;font-family:'Proxima Nova';dominant-baseline:alphabetic;text-anchor:middle;fill:#994d00"/>
      <path d="m 36.03216,18 h 0.421979 L 37.0634,16.418765 h -0.384048 l -0.436202,1.216152 -0.438574,-1.216152 h -0.384048 z" style="font-weight:bold;font-size:2.37067px;font-family:'Proxima Nova';dominant-baseline:alphabetic;text-anchor:middle;fill:#994d00"/>
      <path d="m 37.209419,18 h 1.118954 v -0.291592 h -0.78232 v -0.367453 h 0.765726 v -0.289222 h -0.765726 v -0.343746 h 0.78232 v -0.289222 h -1.118954 z" style="font-weight:bold;font-size:2.37067px;font-family:'Proxima Nova';dominant-baseline:alphabetic;text-anchor:middle;fill:#994d00"/>
      <path d="m 38.593851,18 h 1.005163 v -0.296333 h -0.668528 v -1.284902 h -0.336635 z" style="font-weight:bold;font-size:2.37067px;font-family:'Proxima Nova';dominant-baseline:alphabetic;text-anchor:middle;fill:#994d00"/>
    </g>
    <line x1="9.477333333333334" y1="40" x2="36.242666666666665" y2="40" stroke="#994d00" stroke-width="0.35"/>
    <g style="font-weight:bold;font-size:2.37067px;font-family:'Proxima Nova';dominant-baseline:alphabetic;text-anchor:middle;fill:#994d00">
      <path d="m 8.7670961,34.828447 c 0.3603414,0 0.5594774,-0.192024 0.6732694,-0.388789 L 9.1511441,34.299789 c -0.066379,0.130386 -0.2086186,0.229954 -0.384048,0.229954 -0.2749973,0 -0.483616,-0.220472 -0.483616,-0.519176 0,-0.298704 0.2086187,-0.519176 0.483616,-0.519176 0.1754294,0 0.3176694,0.101939 0.384048,0.229955 l 0.2892214,-0.14224 c -0.1114214,-0.196765 -0.312928,-0.386419 -0.6732694,-0.386419 -0.46228,0 -0.8297333,0.331894 -0.8297333,0.81788 0,0.485987 0.3674533,0.81788 0.8297333,0.81788 z" style="font-weight:bold;font-size:2.37067px;font-family:'Proxima Nova';dominant-baseline:alphabetic;text-anchor:middle;fill:#994d00"/>
      <path d="m 10.077112,34.799999 h 0.421978 l 0.609262,-1.581234 h -0.384048 l -0.436203,1.216152 -0.4385733,-1.216152 h -0.384048 z" style="font-weight:bold;font-size:2.37067px;font-family:'Proxima Nova';dominant-baseline:alphabetic;text-anchor:middle;fill:#994d00"/>
    </g>
    <g style="font-weight:bold;font-size:3.048px;font-family:'Proxima Nova';dominant-baseline:alphabetic;text-anchor:middle;fill:#994d00">
      <path d="m 20.963097,34.926976 h 0.73152 v -0.329184 h -0.73152 z" style="font-weight:bold;font-size:3.048px;font-family:'Proxima Nova';dominant-baseline:alphabetic;text-anchor:middle;fill:#994d00"/>
      <path d="m 24.214646,34.591696 h 0.545592 v -0.240792 h -0.545592 v -0.59436 H 23.94947 v 0.59436 h -0.54864 v 0.240792 h 0.54864 v 0.618744 h 0.265176 z" style="font-weight:bold;font-size:3.048px;font-family:'Proxima Nova';dominant-baseline:alphabetic;text-anchor:middle;fill:#994d00"/>
    </g>
    <g style="font-weight:bold;font-size:2.37067px;font-family:'Proxima Nova';dominant-baseline:alphabetic;text-anchor:middle;fill:#994d00">
      <path d="m 33.221957,34.028448 c 0.360342,0 0.559478,-0.192024 0.67327,-0.388789 l -0.289222,-0.13987 c -0.06638,0.130387 -0.208618,0.229955 -0.384048,0.229955 -0.274997,0 -0.483616,-0.220472 -0.483616,-0.519176 0,-0.298704 0.208619,-0.519176 0.483616,-0.519176 0.17543,0 0.31767,0.101939 0.384048,0.229955 l 0.289222,-0.14224 c -0.111422,-0.196766 -0.312928,-0.386419 -0.67327,-0.386419 -0.46228,0 -0.829733,0.331893 -0.829733,0.81788 0,0.485987 0.367453,0.81788 0.829733,0.81788 z" style="font-weight:bold;font-size:2.37067px;font-family:'Proxima Nova';dominant-baseline:alphabetic;text-anchor:middle;fill:#994d00"/>
      <path d="m 34.097918,33.369403 c 0,0.388789 0.225214,0.659045 0.70883,0.659045 0.478875,0 0.704088,-0.267885 0.704088,-0.661416 V 32.418765 H 35.16946 v 0.938784 c 0,0.220472 -0.120904,0.372195 -0.362712,0.372195 -0.246549,0 -0.367453,-0.151723 -0.367453,-0.372195 v -0.938784 h -0.341377 z" style="font-weight:bold;font-size:2.37067px;font-family:'Proxima Nova';dominant-baseline:alphabetic;text-anchor:middle;fill:#994d00"/>
      <path d="m 36.718728,34 h 0.386418 l -0.3556,-0.602149 c 0.170688,-0.0403 0.346118,-0.189654 0.346118,-0.469392 0,-0.293963 -0.201507,-0.509694 -0.53103,-0.509694 H 35.824986 V 34 h 0.336635 v -0.566589 h 0.246549 z m 0.03319,-1.073912 c 0,0.132757 -0.101939,0.218101 -0.237067,0.218101 h -0.353229 v -0.436202 h 0.353229 c 0.135128,0 0.237067,0.08534 0.237067,0.218101 z" style="font-weight:bold;font-size:2.37067px;font-family:'Proxima Nova';dominant-baseline:alphabetic;text-anchor:middle;fill:#994d00"/>
      <path d="m 37.768488,34 h 0.421979 l 0.609261,-1.581235 H 38.41568 l -0.436202,1.216152 -0.438574,-1.216152 h -0.384048 z" style="font-weight:bold;font-size:2.37067px;font-family:'Proxima Nova';dominant-baseline:alphabetic;text-anchor:middle;fill:#994d00"/>
      <path d="m 38.945747,34 h 1.118954 v -0.291592 h -0.78232 v -0.367453 h 0.765726 v -0.289222 h -0.765726 v -0.343746 h 0.78232 v -0.289222 h -1.118954 z" style="font-weight:bold;font-size:2.37067px;font-family:'Proxima Nova';dominant-baseline:alphabetic;text-anchor:middle;fill:#994d00"/>
    </g>
    <g style="font-weight:bold;font-size:2.37067px;font-family:'Proxima Nova';dominant-baseline:hanging;text-anchor:middle;fill:#994d00">
      <path d="m 8.9150961,61.483246 c 0.113792,0.111421 0.263144,0.154093 0.4243494,0.154093 0.3247813,0 0.5571066,-0.173058 0.5571066,-0.547624 V 60.027657 H 9.5599175 v 1.057317 c 0,0.154093 -0.097197,0.253661 -0.2465494,0.253661 -0.1090506,0 -0.1896533,-0.05452 -0.2512906,-0.113792 z" style="font-weight:bold;font-size:2.37067px;font-family:'Proxima Nova';dominant-baseline:hanging;text-anchor:middle;fill:#994d00"/>
    </g>
    <g style="font-weight:bold;font-size:2.37067px;font-family:'Proxima Nova';dominant-baseline:alphabetic;text-anchor:middle;fill:#994d00">
      <path d="m 8.8140094,51.777157 c 0.149352,0.149352 0.3674533,0.251291 0.6708987,0.251291 0.42672,0 0.6329679,-0.218101 0.6329679,-0.507323 0,-0.350858 -0.3318932,-0.42909 -0.5926666,-0.488357 -0.1825413,-0.04267 -0.3152987,-0.07586 -0.3152987,-0.182541 0,-0.09483 0.080603,-0.161206 0.2323254,-0.161206 0.1540933,0 0.3247813,0.05453 0.4527973,0.173059 L 10.082316,50.615531 C 9.9258521,50.47092 9.7172334,50.395059 9.4659428,50.395059 c -0.3721947,0 -0.5997787,0.21336 -0.5997787,0.476504 0,0.353229 0.3318933,0.424349 0.590296,0.483616 0.1825413,0.04267 0.32004,0.08297 0.32004,0.201506 0,0.09009 -0.090085,0.1778 -0.2749973,0.1778 -0.2181014,0 -0.3911601,-0.0972 -0.5025814,-0.21336 z" style="font-weight:bold;font-size:2.37067px;font-family:'Proxima Nova';dominant-baseline:alphabetic;text-anchor:middle;fill:#994d00"/>
    </g>
    <g style="font-weight:bold;font-size:2.37067px;font-family:'Proxima Nova';dominant-baseline:hanging;text-anchor:middle;fill:#994d00">
      <path d="m 21.90753,61.608891 h 0.858181 c 0.301075,0 0.459909,-0.189653 0.459909,-0.42672 0,-0.199136 -0.135128,-0.362712 -0.303445,-0.388789 0.149352,-0.03082 0.272627,-0.163576 0.272627,-0.362712 0,-0.210989 -0.154094,-0.403013 -0.455168,-0.403013 H 21.90753 Z m 0.336634,-0.945896 v -0.348488 h 0.421979 c 0.113792,0 0.184912,0.07586 0.184912,0.173059 0,0.101939 -0.07112,0.175429 -0.184912,0.175429 z m 0,0.659046 v -0.372195 h 0.433832 c 0.132758,0 0.203878,0.08534 0.203878,0.184912 0,0.113792 -0.07586,0.187283 -0.203878,0.187283 z" style="font-weight:bold;font-size:2.37067px;font-family:'Proxima Nova';dominant-baseline:hanging;text-anchor:middle;fill:#994d00"/>
      <path d="m 23.47717,61.608891 h 0.336635 V 60.027657 H 23.47717 Z" style="font-weight:bold;font-size:2.37067px;font-family:'Proxima Nova';dominant-baseline:hanging;text-anchor:middle;fill:#994d00"/>
    </g>
    <g style="font-weight:bold;font-size:2.37067px;font-family:'Proxima Nova';dominant-baseline:alphabetic;text-anchor:middle;fill:#994d00">
      <path d="m 20.965282,51.369403 c 0,0.388789 0.225214,0.659045 0.70883,0.659045 0.478874,0 0.704088,-0.267885 0.704088,-0.661416 v -0.948267 h -0.341376 v 0.938784 c 0,0.220472 -0.120904,0.372195 -0.362712,0.372195 -0.24655,0 -0.367454,-0.151723 -0.367454,-0.372195 v -0.938784 h -0.341376 z" style="font-weight:bold;font-size:2.37067px;font-family:'Proxima Nova';dominant-baseline:alphabetic;text-anchor:middle;fill:#994d00"/>
      <path d="m 23.782857,52 h 0.324781 v -1.581235 h -0.336635 v 1.024128 L 23.038467,50.418765 H 22.69235 V 52 h 0.336635 v -1.062059 z" style="font-weight:bold;font-size:2.37067px;font-family:'Proxima Nova';dominant-baseline:alphabetic;text-anchor:middle;fill:#994d00"/>
      <path d="m 24.419418,52 h 0.336634 v -1.581235 h -0.336634 z" style="font-weight:bold;font-size:2.37067px;font-family:'Proxima Nova';dominant-baseline:alphabetic;text-anchor:middle;fill:#994d00"/>
    </g>
    <rect x="31.042666666666666" y="48.21955555555556" width="10.4" height="12.980444444444444" rx="1" ry="1" fill="#994d00" stroke="#994d00" stroke-width="0.35"/>
    <g style="font-weight:bold;font-size:2.37067px;font-family:'Proxima Nova';dominant-baseline:alphabetic;text-anchor:middle;fill:#fff7f0">
      <path d="m 33.862315,50.010567 c 0,0.476504 0.348488,0.81788 0.824992,0.81788 0.478875,0 0.827363,-0.341376 0.827363,-0.81788 0,-0.476504 -0.348488,-0.81788 -0.827363,-0.81788 -0.476504,0 -0.824992,0.341376 -0.824992,0.81788 z m 1.306237,0 c 0,0.293963 -0.189653,0.519176 -0.481245,0.519176 -0.291592,0 -0.478875,-0.225213 -0.478875,-0.519176 0,-0.296333 0.187283,-0.519176 0.478875,-0.519176 0.291592,0 0.481245,0.222843 0.481245,0.519176 z" style="font-weight:bold;font-size:2.37067px;font-family:'Proxima Nova';dominant-baseline:alphabetic;text-anchor:middle;fill:#fff7f0"/>
      <path d="m 35.753218,50.169402 c 0,0.388789 0.225213,0.659045 0.708829,0.659045 0.478875,0 0.704089,-0.267885 0.704089,-0.661416 v -0.948266 h -0.341377 v 0.938784 c 0,0.220472 -0.120904,0.372194 -0.362712,0.372194 -0.246549,0 -0.367453,-0.151722 -0.367453,-0.372194 v -0.938784 h -0.341376 z" style="font-weight:bold;font-size:2.37067px;font-family:'Proxima Nova';dominant-baseline:alphabetic;text-anchor:middle;fill:#fff7f0"/>
      <path d="m 37.845369,50.799999 h 0.339005 v -1.284901 h 0.459909 v -0.296333 h -1.261194 v 0.296333 h 0.46228 z" style="font-weight:bold;font-size:2.37067px;font-family:'Proxima Nova';dominant-baseline:alphabetic;text-anchor:middle;fill:#fff7f0"/>
    </g>
    <line x1="0.25" y1="64.25" x2="45.47" y2="64.25" stroke="#994d00" stroke-width="0.35"/>
    <line x1="9.477333333333334" y1="76" x2="36.242666666666665" y2="76" stroke="#994d00" stroke-width="0.35"/>
    <g style="font-weight:bold;font-size:2.37067px;font-family:'Proxima Nova';dominant-baseline:alphabetic;text-anchor:middle;fill:#994d00">
      <path d="m 8.7670961,70.828451 c 0.3603414,0 0.5594774,-0.192024 0.6732694,-0.388789 l -0.2892214,-0.13987 c -0.066379,0.130387 -0.2086186,0.229955 -0.384048,0.229955 -0.2749973,0 -0.483616,-0.220472 -0.483616,-0.519176 0,-0.298704 0.2086187,-0.519176 0.483616,-0.519176 0.1754294,0 0.3176694,0.101939 0.384048,0.229955 l 0.2892214,-0.14224 c -0.1114214,-0.196766 -0.312928,-0.386419 -0.6732694,-0.386419 -0.46228,0 -0.8297333,0.331893 -0.8297333,0.81788 0,0.485987 0.3674533,0.81788 0.8297333,0.81788 z" style="font-weight:bold;font-size:2.37067px;font-family:'Proxima Nova';dominant-baseline:alphabetic;text-anchor:middle;fill:#994d00"/>
      <path d="m 10.077112,70.800003 h 0.421978 l 0.609262,-1.581235 H 10.724304 L 10.288101,70.43492 9.8495277,69.218768 h -0.384048 z" style="font-weight:bold;font-size:2.37067px;font-family:'Proxima Nova';dominant-baseline:alphabetic;text-anchor:middle;fill:#994d00"/>
    </g>
    <g style="font-weight:bold;font-size:3.048px;font-family:'Proxima Nova';dominant-baseline:alphabetic;text-anchor:middle;fill:#994d00">
      <path d="m 20.963097,70.926976 h 0.73152 v -0.329184 h -0.73152 z" style="font-weight:bold;font-size:3.048px;font-family:'Proxima Nova';dominant-baseline:alphabetic;text-anchor:middle;fill:#994d00"/>
      <path d="m 24.214646,70.591696 h 0.545592 v -0.240792 h -0.545592 v -0.59436 H 23.94947 v 0.59436 h -0.54864 v 0.240792 h 0.54864 v 0.618744 h 0.265176 z" style="font-weight:bold;font-size:3.048px;font-family:'Proxima Nova';dominant-baseline:alphabetic;text-anchor:middle;fill:#994d00"/>
    </g>
    <g style="font-weight:bold;font-size:2.37067px;font-family:'Proxima Nova';dominant-baseline:alphabetic;text-anchor:middle;fill:#994d00">
      <path d="M 32.963517,70 H 33.96868 V 69.703667 H 33.300152 V 68.418765 H 32.963517 Z" style="font-weight:bold;font-size:2.37067px;font-family:'Proxima Nova';dominant-baseline:alphabetic;text-anchor:middle;fill:#994d00"/>
      <path d="m 34.204413,70 h 1.118955 v -0.291592 h -0.78232 v -0.367453 h 0.765725 v -0.289222 h -0.765725 v -0.343746 h 0.78232 v -0.289222 h -1.118955 z" style="font-weight:bold;font-size:2.37067px;font-family:'Proxima Nova';dominant-baseline:alphabetic;text-anchor:middle;fill:#994d00"/>
      <path d="m 36.03216,70 h 0.421979 L 37.0634,68.418765 h -0.384048 l -0.436202,1.216152 -0.438574,-1.216152 h -0.384048 z" style="font-weight:bold;font-size:2.37067px;font-family:'Proxima Nova';dominant-baseline:alphabetic;text-anchor:middle;fill:#994d00"/>
      <path d="m 37.209419,70 h 1.118954 v -0.291592 h -0.78232 v -0.367453 h 0.765726 v -0.289222 h -0.765726 v -0.343746 h 0.78232 v -0.289222 h -1.118954 z" style="font-weight:bold;font-size:2.37067px;font-family:'Proxima Nova';dominant-baseline:alphabetic;text-anchor:middle;fill:#994d00"/>
      <path d="m 38.593851,70 h 1.005163 v -0.296333 h -0.668528 v -1.284902 h -0.336635 z" style="font-weight:bold;font-size:2.37067px;font-family:'Proxima Nova';dominant-baseline:alphabetic;text-anchor:middle;fill:#994d00"/>
    </g>
    <line x1="9.477333333333334" y1="92" x2="36.242666666666665" y2="92" stroke="#994d00" stroke-width="0.35"/>
    <g style="font-weight:bold;font-size:2.37067px;font-family:'Proxima Nova';dominant-baseline:alphabetic;text-anchor:middle;fill:#994d00">
      <path d="m 8.7670961,86.828451 c 0.3603414,0 0.5594774,-0.192024 0.6732694,-0.388789 l -0.2892214,-0.13987 c -0.066379,0.130387 -0.2086186,0.229955 -0.384048,0.229955 -0.2749973,0 -0.483616,-0.220472 -0.483616,-0.519176 0,-0.298704 0.2086187,-0.519176 0.483616,-0.519176 0.1754294,0 0.3176694,0.101939 0.384048,0.229955 l 0.2892214,-0.14224 c -0.1114214,-0.196766 -0.312928,-0.386419 -0.6732694,-0.386419 -0.46228,0 -0.8297333,0.331893 -0.8297333,0.81788 0,0.485987 0.3674533,0.81788 0.8297333,0.81788 z" style="font-weight:bold;font-size:2.37067px;font-family:'Proxima Nova';dominant-baseline:alphabetic;text-anchor:middle;fill:#994d00"/>
      <path d="m 10.077112,86.800003 h 0.421978 l 0.609262,-1.581235 H 10.724304 L 10.288101,86.43492 9.8495277,85.218768 h -0.384048 z" style="font-weight:bold;font-size:2.37067px;font-family:'Proxima Nova';dominant-baseline:alphabetic;text-anchor:middle;fill:#994d00"/>
    </g>
    <g style="font-weight:bold;font-size:3.048px;font-family:'Proxima Nova';dominant-baseline:alphabetic;text-anchor:middle;fill:#994d00">
      <path d="m 20.963097,86.926976 h 0.73152 v -0.329184 h -0.73152 z" style="font-weight:bold;font-size:3.048px;font-family:'Proxima Nova';dominant-baseline:alphabetic;text-anchor:middle;fill:#994d00"/>
      <path d="m 24.214646,86.591696 h 0.545592 v -0.240792 h -0.545592 v -0.59436 H 23.94947 v 0.59436 h -0.54864 v 0.240792 h 0.54864 v 0.618744 h 0.265176 z" style="font-weight:bold;font-size:3.048px;font-family:'Proxima Nova';dominant-baseline:alphabetic;text-anchor:middle;fill:#994d00"/>
    </g>
    <g style="font-weight:bold;font-size:2.37067px;font-family:'Proxima Nova';dominant-baseline:alphabetic;text-anchor:middle;fill:#994d00">
      <path d="m 33.221957,86.028448 c 0.360342,0 0.559478,-0.192024 0.67327,-0.388789 l -0.289222,-0.13987 c -0.06638,0.130387 -0.208618,0.229955 -0.384048,0.229955 -0.274997,0 -0.483616,-0.220472 -0.483616,-0.519176 0,-0.298704 0.208619,-0.519176 0.483616,-0.519176 0.17543,0 0.31767,0.101939 0.384048,0.229955 l 0.289222,-0.14224 c -0.111422,-0.196766 -0.312928,-0.386419 -0.67327,-0.386419 -0.46228,0 -0.829733,0.331893 -0.829733,0.81788 0,0.485987 0.367453,0.81788 0.829733,0.81788 z" style="font-weight:bold;font-size:2.37067px;font-family:'Proxima Nova';dominant-baseline:alphabetic;text-anchor:middle;fill:#994d00"/>
      <path d="m 34.097918,85.369403 c 0,0.388789 0.225214,0.659045 0.70883,0.659045 0.478875,0 0.704088,-0.267885 0.704088,-0.661416 V 84.418765 H 35.16946 v 0.938784 c 0,0.220472 -0.120904,0.372195 -0.362712,0.372195 -0.246549,0 -0.367453,-0.151723 -0.367453,-0.372195 v -0.938784 h -0.341377 z" style="font-weight:bold;font-size:2.37067px;font-family:'Proxima Nova';dominant-baseline:alphabetic;text-anchor:middle;fill:#994d00"/>
      <path d="m 36.718728,86 h 0.386418 l -0.3556,-0.602149 c 0.170688,-0.0403 0.346118,-0.189654 0.346118,-0.469392 0,-0.293963 -0.201507,-0.509694 -0.53103,-0.509694 H 35.824986 V 86 h 0.336635 v -0.566589 h 0.246549 z m 0.03319,-1.073912 c 0,0.132757 -0.101939,0.218101 -0.237067,0.218101 h -0.353229 v -0.436202 h 0.353229 c 0.135128,0 0.237067,0.08534 0.237067,0.218101 z" style="font-weight:bold;font-size:2.37067px;font-family:'Proxima Nova';dominant-baseline:alphabetic;text-anchor:middle;fill:#994d00"/>
      <path d="m 37.768488,86 h 0.421979 l 0.609261,-1.581235 H 38.41568 l -0.436202,1.216152 -0.438574,-1.216152 h -0.384048 z" style="font-weight:bold;font-size:2.37067px;font-family:'Proxima Nova';dominant-baseline:alphabetic;text-anchor:middle;fill:#994d00"/>
      <path d="m 38.945747,86 h 1.118954 v -0.291592 h -0.78232 v -0.367453 h 0.765726 v -0.289222 h -0.765726 v -0.343746 h 0.78232 v -0.289222 h -1.118954 z" style="font-weight:bold;font-size:2.37067px;font-family:'Proxima Nova';dominant-baseline:alphabetic;text-anchor:middle;fill:#994d00"/>
    </g>
    <g style="font-weight:bold;font-size:2.37067px;font-family:'Proxima Nova';dominant-baseline:hanging;text-anchor:middle;fill:#994d00">
      <path d="m 8.9150961,113.48325 c 0.113792,0.11142 0.263144,0.15409 0.4243494,0.15409 0.3247813,0 0.5571066,-0.17306 0.5571066,-0.54762 v -1.06206 H 9.5599175 v 1.05732 c 0,0.15409 -0.097197,0.25366 -0.2465494,0.25366 -0.1090506,0 -0.1896533,-0.0545 -0.2512906,-0.11379 z" style="font-weight:bold;font-size:2.37067px;font-family:'Proxima Nova';dominant-baseline:hanging;text-anchor:middle;fill:#994d00"/>
    </g>
    <g style="font-weight:bold;font-size:2.37067px;font-family:'Proxima Nova';dominant-baseline:alphabetic;text-anchor:middle;fill:#994d00">
      <path d="m 8.8140094,103.77716 c 0.149352,0.14935 0.3674533,0.25129 0.6708987,0.25129 0.42672,0 0.6329679,-0.2181 0.6329679,-0.50732 0,-0.35086 -0.3318932,-0.4291 -0.5926666,-0.48836 -0.1825413,-0.0427 -0.3152987,-0.0759 -0.3152987,-0.18254 0,-0.0948 0.080603,-0.16121 0.2323254,-0.16121 0.1540933,0 0.3247813,0.0545 0.4527973,0.17306 l 0.1872826,-0.24655 c -0.1564639,-0.14461 -0.3650826,-0.22047 -0.6163732,-0.22047 -0.3721947,0 -0.5997787,0.21336 -0.5997787,0.4765 0,0.35323 0.3318933,0.42435 0.590296,0.48362 0.1825413,0.0427 0.32004,0.083 0.32004,0.20151 0,0.0901 -0.090085,0.1778 -0.2749973,0.1778 -0.2181014,0 -0.3911601,-0.0972 -0.5025814,-0.21336 z" style="font-weight:bold;font-size:2.37067px;font-family:'Proxima Nova';dominant-baseline:alphabetic;text-anchor:middle;fill:#994d00"/>
    </g>
    <g style="font-weight:bold;font-size:2.37067px;font-family:'Proxima Nova';dominant-baseline:hanging;text-anchor:middle;fill:#994d00">
      <path d="m 21.90753,113.6089 h 0.858181 c 0.301075,0 0.459909,-0.18966 0.459909,-0.42672 0,-0.19914 -0.135128,-0.36272 -0.303445,-0.38879 0.149352,-0.0308 0.272627,-0.16358 0.272627,-0.36272 0,-0.21099 -0.154094,-0.40301 -0.455168,-0.40301 H 21.90753 Z m 0.336634,-0.9459 v -0.34849 h 0.421979 c 0.113792,0 0.184912,0.0759 0.184912,0.17306 0,0.10194 -0.07112,0.17543 -0.184912,0.17543 z m 0,0.65904 v -0.37219 h 0.433832 c 0.132758,0 0.203878,0.0853 0.203878,0.18491 0,0.11379 -0.07586,0.18728 -0.203878,0.18728 z" style="font-weight:bold;font-size:2.37067px;font-family:'Proxima Nova';dominant-baseline:hanging;text-anchor:middle;fill:#994d00"/>
      <path d="m 23.47717,113.6089 h 0.336635 v -1.58124 H 23.47717 Z" style="font-weight:bold;font-size:2.37067px;font-family:'Proxima Nova';dominant-baseline:hanging;text-anchor:middle;fill:#994d00"/>
    </g>
    <g style="font-weight:bold;font-size:2.37067px;font-family:'Proxima Nova';dominant-baseline:alphabetic;text-anchor:middle;fill:#994d00">
      <path d="m 20.965282,103.3694 c 0,0.38879 0.225214,0.65905 0.70883,0.65905 0.478874,0 0.704088,-0.26789 0.704088,-0.66142 v -0.94826 h -0.341376 v 0.93878 c 0,0.22047 -0.120904,0.37219 -0.362712,0.37219 -0.24655,0 -0.367454,-0.15172 -0.367454,-0.37219 v -0.93878 h -0.341376 z" style="font-weight:bold;font-size:2.37067px;font-family:'Proxima Nova';dominant-baseline:alphabetic;text-anchor:middle;fill:#994d00"/>
      <path d="m 23.782857,104 h 0.324781 v -1.58123 h -0.336635 v 1.02412 l -0.732536,-1.02412 H 22.69235 V 104 h 0.336635 v -1.06206 z" style="font-weight:bold;font-size:2.37067px;font-family:'Proxima Nova';dominant-baseline:alphabetic;text-anchor:middle;fill:#994d00"/>
      <path d="m 24.419418,104 h 0.336634 v -1.58123 h -0.336634 z" style="font-weight:bold;font-size:2.37067px;font-family:'Proxima Nova';dominant-baseline:alphabetic;text-anchor:middle;fill:#994d00"/>
    </g>
    <rect x="31.042666666666666" y="100.21955555555556" width="10.4" height="12.980444444444444" rx="1" ry="1" fill="#994d00" stroke="#994d00" stroke-width="0.35"/>
    <g style="font-weight:bold;font-size:2.37067px;font-family:'Proxima Nova';dominant-baseline:alphabetic;text-anchor:middle;fill:#fff7f0">
      <path d="m 33.862315,102.01057 c 0,0.47651 0.348488,0.81788 0.824992,0.81788 0.478875,0 0.827363,-0.34137 0.827363,-0.81788 0,-0.4765 -0.348488,-0.81788 -0.827363,-0.81788 -0.476504,0 -0.824992,0.34138 -0.824992,0.81788 z m 1.306237,0 c 0,0.29396 -0.189653,0.51918 -0.481245,0.51918 -0.291592,0 -0.478875,-0.22522 -0.478875,-0.51918 0,-0.29633 0.187283,-0.51917 0.478875,-0.51917 0.291592,0 0.481245,0.22284 0.481245,0.51917 z" style="font-weight:bold;font-size:2.37067px;font-family:'Proxima Nova';dominant-baseline:alphabetic;text-anchor:middle;fill:#fff7f0"/>
      <path d="m 35.753218,102.16941 c 0,0.38879 0.225213,0.65904 0.708829,0.65904 0.478875,0 0.704089,-0.26788 0.704089,-0.66141 v -0.94827 h -0.341377 v 0.93878 c 0,0.22047 -0.120904,0.3722 -0.362712,0.3722 -0.246549,0 -0.367453,-0.15173 -0.367453,-0.3722 v -0.93878 h -0.341376 z" style="font-weight:bold;font-size:2.37067px;font-family:'Proxima Nova';dominant-baseline:alphabetic;text-anchor:middle;fill:#fff7f0"/>
      <path d="m 37.845369,102.8 h 0.339005 v -1.2849 h 0.459909 v -0.29633 h -1.261194 v 0.29633 h 0.46228 z" style="font-weight:bold;font-size:2.37067px;font-family:'Proxima Nova';dominant-baseline:alphabetic;text-anchor:middle;fill:#fff7f0"/>
    </g>
  </g>
  <g>
    <g transform="translate(9.477333 24.000000)">
      <circle r="4.2" fill="#994d00" stroke="none"/>
      <circle r="3.5" fill="none" stroke="#fff7f0" stroke-width="0.95"/>
      <circle r="2.325" fill="none" stroke="#fff7f0" stroke-width="0.95"/>
    </g>
    <g transform="translate(22.860000 24.000000)">
      <circle r="3.5" fill="#994d00"/>
      <line y2="-3.0625" stroke="#fff7f0" stroke-width="0.4375" stroke-linecap="round"/>
    </g>
    <g transform="translate(36.242667 24.000000)">
      <circle r="5" fill="#994d00"/>
      <line y2="-4.375" stroke="#fff7f0" stroke-width="0.625" stroke-linecap="round"/>
    </g>
    <g transform="translate(9.477333 40.000000)">
      <circle r="4.2" fill="#994d00" stroke="none"/>
      <circle r="3.5" fill="none" stroke="#fff7f0" stroke-width="0.95"/>
      <circle r="2.325" fill="none" stroke="#fff7f0" stroke-width="0.95"/>
    </g>
    <g transform="translate(22.860000 40.000000)">
      <circle r="3.5" fill="#994d00"/>
      <line y2="-3.0625" stroke="#fff7f0" stroke-width="0.4375" stroke-linecap="round"/>
    </g>
    <g transform="translate(36.242667 40.000000)">
      <circle r="5" fill="#994d00"/>
      <line y2="-4.375" stroke="#fff7f0" stroke-width="0.625" stroke-linecap="round"/>
    </g>
    <g transform="translate(9.477333 56.000000)">
      <rect x="-1.3125" y="-2.8125" width="2.625" height="5.625" rx="0.1875" ry="0.1875" fill="#fff7f0" stroke="#994d00" stroke-width="0.375"/>
      <g transform="translate(0.000000 1.250000)">
        <line x1="-0.8125" y1="-1" x2="0.8125" y2="-1" stroke="#994d00" stroke-width="0.25" stroke-linecap="round"/>
        <line x1="-0.8125" y1="-0.5" x2="0.8125" y2="-0.5" stroke="#994d00" stroke-width="0.25" stroke-linecap="round"/>
        <line x1="-0.8125" x2="0.8125" stroke="#994d00" stroke-width="0.25" stroke-linecap="round"/>
        <line x1="-0.8125" y1="0.5" x2="0.8125" y2="0.5" stroke="#994d00" stroke-width="0.25" stroke-linecap="round"/>
        <line x1="-0.8125" y1="1" x2="0.8125" y2="1" stroke="#994d00" stroke-width="0.25" stroke-linecap="round"/>
      </g>
    </g>
    <g transform="translate(22.860000 56.000000)">
      <rect x="-1.3125" y="-2.8125" width="2.625" height="5.625" rx="0.1875" ry="0.1875" fill="#fff7f0" stroke="#994d00" stroke-width="0.375"/>
      <g transform="translate(0.000000 1.250000)">
        <line x1="-0.8125" y1="-1" x2="0.8125" y2="-1" stroke="#994d00" stroke-width="0.25" stroke-linecap="round"/>
        <line x1="-0.8125" y1="-0.5" x2="0.8125" y2="-0.5" stroke="#994d00" stroke-width="0.25" stroke-linecap="round"/>
        <line x1="-0.8125" x2="0.8125" stroke="#994d00" stroke-width="0.25" stroke-linecap="round"/>
        <line x1="-0.8125" y1="0.5" x2="0.8125" y2="0.5" stroke="#994d00" stroke-width="0.25" stroke-linecap="round"/>
        <line x1="-0.8125" y1="1" x2="0.8125" y2="1" stroke="#994d00" stroke-width="0.25" stroke-linecap="round"/>
      </g>
    </g>
    <g transform="translate(36.242667 56.000000)">
      <circle r="4.2" fill="#994d00" stroke="none"/>
      <circle r="3.5" fill="none" stroke="#fff7f0" stroke-width="0.95"/>
      <circle r="2.325" fill="none" stroke="#fff7f0" stroke-width="0.95"/>
    </g>
    <g transform="translate(9.477333 76.000000)">
      <circle r="4.2" fill="#994d00" stroke="none"/>
      <circle r="3.5" fill="none" stroke="#fff7f0" stroke-width="0.95"/>
      <circle r="2.325" fill="none" stroke="#fff7f0" stroke-width="0.95"/>
    </g>
    <g transform="translate(22.860000 76.000000)">
      <circle r="3.5" fill="#994d00"/>
      <line y2="-3.0625" stroke="#fff7f0" stroke-width="0.4375" stroke-linecap="round"/>
    </g>
    <g transform="translate(36.242667 76.000000)">
      <circle r="5" fill="#994d00"/>
      <line y2="-4.375" stroke="#fff7f0" stroke-width="0.625" stroke-linecap="round"/>
    </g>
    <g transform="translate(9.477333 92.000000)">
      <circle r="4.2" fill="#994d00" stroke="none"/>
      <circle r="3.5" fill="none" stroke="#fff7f0" stroke-width="0.95"/>
      <circle r="2.325" fill="none" stroke="#fff7f0" stroke-width="0.95"/>
    </g>
    <g transform="translate(22.860000 92.000000)">
      <circle r="3.5" fill="#994d00"/>
      <line y2="-3.0625" stroke="#fff7f0" stroke-width="0.4375" stroke-linecap="round"/>
    </g>
    <g transform="translate(36.242667 92.000000)">
      <circle r="5" fill="#994d00"/>
      <line y2="-4.375" stroke="#fff7f0" stroke-width="0.625" stroke-linecap="round"/>
    </g>
    <g transform="translate(9.477333 108.000000)">
      <rect x="-1.3125" y="-2.8125" width="2.625" height="5.625" rx="0.1875" ry="0.1875" fill="#fff7f0" stroke="#994d00" stroke-width="0.375"/>
      <g transform="translate(0.000000 1.250000)">
        <line x1="-0.8125" y1="-1" x2="0.8125" y2="-1" stroke="#994d00" stroke-width="0.25" stroke-linecap="round"/>
        <line x1="-0.8125" y1="-0.5" x2="0.8125" y2="-0.5" stroke="#994d00" stroke-width="0.25" stroke-linecap="round"/>
        <line x1="-0.8125" x2="0.8125" stroke="#994d00" stroke-width="0.25" stroke-linecap="round"/>
        <line x1="-0.8125" y1="0.5" x2="0.8125" y2="0.5" stroke="#994d00" stroke-width="0.25" stroke-linecap="round"/>
        <line x1="-0.8125" y1="1" x2="0.8125" y2="1" stroke="#994d00" stroke-width="0.25" stroke-linecap="round"/>
      </g>
    </g>
    <g transform="translate(22.860000 108.000000)">
      <rect x="-1.3125" y="-2.8125" width="2.625" height="5.625" rx="0.1875" ry="0.1875" fill="#fff7f0" stroke="#994d00" stroke-width="0.375"/>
      <g transform="translate(0.000000 1.250000)">
        <line x1="-0.8125" y1="-1" x2="0.8125" y2="-1" stroke="#994d00" stroke-width="0.25" stroke-linecap="round"/>
        <line x1="-0.8125" y1="-0.5" x2="0.8125" y2="-0.5" stroke="#994d00" stroke-width="0.25" stroke-linecap="round"/>
        <line x1="-0.8125" x2="0.8125" stroke="#994d00" stroke-width="0.25" stroke-linecap="round"/>
        <line x1="-0.8125" y1="0.5" x2="0.8125" y2="0.5" stroke="#994d00" stroke-width="0.25" stroke-linecap="round"/>
        <line x1="-0.8125" y1="1" x2="0.8125" y2="1" stroke="#994d00" stroke-width="0.25" stroke-linecap="round"/>
      </g>
    </g>
    <g transform="translate(36.242667 108.000000)">
      <circle r="4.2" fill="#994d00" stroke="none"/>
      <circle r="3.5" fill="none" stroke="#fff7f0" stroke-width="0.95"/>
      <circle r="2.325" fill="none" stroke="#fff7f0" stroke-width="0.95"/>
    </g>
  </g>
</svg>
