<?xml version="1.0" encoding="UTF-8" standalone="no"?>
<svg xmlns="http://www.w3.org/2000/svg" xmlns:svg="http://www.w3.org/2000/svg" version="1.1" viewBox="0.000000 0.000000 50.800000 128.500000" height="128.500000mm" width="50.800000mm">
  <defs/>
  <g>
    <rect x="0.25" y="0.25" width="50.3" height="128" fill="#f0f0ff" stroke="#000099" stroke-width="0.5"/>
    <g style="font-weight:bold;font-size:4.064px;font-family:'Proxima Nova';dominant-baseline:alphabetic;text-anchor:middle;fill:#000099">
      <path d="m 17.943829,9 h 0.581152 V 6.7973119 h 0.788416 v -0.508 h -2.162048 v 0.508 h 0.79248 z" style="font-weight:bold;font-size:4.064px;font-family:'Proxima Nova';dominant-baseline:alphabetic;text-anchor:middle;fill:#000099"/>
      <path d="m 21.215476,9 h 0.662432 l -0.6096,-1.032256 c 0.292608,-0.069088 0.593344,-0.32512 0.593344,-0.8046721 0,-0.503936 -0.34544,-0.87376 -0.910336,-0.87376 H 19.683348 V 9 h 0.577088 V 8.028704 h 0.422656 z m 0.0569,-1.8409921 c 0,0.227584 -0.174752,0.3738881 -0.4064,0.3738881 H 20.260436 V 6.7851199 h 0.605536 c 0.231648,0 0.4064,0.146304 0.4064,0.373888 z" style="font-weight:bold;font-size:4.064px;font-family:'Proxima Nova';dominant-baseline:alphabetic;text-anchor:middle;fill:#000099"/>
      <path d="m 22.294786,7.918976 c 0,0.666496 0.38608,1.129792 1.215136,1.129792 0.820928,0 1.207008,-0.459232 1.207008,-1.133856 V 6.2893119 H 24.131714 V 7.898656 c 0,0.377952 -0.207264,0.638048 -0.621792,0.638048 -0.422656,0 -0.62992,-0.260096 -0.62992,-0.638048 V 6.2893119 h -0.585216 z" style="font-weight:bold;font-size:4.064px;font-family:'Proxima Nova';dominant-baseline:alphabetic;text-anchor:middle;fill:#000099"/>
      <path d="m 25.881329,9 h 0.581152 V 6.7973119 h 0.788416 v -0.508 h -2.162048 v 0.508 h 0.79248 z" style="font-weight:bold;font-size:4.064px;font-family:'Proxima Nova';dominant-baseline:alphabetic;text-anchor:middle;fill:#000099"/>
      <path d="m 29.478097,9 h 0.581152 V 6.2893119 h -0.581152 v 1.064768 h -1.28016 V 6.2893119 H 27.620849 V 9 h 0.577088 V 7.86208 h 1.28016 z" style="font-weight:bold;font-size:4.064px;font-family:'Proxima Nova';dominant-baseline:alphabetic;text-anchor:middle;fill:#000099"/>
      <path d="m 31.442342,8.61392 c 0.199136,0.24384 0.56896,0.434848 1.068832,0.434848 0.65024,0 1.068832,-0.329184 1.068832,-0.796544 0,-0.4064 -0.357632,-0.621792 -0.633984,-0.65024 0.300736,-0.052832 0.593344,-0.2763521 0.593344,-0.6177281 0,-0.451104 -0.390144,-0.735584 -1.024128,-0.735584 -0.475488,0 -0.816864,0.18288 -1.03632,0.430784 l 0.28448,0.357632 c 0.191008,-0.18288 0.42672,-0.28448 0.69088,-0.28448 0.28448,0 0.503936,0.109728 0.503936,0.32512 0,0.2032 -0.199136,0.300736 -0.499872,0.300736 -0.105664,0 -0.288544,0 -0.337312,-0.00406 V 7.878336 c 0.04064,-0.00406 0.22352,-0.00406 0.337312,-0.00406 0.377952,0 0.544576,0.1016 0.544576,0.321056 0,0.207264 -0.18288,0.349504 -0.512064,0.349504 -0.26416,0 -0.560832,-0.113792 -0.747776,-0.308864 z" style="font-weight:bold;font-size:4.064px;font-family:'Proxima Nova';dominant-baseline:alphabetic;text-anchor:middle;fill:#000099"/>
    </g>
    <g style="font-weight:bold;font-size:4.064px;font-family:'Proxima Nova';dominant-baseline:hanging;text-anchor:middle;fill:#000099">
      <path d="m 21.536755,122.2581 h 1.068832 c 0.849376,0 1.438656,-0.53645 1.438656,-1.35331 0,-0.81687 -0.58928,-1.35738 -1.438656,-1.35738 h -1.068832 z m 0.577088,-0.508 v -1.69469 h 0.491744 c 0.556768,0 0.849376,0.36983 0.849376,0.84938 0,0.45923 -0.312928,0.84531 -0.849376,0.84531 z" style="font-weight:bold;font-size:4.064px;font-family:'Proxima Nova';dominant-baseline:hanging;text-anchor:middle;fill:#000099"/>
      <path d="m 26.315003,122.2581 h 0.581152 v -2.71069 h -0.581152 v 1.06477 h -1.28016 v -1.06477 h -0.577088 v 2.71069 h 0.577088 v -1.13792 h 1.28016 z" style="font-weight:bold;font-size:4.064px;font-family:'Proxima Nova';dominant-baseline:hanging;text-anchor:middle;fill:#000099"/>
      <path d="m 27.42638,122.2581 h 1.918208 v -0.49987 h -1.34112 v -0.62992 h 1.312672 v -0.49581 h -1.312672 v -0.58928 h 1.34112 v -0.49581 H 27.42638 Z" style="font-weight:bold;font-size:4.064px;font-family:'Proxima Nova';dominant-baseline:hanging;text-anchor:middle;fill:#000099"/>
    </g>
    <rect x="4.96" y="67.768" width="17.4" height="13.432" rx="1" ry="1" fill="#f0f0ff" stroke="#000099" stroke-width="0.35"/>
    <g style="font-weight:bold;font-size:3.048px;font-family:'Proxima Nova';dominant-baseline:alphabetic;text-anchor:middle;fill:#000099">
      <path d="m 10.742787,70.800003 h 0.47244 L 10.431891,68.766987 H 9.889347 L 9.1029629,70.800003 H 9.578451 l 0.128016,-0.35052 h 0.908304 z m -0.582168,-1.658112 0.33528,0.932688 H 9.822291 Z" style="font-weight:bold;font-size:3.048px;font-family:'Proxima Nova';dominant-baseline:alphabetic;text-anchor:middle;fill:#000099"/>
    </g>
    <rect x="4.96" y="83.268" width="17.4" height="13.432" rx="1" ry="1" fill="#f0f0ff" stroke="#000099" stroke-width="0.35"/>
    <g style="font-weight:bold;font-size:3.048px;font-family:'Proxima Nova';dominant-baseline:alphabetic;text-anchor:middle;fill:#000099">
      <path d="m 9.3521131,86.300003 h 1.1033759 c 0.387096,0 0.591312,-0.24384 0.591312,-0.54864 0,-0.256032 -0.173736,-0.466344 -0.390144,-0.499872 0.192024,-0.03962 0.35052,-0.210312 0.35052,-0.466344 0,-0.271272 -0.19812,-0.51816 -0.585216,-0.51816 H 9.3521131 Z m 0.432816,-1.216152 v -0.448056 h 0.5425439 c 0.146304,0 0.237744,0.09754 0.237744,0.222504 0,0.131064 -0.09144,0.225552 -0.237744,0.225552 z m 0,0.847344 v -0.478536 h 0.5577839 c 0.170688,0 0.262128,0.109728 0.262128,0.237744 0,0.146304 -0.09754,0.240792 -0.262128,0.240792 z" style="font-weight:bold;font-size:3.048px;font-family:'Proxima Nova';dominant-baseline:alphabetic;text-anchor:middle;fill:#000099"/>
    </g>
    <rect x="4.96" y="98.768" width="17.4" height="13.432" rx="1" ry="1" fill="#f0f0ff" stroke="#000099" stroke-width="0.35"/>
    <g style="font-weight:bold;font-size:3.048px;font-family:'Proxima Nova';dominant-baseline:alphabetic;text-anchor:middle;fill:#000099">
      <path d="m 7.5353147,101.83658 c 0.463296,0 0.719328,-0.24689 0.865632,-0.49987 l -0.371856,-0.17983 c -0.085344,0.16764 -0.268224,0.29565 -0.493776,0.29565 -0.353568,0 -0.621792,-0.28346 -0.621792,-0.66751 0,-0.38405 0.268224,-0.66751 0.621792,-0.66751 0.225552,0 0.408432,0.13106 0.493776,0.29565 l 0.371856,-0.18288 c -0.143256,-0.252981 -0.402336,-0.496821 -0.865632,-0.496821 -0.59436,0 -1.0668001,0.426721 -1.0668001,1.051561 0,0.62484 0.4724401,1.05156 1.0668001,1.05156 z" style="font-weight:bold;font-size:3.048px;font-family:'Proxima Nova';dominant-baseline:alphabetic;text-anchor:middle;fill:#000099"/>
      <path d="m 8.4603826,101.86096 h 0.280416 L 9.4631747,99.706027 H 9.1827586 Z" style="font-weight:bold;font-size:3.048px;font-family:'Proxima Nova';dominant-baseline:alphabetic;text-anchor:middle;fill:#000099"/>
      <path d="m 9.5641396,100.78502 c 0,0.64008 0.4876804,1.05461 1.0820404,1.05461 0.368808,0 0.658368,-0.1524 0.865632,-0.38405 v -0.77724 h -0.969264 v 0.37186 h 0.542544 v 0.24688 c -0.08839,0.0793 -0.252984,0.15545 -0.438912,0.15545 -0.368808,0 -0.637032,-0.28346 -0.637032,-0.66751 0,-0.38405 0.268224,-0.66751 0.637032,-0.66751 0.21336,0 0.387096,0.11277 0.481584,0.25603 l 0.359664,-0.19507 c -0.155448,-0.240795 -0.420624,-0.445011 -0.841248,-0.445011 -0.59436,0 -1.0820404,0.408431 -1.0820404,1.051561 z" style="font-weight:bold;font-size:3.048px;font-family:'Proxima Nova';dominant-baseline:alphabetic;text-anchor:middle;fill:#000099"/>
      <path d="m 13.257983,101.8 h 0.47244 L 12.947087,99.766987 H 12.404543 L 11.618159,101.8 h 0.475488 l 0.128016,-0.35052 h 0.908304 z m -0.582168,-1.65811 0.33528,0.93269 h -0.673608 z" style="font-weight:bold;font-size:3.048px;font-family:'Proxima Nova';dominant-baseline:alphabetic;text-anchor:middle;fill:#000099"/>
      <path d="m 14.191099,101.8 h 0.435864 v -1.65201 h 0.591312 v -0.381003 h -1.621536 v 0.381003 h 0.59436 z" style="font-weight:bold;font-size:3.048px;font-family:'Proxima Nova';dominant-baseline:alphabetic;text-anchor:middle;fill:#000099"/>
      <path d="m 15.495739,101.8 h 1.438656 v -0.3749 h -1.00584 v -0.47244 h 0.984504 v -0.37186 h -0.984504 v -0.44196 h 1.00584 v -0.371853 h -1.438656 z" style="font-weight:bold;font-size:3.048px;font-family:'Proxima Nova';dominant-baseline:alphabetic;text-anchor:middle;fill:#000099"/>
    </g>
    <rect x="5.08" y="22.54" width="30.48" height="40.64" fill="#f0f0ff" stroke="#000099" stroke-width="0.35"/>
    <line x1="15.24" y1="22.54" x2="15.24" y2="63.18" stroke="#000099" stroke-width="0.35"/>
    <line x1="25.4" y1="22.54" x2="25.4" y2="63.18" stroke="#000099" stroke-width="0.35"/>
    <line x1="5.08" y1="27.619999999999997" x2="35.56" y2="27.619999999999997" stroke="#000099" stroke-width="0.35"/>
    <line x1="5.08" y1="32.7" x2="35.56" y2="32.7" stroke="#000099" stroke-width="0.35"/>
    <line x1="5.08" y1="37.78" x2="35.56" y2="37.78" stroke="#000099" stroke-width="0.35"/>
    <line x1="5.08" y1="42.86" x2="35.56" y2="42.86" stroke="#000099" stroke-width="0.35"/>
    <line x1="5.08" y1="47.94" x2="35.56" y2="47.94" stroke="#000099" stroke-width="0.35"/>
    <line x1="5.08" y1="53.019999999999996" x2="35.56" y2="53.019999999999996" stroke="#000099" stroke-width="0.35"/>
    <line x1="5.08" y1="58.1" x2="35.56" y2="58.1" stroke="#000099" stroke-width="0.35"/>
    <rect x="5.08" y="17.46" width="40.64" height="5.08" fill="#000099" stroke="#000099" stroke-width="0.35"/>
    <g style="font-weight:bold;font-size:3.048px;font-family:'Proxima Nova';dominant-baseline:middle;text-anchor:middle;fill:#f0f0ff">
      <path d="m 10.742787,21.101853 h 0.47244 L 10.431891,19.068837 H 9.889347 L 9.1029629,21.101853 H 9.578451 l 0.128016,-0.35052 h 0.908304 z m -0.582168,-1.658112 0.33528,0.932688 H 9.822291 Z" style="font-weight:bold;font-size:3.048px;font-family:'Proxima Nova';dominant-baseline:middle;text-anchor:middle;fill:#f0f0ff"/>
    </g>
    <g style="font-weight:bold;font-size:3.048px;font-family:'Proxima Nova';dominant-baseline:middle;text-anchor:middle;fill:#f0f0ff">
      <path d="m 19.512113,21.101853 h 1.103376 c 0.387096,0 0.591312,-0.24384 0.591312,-0.54864 0,-0.256032 -0.173736,-0.466344 -0.390144,-0.499872 0.192024,-0.03962 0.35052,-0.210312 0.35052,-0.466344 0,-0.271272 -0.19812,-0.51816 -0.585216,-0.51816 h -1.069848 z m 0.432816,-1.216152 v -0.448056 h 0.542544 c 0.146304,0 0.237744,0.09754 0.237744,0.222504 0,0.131064 -0.09144,0.225552 -0.237744,0.225552 z m 0,0.847344 v -0.478536 h 0.557784 c 0.170688,0 0.262128,0.109728 0.262128,0.237744 0,0.146304 -0.09754,0.240792 -0.262128,0.240792 z" style="font-weight:bold;font-size:3.048px;font-family:'Proxima Nova';dominant-baseline:middle;text-anchor:middle;fill:#f0f0ff"/>
    </g>
    <g style="font-weight:bold;font-size:3.048px;font-family:'Proxima Nova';dominant-baseline:middle;text-anchor:middle;fill:#f0f0ff">
      <path d="m 41.701275,20.086869 c 0,-0.612648 -0.448056,-1.05156 -1.063752,-1.05156 -0.612648,0 -1.060704,0.438912 -1.060704,1.05156 0,0.612648 0.448056,1.05156 1.060704,1.05156 0.176784,0 0.341376,-0.03658 0.484632,-0.103632 l 0.161544,0.192024 0.301752,-0.246888 -0.149352,-0.173736 c 0.16764,-0.18288 0.265176,-0.432816 0.265176,-0.719328 z m -1.063752,0.667512 c -0.374904,0 -0.615696,-0.28956 -0.615696,-0.667512 0,-0.381 0.240792,-0.667512 0.615696,-0.667512 0.374904,0 0.618744,0.286512 0.618744,0.667512 0,0.146304 -0.03658,0.280416 -0.103632,0.387096 l -0.231648,-0.271272 -0.301752,0.24384 0.231648,0.271272 c -0.06401,0.02438 -0.13716,0.03658 -0.21336,0.03658 z" style="font-weight:bold;font-size:3.048px;font-family:'Proxima Nova';dominant-baseline:middle;text-anchor:middle;fill:#f0f0ff"/>
    </g>
    <rect x="35.56" y="22.54" width="10.16" height="40.64" fill="#000099" stroke="#000099" stroke-width="0.35"/>
    <g style="font-weight:bold;font-size:3.048px;font-family:'Proxima Nova';dominant-baseline:middle;text-anchor:middle;fill:#000099">
      <path d="m 29.812011,26.181853 h 0.432816 v -0.847344 h 0.984504 v -0.371856 h -0.984504 v -0.44196 h 1.00584 v -0.371856 h -1.438656 z" style="font-weight:bold;font-size:3.048px;font-family:'Proxima Nova';dominant-baseline:middle;text-anchor:middle;fill:#000099"/>
    </g>
    <g style="font-weight:bold;font-size:3.048px;font-family:'Proxima Nova';dominant-baseline:middle;text-anchor:middle;fill:#000099">
      <path d="m 19.652011,26.181853 h 0.432816 v -0.847344 h 0.984504 v -0.371856 h -0.984504 v -0.44196 h 1.00584 v -0.371856 h -1.438656 z" style="font-weight:bold;font-size:3.048px;font-family:'Proxima Nova';dominant-baseline:middle;text-anchor:middle;fill:#000099"/>
    </g>
    <g style="font-weight:bold;font-size:3.048px;font-family:'Proxima Nova';dominant-baseline:middle;text-anchor:middle;fill:#000099">
      <path d="m 9.4920116,26.181853 h 0.432816 V 25.334509 H 10.909332 V 24.962653 H 9.9248276 v -0.44196 H 10.930668 V 24.148837 H 9.4920116 Z" style="font-weight:bold;font-size:3.048px;font-family:'Proxima Nova';dominant-baseline:middle;text-anchor:middle;fill:#000099"/>
    </g>
    <g style="font-weight:bold;font-size:3.048px;font-family:'Proxima Nova';dominant-baseline:middle;text-anchor:middle;fill:#000099">
      <path d="m 30.263544,31.261853 h 0.435864 v -1.652016 h 0.591312 v -0.381 h -1.621536 v 0.381 h 0.59436 z" style="font-weight:bold;font-size:3.048px;font-family:'Proxima Nova';dominant-baseline:middle;text-anchor:middle;fill:#000099"/>
    </g>
    <g style="font-weight:bold;font-size:3.048px;font-family:'Proxima Nova';dominant-baseline:middle;text-anchor:middle;fill:#000099">
      <path d="m 19.652011,31.261853 h 0.432816 v -0.847344 h 0.984504 v -0.371856 h -0.984504 v -0.44196 h 1.00584 v -0.371856 h -1.438656 z" style="font-weight:bold;font-size:3.048px;font-family:'Proxima Nova';dominant-baseline:middle;text-anchor:middle;fill:#000099"/>
    </g>
    <g style="font-weight:bold;font-size:3.048px;font-family:'Proxima Nova';dominant-baseline:middle;text-anchor:middle;fill:#000099">
      <path d="m 9.4920116,31.261853 h 0.432816 V 30.414509 H 10.909332 V 30.042653 H 9.9248276 v -0.44196 H 10.930668 V 29.228837 H 9.4920116 Z" style="font-weight:bold;font-size:3.048px;font-family:'Proxima Nova';dominant-baseline:middle;text-anchor:middle;fill:#000099"/>
    </g>
    <g style="font-weight:bold;font-size:3.048px;font-family:'Proxima Nova';dominant-baseline:middle;text-anchor:middle;fill:#000099">
      <path d="m 29.812011,36.341851 h 0.432816 v -0.847344 h 0.984504 v -0.371856 h -0.984504 v -0.44196 h 1.00584 v -0.371856 h -1.438656 z" style="font-weight:bold;font-size:3.048px;font-family:'Proxima Nova';dominant-baseline:middle;text-anchor:middle;fill:#000099"/>
    </g>
    <g style="font-weight:bold;font-size:3.048px;font-family:'Proxima Nova';dominant-baseline:middle;text-anchor:middle;fill:#000099">
      <path d="m 20.103544,36.341851 h 0.435864 v -1.652016 h 0.591312 v -0.381 h -1.621536 v 0.381 h 0.59436 z" style="font-weight:bold;font-size:3.048px;font-family:'Proxima Nova';dominant-baseline:middle;text-anchor:middle;fill:#000099"/>
    </g>
    <g style="font-weight:bold;font-size:3.048px;font-family:'Proxima Nova';dominant-baseline:middle;text-anchor:middle;fill:#000099">
      <path d="m 9.4920116,36.341851 h 0.432816 V 35.494507 H 10.909332 V 35.122651 H 9.9248276 v -0.44196 H 10.930668 V 34.308835 H 9.4920116 Z" style="font-weight:bold;font-size:3.048px;font-family:'Proxima Nova';dominant-baseline:middle;text-anchor:middle;fill:#000099"/>
    </g>
    <g style="font-weight:bold;font-size:3.048px;font-family:'Proxima Nova';dominant-baseline:middle;text-anchor:middle;fill:#000099">
      <path d="m 30.263544,41.421853 h 0.435864 v -1.652017 h 0.591312 v -0.381 h -1.621536 v 0.381 h 0.59436 z" style="font-weight:bold;font-size:3.048px;font-family:'Proxima Nova';dominant-baseline:middle;text-anchor:middle;fill:#000099"/>
    </g>
    <g style="font-weight:bold;font-size:3.048px;font-family:'Proxima Nova';dominant-baseline:middle;text-anchor:middle;fill:#000099">
      <path d="m 20.103544,41.421853 h 0.435864 v -1.652017 h 0.591312 v -0.381 h -1.621536 v 0.381 h 0.59436 z" style="font-weight:bold;font-size:3.048px;font-family:'Proxima Nova';dominant-baseline:middle;text-anchor:middle;fill:#000099"/>
    </g>
    <g style="font-weight:bold;font-size:3.048px;font-family:'Proxima Nova';dominant-baseline:middle;text-anchor:middle;fill:#000099">
      <path d="m 9.4920116,41.421853 h 0.432816 V 40.574509 H 10.909332 V 40.202652 H 9.9248276 v -0.44196 H 10.930668 V 39.388836 H 9.4920116 Z" style="font-weight:bold;font-size:3.048px;font-family:'Proxima Nova';dominant-baseline:middle;text-anchor:middle;fill:#000099"/>
    </g>
    <g style="font-weight:bold;font-size:3.048px;font-family:'Proxima Nova';dominant-baseline:middle;text-anchor:middle;fill:#000099">
      <path d="m 29.812011,46.501851 h 0.432816 v -0.847344 h 0.984504 V 45.282651 H 30.244827 V 44.84069 h 1.00584 v -0.371856 h -1.438656 z" style="font-weight:bold;font-size:3.048px;font-family:'Proxima Nova';dominant-baseline:middle;text-anchor:middle;fill:#000099"/>
    </g>
    <g style="font-weight:bold;font-size:3.048px;font-family:'Proxima Nova';dominant-baseline:middle;text-anchor:middle;fill:#000099">
      <path d="m 19.652011,46.501851 h 0.432816 v -0.847344 h 0.984504 V 45.282651 H 20.084827 V 44.84069 h 1.00584 v -0.371856 h -1.438656 z" style="font-weight:bold;font-size:3.048px;font-family:'Proxima Nova';dominant-baseline:middle;text-anchor:middle;fill:#000099"/>
    </g>
    <g style="font-weight:bold;font-size:3.048px;font-family:'Proxima Nova';dominant-baseline:middle;text-anchor:middle;fill:#000099">
      <path d="m 9.9435442,46.501851 h 0.4358638 v -1.652017 h 0.591312 v -0.381 H 9.3491842 v 0.381 h 0.59436 z" style="font-weight:bold;font-size:3.048px;font-family:'Proxima Nova';dominant-baseline:middle;text-anchor:middle;fill:#000099"/>
    </g>
    <g style="font-weight:bold;font-size:3.048px;font-family:'Proxima Nova';dominant-baseline:middle;text-anchor:middle;fill:#000099">
      <path d="m 30.263544,51.581852 h 0.435864 v -1.652016 h 0.591312 v -0.381 h -1.621536 v 0.381 h 0.59436 z" style="font-weight:bold;font-size:3.048px;font-family:'Proxima Nova';dominant-baseline:middle;text-anchor:middle;fill:#000099"/>
    </g>
    <g style="font-weight:bold;font-size:3.048px;font-family:'Proxima Nova';dominant-baseline:middle;text-anchor:middle;fill:#000099">
      <path d="m 19.652011,51.581852 h 0.432816 v -0.847344 h 0.984504 v -0.371856 h -0.984504 v -0.44196 h 1.00584 v -0.371856 h -1.438656 z" style="font-weight:bold;font-size:3.048px;font-family:'Proxima Nova';dominant-baseline:middle;text-anchor:middle;fill:#000099"/>
    </g>
    <g style="font-weight:bold;font-size:3.048px;font-family:'Proxima Nova';dominant-baseline:middle;text-anchor:middle;fill:#000099">
      <path d="m 9.9435442,51.581852 h 0.4358638 v -1.652016 h 0.591312 v -0.381 H 9.3491842 v 0.381 h 0.59436 z" style="font-weight:bold;font-size:3.048px;font-family:'Proxima Nova';dominant-baseline:middle;text-anchor:middle;fill:#000099"/>
    </g>
    <g style="font-weight:bold;font-size:3.048px;font-family:'Proxima Nova';dominant-baseline:middle;text-anchor:middle;fill:#000099">
      <path d="m 29.812011,56.66185 h 0.432816 v -0.847344 h 0.984504 V 55.44265 h -0.984504 v -0.44196 h 1.00584 v -0.371856 h -1.438656 z" style="font-weight:bold;font-size:3.048px;font-family:'Proxima Nova';dominant-baseline:middle;text-anchor:middle;fill:#000099"/>
    </g>
    <g style="font-weight:bold;font-size:3.048px;font-family:'Proxima Nova';dominant-baseline:middle;text-anchor:middle;fill:#000099">
      <path d="m 20.103544,56.66185 h 0.435864 v -1.652016 h 0.591312 v -0.381 h -1.621536 v 0.381 h 0.59436 z" style="font-weight:bold;font-size:3.048px;font-family:'Proxima Nova';dominant-baseline:middle;text-anchor:middle;fill:#000099"/>
    </g>
    <g style="font-weight:bold;font-size:3.048px;font-family:'Proxima Nova';dominant-baseline:middle;text-anchor:middle;fill:#000099">
      <path d="m 9.9435442,56.66185 h 0.4358638 v -1.652016 h 0.591312 v -0.381 H 9.3491842 v 0.381 h 0.59436 z" style="font-weight:bold;font-size:3.048px;font-family:'Proxima Nova';dominant-baseline:middle;text-anchor:middle;fill:#000099"/>
    </g>
    <g style="font-weight:bold;font-size:3.048px;font-family:'Proxima Nova';dominant-baseline:middle;text-anchor:middle;fill:#000099">
      <path d="m 30.263544,61.741852 h 0.435864 v -1.652016 h 0.591312 v -0.381 h -1.621536 v 0.381 h 0.59436 z" style="font-weight:bold;font-size:3.048px;font-family:'Proxima Nova';dominant-baseline:middle;text-anchor:middle;fill:#000099"/>
    </g>
    <g style="font-weight:bold;font-size:3.048px;font-family:'Proxima Nova';dominant-baseline:middle;text-anchor:middle;fill:#000099">
      <path d="m 20.103544,61.741852 h 0.435864 v -1.652016 h 0.591312 v -0.381 h -1.621536 v 0.381 h 0.59436 z" style="font-weight:bold;font-size:3.048px;font-family:'Proxima Nova';dominant-baseline:middle;text-anchor:middle;fill:#000099"/>
    </g>
    <g style="font-weight:bold;font-size:3.048px;font-family:'Proxima Nova';dominant-baseline:middle;text-anchor:middle;fill:#000099">
      <path d="m 9.9435442,61.741852 h 0.4358638 v -1.652016 h 0.591312 v -0.381 H 9.3491842 v 0.381 h 0.59436 z" style="font-weight:bold;font-size:3.048px;font-family:'Proxima Nova';dominant-baseline:middle;text-anchor:middle;fill:#000099"/>
    </g>
    <rect x="28.44" y="83.268" width="17.4" height="13.432" rx="1" ry="1" fill="#000099" stroke="#000099" stroke-width="0.35"/>
    <g style="font-weight:bold;font-size:3.048px;font-family:'Proxima Nova';dominant-baseline:alphabetic;text-anchor:middle;fill:#f0f0ff">
      <path d="m 41.701275,85.285019 c 0,-0.612648 -0.448056,-1.05156 -1.063752,-1.05156 -0.612648,0 -1.060704,0.438912 -1.060704,1.05156 0,0.612648 0.448056,1.05156 1.060704,1.05156 0.176784,0 0.341376,-0.03658 0.484632,-0.103632 l 0.161544,0.192024 0.301752,-0.246888 -0.149352,-0.173736 c 0.16764,-0.18288 0.265176,-0.432816 0.265176,-0.719328 z m -1.063752,0.667512 c -0.374904,0 -0.615696,-0.28956 -0.615696,-0.667512 0,-0.381 0.240792,-0.667512 0.615696,-0.667512 0.374904,0 0.618744,0.286512 0.618744,0.667512 0,0.146304 -0.03658,0.280416 -0.103632,0.387096 l -0.231648,-0.271272 -0.301752,0.24384 0.231648,0.271272 c -0.06401,0.02438 -0.13716,0.03658 -0.21336,0.03658 z" style="font-weight:bold;font-size:3.048px;font-family:'Proxima Nova';dominant-baseline:alphabetic;text-anchor:middle;fill:#f0f0ff"/>
    </g>
    <rect x="28.44" y="98.768" width="17.4" height="13.432" rx="1" ry="1" fill="#000099" stroke="#000099" stroke-width="0.35"/>
    <g style="font-weight:bold;font-size:3.048px;font-family:'Proxima Nova';dominant-baseline:alphabetic;text-anchor:middle;fill:#f0f0ff">
      <path d="m 39.745245,101.18736 v -0.81382 h -1.359408 v 0.24384 h 1.11252 v 0.56998 z" style="font-weight:bold;font-size:3.048px;font-family:'Proxima Nova';dominant-baseline:alphabetic;text-anchor:middle;fill:#f0f0ff"/>
      <path d="m 42.877017,100.78502 c 0,-0.61265 -0.448056,-1.051561 -1.063752,-1.051561 -0.612648,0 -1.060704,0.438911 -1.060704,1.051561 0,0.61265 0.448056,1.05156 1.060704,1.05156 0.176784,0 0.341376,-0.0366 0.484632,-0.10363 l 0.161544,0.19202 0.301752,-0.24689 -0.149352,-0.17373 c 0.16764,-0.18288 0.265176,-0.43282 0.265176,-0.71933 z m -1.063752,0.66751 c -0.374904,0 -0.615696,-0.28956 -0.615696,-0.66751 0,-0.381 0.240792,-0.66751 0.615696,-0.66751 0.374904,0 0.618744,0.28651 0.618744,0.66751 0,0.1463 -0.03658,0.28042 -0.103632,0.3871 l -0.231648,-0.27128 -0.301752,0.24384 0.231648,0.27128 c -0.06401,0.0244 -0.13716,0.0366 -0.21336,0.0366 z" style="font-weight:bold;font-size:3.048px;font-family:'Proxima Nova';dominant-baseline:alphabetic;text-anchor:middle;fill:#f0f0ff"/>
    </g>
  </g>
  <g>
    <g transform="translate(10.160000 76.000000)">
      <circle r="4.2" fill="#000099" stroke="none"/>
      <circle r="3.5" fill="none" stroke="#f0f0ff" stroke-width="0.95"/>
      <circle r="2.325" fill="none" stroke="#f0f0ff" stroke-width="0.95"/>
    </g>
    <circle cx="18.36" cy="76" r="2.5" fill="#000099" stroke="#000099" stroke-width="1"/>
    <g transform="translate(10.160000 91.500000)">
      <circle r="4.2" fill="#000099" stroke="none"/>
      <circle r="3.5" fill="none" stroke="#f0f0ff" stroke-width="0.95"/>
      <circle r="2.325" fill="none" stroke="#f0f0ff" stroke-width="0.95"/>
    </g>
    <circle cx="18.36" cy="91.5" r="2.5" fill="#000099" stroke="#000099" stroke-width="1"/>
    <g transform="translate(10.160000 107.000000)">
      <circle r="4.2" fill="#000099" stroke="none"/>
      <circle r="3.5" fill="none" stroke="#f0f0ff" stroke-width="0.95"/>
      <circle r="2.325" fill="none" stroke="#f0f0ff" stroke-width="0.95"/>
    </g>
    <circle cx="18.36" cy="107" r="2.5" fill="#000099" stroke="#000099" stroke-width="1"/>
    <g transform="translate(30.480000 20.000000)">
      <rect x="-4.5" y="-2.016" width="9" height="4.032" rx="0.5" ry="0.5" fill="#f0f0ff" stroke="#000099" stroke-width="0.25"/>
      <g style="font-weight:bold;font-size:3.048px;font-family:'Proxima Nova';dominant-baseline:middle;text-anchor:middle;fill:#000099">
        <path d="m -2.1474351,1.101852 h 0.435864 v -2.03301604 h -0.435864 v 0.79857603 h -0.9601201 v -0.79857603 h -0.432816 V 1.101852 h 0.432816 v -0.85344 h 0.9601201 z" style="font-weight:bold;font-size:3.048px;font-family:'Proxima Nova';dominant-baseline:middle;text-anchor:middle;fill:#000099"/>
        <path d="m -1.3139024,1.101852 h 0.43281604 V -0.93116404 H -1.3139024 Z" style="font-weight:bold;font-size:3.048px;font-family:'Proxima Nova';dominant-baseline:middle;text-anchor:middle;fill:#000099"/>
        <path d="m -0.57800093,0.086868 c 0,0.64008002 0.48768001,1.054608 1.08204003,1.054608 0.36880801,0 0.658368,-0.15239997 0.865632,-0.38404798 v -0.77724003 h -0.969264 v 0.37185602 h 0.54254401 v 0.246888 c -0.088392,0.079248 -0.252984,0.15544801 -0.43891201,0.15544801 -0.36880801,0 -0.63703202,-0.28346401 -0.63703202,-0.66751202 0,-0.38404802 0.26822401,-0.66751202 0.63703202,-0.66751202 0.21336001,0 0.38709601,0.112776 0.48158402,0.256032 l 0.35966398,-0.195072 c -0.155448,-0.24079201 -0.42062399,-0.44500802 -0.841248,-0.44500802 -0.59436002,0 -1.08204003,0.40843202 -1.08204003,1.05156004 z" style="font-weight:bold;font-size:3.048px;font-family:'Proxima Nova';dominant-baseline:middle;text-anchor:middle;fill:#000099"/>
        <path d="m 3.1091743,1.101852 h 0.435864 v -2.03301604 h -0.435864 v 0.79857603 h -0.96012 V -0.93116404 H 1.7162383 V 1.101852 h 0.432816 v -0.85344 h 0.96012 z" style="font-weight:bold;font-size:3.048px;font-family:'Proxima Nova';dominant-baseline:middle;text-anchor:middle;fill:#000099"/>
      </g>
    </g>
    <g transform="translate(40.640000 25.080000)">
      <rect x="-4.5" y="-2.016" width="9" height="4.032" rx="0.5" ry="0.5" fill="#f0f0ff" stroke="#000099" stroke-width="0.25"/>
      <g style="font-weight:bold;font-size:3.048px;font-family:'Proxima Nova';dominant-baseline:middle;text-anchor:middle;fill:#000099">
        <path d="m -0.66798827,1.101852 h 0.43281601 V 0.254508 h 0.98450403 v -0.37185601 h -0.98450403 v -0.44196001 h 1.00584003 v -0.37185602 h -1.43865604 z" style="font-weight:bold;font-size:3.048px;font-family:'Proxima Nova';dominant-baseline:middle;text-anchor:middle;fill:#000099"/>
      </g>
    </g>
    <g transform="translate(40.640000 30.160000)">
      <rect x="-4.5" y="-2.016" width="9" height="4.032" rx="0.5" ry="0.5" fill="#f0f0ff" stroke="#000099" stroke-width="0.25"/>
      <g style="font-weight:bold;font-size:3.048px;font-family:'Proxima Nova';dominant-baseline:middle;text-anchor:middle;fill:#000099">
        <path d="m -0.66798827,1.101852 h 0.43281601 V 0.254508 h 0.98450403 v -0.37185601 h -0.98450403 v -0.44196001 h 1.00584003 v -0.37185602 h -1.43865604 z" style="font-weight:bold;font-size:3.048px;font-family:'Proxima Nova';dominant-baseline:middle;text-anchor:middle;fill:#000099"/>
      </g>
    </g>
    <g transform="translate(40.640000 35.240000)">
      <rect x="-4.5" y="-2.016" width="9" height="4.032" rx="0.5" ry="0.5" fill="#f0f0ff" stroke="#000099" stroke-width="0.25"/>
      <g style="font-weight:bold;font-size:3.048px;font-family:'Proxima Nova';dominant-baseline:middle;text-anchor:middle;fill:#000099">
        <path d="m -0.66798827,1.101852 h 0.43281601 V 0.254508 h 0.98450403 v -0.37185601 h -0.98450403 v -0.44196001 h 1.00584003 v -0.37185602 h -1.43865604 z" style="font-weight:bold;font-size:3.048px;font-family:'Proxima Nova';dominant-baseline:middle;text-anchor:middle;fill:#000099"/>
      </g>
    </g>
    <g transform="translate(40.640000 40.320000)">
      <rect x="-4.5" y="-2.016" width="9" height="4.032" rx="0.5" ry="0.5" fill="#f0f0ff" stroke="#000099" stroke-width="0.25"/>
      <g style="font-weight:bold;font-size:3.048px;font-family:'Proxima Nova';dominant-baseline:middle;text-anchor:middle;fill:#000099">
        <path d="m -0.66798827,1.101852 h 0.43281601 V 0.254508 h 0.98450403 v -0.37185601 h -0.98450403 v -0.44196001 h 1.00584003 v -0.37185602 h -1.43865604 z" style="font-weight:bold;font-size:3.048px;font-family:'Proxima Nova';dominant-baseline:middle;text-anchor:middle;fill:#000099"/>
      </g>
    </g>
    <g transform="translate(40.640000 45.400000)">
      <rect x="-4.5" y="-2.016" width="9" height="4.032" rx="0.5" ry="0.5" fill="#f0f0ff" stroke="#000099" stroke-width="0.25"/>
      <g style="font-weight:bold;font-size:3.048px;font-family:'Proxima Nova';dominant-baseline:middle;text-anchor:middle;fill:#000099">
        <path d="m -0.66798827,1.101852 h 0.43281601 V 0.254508 h 0.98450403 v -0.37185601 h -0.98450403 v -0.44196001 h 1.00584003 v -0.37185602 h -1.43865604 z" style="font-weight:bold;font-size:3.048px;font-family:'Proxima Nova';dominant-baseline:middle;text-anchor:middle;fill:#000099"/>
      </g>
    </g>
    <g transform="translate(40.640000 50.480000)">
      <rect x="-4.5" y="-2.016" width="9" height="4.032" rx="0.5" ry="0.5" fill="#f0f0ff" stroke="#000099" stroke-width="0.25"/>
      <g style="font-weight:bold;font-size:3.048px;font-family:'Proxima Nova';dominant-baseline:middle;text-anchor:middle;fill:#000099">
        <path d="m -0.66798827,1.101852 h 0.43281601 V 0.254508 h 0.98450403 v -0.37185601 h -0.98450403 v -0.44196001 h 1.00584003 v -0.37185602 h -1.43865604 z" style="font-weight:bold;font-size:3.048px;font-family:'Proxima Nova';dominant-baseline:middle;text-anchor:middle;fill:#000099"/>
      </g>
    </g>
    <g transform="translate(40.640000 55.560000)">
      <rect x="-4.5" y="-2.016" width="9" height="4.032" rx="0.5" ry="0.5" fill="#f0f0ff" stroke="#000099" stroke-width="0.25"/>
      <g style="font-weight:bold;font-size:3.048px;font-family:'Proxima Nova';dominant-baseline:middle;text-anchor:middle;fill:#000099">
        <path d="m -0.66798827,1.101852 h 0.43281601 V 0.254508 h 0.98450403 v -0.37185601 h -0.98450403 v -0.44196001 h 1.00584003 v -0.37185602 h -1.43865604 z" style="font-weight:bold;font-size:3.048px;font-family:'Proxima Nova';dominant-baseline:middle;text-anchor:middle;fill:#000099"/>
      </g>
    </g>
    <g transform="translate(40.640000 60.640000)">
      <rect x="-4.5" y="-2.016" width="9" height="4.032" rx="0.5" ry="0.5" fill="#f0f0ff" stroke="#000099" stroke-width="0.25"/>
      <g style="font-weight:bold;font-size:3.048px;font-family:'Proxima Nova';dominant-baseline:middle;text-anchor:middle;fill:#000099">
        <path d="m -0.66798827,1.101852 h 0.43281601 V 0.254508 h 0.98450403 v -0.37185601 h -0.98450403 v -0.44196001 h 1.00584003 v -0.37185602 h -1.43865604 z" style="font-weight:bold;font-size:3.048px;font-family:'Proxima Nova';dominant-baseline:middle;text-anchor:middle;fill:#000099"/>
      </g>
    </g>
    <g transform="translate(40.640000 91.500000)">
      <circle r="4.2" fill="#000099" stroke="none"/>
      <circle r="3.5" fill="none" stroke="#f0f0ff" stroke-width="0.95"/>
      <circle r="2.325" fill="none" stroke="#f0f0ff" stroke-width="0.95"/>
    </g>
    <circle cx="32.44" cy="91.5" r="2.5" fill="#f0f0ff" stroke="#f0f0ff" stroke-width="1"/>
    <g transform="translate(40.640000 107.000000)">
      <circle r="4.2" fill="#000099" stroke="none"/>
      <circle r="3.5" fill="none" stroke="#f0f0ff" stroke-width="0.95"/>
      <circle r="2.325" fill="none" stroke="#f0f0ff" stroke-width="0.95"/>
    </g>
    <circle cx="32.44" cy="107" r="2.5" fill="#f0f0ff" stroke="#f0f0ff" stroke-width="1"/>
  </g>
</svg>
