<?xml version="1.0" encoding="UTF-8" standalone="no"?>
<svg
   xmlns:dc="http://purl.org/dc/elements/1.1/"
   xmlns:cc="http://creativecommons.org/ns#"
   xmlns:rdf="http://www.w3.org/1999/02/22-rdf-syntax-ns#"
   xmlns:svg="http://www.w3.org/2000/svg"
   xmlns="http://www.w3.org/2000/svg"
   id="svg378"
   height="379.429"
   width="165.000"
   version="1.1">
  <metadata
     id="metadata384">
    <rdf:RDF>
      <cc:Work
         rdf:about="">
        <dc:format>image/svg+xml</dc:format>
        <dc:type
           rdf:resource="http://purl.org/dc/dcmitype/StillImage" />
      </cc:Work>
    </rdf:RDF>
  </metadata>
  <defs
     id="defs382" />
  <g
     id="g376"
     transform="scale(2.953)">
    <path
       id="rect2"
       d="M 0,0 H 55.880001 V 128.5 H 0 Z"
       style="fill:#f7f2fc;stroke:#7f00ff;stroke-width:1" />
    <g
       id="g6"
       transform="translate(27.94,9)">
      <g
         id="text4"
         style="font-weight:bold;font-size:4.06400013px;font-family:'Proxima Nova';dominant-baseline:alphabetic;text-anchor:middle;fill:#7f00ff"
         aria-label="XYCLOID">
        <path
           id="path387"
           style="font-weight:bold;font-size:4.06400013px;font-family:'Proxima Nova';dominant-baseline:alphabetic;text-anchor:middle;fill:#7f00ff"
           d="m -6.5284987,0 h 0.69088 l -0.983488,-1.393952 0.922528,-1.3167361 h -0.694944 l -0.613664,0.926592 -0.621792,-0.926592 H -8.5157948 L -7.5932667,-1.389888 -8.5767548,0 h 0.686816 l 0.6827521,-0.99161603 z" />
        <path
           id="path389"
           style="font-weight:bold;font-size:4.06400013px;font-family:'Proxima Nova';dominant-baseline:alphabetic;text-anchor:middle;fill:#7f00ff"
           d="m -4.8258096,0 h 0.577088 v -1.109472 l 1.03632,-1.6012161 h -0.658368 l -0.666496,1.089152 -0.674624,-1.089152 h -0.6583681 l 1.0444481,1.6012161 z" />
        <path
           id="path391"
           style="font-weight:bold;font-size:4.06400013px;font-family:'Proxima Nova';dominant-baseline:alphabetic;text-anchor:middle;fill:#7f00ff"
           d="m -1.8084167,0.048768 c 0.597408,0 0.93878406,-0.32918401 1.13385607,-0.66649602 L -1.1703686,-0.85750403 c -0.1137921,0.22352001 -0.3576321,0.39420802 -0.6380481,0.39420802 -0.491744,0 -0.849376,-0.37795202 -0.849376,-0.89001599 0,-0.5120641 0.357632,-0.8900161 0.849376,-0.8900161 0.280416,0 0.524256,0.174752 0.6380481,0.394208 l 0.49580797,-0.24384 c -0.19100801,-0.337312 -0.53644807,-0.662432 -1.13385607,-0.662432 -0.8128,0 -1.44272,0.56896 -1.44272,1.4020801 0,0.83311998 0.62992,1.40208 1.44272,1.40208 z" />
        <path
           id="path393"
           style="font-weight:bold;font-size:4.06400013px;font-family:'Proxima Nova';dominant-baseline:alphabetic;text-anchor:middle;fill:#7f00ff"
           d="M -0.32708809,0 H 1.396048 V -0.50800002 H 0.24999993 V -2.7106881 h -0.57708802 z" />
        <path
           id="path395"
           style="font-weight:bold;font-size:4.06400013px;font-family:'Proxima Nova';dominant-baseline:alphabetic;text-anchor:middle;fill:#7f00ff"
           d="m 1.5589886,-1.353312 c 0,0.81686398 0.5974081,1.40208 1.4142721,1.40208 0.820928,0 1.418336,-0.58521602 1.418336,-1.40208 0,-0.8168641 -0.597408,-1.4020801 -1.418336,-1.4020801 -0.816864,0 -1.4142721,0.585216 -1.4142721,1.4020801 z m 2.2392641,0 c 0,0.50393597 -0.32512,0.89001599 -0.824992,0.89001599 -0.499872,0 -0.820928,-0.38608002 -0.820928,-0.89001599 0,-0.5080001 0.321056,-0.8900161 0.820928,-0.8900161 0.499872,0 0.824992,0.382016 0.824992,0.8900161 z" />
        <path
           id="path397"
           style="font-weight:bold;font-size:4.06400013px;font-family:'Proxima Nova';dominant-baseline:alphabetic;text-anchor:middle;fill:#7f00ff"
           d="m 4.8005364,0 h 0.577088 v -2.7106881 h -0.577088 z" />
        <path
           id="path399"
           style="font-weight:bold;font-size:4.06400013px;font-family:'Proxima Nova';dominant-baseline:alphabetic;text-anchor:middle;fill:#7f00ff"
           d="m 5.9117863,0 h 1.0688321 c 0.849376,0 1.438656,-0.53644802 1.438656,-1.353312 0,-0.8168641 -0.58928,-1.3573761 -1.438656,-1.3573761 H 5.9117863 Z M 6.4888744,-0.50800002 V -2.2026881 h 0.491744 c 0.556768,0 0.849376,0.369824 0.849376,0.8493761 0,0.45923197 -0.312928,0.84531198 -0.849376,0.84531198 z" />
      </g>
    </g>
    <g
       id="g10"
       transform="translate(27.94,119.5)">
      <g
         id="text8"
         style="font-weight:bold;font-size:4.06400013px;font-family:'Proxima Nova';dominant-baseline:hanging;text-anchor:middle;fill:#7f00ff"
         aria-label="DHE">
        <path
           id="path402"
           style="font-weight:bold;font-size:4.06400013px;font-family:'Proxima Nova';dominant-baseline:hanging;text-anchor:middle;fill:#7f00ff"
           d="m -3.8632449,2.5684481 h 1.0688321 c 0.849376,0 1.438656,-0.5364481 1.438656,-1.3533121 0,-0.816864 -0.58928,-1.35737602 -1.438656,-1.35737602 h -1.0688321 z m 0.577088,-0.508 V 0.36576 h 0.4917441 c 0.556768,0 0.849376,0.36982401 0.849376,0.849376 0,0.459232 -0.312928,0.8453121 -0.849376,0.8453121 z" />
        <path
           id="path404"
           style="font-weight:bold;font-size:4.06400013px;font-family:'Proxima Nova';dominant-baseline:hanging;text-anchor:middle;fill:#7f00ff"
           d="M 0.91500319,2.5684481 H 1.4961552 V -0.14224002 H 0.91500319 V 0.92252801 H -0.36515685 V -0.14224002 H -0.94224487 V 2.5684481 h 0.57708802 V 1.430528 h 1.28016004 z" />
        <path
           id="path406"
           style="font-weight:bold;font-size:4.06400013px;font-family:'Proxima Nova';dominant-baseline:hanging;text-anchor:middle;fill:#7f00ff"
           d="m 2.0263802,2.5684481 h 1.9182081 v -0.508 H 2.6034682 V 1.446784 H 3.9161403 V 0.93878401 H 2.6034682 V 0.36576 H 3.9445883 V -0.14224002 H 2.0263802 Z" />
      </g>
    </g>
    <path
       id="line12"
       d="M 7.9829998,25 H 34.591999"
       style="stroke:#7f00ff;stroke-width:0.34999999" />
    <g
       id="g16"
       transform="translate(7.983,19.8)">
      <g
         id="text14"
         style="font-weight:bold;font-size:3.0480001px;font-family:'Proxima Nova';dominant-baseline:alphabetic;text-anchor:middle;fill:#7f00ff"
         aria-label="cv">
        <path
           id="path410"
           style="font-weight:bold;font-size:3.0480001px;font-family:'Proxima Nova';dominant-baseline:alphabetic;text-anchor:middle;fill:#7f00ff"
           d="m -1.4443234,-0.73761602 c 0,0.45415201 0.326136,0.77419202 0.780288,0.77419202 0.30175201,0 0.48463202,-0.131064 0.58216802,-0.26822401 l -0.25298401,-0.234696 c -0.070104,0.097536 -0.176784,0.158496 -0.31089601,0.158496 -0.234696,0 -0.399288,-0.17373601 -0.399288,-0.42976801 0,-0.25603201 0.164592,-0.42671998 0.399288,-0.42671998 0.13411201,0 0.24079201,0.054864 0.31089601,0.158496 l 0.25298401,-0.237744 c -0.097536,-0.134112 -0.28041601,-0.265176 -0.58216802,-0.265176 -0.454152,0 -0.780288,0.32004 -0.780288,0.77114398 z" />
        <path
           id="path412"
           style="font-weight:bold;font-size:3.0480001px;font-family:'Proxima Nova';dominant-baseline:alphabetic;text-anchor:middle;fill:#7f00ff"
           d="M 0.54921157,0 H 0.96678758 L 1.5580996,-1.472184 H 1.1405236 L 0.75647558,-0.44805601 0.37242756,-1.472184 h -0.41452801 z" />
      </g>
    </g>
    <g
       id="g22"
       transform="translate(21.288,20.5)">
      <g
         id="text20"
         style="font-weight:bold;font-size:3.0480001px;font-family:'Proxima Nova';dominant-baseline:alphabetic;text-anchor:middle;fill:#7f00ff"
         aria-label="-  +">
        <path
           id="path415"
           style="font-size:larger"
           d="m -2.2977159,-0.68762883 h 0.8778241 V -1.0826496 h -0.8778241 z" />
        <path
           id="path417"
           style="font-size:larger"
           d="M 1.6470061,-1.0899648 H 2.3017165 V -1.3789153 H 1.6470061 v -0.713232 H 1.3287949 v 0.713232 H 0.67042687 v 0.2889505 H 1.3287949 v 0.74249278 h 0.3182112 z" />
      </g>
    </g>
    <g
       id="g26"
       transform="translate(34.592,17.65)">
      <g
         id="text24"
         style="font-weight:bold;font-size:3.0480001px;font-family:'Proxima Nova';dominant-baseline:alphabetic;text-anchor:middle;fill:#7f00ff"
         aria-label="SPEED">
        <path
           id="path420"
           style="font-weight:bold;font-size:3.0480001px;font-family:'Proxima Nova';dominant-baseline:alphabetic;text-anchor:middle;fill:#7f00ff"
           d="m -4.6746796,-0.28651201 c 0.188976,0.19202401 0.469392,0.32308801 0.859536,0.32308801 0.54864,0 0.813816,-0.28041601 0.813816,-0.65227202 0,-0.46024798 -0.42672,-0.56083198 -0.762,-0.64007998 -0.219456,-0.051816 -0.405384,-0.094488 -0.405384,-0.225552 0,-0.1219201 0.103632,-0.2042161 0.28956,-0.2042161 0.207264,0 0.42672,0.070104 0.591312,0.2225041 l 0.240792,-0.3169921 c -0.201168,-0.185928 -0.469392,-0.283464 -0.79248,-0.283464 -0.478536,0 -0.771144,0.280416 -0.771144,0.6187441 0,0.46329597 0.42672,0.55473597 0.758952,0.63093597 0.222504,0.054864 0.41148,0.097536 0.41148,0.24688801 0,0.11582401 -0.115824,0.22555201 -0.353568,0.22555201 -0.280416,0 -0.50292,-0.124968 -0.646176,-0.27432001 z" />
        <path
           id="path422"
           style="font-weight:bold;font-size:3.0480001px;font-family:'Proxima Nova';dominant-baseline:alphabetic;text-anchor:middle;fill:#7f00ff"
           d="m -2.7099102,0 h 0.432816 v -0.72237602 h 0.51816 c 0.438912,0 0.682752,-0.30175198 0.682752,-0.65531998 0,-0.3566161 -0.240792,-0.6553201 -0.682752,-0.6553201 h -0.950976 z m 1.191768,-1.377696 c 0,0.16764 -0.128016,0.27432 -0.298704,0.27432 h -0.460248 v -0.5486401 h 0.460248 c 0.170688,0 0.298704,0.1036321 0.298704,0.2743201 z" />
        <path
           id="path424"
           style="font-weight:bold;font-size:3.0480001px;font-family:'Proxima Nova';dominant-baseline:alphabetic;text-anchor:middle;fill:#7f00ff"
           d="M -0.81086321,0 H 0.62779284 V -0.38100001 H -0.37804719 V -0.84124803 H 0.60645684 V -1.222248 h -0.98450403 v -0.4297681 h 1.00584003 v -0.381 h -1.43865605 z" />
        <path
           id="path426"
           style="font-weight:bold;font-size:3.0480001px;font-family:'Proxima Nova';dominant-baseline:alphabetic;text-anchor:middle;fill:#7f00ff"
           d="M 0.96912127,0 H 2.4077773 v -0.38100001 h -1.00584 v -0.46024802 h 0.984504 V -1.222248 h -0.984504 v -0.4297681 h 1.00584 v -0.381 H 0.96912127 Z" />
        <path
           id="path428"
           style="font-weight:bold;font-size:3.0480001px;font-family:'Proxima Nova';dominant-baseline:alphabetic;text-anchor:middle;fill:#7f00ff"
           d="m 2.7491057,0 h 0.8016241 c 0.637032,0 1.078992,-0.40233601 1.078992,-1.014984 0,-0.6126481 -0.44196,-1.0180321 -1.078992,-1.0180321 H 2.7491057 Z M 3.1819218,-0.38100001 V -1.6520161 h 0.368808 c 0.417576,0 0.637032,0.2773681 0.637032,0.6370321 0,0.34442398 -0.234696,0.63398399 -0.637032,0.63398399 z" />
      </g>
    </g>
    <path
       id="line28"
       d="M 7.9829998,43.5 H 47.896999"
       style="stroke:#7f00ff;stroke-width:0.34999999" />
    <g
       id="g32"
       transform="translate(7.983,38.3)">
      <g
         id="text30"
         style="font-weight:bold;font-size:3.0480001px;font-family:'Proxima Nova';dominant-baseline:alphabetic;text-anchor:middle;fill:#7f00ff"
         aria-label="cv">
        <path
           id="path432"
           style="font-weight:bold;font-size:3.0480001px;font-family:'Proxima Nova';dominant-baseline:alphabetic;text-anchor:middle;fill:#7f00ff"
           d="m -1.4443234,-0.73761602 c 0,0.45415201 0.326136,0.77419202 0.780288,0.77419202 0.30175201,0 0.48463202,-0.131064 0.58216802,-0.26822401 l -0.25298401,-0.234696 c -0.070104,0.097536 -0.176784,0.158496 -0.31089601,0.158496 -0.234696,0 -0.399288,-0.17373601 -0.399288,-0.42976801 0,-0.25603201 0.164592,-0.42671998 0.399288,-0.42671998 0.13411201,0 0.24079201,0.054864 0.31089601,0.158496 l 0.25298401,-0.237744 c -0.097536,-0.134112 -0.28041601,-0.265176 -0.58216802,-0.265176 -0.454152,0 -0.780288,0.32004 -0.780288,0.77114398 z" />
        <path
           id="path434"
           style="font-weight:bold;font-size:3.0480001px;font-family:'Proxima Nova';dominant-baseline:alphabetic;text-anchor:middle;fill:#7f00ff"
           d="M 0.54921157,0 H 0.96678758 L 1.5580996,-1.472184 H 1.1405236 L 0.75647558,-0.44805601 0.37242756,-1.472184 h -0.41452801 z" />
      </g>
    </g>
    <g
       id="g38"
       transform="translate(21.288,39)">
      <g
         id="text36"
         style="font-weight:bold;font-size:3.0480001px;font-family:'Proxima Nova';dominant-baseline:alphabetic;text-anchor:middle;fill:#7f00ff"
         aria-label="-  +">
        <path
           id="path437"
           style="font-size:larger"
           d="m -2.2977159,-0.68762883 h 0.8778241 V -1.0826496 h -0.8778241 z" />
        <path
           id="path439"
           style="font-size:larger"
           d="M 1.6470061,-1.0899648 H 2.3017165 V -1.3789153 H 1.6470061 v -0.713232 H 1.3287949 v 0.713232 H 0.67042687 v 0.2889505 H 1.3287949 v 0.74249278 h 0.3182112 z" />
      </g>
    </g>
    <g
       id="g42"
       transform="translate(34.592,36.15)">
      <g
         id="text40"
         style="font-weight:bold;font-size:3.0480001px;font-family:'Proxima Nova';dominant-baseline:alphabetic;text-anchor:middle;fill:#7f00ff"
         aria-label="RATIO">
        <path
           id="path442"
           style="font-weight:bold;font-size:3.0480001px;font-family:'Proxima Nova';dominant-baseline:alphabetic;text-anchor:middle;fill:#7f00ff"
           d="m -3.0431423,0 h 0.496824 l -0.4572,-0.77419202 c 0.219456,-0.051816 0.445008,-0.24383998 0.445008,-0.60350398 0,-0.3779521 -0.25908,-0.6553201 -0.6827521,-0.6553201 h -0.950976 V 0 h 0.432816 v -0.72237602 h 0.316992 z m 0.042672,-1.377696 c 0,0.170688 -0.131064,0.27432 -0.3048001,0.27432 h -0.454152 v -0.5486401 h 0.454152 c 0.1737361,0 0.3048001,0.1036321 0.3048001,0.2743201 z" />
        <path
           id="path444"
           style="font-weight:bold;font-size:3.0480001px;font-family:'Proxima Nova';dominant-baseline:alphabetic;text-anchor:middle;fill:#7f00ff"
           d="m -0.83158011,0 h 0.49377602 L -1.1211401,-2.0330161 h -0.542544 L -2.4500682,0 h 0.4937761 l 0.128016,-0.34442401 h 0.87172799 z m -0.56083199,-1.6002001 0.316992,0.87477608 h -0.633984 z" />
        <path
           id="path446"
           style="font-weight:bold;font-size:3.0480001px;font-family:'Proxima Nova';dominant-baseline:alphabetic;text-anchor:middle;fill:#7f00ff"
           d="M 0.12287249,0 H 0.55873651 V -1.6520161 H 1.1500485 v -0.381 h -1.62153603 v 0.381 h 0.59436002 z" />
        <path
           id="path448"
           style="font-weight:bold;font-size:3.0480001px;font-family:'Proxima Nova';dominant-baseline:alphabetic;text-anchor:middle;fill:#7f00ff"
           d="M 1.4275116,0 H 1.8603277 V -2.0330161 H 1.4275116 Z" />
        <path
           id="path450"
           style="font-weight:bold;font-size:3.0480001px;font-family:'Proxima Nova';dominant-baseline:alphabetic;text-anchor:middle;fill:#7f00ff"
           d="m 2.1634131,-1.014984 c 0,0.61264799 0.448056,1.05156 1.060704,1.05156 0.615696,0 1.063752,-0.43891201 1.063752,-1.05156 0,-0.6126481 -0.448056,-1.0515601 -1.063752,-1.0515601 -0.612648,0 -1.060704,0.438912 -1.060704,1.0515601 z m 1.679448,0 c 0,0.37795198 -0.24384,0.66751199 -0.618744,0.66751199 -0.374904,0 -0.615696,-0.28956001 -0.615696,-0.66751199 0,-0.381 0.240792,-0.6675121 0.615696,-0.6675121 0.374904,0 0.618744,0.2865121 0.618744,0.6675121 z" />
      </g>
    </g>
    <g
       id="g46"
       transform="translate(47.897,47.5)">
      <g
         id="text44"
         style="font-weight:bold;font-size:2.37100005px;font-family:'Proxima Nova';dominant-baseline:hanging;text-anchor:middle;fill:#7f00ff"
         aria-label="LOCK">
        <path
           id="path453"
           style="font-weight:bold;font-size:2.37100005px;font-family:'Proxima Nova';dominant-baseline:hanging;text-anchor:middle;fill:#7f00ff"
           d="m -2.909143,1.498472 h 1.0053041 V 1.202097 H -2.572461 v -1.28508206 h -0.336682 z" />
        <path
           id="path455"
           style="font-weight:bold;font-size:2.37100005px;font-family:'Proxima Nova';dominant-baseline:hanging;text-anchor:middle;fill:#7f00ff"
           d="m -1.8087767,0.70892896 c 0,0.47657104 0.348537,0.81799504 0.82510805,0.81799504 0.47894201,0 0.82747901,-0.341424 0.82747901,-0.81799504 0,-0.47657101 -0.348537,-0.81799502 -0.82747901,-0.81799502 -0.47657105,0 -0.82510805,0.34142401 -0.82510805,0.81799502 z m 1.30642106,0 c 0,0.29400404 -0.18968001,0.51924904 -0.48131301,0.51924904 -0.29163305,0 -0.47894205,-0.225245 -0.47894205,-0.51924904 0,-0.29637501 0.187309,-0.51924901 0.47894205,-0.51924901 0.291633,0 0.48131301,0.222874 0.48131301,0.51924901 z" />
        <path
           id="path457"
           style="font-weight:bold;font-size:2.37100005px;font-family:'Proxima Nova';dominant-baseline:hanging;text-anchor:middle;fill:#7f00ff"
           d="m 0.84822523,1.526924 c 0.34853697,0 0.54770097,-0.192051 0.66150897,-0.388844 L 1.2204722,0.99819096 C 1.1540842,1.128596 1.0118242,1.228178 0.84822523,1.228178 c -0.286891,0 -0.49553901,-0.220503 -0.49553901,-0.51924904 0,-0.29874601 0.20864801,-0.51924901 0.49553901,-0.51924901 0.16359897,0 0.30585897,0.101953 0.37224697,0.229987 l 0.289262,-0.14226 c -0.111437,-0.19679301 -0.312972,-0.38647301 -0.66150897,-0.38647301 -0.47420001,0 -0.84170501,0.33194001 -0.84170501,0.81799502 0,0.48605504 0.367505,0.81799504 0.84170501,0.81799504 z" />
        <path
           id="path459"
           style="font-weight:bold;font-size:2.37100005px;font-family:'Proxima Nova';dominant-baseline:hanging;text-anchor:middle;fill:#7f00ff"
           d="m 2.6513708,1.498472 h 0.414925 L 2.3953028,0.65913796 3.0236178,-0.08298506 H 2.6086928 L 2.0491368,0.62357296 V -0.08298506 H 1.7124548 V 1.498472 h 0.336682 V 1.012417 l 0.123292,-0.14700204 z" />
      </g>
    </g>
    <g
       id="g50"
       transform="translate(47.897,39.5)">
      <g
         id="text48"
         style="font-weight:bold;font-size:2.37100005px;font-family:'Proxima Nova';dominant-baseline:alphabetic;text-anchor:middle;fill:#7f00ff"
         aria-label="FREE">
        <path
           id="path462"
           style="font-weight:bold;font-size:2.37100005px;font-family:'Proxima Nova';dominant-baseline:alphabetic;text-anchor:middle;fill:#7f00ff"
           d="m -2.6660228,0 h 0.336682 v -0.65439601 h 0.765833 v -0.29637501 h -0.765833 V -1.285082 h 0.78243 v -0.296375 h -1.119112 z" />
        <path
           id="path464"
           style="font-weight:bold;font-size:2.37100005px;font-family:'Proxima Nova';dominant-baseline:alphabetic;text-anchor:middle;fill:#7f00ff"
           d="m -0.41994483,0 h 0.38647301 l -0.35565001,-0.60223401 c 0.17071201,-0.040307 0.34616601,-0.18968001 0.34616601,-0.46945799 0,-0.294004 -0.20153501,-0.509765 -0.53110401,-0.509765 H -1.3138118 V 0 h 0.33668196 v -0.56192701 h 0.246584 z m 0.033194,-1.071692 c 0,0.13277598 -0.101953,0.21338998 -0.2371,0.21338998 H -0.97712984 V -1.285082 h 0.35327901 c 0.135147,0 0.2371,0.080614 0.2371,0.21339 z" />
        <path
           id="path466"
           style="font-weight:bold;font-size:2.37100005px;font-family:'Proxima Nova';dominant-baseline:alphabetic;text-anchor:middle;fill:#7f00ff"
           d="M 0.20974105,0 H 1.3288531 V -0.29637501 H 0.54642305 v -0.358021 H 1.3122561 V -0.95077102 H 0.54642305 V -1.285082 H 1.3288531 V -1.581457 H 0.20974105 Z" />
        <path
           id="path468"
           style="font-weight:bold;font-size:2.37100005px;font-family:'Proxima Nova';dominant-baseline:alphabetic;text-anchor:middle;fill:#7f00ff"
           d="m 1.5943679,0 h 1.119112 v -0.29637501 h -0.78243 v -0.358021 h 0.765833 V -0.95077102 H 1.9310499 V -1.285082 h 0.78243 v -0.296375 h -1.119112 z" />
      </g>
    </g>
    <path
       id="line52"
       d="M 7.9829998,62 H 47.896999"
       style="stroke:#7f00ff;stroke-width:0.34999999" />
    <g
       id="g56"
       transform="translate(7.983,56.8)">
      <g
         id="text54"
         style="font-weight:bold;font-size:3.0480001px;font-family:'Proxima Nova';dominant-baseline:alphabetic;text-anchor:middle;fill:#7f00ff"
         aria-label="cv">
        <path
           id="path472"
           style="font-weight:bold;font-size:3.0480001px;font-family:'Proxima Nova';dominant-baseline:alphabetic;text-anchor:middle;fill:#7f00ff"
           d="m -1.4443234,-0.73761602 c 0,0.45415201 0.326136,0.77419202 0.780288,0.77419202 0.30175201,0 0.48463202,-0.131064 0.58216802,-0.26822401 l -0.25298401,-0.234696 c -0.070104,0.097536 -0.176784,0.158496 -0.31089601,0.158496 -0.234696,0 -0.399288,-0.17373601 -0.399288,-0.42976801 0,-0.25603201 0.164592,-0.42671998 0.399288,-0.42671998 0.13411201,0 0.24079201,0.054864 0.31089601,0.158496 l 0.25298401,-0.237744 c -0.097536,-0.134112 -0.28041601,-0.265176 -0.58216802,-0.265176 -0.454152,0 -0.780288,0.32004 -0.780288,0.77114398 z" />
        <path
           id="path474"
           style="font-weight:bold;font-size:3.0480001px;font-family:'Proxima Nova';dominant-baseline:alphabetic;text-anchor:middle;fill:#7f00ff"
           d="M 0.54921157,0 H 0.96678758 L 1.5580996,-1.472184 H 1.1405236 L 0.75647558,-0.44805601 0.37242756,-1.472184 h -0.41452801 z" />
      </g>
    </g>
    <g
       id="g62"
       transform="translate(21.288,57.5)">
      <g
         id="text60"
         style="font-weight:bold;font-size:3.0480001px;font-family:'Proxima Nova';dominant-baseline:alphabetic;text-anchor:middle;fill:#7f00ff"
         aria-label="-  +">
        <path
           id="path477"
           style="font-size:larger"
           d="m -2.2977159,-0.68762883 h 0.8778241 V -1.0826496 h -0.8778241 z" />
        <path
           id="path479"
           style="font-size:larger"
           d="M 1.6470061,-1.0899648 H 2.3017165 V -1.3789153 H 1.6470061 v -0.713232 H 1.3287949 v 0.713232 H 0.67042687 v 0.2889505 H 1.3287949 v 0.74249278 h 0.3182112 z" />
      </g>
    </g>
    <g
       id="g66"
       transform="translate(34.592,54.65)">
      <g
         id="text64"
         style="font-weight:bold;font-size:3.0480001px;font-family:'Proxima Nova';dominant-baseline:alphabetic;text-anchor:middle;fill:#7f00ff"
         aria-label="DEPTH">
        <path
           id="path482"
           style="font-weight:bold;font-size:3.0480001px;font-family:'Proxima Nova';dominant-baseline:alphabetic;text-anchor:middle;fill:#7f00ff"
           d="m -4.7339728,0 h 0.801624 c 0.6370321,0 1.0789921,-0.40233601 1.0789921,-1.014984 0,-0.6126481 -0.44196,-1.0180321 -1.0789921,-1.0180321 h -0.801624 z m 0.432816,-0.38100001 V -1.6520161 h 0.368808 c 0.4175761,0 0.6370321,0.2773681 0.6370321,0.6370321 0,0.34442398 -0.234696,0.63398399 -0.6370321,0.63398399 z" />
        <path
           id="path484"
           style="font-weight:bold;font-size:3.0480001px;font-family:'Proxima Nova';dominant-baseline:alphabetic;text-anchor:middle;fill:#7f00ff"
           d="m -2.5432227,0 h 1.4386561 v -0.38100001 h -1.00584 v -0.46024802 h 0.984504 V -1.222248 h -0.984504 v -0.4297681 h 1.00584 v -0.381 h -1.4386561 z" />
        <path
           id="path486"
           style="font-weight:bold;font-size:3.0480001px;font-family:'Proxima Nova';dominant-baseline:alphabetic;text-anchor:middle;fill:#7f00ff"
           d="m -0.76323818,0 h 0.43281601 v -0.72237602 h 0.51816002 c 0.43891201,0 0.68275202,-0.30175198 0.68275202,-0.65531998 0,-0.3566161 -0.24079201,-0.6553201 -0.68275202,-0.6553201 h -0.95097603 z m 1.19176804,-1.377696 c 0,0.16764 -0.12801601,0.27432 -0.29870401,0.27432 h -0.46024802 v -0.5486401 h 0.46024802 c 0.170688,0 0.29870401,0.1036321 0.29870401,0.2743201 z" />
        <path
           id="path488"
           style="font-weight:bold;font-size:3.0480001px;font-family:'Proxima Nova';dominant-baseline:alphabetic;text-anchor:middle;fill:#7f00ff"
           d="m 1.6052007,0 h 0.435864 v -1.6520161 h 0.5913121 v -0.381 H 1.0108407 v 0.381 h 0.59436 z" />
        <path
           id="path490"
           style="font-weight:bold;font-size:3.0480001px;font-family:'Proxima Nova';dominant-baseline:alphabetic;text-anchor:middle;fill:#7f00ff"
           d="m 4.3027759,0 h 0.435864 V -2.0330161 H 4.3027759 V -1.23444 h -0.96012 V -2.0330161 H 2.9098399 V 0 h 0.432816 v -0.85344003 h 0.96012 z" />
      </g>
    </g>
    <g
       id="g70"
       transform="translate(47.897,67.5)">
      <g
         id="text68"
         style="font-weight:bold;font-size:2.37100005px;font-family:'Proxima Nova';dominant-baseline:hanging;text-anchor:middle;fill:#7f00ff"
         aria-label="IN">
        <path
           id="path493"
           style="font-weight:bold;font-size:2.37100005px;font-family:'Proxima Nova';dominant-baseline:hanging;text-anchor:middle;fill:#7f00ff"
           d="m -1.0313295,1.498472 h 0.33668206 V -0.08298506 H -1.0313295 Z" />
        <path
           id="path495"
           style="font-weight:bold;font-size:2.37100005px;font-family:'Proxima Nova';dominant-baseline:hanging;text-anchor:middle;fill:#7f00ff"
           d="M 0.70765089,1.498472 H 1.0324779 V -0.08298506 H 0.69579589 v 0.99344902 l -0.73263902,-0.99344902 h -0.346166 V 1.498472 h 0.336682 V 0.46708695 Z" />
      </g>
    </g>
    <g
       id="g74"
       transform="translate(47.897,56.5)">
      <g
         id="text72"
         style="font-weight:bold;font-size:2.37100005px;font-family:'Proxima Nova';dominant-baseline:alphabetic;text-anchor:middle;fill:#7f00ff"
         aria-label="OUT">
        <path
           id="path498"
           style="font-weight:bold;font-size:2.37100005px;font-family:'Proxima Nova';dominant-baseline:alphabetic;text-anchor:middle;fill:#7f00ff"
           d="m -2.3853187,-0.78954302 c 0,0.47657101 0.348537,0.81799502 0.825108,0.81799502 0.4789421,0 0.82747907,-0.34142401 0.82747907,-0.81799502 0,-0.47657098 -0.34853697,-0.81799498 -0.82747907,-0.81799498 -0.476571,0 -0.825108,0.341424 -0.825108,0.81799498 z m 1.3064211,0 c 0,0.29400401 -0.18968,0.51924901 -0.4813131,0.51924901 -0.291633,0 -0.478942,-0.225245 -0.478942,-0.51924901 0,-0.29637498 0.187309,-0.51924898 0.478942,-0.51924898 0.2916331,0 0.4813131,0.222874 0.4813131,0.51924898 z" />
        <path
           id="path500"
           style="font-weight:bold;font-size:2.37100005px;font-family:'Proxima Nova';dominant-baseline:alphabetic;text-anchor:middle;fill:#7f00ff"
           d="m -0.49414978,-0.63068601 c 0,0.388844 0.23235801,0.65913801 0.71367102,0.65913801 0.48131301,0 0.71367101,-0.26792301 0.71367101,-0.66150901 V -1.581457 H 0.58939724 v 0.93891599 c 0,0.220503 -0.125663,0.372247 -0.369876,0.372247 -0.24421301,0 -0.37224701,-0.151744 -0.37224701,-0.372247 V -1.581457 h -0.34142401 z" />
        <path
           id="path502"
           style="font-weight:bold;font-size:2.37100005px;font-family:'Proxima Nova';dominant-baseline:alphabetic;text-anchor:middle;fill:#7f00ff"
           d="m 1.6075565,0 h 0.339053 v -1.285082 h 0.459974 v -0.296375 h -1.261372 v 0.296375 h 0.462345 z" />
      </g>
    </g>
    <g
       id="g78"
       transform="translate(50.397,62)">
      <g
         id="text76"
         style="font-weight:bold;font-size:2.37100005px;font-family:'Proxima Nova';dominant-baseline:middle;text-anchor:start;fill:#7f00ff" />
    </g>
    <path
       id="line80"
       d="M 7.9829998,80.5 H 34.591999"
       style="stroke:#7f00ff;stroke-width:0.34999999" />
    <g
       id="g84"
       transform="translate(7.983,75.3)">
      <g
         id="text82"
         style="font-weight:bold;font-size:3.0480001px;font-family:'Proxima Nova';dominant-baseline:alphabetic;text-anchor:middle;fill:#7f00ff"
         aria-label="cv">
        <path
           id="path507"
           style="font-weight:bold;font-size:3.0480001px;font-family:'Proxima Nova';dominant-baseline:alphabetic;text-anchor:middle;fill:#7f00ff"
           d="m -1.4443234,-0.73761602 c 0,0.45415201 0.326136,0.77419202 0.780288,0.77419202 0.30175201,0 0.48463202,-0.131064 0.58216802,-0.26822401 l -0.25298401,-0.234696 c -0.070104,0.097536 -0.176784,0.158496 -0.31089601,0.158496 -0.234696,0 -0.399288,-0.17373601 -0.399288,-0.42976801 0,-0.25603201 0.164592,-0.42671998 0.399288,-0.42671998 0.13411201,0 0.24079201,0.054864 0.31089601,0.158496 l 0.25298401,-0.237744 c -0.097536,-0.134112 -0.28041601,-0.265176 -0.58216802,-0.265176 -0.454152,0 -0.780288,0.32004 -0.780288,0.77114398 z" />
        <path
           id="path509"
           style="font-weight:bold;font-size:3.0480001px;font-family:'Proxima Nova';dominant-baseline:alphabetic;text-anchor:middle;fill:#7f00ff"
           d="M 0.54921157,0 H 0.96678758 L 1.5580996,-1.472184 H 1.1405236 L 0.75647558,-0.44805601 0.37242756,-1.472184 h -0.41452801 z" />
      </g>
    </g>
    <g
       id="g90"
       transform="translate(21.288,76)">
      <g
         id="text88"
         style="font-weight:bold;font-size:3.0480001px;font-family:'Proxima Nova';dominant-baseline:alphabetic;text-anchor:middle;fill:#7f00ff"
         aria-label="-  +">
        <path
           id="path512"
           style="font-size:larger"
           d="m -2.2977159,-0.68762883 h 0.8778241 V -1.0826496 h -0.8778241 z" />
        <path
           id="path514"
           style="font-size:larger"
           d="M 1.6470061,-1.0899648 H 2.3017165 V -1.3789153 H 1.6470061 v -0.713232 H 1.3287949 v 0.713232 H 0.67042687 v 0.2889505 H 1.3287949 v 0.74249278 h 0.3182112 z" />
      </g>
    </g>
    <g
       id="g94"
       transform="translate(34.592,73.15)">
      <g
         id="text92"
         style="font-weight:bold;font-size:3.0480001px;font-family:'Proxima Nova';dominant-baseline:alphabetic;text-anchor:middle;fill:#7f00ff"
         aria-label="PHASE">
        <path
           id="path517"
           style="font-weight:bold;font-size:3.0480001px;font-family:'Proxima Nova';dominant-baseline:alphabetic;text-anchor:middle;fill:#7f00ff"
           d="m -4.6952775,0 h 0.4328161 v -0.72237602 h 0.51816 c 0.438912,0 0.682752,-0.30175198 0.682752,-0.65531998 0,-0.3566161 -0.240792,-0.6553201 -0.682752,-0.6553201 h -0.9509761 z m 1.1917681,-1.377696 c 0,0.16764 -0.128016,0.27432 -0.298704,0.27432 h -0.460248 v -0.5486401 h 0.460248 c 0.170688,0 0.298704,0.1036321 0.298704,0.2743201 z" />
        <path
           id="path519"
           style="font-weight:bold;font-size:3.0480001px;font-family:'Proxima Nova';dominant-baseline:alphabetic;text-anchor:middle;fill:#7f00ff"
           d="m -1.4032945,0 h 0.43586399 V -2.0330161 H -1.4032945 V -1.23444 h -0.9601201 v -0.7985761 h -0.432816 V 0 h 0.432816 v -0.85344003 h 0.9601201 z" />
        <path
           id="path521"
           style="font-weight:bold;font-size:3.0480001px;font-family:'Proxima Nova';dominant-baseline:alphabetic;text-anchor:middle;fill:#7f00ff"
           d="M 0.83231852,0 H 1.3260945 L 0.54275851,-2.0330161 H 2.1449365e-4 L -0.78616953,0 h 0.49377601 l 0.12801601,-0.34442401 H 0.70735052 Z M 0.2714865,-1.6002001 0.58847851,-0.72542402 h -0.63398402 z" />
        <path
           id="path523"
           style="font-weight:bold;font-size:3.0480001px;font-family:'Proxima Nova';dominant-baseline:alphabetic;text-anchor:middle;fill:#7f00ff"
           d="M 1.3528595,-0.28651201 C 1.5418356,-0.094488 1.8222516,0.036576 2.2123956,0.036576 c 0.54864,0 0.813816,-0.28041601 0.813816,-0.65227202 0,-0.46024798 -0.42672,-0.56083198 -0.762,-0.64007998 -0.219456,-0.051816 -0.405384,-0.094488 -0.405384,-0.225552 0,-0.1219201 0.103632,-0.2042161 0.28956,-0.2042161 0.207264,0 0.42672,0.070104 0.591312,0.2225041 l 0.240792,-0.3169921 c -0.201168,-0.185928 -0.469392,-0.283464 -0.79248,-0.283464 -0.478536,0 -0.7711441,0.280416 -0.7711441,0.6187441 0,0.46329597 0.4267201,0.55473597 0.7589521,0.63093597 0.222504,0.054864 0.41148,0.097536 0.41148,0.24688801 0,0.11582401 -0.115824,0.22555201 -0.353568,0.22555201 -0.280416,0 -0.50292,-0.124968 -0.646176,-0.27432001 z" />
        <path
           id="path525"
           style="font-weight:bold;font-size:3.0480001px;font-family:'Proxima Nova';dominant-baseline:alphabetic;text-anchor:middle;fill:#7f00ff"
           d="M 3.3176286,0 H 4.7562847 V -0.38100001 H 3.7504446 V -0.84124803 H 4.7349487 V -1.222248 H 3.7504446 v -0.4297681 h 1.0058401 v -0.381 H 3.3176286 Z" />
      </g>
    </g>
    <path
       id="line96"
       d="M 7.9829998,97 H 47.896999"
       style="stroke:#7f00ff;stroke-width:0.34999999" />
    <g
       id="g100"
       transform="translate(7.983,91.8)">
      <g
         id="text98"
         style="font-weight:bold;font-size:3.0480001px;font-family:'Proxima Nova';dominant-baseline:alphabetic;text-anchor:middle;fill:#7f00ff"
         aria-label="cv">
        <path
           id="path529"
           style="font-weight:bold;font-size:3.0480001px;font-family:'Proxima Nova';dominant-baseline:alphabetic;text-anchor:middle;fill:#7f00ff"
           d="m -1.4443234,-0.73761602 c 0,0.45415201 0.326136,0.77419202 0.780288,0.77419202 0.30175201,0 0.48463202,-0.131064 0.58216802,-0.26822401 l -0.25298401,-0.234696 c -0.070104,0.097536 -0.176784,0.158496 -0.31089601,0.158496 -0.234696,0 -0.399288,-0.17373601 -0.399288,-0.42976801 0,-0.25603201 0.164592,-0.42671998 0.399288,-0.42671998 0.13411201,0 0.24079201,0.054864 0.31089601,0.158496 l 0.25298401,-0.237744 c -0.097536,-0.134112 -0.28041601,-0.265176 -0.58216802,-0.265176 -0.454152,0 -0.780288,0.32004 -0.780288,0.77114398 z" />
        <path
           id="path531"
           style="font-weight:bold;font-size:3.0480001px;font-family:'Proxima Nova';dominant-baseline:alphabetic;text-anchor:middle;fill:#7f00ff"
           d="M 0.54921157,0 H 0.96678758 L 1.5580996,-1.472184 H 1.1405236 L 0.75647558,-0.44805601 0.37242756,-1.472184 h -0.41452801 z" />
      </g>
    </g>
    <g
       id="g104"
       transform="translate(21.288,91.8)">
      <g
         id="text102"
         style="font-weight:bold;font-size:2.37100005px;font-family:'Proxima Nova';dominant-baseline:alphabetic;text-anchor:middle;fill:#7f00ff"
         aria-label="GAIN">
        <path
           id="path534"
           style="font-weight:bold;font-size:2.37100005px;font-family:'Proxima Nova';dominant-baseline:alphabetic;text-anchor:middle;fill:#7f00ff"
           d="m -2.7627337,-0.78954302 c 0,0.49791001 0.37936,0.82036602 0.841705,0.82036602 0.286891,0 0.512136,-0.11855 0.673364,-0.29874601 v -0.60697601 h -0.753978 v 0.29400401 h 0.417296 v 0.18968 c -0.064017,0.059275 -0.196793,0.120921 -0.336682,0.120921 -0.286891,0 -0.495539,-0.220503 -0.495539,-0.51924901 0,-0.29874598 0.208648,-0.51924898 0.495539,-0.51924898 0.168341,0 0.303488,0.09484 0.374618,0.206277 l 0.279778,-0.151744 c -0.11855,-0.187309 -0.324827,-0.353279 -0.654396,-0.353279 -0.462345,0 -0.841705,0.317714 -0.841705,0.81799498 z" />
        <path
           id="path536"
           style="font-weight:bold;font-size:2.37100005px;font-family:'Proxima Nova';dominant-baseline:alphabetic;text-anchor:middle;fill:#7f00ff"
           d="M 0.09406206,0 H 0.47816407 L -0.13118295,-1.581457 H -0.55322096 L -1.164939,0 h 0.38410204 l 0.099582,-0.26792301 h 0.67810602 z m -0.43626401,-1.244775 0.246584,0.68047699 h -0.49316801 z" />
        <path
           id="path538"
           style="font-weight:bold;font-size:2.37100005px;font-family:'Proxima Nova';dominant-baseline:alphabetic;text-anchor:middle;fill:#7f00ff"
           d="m 0.62420301,0 h 0.336682 v -1.581457 h -0.336682 z" />
        <path
           id="path540"
           style="font-weight:bold;font-size:2.37100005px;font-family:'Proxima Nova';dominant-baseline:alphabetic;text-anchor:middle;fill:#7f00ff"
           d="m 2.3631832,0 h 0.324827 v -1.581457 h -0.336682 v 0.99344899 L 1.6186892,-1.581457 H 1.2725232 V 0 h 0.336682 v -1.031385 z" />
      </g>
    </g>
    <g
       id="g108"
       transform="translate(34.592,101)">
      <g
         id="text106"
         style="font-weight:bold;font-size:2.37100005px;font-family:'Proxima Nova';dominant-baseline:hanging;text-anchor:middle;fill:#7f00ff"
         aria-label="BI">
        <path
           id="path543"
           style="font-weight:bold;font-size:2.37100005px;font-family:'Proxima Nova';dominant-baseline:hanging;text-anchor:middle;fill:#7f00ff"
           d="m -0.95260484,1.498472 h 0.85830202 c 0.301117,0 0.45997401,-0.18968 0.45997401,-0.42678 0,-0.19916404 -0.13514701,-0.36276304 -0.30348801,-0.38884404 0.149373,-0.030823 0.27266501,-0.16359901 0.27266501,-0.36276301 0,-0.211019 -0.15411501,-0.40307001 -0.45523201,-0.40307001 h -0.83222102 z m 0.33668201,-0.94840005 v -0.343795 h 0.42203801 c 0.113808,0 0.184938,0.073501 0.184938,0.173083 0,0.099582 -0.07113,0.170712 -0.184938,0.170712 z m 0,0.65676705 V 0.83933396 h 0.43389301 c 0.132776,0 0.203906,0.085356 0.203906,0.18493804 0,0.113808 -0.075872,0.182567 -0.203906,0.182567 z" />
        <path
           id="path545"
           style="font-weight:bold;font-size:2.37100005px;font-family:'Proxima Nova';dominant-baseline:hanging;text-anchor:middle;fill:#7f00ff"
           d="M 0.61725657,1.498472 H 0.95393858 V -0.08298506 H 0.61725657 Z" />
      </g>
    </g>
    <g
       id="g112"
       transform="translate(34.592,93)">
      <g
         id="text110"
         style="font-weight:bold;font-size:2.37100005px;font-family:'Proxima Nova';dominant-baseline:alphabetic;text-anchor:middle;fill:#7f00ff"
         aria-label="UNI">
        <path
           id="path548"
           style="font-weight:bold;font-size:2.37100005px;font-family:'Proxima Nova';dominant-baseline:alphabetic;text-anchor:middle;fill:#7f00ff"
           d="m -1.8996156,-0.63068601 c 0,0.388844 0.232358,0.65913801 0.713671,0.65913801 0.48131302,0 0.71367103,-0.26792301 0.71367103,-0.66150901 V -1.581457 h -0.34379501 v 0.93891599 c 0,0.220503 -0.125663,0.372247 -0.36987602,0.372247 -0.244213,0 -0.372247,-0.151744 -0.372247,-0.372247 V -1.581457 h -0.341424 z" />
        <path
           id="path550"
           style="font-weight:bold;font-size:2.37100005px;font-family:'Proxima Nova';dominant-baseline:alphabetic;text-anchor:middle;fill:#7f00ff"
           d="M 0.92761669,0 H 1.2524437 V -1.581457 H 0.91576169 v 0.99344899 L 0.18312267,-1.581457 H -0.16304334 V 0 h 0.33668201 v -1.031385 z" />
        <path
           id="path552"
           style="font-weight:bold;font-size:2.37100005px;font-family:'Proxima Nova';dominant-baseline:alphabetic;text-anchor:middle;fill:#7f00ff"
           d="m 1.5642673,0 h 0.336682 v -1.581457 h -0.336682 z" />
      </g>
    </g>
    <path
       id="rect114"
       d="m 43.696999,90.470001 h 8.399999 c 0.554,0 1,0.446 1,1 V 102.45 c 0,0.554 -0.446,1 -1,1 h -8.399999 c -0.554,0 -1,-0.446 -1,-1 V 91.470001 c 0,-0.554 0.446,-1 1,-1 z"
       style="fill:#7f00ff;stroke:#7f00ff;stroke-width:0.34999999" />
    <g
       id="g118"
       transform="translate(47.897,93.05)">
      <g
         id="text116"
         style="font-weight:bold;font-size:2.37100005px;font-family:'Proxima Nova';dominant-baseline:alphabetic;text-anchor:middle;fill:#f7f2fc"
         aria-label="X OUT">
        <path
           id="path556"
           style="font-weight:bold;font-size:2.37100005px;font-family:'Proxima Nova';dominant-baseline:alphabetic;text-anchor:middle;fill:#f7f2fc"
           d="m -2.3732599,0 h 0.40307 l -0.573782,-0.81325302 0.538217,-0.76820398 h -0.405441 l -0.358021,0.540588 -0.362763,-0.540588 h -0.400699 l 0.538217,0.77057498 L -3.5682439,0 h 0.400699 l 0.398328,-0.57852401 z" />
        <path
           id="path558"
           style="font-weight:bold;font-size:2.37100005px;font-family:'Proxima Nova';dominant-baseline:alphabetic;text-anchor:middle;fill:#f7f2fc"
           d="m -1.2901204,-0.78954302 c 0,0.47657101 0.34853702,0.81799502 0.82510803,0.81799502 0.47894201,0 0.82747902,-0.34142401 0.82747902,-0.81799502 0,-0.47657098 -0.34853701,-0.81799498 -0.82747902,-0.81799498 -0.47657101,0 -0.82510803,0.341424 -0.82510803,0.81799498 z m 1.30642104,0 c 0,0.29400401 -0.18968,0.51924901 -0.48131301,0.51924901 -0.29163301,0 -0.47894201,-0.225245 -0.47894201,-0.51924901 0,-0.29637498 0.187309,-0.51924898 0.47894201,-0.51924898 0.29163301,0 0.48131301,0.222874 0.48131301,0.51924898 z" />
        <path
           id="path560"
           style="font-weight:bold;font-size:2.37100005px;font-family:'Proxima Nova';dominant-baseline:alphabetic;text-anchor:middle;fill:#f7f2fc"
           d="m 0.6010485,-0.63068601 c 0,0.388844 0.23235801,0.65913801 0.713671,0.65913801 0.481313,0 0.713671,-0.26792301 0.713671,-0.66150901 V -1.581457 h -0.343795 v 0.93891599 c 0,0.220503 -0.125663,0.372247 -0.369876,0.372247 -0.244213,0 -0.37224699,-0.151744 -0.37224699,-0.372247 V -1.581457 H 0.6010485 Z" />
        <path
           id="path562"
           style="font-weight:bold;font-size:2.37100005px;font-family:'Proxima Nova';dominant-baseline:alphabetic;text-anchor:middle;fill:#f7f2fc"
           d="m 2.7027548,0 h 0.339053 v -1.285082 h 0.459974 v -0.296375 h -1.261372 v 0.296375 h 0.462345 z" />
      </g>
    </g>
    <g
       id="g122"
       transform="translate(47.897,93.05)">
      <g
         id="text120"
         style="font-weight:bold;font-size:2.37100005px;font-family:'Proxima Nova';dominant-baseline:alphabetic;text-anchor:middle;fill:#f7f2fc"
         aria-label="X OUT">
        <path
           id="path565"
           style="font-weight:bold;font-size:2.37100005px;font-family:'Proxima Nova';dominant-baseline:alphabetic;text-anchor:middle;fill:#f7f2fc"
           d="m -2.3732599,0 h 0.40307 l -0.573782,-0.81325302 0.538217,-0.76820398 h -0.405441 l -0.358021,0.540588 -0.362763,-0.540588 h -0.400699 l 0.538217,0.77057498 L -3.5682439,0 h 0.400699 l 0.398328,-0.57852401 z" />
        <path
           id="path567"
           style="font-weight:bold;font-size:2.37100005px;font-family:'Proxima Nova';dominant-baseline:alphabetic;text-anchor:middle;fill:#f7f2fc"
           d="m -1.2901204,-0.78954302 c 0,0.47657101 0.34853702,0.81799502 0.82510803,0.81799502 0.47894201,0 0.82747902,-0.34142401 0.82747902,-0.81799502 0,-0.47657098 -0.34853701,-0.81799498 -0.82747902,-0.81799498 -0.47657101,0 -0.82510803,0.341424 -0.82510803,0.81799498 z m 1.30642104,0 c 0,0.29400401 -0.18968,0.51924901 -0.48131301,0.51924901 -0.29163301,0 -0.47894201,-0.225245 -0.47894201,-0.51924901 0,-0.29637498 0.187309,-0.51924898 0.47894201,-0.51924898 0.29163301,0 0.48131301,0.222874 0.48131301,0.51924898 z" />
        <path
           id="path569"
           style="font-weight:bold;font-size:2.37100005px;font-family:'Proxima Nova';dominant-baseline:alphabetic;text-anchor:middle;fill:#f7f2fc"
           d="m 0.6010485,-0.63068601 c 0,0.388844 0.23235801,0.65913801 0.713671,0.65913801 0.481313,0 0.713671,-0.26792301 0.713671,-0.66150901 V -1.581457 h -0.343795 v 0.93891599 c 0,0.220503 -0.125663,0.372247 -0.369876,0.372247 -0.244213,0 -0.37224699,-0.151744 -0.37224699,-0.372247 V -1.581457 H 0.6010485 Z" />
        <path
           id="path571"
           style="font-weight:bold;font-size:2.37100005px;font-family:'Proxima Nova';dominant-baseline:alphabetic;text-anchor:middle;fill:#f7f2fc"
           d="m 2.7027548,0 h 0.339053 v -1.285082 h 0.459974 v -0.296375 h -1.261372 v 0.296375 h 0.462345 z" />
      </g>
    </g>
    <path
       id="line124"
       d="M 7.9829998,112 H 47.896999"
       style="stroke:#7f00ff;stroke-width:0.34999999" />
    <g
       id="g128"
       transform="translate(7.983,106.8)">
      <g
         id="text126"
         style="font-weight:bold;font-size:3.0480001px;font-family:'Proxima Nova';dominant-baseline:alphabetic;text-anchor:middle;fill:#7f00ff"
         aria-label="cv">
        <path
           id="path575"
           style="font-weight:bold;font-size:3.0480001px;font-family:'Proxima Nova';dominant-baseline:alphabetic;text-anchor:middle;fill:#7f00ff"
           d="m -1.4443234,-0.73761602 c 0,0.45415201 0.326136,0.77419202 0.780288,0.77419202 0.30175201,0 0.48463202,-0.131064 0.58216802,-0.26822401 l -0.25298401,-0.234696 c -0.070104,0.097536 -0.176784,0.158496 -0.31089601,0.158496 -0.234696,0 -0.399288,-0.17373601 -0.399288,-0.42976801 0,-0.25603201 0.164592,-0.42671998 0.399288,-0.42671998 0.13411201,0 0.24079201,0.054864 0.31089601,0.158496 l 0.25298401,-0.237744 c -0.097536,-0.134112 -0.28041601,-0.265176 -0.58216802,-0.265176 -0.454152,0 -0.780288,0.32004 -0.780288,0.77114398 z" />
        <path
           id="path577"
           style="font-weight:bold;font-size:3.0480001px;font-family:'Proxima Nova';dominant-baseline:alphabetic;text-anchor:middle;fill:#7f00ff"
           d="M 0.54921157,0 H 0.96678758 L 1.5580996,-1.472184 H 1.1405236 L 0.75647558,-0.44805601 0.37242756,-1.472184 h -0.41452801 z" />
      </g>
    </g>
    <g
       id="g132"
       transform="translate(21.288,106.8)">
      <g
         id="text130"
         style="font-weight:bold;font-size:2.37100005px;font-family:'Proxima Nova';dominant-baseline:alphabetic;text-anchor:middle;fill:#7f00ff"
         aria-label="GAIN">
        <path
           id="path580"
           style="font-weight:bold;font-size:2.37100005px;font-family:'Proxima Nova';dominant-baseline:alphabetic;text-anchor:middle;fill:#7f00ff"
           d="m -2.7627337,-0.78954302 c 0,0.49791001 0.37936,0.82036602 0.841705,0.82036602 0.286891,0 0.512136,-0.11855 0.673364,-0.29874601 v -0.60697601 h -0.753978 v 0.29400401 h 0.417296 v 0.18968 c -0.064017,0.059275 -0.196793,0.120921 -0.336682,0.120921 -0.286891,0 -0.495539,-0.220503 -0.495539,-0.51924901 0,-0.29874598 0.208648,-0.51924898 0.495539,-0.51924898 0.168341,0 0.303488,0.09484 0.374618,0.206277 l 0.279778,-0.151744 c -0.11855,-0.187309 -0.324827,-0.353279 -0.654396,-0.353279 -0.462345,0 -0.841705,0.317714 -0.841705,0.81799498 z" />
        <path
           id="path582"
           style="font-weight:bold;font-size:2.37100005px;font-family:'Proxima Nova';dominant-baseline:alphabetic;text-anchor:middle;fill:#7f00ff"
           d="M 0.09406206,0 H 0.47816407 L -0.13118295,-1.581457 H -0.55322096 L -1.164939,0 h 0.38410204 l 0.099582,-0.26792301 h 0.67810602 z m -0.43626401,-1.244775 0.246584,0.68047699 h -0.49316801 z" />
        <path
           id="path584"
           style="font-weight:bold;font-size:2.37100005px;font-family:'Proxima Nova';dominant-baseline:alphabetic;text-anchor:middle;fill:#7f00ff"
           d="m 0.62420301,0 h 0.336682 v -1.581457 h -0.336682 z" />
        <path
           id="path586"
           style="font-weight:bold;font-size:2.37100005px;font-family:'Proxima Nova';dominant-baseline:alphabetic;text-anchor:middle;fill:#7f00ff"
           d="m 2.3631832,0 h 0.324827 v -1.581457 h -0.336682 v 0.99344899 L 1.6186892,-1.581457 H 1.2725232 V 0 h 0.336682 v -1.031385 z" />
      </g>
    </g>
    <g
       id="g136"
       transform="translate(34.592,116)">
      <g
         id="text134"
         style="font-weight:bold;font-size:2.37100005px;font-family:'Proxima Nova';dominant-baseline:hanging;text-anchor:middle;fill:#7f00ff"
         aria-label="BI">
        <path
           id="path589"
           style="font-weight:bold;font-size:2.37100005px;font-family:'Proxima Nova';dominant-baseline:hanging;text-anchor:middle;fill:#7f00ff"
           d="m -0.95260484,1.498472 h 0.85830202 c 0.301117,0 0.45997401,-0.18968 0.45997401,-0.42678 0,-0.19916404 -0.13514701,-0.36276304 -0.30348801,-0.38884404 0.149373,-0.030823 0.27266501,-0.16359901 0.27266501,-0.36276301 0,-0.211019 -0.15411501,-0.40307001 -0.45523201,-0.40307001 h -0.83222102 z m 0.33668201,-0.94840005 v -0.343795 h 0.42203801 c 0.113808,0 0.184938,0.073501 0.184938,0.173083 0,0.099582 -0.07113,0.170712 -0.184938,0.170712 z m 0,0.65676705 V 0.83933396 h 0.43389301 c 0.132776,0 0.203906,0.085356 0.203906,0.18493804 0,0.113808 -0.075872,0.182567 -0.203906,0.182567 z" />
        <path
           id="path591"
           style="font-weight:bold;font-size:2.37100005px;font-family:'Proxima Nova';dominant-baseline:hanging;text-anchor:middle;fill:#7f00ff"
           d="M 0.61725657,1.498472 H 0.95393858 V -0.08298506 H 0.61725657 Z" />
      </g>
    </g>
    <g
       id="g140"
       transform="translate(34.592,108)">
      <g
         id="text138"
         style="font-weight:bold;font-size:2.37100005px;font-family:'Proxima Nova';dominant-baseline:alphabetic;text-anchor:middle;fill:#7f00ff"
         aria-label="UNI">
        <path
           id="path594"
           style="font-weight:bold;font-size:2.37100005px;font-family:'Proxima Nova';dominant-baseline:alphabetic;text-anchor:middle;fill:#7f00ff"
           d="m -1.8996156,-0.63068601 c 0,0.388844 0.232358,0.65913801 0.713671,0.65913801 0.48131302,0 0.71367103,-0.26792301 0.71367103,-0.66150901 V -1.581457 h -0.34379501 v 0.93891599 c 0,0.220503 -0.125663,0.372247 -0.36987602,0.372247 -0.244213,0 -0.372247,-0.151744 -0.372247,-0.372247 V -1.581457 h -0.341424 z" />
        <path
           id="path596"
           style="font-weight:bold;font-size:2.37100005px;font-family:'Proxima Nova';dominant-baseline:alphabetic;text-anchor:middle;fill:#7f00ff"
           d="M 0.92761669,0 H 1.2524437 V -1.581457 H 0.91576169 v 0.99344899 L 0.18312267,-1.581457 H -0.16304334 V 0 h 0.33668201 v -1.031385 z" />
        <path
           id="path598"
           style="font-weight:bold;font-size:2.37100005px;font-family:'Proxima Nova';dominant-baseline:alphabetic;text-anchor:middle;fill:#7f00ff"
           d="m 1.5642673,0 h 0.336682 v -1.581457 h -0.336682 z" />
      </g>
    </g>
    <path
       id="rect142"
       d="m 43.696999,105.47 h 8.399999 c 0.554,0 1,0.446 1,1 v 10.98 c 0,0.554 -0.446,1 -1,1 h -8.399999 c -0.554,0 -1,-0.446 -1,-1 v -10.98 c 0,-0.554 0.446,-1 1,-1 z"
       style="fill:#7f00ff;stroke:#7f00ff;stroke-width:0.34999999" />
    <g
       id="g146"
       transform="translate(47.897,108.05)">
      <g
         id="text144"
         style="font-weight:bold;font-size:2.37100005px;font-family:'Proxima Nova';dominant-baseline:alphabetic;text-anchor:middle;fill:#f7f2fc"
         aria-label="Y OUT">
        <path
           id="path602"
           style="font-weight:bold;font-size:2.37100005px;font-family:'Proxima Nova';dominant-baseline:alphabetic;text-anchor:middle;fill:#f7f2fc"
           d="m -2.9358538,0 h 0.336682 V -0.64728301 L -1.9945667,-1.581457 h -0.3841021 l -0.388844,0.63542798 -0.393586,-0.63542798 h -0.384102 l 0.609347,0.93417399 z" />
        <path
           id="path604"
           style="font-weight:bold;font-size:2.37100005px;font-family:'Proxima Nova';dominant-baseline:alphabetic;text-anchor:middle;fill:#f7f2fc"
           d="m -1.3179056,-0.78954302 c 0,0.47657101 0.34853701,0.81799502 0.82510802,0.81799502 0.47894201,0 0.82747902,-0.34142401 0.82747902,-0.81799502 0,-0.47657098 -0.34853701,-0.81799498 -0.82747902,-0.81799498 -0.47657101,0 -0.82510802,0.341424 -0.82510802,0.81799498 z m 1.30642103,0 c 0,0.29400401 -0.18968,0.51924901 -0.48131301,0.51924901 -0.291633,0 -0.47894201,-0.225245 -0.47894201,-0.51924901 0,-0.29637498 0.18730901,-0.51924898 0.47894201,-0.51924898 0.29163301,0 0.48131301,0.222874 0.48131301,0.51924898 z" />
        <path
           id="path606"
           style="font-weight:bold;font-size:2.37100005px;font-family:'Proxima Nova';dominant-baseline:alphabetic;text-anchor:middle;fill:#f7f2fc"
           d="m 0.5732633,-0.63068601 c 0,0.388844 0.232358,0.65913801 0.713671,0.65913801 0.481313,0 0.713671,-0.26792301 0.713671,-0.66150901 V -1.581457 h -0.343795 v 0.93891599 c 0,0.220503 -0.125663,0.372247 -0.369876,0.372247 -0.244213,0 -0.372247,-0.151744 -0.372247,-0.372247 V -1.581457 h -0.341424 z" />
        <path
           id="path608"
           style="font-weight:bold;font-size:2.37100005px;font-family:'Proxima Nova';dominant-baseline:alphabetic;text-anchor:middle;fill:#f7f2fc"
           d="m 2.6749693,0 h 0.339053 v -1.285082 h 0.459974 v -0.296375 h -1.261372 v 0.296375 h 0.462345 z" />
      </g>
    </g>
    <g
       id="g150"
       transform="translate(47.897,108.05)">
      <g
         id="text148"
         style="font-weight:bold;font-size:2.37100005px;font-family:'Proxima Nova';dominant-baseline:alphabetic;text-anchor:middle;fill:#f7f2fc"
         aria-label="Y OUT">
        <path
           id="path611"
           style="font-weight:bold;font-size:2.37100005px;font-family:'Proxima Nova';dominant-baseline:alphabetic;text-anchor:middle;fill:#f7f2fc"
           d="m -2.9358538,0 h 0.336682 V -0.64728301 L -1.9945667,-1.581457 h -0.3841021 l -0.388844,0.63542798 -0.393586,-0.63542798 h -0.384102 l 0.609347,0.93417399 z" />
        <path
           id="path613"
           style="font-weight:bold;font-size:2.37100005px;font-family:'Proxima Nova';dominant-baseline:alphabetic;text-anchor:middle;fill:#f7f2fc"
           d="m -1.3179056,-0.78954302 c 0,0.47657101 0.34853701,0.81799502 0.82510802,0.81799502 0.47894201,0 0.82747902,-0.34142401 0.82747902,-0.81799502 0,-0.47657098 -0.34853701,-0.81799498 -0.82747902,-0.81799498 -0.47657101,0 -0.82510802,0.341424 -0.82510802,0.81799498 z m 1.30642103,0 c 0,0.29400401 -0.18968,0.51924901 -0.48131301,0.51924901 -0.291633,0 -0.47894201,-0.225245 -0.47894201,-0.51924901 0,-0.29637498 0.18730901,-0.51924898 0.47894201,-0.51924898 0.29163301,0 0.48131301,0.222874 0.48131301,0.51924898 z" />
        <path
           id="path615"
           style="font-weight:bold;font-size:2.37100005px;font-family:'Proxima Nova';dominant-baseline:alphabetic;text-anchor:middle;fill:#f7f2fc"
           d="m 0.5732633,-0.63068601 c 0,0.388844 0.232358,0.65913801 0.713671,0.65913801 0.481313,0 0.713671,-0.26792301 0.713671,-0.66150901 V -1.581457 h -0.343795 v 0.93891599 c 0,0.220503 -0.125663,0.372247 -0.369876,0.372247 -0.244213,0 -0.372247,-0.151744 -0.372247,-0.372247 V -1.581457 h -0.341424 z" />
        <path
           id="path617"
           style="font-weight:bold;font-size:2.37100005px;font-family:'Proxima Nova';dominant-baseline:alphabetic;text-anchor:middle;fill:#f7f2fc"
           d="m 2.6749693,0 h 0.339053 v -1.285082 h 0.459974 v -0.296375 h -1.261372 v 0.296375 h 0.462345 z" />
      </g>
    </g>
    <g
       id="g160"
       transform="translate(7.983,25)">
      <g
         style="fill:#f7f2fc;stroke:#7f00ff;stroke-width:0.20999999"
         id="g158">
        <path
           id="circle152"
           d="M 4.0949998,0 A 4.0949998,4.0949998 0 0 1 0,4.0949998 4.0949998,4.0949998 0 0 1 -4.0949998,0 4.0949998,4.0949998 0 0 1 0,-4.0949998 4.0949998,4.0949998 0 0 1 4.0949998,0 Z"
           style="" />
        <path
           id="circle154"
           d="M 2.925,0 A 2.925,2.925 0 0 1 0,2.925 2.925,2.925 0 0 1 -2.925,0 2.925,2.925 0 0 1 0,-2.925 2.925,2.925 0 0 1 2.925,0 Z"
           style="" />
        <path
           id="circle156"
           d="M 1.755,0 A 1.755,1.755 0 0 1 0,1.755 1.755,1.755 0 0 1 -1.755,0 1.755,1.755 0 0 1 0,-1.755 1.755,1.755 0 0 1 1.755,0 Z"
           style="fill:#7f00ff" />
      </g>
    </g>
    <g
       id="g168"
       transform="translate(21.288,25)">
      <g
         style="fill:#7f00ff;stroke:#f7f2fc"
         id="g166">
        <path
           id="circle162"
           d="M 3.5,0 A 3.5,3.5 0 0 1 0,3.5 3.5,3.5 0 0 1 -3.5,0 3.5,3.5 0 0 1 0,-3.5 3.5,3.5 0 0 1 3.5,0 Z"
           style="stroke:none" />
        <path
           id="line164"
           d="M 0,0 V -3.062"
           style="stroke-width:0.43799999;stroke-linecap:round" />
      </g>
    </g>
    <g
       id="g176"
       transform="translate(34.592,25)">
      <g
         style="fill:#7f00ff;stroke:#f7f2fc"
         id="g174">
        <path
           id="circle170"
           d="M 6.3499999,0 A 6.3499999,6.3499999 0 0 1 0,6.3499999 6.3499999,6.3499999 0 0 1 -6.3499999,0 6.3499999,6.3499999 0 0 1 0,-6.3499999 6.3499999,6.3499999 0 0 1 6.3499999,0 Z"
           style="stroke:none" />
        <path
           id="line172"
           d="M 0,0 V -5.5560002"
           style="stroke-width:0.79400003;stroke-linecap:round" />
      </g>
    </g>
    <g
       id="g186"
       transform="translate(7.983,43.5)">
      <g
         style="fill:#f7f2fc;stroke:#7f00ff;stroke-width:0.20999999"
         id="g184">
        <path
           id="circle178"
           d="M 4.0949998,0 A 4.0949998,4.0949998 0 0 1 0,4.0949998 4.0949998,4.0949998 0 0 1 -4.0949998,0 4.0949998,4.0949998 0 0 1 0,-4.0949998 4.0949998,4.0949998 0 0 1 4.0949998,0 Z"
           style="" />
        <path
           id="circle180"
           d="M 2.925,0 A 2.925,2.925 0 0 1 0,2.925 2.925,2.925 0 0 1 -2.925,0 2.925,2.925 0 0 1 0,-2.925 2.925,2.925 0 0 1 2.925,0 Z"
           style="" />
        <path
           id="circle182"
           d="M 1.755,0 A 1.755,1.755 0 0 1 0,1.755 1.755,1.755 0 0 1 -1.755,0 1.755,1.755 0 0 1 0,-1.755 1.755,1.755 0 0 1 1.755,0 Z"
           style="fill:#7f00ff" />
      </g>
    </g>
    <g
       id="g194"
       transform="translate(21.288,43.5)">
      <g
         style="fill:#7f00ff;stroke:#f7f2fc"
         id="g192">
        <path
           id="circle188"
           d="M 3.5,0 A 3.5,3.5 0 0 1 0,3.5 3.5,3.5 0 0 1 -3.5,0 3.5,3.5 0 0 1 0,-3.5 3.5,3.5 0 0 1 3.5,0 Z"
           style="stroke:none" />
        <path
           id="line190"
           d="M 0,0 V -3.062"
           style="stroke-width:0.43799999;stroke-linecap:round" />
      </g>
    </g>
    <g
       id="g202"
       transform="translate(34.592,43.5)">
      <g
         style="fill:#7f00ff;stroke:#f7f2fc"
         id="g200">
        <path
           id="circle196"
           d="M 6.3499999,0 A 6.3499999,6.3499999 0 0 1 0,6.3499999 6.3499999,6.3499999 0 0 1 -6.3499999,0 6.3499999,6.3499999 0 0 1 0,-6.3499999 6.3499999,6.3499999 0 0 1 6.3499999,0 Z"
           style="stroke:none" />
        <path
           id="line198"
           d="M 0,0 V -5.5560002"
           style="stroke-width:0.79400003;stroke-linecap:round" />
      </g>
    </g>
    <g
       id="g218"
       transform="translate(47.897,43.5)">
      <path
         id="rect204"
         d="m -1.124,-2.812 h 2.249 c 0.104152,0 0.188,0.083848 0.188,0.188 v 5.249 c 0,0.104152 -0.083848,0.188 -0.188,0.188 h -2.249 c -0.104152,0 -0.188,-0.083848 -0.188,-0.188 v -5.249 c 0,-0.104152 0.083848,-0.188 0.188,-0.188 z"
         style="fill:#f7f2fc;stroke:#7f00ff;stroke-width:0.375" />
      <g
         id="g216"
         transform="translate(0,-1.25)">
        <path
           id="line206"
           d="M -0.81199998,-1 H 0.81199998"
           style="fill:#f7f2fc;stroke:#7f00ff;stroke-width:0.25;stroke-linecap:round" />
        <path
           id="line208"
           d="M -0.81199998,-0.5 H 0.81199998"
           style="fill:#f7f2fc;stroke:#7f00ff;stroke-width:0.25;stroke-linecap:round" />
        <path
           id="line210"
           d="M -0.81199998,0 H 0.81199998"
           style="fill:#f7f2fc;stroke:#7f00ff;stroke-width:0.25;stroke-linecap:round" />
        <path
           id="line212"
           d="M -0.81199998,0.5 H 0.81199998"
           style="fill:#f7f2fc;stroke:#7f00ff;stroke-width:0.25;stroke-linecap:round" />
        <path
           id="line214"
           d="M -0.81199998,1 H 0.81199998"
           style="fill:#f7f2fc;stroke:#7f00ff;stroke-width:0.25;stroke-linecap:round" />
      </g>
    </g>
    <g
       id="g228"
       transform="translate(7.983,62)">
      <g
         style="fill:#f7f2fc;stroke:#7f00ff;stroke-width:0.20999999"
         id="g226">
        <path
           id="circle220"
           d="M 4.0949998,0 A 4.0949998,4.0949998 0 0 1 0,4.0949998 4.0949998,4.0949998 0 0 1 -4.0949998,0 4.0949998,4.0949998 0 0 1 0,-4.0949998 4.0949998,4.0949998 0 0 1 4.0949998,0 Z"
           style="" />
        <path
           id="circle222"
           d="M 2.925,0 A 2.925,2.925 0 0 1 0,2.925 2.925,2.925 0 0 1 -2.925,0 2.925,2.925 0 0 1 0,-2.925 2.925,2.925 0 0 1 2.925,0 Z"
           style="" />
        <path
           id="circle224"
           d="M 1.755,0 A 1.755,1.755 0 0 1 0,1.755 1.755,1.755 0 0 1 -1.755,0 1.755,1.755 0 0 1 0,-1.755 1.755,1.755 0 0 1 1.755,0 Z"
           style="fill:#7f00ff" />
      </g>
    </g>
    <g
       id="g236"
       transform="translate(21.288,62)">
      <g
         style="fill:#7f00ff;stroke:#f7f2fc"
         id="g234">
        <path
           id="circle230"
           d="M 3.5,0 A 3.5,3.5 0 0 1 0,3.5 3.5,3.5 0 0 1 -3.5,0 3.5,3.5 0 0 1 0,-3.5 3.5,3.5 0 0 1 3.5,0 Z"
           style="stroke:none" />
        <path
           id="line232"
           d="M 0,0 V -3.062"
           style="stroke-width:0.43799999;stroke-linecap:round" />
      </g>
    </g>
    <g
       id="g244"
       transform="translate(34.592,62)">
      <g
         style="fill:#7f00ff;stroke:#f7f2fc"
         id="g242">
        <path
           id="circle238"
           d="M 6.3499999,0 A 6.3499999,6.3499999 0 0 1 0,6.3499999 6.3499999,6.3499999 0 0 1 -6.3499999,0 6.3499999,6.3499999 0 0 1 0,-6.3499999 6.3499999,6.3499999 0 0 1 6.3499999,0 Z"
           style="stroke:none" />
        <path
           id="line240"
           d="M 0,0 V -5.5560002"
           style="stroke-width:0.79400003;stroke-linecap:round" />
      </g>
    </g>
    <g
       id="g260"
       transform="translate(47.897,62)">
      <path
         id="rect246"
         d="m -1.124,-4.3119998 h 2.249 c 0.104152,0 0.188,0.083848 0.188,0.188 v 8.249 c 0,0.104152 -0.083848,0.188 -0.188,0.188 h -2.249 c -0.104152,0 -0.188,-0.083848 -0.188,-0.188 v -8.249 c 0,-0.104152 0.083848,-0.188 0.188,-0.188 z"
         style="fill:#f7f2fc;stroke:#7f00ff;stroke-width:0.375" />
      <g
         id="g258">
        <path
           id="line248"
           d="M -0.81199998,-1 H 0.81199998"
           style="fill:#f7f2fc;stroke:#7f00ff;stroke-width:0.25;stroke-linecap:round" />
        <path
           id="line250"
           d="M -0.81199998,-0.5 H 0.81199998"
           style="fill:#f7f2fc;stroke:#7f00ff;stroke-width:0.25;stroke-linecap:round" />
        <path
           id="line252"
           d="M -0.81199998,0 H 0.81199998"
           style="fill:#f7f2fc;stroke:#7f00ff;stroke-width:0.25;stroke-linecap:round" />
        <path
           id="line254"
           d="M -0.81199998,0.5 H 0.81199998"
           style="fill:#f7f2fc;stroke:#7f00ff;stroke-width:0.25;stroke-linecap:round" />
        <path
           id="line256"
           d="M -0.81199998,1 H 0.81199998"
           style="fill:#f7f2fc;stroke:#7f00ff;stroke-width:0.25;stroke-linecap:round" />
      </g>
    </g>
    <g
       id="g270"
       transform="translate(7.983,80.5)">
      <g
         style="fill:#f7f2fc;stroke:#7f00ff;stroke-width:0.20999999"
         id="g268">
        <path
           id="circle262"
           d="M 4.0949998,0 A 4.0949998,4.0949998 0 0 1 0,4.0949998 4.0949998,4.0949998 0 0 1 -4.0949998,0 4.0949998,4.0949998 0 0 1 0,-4.0949998 4.0949998,4.0949998 0 0 1 4.0949998,0 Z"
           style="" />
        <path
           id="circle264"
           d="M 2.925,0 A 2.925,2.925 0 0 1 0,2.925 2.925,2.925 0 0 1 -2.925,0 2.925,2.925 0 0 1 0,-2.925 2.925,2.925 0 0 1 2.925,0 Z"
           style="" />
        <path
           id="circle266"
           d="M 1.755,0 A 1.755,1.755 0 0 1 0,1.755 1.755,1.755 0 0 1 -1.755,0 1.755,1.755 0 0 1 0,-1.755 1.755,1.755 0 0 1 1.755,0 Z"
           style="fill:#7f00ff" />
      </g>
    </g>
    <g
       id="g278"
       transform="translate(21.288,80.5)">
      <g
         style="fill:#7f00ff;stroke:#f7f2fc"
         id="g276">
        <path
           id="circle272"
           d="M 3.5,0 A 3.5,3.5 0 0 1 0,3.5 3.5,3.5 0 0 1 -3.5,0 3.5,3.5 0 0 1 0,-3.5 3.5,3.5 0 0 1 3.5,0 Z"
           style="stroke:none" />
        <path
           id="line274"
           d="M 0,0 V -3.062"
           style="stroke-width:0.43799999;stroke-linecap:round" />
      </g>
    </g>
    <g
       id="g286"
       transform="translate(34.592,80.5)">
      <g
         style="fill:#7f00ff;stroke:#f7f2fc"
         id="g284">
        <path
           id="circle280"
           d="M 6.3499999,0 A 6.3499999,6.3499999 0 0 1 0,6.3499999 6.3499999,6.3499999 0 0 1 -6.3499999,0 6.3499999,6.3499999 0 0 1 0,-6.3499999 6.3499999,6.3499999 0 0 1 6.3499999,0 Z"
           style="stroke:none" />
        <path
           id="line282"
           d="M 0,0 V -5.5560002"
           style="stroke-width:0.79400003;stroke-linecap:round" />
      </g>
    </g>
    <g
       id="g296"
       transform="translate(7.983,97)">
      <g
         style="fill:#f7f2fc;stroke:#7f00ff;stroke-width:0.20999999"
         id="g294">
        <path
           id="circle288"
           d="M 4.0949998,0 A 4.0949998,4.0949998 0 0 1 0,4.0949998 4.0949998,4.0949998 0 0 1 -4.0949998,0 4.0949998,4.0949998 0 0 1 0,-4.0949998 4.0949998,4.0949998 0 0 1 4.0949998,0 Z"
           style="" />
        <path
           id="circle290"
           d="M 2.925,0 A 2.925,2.925 0 0 1 0,2.925 2.925,2.925 0 0 1 -2.925,0 2.925,2.925 0 0 1 0,-2.925 2.925,2.925 0 0 1 2.925,0 Z"
           style="" />
        <path
           id="circle292"
           d="M 1.755,0 A 1.755,1.755 0 0 1 0,1.755 1.755,1.755 0 0 1 -1.755,0 1.755,1.755 0 0 1 0,-1.755 1.755,1.755 0 0 1 1.755,0 Z"
           style="fill:#7f00ff" />
      </g>
    </g>
    <g
       id="g304"
       transform="translate(21.288,97)">
      <g
         style="fill:#7f00ff;stroke:#f7f2fc"
         id="g302">
        <path
           id="circle298"
           d="M 4.1999998,0 A 4.1999998,4.1999998 0 0 1 0,4.1999998 4.1999998,4.1999998 0 0 1 -4.1999998,0 4.1999998,4.1999998 0 0 1 0,-4.1999998 4.1999998,4.1999998 0 0 1 4.1999998,0 Z"
           style="stroke:none" />
        <path
           id="line300"
           d="M 0,0 V -3.675"
           style="stroke-width:0.52499998;stroke-linecap:round" />
      </g>
    </g>
    <g
       id="g320"
       transform="translate(34.592,97)">
      <path
         id="rect306"
         d="m -1.124,-2.812 h 2.249 c 0.104152,0 0.188,0.083848 0.188,0.188 v 5.249 c 0,0.104152 -0.083848,0.188 -0.188,0.188 h -2.249 c -0.104152,0 -0.188,-0.083848 -0.188,-0.188 v -5.249 c 0,-0.104152 0.083848,-0.188 0.188,-0.188 z"
         style="fill:#f7f2fc;stroke:#7f00ff;stroke-width:0.375" />
      <g
         id="g318"
         transform="translate(0,1.25)">
        <path
           id="line308"
           d="M -0.81199998,-1 H 0.81199998"
           style="fill:#f7f2fc;stroke:#7f00ff;stroke-width:0.25;stroke-linecap:round" />
        <path
           id="line310"
           d="M -0.81199998,-0.5 H 0.81199998"
           style="fill:#f7f2fc;stroke:#7f00ff;stroke-width:0.25;stroke-linecap:round" />
        <path
           id="line312"
           d="M -0.81199998,0 H 0.81199998"
           style="fill:#f7f2fc;stroke:#7f00ff;stroke-width:0.25;stroke-linecap:round" />
        <path
           id="line314"
           d="M -0.81199998,0.5 H 0.81199998"
           style="fill:#f7f2fc;stroke:#7f00ff;stroke-width:0.25;stroke-linecap:round" />
        <path
           id="line316"
           d="M -0.81199998,1 H 0.81199998"
           style="fill:#f7f2fc;stroke:#7f00ff;stroke-width:0.25;stroke-linecap:round" />
      </g>
    </g>
    <g
       id="g330"
       transform="translate(47.897,98.25)">
      <g
         style="fill:#f7f2fc;stroke:#7f00ff;stroke-width:0.20999999"
         id="g328">
        <path
           id="circle322"
           d="M 4.0949998,0 A 4.0949998,4.0949998 0 0 1 0,4.0949998 4.0949998,4.0949998 0 0 1 -4.0949998,0 4.0949998,4.0949998 0 0 1 0,-4.0949998 4.0949998,4.0949998 0 0 1 4.0949998,0 Z"
           style="" />
        <path
           id="circle324"
           d="M 2.925,0 A 2.925,2.925 0 0 1 0,2.925 2.925,2.925 0 0 1 -2.925,0 2.925,2.925 0 0 1 0,-2.925 2.925,2.925 0 0 1 2.925,0 Z"
           style="" />
        <path
           id="circle326"
           d="M 1.755,0 A 1.755,1.755 0 0 1 0,1.755 1.755,1.755 0 0 1 -1.755,0 1.755,1.755 0 0 1 0,-1.755 1.755,1.755 0 0 1 1.755,0 Z"
           style="fill:#7f00ff" />
      </g>
    </g>
    <g
       id="g340"
       transform="translate(7.983,112)">
      <g
         style="fill:#f7f2fc;stroke:#7f00ff;stroke-width:0.20999999"
         id="g338">
        <path
           id="circle332"
           d="M 4.0949998,0 A 4.0949998,4.0949998 0 0 1 0,4.0949998 4.0949998,4.0949998 0 0 1 -4.0949998,0 4.0949998,4.0949998 0 0 1 0,-4.0949998 4.0949998,4.0949998 0 0 1 4.0949998,0 Z"
           style="" />
        <path
           id="circle334"
           d="M 2.925,0 A 2.925,2.925 0 0 1 0,2.925 2.925,2.925 0 0 1 -2.925,0 2.925,2.925 0 0 1 0,-2.925 2.925,2.925 0 0 1 2.925,0 Z"
           style="" />
        <path
           id="circle336"
           d="M 1.755,0 A 1.755,1.755 0 0 1 0,1.755 1.755,1.755 0 0 1 -1.755,0 1.755,1.755 0 0 1 0,-1.755 1.755,1.755 0 0 1 1.755,0 Z"
           style="fill:#7f00ff" />
      </g>
    </g>
    <g
       id="g348"
       transform="translate(21.288,112)">
      <g
         style="fill:#7f00ff;stroke:#f7f2fc"
         id="g346">
        <path
           id="circle342"
           d="M 4.1999998,0 A 4.1999998,4.1999998 0 0 1 0,4.1999998 4.1999998,4.1999998 0 0 1 -4.1999998,0 4.1999998,4.1999998 0 0 1 0,-4.1999998 4.1999998,4.1999998 0 0 1 4.1999998,0 Z"
           style="stroke:none" />
        <path
           id="line344"
           d="M 0,0 V -3.675"
           style="stroke-width:0.52499998;stroke-linecap:round" />
      </g>
    </g>
    <g
       id="g364"
       transform="translate(34.592,112)">
      <path
         id="rect350"
         d="m -1.124,-2.812 h 2.249 c 0.104152,0 0.188,0.083848 0.188,0.188 v 5.249 c 0,0.104152 -0.083848,0.188 -0.188,0.188 h -2.249 c -0.104152,0 -0.188,-0.083848 -0.188,-0.188 v -5.249 c 0,-0.104152 0.083848,-0.188 0.188,-0.188 z"
         style="fill:#f7f2fc;stroke:#7f00ff;stroke-width:0.375" />
      <g
         id="g362"
         transform="translate(0,1.25)">
        <path
           id="line352"
           d="M -0.81199998,-1 H 0.81199998"
           style="fill:#f7f2fc;stroke:#7f00ff;stroke-width:0.25;stroke-linecap:round" />
        <path
           id="line354"
           d="M -0.81199998,-0.5 H 0.81199998"
           style="fill:#f7f2fc;stroke:#7f00ff;stroke-width:0.25;stroke-linecap:round" />
        <path
           id="line356"
           d="M -0.81199998,0 H 0.81199998"
           style="fill:#f7f2fc;stroke:#7f00ff;stroke-width:0.25;stroke-linecap:round" />
        <path
           id="line358"
           d="M -0.81199998,0.5 H 0.81199998"
           style="fill:#f7f2fc;stroke:#7f00ff;stroke-width:0.25;stroke-linecap:round" />
        <path
           id="line360"
           d="M -0.81199998,1 H 0.81199998"
           style="fill:#f7f2fc;stroke:#7f00ff;stroke-width:0.25;stroke-linecap:round" />
      </g>
    </g>
    <g
       id="g374"
       transform="translate(47.897,113.25)">
      <g
         style="fill:#f7f2fc;stroke:#7f00ff;stroke-width:0.20999999"
         id="g372">
        <path
           id="circle366"
           d="M 4.0949998,0 A 4.0949998,4.0949998 0 0 1 0,4.0949998 4.0949998,4.0949998 0 0 1 -4.0949998,0 4.0949998,4.0949998 0 0 1 0,-4.0949998 4.0949998,4.0949998 0 0 1 4.0949998,0 Z"
           style="" />
        <path
           id="circle368"
           d="M 2.925,0 A 2.925,2.925 0 0 1 0,2.925 2.925,2.925 0 0 1 -2.925,0 2.925,2.925 0 0 1 0,-2.925 2.925,2.925 0 0 1 2.925,0 Z"
           style="" />
        <path
           id="circle370"
           d="M 1.755,0 A 1.755,1.755 0 0 1 0,1.755 1.755,1.755 0 0 1 -1.755,0 1.755,1.755 0 0 1 0,-1.755 1.755,1.755 0 0 1 1.755,0 Z"
           style="fill:#7f00ff" />
      </g>
    </g>
  </g>
</svg>
