<?xml version="1.0" encoding="UTF-8" standalone="no"?>
<svg
   xmlns:dc="http://purl.org/dc/elements/1.1/"
   xmlns:cc="http://creativecommons.org/ns#"
   xmlns:rdf="http://www.w3.org/1999/02/22-rdf-syntax-ns#"
   xmlns:svg="http://www.w3.org/2000/svg"
   xmlns="http://www.w3.org/2000/svg"
   id="svg502"
   height="379.429"
   width="135.000"
   version="1.1">
  <metadata
     id="metadata508">
    <rdf:RDF>
      <cc:Work
         rdf:about="">
        <dc:format>image/svg+xml</dc:format>
        <dc:type
           rdf:resource="http://purl.org/dc/dcmitype/StillImage" />
      </cc:Work>
    </rdf:RDF>
  </metadata>
  <defs
     id="defs506" />
  <g
     id="g500"
     transform="scale(2.953)">
    <path
       id="rect2"
       d="M 0,0 H 45.720001 V 128.5 H 0 Z"
       style="fill:#f0f0ff;stroke:#000099;stroke-width:1" />
    <g
       id="g6"
       transform="translate(22.86,9)">
      <g
         id="text4"
         style="font-weight:bold;font-size:4.06400013px;font-family:'Proxima Nova';dominant-baseline:alphabetic;text-anchor:middle;fill:#000099"
         aria-label="ZADEH">
        <path
           id="path511"
           style="font-weight:bold;font-size:4.06400013px;font-family:'Proxima Nova';dominant-baseline:alphabetic;text-anchor:middle;fill:#000099"
           d="m -6.5523747,0 h 2.0645121 v -0.50800002 h -1.3086081 l 1.2801601,-1.73939208 v -0.463296 h -2.0360641 v 0.508 h 1.28016 l -1.28016,1.73532809 z" />
        <path
           id="path513"
           style="font-weight:bold;font-size:4.06400013px;font-family:'Proxima Nova';dominant-baseline:alphabetic;text-anchor:middle;fill:#000099"
           d="m -2.180336,0 h 0.6583681 L -2.566416,-2.7106881 H -3.289808 L -4.33832,0 h 0.658368 l 0.170688,-0.45923201 h 1.162304 z m -0.747776,-2.1336001 0.422656,1.16636807 h -0.845312 z" />
        <path
           id="path515"
           style="font-weight:bold;font-size:4.06400013px;font-family:'Proxima Nova';dominant-baseline:alphabetic;text-anchor:middle;fill:#000099"
           d="m -1.2716512,0 h 1.06883201 c 0.84937603,0 1.43865609,-0.53644802 1.43865609,-1.353312 0,-0.8168641 -0.58928006,-1.3573761 -1.43865609,-1.3573761 H -1.2716512 Z m 0.577088,-0.50800002 V -2.2026881 h 0.49174401 c 0.55676802,0 0.84937603,0.369824 0.84937603,0.8493761 0,0.45923197 -0.31292801,0.84531198 -0.84937603,0.84531198 z" />
        <path
           id="path517"
           style="font-weight:bold;font-size:4.06400013px;font-family:'Proxima Nova';dominant-baseline:alphabetic;text-anchor:middle;fill:#000099"
           d="m 1.6493493,0 h 1.918208 v -0.50800002 h -1.34112 V -1.121664 h 1.312672 v -0.5080001 h -1.312672 v -0.573024 h 1.34112 v -0.508 h -1.918208 z" />
        <path
           id="path519"
           style="font-weight:bold;font-size:4.06400013px;font-family:'Proxima Nova';dominant-baseline:alphabetic;text-anchor:middle;fill:#000099"
           d="m 5.8799093,0 h 0.581152 v -2.7106881 h -0.581152 v 1.064768 h -1.28016 v -1.064768 H 4.0226613 V 0 h 0.577088 v -1.13792 h 1.28016 z" />
      </g>
    </g>
    <g
       id="g10"
       transform="translate(22.86,119.5)">
      <g
         id="text8"
         style="font-weight:bold;font-size:4.06400013px;font-family:'Proxima Nova';dominant-baseline:hanging;text-anchor:middle;fill:#000099"
         aria-label="DHE">
        <path
           id="path522"
           style="font-weight:bold;font-size:4.06400013px;font-family:'Proxima Nova';dominant-baseline:hanging;text-anchor:middle;fill:#000099"
           d="m -3.8632449,2.5684481 h 1.0688321 c 0.849376,0 1.438656,-0.5364481 1.438656,-1.3533121 0,-0.816864 -0.58928,-1.35737602 -1.438656,-1.35737602 h -1.0688321 z m 0.577088,-0.508 V 0.36576 h 0.4917441 c 0.556768,0 0.849376,0.36982401 0.849376,0.849376 0,0.459232 -0.312928,0.8453121 -0.849376,0.8453121 z" />
        <path
           id="path524"
           style="font-weight:bold;font-size:4.06400013px;font-family:'Proxima Nova';dominant-baseline:hanging;text-anchor:middle;fill:#000099"
           d="M 0.91500319,2.5684481 H 1.4961552 V -0.14224002 H 0.91500319 V 0.92252801 H -0.36515685 V -0.14224002 H -0.94224487 V 2.5684481 h 0.57708802 V 1.430528 h 1.28016004 z" />
        <path
           id="path526"
           style="font-weight:bold;font-size:4.06400013px;font-family:'Proxima Nova';dominant-baseline:hanging;text-anchor:middle;fill:#000099"
           d="m 2.0263802,2.5684481 h 1.9182081 v -0.508 H 2.6034682 V 1.446784 H 3.9161403 V 0.93878401 H 2.6034682 V 0.36576 H 3.9445883 V -0.14224002 H 2.0263802 Z" />
      </g>
    </g>
    <g
       id="g14"
       transform="translate(7.62,15.12)">
      <g
         id="text12"
         style="font-weight:bold;font-size:3.0480001px;font-family:'Proxima Nova';dominant-baseline:alphabetic;text-anchor:middle;fill:#000099"
         aria-label="A">
        <path
           id="path529"
           style="font-weight:bold;font-size:3.0480001px;font-family:'Proxima Nova';dominant-baseline:alphabetic;text-anchor:middle;fill:#000099"
           d="M 0.56145114,0 H 1.0552272 L 0.27189113,-2.0330161 H -0.27065288 L -1.0570369,0 h 0.49377601 l 0.128016,-0.34442401 H 0.43648314 Z M 6.1912502e-4,-1.6002001 0.31761114,-0.72542402 h -0.63398403 z" />
      </g>
    </g>
    <g
       id="g18"
       transform="translate(16.51,16.32)">
      <g
         id="text16"
         style="font-weight:bold;font-size:2.37100005px;font-family:'Proxima Nova';dominant-baseline:alphabetic;text-anchor:middle;fill:#000099"
         aria-label="¬">
        <path
           id="path532"
           style="font-weight:bold;font-size:2.37100005px;font-family:'Proxima Nova';dominant-baseline:alphabetic;text-anchor:middle;fill:#000099"
           d="M 0.51495157,-0.47657101 V -1.109628 h -1.05746602 v 0.18967998 h 0.86541502 v 0.44337701 z" />
      </g>
    </g>
    <g
       id="g22"
       transform="translate(29.21,16.32)">
      <g
         id="text20"
         style="font-weight:bold;font-size:2.37100005px;font-family:'Proxima Nova';dominant-baseline:alphabetic;text-anchor:middle;fill:#000099"
         aria-label="¬">
        <path
           id="path535"
           style="font-weight:bold;font-size:2.37100005px;font-family:'Proxima Nova';dominant-baseline:alphabetic;text-anchor:middle;fill:#000099"
           d="M 0.51495157,-0.47657101 V -1.109628 h -1.05746602 v 0.18967998 h 0.86541502 v 0.44337701 z" />
      </g>
    </g>
    <g
       id="g26"
       transform="translate(38.1,15.12)">
      <g
         id="text24"
         style="font-weight:bold;font-size:3.0480001px;font-family:'Proxima Nova';dominant-baseline:alphabetic;text-anchor:middle;fill:#000099"
         aria-label="C">
        <path
           id="path538"
           style="font-weight:bold;font-size:3.0480001px;font-family:'Proxima Nova';dominant-baseline:alphabetic;text-anchor:middle;fill:#000099"
           d="m 0.137922,0.036576 c 0.44805602,0 0.70408803,-0.24688801 0.85039203,-0.49987201 L 0.61645802,-0.64312802 c -0.085344,0.16764 -0.26822401,0.29565601 -0.47853602,0.29565601 -0.36880801,0 -0.63703202,-0.28346401 -0.63703202,-0.66751199 0,-0.384048 0.26822401,-0.6675121 0.63703202,-0.6675121 0.21031201,0 0.39319202,0.1310641 0.47853602,0.2956561 l 0.37185601,-0.1828801 c -0.143256,-0.252984 -0.40233601,-0.496824 -0.85039203,-0.496824 -0.60960002,0 -1.08204003,0.42672 -1.08204003,1.0515601 0,0.62483999 0.47244001,1.05156 1.08204003,1.05156 z" />
      </g>
    </g>
    <g
       id="g30"
       transform="translate(7.62,30.36)">
      <g
         id="text28"
         style="font-weight:bold;font-size:3.0480001px;font-family:'Proxima Nova';dominant-baseline:alphabetic;text-anchor:middle;fill:#000099"
         aria-label="B">
        <path
           id="path541"
           style="font-weight:bold;font-size:3.0480001px;font-family:'Proxima Nova';dominant-baseline:alphabetic;text-anchor:middle;fill:#000099"
           d="m -0.80788671,0 h 1.10337603 c 0.38709601,0 0.59131202,-0.24384001 0.59131202,-0.54864002 0,-0.25603201 -0.173736,-0.46634398 -0.39014401,-0.49987198 0.192024,-0.039624 0.35052001,-0.210312 0.35052001,-0.466344 0,-0.2712721 -0.19812001,-0.5181601 -0.58521602,-0.5181601 h -1.06984803 z m 0.43281601,-1.2192 v -0.4419601 h 0.54254402 c 0.146304,0 0.23774401,0.094488 0.23774401,0.2225041 0,0.128016 -0.09144,0.219456 -0.23774401,0.219456 z m 0,0.84429599 v -0.47244002 h 0.55778402 c 0.170688,0 0.26212801,0.10972801 0.26212801,0.23774401 0,0.14630401 -0.097536,0.23469601 -0.26212801,0.23469601 z" />
      </g>
    </g>
    <g
       id="g34"
       transform="translate(16.51,31.56)">
      <g
         id="text32"
         style="font-weight:bold;font-size:2.37100005px;font-family:'Proxima Nova';dominant-baseline:alphabetic;text-anchor:middle;fill:#000099"
         aria-label="¬">
        <path
           id="path544"
           style="font-weight:bold;font-size:2.37100005px;font-family:'Proxima Nova';dominant-baseline:alphabetic;text-anchor:middle;fill:#000099"
           d="M 0.51495157,-0.47657101 V -1.109628 h -1.05746602 v 0.18967998 h 0.86541502 v 0.44337701 z" />
      </g>
    </g>
    <g
       id="g38"
       transform="translate(29.21,31.56)">
      <g
         id="text36"
         style="font-weight:bold;font-size:2.37100005px;font-family:'Proxima Nova';dominant-baseline:alphabetic;text-anchor:middle;fill:#000099"
         aria-label="¬">
        <path
           id="path547"
           style="font-weight:bold;font-size:2.37100005px;font-family:'Proxima Nova';dominant-baseline:alphabetic;text-anchor:middle;fill:#000099"
           d="M 0.51495157,-0.47657101 V -1.109628 h -1.05746602 v 0.18967998 h 0.86541502 v 0.44337701 z" />
      </g>
    </g>
    <g
       id="g42"
       transform="translate(38.1,30.36)">
      <g
         id="text40"
         style="font-weight:bold;font-size:3.0480001px;font-family:'Proxima Nova';dominant-baseline:alphabetic;text-anchor:middle;fill:#000099"
         aria-label="D">
        <path
           id="path550"
           style="font-weight:bold;font-size:3.0480001px;font-family:'Proxima Nova';dominant-baseline:alphabetic;text-anchor:middle;fill:#000099"
           d="M -0.89420703,0 H -0.092583 c 0.63703202,0 1.07899203,-0.40233601 1.07899203,-1.014984 0,-0.6126481 -0.44196001,-1.0180321 -1.07899203,-1.0180321 h -0.80162403 z m 0.43281602,-0.38100001 V -1.6520161 H -0.092583 c 0.41757601,0 0.63703202,0.2773681 0.63703202,0.6370321 0,0.34442398 -0.23469601,0.63398399 -0.63703202,0.63398399 z" />
      </g>
    </g>
    <path
       id="rect44"
       d="M 3.4200001,43.02 H 11.82 c 0.554,0 1,0.446 1,1 V 55 c 0,0.554 -0.446,1 -1,1 H 3.4200001 c -0.554,0 -1,-0.446 -1,-1 V 44.02 c 0,-0.554 0.446,-1 1,-1 z"
       style="fill:#000099;stroke:#000099;stroke-width:0.34999999" />
    <g
       id="g48"
       transform="translate(7.62,45.6)">
      <g
         id="text46"
         style="font-weight:bold;font-size:2.37100005px;font-family:'Proxima Nova';dominant-baseline:alphabetic;text-anchor:middle;fill:#f0f0ff"
         aria-label="A∧B">
        <path
           id="path554"
           style="font-weight:bold;font-size:2.37100005px;font-family:'Proxima Nova';dominant-baseline:alphabetic;text-anchor:middle;fill:#f0f0ff"
           d="m -1.0127134,0 h 0.38410201 L -1.2379584,-1.581457 h -0.422038 L -2.2717144,0 h 0.384102 l 0.099582,-0.26792301 h 0.678106 z m -0.436264,-1.244775 0.246584,0.68047699 h -0.493168 z" />
        <path
           id="path556"
           style="font-weight:bold;font-size:2.37100005px;font-family:'Proxima Nova';dominant-baseline:alphabetic;text-anchor:middle;fill:#f0f0ff"
           d="M 0.64600493,0 H 0.43993169 L 0.02662748,-1.1148794 -0.38551902,0 h -0.20607324 l 0.5221294,-1.3464224 h 0.19333839 z" />
        <path
           id="path558"
           style="font-weight:bold;font-size:2.37100005px;font-family:'Proxima Nova';dominant-baseline:alphabetic;text-anchor:middle;fill:#f0f0ff"
           d="M 0.84648405,0 H 1.7047861 c 0.301117,0 0.459974,-0.18968 0.459974,-0.42678001 0,-0.199164 -0.135147,-0.36276301 -0.303488,-0.38884401 0.149373,-0.030823 0.272665,-0.163599 0.272665,-0.36276298 0,-0.211019 -0.154115,-0.40307 -0.455232,-0.40307 H 0.84648405 Z M 1.1831661,-0.94840002 V -1.292195 h 0.422038 c 0.113808,0 0.184938,0.073501 0.184938,0.173083 0,0.099582 -0.07113,0.17071198 -0.184938,0.17071198 z m 0,0.65676701 v -0.367505 h 0.433893 c 0.132776,0 0.203906,0.085356 0.203906,0.184938 0,0.113808 -0.075872,0.182567 -0.203906,0.182567 z" />
      </g>
    </g>
    <g
       id="g52"
       transform="translate(7.62,45.6)">
      <g
         id="text50"
         style="font-weight:bold;font-size:2.37100005px;font-family:'Proxima Nova';dominant-baseline:alphabetic;text-anchor:middle;fill:#f0f0ff"
         aria-label="A∧B">
        <path
           id="path561"
           style="font-weight:bold;font-size:2.37100005px;font-family:'Proxima Nova';dominant-baseline:alphabetic;text-anchor:middle;fill:#f0f0ff"
           d="m -1.0127134,0 h 0.38410201 L -1.2379584,-1.581457 h -0.422038 L -2.2717144,0 h 0.384102 l 0.099582,-0.26792301 h 0.678106 z m -0.436264,-1.244775 0.246584,0.68047699 h -0.493168 z" />
        <path
           id="path563"
           style="font-weight:bold;font-size:2.37100005px;font-family:'Proxima Nova';dominant-baseline:alphabetic;text-anchor:middle;fill:#f0f0ff"
           d="M 0.64600493,0 H 0.43993169 L 0.02662748,-1.1148794 -0.38551902,0 h -0.20607324 l 0.5221294,-1.3464224 h 0.19333839 z" />
        <path
           id="path565"
           style="font-weight:bold;font-size:2.37100005px;font-family:'Proxima Nova';dominant-baseline:alphabetic;text-anchor:middle;fill:#f0f0ff"
           d="M 0.84648405,0 H 1.7047861 c 0.301117,0 0.459974,-0.18968 0.459974,-0.42678001 0,-0.199164 -0.135147,-0.36276301 -0.303488,-0.38884401 0.149373,-0.030823 0.272665,-0.163599 0.272665,-0.36276298 0,-0.211019 -0.154115,-0.40307 -0.455232,-0.40307 H 0.84648405 Z M 1.1831661,-0.94840002 V -1.292195 h 0.422038 c 0.113808,0 0.184938,0.073501 0.184938,0.173083 0,0.099582 -0.07113,0.17071198 -0.184938,0.17071198 z m 0,0.65676701 v -0.367505 h 0.433893 c 0.132776,0 0.203906,0.085356 0.203906,0.184938 0,0.113808 -0.075872,0.182567 -0.203906,0.182567 z" />
      </g>
    </g>
    <path
       id="rect54"
       d="m 12.31,43.02 h 8.4 c 0.554,0 1,0.446 1,1 V 55 c 0,0.554 -0.446,1 -1,1 h -8.4 c -0.554,0 -1,-0.446 -1,-1 V 44.02 c 0,-0.554 0.446,-1 1,-1 z"
       style="fill:#000099;stroke:#000099;stroke-width:0.34999999" />
    <g
       id="g58"
       transform="translate(16.51,45.6)">
      <g
         id="text56"
         style="font-weight:bold;font-size:2.37100005px;font-family:'Proxima Nova';dominant-baseline:alphabetic;text-anchor:middle;fill:#f0f0ff"
         aria-label="¬">
        <path
           id="path569"
           style="font-weight:bold;font-size:2.37100005px;font-family:'Proxima Nova';dominant-baseline:alphabetic;text-anchor:middle;fill:#f0f0ff"
           d="M 0.51495157,-0.47657101 V -1.109628 h -1.05746602 v 0.18967998 h 0.86541502 v 0.44337701 z" />
      </g>
    </g>
    <g
       id="g62"
       transform="translate(16.51,45.6)">
      <g
         id="text60"
         style="font-weight:bold;font-size:2.37100005px;font-family:'Proxima Nova';dominant-baseline:alphabetic;text-anchor:middle;fill:#f0f0ff"
         aria-label="¬">
        <path
           id="path572"
           style="font-weight:bold;font-size:2.37100005px;font-family:'Proxima Nova';dominant-baseline:alphabetic;text-anchor:middle;fill:#f0f0ff"
           d="M 0.51495157,-0.47657101 V -1.109628 h -1.05746602 v 0.18967998 h 0.86541502 v 0.44337701 z" />
      </g>
    </g>
    <path
       id="rect64"
       d="m 25.01,43.02 h 8.4 c 0.554,0 1,0.446 1,1 V 55 c 0,0.554 -0.446,1 -1,1 h -8.4 c -0.554,0 -1,-0.446 -1,-1 V 44.02 c 0,-0.554 0.446,-1 1,-1 z"
       style="fill:#000099;stroke:#000099;stroke-width:0.34999999" />
    <g
       id="g68"
       transform="translate(29.21,45.6)">
      <g
         id="text66"
         style="font-weight:bold;font-size:2.37100005px;font-family:'Proxima Nova';dominant-baseline:alphabetic;text-anchor:middle;fill:#f0f0ff"
         aria-label="¬">
        <path
           id="path576"
           style="font-weight:bold;font-size:2.37100005px;font-family:'Proxima Nova';dominant-baseline:alphabetic;text-anchor:middle;fill:#f0f0ff"
           d="M 0.51495157,-0.47657101 V -1.109628 h -1.05746602 v 0.18967998 h 0.86541502 v 0.44337701 z" />
      </g>
    </g>
    <g
       id="g72"
       transform="translate(29.21,45.6)">
      <g
         id="text70"
         style="font-weight:bold;font-size:2.37100005px;font-family:'Proxima Nova';dominant-baseline:alphabetic;text-anchor:middle;fill:#f0f0ff"
         aria-label="¬">
        <path
           id="path579"
           style="font-weight:bold;font-size:2.37100005px;font-family:'Proxima Nova';dominant-baseline:alphabetic;text-anchor:middle;fill:#f0f0ff"
           d="M 0.51495157,-0.47657101 V -1.109628 h -1.05746602 v 0.18967998 h 0.86541502 v 0.44337701 z" />
      </g>
    </g>
    <path
       id="rect74"
       d="m 33.900002,43.02 h 8.399999 c 0.554,0 1,0.446 1,1 V 55 c 0,0.554 -0.446,1 -1,1 h -8.399999 c -0.554,0 -1,-0.446 -1,-1 V 44.02 c 0,-0.554 0.446,-1 1,-1 z"
       style="fill:#000099;stroke:#000099;stroke-width:0.34999999" />
    <g
       id="g78"
       transform="translate(38.1,45.6)">
      <g
         id="text76"
         style="font-weight:bold;font-size:2.37100005px;font-family:'Proxima Nova';dominant-baseline:alphabetic;text-anchor:middle;fill:#f0f0ff"
         aria-label="C∧D">
        <path
           id="path583"
           style="font-weight:bold;font-size:2.37100005px;font-family:'Proxima Nova';dominant-baseline:alphabetic;text-anchor:middle;fill:#f0f0ff"
           d="m -1.4093187,0.028452 c 0.348537,0 0.54770099,-0.192051 0.66150899,-0.38884401 l -0.28926199,-0.139889 c -0.066388,0.130405 -0.208648,0.229987 -0.372247,0.229987 -0.286891,0 -0.495539,-0.220503 -0.495539,-0.51924901 0,-0.29874598 0.208648,-0.51924898 0.495539,-0.51924898 0.163599,0 0.305859,0.101953 0.372247,0.229987 l 0.28926199,-0.14226 c -0.111437,-0.196793 -0.31297199,-0.386473 -0.66150899,-0.386473 -0.4742,0 -0.841705,0.33194 -0.841705,0.81799498 0,0.48605501 0.367505,0.81799502 0.841705,0.81799502 z" />
        <path
           id="path585"
           style="font-weight:bold;font-size:2.37100005px;font-family:'Proxima Nova';dominant-baseline:alphabetic;text-anchor:middle;fill:#f0f0ff"
           d="M 0.58348834,0 H 0.37741509 L -0.03588912,-1.1148794 -0.44803561,0 h -0.20607325 l 0.52212941,-1.3464224 h 0.19333838 z" />
        <path
           id="path587"
           style="font-weight:bold;font-size:2.37100005px;font-family:'Proxima Nova';dominant-baseline:alphabetic;text-anchor:middle;fill:#f0f0ff"
           d="M 0.78396758,0 H 1.4075406 c 0.495539,0 0.839334,-0.31297201 0.839334,-0.78954302 0,-0.47657098 -0.343795,-0.79191398 -0.839334,-0.79191398 H 0.78396758 Z M 1.1206496,-0.29637501 V -1.285082 h 0.286891 c 0.324827,0 0.495539,0.215761 0.495539,0.49553898 0,0.26792301 -0.182567,0.49316801 -0.495539,0.49316801 z" />
      </g>
    </g>
    <g
       id="g82"
       transform="translate(38.1,45.6)">
      <g
         id="text80"
         style="font-weight:bold;font-size:2.37100005px;font-family:'Proxima Nova';dominant-baseline:alphabetic;text-anchor:middle;fill:#f0f0ff"
         aria-label="C∧D">
        <path
           id="path590"
           style="font-weight:bold;font-size:2.37100005px;font-family:'Proxima Nova';dominant-baseline:alphabetic;text-anchor:middle;fill:#f0f0ff"
           d="m -1.4093187,0.028452 c 0.348537,0 0.54770099,-0.192051 0.66150899,-0.38884401 l -0.28926199,-0.139889 c -0.066388,0.130405 -0.208648,0.229987 -0.372247,0.229987 -0.286891,0 -0.495539,-0.220503 -0.495539,-0.51924901 0,-0.29874598 0.208648,-0.51924898 0.495539,-0.51924898 0.163599,0 0.305859,0.101953 0.372247,0.229987 l 0.28926199,-0.14226 c -0.111437,-0.196793 -0.31297199,-0.386473 -0.66150899,-0.386473 -0.4742,0 -0.841705,0.33194 -0.841705,0.81799498 0,0.48605501 0.367505,0.81799502 0.841705,0.81799502 z" />
        <path
           id="path592"
           style="font-weight:bold;font-size:2.37100005px;font-family:'Proxima Nova';dominant-baseline:alphabetic;text-anchor:middle;fill:#f0f0ff"
           d="M 0.58348834,0 H 0.37741509 L -0.03588912,-1.1148794 -0.44803561,0 h -0.20607325 l 0.52212941,-1.3464224 h 0.19333838 z" />
        <path
           id="path594"
           style="font-weight:bold;font-size:2.37100005px;font-family:'Proxima Nova';dominant-baseline:alphabetic;text-anchor:middle;fill:#f0f0ff"
           d="M 0.78396758,0 H 1.4075406 c 0.495539,0 0.839334,-0.31297201 0.839334,-0.78954302 0,-0.47657098 -0.343795,-0.79191398 -0.839334,-0.79191398 H 0.78396758 Z M 1.1206496,-0.29637501 V -1.285082 h 0.286891 c 0.324827,0 0.495539,0.215761 0.495539,0.49553898 0,0.26792301 -0.182567,0.49316801 -0.495539,0.49316801 z" />
      </g>
    </g>
    <path
       id="rect84"
       d="M 3.4200001,58.259998 H 11.82 c 0.554,0 1,0.446 1,1 v 10.98 c 0,0.554 -0.446,1 -1,1 H 3.4200001 c -0.554,0 -1,-0.446 -1,-1 v -10.98 c 0,-0.554 0.446,-1 1,-1 z"
       style="fill:#000099;stroke:#000099;stroke-width:0.34999999" />
    <g
       id="g88"
       transform="translate(7.62,60.84)">
      <g
         id="text86"
         style="font-weight:bold;font-size:2.37100005px;font-family:'Proxima Nova';dominant-baseline:alphabetic;text-anchor:middle;fill:#f0f0ff"
         aria-label="A∨B">
        <path
           id="path598"
           style="font-weight:bold;font-size:2.37100005px;font-family:'Proxima Nova';dominant-baseline:alphabetic;text-anchor:middle;fill:#f0f0ff"
           d="m -1.0127134,0 h 0.38410201 L -1.2379584,-1.581457 h -0.422038 L -2.2717144,0 h 0.384102 l 0.099582,-0.26792301 h 0.678106 z m -0.436264,-1.244775 0.246584,0.68047699 h -0.493168 z" />
        <path
           id="path600"
           style="font-weight:bold;font-size:2.37100005px;font-family:'Proxima Nova';dominant-baseline:alphabetic;text-anchor:middle;fill:#f0f0ff"
           d="M 0.64600493,-1.3464224 0.12387553,0 h -0.19333839 l -0.5221294,-1.3464224 h 0.20607324 l 0.4121465,1.11372171 0.41330421,-1.11372171 z" />
        <path
           id="path602"
           style="font-weight:bold;font-size:2.37100005px;font-family:'Proxima Nova';dominant-baseline:alphabetic;text-anchor:middle;fill:#f0f0ff"
           d="M 0.84648405,0 H 1.7047861 c 0.301117,0 0.459974,-0.18968 0.459974,-0.42678001 0,-0.199164 -0.135147,-0.36276301 -0.303488,-0.38884401 0.149373,-0.030823 0.272665,-0.163599 0.272665,-0.36276298 0,-0.211019 -0.154115,-0.40307 -0.455232,-0.40307 H 0.84648405 Z M 1.1831661,-0.94840002 V -1.292195 h 0.422038 c 0.113808,0 0.184938,0.073501 0.184938,0.173083 0,0.099582 -0.07113,0.17071198 -0.184938,0.17071198 z m 0,0.65676701 v -0.367505 h 0.433893 c 0.132776,0 0.203906,0.085356 0.203906,0.184938 0,0.113808 -0.075872,0.182567 -0.203906,0.182567 z" />
      </g>
    </g>
    <g
       id="g92"
       transform="translate(7.62,60.84)">
      <g
         id="text90"
         style="font-weight:bold;font-size:2.37100005px;font-family:'Proxima Nova';dominant-baseline:alphabetic;text-anchor:middle;fill:#f0f0ff"
         aria-label="A∨B">
        <path
           id="path605"
           style="font-weight:bold;font-size:2.37100005px;font-family:'Proxima Nova';dominant-baseline:alphabetic;text-anchor:middle;fill:#f0f0ff"
           d="m -1.0127134,0 h 0.38410201 L -1.2379584,-1.581457 h -0.422038 L -2.2717144,0 h 0.384102 l 0.099582,-0.26792301 h 0.678106 z m -0.436264,-1.244775 0.246584,0.68047699 h -0.493168 z" />
        <path
           id="path607"
           style="font-weight:bold;font-size:2.37100005px;font-family:'Proxima Nova';dominant-baseline:alphabetic;text-anchor:middle;fill:#f0f0ff"
           d="M 0.64600493,-1.3464224 0.12387553,0 h -0.19333839 l -0.5221294,-1.3464224 h 0.20607324 l 0.4121465,1.11372171 0.41330421,-1.11372171 z" />
        <path
           id="path609"
           style="font-weight:bold;font-size:2.37100005px;font-family:'Proxima Nova';dominant-baseline:alphabetic;text-anchor:middle;fill:#f0f0ff"
           d="M 0.84648405,0 H 1.7047861 c 0.301117,0 0.459974,-0.18968 0.459974,-0.42678001 0,-0.199164 -0.135147,-0.36276301 -0.303488,-0.38884401 0.149373,-0.030823 0.272665,-0.163599 0.272665,-0.36276298 0,-0.211019 -0.154115,-0.40307 -0.455232,-0.40307 H 0.84648405 Z M 1.1831661,-0.94840002 V -1.292195 h 0.422038 c 0.113808,0 0.184938,0.073501 0.184938,0.173083 0,0.099582 -0.07113,0.17071198 -0.184938,0.17071198 z m 0,0.65676701 v -0.367505 h 0.433893 c 0.132776,0 0.203906,0.085356 0.203906,0.184938 0,0.113808 -0.075872,0.182567 -0.203906,0.182567 z" />
      </g>
    </g>
    <path
       id="rect94"
       d="m 12.31,58.259998 h 8.4 c 0.554,0 1,0.446 1,1 v 10.98 c 0,0.554 -0.446,1 -1,1 h -8.4 c -0.554,0 -1,-0.446 -1,-1 v -10.98 c 0,-0.554 0.446,-1 1,-1 z"
       style="fill:#000099;stroke:#000099;stroke-width:0.34999999" />
    <g
       id="g98"
       transform="translate(16.51,60.84)">
      <g
         id="text96"
         style="font-weight:bold;font-size:2.37100005px;font-family:'Proxima Nova';dominant-baseline:alphabetic;text-anchor:middle;fill:#f0f0ff"
         aria-label="¬">
        <path
           id="path613"
           style="font-weight:bold;font-size:2.37100005px;font-family:'Proxima Nova';dominant-baseline:alphabetic;text-anchor:middle;fill:#f0f0ff"
           d="M 0.51495157,-0.47657101 V -1.109628 h -1.05746602 v 0.18967998 h 0.86541502 v 0.44337701 z" />
      </g>
    </g>
    <g
       id="g102"
       transform="translate(16.51,60.84)">
      <g
         id="text100"
         style="font-weight:bold;font-size:2.37100005px;font-family:'Proxima Nova';dominant-baseline:alphabetic;text-anchor:middle;fill:#f0f0ff"
         aria-label="¬">
        <path
           id="path616"
           style="font-weight:bold;font-size:2.37100005px;font-family:'Proxima Nova';dominant-baseline:alphabetic;text-anchor:middle;fill:#f0f0ff"
           d="M 0.51495157,-0.47657101 V -1.109628 h -1.05746602 v 0.18967998 h 0.86541502 v 0.44337701 z" />
      </g>
    </g>
    <path
       id="rect104"
       d="m 25.01,58.259998 h 8.4 c 0.554,0 1,0.446 1,1 v 10.98 c 0,0.554 -0.446,1 -1,1 h -8.4 c -0.554,0 -1,-0.446 -1,-1 v -10.98 c 0,-0.554 0.446,-1 1,-1 z"
       style="fill:#000099;stroke:#000099;stroke-width:0.34999999" />
    <g
       id="g108"
       transform="translate(29.21,60.84)">
      <g
         id="text106"
         style="font-weight:bold;font-size:2.37100005px;font-family:'Proxima Nova';dominant-baseline:alphabetic;text-anchor:middle;fill:#f0f0ff"
         aria-label="¬">
        <path
           id="path620"
           style="font-weight:bold;font-size:2.37100005px;font-family:'Proxima Nova';dominant-baseline:alphabetic;text-anchor:middle;fill:#f0f0ff"
           d="M 0.51495157,-0.47657101 V -1.109628 h -1.05746602 v 0.18967998 h 0.86541502 v 0.44337701 z" />
      </g>
    </g>
    <g
       id="g112"
       transform="translate(29.21,60.84)">
      <g
         id="text110"
         style="font-weight:bold;font-size:2.37100005px;font-family:'Proxima Nova';dominant-baseline:alphabetic;text-anchor:middle;fill:#f0f0ff"
         aria-label="¬">
        <path
           id="path623"
           style="font-weight:bold;font-size:2.37100005px;font-family:'Proxima Nova';dominant-baseline:alphabetic;text-anchor:middle;fill:#f0f0ff"
           d="M 0.51495157,-0.47657101 V -1.109628 h -1.05746602 v 0.18967998 h 0.86541502 v 0.44337701 z" />
      </g>
    </g>
    <path
       id="rect114"
       d="m 33.900002,58.259998 h 8.399999 c 0.554,0 1,0.446 1,1 v 10.98 c 0,0.554 -0.446,1 -1,1 h -8.399999 c -0.554,0 -1,-0.446 -1,-1 v -10.98 c 0,-0.554 0.446,-1 1,-1 z"
       style="fill:#000099;stroke:#000099;stroke-width:0.34999999" />
    <g
       id="g118"
       transform="translate(38.1,60.84)">
      <g
         id="text116"
         style="font-weight:bold;font-size:2.37100005px;font-family:'Proxima Nova';dominant-baseline:alphabetic;text-anchor:middle;fill:#f0f0ff"
         aria-label="C∨D">
        <path
           id="path627"
           style="font-weight:bold;font-size:2.37100005px;font-family:'Proxima Nova';dominant-baseline:alphabetic;text-anchor:middle;fill:#f0f0ff"
           d="m -1.4093187,0.028452 c 0.348537,0 0.54770099,-0.192051 0.66150899,-0.38884401 l -0.28926199,-0.139889 c -0.066388,0.130405 -0.208648,0.229987 -0.372247,0.229987 -0.286891,0 -0.495539,-0.220503 -0.495539,-0.51924901 0,-0.29874598 0.208648,-0.51924898 0.495539,-0.51924898 0.163599,0 0.305859,0.101953 0.372247,0.229987 l 0.28926199,-0.14226 c -0.111437,-0.196793 -0.31297199,-0.386473 -0.66150899,-0.386473 -0.4742,0 -0.841705,0.33194 -0.841705,0.81799498 0,0.48605501 0.367505,0.81799502 0.841705,0.81799502 z" />
        <path
           id="path629"
           style="font-weight:bold;font-size:2.37100005px;font-family:'Proxima Nova';dominant-baseline:alphabetic;text-anchor:middle;fill:#f0f0ff"
           d="M 0.58348834,-1.3464224 0.06135893,0 h -0.19333838 l -0.52212941,-1.3464224 h 0.20607325 l 0.41214649,1.11372171 0.41330421,-1.11372171 z" />
        <path
           id="path631"
           style="font-weight:bold;font-size:2.37100005px;font-family:'Proxima Nova';dominant-baseline:alphabetic;text-anchor:middle;fill:#f0f0ff"
           d="M 0.78396758,0 H 1.4075406 c 0.495539,0 0.839334,-0.31297201 0.839334,-0.78954302 0,-0.47657098 -0.343795,-0.79191398 -0.839334,-0.79191398 H 0.78396758 Z M 1.1206496,-0.29637501 V -1.285082 h 0.286891 c 0.324827,0 0.495539,0.215761 0.495539,0.49553898 0,0.26792301 -0.182567,0.49316801 -0.495539,0.49316801 z" />
      </g>
    </g>
    <g
       id="g122"
       transform="translate(38.1,60.84)">
      <g
         id="text120"
         style="font-weight:bold;font-size:2.37100005px;font-family:'Proxima Nova';dominant-baseline:alphabetic;text-anchor:middle;fill:#f0f0ff"
         aria-label="C∨D">
        <path
           id="path634"
           style="font-weight:bold;font-size:2.37100005px;font-family:'Proxima Nova';dominant-baseline:alphabetic;text-anchor:middle;fill:#f0f0ff"
           d="m -1.4093187,0.028452 c 0.348537,0 0.54770099,-0.192051 0.66150899,-0.38884401 l -0.28926199,-0.139889 c -0.066388,0.130405 -0.208648,0.229987 -0.372247,0.229987 -0.286891,0 -0.495539,-0.220503 -0.495539,-0.51924901 0,-0.29874598 0.208648,-0.51924898 0.495539,-0.51924898 0.163599,0 0.305859,0.101953 0.372247,0.229987 l 0.28926199,-0.14226 c -0.111437,-0.196793 -0.31297199,-0.386473 -0.66150899,-0.386473 -0.4742,0 -0.841705,0.33194 -0.841705,0.81799498 0,0.48605501 0.367505,0.81799502 0.841705,0.81799502 z" />
        <path
           id="path636"
           style="font-weight:bold;font-size:2.37100005px;font-family:'Proxima Nova';dominant-baseline:alphabetic;text-anchor:middle;fill:#f0f0ff"
           d="M 0.58348834,-1.3464224 0.06135893,0 h -0.19333838 l -0.52212941,-1.3464224 h 0.20607325 l 0.41214649,1.11372171 0.41330421,-1.11372171 z" />
        <path
           id="path638"
           style="font-weight:bold;font-size:2.37100005px;font-family:'Proxima Nova';dominant-baseline:alphabetic;text-anchor:middle;fill:#f0f0ff"
           d="M 0.78396758,0 H 1.4075406 c 0.495539,0 0.839334,-0.31297201 0.839334,-0.78954302 0,-0.47657098 -0.343795,-0.79191398 -0.839334,-0.79191398 H 0.78396758 Z M 1.1206496,-0.29637501 V -1.285082 h 0.286891 c 0.324827,0 0.495539,0.215761 0.495539,0.49553898 0,0.26792301 -0.182567,0.49316801 -0.495539,0.49316801 z" />
      </g>
    </g>
    <path
       id="rect124"
       d="M 3.4200001,73.5 H 11.82 c 0.554,0 1,0.446 1,1 v 10.98 c 0,0.554 -0.446,1 -1,1 H 3.4200001 c -0.554,0 -1,-0.446 -1,-1 V 74.5 c 0,-0.554 0.446,-1 1,-1 z"
       style="fill:#000099;stroke:#000099;stroke-width:0.34999999" />
    <g
       id="g128"
       transform="translate(7.62,76.08)">
      <g
         id="text126"
         style="font-weight:bold;font-size:2.37100005px;font-family:'Proxima Nova';dominant-baseline:alphabetic;text-anchor:middle;fill:#f0f0ff"
         aria-label="A⊻B">
        <path
           id="path642"
           style="font-weight:bold;font-size:2.37100005px;font-family:'Proxima Nova';dominant-baseline:alphabetic;text-anchor:middle;fill:#f0f0ff"
           d="m -1.0404986,0 h 0.38410205 L -1.2657436,-1.581457 h -0.422038 L -2.2994996,0 h 0.384102 l 0.099582,-0.26792301 h 0.678106 z m -0.436264,-1.244775 0.246584,0.68047699 h -0.493168 z" />
        <path
           id="path644"
           style="font-weight:bold;font-size:2.37100005px;font-family:'Proxima Nova';dominant-baseline:alphabetic;text-anchor:middle;fill:#f0f0ff"
           d="m 0.59969634,-1.5131333 -0.47929396,1.1241411 h -0.1944961 l -0.47466309,-1.1241411 h 0.20723096 L 0.02315433,-0.62169288 0.39246538,-1.5131333 Z M 0.58696147,0 h -1.12298342 v -0.1944961 h 1.12298342 z" />
        <path
           id="path646"
           style="font-weight:bold;font-size:2.37100005px;font-family:'Proxima Nova';dominant-baseline:alphabetic;text-anchor:middle;fill:#f0f0ff"
           d="M 0.87426926,0 H 1.7325713 c 0.301117,0 0.459974,-0.18968 0.459974,-0.42678001 0,-0.199164 -0.135147,-0.36276301 -0.303488,-0.38884401 0.149373,-0.030823 0.272665,-0.163599 0.272665,-0.36276298 0,-0.211019 -0.154115,-0.40307 -0.455232,-0.40307 H 0.87426926 Z M 1.2109513,-0.94840002 V -1.292195 h 0.422038 c 0.113808,0 0.184938,0.073501 0.184938,0.173083 0,0.099582 -0.07113,0.17071198 -0.184938,0.17071198 z m 0,0.65676701 v -0.367505 h 0.433893 c 0.132776,0 0.203906,0.085356 0.203906,0.184938 0,0.113808 -0.075872,0.182567 -0.203906,0.182567 z" />
      </g>
    </g>
    <g
       id="g132"
       transform="translate(7.62,76.08)">
      <g
         id="text130"
         style="font-weight:bold;font-size:2.37100005px;font-family:'Proxima Nova';dominant-baseline:alphabetic;text-anchor:middle;fill:#f0f0ff"
         aria-label="A⊻B">
        <path
           id="path649"
           style="font-weight:bold;font-size:2.37100005px;font-family:'Proxima Nova';dominant-baseline:alphabetic;text-anchor:middle;fill:#f0f0ff"
           d="m -1.0404986,0 h 0.38410205 L -1.2657436,-1.581457 h -0.422038 L -2.2994996,0 h 0.384102 l 0.099582,-0.26792301 h 0.678106 z m -0.436264,-1.244775 0.246584,0.68047699 h -0.493168 z" />
        <path
           id="path651"
           style="font-weight:bold;font-size:2.37100005px;font-family:'Proxima Nova';dominant-baseline:alphabetic;text-anchor:middle;fill:#f0f0ff"
           d="m 0.59969634,-1.5131333 -0.47929396,1.1241411 h -0.1944961 l -0.47466309,-1.1241411 h 0.20723096 L 0.02315433,-0.62169288 0.39246538,-1.5131333 Z M 0.58696147,0 h -1.12298342 v -0.1944961 h 1.12298342 z" />
        <path
           id="path653"
           style="font-weight:bold;font-size:2.37100005px;font-family:'Proxima Nova';dominant-baseline:alphabetic;text-anchor:middle;fill:#f0f0ff"
           d="M 0.87426926,0 H 1.7325713 c 0.301117,0 0.459974,-0.18968 0.459974,-0.42678001 0,-0.199164 -0.135147,-0.36276301 -0.303488,-0.38884401 0.149373,-0.030823 0.272665,-0.163599 0.272665,-0.36276298 0,-0.211019 -0.154115,-0.40307 -0.455232,-0.40307 H 0.87426926 Z M 1.2109513,-0.94840002 V -1.292195 h 0.422038 c 0.113808,0 0.184938,0.073501 0.184938,0.173083 0,0.099582 -0.07113,0.17071198 -0.184938,0.17071198 z m 0,0.65676701 v -0.367505 h 0.433893 c 0.132776,0 0.203906,0.085356 0.203906,0.184938 0,0.113808 -0.075872,0.182567 -0.203906,0.182567 z" />
      </g>
    </g>
    <path
       id="rect134"
       d="m 12.31,73.5 h 8.4 c 0.554,0 1,0.446 1,1 v 10.98 c 0,0.554 -0.446,1 -1,1 h -8.4 c -0.554,0 -1,-0.446 -1,-1 V 74.5 c 0,-0.554 0.446,-1 1,-1 z"
       style="fill:#000099;stroke:#000099;stroke-width:0.34999999" />
    <g
       id="g138"
       transform="translate(16.51,76.08)">
      <g
         id="text136"
         style="font-weight:bold;font-size:2.37100005px;font-family:'Proxima Nova';dominant-baseline:alphabetic;text-anchor:middle;fill:#f0f0ff"
         aria-label="¬">
        <path
           id="path657"
           style="font-weight:bold;font-size:2.37100005px;font-family:'Proxima Nova';dominant-baseline:alphabetic;text-anchor:middle;fill:#f0f0ff"
           d="M 0.51495157,-0.47657101 V -1.109628 h -1.05746602 v 0.18967998 h 0.86541502 v 0.44337701 z" />
      </g>
    </g>
    <g
       id="g142"
       transform="translate(16.51,76.08)">
      <g
         id="text140"
         style="font-weight:bold;font-size:2.37100005px;font-family:'Proxima Nova';dominant-baseline:alphabetic;text-anchor:middle;fill:#f0f0ff"
         aria-label="¬">
        <path
           id="path660"
           style="font-weight:bold;font-size:2.37100005px;font-family:'Proxima Nova';dominant-baseline:alphabetic;text-anchor:middle;fill:#f0f0ff"
           d="M 0.51495157,-0.47657101 V -1.109628 h -1.05746602 v 0.18967998 h 0.86541502 v 0.44337701 z" />
      </g>
    </g>
    <path
       id="rect144"
       d="m 25.01,73.5 h 8.4 c 0.554,0 1,0.446 1,1 v 10.98 c 0,0.554 -0.446,1 -1,1 h -8.4 c -0.554,0 -1,-0.446 -1,-1 V 74.5 c 0,-0.554 0.446,-1 1,-1 z"
       style="fill:#000099;stroke:#000099;stroke-width:0.34999999" />
    <g
       id="g148"
       transform="translate(29.21,76.08)">
      <g
         id="text146"
         style="font-weight:bold;font-size:2.37100005px;font-family:'Proxima Nova';dominant-baseline:alphabetic;text-anchor:middle;fill:#f0f0ff"
         aria-label="¬">
        <path
           id="path664"
           style="font-weight:bold;font-size:2.37100005px;font-family:'Proxima Nova';dominant-baseline:alphabetic;text-anchor:middle;fill:#f0f0ff"
           d="M 0.51495157,-0.47657101 V -1.109628 h -1.05746602 v 0.18967998 h 0.86541502 v 0.44337701 z" />
      </g>
    </g>
    <g
       id="g152"
       transform="translate(29.21,76.08)">
      <g
         id="text150"
         style="font-weight:bold;font-size:2.37100005px;font-family:'Proxima Nova';dominant-baseline:alphabetic;text-anchor:middle;fill:#f0f0ff"
         aria-label="¬">
        <path
           id="path667"
           style="font-weight:bold;font-size:2.37100005px;font-family:'Proxima Nova';dominant-baseline:alphabetic;text-anchor:middle;fill:#f0f0ff"
           d="M 0.51495157,-0.47657101 V -1.109628 h -1.05746602 v 0.18967998 h 0.86541502 v 0.44337701 z" />
      </g>
    </g>
    <path
       id="rect154"
       d="m 33.900002,73.5 h 8.399999 c 0.554,0 1,0.446 1,1 v 10.98 c 0,0.554 -0.446,1 -1,1 h -8.399999 c -0.554,0 -1,-0.446 -1,-1 V 74.5 c 0,-0.554 0.446,-1 1,-1 z"
       style="fill:#000099;stroke:#000099;stroke-width:0.34999999" />
    <g
       id="g158"
       transform="translate(38.1,76.08)">
      <g
         id="text156"
         style="font-weight:bold;font-size:2.37100005px;font-family:'Proxima Nova';dominant-baseline:alphabetic;text-anchor:middle;fill:#f0f0ff"
         aria-label="C⊻D">
        <path
           id="path671"
           style="font-weight:bold;font-size:2.37100005px;font-family:'Proxima Nova';dominant-baseline:alphabetic;text-anchor:middle;fill:#f0f0ff"
           d="m -1.4371039,0.028452 c 0.348537,0 0.54770103,-0.192051 0.66150903,-0.38884401 l -0.28926203,-0.139889 c -0.066388,0.130405 -0.208648,0.229987 -0.372247,0.229987 -0.286891,0 -0.495539,-0.220503 -0.495539,-0.51924901 0,-0.29874598 0.208648,-0.51924898 0.495539,-0.51924898 0.163599,0 0.305859,0.101953 0.372247,0.229987 l 0.28926203,-0.14226 c -0.111437,-0.196793 -0.31297203,-0.386473 -0.66150903,-0.386473 -0.4742,0 -0.841705,0.33194 -0.841705,0.81799498 0,0.48605501 0.367505,0.81799502 0.841705,0.81799502 z" />
        <path
           id="path673"
           style="font-weight:bold;font-size:2.37100005px;font-family:'Proxima Nova';dominant-baseline:alphabetic;text-anchor:middle;fill:#f0f0ff"
           d="m 0.53717974,-1.5131333 -0.47929395,1.1241411 h -0.1944961 l -0.4746631,-1.1241411 h 0.20723097 l 0.36468018,0.89144042 0.36931104,-0.89144042 z M 0.52444488,0 h -1.12298342 v -0.1944961 h 1.12298342 z" />
        <path
           id="path675"
           style="font-weight:bold;font-size:2.37100005px;font-family:'Proxima Nova';dominant-baseline:alphabetic;text-anchor:middle;fill:#f0f0ff"
           d="M 0.81175255,0 H 1.4353256 c 0.495539,0 0.839334,-0.31297201 0.839334,-0.78954302 0,-0.47657098 -0.343795,-0.79191398 -0.839334,-0.79191398 H 0.81175255 Z M 1.1484346,-0.29637501 V -1.285082 h 0.286891 c 0.324827,0 0.495539,0.215761 0.495539,0.49553898 0,0.26792301 -0.182567,0.49316801 -0.495539,0.49316801 z" />
      </g>
    </g>
    <g
       id="g162"
       transform="translate(38.1,76.08)">
      <g
         id="text160"
         style="font-weight:bold;font-size:2.37100005px;font-family:'Proxima Nova';dominant-baseline:alphabetic;text-anchor:middle;fill:#f0f0ff"
         aria-label="C⊻D">
        <path
           id="path678"
           style="font-weight:bold;font-size:2.37100005px;font-family:'Proxima Nova';dominant-baseline:alphabetic;text-anchor:middle;fill:#f0f0ff"
           d="m -1.4371039,0.028452 c 0.348537,0 0.54770103,-0.192051 0.66150903,-0.38884401 l -0.28926203,-0.139889 c -0.066388,0.130405 -0.208648,0.229987 -0.372247,0.229987 -0.286891,0 -0.495539,-0.220503 -0.495539,-0.51924901 0,-0.29874598 0.208648,-0.51924898 0.495539,-0.51924898 0.163599,0 0.305859,0.101953 0.372247,0.229987 l 0.28926203,-0.14226 c -0.111437,-0.196793 -0.31297203,-0.386473 -0.66150903,-0.386473 -0.4742,0 -0.841705,0.33194 -0.841705,0.81799498 0,0.48605501 0.367505,0.81799502 0.841705,0.81799502 z" />
        <path
           id="path680"
           style="font-weight:bold;font-size:2.37100005px;font-family:'Proxima Nova';dominant-baseline:alphabetic;text-anchor:middle;fill:#f0f0ff"
           d="m 0.53717974,-1.5131333 -0.47929395,1.1241411 h -0.1944961 l -0.4746631,-1.1241411 h 0.20723097 l 0.36468018,0.89144042 0.36931104,-0.89144042 z M 0.52444488,0 h -1.12298342 v -0.1944961 h 1.12298342 z" />
        <path
           id="path682"
           style="font-weight:bold;font-size:2.37100005px;font-family:'Proxima Nova';dominant-baseline:alphabetic;text-anchor:middle;fill:#f0f0ff"
           d="M 0.81175255,0 H 1.4353256 c 0.495539,0 0.839334,-0.31297201 0.839334,-0.78954302 0,-0.47657098 -0.343795,-0.79191398 -0.839334,-0.79191398 H 0.81175255 Z M 1.1484346,-0.29637501 V -1.285082 h 0.286891 c 0.324827,0 0.495539,0.215761 0.495539,0.49553898 0,0.26792301 -0.182567,0.49316801 -0.495539,0.49316801 z" />
      </g>
    </g>
    <path
       id="rect164"
       d="M 3.4200001,88.739998 H 11.82 c 0.554,0 1,0.446 1,1 V 100.72 c 0,0.554 -0.446,1 -1,1 H 3.4200001 c -0.554,0 -1,-0.446 -1,-1 V 89.739998 c 0,-0.554 0.446,-1 1,-1 z"
       style="fill:#000099;stroke:#000099;stroke-width:0.34999999" />
    <g
       id="g168"
       transform="translate(7.62,91.32)">
      <g
         id="text166"
         style="font-weight:bold;font-size:2.37100005px;font-family:'Proxima Nova';dominant-baseline:alphabetic;text-anchor:middle;fill:#f0f0ff"
         aria-label="A→B">
        <path
           id="path686"
           style="font-weight:bold;font-size:2.37100005px;font-family:'Proxima Nova';dominant-baseline:alphabetic;text-anchor:middle;fill:#f0f0ff"
           d="m -1.0381831,0 h 0.38410198 L -1.2634281,-1.581457 h -0.422038 L -2.2971842,0 h 0.3841021 l 0.099582,-0.26792301 h 0.678106 z m -0.436264,-1.244775 0.246584,0.68047699 h -0.493168 z" />
        <path
           id="path688"
           style="font-weight:bold;font-size:2.37100005px;font-family:'Proxima Nova';dominant-baseline:alphabetic;text-anchor:middle;fill:#f0f0ff"
           d="M 0.05388472,-0.192051 0.72013573,-0.67810601 0.05388472,-1.16179 l 0.028452,0.30585898 H -0.5530913 v 0.35565001 h 0.63542802 z" />
        <path
           id="path690"
           style="font-weight:bold;font-size:2.37100005px;font-family:'Proxima Nova';dominant-baseline:alphabetic;text-anchor:middle;fill:#f0f0ff"
           d="M 0.87195389,0 H 1.7302559 c 0.301117,0 0.459974,-0.18968 0.459974,-0.42678001 0,-0.199164 -0.135147,-0.36276301 -0.303488,-0.38884401 0.149373,-0.030823 0.272665,-0.163599 0.272665,-0.36276298 0,-0.211019 -0.154115,-0.40307 -0.455232,-0.40307 H 0.87195389 Z M 1.2086359,-0.94840002 V -1.292195 h 0.422038 c 0.113808,0 0.184938,0.073501 0.184938,0.173083 0,0.099582 -0.07113,0.17071198 -0.184938,0.17071198 z m 0,0.65676701 v -0.367505 h 0.433893 c 0.132776,0 0.203906,0.085356 0.203906,0.184938 0,0.113808 -0.075872,0.182567 -0.203906,0.182567 z" />
      </g>
    </g>
    <g
       id="g172"
       transform="translate(7.62,91.32)">
      <g
         id="text170"
         style="font-weight:bold;font-size:2.37100005px;font-family:'Proxima Nova';dominant-baseline:alphabetic;text-anchor:middle;fill:#f0f0ff"
         aria-label="A→B">
        <path
           id="path693"
           style="font-weight:bold;font-size:2.37100005px;font-family:'Proxima Nova';dominant-baseline:alphabetic;text-anchor:middle;fill:#f0f0ff"
           d="m -1.0381831,0 h 0.38410198 L -1.2634281,-1.581457 h -0.422038 L -2.2971842,0 h 0.3841021 l 0.099582,-0.26792301 h 0.678106 z m -0.436264,-1.244775 0.246584,0.68047699 h -0.493168 z" />
        <path
           id="path695"
           style="font-weight:bold;font-size:2.37100005px;font-family:'Proxima Nova';dominant-baseline:alphabetic;text-anchor:middle;fill:#f0f0ff"
           d="M 0.05388472,-0.192051 0.72013573,-0.67810601 0.05388472,-1.16179 l 0.028452,0.30585898 H -0.5530913 v 0.35565001 h 0.63542802 z" />
        <path
           id="path697"
           style="font-weight:bold;font-size:2.37100005px;font-family:'Proxima Nova';dominant-baseline:alphabetic;text-anchor:middle;fill:#f0f0ff"
           d="M 0.87195389,0 H 1.7302559 c 0.301117,0 0.459974,-0.18968 0.459974,-0.42678001 0,-0.199164 -0.135147,-0.36276301 -0.303488,-0.38884401 0.149373,-0.030823 0.272665,-0.163599 0.272665,-0.36276298 0,-0.211019 -0.154115,-0.40307 -0.455232,-0.40307 H 0.87195389 Z M 1.2086359,-0.94840002 V -1.292195 h 0.422038 c 0.113808,0 0.184938,0.073501 0.184938,0.173083 0,0.099582 -0.07113,0.17071198 -0.184938,0.17071198 z m 0,0.65676701 v -0.367505 h 0.433893 c 0.132776,0 0.203906,0.085356 0.203906,0.184938 0,0.113808 -0.075872,0.182567 -0.203906,0.182567 z" />
      </g>
    </g>
    <path
       id="rect174"
       d="m 12.31,88.739998 h 8.4 c 0.554,0 1,0.446 1,1 V 100.72 c 0,0.554 -0.446,1 -1,1 h -8.4 c -0.554,0 -1,-0.446 -1,-1 V 89.739998 c 0,-0.554 0.446,-1 1,-1 z"
       style="fill:#000099;stroke:#000099;stroke-width:0.34999999" />
    <g
       id="g178"
       transform="translate(16.51,91.32)">
      <g
         id="text176"
         style="font-weight:bold;font-size:2.37100005px;font-family:'Proxima Nova';dominant-baseline:alphabetic;text-anchor:middle;fill:#f0f0ff"
         aria-label="¬">
        <path
           id="path701"
           style="font-weight:bold;font-size:2.37100005px;font-family:'Proxima Nova';dominant-baseline:alphabetic;text-anchor:middle;fill:#f0f0ff"
           d="M 0.51495157,-0.47657101 V -1.109628 h -1.05746602 v 0.18967998 h 0.86541502 v 0.44337701 z" />
      </g>
    </g>
    <g
       id="g182"
       transform="translate(16.51,91.32)">
      <g
         id="text180"
         style="font-weight:bold;font-size:2.37100005px;font-family:'Proxima Nova';dominant-baseline:alphabetic;text-anchor:middle;fill:#f0f0ff"
         aria-label="¬">
        <path
           id="path704"
           style="font-weight:bold;font-size:2.37100005px;font-family:'Proxima Nova';dominant-baseline:alphabetic;text-anchor:middle;fill:#f0f0ff"
           d="M 0.51495157,-0.47657101 V -1.109628 h -1.05746602 v 0.18967998 h 0.86541502 v 0.44337701 z" />
      </g>
    </g>
    <path
       id="rect184"
       d="m 25.01,88.739998 h 8.4 c 0.554,0 1,0.446 1,1 V 100.72 c 0,0.554 -0.446,1 -1,1 h -8.4 c -0.554,0 -1,-0.446 -1,-1 V 89.739998 c 0,-0.554 0.446,-1 1,-1 z"
       style="fill:#000099;stroke:#000099;stroke-width:0.34999999" />
    <g
       id="g188"
       transform="translate(29.21,91.32)">
      <g
         id="text186"
         style="font-weight:bold;font-size:2.37100005px;font-family:'Proxima Nova';dominant-baseline:alphabetic;text-anchor:middle;fill:#f0f0ff"
         aria-label="¬">
        <path
           id="path708"
           style="font-weight:bold;font-size:2.37100005px;font-family:'Proxima Nova';dominant-baseline:alphabetic;text-anchor:middle;fill:#f0f0ff"
           d="M 0.51495157,-0.47657101 V -1.109628 h -1.05746602 v 0.18967998 h 0.86541502 v 0.44337701 z" />
      </g>
    </g>
    <g
       id="g192"
       transform="translate(29.21,91.32)">
      <g
         id="text190"
         style="font-weight:bold;font-size:2.37100005px;font-family:'Proxima Nova';dominant-baseline:alphabetic;text-anchor:middle;fill:#f0f0ff"
         aria-label="¬">
        <path
           id="path711"
           style="font-weight:bold;font-size:2.37100005px;font-family:'Proxima Nova';dominant-baseline:alphabetic;text-anchor:middle;fill:#f0f0ff"
           d="M 0.51495157,-0.47657101 V -1.109628 h -1.05746602 v 0.18967998 h 0.86541502 v 0.44337701 z" />
      </g>
    </g>
    <path
       id="rect194"
       d="m 33.900002,88.739998 h 8.399999 c 0.554,0 1,0.446 1,1 V 100.72 c 0,0.554 -0.446,1 -1,1 h -8.399999 c -0.554,0 -1,-0.446 -1,-1 V 89.739998 c 0,-0.554 0.446,-1 1,-1 z"
       style="fill:#000099;stroke:#000099;stroke-width:0.34999999" />
    <g
       id="g198"
       transform="translate(38.1,91.32)">
      <g
         id="text196"
         style="font-weight:bold;font-size:2.37100005px;font-family:'Proxima Nova';dominant-baseline:alphabetic;text-anchor:middle;fill:#f0f0ff"
         aria-label="C→D">
        <path
           id="path715"
           style="font-weight:bold;font-size:2.37100005px;font-family:'Proxima Nova';dominant-baseline:alphabetic;text-anchor:middle;fill:#f0f0ff"
           d="m -1.4347885,0.028452 c 0.3485371,0 0.54770106,-0.192051 0.66150906,-0.38884401 l -0.28926196,-0.139889 c -0.066388,0.130405 -0.208648,0.229987 -0.3722471,0.229987 -0.286891,0 -0.495539,-0.220503 -0.495539,-0.51924901 0,-0.29874598 0.208648,-0.51924898 0.495539,-0.51924898 0.1635991,0 0.3058591,0.101953 0.3722471,0.229987 l 0.28926196,-0.14226 c -0.111437,-0.196793 -0.31297196,-0.386473 -0.66150906,-0.386473 -0.4742,0 -0.841705,0.33194 -0.841705,0.81799498 0,0.48605501 0.367505,0.81799502 0.841705,0.81799502 z" />
        <path
           id="path717"
           style="font-weight:bold;font-size:2.37100005px;font-family:'Proxima Nova';dominant-baseline:alphabetic;text-anchor:middle;fill:#f0f0ff"
           d="M -0.00863188,-0.192051 0.65761914,-0.67810601 -0.00863188,-1.16179 l 0.028452,0.30585898 h -0.63542801 v 0.35565001 h 0.63542801 z" />
        <path
           id="path719"
           style="font-weight:bold;font-size:2.37100005px;font-family:'Proxima Nova';dominant-baseline:alphabetic;text-anchor:middle;fill:#f0f0ff"
           d="M 0.80943741,0 H 1.4330104 c 0.495539,0 0.839334,-0.31297201 0.839334,-0.78954302 0,-0.47657098 -0.343795,-0.79191398 -0.839334,-0.79191398 H 0.80943741 Z M 1.1461194,-0.29637501 V -1.285082 h 0.286891 c 0.324827,0 0.495539,0.215761 0.495539,0.49553898 0,0.26792301 -0.182567,0.49316801 -0.495539,0.49316801 z" />
      </g>
    </g>
    <g
       id="g202"
       transform="translate(38.1,91.32)">
      <g
         id="text200"
         style="font-weight:bold;font-size:2.37100005px;font-family:'Proxima Nova';dominant-baseline:alphabetic;text-anchor:middle;fill:#f0f0ff"
         aria-label="C→D">
        <path
           id="path722"
           style="font-weight:bold;font-size:2.37100005px;font-family:'Proxima Nova';dominant-baseline:alphabetic;text-anchor:middle;fill:#f0f0ff"
           d="m -1.4347885,0.028452 c 0.3485371,0 0.54770106,-0.192051 0.66150906,-0.38884401 l -0.28926196,-0.139889 c -0.066388,0.130405 -0.208648,0.229987 -0.3722471,0.229987 -0.286891,0 -0.495539,-0.220503 -0.495539,-0.51924901 0,-0.29874598 0.208648,-0.51924898 0.495539,-0.51924898 0.1635991,0 0.3058591,0.101953 0.3722471,0.229987 l 0.28926196,-0.14226 c -0.111437,-0.196793 -0.31297196,-0.386473 -0.66150906,-0.386473 -0.4742,0 -0.841705,0.33194 -0.841705,0.81799498 0,0.48605501 0.367505,0.81799502 0.841705,0.81799502 z" />
        <path
           id="path724"
           style="font-weight:bold;font-size:2.37100005px;font-family:'Proxima Nova';dominant-baseline:alphabetic;text-anchor:middle;fill:#f0f0ff"
           d="M -0.00863188,-0.192051 0.65761914,-0.67810601 -0.00863188,-1.16179 l 0.028452,0.30585898 h -0.63542801 v 0.35565001 h 0.63542801 z" />
        <path
           id="path726"
           style="font-weight:bold;font-size:2.37100005px;font-family:'Proxima Nova';dominant-baseline:alphabetic;text-anchor:middle;fill:#f0f0ff"
           d="M 0.80943741,0 H 1.4330104 c 0.495539,0 0.839334,-0.31297201 0.839334,-0.78954302 0,-0.47657098 -0.343795,-0.79191398 -0.839334,-0.79191398 H 0.80943741 Z M 1.1461194,-0.29637501 V -1.285082 h 0.286891 c 0.324827,0 0.495539,0.215761 0.495539,0.49553898 0,0.26792301 -0.182567,0.49316801 -0.495539,0.49316801 z" />
      </g>
    </g>
    <path
       id="rect204"
       d="M 3.4200001,103.98 H 11.82 c 0.554,0 1,0.446 1,1 v 10.98 c 0,0.554 -0.446,1 -1,1 H 3.4200001 c -0.554,0 -1,-0.446 -1,-1 v -10.98 c 0,-0.554 0.446,-1 1,-1 z"
       style="fill:#000099;stroke:#000099;stroke-width:0.34999999" />
    <g
       id="g208"
       transform="translate(7.62,106.56)">
      <g
         id="text206"
         style="font-weight:bold;font-size:2.37100005px;font-family:'Proxima Nova';dominant-baseline:alphabetic;text-anchor:middle;fill:#f0f0ff"
         aria-label="A←B">
        <path
           id="path730"
           style="font-weight:bold;font-size:2.37100005px;font-family:'Proxima Nova';dominant-baseline:alphabetic;text-anchor:middle;fill:#f0f0ff"
           d="m -1.0381831,0 h 0.38410198 L -1.2634281,-1.581457 h -0.422038 L -2.2971842,0 h 0.3841021 l 0.099582,-0.26792301 h 0.678106 z m -0.436264,-1.244775 0.246584,0.68047699 h -0.493168 z" />
        <path
           id="path732"
           style="font-weight:bold;font-size:2.37100005px;font-family:'Proxima Nova';dominant-baseline:alphabetic;text-anchor:middle;fill:#f0f0ff"
           d="M -0.02672928,-0.50028101 H 0.61106973 V -0.85593102 H -0.02672928 L 0.00172272,-1.16179 -0.6645283,-0.67810601 0.00172272,-0.192051 Z" />
        <path
           id="path734"
           style="font-weight:bold;font-size:2.37100005px;font-family:'Proxima Nova';dominant-baseline:alphabetic;text-anchor:middle;fill:#f0f0ff"
           d="M 0.87195389,0 H 1.7302559 c 0.301117,0 0.459974,-0.18968 0.459974,-0.42678001 0,-0.199164 -0.135147,-0.36276301 -0.303488,-0.38884401 0.149373,-0.030823 0.272665,-0.163599 0.272665,-0.36276298 0,-0.211019 -0.154115,-0.40307 -0.455232,-0.40307 H 0.87195389 Z M 1.2086359,-0.94840002 V -1.292195 h 0.422038 c 0.113808,0 0.184938,0.073501 0.184938,0.173083 0,0.099582 -0.07113,0.17071198 -0.184938,0.17071198 z m 0,0.65676701 v -0.367505 h 0.433893 c 0.132776,0 0.203906,0.085356 0.203906,0.184938 0,0.113808 -0.075872,0.182567 -0.203906,0.182567 z" />
      </g>
    </g>
    <g
       id="g212"
       transform="translate(7.62,106.56)">
      <g
         id="text210"
         style="font-weight:bold;font-size:2.37100005px;font-family:'Proxima Nova';dominant-baseline:alphabetic;text-anchor:middle;fill:#f0f0ff"
         aria-label="A←B">
        <path
           id="path737"
           style="font-weight:bold;font-size:2.37100005px;font-family:'Proxima Nova';dominant-baseline:alphabetic;text-anchor:middle;fill:#f0f0ff"
           d="m -1.0381831,0 h 0.38410198 L -1.2634281,-1.581457 h -0.422038 L -2.2971842,0 h 0.3841021 l 0.099582,-0.26792301 h 0.678106 z m -0.436264,-1.244775 0.246584,0.68047699 h -0.493168 z" />
        <path
           id="path739"
           style="font-weight:bold;font-size:2.37100005px;font-family:'Proxima Nova';dominant-baseline:alphabetic;text-anchor:middle;fill:#f0f0ff"
           d="M -0.02672928,-0.50028101 H 0.61106973 V -0.85593102 H -0.02672928 L 0.00172272,-1.16179 -0.6645283,-0.67810601 0.00172272,-0.192051 Z" />
        <path
           id="path741"
           style="font-weight:bold;font-size:2.37100005px;font-family:'Proxima Nova';dominant-baseline:alphabetic;text-anchor:middle;fill:#f0f0ff"
           d="M 0.87195389,0 H 1.7302559 c 0.301117,0 0.459974,-0.18968 0.459974,-0.42678001 0,-0.199164 -0.135147,-0.36276301 -0.303488,-0.38884401 0.149373,-0.030823 0.272665,-0.163599 0.272665,-0.36276298 0,-0.211019 -0.154115,-0.40307 -0.455232,-0.40307 H 0.87195389 Z M 1.2086359,-0.94840002 V -1.292195 h 0.422038 c 0.113808,0 0.184938,0.073501 0.184938,0.173083 0,0.099582 -0.07113,0.17071198 -0.184938,0.17071198 z m 0,0.65676701 v -0.367505 h 0.433893 c 0.132776,0 0.203906,0.085356 0.203906,0.184938 0,0.113808 -0.075872,0.182567 -0.203906,0.182567 z" />
      </g>
    </g>
    <path
       id="rect214"
       d="m 12.31,103.98 h 8.4 c 0.554,0 1,0.446 1,1 v 10.98 c 0,0.554 -0.446,1 -1,1 h -8.4 c -0.554,0 -1,-0.446 -1,-1 v -10.98 c 0,-0.554 0.446,-1 1,-1 z"
       style="fill:#000099;stroke:#000099;stroke-width:0.34999999" />
    <g
       id="g218"
       transform="translate(16.51,106.56)">
      <g
         id="text216"
         style="font-weight:bold;font-size:2.37100005px;font-family:'Proxima Nova';dominant-baseline:alphabetic;text-anchor:middle;fill:#f0f0ff"
         aria-label="¬">
        <path
           id="path745"
           style="font-weight:bold;font-size:2.37100005px;font-family:'Proxima Nova';dominant-baseline:alphabetic;text-anchor:middle;fill:#f0f0ff"
           d="M 0.51495157,-0.47657101 V -1.109628 h -1.05746602 v 0.18967998 h 0.86541502 v 0.44337701 z" />
      </g>
    </g>
    <g
       id="g222"
       transform="translate(16.51,106.56)">
      <g
         id="text220"
         style="font-weight:bold;font-size:2.37100005px;font-family:'Proxima Nova';dominant-baseline:alphabetic;text-anchor:middle;fill:#f0f0ff"
         aria-label="¬">
        <path
           id="path748"
           style="font-weight:bold;font-size:2.37100005px;font-family:'Proxima Nova';dominant-baseline:alphabetic;text-anchor:middle;fill:#f0f0ff"
           d="M 0.51495157,-0.47657101 V -1.109628 h -1.05746602 v 0.18967998 h 0.86541502 v 0.44337701 z" />
      </g>
    </g>
    <path
       id="rect224"
       d="m 25.01,103.98 h 8.4 c 0.554,0 1,0.446 1,1 v 10.98 c 0,0.554 -0.446,1 -1,1 h -8.4 c -0.554,0 -1,-0.446 -1,-1 v -10.98 c 0,-0.554 0.446,-1 1,-1 z"
       style="fill:#000099;stroke:#000099;stroke-width:0.34999999" />
    <g
       id="g228"
       transform="translate(29.21,106.56)">
      <g
         id="text226"
         style="font-weight:bold;font-size:2.37100005px;font-family:'Proxima Nova';dominant-baseline:alphabetic;text-anchor:middle;fill:#f0f0ff"
         aria-label="¬">
        <path
           id="path752"
           style="font-weight:bold;font-size:2.37100005px;font-family:'Proxima Nova';dominant-baseline:alphabetic;text-anchor:middle;fill:#f0f0ff"
           d="M 0.51495157,-0.47657101 V -1.109628 h -1.05746602 v 0.18967998 h 0.86541502 v 0.44337701 z" />
      </g>
    </g>
    <g
       id="g232"
       transform="translate(29.21,106.56)">
      <g
         id="text230"
         style="font-weight:bold;font-size:2.37100005px;font-family:'Proxima Nova';dominant-baseline:alphabetic;text-anchor:middle;fill:#f0f0ff"
         aria-label="¬">
        <path
           id="path755"
           style="font-weight:bold;font-size:2.37100005px;font-family:'Proxima Nova';dominant-baseline:alphabetic;text-anchor:middle;fill:#f0f0ff"
           d="M 0.51495157,-0.47657101 V -1.109628 h -1.05746602 v 0.18967998 h 0.86541502 v 0.44337701 z" />
      </g>
    </g>
    <path
       id="rect234"
       d="m 33.900002,103.98 h 8.399999 c 0.554,0 1,0.446 1,1 v 10.98 c 0,0.554 -0.446,1 -1,1 h -8.399999 c -0.554,0 -1,-0.446 -1,-1 v -10.98 c 0,-0.554 0.446,-1 1,-1 z"
       style="fill:#000099;stroke:#000099;stroke-width:0.34999999" />
    <g
       id="g238"
       transform="translate(38.1,106.56)">
      <g
         id="text236"
         style="font-weight:bold;font-size:2.37100005px;font-family:'Proxima Nova';dominant-baseline:alphabetic;text-anchor:middle;fill:#f0f0ff"
         aria-label="C←D">
        <path
           id="path759"
           style="font-weight:bold;font-size:2.37100005px;font-family:'Proxima Nova';dominant-baseline:alphabetic;text-anchor:middle;fill:#f0f0ff"
           d="m -1.4347885,0.028452 c 0.3485371,0 0.54770106,-0.192051 0.66150906,-0.38884401 l -0.28926196,-0.139889 c -0.066388,0.130405 -0.208648,0.229987 -0.3722471,0.229987 -0.286891,0 -0.495539,-0.220503 -0.495539,-0.51924901 0,-0.29874598 0.208648,-0.51924898 0.495539,-0.51924898 0.1635991,0 0.3058591,0.101953 0.3722471,0.229987 l 0.28926196,-0.14226 c -0.111437,-0.196793 -0.31297196,-0.386473 -0.66150906,-0.386473 -0.4742,0 -0.841705,0.33194 -0.841705,0.81799498 0,0.48605501 0.367505,0.81799502 0.841705,0.81799502 z" />
        <path
           id="path761"
           style="font-weight:bold;font-size:2.37100005px;font-family:'Proxima Nova';dominant-baseline:alphabetic;text-anchor:middle;fill:#f0f0ff"
           d="m -0.08924588,-0.50028101 h 0.63779901 v -0.35565001 h -0.63779901 l 0.028452,-0.30585898 -0.66625101,0.48368399 0.66625101,0.48605501 z" />
        <path
           id="path763"
           style="font-weight:bold;font-size:2.37100005px;font-family:'Proxima Nova';dominant-baseline:alphabetic;text-anchor:middle;fill:#f0f0ff"
           d="M 0.80943741,0 H 1.4330104 c 0.495539,0 0.839334,-0.31297201 0.839334,-0.78954302 0,-0.47657098 -0.343795,-0.79191398 -0.839334,-0.79191398 H 0.80943741 Z M 1.1461194,-0.29637501 V -1.285082 h 0.286891 c 0.324827,0 0.495539,0.215761 0.495539,0.49553898 0,0.26792301 -0.182567,0.49316801 -0.495539,0.49316801 z" />
      </g>
    </g>
    <g
       id="g242"
       transform="translate(38.1,106.56)">
      <g
         id="text240"
         style="font-weight:bold;font-size:2.37100005px;font-family:'Proxima Nova';dominant-baseline:alphabetic;text-anchor:middle;fill:#f0f0ff"
         aria-label="C←D">
        <path
           id="path766"
           style="font-weight:bold;font-size:2.37100005px;font-family:'Proxima Nova';dominant-baseline:alphabetic;text-anchor:middle;fill:#f0f0ff"
           d="m -1.4347885,0.028452 c 0.3485371,0 0.54770106,-0.192051 0.66150906,-0.38884401 l -0.28926196,-0.139889 c -0.066388,0.130405 -0.208648,0.229987 -0.3722471,0.229987 -0.286891,0 -0.495539,-0.220503 -0.495539,-0.51924901 0,-0.29874598 0.208648,-0.51924898 0.495539,-0.51924898 0.1635991,0 0.3058591,0.101953 0.3722471,0.229987 l 0.28926196,-0.14226 c -0.111437,-0.196793 -0.31297196,-0.386473 -0.66150906,-0.386473 -0.4742,0 -0.841705,0.33194 -0.841705,0.81799498 0,0.48605501 0.367505,0.81799502 0.841705,0.81799502 z" />
        <path
           id="path768"
           style="font-weight:bold;font-size:2.37100005px;font-family:'Proxima Nova';dominant-baseline:alphabetic;text-anchor:middle;fill:#f0f0ff"
           d="m -0.08924588,-0.50028101 h 0.63779901 v -0.35565001 h -0.63779901 l 0.028452,-0.30585898 -0.66625101,0.48368399 0.66625101,0.48605501 z" />
        <path
           id="path770"
           style="font-weight:bold;font-size:2.37100005px;font-family:'Proxima Nova';dominant-baseline:alphabetic;text-anchor:middle;fill:#f0f0ff"
           d="M 0.80943741,0 H 1.4330104 c 0.495539,0 0.839334,-0.31297201 0.839334,-0.78954302 0,-0.47657098 -0.343795,-0.79191398 -0.839334,-0.79191398 H 0.80943741 Z M 1.1461194,-0.29637501 V -1.285082 h 0.286891 c 0.324827,0 0.495539,0.215761 0.495539,0.49553898 0,0.26792301 -0.182567,0.49316801 -0.495539,0.49316801 z" />
      </g>
    </g>
    <g
       id="g252"
       transform="translate(7.62,20.32)">
      <g
         style="fill:#f0f0ff;stroke:#000099;stroke-width:0.20999999"
         id="g250">
        <path
           id="circle244"
           d="M 4.0949998,0 A 4.0949998,4.0949998 0 0 1 0,4.0949998 4.0949998,4.0949998 0 0 1 -4.0949998,0 4.0949998,4.0949998 0 0 1 0,-4.0949998 4.0949998,4.0949998 0 0 1 4.0949998,0 Z"
           style="" />
        <path
           id="circle246"
           d="M 2.925,0 A 2.925,2.925 0 0 1 0,2.925 2.925,2.925 0 0 1 -2.925,0 2.925,2.925 0 0 1 0,-2.925 2.925,2.925 0 0 1 2.925,0 Z"
           style="" />
        <path
           id="circle248"
           d="M 1.755,0 A 1.755,1.755 0 0 1 0,1.755 1.755,1.755 0 0 1 -1.755,0 1.755,1.755 0 0 1 0,-1.755 1.755,1.755 0 0 1 1.755,0 Z"
           style="fill:#000099" />
      </g>
    </g>
    <g
       id="g256"
       transform="translate(16.51,20.32)">
      <path
         id="circle254"
         d="M 2.5,0 A 2.5,2.5 0 0 1 0,2.5 2.5,2.5 0 0 1 -2.5,0 2.5,2.5 0 0 1 0,-2.5 2.5,2.5 0 0 1 2.5,0 Z"
         style="fill:#000099;stroke:#000099;stroke-width:1" />
    </g>
    <g
       id="g260"
       transform="translate(29.21,20.32)">
      <path
         id="circle258"
         d="M 2.5,0 A 2.5,2.5 0 0 1 0,2.5 2.5,2.5 0 0 1 -2.5,0 2.5,2.5 0 0 1 0,-2.5 2.5,2.5 0 0 1 2.5,0 Z"
         style="fill:#000099;stroke:#000099;stroke-width:1" />
    </g>
    <g
       id="g270"
       transform="translate(38.1,20.32)">
      <g
         style="fill:#f0f0ff;stroke:#000099;stroke-width:0.20999999"
         id="g268">
        <path
           id="circle262"
           d="M 4.0949998,0 A 4.0949998,4.0949998 0 0 1 0,4.0949998 4.0949998,4.0949998 0 0 1 -4.0949998,0 4.0949998,4.0949998 0 0 1 0,-4.0949998 4.0949998,4.0949998 0 0 1 4.0949998,0 Z"
           style="" />
        <path
           id="circle264"
           d="M 2.925,0 A 2.925,2.925 0 0 1 0,2.925 2.925,2.925 0 0 1 -2.925,0 2.925,2.925 0 0 1 0,-2.925 2.925,2.925 0 0 1 2.925,0 Z"
           style="" />
        <path
           id="circle266"
           d="M 1.755,0 A 1.755,1.755 0 0 1 0,1.755 1.755,1.755 0 0 1 -1.755,0 1.755,1.755 0 0 1 0,-1.755 1.755,1.755 0 0 1 1.755,0 Z"
           style="fill:#000099" />
      </g>
    </g>
    <g
       id="g280"
       transform="translate(7.62,35.56)">
      <g
         style="fill:#f0f0ff;stroke:#000099;stroke-width:0.20999999"
         id="g278">
        <path
           id="circle272"
           d="M 4.0949998,0 A 4.0949998,4.0949998 0 0 1 0,4.0949998 4.0949998,4.0949998 0 0 1 -4.0949998,0 4.0949998,4.0949998 0 0 1 0,-4.0949998 4.0949998,4.0949998 0 0 1 4.0949998,0 Z"
           style="" />
        <path
           id="circle274"
           d="M 2.925,0 A 2.925,2.925 0 0 1 0,2.925 2.925,2.925 0 0 1 -2.925,0 2.925,2.925 0 0 1 0,-2.925 2.925,2.925 0 0 1 2.925,0 Z"
           style="" />
        <path
           id="circle276"
           d="M 1.755,0 A 1.755,1.755 0 0 1 0,1.755 1.755,1.755 0 0 1 -1.755,0 1.755,1.755 0 0 1 0,-1.755 1.755,1.755 0 0 1 1.755,0 Z"
           style="fill:#000099" />
      </g>
    </g>
    <g
       id="g284"
       transform="translate(16.51,35.56)">
      <path
         id="circle282"
         d="M 2.5,0 A 2.5,2.5 0 0 1 0,2.5 2.5,2.5 0 0 1 -2.5,0 2.5,2.5 0 0 1 0,-2.5 2.5,2.5 0 0 1 2.5,0 Z"
         style="fill:#000099;stroke:#000099;stroke-width:1" />
    </g>
    <g
       id="g288"
       transform="translate(29.21,35.56)">
      <path
         id="circle286"
         d="M 2.5,0 A 2.5,2.5 0 0 1 0,2.5 2.5,2.5 0 0 1 -2.5,0 2.5,2.5 0 0 1 0,-2.5 2.5,2.5 0 0 1 2.5,0 Z"
         style="fill:#000099;stroke:#000099;stroke-width:1" />
    </g>
    <g
       id="g298"
       transform="translate(38.1,35.56)">
      <g
         style="fill:#f0f0ff;stroke:#000099;stroke-width:0.20999999"
         id="g296">
        <path
           id="circle290"
           d="M 4.0949998,0 A 4.0949998,4.0949998 0 0 1 0,4.0949998 4.0949998,4.0949998 0 0 1 -4.0949998,0 4.0949998,4.0949998 0 0 1 0,-4.0949998 4.0949998,4.0949998 0 0 1 4.0949998,0 Z"
           style="" />
        <path
           id="circle292"
           d="M 2.925,0 A 2.925,2.925 0 0 1 0,2.925 2.925,2.925 0 0 1 -2.925,0 2.925,2.925 0 0 1 0,-2.925 2.925,2.925 0 0 1 2.925,0 Z"
           style="" />
        <path
           id="circle294"
           d="M 1.755,0 A 1.755,1.755 0 0 1 0,1.755 1.755,1.755 0 0 1 -1.755,0 1.755,1.755 0 0 1 0,-1.755 1.755,1.755 0 0 1 1.755,0 Z"
           style="fill:#000099" />
      </g>
    </g>
    <g
       id="g308"
       transform="translate(7.62,50.8)">
      <g
         style="fill:#f0f0ff;stroke:#000099;stroke-width:0.20999999"
         id="g306">
        <path
           id="circle300"
           d="M 4.0949998,0 A 4.0949998,4.0949998 0 0 1 0,4.0949998 4.0949998,4.0949998 0 0 1 -4.0949998,0 4.0949998,4.0949998 0 0 1 0,-4.0949998 4.0949998,4.0949998 0 0 1 4.0949998,0 Z"
           style="" />
        <path
           id="circle302"
           d="M 2.925,0 A 2.925,2.925 0 0 1 0,2.925 2.925,2.925 0 0 1 -2.925,0 2.925,2.925 0 0 1 0,-2.925 2.925,2.925 0 0 1 2.925,0 Z"
           style="" />
        <path
           id="circle304"
           d="M 1.755,0 A 1.755,1.755 0 0 1 0,1.755 1.755,1.755 0 0 1 -1.755,0 1.755,1.755 0 0 1 0,-1.755 1.755,1.755 0 0 1 1.755,0 Z"
           style="fill:#000099" />
      </g>
    </g>
    <g
       id="g318"
       transform="translate(16.51,50.8)">
      <g
         style="fill:#f0f0ff;stroke:#000099;stroke-width:0.20999999"
         id="g316">
        <path
           id="circle310"
           d="M 4.0949998,0 A 4.0949998,4.0949998 0 0 1 0,4.0949998 4.0949998,4.0949998 0 0 1 -4.0949998,0 4.0949998,4.0949998 0 0 1 0,-4.0949998 4.0949998,4.0949998 0 0 1 4.0949998,0 Z"
           style="" />
        <path
           id="circle312"
           d="M 2.925,0 A 2.925,2.925 0 0 1 0,2.925 2.925,2.925 0 0 1 -2.925,0 2.925,2.925 0 0 1 0,-2.925 2.925,2.925 0 0 1 2.925,0 Z"
           style="" />
        <path
           id="circle314"
           d="M 1.755,0 A 1.755,1.755 0 0 1 0,1.755 1.755,1.755 0 0 1 -1.755,0 1.755,1.755 0 0 1 0,-1.755 1.755,1.755 0 0 1 1.755,0 Z"
           style="fill:#000099" />
      </g>
    </g>
    <g
       id="g328"
       transform="translate(29.21,50.8)">
      <g
         style="fill:#f0f0ff;stroke:#000099;stroke-width:0.20999999"
         id="g326">
        <path
           id="circle320"
           d="M 4.0949998,0 A 4.0949998,4.0949998 0 0 1 0,4.0949998 4.0949998,4.0949998 0 0 1 -4.0949998,0 4.0949998,4.0949998 0 0 1 0,-4.0949998 4.0949998,4.0949998 0 0 1 4.0949998,0 Z"
           style="" />
        <path
           id="circle322"
           d="M 2.925,0 A 2.925,2.925 0 0 1 0,2.925 2.925,2.925 0 0 1 -2.925,0 2.925,2.925 0 0 1 0,-2.925 2.925,2.925 0 0 1 2.925,0 Z"
           style="" />
        <path
           id="circle324"
           d="M 1.755,0 A 1.755,1.755 0 0 1 0,1.755 1.755,1.755 0 0 1 -1.755,0 1.755,1.755 0 0 1 0,-1.755 1.755,1.755 0 0 1 1.755,0 Z"
           style="fill:#000099" />
      </g>
    </g>
    <g
       id="g338"
       transform="translate(38.1,50.8)">
      <g
         style="fill:#f0f0ff;stroke:#000099;stroke-width:0.20999999"
         id="g336">
        <path
           id="circle330"
           d="M 4.0949998,0 A 4.0949998,4.0949998 0 0 1 0,4.0949998 4.0949998,4.0949998 0 0 1 -4.0949998,0 4.0949998,4.0949998 0 0 1 0,-4.0949998 4.0949998,4.0949998 0 0 1 4.0949998,0 Z"
           style="" />
        <path
           id="circle332"
           d="M 2.925,0 A 2.925,2.925 0 0 1 0,2.925 2.925,2.925 0 0 1 -2.925,0 2.925,2.925 0 0 1 0,-2.925 2.925,2.925 0 0 1 2.925,0 Z"
           style="" />
        <path
           id="circle334"
           d="M 1.755,0 A 1.755,1.755 0 0 1 0,1.755 1.755,1.755 0 0 1 -1.755,0 1.755,1.755 0 0 1 0,-1.755 1.755,1.755 0 0 1 1.755,0 Z"
           style="fill:#000099" />
      </g>
    </g>
    <g
       id="g348"
       transform="translate(7.62,66.04)">
      <g
         style="fill:#f0f0ff;stroke:#000099;stroke-width:0.20999999"
         id="g346">
        <path
           id="circle340"
           d="M 4.0949998,0 A 4.0949998,4.0949998 0 0 1 0,4.0949998 4.0949998,4.0949998 0 0 1 -4.0949998,0 4.0949998,4.0949998 0 0 1 0,-4.0949998 4.0949998,4.0949998 0 0 1 4.0949998,0 Z"
           style="" />
        <path
           id="circle342"
           d="M 2.925,0 A 2.925,2.925 0 0 1 0,2.925 2.925,2.925 0 0 1 -2.925,0 2.925,2.925 0 0 1 0,-2.925 2.925,2.925 0 0 1 2.925,0 Z"
           style="" />
        <path
           id="circle344"
           d="M 1.755,0 A 1.755,1.755 0 0 1 0,1.755 1.755,1.755 0 0 1 -1.755,0 1.755,1.755 0 0 1 0,-1.755 1.755,1.755 0 0 1 1.755,0 Z"
           style="fill:#000099" />
      </g>
    </g>
    <g
       id="g358"
       transform="translate(16.51,66.04)">
      <g
         style="fill:#f0f0ff;stroke:#000099;stroke-width:0.20999999"
         id="g356">
        <path
           id="circle350"
           d="M 4.0949998,0 A 4.0949998,4.0949998 0 0 1 0,4.0949998 4.0949998,4.0949998 0 0 1 -4.0949998,0 4.0949998,4.0949998 0 0 1 0,-4.0949998 4.0949998,4.0949998 0 0 1 4.0949998,0 Z"
           style="" />
        <path
           id="circle352"
           d="M 2.925,0 A 2.925,2.925 0 0 1 0,2.925 2.925,2.925 0 0 1 -2.925,0 2.925,2.925 0 0 1 0,-2.925 2.925,2.925 0 0 1 2.925,0 Z"
           style="" />
        <path
           id="circle354"
           d="M 1.755,0 A 1.755,1.755 0 0 1 0,1.755 1.755,1.755 0 0 1 -1.755,0 1.755,1.755 0 0 1 0,-1.755 1.755,1.755 0 0 1 1.755,0 Z"
           style="fill:#000099" />
      </g>
    </g>
    <g
       id="g368"
       transform="translate(29.21,66.04)">
      <g
         style="fill:#f0f0ff;stroke:#000099;stroke-width:0.20999999"
         id="g366">
        <path
           id="circle360"
           d="M 4.0949998,0 A 4.0949998,4.0949998 0 0 1 0,4.0949998 4.0949998,4.0949998 0 0 1 -4.0949998,0 4.0949998,4.0949998 0 0 1 0,-4.0949998 4.0949998,4.0949998 0 0 1 4.0949998,0 Z"
           style="" />
        <path
           id="circle362"
           d="M 2.925,0 A 2.925,2.925 0 0 1 0,2.925 2.925,2.925 0 0 1 -2.925,0 2.925,2.925 0 0 1 0,-2.925 2.925,2.925 0 0 1 2.925,0 Z"
           style="" />
        <path
           id="circle364"
           d="M 1.755,0 A 1.755,1.755 0 0 1 0,1.755 1.755,1.755 0 0 1 -1.755,0 1.755,1.755 0 0 1 0,-1.755 1.755,1.755 0 0 1 1.755,0 Z"
           style="fill:#000099" />
      </g>
    </g>
    <g
       id="g378"
       transform="translate(38.1,66.04)">
      <g
         style="fill:#f0f0ff;stroke:#000099;stroke-width:0.20999999"
         id="g376">
        <path
           id="circle370"
           d="M 4.0949998,0 A 4.0949998,4.0949998 0 0 1 0,4.0949998 4.0949998,4.0949998 0 0 1 -4.0949998,0 4.0949998,4.0949998 0 0 1 0,-4.0949998 4.0949998,4.0949998 0 0 1 4.0949998,0 Z"
           style="" />
        <path
           id="circle372"
           d="M 2.925,0 A 2.925,2.925 0 0 1 0,2.925 2.925,2.925 0 0 1 -2.925,0 2.925,2.925 0 0 1 0,-2.925 2.925,2.925 0 0 1 2.925,0 Z"
           style="" />
        <path
           id="circle374"
           d="M 1.755,0 A 1.755,1.755 0 0 1 0,1.755 1.755,1.755 0 0 1 -1.755,0 1.755,1.755 0 0 1 0,-1.755 1.755,1.755 0 0 1 1.755,0 Z"
           style="fill:#000099" />
      </g>
    </g>
    <g
       id="g388"
       transform="translate(7.62,81.28)">
      <g
         style="fill:#f0f0ff;stroke:#000099;stroke-width:0.20999999"
         id="g386">
        <path
           id="circle380"
           d="M 4.0949998,0 A 4.0949998,4.0949998 0 0 1 0,4.0949998 4.0949998,4.0949998 0 0 1 -4.0949998,0 4.0949998,4.0949998 0 0 1 0,-4.0949998 4.0949998,4.0949998 0 0 1 4.0949998,0 Z"
           style="" />
        <path
           id="circle382"
           d="M 2.925,0 A 2.925,2.925 0 0 1 0,2.925 2.925,2.925 0 0 1 -2.925,0 2.925,2.925 0 0 1 0,-2.925 2.925,2.925 0 0 1 2.925,0 Z"
           style="" />
        <path
           id="circle384"
           d="M 1.755,0 A 1.755,1.755 0 0 1 0,1.755 1.755,1.755 0 0 1 -1.755,0 1.755,1.755 0 0 1 0,-1.755 1.755,1.755 0 0 1 1.755,0 Z"
           style="fill:#000099" />
      </g>
    </g>
    <g
       id="g398"
       transform="translate(16.51,81.28)">
      <g
         style="fill:#f0f0ff;stroke:#000099;stroke-width:0.20999999"
         id="g396">
        <path
           id="circle390"
           d="M 4.0949998,0 A 4.0949998,4.0949998 0 0 1 0,4.0949998 4.0949998,4.0949998 0 0 1 -4.0949998,0 4.0949998,4.0949998 0 0 1 0,-4.0949998 4.0949998,4.0949998 0 0 1 4.0949998,0 Z"
           style="" />
        <path
           id="circle392"
           d="M 2.925,0 A 2.925,2.925 0 0 1 0,2.925 2.925,2.925 0 0 1 -2.925,0 2.925,2.925 0 0 1 0,-2.925 2.925,2.925 0 0 1 2.925,0 Z"
           style="" />
        <path
           id="circle394"
           d="M 1.755,0 A 1.755,1.755 0 0 1 0,1.755 1.755,1.755 0 0 1 -1.755,0 1.755,1.755 0 0 1 0,-1.755 1.755,1.755 0 0 1 1.755,0 Z"
           style="fill:#000099" />
      </g>
    </g>
    <g
       id="g408"
       transform="translate(29.21,81.28)">
      <g
         style="fill:#f0f0ff;stroke:#000099;stroke-width:0.20999999"
         id="g406">
        <path
           id="circle400"
           d="M 4.0949998,0 A 4.0949998,4.0949998 0 0 1 0,4.0949998 4.0949998,4.0949998 0 0 1 -4.0949998,0 4.0949998,4.0949998 0 0 1 0,-4.0949998 4.0949998,4.0949998 0 0 1 4.0949998,0 Z"
           style="" />
        <path
           id="circle402"
           d="M 2.925,0 A 2.925,2.925 0 0 1 0,2.925 2.925,2.925 0 0 1 -2.925,0 2.925,2.925 0 0 1 0,-2.925 2.925,2.925 0 0 1 2.925,0 Z"
           style="" />
        <path
           id="circle404"
           d="M 1.755,0 A 1.755,1.755 0 0 1 0,1.755 1.755,1.755 0 0 1 -1.755,0 1.755,1.755 0 0 1 0,-1.755 1.755,1.755 0 0 1 1.755,0 Z"
           style="fill:#000099" />
      </g>
    </g>
    <g
       id="g418"
       transform="translate(38.1,81.28)">
      <g
         style="fill:#f0f0ff;stroke:#000099;stroke-width:0.20999999"
         id="g416">
        <path
           id="circle410"
           d="M 4.0949998,0 A 4.0949998,4.0949998 0 0 1 0,4.0949998 4.0949998,4.0949998 0 0 1 -4.0949998,0 4.0949998,4.0949998 0 0 1 0,-4.0949998 4.0949998,4.0949998 0 0 1 4.0949998,0 Z"
           style="" />
        <path
           id="circle412"
           d="M 2.925,0 A 2.925,2.925 0 0 1 0,2.925 2.925,2.925 0 0 1 -2.925,0 2.925,2.925 0 0 1 0,-2.925 2.925,2.925 0 0 1 2.925,0 Z"
           style="" />
        <path
           id="circle414"
           d="M 1.755,0 A 1.755,1.755 0 0 1 0,1.755 1.755,1.755 0 0 1 -1.755,0 1.755,1.755 0 0 1 0,-1.755 1.755,1.755 0 0 1 1.755,0 Z"
           style="fill:#000099" />
      </g>
    </g>
    <g
       id="g428"
       transform="translate(7.62,96.52)">
      <g
         style="fill:#f0f0ff;stroke:#000099;stroke-width:0.20999999"
         id="g426">
        <path
           id="circle420"
           d="M 4.0949998,0 A 4.0949998,4.0949998 0 0 1 0,4.0949998 4.0949998,4.0949998 0 0 1 -4.0949998,0 4.0949998,4.0949998 0 0 1 0,-4.0949998 4.0949998,4.0949998 0 0 1 4.0949998,0 Z"
           style="" />
        <path
           id="circle422"
           d="M 2.925,0 A 2.925,2.925 0 0 1 0,2.925 2.925,2.925 0 0 1 -2.925,0 2.925,2.925 0 0 1 0,-2.925 2.925,2.925 0 0 1 2.925,0 Z"
           style="" />
        <path
           id="circle424"
           d="M 1.755,0 A 1.755,1.755 0 0 1 0,1.755 1.755,1.755 0 0 1 -1.755,0 1.755,1.755 0 0 1 0,-1.755 1.755,1.755 0 0 1 1.755,0 Z"
           style="fill:#000099" />
      </g>
    </g>
    <g
       id="g438"
       transform="translate(16.51,96.52)">
      <g
         style="fill:#f0f0ff;stroke:#000099;stroke-width:0.20999999"
         id="g436">
        <path
           id="circle430"
           d="M 4.0949998,0 A 4.0949998,4.0949998 0 0 1 0,4.0949998 4.0949998,4.0949998 0 0 1 -4.0949998,0 4.0949998,4.0949998 0 0 1 0,-4.0949998 4.0949998,4.0949998 0 0 1 4.0949998,0 Z"
           style="" />
        <path
           id="circle432"
           d="M 2.925,0 A 2.925,2.925 0 0 1 0,2.925 2.925,2.925 0 0 1 -2.925,0 2.925,2.925 0 0 1 0,-2.925 2.925,2.925 0 0 1 2.925,0 Z"
           style="" />
        <path
           id="circle434"
           d="M 1.755,0 A 1.755,1.755 0 0 1 0,1.755 1.755,1.755 0 0 1 -1.755,0 1.755,1.755 0 0 1 0,-1.755 1.755,1.755 0 0 1 1.755,0 Z"
           style="fill:#000099" />
      </g>
    </g>
    <g
       id="g448"
       transform="translate(29.21,96.52)">
      <g
         style="fill:#f0f0ff;stroke:#000099;stroke-width:0.20999999"
         id="g446">
        <path
           id="circle440"
           d="M 4.0949998,0 A 4.0949998,4.0949998 0 0 1 0,4.0949998 4.0949998,4.0949998 0 0 1 -4.0949998,0 4.0949998,4.0949998 0 0 1 0,-4.0949998 4.0949998,4.0949998 0 0 1 4.0949998,0 Z"
           style="" />
        <path
           id="circle442"
           d="M 2.925,0 A 2.925,2.925 0 0 1 0,2.925 2.925,2.925 0 0 1 -2.925,0 2.925,2.925 0 0 1 0,-2.925 2.925,2.925 0 0 1 2.925,0 Z"
           style="" />
        <path
           id="circle444"
           d="M 1.755,0 A 1.755,1.755 0 0 1 0,1.755 1.755,1.755 0 0 1 -1.755,0 1.755,1.755 0 0 1 0,-1.755 1.755,1.755 0 0 1 1.755,0 Z"
           style="fill:#000099" />
      </g>
    </g>
    <g
       id="g458"
       transform="translate(38.1,96.52)">
      <g
         style="fill:#f0f0ff;stroke:#000099;stroke-width:0.20999999"
         id="g456">
        <path
           id="circle450"
           d="M 4.0949998,0 A 4.0949998,4.0949998 0 0 1 0,4.0949998 4.0949998,4.0949998 0 0 1 -4.0949998,0 4.0949998,4.0949998 0 0 1 0,-4.0949998 4.0949998,4.0949998 0 0 1 4.0949998,0 Z"
           style="" />
        <path
           id="circle452"
           d="M 2.925,0 A 2.925,2.925 0 0 1 0,2.925 2.925,2.925 0 0 1 -2.925,0 2.925,2.925 0 0 1 0,-2.925 2.925,2.925 0 0 1 2.925,0 Z"
           style="" />
        <path
           id="circle454"
           d="M 1.755,0 A 1.755,1.755 0 0 1 0,1.755 1.755,1.755 0 0 1 -1.755,0 1.755,1.755 0 0 1 0,-1.755 1.755,1.755 0 0 1 1.755,0 Z"
           style="fill:#000099" />
      </g>
    </g>
    <g
       id="g468"
       transform="translate(7.62,111.76)">
      <g
         style="fill:#f0f0ff;stroke:#000099;stroke-width:0.20999999"
         id="g466">
        <path
           id="circle460"
           d="M 4.0949998,0 A 4.0949998,4.0949998 0 0 1 0,4.0949998 4.0949998,4.0949998 0 0 1 -4.0949998,0 4.0949998,4.0949998 0 0 1 0,-4.0949998 4.0949998,4.0949998 0 0 1 4.0949998,0 Z"
           style="" />
        <path
           id="circle462"
           d="M 2.925,0 A 2.925,2.925 0 0 1 0,2.925 2.925,2.925 0 0 1 -2.925,0 2.925,2.925 0 0 1 0,-2.925 2.925,2.925 0 0 1 2.925,0 Z"
           style="" />
        <path
           id="circle464"
           d="M 1.755,0 A 1.755,1.755 0 0 1 0,1.755 1.755,1.755 0 0 1 -1.755,0 1.755,1.755 0 0 1 0,-1.755 1.755,1.755 0 0 1 1.755,0 Z"
           style="fill:#000099" />
      </g>
    </g>
    <g
       id="g478"
       transform="translate(16.51,111.76)">
      <g
         style="fill:#f0f0ff;stroke:#000099;stroke-width:0.20999999"
         id="g476">
        <path
           id="circle470"
           d="M 4.0949998,0 A 4.0949998,4.0949998 0 0 1 0,4.0949998 4.0949998,4.0949998 0 0 1 -4.0949998,0 4.0949998,4.0949998 0 0 1 0,-4.0949998 4.0949998,4.0949998 0 0 1 4.0949998,0 Z"
           style="" />
        <path
           id="circle472"
           d="M 2.925,0 A 2.925,2.925 0 0 1 0,2.925 2.925,2.925 0 0 1 -2.925,0 2.925,2.925 0 0 1 0,-2.925 2.925,2.925 0 0 1 2.925,0 Z"
           style="" />
        <path
           id="circle474"
           d="M 1.755,0 A 1.755,1.755 0 0 1 0,1.755 1.755,1.755 0 0 1 -1.755,0 1.755,1.755 0 0 1 0,-1.755 1.755,1.755 0 0 1 1.755,0 Z"
           style="fill:#000099" />
      </g>
    </g>
    <g
       id="g488"
       transform="translate(29.21,111.76)">
      <g
         style="fill:#f0f0ff;stroke:#000099;stroke-width:0.20999999"
         id="g486">
        <path
           id="circle480"
           d="M 4.0949998,0 A 4.0949998,4.0949998 0 0 1 0,4.0949998 4.0949998,4.0949998 0 0 1 -4.0949998,0 4.0949998,4.0949998 0 0 1 0,-4.0949998 4.0949998,4.0949998 0 0 1 4.0949998,0 Z"
           style="" />
        <path
           id="circle482"
           d="M 2.925,0 A 2.925,2.925 0 0 1 0,2.925 2.925,2.925 0 0 1 -2.925,0 2.925,2.925 0 0 1 0,-2.925 2.925,2.925 0 0 1 2.925,0 Z"
           style="" />
        <path
           id="circle484"
           d="M 1.755,0 A 1.755,1.755 0 0 1 0,1.755 1.755,1.755 0 0 1 -1.755,0 1.755,1.755 0 0 1 0,-1.755 1.755,1.755 0 0 1 1.755,0 Z"
           style="fill:#000099" />
      </g>
    </g>
    <g
       id="g498"
       transform="translate(38.1,111.76)">
      <g
         style="fill:#f0f0ff;stroke:#000099;stroke-width:0.20999999"
         id="g496">
        <path
           id="circle490"
           d="M 4.0949998,0 A 4.0949998,4.0949998 0 0 1 0,4.0949998 4.0949998,4.0949998 0 0 1 -4.0949998,0 4.0949998,4.0949998 0 0 1 0,-4.0949998 4.0949998,4.0949998 0 0 1 4.0949998,0 Z"
           style="" />
        <path
           id="circle492"
           d="M 2.925,0 A 2.925,2.925 0 0 1 0,2.925 2.925,2.925 0 0 1 -2.925,0 2.925,2.925 0 0 1 0,-2.925 2.925,2.925 0 0 1 2.925,0 Z"
           style="" />
        <path
           id="circle494"
           d="M 1.755,0 A 1.755,1.755 0 0 1 0,1.755 1.755,1.755 0 0 1 -1.755,0 1.755,1.755 0 0 1 0,-1.755 1.755,1.755 0 0 1 1.755,0 Z"
           style="fill:#000099" />
      </g>
    </g>
  </g>
</svg>
