<?xml version="1.0" encoding="UTF-8" standalone="no"?>
<svg xmlns:dc="http://purl.org/dc/elements/1.1/" xmlns:cc="http://creativecommons.org/ns#" xmlns:rdf="http://www.w3.org/1999/02/22-rdf-syntax-ns#" xmlns:svg="http://www.w3.org/2000/svg" xmlns="http://www.w3.org/2000/svg" version="1.1" width="25.4mm" height="128.5mm" viewBox="0 0 25.4 128.5" id="svg270">
  <metadata id="metadata276">
    <rdf:RDF>
      <cc:Work rdf:about="">
        <dc:format>image/svg+xml</dc:format>
        <dc:type rdf:resource="http://purl.org/dc/dcmitype/StillImage"/>
      </cc:Work>
    </rdf:RDF>
  </metadata>
  <defs id="defs274"/>
  <g id="faceplate">
    <rect x="0.25" y="0.25" width="24.9" height="128" fill="#fffff0" stroke="#4d4d00" stroke-width="0.5" rx="0.000" ry="0.000" id="rect2"/>
    <g transform="translate(12.7,9)" id="g6">
      <g aria-label="BUTTONS" id="text4" style="font-weight:bold;font-size:4.064px;font-family:'Proxima Nova';dominant-baseline:alphabetic;text-anchor:middle;fill:#4d4d00">
        <path d="m -9.1297763,0 h 1.4711681 c 0.516128,0 0.788416,-0.32512001 0.788416,-0.73152002 0,-0.34137598 -0.231648,-0.62179198 -0.520192,-0.66649598 0.256032,-0.052832 0.46736,-0.2804161 0.46736,-0.6217921 0,-0.361696 -0.26416,-0.69088 -0.780288,-0.69088 h -1.4264641 z m 0.577088,-1.6215361 v -0.597408 h 0.7233921 c 0.195072,0 0.316992,0.130048 0.316992,0.296672 0,0.174752 -0.12192,0.300736 -0.316992,0.300736 z m 0,1.12979208 V -1.129792 h 0.7437121 c 0.227584,0 0.349504,0.14630397 0.349504,0.31699197 0,0.19507201 -0.130048,0.32105601 -0.349504,0.32105601 z" style="font-weight:bold;font-size:4.064px;font-family:'Proxima Nova';dominant-baseline:alphabetic;text-anchor:middle;fill:#4d4d00" id="path278"/>
        <path d="m -6.4389637,-1.081024 c 0,0.66649599 0.38608,1.129792 1.215136,1.129792 0.8209281,0 1.2070081,-0.45923201 1.2070081,-1.133856 v -1.6256001 h -0.585216 v 1.6093441 c 0,0.37795198 -0.2072641,0.63804799 -0.6217921,0.63804799 -0.422656,0 -0.62992,-0.26009601 -0.62992,-0.63804799 v -1.6093441 h -0.585216 z" style="font-weight:bold;font-size:4.064px;font-family:'Proxima Nova';dominant-baseline:alphabetic;text-anchor:middle;fill:#4d4d00" id="path280"/>
        <path d="m -2.85242,0 h 0.581152 v -2.2026881 h 0.788416 v -0.508 h -2.1620481 v 0.508 H -2.85242 Z" style="font-weight:bold;font-size:4.064px;font-family:'Proxima Nova';dominant-baseline:alphabetic;text-anchor:middle;fill:#4d4d00" id="path282"/>
        <path d="m -0.487045,0 h 0.58115201 v -2.2026881 h 0.78841603 v -0.508 H -1.279525 v 0.508 h 0.79248 z" style="font-weight:bold;font-size:4.064px;font-family:'Proxima Nova';dominant-baseline:alphabetic;text-anchor:middle;fill:#4d4d00" id="path284"/>
        <path d="m 1.0271764,-1.353312 c 0,0.81686398 0.597408,1.40208 1.414272,1.40208 0.820928,0 1.4183361,-0.58521602 1.4183361,-1.40208 0,-0.8168641 -0.5974081,-1.4020801 -1.4183361,-1.4020801 -0.816864,0 -1.414272,0.585216 -1.414272,1.4020801 z m 2.239264,0 c 0,0.50393597 -0.32512,0.89001599 -0.824992,0.89001599 -0.499872,0 -0.820928,-0.38608002 -0.820928,-0.89001599 0,-0.5080001 0.321056,-0.8900161 0.820928,-0.8900161 0.499872,0 0.824992,0.382016 0.824992,0.8900161 z" style="font-weight:bold;font-size:4.064px;font-family:'Proxima Nova';dominant-baseline:alphabetic;text-anchor:middle;fill:#4d4d00" id="path286"/>
        <path d="m 6.1381642,0 h 0.556768 v -2.7106881 h -0.577088 v 1.75564807 L 4.8620682,-2.7106881 H 4.2687242 V 0 h 0.577088 v -1.8206721 z" style="font-weight:bold;font-size:4.064px;font-family:'Proxima Nova';dominant-baseline:alphabetic;text-anchor:middle;fill:#4d4d00" id="path288"/>
        <path d="m 7.0424678,-0.38201601 c 0.256032,0.25603201 0.62992,0.43078401 1.150112,0.43078401 0.73152,0 1.0850881,-0.37388801 1.0850881,-0.86969603 0,-0.60147197 -0.5689601,-0.73558397 -1.0160001,-0.83718407 -0.312928,-0.073152 -0.540512,-0.130048 -0.540512,-0.312928 0,-0.16256 0.138176,-0.276352 0.398272,-0.276352 0.26416,0 0.556768,0.093472 0.776224,0.296672 l 0.3210561,-0.422656 c -0.2682241,-0.247904 -0.6258561,-0.377952 -1.0566401,-0.377952 -0.638048,0 -1.028192,0.36576 -1.028192,0.816864 0,0.6055361 0.56896,0.7274561 1.011936,0.8290561 0.312928,0.073152 0.54864,0.14223997 0.54864,0.34543998 0,0.154432 -0.154432,0.30480001 -0.471424,0.30480001 -0.373888,0 -0.67056,-0.16662401 -0.861568,-0.36576002 z" style="font-weight:bold;font-size:4.064px;font-family:'Proxima Nova';dominant-baseline:alphabetic;text-anchor:middle;fill:#4d4d00" id="path290"/>
      </g>
    </g>
    <g transform="translate(12.7,119.5)" id="g10">
      <g aria-label="DHE" id="text8" style="font-weight:bold;font-size:4.064px;font-family:'Proxima Nova';dominant-baseline:hanging;text-anchor:middle;fill:#4d4d00">
        <path d="m -3.8632449,2.7584481 h 1.0688321 c 0.849376,0 1.438656,-0.5364481 1.438656,-1.3533121 0,-0.816864 -0.58928,-1.35737602 -1.438656,-1.35737602 H -3.8632449 Z M -3.2861569,2.250448 V 0.55575999 h 0.4917441 c 0.556768,0 0.849376,0.36982402 0.849376,0.84937601 0,0.459232 -0.312928,0.845312 -0.849376,0.845312 z" style="font-weight:bold;font-size:4.064px;font-family:'Proxima Nova';dominant-baseline:hanging;text-anchor:middle;fill:#4d4d00" id="path293"/>
        <path d="M 0.91500319,2.7584481 H 1.4961552 V 0.04775998 H 0.91500319 V 1.112528 H -0.36515685 V 0.04775998 H -0.94224487 V 2.7584481 h 0.57708802 V 1.620528 h 1.28016004 z" style="font-weight:bold;font-size:4.064px;font-family:'Proxima Nova';dominant-baseline:hanging;text-anchor:middle;fill:#4d4d00" id="path295"/>
        <path d="M 2.0263802,2.7584481 H 3.9445883 V 2.258576 H 2.6034682 V 1.628656 H 3.9161403 V 1.132848 H 2.6034682 V 0.54356799 H 3.9445883 V 0.04775998 H 2.0263802 Z" style="font-weight:bold;font-size:4.064px;font-family:'Proxima Nova';dominant-baseline:hanging;text-anchor:middle;fill:#4d4d00" id="path297"/>
      </g>
    </g>
    <g transform="translate(5,17)" id="g14">
      <g aria-label="A" id="text12" style="font-weight:bold;font-size:3.048px;font-family:'Proxima Nova';dominant-baseline:alphabetic;text-anchor:middle;fill:#4d4d00">
        <path d="M 0.58278714,0 H 1.0552272 L 0.27189113,-2.0330161 H -0.27065288 L -1.0570369,0 h 0.47548801 l 0.128016,-0.35052001 H 0.45477114 Z M 6.1912502e-4,-1.6581121 0.33589914,-0.72542402 h -0.67360803 z" style="font-weight:bold;font-size:3.048px;font-family:'Proxima Nova';dominant-baseline:alphabetic;text-anchor:middle;fill:#4d4d00" id="path300"/>
      </g>
    </g>
    <g transform="translate(11.5,17)" id="g18">
      <g aria-label="¬" id="text16" style="font-weight:bold;font-size:3.048px;font-family:'Proxima Nova';dominant-baseline:alphabetic;text-anchor:middle;fill:#4d4d00">
        <path d="M 0.66198752,-0.61264802 V -1.426464 h -1.35940804 v 0.24384 h 1.11252003 v 0.56997598 z" style="font-weight:bold;font-size:3.048px;font-family:'Proxima Nova';dominant-baseline:alphabetic;text-anchor:middle;fill:#4d4d00" id="path303"/>
      </g>
    </g>
    <g transform="translate(19.2,15.8)" id="g22">
      <g id="text20" style="font-weight:bold;font-size:2.371px;font-family:'Proxima Nova';dominant-baseline:alphabetic;text-anchor:middle;fill:#4d4d00"/>
    </g>
    <g transform="translate(5,29.7)" id="g26">
      <g aria-label="B" id="text24" style="font-weight:bold;font-size:3.048px;font-family:'Proxima Nova';dominant-baseline:alphabetic;text-anchor:middle;fill:#4d4d00">
        <path d="m -0.80788671,0 h 1.10337603 c 0.38709601,0 0.59131202,-0.24384001 0.59131202,-0.54864002 0,-0.25603201 -0.173736,-0.46634398 -0.39014401,-0.49987198 0.192024,-0.039624 0.35052001,-0.210312 0.35052001,-0.466344 0,-0.2712721 -0.19812001,-0.5181601 -0.58521602,-0.5181601 h -1.06984803 z m 0.43281601,-1.216152 v -0.4480561 h 0.54254402 c 0.146304,0 0.23774401,0.097536 0.23774401,0.2225041 0,0.131064 -0.09144,0.225552 -0.23774401,0.225552 z m 0,0.84734399 v -0.47853602 h 0.55778402 c 0.170688,0 0.26212801,0.10972801 0.26212801,0.23774401 0,0.14630401 -0.097536,0.24079201 -0.26212801,0.24079201 z" style="font-weight:bold;font-size:3.048px;font-family:'Proxima Nova';dominant-baseline:alphabetic;text-anchor:middle;fill:#4d4d00" id="path307"/>
      </g>
    </g>
    <g transform="translate(11.5,29.7)" id="g30">
      <g aria-label="¬" id="text28" style="font-weight:bold;font-size:3.048px;font-family:'Proxima Nova';dominant-baseline:alphabetic;text-anchor:middle;fill:#4d4d00">
        <path d="M 0.66198752,-0.61264802 V -1.426464 h -1.35940804 v 0.24384 h 1.11252003 v 0.56997598 z" style="font-weight:bold;font-size:3.048px;font-family:'Proxima Nova';dominant-baseline:alphabetic;text-anchor:middle;fill:#4d4d00" id="path310"/>
      </g>
    </g>
    <g transform="translate(19.2,28.5)" id="g34">
      <g id="text32" style="font-weight:bold;font-size:2.371px;font-family:'Proxima Nova';dominant-baseline:alphabetic;text-anchor:middle;fill:#4d4d00"/>
    </g>
    <g transform="translate(5,42.4)" id="g38">
      <g aria-label="C" id="text36" style="font-weight:bold;font-size:3.048px;font-family:'Proxima Nova';dominant-baseline:alphabetic;text-anchor:middle;fill:#4d4d00">
        <path d="m 0.122682,0.036576 c 0.46329602,0 0.71932803,-0.24688801 0.86563203,-0.49987201 L 0.61645802,-0.64312802 c -0.085344,0.16764 -0.26822401,0.29565601 -0.49377602,0.29565601 -0.35356801,0 -0.62179202,-0.28346401 -0.62179202,-0.66751199 0,-0.384048 0.26822401,-0.6675121 0.62179202,-0.6675121 0.22555201,0 0.40843202,0.1310641 0.49377602,0.2956561 l 0.37185601,-0.1828801 c -0.143256,-0.252984 -0.40233601,-0.496824 -0.86563203,-0.496824 -0.59436002,0 -1.06680003,0.42672 -1.06680003,1.0515601 0,0.62483999 0.47244001,1.05156 1.06680003,1.05156 z" style="font-weight:bold;font-size:3.048px;font-family:'Proxima Nova';dominant-baseline:alphabetic;text-anchor:middle;fill:#4d4d00" id="path314"/>
      </g>
    </g>
    <g transform="translate(11.5,42.4)" id="g42">
      <g aria-label="¬" id="text40" style="font-weight:bold;font-size:3.048px;font-family:'Proxima Nova';dominant-baseline:alphabetic;text-anchor:middle;fill:#4d4d00">
        <path d="M 0.66198752,-0.61264802 V -1.426464 h -1.35940804 v 0.24384 h 1.11252003 v 0.56997598 z" style="font-weight:bold;font-size:3.048px;font-family:'Proxima Nova';dominant-baseline:alphabetic;text-anchor:middle;fill:#4d4d00" id="path317"/>
      </g>
    </g>
    <g transform="translate(19.2,41.2)" id="g46">
      <g id="text44" style="font-weight:bold;font-size:2.371px;font-family:'Proxima Nova';dominant-baseline:alphabetic;text-anchor:middle;fill:#4d4d00"/>
    </g>
    <g transform="translate(5,55.1)" id="g50">
      <g aria-label="D" id="text48" style="font-weight:bold;font-size:3.048px;font-family:'Proxima Nova';dominant-baseline:alphabetic;text-anchor:middle;fill:#4d4d00">
        <path d="M -0.89420703,0 H -0.092583 c 0.63703202,0 1.07899203,-0.40233601 1.07899203,-1.014984 0,-0.6126481 -0.44196001,-1.0180321 -1.07899203,-1.0180321 h -0.80162403 z m 0.43281602,-0.38100001 V -1.6520161 H -0.092583 c 0.41757601,0 0.63703202,0.2773681 0.63703202,0.6370321 0,0.34442398 -0.23469601,0.63398399 -0.63703202,0.63398399 z" style="font-weight:bold;font-size:3.048px;font-family:'Proxima Nova';dominant-baseline:alphabetic;text-anchor:middle;fill:#4d4d00" id="path321"/>
      </g>
    </g>
    <g transform="translate(11.5,55.1)" id="g54">
      <g aria-label="¬" id="text52" style="font-weight:bold;font-size:3.048px;font-family:'Proxima Nova';dominant-baseline:alphabetic;text-anchor:middle;fill:#4d4d00">
        <path d="M 0.66198752,-0.61264802 V -1.426464 h -1.35940804 v 0.24384 h 1.11252003 v 0.56997598 z" style="font-weight:bold;font-size:3.048px;font-family:'Proxima Nova';dominant-baseline:alphabetic;text-anchor:middle;fill:#4d4d00" id="path324"/>
      </g>
    </g>
    <g transform="translate(19.2,53.9)" id="g58">
      <g id="text56" style="font-weight:bold;font-size:2.371px;font-family:'Proxima Nova';dominant-baseline:alphabetic;text-anchor:middle;fill:#4d4d00"/>
    </g>
    <g transform="translate(5,67.8)" id="g62">
      <g aria-label="E" id="text60" style="font-weight:bold;font-size:3.048px;font-family:'Proxima Nova';dominant-baseline:alphabetic;text-anchor:middle;fill:#4d4d00">
        <path d="M -0.68882421,0 H 0.74983184 V -0.37490401 H -0.2560082 V -0.84734403 H 0.72849584 V -1.2192 H -0.2560082 v -0.4419601 h 1.00584004 v -0.371856 h -1.43865605 z" style="font-weight:bold;font-size:3.048px;font-family:'Proxima Nova';dominant-baseline:alphabetic;text-anchor:middle;fill:#4d4d00" id="path328"/>
      </g>
    </g>
    <g transform="translate(11.5,67.8)" id="g66">
      <g aria-label="¬" id="text64" style="font-weight:bold;font-size:3.048px;font-family:'Proxima Nova';dominant-baseline:alphabetic;text-anchor:middle;fill:#4d4d00">
        <path d="M 0.66198752,-0.61264802 V -1.426464 h -1.35940804 v 0.24384 h 1.11252003 v 0.56997598 z" style="font-weight:bold;font-size:3.048px;font-family:'Proxima Nova';dominant-baseline:alphabetic;text-anchor:middle;fill:#4d4d00" id="path331"/>
      </g>
    </g>
    <g transform="translate(19.2,66.6)" id="g70">
      <g id="text68" style="font-weight:bold;font-size:2.371px;font-family:'Proxima Nova';dominant-baseline:alphabetic;text-anchor:middle;fill:#4d4d00"/>
    </g>
    <g transform="translate(5,80.5)" id="g74">
      <g aria-label="F" id="text72" style="font-weight:bold;font-size:3.048px;font-family:'Proxima Nova';dominant-baseline:alphabetic;text-anchor:middle;fill:#4d4d00">
        <path d="m -0.66798827,0 h 0.43281601 V -0.84734403 H 0.74933177 V -1.2192 h -0.98450403 v -0.4419601 h 1.00584003 v -0.371856 h -1.43865604 z" style="font-weight:bold;font-size:3.048px;font-family:'Proxima Nova';dominant-baseline:alphabetic;text-anchor:middle;fill:#4d4d00" id="path335"/>
      </g>
    </g>
    <g transform="translate(11.5,80.5)" id="g78">
      <g aria-label="¬" id="text76" style="font-weight:bold;font-size:3.048px;font-family:'Proxima Nova';dominant-baseline:alphabetic;text-anchor:middle;fill:#4d4d00">
        <path d="M 0.66198752,-0.61264802 V -1.426464 h -1.35940804 v 0.24384 h 1.11252003 v 0.56997598 z" style="font-weight:bold;font-size:3.048px;font-family:'Proxima Nova';dominant-baseline:alphabetic;text-anchor:middle;fill:#4d4d00" id="path338"/>
      </g>
    </g>
    <g transform="translate(19.2,79.3)" id="g82">
      <g id="text80" style="font-weight:bold;font-size:2.371px;font-family:'Proxima Nova';dominant-baseline:alphabetic;text-anchor:middle;fill:#4d4d00"/>
    </g>
    <g transform="translate(5,93.2)" id="g86">
      <g aria-label="G" id="text84" style="font-weight:bold;font-size:3.048px;font-family:'Proxima Nova';dominant-baseline:alphabetic;text-anchor:middle;fill:#4d4d00">
        <path d="m -0.99471959,-1.014984 c 0,0.64007999 0.48768001,1.054608 1.08204003,1.054608 0.36880801,0 0.65836802,-0.1524 0.86563203,-0.38404801 V -1.121664 h -0.96926403 v 0.37185598 h 0.54254401 v 0.246888 c -0.088392,0.079248 -0.252984,0.15544801 -0.43891201,0.15544801 -0.36880801,0 -0.63703202,-0.28346401 -0.63703202,-0.66751199 0,-0.384048 0.26822401,-0.6675121 0.63703202,-0.6675121 0.21336001,0 0.38709601,0.112776 0.48158402,0.2560321 l 0.35966401,-0.1950721 c -0.15544801,-0.240792 -0.42062402,-0.445008 -0.84124803,-0.445008 -0.59436002,0 -1.08204003,0.408432 -1.08204003,1.0515601 z" style="font-weight:bold;font-size:3.048px;font-family:'Proxima Nova';dominant-baseline:alphabetic;text-anchor:middle;fill:#4d4d00" id="path342"/>
      </g>
    </g>
    <g transform="translate(11.5,93.2)" id="g90">
      <g aria-label="¬" id="text88" style="font-weight:bold;font-size:3.048px;font-family:'Proxima Nova';dominant-baseline:alphabetic;text-anchor:middle;fill:#4d4d00">
        <path d="M 0.66198752,-0.61264802 V -1.426464 h -1.35940804 v 0.24384 h 1.11252003 v 0.56997598 z" style="font-weight:bold;font-size:3.048px;font-family:'Proxima Nova';dominant-baseline:alphabetic;text-anchor:middle;fill:#4d4d00" id="path345"/>
      </g>
    </g>
    <g transform="translate(19.2,92)" id="g94">
      <g id="text92" style="font-weight:bold;font-size:2.371px;font-family:'Proxima Nova';dominant-baseline:alphabetic;text-anchor:middle;fill:#4d4d00"/>
    </g>
    <g transform="translate(5,105.9)" id="g98">
      <g aria-label="H" id="text96" style="font-weight:bold;font-size:3.048px;font-family:'Proxima Nova';dominant-baseline:alphabetic;text-anchor:middle;fill:#4d4d00">
        <path d="M 0.48086964,0 H 0.91673365 V -2.0330161 H 0.48086964 V -1.23444 H -0.47925039 V -2.0330161 H -0.9120664 V 0 h 0.43281601 v -0.85344003 h 0.96012003 z" style="font-weight:bold;font-size:3.048px;font-family:'Proxima Nova';dominant-baseline:alphabetic;text-anchor:middle;fill:#4d4d00" id="path349"/>
      </g>
    </g>
    <g transform="translate(11.5,105.9)" id="g102">
      <g aria-label="¬" id="text100" style="font-weight:bold;font-size:3.048px;font-family:'Proxima Nova';dominant-baseline:alphabetic;text-anchor:middle;fill:#4d4d00">
        <path d="M 0.66198752,-0.61264802 V -1.426464 h -1.35940804 v 0.24384 h 1.11252003 v 0.56997598 z" style="font-weight:bold;font-size:3.048px;font-family:'Proxima Nova';dominant-baseline:alphabetic;text-anchor:middle;fill:#4d4d00" id="path352"/>
      </g>
    </g>
    <g transform="translate(19.2,104.7)" id="g106">
      <g id="text104" style="font-weight:bold;font-size:2.371px;font-family:'Proxima Nova';dominant-baseline:alphabetic;text-anchor:middle;fill:#4d4d00"/>
    </g>
  </g>
</svg>
