<?xml version="1.0" encoding="UTF-8" standalone="no"?>
<svg xmlns:dc="http://purl.org/dc/elements/1.1/" xmlns:cc="http://creativecommons.org/ns#" xmlns:rdf="http://www.w3.org/1999/02/22-rdf-syntax-ns#" xmlns:svg="http://www.w3.org/2000/svg" xmlns="http://www.w3.org/2000/svg" version="1.1" width="60.960mm" height="128.500mm" viewBox="0 0 60.960 128.500" id="svg422">
  <metadata id="metadata428">
    <rdf:RDF>
      <cc:Work rdf:about="">
        <dc:format>image/svg+xml</dc:format>
        <dc:type rdf:resource="http://purl.org/dc/dcmitype/StillImage"/>
      </cc:Work>
    </rdf:RDF>
  </metadata>
  <defs id="defs426"/>
  <g id="faceplate">
    <rect x="0.250" y="0.250" width="60.460" height="128.000" fill="#faf7f0" stroke="#0044cc" stroke-width="0.500" rx="0.000" ry="0.000" id="rect2"/>
    <g transform="translate(30.480,9.000)" id="g6">
      <g aria-label="FUNC 6" id="text4" style="font-weight:bold;font-size:4.064px;font-family:'Proxima Nova';dominant-baseline:alphabetic;text-anchor:middle;fill:#0044cc">
        <path d="m -7.0025262,0 h 0.577088 v -1.129792 h 1.312672 v -0.4958081 h -1.312672 v -0.58928 h 1.34112 v -0.495808 h -1.918208 z" style="font-weight:bold;font-size:4.064px;font-family:'Proxima Nova';dominant-baseline:alphabetic;text-anchor:middle;fill:#0044cc" id="path430"/>
        <path d="m -4.6847762,-1.081024 c 0,0.66649599 0.38608,1.129792 1.215136,1.129792 0.820928,0 1.207008,-0.45923201 1.207008,-1.133856 v -1.6256001 h -0.585216 v 1.6093441 c 0,0.37795198 -0.207264,0.63804799 -0.621792,0.63804799 -0.422656,0 -0.62992,-0.26009601 -0.62992,-0.63804799 v -1.6093441 h -0.585216 z" style="font-weight:bold;font-size:4.064px;font-family:'Proxima Nova';dominant-baseline:alphabetic;text-anchor:middle;fill:#0044cc" id="path432"/>
        <path d="M 0.14535145,0 H 0.70211947 V -2.7106881 H 0.12503145 v 1.75564807 L -1.1307446,-2.7106881 h -0.593344 V 0 h 0.577088 v -1.8206721 z" style="font-weight:bold;font-size:4.064px;font-family:'Proxima Nova';dominant-baseline:alphabetic;text-anchor:middle;fill:#0044cc" id="path434"/>
        <path d="m 2.5289511,0.048768 c 0.617728,0 0.959104,-0.32918401 1.154176,-0.66649602 l -0.495808,-0.23977601 c -0.113792,0.22352001 -0.357632,0.39420802 -0.658368,0.39420802 -0.471424,0 -0.8290561,-0.37795202 -0.8290561,-0.89001599 0,-0.5120641 0.3576321,-0.8900161 0.8290561,-0.8900161 0.300736,0 0.544576,0.174752 0.658368,0.394208 l 0.495808,-0.24384 c -0.191008,-0.337312 -0.536448,-0.662432 -1.154176,-0.662432 -0.7924801,0 -1.4224001,0.56896 -1.4224001,1.4020801 0,0.83311998 0.62992,1.40208 1.4224001,1.40208 z" style="font-weight:bold;font-size:4.064px;font-family:'Proxima Nova';dominant-baseline:alphabetic;text-anchor:middle;fill:#0044cc" id="path436"/>
        <path d="m 4.9403637,-1.349248 c 0,0.76403198 0.34544,1.398016 1.1704321,1.398016 0.617728,0 1.03632,-0.40233601 1.03632,-0.93065603 0,-0.57708797 -0.434848,-0.87376007 -0.922528,-0.87376007 -0.296672,0 -0.56896,0.16256 -0.694944,0.3454401 -0.00406,-0.016256 -0.00406,-0.036576 -0.00406,-0.056896 0,-0.4307841 0.268224,-0.7843521 0.678688,-0.7843521 0.239776,0 0.394208,0.077216 0.540512,0.215392 l 0.260096,-0.434848 c -0.195072,-0.166624 -0.471424,-0.280416 -0.800608,-0.280416 -0.800608,0 -1.2639041,0.581152 -1.2639041,1.4020801 z m 1.6215361,0.49174397 c 0,0.19100801 -0.166624,0.40233602 -0.479552,0.40233602 -0.382016,0 -0.52832,-0.30073601 -0.552704,-0.56083199 0.130048,-0.158496 0.32512,-0.260096 0.52832,-0.260096 0.26416,0 0.503936,0.125984 0.503936,0.41859197 z" style="font-weight:bold;font-size:4.064px;font-family:'Proxima Nova';dominant-baseline:alphabetic;text-anchor:middle;fill:#0044cc" id="path438"/>
      </g>
    </g>
    <g transform="translate(30.480,119.500)" id="g10">
      <g aria-label="DHE" id="text8" style="font-weight:bold;font-size:4.064px;font-family:'Proxima Nova';dominant-baseline:hanging;text-anchor:middle;fill:#0044cc">
        <path d="m -3.8632449,2.7584481 h 1.0688321 c 0.849376,0 1.438656,-0.5364481 1.438656,-1.3533121 0,-0.816864 -0.58928,-1.35737602 -1.438656,-1.35737602 H -3.8632449 Z M -3.2861569,2.250448 V 0.55575999 h 0.4917441 c 0.556768,0 0.849376,0.36982402 0.849376,0.84937601 0,0.459232 -0.312928,0.845312 -0.849376,0.845312 z" style="font-weight:bold;font-size:4.064px;font-family:'Proxima Nova';dominant-baseline:hanging;text-anchor:middle;fill:#0044cc" id="path441"/>
        <path d="M 0.91500319,2.7584481 H 1.4961552 V 0.04775998 H 0.91500319 V 1.112528 H -0.36515685 V 0.04775998 H -0.94224487 V 2.7584481 h 0.57708802 V 1.620528 h 1.28016004 z" style="font-weight:bold;font-size:4.064px;font-family:'Proxima Nova';dominant-baseline:hanging;text-anchor:middle;fill:#0044cc" id="path443"/>
        <path d="M 2.0263802,2.7584481 H 3.9445883 V 2.258576 H 2.6034682 V 1.628656 H 3.9161403 V 1.132848 H 2.6034682 V 0.54356799 H 3.9445883 V 0.04775998 H 2.0263802 Z" style="font-weight:bold;font-size:4.064px;font-family:'Proxima Nova';dominant-baseline:hanging;text-anchor:middle;fill:#0044cc" id="path445"/>
      </g>
    </g>
    <line x1="8.709" y1="23.000" x2="52.251" y2="23.000" stroke="#0044cc" stroke-width="0.350" id="line12"/>
    <rect x="3.509" y="16.470" width="10.400" height="12.980" fill="#faf7f0" stroke="#0044cc" stroke-width="0.350" rx="1.000" ry="1.000" id="rect14"/>
    <g transform="translate(8.709,19.050)" id="g18">
      <g aria-label="IN" id="text16" style="font-weight:bold;font-size:2.371px;font-family:'Proxima Nova';dominant-baseline:alphabetic;text-anchor:middle;fill:#0044cc">
        <path d="m -1.0313295,0 h 0.33668206 V -1.581457 H -1.0313295 Z" style="font-weight:bold;font-size:2.371px;font-family:'Proxima Nova';dominant-baseline:alphabetic;text-anchor:middle;fill:#0044cc" id="path448"/>
        <path d="M 0.70765089,0 H 1.0324779 V -1.581457 H 0.69579589 v 1.02427199 L -0.03684313,-1.581457 h -0.346166 V 0 h 0.336682 v -1.062208 z" style="font-weight:bold;font-size:2.371px;font-family:'Proxima Nova';dominant-baseline:alphabetic;text-anchor:middle;fill:#0044cc" id="path450"/>
      </g>
    </g>
    <g transform="translate(19.594,27.000)" id="g22">
      <g aria-label="ADD" id="text20" style="font-weight:bold;font-size:2.371px;font-family:'Proxima Nova';dominant-baseline:hanging;text-anchor:middle;fill:#0044cc">
        <path d="m -1.2508137,1.609472 h 0.36750504 L -1.4926557,0.02801494 h -0.422038 L -2.5264117,1.609472 h 0.369876 l 0.099582,-0.272665 h 0.706558 z m -0.452861,-1.28982405 0.26081,0.72552605 h -0.523991 z" style="font-weight:bold;font-size:2.371px;font-family:'Proxima Nova';dominant-baseline:hanging;text-anchor:middle;fill:#0044cc" id="path453"/>
        <path d="m -0.73726984,1.609472 h 0.62357301 c 0.49553902,0 0.83933402,-0.312972 0.83933402,-0.78954304 0,-0.47657101 -0.343795,-0.79191402 -0.83933402,-0.79191402 H -0.73726984 Z M -0.40058783,1.313097 V 0.32438995 h 0.286891 c 0.32482701,0 0.49553902,0.215761 0.49553902,0.49553901 0,0.26792304 -0.18256701,0.49316804 -0.49553902,0.49316804 z" style="font-weight:bold;font-size:2.371px;font-family:'Proxima Nova';dominant-baseline:hanging;text-anchor:middle;fill:#0044cc" id="path455"/>
        <path d="M 0.96688644,1.609472 H 1.5904595 c 0.495539,0 0.839334,-0.312972 0.839334,-0.78954304 0,-0.47657101 -0.343795,-0.79191402 -0.839334,-0.79191402 H 0.96688644 Z M 1.3035684,1.313097 V 0.32438995 h 0.2868911 c 0.324827,0 0.495539,0.215761 0.495539,0.49553901 0,0.26792304 -0.182567,0.49316804 -0.495539,0.49316804 z" style="font-weight:bold;font-size:2.371px;font-family:'Proxima Nova';dominant-baseline:hanging;text-anchor:middle;fill:#0044cc" id="path457"/>
      </g>
    </g>
    <g transform="translate(19.594,19.000)" id="g26">
      <g aria-label="MULT" id="text24" style="font-weight:bold;font-size:2.371px;font-family:'Proxima Nova';dominant-baseline:alphabetic;text-anchor:middle;fill:#0044cc">
        <path d="m -1.5385938,0 h 0.339053 v -1.581457 h -0.4742 l -0.384102,0.98633599 -0.384102,-0.98633599 h -0.471829 V 0 h 0.336682 V -1.13808 L -2.1313438,0 h 0.147002 l 0.445748,-1.13808 z" style="font-weight:bold;font-size:2.371px;font-family:'Proxima Nova';dominant-baseline:alphabetic;text-anchor:middle;fill:#0044cc" id="path460"/>
        <path d="m -0.88545733,-0.63068601 c 0,0.388844 0.225245,0.65913801 0.70892901,0.65913801 0.47894201,0 0.70418702,-0.26792301 0.70418702,-0.66150901 V -1.581457 H 0.18623469 v 0.93891599 c 0,0.220503 -0.120921,0.372247 -0.36276301,0.372247 -0.246584,0 -0.367505,-0.151744 -0.367505,-0.372247 V -1.581457 h -0.34142401 z" style="font-weight:bold;font-size:2.371px;font-family:'Proxima Nova';dominant-baseline:alphabetic;text-anchor:middle;fill:#0044cc" id="path462"/>
        <path d="M 0.84185333,0 H 1.8471573 V -0.29637501 H 1.1785353 V -1.581457 H 0.84185333 Z" style="font-weight:bold;font-size:2.371px;font-family:'Proxima Nova';dominant-baseline:alphabetic;text-anchor:middle;fill:#0044cc" id="path464"/>
        <path d="M 2.211884,0 H 2.550937 V -1.285082 H 3.010911 V -1.581457 H 1.749539 v 0.296375 h 0.462345 z" style="font-weight:bold;font-size:2.371px;font-family:'Proxima Nova';dominant-baseline:alphabetic;text-anchor:middle;fill:#0044cc" id="path466"/>
      </g>
    </g>
    <g transform="translate(30.480,15.650)" id="g30">
      <g id="text28" style="font-weight:bold;font-size:3.048px;font-family:'Proxima Nova';dominant-baseline:alphabetic;text-anchor:middle;fill:#0044cc"/>
    </g>
    <rect x="47.051" y="16.470" width="10.400" height="12.980" fill="#0044cc" stroke="#0044cc" stroke-width="0.350" rx="1.000" ry="1.000" id="rect32"/>
    <g transform="translate(52.251,19.050)" id="g36">
      <g aria-label="OUT" id="text34" style="font-weight:bold;font-size:2.371px;font-family:'Proxima Nova';dominant-baseline:alphabetic;text-anchor:middle;fill:#faf7f0">
        <path d="m -2.3806878,-0.78954302 c 0,0.47657101 0.348537,0.81799502 0.825108,0.81799502 0.478942,0 0.82747903,-0.34142401 0.82747903,-0.81799502 0,-0.47657098 -0.34853703,-0.81799498 -0.82747903,-0.81799498 -0.476571,0 -0.825108,0.341424 -0.825108,0.81799498 z m 1.306421,0 c 0,0.29400401 -0.18968,0.51924901 -0.481313,0.51924901 -0.291633,0 -0.478942,-0.225245 -0.478942,-0.51924901 0,-0.29637498 0.187309,-0.51924898 0.478942,-0.51924898 0.291633,0 0.481313,0.222874 0.481313,0.51924898 z" style="font-weight:bold;font-size:2.371px;font-family:'Proxima Nova';dominant-baseline:alphabetic;text-anchor:middle;fill:#faf7f0" id="path470"/>
        <path d="m -0.48951892,-0.63068601 c 0,0.388844 0.22524501,0.65913801 0.70892902,0.65913801 0.47894201,0 0.70418701,-0.26792301 0.70418701,-0.66150901 V -1.581457 H 0.5821731 v 0.93891599 c 0,0.220503 -0.120921,0.372247 -0.362763,0.372247 -0.24658401,0 -0.36750501,-0.151744 -0.36750501,-0.372247 V -1.581457 h -0.34142401 z" style="font-weight:bold;font-size:2.371px;font-family:'Proxima Nova';dominant-baseline:alphabetic;text-anchor:middle;fill:#faf7f0" id="path472"/>
        <path d="m 1.6029255,0 h 0.339053 v -1.285082 h 0.459974 v -0.296375 h -1.261372 v 0.296375 h 0.462345 z" style="font-weight:bold;font-size:2.371px;font-family:'Proxima Nova';dominant-baseline:alphabetic;text-anchor:middle;fill:#faf7f0" id="path474"/>
      </g>
    </g>
    <line x1="8.709" y1="40.000" x2="52.251" y2="40.000" stroke="#0044cc" stroke-width="0.350" id="line38"/>
    <rect x="3.509" y="33.470" width="10.400" height="12.980" fill="#faf7f0" stroke="#0044cc" stroke-width="0.350" rx="1.000" ry="1.000" id="rect40"/>
    <g transform="translate(8.709,36.050)" id="g44">
      <g aria-label="IN" id="text42" style="font-weight:bold;font-size:2.371px;font-family:'Proxima Nova';dominant-baseline:alphabetic;text-anchor:middle;fill:#0044cc">
        <path d="m -1.0313295,0 h 0.33668206 V -1.581457 H -1.0313295 Z" style="font-weight:bold;font-size:2.371px;font-family:'Proxima Nova';dominant-baseline:alphabetic;text-anchor:middle;fill:#0044cc" id="path477"/>
        <path d="M 0.70765089,0 H 1.0324779 V -1.581457 H 0.69579589 v 1.02427199 L -0.03684313,-1.581457 h -0.346166 V 0 h 0.336682 v -1.062208 z" style="font-weight:bold;font-size:2.371px;font-family:'Proxima Nova';dominant-baseline:alphabetic;text-anchor:middle;fill:#0044cc" id="path479"/>
      </g>
    </g>
    <g transform="translate(19.594,44.000)" id="g48">
      <g aria-label="ADD" id="text46" style="font-weight:bold;font-size:2.371px;font-family:'Proxima Nova';dominant-baseline:hanging;text-anchor:middle;fill:#0044cc">
        <path d="m -1.2508137,1.609472 h 0.36750504 L -1.4926557,0.02801494 h -0.422038 L -2.5264117,1.609472 h 0.369876 l 0.099582,-0.272665 h 0.706558 z m -0.452861,-1.28982405 0.26081,0.72552605 h -0.523991 z" style="font-weight:bold;font-size:2.371px;font-family:'Proxima Nova';dominant-baseline:hanging;text-anchor:middle;fill:#0044cc" id="path482"/>
        <path d="m -0.73726984,1.609472 h 0.62357301 c 0.49553902,0 0.83933402,-0.312972 0.83933402,-0.78954304 0,-0.47657101 -0.343795,-0.79191402 -0.83933402,-0.79191402 H -0.73726984 Z M -0.40058783,1.313097 V 0.32438995 h 0.286891 c 0.32482701,0 0.49553902,0.215761 0.49553902,0.49553901 0,0.26792304 -0.18256701,0.49316804 -0.49553902,0.49316804 z" style="font-weight:bold;font-size:2.371px;font-family:'Proxima Nova';dominant-baseline:hanging;text-anchor:middle;fill:#0044cc" id="path484"/>
        <path d="M 0.96688644,1.609472 H 1.5904595 c 0.495539,0 0.839334,-0.312972 0.839334,-0.78954304 0,-0.47657101 -0.343795,-0.79191402 -0.839334,-0.79191402 H 0.96688644 Z M 1.3035684,1.313097 V 0.32438995 h 0.2868911 c 0.324827,0 0.495539,0.215761 0.495539,0.49553901 0,0.26792304 -0.182567,0.49316804 -0.495539,0.49316804 z" style="font-weight:bold;font-size:2.371px;font-family:'Proxima Nova';dominant-baseline:hanging;text-anchor:middle;fill:#0044cc" id="path486"/>
      </g>
    </g>
    <g transform="translate(19.594,36.000)" id="g52">
      <g aria-label="MULT" id="text50" style="font-weight:bold;font-size:2.371px;font-family:'Proxima Nova';dominant-baseline:alphabetic;text-anchor:middle;fill:#0044cc">
        <path d="m -1.5385938,0 h 0.339053 v -1.581457 h -0.4742 l -0.384102,0.98633599 -0.384102,-0.98633599 h -0.471829 V 0 h 0.336682 V -1.13808 L -2.1313438,0 h 0.147002 l 0.445748,-1.13808 z" style="font-weight:bold;font-size:2.371px;font-family:'Proxima Nova';dominant-baseline:alphabetic;text-anchor:middle;fill:#0044cc" id="path489"/>
        <path d="m -0.88545733,-0.63068601 c 0,0.388844 0.225245,0.65913801 0.70892901,0.65913801 0.47894201,0 0.70418702,-0.26792301 0.70418702,-0.66150901 V -1.581457 H 0.18623469 v 0.93891599 c 0,0.220503 -0.120921,0.372247 -0.36276301,0.372247 -0.246584,0 -0.367505,-0.151744 -0.367505,-0.372247 V -1.581457 h -0.34142401 z" style="font-weight:bold;font-size:2.371px;font-family:'Proxima Nova';dominant-baseline:alphabetic;text-anchor:middle;fill:#0044cc" id="path491"/>
        <path d="M 0.84185333,0 H 1.8471573 V -0.29637501 H 1.1785353 V -1.581457 H 0.84185333 Z" style="font-weight:bold;font-size:2.371px;font-family:'Proxima Nova';dominant-baseline:alphabetic;text-anchor:middle;fill:#0044cc" id="path493"/>
        <path d="M 2.211884,0 H 2.550937 V -1.285082 H 3.010911 V -1.581457 H 1.749539 v 0.296375 h 0.462345 z" style="font-weight:bold;font-size:2.371px;font-family:'Proxima Nova';dominant-baseline:alphabetic;text-anchor:middle;fill:#0044cc" id="path495"/>
      </g>
    </g>
    <g transform="translate(30.480,32.650)" id="g56">
      <g id="text54" style="font-weight:bold;font-size:3.048px;font-family:'Proxima Nova';dominant-baseline:alphabetic;text-anchor:middle;fill:#0044cc"/>
    </g>
    <rect x="47.051" y="33.470" width="10.400" height="12.980" fill="#0044cc" stroke="#0044cc" stroke-width="0.350" rx="1.000" ry="1.000" id="rect58"/>
    <g transform="translate(52.251,36.050)" id="g62">
      <g aria-label="OUT" id="text60" style="font-weight:bold;font-size:2.371px;font-family:'Proxima Nova';dominant-baseline:alphabetic;text-anchor:middle;fill:#faf7f0">
        <path d="m -2.3806878,-0.78954302 c 0,0.47657101 0.348537,0.81799502 0.825108,0.81799502 0.478942,0 0.82747903,-0.34142401 0.82747903,-0.81799502 0,-0.47657098 -0.34853703,-0.81799498 -0.82747903,-0.81799498 -0.476571,0 -0.825108,0.341424 -0.825108,0.81799498 z m 1.306421,0 c 0,0.29400401 -0.18968,0.51924901 -0.481313,0.51924901 -0.291633,0 -0.478942,-0.225245 -0.478942,-0.51924901 0,-0.29637498 0.187309,-0.51924898 0.478942,-0.51924898 0.291633,0 0.481313,0.222874 0.481313,0.51924898 z" style="font-weight:bold;font-size:2.371px;font-family:'Proxima Nova';dominant-baseline:alphabetic;text-anchor:middle;fill:#faf7f0" id="path499"/>
        <path d="m -0.48951892,-0.63068601 c 0,0.388844 0.22524501,0.65913801 0.70892902,0.65913801 0.47894201,0 0.70418701,-0.26792301 0.70418701,-0.66150901 V -1.581457 H 0.5821731 v 0.93891599 c 0,0.220503 -0.120921,0.372247 -0.362763,0.372247 -0.24658401,0 -0.36750501,-0.151744 -0.36750501,-0.372247 V -1.581457 h -0.34142401 z" style="font-weight:bold;font-size:2.371px;font-family:'Proxima Nova';dominant-baseline:alphabetic;text-anchor:middle;fill:#faf7f0" id="path501"/>
        <path d="m 1.6029255,0 h 0.339053 v -1.285082 h 0.459974 v -0.296375 h -1.261372 v 0.296375 h 0.462345 z" style="font-weight:bold;font-size:2.371px;font-family:'Proxima Nova';dominant-baseline:alphabetic;text-anchor:middle;fill:#faf7f0" id="path503"/>
      </g>
    </g>
    <line x1="8.709" y1="57.000" x2="52.251" y2="57.000" stroke="#0044cc" stroke-width="0.350" id="line64"/>
    <rect x="3.509" y="50.470" width="10.400" height="12.980" fill="#faf7f0" stroke="#0044cc" stroke-width="0.350" rx="1.000" ry="1.000" id="rect66"/>
    <g transform="translate(8.709,53.050)" id="g70">
      <g aria-label="IN" id="text68" style="font-weight:bold;font-size:2.371px;font-family:'Proxima Nova';dominant-baseline:alphabetic;text-anchor:middle;fill:#0044cc">
        <path d="m -1.0313295,0 h 0.33668206 V -1.581457 H -1.0313295 Z" style="font-weight:bold;font-size:2.371px;font-family:'Proxima Nova';dominant-baseline:alphabetic;text-anchor:middle;fill:#0044cc" id="path506"/>
        <path d="M 0.70765089,0 H 1.0324779 V -1.581457 H 0.69579589 v 1.02427199 L -0.03684313,-1.581457 h -0.346166 V 0 h 0.336682 v -1.062208 z" style="font-weight:bold;font-size:2.371px;font-family:'Proxima Nova';dominant-baseline:alphabetic;text-anchor:middle;fill:#0044cc" id="path508"/>
      </g>
    </g>
    <g transform="translate(19.594,61.000)" id="g74">
      <g aria-label="ADD" id="text72" style="font-weight:bold;font-size:2.371px;font-family:'Proxima Nova';dominant-baseline:hanging;text-anchor:middle;fill:#0044cc">
        <path d="m -1.2508137,1.609472 h 0.36750504 L -1.4926557,0.02801494 h -0.422038 L -2.5264117,1.609472 h 0.369876 l 0.099582,-0.272665 h 0.706558 z m -0.452861,-1.28982405 0.26081,0.72552605 h -0.523991 z" style="font-weight:bold;font-size:2.371px;font-family:'Proxima Nova';dominant-baseline:hanging;text-anchor:middle;fill:#0044cc" id="path511"/>
        <path d="m -0.73726984,1.609472 h 0.62357301 c 0.49553902,0 0.83933402,-0.312972 0.83933402,-0.78954304 0,-0.47657101 -0.343795,-0.79191402 -0.83933402,-0.79191402 H -0.73726984 Z M -0.40058783,1.313097 V 0.32438995 h 0.286891 c 0.32482701,0 0.49553902,0.215761 0.49553902,0.49553901 0,0.26792304 -0.18256701,0.49316804 -0.49553902,0.49316804 z" style="font-weight:bold;font-size:2.371px;font-family:'Proxima Nova';dominant-baseline:hanging;text-anchor:middle;fill:#0044cc" id="path513"/>
        <path d="M 0.96688644,1.609472 H 1.5904595 c 0.495539,0 0.839334,-0.312972 0.839334,-0.78954304 0,-0.47657101 -0.343795,-0.79191402 -0.839334,-0.79191402 H 0.96688644 Z M 1.3035684,1.313097 V 0.32438995 h 0.2868911 c 0.324827,0 0.495539,0.215761 0.495539,0.49553901 0,0.26792304 -0.182567,0.49316804 -0.495539,0.49316804 z" style="font-weight:bold;font-size:2.371px;font-family:'Proxima Nova';dominant-baseline:hanging;text-anchor:middle;fill:#0044cc" id="path515"/>
      </g>
    </g>
    <g transform="translate(19.594,53.000)" id="g78">
      <g aria-label="MULT" id="text76" style="font-weight:bold;font-size:2.371px;font-family:'Proxima Nova';dominant-baseline:alphabetic;text-anchor:middle;fill:#0044cc">
        <path d="m -1.5385938,0 h 0.339053 v -1.581457 h -0.4742 l -0.384102,0.98633599 -0.384102,-0.98633599 h -0.471829 V 0 h 0.336682 V -1.13808 L -2.1313438,0 h 0.147002 l 0.445748,-1.13808 z" style="font-weight:bold;font-size:2.371px;font-family:'Proxima Nova';dominant-baseline:alphabetic;text-anchor:middle;fill:#0044cc" id="path518"/>
        <path d="m -0.88545733,-0.63068601 c 0,0.388844 0.225245,0.65913801 0.70892901,0.65913801 0.47894201,0 0.70418702,-0.26792301 0.70418702,-0.66150901 V -1.581457 H 0.18623469 v 0.93891599 c 0,0.220503 -0.120921,0.372247 -0.36276301,0.372247 -0.246584,0 -0.367505,-0.151744 -0.367505,-0.372247 V -1.581457 h -0.34142401 z" style="font-weight:bold;font-size:2.371px;font-family:'Proxima Nova';dominant-baseline:alphabetic;text-anchor:middle;fill:#0044cc" id="path520"/>
        <path d="M 0.84185333,0 H 1.8471573 V -0.29637501 H 1.1785353 V -1.581457 H 0.84185333 Z" style="font-weight:bold;font-size:2.371px;font-family:'Proxima Nova';dominant-baseline:alphabetic;text-anchor:middle;fill:#0044cc" id="path522"/>
        <path d="M 2.211884,0 H 2.550937 V -1.285082 H 3.010911 V -1.581457 H 1.749539 v 0.296375 h 0.462345 z" style="font-weight:bold;font-size:2.371px;font-family:'Proxima Nova';dominant-baseline:alphabetic;text-anchor:middle;fill:#0044cc" id="path524"/>
      </g>
    </g>
    <g transform="translate(30.480,49.650)" id="g82">
      <g id="text80" style="font-weight:bold;font-size:3.048px;font-family:'Proxima Nova';dominant-baseline:alphabetic;text-anchor:middle;fill:#0044cc"/>
    </g>
    <rect x="47.051" y="50.470" width="10.400" height="12.980" fill="#0044cc" stroke="#0044cc" stroke-width="0.350" rx="1.000" ry="1.000" id="rect84"/>
    <g transform="translate(52.251,53.050)" id="g88">
      <g aria-label="OUT" id="text86" style="font-weight:bold;font-size:2.371px;font-family:'Proxima Nova';dominant-baseline:alphabetic;text-anchor:middle;fill:#faf7f0">
        <path d="m -2.3806878,-0.78954302 c 0,0.47657101 0.348537,0.81799502 0.825108,0.81799502 0.478942,0 0.82747903,-0.34142401 0.82747903,-0.81799502 0,-0.47657098 -0.34853703,-0.81799498 -0.82747903,-0.81799498 -0.476571,0 -0.825108,0.341424 -0.825108,0.81799498 z m 1.306421,0 c 0,0.29400401 -0.18968,0.51924901 -0.481313,0.51924901 -0.291633,0 -0.478942,-0.225245 -0.478942,-0.51924901 0,-0.29637498 0.187309,-0.51924898 0.478942,-0.51924898 0.291633,0 0.481313,0.222874 0.481313,0.51924898 z" style="font-weight:bold;font-size:2.371px;font-family:'Proxima Nova';dominant-baseline:alphabetic;text-anchor:middle;fill:#faf7f0" id="path528"/>
        <path d="m -0.48951892,-0.63068601 c 0,0.388844 0.22524501,0.65913801 0.70892902,0.65913801 0.47894201,0 0.70418701,-0.26792301 0.70418701,-0.66150901 V -1.581457 H 0.5821731 v 0.93891599 c 0,0.220503 -0.120921,0.372247 -0.362763,0.372247 -0.24658401,0 -0.36750501,-0.151744 -0.36750501,-0.372247 V -1.581457 h -0.34142401 z" style="font-weight:bold;font-size:2.371px;font-family:'Proxima Nova';dominant-baseline:alphabetic;text-anchor:middle;fill:#faf7f0" id="path530"/>
        <path d="m 1.6029255,0 h 0.339053 v -1.285082 h 0.459974 v -0.296375 h -1.261372 v 0.296375 h 0.462345 z" style="font-weight:bold;font-size:2.371px;font-family:'Proxima Nova';dominant-baseline:alphabetic;text-anchor:middle;fill:#faf7f0" id="path532"/>
      </g>
    </g>
    <line x1="8.709" y1="74.000" x2="52.251" y2="74.000" stroke="#0044cc" stroke-width="0.350" id="line90"/>
    <rect x="3.509" y="67.470" width="10.400" height="12.980" fill="#faf7f0" stroke="#0044cc" stroke-width="0.350" rx="1.000" ry="1.000" id="rect92"/>
    <g transform="translate(8.709,70.050)" id="g96">
      <g aria-label="IN" id="text94" style="font-weight:bold;font-size:2.371px;font-family:'Proxima Nova';dominant-baseline:alphabetic;text-anchor:middle;fill:#0044cc">
        <path d="m -1.0313295,0 h 0.33668206 V -1.581457 H -1.0313295 Z" style="font-weight:bold;font-size:2.371px;font-family:'Proxima Nova';dominant-baseline:alphabetic;text-anchor:middle;fill:#0044cc" id="path535"/>
        <path d="M 0.70765089,0 H 1.0324779 V -1.581457 H 0.69579589 v 1.02427199 L -0.03684313,-1.581457 h -0.346166 V 0 h 0.336682 v -1.062208 z" style="font-weight:bold;font-size:2.371px;font-family:'Proxima Nova';dominant-baseline:alphabetic;text-anchor:middle;fill:#0044cc" id="path537"/>
      </g>
    </g>
    <g transform="translate(19.594,78.000)" id="g100">
      <g aria-label="ADD" id="text98" style="font-weight:bold;font-size:2.371px;font-family:'Proxima Nova';dominant-baseline:hanging;text-anchor:middle;fill:#0044cc">
        <path d="m -1.2508137,1.609472 h 0.36750504 L -1.4926557,0.02801494 h -0.422038 L -2.5264117,1.609472 h 0.369876 l 0.099582,-0.272665 h 0.706558 z m -0.452861,-1.28982405 0.26081,0.72552605 h -0.523991 z" style="font-weight:bold;font-size:2.371px;font-family:'Proxima Nova';dominant-baseline:hanging;text-anchor:middle;fill:#0044cc" id="path540"/>
        <path d="m -0.73726984,1.609472 h 0.62357301 c 0.49553902,0 0.83933402,-0.312972 0.83933402,-0.78954304 0,-0.47657101 -0.343795,-0.79191402 -0.83933402,-0.79191402 H -0.73726984 Z M -0.40058783,1.313097 V 0.32438995 h 0.286891 c 0.32482701,0 0.49553902,0.215761 0.49553902,0.49553901 0,0.26792304 -0.18256701,0.49316804 -0.49553902,0.49316804 z" style="font-weight:bold;font-size:2.371px;font-family:'Proxima Nova';dominant-baseline:hanging;text-anchor:middle;fill:#0044cc" id="path542"/>
        <path d="M 0.96688644,1.609472 H 1.5904595 c 0.495539,0 0.839334,-0.312972 0.839334,-0.78954304 0,-0.47657101 -0.343795,-0.79191402 -0.839334,-0.79191402 H 0.96688644 Z M 1.3035684,1.313097 V 0.32438995 h 0.2868911 c 0.324827,0 0.495539,0.215761 0.495539,0.49553901 0,0.26792304 -0.182567,0.49316804 -0.495539,0.49316804 z" style="font-weight:bold;font-size:2.371px;font-family:'Proxima Nova';dominant-baseline:hanging;text-anchor:middle;fill:#0044cc" id="path544"/>
      </g>
    </g>
    <g transform="translate(19.594,70.000)" id="g104">
      <g aria-label="MULT" id="text102" style="font-weight:bold;font-size:2.371px;font-family:'Proxima Nova';dominant-baseline:alphabetic;text-anchor:middle;fill:#0044cc">
        <path d="m -1.5385938,0 h 0.339053 v -1.581457 h -0.4742 l -0.384102,0.98633599 -0.384102,-0.98633599 h -0.471829 V 0 h 0.336682 V -1.13808 L -2.1313438,0 h 0.147002 l 0.445748,-1.13808 z" style="font-weight:bold;font-size:2.371px;font-family:'Proxima Nova';dominant-baseline:alphabetic;text-anchor:middle;fill:#0044cc" id="path547"/>
        <path d="m -0.88545733,-0.63068601 c 0,0.388844 0.225245,0.65913801 0.70892901,0.65913801 0.47894201,0 0.70418702,-0.26792301 0.70418702,-0.66150901 V -1.581457 H 0.18623469 v 0.93891599 c 0,0.220503 -0.120921,0.372247 -0.36276301,0.372247 -0.246584,0 -0.367505,-0.151744 -0.367505,-0.372247 V -1.581457 h -0.34142401 z" style="font-weight:bold;font-size:2.371px;font-family:'Proxima Nova';dominant-baseline:alphabetic;text-anchor:middle;fill:#0044cc" id="path549"/>
        <path d="M 0.84185333,0 H 1.8471573 V -0.29637501 H 1.1785353 V -1.581457 H 0.84185333 Z" style="font-weight:bold;font-size:2.371px;font-family:'Proxima Nova';dominant-baseline:alphabetic;text-anchor:middle;fill:#0044cc" id="path551"/>
        <path d="M 2.211884,0 H 2.550937 V -1.285082 H 3.010911 V -1.581457 H 1.749539 v 0.296375 h 0.462345 z" style="font-weight:bold;font-size:2.371px;font-family:'Proxima Nova';dominant-baseline:alphabetic;text-anchor:middle;fill:#0044cc" id="path553"/>
      </g>
    </g>
    <g transform="translate(30.480,66.650)" id="g108">
      <g id="text106" style="font-weight:bold;font-size:3.048px;font-family:'Proxima Nova';dominant-baseline:alphabetic;text-anchor:middle;fill:#0044cc"/>
    </g>
    <rect x="47.051" y="67.470" width="10.400" height="12.980" fill="#0044cc" stroke="#0044cc" stroke-width="0.350" rx="1.000" ry="1.000" id="rect110"/>
    <g transform="translate(52.251,70.050)" id="g114">
      <g aria-label="OUT" id="text112" style="font-weight:bold;font-size:2.371px;font-family:'Proxima Nova';dominant-baseline:alphabetic;text-anchor:middle;fill:#faf7f0">
        <path d="m -2.3806878,-0.78954302 c 0,0.47657101 0.348537,0.81799502 0.825108,0.81799502 0.478942,0 0.82747903,-0.34142401 0.82747903,-0.81799502 0,-0.47657098 -0.34853703,-0.81799498 -0.82747903,-0.81799498 -0.476571,0 -0.825108,0.341424 -0.825108,0.81799498 z m 1.306421,0 c 0,0.29400401 -0.18968,0.51924901 -0.481313,0.51924901 -0.291633,0 -0.478942,-0.225245 -0.478942,-0.51924901 0,-0.29637498 0.187309,-0.51924898 0.478942,-0.51924898 0.291633,0 0.481313,0.222874 0.481313,0.51924898 z" style="font-weight:bold;font-size:2.371px;font-family:'Proxima Nova';dominant-baseline:alphabetic;text-anchor:middle;fill:#faf7f0" id="path557"/>
        <path d="m -0.48951892,-0.63068601 c 0,0.388844 0.22524501,0.65913801 0.70892902,0.65913801 0.47894201,0 0.70418701,-0.26792301 0.70418701,-0.66150901 V -1.581457 H 0.5821731 v 0.93891599 c 0,0.220503 -0.120921,0.372247 -0.362763,0.372247 -0.24658401,0 -0.36750501,-0.151744 -0.36750501,-0.372247 V -1.581457 h -0.34142401 z" style="font-weight:bold;font-size:2.371px;font-family:'Proxima Nova';dominant-baseline:alphabetic;text-anchor:middle;fill:#faf7f0" id="path559"/>
        <path d="m 1.6029255,0 h 0.339053 v -1.285082 h 0.459974 v -0.296375 h -1.261372 v 0.296375 h 0.462345 z" style="font-weight:bold;font-size:2.371px;font-family:'Proxima Nova';dominant-baseline:alphabetic;text-anchor:middle;fill:#faf7f0" id="path561"/>
      </g>
    </g>
    <line x1="8.709" y1="91.000" x2="52.251" y2="91.000" stroke="#0044cc" stroke-width="0.350" id="line116"/>
    <rect x="3.509" y="84.470" width="10.400" height="12.980" fill="#faf7f0" stroke="#0044cc" stroke-width="0.350" rx="1.000" ry="1.000" id="rect118"/>
    <g transform="translate(8.709,87.050)" id="g122">
      <g aria-label="IN" id="text120" style="font-weight:bold;font-size:2.371px;font-family:'Proxima Nova';dominant-baseline:alphabetic;text-anchor:middle;fill:#0044cc">
        <path d="m -1.0313295,0 h 0.33668206 V -1.581457 H -1.0313295 Z" style="font-weight:bold;font-size:2.371px;font-family:'Proxima Nova';dominant-baseline:alphabetic;text-anchor:middle;fill:#0044cc" id="path564"/>
        <path d="M 0.70765089,0 H 1.0324779 V -1.581457 H 0.69579589 v 1.02427199 L -0.03684313,-1.581457 h -0.346166 V 0 h 0.336682 v -1.062208 z" style="font-weight:bold;font-size:2.371px;font-family:'Proxima Nova';dominant-baseline:alphabetic;text-anchor:middle;fill:#0044cc" id="path566"/>
      </g>
    </g>
    <g transform="translate(19.594,95.000)" id="g126">
      <g aria-label="ADD" id="text124" style="font-weight:bold;font-size:2.371px;font-family:'Proxima Nova';dominant-baseline:hanging;text-anchor:middle;fill:#0044cc">
        <path d="m -1.2508137,1.609472 h 0.36750504 L -1.4926557,0.02801494 h -0.422038 L -2.5264117,1.609472 h 0.369876 l 0.099582,-0.272665 h 0.706558 z m -0.452861,-1.28982405 0.26081,0.72552605 h -0.523991 z" style="font-weight:bold;font-size:2.371px;font-family:'Proxima Nova';dominant-baseline:hanging;text-anchor:middle;fill:#0044cc" id="path569"/>
        <path d="m -0.73726984,1.609472 h 0.62357301 c 0.49553902,0 0.83933402,-0.312972 0.83933402,-0.78954304 0,-0.47657101 -0.343795,-0.79191402 -0.83933402,-0.79191402 H -0.73726984 Z M -0.40058783,1.313097 V 0.32438995 h 0.286891 c 0.32482701,0 0.49553902,0.215761 0.49553902,0.49553901 0,0.26792304 -0.18256701,0.49316804 -0.49553902,0.49316804 z" style="font-weight:bold;font-size:2.371px;font-family:'Proxima Nova';dominant-baseline:hanging;text-anchor:middle;fill:#0044cc" id="path571"/>
        <path d="M 0.96688644,1.609472 H 1.5904595 c 0.495539,0 0.839334,-0.312972 0.839334,-0.78954304 0,-0.47657101 -0.343795,-0.79191402 -0.839334,-0.79191402 H 0.96688644 Z M 1.3035684,1.313097 V 0.32438995 h 0.2868911 c 0.324827,0 0.495539,0.215761 0.495539,0.49553901 0,0.26792304 -0.182567,0.49316804 -0.495539,0.49316804 z" style="font-weight:bold;font-size:2.371px;font-family:'Proxima Nova';dominant-baseline:hanging;text-anchor:middle;fill:#0044cc" id="path573"/>
      </g>
    </g>
    <g transform="translate(19.594,87.000)" id="g130">
      <g aria-label="MULT" id="text128" style="font-weight:bold;font-size:2.371px;font-family:'Proxima Nova';dominant-baseline:alphabetic;text-anchor:middle;fill:#0044cc">
        <path d="m -1.5385938,0 h 0.339053 v -1.581457 h -0.4742 l -0.384102,0.98633599 -0.384102,-0.98633599 h -0.471829 V 0 h 0.336682 V -1.13808 L -2.1313438,0 h 0.147002 l 0.445748,-1.13808 z" style="font-weight:bold;font-size:2.371px;font-family:'Proxima Nova';dominant-baseline:alphabetic;text-anchor:middle;fill:#0044cc" id="path576"/>
        <path d="m -0.88545733,-0.63068601 c 0,0.388844 0.225245,0.65913801 0.70892901,0.65913801 0.47894201,0 0.70418702,-0.26792301 0.70418702,-0.66150901 V -1.581457 H 0.18623469 v 0.93891599 c 0,0.220503 -0.120921,0.372247 -0.36276301,0.372247 -0.246584,0 -0.367505,-0.151744 -0.367505,-0.372247 V -1.581457 h -0.34142401 z" style="font-weight:bold;font-size:2.371px;font-family:'Proxima Nova';dominant-baseline:alphabetic;text-anchor:middle;fill:#0044cc" id="path578"/>
        <path d="M 0.84185333,0 H 1.8471573 V -0.29637501 H 1.1785353 V -1.581457 H 0.84185333 Z" style="font-weight:bold;font-size:2.371px;font-family:'Proxima Nova';dominant-baseline:alphabetic;text-anchor:middle;fill:#0044cc" id="path580"/>
        <path d="M 2.211884,0 H 2.550937 V -1.285082 H 3.010911 V -1.581457 H 1.749539 v 0.296375 h 0.462345 z" style="font-weight:bold;font-size:2.371px;font-family:'Proxima Nova';dominant-baseline:alphabetic;text-anchor:middle;fill:#0044cc" id="path582"/>
      </g>
    </g>
    <g transform="translate(30.480,83.650)" id="g134">
      <g id="text132" style="font-weight:bold;font-size:3.048px;font-family:'Proxima Nova';dominant-baseline:alphabetic;text-anchor:middle;fill:#0044cc"/>
    </g>
    <rect x="47.051" y="84.470" width="10.400" height="12.980" fill="#0044cc" stroke="#0044cc" stroke-width="0.350" rx="1.000" ry="1.000" id="rect136"/>
    <g transform="translate(52.251,87.050)" id="g140">
      <g aria-label="OUT" id="text138" style="font-weight:bold;font-size:2.371px;font-family:'Proxima Nova';dominant-baseline:alphabetic;text-anchor:middle;fill:#faf7f0">
        <path d="m -2.3806878,-0.78954302 c 0,0.47657101 0.348537,0.81799502 0.825108,0.81799502 0.478942,0 0.82747903,-0.34142401 0.82747903,-0.81799502 0,-0.47657098 -0.34853703,-0.81799498 -0.82747903,-0.81799498 -0.476571,0 -0.825108,0.341424 -0.825108,0.81799498 z m 1.306421,0 c 0,0.29400401 -0.18968,0.51924901 -0.481313,0.51924901 -0.291633,0 -0.478942,-0.225245 -0.478942,-0.51924901 0,-0.29637498 0.187309,-0.51924898 0.478942,-0.51924898 0.291633,0 0.481313,0.222874 0.481313,0.51924898 z" style="font-weight:bold;font-size:2.371px;font-family:'Proxima Nova';dominant-baseline:alphabetic;text-anchor:middle;fill:#faf7f0" id="path586"/>
        <path d="m -0.48951892,-0.63068601 c 0,0.388844 0.22524501,0.65913801 0.70892902,0.65913801 0.47894201,0 0.70418701,-0.26792301 0.70418701,-0.66150901 V -1.581457 H 0.5821731 v 0.93891599 c 0,0.220503 -0.120921,0.372247 -0.362763,0.372247 -0.24658401,0 -0.36750501,-0.151744 -0.36750501,-0.372247 V -1.581457 h -0.34142401 z" style="font-weight:bold;font-size:2.371px;font-family:'Proxima Nova';dominant-baseline:alphabetic;text-anchor:middle;fill:#faf7f0" id="path588"/>
        <path d="m 1.6029255,0 h 0.339053 v -1.285082 h 0.459974 v -0.296375 h -1.261372 v 0.296375 h 0.462345 z" style="font-weight:bold;font-size:2.371px;font-family:'Proxima Nova';dominant-baseline:alphabetic;text-anchor:middle;fill:#faf7f0" id="path590"/>
      </g>
    </g>
    <line x1="8.709" y1="108.000" x2="52.251" y2="108.000" stroke="#0044cc" stroke-width="0.350" id="line142"/>
    <rect x="3.509" y="101.470" width="10.400" height="12.980" fill="#faf7f0" stroke="#0044cc" stroke-width="0.350" rx="1.000" ry="1.000" id="rect144"/>
    <g transform="translate(8.709,104.050)" id="g148">
      <g aria-label="IN" id="text146" style="font-weight:bold;font-size:2.371px;font-family:'Proxima Nova';dominant-baseline:alphabetic;text-anchor:middle;fill:#0044cc">
        <path d="m -1.0313295,0 h 0.33668206 V -1.581457 H -1.0313295 Z" style="font-weight:bold;font-size:2.371px;font-family:'Proxima Nova';dominant-baseline:alphabetic;text-anchor:middle;fill:#0044cc" id="path593"/>
        <path d="M 0.70765089,0 H 1.0324779 V -1.581457 H 0.69579589 v 1.02427199 L -0.03684313,-1.581457 h -0.346166 V 0 h 0.336682 v -1.062208 z" style="font-weight:bold;font-size:2.371px;font-family:'Proxima Nova';dominant-baseline:alphabetic;text-anchor:middle;fill:#0044cc" id="path595"/>
      </g>
    </g>
    <g transform="translate(19.594,112.000)" id="g152">
      <g aria-label="ADD" id="text150" style="font-weight:bold;font-size:2.371px;font-family:'Proxima Nova';dominant-baseline:hanging;text-anchor:middle;fill:#0044cc">
        <path d="m -1.2508137,1.609472 h 0.36750504 L -1.4926557,0.02801494 h -0.422038 L -2.5264117,1.609472 h 0.369876 l 0.099582,-0.272665 h 0.706558 z m -0.452861,-1.28982405 0.26081,0.72552605 h -0.523991 z" style="font-weight:bold;font-size:2.371px;font-family:'Proxima Nova';dominant-baseline:hanging;text-anchor:middle;fill:#0044cc" id="path598"/>
        <path d="m -0.73726984,1.609472 h 0.62357301 c 0.49553902,0 0.83933402,-0.312972 0.83933402,-0.78954304 0,-0.47657101 -0.343795,-0.79191402 -0.83933402,-0.79191402 H -0.73726984 Z M -0.40058783,1.313097 V 0.32438995 h 0.286891 c 0.32482701,0 0.49553902,0.215761 0.49553902,0.49553901 0,0.26792304 -0.18256701,0.49316804 -0.49553902,0.49316804 z" style="font-weight:bold;font-size:2.371px;font-family:'Proxima Nova';dominant-baseline:hanging;text-anchor:middle;fill:#0044cc" id="path600"/>
        <path d="M 0.96688644,1.609472 H 1.5904595 c 0.495539,0 0.839334,-0.312972 0.839334,-0.78954304 0,-0.47657101 -0.343795,-0.79191402 -0.839334,-0.79191402 H 0.96688644 Z M 1.3035684,1.313097 V 0.32438995 h 0.2868911 c 0.324827,0 0.495539,0.215761 0.495539,0.49553901 0,0.26792304 -0.182567,0.49316804 -0.495539,0.49316804 z" style="font-weight:bold;font-size:2.371px;font-family:'Proxima Nova';dominant-baseline:hanging;text-anchor:middle;fill:#0044cc" id="path602"/>
      </g>
    </g>
    <g transform="translate(19.594,104.000)" id="g156">
      <g aria-label="MULT" id="text154" style="font-weight:bold;font-size:2.371px;font-family:'Proxima Nova';dominant-baseline:alphabetic;text-anchor:middle;fill:#0044cc">
        <path d="m -1.5385938,0 h 0.339053 v -1.581457 h -0.4742 l -0.384102,0.98633599 -0.384102,-0.98633599 h -0.471829 V 0 h 0.336682 V -1.13808 L -2.1313438,0 h 0.147002 l 0.445748,-1.13808 z" style="font-weight:bold;font-size:2.371px;font-family:'Proxima Nova';dominant-baseline:alphabetic;text-anchor:middle;fill:#0044cc" id="path605"/>
        <path d="m -0.88545733,-0.63068601 c 0,0.388844 0.225245,0.65913801 0.70892901,0.65913801 0.47894201,0 0.70418702,-0.26792301 0.70418702,-0.66150901 V -1.581457 H 0.18623469 v 0.93891599 c 0,0.220503 -0.120921,0.372247 -0.36276301,0.372247 -0.246584,0 -0.367505,-0.151744 -0.367505,-0.372247 V -1.581457 h -0.34142401 z" style="font-weight:bold;font-size:2.371px;font-family:'Proxima Nova';dominant-baseline:alphabetic;text-anchor:middle;fill:#0044cc" id="path607"/>
        <path d="M 0.84185333,0 H 1.8471573 V -0.29637501 H 1.1785353 V -1.581457 H 0.84185333 Z" style="font-weight:bold;font-size:2.371px;font-family:'Proxima Nova';dominant-baseline:alphabetic;text-anchor:middle;fill:#0044cc" id="path609"/>
        <path d="M 2.211884,0 H 2.550937 V -1.285082 H 3.010911 V -1.581457 H 1.749539 v 0.296375 h 0.462345 z" style="font-weight:bold;font-size:2.371px;font-family:'Proxima Nova';dominant-baseline:alphabetic;text-anchor:middle;fill:#0044cc" id="path611"/>
      </g>
    </g>
    <g transform="translate(30.480,100.650)" id="g160">
      <g id="text158" style="font-weight:bold;font-size:3.048px;font-family:'Proxima Nova';dominant-baseline:alphabetic;text-anchor:middle;fill:#0044cc"/>
    </g>
    <rect x="47.051" y="101.470" width="10.400" height="12.980" fill="#0044cc" stroke="#0044cc" stroke-width="0.350" rx="1.000" ry="1.000" id="rect162"/>
    <g transform="translate(52.251,104.050)" id="g166">
      <g aria-label="OUT" id="text164" style="font-weight:bold;font-size:2.371px;font-family:'Proxima Nova';dominant-baseline:alphabetic;text-anchor:middle;fill:#faf7f0">
        <path d="m -2.3806878,-0.78954302 c 0,0.47657101 0.348537,0.81799502 0.825108,0.81799502 0.478942,0 0.82747903,-0.34142401 0.82747903,-0.81799502 0,-0.47657098 -0.34853703,-0.81799498 -0.82747903,-0.81799498 -0.476571,0 -0.825108,0.341424 -0.825108,0.81799498 z m 1.306421,0 c 0,0.29400401 -0.18968,0.51924901 -0.481313,0.51924901 -0.291633,0 -0.478942,-0.225245 -0.478942,-0.51924901 0,-0.29637498 0.187309,-0.51924898 0.478942,-0.51924898 0.291633,0 0.481313,0.222874 0.481313,0.51924898 z" style="font-weight:bold;font-size:2.371px;font-family:'Proxima Nova';dominant-baseline:alphabetic;text-anchor:middle;fill:#faf7f0" id="path615"/>
        <path d="m -0.48951892,-0.63068601 c 0,0.388844 0.22524501,0.65913801 0.70892902,0.65913801 0.47894201,0 0.70418701,-0.26792301 0.70418701,-0.66150901 V -1.581457 H 0.5821731 v 0.93891599 c 0,0.220503 -0.120921,0.372247 -0.362763,0.372247 -0.24658401,0 -0.36750501,-0.151744 -0.36750501,-0.372247 V -1.581457 h -0.34142401 z" style="font-weight:bold;font-size:2.371px;font-family:'Proxima Nova';dominant-baseline:alphabetic;text-anchor:middle;fill:#faf7f0" id="path617"/>
        <path d="m 1.6029255,0 h 0.339053 v -1.285082 h 0.459974 v -0.296375 h -1.261372 v 0.296375 h 0.462345 z" style="font-weight:bold;font-size:2.371px;font-family:'Proxima Nova';dominant-baseline:alphabetic;text-anchor:middle;fill:#faf7f0" id="path619"/>
      </g>
    </g>
  </g>
  <g id="overlay">
    <g transform="translate(8.709,24.250)" id="g175">
      <circle cx="0" cy="0" r="4.200" fill="#0044cc" stroke="none" stroke-width="0" id="circle169"/>
      <circle cx="0" cy="0" r="3.500" fill="none" stroke="#faf7f0" stroke-width="0.950" id="circle171"/>
      <circle cx="0" cy="0" r="2.325" fill="none" stroke="#faf7f0" stroke-width="0.950" id="circle173"/>
    </g>
    <g transform="translate(19.594,23.000)" id="g189">
      <rect x="-1.312" y="-2.812" width="2.625" height="5.625" fill="#faf7f0" stroke="#0044cc" stroke-width="0.375" rx="0.188" ry="0.188" id="rect177"/>
      <line x1="-0.812" y1="0.250" x2="0.812" y2="0.250" stroke="#0044cc" stroke-width="0.250" stroke-linecap="round" id="line179"/>
      <line x1="-0.812" y1="0.750" x2="0.812" y2="0.750" stroke="#0044cc" stroke-width="0.250" stroke-linecap="round" id="line181"/>
      <line x1="-0.812" y1="1.250" x2="0.812" y2="1.250" stroke="#0044cc" stroke-width="0.250" stroke-linecap="round" id="line183"/>
      <line x1="-0.812" y1="1.750" x2="0.812" y2="1.750" stroke="#0044cc" stroke-width="0.250" stroke-linecap="round" id="line185"/>
      <line x1="-0.812" y1="2.250" x2="0.812" y2="2.250" stroke="#0044cc" stroke-width="0.250" stroke-linecap="round" id="line187"/>
    </g>
    <g transform="translate(30.480,23.000)" id="g195">
      <circle cx="0" cy="0" r="6.350" fill="#0044cc" stroke="none" stroke-width="0" id="circle191"/>
      <line x1="0" y1="0" x2="0" y2="-5.556" stroke="#faf7f0" stroke-width="0.794" stroke-linecap="round" id="line193"/>
    </g>
    <g transform="translate(41.866,23.000)" id="g201">
      <rect x="-3.500" y="-1.790" width="7.000" height="3.580" fill="#faf7f0" stroke="#0044cc" stroke-width="0.250" rx="0.500" ry="0.500" id="rect197"/>
      <g aria-label="±5" id="text199" style="font-weight:bold;font-size:2.371px;font-family:'Proxima Nova';dominant-baseline:middle;text-anchor:middle;fill:#0044cc">
        <path d="m -0.61566351,0.08365048 h 0.42440901 v -0.184938 h -0.42440901 v -0.46708701 h -0.206277 v 0.46708701 H -1.2487205 v 0.184938 h 0.42677999 v 0.48368401 h 0.206277 z M -1.2487205,0.8565965 h 1.057466 v -0.184938 h -1.057466 z" style="font-weight:bold;font-size:2.371px;font-family:'Proxima Nova';dominant-baseline:middle;text-anchor:middle;fill:#0044cc" id="path622"/>
        <path d="m -0.00653877,0.6479485 c 0.13514701,0.147002 0.33431101,0.2371 0.60934702,0.2371 0.38173101,0 0.63305705,-0.211019 0.63305705,-0.54533001 0,-0.32008501 -0.23947104,-0.50976501 -0.50739405,-0.50976501 -0.144631,0 -0.27266501,0.056904 -0.35565001,0.130405 V -0.43559853 H 1.1291703 v -0.289262 H 0.04325224 v 0.90335101 l 0.234729,0.064017 c 0.09484,-0.090098 0.20153501,-0.13040501 0.33194001,-0.13040501 0.180196,0 0.28452,0.097211 0.28452,0.24184201 0,0.130405 -0.106695,0.2371 -0.294004,0.2371 -0.16597001,0 -0.31297201,-0.059275 -0.42203801,-0.170712 z" style="font-weight:bold;font-size:2.371px;font-family:'Proxima Nova';dominant-baseline:middle;text-anchor:middle;fill:#0044cc" id="path624"/>
      </g>
    </g>
    <g transform="translate(52.251,24.250)" id="g209">
      <circle cx="0" cy="0" r="4.200" fill="#0044cc" stroke="none" stroke-width="0" id="circle203"/>
      <circle cx="0" cy="0" r="3.500" fill="none" stroke="#faf7f0" stroke-width="0.950" id="circle205"/>
      <circle cx="0" cy="0" r="2.325" fill="none" stroke="#faf7f0" stroke-width="0.950" id="circle207"/>
    </g>
    <g transform="translate(8.709,41.250)" id="g217">
      <circle cx="0" cy="0" r="4.200" fill="#0044cc" stroke="none" stroke-width="0" id="circle211"/>
      <circle cx="0" cy="0" r="3.500" fill="none" stroke="#faf7f0" stroke-width="0.950" id="circle213"/>
      <circle cx="0" cy="0" r="2.325" fill="none" stroke="#faf7f0" stroke-width="0.950" id="circle215"/>
    </g>
    <g transform="translate(19.594,40.000)" id="g231">
      <rect x="-1.312" y="-2.812" width="2.625" height="5.625" fill="#faf7f0" stroke="#0044cc" stroke-width="0.375" rx="0.188" ry="0.188" id="rect219"/>
      <line x1="-0.812" y1="0.250" x2="0.812" y2="0.250" stroke="#0044cc" stroke-width="0.250" stroke-linecap="round" id="line221"/>
      <line x1="-0.812" y1="0.750" x2="0.812" y2="0.750" stroke="#0044cc" stroke-width="0.250" stroke-linecap="round" id="line223"/>
      <line x1="-0.812" y1="1.250" x2="0.812" y2="1.250" stroke="#0044cc" stroke-width="0.250" stroke-linecap="round" id="line225"/>
      <line x1="-0.812" y1="1.750" x2="0.812" y2="1.750" stroke="#0044cc" stroke-width="0.250" stroke-linecap="round" id="line227"/>
      <line x1="-0.812" y1="2.250" x2="0.812" y2="2.250" stroke="#0044cc" stroke-width="0.250" stroke-linecap="round" id="line229"/>
    </g>
    <g transform="translate(30.480,40.000)" id="g237">
      <circle cx="0" cy="0" r="6.350" fill="#0044cc" stroke="none" stroke-width="0" id="circle233"/>
      <line x1="0" y1="0" x2="0" y2="-5.556" stroke="#faf7f0" stroke-width="0.794" stroke-linecap="round" id="line235"/>
    </g>
    <g transform="translate(41.866,40.000)" id="g243">
      <rect x="-3.500" y="-1.790" width="7.000" height="3.580" fill="#faf7f0" stroke="#0044cc" stroke-width="0.250" rx="0.500" ry="0.500" id="rect239"/>
      <g aria-label="±5" id="text241" style="font-weight:bold;font-size:2.371px;font-family:'Proxima Nova';dominant-baseline:middle;text-anchor:middle;fill:#0044cc">
        <path d="m -0.61566351,0.08365048 h 0.42440901 v -0.184938 h -0.42440901 v -0.46708701 h -0.206277 v 0.46708701 H -1.2487205 v 0.184938 h 0.42677999 v 0.48368401 h 0.206277 z M -1.2487205,0.8565965 h 1.057466 v -0.184938 h -1.057466 z" style="font-weight:bold;font-size:2.371px;font-family:'Proxima Nova';dominant-baseline:middle;text-anchor:middle;fill:#0044cc" id="path627"/>
        <path d="m -0.00653877,0.6479485 c 0.13514701,0.147002 0.33431101,0.2371 0.60934702,0.2371 0.38173101,0 0.63305705,-0.211019 0.63305705,-0.54533001 0,-0.32008501 -0.23947104,-0.50976501 -0.50739405,-0.50976501 -0.144631,0 -0.27266501,0.056904 -0.35565001,0.130405 V -0.43559853 H 1.1291703 v -0.289262 H 0.04325224 v 0.90335101 l 0.234729,0.064017 c 0.09484,-0.090098 0.20153501,-0.13040501 0.33194001,-0.13040501 0.180196,0 0.28452,0.097211 0.28452,0.24184201 0,0.130405 -0.106695,0.2371 -0.294004,0.2371 -0.16597001,0 -0.31297201,-0.059275 -0.42203801,-0.170712 z" style="font-weight:bold;font-size:2.371px;font-family:'Proxima Nova';dominant-baseline:middle;text-anchor:middle;fill:#0044cc" id="path629"/>
      </g>
    </g>
    <g transform="translate(52.251,41.250)" id="g251">
      <circle cx="0" cy="0" r="4.200" fill="#0044cc" stroke="none" stroke-width="0" id="circle245"/>
      <circle cx="0" cy="0" r="3.500" fill="none" stroke="#faf7f0" stroke-width="0.950" id="circle247"/>
      <circle cx="0" cy="0" r="2.325" fill="none" stroke="#faf7f0" stroke-width="0.950" id="circle249"/>
    </g>
    <g transform="translate(8.709,58.250)" id="g259">
      <circle cx="0" cy="0" r="4.200" fill="#0044cc" stroke="none" stroke-width="0" id="circle253"/>
      <circle cx="0" cy="0" r="3.500" fill="none" stroke="#faf7f0" stroke-width="0.950" id="circle255"/>
      <circle cx="0" cy="0" r="2.325" fill="none" stroke="#faf7f0" stroke-width="0.950" id="circle257"/>
    </g>
    <g transform="translate(19.594,57.000)" id="g273">
      <rect x="-1.312" y="-2.812" width="2.625" height="5.625" fill="#faf7f0" stroke="#0044cc" stroke-width="0.375" rx="0.188" ry="0.188" id="rect261"/>
      <line x1="-0.812" y1="0.250" x2="0.812" y2="0.250" stroke="#0044cc" stroke-width="0.250" stroke-linecap="round" id="line263"/>
      <line x1="-0.812" y1="0.750" x2="0.812" y2="0.750" stroke="#0044cc" stroke-width="0.250" stroke-linecap="round" id="line265"/>
      <line x1="-0.812" y1="1.250" x2="0.812" y2="1.250" stroke="#0044cc" stroke-width="0.250" stroke-linecap="round" id="line267"/>
      <line x1="-0.812" y1="1.750" x2="0.812" y2="1.750" stroke="#0044cc" stroke-width="0.250" stroke-linecap="round" id="line269"/>
      <line x1="-0.812" y1="2.250" x2="0.812" y2="2.250" stroke="#0044cc" stroke-width="0.250" stroke-linecap="round" id="line271"/>
    </g>
    <g transform="translate(30.480,57.000)" id="g279">
      <circle cx="0" cy="0" r="6.350" fill="#0044cc" stroke="none" stroke-width="0" id="circle275"/>
      <line x1="0" y1="0" x2="0" y2="-5.556" stroke="#faf7f0" stroke-width="0.794" stroke-linecap="round" id="line277"/>
    </g>
    <g transform="translate(41.866,57.000)" id="g285">
      <rect x="-3.500" y="-1.790" width="7.000" height="3.580" fill="#faf7f0" stroke="#0044cc" stroke-width="0.250" rx="0.500" ry="0.500" id="rect281"/>
      <g aria-label="±5" id="text283" style="font-weight:bold;font-size:2.371px;font-family:'Proxima Nova';dominant-baseline:middle;text-anchor:middle;fill:#0044cc">
        <path d="m -0.61566351,0.08365048 h 0.42440901 v -0.184938 h -0.42440901 v -0.46708701 h -0.206277 v 0.46708701 H -1.2487205 v 0.184938 h 0.42677999 v 0.48368401 h 0.206277 z M -1.2487205,0.8565965 h 1.057466 v -0.184938 h -1.057466 z" style="font-weight:bold;font-size:2.371px;font-family:'Proxima Nova';dominant-baseline:middle;text-anchor:middle;fill:#0044cc" id="path632"/>
        <path d="m -0.00653877,0.6479485 c 0.13514701,0.147002 0.33431101,0.2371 0.60934702,0.2371 0.38173101,0 0.63305705,-0.211019 0.63305705,-0.54533001 0,-0.32008501 -0.23947104,-0.50976501 -0.50739405,-0.50976501 -0.144631,0 -0.27266501,0.056904 -0.35565001,0.130405 V -0.43559853 H 1.1291703 v -0.289262 H 0.04325224 v 0.90335101 l 0.234729,0.064017 c 0.09484,-0.090098 0.20153501,-0.13040501 0.33194001,-0.13040501 0.180196,0 0.28452,0.097211 0.28452,0.24184201 0,0.130405 -0.106695,0.2371 -0.294004,0.2371 -0.16597001,0 -0.31297201,-0.059275 -0.42203801,-0.170712 z" style="font-weight:bold;font-size:2.371px;font-family:'Proxima Nova';dominant-baseline:middle;text-anchor:middle;fill:#0044cc" id="path634"/>
      </g>
    </g>
    <g transform="translate(52.251,58.250)" id="g293">
      <circle cx="0" cy="0" r="4.200" fill="#0044cc" stroke="none" stroke-width="0" id="circle287"/>
      <circle cx="0" cy="0" r="3.500" fill="none" stroke="#faf7f0" stroke-width="0.950" id="circle289"/>
      <circle cx="0" cy="0" r="2.325" fill="none" stroke="#faf7f0" stroke-width="0.950" id="circle291"/>
    </g>
    <g transform="translate(8.709,75.250)" id="g301">
      <circle cx="0" cy="0" r="4.200" fill="#0044cc" stroke="none" stroke-width="0" id="circle295"/>
      <circle cx="0" cy="0" r="3.500" fill="none" stroke="#faf7f0" stroke-width="0.950" id="circle297"/>
      <circle cx="0" cy="0" r="2.325" fill="none" stroke="#faf7f0" stroke-width="0.950" id="circle299"/>
    </g>
    <g transform="translate(19.594,74.000)" id="g315">
      <rect x="-1.312" y="-2.812" width="2.625" height="5.625" fill="#faf7f0" stroke="#0044cc" stroke-width="0.375" rx="0.188" ry="0.188" id="rect303"/>
      <line x1="-0.812" y1="0.250" x2="0.812" y2="0.250" stroke="#0044cc" stroke-width="0.250" stroke-linecap="round" id="line305"/>
      <line x1="-0.812" y1="0.750" x2="0.812" y2="0.750" stroke="#0044cc" stroke-width="0.250" stroke-linecap="round" id="line307"/>
      <line x1="-0.812" y1="1.250" x2="0.812" y2="1.250" stroke="#0044cc" stroke-width="0.250" stroke-linecap="round" id="line309"/>
      <line x1="-0.812" y1="1.750" x2="0.812" y2="1.750" stroke="#0044cc" stroke-width="0.250" stroke-linecap="round" id="line311"/>
      <line x1="-0.812" y1="2.250" x2="0.812" y2="2.250" stroke="#0044cc" stroke-width="0.250" stroke-linecap="round" id="line313"/>
    </g>
    <g transform="translate(30.480,74.000)" id="g321">
      <circle cx="0" cy="0" r="6.350" fill="#0044cc" stroke="none" stroke-width="0" id="circle317"/>
      <line x1="0" y1="0" x2="0" y2="-5.556" stroke="#faf7f0" stroke-width="0.794" stroke-linecap="round" id="line319"/>
    </g>
    <g transform="translate(41.866,74.000)" id="g327">
      <rect x="-3.500" y="-1.790" width="7.000" height="3.580" fill="#faf7f0" stroke="#0044cc" stroke-width="0.250" rx="0.500" ry="0.500" id="rect323"/>
      <g aria-label="±5" id="text325" style="font-weight:bold;font-size:2.371px;font-family:'Proxima Nova';dominant-baseline:middle;text-anchor:middle;fill:#0044cc">
        <path d="m -0.61566351,0.08365048 h 0.42440901 v -0.184938 h -0.42440901 v -0.46708701 h -0.206277 v 0.46708701 H -1.2487205 v 0.184938 h 0.42677999 v 0.48368401 h 0.206277 z M -1.2487205,0.8565965 h 1.057466 v -0.184938 h -1.057466 z" style="font-weight:bold;font-size:2.371px;font-family:'Proxima Nova';dominant-baseline:middle;text-anchor:middle;fill:#0044cc" id="path637"/>
        <path d="m -0.00653877,0.6479485 c 0.13514701,0.147002 0.33431101,0.2371 0.60934702,0.2371 0.38173101,0 0.63305705,-0.211019 0.63305705,-0.54533001 0,-0.32008501 -0.23947104,-0.50976501 -0.50739405,-0.50976501 -0.144631,0 -0.27266501,0.056904 -0.35565001,0.130405 V -0.43559853 H 1.1291703 v -0.289262 H 0.04325224 v 0.90335101 l 0.234729,0.064017 c 0.09484,-0.090098 0.20153501,-0.13040501 0.33194001,-0.13040501 0.180196,0 0.28452,0.097211 0.28452,0.24184201 0,0.130405 -0.106695,0.2371 -0.294004,0.2371 -0.16597001,0 -0.31297201,-0.059275 -0.42203801,-0.170712 z" style="font-weight:bold;font-size:2.371px;font-family:'Proxima Nova';dominant-baseline:middle;text-anchor:middle;fill:#0044cc" id="path639"/>
      </g>
    </g>
    <g transform="translate(52.251,75.250)" id="g335">
      <circle cx="0" cy="0" r="4.200" fill="#0044cc" stroke="none" stroke-width="0" id="circle329"/>
      <circle cx="0" cy="0" r="3.500" fill="none" stroke="#faf7f0" stroke-width="0.950" id="circle331"/>
      <circle cx="0" cy="0" r="2.325" fill="none" stroke="#faf7f0" stroke-width="0.950" id="circle333"/>
    </g>
    <g transform="translate(8.709,92.250)" id="g343">
      <circle cx="0" cy="0" r="4.200" fill="#0044cc" stroke="none" stroke-width="0" id="circle337"/>
      <circle cx="0" cy="0" r="3.500" fill="none" stroke="#faf7f0" stroke-width="0.950" id="circle339"/>
      <circle cx="0" cy="0" r="2.325" fill="none" stroke="#faf7f0" stroke-width="0.950" id="circle341"/>
    </g>
    <g transform="translate(19.594,91.000)" id="g357">
      <rect x="-1.312" y="-2.812" width="2.625" height="5.625" fill="#faf7f0" stroke="#0044cc" stroke-width="0.375" rx="0.188" ry="0.188" id="rect345"/>
      <line x1="-0.812" y1="0.250" x2="0.812" y2="0.250" stroke="#0044cc" stroke-width="0.250" stroke-linecap="round" id="line347"/>
      <line x1="-0.812" y1="0.750" x2="0.812" y2="0.750" stroke="#0044cc" stroke-width="0.250" stroke-linecap="round" id="line349"/>
      <line x1="-0.812" y1="1.250" x2="0.812" y2="1.250" stroke="#0044cc" stroke-width="0.250" stroke-linecap="round" id="line351"/>
      <line x1="-0.812" y1="1.750" x2="0.812" y2="1.750" stroke="#0044cc" stroke-width="0.250" stroke-linecap="round" id="line353"/>
      <line x1="-0.812" y1="2.250" x2="0.812" y2="2.250" stroke="#0044cc" stroke-width="0.250" stroke-linecap="round" id="line355"/>
    </g>
    <g transform="translate(30.480,91.000)" id="g363">
      <circle cx="0" cy="0" r="6.350" fill="#0044cc" stroke="none" stroke-width="0" id="circle359"/>
      <line x1="0" y1="0" x2="0" y2="-5.556" stroke="#faf7f0" stroke-width="0.794" stroke-linecap="round" id="line361"/>
    </g>
    <g transform="translate(41.866,91.000)" id="g369">
      <rect x="-3.500" y="-1.790" width="7.000" height="3.580" fill="#faf7f0" stroke="#0044cc" stroke-width="0.250" rx="0.500" ry="0.500" id="rect365"/>
      <g aria-label="±5" id="text367" style="font-weight:bold;font-size:2.371px;font-family:'Proxima Nova';dominant-baseline:middle;text-anchor:middle;fill:#0044cc">
        <path d="m -0.61566351,0.08365048 h 0.42440901 v -0.184938 h -0.42440901 v -0.46708701 h -0.206277 v 0.46708701 H -1.2487205 v 0.184938 h 0.42677999 v 0.48368401 h 0.206277 z M -1.2487205,0.8565965 h 1.057466 v -0.184938 h -1.057466 z" style="font-weight:bold;font-size:2.371px;font-family:'Proxima Nova';dominant-baseline:middle;text-anchor:middle;fill:#0044cc" id="path642"/>
        <path d="m -0.00653877,0.6479485 c 0.13514701,0.147002 0.33431101,0.2371 0.60934702,0.2371 0.38173101,0 0.63305705,-0.211019 0.63305705,-0.54533001 0,-0.32008501 -0.23947104,-0.50976501 -0.50739405,-0.50976501 -0.144631,0 -0.27266501,0.056904 -0.35565001,0.130405 V -0.43559853 H 1.1291703 v -0.289262 H 0.04325224 v 0.90335101 l 0.234729,0.064017 c 0.09484,-0.090098 0.20153501,-0.13040501 0.33194001,-0.13040501 0.180196,0 0.28452,0.097211 0.28452,0.24184201 0,0.130405 -0.106695,0.2371 -0.294004,0.2371 -0.16597001,0 -0.31297201,-0.059275 -0.42203801,-0.170712 z" style="font-weight:bold;font-size:2.371px;font-family:'Proxima Nova';dominant-baseline:middle;text-anchor:middle;fill:#0044cc" id="path644"/>
      </g>
    </g>
    <g transform="translate(52.251,92.250)" id="g377">
      <circle cx="0" cy="0" r="4.200" fill="#0044cc" stroke="none" stroke-width="0" id="circle371"/>
      <circle cx="0" cy="0" r="3.500" fill="none" stroke="#faf7f0" stroke-width="0.950" id="circle373"/>
      <circle cx="0" cy="0" r="2.325" fill="none" stroke="#faf7f0" stroke-width="0.950" id="circle375"/>
    </g>
    <g transform="translate(8.709,109.250)" id="g385">
      <circle cx="0" cy="0" r="4.200" fill="#0044cc" stroke="none" stroke-width="0" id="circle379"/>
      <circle cx="0" cy="0" r="3.500" fill="none" stroke="#faf7f0" stroke-width="0.950" id="circle381"/>
      <circle cx="0" cy="0" r="2.325" fill="none" stroke="#faf7f0" stroke-width="0.950" id="circle383"/>
    </g>
    <g transform="translate(19.594,108.000)" id="g399">
      <rect x="-1.312" y="-2.812" width="2.625" height="5.625" fill="#faf7f0" stroke="#0044cc" stroke-width="0.375" rx="0.188" ry="0.188" id="rect387"/>
      <line x1="-0.812" y1="0.250" x2="0.812" y2="0.250" stroke="#0044cc" stroke-width="0.250" stroke-linecap="round" id="line389"/>
      <line x1="-0.812" y1="0.750" x2="0.812" y2="0.750" stroke="#0044cc" stroke-width="0.250" stroke-linecap="round" id="line391"/>
      <line x1="-0.812" y1="1.250" x2="0.812" y2="1.250" stroke="#0044cc" stroke-width="0.250" stroke-linecap="round" id="line393"/>
      <line x1="-0.812" y1="1.750" x2="0.812" y2="1.750" stroke="#0044cc" stroke-width="0.250" stroke-linecap="round" id="line395"/>
      <line x1="-0.812" y1="2.250" x2="0.812" y2="2.250" stroke="#0044cc" stroke-width="0.250" stroke-linecap="round" id="line397"/>
    </g>
    <g transform="translate(30.480,108.000)" id="g405">
      <circle cx="0" cy="0" r="6.350" fill="#0044cc" stroke="none" stroke-width="0" id="circle401"/>
      <line x1="0" y1="0" x2="0" y2="-5.556" stroke="#faf7f0" stroke-width="0.794" stroke-linecap="round" id="line403"/>
    </g>
    <g transform="translate(41.866,108.000)" id="g411">
      <rect x="-3.500" y="-1.790" width="7.000" height="3.580" fill="#faf7f0" stroke="#0044cc" stroke-width="0.250" rx="0.500" ry="0.500" id="rect407"/>
      <g aria-label="±5" id="text409" style="font-weight:bold;font-size:2.371px;font-family:'Proxima Nova';dominant-baseline:middle;text-anchor:middle;fill:#0044cc">
        <path d="m -0.61566351,0.08365048 h 0.42440901 v -0.184938 h -0.42440901 v -0.46708701 h -0.206277 v 0.46708701 H -1.2487205 v 0.184938 h 0.42677999 v 0.48368401 h 0.206277 z M -1.2487205,0.8565965 h 1.057466 v -0.184938 h -1.057466 z" style="font-weight:bold;font-size:2.371px;font-family:'Proxima Nova';dominant-baseline:middle;text-anchor:middle;fill:#0044cc" id="path647"/>
        <path d="m -0.00653877,0.6479485 c 0.13514701,0.147002 0.33431101,0.2371 0.60934702,0.2371 0.38173101,0 0.63305705,-0.211019 0.63305705,-0.54533001 0,-0.32008501 -0.23947104,-0.50976501 -0.50739405,-0.50976501 -0.144631,0 -0.27266501,0.056904 -0.35565001,0.130405 V -0.43559853 H 1.1291703 v -0.289262 H 0.04325224 v 0.90335101 l 0.234729,0.064017 c 0.09484,-0.090098 0.20153501,-0.13040501 0.33194001,-0.13040501 0.180196,0 0.28452,0.097211 0.28452,0.24184201 0,0.130405 -0.106695,0.2371 -0.294004,0.2371 -0.16597001,0 -0.31297201,-0.059275 -0.42203801,-0.170712 z" style="font-weight:bold;font-size:2.371px;font-family:'Proxima Nova';dominant-baseline:middle;text-anchor:middle;fill:#0044cc" id="path649"/>
      </g>
    </g>
    <g transform="translate(52.251,109.250)" id="g419">
      <circle cx="0" cy="0" r="4.200" fill="#0044cc" stroke="none" stroke-width="0" id="circle413"/>
      <circle cx="0" cy="0" r="3.500" fill="none" stroke="#faf7f0" stroke-width="0.950" id="circle415"/>
      <circle cx="0" cy="0" r="2.325" fill="none" stroke="#faf7f0" stroke-width="0.950" id="circle417"/>
    </g>
  </g>
</svg>
