<?xml version="1.0" encoding="UTF-8" standalone="no"?>
<svg xmlns="http://www.w3.org/2000/svg" xmlns:svg="http://www.w3.org/2000/svg" version="1.1" viewBox="-4.325000 -1.915222 8.650000 3.830444" height="3.830444mm" width="8.650000mm">
  <defs/>
  <g>
    <rect x="-4.2" y="-1.7902222222222222" width="8.4" height="3.5804444444444443" rx="0.5" ry="0.5" fill="#efedeb" stroke="#18191c" stroke-width="0.25"/>
    <g style="font-weight:bold;font-size:2.37067px;font-family:'Proxima Nova';dominant-baseline:middle;text-anchor:middle;fill:#18191c">
      <path d="m -3.0363055,0.63415336 c 0.149352,0.149352 0.3674533,0.25129067 0.6708987,0.25129067 0.42672,0 0.632968,-0.21810134 0.632968,-0.50732268 0,-0.35085868 -0.3318933,-0.42909068 -0.5926667,-0.48835735 -0.1825413,-0.042672 -0.3152987,-0.0758613 -0.3152987,-0.18254134 0,-0.0948267 0.080603,-0.16120534 0.2323254,-0.16120534 0.1540933,0 0.3247813,0.0545253 0.4527973,0.17305867 l 0.1872827,-0.24654934 c -0.156464,-0.14461067 -0.3650827,-0.220472 -0.6163734,-0.220472 -0.3721946,0 -0.5997786,0.21336 -0.5997786,0.47650401 0,0.35322934 0.3318933,0.42434935 0.590296,0.48361602 0.1825413,0.042672 0.32004,0.0829733 0.32004,0.20150667 0,0.0900853 -0.090085,0.1778 -0.2749974,0.1778 -0.2181013,0 -0.39116,-0.0971973 -0.5025813,-0.21336 z" style="font-weight:bold;font-size:2.37067px;font-family:'Proxima Nova';dominant-baseline:middle;text-anchor:middle;fill:#18191c"/>
      <path d="M -0.13079415,0.85699603 H 0.20821119 V -0.72423869 H -0.26592216 L -0.64997017,0.26195868 -1.0340182,-0.72423869 h -0.4717627 v 1.58123472 h 0.3366347 v -1.13792004 l 0.44568536,1.13792004 h 0.14698134 l 0.44568535,-1.13792004 z" style="font-weight:bold;font-size:2.37067px;font-family:'Proxima Nova';dominant-baseline:middle;text-anchor:middle;fill:#18191c"/>
      <path d="M 0.52225049,0.85699603 H 0.85888516 V 0.29040668 H 1.2618985 c 0.341376,0 0.5310294,-0.22995468 0.5310294,-0.50495202 0,-0.27736801 -0.1872827,-0.50969335 -0.5310294,-0.50969335 H 0.52225049 Z M 1.4491812,-0.216916 c 0,0.13275733 -0.099568,0.21810134 -0.2323254,0.21810134 H 0.85888516 V -0.43501734 H 1.2168558 c 0.1327574,0 0.2323254,0.0877147 0.2323254,0.21810134 z" style="font-weight:bold;font-size:2.37067px;font-family:'Proxima Nova';dominant-baseline:middle;text-anchor:middle;fill:#18191c"/>
      <path d="M 1.999287,0.85699603 H 3.0044497 V 0.56066269 H 2.3359216 V -0.72423869 H 1.999287 Z" style="font-weight:bold;font-size:2.37067px;font-family:'Proxima Nova';dominant-baseline:middle;text-anchor:middle;fill:#18191c"/>
    </g>
  </g>
</svg>
