<?xml version="1.0" encoding="UTF-8" standalone="no"?>
<svg xmlns="http://www.w3.org/2000/svg" xmlns:svg="http://www.w3.org/2000/svg" version="1.1" viewBox="-4.325000 -1.915222 8.650000 3.830444" height="3.830444mm" width="8.650000mm">
  <defs/>
  <g>
    <rect x="-4.2" y="-1.7902222222222222" width="8.4" height="3.5804444444444443" rx="0.5" ry="0.5" fill="#efedeb" stroke="#18191c" stroke-width="0.25"/>
    <g style="font-weight:bold;font-size:2.37067px;font-family:'Proxima Nova';dominant-baseline:middle;text-anchor:middle;fill:#18191c">
      <path d="m -3.2705941,0.85699603 h 0.3390054 v -1.28490137 h 0.4599093 v -0.29633335 h -1.2611947 v 0.29633335 h 0.46228 z" style="font-weight:bold;font-size:2.37067px;font-family:'Proxima Nova';dominant-baseline:middle;text-anchor:middle;fill:#18191c"/>
      <path d="m -1.3621333,0.85699603 h 0.38641871 L -1.3313146,0.25484668 c 0.170688,-0.0403013 0.34611734,-0.18965334 0.34611734,-0.46939202 0,-0.29396267 -0.20150664,-0.50969335 -0.53102934,-0.50969335 h -0.739648 V 0.85699603 H -1.91924 V 0.29040668 h 0.2465494 z m 0.033189,-1.07391203 c 0,0.13275733 -0.1019387,0.21810134 -0.2370667,0.21810134 H -1.91924 v -0.43620268 h 0.3532294 c 0.135128,0 0.2370667,0.085344 0.2370667,0.21810134 z" style="font-weight:bold;font-size:2.37067px;font-family:'Proxima Nova';dominant-baseline:middle;text-anchor:middle;fill:#18191c"/>
      <path d="M 0.37456517,0.85699603 H 0.74201852 L 0.13275716,-0.72423869 h -0.42197868 l -0.61163201,1.58123472 h 0.36982401 l 0.099568,-0.27262668 h 0.70645869 z m -0.45279735,-1.28964271 0.26077335,0.72542402 h -0.52391735 z" style="font-weight:bold;font-size:2.37067px;font-family:'Proxima Nova';dominant-baseline:middle;text-anchor:middle;fill:#18191c"/>
      <path d="m 1.5631955,0.88544403 c 0.3603413,0 0.5594773,-0.19202401 0.6732693,-0.38878935 L 1.9472435,0.35678535 c -0.066379,0.13038667 -0.2086187,0.22995467 -0.384048,0.22995467 -0.2749974,0 -0.4836161,-0.22047201 -0.4836161,-0.51917602 0,-0.29870401 0.2086187,-0.51917601 0.4836161,-0.51917601 0.1754293,0 0.3176693,0.10193867 0.384048,0.22995467 l 0.2892213,-0.14224 c -0.1114213,-0.19676534 -0.312928,-0.38641868 -0.6732693,-0.38641868 -0.4622801,0 -0.82973341,0.33189334 -0.82973341,0.81788002 0,0.48598669 0.36745331,0.81788003 0.82973341,0.81788003 z" style="font-weight:bold;font-size:2.37067px;font-family:'Proxima Nova';dominant-baseline:middle;text-anchor:middle;fill:#18191c"/>
      <path d="M 3.3779407,0.85699603 H 3.7928074 L 3.1219087,0.01778 3.7501354,-0.72423869 H 3.3352687 L 2.7757913,-0.01778 V -0.72423869 H 2.4391567 V 0.85699603 H 2.7757913 V 0.37100935 L 2.899066,0.22402801 Z" style="font-weight:bold;font-size:2.37067px;font-family:'Proxima Nova';dominant-baseline:middle;text-anchor:middle;fill:#18191c"/>
    </g>
  </g>
</svg>
