<?xml version="1.0" encoding="UTF-8" standalone="no"?>
<svg xmlns="http://www.w3.org/2000/svg" xmlns:svg="http://www.w3.org/2000/svg" version="1.1" viewBox="-4.325000 -1.915222 8.650000 3.830444" height="3.830444mm" width="8.650000mm">
  <defs/>
  <g>
    <rect x="-4.2" y="-1.7902222222222222" width="8.4" height="3.5804444444444443" rx="0.5" ry="0.5" fill="#efedeb" stroke="#18191c" stroke-width="0.25"/>
    <g style="font-weight:bold;font-size:2.37067px;font-family:'Proxima Nova';dominant-baseline:middle;text-anchor:middle;fill:#18191c">
      <path d="M -3.2791507,0.85699603 H -2.273988 V 0.56066269 h -0.668528 v -1.28490138 h -0.3366347 z" style="font-weight:bold;font-size:2.37067px;font-family:'Proxima Nova';dominant-baseline:middle;text-anchor:middle;fill:#18191c"/>
      <path d="m -2.0382548,0.85699603 h 1.11895468 V 0.56540402 H -1.7016201 V 0.19795068 h 0.76572531 V -0.09127067 H -1.7016201 v -0.34374667 h 0.78231998 V -0.72423869 H -2.0382548 Z" style="font-weight:bold;font-size:2.37067px;font-family:'Proxima Nova';dominant-baseline:middle;text-anchor:middle;fill:#18191c"/>
      <path d="M -0.21050794,0.85699603 H 0.21147074 L 0.82073209,-0.72423869 H 0.43668408 L 4.8139686e-4,0.49191335 -0.43809195,-0.72423869 h -0.38404801 z" style="font-weight:bold;font-size:2.37067px;font-family:'Proxima Nova';dominant-baseline:middle;text-anchor:middle;fill:#18191c"/>
      <path d="M 0.96675042,0.85699603 H 2.0857051 V 0.56540402 h -0.78232 V 0.19795068 H 2.0691105 V -0.09127067 H 1.3033851 v -0.34374667 h 0.78232 V -0.72423869 H 0.96675042 Z" style="font-weight:bold;font-size:2.37067px;font-family:'Proxima Nova';dominant-baseline:middle;text-anchor:middle;fill:#18191c"/>
      <path d="M 2.3511827,0.85699603 H 3.3563454 V 0.56066269 H 2.6878174 V -0.72423869 H 2.3511827 Z" style="font-weight:bold;font-size:2.37067px;font-family:'Proxima Nova';dominant-baseline:middle;text-anchor:middle;fill:#18191c"/>
    </g>
  </g>
</svg>
