<?xml version="1.0" encoding="UTF-8" standalone="no"?>
<svg xmlns="http://www.w3.org/2000/svg" xmlns:svg="http://www.w3.org/2000/svg" version="1.1" viewBox="-4.325000 -1.915222 8.650000 3.830444" height="3.830444mm" width="8.650000mm">
  <defs/>
  <g>
    <rect x="-4.2" y="-1.7902222222222222" width="8.4" height="3.5804444444444443" rx="0.5" ry="0.5" fill="#efedeb" stroke="#18191c" stroke-width="0.25"/>
    <g style="font-weight:bold;font-size:2.37067px;font-family:'Proxima Nova';dominant-baseline:middle;text-anchor:middle;fill:#18191c">
      <path d="m -2.1789391,0.067564 c 0,0.47650402 0.348488,0.81788003 0.8249921,0.81788003 0.47887464,0 0.82736265,-0.34137601 0.82736265,-0.81788003 0,-0.47650401 -0.34848801,-0.81788002 -0.82736265,-0.81788002 -0.4765041,0 -0.8249921,0.34137601 -0.8249921,0.81788002 z m 1.30623741,0 c 0,0.29396268 -0.18965331,0.51917602 -0.48124531,0.51917602 -0.2915921,0 -0.4788747,-0.22521334 -0.4788747,-0.51917602 0,-0.29633334 0.1872826,-0.51917601 0.4788747,-0.51917601 0.291592,0 0.48124531,0.22284267 0.48124531,0.51917601 z" style="font-weight:bold;font-size:2.37067px;font-family:'Proxima Nova';dominant-baseline:middle;text-anchor:middle;fill:#18191c"/>
      <path d="M -0.28803595,0.85699603 H 0.04859872 V 0.19795068 H 0.81432408 V -0.09127067 H 0.04859872 v -0.34374667 h 0.78232003 v -0.28922135 h -1.1189547 z" style="font-weight:bold;font-size:2.37067px;font-family:'Proxima Nova';dominant-baseline:middle;text-anchor:middle;fill:#18191c"/>
      <path d="M 1.063985,0.85699603 H 1.4006197 V 0.19795068 H 2.1663451 V -0.09127067 H 1.4006197 v -0.34374667 h 0.78232 V -0.72423869 H 1.063985 Z" style="font-weight:bold;font-size:2.37067px;font-family:'Proxima Nova';dominant-baseline:middle;text-anchor:middle;fill:#18191c"/>
    </g>
  </g>
</svg>
