<?xml version="1.0" encoding="UTF-8" standalone="no"?>
<svg xmlns="http://www.w3.org/2000/svg" xmlns:svg="http://www.w3.org/2000/svg" version="1.1" viewBox="-4.325000 -1.915222 8.650000 3.830444" height="3.830444mm" width="8.650000mm">
  <defs/>
  <g>
    <rect x="-4.2" y="-1.7902222222222222" width="8.4" height="3.5804444444444443" rx="0.5" ry="0.5" fill="#efedeb" stroke="#18191c" stroke-width="0.25"/>
    <g style="font-weight:bold;font-size:2.37067px;font-family:'Proxima Nova';dominant-baseline:middle;text-anchor:middle;fill:#18191c">
      <path d="m -0.66332367,0.63415336 c 0.14935201,0.149352 0.36745335,0.25129067 0.67089869,0.25129067 0.42672001,0 0.63296802,-0.21810134 0.63296802,-0.50732268 0,-0.35085868 -0.33189334,-0.42909068 -0.59266668,-0.48835735 -0.18254134,-0.042672 -0.31529868,-0.0758613 -0.31529868,-0.18254134 0,-0.0948267 0.0806027,-0.16120534 0.23232534,-0.16120534 0.15409334,0 0.32478134,0.0545253 0.45279735,0.17305867 l 0.18728267,-0.24654934 c -0.156464,-0.14461067 -0.36508268,-0.220472 -0.61637335,-0.220472 -0.37219468,0 -0.59977869,0.21336 -0.59977869,0.47650401 0,0.35322934 0.33189335,0.42434935 0.59029602,0.48361602 0.18254134,0.042672 0.32004001,0.0829733 0.32004001,0.20150667 0,0.0900853 -0.0900853,0.1778 -0.27499734,0.1778 -0.21810134,0 -0.39116001,-0.0971973 -0.50258135,-0.21336 z" style="font-weight:bold;font-size:2.37067px;font-family:'Proxima Nova';dominant-baseline:middle;text-anchor:middle;fill:#18191c"/>
    </g>
  </g>
</svg>
