<?xml version="1.0" encoding="UTF-8" standalone="no"?>
<svg xmlns="http://www.w3.org/2000/svg" xmlns:svg="http://www.w3.org/2000/svg" version="1.1" viewBox="-4.325000 -1.915222 8.650000 3.830444" height="3.830444mm" width="8.650000mm">
  <defs/>
  <g>
    <rect x="-4.2" y="-1.7902222222222222" width="8.4" height="3.5804444444444443" rx="0.5" ry="0.5" fill="#efedeb" stroke="#18191c" stroke-width="0.25"/>
    <g style="font-weight:bold;font-size:2.37067px;font-family:'Proxima Nova';dominant-baseline:middle;text-anchor:middle;fill:#18191c">
      <path d="M -1.6702273,0.85699603 H -1.331222 V -0.72423869 H -1.6702273 V -0.103124 h -0.74676 V -0.72423869 H -2.753622 v 1.58123472 h 0.3366347 V 0.19320934 h 0.74676 z" style="font-weight:bold;font-size:2.37067px;font-family:'Proxima Nova';dominant-baseline:middle;text-anchor:middle;fill:#18191c"/>
      <path d="m -1.0219241,0.85699603 h 0.33663467 V -0.72423869 H -1.0219241 Z" style="font-weight:bold;font-size:2.37067px;font-family:'Proxima Nova';dominant-baseline:middle;text-anchor:middle;fill:#18191c"/>
      <path d="m -0.4495562,0.067564 c 0,0.49784002 0.37930668,0.8202507 0.84158669,0.8202507 0.28685068,0 0.51206402,-0.11853334 0.67326931,-0.29870401 V -0.01540933 H 0.31142782 V 0.27381201 H 0.7334065 v 0.19202401 c -0.0687493,0.0616373 -0.19676534,0.120904 -0.34137601,0.120904 -0.28685068,0 -0.49546935,-0.22047201 -0.49546935,-0.51917602 0,-0.29870401 0.20861867,-0.51917601 0.49546935,-0.51917601 0.16594667,0 0.30107468,0.0877147 0.37456535,0.199136 L 1.0463345,-0.40419868 c -0.12090399,-0.18728267 -0.327152,-0.34611734 -0.65430401,-0.34611734 -0.46228001,0 -0.84158669,0.31766934 -0.84158669,0.81788002 z" style="font-weight:bold;font-size:2.37067px;font-family:'Proxima Nova';dominant-baseline:middle;text-anchor:middle;fill:#18191c"/>
      <path d="M 2.4182465,0.85699603 H 2.7572518 V -0.72423869 H 2.4182465 V -0.103124 H 1.6714864 V -0.72423869 H 1.3348518 V 0.85699603 H 1.6714864 V 0.19320934 h 0.7467601 z" style="font-weight:bold;font-size:2.37067px;font-family:'Proxima Nova';dominant-baseline:middle;text-anchor:middle;fill:#18191c"/>
    </g>
  </g>
</svg>
