<?xml version="1.0" encoding="UTF-8" standalone="no"?>
<svg xmlns="http://www.w3.org/2000/svg" xmlns:svg="http://www.w3.org/2000/svg" version="1.1" viewBox="-4.325000 -1.915222 8.650000 3.830444" height="3.830444mm" width="8.650000mm">
  <defs/>
  <g>
    <rect x="-4.2" y="-1.7902222222222222" width="8.4" height="3.5804444444444443" rx="0.5" ry="0.5" fill="#efedeb" stroke="#18191c" stroke-width="0.25"/>
    <g style="font-weight:bold;font-size:2.37067px;font-family:'Proxima Nova';dominant-baseline:middle;text-anchor:middle;fill:#18191c">
      <path d="m -1.4385317,0.85699603 h 0.3864187 l -0.3556,-0.60214935 c 0.170688,-0.0403013 0.3461173,-0.18965334 0.3461173,-0.46939202 0,-0.29396267 -0.2015067,-0.50969335 -0.5310293,-0.50969335 h -0.7396481 v 1.58123472 h 0.3366347 V 0.29040668 h 0.2465494 z m 0.033189,-1.07391203 c 0,0.13275733 -0.1019386,0.21810134 -0.2370666,0.21810134 h -0.3532294 v -0.43620268 h 0.3532294 c 0.135128,0 0.2370666,0.085344 0.2370666,0.21810134 z" style="font-weight:bold;font-size:2.37067px;font-family:'Proxima Nova';dominant-baseline:middle;text-anchor:middle;fill:#18191c"/>
      <path d="m -0.8089345,0.85699603 h 0.33663468 V -0.72423869 H -0.8089345 Z" style="font-weight:bold;font-size:2.37067px;font-family:'Proxima Nova';dominant-baseline:middle;text-anchor:middle;fill:#18191c"/>
      <path d="m -0.26975605,0.63415336 c 0.14935201,0.149352 0.36745335,0.25129067 0.67089869,0.25129067 0.42672002,0 0.63296806,-0.21810134 0.63296806,-0.50732268 0,-0.35085868 -0.33189338,-0.42909068 -0.59266672,-0.48835735 -0.18254134,-0.042672 -0.31529868,-0.0758613 -0.31529868,-0.18254134 0,-0.0948267 0.0806027,-0.16120534 0.23232534,-0.16120534 0.15409334,0 0.32478135,0.0545253 0.45279735,0.17305867 l 0.18728267,-0.24654934 c -0.156464,-0.14461067 -0.36508268,-0.220472 -0.61637335,-0.220472 -0.37219468,0 -0.59977869,0.21336 -0.59977869,0.47650401 0,0.35322934 0.33189335,0.42434935 0.59029602,0.48361602 0.18254134,0.042672 0.32004001,0.0829733 0.32004001,0.20150667 0,0.0900853 -0.0900853,0.1778 -0.27499734,0.1778 -0.21810134,0 -0.39116001,-0.0971973 -0.50258135,-0.21336 z" style="font-weight:bold;font-size:2.37067px;font-family:'Proxima Nova';dominant-baseline:middle;text-anchor:middle;fill:#18191c"/>
      <path d="M 1.2607686,0.85699603 H 2.3797233 V 0.56540402 h -0.78232 V 0.19795068 H 2.3631286 V -0.09127067 H 1.5974033 v -0.34374667 h 0.78232 V -0.72423869 H 1.2607686 Z" style="font-weight:bold;font-size:2.37067px;font-family:'Proxima Nova';dominant-baseline:middle;text-anchor:middle;fill:#18191c"/>
    </g>
  </g>
</svg>
