<?xml version="1.0" encoding="UTF-8" standalone="no"?>
<svg xmlns="http://www.w3.org/2000/svg" xmlns:svg="http://www.w3.org/2000/svg" version="1.1" viewBox="-4.325000 -1.915222 8.650000 3.830444" height="3.830444mm" width="8.650000mm">
  <defs/>
  <g>
    <rect x="-4.2" y="-1.7902222222222222" width="8.4" height="3.5804444444444443" rx="0.5" ry="0.5" fill="#efedeb" stroke="#18191c" stroke-width="0.25"/>
    <g style="font-weight:bold;font-size:2.37067px;font-family:'Proxima Nova';dominant-baseline:middle;text-anchor:middle;fill:#18191c">
      <path d="m -2.9342002,0.85699603 h 1.1189547 V 0.56540402 h -0.78232 V 0.19795068 h 0.7657254 v -0.28922135 h -0.7657254 v -0.34374667 h 0.78232 v -0.28922135 h -1.1189547 z" style="font-weight:bold;font-size:2.37067px;font-family:'Proxima Nova';dominant-baseline:middle;text-anchor:middle;fill:#18191c"/>
      <path d="m -1.5497678,0.85699603 h 0.62348531 c 0.49546935,0 0.83921603,-0.31292801 0.83921603,-0.78943203 0,-0.47650401 -0.34374668,-0.79180269 -0.83921603,-0.79180269 H -1.5497678 Z m 0.3366346,-0.29633334 v -0.98856803 h 0.28685071 c 0.32478135,0 0.49546935,0.21573067 0.49546935,0.49546934 0,0.26788535 -0.18254134,0.49309869 -0.49546935,0.49309869 z" style="font-weight:bold;font-size:2.37067px;font-family:'Proxima Nova';dominant-baseline:middle;text-anchor:middle;fill:#18191c"/>
      <path d="m 0.07828737,0.067564 c 0,0.49784002 0.37930668,0.8202507 0.8415867,0.8202507 0.28685063,0 0.51206403,-0.11853334 0.67326933,-0.29870401 v -0.60452002 h -0.753872 v 0.28922134 h 0.4219787 v 0.19202401 c -0.068749,0.0616373 -0.1967654,0.120904 -0.34137603,0.120904 -0.28685068,0 -0.49546935,-0.22047201 -0.49546935,-0.51917602 0,-0.29870401 0.20861867,-0.51917601 0.49546935,-0.51917601 0.16594663,0 0.30107463,0.0877147 0.37456533,0.199136 l 0.2797387,-0.15172267 c -0.120904,-0.18728267 -0.327152,-0.34611734 -0.65430403,-0.34611734 -0.46228002,0 -0.8415867,0.31766934 -0.8415867,0.81788002 z" style="font-weight:bold;font-size:2.37067px;font-family:'Proxima Nova';dominant-baseline:middle;text-anchor:middle;fill:#18191c"/>
      <path d="M 1.8626958,0.85699603 H 2.9816505 V 0.56540402 h -0.78232 V 0.19795068 H 2.9650559 V -0.09127067 H 2.1993305 v -0.34374667 h 0.78232 V -0.72423869 H 1.8626958 Z" style="font-weight:bold;font-size:2.37067px;font-family:'Proxima Nova';dominant-baseline:middle;text-anchor:middle;fill:#18191c"/>
    </g>
  </g>
</svg>
