<?xml version="1.0" encoding="UTF-8" standalone="no"?>
<svg
   xmlns:dc="http://purl.org/dc/elements/1.1/"
   xmlns:cc="http://creativecommons.org/ns#"
   xmlns:rdf="http://www.w3.org/1999/02/22-rdf-syntax-ns#"
   xmlns:svg="http://www.w3.org/2000/svg"
   xmlns="http://www.w3.org/2000/svg"
   version="1.1"
   width="10.400mm"
   height="3.580mm"
   viewBox="0 0 10.400 3.580"
   id="svg8">
  <metadata
     id="metadata14">
    <rdf:RDF>
      <cc:Work
         rdf:about="">
        <dc:format>image/svg+xml</dc:format>
        <dc:type
           rdf:resource="http://purl.org/dc/dcmitype/StillImage" />
      </cc:Work>
    </rdf:RDF>
  </metadata>
  <defs
     id="defs12" />
  <g
     transform="translate(5.2,1.79)"
     id="g6">
    <path
       id="rect2"
       style="fill:#efedeb;stroke:#331a00;stroke-width:0.25"
       d="m -4.6999998,-1.79 h 9.3999996 c 0.277,0 0.5,0.223 0.5,0.5 v 2.58 c 0,0.277 -0.223,0.5 -0.5,0.5 h -9.3999996 c -0.277,0 -0.5,-0.223 -0.5,-0.5 v -2.58 c 0,-0.277 0.223,-0.5 0.5,-0.5 z" />
    <g
       aria-label="TRACK"
       id="text4"
       style="font-weight:bold;font-size:2.371px;font-family:'Proxima Nova';dominant-baseline:middle;text-anchor:middle;fill:#331a00">
      <path
         d="m -3.2710539,0.8565965 h 0.339053 v -1.28508203 h 0.459974 v -0.296375 h -1.261372 v 0.296375 h 0.462345 z"
         style="font-weight:bold;font-size:2.371px;font-family:'Proxima Nova';dominant-baseline:middle;text-anchor:middle;fill:#331a00"
         id="path17" />
      <path
         d="m -1.3623247,0.8565965 h 0.386473 l -0.35565,-0.60223401 c 0.170712,-0.040307 0.346166,-0.18968001 0.346166,-0.46945801 0,-0.29400401 -0.201535,-0.50976501 -0.531104,-0.50976501 h -0.739752 V 0.8565965 h 0.336682 V 0.28992749 h 0.246584 z m 0.033194,-1.07406302 c 0,0.132776 -0.101953,0.21813200109 -0.2371,0.21813200109 h -0.353279 V -0.43559853 h 0.353279 c 0.135147,0 0.2371,0.085356 0.2371,0.21813201 z"
         style="font-weight:bold;font-size:2.371px;font-family:'Proxima Nova';dominant-baseline:middle;text-anchor:middle;fill:#331a00"
         id="path19" />
      <path
         d="M 0.37461807,0.8565965 H 0.74212308 L 0.13277607,-0.72486053 H -0.28926194 L -0.90097995,0.8565965 h 0.369876 l 0.099582,-0.27266501 h 0.70655801 z m -0.45286101,-1.28982403 0.26081001,0.72552602 h -0.52399101 z"
         style="font-weight:bold;font-size:2.371px;font-family:'Proxima Nova';dominant-baseline:middle;text-anchor:middle;fill:#331a00"
         id="path21" />
      <path
         d="m 1.5634154,0.8850485 c 0.360392,0 0.559556,-0.192051 0.673364,-0.38884401 l -0.289262,-0.139889 c -0.066388,0.130405 -0.208648,0.229987 -0.384102,0.229987 -0.275036,0 -0.483684,-0.220503 -0.483684,-0.51924901 0,-0.298746 0.208648,-0.51924901 0.483684,-0.51924901 0.175454,0 0.317714,0.101953 0.384102,0.22998701 l 0.289262,-0.14226001 c -0.111437,-0.196793 -0.312972,-0.38647301 -0.673364,-0.38647301 -0.462345,0 -0.82985,0.33194001 -0.82985,0.81799502 0,0.48605501 0.367505,0.81799502 0.82985,0.81799502 z"
         style="font-weight:bold;font-size:2.371px;font-family:'Proxima Nova';dominant-baseline:middle;text-anchor:middle;fill:#331a00"
         id="path23" />
      <path
         d="M 3.378416,0.8565965 H 3.793341 L 3.122348,0.01726248 3.750663,-0.72486053 H 3.335738 L 2.776182,-0.01830252 V -0.72486053 H 2.4395 V 0.8565965 H 2.776182 V 0.37054149 l 0.123292,-0.147002 z"
         style="font-weight:bold;font-size:2.371px;font-family:'Proxima Nova';dominant-baseline:middle;text-anchor:middle;fill:#331a00"
         id="path25" />
    </g>
  </g>
</svg>
