<?xml version="1.0" encoding="UTF-8" standalone="no"?>
<svg xmlns="http://www.w3.org/2000/svg" xmlns:svg="http://www.w3.org/2000/svg" version="1.1" viewBox="-4.625000 -2.141000 9.250000 4.282000" height="4.282000mm" width="9.250000mm">
  <defs/>
  <g>
    <rect x="-4.5" y="-2.016" width="9" height="4.032" rx="0.5" ry="0.5" fill="#f0f0ff" stroke="#000099" stroke-width="0.25"/>
    <g style="font-weight:bold;font-size:3.048px;font-family:'Proxima Nova';dominant-baseline:middle;text-anchor:middle;fill:#000099">
      <path d="m -3.0909102,1.101852 h 1.292352 V 0.72085202 h -0.859536 v -1.65201606 h -0.432816 z" style="font-weight:bold;font-size:3.048px;font-family:'Proxima Nova';dominant-baseline:middle;text-anchor:middle;fill:#000099"/>
      <path d="m -1.6763524,0.086868 c 0,0.61264802 0.448056,1.05156 1.06070399,1.05156 0.615696019169,0 1.06375203,-0.43891198 1.06375203,-1.05156 0,-0.61264802 -0.448056010831,-1.05156004 -1.06375203,-1.05156004 -0.61264799,0 -1.06070399,0.43891202 -1.06070399,1.05156004 z m 1.67944801,0 c 0,0.37795201 -0.24384001,0.66751202 -0.61874402,0.66751202 -0.37490401,0 -0.61569599,-0.28956001 -0.61569599,-0.66751202 0,-0.38100001 0.24079198,-0.66751202 0.61569599,-0.66751202 0.37490401,0 0.61874402,0.28651201 0.61874402,0.66751202 z" style="font-weight:bold;font-size:3.048px;font-family:'Proxima Nova';dominant-baseline:middle;text-anchor:middle;fill:#000099"/>
      <path d="m 2.2497575,1.101852 h 0.460248 l 0.57912,-2.03301604 h -0.48768 L 2.4478775,0.53797201 2.0638295,-0.93116404 H 1.7255015 L 1.3384054,0.53797201 0.98178943,-0.93116404 H 0.49715742 L 1.0793254,1.101852 h 0.4602481 l 0.353568,-1.39598401 z" style="font-weight:bold;font-size:3.048px;font-family:'Proxima Nova';dominant-baseline:middle;text-anchor:middle;fill:#000099"/>
    </g>
  </g>
</svg>
