<?xml version="1.0" encoding="UTF-8" standalone="no"?>
<svg xmlns="http://www.w3.org/2000/svg" xmlns:svg="http://www.w3.org/2000/svg" version="1.1" width="9.250mm" height="4.282mm" viewBox="-4.625 -2.141 9.250 4.282">
  <defs/>
  <rect x="-4.500" y="-2.016" width="9.000" height="4.032" fill="#f0f0ff" stroke="#000099" stroke-width="0.250" rx="0.500" ry="0.500"/>
  <g style="font-weight:bold;font-size:3.048px;font-family:'Proxima Nova';dominant-baseline:middle;text-anchor:middle;fill:#000099">
    <path d="M -3.7725431,1.102092 H -2.333887 V 0.72718802 h -1.00584 V 0.254748 h 0.984504 v -0.37185601 h -0.984504 v -0.44196002 h 1.00584 v -0.37185601 h -1.4386561 z" style="font-weight:bold;font-size:3.048px;font-family:'Proxima Nova';dominant-baseline:middle;text-anchor:middle;fill:#000099"/>
    <path d="m -1.9925586,1.102092 h 0.801624 c 0.63703206,0 1.07899208,-0.40233599 1.07899208,-1.014984 0,-0.61264802 -0.44196002,-1.01803204 -1.07899208,-1.01803204 h -0.801624 z m 0.432816,-0.38099998 v -1.27101605 h 0.368808 c 0.41757606,0 0.63703206,0.27736801 0.63703206,0.63703203 0,0.34442401 -0.23469601,0.63398402 -0.63703206,0.63398402 z" style="font-weight:bold;font-size:3.048px;font-family:'Proxima Nova';dominant-baseline:middle;text-anchor:middle;fill:#000099"/>
    <path d="m 0.10065554,0.087108 c 0,0.64008002 0.48768001,1.054608 1.08204006,1.054608 0.368808,0 0.658368,-0.15239998 0.865632,-0.38404798 V -0.01957201 H 1.0790636 V 0.352284 h 0.542544 v 0.24688801 c -0.088392,0.079248 -0.252984,0.15544801 -0.438912,0.15544801 -0.36880804,0 -0.63703205,-0.28346401 -0.63703205,-0.66751202 0,-0.38404802 0.26822401,-0.66751203 0.63703205,-0.66751203 0.21336,0 0.387096,0.11277601 0.481584,0.25603201 l 0.359664,-0.195072 c -0.155448,-0.24079201 -0.420624,-0.44500802 -0.841248,-0.44500802 -0.59436005,0 -1.08204006,0.40843201 -1.08204006,1.05156004 z" style="font-weight:bold;font-size:3.048px;font-family:'Proxima Nova';dominant-baseline:middle;text-anchor:middle;fill:#000099"/>
    <path d="m 2.3948945,1.102092 h 1.438656 V 0.72718802 h -1.00584 V 0.254748 h 0.984504 v -0.37185601 h -0.984504 v -0.44196002 h 1.00584 v -0.37185601 h -1.438656 z" style="font-weight:bold;font-size:3.048px;font-family:'Proxima Nova';dominant-baseline:middle;text-anchor:middle;fill:#000099"/>
  </g>
</svg>
