<?xml version="1.0" encoding="UTF-8" standalone="no"?>
<svg xmlns="http://www.w3.org/2000/svg" xmlns:svg="http://www.w3.org/2000/svg" version="1.1" width="9.250mm" height="4.282mm" viewBox="-4.625 -2.141 9.250 4.282">
  <defs/>
  <rect x="-4.500" y="-2.016" width="9.000" height="4.032" fill="#f0f0ff" stroke="#000099" stroke-width="0.250" rx="0.500" ry="0.500"/>
  <g style="font-weight:bold;font-size:3.048px;font-family:'Proxima Nova';dominant-baseline:middle;text-anchor:middle;fill:#000099">
    <path d="m -2.1474351,1.102092 h 0.435864 v -2.03301604 h -0.435864 v 0.79857603 h -0.9601201 v -0.79857603 h -0.432816 V 1.102092 h 0.432816 v -0.85344 h 0.9601201 z" style="font-weight:bold;font-size:3.048px;font-family:'Proxima Nova';dominant-baseline:middle;text-anchor:middle;fill:#000099"/>
    <path d="m -1.3139024,1.102092 h 0.43281604 V -0.93092404 H -1.3139024 Z" style="font-weight:bold;font-size:3.048px;font-family:'Proxima Nova';dominant-baseline:middle;text-anchor:middle;fill:#000099"/>
    <path d="m -0.57800093,0.087108 c 0,0.64008002 0.48768001,1.054608 1.08204003,1.054608 0.36880801,0 0.658368,-0.15239998 0.865632,-0.38404798 V -0.01957201 H 0.4004071 V 0.352284 h 0.54254401 v 0.24688801 c -0.088392,0.079248 -0.252984,0.15544801 -0.43891201,0.15544801 -0.36880801,0 -0.63703202,-0.28346401 -0.63703202,-0.66751202 0,-0.38404802 0.26822401,-0.66751203 0.63703202,-0.66751203 0.21336001,0 0.38709601,0.11277601 0.48158402,0.25603201 l 0.35966398,-0.195072 c -0.155448,-0.24079201 -0.42062399,-0.44500802 -0.841248,-0.44500802 -0.59436002,0 -1.08204003,0.40843201 -1.08204003,1.05156004 z" style="font-weight:bold;font-size:3.048px;font-family:'Proxima Nova';dominant-baseline:middle;text-anchor:middle;fill:#000099"/>
    <path d="m 3.1091743,1.102092 h 0.435864 v -2.03301604 h -0.435864 v 0.79857603 h -0.96012 V -0.93092404 H 1.7162383 V 1.102092 h 0.432816 v -0.85344 h 0.96012 z" style="font-weight:bold;font-size:3.048px;font-family:'Proxima Nova';dominant-baseline:middle;text-anchor:middle;fill:#000099"/>
  </g>
</svg>
