<?xml version="1.0" encoding="UTF-8" standalone="no"?>
<svg xmlns="http://www.w3.org/2000/svg" xmlns:svg="http://www.w3.org/2000/svg" version="1.1" viewBox="-4.625000 -2.141000 9.250000 4.282000" height="4.282000mm" width="9.250000mm">
  <defs/>
  <g>
    <rect x="-4.5" y="-2.016" width="9" height="4.032" rx="0.5" ry="0.5" fill="#f0f0ff" stroke="#000099" stroke-width="0.25"/>
    <g style="font-weight:bold;font-size:3.048px;font-family:'Proxima Nova';dominant-baseline:middle;text-anchor:middle;fill:#000099">
      <path d="m -1.8495407,1.101852 h 0.496824 l -0.4572,-0.774192 c 0.219456,-0.051816 0.445008,-0.24384 0.445008,-0.60350401 0,-0.37795202 -0.25908,-0.65532003 -0.6827521,-0.65532003 h -0.950976 V 1.101852 h 0.432816 V 0.37338001 h 0.316992 z m 0.042672,-1.38074401 c 0,0.170688 -0.131064,0.280416 -0.3048001,0.280416 h -0.454152 v -0.56083201 h 0.454152 c 0.1737361,0 0.3048001,0.109728 0.3048001,0.28041601 z" style="font-weight:bold;font-size:3.048px;font-family:'Proxima Nova';dominant-baseline:middle;text-anchor:middle;fill:#000099"/>
      <path d="m -1.0400586,1.101852 h 0.43281606 V -0.93116404 H -1.0400586 Z" style="font-weight:bold;font-size:3.048px;font-family:'Proxima Nova';dominant-baseline:middle;text-anchor:middle;fill:#000099"/>
      <path d="M -0.346829,0.81534002 C -0.15480499,1.007364 0.12561102,1.138428 0.51575503,1.138428 c 0.54863997,0 0.81381607,-0.28041598 0.81381607,-0.65227199 0,-0.45110401 -0.42672006,-0.55168802 -0.76200007,-0.62788802 -0.23469601,-0.054864 -0.40538401,-0.097536 -0.40538401,-0.23469601 0,-0.12192 0.103632,-0.207264 0.29870401,-0.207264 0.19812001,0 0.41757601,0.070104 0.58216797,0.222504 l 0.2407921,-0.31699201 c -0.2011681,-0.185928 -0.46939206,-0.28346401 -0.79248007,-0.28346401 -0.47853602,0 -0.77114402,0.27432001 -0.77114402,0.61264802 0,0.45415202 0.42672001,0.54559202 0.75895202,0.62179202 0.23469601,0.054864 0.41148001,0.10668001 0.41148001,0.25908001 0,0.11582401 -0.115824,0.22860001 -0.35356801,0.22860001 -0.28041601,0 -0.50292001,-0.12496801 -0.64617602,-0.27432001 z" style="font-weight:bold;font-size:3.048px;font-family:'Proxima Nova';dominant-baseline:middle;text-anchor:middle;fill:#000099"/>
      <path d="M 1.6209883,1.101852 H 3.0596444 V 0.72694802 H 2.0538043 V 0.254508 H 3.0383084 V -0.11734801 H 2.0538043 V -0.55930802 H 3.0596444 V -0.93116404 H 1.6209883 Z" style="font-weight:bold;font-size:3.048px;font-family:'Proxima Nova';dominant-baseline:middle;text-anchor:middle;fill:#000099"/>
    </g>
  </g>
</svg>
