<?xml version="1.0" encoding="UTF-8" standalone="no"?>
<svg xmlns:dc="http://purl.org/dc/elements/1.1/" xmlns:cc="http://creativecommons.org/ns#" xmlns:rdf="http://www.w3.org/1999/02/22-rdf-syntax-ns#" xmlns:svg="http://www.w3.org/2000/svg" xmlns="http://www.w3.org/2000/svg" version="1.1" width="9.250mm" height="4.282mm" viewBox="-4.625 -2.141 9.250 4.282" id="svg6">
  <metadata id="metadata12">
    <rdf:RDF>
      <cc:Work rdf:about="">
        <dc:format>image/svg+xml</dc:format>
        <dc:type rdf:resource="http://purl.org/dc/dcmitype/StillImage"/>
      </cc:Work>
    </rdf:RDF>
  </metadata>
  <defs id="defs10"/>
  <rect x="-4.500" y="-2.016" width="9.000" height="4.032" fill="#f0f0ff" stroke="#000099" stroke-width="0.250" rx="0.500" ry="0.500" id="rect2"/>
  <g aria-label="LOW" id="text4" style="font-weight:bold;font-size:3.048px;font-family:'Proxima Nova';dominant-baseline:middle;text-anchor:middle;fill:#000099">
    <path d="m -3.0909102,1.102092 h 1.292352 V 0.72109202 h -0.859536 v -1.65201606 h -0.432816 z" style="font-weight:bold;font-size:3.048px;font-family:'Proxima Nova';dominant-baseline:middle;text-anchor:middle;fill:#000099" id="path14"/>
    <path d="m -1.6763524,0.087108 c 0,0.61264801 0.448056,1.05156 1.06070399,1.05156 0.615696019169,0 1.06375203,-0.43891199 1.06375203,-1.05156 0,-0.61264802 -0.448056010831,-1.05156004 -1.06375203,-1.05156004 -0.61264799,0 -1.06070399,0.43891202 -1.06070399,1.05156004 z m 1.67944801,0 c 0,0.37795201 -0.24384001,0.66751202 -0.61874402,0.66751202 -0.37490401,0 -0.61569599,-0.28956001 -0.61569599,-0.66751202 0,-0.38100002 0.24079198,-0.66751203 0.61569599,-0.66751203 0.37490401,0 0.61874402,0.28651201 0.61874402,0.66751203 z" style="font-weight:bold;font-size:3.048px;font-family:'Proxima Nova';dominant-baseline:middle;text-anchor:middle;fill:#000099" id="path16"/>
    <path d="m 2.2497575,1.102092 h 0.460248 l 0.57912,-2.03301604 h -0.48768 L 2.4478775,0.53821201 2.0638295,-0.93092404 H 1.7255015 L 1.3384054,0.53821201 0.98178943,-0.93092404 H 0.49715742 L 1.0793254,1.102092 h 0.4602481 l 0.353568,-1.39598402 z" style="font-weight:bold;font-size:3.048px;font-family:'Proxima Nova';dominant-baseline:middle;text-anchor:middle;fill:#000099" id="path18"/>
  </g>
</svg>
