<?xml version="1.0" encoding="UTF-8" standalone="no"?>
<svg xmlns="http://www.w3.org/2000/svg" xmlns:svg="http://www.w3.org/2000/svg" version="1.1" width="9.250mm" height="4.282mm" viewBox="-4.625 -2.141 9.250 4.282">
  <defs/>
  <rect x="-4.500" y="-2.016" width="9.000" height="4.032" fill="#f0f0ff" stroke="#000099" stroke-width="0.250" rx="0.500" ry="0.500"/>
  <g style="font-weight:bold;font-size:3.048px;font-family:'Proxima Nova';dominant-baseline:middle;text-anchor:middle;fill:#000099">
    <path d="M -0.50482502,0.48944401 V -0.32437202 H -1.8642331 v 0.24384001 h 1.11252008 v 0.56997602 z" style="font-weight:bold;font-size:3.048px;font-family:'Proxima Nova';dominant-baseline:middle;text-anchor:middle;fill:#000099"/>
    <path d="m 1.847088,0.087108 c 0,-0.61264802 -0.448056,-1.05156004 -1.06375203,-1.05156004 -0.61264802,0 -1.06070403,0.43891202 -1.06070403,1.05156004 0,0.61264801 0.44805601,1.05156 1.06070403,1.05156 0.176784,0 0.34137603,-0.036576 0.48463203,-0.103632 L 1.429512,1.22706 1.731264,0.98017202 1.581912,0.80643602 C 1.749552,0.62355601 1.847088,0.37362 1.847088,0.087108 Z M 0.78333597,0.75462002 c -0.37490401,0 -0.61569602,-0.28956001 -0.61569602,-0.66751202 0,-0.38100002 0.24079201,-0.66751203 0.61569602,-0.66751203 0.37490403,0 0.61874403,0.28651201 0.61874403,0.66751203 0,0.146304 -0.036576,0.280416 -0.103632,0.38709601 L 1.0668,0.202932 0.76504797,0.44677201 0.99669598,0.71804402 c -0.064008,0.024384 -0.13716001,0.036576 -0.21336001,0.036576 z" style="font-weight:bold;font-size:3.048px;font-family:'Proxima Nova';dominant-baseline:middle;text-anchor:middle;fill:#000099"/>
  </g>
</svg>
