<?xml version="1.0" encoding="UTF-8" standalone="no"?>
<svg xmlns="http://www.w3.org/2000/svg" xmlns:svg="http://www.w3.org/2000/svg" version="1.1" viewBox="-4.625000 -2.141000 9.250000 4.282000" height="4.282000mm" width="9.250000mm">
  <defs/>
  <g>
    <rect x="-4.5" y="-2.016" width="9" height="4.032" rx="0.5" ry="0.5" fill="#f0f0ff" stroke="#000099" stroke-width="0.25"/>
    <g style="font-weight:bold;font-size:3.048px;font-family:'Proxima Nova';dominant-baseline:middle;text-anchor:middle;fill:#000099">
      <path d="M -0.50482502,0.48920401 V -0.32461202 H -1.8642331 v 0.24384001 h 1.11252008 v 0.56997602 z" style="font-weight:bold;font-size:3.048px;font-family:'Proxima Nova';dominant-baseline:middle;text-anchor:middle;fill:#000099"/>
      <path d="m 1.847088,0.086868 c 0,-0.61264802 -0.448056,-1.05156004 -1.06375203,-1.05156004 -0.61264802,0 -1.06070403,0.43891202 -1.06070403,1.05156004 0,0.61264802 0.44805601,1.05156 1.06070403,1.05156 0.176784,0 0.34137603,-0.036576 0.48463203,-0.103632 L 1.429512,1.22682 1.731264,0.97993203 1.581912,0.80619602 C 1.749552,0.62331601 1.847088,0.37338001 1.847088,0.086868 Z M 0.78333597,0.75438002 c -0.37490401,0 -0.61569602,-0.28956001 -0.61569602,-0.66751202 0,-0.38100001 0.24079201,-0.66751202 0.61569602,-0.66751202 0.37490403,0 0.61874403,0.28651201 0.61874403,0.66751202 0,0.146304 -0.036576,0.28041601 -0.103632,0.38709601 L 1.0668,0.202692 0.76504797,0.44653201 0.99669598,0.71780402 c -0.064008,0.024384 -0.13716001,0.036576 -0.21336001,0.036576 z" style="font-weight:bold;font-size:3.048px;font-family:'Proxima Nova';dominant-baseline:middle;text-anchor:middle;fill:#000099"/>
    </g>
  </g>
</svg>
