<?xml version="1.0" encoding="UTF-8" standalone="no"?>
<svg
   xmlns:dc="http://purl.org/dc/elements/1.1/"
   xmlns:cc="http://creativecommons.org/ns#"
   xmlns:rdf="http://www.w3.org/1999/02/22-rdf-syntax-ns#"
   xmlns:svg="http://www.w3.org/2000/svg"
   xmlns="http://www.w3.org/2000/svg"
   id="svg86"
   height="379.42913385826773"
   width="165.0"
   version="1.1">
  <metadata
     id="metadata92">
    <rdf:RDF>
      <cc:Work
         rdf:about="">
        <dc:format>image/svg+xml</dc:format>
        <dc:type
           rdf:resource="http://purl.org/dc/dcmitype/StillImage" />
      </cc:Work>
    </rdf:RDF>
  </metadata>
  <defs
     id="defs90" />
  <g
     id="g84"
     transform="scale(2.9527559)">
    <path
       id="rect2"
       d="M 0,0 H 55.880001 V 128.5 H 0 Z"
       style="fill:#f7f0ff;stroke:#4c0099;stroke-width:1" />
    <g
       id="text4"
       style="font-weight:bold;font-size:4.06400013px;font-family:'Proxima Nova';text-anchor:middle;fill:#4c0099"
       aria-label="XYNCHROTRON">
      <path
         id="path95"
         style="font-weight:bold;font-size:4.06400013px;font-family:'Proxima Nova';text-anchor:middle;fill:#4c0099"
         d="m 14.609064,9 h 0.69088 L 14.316456,7.606048 15.238984,6.2893119 H 14.54404 l -0.613664,0.926592 -0.621792,-0.926592 H 12.621768 L 13.544296,7.610112 12.560808,9 h 0.686816 l 0.682752,-0.991616 z" />
      <path
         id="path97"
         style="font-weight:bold;font-size:4.06400013px;font-family:'Proxima Nova';text-anchor:middle;fill:#4c0099"
         d="m 16.311753,9 h 0.577088 V 7.890528 l 1.03632,-1.6012161 h -0.658368 l -0.666496,1.089152 -0.674624,-1.089152 h -0.658368 l 1.044448,1.6012161 z" />
      <path
         id="path99"
         style="font-weight:bold;font-size:4.06400013px;font-family:'Proxima Nova';text-anchor:middle;fill:#4c0099"
         d="m 20.044664,9 h 0.556768 V 6.2893119 H 20.024344 V 7.992128 L 18.768568,6.2893119 H 18.175224 V 9 h 0.577088 V 7.2321599 Z" />
      <path
         id="path101"
         style="font-weight:bold;font-size:4.06400013px;font-family:'Proxima Nova';text-anchor:middle;fill:#4c0099"
         d="m 22.448583,9.048768 c 0.597408,0 0.938784,-0.329184 1.133856,-0.666496 L 23.086631,8.142496 c -0.113792,0.22352 -0.357632,0.394208 -0.638048,0.394208 -0.491744,0 -0.849376,-0.377952 -0.849376,-0.890016 0,-0.5120641 0.357632,-0.8900161 0.849376,-0.8900161 0.280416,0 0.524256,0.174752 0.638048,0.394208 l 0.495808,-0.24384 c -0.191008,-0.337312 -0.536448,-0.662432 -1.133856,-0.662432 -0.8128,0 -1.44272,0.56896 -1.44272,1.4020801 0,0.83312 0.62992,1.40208 1.44272,1.40208 z" />
      <path
         id="path103"
         style="font-weight:bold;font-size:4.06400013px;font-family:'Proxima Nova';text-anchor:middle;fill:#4c0099"
         d="m 25.78716,9 h 0.581152 V 6.2893119 H 25.78716 v 1.064768 H 24.507 V 6.2893119 H 23.929912 V 9 H 24.507 V 7.86208 h 1.28016 z" />
      <path
         id="path105"
         style="font-weight:bold;font-size:4.06400013px;font-family:'Proxima Nova';text-anchor:middle;fill:#4c0099"
         d="m 28.430665,9 h 0.662432 l -0.6096,-1.032256 c 0.292608,-0.069088 0.593344,-0.32512 0.593344,-0.8046721 0,-0.503936 -0.34544,-0.87376 -0.910336,-0.87376 H 26.898537 V 9 h 0.577088 V 8.036832 h 0.422656 z m 0.0569,-1.8369281 c 0,0.227584 -0.174752,0.3657601 -0.4064,0.3657601 H 27.475625 V 6.7973119 h 0.605536 c 0.231648,0 0.4064,0.138176 0.4064,0.36576 z" />
      <path
         id="path107"
         style="font-weight:bold;font-size:4.06400013px;font-family:'Proxima Nova';text-anchor:middle;fill:#4c0099"
         d="m 29.379927,7.646688 c 0,0.816864 0.597408,1.40208 1.414272,1.40208 0.820928,0 1.418336,-0.585216 1.418336,-1.40208 0,-0.8168641 -0.597408,-1.4020801 -1.418336,-1.4020801 -0.816864,0 -1.414272,0.585216 -1.414272,1.4020801 z m 2.239264,0 c 0,0.503936 -0.32512,0.890016 -0.824992,0.890016 -0.499872,0 -0.820928,-0.38608 -0.820928,-0.890016 0,-0.5080001 0.321056,-0.8900161 0.820928,-0.8900161 0.499872,0 0.824992,0.382016 0.824992,0.8900161 z" />
      <path
         id="path109"
         style="font-weight:bold;font-size:4.06400013px;font-family:'Proxima Nova';text-anchor:middle;fill:#4c0099"
         d="m 33.152081,9 h 0.581152 V 6.7973119 h 0.788416 v -0.508 h -2.162048 v 0.508 h 0.79248 z" />
      <path
         id="path111"
         style="font-weight:bold;font-size:4.06400013px;font-family:'Proxima Nova';text-anchor:middle;fill:#4c0099"
         d="m 36.423727,9 h 0.662432 l -0.6096,-1.032256 c 0.292608,-0.069088 0.593344,-0.32512 0.593344,-0.8046721 0,-0.503936 -0.34544,-0.87376 -0.910336,-0.87376 H 34.891599 V 9 h 0.577088 V 8.036832 h 0.422656 z m 0.0569,-1.8369281 c 0,0.227584 -0.174752,0.3657601 -0.4064,0.3657601 H 35.468687 V 6.7973119 h 0.605536 c 0.231648,0 0.4064,0.138176 0.4064,0.36576 z" />
      <path
         id="path113"
         style="font-weight:bold;font-size:4.06400013px;font-family:'Proxima Nova';text-anchor:middle;fill:#4c0099"
         d="m 37.37299,7.646688 c 0,0.816864 0.597408,1.40208 1.414272,1.40208 0.820928,0 1.418336,-0.585216 1.418336,-1.40208 0,-0.8168641 -0.597408,-1.4020801 -1.418336,-1.4020801 -0.816864,0 -1.414272,0.585216 -1.414272,1.4020801 z m 2.239264,0 c 0,0.503936 -0.32512,0.890016 -0.824992,0.890016 -0.499872,0 -0.820928,-0.38608 -0.820928,-0.890016 0,-0.5080001 0.321056,-0.8900161 0.820928,-0.8900161 0.499872,0 0.824992,0.382016 0.824992,0.8900161 z" />
      <path
         id="path115"
         style="font-weight:bold;font-size:4.06400013px;font-family:'Proxima Nova';text-anchor:middle;fill:#4c0099"
         d="m 42.483978,9 h 0.556768 V 6.2893119 H 42.463658 V 7.992128 L 41.207882,6.2893119 H 40.614538 V 9 h 0.577088 V 7.2321599 Z" />
    </g>
    <g
       id="text6"
       style="font-weight:bold;font-size:4.06400013px;font-family:'Proxima Nova';dominant-baseline:hanging;text-anchor:middle;fill:#4c0099"
       aria-label="DHE">
      <path
         id="path118"
         style="font-weight:bold;font-size:4.06400013px;font-family:'Proxima Nova';dominant-baseline:hanging;text-anchor:middle;fill:#4c0099"
         d="m 24.076756,122.06845 h 1.068832 c 0.849376,0 1.438656,-0.53645 1.438656,-1.35331 0,-0.81687 -0.58928,-1.35738 -1.438656,-1.35738 h -1.068832 z m 0.577088,-0.508 v -1.69469 h 0.491744 c 0.556768,0 0.849376,0.36982 0.849376,0.84938 0,0.45923 -0.312928,0.84531 -0.849376,0.84531 z" />
      <path
         id="path120"
         style="font-weight:bold;font-size:4.06400013px;font-family:'Proxima Nova';dominant-baseline:hanging;text-anchor:middle;fill:#4c0099"
         d="m 28.855004,122.06845 h 0.581152 v -2.71069 h -0.581152 v 1.06477 h -1.28016 v -1.06477 h -0.577088 v 2.71069 h 0.577088 v -1.13792 h 1.28016 z" />
      <path
         id="path122"
         style="font-weight:bold;font-size:4.06400013px;font-family:'Proxima Nova';dominant-baseline:hanging;text-anchor:middle;fill:#4c0099"
         d="m 29.966381,122.06845 h 1.918208 v -0.508 h -1.34112 v -0.61367 h 1.312672 v -0.508 h -1.312672 v -0.57302 h 1.34112 v -0.508 h -1.918208 z" />
    </g>
    <path
       id="line8"
       d="M 7.9828572,22 H 34.592381"
       style="stroke:#4c0099;stroke-width:0.34999999" />
    <g
       id="text10"
       style="font-weight:bold;font-size:2.37066674px;font-family:'Proxima Nova';text-anchor:middle;fill:#4c0099"
       aria-label="CV">
      <path
         id="path126"
         style="font-weight:bold;font-size:2.37066674px;font-family:'Proxima Nova';text-anchor:middle;fill:#4c0099"
         d="m 7.2844736,16.828447 c 0.348488,0 0.547624,-0.192024 0.661416,-0.388789 L 7.6566683,16.299789 c -0.066379,0.130386 -0.2086187,0.229954 -0.3721947,0.229954 -0.2868507,0 -0.4954693,-0.220472 -0.4954693,-0.519176 0,-0.298704 0.2086186,-0.519176 0.4954693,-0.519176 0.163576,0 0.305816,0.101939 0.3721947,0.229955 l 0.2892213,-0.14224 c -0.1114213,-0.196765 -0.312928,-0.386419 -0.661416,-0.386419 -0.4741333,0 -0.8415867,0.331894 -0.8415867,0.81788 0,0.485987 0.3674534,0.81788 0.8415867,0.81788 z" />
      <path
         id="path128"
         style="font-weight:bold;font-size:2.37066674px;font-family:'Proxima Nova';text-anchor:middle;fill:#4c0099"
         d="M 8.5826359,16.799999 H 9.0046145 L 9.6138759,15.218765 H 9.2298279 L 8.7936252,16.434917 8.3550519,15.218765 H 7.9710038 Z" />
    </g>
    <g
       id="text14"
       style="font-weight:bold;font-size:3.0480001px;font-family:'Proxima Nova';text-anchor:middle;fill:#4c0099"
       aria-label="-  +">
      <path
         id="path131"
         style="font-size:larger"
         d="m 18.989903,16.812371 h 0.877824 V 16.41735 h -0.877824 z" />
      <path
         id="path133"
         style="font-size:larger"
         d="m 22.934625,16.410035 h 0.65471 v -0.28895 h -0.65471 v -0.713232 h -0.318211 v 0.713232 h -0.658368 v 0.28895 h 0.658368 v 0.742493 h 0.318211 z" />
    </g>
    <g
       id="text16"
       style="font-weight:bold;font-size:3.0480001px;font-family:'Proxima Nova';text-anchor:middle;fill:#4c0099"
       aria-label="ROCK">
      <path
         id="path136"
         style="font-weight:bold;font-size:3.0480001px;font-family:'Proxima Nova';text-anchor:middle;fill:#4c0099"
         d="m 31.778433,14.65 h 0.496825 l -0.457201,-0.774192 c 0.219457,-0.05182 0.445009,-0.24384 0.445009,-0.603504 0,-0.377952 -0.25908,-0.65532 -0.682753,-0.65532 H 30.629337 V 14.65 h 0.432816 v -0.722376 h 0.316992 z m 0.04267,-1.377696 c 0,0.170688 -0.131064,0.27432 -0.3048,0.27432 h -0.454152 v -0.54864 h 0.454152 c 0.173736,0 0.3048,0.103632 0.3048,0.27432 z" />
      <path
         id="path138"
         style="font-weight:bold;font-size:3.0480001px;font-family:'Proxima Nova';text-anchor:middle;fill:#4c0099"
         d="m 32.49038,13.635016 c 0,0.612648 0.448056,1.05156 1.060704,1.05156 0.615696,0 1.063752,-0.438912 1.063752,-1.05156 0,-0.612648 -0.448056,-1.05156 -1.063752,-1.05156 -0.612648,0 -1.060704,0.438912 -1.060704,1.05156 z m 1.679448,0 c 0,0.377952 -0.24384,0.667512 -0.618744,0.667512 -0.374904,0 -0.615696,-0.28956 -0.615696,-0.667512 0,-0.381 0.240792,-0.667512 0.615696,-0.667512 0.374904,0 0.618744,0.286512 0.618744,0.667512 z" />
      <path
         id="path140"
         style="font-weight:bold;font-size:3.0480001px;font-family:'Proxima Nova';text-anchor:middle;fill:#4c0099"
         d="m 35.906045,14.686576 c 0.448056,0 0.704088,-0.246888 0.850392,-0.499872 l -0.371856,-0.179832 c -0.08534,0.16764 -0.268224,0.295656 -0.478536,0.295656 -0.368808,0 -0.637032,-0.283464 -0.637032,-0.667512 0,-0.384048 0.268224,-0.667512 0.637032,-0.667512 0.210312,0 0.393192,0.131064 0.478536,0.295656 l 0.371856,-0.18288 c -0.143256,-0.252984 -0.402336,-0.496824 -0.850392,-0.496824 -0.6096,0 -1.08204,0.42672 -1.08204,1.05156 0,0.62484 0.47244,1.05156 1.08204,1.05156 z" />
      <path
         id="path142"
         style="font-weight:bold;font-size:3.0480001px;font-family:'Proxima Nova';text-anchor:middle;fill:#4c0099"
         d="m 38.224049,14.65 h 0.5334 l -0.862584,-1.078992 0.80772,-0.954024 h -0.5334 l -0.719328,0.908304 V 12.616984 H 37.017041 V 14.65 h 0.432816 v -0.62484 l 0.158496,-0.188976 z" />
    </g>
    <g
       id="text18"
       style="font-weight:bold;font-size:2.37066674px;font-family:'Proxima Nova';text-anchor:middle;fill:#4c0099"
       aria-label="TO">
      <path
         id="path145"
         style="font-weight:bold;font-size:2.37066674px;font-family:'Proxima Nova';text-anchor:middle;fill:#4c0099"
         d="m 46.84905,17.825001 h 0.339006 v -1.284902 h 0.459909 V 16.243766 H 46.38677 v 0.296333 h 0.46228 z" />
      <path
         id="path147"
         style="font-weight:bold;font-size:2.37066674px;font-family:'Proxima Nova';text-anchor:middle;fill:#4c0099"
         d="m 47.732346,17.035569 c 0,0.476504 0.348488,0.81788 0.824992,0.81788 0.478875,0 0.827363,-0.341376 0.827363,-0.81788 0,-0.476504 -0.348488,-0.81788 -0.827363,-0.81788 -0.476504,0 -0.824992,0.341376 -0.824992,0.81788 z m 1.306237,0 c 0,0.293962 -0.189653,0.519176 -0.481245,0.519176 -0.291592,0 -0.478875,-0.225214 -0.478875,-0.519176 0,-0.296334 0.187283,-0.519176 0.478875,-0.519176 0.291592,0 0.481245,0.222842 0.481245,0.519176 z" />
    </g>
    <g
       id="text20"
       style="font-weight:bold;font-size:2.37066674px;font-family:'Proxima Nova';dominant-baseline:hanging;text-anchor:middle;fill:#4c0099"
       aria-label="FRO">
      <path
         id="path150"
         style="font-weight:bold;font-size:2.37066674px;font-family:'Proxima Nova';dominant-baseline:hanging;text-anchor:middle;fill:#4c0099"
         d="m 45.708408,27.673261 h 0.336634 v -0.654304 h 0.765726 v -0.296334 h -0.765726 v -0.334264 h 0.78232 v -0.296333 h -1.118954 z" />
      <path
         id="path152"
         style="font-weight:bold;font-size:2.37066674px;font-family:'Proxima Nova';dominant-baseline:hanging;text-anchor:middle;fill:#4c0099"
         d="m 47.95417,27.673261 h 0.386419 l -0.3556,-0.60215 c 0.170688,-0.0403 0.346117,-0.189653 0.346117,-0.469392 0,-0.293962 -0.201507,-0.509693 -0.531029,-0.509693 h -0.739648 v 1.581235 h 0.336634 v -0.561848 h 0.24655 z m 0.03319,-1.071542 c 0,0.132758 -0.101938,0.21336 -0.237066,0.21336 h -0.35323 v -0.42672 h 0.35323 c 0.135128,0 0.237066,0.0806 0.237066,0.21336 z" />
      <path
         id="path154"
         style="font-weight:bold;font-size:2.37066674px;font-family:'Proxima Nova';dominant-baseline:hanging;text-anchor:middle;fill:#4c0099"
         d="m 48.507906,26.883829 c 0,0.476504 0.348488,0.81788 0.824992,0.81788 0.478875,0 0.827363,-0.341376 0.827363,-0.81788 0,-0.476504 -0.348488,-0.81788 -0.827363,-0.81788 -0.476504,0 -0.824992,0.341376 -0.824992,0.81788 z m 1.306237,0 c 0,0.293962 -0.189653,0.519176 -0.481245,0.519176 -0.291592,0 -0.478875,-0.225214 -0.478875,-0.519176 0,-0.296334 0.187283,-0.519176 0.478875,-0.519176 0.291592,0 0.481245,0.222842 0.481245,0.519176 z" />
    </g>
    <path
       id="line22"
       d="M 7.9828572,40.5 H 47.897144"
       style="stroke:#4c0099;stroke-width:0.34999999" />
    <g
       id="text24"
       style="font-weight:bold;font-size:2.37066674px;font-family:'Proxima Nova';text-anchor:middle;fill:#4c0099"
       aria-label="CV">
      <path
         id="path158"
         style="font-weight:bold;font-size:2.37066674px;font-family:'Proxima Nova';text-anchor:middle;fill:#4c0099"
         d="m 7.2844736,35.328447 c 0.348488,0 0.547624,-0.192024 0.661416,-0.388789 L 7.6566683,34.799789 c -0.066379,0.130386 -0.2086187,0.229954 -0.3721947,0.229954 -0.2868507,0 -0.4954693,-0.220472 -0.4954693,-0.519176 0,-0.298704 0.2086186,-0.519176 0.4954693,-0.519176 0.163576,0 0.305816,0.101939 0.3721947,0.229955 l 0.2892213,-0.14224 c -0.1114213,-0.196765 -0.312928,-0.386419 -0.661416,-0.386419 -0.4741333,0 -0.8415867,0.331894 -0.8415867,0.81788 0,0.485987 0.3674534,0.81788 0.8415867,0.81788 z" />
      <path
         id="path160"
         style="font-weight:bold;font-size:2.37066674px;font-family:'Proxima Nova';text-anchor:middle;fill:#4c0099"
         d="M 8.5826359,35.299999 H 9.0046145 L 9.6138759,33.718765 H 9.2298279 L 8.7936252,34.934917 8.3550519,33.718765 H 7.9710038 Z" />
    </g>
    <g
       id="text28"
       style="font-weight:bold;font-size:3.0480001px;font-family:'Proxima Nova';text-anchor:middle;fill:#4c0099"
       aria-label="-  +">
      <path
         id="path163"
         style="font-size:larger"
         d="m 18.989903,35.312371 h 0.877824 V 34.91735 h -0.877824 z" />
      <path
         id="path165"
         style="font-size:larger"
         d="m 22.934625,34.910035 h 0.65471 v -0.28895 h -0.65471 v -0.713232 h -0.318211 v 0.713232 h -0.658368 v 0.28895 h 0.658368 v 0.742493 h 0.318211 z" />
    </g>
    <g
       id="text30"
       style="font-weight:bold;font-size:3.0480001px;font-family:'Proxima Nova';text-anchor:middle;fill:#4c0099"
       aria-label="ROLL">
      <path
         id="path168"
         style="font-weight:bold;font-size:3.0480001px;font-family:'Proxima Nova';text-anchor:middle;fill:#4c0099"
         d="m 32.201105,33.150002 h 0.496824 l -0.4572,-0.774192 c 0.219456,-0.05182 0.445008,-0.243841 0.445008,-0.603505 0,-0.377952 -0.25908,-0.65532 -0.682752,-0.65532 h -0.950976 v 2.033017 h 0.432816 v -0.722376 h 0.316992 z m 0.04267,-1.377697 c 0,0.170688 -0.131064,0.27432 -0.3048,0.27432 h -0.454152 v -0.54864 h 0.454152 c 0.173736,0 0.3048,0.103632 0.3048,0.27432 z" />
      <path
         id="path170"
         style="font-weight:bold;font-size:3.0480001px;font-family:'Proxima Nova';text-anchor:middle;fill:#4c0099"
         d="m 32.913052,32.135017 c 0,0.612649 0.448056,1.051561 1.060704,1.051561 0.615696,0 1.063752,-0.438912 1.063752,-1.051561 0,-0.612648 -0.448056,-1.05156 -1.063752,-1.05156 -0.612648,0 -1.060704,0.438912 -1.060704,1.05156 z m 1.679448,0 c 0,0.377953 -0.24384,0.667513 -0.618744,0.667513 -0.374904,0 -0.615696,-0.28956 -0.615696,-0.667513 0,-0.381 0.240792,-0.667512 0.615696,-0.667512 0.374904,0 0.618744,0.286512 0.618744,0.667512 z" />
      <path
         id="path172"
         style="font-weight:bold;font-size:3.0480001px;font-family:'Proxima Nova';text-anchor:middle;fill:#4c0099"
         d="m 35.344213,33.150002 h 1.292352 v -0.381 h -0.859536 v -1.652017 h -0.432816 z" />
      <path
         id="path174"
         style="font-weight:bold;font-size:3.0480001px;font-family:'Proxima Nova';text-anchor:middle;fill:#4c0099"
         d="m 36.93965,33.150002 h 1.292352 v -0.381 H 37.372466 V 31.116985 H 36.93965 Z" />
    </g>
    <g
       id="text32"
       style="font-weight:bold;font-size:2.37066674px;font-family:'Proxima Nova';text-anchor:middle;fill:#4c0099"
       aria-label="OUTSIDE">
      <path
         id="path177"
         style="font-weight:bold;font-size:2.37066674px;font-family:'Proxima Nova';text-anchor:middle;fill:#4c0099"
         d="m 42.942395,35.535569 c 0,0.476504 0.348488,0.81788 0.824992,0.81788 0.478875,0 0.827363,-0.341376 0.827363,-0.81788 0,-0.476504 -0.348488,-0.81788 -0.827363,-0.81788 -0.476504,0 -0.824992,0.341376 -0.824992,0.81788 z m 1.306238,0 c 0,0.293962 -0.189654,0.519176 -0.481246,0.519176 -0.291592,0 -0.478874,-0.225214 -0.478874,-0.519176 0,-0.296334 0.187282,-0.519176 0.478874,-0.519176 0.291592,0 0.481246,0.222842 0.481246,0.519176 z" />
      <path
         id="path179"
         style="font-weight:bold;font-size:2.37066674px;font-family:'Proxima Nova';text-anchor:middle;fill:#4c0099"
         d="m 44.833298,35.694403 c 0,0.38879 0.232326,0.659046 0.713571,0.659046 0.481245,0 0.713571,-0.267886 0.713571,-0.661416 v -0.948267 h -0.343747 v 0.938784 c 0,0.220472 -0.125645,0.372195 -0.369824,0.372195 -0.244179,0 -0.372195,-0.151723 -0.372195,-0.372195 v -0.938784 h -0.341376 z" />
      <path
         id="path181"
         style="font-weight:bold;font-size:2.37066674px;font-family:'Proxima Nova';text-anchor:middle;fill:#4c0099"
         d="m 46.934709,36.325001 h 0.339006 v -1.284902 h 0.459909 v -0.296333 h -1.261195 v 0.296333 h 0.46228 z" />
      <path
         id="path183"
         style="font-weight:bold;font-size:2.37066674px;font-family:'Proxima Nova';text-anchor:middle;fill:#4c0099"
         d="m 47.824228,36.102158 c 0.146981,0.149352 0.365082,0.251291 0.668528,0.251291 0.42672,0 0.632968,-0.218102 0.632968,-0.507323 0,-0.357971 -0.331894,-0.436203 -0.592667,-0.49784 -0.170688,-0.0403 -0.315299,-0.07349 -0.315299,-0.175429 0,-0.09483 0.0806,-0.158835 0.225214,-0.158835 0.161205,0 0.331893,0.05453 0.459909,0.173059 l 0.187283,-0.24655 c -0.156464,-0.14461 -0.365083,-0.220472 -0.616374,-0.220472 -0.372194,0 -0.599778,0.218102 -0.599778,0.481246 0,0.360341 0.331893,0.431461 0.590296,0.490728 0.173058,0.04267 0.32004,0.07586 0.32004,0.192024 0,0.09009 -0.09009,0.175429 -0.274998,0.175429 -0.218101,0 -0.39116,-0.0972 -0.502581,-0.21336 z" />
      <path
         id="path185"
         style="font-weight:bold;font-size:2.37066674px;font-family:'Proxima Nova';text-anchor:middle;fill:#4c0099"
         d="m 49.352382,36.325001 h 0.336634 v -1.581235 h -0.336634 z" />
      <path
         id="path187"
         style="font-weight:bold;font-size:2.37066674px;font-family:'Proxima Nova';text-anchor:middle;fill:#4c0099"
         d="m 50.000611,36.325001 h 0.623485 c 0.495469,0 0.839216,-0.312928 0.839216,-0.789432 0,-0.476504 -0.343747,-0.791803 -0.839216,-0.791803 h -0.623485 z m 0.336634,-0.296334 v -0.988568 h 0.286851 c 0.324781,0 0.495469,0.215731 0.495469,0.49547 0,0.267885 -0.182541,0.493098 -0.495469,0.493098 z" />
      <path
         id="path189"
         style="font-weight:bold;font-size:2.37066674px;font-family:'Proxima Nova';text-anchor:middle;fill:#4c0099"
         d="m 51.704527,36.325001 h 1.118955 v -0.296334 h -0.78232 v -0.35797 h 0.765725 v -0.296334 h -0.765725 v -0.334264 h 0.78232 v -0.296333 h -1.118955 z" />
    </g>
    <g
       id="text34"
       style="font-weight:bold;font-size:2.37066674px;font-family:'Proxima Nova';dominant-baseline:hanging;text-anchor:middle;fill:#4c0099"
       aria-label="INSIDE">
      <path
         id="path192"
         style="font-weight:bold;font-size:2.37066674px;font-family:'Proxima Nova';dominant-baseline:hanging;text-anchor:middle;fill:#4c0099"
         d="m 44.286934,46.173261 h 0.336634 v -1.581235 h -0.336634 z" />
      <path
         id="path194"
         style="font-weight:bold;font-size:2.37066674px;font-family:'Proxima Nova';dominant-baseline:hanging;text-anchor:middle;fill:#4c0099"
         d="m 46.02567,46.173261 h 0.324781 v -1.581235 h -0.336635 v 0.993309 L 45.28128,44.592026 h -0.346117 v 1.581235 h 0.336635 v -1.03124 z" />
      <path
         id="path196"
         style="font-weight:bold;font-size:2.37066674px;font-family:'Proxima Nova';dominant-baseline:hanging;text-anchor:middle;fill:#4c0099"
         d="m 46.555551,45.950418 c 0.146981,0.149352 0.365082,0.251291 0.668528,0.251291 0.42672,0 0.632968,-0.218102 0.632968,-0.507323 0,-0.357971 -0.331894,-0.436203 -0.592667,-0.49784 -0.170688,-0.0403 -0.315299,-0.07349 -0.315299,-0.175429 0,-0.09483 0.0806,-0.158835 0.225214,-0.158835 0.161205,0 0.331893,0.05452 0.459909,0.173059 l 0.187283,-0.24655 c -0.156464,-0.14461 -0.365083,-0.220472 -0.616374,-0.220472 -0.372194,0 -0.599778,0.218102 -0.599778,0.481246 0,0.360341 0.331893,0.431461 0.590296,0.490728 0.173058,0.04267 0.32004,0.07586 0.32004,0.192024 0,0.09008 -0.09009,0.175429 -0.274998,0.175429 -0.218101,0 -0.39116,-0.0972 -0.502581,-0.21336 z" />
      <path
         id="path198"
         style="font-weight:bold;font-size:2.37066674px;font-family:'Proxima Nova';dominant-baseline:hanging;text-anchor:middle;fill:#4c0099"
         d="m 48.083705,46.173261 h 0.336634 v -1.581235 h -0.336634 z" />
      <path
         id="path200"
         style="font-weight:bold;font-size:2.37066674px;font-family:'Proxima Nova';dominant-baseline:hanging;text-anchor:middle;fill:#4c0099"
         d="m 48.731934,46.173261 h 0.623485 c 0.49547,0 0.839216,-0.312928 0.839216,-0.789432 0,-0.476504 -0.343746,-0.791803 -0.839216,-0.791803 h -0.623485 z m 0.336635,-0.296334 v -0.988568 h 0.28685 c 0.324782,0 0.49547,0.215731 0.49547,0.49547 0,0.267885 -0.182542,0.493098 -0.49547,0.493098 z" />
      <path
         id="path202"
         style="font-weight:bold;font-size:2.37066674px;font-family:'Proxima Nova';dominant-baseline:hanging;text-anchor:middle;fill:#4c0099"
         d="m 50.43585,46.173261 h 1.118955 v -0.296334 h -0.78232 v -0.35797 h 0.765725 v -0.296334 h -0.765725 v -0.334264 h 0.78232 V 44.592026 H 50.43585 Z" />
    </g>
    <path
       id="line36"
       d="M 7.9828572,59 H 34.592381"
       style="stroke:#4c0099;stroke-width:0.34999999" />
    <g
       id="text38"
       style="font-weight:bold;font-size:2.37066674px;font-family:'Proxima Nova';text-anchor:middle;fill:#4c0099"
       aria-label="CV">
      <path
         id="path206"
         style="font-weight:bold;font-size:2.37066674px;font-family:'Proxima Nova';text-anchor:middle;fill:#4c0099"
         d="m 7.2844736,53.828447 c 0.348488,0 0.547624,-0.192024 0.661416,-0.388789 L 7.6566683,53.299789 c -0.066379,0.130386 -0.2086187,0.229954 -0.3721947,0.229954 -0.2868507,0 -0.4954693,-0.220472 -0.4954693,-0.519176 0,-0.298704 0.2086186,-0.519176 0.4954693,-0.519176 0.163576,0 0.305816,0.101939 0.3721947,0.229955 l 0.2892213,-0.14224 c -0.1114213,-0.196765 -0.312928,-0.386419 -0.661416,-0.386419 -0.4741333,0 -0.8415867,0.331894 -0.8415867,0.81788 0,0.485987 0.3674534,0.81788 0.8415867,0.81788 z" />
      <path
         id="path208"
         style="font-weight:bold;font-size:2.37066674px;font-family:'Proxima Nova';text-anchor:middle;fill:#4c0099"
         d="M 8.5826359,53.799999 H 9.0046145 L 9.6138759,52.218765 H 9.2298279 L 8.7936252,53.434917 8.3550519,52.218765 H 7.9710038 Z" />
    </g>
    <g
       id="text42"
       style="font-weight:bold;font-size:3.0480001px;font-family:'Proxima Nova';text-anchor:middle;fill:#4c0099"
       aria-label="-  +">
      <path
         id="path211"
         style="font-size:larger"
         d="m 18.989903,53.812371 h 0.877824 V 53.41735 h -0.877824 z" />
      <path
         id="path213"
         style="font-size:larger"
         d="m 22.934625,53.410035 h 0.65471 v -0.28895 h -0.65471 v -0.713232 h -0.318211 v 0.713232 h -0.658368 v 0.28895 h 0.658368 v 0.742493 h 0.318211 z" />
    </g>
    <g
       id="text44"
       style="font-weight:bold;font-size:3.0480001px;font-family:'Proxima Nova';text-anchor:middle;fill:#4c0099"
       aria-label="CURL">
      <path
         id="path216"
         style="font-weight:bold;font-size:3.0480001px;font-family:'Proxima Nova';text-anchor:middle;fill:#4c0099"
         d="m 31.837084,51.686578 c 0.448056,0 0.704088,-0.246888 0.850392,-0.499872 L 32.31562,51.006874 c -0.08534,0.16764 -0.268224,0.295656 -0.478536,0.295656 -0.368808,0 -0.637032,-0.283464 -0.637032,-0.667513 0,-0.384048 0.268224,-0.667512 0.637032,-0.667512 0.210312,0 0.393192,0.131064 0.478536,0.295656 l 0.371856,-0.18288 c -0.143256,-0.252984 -0.402336,-0.496824 -0.850392,-0.496824 -0.6096,0 -1.08204,0.42672 -1.08204,1.05156 0,0.624841 0.47244,1.051561 1.08204,1.051561 z" />
      <path
         id="path218"
         style="font-weight:bold;font-size:3.0480001px;font-family:'Proxima Nova';text-anchor:middle;fill:#4c0099"
         d="m 32.94808,50.839234 c 0,0.499872 0.298704,0.847344 0.917448,0.847344 0.618744,0 0.917448,-0.344424 0.917448,-0.850393 v -1.2192 h -0.44196 v 1.207008 c 0,0.283465 -0.161544,0.478537 -0.475488,0.478537 -0.313944,0 -0.478536,-0.195072 -0.478536,-0.478537 V 49.616985 H 32.94808 Z" />
      <path
         id="path220"
         style="font-weight:bold;font-size:3.0480001px;font-family:'Proxima Nova';text-anchor:middle;fill:#4c0099"
         d="m 36.329598,51.650002 h 0.496824 l -0.4572,-0.774192 c 0.219456,-0.05182 0.445008,-0.243841 0.445008,-0.603505 0,-0.377952 -0.25908,-0.65532 -0.682752,-0.65532 h -0.950976 v 2.033017 h 0.432816 v -0.722376 h 0.316992 z m 0.04267,-1.377697 c 0,0.170688 -0.131064,0.27432 -0.3048,0.27432 h -0.454152 v -0.54864 h 0.454152 c 0.173736,0 0.3048,0.103632 0.3048,0.27432 z" />
      <path
         id="path222"
         style="font-weight:bold;font-size:3.0480001px;font-family:'Proxima Nova';text-anchor:middle;fill:#4c0099"
         d="m 37.13908,51.650002 h 1.292352 v -0.381 H 37.571896 V 49.616985 H 37.13908 Z" />
    </g>
    <path
       id="line46"
       d="M 7.9828572,77.5 H 34.592381"
       style="stroke:#4c0099;stroke-width:0.34999999" />
    <g
       id="text48"
       style="font-weight:bold;font-size:2.37066674px;font-family:'Proxima Nova';text-anchor:middle;fill:#4c0099"
       aria-label="CV">
      <path
         id="path226"
         style="font-weight:bold;font-size:2.37066674px;font-family:'Proxima Nova';text-anchor:middle;fill:#4c0099"
         d="m 7.2844736,72.328451 c 0.348488,0 0.547624,-0.192024 0.661416,-0.388789 l -0.2892213,-0.13987 c -0.066379,0.130387 -0.2086187,0.229955 -0.3721947,0.229955 -0.2868507,0 -0.4954693,-0.220472 -0.4954693,-0.519176 0,-0.298704 0.2086186,-0.519176 0.4954693,-0.519176 0.163576,0 0.305816,0.101939 0.3721947,0.229955 l 0.2892213,-0.14224 c -0.1114213,-0.196766 -0.312928,-0.386419 -0.661416,-0.386419 -0.4741333,0 -0.8415867,0.331893 -0.8415867,0.81788 0,0.485987 0.3674534,0.81788 0.8415867,0.81788 z" />
      <path
         id="path228"
         style="font-weight:bold;font-size:2.37066674px;font-family:'Proxima Nova';text-anchor:middle;fill:#4c0099"
         d="M 8.5826359,72.300003 H 9.0046145 L 9.6138759,70.718768 H 9.2298279 L 8.7936252,71.93492 8.3550519,70.718768 H 7.9710038 Z" />
    </g>
    <g
       id="text52"
       style="font-weight:bold;font-size:3.0480001px;font-family:'Proxima Nova';text-anchor:middle;fill:#4c0099"
       aria-label="-  +">
      <path
         id="path231"
         style="font-size:larger"
         d="m 18.989903,72.312371 h 0.877824 V 71.91735 h -0.877824 z" />
      <path
         id="path233"
         style="font-size:larger"
         d="m 22.934625,71.910035 h 0.65471 v -0.28895 h -0.65471 v -0.713232 h -0.318211 v 0.713232 h -0.658368 v 0.28895 h 0.658368 v 0.742493 h 0.318211 z" />
    </g>
    <g
       id="text54"
       style="font-weight:bold;font-size:3.0480001px;font-family:'Proxima Nova';text-anchor:middle;fill:#4c0099"
       aria-label="ZING">
      <path
         id="path236"
         style="font-weight:bold;font-size:3.0480001px;font-family:'Proxima Nova';text-anchor:middle;fill:#4c0099"
         d="m 31.19317,70.150002 h 1.548384 v -0.381 h -0.981456 l 0.96012,-1.304545 V 68.116985 H 31.19317 v 0.381 h 0.96012 l -0.96012,1.301497 z" />
      <path
         id="path238"
         style="font-weight:bold;font-size:3.0480001px;font-family:'Proxima Nova';text-anchor:middle;fill:#4c0099"
         d="m 33.070119,70.150002 h 0.432816 v -2.033017 h -0.432816 z" />
      <path
         id="path240"
         style="font-weight:bold;font-size:3.0480001px;font-family:'Proxima Nova';text-anchor:middle;fill:#4c0099"
         d="m 35.305636,70.150002 h 0.417576 v -2.033017 h -0.432816 v 1.277113 l -0.941832,-1.277113 h -0.445008 v 2.033017 h 0.432816 v -1.325881 z" />
      <path
         id="path242"
         style="font-weight:bold;font-size:3.0480001px;font-family:'Proxima Nova';text-anchor:middle;fill:#4c0099"
         d="m 36.026536,69.135017 c 0,0.640081 0.48768,1.054609 1.08204,1.054609 0.368808,0 0.658368,-0.1524 0.865632,-0.384048 v -0.780289 h -0.969264 v 0.377953 h 0.536448 v 0.24384 c -0.0823,0.0762 -0.252984,0.155448 -0.432816,0.155448 -0.368808,0 -0.637032,-0.283464 -0.637032,-0.667513 0,-0.384048 0.268224,-0.667512 0.637032,-0.667512 0.216408,0 0.390144,0.12192 0.481584,0.265176 l 0.359664,-0.195072 c -0.1524,-0.240792 -0.417576,-0.454152 -0.841248,-0.454152 -0.59436,0 -1.08204,0.408432 -1.08204,1.05156 z" />
    </g>
    <path
       id="line56"
       d="M 7.9828572,97 H 47.897144"
       style="stroke:#4c0099;stroke-width:0.34999999" />
    <g
       id="text58"
       style="font-weight:bold;font-size:2.37066674px;font-family:'Proxima Nova';text-anchor:middle;fill:#4c0099"
       aria-label="CV">
      <path
         id="path246"
         style="font-weight:bold;font-size:2.37066674px;font-family:'Proxima Nova';text-anchor:middle;fill:#4c0099"
         d="m 7.2844736,91.828451 c 0.348488,0 0.547624,-0.192024 0.661416,-0.388789 l -0.2892213,-0.13987 c -0.066379,0.130387 -0.2086187,0.229955 -0.3721947,0.229955 -0.2868507,0 -0.4954693,-0.220472 -0.4954693,-0.519176 0,-0.298704 0.2086186,-0.519176 0.4954693,-0.519176 0.163576,0 0.305816,0.101939 0.3721947,0.229955 l 0.2892213,-0.14224 c -0.1114213,-0.196766 -0.312928,-0.386419 -0.661416,-0.386419 -0.4741333,0 -0.8415867,0.331893 -0.8415867,0.81788 0,0.485987 0.3674534,0.81788 0.8415867,0.81788 z" />
      <path
         id="path248"
         style="font-weight:bold;font-size:2.37066674px;font-family:'Proxima Nova';text-anchor:middle;fill:#4c0099"
         d="M 8.5826359,91.800003 H 9.0046145 L 9.6138759,90.218768 H 9.2298279 L 8.7936252,91.43492 8.3550519,90.218768 H 7.9710038 Z" />
    </g>
    <g
       id="text60"
       style="font-weight:bold;font-size:2.37066674px;font-family:'Proxima Nova';text-anchor:middle;fill:#4c0099"
       aria-label="GAIN">
      <path
         id="path251"
         style="font-weight:bold;font-size:2.37066674px;font-family:'Proxima Nova';text-anchor:middle;fill:#4c0099"
         d="m 18.525273,91.010571 c 0,0.49784 0.379307,0.820251 0.841587,0.820251 0.286851,0 0.512064,-0.118534 0.673269,-0.298704 v -0.606891 h -0.753872 v 0.293963 h 0.417238 v 0.189653 c -0.06401,0.05927 -0.196766,0.120904 -0.336635,0.120904 -0.286851,0 -0.495469,-0.220472 -0.495469,-0.519176 0,-0.298704 0.208618,-0.519176 0.495469,-0.519176 0.168317,0 0.303445,0.09483 0.374565,0.206248 l 0.279739,-0.151723 c -0.118533,-0.187282 -0.324781,-0.353229 -0.654304,-0.353229 -0.46228,0 -0.841587,0.317669 -0.841587,0.81788 z" />
      <path
         id="path253"
         style="font-weight:bold;font-size:2.37066674px;font-family:'Proxima Nova';text-anchor:middle;fill:#4c0099"
         d="m 21.381667,91.800003 h 0.384048 l -0.609261,-1.581235 h -0.421979 l -0.611632,1.581235 h 0.384048 l 0.09957,-0.267885 h 0.678011 z m -0.436202,-1.2446 0.246549,0.680381 h -0.493099 z" />
      <path
         id="path255"
         style="font-weight:bold;font-size:2.37066674px;font-family:'Proxima Nova';text-anchor:middle;fill:#4c0099"
         d="m 21.911733,91.800003 h 0.336635 v -1.581235 h -0.336635 z" />
      <path
         id="path257"
         style="font-weight:bold;font-size:2.37066674px;font-family:'Proxima Nova';text-anchor:middle;fill:#4c0099"
         d="m 23.65047,91.800003 h 0.324781 v -1.581235 h -0.336635 v 0.99331 l -0.732536,-0.99331 h -0.346117 v 1.581235 h 0.336635 v -1.03124 z" />
    </g>
    <g
       id="text62"
       style="font-weight:bold;font-size:2.37066674px;font-family:'Proxima Nova';text-anchor:middle;fill:#4c0099"
       aria-label="UNI">
      <path
         id="path260"
         style="font-weight:bold;font-size:2.37066674px;font-family:'Proxima Nova';text-anchor:middle;fill:#4c0099"
         d="m 32.693032,92.1944 c 0,0.388789 0.232325,0.659045 0.713571,0.659045 0.481245,0 0.71357,-0.267885 0.71357,-0.661416 v -0.948267 h -0.343746 v 0.938784 c 0,0.220472 -0.125646,0.372195 -0.369824,0.372195 -0.244179,0 -0.372195,-0.151723 -0.372195,-0.372195 v -0.938784 h -0.341376 z" />
      <path
         id="path262"
         style="font-weight:bold;font-size:2.37066674px;font-family:'Proxima Nova';text-anchor:middle;fill:#4c0099"
         d="m 35.519867,92.824997 h 0.324781 v -1.581235 h -0.336635 v 0.99331 l -0.732536,-0.99331 H 34.42936 v 1.581235 h 0.336635 v -1.03124 z" />
      <path
         id="path264"
         style="font-weight:bold;font-size:2.37066674px;font-family:'Proxima Nova';text-anchor:middle;fill:#4c0099"
         d="m 36.156428,92.824997 h 0.336634 v -1.581235 h -0.336634 z" />
    </g>
    <g
       id="text64"
       style="font-weight:bold;font-size:2.37066674px;font-family:'Proxima Nova';dominant-baseline:hanging;text-anchor:middle;fill:#4c0099"
       aria-label="BI">
      <path
         id="path267"
         style="font-weight:bold;font-size:2.37066674px;font-family:'Proxima Nova';dominant-baseline:hanging;text-anchor:middle;fill:#4c0099"
         d="m 33.63991,102.67326 h 0.858181 c 0.301075,0 0.459909,-0.18965 0.459909,-0.42672 0,-0.19913 -0.135128,-0.36271 -0.303445,-0.38878 0.149352,-0.0308 0.272627,-0.16358 0.272627,-0.36272 0,-0.21099 -0.154094,-0.40301 -0.455168,-0.40301 H 33.63991 Z m 0.336634,-0.94826 v -0.34375 h 0.421979 c 0.113792,0 0.184912,0.0735 0.184912,0.17306 0,0.0996 -0.07112,0.17069 -0.184912,0.17069 z m 0,0.65667 v -0.36745 h 0.433832 c 0.132758,0 0.203878,0.0853 0.203878,0.18491 0,0.11379 -0.07586,0.18254 -0.203878,0.18254 z" />
      <path
         id="path269"
         style="font-weight:bold;font-size:2.37066674px;font-family:'Proxima Nova';dominant-baseline:hanging;text-anchor:middle;fill:#4c0099"
         d="m 35.20955,102.67326 h 0.336635 v -1.58123 H 35.20955 Z" />
    </g>
    <path
       id="rect66"
       d="m 43.522144,89.044556 h 8.75 c 0.554,0 1,0.446 1,1 V 101.375 c 0,0.554 -0.446,1 -1,1 h -8.75 c -0.554,0 -1,-0.446 -1,-1 V 90.044556 c 0,-0.554 0.446,-1 1,-1 z"
       style="fill:#4c0099;stroke:#4c0099;stroke-width:0.34999999" />
    <g
       id="text68"
       style="font-weight:bold;font-size:2.37066674px;font-family:'Proxima Nova';text-anchor:middle;fill:#f7f0ff"
       aria-label="X OUT">
      <path
         id="path273"
         style="font-weight:bold;font-size:2.37066674px;font-family:'Proxima Nova';text-anchor:middle;fill:#f7f0ff"
         d="m 45.524218,91.800003 h 0.403013 l -0.573701,-0.813139 0.538141,-0.768096 h -0.405384 l -0.35797,0.540512 -0.362712,-0.540512 h -0.400643 l 0.538141,0.770467 -0.573701,0.810768 h 0.400643 l 0.398272,-0.578443 z" />
      <path
         id="path275"
         style="font-weight:bold;font-size:2.37066674px;font-family:'Proxima Nova';text-anchor:middle;fill:#f7f0ff"
         d="m 46.607205,91.010571 c 0,0.476504 0.348488,0.81788 0.824992,0.81788 0.478875,0 0.827363,-0.341376 0.827363,-0.81788 0,-0.476504 -0.348488,-0.81788 -0.827363,-0.81788 -0.476504,0 -0.824992,0.341376 -0.824992,0.81788 z m 1.306238,0 c 0,0.293963 -0.189654,0.519176 -0.481246,0.519176 -0.291592,0 -0.478874,-0.225213 -0.478874,-0.519176 0,-0.296333 0.187282,-0.519176 0.478874,-0.519176 0.291592,0 0.481246,0.222843 0.481246,0.519176 z" />
      <path
         id="path277"
         style="font-weight:bold;font-size:2.37066674px;font-family:'Proxima Nova';text-anchor:middle;fill:#f7f0ff"
         d="m 48.498108,91.169406 c 0,0.388789 0.232326,0.659045 0.713571,0.659045 0.481245,0 0.713571,-0.267885 0.713571,-0.661416 v -0.948267 h -0.343747 v 0.938784 c 0,0.220472 -0.125645,0.372195 -0.369824,0.372195 -0.244179,0 -0.372195,-0.151723 -0.372195,-0.372195 v -0.938784 h -0.341376 z" />
      <path
         id="path279"
         style="font-weight:bold;font-size:2.37066674px;font-family:'Proxima Nova';text-anchor:middle;fill:#f7f0ff"
         d="m 50.599519,91.800003 h 0.339005 v -1.284901 h 0.45991 v -0.296334 h -1.261195 v 0.296334 h 0.46228 z" />
    </g>
    <path
       id="line70"
       d="M 7.9828572,112 H 47.897144"
       style="stroke:#4c0099;stroke-width:0.34999999" />
    <g
       id="text72"
       style="font-weight:bold;font-size:2.37066674px;font-family:'Proxima Nova';text-anchor:middle;fill:#4c0099"
       aria-label="CV">
      <path
         id="path283"
         style="font-weight:bold;font-size:2.37066674px;font-family:'Proxima Nova';text-anchor:middle;fill:#4c0099"
         d="m 7.2844736,106.82845 c 0.348488,0 0.547624,-0.19202 0.661416,-0.38879 l -0.2892213,-0.13987 c -0.066379,0.13039 -0.2086187,0.22996 -0.3721947,0.22996 -0.2868507,0 -0.4954693,-0.22047 -0.4954693,-0.51918 0,-0.2987 0.2086186,-0.51917 0.4954693,-0.51917 0.163576,0 0.305816,0.10193 0.3721947,0.22995 l 0.2892213,-0.14224 c -0.1114213,-0.19677 -0.312928,-0.38642 -0.661416,-0.38642 -0.4741333,0 -0.8415867,0.33189 -0.8415867,0.81788 0,0.48599 0.3674534,0.81788 0.8415867,0.81788 z" />
      <path
         id="path285"
         style="font-weight:bold;font-size:2.37066674px;font-family:'Proxima Nova';text-anchor:middle;fill:#4c0099"
         d="m 8.5826359,106.8 h 0.4219786 l 0.6092614,-1.58123 h -0.384048 l -0.4362027,1.21615 -0.4385733,-1.21615 H 7.9710038 Z" />
    </g>
    <g
       id="text74"
       style="font-weight:bold;font-size:2.37066674px;font-family:'Proxima Nova';text-anchor:middle;fill:#4c0099"
       aria-label="GAIN">
      <path
         id="path288"
         style="font-weight:bold;font-size:2.37066674px;font-family:'Proxima Nova';text-anchor:middle;fill:#4c0099"
         d="m 18.525273,106.01057 c 0,0.49784 0.379307,0.82025 0.841587,0.82025 0.286851,0 0.512064,-0.11853 0.673269,-0.2987 v -0.60689 h -0.753872 v 0.29396 h 0.417238 v 0.18965 c -0.06401,0.0593 -0.196766,0.12091 -0.336635,0.12091 -0.286851,0 -0.495469,-0.22047 -0.495469,-0.51918 0,-0.2987 0.208618,-0.51917 0.495469,-0.51917 0.168317,0 0.303445,0.0948 0.374565,0.20624 l 0.279739,-0.15172 c -0.118533,-0.18728 -0.324781,-0.35323 -0.654304,-0.35323 -0.46228,0 -0.841587,0.31767 -0.841587,0.81788 z" />
      <path
         id="path290"
         style="font-weight:bold;font-size:2.37066674px;font-family:'Proxima Nova';text-anchor:middle;fill:#4c0099"
         d="m 21.381667,106.8 h 0.384048 l -0.609261,-1.58123 H 20.734475 L 20.122843,106.8 h 0.384048 l 0.09957,-0.26788 h 0.678011 z m -0.436202,-1.2446 0.246549,0.68038 h -0.493099 z" />
      <path
         id="path292"
         style="font-weight:bold;font-size:2.37066674px;font-family:'Proxima Nova';text-anchor:middle;fill:#4c0099"
         d="m 21.911733,106.8 h 0.336635 v -1.58123 h -0.336635 z" />
      <path
         id="path294"
         style="font-weight:bold;font-size:2.37066674px;font-family:'Proxima Nova';text-anchor:middle;fill:#4c0099"
         d="m 23.65047,106.8 h 0.324781 v -1.58123 h -0.336635 v 0.99331 L 22.90608,105.21877 H 22.559963 V 106.8 h 0.336635 v -1.03124 z" />
    </g>
    <g
       id="text76"
       style="font-weight:bold;font-size:2.37066674px;font-family:'Proxima Nova';text-anchor:middle;fill:#4c0099"
       aria-label="UNI">
      <path
         id="path297"
         style="font-weight:bold;font-size:2.37066674px;font-family:'Proxima Nova';text-anchor:middle;fill:#4c0099"
         d="m 32.693032,107.1944 c 0,0.38879 0.232325,0.65904 0.713571,0.65904 0.481245,0 0.71357,-0.26788 0.71357,-0.66141 v -0.94827 h -0.343746 v 0.93879 c 0,0.22047 -0.125646,0.37219 -0.369824,0.37219 -0.244179,0 -0.372195,-0.15172 -0.372195,-0.37219 v -0.93879 h -0.341376 z" />
      <path
         id="path299"
         style="font-weight:bold;font-size:2.37066674px;font-family:'Proxima Nova';text-anchor:middle;fill:#4c0099"
         d="m 35.519867,107.825 h 0.324781 v -1.58124 h -0.336635 v 0.99331 l -0.732536,-0.99331 H 34.42936 v 1.58124 h 0.336635 v -1.03124 z" />
      <path
         id="path301"
         style="font-weight:bold;font-size:2.37066674px;font-family:'Proxima Nova';text-anchor:middle;fill:#4c0099"
         d="m 36.156428,107.825 h 0.336634 v -1.58124 h -0.336634 z" />
    </g>
    <g
       id="text78"
       style="font-weight:bold;font-size:2.37066674px;font-family:'Proxima Nova';dominant-baseline:hanging;text-anchor:middle;fill:#4c0099"
       aria-label="BI">
      <path
         id="path304"
         style="font-weight:bold;font-size:2.37066674px;font-family:'Proxima Nova';dominant-baseline:hanging;text-anchor:middle;fill:#4c0099"
         d="m 33.63991,117.67326 h 0.858181 c 0.301075,0 0.459909,-0.18965 0.459909,-0.42672 0,-0.19913 -0.135128,-0.36271 -0.303445,-0.38878 0.149352,-0.0308 0.272627,-0.16358 0.272627,-0.36272 0,-0.21099 -0.154094,-0.40301 -0.455168,-0.40301 H 33.63991 Z m 0.336634,-0.94826 v -0.34375 h 0.421979 c 0.113792,0 0.184912,0.0735 0.184912,0.17306 0,0.0996 -0.07112,0.17069 -0.184912,0.17069 z m 0,0.65667 v -0.36745 h 0.433832 c 0.132758,0 0.203878,0.0853 0.203878,0.18491 0,0.11379 -0.07586,0.18254 -0.203878,0.18254 z" />
      <path
         id="path306"
         style="font-weight:bold;font-size:2.37066674px;font-family:'Proxima Nova';dominant-baseline:hanging;text-anchor:middle;fill:#4c0099"
         d="m 35.20955,117.67326 h 0.336635 v -1.58123 H 35.20955 Z" />
    </g>
    <path
       id="rect80"
       d="m 43.522144,104.04456 h 8.75 c 0.554,0 1,0.446 1,1 v 11.33045 c 0,0.554 -0.446,1 -1,1 h -8.75 c -0.554,0 -1,-0.446 -1,-1 v -11.33045 c 0,-0.554 0.446,-1 1,-1 z"
       style="fill:#4c0099;stroke:#4c0099;stroke-width:0.34999999" />
    <g
       id="text82"
       style="font-weight:bold;font-size:2.37066674px;font-family:'Proxima Nova';text-anchor:middle;fill:#f7f0ff"
       aria-label="Y OUT">
      <path
         id="path310"
         style="font-weight:bold;font-size:2.37066674px;font-family:'Proxima Nova';text-anchor:middle;fill:#f7f0ff"
         d="m 44.961703,106.8 h 0.336635 v -0.64719 l 0.60452,-0.93404 H 45.51881 l -0.388789,0.63534 -0.393531,-0.63534 h -0.384048 l 0.609261,0.93404 z" />
      <path
         id="path312"
         style="font-weight:bold;font-size:2.37066674px;font-family:'Proxima Nova';text-anchor:middle;fill:#f7f0ff"
         d="m 46.579424,106.01057 c 0,0.47651 0.348488,0.81788 0.824992,0.81788 0.478875,0 0.827363,-0.34137 0.827363,-0.81788 0,-0.4765 -0.348488,-0.81788 -0.827363,-0.81788 -0.476504,0 -0.824992,0.34138 -0.824992,0.81788 z m 1.306237,0 c 0,0.29396 -0.189653,0.51918 -0.481245,0.51918 -0.291592,0 -0.478875,-0.22522 -0.478875,-0.51918 0,-0.29633 0.187283,-0.51917 0.478875,-0.51917 0.291592,0 0.481245,0.22284 0.481245,0.51917 z" />
      <path
         id="path314"
         style="font-weight:bold;font-size:2.37066674px;font-family:'Proxima Nova';text-anchor:middle;fill:#f7f0ff"
         d="m 48.470327,106.16941 c 0,0.38879 0.232325,0.65904 0.713571,0.65904 0.481245,0 0.71357,-0.26788 0.71357,-0.66141 v -0.94827 h -0.343746 v 0.93878 c 0,0.22047 -0.125646,0.3722 -0.369824,0.3722 -0.244179,0 -0.372195,-0.15173 -0.372195,-0.3722 v -0.93878 h -0.341376 z" />
      <path
         id="path316"
         style="font-weight:bold;font-size:2.37066674px;font-family:'Proxima Nova';text-anchor:middle;fill:#f7f0ff"
         d="m 50.571738,106.8 h 0.339005 v -1.2849 h 0.45991 v -0.29633 h -1.261195 v 0.29633 h 0.46228 z" />
    </g>
  </g>
</svg>
