<?xml version="1.0" encoding="UTF-8" standalone="no"?>
<svg xmlns:dc="http://purl.org/dc/elements/1.1/" xmlns:cc="http://creativecommons.org/ns#" xmlns:rdf="http://www.w3.org/1999/02/22-rdf-syntax-ns#" xmlns:svg="http://www.w3.org/2000/svg" xmlns="http://www.w3.org/2000/svg" version="1.1" width="30.480mm" height="128.500mm" viewBox="0 0 30.480 128.500" id="svg176">
  <metadata id="metadata182">
    <rdf:RDF>
      <cc:Work rdf:about="">
        <dc:format>image/svg+xml</dc:format>
        <dc:type rdf:resource="http://purl.org/dc/dcmitype/StillImage"/>
      </cc:Work>
    </rdf:RDF>
  </metadata>
  <defs id="defs180"/>
  <g id="faceplate">
    <rect x="0.250" y="0.250" width="29.980" height="128.000" fill="#fffff0" stroke="#4d4d00" stroke-width="0.500" rx="0.000" ry="0.000" id="rect2"/>
    <g transform="translate(15.240,9.000)" id="g6">
      <g aria-label="RANGER" id="text4" style="font-weight:bold;font-size:4.064px;font-family:'Proxima Nova';dominant-baseline:alphabetic;text-anchor:middle;fill:#4d4d00">
        <path d="m -6.331617,0 h 0.6624321 L -6.278785,-1.032256 c 0.2926081,-0.069088 0.5933441,-0.32512 0.5933441,-0.8046721 0,-0.503936 -0.34544,-0.87376 -0.9103361,-0.87376 H -7.863745 V 0 h 0.577088 v -0.97129603 h 0.422656 z m 0.056896,-1.8409921 c 0,0.227584 -0.174752,0.3738881 -0.4064,0.3738881 h -0.605536 v -0.7477761 h 0.605536 c 0.231648,0 0.4064,0.146304 0.4064,0.373888 z" style="font-weight:bold;font-size:4.064px;font-family:'Proxima Nova';dominant-baseline:alphabetic;text-anchor:middle;fill:#4d4d00" id="path184"/>
        <path d="m -3.3544194,0 h 0.62992 l -1.044448,-2.7106881 h -0.723392 L -5.5408515,0 h 0.6339841 l 0.170688,-0.46736001 h 1.211072 z m -0.776224,-2.2108161 0.44704,1.24358407 h -0.898144 z" style="font-weight:bold;font-size:4.064px;font-family:'Proxima Nova';dominant-baseline:alphabetic;text-anchor:middle;fill:#4d4d00" id="path186"/>
        <path d="m -0.60474233,0 h 0.55676801 v -2.7106881 h -0.57708802 v 1.75564807 L -1.8808384,-2.7106881 h -0.593344 V 0 h 0.577088 v -1.8206721 z" style="font-weight:bold;font-size:4.064px;font-family:'Proxima Nova';dominant-baseline:alphabetic;text-anchor:middle;fill:#4d4d00" id="path188"/>
        <path d="m 0.35645724,-1.353312 c 0,0.85343998 0.65024006,1.406144 1.44272006,1.406144 0.491744,0 0.877824,-0.2032 1.154176,-0.51206401 V -1.495552 h -1.292352 v 0.49580797 h 0.723392 v 0.32918401 c -0.117856,0.105664 -0.337312,0.20726401 -0.585216,0.20726401 -0.491744,0 -0.84937604,-0.37795202 -0.84937604,-0.89001599 0,-0.5120641 0.35763204,-0.8900161 0.84937604,-0.8900161 0.28448,0 0.516128,0.150368 0.642112,0.341376 l 0.479552,-0.260096 c -0.207264,-0.321056 -0.560832,-0.593344 -1.121664,-0.593344 -0.79248,0 -1.44272006,0.544576 -1.44272006,1.4020801 z" style="font-weight:bold;font-size:4.064px;font-family:'Proxima Nova';dominant-baseline:alphabetic;text-anchor:middle;fill:#4d4d00" id="path190"/>
        <path d="m 3.4154432,0 h 1.918208 v -0.49987202 h -1.34112 V -1.129792 h 1.312672 v -0.4958081 h -1.312672 v -0.58928 h 1.34112 v -0.495808 h -1.918208 z" style="font-weight:bold;font-size:4.064px;font-family:'Proxima Nova';dominant-baseline:alphabetic;text-anchor:middle;fill:#4d4d00" id="path192"/>
        <path d="m 7.3208832,0 h 0.662432 l -0.6096,-1.032256 c 0.292608,-0.069088 0.593344,-0.32512 0.593344,-0.8046721 0,-0.503936 -0.34544,-0.87376 -0.910336,-0.87376 H 5.7887552 V 0 h 0.577088 v -0.97129603 h 0.422656 z m 0.056896,-1.8409921 c 0,0.227584 -0.174752,0.3738881 -0.4064,0.3738881 h -0.605536 v -0.7477761 h 0.605536 c 0.231648,0 0.4064,0.146304 0.4064,0.373888 z" style="font-weight:bold;font-size:4.064px;font-family:'Proxima Nova';dominant-baseline:alphabetic;text-anchor:middle;fill:#4d4d00" id="path194"/>
      </g>
    </g>
    <g transform="translate(15.240,119.500)" id="g10">
      <g aria-label="DHE" id="text8" style="font-weight:bold;font-size:4.064px;font-family:'Proxima Nova';dominant-baseline:hanging;text-anchor:middle;fill:#4d4d00">
        <path d="m -3.8632449,2.7584481 h 1.0688321 c 0.849376,0 1.438656,-0.5364481 1.438656,-1.3533121 0,-0.816864 -0.58928,-1.35737602 -1.438656,-1.35737602 H -3.8632449 Z M -3.2861569,2.250448 V 0.55575999 h 0.4917441 c 0.556768,0 0.849376,0.36982402 0.849376,0.84937601 0,0.459232 -0.312928,0.845312 -0.849376,0.845312 z" style="font-weight:bold;font-size:4.064px;font-family:'Proxima Nova';dominant-baseline:hanging;text-anchor:middle;fill:#4d4d00" id="path197"/>
        <path d="M 0.91500319,2.7584481 H 1.4961552 V 0.04775998 H 0.91500319 V 1.112528 H -0.36515685 V 0.04775998 H -0.94224487 V 2.7584481 h 0.57708802 V 1.620528 h 1.28016004 z" style="font-weight:bold;font-size:4.064px;font-family:'Proxima Nova';dominant-baseline:hanging;text-anchor:middle;fill:#4d4d00" id="path199"/>
        <path d="M 2.0263802,2.7584481 H 3.9445883 V 2.258576 H 2.6034682 V 1.628656 H 3.9161403 V 1.132848 H 2.6034682 V 0.54356799 H 3.9445883 V 0.04775998 H 2.0263802 Z" style="font-weight:bold;font-size:4.064px;font-family:'Proxima Nova';dominant-baseline:hanging;text-anchor:middle;fill:#4d4d00" id="path201"/>
      </g>
    </g>
    <line x1="0" y1="14.500" x2="30.480" y2="14.500" stroke="#4d4d00" stroke-width="0.350" id="line12"/>
    <g transform="translate(7.620,19.750)" id="g16">
      <g aria-label="LEVEL" id="text14" style="font-weight:bold;font-size:2.371px;font-family:'Proxima Nova';dominant-baseline:alphabetic;text-anchor:middle;fill:#4d4d00">
        <path d="m -3.2796117,0 h 1.005304 v -0.29637501 h -0.668622 V -1.581457 h -0.336682 z" style="font-weight:bold;font-size:2.371px;font-family:'Proxima Nova';dominant-baseline:alphabetic;text-anchor:middle;fill:#4d4d00" id="path204"/>
        <path d="m -2.0385413,0 h 1.11911199 V -0.29163301 H -1.7018593 v -0.367505 h 0.76583299 V -0.94840002 H -1.7018593 V -1.292195 h 0.78242999 V -1.581457 H -2.0385413 Z" style="font-weight:bold;font-size:2.371px;font-family:'Proxima Nova';dominant-baseline:alphabetic;text-anchor:middle;fill:#4d4d00" id="path206"/>
        <path d="M -0.21053734,0 H 0.21150067 L 0.82084768,-1.581457 H 0.43674567 L 4.8166107e-4,-0.36513401 -0.43815335,-1.581457 h -0.38410201 z" style="font-weight:bold;font-size:2.371px;font-family:'Proxima Nova';dominant-baseline:alphabetic;text-anchor:middle;fill:#4d4d00" id="path208"/>
        <path d="M 0.96688638,0 H 2.0859984 v -0.29163301 h -0.78243 v -0.367505 h 0.765833 V -0.94840002 H 1.3035684 V -1.292195 h 0.78243 V -1.581457 H 0.96688638 Z" style="font-weight:bold;font-size:2.371px;font-family:'Proxima Nova';dominant-baseline:alphabetic;text-anchor:middle;fill:#4d4d00" id="path210"/>
        <path d="m 2.3515137,0 h 1.005304 V -0.29637501 H 2.6881957 V -1.581457 h -0.336682 z" style="font-weight:bold;font-size:2.371px;font-family:'Proxima Nova';dominant-baseline:alphabetic;text-anchor:middle;fill:#4d4d00" id="path212"/>
      </g>
    </g>
    <rect x="17.660" y="17.970" width="10.400" height="12.980" fill="#4d4d00" stroke="#4d4d00" stroke-width="0.350" rx="1.000" ry="1.000" id="rect18"/>
    <g transform="translate(22.860,20.550)" id="g22">
      <g aria-label="OUT" id="text20" style="font-weight:bold;font-size:2.371px;font-family:'Proxima Nova';dominant-baseline:alphabetic;text-anchor:middle;fill:#fffff0">
        <path d="m -2.3806878,-0.78954302 c 0,0.47657101 0.348537,0.81799502 0.825108,0.81799502 0.478942,0 0.82747903,-0.34142401 0.82747903,-0.81799502 0,-0.47657098 -0.34853703,-0.81799498 -0.82747903,-0.81799498 -0.476571,0 -0.825108,0.341424 -0.825108,0.81799498 z m 1.306421,0 c 0,0.29400401 -0.18968,0.51924901 -0.481313,0.51924901 -0.291633,0 -0.478942,-0.225245 -0.478942,-0.51924901 0,-0.29637498 0.187309,-0.51924898 0.478942,-0.51924898 0.291633,0 0.481313,0.222874 0.481313,0.51924898 z" style="font-weight:bold;font-size:2.371px;font-family:'Proxima Nova';dominant-baseline:alphabetic;text-anchor:middle;fill:#fffff0" id="path215"/>
        <path d="m -0.48951892,-0.63068601 c 0,0.388844 0.22524501,0.65913801 0.70892902,0.65913801 0.47894201,0 0.70418701,-0.26792301 0.70418701,-0.66150901 V -1.581457 H 0.5821731 v 0.93891599 c 0,0.220503 -0.120921,0.372247 -0.362763,0.372247 -0.24658401,0 -0.36750501,-0.151744 -0.36750501,-0.372247 V -1.581457 h -0.34142401 z" style="font-weight:bold;font-size:2.371px;font-family:'Proxima Nova';dominant-baseline:alphabetic;text-anchor:middle;fill:#fffff0" id="path217"/>
        <path d="m 1.6029255,0 h 0.339053 v -1.285082 h 0.459974 v -0.296375 h -1.261372 v 0.296375 h 0.462345 z" style="font-weight:bold;font-size:2.371px;font-family:'Proxima Nova';dominant-baseline:alphabetic;text-anchor:middle;fill:#fffff0" id="path219"/>
      </g>
    </g>
    <g transform="translate(7.620,35.550)" id="g26">
      <g aria-label="CV" id="text24" style="font-weight:bold;font-size:2.371px;font-family:'Proxima Nova';dominant-baseline:alphabetic;text-anchor:middle;fill:#4d4d00">
        <path d="m -0.7103368,0.028452 c 0.36039201,0 0.55955602,-0.192051 0.67336402,-0.38884401 l -0.28926201,-0.139889 c -0.066388,0.130405 -0.208648,0.229987 -0.38410201,0.229987 -0.275036,0 -0.483684,-0.220503 -0.483684,-0.51924901 0,-0.29874598 0.208648,-0.51924898 0.483684,-0.51924898 0.17545401,0 0.31771401,0.101953 0.38410201,0.229987 l 0.28926201,-0.14226 c -0.111437,-0.196793 -0.31297201,-0.386473 -0.67336402,-0.386473 -0.462345,0 -0.82985,0.33194 -0.82985,0.81799498 0,0.48605501 0.367505,0.81799502 0.82985,0.81799502 z" style="font-weight:bold;font-size:2.371px;font-family:'Proxima Nova';dominant-baseline:alphabetic;text-anchor:middle;fill:#4d4d00" id="path222"/>
        <path d="M 0.59986305,0 H 1.0219011 l 0.609347,-1.581457 H 1.2471461 L 0.81088205,-0.36513401 0.37224704,-1.581457 h -0.384102 z" style="font-weight:bold;font-size:2.371px;font-family:'Proxima Nova';dominant-baseline:alphabetic;text-anchor:middle;fill:#4d4d00" id="path224"/>
      </g>
    </g>
    <g transform="translate(22.860,36.250)" id="g30">
      <g aria-label="- +" id="text28" style="font-weight:bold;font-size:3.048px;font-family:'Proxima Nova';dominant-baseline:alphabetic;text-anchor:middle;fill:#4d4d00">
        <path d="m -1.8969038,-0.57302402 h 0.73152 v -0.32918401 h -0.73152 z" style="font-weight:bold;font-size:3.048px;font-family:'Proxima Nova';dominant-baseline:alphabetic;text-anchor:middle;fill:#4d4d00" id="path227"/>
        <path d="m 1.3546456,-0.90830403 h 0.545592 V -1.149096 H 1.3546456 V -1.7434561 H 1.0894696 V -1.149096 H 0.54082954 v 0.24079197 H 1.0894696 v 0.61874402 h 0.265176 z" style="font-weight:bold;font-size:3.048px;font-family:'Proxima Nova';dominant-baseline:alphabetic;text-anchor:middle;fill:#4d4d00" id="path229"/>
      </g>
    </g>
    <line x1="0" y1="48.250" x2="30.480" y2="48.250" stroke="#4d4d00" stroke-width="0.350" id="line32"/>
    <g transform="translate(7.620,53.500)" id="g36">
      <g aria-label="CCW" id="text34" style="font-weight:bold;font-size:2.371px;font-family:'Proxima Nova';dominant-baseline:alphabetic;text-anchor:middle;fill:#4d4d00">
        <path d="m -1.7985888,0.028452 c 0.360392,0 0.559556,-0.192051 0.673364,-0.38884401 l -0.289262,-0.139889 c -0.066388,0.130405 -0.208648,0.229987 -0.384102,0.229987 -0.275036,0 -0.483684,-0.220503 -0.483684,-0.51924901 0,-0.29874598 0.208648,-0.51924898 0.483684,-0.51924898 0.175454,0 0.317714,0.101953 0.384102,0.229987 l 0.289262,-0.14226 c -0.111437,-0.196793 -0.312972,-0.386473 -0.673364,-0.386473 -0.462345,0 -0.82985,0.33194 -0.82985,0.81799498 0,0.48605501 0.367505,0.81799502 0.82985,0.81799502 z" style="font-weight:bold;font-size:2.371px;font-family:'Proxima Nova';dominant-baseline:alphabetic;text-anchor:middle;fill:#4d4d00" id="path232"/>
        <path d="m -0.16852619,0.028452 c 0.360392,0 0.55955601,-0.192051 0.67336401,-0.38884401 l -0.289262,-0.139889 c -0.066388,0.130405 -0.20864801,0.229987 -0.38410201,0.229987 -0.27503601,0 -0.48368401,-0.220503 -0.48368401,-0.51924901 0,-0.29874598 0.208648,-0.51924898 0.48368401,-0.51924898 0.175454,0 0.317714,0.101953 0.38410201,0.229987 l 0.289262,-0.14226 c -0.111437,-0.196793 -0.31297201,-0.386473 -0.67336401,-0.386473 -0.46234501,0 -0.82985002,0.33194 -0.82985002,0.81799498 0,0.48605501 0.36750501,0.81799502 0.82985002,0.81799502 z" style="font-weight:bold;font-size:2.371px;font-family:'Proxima Nova';dominant-baseline:alphabetic;text-anchor:middle;fill:#4d4d00" id="path234"/>
        <path d="m 1.8982449,0 h 0.358021 L 2.706756,-1.581457 H 2.327396 L 2.0523599,-0.43863501 1.7536139,-1.581457 H 1.4904329 L 1.1893159,-0.43863501 0.91190892,-1.581457 H 0.53491991 L 0.98778092,0 H 1.3458019 l 0.275036,-1.085918 z" style="font-weight:bold;font-size:2.371px;font-family:'Proxima Nova';dominant-baseline:alphabetic;text-anchor:middle;fill:#4d4d00" id="path236"/>
      </g>
    </g>
    <g transform="translate(22.860,53.500)" id="g40">
      <g aria-label="CW" id="text38" style="font-weight:bold;font-size:2.371px;font-family:'Proxima Nova';dominant-baseline:alphabetic;text-anchor:middle;fill:#4d4d00">
        <path d="m -0.98355751,0.028452 c 0.36039201,0 0.55955602,-0.192051 0.67336402,-0.38884401 l -0.28926201,-0.139889 c -0.066388,0.130405 -0.208648,0.229987 -0.38410201,0.229987 -0.27503599,0 -0.48368399,-0.220503 -0.48368399,-0.51924901 0,-0.29874598 0.208648,-0.51924898 0.48368399,-0.51924898 0.17545401,0 0.31771401,0.101953 0.38410201,0.229987 l 0.28926201,-0.14226 c -0.111437,-0.196793 -0.31297201,-0.386473 -0.67336402,-0.386473 -0.46234499,0 -0.82984999,0.33194 -0.82984999,0.81799498 0,0.48605501 0.367505,0.81799502 0.82984999,0.81799502 z" style="font-weight:bold;font-size:2.371px;font-family:'Proxima Nova';dominant-baseline:alphabetic;text-anchor:middle;fill:#4d4d00" id="path239"/>
        <path d="m 1.0832136,0 h 0.358021 l 0.45049,-1.581457 h -0.37936 L 1.2373286,-0.43863501 0.93858263,-1.581457 H 0.67540162 L 0.37428461,-0.43863501 0.09687761,-1.581457 H -0.2801114 L 0.17274961,0 h 0.35802101 l 0.275036,-1.085918 z" style="font-weight:bold;font-size:2.371px;font-family:'Proxima Nova';dominant-baseline:alphabetic;text-anchor:middle;fill:#4d4d00" id="path241"/>
      </g>
    </g>
    <g transform="translate(7.620,70.000)" id="g44">
      <g aria-label="- +" id="text42" style="font-weight:bold;font-size:3.048px;font-family:'Proxima Nova';dominant-baseline:alphabetic;text-anchor:middle;fill:#4d4d00">
        <path d="m -1.8969038,-0.57302402 h 0.73152 v -0.32918401 h -0.73152 z" style="font-weight:bold;font-size:3.048px;font-family:'Proxima Nova';dominant-baseline:alphabetic;text-anchor:middle;fill:#4d4d00" id="path244"/>
        <path d="m 1.3546456,-0.90830403 h 0.545592 V -1.149096 H 1.3546456 V -1.7434561 H 1.0894696 V -1.149096 H 0.54082954 v 0.24079197 H 1.0894696 v 0.61874402 h 0.265176 z" style="font-weight:bold;font-size:3.048px;font-family:'Proxima Nova';dominant-baseline:alphabetic;text-anchor:middle;fill:#4d4d00" id="path246"/>
      </g>
    </g>
    <g transform="translate(22.860,70.000)" id="g48">
      <g aria-label="- +" id="text46" style="font-weight:bold;font-size:3.048px;font-family:'Proxima Nova';dominant-baseline:alphabetic;text-anchor:middle;fill:#4d4d00">
        <path d="m -1.8969038,-0.57302402 h 0.73152 v -0.32918401 h -0.73152 z" style="font-weight:bold;font-size:3.048px;font-family:'Proxima Nova';dominant-baseline:alphabetic;text-anchor:middle;fill:#4d4d00" id="path249"/>
        <path d="m 1.3546456,-0.90830403 h 0.545592 V -1.149096 H 1.3546456 V -1.7434561 H 1.0894696 V -1.149096 H 0.54082954 v 0.24079197 H 1.0894696 v 0.61874402 h 0.265176 z" style="font-weight:bold;font-size:3.048px;font-family:'Proxima Nova';dominant-baseline:alphabetic;text-anchor:middle;fill:#4d4d00" id="path251"/>
      </g>
    </g>
    <g transform="translate(7.620,84.300)" id="g52">
      <g aria-label="CV" id="text50" style="font-weight:bold;font-size:2.371px;font-family:'Proxima Nova';dominant-baseline:alphabetic;text-anchor:middle;fill:#4d4d00">
        <path d="m -0.7103368,0.028452 c 0.36039201,0 0.55955602,-0.192051 0.67336402,-0.38884401 l -0.28926201,-0.139889 c -0.066388,0.130405 -0.208648,0.229987 -0.38410201,0.229987 -0.275036,0 -0.483684,-0.220503 -0.483684,-0.51924901 0,-0.29874598 0.208648,-0.51924898 0.483684,-0.51924898 0.17545401,0 0.31771401,0.101953 0.38410201,0.229987 l 0.28926201,-0.14226 c -0.111437,-0.196793 -0.31297201,-0.386473 -0.67336402,-0.386473 -0.462345,0 -0.82985,0.33194 -0.82985,0.81799498 0,0.48605501 0.367505,0.81799502 0.82985,0.81799502 z" style="font-weight:bold;font-size:2.371px;font-family:'Proxima Nova';dominant-baseline:alphabetic;text-anchor:middle;fill:#4d4d00" id="path254"/>
        <path d="M 0.59986305,0 H 1.0219011 l 0.609347,-1.581457 H 1.2471461 L 0.81088205,-0.36513401 0.37224704,-1.581457 h -0.384102 z" style="font-weight:bold;font-size:2.371px;font-family:'Proxima Nova';dominant-baseline:alphabetic;text-anchor:middle;fill:#4d4d00" id="path256"/>
      </g>
    </g>
    <g transform="translate(22.860,84.300)" id="g56">
      <g aria-label="CV" id="text54" style="font-weight:bold;font-size:2.371px;font-family:'Proxima Nova';dominant-baseline:alphabetic;text-anchor:middle;fill:#4d4d00">
        <path d="m -0.7103368,0.028452 c 0.36039201,0 0.55955602,-0.192051 0.67336402,-0.38884401 l -0.28926201,-0.139889 c -0.066388,0.130405 -0.208648,0.229987 -0.38410201,0.229987 -0.275036,0 -0.483684,-0.220503 -0.483684,-0.51924901 0,-0.29874598 0.208648,-0.51924898 0.483684,-0.51924898 0.17545401,0 0.31771401,0.101953 0.38410201,0.229987 l 0.28926201,-0.14226 c -0.111437,-0.196793 -0.31297201,-0.386473 -0.67336402,-0.386473 -0.462345,0 -0.82985,0.33194 -0.82985,0.81799498 0,0.48605501 0.367505,0.81799502 0.82985,0.81799502 z" style="font-weight:bold;font-size:2.371px;font-family:'Proxima Nova';dominant-baseline:alphabetic;text-anchor:middle;fill:#4d4d00" id="path259"/>
        <path d="M 0.59986305,0 H 1.0219011 l 0.609347,-1.581457 H 1.2471461 L 0.81088205,-0.36513401 0.37224704,-1.581457 h -0.384102 z" style="font-weight:bold;font-size:2.371px;font-family:'Proxima Nova';dominant-baseline:alphabetic;text-anchor:middle;fill:#4d4d00" id="path261"/>
      </g>
    </g>
    <g transform="translate(7.620,108.500)" id="g60">
      <g aria-label="BI" id="text58" style="font-weight:bold;font-size:2.371px;font-family:'Proxima Nova';dominant-baseline:hanging;text-anchor:middle;fill:#4d4d00">
        <path d="m -0.95260484,1.609472 h 0.85830202 c 0.301117,0 0.45997401,-0.18968 0.45997401,-0.42678 0,-0.19916404 -0.13514701,-0.36276304 -0.30348801,-0.38884404 0.149373,-0.030823 0.27266501,-0.163599 0.27266501,-0.36276301 0,-0.211019 -0.15411501,-0.40307001 -0.45523201,-0.40307001 H -0.95260484 Z M -0.61592283,0.66344296 V 0.31490595 h 0.42203801 c 0.113808,0 0.184938,0.075872 0.184938,0.173083 0,0.101953 -0.07113,0.17545401 -0.184938,0.17545401 z m 0,0.65913804 V 0.95033396 h 0.43389301 c 0.132776,0 0.203906,0.085356 0.203906,0.18493804 0,0.113808 -0.075872,0.187309 -0.203906,0.187309 z" style="font-weight:bold;font-size:2.371px;font-family:'Proxima Nova';dominant-baseline:hanging;text-anchor:middle;fill:#4d4d00" id="path264"/>
        <path d="M 0.61725657,1.609472 H 0.95393858 V 0.02801494 H 0.61725657 Z" style="font-weight:bold;font-size:2.371px;font-family:'Proxima Nova';dominant-baseline:hanging;text-anchor:middle;fill:#4d4d00" id="path266"/>
      </g>
    </g>
    <g transform="translate(7.620,100.500)" id="g64">
      <g aria-label="UNI" id="text62" style="font-weight:bold;font-size:2.371px;font-family:'Proxima Nova';dominant-baseline:alphabetic;text-anchor:middle;fill:#4d4d00">
        <path d="m -1.8949847,-0.63068601 c 0,0.388844 0.225245,0.65913801 0.708929,0.65913801 0.47894198,0 0.70418699,-0.26792301 0.70418699,-0.66150901 V -1.581457 h -0.34142401 v 0.93891599 c 0,0.220503 -0.120921,0.372247 -0.36276298,0.372247 -0.246584,0 -0.367505,-0.151744 -0.367505,-0.372247 V -1.581457 h -0.341424 z" style="font-weight:bold;font-size:2.371px;font-family:'Proxima Nova';dominant-baseline:alphabetic;text-anchor:middle;fill:#4d4d00" id="path269"/>
        <path d="M 0.92298582,0 H 1.2478128 V -1.581457 H 0.91113082 v 1.02427199 L 0.1784918,-1.581457 H -0.16767421 V 0 H 0.1690078 v -1.062208 z" style="font-weight:bold;font-size:2.371px;font-family:'Proxima Nova';dominant-baseline:alphabetic;text-anchor:middle;fill:#4d4d00" id="path271"/>
        <path d="m 1.5596363,0 h 0.336682 v -1.581457 h -0.336682 z" style="font-weight:bold;font-size:2.371px;font-family:'Proxima Nova';dominant-baseline:alphabetic;text-anchor:middle;fill:#4d4d00" id="path273"/>
      </g>
    </g>
    <g transform="translate(22.860,108.500)" id="g68">
      <g aria-label="BI" id="text66" style="font-weight:bold;font-size:2.371px;font-family:'Proxima Nova';dominant-baseline:hanging;text-anchor:middle;fill:#4d4d00">
        <path d="m -0.95260484,1.609472 h 0.85830202 c 0.301117,0 0.45997401,-0.18968 0.45997401,-0.42678 0,-0.19916404 -0.13514701,-0.36276304 -0.30348801,-0.38884404 0.149373,-0.030823 0.27266501,-0.163599 0.27266501,-0.36276301 0,-0.211019 -0.15411501,-0.40307001 -0.45523201,-0.40307001 H -0.95260484 Z M -0.61592283,0.66344296 V 0.31490595 h 0.42203801 c 0.113808,0 0.184938,0.075872 0.184938,0.173083 0,0.101953 -0.07113,0.17545401 -0.184938,0.17545401 z m 0,0.65913804 V 0.95033396 h 0.43389301 c 0.132776,0 0.203906,0.085356 0.203906,0.18493804 0,0.113808 -0.075872,0.187309 -0.203906,0.187309 z" style="font-weight:bold;font-size:2.371px;font-family:'Proxima Nova';dominant-baseline:hanging;text-anchor:middle;fill:#4d4d00" id="path276"/>
        <path d="M 0.61725657,1.609472 H 0.95393858 V 0.02801494 H 0.61725657 Z" style="font-weight:bold;font-size:2.371px;font-family:'Proxima Nova';dominant-baseline:hanging;text-anchor:middle;fill:#4d4d00" id="path278"/>
      </g>
    </g>
    <g transform="translate(22.860,100.500)" id="g72">
      <g aria-label="UNI" id="text70" style="font-weight:bold;font-size:2.371px;font-family:'Proxima Nova';dominant-baseline:alphabetic;text-anchor:middle;fill:#4d4d00">
        <path d="m -1.8949847,-0.63068601 c 0,0.388844 0.225245,0.65913801 0.708929,0.65913801 0.47894198,0 0.70418699,-0.26792301 0.70418699,-0.66150901 V -1.581457 h -0.34142401 v 0.93891599 c 0,0.220503 -0.120921,0.372247 -0.36276298,0.372247 -0.246584,0 -0.367505,-0.151744 -0.367505,-0.372247 V -1.581457 h -0.341424 z" style="font-weight:bold;font-size:2.371px;font-family:'Proxima Nova';dominant-baseline:alphabetic;text-anchor:middle;fill:#4d4d00" id="path281"/>
        <path d="M 0.92298582,0 H 1.2478128 V -1.581457 H 0.91113082 v 1.02427199 L 0.1784918,-1.581457 H -0.16767421 V 0 H 0.1690078 v -1.062208 z" style="font-weight:bold;font-size:2.371px;font-family:'Proxima Nova';dominant-baseline:alphabetic;text-anchor:middle;fill:#4d4d00" id="path283"/>
        <path d="m 1.5596363,0 h 0.336682 v -1.581457 h -0.336682 z" style="font-weight:bold;font-size:2.371px;font-family:'Proxima Nova';dominant-baseline:alphabetic;text-anchor:middle;fill:#4d4d00" id="path285"/>
      </g>
    </g>
    <line x1="0" y1="113.500" x2="30.480" y2="113.500" stroke="#4d4d00" stroke-width="0.350" id="line74"/>
    <line x1="15.240" y1="48.250" x2="15.240" y2="113.500" stroke="#4d4d00" stroke-width="0.350" id="line76"/>
  </g>
  <g id="overlay">
    <g transform="translate(7.620,25.750)" id="g83">
      <circle cx="0" cy="0" r="5.000" fill="#4d4d00" stroke="none" stroke-width="0" id="circle79"/>
      <line x1="0" y1="0" x2="0" y2="-4.375" stroke="#fffff0" stroke-width="0.625" stroke-linecap="round" id="line81"/>
    </g>
    <g transform="translate(22.860,25.750)" id="g91">
      <circle cx="0" cy="0" r="4.200" fill="#4d4d00" stroke="none" stroke-width="0" id="circle85"/>
      <circle cx="0" cy="0" r="3.500" fill="none" stroke="#fffff0" stroke-width="0.950" id="circle87"/>
      <circle cx="0" cy="0" r="2.325" fill="none" stroke="#fffff0" stroke-width="0.950" id="circle89"/>
    </g>
    <g transform="translate(7.620,40.750)" id="g99">
      <circle cx="0" cy="0" r="4.200" fill="#4d4d00" stroke="none" stroke-width="0" id="circle93"/>
      <circle cx="0" cy="0" r="3.500" fill="none" stroke="#fffff0" stroke-width="0.950" id="circle95"/>
      <circle cx="0" cy="0" r="2.325" fill="none" stroke="#fffff0" stroke-width="0.950" id="circle97"/>
    </g>
    <g transform="translate(22.860,40.750)" id="g105">
      <circle cx="0" cy="0" r="3.500" fill="#4d4d00" stroke="none" stroke-width="0" id="circle101"/>
      <line x1="0" y1="0" x2="0" y2="-3.062" stroke="#fffff0" stroke-width="0.438" stroke-linecap="round" id="line103"/>
    </g>
    <g transform="translate(7.620,59.500)" id="g111">
      <circle cx="0" cy="0" r="5.000" fill="#4d4d00" stroke="none" stroke-width="0" id="circle107"/>
      <line x1="0" y1="0" x2="0" y2="-4.375" stroke="#fffff0" stroke-width="0.625" stroke-linecap="round" id="line109"/>
    </g>
    <g transform="translate(22.860,59.500)" id="g117">
      <circle cx="0" cy="0" r="5.000" fill="#4d4d00" stroke="none" stroke-width="0" id="circle113"/>
      <line x1="0" y1="0" x2="0" y2="-4.375" stroke="#fffff0" stroke-width="0.625" stroke-linecap="round" id="line115"/>
    </g>
    <g transform="translate(7.620,74.500)" id="g123">
      <circle cx="0" cy="0" r="3.500" fill="#4d4d00" stroke="none" stroke-width="0" id="circle119"/>
      <line x1="0" y1="0" x2="0" y2="-3.062" stroke="#fffff0" stroke-width="0.438" stroke-linecap="round" id="line121"/>
    </g>
    <g transform="translate(22.860,74.500)" id="g129">
      <circle cx="0" cy="0" r="3.500" fill="#4d4d00" stroke="none" stroke-width="0" id="circle125"/>
      <line x1="0" y1="0" x2="0" y2="-3.062" stroke="#fffff0" stroke-width="0.438" stroke-linecap="round" id="line127"/>
    </g>
    <g transform="translate(7.620,89.500)" id="g137">
      <circle cx="0" cy="0" r="4.200" fill="#4d4d00" stroke="none" stroke-width="0" id="circle131"/>
      <circle cx="0" cy="0" r="3.500" fill="none" stroke="#fffff0" stroke-width="0.950" id="circle133"/>
      <circle cx="0" cy="0" r="2.325" fill="none" stroke="#fffff0" stroke-width="0.950" id="circle135"/>
    </g>
    <g transform="translate(22.860,89.500)" id="g145">
      <circle cx="0" cy="0" r="4.200" fill="#4d4d00" stroke="none" stroke-width="0" id="circle139"/>
      <circle cx="0" cy="0" r="3.500" fill="none" stroke="#fffff0" stroke-width="0.950" id="circle141"/>
      <circle cx="0" cy="0" r="2.325" fill="none" stroke="#fffff0" stroke-width="0.950" id="circle143"/>
    </g>
    <g transform="translate(7.620,104.500)" id="g159">
      <rect x="-1.312" y="-2.812" width="2.625" height="5.625" fill="#fffff0" stroke="#4d4d00" stroke-width="0.375" rx="0.188" ry="0.188" id="rect147"/>
      <line x1="-0.812" y1="0.250" x2="0.812" y2="0.250" stroke="#4d4d00" stroke-width="0.250" stroke-linecap="round" id="line149"/>
      <line x1="-0.812" y1="0.750" x2="0.812" y2="0.750" stroke="#4d4d00" stroke-width="0.250" stroke-linecap="round" id="line151"/>
      <line x1="-0.812" y1="1.250" x2="0.812" y2="1.250" stroke="#4d4d00" stroke-width="0.250" stroke-linecap="round" id="line153"/>
      <line x1="-0.812" y1="1.750" x2="0.812" y2="1.750" stroke="#4d4d00" stroke-width="0.250" stroke-linecap="round" id="line155"/>
      <line x1="-0.812" y1="2.250" x2="0.812" y2="2.250" stroke="#4d4d00" stroke-width="0.250" stroke-linecap="round" id="line157"/>
    </g>
    <g transform="translate(22.860,104.500)" id="g173">
      <rect x="-1.312" y="-2.812" width="2.625" height="5.625" fill="#fffff0" stroke="#4d4d00" stroke-width="0.375" rx="0.188" ry="0.188" id="rect161"/>
      <line x1="-0.812" y1="0.250" x2="0.812" y2="0.250" stroke="#4d4d00" stroke-width="0.250" stroke-linecap="round" id="line163"/>
      <line x1="-0.812" y1="0.750" x2="0.812" y2="0.750" stroke="#4d4d00" stroke-width="0.250" stroke-linecap="round" id="line165"/>
      <line x1="-0.812" y1="1.250" x2="0.812" y2="1.250" stroke="#4d4d00" stroke-width="0.250" stroke-linecap="round" id="line167"/>
      <line x1="-0.812" y1="1.750" x2="0.812" y2="1.750" stroke="#4d4d00" stroke-width="0.250" stroke-linecap="round" id="line169"/>
      <line x1="-0.812" y1="2.250" x2="0.812" y2="2.250" stroke="#4d4d00" stroke-width="0.250" stroke-linecap="round" id="line171"/>
    </g>
  </g>
</svg>
