<?xml version="1.0" encoding="UTF-8" standalone="no"?>
<svg
   xmlns:dc="http://purl.org/dc/elements/1.1/"
   xmlns:cc="http://creativecommons.org/ns#"
   xmlns:rdf="http://www.w3.org/1999/02/22-rdf-syntax-ns#"
   xmlns:svg="http://www.w3.org/2000/svg"
   xmlns="http://www.w3.org/2000/svg"
   id="svg270"
   height="379.42913385826773"
   width="165.0"
   version="1.1">
  <metadata
     id="metadata276">
    <rdf:RDF>
      <cc:Work
         rdf:about="">
        <dc:format>image/svg+xml</dc:format>
        <dc:type
           rdf:resource="http://purl.org/dc/dcmitype/StillImage" />
      </cc:Work>
    </rdf:RDF>
  </metadata>
  <defs
     id="defs274" />
  <g
     id="g268"
     transform="scale(2.9527559)">
    <path
       id="rect2"
       d="M 0,0 H 55.880001 V 128.5 H 0 Z"
       style="fill:#faf7f0;stroke:#0044cc;stroke-width:1" />
    <g
       id="text4"
       style="font-weight:bold;font-size:4.06400013px;font-family:'Proxima Nova';text-anchor:middle;fill:#0044cc"
       aria-label="JUSTER">
      <path
         id="path279"
         style="font-weight:bold;font-size:4.06400013px;font-family:'Proxima Nova';text-anchor:middle;fill:#0044cc"
         d="m 20.610291,8.784608 c 0.195072,0.191008 0.455168,0.26416 0.727456,0.26416 0.556768,0 0.95504,-0.296672 0.95504,-0.938784 V 6.2893119 H 21.715699 V 8.101856 c 0,0.26416 -0.166624,0.434848 -0.422656,0.434848 -0.186944,0 -0.32512,-0.093472 -0.430784,-0.195072 z" />
      <path
         id="path281"
         style="font-weight:bold;font-size:4.06400013px;font-family:'Proxima Nova';text-anchor:middle;fill:#0044cc"
         d="m 22.830568,7.918976 c 0,0.666496 0.398272,1.129792 1.223264,1.129792 0.824992,0 1.223264,-0.459232 1.223264,-1.133856 V 6.2893119 h -0.58928 V 7.898656 c 0,0.377952 -0.215392,0.638048 -0.633984,0.638048 -0.418592,0 -0.638048,-0.260096 -0.638048,-0.638048 V 6.2893119 h -0.585216 z" />
      <path
         id="path283"
         style="font-weight:bold;font-size:4.06400013px;font-family:'Proxima Nova';text-anchor:middle;fill:#0044cc"
         d="m 25.624251,8.617984 c 0.251968,0.256032 0.625856,0.430784 1.146048,0.430784 0.73152,0 1.085088,-0.373888 1.085088,-0.869696 0,-0.613664 -0.56896,-0.7477761 -1.016,-0.8534401 -0.292608,-0.069088 -0.540512,-0.125984 -0.540512,-0.300736 0,-0.16256 0.138176,-0.272288 0.38608,-0.272288 0.276352,0 0.56896,0.093472 0.788416,0.296672 l 0.321056,-0.422656 c -0.268224,-0.247904 -0.625856,-0.377952 -1.05664,-0.377952 -0.638048,0 -1.028192,0.373888 -1.028192,0.824992 0,0.6177281 0.56896,0.7396481 1.011936,0.8412481 0.296672,0.073152 0.54864,0.130048 0.54864,0.329184 0,0.154432 -0.154432,0.300736 -0.471424,0.300736 -0.373888,0 -0.67056,-0.166624 -0.861568,-0.36576 z" />
      <path
         id="path285"
         style="font-weight:bold;font-size:4.06400013px;font-family:'Proxima Nova';text-anchor:middle;fill:#0044cc"
         d="m 28.838049,9 h 0.581152 V 6.7973119 h 0.788416 v -0.508 h -2.162048 v 0.508 h 0.79248 z" />
      <path
         id="path287"
         style="font-weight:bold;font-size:4.06400013px;font-family:'Proxima Nova';text-anchor:middle;fill:#0044cc"
         d="m 30.577569,9 h 1.918208 V 8.492 h -1.34112 V 7.878336 h 1.312672 V 7.3703359 h -1.312672 v -0.573024 h 1.34112 v -0.508 h -1.918208 z" />
      <path
         id="path289"
         style="font-weight:bold;font-size:4.06400013px;font-family:'Proxima Nova';text-anchor:middle;fill:#0044cc"
         d="m 34.483009,9 h 0.662432 l -0.6096,-1.032256 c 0.292608,-0.069088 0.593344,-0.32512 0.593344,-0.8046721 0,-0.503936 -0.34544,-0.87376 -0.910336,-0.87376 H 32.950881 V 9 h 0.577088 V 8.036832 h 0.422656 z m 0.0569,-1.8369281 c 0,0.227584 -0.174752,0.3657601 -0.4064,0.3657601 H 33.527969 V 6.7973119 h 0.605536 c 0.231648,0 0.4064,0.138176 0.4064,0.36576 z" />
    </g>
    <g
       id="text6"
       style="font-weight:bold;font-size:4.06400013px;font-family:'Proxima Nova';dominant-baseline:hanging;text-anchor:middle;fill:#0044cc"
       aria-label="DHE">
      <path
         id="path292"
         style="font-weight:bold;font-size:4.06400013px;font-family:'Proxima Nova';dominant-baseline:hanging;text-anchor:middle;fill:#0044cc"
         d="m 24.076756,122.06845 h 1.068832 c 0.849376,0 1.438656,-0.53645 1.438656,-1.35331 0,-0.81687 -0.58928,-1.35738 -1.438656,-1.35738 h -1.068832 z m 0.577088,-0.508 v -1.69469 h 0.491744 c 0.556768,0 0.849376,0.36982 0.849376,0.84938 0,0.45923 -0.312928,0.84531 -0.849376,0.84531 z" />
      <path
         id="path294"
         style="font-weight:bold;font-size:4.06400013px;font-family:'Proxima Nova';dominant-baseline:hanging;text-anchor:middle;fill:#0044cc"
         d="m 28.855004,122.06845 h 0.581152 v -2.71069 h -0.581152 v 1.06477 h -1.28016 v -1.06477 h -0.577088 v 2.71069 h 0.577088 v -1.13792 h 1.28016 z" />
      <path
         id="path296"
         style="font-weight:bold;font-size:4.06400013px;font-family:'Proxima Nova';dominant-baseline:hanging;text-anchor:middle;fill:#0044cc"
         d="m 29.966381,122.06845 h 1.918208 v -0.508 h -1.34112 v -0.61367 h 1.312672 v -0.508 h -1.312672 v -0.57302 h 1.34112 v -0.508 h -1.918208 z" />
    </g>
    <path
       id="rect8"
       d="m 3.6078572,19.044556 h 8.7499998 c 0.554,0 1,0.446 1,1 V 31.375 c 0,0.554 -0.446,1 -1,1 H 3.6078572 c -0.554,0 -1,-0.446 -1,-1 V 20.044556 c 0,-0.554 0.446,-1 1,-1 z"
       style="fill:#faf7f0;stroke:#0044cc;stroke-width:0.34999999" />
    <g
       id="text10"
       style="font-weight:bold;font-size:2.37066674px;font-family:'Proxima Nova';text-anchor:middle;fill:#0044cc"
       aria-label="IN">
      <path
         id="path300"
         style="font-weight:bold;font-size:2.37066674px;font-family:'Proxima Nova';text-anchor:middle;fill:#0044cc"
         d="M 6.9516728,21.799999 H 7.2883074 V 20.218765 H 6.9516728 Z" />
      <path
         id="path302"
         style="font-weight:bold;font-size:2.37066674px;font-family:'Proxima Nova';text-anchor:middle;fill:#0044cc"
         d="M 8.6904086,21.799999 H 9.01519 V 20.218765 H 8.6785553 v 0.993309 L 7.9460193,20.218765 H 7.5999019 v 1.581234 h 0.3366347 v -1.03124 z" />
    </g>
    <g
       style="fill:#faf7f0;stroke:#0044cc;stroke-width:0.20999999"
       id="g18"
       transform="translate(7.9828571,27)">
      <path
         id="circle12"
         d="M 4.0949998,0 A 4.0949998,4.0949998 0 0 1 0,4.0949998 4.0949998,4.0949998 0 0 1 -4.0949998,0 4.0949998,4.0949998 0 0 1 0,-4.0949998 4.0949998,4.0949998 0 0 1 4.0949998,0 Z"
         style="" />
      <path
         id="circle14"
         d="M 2.925,0 A 2.925,2.925 0 0 1 0,2.925 2.925,2.925 0 0 1 -2.925,0 2.925,2.925 0 0 1 0,-2.925 2.925,2.925 0 0 1 2.925,0 Z"
         style="" />
      <path
         id="circle16"
         d="M 1.755,0 A 1.755,1.755 0 0 1 0,1.755 1.755,1.755 0 0 1 -1.755,0 1.755,1.755 0 0 1 0,-1.755 1.755,1.755 0 0 1 1.755,0 Z"
         style="fill:#0044cc" />
    </g>
    <g
       id="text20"
       style="font-weight:bold;font-size:3.0480001px;font-family:'Proxima Nova';text-anchor:middle;fill:#0044cc" />
    <g
       style="fill:#0044cc;stroke:#faf7f0"
       id="g26"
       transform="translate(22.537619,25.75)">
      <path
         id="circle22"
         d="M 6.3499999,0 A 6.3499999,6.3499999 0 0 1 0,6.3499999 6.3499999,6.3499999 0 0 1 -6.3499999,0 6.3499999,6.3499999 0 0 1 0,-6.3499999 6.3499999,6.3499999 0 0 1 6.3499999,0 Z"
         style="stroke:none" />
      <path
         id="line24"
         d="M 0,0 V -5.5562501"
         style="stroke-width:0.79374999;stroke-linecap:round" />
    </g>
    <g
       id="text28"
       style="font-weight:bold;font-size:2.37066674px;font-family:'Proxima Nova';text-anchor:middle;fill:#0044cc"
       aria-label="GAIN">
      <path
         id="path311"
         style="font-weight:bold;font-size:2.37066674px;font-family:'Proxima Nova';text-anchor:middle;fill:#0044cc"
         d="m 31.830035,19.285569 c 0,0.49784 0.379307,0.82025 0.841587,0.82025 0.286851,0 0.512064,-0.118533 0.673269,-0.298704 v -0.60689 h -0.753872 v 0.293962 h 0.417238 v 0.189654 c -0.06401,0.05927 -0.196766,0.120904 -0.336635,0.120904 -0.286851,0 -0.495469,-0.220472 -0.495469,-0.519176 0,-0.298704 0.208618,-0.519176 0.495469,-0.519176 0.168317,0 0.303445,0.09483 0.374565,0.206248 l 0.279739,-0.151723 c -0.118533,-0.187283 -0.324781,-0.353229 -0.654304,-0.353229 -0.46228,0 -0.841587,0.317669 -0.841587,0.81788 z" />
      <path
         id="path313"
         style="font-weight:bold;font-size:2.37066674px;font-family:'Proxima Nova';text-anchor:middle;fill:#0044cc"
         d="m 34.686429,20.075001 h 0.384048 l -0.609261,-1.581235 h -0.421979 l -0.611632,1.581235 h 0.384048 l 0.09957,-0.267886 h 0.678011 z m -0.436202,-1.2446 0.246549,0.680381 h -0.493099 z" />
      <path
         id="path315"
         style="font-weight:bold;font-size:2.37066674px;font-family:'Proxima Nova';text-anchor:middle;fill:#0044cc"
         d="M 35.216495,20.075001 H 35.55313 V 18.493766 H 35.216495 Z" />
      <path
         id="path317"
         style="font-weight:bold;font-size:2.37066674px;font-family:'Proxima Nova';text-anchor:middle;fill:#0044cc"
         d="m 36.955231,20.075001 h 0.324782 v -1.581235 h -0.336635 v 0.993309 l -0.732536,-0.993309 h -0.346117 v 1.581235 h 0.336634 v -1.03124 z" />
    </g>
    <g
       id="text30"
       style="font-weight:bold;font-size:2.37066674px;font-family:'Proxima Nova';dominant-baseline:hanging;text-anchor:middle;fill:#0044cc"
       aria-label="OFFSET">
      <path
         id="path320"
         style="font-weight:bold;font-size:2.37066674px;font-family:'Proxima Nova';dominant-baseline:hanging;text-anchor:middle;fill:#0044cc"
         d="m 30.320587,32.133829 c 0,0.476504 0.348488,0.81788 0.824992,0.81788 0.478875,0 0.827363,-0.341376 0.827363,-0.81788 0,-0.476504 -0.348488,-0.81788 -0.827363,-0.81788 -0.476504,0 -0.824992,0.341376 -0.824992,0.81788 z m 1.306238,0 c 0,0.293962 -0.189654,0.519176 -0.481246,0.519176 -0.291592,0 -0.478874,-0.225214 -0.478874,-0.519176 0,-0.296334 0.187282,-0.519176 0.478874,-0.519176 0.291592,0 0.481246,0.222842 0.481246,0.519176 z" />
      <path
         id="path322"
         style="font-weight:bold;font-size:2.37066674px;font-family:'Proxima Nova';dominant-baseline:hanging;text-anchor:middle;fill:#0044cc"
         d="m 32.21149,32.923261 h 0.336635 v -0.654304 h 0.765725 v -0.296334 h -0.765725 v -0.334264 h 0.78232 V 31.342026 H 32.21149 Z" />
      <path
         id="path324"
         style="font-weight:bold;font-size:2.37066674px;font-family:'Proxima Nova';dominant-baseline:hanging;text-anchor:middle;fill:#0044cc"
         d="m 33.563511,32.923261 h 0.336635 v -0.654304 h 0.765725 v -0.296334 h -0.765725 v -0.334264 h 0.78232 v -0.296333 h -1.118955 z" />
      <path
         id="path326"
         style="font-weight:bold;font-size:2.37066674px;font-family:'Proxima Nova';dominant-baseline:hanging;text-anchor:middle;fill:#0044cc"
         d="m 34.808852,32.700418 c 0.146981,0.149352 0.365083,0.251291 0.668528,0.251291 0.42672,0 0.632968,-0.218102 0.632968,-0.507323 0,-0.357971 -0.331893,-0.436203 -0.592667,-0.49784 -0.170688,-0.0403 -0.315298,-0.07349 -0.315298,-0.175429 0,-0.09483 0.0806,-0.158835 0.225213,-0.158835 0.161205,0 0.331893,0.05452 0.459909,0.173059 l 0.187283,-0.24655 c -0.156464,-0.14461 -0.365083,-0.220472 -0.616373,-0.220472 -0.372195,0 -0.599779,0.218102 -0.599779,0.481246 0,0.360341 0.331893,0.431461 0.590296,0.490728 0.173059,0.04267 0.32004,0.07586 0.32004,0.192024 0,0.09008 -0.09008,0.175429 -0.274997,0.175429 -0.218102,0 -0.39116,-0.0972 -0.502582,-0.21336 z" />
      <path
         id="path328"
         style="font-weight:bold;font-size:2.37066674px;font-family:'Proxima Nova';dominant-baseline:hanging;text-anchor:middle;fill:#0044cc"
         d="m 36.337006,32.923261 h 1.118955 v -0.296334 h -0.78232 v -0.35797 h 0.765725 v -0.296334 h -0.765725 v -0.334264 h 0.78232 v -0.296333 h -1.118955 z" />
      <path
         id="path330"
         style="font-weight:bold;font-size:2.37066674px;font-family:'Proxima Nova';dominant-baseline:hanging;text-anchor:middle;fill:#0044cc"
         d="m 38.086521,32.923261 h 0.339005 v -1.284902 h 0.45991 v -0.296333 h -1.261195 v 0.296333 h 0.46228 z" />
    </g>
    <g
       id="text32"
       style="font-weight:bold;font-size:2.37066674px;font-family:'Proxima Nova';dominant-baseline:middle;text-anchor:start;fill:#0044cc"
       aria-label="AV">
      <path
         id="path333"
         style="font-weight:bold;font-size:2.37066674px;font-family:'Proxima Nova';dominant-baseline:middle;text-anchor:start;fill:#0044cc"
         d="m 38.01435,26.322516 h 0.384048 l -0.609261,-1.581235 h -0.421979 l -0.611632,1.581235 h 0.384048 l 0.09957,-0.267885 h 0.678011 z m -0.436202,-1.2446 0.246549,0.680381 h -0.493099 z" />
      <path
         id="path335"
         style="font-weight:bold;font-size:2.37066674px;font-family:'Proxima Nova';dominant-baseline:middle;text-anchor:start;fill:#0044cc"
         d="m 38.876606,26.322516 h 0.421979 l 0.609261,-1.581235 h -0.384048 l -0.436202,1.216152 -0.438574,-1.216152 h -0.384048 z" />
    </g>
    <g
       style="fill:#faf7f0;stroke:#0044cc"
       id="g46"
       transform="translate(34.592381,25.75)">
      <path
         id="rect34"
         d="m -1.125,-4.3125 h 2.25 c 0.103875,0 0.1875,0.083625 0.1875,0.1875 v 8.25 c 0,0.103875 -0.083625,0.1875 -0.1875,0.1875 h -2.25 c -0.103875,0 -0.1875,-0.083625 -0.1875,-0.1875 v -8.25 c 0,-0.103875 0.083625,-0.1875 0.1875,-0.1875 z"
         style="stroke-width:0.375" />
      <path
         id="line36"
         d="m -0.875,-3.75 h 1.75"
         style="stroke-width:0.25;stroke-linecap:round" />
      <path
         id="line38"
         d="m -0.875,-3.25 h 1.75"
         style="stroke-width:0.25;stroke-linecap:round" />
      <path
         id="line40"
         d="m -0.875,-2.75 h 1.75"
         style="stroke-width:0.25;stroke-linecap:round" />
      <path
         id="line42"
         d="m -0.875,-2.25 h 1.75"
         style="stroke-width:0.25;stroke-linecap:round" />
      <path
         id="line44"
         d="m -0.875,-1.75 h 1.75"
         style="stroke-width:0.25;stroke-linecap:round" />
    </g>
    <path
       id="rect48"
       d="m 43.522144,19.044556 h 8.75 c 0.554,0 1,0.446 1,1 V 31.375 c 0,0.554 -0.446,1 -1,1 h -8.75 c -0.554,0 -1,-0.446 -1,-1 V 20.044556 c 0,-0.554 0.446,-1 1,-1 z"
       style="fill:#0044cc;stroke:#0044cc;stroke-width:0.34999999" />
    <g
       id="text50"
       style="font-weight:bold;font-size:2.37066674px;font-family:'Proxima Nova';text-anchor:middle;fill:#faf7f0"
       aria-label="OUT">
      <path
         id="path345"
         style="font-weight:bold;font-size:2.37066674px;font-family:'Proxima Nova';text-anchor:middle;fill:#faf7f0"
         d="m 45.512161,21.010567 c 0,0.476504 0.348488,0.81788 0.824992,0.81788 0.478875,0 0.827363,-0.341376 0.827363,-0.81788 0,-0.476504 -0.348488,-0.81788 -0.827363,-0.81788 -0.476504,0 -0.824992,0.341376 -0.824992,0.81788 z m 1.306237,0 c 0,0.293963 -0.189653,0.519176 -0.481245,0.519176 -0.291592,0 -0.478875,-0.225213 -0.478875,-0.519176 0,-0.296333 0.187283,-0.519176 0.478875,-0.519176 0.291592,0 0.481245,0.222843 0.481245,0.519176 z" />
      <path
         id="path347"
         style="font-weight:bold;font-size:2.37066674px;font-family:'Proxima Nova';text-anchor:middle;fill:#faf7f0"
         d="m 47.403064,21.169402 c 0,0.388789 0.232325,0.659045 0.713571,0.659045 0.481245,0 0.71357,-0.267885 0.71357,-0.661416 v -0.948266 h -0.343746 v 0.938784 c 0,0.220472 -0.125646,0.372194 -0.369824,0.372194 -0.244179,0 -0.372195,-0.151722 -0.372195,-0.372194 v -0.938784 h -0.341376 z" />
      <path
         id="path349"
         style="font-weight:bold;font-size:2.37066674px;font-family:'Proxima Nova';text-anchor:middle;fill:#faf7f0"
         d="m 49.504475,21.799999 h 0.339005 v -1.284901 h 0.45991 v -0.296333 h -1.261195 v 0.296333 h 0.46228 z" />
    </g>
    <g
       style="fill:#faf7f0;stroke:#0044cc;stroke-width:0.20999999"
       id="g58"
       transform="translate(47.897143,27)">
      <path
         id="circle52"
         d="M 4.0949998,0 A 4.0949998,4.0949998 0 0 1 0,4.0949998 4.0949998,4.0949998 0 0 1 -4.0949998,0 4.0949998,4.0949998 0 0 1 0,-4.0949998 4.0949998,4.0949998 0 0 1 4.0949998,0 Z"
         style="" />
      <path
         id="circle54"
         d="M 2.925,0 A 2.925,2.925 0 0 1 0,2.925 2.925,2.925 0 0 1 -2.925,0 2.925,2.925 0 0 1 0,-2.925 2.925,2.925 0 0 1 2.925,0 Z"
         style="" />
      <path
         id="circle56"
         d="M 1.755,0 A 1.755,1.755 0 0 1 0,1.755 1.755,1.755 0 0 1 -1.755,0 1.755,1.755 0 0 1 0,-1.755 1.755,1.755 0 0 1 1.755,0 Z"
         style="fill:#0044cc" />
    </g>
    <path
       id="rect60"
       d="m 3.6078572,39.044556 h 8.7499998 c 0.554,0 1,0.446 1,1 V 51.375 c 0,0.554 -0.446,1 -1,1 H 3.6078572 c -0.554,0 -1,-0.446 -1,-1 V 40.044556 c 0,-0.554 0.446,-1 1,-1 z"
       style="fill:#faf7f0;stroke:#0044cc;stroke-width:0.34999999" />
    <g
       id="text62"
       style="font-weight:bold;font-size:2.37066674px;font-family:'Proxima Nova';text-anchor:middle;fill:#0044cc"
       aria-label="IN">
      <path
         id="path356"
         style="font-weight:bold;font-size:2.37066674px;font-family:'Proxima Nova';text-anchor:middle;fill:#0044cc"
         d="M 6.9516728,41.799999 H 7.2883074 V 40.218765 H 6.9516728 Z" />
      <path
         id="path358"
         style="font-weight:bold;font-size:2.37066674px;font-family:'Proxima Nova';text-anchor:middle;fill:#0044cc"
         d="M 8.6904086,41.799999 H 9.01519 V 40.218765 H 8.6785553 v 0.993309 L 7.9460193,40.218765 H 7.5999019 v 1.581234 h 0.3366347 v -1.03124 z" />
    </g>
    <g
       style="fill:#faf7f0;stroke:#0044cc;stroke-width:0.20999999"
       id="g70"
       transform="translate(7.9828571,47)">
      <path
         id="circle64"
         d="M 4.0949998,0 A 4.0949998,4.0949998 0 0 1 0,4.0949998 4.0949998,4.0949998 0 0 1 -4.0949998,0 4.0949998,4.0949998 0 0 1 0,-4.0949998 4.0949998,4.0949998 0 0 1 4.0949998,0 Z"
         style="" />
      <path
         id="circle66"
         d="M 2.925,0 A 2.925,2.925 0 0 1 0,2.925 2.925,2.925 0 0 1 -2.925,0 2.925,2.925 0 0 1 0,-2.925 2.925,2.925 0 0 1 2.925,0 Z"
         style="" />
      <path
         id="circle68"
         d="M 1.755,0 A 1.755,1.755 0 0 1 0,1.755 1.755,1.755 0 0 1 -1.755,0 1.755,1.755 0 0 1 0,-1.755 1.755,1.755 0 0 1 1.755,0 Z"
         style="fill:#0044cc" />
    </g>
    <g
       id="text72"
       style="font-weight:bold;font-size:3.0480001px;font-family:'Proxima Nova';text-anchor:middle;fill:#0044cc" />
    <g
       style="fill:#0044cc;stroke:#faf7f0"
       id="g78"
       transform="translate(22.537619,45.75)">
      <path
         id="circle74"
         d="M 6.3499999,0 A 6.3499999,6.3499999 0 0 1 0,6.3499999 6.3499999,6.3499999 0 0 1 -6.3499999,0 6.3499999,6.3499999 0 0 1 0,-6.3499999 6.3499999,6.3499999 0 0 1 6.3499999,0 Z"
         style="stroke:none" />
      <path
         id="line76"
         d="M 0,0 V -5.5562501"
         style="stroke-width:0.79374999;stroke-linecap:round" />
    </g>
    <g
       id="text80"
       style="font-weight:bold;font-size:2.37066674px;font-family:'Proxima Nova';text-anchor:middle;fill:#0044cc"
       aria-label="GAIN">
      <path
         id="path367"
         style="font-weight:bold;font-size:2.37066674px;font-family:'Proxima Nova';text-anchor:middle;fill:#0044cc"
         d="m 31.830035,39.285569 c 0,0.49784 0.379307,0.82025 0.841587,0.82025 0.286851,0 0.512064,-0.118533 0.673269,-0.298704 v -0.60689 h -0.753872 v 0.293962 h 0.417238 v 0.189654 c -0.06401,0.05927 -0.196766,0.120904 -0.336635,0.120904 -0.286851,0 -0.495469,-0.220472 -0.495469,-0.519176 0,-0.298704 0.208618,-0.519176 0.495469,-0.519176 0.168317,0 0.303445,0.09483 0.374565,0.206248 l 0.279739,-0.151723 c -0.118533,-0.187283 -0.324781,-0.353229 -0.654304,-0.353229 -0.46228,0 -0.841587,0.317669 -0.841587,0.81788 z" />
      <path
         id="path369"
         style="font-weight:bold;font-size:2.37066674px;font-family:'Proxima Nova';text-anchor:middle;fill:#0044cc"
         d="m 34.686429,40.075001 h 0.384048 l -0.609261,-1.581235 h -0.421979 l -0.611632,1.581235 h 0.384048 l 0.09957,-0.267886 h 0.678011 z m -0.436202,-1.2446 0.246549,0.680381 h -0.493099 z" />
      <path
         id="path371"
         style="font-weight:bold;font-size:2.37066674px;font-family:'Proxima Nova';text-anchor:middle;fill:#0044cc"
         d="M 35.216495,40.075001 H 35.55313 V 38.493766 H 35.216495 Z" />
      <path
         id="path373"
         style="font-weight:bold;font-size:2.37066674px;font-family:'Proxima Nova';text-anchor:middle;fill:#0044cc"
         d="m 36.955231,40.075001 h 0.324782 v -1.581235 h -0.336635 v 0.993309 l -0.732536,-0.993309 h -0.346117 v 1.581235 h 0.336634 v -1.03124 z" />
    </g>
    <g
       id="text82"
       style="font-weight:bold;font-size:2.37066674px;font-family:'Proxima Nova';dominant-baseline:hanging;text-anchor:middle;fill:#0044cc"
       aria-label="OFFSET">
      <path
         id="path376"
         style="font-weight:bold;font-size:2.37066674px;font-family:'Proxima Nova';dominant-baseline:hanging;text-anchor:middle;fill:#0044cc"
         d="m 30.320587,52.133829 c 0,0.476504 0.348488,0.81788 0.824992,0.81788 0.478875,0 0.827363,-0.341376 0.827363,-0.81788 0,-0.476504 -0.348488,-0.81788 -0.827363,-0.81788 -0.476504,0 -0.824992,0.341376 -0.824992,0.81788 z m 1.306238,0 c 0,0.293962 -0.189654,0.519176 -0.481246,0.519176 -0.291592,0 -0.478874,-0.225214 -0.478874,-0.519176 0,-0.296334 0.187282,-0.519176 0.478874,-0.519176 0.291592,0 0.481246,0.222842 0.481246,0.519176 z" />
      <path
         id="path378"
         style="font-weight:bold;font-size:2.37066674px;font-family:'Proxima Nova';dominant-baseline:hanging;text-anchor:middle;fill:#0044cc"
         d="m 32.21149,52.923261 h 0.336635 v -0.654304 h 0.765725 v -0.296334 h -0.765725 v -0.334264 h 0.78232 V 51.342026 H 32.21149 Z" />
      <path
         id="path380"
         style="font-weight:bold;font-size:2.37066674px;font-family:'Proxima Nova';dominant-baseline:hanging;text-anchor:middle;fill:#0044cc"
         d="m 33.563511,52.923261 h 0.336635 v -0.654304 h 0.765725 v -0.296334 h -0.765725 v -0.334264 h 0.78232 v -0.296333 h -1.118955 z" />
      <path
         id="path382"
         style="font-weight:bold;font-size:2.37066674px;font-family:'Proxima Nova';dominant-baseline:hanging;text-anchor:middle;fill:#0044cc"
         d="m 34.808852,52.700418 c 0.146981,0.149352 0.365083,0.251291 0.668528,0.251291 0.42672,0 0.632968,-0.218102 0.632968,-0.507323 0,-0.357971 -0.331893,-0.436203 -0.592667,-0.49784 -0.170688,-0.0403 -0.315298,-0.07349 -0.315298,-0.175429 0,-0.09483 0.0806,-0.158835 0.225213,-0.158835 0.161205,0 0.331893,0.05452 0.459909,0.173059 l 0.187283,-0.24655 c -0.156464,-0.14461 -0.365083,-0.220472 -0.616373,-0.220472 -0.372195,0 -0.599779,0.218102 -0.599779,0.481246 0,0.360341 0.331893,0.431461 0.590296,0.490728 0.173059,0.04267 0.32004,0.07586 0.32004,0.192024 0,0.09008 -0.09008,0.175429 -0.274997,0.175429 -0.218102,0 -0.39116,-0.0972 -0.502582,-0.21336 z" />
      <path
         id="path384"
         style="font-weight:bold;font-size:2.37066674px;font-family:'Proxima Nova';dominant-baseline:hanging;text-anchor:middle;fill:#0044cc"
         d="m 36.337006,52.923261 h 1.118955 v -0.296334 h -0.78232 v -0.35797 h 0.765725 v -0.296334 h -0.765725 v -0.334264 h 0.78232 v -0.296333 h -1.118955 z" />
      <path
         id="path386"
         style="font-weight:bold;font-size:2.37066674px;font-family:'Proxima Nova';dominant-baseline:hanging;text-anchor:middle;fill:#0044cc"
         d="m 38.086521,52.923261 h 0.339005 v -1.284902 h 0.45991 v -0.296333 h -1.261195 v 0.296333 h 0.46228 z" />
    </g>
    <g
       id="text84"
       style="font-weight:bold;font-size:2.37066674px;font-family:'Proxima Nova';dominant-baseline:middle;text-anchor:start;fill:#0044cc"
       aria-label="AV">
      <path
         id="path389"
         style="font-weight:bold;font-size:2.37066674px;font-family:'Proxima Nova';dominant-baseline:middle;text-anchor:start;fill:#0044cc"
         d="m 38.01435,46.322516 h 0.384048 l -0.609261,-1.581235 h -0.421979 l -0.611632,1.581235 h 0.384048 l 0.09957,-0.267885 h 0.678011 z m -0.436202,-1.2446 0.246549,0.680381 h -0.493099 z" />
      <path
         id="path391"
         style="font-weight:bold;font-size:2.37066674px;font-family:'Proxima Nova';dominant-baseline:middle;text-anchor:start;fill:#0044cc"
         d="m 38.876606,46.322516 h 0.421979 l 0.609261,-1.581235 h -0.384048 l -0.436202,1.216152 -0.438574,-1.216152 h -0.384048 z" />
    </g>
    <g
       style="fill:#faf7f0;stroke:#0044cc"
       id="g98"
       transform="translate(34.592381,45.75)">
      <path
         id="rect86"
         d="m -1.125,-4.3125 h 2.25 c 0.103875,0 0.1875,0.083625 0.1875,0.1875 v 8.25 c 0,0.103875 -0.083625,0.1875 -0.1875,0.1875 h -2.25 c -0.103875,0 -0.1875,-0.083625 -0.1875,-0.1875 v -8.25 c 0,-0.103875 0.083625,-0.1875 0.1875,-0.1875 z"
         style="stroke-width:0.375" />
      <path
         id="line88"
         d="m -0.875,-3.75 h 1.75"
         style="stroke-width:0.25;stroke-linecap:round" />
      <path
         id="line90"
         d="m -0.875,-3.25 h 1.75"
         style="stroke-width:0.25;stroke-linecap:round" />
      <path
         id="line92"
         d="m -0.875,-2.75 h 1.75"
         style="stroke-width:0.25;stroke-linecap:round" />
      <path
         id="line94"
         d="m -0.875,-2.25 h 1.75"
         style="stroke-width:0.25;stroke-linecap:round" />
      <path
         id="line96"
         d="m -0.875,-1.75 h 1.75"
         style="stroke-width:0.25;stroke-linecap:round" />
    </g>
    <path
       id="rect100"
       d="m 43.522144,39.044556 h 8.75 c 0.554,0 1,0.446 1,1 V 51.375 c 0,0.554 -0.446,1 -1,1 h -8.75 c -0.554,0 -1,-0.446 -1,-1 V 40.044556 c 0,-0.554 0.446,-1 1,-1 z"
       style="fill:#0044cc;stroke:#0044cc;stroke-width:0.34999999" />
    <g
       id="text102"
       style="font-weight:bold;font-size:2.37066674px;font-family:'Proxima Nova';text-anchor:middle;fill:#faf7f0"
       aria-label="OUT">
      <path
         id="path401"
         style="font-weight:bold;font-size:2.37066674px;font-family:'Proxima Nova';text-anchor:middle;fill:#faf7f0"
         d="m 45.512161,41.010567 c 0,0.476504 0.348488,0.81788 0.824992,0.81788 0.478875,0 0.827363,-0.341376 0.827363,-0.81788 0,-0.476504 -0.348488,-0.81788 -0.827363,-0.81788 -0.476504,0 -0.824992,0.341376 -0.824992,0.81788 z m 1.306237,0 c 0,0.293963 -0.189653,0.519176 -0.481245,0.519176 -0.291592,0 -0.478875,-0.225213 -0.478875,-0.519176 0,-0.296333 0.187283,-0.519176 0.478875,-0.519176 0.291592,0 0.481245,0.222843 0.481245,0.519176 z" />
      <path
         id="path403"
         style="font-weight:bold;font-size:2.37066674px;font-family:'Proxima Nova';text-anchor:middle;fill:#faf7f0"
         d="m 47.403064,41.169402 c 0,0.388789 0.232325,0.659045 0.713571,0.659045 0.481245,0 0.71357,-0.267885 0.71357,-0.661416 v -0.948266 h -0.343746 v 0.938784 c 0,0.220472 -0.125646,0.372194 -0.369824,0.372194 -0.244179,0 -0.372195,-0.151722 -0.372195,-0.372194 v -0.938784 h -0.341376 z" />
      <path
         id="path405"
         style="font-weight:bold;font-size:2.37066674px;font-family:'Proxima Nova';text-anchor:middle;fill:#faf7f0"
         d="m 49.504475,41.799999 h 0.339005 v -1.284901 h 0.45991 v -0.296333 h -1.261195 v 0.296333 h 0.46228 z" />
    </g>
    <g
       style="fill:#faf7f0;stroke:#0044cc;stroke-width:0.20999999"
       id="g110"
       transform="translate(47.897143,47)">
      <path
         id="circle104"
         d="M 4.0949998,0 A 4.0949998,4.0949998 0 0 1 0,4.0949998 4.0949998,4.0949998 0 0 1 -4.0949998,0 4.0949998,4.0949998 0 0 1 0,-4.0949998 4.0949998,4.0949998 0 0 1 4.0949998,0 Z"
         style="" />
      <path
         id="circle106"
         d="M 2.925,0 A 2.925,2.925 0 0 1 0,2.925 2.925,2.925 0 0 1 -2.925,0 2.925,2.925 0 0 1 0,-2.925 2.925,2.925 0 0 1 2.925,0 Z"
         style="" />
      <path
         id="circle108"
         d="M 1.755,0 A 1.755,1.755 0 0 1 0,1.755 1.755,1.755 0 0 1 -1.755,0 1.755,1.755 0 0 1 0,-1.755 1.755,1.755 0 0 1 1.755,0 Z"
         style="fill:#0044cc" />
    </g>
    <path
       id="rect112"
       d="m 3.6078572,59.044556 h 8.7499998 c 0.554,0 1,0.446 1,1 V 71.375 c 0,0.554 -0.446,1 -1,1 H 3.6078572 c -0.554,0 -1,-0.446 -1,-1 V 60.044556 c 0,-0.554 0.446,-1 1,-1 z"
       style="fill:#faf7f0;stroke:#0044cc;stroke-width:0.34999999" />
    <g
       id="text114"
       style="font-weight:bold;font-size:2.37066674px;font-family:'Proxima Nova';text-anchor:middle;fill:#0044cc"
       aria-label="IN">
      <path
         id="path412"
         style="font-weight:bold;font-size:2.37066674px;font-family:'Proxima Nova';text-anchor:middle;fill:#0044cc"
         d="M 6.9516728,61.799999 H 7.2883074 V 60.218765 H 6.9516728 Z" />
      <path
         id="path414"
         style="font-weight:bold;font-size:2.37066674px;font-family:'Proxima Nova';text-anchor:middle;fill:#0044cc"
         d="M 8.6904086,61.799999 H 9.01519 V 60.218765 H 8.6785553 v 0.993309 L 7.9460193,60.218765 H 7.5999019 v 1.581234 h 0.3366347 v -1.03124 z" />
    </g>
    <g
       style="fill:#faf7f0;stroke:#0044cc;stroke-width:0.20999999"
       id="g122"
       transform="translate(7.9828571,67)">
      <path
         id="circle116"
         d="M 4.0949998,0 A 4.0949998,4.0949998 0 0 1 0,4.0949998 4.0949998,4.0949998 0 0 1 -4.0949998,0 4.0949998,4.0949998 0 0 1 0,-4.0949998 4.0949998,4.0949998 0 0 1 4.0949998,0 Z"
         style="" />
      <path
         id="circle118"
         d="M 2.925,0 A 2.925,2.925 0 0 1 0,2.925 2.925,2.925 0 0 1 -2.925,0 2.925,2.925 0 0 1 0,-2.925 2.925,2.925 0 0 1 2.925,0 Z"
         style="" />
      <path
         id="circle120"
         d="M 1.755,0 A 1.755,1.755 0 0 1 0,1.755 1.755,1.755 0 0 1 -1.755,0 1.755,1.755 0 0 1 0,-1.755 1.755,1.755 0 0 1 1.755,0 Z"
         style="fill:#0044cc" />
    </g>
    <g
       id="text124"
       style="font-weight:bold;font-size:3.0480001px;font-family:'Proxima Nova';text-anchor:middle;fill:#0044cc" />
    <g
       style="fill:#0044cc;stroke:#faf7f0"
       id="g130"
       transform="translate(22.537619,65.75)">
      <path
         id="circle126"
         d="M 6.3499999,0 A 6.3499999,6.3499999 0 0 1 0,6.3499999 6.3499999,6.3499999 0 0 1 -6.3499999,0 6.3499999,6.3499999 0 0 1 0,-6.3499999 6.3499999,6.3499999 0 0 1 6.3499999,0 Z"
         style="stroke:none" />
      <path
         id="line128"
         d="M 0,0 V -5.5562501"
         style="stroke-width:0.79374999;stroke-linecap:round" />
    </g>
    <g
       id="text132"
       style="font-weight:bold;font-size:2.37066674px;font-family:'Proxima Nova';text-anchor:middle;fill:#0044cc"
       aria-label="GAIN">
      <path
         id="path423"
         style="font-weight:bold;font-size:2.37066674px;font-family:'Proxima Nova';text-anchor:middle;fill:#0044cc"
         d="m 31.830035,59.285569 c 0,0.49784 0.379307,0.82025 0.841587,0.82025 0.286851,0 0.512064,-0.118533 0.673269,-0.298704 v -0.60689 h -0.753872 v 0.293962 h 0.417238 v 0.189654 c -0.06401,0.05927 -0.196766,0.120904 -0.336635,0.120904 -0.286851,0 -0.495469,-0.220472 -0.495469,-0.519176 0,-0.298704 0.208618,-0.519176 0.495469,-0.519176 0.168317,0 0.303445,0.09483 0.374565,0.206248 l 0.279739,-0.151723 c -0.118533,-0.187283 -0.324781,-0.353229 -0.654304,-0.353229 -0.46228,0 -0.841587,0.317669 -0.841587,0.81788 z" />
      <path
         id="path425"
         style="font-weight:bold;font-size:2.37066674px;font-family:'Proxima Nova';text-anchor:middle;fill:#0044cc"
         d="m 34.686429,60.075001 h 0.384048 l -0.609261,-1.581235 h -0.421979 l -0.611632,1.581235 h 0.384048 l 0.09957,-0.267886 h 0.678011 z m -0.436202,-1.2446 0.246549,0.680381 h -0.493099 z" />
      <path
         id="path427"
         style="font-weight:bold;font-size:2.37066674px;font-family:'Proxima Nova';text-anchor:middle;fill:#0044cc"
         d="M 35.216495,60.075001 H 35.55313 V 58.493766 H 35.216495 Z" />
      <path
         id="path429"
         style="font-weight:bold;font-size:2.37066674px;font-family:'Proxima Nova';text-anchor:middle;fill:#0044cc"
         d="m 36.955231,60.075001 h 0.324782 v -1.581235 h -0.336635 v 0.993309 l -0.732536,-0.993309 h -0.346117 v 1.581235 h 0.336634 v -1.03124 z" />
    </g>
    <g
       id="text134"
       style="font-weight:bold;font-size:2.37066674px;font-family:'Proxima Nova';dominant-baseline:hanging;text-anchor:middle;fill:#0044cc"
       aria-label="OFFSET">
      <path
         id="path432"
         style="font-weight:bold;font-size:2.37066674px;font-family:'Proxima Nova';dominant-baseline:hanging;text-anchor:middle;fill:#0044cc"
         d="m 30.320587,72.133832 c 0,0.476504 0.348488,0.81788 0.824992,0.81788 0.478875,0 0.827363,-0.341376 0.827363,-0.81788 0,-0.476504 -0.348488,-0.81788 -0.827363,-0.81788 -0.476504,0 -0.824992,0.341376 -0.824992,0.81788 z m 1.306238,0 c 0,0.293963 -0.189654,0.519176 -0.481246,0.519176 -0.291592,0 -0.478874,-0.225213 -0.478874,-0.519176 0,-0.296333 0.187282,-0.519176 0.478874,-0.519176 0.291592,0 0.481246,0.222843 0.481246,0.519176 z" />
      <path
         id="path434"
         style="font-weight:bold;font-size:2.37066674px;font-family:'Proxima Nova';dominant-baseline:hanging;text-anchor:middle;fill:#0044cc"
         d="m 32.21149,72.923264 h 0.336635 V 72.26896 h 0.765725 v -0.296333 h -0.765725 v -0.334264 h 0.78232 V 71.34203 H 32.21149 Z" />
      <path
         id="path436"
         style="font-weight:bold;font-size:2.37066674px;font-family:'Proxima Nova';dominant-baseline:hanging;text-anchor:middle;fill:#0044cc"
         d="m 33.563511,72.923264 h 0.336635 V 72.26896 h 0.765725 v -0.296333 h -0.765725 v -0.334264 h 0.78232 V 71.34203 h -1.118955 z" />
      <path
         id="path438"
         style="font-weight:bold;font-size:2.37066674px;font-family:'Proxima Nova';dominant-baseline:hanging;text-anchor:middle;fill:#0044cc"
         d="m 34.808852,72.700422 c 0.146981,0.149352 0.365083,0.25129 0.668528,0.25129 0.42672,0 0.632968,-0.218101 0.632968,-0.507322 0,-0.357971 -0.331893,-0.436203 -0.592667,-0.49784 -0.170688,-0.0403 -0.315298,-0.07349 -0.315298,-0.17543 0,-0.09483 0.0806,-0.158834 0.225213,-0.158834 0.161205,0 0.331893,0.05452 0.459909,0.173058 l 0.187283,-0.246549 c -0.156464,-0.144611 -0.365083,-0.220472 -0.616373,-0.220472 -0.372195,0 -0.599779,0.218101 -0.599779,0.481245 0,0.360342 0.331893,0.431462 0.590296,0.490728 0.173059,0.04267 0.32004,0.07586 0.32004,0.192024 0,0.09009 -0.09008,0.17543 -0.274997,0.17543 -0.218102,0 -0.39116,-0.0972 -0.502582,-0.21336 z" />
      <path
         id="path440"
         style="font-weight:bold;font-size:2.37066674px;font-family:'Proxima Nova';dominant-baseline:hanging;text-anchor:middle;fill:#0044cc"
         d="m 36.337006,72.923264 h 1.118955 v -0.296333 h -0.78232 V 72.26896 h 0.765725 v -0.296333 h -0.765725 v -0.334264 h 0.78232 V 71.34203 h -1.118955 z" />
      <path
         id="path442"
         style="font-weight:bold;font-size:2.37066674px;font-family:'Proxima Nova';dominant-baseline:hanging;text-anchor:middle;fill:#0044cc"
         d="m 38.086521,72.923264 h 0.339005 v -1.284901 h 0.45991 V 71.34203 h -1.261195 v 0.296333 h 0.46228 z" />
    </g>
    <g
       id="text136"
       style="font-weight:bold;font-size:2.37066674px;font-family:'Proxima Nova';dominant-baseline:middle;text-anchor:start;fill:#0044cc"
       aria-label="AV">
      <path
         id="path445"
         style="font-weight:bold;font-size:2.37066674px;font-family:'Proxima Nova';dominant-baseline:middle;text-anchor:start;fill:#0044cc"
         d="m 38.01435,66.322516 h 0.384048 l -0.609261,-1.581235 h -0.421979 l -0.611632,1.581235 h 0.384048 l 0.09957,-0.267885 h 0.678011 z m -0.436202,-1.2446 0.246549,0.680381 h -0.493099 z" />
      <path
         id="path447"
         style="font-weight:bold;font-size:2.37066674px;font-family:'Proxima Nova';dominant-baseline:middle;text-anchor:start;fill:#0044cc"
         d="m 38.876606,66.322516 h 0.421979 l 0.609261,-1.581235 h -0.384048 l -0.436202,1.216152 -0.438574,-1.216152 h -0.384048 z" />
    </g>
    <g
       style="fill:#faf7f0;stroke:#0044cc"
       id="g150"
       transform="translate(34.592381,65.75)">
      <path
         id="rect138"
         d="m -1.125,-4.3125 h 2.25 c 0.103875,0 0.1875,0.083625 0.1875,0.1875 v 8.25 c 0,0.103875 -0.083625,0.1875 -0.1875,0.1875 h -2.25 c -0.103875,0 -0.1875,-0.083625 -0.1875,-0.1875 v -8.25 c 0,-0.103875 0.083625,-0.1875 0.1875,-0.1875 z"
         style="stroke-width:0.375" />
      <path
         id="line140"
         d="m -0.875,-3.75 h 1.75"
         style="stroke-width:0.25;stroke-linecap:round" />
      <path
         id="line142"
         d="m -0.875,-3.25 h 1.75"
         style="stroke-width:0.25;stroke-linecap:round" />
      <path
         id="line144"
         d="m -0.875,-2.75 h 1.75"
         style="stroke-width:0.25;stroke-linecap:round" />
      <path
         id="line146"
         d="m -0.875,-2.25 h 1.75"
         style="stroke-width:0.25;stroke-linecap:round" />
      <path
         id="line148"
         d="m -0.875,-1.75 h 1.75"
         style="stroke-width:0.25;stroke-linecap:round" />
    </g>
    <path
       id="rect152"
       d="m 43.522144,59.044556 h 8.75 c 0.554,0 1,0.446 1,1 V 71.375 c 0,0.554 -0.446,1 -1,1 h -8.75 c -0.554,0 -1,-0.446 -1,-1 V 60.044556 c 0,-0.554 0.446,-1 1,-1 z"
       style="fill:#0044cc;stroke:#0044cc;stroke-width:0.34999999" />
    <g
       id="text154"
       style="font-weight:bold;font-size:2.37066674px;font-family:'Proxima Nova';text-anchor:middle;fill:#faf7f0"
       aria-label="OUT">
      <path
         id="path457"
         style="font-weight:bold;font-size:2.37066674px;font-family:'Proxima Nova';text-anchor:middle;fill:#faf7f0"
         d="m 45.512161,61.010567 c 0,0.476504 0.348488,0.81788 0.824992,0.81788 0.478875,0 0.827363,-0.341376 0.827363,-0.81788 0,-0.476504 -0.348488,-0.81788 -0.827363,-0.81788 -0.476504,0 -0.824992,0.341376 -0.824992,0.81788 z m 1.306237,0 c 0,0.293963 -0.189653,0.519176 -0.481245,0.519176 -0.291592,0 -0.478875,-0.225213 -0.478875,-0.519176 0,-0.296333 0.187283,-0.519176 0.478875,-0.519176 0.291592,0 0.481245,0.222843 0.481245,0.519176 z" />
      <path
         id="path459"
         style="font-weight:bold;font-size:2.37066674px;font-family:'Proxima Nova';text-anchor:middle;fill:#faf7f0"
         d="m 47.403064,61.169402 c 0,0.388789 0.232325,0.659045 0.713571,0.659045 0.481245,0 0.71357,-0.267885 0.71357,-0.661416 v -0.948266 h -0.343746 v 0.938784 c 0,0.220472 -0.125646,0.372194 -0.369824,0.372194 -0.244179,0 -0.372195,-0.151722 -0.372195,-0.372194 v -0.938784 h -0.341376 z" />
      <path
         id="path461"
         style="font-weight:bold;font-size:2.37066674px;font-family:'Proxima Nova';text-anchor:middle;fill:#faf7f0"
         d="m 49.504475,61.799999 h 0.339005 v -1.284901 h 0.45991 v -0.296333 h -1.261195 v 0.296333 h 0.46228 z" />
    </g>
    <g
       style="fill:#faf7f0;stroke:#0044cc;stroke-width:0.20999999"
       id="g162"
       transform="translate(47.897143,67)">
      <path
         id="circle156"
         d="M 4.0949998,0 A 4.0949998,4.0949998 0 0 1 0,4.0949998 4.0949998,4.0949998 0 0 1 -4.0949998,0 4.0949998,4.0949998 0 0 1 0,-4.0949998 4.0949998,4.0949998 0 0 1 4.0949998,0 Z"
         style="" />
      <path
         id="circle158"
         d="M 2.925,0 A 2.925,2.925 0 0 1 0,2.925 2.925,2.925 0 0 1 -2.925,0 2.925,2.925 0 0 1 0,-2.925 2.925,2.925 0 0 1 2.925,0 Z"
         style="" />
      <path
         id="circle160"
         d="M 1.755,0 A 1.755,1.755 0 0 1 0,1.755 1.755,1.755 0 0 1 -1.755,0 1.755,1.755 0 0 1 0,-1.755 1.755,1.755 0 0 1 1.755,0 Z"
         style="fill:#0044cc" />
    </g>
    <path
       id="rect164"
       d="m 3.6078572,79.044556 h 8.7499998 c 0.554,0 1,0.446 1,1 V 91.375 c 0,0.554 -0.446,1 -1,1 H 3.6078572 c -0.554,0 -1,-0.446 -1,-1 V 80.044556 c 0,-0.554 0.446,-1 1,-1 z"
       style="fill:#faf7f0;stroke:#0044cc;stroke-width:0.34999999" />
    <g
       id="text166"
       style="font-weight:bold;font-size:2.37066674px;font-family:'Proxima Nova';text-anchor:middle;fill:#0044cc"
       aria-label="IN">
      <path
         id="path468"
         style="font-weight:bold;font-size:2.37066674px;font-family:'Proxima Nova';text-anchor:middle;fill:#0044cc"
         d="M 6.9516728,81.800003 H 7.2883074 V 80.218768 H 6.9516728 Z" />
      <path
         id="path470"
         style="font-weight:bold;font-size:2.37066674px;font-family:'Proxima Nova';text-anchor:middle;fill:#0044cc"
         d="M 8.6904086,81.800003 H 9.01519 V 80.218768 H 8.6785553 v 0.99331 l -0.732536,-0.99331 H 7.5999019 v 1.581235 h 0.3366347 v -1.03124 z" />
    </g>
    <g
       style="fill:#faf7f0;stroke:#0044cc;stroke-width:0.20999999"
       id="g174"
       transform="translate(7.9828571,87)">
      <path
         id="circle168"
         d="M 4.0949998,0 A 4.0949998,4.0949998 0 0 1 0,4.0949998 4.0949998,4.0949998 0 0 1 -4.0949998,0 4.0949998,4.0949998 0 0 1 0,-4.0949998 4.0949998,4.0949998 0 0 1 4.0949998,0 Z"
         style="" />
      <path
         id="circle170"
         d="M 2.925,0 A 2.925,2.925 0 0 1 0,2.925 2.925,2.925 0 0 1 -2.925,0 2.925,2.925 0 0 1 0,-2.925 2.925,2.925 0 0 1 2.925,0 Z"
         style="" />
      <path
         id="circle172"
         d="M 1.755,0 A 1.755,1.755 0 0 1 0,1.755 1.755,1.755 0 0 1 -1.755,0 1.755,1.755 0 0 1 0,-1.755 1.755,1.755 0 0 1 1.755,0 Z"
         style="fill:#0044cc" />
    </g>
    <g
       id="text176"
       style="font-weight:bold;font-size:3.0480001px;font-family:'Proxima Nova';text-anchor:middle;fill:#0044cc" />
    <g
       style="fill:#0044cc;stroke:#faf7f0"
       id="g182"
       transform="translate(22.537619,85.75)">
      <path
         id="circle178"
         d="M 6.3499999,0 A 6.3499999,6.3499999 0 0 1 0,6.3499999 6.3499999,6.3499999 0 0 1 -6.3499999,0 6.3499999,6.3499999 0 0 1 0,-6.3499999 6.3499999,6.3499999 0 0 1 6.3499999,0 Z"
         style="stroke:none" />
      <path
         id="line180"
         d="M 0,0 V -5.5562501"
         style="stroke-width:0.79374999;stroke-linecap:round" />
    </g>
    <g
       id="text184"
       style="font-weight:bold;font-size:2.37066674px;font-family:'Proxima Nova';text-anchor:middle;fill:#0044cc"
       aria-label="GAIN">
      <path
         id="path479"
         style="font-weight:bold;font-size:2.37066674px;font-family:'Proxima Nova';text-anchor:middle;fill:#0044cc"
         d="m 31.830035,79.285565 c 0,0.49784 0.379307,0.820251 0.841587,0.820251 0.286851,0 0.512064,-0.118534 0.673269,-0.298704 v -0.606891 h -0.753872 v 0.293963 h 0.417238 v 0.189653 c -0.06401,0.05927 -0.196766,0.120904 -0.336635,0.120904 -0.286851,0 -0.495469,-0.220472 -0.495469,-0.519176 0,-0.298704 0.208618,-0.519176 0.495469,-0.519176 0.168317,0 0.303445,0.09483 0.374565,0.206248 l 0.279739,-0.151723 c -0.118533,-0.187282 -0.324781,-0.353229 -0.654304,-0.353229 -0.46228,0 -0.841587,0.317669 -0.841587,0.81788 z" />
      <path
         id="path481"
         style="font-weight:bold;font-size:2.37066674px;font-family:'Proxima Nova';text-anchor:middle;fill:#0044cc"
         d="m 34.686429,80.074997 h 0.384048 l -0.609261,-1.581235 h -0.421979 l -0.611632,1.581235 h 0.384048 l 0.09957,-0.267885 h 0.678011 z m -0.436202,-1.2446 0.246549,0.680381 h -0.493099 z" />
      <path
         id="path483"
         style="font-weight:bold;font-size:2.37066674px;font-family:'Proxima Nova';text-anchor:middle;fill:#0044cc"
         d="M 35.216495,80.074997 H 35.55313 V 78.493762 H 35.216495 Z" />
      <path
         id="path485"
         style="font-weight:bold;font-size:2.37066674px;font-family:'Proxima Nova';text-anchor:middle;fill:#0044cc"
         d="m 36.955231,80.074997 h 0.324782 v -1.581235 h -0.336635 v 0.99331 l -0.732536,-0.99331 h -0.346117 v 1.581235 h 0.336634 v -1.03124 z" />
    </g>
    <g
       id="text186"
       style="font-weight:bold;font-size:2.37066674px;font-family:'Proxima Nova';dominant-baseline:hanging;text-anchor:middle;fill:#0044cc"
       aria-label="OFFSET">
      <path
         id="path488"
         style="font-weight:bold;font-size:2.37066674px;font-family:'Proxima Nova';dominant-baseline:hanging;text-anchor:middle;fill:#0044cc"
         d="m 30.320587,92.133832 c 0,0.476504 0.348488,0.81788 0.824992,0.81788 0.478875,0 0.827363,-0.341376 0.827363,-0.81788 0,-0.476504 -0.348488,-0.81788 -0.827363,-0.81788 -0.476504,0 -0.824992,0.341376 -0.824992,0.81788 z m 1.306238,0 c 0,0.293963 -0.189654,0.519176 -0.481246,0.519176 -0.291592,0 -0.478874,-0.225213 -0.478874,-0.519176 0,-0.296333 0.187282,-0.519176 0.478874,-0.519176 0.291592,0 0.481246,0.222843 0.481246,0.519176 z" />
      <path
         id="path490"
         style="font-weight:bold;font-size:2.37066674px;font-family:'Proxima Nova';dominant-baseline:hanging;text-anchor:middle;fill:#0044cc"
         d="m 32.21149,92.923264 h 0.336635 V 92.26896 h 0.765725 v -0.296333 h -0.765725 v -0.334264 h 0.78232 V 91.34203 H 32.21149 Z" />
      <path
         id="path492"
         style="font-weight:bold;font-size:2.37066674px;font-family:'Proxima Nova';dominant-baseline:hanging;text-anchor:middle;fill:#0044cc"
         d="m 33.563511,92.923264 h 0.336635 V 92.26896 h 0.765725 v -0.296333 h -0.765725 v -0.334264 h 0.78232 V 91.34203 h -1.118955 z" />
      <path
         id="path494"
         style="font-weight:bold;font-size:2.37066674px;font-family:'Proxima Nova';dominant-baseline:hanging;text-anchor:middle;fill:#0044cc"
         d="m 34.808852,92.700422 c 0.146981,0.149352 0.365083,0.25129 0.668528,0.25129 0.42672,0 0.632968,-0.218101 0.632968,-0.507322 0,-0.357971 -0.331893,-0.436203 -0.592667,-0.49784 -0.170688,-0.0403 -0.315298,-0.07349 -0.315298,-0.17543 0,-0.09483 0.0806,-0.158834 0.225213,-0.158834 0.161205,0 0.331893,0.05452 0.459909,0.173058 l 0.187283,-0.246549 c -0.156464,-0.144611 -0.365083,-0.220472 -0.616373,-0.220472 -0.372195,0 -0.599779,0.218101 -0.599779,0.481245 0,0.360342 0.331893,0.431462 0.590296,0.490728 0.173059,0.04267 0.32004,0.07586 0.32004,0.192024 0,0.09009 -0.09008,0.17543 -0.274997,0.17543 -0.218102,0 -0.39116,-0.0972 -0.502582,-0.21336 z" />
      <path
         id="path496"
         style="font-weight:bold;font-size:2.37066674px;font-family:'Proxima Nova';dominant-baseline:hanging;text-anchor:middle;fill:#0044cc"
         d="m 36.337006,92.923264 h 1.118955 v -0.296333 h -0.78232 V 92.26896 h 0.765725 v -0.296333 h -0.765725 v -0.334264 h 0.78232 V 91.34203 h -1.118955 z" />
      <path
         id="path498"
         style="font-weight:bold;font-size:2.37066674px;font-family:'Proxima Nova';dominant-baseline:hanging;text-anchor:middle;fill:#0044cc"
         d="m 38.086521,92.923264 h 0.339005 v -1.284901 h 0.45991 V 91.34203 h -1.261195 v 0.296333 h 0.46228 z" />
    </g>
    <g
       id="text188"
       style="font-weight:bold;font-size:2.37066674px;font-family:'Proxima Nova';dominant-baseline:middle;text-anchor:start;fill:#0044cc"
       aria-label="AV">
      <path
         id="path501"
         style="font-weight:bold;font-size:2.37066674px;font-family:'Proxima Nova';dominant-baseline:middle;text-anchor:start;fill:#0044cc"
         d="m 38.01435,86.322516 h 0.384048 l -0.609261,-1.581235 h -0.421979 l -0.611632,1.581235 h 0.384048 l 0.09957,-0.267885 h 0.678011 z m -0.436202,-1.2446 0.246549,0.680381 h -0.493099 z" />
      <path
         id="path503"
         style="font-weight:bold;font-size:2.37066674px;font-family:'Proxima Nova';dominant-baseline:middle;text-anchor:start;fill:#0044cc"
         d="m 38.876606,86.322516 h 0.421979 l 0.609261,-1.581235 h -0.384048 l -0.436202,1.216152 -0.438574,-1.216152 h -0.384048 z" />
    </g>
    <g
       style="fill:#faf7f0;stroke:#0044cc"
       id="g202"
       transform="translate(34.592381,85.75)">
      <path
         id="rect190"
         d="m -1.125,-4.3125 h 2.25 c 0.103875,0 0.1875,0.083625 0.1875,0.1875 v 8.25 c 0,0.103875 -0.083625,0.1875 -0.1875,0.1875 h -2.25 c -0.103875,0 -0.1875,-0.083625 -0.1875,-0.1875 v -8.25 c 0,-0.103875 0.083625,-0.1875 0.1875,-0.1875 z"
         style="stroke-width:0.375" />
      <path
         id="line192"
         d="m -0.875,-3.75 h 1.75"
         style="stroke-width:0.25;stroke-linecap:round" />
      <path
         id="line194"
         d="m -0.875,-3.25 h 1.75"
         style="stroke-width:0.25;stroke-linecap:round" />
      <path
         id="line196"
         d="m -0.875,-2.75 h 1.75"
         style="stroke-width:0.25;stroke-linecap:round" />
      <path
         id="line198"
         d="m -0.875,-2.25 h 1.75"
         style="stroke-width:0.25;stroke-linecap:round" />
      <path
         id="line200"
         d="m -0.875,-1.75 h 1.75"
         style="stroke-width:0.25;stroke-linecap:round" />
    </g>
    <path
       id="rect204"
       d="m 43.522144,79.044556 h 8.75 c 0.554,0 1,0.446 1,1 V 91.375 c 0,0.554 -0.446,1 -1,1 h -8.75 c -0.554,0 -1,-0.446 -1,-1 V 80.044556 c 0,-0.554 0.446,-1 1,-1 z"
       style="fill:#0044cc;stroke:#0044cc;stroke-width:0.34999999" />
    <g
       id="text206"
       style="font-weight:bold;font-size:2.37066674px;font-family:'Proxima Nova';text-anchor:middle;fill:#faf7f0"
       aria-label="OUT">
      <path
         id="path513"
         style="font-weight:bold;font-size:2.37066674px;font-family:'Proxima Nova';text-anchor:middle;fill:#faf7f0"
         d="m 45.512161,81.010571 c 0,0.476504 0.348488,0.81788 0.824992,0.81788 0.478875,0 0.827363,-0.341376 0.827363,-0.81788 0,-0.476504 -0.348488,-0.81788 -0.827363,-0.81788 -0.476504,0 -0.824992,0.341376 -0.824992,0.81788 z m 1.306237,0 c 0,0.293963 -0.189653,0.519176 -0.481245,0.519176 -0.291592,0 -0.478875,-0.225213 -0.478875,-0.519176 0,-0.296333 0.187283,-0.519176 0.478875,-0.519176 0.291592,0 0.481245,0.222843 0.481245,0.519176 z" />
      <path
         id="path515"
         style="font-weight:bold;font-size:2.37066674px;font-family:'Proxima Nova';text-anchor:middle;fill:#faf7f0"
         d="m 47.403064,81.169406 c 0,0.388789 0.232325,0.659045 0.713571,0.659045 0.481245,0 0.71357,-0.267885 0.71357,-0.661416 v -0.948267 h -0.343746 v 0.938784 c 0,0.220472 -0.125646,0.372195 -0.369824,0.372195 -0.244179,0 -0.372195,-0.151723 -0.372195,-0.372195 v -0.938784 h -0.341376 z" />
      <path
         id="path517"
         style="font-weight:bold;font-size:2.37066674px;font-family:'Proxima Nova';text-anchor:middle;fill:#faf7f0"
         d="m 49.504475,81.800003 h 0.339005 v -1.284901 h 0.45991 v -0.296334 h -1.261195 v 0.296334 h 0.46228 z" />
    </g>
    <g
       style="fill:#faf7f0;stroke:#0044cc;stroke-width:0.20999999"
       id="g214"
       transform="translate(47.897143,87)">
      <path
         id="circle208"
         d="M 4.0949998,0 A 4.0949998,4.0949998 0 0 1 0,4.0949998 4.0949998,4.0949998 0 0 1 -4.0949998,0 4.0949998,4.0949998 0 0 1 0,-4.0949998 4.0949998,4.0949998 0 0 1 4.0949998,0 Z"
         style="" />
      <path
         id="circle210"
         d="M 2.925,0 A 2.925,2.925 0 0 1 0,2.925 2.925,2.925 0 0 1 -2.925,0 2.925,2.925 0 0 1 0,-2.925 2.925,2.925 0 0 1 2.925,0 Z"
         style="" />
      <path
         id="circle212"
         d="M 1.755,0 A 1.755,1.755 0 0 1 0,1.755 1.755,1.755 0 0 1 -1.755,0 1.755,1.755 0 0 1 0,-1.755 1.755,1.755 0 0 1 1.755,0 Z"
         style="fill:#0044cc" />
    </g>
    <path
       id="rect216"
       d="m 3.6078572,99.044556 h 8.7499998 c 0.554,0 1,0.446 1,1.000004 V 111.375 c 0,0.554 -0.446,1 -1,1 H 3.6078572 c -0.554,0 -1,-0.446 -1,-1 v -11.33044 c 0,-0.554004 0.446,-1.000004 1,-1.000004 z"
       style="fill:#faf7f0;stroke:#0044cc;stroke-width:0.34999999" />
    <g
       id="text218"
       style="font-weight:bold;font-size:2.37066674px;font-family:'Proxima Nova';text-anchor:middle;fill:#0044cc"
       aria-label="IN">
      <path
         id="path524"
         style="font-weight:bold;font-size:2.37066674px;font-family:'Proxima Nova';text-anchor:middle;fill:#0044cc"
         d="m 6.9516728,101.8 h 0.3366346 v -1.58123 H 6.9516728 Z" />
      <path
         id="path526"
         style="font-weight:bold;font-size:2.37066674px;font-family:'Proxima Nova';text-anchor:middle;fill:#0044cc"
         d="M 8.6904086,101.8 H 9.01519 v -1.58123 H 8.6785553 v 0.99331 l -0.732536,-0.99331 H 7.5999019 V 101.8 h 0.3366347 v -1.03124 z" />
    </g>
    <g
       style="fill:#faf7f0;stroke:#0044cc;stroke-width:0.20999999"
       id="g226"
       transform="translate(7.9828571,107)">
      <path
         id="circle220"
         d="M 4.0949998,0 A 4.0949998,4.0949998 0 0 1 0,4.0949998 4.0949998,4.0949998 0 0 1 -4.0949998,0 4.0949998,4.0949998 0 0 1 0,-4.0949998 4.0949998,4.0949998 0 0 1 4.0949998,0 Z"
         style="" />
      <path
         id="circle222"
         d="M 2.925,0 A 2.925,2.925 0 0 1 0,2.925 2.925,2.925 0 0 1 -2.925,0 2.925,2.925 0 0 1 0,-2.925 2.925,2.925 0 0 1 2.925,0 Z"
         style="" />
      <path
         id="circle224"
         d="M 1.755,0 A 1.755,1.755 0 0 1 0,1.755 1.755,1.755 0 0 1 -1.755,0 1.755,1.755 0 0 1 0,-1.755 1.755,1.755 0 0 1 1.755,0 Z"
         style="fill:#0044cc" />
    </g>
    <g
       id="text228"
       style="font-weight:bold;font-size:3.0480001px;font-family:'Proxima Nova';text-anchor:middle;fill:#0044cc" />
    <g
       style="fill:#0044cc;stroke:#faf7f0"
       id="g234"
       transform="translate(22.537619,105.75)">
      <path
         id="circle230"
         d="M 6.3499999,0 A 6.3499999,6.3499999 0 0 1 0,6.3499999 6.3499999,6.3499999 0 0 1 -6.3499999,0 6.3499999,6.3499999 0 0 1 0,-6.3499999 6.3499999,6.3499999 0 0 1 6.3499999,0 Z"
         style="stroke:none" />
      <path
         id="line232"
         d="M 0,0 V -5.5562501"
         style="stroke-width:0.79374999;stroke-linecap:round" />
    </g>
    <g
       id="text236"
       style="font-weight:bold;font-size:2.37066674px;font-family:'Proxima Nova';text-anchor:middle;fill:#0044cc"
       aria-label="GAIN">
      <path
         id="path535"
         style="font-weight:bold;font-size:2.37066674px;font-family:'Proxima Nova';text-anchor:middle;fill:#0044cc"
         d="m 31.830035,99.285565 c 0,0.49784 0.379307,0.820255 0.841587,0.820255 0.286851,0 0.512064,-0.118538 0.673269,-0.298708 v -0.606891 h -0.753872 v 0.293963 h 0.417238 v 0.189653 c -0.06401,0.05927 -0.196766,0.120904 -0.336635,0.120904 -0.286851,0 -0.495469,-0.220472 -0.495469,-0.519176 0,-0.298704 0.208618,-0.519176 0.495469,-0.519176 0.168317,0 0.303445,0.09483 0.374565,0.206248 l 0.279739,-0.151723 c -0.118533,-0.187282 -0.324781,-0.353229 -0.654304,-0.353229 -0.46228,0 -0.841587,0.317669 -0.841587,0.81788 z" />
      <path
         id="path537"
         style="font-weight:bold;font-size:2.37066674px;font-family:'Proxima Nova';text-anchor:middle;fill:#0044cc"
         d="m 34.686429,100.075 h 0.384048 L 34.461216,98.493762 H 34.039237 L 33.427605,100.075 h 0.384048 l 0.09957,-0.267888 h 0.678011 z m -0.436202,-1.244603 0.246549,0.680381 h -0.493099 z" />
      <path
         id="path539"
         style="font-weight:bold;font-size:2.37066674px;font-family:'Proxima Nova';text-anchor:middle;fill:#0044cc"
         d="M 35.216495,100.075 H 35.55313 V 98.493762 H 35.216495 Z" />
      <path
         id="path541"
         style="font-weight:bold;font-size:2.37066674px;font-family:'Proxima Nova';text-anchor:middle;fill:#0044cc"
         d="m 36.955231,100.075 h 0.324782 v -1.581238 h -0.336635 v 0.99331 l -0.732536,-0.99331 H 35.864725 V 100.075 h 0.336634 v -1.031243 z" />
    </g>
    <g
       id="text238"
       style="font-weight:bold;font-size:2.37066674px;font-family:'Proxima Nova';dominant-baseline:hanging;text-anchor:middle;fill:#0044cc"
       aria-label="OFFSET">
      <path
         id="path544"
         style="font-weight:bold;font-size:2.37066674px;font-family:'Proxima Nova';dominant-baseline:hanging;text-anchor:middle;fill:#0044cc"
         d="m 30.320587,112.13383 c 0,0.47651 0.348488,0.81788 0.824992,0.81788 0.478875,0 0.827363,-0.34137 0.827363,-0.81788 0,-0.4765 -0.348488,-0.81788 -0.827363,-0.81788 -0.476504,0 -0.824992,0.34138 -0.824992,0.81788 z m 1.306238,0 c 0,0.29397 -0.189654,0.51918 -0.481246,0.51918 -0.291592,0 -0.478874,-0.22521 -0.478874,-0.51918 0,-0.29633 0.187282,-0.51917 0.478874,-0.51917 0.291592,0 0.481246,0.22284 0.481246,0.51917 z" />
      <path
         id="path546"
         style="font-weight:bold;font-size:2.37066674px;font-family:'Proxima Nova';dominant-baseline:hanging;text-anchor:middle;fill:#0044cc"
         d="m 32.21149,112.92326 h 0.336635 v -0.6543 h 0.765725 v -0.29633 h -0.765725 v -0.33427 h 0.78232 v -0.29633 H 32.21149 Z" />
      <path
         id="path548"
         style="font-weight:bold;font-size:2.37066674px;font-family:'Proxima Nova';dominant-baseline:hanging;text-anchor:middle;fill:#0044cc"
         d="m 33.563511,112.92326 h 0.336635 v -0.6543 h 0.765725 v -0.29633 h -0.765725 v -0.33427 h 0.78232 v -0.29633 h -1.118955 z" />
      <path
         id="path550"
         style="font-weight:bold;font-size:2.37066674px;font-family:'Proxima Nova';dominant-baseline:hanging;text-anchor:middle;fill:#0044cc"
         d="m 34.808852,112.70042 c 0.146981,0.14935 0.365083,0.25129 0.668528,0.25129 0.42672,0 0.632968,-0.2181 0.632968,-0.50732 0,-0.35797 -0.331893,-0.4362 -0.592667,-0.49784 -0.170688,-0.0403 -0.315298,-0.0735 -0.315298,-0.17543 0,-0.0948 0.0806,-0.15883 0.225213,-0.15883 0.161205,0 0.331893,0.0545 0.459909,0.17305 l 0.187283,-0.24654 c -0.156464,-0.14462 -0.365083,-0.22048 -0.616373,-0.22048 -0.372195,0 -0.599779,0.2181 -0.599779,0.48125 0,0.36034 0.331893,0.43146 0.590296,0.49073 0.173059,0.0427 0.32004,0.0759 0.32004,0.19202 0,0.0901 -0.09008,0.17543 -0.274997,0.17543 -0.218102,0 -0.39116,-0.0972 -0.502582,-0.21336 z" />
      <path
         id="path552"
         style="font-weight:bold;font-size:2.37066674px;font-family:'Proxima Nova';dominant-baseline:hanging;text-anchor:middle;fill:#0044cc"
         d="m 36.337006,112.92326 h 1.118955 v -0.29633 h -0.78232 v -0.35797 h 0.765725 v -0.29633 h -0.765725 v -0.33427 h 0.78232 v -0.29633 h -1.118955 z" />
      <path
         id="path554"
         style="font-weight:bold;font-size:2.37066674px;font-family:'Proxima Nova';dominant-baseline:hanging;text-anchor:middle;fill:#0044cc"
         d="m 38.086521,112.92326 h 0.339005 v -1.2849 h 0.45991 v -0.29633 h -1.261195 v 0.29633 h 0.46228 z" />
    </g>
    <g
       id="text240"
       style="font-weight:bold;font-size:2.37066674px;font-family:'Proxima Nova';dominant-baseline:middle;text-anchor:start;fill:#0044cc"
       aria-label="AV">
      <path
         id="path557"
         style="font-weight:bold;font-size:2.37066674px;font-family:'Proxima Nova';dominant-baseline:middle;text-anchor:start;fill:#0044cc"
         d="m 38.01435,106.32252 h 0.384048 l -0.609261,-1.58124 h -0.421979 l -0.611632,1.58124 h 0.384048 l 0.09957,-0.26789 h 0.678011 z m -0.436202,-1.2446 0.246549,0.68038 h -0.493099 z" />
      <path
         id="path559"
         style="font-weight:bold;font-size:2.37066674px;font-family:'Proxima Nova';dominant-baseline:middle;text-anchor:start;fill:#0044cc"
         d="m 38.876606,106.32252 h 0.421979 l 0.609261,-1.58124 h -0.384048 l -0.436202,1.21615 -0.438574,-1.21615 h -0.384048 z" />
    </g>
    <g
       style="fill:#faf7f0;stroke:#0044cc"
       id="g254"
       transform="translate(34.592381,105.75)">
      <path
         id="rect242"
         d="m -1.125,-4.3125 h 2.25 c 0.103875,0 0.1875,0.083625 0.1875,0.1875 v 8.25 c 0,0.103875 -0.083625,0.1875 -0.1875,0.1875 h -2.25 c -0.103875,0 -0.1875,-0.083625 -0.1875,-0.1875 v -8.25 c 0,-0.103875 0.083625,-0.1875 0.1875,-0.1875 z"
         style="stroke-width:0.375" />
      <path
         id="line244"
         d="m -0.875,-3.75 h 1.75"
         style="stroke-width:0.25;stroke-linecap:round" />
      <path
         id="line246"
         d="m -0.875,-3.25 h 1.75"
         style="stroke-width:0.25;stroke-linecap:round" />
      <path
         id="line248"
         d="m -0.875,-2.75 h 1.75"
         style="stroke-width:0.25;stroke-linecap:round" />
      <path
         id="line250"
         d="m -0.875,-2.25 h 1.75"
         style="stroke-width:0.25;stroke-linecap:round" />
      <path
         id="line252"
         d="m -0.875,-1.75 h 1.75"
         style="stroke-width:0.25;stroke-linecap:round" />
    </g>
    <path
       id="rect256"
       d="m 43.522144,99.044556 h 8.75 c 0.554,0 1,0.446 1,1.000004 V 111.375 c 0,0.554 -0.446,1 -1,1 h -8.75 c -0.554,0 -1,-0.446 -1,-1 v -11.33044 c 0,-0.554004 0.446,-1.000004 1,-1.000004 z"
       style="fill:#0044cc;stroke:#0044cc;stroke-width:0.34999999" />
    <g
       id="text258"
       style="font-weight:bold;font-size:2.37066674px;font-family:'Proxima Nova';text-anchor:middle;fill:#faf7f0"
       aria-label="OUT">
      <path
         id="path569"
         style="font-weight:bold;font-size:2.37066674px;font-family:'Proxima Nova';text-anchor:middle;fill:#faf7f0"
         d="m 45.512161,101.01057 c 0,0.47651 0.348488,0.81788 0.824992,0.81788 0.478875,0 0.827363,-0.34137 0.827363,-0.81788 0,-0.4765 -0.348488,-0.81788 -0.827363,-0.81788 -0.476504,0 -0.824992,0.34138 -0.824992,0.81788 z m 1.306237,0 c 0,0.29396 -0.189653,0.51918 -0.481245,0.51918 -0.291592,0 -0.478875,-0.22522 -0.478875,-0.51918 0,-0.29633 0.187283,-0.51917 0.478875,-0.51917 0.291592,0 0.481245,0.22284 0.481245,0.51917 z" />
      <path
         id="path571"
         style="font-weight:bold;font-size:2.37066674px;font-family:'Proxima Nova';text-anchor:middle;fill:#faf7f0"
         d="m 47.403064,101.16941 c 0,0.38879 0.232325,0.65904 0.713571,0.65904 0.481245,0 0.71357,-0.26788 0.71357,-0.66141 v -0.94827 h -0.343746 v 0.93878 c 0,0.22047 -0.125646,0.3722 -0.369824,0.3722 -0.244179,0 -0.372195,-0.15173 -0.372195,-0.3722 v -0.93878 h -0.341376 z" />
      <path
         id="path573"
         style="font-weight:bold;font-size:2.37066674px;font-family:'Proxima Nova';text-anchor:middle;fill:#faf7f0"
         d="m 49.504475,101.8 h 0.339005 v -1.2849 h 0.45991 v -0.29633 h -1.261195 v 0.29633 h 0.46228 z" />
    </g>
    <g
       style="fill:#faf7f0;stroke:#0044cc;stroke-width:0.20999999"
       id="g266"
       transform="translate(47.897143,107)">
      <path
         id="circle260"
         d="M 4.0949998,0 A 4.0949998,4.0949998 0 0 1 0,4.0949998 4.0949998,4.0949998 0 0 1 -4.0949998,0 4.0949998,4.0949998 0 0 1 0,-4.0949998 4.0949998,4.0949998 0 0 1 4.0949998,0 Z"
         style="" />
      <path
         id="circle262"
         d="M 2.925,0 A 2.925,2.925 0 0 1 0,2.925 2.925,2.925 0 0 1 -2.925,0 2.925,2.925 0 0 1 0,-2.925 2.925,2.925 0 0 1 2.925,0 Z"
         style="" />
      <path
         id="circle264"
         d="M 1.755,0 A 1.755,1.755 0 0 1 0,1.755 1.755,1.755 0 0 1 -1.755,0 1.755,1.755 0 0 1 0,-1.755 1.755,1.755 0 0 1 1.755,0 Z"
         style="fill:#0044cc" />
    </g>
  </g>
</svg>
