<?xml version="1.0" encoding="UTF-8" standalone="no"?>
<!DOCTYPE svg PUBLIC "-//W3C//DTD SVG 1.1//EN" "http://www.w3.org/Graphics/SVG/1.1/DTD/svg11.dtd">
<svg width="61px" height="380px" version="1.1" xmlns="http://www.w3.org/2000/svg" xmlns:xlink="http://www.w3.org/1999/xlink" xml:space="preserve" xmlns:serif="http://www.serif.com/" style="fill-rule:evenodd;clip-rule:evenodd;stroke-linecap:round;stroke-linejoin:round;stroke-miterlimit:1.5;">
    <g transform="matrix(1,0,0,1,-280,0)">
        <g id="Swave" transform="matrix(2.35982,0,0,12.5786,584.93,-86.6018)">
            <rect x="-129.001" y="6.885" width="25.326" height="30.165" style="fill:rgb(255,68,0);"/>
            <clipPath id="_clip1">
                <rect x="-129.001" y="6.885" width="25.326" height="30.165"/>
            </clipPath>
            <g clip-path="url(#_clip1)">
                <g id="Background" transform="matrix(0.513426,0,0,0.353117,-305.333,-3.72088)">
                    <rect x="343.442" y="30.035" width="49.327" height="85.424" style="fill:rgb(255,242,230);"/>
                    <path d="M392.768,115.458L343.442,115.458L343.442,30.035L392.768,30.035L392.768,115.458ZM344.051,30.201L344.051,115.292L392.159,115.292L392.159,30.201L344.051,30.201Z" style="fill:rgb(255,68,0);"/>
                </g>
                <g id="OUT" transform="matrix(0.51625,0,0,0.0983737,-151.863,27.7923)">
                    <rect x="66.681" y="35.639" width="26.661" height="38.18" style="fill:none;"/>
                    <g id="Border" transform="matrix(0.819372,0,0,0.585831,44.357,-0.655943)">
                        <path d="M56.502,67.682C56.502,65.708 55.338,64.105 53.904,64.105L33.125,64.105C31.691,64.105 30.527,65.708 30.527,67.682L30.527,110.886C30.527,112.86 31.691,114.463 33.125,114.463L53.904,114.463C55.338,114.463 56.502,112.86 56.502,110.886L56.502,67.682Z" style="fill:rgb(255,68,0);stroke:rgb(255,68,0);stroke-width:1.15px;"/>
                    </g>
                    <g transform="matrix(0.820847,0,0,0.808143,56.9184,3.09951)">
                        <path id="Label" d="M21.112,47.12C21.112,48.523 22.138,49.528 23.541,49.528C24.951,49.528 25.977,48.523 25.977,47.12C25.977,45.718 24.951,44.713 23.541,44.713C22.138,44.713 21.112,45.718 21.112,47.12ZM24.958,47.12C24.958,47.986 24.399,48.649 23.541,48.649C22.683,48.649 22.131,47.986 22.131,47.12C22.131,46.248 22.683,45.592 23.541,45.592C24.399,45.592 24.958,46.248 24.958,47.12Z" style="fill:rgb(255,242,230);fill-rule:nonzero;"/>
                        <path d="M26.675,47.588C26.675,48.733 27.359,49.528 28.775,49.528C30.192,49.528 30.876,48.74 30.876,47.581L30.876,44.789L29.864,44.789L29.864,47.553C29.864,48.202 29.494,48.649 28.775,48.649C28.057,48.649 27.68,48.202 27.68,47.553L27.68,44.789L26.675,44.789L26.675,47.588Z" style="fill:rgb(255,242,230);fill-rule:nonzero;"/>
                        <path d="M32.865,49.445L33.863,49.445L33.863,45.662L35.217,45.662L35.217,44.789L31.504,44.789L31.504,45.662L32.865,45.662L32.865,49.445Z" style="fill:rgb(255,242,230);fill-rule:nonzero;"/>
                    </g>
                </g>
                <g id="IN" transform="matrix(0.51625,0,0,0.0983737,-163.425,27.7923)">
                    <rect x="66.681" y="35.639" width="26.661" height="38.18" style="fill:none;"/>
                    <g id="Border1" serif:id="Border" transform="matrix(0.819372,0,0,0.585831,44.357,-0.655943)">
                        <path d="M56.502,67.682C56.502,65.708 55.338,64.105 53.904,64.105L33.125,64.105C31.691,64.105 30.527,65.708 30.527,67.682L30.527,110.886C30.527,112.86 31.691,114.463 33.125,114.463L53.904,114.463C55.338,114.463 56.502,112.86 56.502,110.886L56.502,67.682Z" style="fill:none;stroke:rgb(255,68,0);stroke-width:1.15px;"/>
                    </g>
                    <g transform="matrix(0.820847,0,0,0.808143,56.9184,3.09951)">
                        <rect id="Label1" serif:id="Label" x="25.094" y="44.789" width="0.991" height="4.655" style="fill:rgb(255,68,0);fill-rule:nonzero;"/>
                        <path d="M30.217,49.445L31.173,49.445L31.173,44.789L30.182,44.789L30.182,47.714L28.025,44.789L27.006,44.789L27.006,49.445L27.997,49.445L27.997,46.409L30.217,49.445Z" style="fill:rgb(255,68,0);fill-rule:nonzero;"/>
                    </g>
                </g>
                <g id="_---" serif:id="-/+" transform="matrix(0.228995,0,0,0.0806623,-130.036,11.1284)">
                    <rect x="24.299" y="98.722" width="71.034" height="58.204" style="fill:none;"/>
                    <g transform="matrix(1.85053,0,0,0.98559,0.654112,61.07)">
                        <rect id="Label2" serif:id="Label" x="25.544" y="47.23" width="2.875" height="1.294" style="fill:rgb(255,68,0);fill-rule:nonzero;"/>
                        <path d="M28.778,51.016L29.88,51.016L32.719,42.546L31.617,42.546L28.778,51.016Z" style="fill:rgb(255,68,0);fill-rule:nonzero;"/>
                        <path d="M36.265,47.206L38.409,47.206L38.409,46.26L36.265,46.26L36.265,43.924L35.223,43.924L35.223,46.26L33.067,46.26L33.067,47.206L35.223,47.206L35.223,49.638L36.265,49.638L36.265,47.206Z" style="fill:rgb(255,68,0);fill-rule:nonzero;"/>
                    </g>
                </g>
                <g id="Shape" transform="matrix(2.00099,0,0,1,118.529,-4.34277)">
                    <g>
                        <g id="Switch-2" serif:id="Switch 2" transform="matrix(0.16421,0,0,0.0571875,-120.801,16.1716)">
                            <rect x="21.318" y="61.322" width="34.273" height="61.572" style="fill:none;"/>
                            <g id="J-CURVE" serif:id="J CURVE" transform="matrix(0.02533,0,0,0.0299068,35.1382,116.513)">
                                <path d="M-102.125,75.403L-54.213,73.85L-28.08,72.814L-1.946,71.001L24.188,68.929L50.321,66.081L76.455,62.196L102.589,57.017L128.722,50.024L154.856,40.961L180.989,28.789L207.123,13.251C211.623,10.951 228.957,-3.89 233.257,-6.69C237.757,-9.69 255.09,-28.569 259.39,-32.069C263.89,-35.869 281.224,-59.363 285.524,-63.663C290.024,-68.363 307.358,-96.949 311.658,-102.249C316.158,-107.749 333.491,-141.469 337.791,-147.569L363.925,-199.103" style="fill:none;stroke:rgb(255,68,0);stroke-width:60.68px;stroke-miterlimit:4;"/>
                            </g>
                            <g id="SIGMOID" transform="matrix(0.0224516,0,0,0.0265083,35.515,71.1914)">
                                <path d="M-132,93L-107.8,92.4L-94.6,92L-81.4,91.3L-68.2,90.5L-55,89.4L-41.8,87.9L-28.6,85.9L-15.4,83.2L-2.2,79.7L11,75L24.2,69C28.7,66.7 33.1,64.1 37.4,61.3C41.9,58.3 46.3,55 50.6,51.5C55.1,47.7 59.5,43.6 63.8,39.3C68.3,34.6 72.7,29.7 77,24.4C81.5,18.9 85.9,13 90.2,6.9L103.4,-13L116.6,-34.9L129.8,-58L138.6,-73.5L151.8,-96.3L165,-117.6L178.2,-136.8C182.5,-142.6 186.9,-148.2 191.4,-153.4C195.7,-158.4 200.1,-163 204.6,-167.4C208.9,-171.5 213.3,-175.3 217.8,-178.7C222.1,-182.1 226.5,-185.1 231,-187.8C235.3,-190.5 239.8,-192.8 244.2,-195L257.4,-200.5L270.6,-204.7L283.8,-207.9L297,-210.3L310.2,-212.2L323.4,-213.5L336.6,-214.6L349.8,-215.3L363,-215.9L374,-216.2L393.8,-216.7" style="fill:none;stroke:rgb(255,68,0);stroke-width:68.46px;stroke-linejoin:miter;stroke-miterlimit:4;"/>
                            </g>
                        </g>
                        <g id="CV" transform="matrix(0.257997,0,0,0.0983737,-140.907,16.0551)">
                            <rect x="66.681" y="35.639" width="26.661" height="38.18" style="fill:none;"/>
                            <g transform="matrix(0.820847,0,0,0.808143,56.9184,3.09951)">
                                <path id="Label3" serif:id="Label" d="M26.078,49.528C27.104,49.528 27.69,48.963 28.025,48.384L27.174,47.972C26.978,48.356 26.56,48.649 26.078,48.649C25.233,48.649 24.619,48 24.619,47.12C24.619,46.241 25.233,45.592 26.078,45.592C26.56,45.592 26.978,45.892 27.174,46.269L28.025,45.85C27.697,45.271 27.104,44.713 26.078,44.713C24.682,44.713 23.6,45.69 23.6,47.12C23.6,48.551 24.682,49.528 26.078,49.528Z" style="fill:rgb(255,68,0);fill-rule:nonzero;"/>
                                <path d="M29.896,49.445L31.138,49.445L32.932,44.789L31.801,44.789L30.517,48.37L29.226,44.789L28.095,44.789L29.896,49.445Z" style="fill:rgb(255,68,0);fill-rule:nonzero;"/>
                            </g>
                        </g>
                        <g id="Knob" transform="matrix(0.132047,0,0,0.0806623,-125.274,6.78564)">
                            <rect x="24.299" y="98.722" width="71.034" height="58.204" style="fill:none;"/>
                            <g transform="matrix(1.60379,0,0,0.98559,8.54239,56.3603)">
                                <path id="Label-Large" serif:id="Label Large" d="M17.727,49.934C18.282,50.498 19.106,50.884 20.253,50.884C21.865,50.884 22.645,50.059 22.645,48.967C22.645,47.614 21.391,47.318 20.405,47.085C19.76,46.933 19.214,46.808 19.214,46.422C19.214,46.064 19.518,45.822 20.065,45.822C20.674,45.822 21.319,46.028 21.803,46.476L22.51,45.544C21.919,44.998 21.131,44.711 20.181,44.711C18.775,44.711 17.915,45.535 17.915,46.53C17.915,47.892 19.169,48.16 20.145,48.384C20.799,48.545 21.355,48.671 21.355,49.11C21.355,49.45 21.014,49.773 20.316,49.773C19.491,49.773 18.838,49.405 18.416,48.967L17.727,49.934Z" style="fill:rgb(255,68,0);fill-rule:nonzero;"/>
                                <path d="M27.599,50.776L28.88,50.776L28.88,44.801L27.599,44.801L27.599,47.148L24.777,47.148L24.777,44.801L23.505,44.801L23.505,50.776L24.777,50.776L24.777,48.268L27.599,48.268L27.599,50.776Z" style="fill:rgb(255,68,0);fill-rule:nonzero;"/>
                                <path d="M34.174,50.776L35.625,50.776L33.323,44.801L31.729,44.801L29.417,50.776L30.869,50.776L31.245,49.764L33.807,49.764L34.174,50.776ZM32.526,46.073L33.458,48.644L31.594,48.644L32.526,46.073Z" style="fill:rgb(255,68,0);fill-rule:nonzero;"/>
                                <path d="M36.181,50.776L37.453,50.776L37.453,48.653L38.976,48.653C40.266,48.653 40.983,47.766 40.983,46.727C40.983,45.679 40.275,44.801 38.976,44.801L36.181,44.801L36.181,50.776ZM39.684,46.727C39.684,47.22 39.307,47.533 38.806,47.533L37.453,47.533L37.453,45.921L38.806,45.921C39.307,45.921 39.684,46.225 39.684,46.727Z" style="fill:rgb(255,68,0);fill-rule:nonzero;"/>
                                <path d="M41.771,50.776L45.999,50.776L45.999,49.656L43.043,49.656L43.043,48.304L45.936,48.304L45.936,47.184L43.043,47.184L43.043,45.921L45.999,45.921L45.999,44.801L41.771,44.801L41.771,50.776Z" style="fill:rgb(255,68,0);fill-rule:nonzero;"/>
                            </g>
                        </g>
                    </g>
                </g>
                <g id="Plugin-Labels" serif:id="Plugin Labels" transform="matrix(2.00099,0,0,1,129.128,0)">
                    <g transform="matrix(0.211776,0,0,0.0795,-132.447,32.4349)">
                        <path id="DHE" d="M34.777,40.151L37.927,40.151C40.431,40.151 42.168,38.57 42.168,36.162C42.168,33.754 40.431,32.161 37.927,32.161L34.777,32.161L34.777,40.151ZM36.478,38.654L36.478,33.659L37.927,33.659C39.568,33.659 40.431,34.749 40.431,36.162C40.431,37.516 39.508,38.654 37.927,38.654L36.478,38.654Z" style="fill:rgb(255,68,0);fill-rule:nonzero;"/>
                        <path d="M48.852,40.151L50.565,40.151L50.565,32.161L48.852,32.161L48.852,35.3L45.079,35.3L45.079,32.161L43.378,32.161L43.378,40.151L45.079,40.151L45.079,36.797L48.852,36.797L48.852,40.151Z" style="fill:rgb(255,68,0);fill-rule:nonzero;"/>
                        <path d="M52.135,40.151L57.789,40.151L57.789,38.654L53.836,38.654L53.836,36.845L57.705,36.845L57.705,35.348L53.836,35.348L53.836,33.659L57.789,33.659L57.789,32.161L52.135,32.161L52.135,40.151Z" style="fill:rgb(255,68,0);fill-rule:nonzero;"/>
                    </g>
                    <g transform="matrix(0.211776,0,0,0.0795,-132.447,4.32802)">
                        <path id="Plugin" d="M26.176,56.919C26.918,57.674 28.02,58.189 29.554,58.189C31.71,58.189 32.752,57.087 32.752,55.625C32.752,53.816 31.075,53.421 29.757,53.11C28.895,52.906 28.164,52.738 28.164,52.223C28.164,51.744 28.571,51.421 29.302,51.421C30.117,51.421 30.979,51.696 31.626,52.295L32.573,51.049C31.782,50.319 30.728,49.935 29.458,49.935C27.577,49.935 26.427,51.037 26.427,52.367C26.427,54.188 28.104,54.547 29.41,54.847C30.285,55.062 31.027,55.23 31.027,55.817C31.027,56.272 30.572,56.703 29.638,56.703C28.536,56.703 27.661,56.212 27.098,55.625L26.176,56.919Z" style="fill:rgb(255,68,0);fill-rule:nonzero;"/>
                        <path d="M40.012,58.045L41.82,58.045L44.096,50.055L42.18,50.055L40.79,55.829L39.281,50.055L37.951,50.055L36.43,55.829L35.028,50.055L33.124,50.055L35.412,58.045L37.22,58.045L38.61,52.559L40.012,58.045Z" style="fill:rgb(255,68,0);fill-rule:nonzero;"/>
                        <path d="M49.882,58.045L51.823,58.045L48.744,50.055L46.612,50.055L43.521,58.045L45.462,58.045L45.965,56.691L49.391,56.691L49.882,58.045ZM47.678,51.756L48.924,55.194L46.432,55.194L47.678,51.756Z" style="fill:rgb(255,68,0);fill-rule:nonzero;"/>
                        <path d="M54.243,58.045L56.375,58.045L59.454,50.055L57.513,50.055L55.309,56.2L53.093,50.055L51.152,50.055L54.243,58.045Z" style="fill:rgb(255,68,0);fill-rule:nonzero;"/>
                        <path d="M60.196,58.045L65.851,58.045L65.851,56.548L61.898,56.548L61.898,54.739L65.767,54.739L65.767,53.241L61.898,53.241L61.898,51.552L65.851,51.552L65.851,50.055L60.196,50.055L60.196,58.045Z" style="fill:rgb(255,68,0);fill-rule:nonzero;"/>
                    </g>
                </g>
            </g>
        </g>
    </g>
</svg>
